<svg width="459" height="458" viewBox="0 0 459 458" fill="none" xmlns="http://www.w3.org/2000/svg">
<path d="M111.925 26.6162C96.254 48.5671 113.979 84.609 90.8955 100.998C68.4257 116.952 41.3111 90.1275 20.1489 103.841C-11.2448 124.186 -6.54495 218.839 38.4173 278.09C51.9391 295.909 63.3196 302.907 68.1829 322.951C78.6248 365.988 40.073 391.117 47.1357 412.424C63.0364 460.397 314.885 503.16 417.617 360.573C465.596 293.98 473.688 197.173 432.223 123.146C357.298 -10.6191 147.088 -22.6374 111.925 26.6162Z" fill="#F4F7FA"/>
<path d="M269.455 393.346L399.538 383.445V17.1872L269.455 7.54761V393.346Z" fill="url(#paint0_linear_443_146)"/>
<path d="M386.938 150.742V306.393H389.485V346.231H269.455V150.742H386.938Z" fill="#D8DEE8"/>
<mask id="mask0_443_146" style="mask-type:luminance" maskUnits="userSpaceOnUse" x="269" y="25" width="121" height="351">
<path d="M389.485 367.435V33.2147L269.455 25.1426V375.749L389.485 367.435Z" fill="white"/>
</mask>
<g mask="url(#mask0_443_146)">
<path d="M230.518 -19.1479C230.518 -19.1479 230.392 65.108 211.508 103.786C192.625 142.464 185.52 180.12 199.73 202.169C213.939 224.217 269.455 190.573 269.455 190.573C269.455 190.573 295.649 209.063 307.491 248.631C319.332 288.198 396.303 321.168 412.882 310.014C429.461 298.861 422.355 0.257486 422.355 0.257486L230.518 -19.1479Z" fill="white"/>
<path d="M416.435 332.72C416.435 332.72 369.794 354.481 334.497 334.373C299.201 314.265 269.455 278.127 269.455 278.127C269.455 278.127 233.559 300.135 214.276 298.906C194.993 297.677 180.728 235.774 180.728 235.774C180.728 235.774 148.81 219.903 134.6 187.7C120.391 155.498 76.7719 120.427 52.8924 113.081C29.013 105.734 14.9993 119.449 14.9993 119.449L20.921 400.137L389.487 419.448L416.436 332.72H416.435Z" fill="white"/>
</g>
<path d="M180.73 372.302H29.0131L29.0131 29.1019H180.73L180.73 372.302Z" fill="url(#paint1_linear_443_146)"/>
<path d="M41.3128 356.622V44.5417H180.728L222.565 162.386L180.728 356.622H41.3128Z" fill="#D8DEE8"/>
<mask id="mask1_443_146" style="mask-type:luminance" maskUnits="userSpaceOnUse" x="41" y="44" width="140" height="313">
<path d="M41.3145 356.622L41.3145 44.5417L180.73 44.5417L180.73 356.622H41.3145Z" fill="white"/>
</mask>
<g mask="url(#mask1_443_146)">
<path d="M416.435 332.72C416.435 332.72 369.794 354.481 334.497 334.373C299.201 314.265 269.455 278.128 269.455 278.128C269.455 278.128 233.559 300.135 214.276 298.906C194.993 297.677 180.728 235.774 180.728 235.774C180.728 235.774 148.81 219.903 134.601 187.701C120.391 155.498 76.772 120.428 52.8925 113.081C29.0131 105.734 14.9994 119.45 14.9994 119.45L20.9211 400.137L389.487 419.449L416.436 332.72H416.435Z" fill="white"/>
<path d="M206.385 -8.66772C206.385 -8.66772 218.959 49.0644 206.385 64.3666C193.81 79.6688 184.227 123.467 180.728 135.335C177.231 147.204 149.995 173.182 135.784 149.529C121.574 125.877 100.258 108.623 89.601 100.663C78.9439 92.7024 11.4454 84.5266 7.89297 78.5434C4.34061 72.5601 1.97292 4.67027 1.97292 4.67027L206.385 -8.66772Z" fill="white"/>
</g>
<path d="M180.728 372.3L269.455 393.346V7.54761L180.728 29.1002V44.5416L197.338 77.5247L202.411 350.098L180.728 356.622V372.3Z" fill="url(#paint2_linear_443_146)"/>
<path d="M180.728 304.34V48.5494L211.971 37.8492L227.467 34.4244L230.141 34.1086V190.168H269.455V304.34H180.728Z" fill="#97A6B7"/>
<mask id="mask2_443_146" style="mask-type:luminance" maskUnits="userSpaceOnUse" x="180" y="25" width="90" height="351">
<path d="M269.455 375.749V25.1426L180.728 44.5415V356.646L269.455 375.749Z" fill="white"/>
</mask>
<g mask="url(#mask2_443_146)">
<path d="M230.518 -19.1479C230.518 -19.1479 230.392 65.108 211.508 103.786C192.625 142.464 185.52 180.12 199.73 202.169C213.939 224.217 269.455 190.573 269.455 190.573C269.455 190.573 295.649 209.063 307.491 248.631C319.332 288.198 396.303 321.168 412.882 310.014C429.461 298.861 422.355 0.257486 422.355 0.257486L230.518 -19.1479Z" fill="#D8DEE8"/>
<path d="M416.435 332.72C416.435 332.72 369.794 354.481 334.497 334.373C299.201 314.265 269.455 278.127 269.455 278.127C269.455 278.127 233.559 300.135 214.276 298.906C194.993 297.677 180.728 235.774 180.728 235.774C180.728 235.774 148.81 219.903 134.6 187.7C120.391 155.498 76.7719 120.427 52.8924 113.081C29.013 105.734 14.9993 119.449 14.9993 119.449L20.921 400.137L389.487 419.448L416.436 332.72H416.435Z" fill="#D8DEE8"/>
<path d="M206.384 -8.66797C206.384 -8.66797 218.959 49.0642 206.384 64.3664C193.809 79.6685 184.227 123.467 180.728 135.334C177.231 147.204 149.995 173.182 135.783 149.529C121.574 125.876 100.258 108.623 89.6009 100.662C78.9437 92.7021 11.4452 84.5264 7.89285 78.5431C4.34048 72.5599 1.97279 4.67003 1.97279 4.67003L206.384 -8.66797Z" fill="#D8DEE8"/>
</g>
<path opacity="0.53" d="M109.837 44.5415H112.205V372.301H109.837V44.5415Z" fill="url(#paint3_linear_443_146)"/>
<path opacity="0.53" d="M328.285 29.1794H330.653V372.3H328.285V29.1794Z" fill="url(#paint4_linear_443_146)"/>
<path opacity="0.53" d="M41.3128 154.228H180.867L181.002 154.196L269.544 133.14L389.385 143.269L389.584 140.906L269.366 130.747L269.181 130.792L180.589 151.859H41.3128V154.228Z" fill="url(#paint5_linear_443_146)"/>
<path d="M434.297 377.851V399.603C434.297 401.627 432.766 403.322 430.754 403.526L208.165 424.63L178.203 444.468L136.832 389.404L434.297 377.849V377.851Z" fill="url(#paint6_linear_443_146)"/>
<path d="M263.682 407.747V427.216C263.682 428.848 262.497 430.239 260.887 430.498L207.449 439.087L209.003 407.702L260.148 404.431C262.062 404.308 263.682 405.828 263.682 407.747Z" fill="url(#paint7_linear_443_146)"/>
<path d="M411.748 387.887C411.929 387.887 412.108 387.902 412.287 387.921L415.112 387.887L415.096 389.131C417.834 391.273 419.734 395.956 419.734 401.393C419.734 406.831 417.681 411.883 414.769 413.897L414.756 414.9H411.749C407.339 414.9 403.764 408.853 403.764 401.393C403.764 393.933 407.339 387.887 411.749 387.887H411.748Z" fill="url(#paint8_linear_443_146)"/>
<path d="M415.111 414.9C410.701 414.9 407.125 408.853 407.125 401.393C407.125 393.934 410.701 387.887 415.111 387.887C419.521 387.887 423.096 393.934 423.096 401.393C423.096 408.853 419.521 414.9 415.111 414.9Z" fill="url(#paint9_linear_443_146)"/>
<path d="M416.234 408.981C413.756 408.981 411.748 405.584 411.748 401.393C411.748 397.203 413.756 393.805 416.234 393.805C418.711 393.805 420.72 397.203 420.72 401.393C420.72 405.584 418.711 408.981 416.234 408.981Z" fill="#D8DEE8"/>
<path d="M415.554 408.437C413.451 408.437 411.746 405.284 411.746 401.393C411.746 397.503 413.451 394.35 415.554 394.35C417.657 394.35 419.362 397.503 419.362 401.393C419.362 405.284 417.657 408.437 415.554 408.437Z" fill="url(#paint10_linear_443_146)"/>
<path d="M392.876 389.406C393.075 389.406 393.27 389.42 393.465 389.443L396.561 389.406L396.543 390.769C399.542 393.116 401.625 398.247 401.625 404.204C401.625 410.162 399.375 415.697 396.184 417.904L396.169 419.001H392.876C388.043 419.001 384.127 412.377 384.127 404.203C384.127 396.029 388.045 389.404 392.876 389.404V389.406Z" fill="url(#paint11_linear_443_146)"/>
<path d="M396.562 419.003C391.73 419.003 387.813 412.378 387.813 404.205C387.813 396.032 391.73 389.406 396.562 389.406C401.394 389.406 405.311 396.032 405.311 404.205C405.311 412.378 401.394 419.003 396.562 419.003Z" fill="url(#paint12_linear_443_146)"/>
<path d="M397.791 412.518C395.076 412.518 392.876 408.796 392.876 404.204C392.876 399.613 395.076 395.891 397.791 395.891C400.505 395.891 402.706 399.613 402.706 404.204C402.706 408.796 400.505 412.518 397.791 412.518Z" fill="#D8DEE8"/>
<path d="M392.876 404.204C392.876 408.466 394.743 411.924 397.048 411.924C399.352 411.924 401.22 408.468 401.22 404.204C401.22 399.941 399.352 396.485 397.048 396.485C394.743 396.485 392.876 399.941 392.876 404.204Z" fill="url(#paint13_linear_443_146)"/>
<path d="M372.731 389.406C372.948 389.406 373.162 389.422 373.376 389.446L376.756 389.406L376.737 390.894C380.013 393.456 382.285 399.058 382.285 405.563C382.285 412.068 379.828 418.111 376.344 420.522L376.327 421.72H372.731C367.455 421.72 363.178 414.487 363.178 405.563C363.178 396.639 367.455 389.406 372.731 389.406Z" fill="url(#paint14_linear_443_146)"/>
<path d="M376.756 421.72C371.48 421.72 367.203 414.486 367.203 405.563C367.203 396.64 371.48 389.406 376.756 389.406C382.032 389.406 386.31 396.64 386.31 405.563C386.31 414.486 382.032 421.72 376.756 421.72Z" fill="url(#paint15_linear_443_146)"/>
<path d="M378.098 414.642C375.134 414.642 372.731 410.578 372.731 405.565C372.731 400.551 375.134 396.487 378.098 396.487C381.062 396.487 383.465 400.551 383.465 405.565C383.465 410.578 381.062 414.642 378.098 414.642Z" fill="#D8DEE8"/>
<path d="M377.287 413.99C374.772 413.99 372.733 410.217 372.733 405.563C372.733 400.909 374.772 397.136 377.287 397.136C379.802 397.136 381.841 400.909 381.841 405.563C381.841 410.217 379.802 413.99 377.287 413.99Z" fill="url(#paint16_linear_443_146)"/>
<path d="M279.851 397.834C280.128 397.834 280.402 397.855 280.674 397.886L284.99 397.834L284.964 399.735C289.146 403.006 292.048 410.159 292.048 418.462C292.048 426.766 288.913 434.482 284.464 437.558L284.445 439.089H279.853C273.117 439.089 267.657 429.854 267.657 418.462C267.657 407.071 273.117 397.836 279.853 397.836L279.851 397.834Z" fill="url(#paint17_linear_443_146)"/>
<path d="M284.99 439.087C278.254 439.087 272.794 429.852 272.794 418.461C272.794 407.069 278.254 397.834 284.99 397.834C291.726 397.834 297.186 407.069 297.186 418.461C297.186 429.852 291.726 439.087 284.99 439.087Z" fill="url(#paint18_linear_443_146)"/>
<path d="M286.704 430.048C282.919 430.048 279.852 424.86 279.852 418.461C279.852 412.061 282.919 406.873 286.704 406.873C290.488 406.873 293.556 412.061 293.556 418.461C293.556 424.86 290.488 430.048 286.704 430.048Z" fill="#D8DEE8"/>
<path d="M285.666 429.219C282.455 429.219 279.852 424.402 279.852 418.461C279.852 412.519 282.455 407.702 285.666 407.702C288.878 407.702 291.481 412.519 291.481 418.461C291.481 424.402 288.878 429.219 285.666 429.219Z" fill="url(#paint19_linear_443_146)"/>
<path d="M198.695 401.094C199.048 401.094 199.398 401.121 199.746 401.16L205.26 401.094L205.227 403.521C210.57 407.7 214.276 416.836 214.276 427.444C214.276 438.052 210.27 447.909 204.586 451.84L204.561 453.796H198.695C190.09 453.796 183.115 441.998 183.115 427.446C183.115 412.893 190.09 401.094 198.695 401.094Z" fill="url(#paint20_linear_443_146)"/>
<path d="M205.258 453.798C196.653 453.798 189.678 442 189.678 427.446C189.678 412.892 196.653 401.094 205.258 401.094C213.863 401.094 220.838 412.892 220.838 427.446C220.838 442 213.863 453.798 205.258 453.798Z" fill="url(#paint21_linear_443_146)"/>
<path d="M207.448 442.251C202.613 442.251 198.694 435.623 198.694 427.446C198.694 419.269 202.613 412.641 207.448 412.641C212.282 412.641 216.202 419.269 216.202 427.446C216.202 435.623 212.282 442.251 207.448 442.251Z" fill="#D8DEE8"/>
<path d="M206.124 441.19C202.021 441.19 198.695 435.037 198.695 427.446C198.695 419.855 202.021 413.701 206.124 413.701C210.227 413.701 213.552 419.855 213.552 427.446C213.552 435.037 210.227 441.19 206.124 441.19Z" fill="url(#paint22_linear_443_146)"/>
<path d="M447.537 262.066C450.452 262.552 452.588 265.073 452.588 268.03V378.291C452.588 381.499 450.084 384.148 446.881 384.328L239.746 395.891V227.499L447.537 262.066Z" fill="url(#paint23_linear_443_146)"/>
<path d="M122.94 231.431L239.748 227.499V395.891H116.659V237.93C116.659 234.425 119.438 231.549 122.94 231.431Z" fill="url(#paint24_linear_443_146)"/>
<path style="mix-blend-mode:multiply" opacity="0.3" d="M283.512 353.563C310.112 341.305 335.079 360.014 359.417 341.932C380.729 326.095 373.858 302.625 390.874 274.881C394.769 268.528 399.987 261.86 407.117 255.343L447.537 262.066C450.452 262.552 452.588 265.073 452.588 268.03V378.291C452.588 381.499 450.084 384.148 446.881 384.328L250.431 395.294C259.445 370.617 271.696 359.007 283.511 353.561L283.512 353.563Z" fill="url(#paint25_linear_443_146)"/>
<path d="M54.4315 342.615L63.0641 320.893L63.3198 302.933L54.5982 301.188C53.7518 301.017 53.2194 300.182 53.4281 299.343C54.7471 294.046 59.5716 276.553 67.0809 270.774C72.3731 266.702 172.733 265.482 172.733 265.482L221.036 268.624C224.829 268.872 227.78 272.021 227.78 275.825V382.919C227.78 385.73 225.632 388.073 222.834 388.314L189.676 391.192L183.114 397.833C183.114 397.833 89.1348 405.362 51.6317 398.519C49.6896 398.165 48.2751 396.484 48.2751 394.508V347.403C48.2751 340.56 54.4299 342.614 54.4299 342.614L54.4315 342.615Z" fill="#F4F7FA"/>
<path style="mix-blend-mode:multiply" opacity="0.8" d="M156.321 349.115C156.321 349.115 157.347 302.59 156.321 283.432C155.824 274.139 160.475 268.718 165.399 265.591C169.988 265.517 172.735 265.484 172.735 265.484L221.037 268.626C224.831 268.873 227.781 272.023 227.781 275.826V382.921C227.781 385.732 225.634 388.075 222.835 388.316L189.678 391.194L183.115 397.834C183.115 397.834 167.642 399.075 146.748 400.09V360.405L156.321 349.115Z" fill="url(#paint26_linear_443_146)"/>
<path d="M49.3465 406.865L53.0623 405.563V398.025C53.0623 395.993 54.7082 394.346 56.7393 394.346H173.12C175.928 394.346 178.203 396.623 178.203 399.432V444.468C178.203 446.945 176.145 448.927 173.672 448.832L49.0552 444.035C46.7117 443.945 44.8587 442.018 44.8587 439.671V413.195C44.8587 410.345 46.6583 407.806 49.3481 406.863L49.3465 406.865Z" fill="#97A6B7"/>
<path d="M63.5268 368.171H132.534C134.858 368.171 136.693 370.141 136.531 372.46L132.729 426.667C132.538 429.391 130.227 431.473 127.5 431.381L68.2153 429.371C65.6259 429.284 63.5187 427.256 63.331 424.67L59.5294 372.47C59.3611 370.146 61.1979 368.169 63.5268 368.169V368.171Z" fill="url(#paint27_linear_443_146)"/>
<g style="mix-blend-mode:multiply" opacity="0.3">
<path d="M49.3465 406.865L53.0623 405.563V398.025C53.0623 396.421 54.0916 395.059 55.5255 394.557L62.6076 427.875C63.4508 431.842 66.8785 434.731 70.9294 434.89L125.319 437.005C129.218 437.157 132.757 434.738 134.034 431.049L146.745 394.348H173.117C175.924 394.348 178.2 396.625 178.2 399.434V444.469C178.2 446.947 176.141 448.929 173.668 448.833L49.0519 444.037C46.7085 443.946 44.8554 442.019 44.8554 439.673V413.196C44.8554 410.346 46.6567 407.807 49.3448 406.865H49.3465Z" fill="#97A6B7"/>
</g>
<path d="M140.935 433.955L153.875 434.603C161.909 435.005 168.813 428.957 169.477 420.935L169.996 414.641H144.089C142.346 414.641 140.933 416.054 140.933 417.798V433.955H140.935Z" fill="url(#paint28_linear_443_146)"/>
<path d="M57.4547 417.306L59.5198 431.386C59.5198 431.386 45.8767 430.908 46.2182 413.702L54.684 414.633C56.1066 414.79 57.246 415.888 57.4531 417.305L57.4547 417.306Z" fill="url(#paint29_linear_443_146)"/>
<path d="M153.359 349.342C155.377 349.342 157.378 348.689 159.006 347.496L164.33 343.595C166.289 342.16 167.457 339.854 167.457 337.427V306.413C167.457 305.015 166.845 303.699 165.777 302.799C164.709 301.898 163.309 301.519 161.932 301.756L156.713 302.656L63.0947 302.651L63.0445 302.872L54.1433 342.613L55.1387 347.598L55.3652 347.602L153.192 349.343C153.248 349.343 153.303 349.343 153.358 349.343L153.359 349.342ZM162.736 302.246C163.709 302.246 164.657 302.588 165.415 303.226C166.355 304.02 166.895 305.181 166.895 306.411V337.425C166.895 339.674 165.813 341.81 163.999 343.14L158.674 347.041C157.098 348.195 155.156 348.812 153.202 348.776L55.6015 347.041L54.7179 342.617L63.5446 303.212H156.759L162.026 302.308C162.262 302.268 162.5 302.246 162.736 302.246Z" fill="#808080"/>
<path d="M63.3198 302.932H156.76L161.979 302.031C164.695 301.563 167.177 303.655 167.177 306.411V337.425C167.177 339.773 166.059 341.98 164.165 343.367L158.841 347.267C157.206 348.466 155.225 349.094 153.199 349.058L55.3718 347.318L54.4315 342.614L63.3214 302.93L63.3198 302.932Z" fill="url(#paint30_linear_443_146)"/>
<path d="M121.402 292.155H129.352C130.556 292.155 131.532 293.132 131.532 294.336V297.671C131.532 298.875 130.556 299.852 129.352 299.852H121.402C120.198 299.852 119.222 298.875 119.222 297.671V294.336C119.222 293.132 120.198 292.155 121.402 292.155Z" fill="#97A6B7"/>
<path d="M74.7311 292.155H82.6806C83.8846 292.155 84.8606 293.132 84.8606 294.336V297.671C84.8606 298.875 83.8846 299.852 82.6806 299.852H74.7311C73.5271 299.852 72.5511 298.875 72.5511 297.671V294.336C72.5511 293.132 73.5271 292.155 74.7311 292.155Z" fill="#97A6B7"/>
<g style="mix-blend-mode:overlay" opacity="0.3">
<path d="M92.5545 324.998C116.667 315.771 139.349 327.271 149.739 314.735C152.548 311.345 153.683 307.127 153.947 302.932H156.761L161.979 302.031C164.695 301.563 167.177 303.655 167.177 306.411V337.425C167.177 339.773 166.059 341.98 164.165 343.367L158.841 347.267C157.206 348.466 155.225 349.094 153.199 349.058L64.5821 347.481C74.5983 333.972 84.7716 327.974 92.5545 324.996V324.998Z" fill="white"/>
</g>
<path d="M363.176 214.129C363.95 214.129 364.714 213.776 365.209 213.105C366.041 211.983 365.805 210.399 364.683 209.567C364.678 209.564 363.71 208.845 362.005 207.558C360.89 206.716 359.305 206.937 358.464 208.053C357.622 209.169 357.845 210.754 358.959 211.596C360.69 212.903 361.671 213.631 361.671 213.631C362.124 213.967 362.652 214.129 363.175 214.129H363.176Z" fill="url(#paint31_linear_443_146)"/>
<path d="M127.465 224.866C127.913 224.866 128.387 224.847 128.876 224.811C130.268 224.707 131.314 223.494 131.208 222.1C131.105 220.706 129.896 219.658 128.499 219.765C127.46 219.843 126.575 219.811 125.919 219.666C124.908 219.445 123.901 219.169 122.929 218.845C121.605 218.407 120.172 219.124 119.734 220.45C119.294 221.776 120.014 223.208 121.338 223.647C122.477 224.024 123.655 224.348 124.838 224.607C125.618 224.778 126.504 224.864 127.467 224.864L127.465 224.866ZM135.258 223.559C135.479 223.559 135.704 223.53 135.928 223.469C137.9 222.928 140.111 222.218 142.498 221.359C143.812 220.886 144.494 219.437 144.021 218.123C143.549 216.808 142.1 216.127 140.788 216.6C138.523 217.414 136.439 218.083 134.592 218.59C133.246 218.959 132.453 220.35 132.822 221.697C133.129 222.821 134.147 223.559 135.259 223.559H135.258ZM116.046 221.023C116.915 221.023 117.761 220.575 118.232 219.768C118.936 218.562 118.528 217.012 117.322 216.308C115.578 215.29 113.89 214.065 112.304 212.673C111.253 211.751 109.656 211.855 108.735 212.904C107.813 213.954 107.918 215.552 108.967 216.475C110.795 218.081 112.749 219.496 114.774 220.678C115.173 220.913 115.613 221.023 116.046 221.023ZM147.899 219.088C148.219 219.088 148.545 219.027 148.859 218.899C150.82 218.092 152.918 217.192 155.091 216.224C156.366 215.655 156.939 214.159 156.371 212.883C155.801 211.607 154.306 211.034 153.032 211.602C150.904 212.551 148.854 213.432 146.939 214.219C145.648 214.75 145.031 216.227 145.56 217.519C145.962 218.497 146.905 219.088 147.9 219.088H147.899ZM160.155 213.641C160.516 213.641 160.885 213.563 161.233 213.398C163.186 212.475 165.23 211.487 167.308 210.462C168.561 209.846 169.076 208.328 168.459 207.075C167.842 205.822 166.326 205.307 165.073 205.924C163.02 206.936 161.001 207.91 159.072 208.822C157.81 209.418 157.269 210.926 157.867 212.19C158.299 213.104 159.207 213.639 160.155 213.639V213.641ZM106.007 212.276C106.568 212.276 107.133 212.09 107.601 211.708C108.683 210.825 108.847 209.232 107.965 208.148C106.667 206.555 105.447 204.808 104.338 202.959C103.62 201.76 102.067 201.373 100.87 202.091C99.6722 202.81 99.2838 204.363 100.002 205.561C101.234 207.616 102.595 209.561 104.044 211.342C104.544 211.955 105.272 212.274 106.005 212.274L106.007 212.276ZM355.156 208.051C355.915 208.051 356.666 207.711 357.162 207.062C358.012 205.954 357.803 204.366 356.696 203.516C355.109 202.296 353.332 200.923 351.411 199.425C350.31 198.567 348.721 198.763 347.861 199.866C347.004 200.969 347.2 202.557 348.302 203.417C350.234 204.925 352.021 206.306 353.618 207.532C354.078 207.885 354.618 208.055 355.156 208.055V208.051ZM172.188 207.716C172.575 207.716 172.966 207.627 173.335 207.439C175.281 206.447 177.292 205.405 179.315 204.343C180.552 203.694 181.029 202.165 180.38 200.928C179.731 199.691 178.205 199.213 176.967 199.863C174.96 200.915 172.965 201.948 171.037 202.933C169.793 203.568 169.299 205.091 169.933 206.335C170.38 207.211 171.267 207.716 172.188 207.716ZM184.065 201.488C184.47 201.488 184.878 201.391 185.26 201.187C187.236 200.125 189.21 199.053 191.173 197.976C192.398 197.304 192.847 195.768 192.175 194.542C191.503 193.316 189.967 192.869 188.742 193.539C186.791 194.61 184.831 195.675 182.868 196.729C181.638 197.39 181.176 198.923 181.837 200.154C182.293 201.004 183.165 201.487 184.067 201.487L184.065 201.488ZM344.586 199.808C345.332 199.808 346.072 199.479 346.57 198.847C347.436 197.751 347.251 196.161 346.157 195.295C344.476 193.964 342.728 192.569 340.936 191.127C339.849 190.251 338.258 190.424 337.382 191.512C336.507 192.6 336.68 194.194 337.768 195.068C339.57 196.519 341.328 197.921 343.019 199.26C343.484 199.628 344.037 199.806 344.587 199.806L344.586 199.808ZM195.826 195.039C196.244 195.039 196.666 194.935 197.056 194.718C199.032 193.614 200.989 192.513 202.916 191.417C204.13 190.727 204.556 189.182 203.866 187.967C203.177 186.753 201.634 186.327 200.419 187.017C198.503 188.107 196.558 189.203 194.593 190.301C193.374 190.983 192.937 192.522 193.617 193.742C194.08 194.571 194.941 195.039 195.828 195.039H195.826ZM334.149 191.402C334.88 191.402 335.605 191.086 336.105 190.476C336.991 189.394 336.832 187.801 335.753 186.917C334.055 185.524 332.336 184.102 330.614 182.663C329.543 181.766 327.949 181.908 327.054 182.98C326.157 184.052 326.3 185.647 327.371 186.542C329.106 187.995 330.838 189.426 332.548 190.83C333.019 191.216 333.586 191.404 334.149 191.404V191.402ZM207.49 188.413C207.919 188.413 208.352 188.304 208.751 188.074C210.735 186.929 212.677 185.799 214.564 184.693C215.768 183.987 216.173 182.438 215.467 181.233C214.76 180.026 213.211 179.623 212.008 180.329C210.131 181.43 208.2 182.554 206.226 183.693C205.015 184.39 204.601 185.937 205.299 187.148C205.766 187.959 206.618 188.414 207.491 188.414L207.49 188.413ZM323.877 182.8C324.589 182.8 325.298 182.501 325.798 181.916C326.706 180.856 326.583 179.259 325.523 178.349C323.793 176.866 322.1 175.395 320.493 173.977C319.446 173.052 317.848 173.153 316.924 174.202C316 175.25 316.1 176.848 317.149 177.772C318.774 179.206 320.485 180.692 322.233 182.191C322.71 182.6 323.294 182.8 323.877 182.8ZM219.065 181.63C219.505 181.63 219.95 181.515 220.354 181.273C222.368 180.075 224.297 178.917 226.122 177.811C227.317 177.089 227.7 175.533 226.979 174.338C226.255 173.141 224.7 172.759 223.507 173.483C221.691 174.582 219.772 175.734 217.77 176.926C216.571 177.64 216.176 179.193 216.889 180.392C217.362 181.188 218.202 181.63 219.065 181.63ZM230.546 174.681C230.999 174.681 231.457 174.56 231.869 174.306C233.944 173.026 235.868 171.825 237.589 170.735C238.769 169.987 239.118 168.424 238.372 167.244C237.624 166.063 236.063 165.712 234.883 166.46C233.18 167.54 231.274 168.73 229.217 169.998C228.027 170.732 227.658 172.29 228.39 173.478C228.867 174.254 229.696 174.681 230.544 174.681H230.546ZM313.836 173.928C314.521 173.928 315.204 173.651 315.702 173.106C316.644 172.074 316.573 170.474 315.544 169.532C313.831 167.966 312.2 166.439 310.697 164.995C309.69 164.026 308.089 164.06 307.122 165.068C306.155 166.075 306.188 167.676 307.194 168.645C308.727 170.117 310.389 171.671 312.131 173.266C312.616 173.71 313.226 173.928 313.836 173.928ZM241.861 167.463C242.347 167.463 242.837 167.323 243.271 167.032C244.666 166.091 246.098 165.108 247.56 164.106L248.819 163.243C249.971 162.452 250.264 160.879 249.476 159.726C248.686 158.573 247.113 158.28 245.961 159.068L244.7 159.933C243.252 160.927 241.832 161.902 240.448 162.835C239.29 163.615 238.984 165.187 239.764 166.345C240.253 167.071 241.051 167.463 241.863 167.463H241.861ZM304.187 164.632C304.823 164.632 305.459 164.394 305.95 163.915C306.95 162.94 306.973 161.338 305.998 160.338C304.336 158.629 302.838 157.008 301.543 155.52C300.627 154.466 299.03 154.356 297.976 155.274C296.922 156.191 296.812 157.789 297.73 158.843C299.086 160.401 300.648 162.091 302.375 163.866C302.87 164.376 303.529 164.632 304.187 164.632ZM252.943 159.936C253.42 159.936 253.902 159.802 254.331 159.518C256.374 158.171 258.196 157.02 259.902 155.996C261.099 155.277 261.488 153.725 260.771 152.526C260.052 151.328 258.502 150.938 257.302 151.657C255.535 152.717 253.653 153.906 251.549 155.294C250.384 156.063 250.06 157.63 250.829 158.798C251.314 159.536 252.12 159.936 252.943 159.936ZM295.319 154.594C295.95 154.594 296.581 154.359 297.071 153.886C298.078 152.918 298.107 151.317 297.139 150.309C295.322 148.421 293.333 146.893 291.229 145.767C289.997 145.11 288.466 145.575 287.808 146.807C287.151 148.039 287.615 149.571 288.847 150.23C290.484 151.105 292.049 152.313 293.498 153.818C293.995 154.333 294.657 154.594 295.319 154.594ZM264.456 153.108C264.839 153.108 265.228 153.02 265.592 152.836C267.644 151.799 269.615 150.935 271.447 150.266C272.76 149.786 273.435 148.334 272.956 147.022C272.477 145.711 271.026 145.034 269.714 145.513C267.696 146.25 265.543 147.194 263.315 148.319C262.069 148.949 261.567 150.47 262.196 151.717C262.642 152.599 263.532 153.108 264.456 153.108ZM277.031 148.679C277.167 148.679 277.303 148.668 277.44 148.645C279.544 148.302 281.535 148.248 283.373 148.486C284.759 148.668 286.026 147.688 286.204 146.302C286.383 144.916 285.406 143.648 284.021 143.47C281.695 143.168 279.212 143.23 276.625 143.653C275.247 143.878 274.312 145.178 274.537 146.556C274.739 147.796 275.812 148.679 277.029 148.679H277.031Z" fill="url(#paint32_linear_443_146)"/>
<path d="M99.2449 201.116C99.5815 201.116 99.9246 201.048 100.253 200.904C101.533 200.345 102.119 198.855 101.561 197.575C100.8 195.827 100.447 194.704 100.444 194.692C100.028 193.36 98.6121 192.613 97.2818 193.028C95.9498 193.441 95.2037 194.854 95.6148 196.187C95.6326 196.242 96.0421 197.565 96.9274 199.595C97.3417 200.548 98.2706 201.114 99.2465 201.114L99.2449 201.116Z" fill="url(#paint33_linear_443_146)"/>
<path d="M294.885 73.2545C294.885 102.453 335.769 155.736 354.272 178.354C358.876 183.982 367.483 183.982 372.087 178.354C390.59 155.736 431.474 102.453 431.474 73.2545C431.474 35.5156 400.898 4.92261 363.18 4.92261C325.461 4.92261 294.885 35.5156 294.885 73.2545Z" fill="url(#paint34_linear_443_146)"/>
<path d="M336.246 100.203C321.372 85.32 321.372 61.1903 336.246 46.3075C351.121 31.4247 375.238 31.4247 390.112 46.3075C404.987 61.1903 404.987 85.32 390.112 100.203C375.238 115.086 351.121 115.086 336.246 100.203Z" fill="white"/>
<g style="mix-blend-mode:multiply" opacity="0.3">
<path d="M363.481 150.298C359.148 121.749 340.305 112.61 343.539 85.6518C347.269 54.5617 374.782 46.2823 375.445 18.6121C375.552 14.1575 374.947 9.8615 373.804 5.74854C406.475 10.8557 431.473 39.1332 431.473 73.2563C431.473 102.455 390.589 155.737 372.086 178.356C369.375 181.669 365.279 183.029 361.428 182.443C364.74 169.939 364.84 159.259 363.481 150.3V150.298Z" fill="url(#paint35_linear_443_146)"/>
</g>
<path d="M363.178 225.566C355.469 225.566 349.219 219.313 349.219 211.599C349.219 203.886 355.469 197.633 363.178 197.633C370.887 197.633 377.137 203.886 377.137 211.599C377.137 219.313 370.887 225.566 363.178 225.566Z" fill="url(#paint36_linear_443_146)"/>
<path d="M62.2111 120.737C62.2111 136.052 83.6549 163.997 93.3588 175.86C95.7734 178.812 100.287 178.812 102.703 175.86C112.407 163.997 133.851 136.052 133.851 120.737C133.851 100.944 117.814 84.8972 98.0311 84.8972C78.2478 84.8972 62.2111 100.943 62.2111 120.737Z" fill="url(#paint37_linear_443_146)"/>
<path d="M78.4953 124.88C76.2051 114.082 83.098 103.47 93.891 101.178C104.684 98.887 115.29 105.784 117.58 116.582C119.87 127.381 112.977 137.993 102.184 140.284C91.3915 142.576 80.7855 135.679 78.4953 124.88Z" fill="white"/>
<g style="mix-blend-mode:multiply" opacity="0.3">
<path d="M98.188 161.146C95.9158 146.172 86.0322 141.379 87.7283 127.24C89.6849 110.934 104.115 106.591 104.463 92.0788C104.519 89.7422 104.2 87.4898 103.602 85.3313C120.737 88.0096 133.848 102.841 133.848 120.737C133.848 136.052 112.404 163.997 102.7 175.86C101.279 177.598 99.1299 178.312 97.1101 178.004C98.8467 171.446 98.9001 165.845 98.1864 161.146H98.188Z" fill="url(#paint38_linear_443_146)"/>
</g>
<path d="M93.5217 199.082C90.3344 196.593 89.7679 191.989 92.2563 188.8C94.7447 185.611 99.3457 185.044 102.533 187.534C105.72 190.024 106.287 194.627 103.798 197.816C101.31 201.005 96.709 201.572 93.5217 199.082Z" fill="url(#paint39_linear_443_146)"/>
<defs>
<linearGradient id="paint0_linear_443_146" x1="399.538" y1="200.446" x2="269.455" y2="200.446" gradientUnits="userSpaceOnUse">
<stop stop-color="#FF9085"/>
<stop offset="1" stop-color="#FB6FBB"/>
</linearGradient>
<linearGradient id="paint1_linear_443_146" x1="139.347" y1="111.849" x2="-11.5314" y2="500.263" gradientUnits="userSpaceOnUse">
<stop stop-color="#FF9085"/>
<stop offset="1" stop-color="#FB6FBB"/>
</linearGradient>
<linearGradient id="paint2_linear_443_146" x1="305.814" y1="200.226" x2="141.098" y2="201.224" gradientUnits="userSpaceOnUse">
<stop stop-color="#FF9085"/>
<stop offset="1" stop-color="#FB6FBB"/>
</linearGradient>
<linearGradient id="paint3_linear_443_146" x1="112.205" y1="208.421" x2="109.837" y2="208.421" gradientUnits="userSpaceOnUse">
<stop stop-color="#311944"/>
<stop offset="1" stop-color="#A03976"/>
</linearGradient>
<linearGradient id="paint4_linear_443_146" x1="330.653" y1="200.74" x2="328.285" y2="200.74" gradientUnits="userSpaceOnUse">
<stop stop-color="#311944"/>
<stop offset="1" stop-color="#A03976"/>
</linearGradient>
<linearGradient id="paint5_linear_443_146" x1="389.584" y1="142.488" x2="41.3128" y2="142.488" gradientUnits="userSpaceOnUse">
<stop stop-color="#311944"/>
<stop offset="1" stop-color="#A03976"/>
</linearGradient>
<linearGradient id="paint6_linear_443_146" x1="434.297" y1="411.161" x2="136.832" y2="411.161" gradientUnits="userSpaceOnUse">
<stop stop-color="#444B8C"/>
<stop offset="1" stop-color="#26264F"/>
</linearGradient>
<linearGradient id="paint7_linear_443_146" x1="263.682" y1="421.756" x2="207.448" y2="421.756" gradientUnits="userSpaceOnUse">
<stop stop-color="#444B8C"/>
<stop offset="1" stop-color="#26264F"/>
</linearGradient>
<linearGradient id="paint8_linear_443_146" x1="419.733" y1="401.393" x2="403.761" y2="401.393" gradientUnits="userSpaceOnUse">
<stop stop-color="#311944"/>
<stop offset="1" stop-color="#6B3976"/>
</linearGradient>
<linearGradient id="paint9_linear_443_146" x1="423.097" y1="-8.2563e-05" x2="407.125" y2="-8.2563e-05" gradientUnits="userSpaceOnUse">
<stop stop-color="#311944"/>
<stop offset="1" stop-color="#6B3976"/>
</linearGradient>
<linearGradient id="paint10_linear_443_146" x1="407.54" y1="402.472" x2="420.011" y2="400.795" gradientUnits="userSpaceOnUse">
<stop stop-color="#D8DEE8"/>
<stop offset="1" stop-color="#F4F7FA"/>
</linearGradient>
<linearGradient id="paint11_linear_443_146" x1="401.625" y1="404.205" x2="384.127" y2="404.205" gradientUnits="userSpaceOnUse">
<stop stop-color="#311944"/>
<stop offset="1" stop-color="#6B3976"/>
</linearGradient>
<linearGradient id="paint12_linear_443_146" x1="405.311" y1="404.205" x2="387.812" y2="404.205" gradientUnits="userSpaceOnUse">
<stop stop-color="#311944"/>
<stop offset="1" stop-color="#6B3976"/>
</linearGradient>
<linearGradient id="paint13_linear_443_146" x1="388.265" y1="405.387" x2="401.931" y2="403.549" gradientUnits="userSpaceOnUse">
<stop stop-color="#D8DEE8"/>
<stop offset="1" stop-color="#F4F7FA"/>
</linearGradient>
<linearGradient id="paint14_linear_443_146" x1="382.285" y1="405.563" x2="363.178" y2="405.563" gradientUnits="userSpaceOnUse">
<stop stop-color="#311944"/>
<stop offset="1" stop-color="#6B3976"/>
</linearGradient>
<linearGradient id="paint15_linear_443_146" x1="386.31" y1="405.563" x2="367.203" y2="405.563" gradientUnits="userSpaceOnUse">
<stop stop-color="#311944"/>
<stop offset="1" stop-color="#6B3976"/>
</linearGradient>
<linearGradient id="paint16_linear_443_146" x1="367.698" y1="406.855" x2="382.618" y2="404.848" gradientUnits="userSpaceOnUse">
<stop stop-color="#D8DEE8"/>
<stop offset="1" stop-color="#F4F7FA"/>
</linearGradient>
<linearGradient id="paint17_linear_443_146" x1="292.048" y1="418.461" x2="267.657" y2="418.461" gradientUnits="userSpaceOnUse">
<stop stop-color="#311944"/>
<stop offset="1" stop-color="#6B3976"/>
</linearGradient>
<linearGradient id="paint18_linear_443_146" x1="297.185" y1="418.461" x2="272.794" y2="418.461" gradientUnits="userSpaceOnUse">
<stop stop-color="#311944"/>
<stop offset="1" stop-color="#6B3976"/>
</linearGradient>
<linearGradient id="paint19_linear_443_146" x1="273.426" y1="420.109" x2="292.472" y2="417.547" gradientUnits="userSpaceOnUse">
<stop stop-color="#D8DEE8"/>
<stop offset="1" stop-color="#F4F7FA"/>
</linearGradient>
<linearGradient id="paint20_linear_443_146" x1="214.276" y1="427.446" x2="183.115" y2="427.446" gradientUnits="userSpaceOnUse">
<stop stop-color="#311944"/>
<stop offset="1" stop-color="#6B3976"/>
</linearGradient>
<linearGradient id="paint21_linear_443_146" x1="220.838" y1="427.446" x2="189.678" y2="427.446" gradientUnits="userSpaceOnUse">
<stop stop-color="#311944"/>
<stop offset="1" stop-color="#6B3976"/>
</linearGradient>
<linearGradient id="paint22_linear_443_146" x1="190.485" y1="429.553" x2="214.818" y2="426.279" gradientUnits="userSpaceOnUse">
<stop stop-color="#D8DEE8"/>
<stop offset="1" stop-color="#F4F7FA"/>
</linearGradient>
<linearGradient id="paint23_linear_443_146" x1="276.629" y1="285.108" x2="591.328" y2="489.489" gradientUnits="userSpaceOnUse">
<stop stop-color="#FFC444"/>
<stop offset="0.31" stop-color="#FBA94A"/>
<stop offset="1" stop-color="#F36F56"/>
</linearGradient>
<linearGradient id="paint24_linear_443_146" x1="66.2782" y1="240.482" x2="305.055" y2="392.238" gradientUnits="userSpaceOnUse">
<stop stop-color="#FFC444"/>
<stop offset="0.31" stop-color="#FBA94A"/>
<stop offset="1" stop-color="#F36F56"/>
</linearGradient>
<linearGradient id="paint25_linear_443_146" x1="452.588" y1="325.318" x2="250.432" y2="325.318" gradientUnits="userSpaceOnUse">
<stop stop-color="#FFC444"/>
<stop offset="1" stop-color="#F36F56"/>
</linearGradient>
<linearGradient id="paint26_linear_443_146" x1="227.781" y1="332.786" x2="146.748" y2="332.786" gradientUnits="userSpaceOnUse">
<stop stop-color="#D8DEE8"/>
<stop offset="1" stop-color="#F4F7FA"/>
</linearGradient>
<linearGradient id="paint27_linear_443_146" x1="136.541" y1="399.779" x2="59.5197" y2="399.779" gradientUnits="userSpaceOnUse">
<stop stop-color="#444B8C"/>
<stop offset="1" stop-color="#26264F"/>
</linearGradient>
<linearGradient id="paint28_linear_443_146" x1="148.119" y1="398.689" x2="186.105" y2="530.955" gradientUnits="userSpaceOnUse">
<stop stop-color="#FF9085"/>
<stop offset="1" stop-color="#FB6FBB"/>
</linearGradient>
<linearGradient id="paint29_linear_443_146" x1="54.158" y1="425.675" x2="92.1428" y2="557.941" gradientUnits="userSpaceOnUse">
<stop stop-color="#FF9085"/>
<stop offset="1" stop-color="#FB6FBB"/>
</linearGradient>
<linearGradient id="paint30_linear_443_146" x1="167.177" y1="325.514" x2="54.4315" y2="325.514" gradientUnits="userSpaceOnUse">
<stop stop-color="#444B8C"/>
<stop offset="1" stop-color="#26264F"/>
</linearGradient>
<linearGradient id="paint31_linear_443_146" x1="365.708" y1="210.587" x2="95.4919" y2="210.587" gradientUnits="userSpaceOnUse">
<stop stop-color="#AA80F9"/>
<stop offset="1" stop-color="#6165D7"/>
</linearGradient>
<linearGradient id="paint32_linear_443_146" x1="365.661" y1="184.076" x2="96.9986" y2="184.076" gradientUnits="userSpaceOnUse">
<stop stop-color="#AA80F9"/>
<stop offset="1" stop-color="#6165D7"/>
</linearGradient>
<linearGradient id="paint33_linear_443_146" x1="365.746" y1="197.016" x2="95.5015" y2="197.016" gradientUnits="userSpaceOnUse">
<stop stop-color="#AA80F9"/>
<stop offset="1" stop-color="#6165D7"/>
</linearGradient>
<linearGradient id="paint34_linear_443_146" x1="371.988" y1="48.4472" x2="303.146" y2="225.673" gradientUnits="userSpaceOnUse">
<stop stop-color="#AA80F9"/>
<stop offset="1" stop-color="#6165D7"/>
</linearGradient>
<linearGradient id="paint35_linear_443_146" x1="396.616" y1="58.014" x2="327.773" y2="235.238" gradientUnits="userSpaceOnUse">
<stop stop-color="#AA80F9"/>
<stop offset="1" stop-color="#6165D7"/>
</linearGradient>
<linearGradient id="paint36_linear_443_146" x1="345.278" y1="184.413" x2="389.98" y2="252.229" gradientUnits="userSpaceOnUse">
<stop stop-color="#AA80F9"/>
<stop offset="1" stop-color="#6165D7"/>
</linearGradient>
<linearGradient id="paint37_linear_443_146" x1="102.652" y1="107.726" x2="66.545" y2="200.677" gradientUnits="userSpaceOnUse">
<stop stop-color="#FF9085"/>
<stop offset="1" stop-color="#FB6FBB"/>
</linearGradient>
<linearGradient id="paint38_linear_443_146" x1="115.568" y1="112.742" x2="79.4597" y2="205.695" gradientUnits="userSpaceOnUse">
<stop stop-color="#FF9085"/>
<stop offset="1" stop-color="#FB6FBB"/>
</linearGradient>
<linearGradient id="paint39_linear_443_146" x1="88.6336" y1="179.039" x2="112.079" y2="214.607" gradientUnits="userSpaceOnUse">
<stop stop-color="#FF9085"/>
<stop offset="1" stop-color="#FB6FBB"/>
</linearGradient>
</defs>
</svg>
