<svg width="5" height="9" viewBox="0 0 5 9" fill="none" xmlns="http://www.w3.org/2000/svg">
<path d="M0.233968 6.90024C0.0821696 7.05741 -0.00182619 7.26791 7.25515e-05 7.48641C0.0019713 7.7049 0.089613 7.91392 0.24412 8.06842C0.398626 8.22293 0.607637 8.31057 0.826135 8.31247C1.04463 8.31437 1.25513 8.23037 1.4123 8.07857L4.74564 4.74524C4.90186 4.58897 4.98962 4.37704 4.98962 4.15607C4.98962 3.9351 4.90186 3.72318 4.74564 3.56691L1.4123 0.233574C1.25513 0.0817753 1.04463 -0.00221955 0.826135 -0.000920799C0.607638 0.00157795 0.398627 0.0892196 0.24412 0.243726C0.0896137 0.398233 0.00197192 0.607243 7.31338e-05 0.82574C-0.00182565 1.04424 0.0821701 1.25474 0.233968 1.41191L2.97814 4.15607L0.233968 6.90024Z" fill="#E2AD51"/>
</svg>
