<svg width="70" height="70" viewBox="0 0 70 70" fill="none" xmlns="http://www.w3.org/2000/svg">
<path d="M35.0273 4.375C28.6478 4.38224 22.5316 6.91971 18.0206 11.4307C13.5096 15.9418 10.9721 22.0579 10.9648 28.4375C10.9648 49.0273 32.8398 64.5859 33.7695 65.2422C34.1421 65.4903 34.5797 65.6226 35.0273 65.6226C35.475 65.6226 35.9126 65.4903 36.2852 65.2422C37.2148 64.5859 59.0898 49.0273 59.0898 28.4375C59.0826 22.0579 56.5451 15.9418 52.0341 11.4307C47.5231 6.91971 41.4069 4.38224 35.0273 4.375ZM35.0273 19.6875C36.7579 19.6875 38.4497 20.2007 39.8886 21.1621C41.3275 22.1236 42.449 23.4902 43.1113 25.089C43.7736 26.6879 43.9468 28.4472 43.6092 30.1445C43.2716 31.8419 42.4382 33.401 41.2145 34.6247C39.9908 35.8484 38.4317 36.6818 36.7344 37.0194C35.0371 37.357 33.2777 37.1837 31.6789 36.5214C30.08 35.8592 28.7134 34.7377 27.752 33.2987C26.7905 31.8598 26.2773 30.1681 26.2773 28.4375C26.2773 26.1169 27.1992 23.8913 28.8402 22.2503C30.4811 20.6094 32.7067 19.6875 35.0273 19.6875Z" fill="#0055DD"/>
</svg>
