<svg width="24" height="24" viewBox="0 0 24 24" fill="none" xmlns="http://www.w3.org/2000/svg">
<path d="M9.91206 6.0479C9.62556 2.7524 6.18756 1.1354 6.04206 1.0694C5.90604 1.00546 5.75361 0.985034 5.60556 1.0109C1.63656 1.6694 1.03956 3.9794 1.01556 4.0754C0.982908 4.20918 0.988101 4.3494 1.03056 4.4804C5.76456 19.1684 15.6031 21.8909 18.8371 22.7864C19.0861 22.8554 19.2916 22.9109 19.4476 22.9619C19.6256 23.0201 19.819 23.0088 19.9891 22.9304C20.0881 22.8854 22.4251 21.7844 22.9966 18.1934C23.0219 18.0366 22.9967 17.8759 22.9246 17.7344C22.8736 17.6354 21.6511 15.3089 18.2611 14.4869C18.1461 14.4575 18.0256 14.4565 17.9101 14.4839C17.7946 14.5113 17.6875 14.5664 17.5981 14.6444C16.5286 15.5579 15.0511 16.5314 14.4136 16.6319C10.1401 14.5424 7.75356 10.5329 7.66356 9.7724C7.61106 9.3449 8.59056 7.8434 9.71706 6.6224C9.78786 6.54556 9.84179 6.45474 9.87538 6.35579C9.90896 6.25685 9.92146 6.15197 9.91206 6.0479Z" fill="#E2AD51"/>
</svg>
