<svg width="54" height="42" viewBox="0 0 54 42" fill="none" xmlns="http://www.w3.org/2000/svg">
<path d="M0 42L53.2048 34.9046V0L0 7.09538V42ZM2.75625 9.50381L50.4525 3.15V32.4962L2.75625 38.85V9.50381Z" fill="#F43E36"/>
<path d="M7.24499 20.211C7.70515 20.4409 8.18936 20.6192 8.68875 20.7426C9.06871 20.8263 9.46007 20.8454 9.84637 20.799C10.1827 20.7662 10.5021 20.6357 10.7651 20.4236C10.8706 20.3424 10.9564 20.2383 11.0159 20.1192C11.0755 20.0001 11.1073 19.869 11.109 19.7359C11.109 19.3605 10.7021 18.9917 9.88312 18.6347C9.75187 18.5782 9.65212 18.5284 9.576 18.5034L8.9565 18.241C8.42968 18.0374 7.96571 17.6988 7.61118 17.2592C7.31259 16.8515 7.15834 16.356 7.17281 15.8509C7.17216 15.4883 7.24631 15.1294 7.39061 14.7968C7.53492 14.4642 7.74628 14.1648 8.01149 13.9176C8.60115 13.3519 9.36292 12.9994 10.1758 12.9161C10.5283 12.8704 10.8844 12.8599 11.2389 12.8846C11.6659 12.9172 12.0903 12.9777 12.5094 13.0658V15.2248C12.1062 15.022 11.6825 14.8627 11.2455 14.7497C10.9165 14.6558 10.5729 14.6242 10.2322 14.6565C9.96394 14.6828 9.70927 14.7873 9.49987 14.9571C9.41573 15.0273 9.34844 15.1155 9.30301 15.2153C9.25757 15.315 9.23514 15.4237 9.23738 15.5333C9.23478 15.6895 9.29046 15.8411 9.39356 15.9585C9.52432 16.1011 9.6872 16.2104 9.86868 16.2774L10.9449 16.7276C11.6305 16.9639 12.2532 17.3535 12.7654 17.8669C13.088 18.2773 13.2545 18.7889 13.2352 19.3106C13.243 19.7352 13.1657 20.157 13.0079 20.5513C12.8501 20.9455 12.615 21.3042 12.3165 21.6062C11.6625 22.2602 10.8032 22.669 9.88312 22.7638C9.51165 22.8076 9.13731 22.8221 8.76356 22.8071C8.31829 22.7844 7.875 22.7322 7.43662 22.6509L7.24499 20.211ZM17.6938 13.8979L17.3932 13.9412V16.3942L17.787 16.3378C18.2498 16.3009 18.6916 16.1289 19.0575 15.843C19.1996 15.7228 19.3128 15.5721 19.3887 15.4022C19.4646 15.2322 19.5012 15.0473 19.4959 14.8612C19.5141 14.6911 19.4832 14.5192 19.4066 14.3661C19.3301 14.213 19.2112 14.0851 19.0641 13.9976C18.6277 13.8274 18.15 13.7931 17.6938 13.8992V13.8979ZM15.2001 21.744V12.5408L17.5626 12.2218C18.135 12.1275 18.7166 12.1024 19.2951 12.147C19.6984 12.1882 20.0876 12.3186 20.4343 12.5289C20.7704 12.7252 21.0453 13.0111 21.2284 13.3545C21.417 13.7086 21.5135 14.1044 21.5092 14.5056C21.5185 14.9448 21.4347 15.381 21.2632 15.7855C21.0917 16.19 20.8365 16.5536 20.5144 16.8523C19.7652 17.525 18.8196 17.9392 17.8172 18.0336C17.6977 18.0519 17.6111 18.0585 17.5547 18.0651C17.4982 18.0716 17.4418 18.0651 17.3919 18.0782V21.4448L15.2001 21.744ZM24.3876 17.5899L26.8026 17.2644L25.6082 14.5423L24.3876 17.5899ZM20.9396 20.9749L25.6384 10.8581L25.7696 10.8398L30.3555 19.7109L28.0599 20.0181L27.4785 18.7607L23.7431 19.2608L23.1486 20.6809L20.9396 20.9749ZM38.2331 12.3662C37.8831 12.04 37.473 11.785 37.0256 11.6154C36.6123 11.471 36.1707 11.426 35.7368 11.4842C34.9856 11.574 34.3001 11.9559 33.8284 12.5473C33.3296 13.1592 33.0657 13.929 33.0842 14.7182C33.0611 15.0764 33.1151 15.4354 33.2425 15.7709C33.37 16.1065 33.568 16.4108 33.8231 16.6633C34.0811 16.8929 34.3886 17.0597 34.7217 17.1508C35.0548 17.2419 35.4044 17.2547 35.7433 17.1883C36.235 17.1188 36.7086 16.9552 37.1385 16.7066C37.6448 16.413 38.1115 16.0557 38.5271 15.6435L38.3827 18.1084C37.9911 18.4285 37.5574 18.6935 37.0939 18.8959C36.6294 19.0995 36.1385 19.2365 35.6357 19.3028C35.1176 19.3765 34.5909 19.3618 34.0777 19.2594C33.5878 19.1589 33.1209 18.968 32.7009 18.6964C32.1192 18.3202 31.6484 17.7955 31.3372 17.1765C31.0163 16.5139 30.8553 15.7851 30.8674 15.0489C30.8657 14.377 30.9844 13.7103 31.2178 13.0802C31.4531 12.4521 31.796 11.8699 32.2311 11.3595C32.6704 10.8499 33.1981 10.4239 33.789 10.1021C34.3657 9.78578 34.9957 9.57801 35.6475 9.48918C36.1377 9.41984 36.6357 9.42604 37.1241 9.50757C37.5962 9.58838 38.0512 9.74906 38.4694 9.98269L38.2331 12.3662ZM40.3331 18.3722V9.16895L46.0018 8.41162V10.3069L42.4672 10.782V12.4463L45.4952 12.0394V13.9241L42.4672 14.331V16.1554L46.0517 15.6737V17.6136L40.3331 18.3722Z" fill="white"/>
<path d="M17.6124 30.2097L20.0339 29.8842L18.833 27.1621L17.6124 30.2097ZM14.1644 33.5946L18.8566 23.4779L18.9879 23.4595L23.5816 32.3307L21.2861 32.6378L20.7046 31.3739L16.9693 31.8739L16.3747 33.2941L14.1644 33.5946ZM27.1582 24.3415L26.8576 24.3848V26.8431L27.2514 26.7867C27.7142 26.7498 28.156 26.5778 28.5219 26.2919C28.6639 26.1716 28.7771 26.0209 28.853 25.851C28.9289 25.681 28.9655 25.4962 28.9603 25.3102C28.9785 25.14 28.9475 24.9681 28.871 24.815C28.7944 24.6619 28.6755 24.534 28.5284 24.4465C28.093 24.2731 27.615 24.2364 27.1582 24.3415ZM24.6644 32.1876V22.9844L27.0269 22.6654C27.5993 22.571 28.181 22.5459 28.7594 22.5906C29.1628 22.6318 29.552 22.7623 29.8987 22.9726C30.2348 23.1689 30.5097 23.4547 30.6927 23.7981C30.8818 24.1521 30.9788 24.5479 30.9749 24.9492C30.9842 25.3884 30.9004 25.8247 30.7289 26.2292C30.5574 26.6336 30.3022 26.9972 29.9801 27.296C29.2309 27.9688 28.2854 28.3829 27.2829 28.4772C27.1634 28.489 27.0768 28.5021 27.0204 28.5087C26.9639 28.5153 26.9075 28.5087 26.8576 28.5205V31.8871L24.6644 32.1876ZM35.2196 23.2627L34.919 23.306V25.7642L35.3128 25.7078C35.7756 25.6709 36.2174 25.4988 36.5833 25.213C36.7254 25.0928 36.8386 24.9421 36.9145 24.7722C36.9904 24.6022 37.027 24.4173 37.0216 24.2312C37.0399 24.0611 37.0089 23.8892 36.9324 23.7361C36.8558 23.583 36.7369 23.4551 36.5898 23.3676C36.1542 23.1931 35.6759 23.1551 35.2182 23.2587L35.2196 23.2627ZM32.7258 31.1088V21.9055L35.0883 21.5866C35.6607 21.4921 36.2424 21.467 36.8208 21.5118C37.2242 21.5529 37.6134 21.6834 37.9601 21.8937C38.2961 22.09 38.571 22.3758 38.7541 22.7193C38.9432 23.0732 39.0403 23.469 39.0363 23.8703C39.0456 24.3096 38.9618 24.7458 38.7903 25.1503C38.6188 25.5548 38.3636 25.9183 38.0414 26.2171C37.2923 26.8898 36.3467 27.3039 35.3443 27.3983C35.2248 27.4115 35.1382 27.4233 35.0818 27.4298C35.0253 27.4364 34.9689 27.4298 34.919 27.443V30.8003L32.7258 31.1088Z" fill="white"/>
</svg>
