<svg width="34" height="23" viewBox="0 0 34 23" fill="none" xmlns="http://www.w3.org/2000/svg">
<path d="M17.2325 18.9368H18.7264C18.7264 18.9368 19.178 18.8842 19.4077 18.623C19.6202 18.383 19.6124 17.9328 19.6124 17.9328C19.6124 17.9328 19.5827 15.8246 20.514 15.514C21.4312 15.2084 22.6095 17.5516 23.858 18.4537C24.8018 19.1356 25.519 18.9861 25.519 18.9861L28.8584 18.9368C28.8584 18.9368 30.6054 18.8234 29.7772 17.3791C29.71 17.2607 29.2943 16.311 27.2942 14.3589C25.2003 12.3147 25.4815 12.6466 28.0036 9.11213C29.5397 6.95954 30.1538 5.64498 29.9616 5.08301C29.7787 4.54732 28.649 4.68864 28.649 4.68864L24.8924 4.71164C24.8924 4.71164 24.6143 4.67221 24.4065 4.80202C24.2049 4.93019 24.0752 5.22596 24.0752 5.22596C24.0752 5.22596 23.4798 6.89217 22.686 8.3086C21.0125 11.2976 20.3421 11.4553 20.0686 11.2696C19.4327 10.8375 19.592 9.53114 19.592 8.60438C19.592 5.70742 20.0093 4.49967 18.7779 4.18746C18.3685 4.08394 18.0685 4.01493 17.0231 4.00343C15.6824 3.98864 14.5464 4.00836 13.9041 4.33864C13.476 4.55883 13.1463 5.05014 13.3478 5.07808C13.5963 5.11258 14.1588 5.23747 14.4573 5.6647C14.8433 6.21517 14.8292 7.45414 14.8292 7.45414C14.8292 7.45414 15.0511 10.8638 14.312 11.2877C13.8041 11.5786 13.1088 10.9854 11.6165 8.27245C10.8523 6.88395 10.2742 5.34756 10.2742 5.34756C10.2742 5.34756 10.1632 5.06165 9.96478 4.90883C9.72413 4.72315 9.38661 4.66399 9.38661 4.66399L5.81447 4.687C5.81447 4.687 5.27849 4.70343 5.0816 4.94826C4.90659 5.16681 5.06754 5.61705 5.06754 5.61705C5.06754 5.61705 7.86462 12.4971 11.0305 15.9659C13.9354 19.1455 17.2325 18.9368 17.2325 18.9368Z" fill="#D0DAE4"/>
</svg>
