<svg width="21" height="20" viewBox="0 0 21 20" fill="none" xmlns="http://www.w3.org/2000/svg">
<path d="M17.2195 3.625C15.4321 1.9375 13.0488 1 10.5331 1C5.30313 1 1.0662 5 1.0662 9.9375C1.0662 11.5 1.52962 13.0625 2.32404 14.375L1 19L6.03136 17.75C7.4216 18.4375 8.94425 18.8125 10.5331 18.8125C15.7631 18.8125 20 14.8125 20 9.875C19.9338 7.5625 19.007 5.3125 17.2195 3.625ZM15.101 13.125C14.9024 13.625 13.9756 14.125 13.5122 14.1875C13.115 14.25 12.5854 14.25 12.0557 14.125C11.7247 14 11.2613 13.875 10.7317 13.625C8.34843 12.6875 6.82579 10.4375 6.69338 10.25C6.56098 10.125 5.70035 9.0625 5.70035 7.9375C5.70035 6.8125 6.29617 6.3125 6.49477 6.0625C6.69338 5.8125 6.95819 5.8125 7.15679 5.8125C7.2892 5.8125 7.4878 5.8125 7.62021 5.8125C7.75261 5.8125 7.95122 5.75 8.14982 6.1875C8.34843 6.625 8.81184 7.75 8.87805 7.8125C8.94425 7.9375 8.94425 8.0625 8.87805 8.1875C8.81184 8.3125 8.74564 8.4375 8.61324 8.5625C8.48083 8.6875 8.34843 8.875 8.28223 8.9375C8.14982 9.0625 8.01742 9.1875 8.14982 9.375C8.28223 9.625 8.74564 10.3125 9.47387 10.9375C10.4007 11.6875 11.1289 11.9375 11.3937 12.0625C11.6585 12.1875 11.7909 12.125 11.9233 12C12.0557 11.875 12.5192 11.375 12.6516 11.125C12.784 10.875 12.9826 10.9375 13.1812 11C13.3798 11.0625 14.5714 11.625 14.77 11.75C15.0348 11.875 15.1672 11.9375 15.2334 12C15.2996 12.1875 15.2997 12.625 15.101 13.125Z" fill="#B0B9C3"/>
</svg>
