<svg width="34" height="24" viewBox="0 0 34 24" fill="none" xmlns="http://www.w3.org/2000/svg">
<path fill-rule="evenodd" clip-rule="evenodd" d="M27.98 4.59C27.329 3.432 26.6225 3.219 25.184 3.138C23.747 3.0405 20.1335 3 17.003 3C13.8665 3 10.2515 3.0405 8.816 3.1365C7.3805 3.219 6.6725 3.4305 6.0155 4.59C5.345 5.7465 5 7.7385 5 11.2455V11.2575C5 14.7495 5.345 16.7565 6.0155 17.901C6.6725 19.059 7.379 19.269 8.8145 19.3665C10.2515 19.4505 13.8665 19.5 17.003 19.5C20.1335 19.5 23.747 19.4505 25.1855 19.368C26.624 19.2705 27.3305 19.0605 27.9815 17.9025C28.658 16.758 29 14.751 29 11.259V11.247C29 7.7385 28.658 5.7465 27.98 4.59ZM14 15.75V6.75L21.5 11.25L14 15.75Z" fill="#D0DAE4"/>
</svg>
