<svg width="7" height="12" viewBox="0 0 7 12" fill="none" xmlns="http://www.w3.org/2000/svg">
<path d="M0.669332 1.07366C0.583924 1.15983 0.516164 1.26219 0.469932 1.37486C0.4237 1.48754 0.399902 1.60833 0.399902 1.73031C0.399902 1.8523 0.4237 1.97309 0.469932 2.08576C0.516164 2.19844 0.583924 2.30079 0.669332 2.38696L4.24398 6.00086L0.669332 9.61476C0.584036 9.70099 0.516376 9.80336 0.470214 9.91603C0.424052 10.0287 0.400292 10.1495 0.400292 10.2714C0.400292 10.3934 0.424052 10.5141 0.470214 10.6268C0.516376 10.7395 0.584036 10.8418 0.669332 10.9281C0.754627 11.0143 0.855888 11.0827 0.967333 11.1294C1.07878 11.176 1.19822 11.2 1.31885 11.2C1.43948 11.2 1.55892 11.176 1.67037 11.1294C1.78181 11.0827 1.88307 11.0143 1.96837 10.9281L6.19714 6.65285C6.28255 6.56668 6.35031 6.46433 6.39654 6.35165C6.44277 6.23898 6.46657 6.11819 6.46657 5.9962C6.46657 5.87422 6.44277 5.75343 6.39654 5.64075C6.35031 5.52807 6.28255 5.42572 6.19714 5.33955L1.96837 1.06435C1.61827 0.710411 1.02864 0.710411 0.669332 1.07366Z" fill="#5D7685"/>
</svg>
