<svg width="8" height="5" viewBox="0 0 8 5" fill="none" xmlns="http://www.w3.org/2000/svg">
<path d="M7.78953 0.222057C7.72324 0.151666 7.64451 0.0958202 7.55784 0.0577167C7.47116 0.0196132 7.37825 0 7.28441 0C7.19058 0 7.09766 0.0196132 7.01099 0.0577167C6.92431 0.0958202 6.84558 0.151666 6.7793 0.222057L3.99938 3.1682L1.21945 0.222057C1.15312 0.151758 1.07437 0.0959946 0.987706 0.0579492C0.901038 0.0199038 0.808149 0.000321518 0.71434 0.000321518C0.620532 0.000321517 0.527641 0.0199038 0.440974 0.0579492C0.354306 0.0959946 0.275557 0.151758 0.209224 0.222057C0.142892 0.292356 0.0902748 0.375813 0.0543761 0.467662C0.018477 0.559512 4.76837e-07 0.657956 4.76837e-07 0.757374C4.76837e-07 0.856791 0.018477 0.955235 0.0543761 1.04708C0.0902748 1.13893 0.142892 1.22239 0.209224 1.29269L3.49784 4.77794C3.56413 4.84833 3.64286 4.90418 3.72953 4.94228C3.81621 4.98039 3.90912 5 4.00296 5C4.09679 5 4.18971 4.98039 4.27638 4.94228C4.36306 4.90418 4.44179 4.84833 4.50807 4.77794L7.79669 1.29269C8.06895 1.00415 8.06895 0.51819 7.78953 0.222057Z" fill="#0055DD"/>
</svg>
