<svg width="33" height="32" viewBox="0 0 33 32" fill="none" xmlns="http://www.w3.org/2000/svg">
<path d="M29.2879 17.1519L30.9821 7.86075C31.0117 7.70117 31.0045 7.53696 30.9612 7.38055C30.9179 7.22415 30.8396 7.07965 30.7321 6.95802C30.6295 6.83244 30.5003 6.73118 30.3538 6.66154C30.2073 6.59189 30.0472 6.5556 29.885 6.55526H7.48525L6.80478 2.81935C6.71079 2.3093 6.44136 1.8482 6.04317 1.51592C5.64498 1.18365 5.14311 1.00113 4.62452 1H2.11096C1.81632 1 1.53374 1.11706 1.32539 1.32542C1.11705 1.53378 1 1.81638 1 2.11105C1 2.40572 1.11705 2.68832 1.32539 2.89668C1.53374 3.10505 1.81632 3.2221 2.11096 3.2221H4.62452L8.42956 24.1932C7.88705 24.6711 7.48851 25.2908 7.27868 25.9827C7.06885 26.6746 7.05605 27.4112 7.24172 28.11C7.42738 28.8088 7.80416 29.4419 8.32974 29.9384C8.85532 30.4348 9.50889 30.7749 10.217 30.9204C10.9252 31.0659 11.6599 31.0111 12.3386 30.7622C13.0174 30.5132 13.6133 30.0799 14.0594 29.511C14.5055 28.9421 14.7842 28.26 14.8642 27.5415C14.9441 26.8229 14.8222 26.0962 14.5121 25.4431H21.9278C21.5667 26.2044 21.4626 27.0624 21.6312 27.888C21.7998 28.7135 22.232 29.462 22.8627 30.0207C23.4934 30.5794 24.2885 30.9181 25.1283 30.9858C25.9681 31.0536 26.8072 30.8467 27.5193 30.3963C28.2313 29.946 28.7779 29.2765 29.0766 28.4886C29.3754 27.7008 29.4102 26.8372 29.1758 26.0279C28.9414 25.2185 28.4505 24.5072 27.777 24.001C27.1034 23.4948 26.2837 23.2211 25.4412 23.221H10.5126L9.90159 19.8879H26.0106C26.7906 19.8875 27.5459 19.6135 28.1447 19.1136C28.7436 18.6136 29.1481 17.9194 29.2879 17.1519ZM12.6651 27.1097C12.6651 27.4393 12.5674 27.7616 12.3843 28.0356C12.2012 28.3097 11.9409 28.5233 11.6364 28.6494C11.3319 28.7756 10.9968 28.8086 10.6736 28.7443C10.3503 28.68 10.0534 28.5212 9.82031 28.2882C9.58725 28.0551 9.42854 27.7581 9.36424 27.4349C9.29994 27.1116 9.33294 26.7765 9.45907 26.472C9.5852 26.1674 9.79879 25.9071 10.0728 25.724C10.3469 25.5409 10.6691 25.4431 10.9987 25.4431C11.4406 25.4431 11.8645 25.6187 12.177 25.9313C12.4895 26.2438 12.6651 26.6677 12.6651 27.1097ZM27.1076 27.1097C27.1076 27.4393 27.0099 27.7616 26.8268 28.0356C26.6437 28.3097 26.3834 28.5233 26.0789 28.6494C25.7744 28.7756 25.4393 28.8086 25.1161 28.7443C24.7928 28.68 24.4959 28.5212 24.2628 28.2882C24.0298 28.0551 23.8711 27.7581 23.8068 27.4349C23.7425 27.1116 23.7755 26.7765 23.9016 26.472C24.0277 26.1674 24.2413 25.9071 24.5154 25.724C24.7894 25.5409 25.1116 25.4431 25.4412 25.4431C25.8832 25.4431 26.307 25.6187 26.6195 25.9313C26.9321 26.2438 27.1076 26.6677 27.1076 27.1097ZM7.88797 8.77736H28.5519L27.1076 16.7492C27.0619 17.0066 26.9268 17.2397 26.7261 17.4074C26.5254 17.575 26.272 17.6665 26.0106 17.6658H9.49887L7.88797 8.77736Z" fill="white"/>
</svg>
