<svg width="20" height="20" viewBox="0 0 20 20" fill="none" xmlns="http://www.w3.org/2000/svg">
<path d="M15.8334 2.41667H15V1.58333C15 1.08333 14.6667 0.75 14.1667 0.75C13.6667 0.75 13.3334 1.08333 13.3334 1.58333V2.41667H6.66669V1.58333C6.66669 1.08333 6.33335 0.75 5.83335 0.75C5.33335 0.75 5.00002 1.08333 5.00002 1.58333V2.41667H4.16669C2.75002 2.41667 1.66669 3.5 1.66669 4.91667V16.5833C1.66669 18 2.75002 19.0833 4.16669 19.0833H15.8334C17.25 19.0833 18.3334 18 18.3334 16.5833V4.91667C18.3334 3.58333 17.25 2.41667 15.8334 2.41667ZM5.83335 15.75C5.33335 15.75 5.00002 15.4167 5.00002 14.9167C5.00002 14.4167 5.33335 14.0833 5.83335 14.0833C6.33335 14.0833 6.66669 14.4167 6.66669 14.9167C6.66669 15.4167 6.33335 15.75 5.83335 15.75ZM5.83335 12.4167C5.33335 12.4167 5.00002 12.0833 5.00002 11.5833C5.00002 11.0833 5.33335 10.75 5.83335 10.75C6.33335 10.75 6.66669 11.0833 6.66669 11.5833C6.66669 12.0833 6.33335 12.4167 5.83335 12.4167ZM10 15.75C9.50002 15.75 9.16669 15.4167 9.16669 14.9167C9.16669 14.4167 9.50002 14.0833 10 14.0833C10.5 14.0833 10.8334 14.4167 10.8334 14.9167C10.8334 15.4167 10.5 15.75 10 15.75ZM10 12.4167C9.50002 12.4167 9.16669 12.0833 9.16669 11.5833C9.16669 11.0833 9.50002 10.75 10 10.75C10.5 10.75 10.8334 11.0833 10.8334 11.5833C10.8334 12.0833 10.5 12.4167 10 12.4167ZM14.1667 15.75C13.6667 15.75 13.3334 15.4167 13.3334 14.9167C13.3334 14.4167 13.6667 14.0833 14.1667 14.0833C14.6667 14.0833 15 14.4167 15 14.9167C15 15.4167 14.6667 15.75 14.1667 15.75ZM14.1667 12.4167C13.6667 12.4167 13.3334 12.0833 13.3334 11.5833C13.3334 11.0833 13.6667 10.75 14.1667 10.75C14.6667 10.75 15 11.0833 15 11.5833C15 12.0833 14.6667 12.4167 14.1667 12.4167ZM16.6667 7.41667H3.33335V4.91667C3.33335 4.41667 3.66669 4.08333 4.16669 4.08333H5.00002V4.91667C5.00002 5.41667 5.33335 5.75 5.83335 5.75C6.33335 5.75 6.66669 5.41667 6.66669 4.91667V4.08333H13.3334V4.91667C13.3334 5.41667 13.6667 5.75 14.1667 5.75C14.6667 5.75 15 5.41667 15 4.91667V4.08333H15.8334C16.3334 4.08333 16.6667 4.41667 16.6667 4.91667V7.41667Z" fill="white"/>
</svg>
