<svg width="32" height="32" viewBox="0 0 32 32" fill="none" xmlns="http://www.w3.org/2000/svg">
<path d="M10 5H14.8001V7.7501H10V5ZM10 10.5002H14.8001V13.2499H10V10.5002ZM10 16V27H22V16H10ZM19.5999 24.2499H12.4001V18.7501H19.5999V24.2499Z" fill="#0055DD"/>
<path d="M20 1.20077e-07H6.6668C6.31656 -0.000104994 5.96973 0.0688021 5.64614 0.202784C5.32254 0.336766 5.02851 0.533197 4.78085 0.780853C4.5332 1.02851 4.33677 1.32254 4.20278 1.64614C4.0688 1.96973 3.9999 2.31656 4 2.6668V29.3332C4.00021 30.0404 4.28125 30.7186 4.78132 31.2187C5.2814 31.7188 5.95959 31.9998 6.6668 32H25.3332C25.6834 32.0001 26.0302 31.9311 26.3538 31.7971C26.6774 31.6631 26.9714 31.4667 27.219 31.219C27.4667 30.9714 27.6631 30.6774 27.7971 30.3538C27.9311 30.0302 28.0001 29.6834 28 29.3332V8L20 1.20077e-07ZM20 3.7724L24.2292 8H20V3.7724ZM25.3332 29.3332H6.6668V2.6668H17.3332V8C17.3334 8.70721 17.6144 9.3854 18.1145 9.88548C18.6146 10.3856 19.2928 10.6666 20 10.6668H25.3332V29.3332Z" fill="#0055DD"/>
</svg>
