<svg width="21" height="21" viewBox="0 0 21 21" fill="none" xmlns="http://www.w3.org/2000/svg">
<path fill-rule="evenodd" clip-rule="evenodd" d="M17.5756 4.36038C17.6371 4.29894 17.6858 4.22601 17.7191 4.14574C17.7523 4.06547 17.7694 3.97944 17.7694 3.89255C17.7694 3.80567 17.7523 3.71964 17.7191 3.63937C17.6858 3.5591 17.6371 3.48617 17.5756 3.42473C17.5142 3.3633 17.4413 3.31457 17.361 3.28132C17.2807 3.24807 17.1947 3.23096 17.1078 3.23096C17.0209 3.23096 16.9349 3.24807 16.8546 3.28132C16.7744 3.31457 16.7014 3.3633 16.64 3.42473L10.5002 9.56587L4.36038 3.42473C4.29894 3.3633 4.22601 3.31457 4.14574 3.28132C4.06547 3.24807 3.97944 3.23096 3.89255 3.23096C3.80567 3.23096 3.71964 3.24807 3.63937 3.28132C3.5591 3.31457 3.48617 3.3633 3.42473 3.42473C3.3633 3.48617 3.31457 3.5591 3.28132 3.63937C3.24807 3.71964 3.23096 3.80567 3.23096 3.89255C3.23096 3.97944 3.24807 4.06547 3.28132 4.14574C3.31457 4.22601 3.3633 4.29894 3.42473 4.36038L9.56587 10.5002L3.42473 16.64C3.30066 16.7641 3.23096 16.9324 3.23096 17.1078C3.23096 17.2833 3.30066 17.4516 3.42473 17.5756C3.54881 17.6997 3.71709 17.7694 3.89255 17.7694C4.06802 17.7694 4.2363 17.6997 4.36038 17.5756L10.5002 11.4345L16.64 17.5756C16.7641 17.6997 16.9324 17.7694 17.1078 17.7694C17.2833 17.7694 17.4516 17.6997 17.5756 17.5756C17.6997 17.4516 17.7694 17.2833 17.7694 17.1078C17.7694 16.9324 17.6997 16.7641 17.5756 16.64L11.4345 10.5002L17.5756 4.36038Z" fill="#3B464D"/>
</svg>
