<svg width="42" height="42" viewBox="0 0 42 42" fill="none" xmlns="http://www.w3.org/2000/svg">
<path d="M29.2529 22.5838C29.0221 22.3542 28.7092 22.2251 28.3829 22.2251C28.0566 22.2251 27.7437 22.3542 27.513 22.5838L26.5372 23.5552L16.5875 13.6498L23.1004 7.16585C23.3311 6.93612 23.4607 6.62459 23.4607 6.29976C23.4607 5.97494 23.3311 5.66341 23.1004 5.43368L20.6395 2.98367C20.4088 2.75593 20.0974 2.62779 19.7726 2.62699C19.4477 2.62619 19.1356 2.75279 18.9039 2.97938C18.8909 2.99224 17.5725 4.25829 15.9415 4.25829C14.9965 4.25829 14.1185 3.84117 13.2566 2.98367C13.0258 2.75401 12.7129 2.625 12.3866 2.625C12.0603 2.625 11.7474 2.75401 11.5167 2.98367L1.67277 12.7837C1.44209 13.0135 1.3125 13.325 1.3125 13.6498C1.3125 13.9746 1.44209 14.2862 1.67277 14.5159L7.8252 20.6409C8.06514 20.8804 8.38014 20.9999 8.69515 20.9999C9.01015 20.9999 9.32516 20.8804 9.5651 20.6409L14.8476 15.382L24.7973 25.2874L23.8215 26.2588C23.5908 26.4886 23.4612 26.8001 23.4612 27.1249C23.4612 27.4497 23.5908 27.7613 23.8215 27.991L34.8959 39.0161C35.1358 39.2556 35.4508 39.375 35.7658 39.375C36.0808 39.375 36.3958 39.2556 36.6358 39.0161L40.3272 35.341C40.5579 35.1113 40.6875 34.7998 40.6875 34.475C40.6875 34.1501 40.5579 33.8386 40.3272 33.6089L29.2529 22.5838ZM8.69515 18.0421L4.28324 13.6498L12.4506 5.51882C13.5303 6.30895 14.7005 6.70769 15.9415 6.70769C17.5116 6.70769 18.8331 6.04496 19.6711 5.48391L20.49 6.29976L8.69515 18.0421ZM35.7658 36.4172L26.432 27.1249L28.3829 25.1827L37.7168 34.475L35.7658 36.4172Z" fill="#0055DD"/>
</svg>
