<svg width="65" height="65" viewBox="0 0 65 65" fill="none" xmlns="http://www.w3.org/2000/svg">
<path d="M45.0758 34.9134C44.7242 34.5635 44.2473 34.3669 43.7501 34.3669C43.253 34.3669 42.7761 34.5635 42.4245 34.9134L40.9376 36.3937L25.7762 21.2997L35.7007 11.4194C36.0522 11.0693 36.2496 10.5946 36.2496 10.0996C36.2496 9.60466 36.0522 9.12995 35.7007 8.7799L31.9506 5.04654C31.5992 4.69952 31.1246 4.50426 30.6296 4.50303C30.1346 4.50181 29.6591 4.69472 29.3059 5.04001C29.2862 5.05961 27.2771 6.98882 24.7918 6.98882C23.3518 6.98882 22.0139 6.35321 20.7005 5.04654C20.3488 4.69659 19.872 4.5 19.3748 4.5C18.8776 4.5 18.4008 4.69659 18.0492 5.04654L3.04898 19.98C2.69747 20.33 2.5 20.8047 2.5 21.2997C2.5 21.7947 2.69747 22.2694 3.04898 22.6195L12.4241 31.9529C12.7897 32.3178 13.2697 32.4998 13.7497 32.4998C14.2298 32.4998 14.7098 32.3178 15.0754 31.9529L23.1249 23.9392L38.2863 39.0332L36.7994 40.5135C36.4479 40.8635 36.2505 41.3382 36.2505 41.8332C36.2505 42.3282 36.4479 42.8029 36.7994 43.1529L53.6747 59.9531C54.0403 60.318 54.5203 60.5 55.0003 60.5C55.4803 60.5 55.9603 60.318 56.3259 59.9531L61.951 54.353C62.3025 54.003 62.5 53.5283 62.5 53.0333C62.5 52.5383 62.3025 52.0636 61.951 51.7135L45.0758 34.9134ZM13.7497 27.9927L7.02685 21.2997L19.4723 8.90963C21.1177 10.1136 22.9008 10.7212 24.7918 10.7212C27.1843 10.7212 29.1981 9.71137 30.475 8.85643L31.7228 10.0996L13.7497 27.9927ZM55.0003 55.9929L40.7773 41.8332L43.7501 38.8736L57.9732 53.0333L55.0003 55.9929Z" fill="white"/>
</svg>
