<svg width="50" height="62" viewBox="0 0 50 62" fill="none" xmlns="http://www.w3.org/2000/svg">
<path d="M25.0273 0.375C18.6478 0.382237 12.5316 2.91971 8.02058 7.43074C3.50956 11.9418 0.972081 18.0579 0.964844 24.4375C0.964844 45.0273 22.8398 60.5859 23.7695 61.2422C24.1421 61.4903 24.5797 61.6226 25.0273 61.6226C25.475 61.6226 25.9126 61.4903 26.2852 61.2422C27.2148 60.5859 49.0898 45.0273 49.0898 24.4375C49.0826 18.0579 46.5451 11.9418 42.0341 7.43074C37.5231 2.91971 31.4069 0.382237 25.0273 0.375ZM25.0273 15.6875C26.7579 15.6875 28.4497 16.2007 29.8886 17.1621C31.3275 18.1236 32.449 19.4902 33.1113 21.089C33.7736 22.6879 33.9468 24.4472 33.6092 26.1445C33.2716 27.8419 32.4382 29.401 31.2145 30.6247C29.9908 31.8484 28.4317 32.6818 26.7344 33.0194C25.0371 33.357 23.2777 33.1837 21.6789 32.5214C20.08 31.8592 18.7134 30.7377 17.752 29.2987C16.7905 27.8598 16.2773 26.1681 16.2773 24.4375C16.2773 22.1169 17.1992 19.8913 18.8402 18.2503C20.4811 16.6094 22.7067 15.6875 25.0273 15.6875Z" fill="#0055DD"/>
</svg>
