<svg width="42" height="42" viewBox="0 0 42 42" fill="none" xmlns="http://www.w3.org/2000/svg">
<path d="M34.125 6.5625H7.875C7.17881 6.5625 6.51113 6.83906 6.01884 7.33134C5.52656 7.82363 5.25 8.49131 5.25 9.1875V18.818C5.25 33.4852 17.6859 38.3578 20.1797 39.1781C20.7125 39.3534 21.2875 39.3534 21.8203 39.1781C24.3141 38.3578 36.75 33.4852 36.75 18.818V9.1875C36.75 8.49131 36.4734 7.82363 35.9812 7.33134C35.4889 6.83906 34.8212 6.5625 34.125 6.5625ZM34.125 18.818C34.125 31.6477 23.2312 35.9461 21 36.6844C18.7852 35.9461 7.875 31.6641 7.875 18.818V9.1875H34.125V18.818ZM12.8789 22.6078C12.7456 22.4915 12.6371 22.3494 12.5601 22.1901C12.4831 22.0308 12.4391 21.8576 12.4307 21.6808C12.4224 21.5041 12.4498 21.3275 12.5115 21.1616C12.5731 20.9958 12.6676 20.8441 12.7894 20.7157C12.9111 20.5873 13.0576 20.4848 13.2199 20.4145C13.3823 20.3442 13.5572 20.3074 13.7341 20.3063C13.9111 20.3053 14.0864 20.3401 14.2496 20.4085C14.4127 20.477 14.5604 20.5777 14.6836 20.7047L18.5883 24.4289L27.3164 16.1109C27.5716 15.8883 27.903 15.7729 28.2413 15.7889C28.5796 15.8049 28.8986 15.9511 29.1316 16.1968C29.3647 16.4426 29.4937 16.7689 29.4917 17.1076C29.4898 17.4462 29.357 17.771 29.1211 18.0141L19.507 27.2016C19.2585 27.4354 18.9295 27.5646 18.5883 27.5625C18.2521 27.5638 17.9285 27.4344 17.6859 27.2016L12.8789 22.6078Z" fill="#0055DD"/>
</svg>
