<svg width="65" height="65" viewBox="0 0 65 65" fill="none" xmlns="http://www.w3.org/2000/svg">
<path d="M52.5 10.5H12.5C11.4391 10.5 10.4217 10.9214 9.67157 11.6716C8.92143 12.4217 8.5 13.4391 8.5 14.5V29.175C8.5 51.525 27.45 58.95 31.25 60.2C32.0619 60.4671 32.9381 60.4671 33.75 60.2C37.55 58.95 56.5 51.525 56.5 29.175V14.5C56.5 13.4391 56.0786 12.4217 55.3284 11.6716C54.5783 10.9214 53.5609 10.5 52.5 10.5ZM52.5 29.175C52.5 48.725 35.9 55.275 32.5 56.4C29.125 55.275 12.5 48.75 12.5 29.175V14.5H52.5V29.175ZM20.125 34.95C19.9218 34.7727 19.7566 34.5562 19.6392 34.3135C19.5219 34.0708 19.4548 33.8068 19.4421 33.5375C19.4293 33.2681 19.4712 32.999 19.5651 32.7463C19.659 32.4935 19.8031 32.2624 19.9886 32.0668C20.1741 31.8711 20.3973 31.715 20.6447 31.6078C20.8921 31.5006 21.1586 31.4445 21.4282 31.443C21.6978 31.4414 21.965 31.4944 22.2136 31.5987C22.4622 31.703 22.6872 31.8565 22.875 32.05L28.825 37.725L42.125 25.05C42.5139 24.7107 43.0189 24.5349 43.5344 24.5593C44.0499 24.5837 44.536 24.8064 44.8911 25.1809C45.2462 25.5554 45.4428 26.0526 45.4398 26.5687C45.4368 27.0847 45.2344 27.5797 44.875 27.95L30.225 41.95C29.8463 42.3063 29.345 42.5032 28.825 42.5C28.3127 42.5019 27.8196 42.3047 27.45 41.95L20.125 34.95Z" fill="white"/>
</svg>
