<svg width="12" height="12" viewBox="0 0 12 12" fill="none" xmlns="http://www.w3.org/2000/svg">
<g clip-path="url(#clip0_1_554)">
<path d="M6 0.5C4.91221 0.5 3.84884 0.822569 2.94437 1.42692C2.0399 2.03126 1.33495 2.89025 0.918665 3.89524C0.502383 4.90023 0.393465 6.0061 0.605683 7.073C0.817902 8.13989 1.34173 9.1199 2.11092 9.88909C2.8801 10.6583 3.86011 11.1821 4.92701 11.3943C5.9939 11.6065 7.09977 11.4976 8.10476 11.0813C9.10976 10.6651 9.96874 9.96011 10.5731 9.05564C11.1774 8.15117 11.5 7.0878 11.5 6C11.5 4.54131 10.9205 3.14236 9.88909 2.11091C8.85764 1.07946 7.45869 0.5 6 0.5ZM8 6.5H6C5.86739 6.5 5.74022 6.44732 5.64645 6.35355C5.55268 6.25979 5.5 6.13261 5.5 6V3C5.5 2.86739 5.55268 2.74021 5.64645 2.64645C5.74022 2.55268 5.86739 2.5 6 2.5C6.13261 2.5 6.25979 2.55268 6.35356 2.64645C6.44732 2.74021 6.5 2.86739 6.5 3V5.5H8C8.13261 5.5 8.25979 5.55268 8.35356 5.64645C8.44732 5.74021 8.5 5.86739 8.5 6C8.5 6.13261 8.44732 6.25979 8.35356 6.35355C8.25979 6.44732 8.13261 6.5 8 6.5Z" fill="#C6D9E4"/>
</g>
<defs>
<clipPath id="clip0_1_554">
<rect width="12" height="12" fill="white"/>
</clipPath>
</defs>
</svg>
