<svg width="42" height="42" viewBox="0 0 42 42" fill="none" xmlns="http://www.w3.org/2000/svg">
<path d="M34.7812 36.0938V5.25C34.7812 4.52513 34.1936 3.9375 33.4688 3.9375H8.53125C7.80638 3.9375 7.21875 4.52513 7.21875 5.25V36.0938H5.25C4.52513 36.0938 3.9375 36.6814 3.9375 37.4062C3.9375 38.1311 4.52513 38.7188 5.25 38.7188H36.75C37.4749 38.7188 38.0625 38.1311 38.0625 37.4062C38.0625 36.6814 37.4749 36.0938 36.75 36.0938H34.7812ZM9.84375 6.5625H19.6875V16.4062H9.84375V6.5625ZM9.84375 19.0312H19.6875V30.8438H9.84375V19.0312ZM32.1562 36.0938H9.84375V33.4688H32.1562V36.0938ZM32.1562 30.8438H22.3125V19.0312H32.1562V30.8438ZM32.1562 16.4062H22.3125V6.5625H32.1562V16.4062Z" fill="#0055DD"/>
</svg>
