<svg width="65" height="65" viewBox="0 0 65 65" fill="none" xmlns="http://www.w3.org/2000/svg">
<path d="M53.5 55.5V8.5C53.5 7.39543 52.6046 6.5 51.5 6.5H13.5C12.3954 6.5 11.5 7.39543 11.5 8.5V55.5H8.5C7.39543 55.5 6.5 56.3954 6.5 57.5C6.5 58.6046 7.39543 59.5 8.5 59.5H56.5C57.6046 59.5 58.5 58.6046 58.5 57.5C58.5 56.3954 57.6046 55.5 56.5 55.5H53.5ZM15.5 10.5H30.5V25.5H15.5V10.5ZM15.5 29.5H30.5V47.5H15.5V29.5ZM49.5 55.5H15.5V51.5H49.5V55.5ZM49.5 47.5H34.5V29.5H49.5V47.5ZM49.5 25.5H34.5V10.5H49.5V25.5Z" fill="white"/>
</svg>
