<svg width="39" height="39" viewBox="0 0 39 39" fill="none" xmlns="http://www.w3.org/2000/svg">
<rect x="39" y="39" width="39" height="39" rx="19.5" transform="rotate(-180 39 39)" fill="#D92227"/>
<path d="M18.5303 23.4697C18.8232 23.7626 18.8232 24.2374 18.5303 24.5303C18.2374 24.8232 17.7626 24.8232 17.4697 24.5303L13.4697 20.5303C13.1768 20.2374 13.1768 19.7626 13.4697 19.4697L17.4697 15.4697C17.7626 15.1768 18.2374 15.1768 18.5303 15.4697C18.8232 15.7626 18.8232 16.2374 18.5303 16.5303L15.8107 19.25H25.5C25.9142 19.25 26.25 19.5858 26.25 20C26.25 20.4142 25.9142 20.75 25.5 20.75H15.8107L18.5303 23.4697Z" fill="white"/>
</svg>
