<svg width="30" height="30" viewBox="0 0 30 30" fill="none" xmlns="http://www.w3.org/2000/svg">
<path d="M15 30C23.2843 30 30 23.2843 30 15C30 6.71573 23.2843 0 15 0C6.71573 0 0 6.71573 0 15C0 23.2843 6.71573 30 15 30Z" fill="url(#paint0_linear_904_751)"/>
<path d="M5.58651 15.734C7.34001 14.7681 9.29739 13.962 11.1263 13.1517C14.2726 11.8246 17.4315 10.5205 20.6223 9.30633C21.2431 9.09947 22.3585 8.89719 22.4679 9.81715C22.408 11.1194 22.1616 12.414 21.9926 13.7087C21.5637 16.5557 21.0679 19.3929 20.5845 22.2305C20.4179 23.1758 19.2339 23.665 18.4763 23.0601C16.6555 21.8303 14.8208 20.6124 13.0233 19.354C12.4344 18.7557 12.9805 17.8965 13.5063 17.4693C15.0059 15.9914 16.5963 14.7358 18.0176 13.1815C18.4009 12.2558 17.2682 13.036 16.8945 13.275C14.8415 14.6898 12.8388 16.1909 10.6743 17.4343C9.56866 18.0429 8.28004 17.5228 7.17491 17.1832C6.18405 16.7729 4.73204 16.3596 5.58641 15.7341L5.58651 15.734Z" fill="white"/>
<defs>
<linearGradient id="paint0_linear_904_751" x1="20.0012" y1="5.001" x2="12.5012" y2="22.5" gradientUnits="userSpaceOnUse">
<stop stop-color="#37AEE2"/>
<stop offset="1" stop-color="#1E96C8"/>
</linearGradient>
</defs>
</svg>
