<?xml version="1.0" encoding="utf-8"?>
<svg viewBox="0 0 24 24" fill="none" xmlns="http://www.w3.org/2000/svg">
  <ellipse style="stroke: rgb(0, 0, 0); paint-order: stroke; stroke-opacity: 0; fill: rgb(200, 200, 200);" cx="12" cy="12" rx="11.971" ry="12.03"/>
  <path d="M 18.594 8.451 C 18.691 8.13 18.594 7.895 18.137 7.895 L 16.625 7.895 C 16.24 7.895 16.064 8.099 15.968 8.322 C 15.968 8.322 15.199 10.197 14.109 11.414 C 13.757 11.768 13.596 11.88 13.405 11.88 C 13.309 11.88 13.169 11.768 13.169 11.447 L 13.169 8.451 C 13.169 8.066 13.058 7.895 12.737 7.895 L 10.36 7.895 C 10.12 7.895 9.975 8.073 9.975 8.243 C 9.975 8.607 10.52 8.691 10.576 9.718 L 10.576 11.944 C 10.576 12.431 10.489 12.521 10.296 12.521 C 9.783 12.521 8.536 10.639 7.796 8.484 C 7.651 8.065 7.506 7.896 7.12 7.896 L 5.608 7.896 C 5.176 7.896 5.09 8.1 5.09 8.323 C 5.09 8.724 5.602 10.711 7.477 13.339 C 8.726 15.132 10.486 16.105 12.089 16.105 C 13.05 16.105 13.169 15.889 13.169 15.516 L 13.169 14.16 C 13.169 13.729 13.261 13.642 13.565 13.642 C 13.788 13.642 14.173 13.755 15.07 14.619 C 16.095 15.644 16.265 16.104 16.841 16.104 L 18.353 16.104 C 18.785 16.104 19 15.889 18.877 15.462 C 18.741 15.038 18.251 14.421 17.601 13.69 C 17.248 13.273 16.72 12.825 16.56 12.601 C 16.335 12.312 16.4 12.185 16.56 11.928 C 16.56 11.928 18.403 9.334 18.594 8.451 Z" style="fill: rgb(255, 255, 255);"/>
</svg>