<svg width="30" height="30" viewBox="0 0 30 30" fill="none" xmlns="http://www.w3.org/2000/svg">
<path d="M15 0C23.2843 0 30 6.71573 30 15C30 23.2843 23.2843 30 15 30C6.71573 30 0 23.2843 0 15C0 6.71573 6.71573 0 15 0Z" fill="#7F4DA0"/>
<path d="M18.9965 13.0991C18.9236 12.5064 18.7414 12.041 18.4179 11.6288C17.9978 11.098 17.461 10.7801 16.6662 10.5916C16.1482 10.4659 15.9389 10.4803 15.7516 10.6514C15.5771 10.8118 15.543 11.1332 15.6764 11.3413C15.7702 11.4923 15.8783 11.5465 16.1792 11.6055C16.5799 11.6792 16.8568 11.7749 17.1087 11.919C17.6434 12.2277 17.8924 12.7108 17.919 13.4928C17.9315 13.8601 17.9632 13.973 18.0915 14.1032C18.3292 14.3413 18.7522 14.295 18.9317 14.0101C18.9976 13.9027 19.0076 13.8559 19.0146 13.6066C19.0191 13.4522 19.0125 13.2224 18.9965 13.0991V13.0991Z" fill="white"/>
<path d="M21.0903 13.7673C20.9847 11.9515 20.2745 10.4905 19.0034 9.46264C18.2872 8.88507 17.4215 8.48791 16.4726 8.29477C16.125 8.22569 15.485 8.1697 15.3752 8.20173C15.2716 8.23138 15.1251 8.34357 15.0598 8.44501C14.9907 8.55503 14.9751 8.80066 15.034 8.94274C15.1291 9.18026 15.3061 9.26417 15.8015 9.30751C16.5653 9.37434 17.3531 9.64269 17.9484 10.04C18.628 10.4923 19.1682 11.111 19.5177 11.838C19.8196 12.4626 20.0054 13.3628 20.0002 14.169C19.9985 14.4605 20.0435 14.6252 20.1608 14.7455C20.3377 14.9306 20.5957 14.9711 20.8234 14.8482C21.0757 14.7155 21.1347 14.4825 21.0903 13.7673V13.7673Z" fill="white"/>
<path d="M23.4078 20.7602C23.3723 20.6564 23.2894 20.4963 23.2302 20.4044C22.8572 19.8411 20.853 18.2726 19.8523 17.7597C19.281 17.4662 18.8577 17.3683 18.5438 17.4602C18.2064 17.5551 18.0287 17.7122 17.4633 18.4149C17.2353 18.6966 17.0015 18.9605 16.9393 19.002C16.7853 19.1087 16.4834 19.1947 16.2702 19.1947C15.7758 19.1917 14.8788 18.8715 14.189 18.4505C13.6532 18.1244 12.9664 17.5403 12.4394 16.9621C11.8177 16.2832 11.3944 15.6842 11.0599 15.0082C10.6277 14.1395 10.5181 13.6088 10.6987 13.2204C10.7431 13.1225 10.8023 13.0188 10.8289 12.9861C10.8556 12.9565 11.1339 12.7282 11.4417 12.4792C12.0457 11.9989 12.1434 11.8892 12.2559 11.56C12.398 11.142 12.3595 10.715 12.1404 10.2851C11.9717 9.95898 11.5306 9.24741 11.2109 8.78786C10.7875 8.18304 9.73361 6.89034 9.52338 6.71536C9.14446 6.40704 8.65899 6.35363 8.1231 6.56122C7.55771 6.78063 6.49784 7.63451 6.04489 8.23047C5.63635 8.77007 5.47949 9.15253 5.45579 9.65657C5.43508 10.0716 5.47059 10.2436 5.68967 10.7743C7.40376 14.9371 9.96153 18.2607 13.4756 20.8995C15.3111 22.2782 17.2146 23.3278 19.1892 24.0453C20.3408 24.4633 20.8411 24.4841 21.4302 24.1402C21.6789 23.9919 22.2947 23.3604 22.6381 22.9009C23.2065 22.1359 23.4167 21.7831 23.4759 21.5014C23.5174 21.3087 23.4848 20.9737 23.4078 20.7602V20.7602Z" fill="white"/>
<path d="M23.2222 14.1843C23.1843 13.1572 23.0113 12.3146 22.6507 11.3753C22.2947 10.4513 21.9344 9.84837 21.2539 9.03286C20.6105 8.26822 20.1108 7.83163 19.3183 7.34564C18.2126 6.66852 16.867 6.22042 15.359 6.03197C14.8447 5.96611 14.7284 5.97082 14.5706 6.07609C14.2649 6.27552 14.2689 6.77294 14.5756 6.96938C14.6772 7.03187 14.7673 7.05463 15.1786 7.10848C15.8101 7.1935 16.2162 7.27362 16.698 7.40508C18.5874 7.92157 20.0403 8.97728 21.0117 10.5444C21.8246 11.8507 22.162 13.157 22.1141 14.8254C22.0974 15.3895 22.1095 15.4888 22.1958 15.6243C22.3609 15.8769 22.7963 15.9268 23.0197 15.7172C23.1587 15.5895 23.1849 15.4936 23.2123 15.0108C23.2254 14.759 23.2282 14.3872 23.2222 14.1843V14.1843Z" fill="white"/>
</svg>
