<svg width="159" height="159" viewBox="0 0 159 159" fill="none" xmlns="http://www.w3.org/2000/svg">
<g opacity="0.1" clip-path="url(#clip0_88_247)">
<path d="M-132.667 27.7139H-115.614L21.3167 165.146L13.0407 173.422L-132.667 27.7139Z" fill="#E23911"/>
<path d="M-98.3094 27.7139H-81.2558L55.6748 165.146L47.3987 173.422L-98.3094 27.7139Z" fill="#E23911"/>
<path d="M-63.9514 27.7139H-46.8978L90.0328 165.146L81.7568 173.422L-63.9514 27.7139Z" fill="#E23911"/>
<path d="M-29.5934 27.7139H-12.5397L124.391 165.146L116.115 173.422L-29.5934 27.7139Z" fill="#E23911"/>
<path d="M4.76468 27.7139H21.8183L158.749 165.146L150.473 173.422L4.76468 27.7139Z" fill="#E23911"/>
<path d="M21.7732 27.7139H4.7196L-132.211 -109.718L-123.935 -117.994L21.7732 27.7139Z" fill="#E23911"/>
<path d="M11.0344 0.127136H-6.01924L-142.95 137.559L-134.674 145.835L11.0344 0.127136Z" fill="white"/>
</g>
<defs>
<clipPath id="clip0_88_247">
<rect width="159" height="158.498" fill="white"/>
</clipPath>
</defs>
</svg>
