<svg width="159" height="159" viewBox="0 0 159 159" fill="none" xmlns="http://www.w3.org/2000/svg">
<g opacity="0.1" clip-path="url(#clip0_88_260)">
<path d="M27.964 -132.667L27.964 -115.614L165.396 21.3167L173.672 13.0407L27.964 -132.667Z" fill="#E23911"/>
<path d="M27.964 -98.3094L27.964 -81.2558L165.396 55.6748L173.672 47.3988L27.964 -98.3094Z" fill="#E23911"/>
<path d="M27.964 -63.9514L27.964 -46.8978L165.396 90.0328L173.672 81.7568L27.964 -63.9514Z" fill="#E23911"/>
<path d="M27.964 -29.5934L27.964 -12.5397L165.396 124.391L173.672 116.115L27.964 -29.5934Z" fill="#E23911"/>
<path d="M27.964 4.76468L27.964 21.8183L165.396 158.749L173.672 150.473L27.964 4.76468Z" fill="#E23911"/>
<path d="M27.964 21.7732L27.964 4.7196L-109.468 -132.211L-117.744 -123.935L27.964 21.7732Z" fill="#E23911"/>
<path d="M0.377191 11.0344L0.377191 -6.01924L137.809 -142.95L146.085 -134.674L0.377191 11.0344Z" fill="white"/>
</g>
<defs>
<clipPath id="clip0_88_260">
<rect width="159" height="158.498" fill="white" transform="matrix(-4.37114e-08 1 1 4.37114e-08 0.25 0)"/>
</clipPath>
</defs>
</svg>
