<svg width="80" height="80" viewBox="0 0 80 80" fill="none" xmlns="http://www.w3.org/2000/svg">
<circle cx="40" cy="40" r="39" stroke="#EF7F1A" stroke-width="2"/>
<g clip-path="url(#clip0_443_452)">
<path d="M48.2249 41.4283C47.5533 42.1967 41.6666 49.065 41.6666 53.3867C41.6666 57.585 45.0316 61 49.1666 61C53.3016 61 56.6666 57.585 56.6666 53.3867C56.6666 49.065 50.7799 42.1983 50.1083 41.4283C49.6333 40.885 48.6999 40.885 48.2249 41.4283ZM45.7133 39.235C46.3959 38.4655 47.3197 37.9507 48.3333 37.775V26.8333H48.7499C49.0814 26.8333 49.3994 26.7016 49.6338 26.4672C49.8682 26.2328 49.9999 25.9149 49.9999 25.5833C49.9999 25.2518 49.8682 24.9339 49.6338 24.6994C49.3994 24.465 49.0814 24.3333 48.7499 24.3333H34.9999V23.9167C34.9999 22.3083 33.6916 21 32.0833 21H31.2499C29.6416 21 28.3333 22.3083 28.3333 23.9167V24.3333H24.5833C24.2517 24.3333 23.9338 24.465 23.6994 24.6994C23.4649 24.9339 23.3333 25.2518 23.3333 25.5833C23.3333 25.9149 23.4649 26.2328 23.6994 26.4672C23.9338 26.7016 24.2517 26.8333 24.5833 26.8333H24.9999V38.9167H24.5833C24.2517 38.9167 23.9338 39.0484 23.6994 39.2828C23.4649 39.5172 23.3333 39.8351 23.3333 40.1667C23.3333 40.4982 23.4649 40.8161 23.6994 41.0505C23.9338 41.285 24.2517 41.4167 24.5833 41.4167H24.9999V53.5H24.5833C24.2517 53.5 23.9338 53.6317 23.6994 53.8661C23.4649 54.1005 23.3333 54.4185 23.3333 54.75C23.3333 55.0815 23.4649 55.3995 23.6994 55.6339C23.9338 55.8683 24.2517 56 24.5833 56H38.6583C38.4456 55.1451 38.3365 54.2677 38.3333 53.3867C38.3333 48.1017 43.9833 41.2183 45.7133 39.235ZM32.4999 24.3333H30.8333V23.9167C30.8333 23.8062 30.8772 23.7002 30.9553 23.622C31.0334 23.5439 31.1394 23.5 31.2499 23.5H32.0833C32.1938 23.5 32.2997 23.5439 32.3779 23.622C32.456 23.7002 32.4999 23.8062 32.4999 23.9167V24.3333Z" fill="#EF7F1A"/>
</g>
<defs>
<clipPath id="clip0_443_452">
<rect width="40" height="40" fill="white" transform="translate(20 21)"/>
</clipPath>
</defs>
</svg>
