<svg width="80" height="80" viewBox="0 0 80 80" fill="none" xmlns="http://www.w3.org/2000/svg">
<circle cx="40" cy="40" r="39" stroke="#EF7F1A" stroke-width="2"/>
<path d="M55.2344 22.4219V24.7656H54.0625V38.8281H58.75V24.7656H57.5781V22.4219H55.2344ZM54.0625 48.1665C54.0625 51.2575 54.8727 55.4804 56.404 58.1641L56.4062 58.1663V58.1641C57.9398 55.4804 58.75 51.2576 58.75 48.1665V41.1719H54.0625V48.1665ZM51.7188 20H21.25V60H51.7188V20ZM40 24.7656H42.3438V27.1094H40V24.7656ZM35.3125 24.7656H37.6562V27.1094H35.3125V24.7656ZM30.625 24.7656H32.9688V27.1094H30.625V24.7656ZM41.1719 55.2344C39.5788 55.2344 38.6473 53.6883 37.8234 52.323C37.4663 51.7302 36.8026 50.627 36.473 50.5457C36.1663 50.627 35.5025 51.7302 35.1455 52.323C34.3214 53.6883 33.3899 55.2344 31.7969 55.2344C29.833 55.2344 28.7321 52.9891 26.908 49.2697L26.0611 47.5554L28.1577 46.5071L29.0114 48.2386C29.9956 50.2436 31.2201 52.7407 31.8106 52.8918C32.115 52.8105 32.7788 51.7073 33.1359 51.1145C33.9598 49.7492 34.8913 48.2031 36.4844 48.2031C38.0774 48.2031 39.0089 49.7492 39.8329 51.1145C40.1899 51.7073 40.8537 52.8105 41.1833 52.8918C41.4122 52.8059 42.0805 51.9625 42.4673 51.1935L44.5639 52.243C44.2138 52.9444 42.932 55.2344 41.1719 55.2344ZM47.0312 41.1719H25.9375V38.8281H47.0312V41.1719ZM47.0312 36.4844H25.9375V34.1406H47.0312V36.4844ZM47.0312 31.7969H25.9375V29.4531H47.0312V31.7969Z" fill="#EF7F1A"/>
</svg>
