<svg width="80" height="80" viewBox="0 0 80 80" fill="none" xmlns="http://www.w3.org/2000/svg">
<circle cx="40" cy="40" r="39" stroke="#EF7F1A" stroke-width="2"/>
<g clip-path="url(#clip0_443_470)">
<path d="M28.2031 47.75C26.9109 47.75 25.8594 48.8016 25.8594 50.0938C25.8594 51.3859 26.9109 52.4375 28.2031 52.4375C29.4953 52.4375 30.5469 51.3859 30.5469 50.0938C30.5469 48.8016 29.4953 47.75 28.2031 47.75ZM32.8906 47.75C31.5984 47.75 30.5469 48.8016 30.5469 50.0938C30.5469 51.3859 31.5984 52.4375 32.8906 52.4375C34.1828 52.4375 35.2344 51.3859 35.2344 50.0938C35.2344 48.8016 34.1828 47.75 32.8906 47.75ZM52.9688 47.75C51.6766 47.75 50.625 48.8016 50.625 50.0938C50.625 51.3859 51.6766 52.4375 52.9688 52.4375C54.2609 52.4375 55.3125 51.3859 55.3125 50.0938C55.3125 48.8016 54.2609 47.75 52.9688 47.75ZM20 29H45.9375V40.7188H20V29ZM57.3495 33.6875H52.9688V40.7188H59.4699L57.3495 33.6875Z" fill="#EF7F1A"/>
<path d="M50.625 43.0625V33.6875H48.2812V50.0938C48.2812 47.5086 50.3836 45.4062 52.9688 45.4062C55.5539 45.4062 57.6562 47.5086 57.6562 50.0938H60V43.0625H50.625ZM20 50.0938H23.5156C23.5156 47.5086 25.618 45.4062 28.2031 45.4062C29.0607 45.4062 29.8547 45.6544 30.5469 46.0581C31.2391 45.6544 32.033 45.4062 32.8906 45.4062C35.4758 45.4062 37.5781 47.5086 37.5781 50.0938H45.9375V43.0625H20V50.0938Z" fill="#EF7F1A"/>
</g>
<defs>
<clipPath id="clip0_443_470">
<rect width="40" height="40" fill="white" transform="translate(20 21)"/>
</clipPath>
</defs>
</svg>
