<svg width="80" height="80" viewBox="0 0 80 80" fill="none" xmlns="http://www.w3.org/2000/svg">
<circle cx="40" cy="40" r="39" stroke="#EF7F1A" stroke-width="2"/>
<g clip-path="url(#clip0_443_481)">
<path d="M48.7835 28.3484L45.2451 22.2867C45.1615 22.1442 45.0506 22.0196 44.9187 21.9201C44.7868 21.8206 44.6365 21.7482 44.4765 21.707C44.3165 21.6658 44.1499 21.6566 43.9864 21.68C43.8228 21.7034 43.6655 21.7589 43.5235 21.8434L32.7068 28.3334L48.7835 28.3484Z" fill="#EF7F1A"/>
<path d="M25 30C24.0833 30 23.3333 29.25 23.3333 28.3334C23.3333 27.4167 24.0833 26.6667 25 26.6667H30.6167L36.1833 23.3334H25C22.5333 23.3334 20.4833 25.1334 20.0833 27.5C20.05 27.6334 20 27.7667 20 27.9167V53.3334C20 56.0834 22.25 58.3334 25 58.3334H53.3333C55.1667 58.3334 56.6667 56.8334 56.6667 55V51.6667H52.5C48.3667 51.6667 45 48.3 45 44.1667C45 40.0334 48.3667 36.6667 52.5 36.6667H56.6667V33.3334C56.6667 31.5 55.1667 30 53.3333 30H25ZM51.6667 26.6667C51.6667 24.9834 50.4167 23.5834 48.7833 23.3667L51.6667 28.3334V26.6667Z" fill="#EF7F1A"/>
<path d="M58.75 39.1667H52.5C49.7433 39.1667 47.5 41.4101 47.5 44.1667C47.5 46.9234 49.7433 49.1667 52.5 49.1667H58.75C59.0815 49.1667 59.3995 49.0351 59.6339 48.8006C59.8683 48.5662 60 48.2483 60 47.9167V40.4167C60 40.0852 59.8683 39.7673 59.6339 39.5329C59.3995 39.2984 59.0815 39.1667 58.75 39.1667ZM52.5 45.8334C52.058 45.8334 51.634 45.6578 51.3215 45.3453C51.0089 45.0327 50.8333 44.6088 50.8333 44.1667C50.8333 43.7247 51.0089 43.3008 51.3215 42.9882C51.634 42.6757 52.058 42.5001 52.5 42.5001C52.942 42.5001 53.366 42.6757 53.6785 42.9882C53.9911 43.3008 54.1667 43.7247 54.1667 44.1667C54.1667 44.6088 53.9911 45.0327 53.6785 45.3453C53.366 45.6578 52.942 45.8334 52.5 45.8334Z" fill="#EF7F1A"/>
</g>
<defs>
<clipPath id="clip0_443_481">
<rect width="40" height="40" fill="white" transform="translate(20 20)"/>
</clipPath>
</defs>
</svg>
