<svg width="80" height="80" viewBox="0 0 80 80" fill="none" xmlns="http://www.w3.org/2000/svg">
<circle cx="40" cy="40" r="39" stroke="#EF7F1A" stroke-width="2"/>
<g clip-path="url(#clip0_443_492)">
<path d="M53.75 21.2212H26.25C25.587 21.2212 24.9511 21.4846 24.4822 21.9534C24.0134 22.4223 23.75 23.0582 23.75 23.7212V55.5962C23.75 56.0605 23.8793 56.5156 24.1234 56.9105C24.3675 57.3055 24.7167 57.6246 25.132 57.8323C25.5472 58.0399 26.0121 58.1278 26.4745 58.0861C26.9369 58.0444 27.3786 57.8748 27.75 57.5962L29.3837 56.3749C29.5609 56.243 29.7759 56.1717 29.9969 56.1717C30.2178 56.1717 30.4328 56.243 30.61 56.3749L32.8813 58.0787C33.4914 58.534 34.2324 58.78 34.9937 58.78C35.7551 58.78 36.4961 58.534 37.1063 58.0787L39.375 56.3749C39.5517 56.243 39.7663 56.1717 39.9869 56.1717C40.2074 56.1717 40.4221 56.243 40.5988 56.3749L42.875 58.0737C43.4857 58.5278 44.2265 58.7731 44.9875 58.7731C45.7485 58.7731 46.4893 58.5278 47.1 58.0737L49.38 56.3662C49.5567 56.2342 49.7713 56.1629 49.9919 56.1629C50.2124 56.1629 50.4271 56.2342 50.6038 56.3662L52.2475 57.5974C52.6189 57.876 53.0606 58.0456 53.523 58.0873C53.9854 58.129 54.4503 58.0411 54.8655 57.8335C55.2808 57.6259 55.63 57.3067 55.8741 56.9118C56.1182 56.5168 56.2475 56.0617 56.2475 55.5974V23.7212C56.2475 23.0586 55.9845 22.4231 55.5161 21.9543C55.0478 21.4855 54.4126 21.2219 53.75 21.2212ZM36.875 49.3749H31.25C30.9185 49.3749 30.6005 49.2432 30.3661 49.0088C30.1317 48.7744 30 48.4565 30 48.1249C30 47.7934 30.1317 47.4755 30.3661 47.2411C30.6005 47.0066 30.9185 46.8749 31.25 46.8749H36.875C37.2065 46.8749 37.5245 47.0066 37.7589 47.2411C37.9933 47.4755 38.125 47.7934 38.125 48.1249C38.125 48.4565 37.9933 48.7744 37.7589 49.0088C37.5245 49.2432 37.2065 49.3749 36.875 49.3749ZM48.75 49.3749H41.875C41.5435 49.3749 41.2255 49.2432 40.9911 49.0088C40.7567 48.7744 40.625 48.4565 40.625 48.1249C40.625 47.7934 40.7567 47.4755 40.9911 47.2411C41.2255 47.0066 41.5435 46.8749 41.875 46.8749H48.75C49.0815 46.8749 49.3995 47.0066 49.6339 47.2411C49.8683 47.4755 50 47.7934 50 48.1249C50 48.4565 49.8683 48.7744 49.6339 49.0088C49.3995 49.2432 49.0815 49.3749 48.75 49.3749ZM48.75 43.1249H31.25C30.9185 43.1249 30.6005 42.9932 30.3661 42.7588C30.1317 42.5244 30 42.2065 30 41.8749C30 41.5434 30.1317 41.2255 30.3661 40.9911C30.6005 40.7566 30.9185 40.6249 31.25 40.6249H48.75C49.0815 40.6249 49.3995 40.7566 49.6339 40.9911C49.8683 41.2255 50 41.5434 50 41.8749C50 42.2065 49.8683 42.5244 49.6339 42.7588C49.3995 42.9932 49.0815 43.1249 48.75 43.1249ZM48.75 36.8749H31.25C30.9185 36.8749 30.6005 36.7432 30.3661 36.5088C30.1317 36.2744 30 35.9565 30 35.6249C30 35.2934 30.1317 34.9755 30.3661 34.7411C30.6005 34.5066 30.9185 34.3749 31.25 34.3749H48.75C49.0815 34.3749 49.3995 34.5066 49.6339 34.7411C49.8683 34.9755 50 35.2934 50 35.6249C50 35.9565 49.8683 36.2744 49.6339 36.5088C49.3995 36.7432 49.0815 36.8749 48.75 36.8749ZM48.75 30.6249H31.25C30.9185 30.6249 30.6005 30.4932 30.3661 30.2588C30.1317 30.0244 30 29.7065 30 29.3749C30 29.0434 30.1317 28.7255 30.3661 28.4911C30.6005 28.2566 30.9185 28.1249 31.25 28.1249H48.75C49.0815 28.1249 49.3995 28.2566 49.6339 28.4911C49.8683 28.7255 50 29.0434 50 29.3749C50 29.7065 49.8683 30.0244 49.6339 30.2588C49.3995 30.4932 49.0815 30.6249 48.75 30.6249Z" fill="#EF7F1A"/>
</g>
<defs>
<clipPath id="clip0_443_492">
<rect width="40" height="40" fill="white" transform="translate(20 20)"/>
</clipPath>
</defs>
</svg>
