<svg width="80" height="80" viewBox="0 0 80 80" fill="none" xmlns="http://www.w3.org/2000/svg">
<circle cx="40" cy="40" r="39" stroke="#EF7F1A" stroke-width="2"/>
<g clip-path="url(#clip0_443_502)">
<path d="M57.3631 28.9887H53.4029C52.1084 28.9887 51.0591 27.9394 51.0591 26.6449C51.0591 25.3504 52.1084 24.3011 53.4029 24.3011H57.3631C57.9741 24.3011 58.3517 23.6294 58.0293 23.1105C56.8687 21.2419 54.8154 20 52.4751 20C50.1286 20 48.0711 21.2491 46.9118 23.1259H33.0881C31.9289 21.2491 29.8713 20 27.5248 20C25.1845 20 23.1314 21.2419 21.9706 23.1105C21.6482 23.6294 22.0259 24.3011 22.6368 24.3011H26.5971C27.8915 24.3011 28.9408 25.3504 28.9408 26.6449C28.9408 27.9393 27.8915 28.9887 26.5971 28.9887H22.6368C22.0259 28.9887 21.6483 29.6603 21.9706 30.1793C23.1314 32.0478 25.1845 33.2898 27.5248 33.2898C29.8713 33.2898 31.9289 32.0406 33.0881 30.1639H46.9117C48.071 32.0407 50.1285 33.2898 52.4751 33.2898C54.8153 33.2898 56.8685 32.0479 58.0292 30.1793C58.3517 29.6603 57.9741 28.9887 57.3631 28.9887ZM24.2987 48.1901L24.2966 49.6039C24.2947 50.8846 24.795 52.092 25.7053 53.0037C26.6218 53.9215 27.8397 54.427 29.1347 54.427H51.2539C53.9177 54.427 56.088 52.2672 56.0919 49.6125L56.0941 48.1249C56.0972 46.0427 54.8211 44.2552 52.8433 43.571C48.7565 42.1575 41.4647 41.8602 40.1983 41.8602C35.08 41.8602 30.2758 42.5536 27.3472 43.7148C25.4698 44.4592 24.3018 46.174 24.2987 48.1901ZM50.2346 47.3955C50.8801 47.3955 51.4065 47.922 51.4065 48.5674C51.4065 49.2129 50.8801 49.7393 50.2346 49.7393C49.5891 49.7393 49.0627 49.2129 49.0627 48.5674C49.0627 47.922 49.5891 47.3955 50.2346 47.3955ZM34.8436 47.3955H45.547C46.1942 47.3955 46.7189 47.9202 46.7189 48.5674C46.7189 49.2146 46.1942 49.7393 45.547 49.7393H34.8436C34.1964 49.7393 33.6717 49.2146 33.6717 48.5674C33.6717 47.9202 34.1964 47.3955 34.8436 47.3955ZM30.1561 47.3994C30.8016 47.3994 31.328 47.9258 31.328 48.5713C31.328 49.2167 30.8016 49.7432 30.1561 49.7432C29.5106 49.7432 28.9842 49.2167 28.9842 48.5713C28.9842 47.9259 29.5106 47.3994 30.1561 47.3994ZM45.698 39.8536C48.2112 40.1067 50.3402 40.4557 52.054 40.8943L50.6358 38.1991C49.7794 36.5707 48.1843 35.5985 46.3688 35.5985H34.0013C32.1871 35.5985 30.5925 36.5697 29.7357 38.1963C29.5536 38.5421 28.9694 39.6527 28.3003 40.9252C29.5642 40.5638 31.0077 40.2645 32.6169 40.0323C34.9553 39.6948 37.577 39.5164 40.1984 39.5164C41.0305 39.5164 43.2594 39.608 45.698 39.8536ZM24.2966 54.898V57.0715C24.2966 58.6862 25.6103 59.9999 27.225 59.9999H30.7434C32.3581 59.9999 33.6718 58.6862 33.6718 57.0715V56.7707H29.1347C27.3284 56.7708 25.6238 56.1081 24.2966 54.898ZM46.7189 56.7708V57.0716C46.7189 58.6863 48.0326 60 49.6473 60H53.1657C54.7804 60 56.0941 58.6863 56.0941 57.0716V54.893C54.8161 56.0586 53.1163 56.7708 51.2539 56.7708H46.7189Z" fill="#EF7F1A"/>
</g>
<defs>
<clipPath id="clip0_443_502">
<rect width="40" height="40" fill="white" transform="translate(20 20)"/>
</clipPath>
</defs>
</svg>
