<svg width="80" height="80" viewBox="0 0 80 80" fill="none" xmlns="http://www.w3.org/2000/svg">
<circle cx="40" cy="40" r="39" stroke="#EF7F1A" stroke-width="2"/>
<g clip-path="url(#clip0_443_523)">
<path d="M59.3415 33.6174L54.1286 25.7983C54.1282 25.7977 54.1276 25.7973 54.1272 25.7966C53.8807 25.4291 53.4432 25.2174 53.0434 25.2174H49.1304V23.913C49.1304 21.7553 47.3751 20 45.2174 20H26.9565C24.7987 20 23.0435 21.7553 23.0435 23.913V52.1739H49.1304V40.8695H50.4738C51.1718 40.8695 51.7391 41.4372 51.7391 42.1348V47.4303C51.7391 49.5665 53.4774 51.3043 55.6131 51.3043C57.8294 51.3043 59.5652 49.6026 59.5652 47.4303V34.3478C59.5652 34.0852 59.451 33.7636 59.3415 33.6174ZM36.0869 48.6956C33.9292 48.6956 32.1739 46.9403 32.1739 44.7826C32.1739 43.6296 32.3576 43.5086 34.9108 38.1857C35.3841 37.2011 36.7894 37.2005 37.2631 38.1857C39.8253 43.5273 40 43.6331 40 44.7826C40 46.9403 38.2447 48.6956 36.0869 48.6956ZM43.913 34.3478C43.913 35.0684 43.3287 35.6522 42.6086 35.6522H29.5652C28.8451 35.6522 28.2608 35.0684 28.2608 34.3478V26.5217C28.2608 25.8012 28.8451 25.2173 29.5652 25.2173H42.6086C43.3287 25.2173 43.913 25.8012 43.913 26.5217V34.3478ZM54.3478 30.8297L55.8237 33.0435H54.3478V30.8297ZM56.9565 47.4303C56.9565 48.1398 56.3663 48.6956 55.6131 48.6956C54.9151 48.6956 54.3478 48.128 54.3478 47.4303V42.1348C54.3478 39.9987 52.6095 38.2609 50.4738 38.2609H49.1304V27.8261H51.7391V34.3478C51.7391 35.0684 52.3234 35.6522 53.0435 35.6522H56.9565V47.4303H56.9565ZM49.1304 54.7826H23.0435C21.6027 54.7826 20.4348 55.9505 20.4348 57.3913C20.4348 58.832 21.6027 60 23.0435 60H49.1304C50.5712 60 51.7391 58.8321 51.7391 57.3913C51.7391 55.9505 50.5712 54.7826 49.1304 54.7826Z" fill="#EF7F1A"/>
</g>
<defs>
<clipPath id="clip0_443_523">
<rect width="40" height="40" fill="white" transform="translate(20 20)"/>
</clipPath>
</defs>
</svg>
