<svg width="80" height="80" viewBox="0 0 80 80" fill="none" xmlns="http://www.w3.org/2000/svg">
<circle cx="40" cy="40" r="39" stroke="#EF7F1A" stroke-width="2"/>
<path d="M59.9995 39.8389C59.9995 39.0521 59.8218 38.3006 59.501 37.6131C59.4682 37.4363 59.4288 37.2607 59.3829 37.0868L55.9084 28.476L55.8849 28.3985C54.6692 24.7787 52.9394 21.4286 48.5532 21.4286H31.7833C27.289 21.4286 25.7009 24.8618 24.4585 28.3784L20.8241 37.0102C20.2987 37.852 20 38.815 20 39.8389V42.5183C20 42.9326 20.049 43.3378 20.1421 43.7281C20.0485 43.9698 20.0003 44.2268 20 44.486V52.4552C20 53.6238 20.9474 54.5714 22.116 54.5714H26.5069C27.6749 54.5714 28.6223 53.6238 28.6223 52.4552V48.47H51.628V52.4552C51.628 53.6238 52.5755 54.5714 53.7442 54.5714H57.8838C59.0528 54.5714 60 53.6238 60 52.4552V44.4851C59.9994 44.2261 59.9513 43.9695 59.8581 43.7279C59.9523 43.3315 60 42.9254 60 42.518V39.839H59.9995V39.8389ZM27.0372 29.2429C28.4207 25.3395 29.5333 24.148 31.7833 24.148H48.5523C50.7857 24.148 52.0294 25.477 53.2932 29.2261L55.8287 34.3643C55.0008 34.0577 54.0897 33.8876 53.1325 33.8876H26.867C26.0051 33.8876 25.1815 34.0262 24.4216 34.277L27.0372 29.2429ZM29.2152 43.5359H24.5823C23.7481 43.5359 23.0716 42.8588 23.0716 42.0247C23.0716 41.1904 23.7481 40.5137 24.5823 40.5137H29.2152C30.0497 40.5137 30.7263 41.1904 30.7263 42.0247C30.7263 42.8588 30.0493 43.5359 29.2152 43.5359ZM45.5813 43.2333H34.8049C34.2766 43.2333 33.8485 42.8049 33.8485 42.2768C33.8485 41.7477 34.2766 41.3195 34.8049 41.3195H45.5813C46.1103 41.3195 46.5383 41.7477 46.5383 42.2768C46.5383 42.8049 46.1103 43.2333 45.5813 43.2333ZM55.3004 43.5359H50.6676C49.8327 43.5359 49.1566 42.8588 49.1566 42.0247C49.1566 41.1904 49.8333 40.5137 50.6676 40.5137H55.3004C56.1352 40.5137 56.8119 41.1904 56.8119 42.0247C56.8119 42.8588 56.1352 43.5359 55.3004 43.5359Z" fill="#EF7F1A"/>
</svg>
