<svg width="1178" height="729" viewBox="0 0 1178 729" fill="none" xmlns="http://www.w3.org/2000/svg">
<path d="M288 396C219.5 435.5 178.048 603.201 165 658H819V101C810.5 155 705.023 104.434 662.42 149.105C607.188 207.018 618.449 320.508 569.652 348.997C520.855 377.487 371.803 347.676 288 396Z" fill="url(#paint0_linear_3104_1120)"/>
<path d="M640.24 101.44C638.16 101.44 636.227 101.08 634.44 100.36C632.653 99.6133 631.08 98.5867 629.72 97.28C628.387 95.9467 627.333 94.4133 626.56 92.68C625.813 90.92 625.44 89.0267 625.44 87C625.44 84.9733 625.813 83.0933 626.56 81.36C627.333 79.6 628.387 78.0667 629.72 76.76C631.08 75.4267 632.653 74.4 634.44 73.68C636.227 72.9333 638.16 72.56 640.24 72.56C642.32 72.56 644.253 72.9333 646.04 73.68C647.853 74.4 649.427 75.4267 650.76 76.76C652.12 78.0667 653.173 79.6 653.92 81.36C654.667 83.0933 655.04 84.9733 655.04 87C655.04 89.0267 654.667 90.92 653.92 92.68C653.173 94.4133 652.12 95.9467 650.76 97.28C649.427 98.5867 647.853 99.6133 646.04 100.36C644.253 101.08 642.32 101.44 640.24 101.44ZM640.24 96.12C641.52 96.12 642.693 95.8933 643.76 95.44C644.827 94.96 645.76 94.32 646.56 93.52C647.36 92.6933 647.987 91.72 648.44 90.6C648.893 89.48 649.12 88.28 649.12 87C649.12 85.6933 648.893 84.4933 648.44 83.4C647.987 82.28 647.36 81.32 646.56 80.52C645.76 79.6933 644.827 79.0533 643.76 78.6C642.693 78.12 641.52 77.88 640.24 77.88C638.987 77.88 637.827 78.12 636.76 78.6C635.693 79.0533 634.76 79.6933 633.96 80.52C633.16 81.32 632.533 82.28 632.08 83.4C631.627 84.4933 631.4 85.68 631.4 86.96C631.4 88.2667 631.627 89.48 632.08 90.6C632.533 91.72 633.16 92.6933 633.96 93.52C634.76 94.32 635.693 94.96 636.76 95.44C637.827 95.8933 638.987 96.12 640.24 96.12ZM671.019 101.4C668.486 101.4 666.286 100.893 664.419 99.88C662.579 98.8667 661.152 97.4267 660.139 95.56C659.126 93.6667 658.619 91.4533 658.619 88.92V73H664.419V88.92C664.419 90.36 664.686 91.6267 665.219 92.72C665.779 93.7867 666.552 94.6133 667.539 95.2C668.552 95.76 669.726 96.04 671.059 96.04C672.392 96.04 673.552 95.76 674.539 95.2C675.526 94.6133 676.286 93.7867 676.819 92.72C677.379 91.6267 677.659 90.36 677.659 88.92V73H683.419V88.92C683.419 91.4267 682.912 93.6267 681.899 95.52C680.886 97.3867 679.446 98.84 677.579 99.88C675.739 100.893 673.552 101.4 671.019 101.4ZM688.043 101V73H701.723C703.617 73 705.283 73.3733 706.723 74.12C708.19 74.84 709.323 75.8533 710.123 77.16C710.95 78.4667 711.363 79.9733 711.363 81.68C711.363 83.4667 710.87 85.04 709.883 86.4C708.897 87.76 707.577 88.7733 705.923 89.44L712.123 101H705.643L700.163 90.28H693.843V101H688.043ZM693.843 85.52H701.203C702.51 85.52 703.55 85.1733 704.323 84.48C705.123 83.7867 705.523 82.88 705.523 81.76C705.523 80.64 705.123 79.7333 704.323 79.04C703.55 78.3467 702.51 78 701.203 78H693.843V85.52Z" fill="#8C8FFF"/>
<path d="M741.24 624.44C739.16 624.44 737.227 624.08 735.44 623.36C733.653 622.613 732.08 621.587 730.72 620.28C729.387 618.947 728.333 617.413 727.56 615.68C726.813 613.92 726.44 612.027 726.44 610C726.44 607.973 726.813 606.093 727.56 604.36C728.333 602.6 729.387 601.067 730.72 599.76C732.08 598.427 733.653 597.4 735.44 596.68C737.227 595.933 739.16 595.56 741.24 595.56C743.32 595.56 745.253 595.933 747.04 596.68C748.853 597.4 750.427 598.427 751.76 599.76C753.12 601.067 754.173 602.6 754.92 604.36C755.667 606.093 756.04 607.973 756.04 610C756.04 612.027 755.667 613.92 754.92 615.68C754.173 617.413 753.12 618.947 751.76 620.28C750.427 621.587 748.853 622.613 747.04 623.36C745.253 624.08 743.32 624.44 741.24 624.44ZM741.24 619.12C742.52 619.12 743.693 618.893 744.76 618.44C745.827 617.96 746.76 617.32 747.56 616.52C748.36 615.693 748.987 614.72 749.44 613.6C749.893 612.48 750.12 611.28 750.12 610C750.12 608.693 749.893 607.493 749.44 606.4C748.987 605.28 748.36 604.32 747.56 603.52C746.76 602.693 745.827 602.053 744.76 601.6C743.693 601.12 742.52 600.88 741.24 600.88C739.987 600.88 738.827 601.12 737.76 601.6C736.693 602.053 735.76 602.693 734.96 603.52C734.16 604.32 733.533 605.28 733.08 606.4C732.627 607.493 732.4 608.68 732.4 609.96C732.4 611.267 732.627 612.48 733.08 613.6C733.533 614.72 734.16 615.693 734.96 616.52C735.76 617.32 736.693 617.96 737.76 618.44C738.827 618.893 739.987 619.12 741.24 619.12ZM765.98 624V601.12H756.54V596H781.18V601.12H771.78V624H765.98ZM784.434 624V596H790.234V607.28H803.114V596H808.914V624H803.114V612.52H790.234V624H784.434ZM814.004 624V596H835.524V601.04H819.804V607.44H830.164V612.32H819.804V618.96H835.684V624H814.004ZM839.786 624V596H853.466C855.359 596 857.026 596.373 858.466 597.12C859.932 597.84 861.066 598.853 861.866 600.16C862.692 601.467 863.106 602.973 863.106 604.68C863.106 606.467 862.612 608.04 861.626 609.4C860.639 610.76 859.319 611.773 857.666 612.44L863.866 624H857.386L851.906 613.28H845.586V624H839.786ZM845.586 608.52H852.946C854.252 608.52 855.292 608.173 856.066 607.48C856.866 606.787 857.266 605.88 857.266 604.76C857.266 603.64 856.866 602.733 856.066 602.04C855.292 601.347 854.252 601 852.946 601H845.586V608.52Z" fill="#60D2C3"/>
<path opacity="0.6" fill-rule="evenodd" clip-rule="evenodd" d="M582.701 650.677V728.602H584.649V650.677H662.573V728.602H664.522V650.677H742.446V728.602H744.395V650.677H822.322V728.602H824.27V650.677H902.194V728.602H904.142V650.677H976.225V648.729H904.142V570.804H976.225V568.856H904.142V490.931H976.225V488.983H904.142V411.056H976.225V409.108H904.142V331.182H976.225V329.234H904.142V251.31H976.225V249.361H904.142V171.436H976.225V169.488H904.142V91.5631H976.225V89.615H904.142V0H902.194V89.615H824.27V0H822.322V89.615H744.395V0H742.446V89.615H664.522V0H662.573V89.615H584.649V0H582.701V89.615H504.775V1.94812H502.827V89.615H424.903V1.94812H422.955V89.615H345.029V1.94812H343.081V89.615H271V91.5631H343.081V169.488H271V171.436H343.081V249.361H271V251.31H343.081V329.234H271V331.182H343.081V409.108H271V411.056H343.081V488.983H271V490.931H343.081V568.856H271V570.804H343.081V648.729H271V650.677H343.081V728.602H345.029V650.677H422.955V728.602H424.903V650.677H502.827V728.602H504.775V650.677H582.701ZM902.194 91.5631H824.27V169.488H902.194V91.5631ZM902.194 171.436H824.27V249.361H902.194V171.436ZM902.194 251.31H824.27V329.234H902.194V251.31ZM902.194 331.182H824.27V409.108H902.194V331.182ZM902.194 411.056H824.27V488.983H902.194V411.056ZM902.194 490.931H824.27V568.856H902.194V490.931ZM902.194 570.804H824.27V648.729H902.194V570.804ZM822.322 570.804V648.729H744.395V570.804H822.322ZM822.322 490.931V568.856H744.395V490.931H822.322ZM822.322 411.056V488.983H744.395V411.056H822.322ZM822.322 331.182V409.108H744.395V331.182H822.322ZM822.322 251.31V329.234H744.395V251.31H822.322ZM822.322 171.436V249.361H744.395V171.436H822.322ZM822.322 91.5631V169.488H744.395V91.5631H822.322ZM742.446 91.5631H664.522V169.488H742.446V91.5631ZM742.446 171.436H664.522V249.361H742.446V171.436ZM742.446 251.31H664.522V329.234H742.446V251.31ZM742.446 331.182H664.522V409.108H742.446V331.182ZM742.446 411.056H664.522V488.983H742.446V411.056ZM742.446 490.931H664.522V568.856H742.446V490.931ZM742.446 570.804H664.522V648.729H742.446V570.804ZM662.573 570.804V648.729H584.649V570.804H662.573ZM662.573 490.931V568.856H584.649V490.931H662.573ZM662.573 411.056V488.983H584.649V411.056H662.573ZM662.573 331.182V409.108H584.649V331.182H662.573ZM662.573 251.31V329.234H584.649V251.31H662.573ZM662.573 171.436V249.361H584.649V171.436H662.573ZM662.573 91.5631V169.488H584.649V91.5631H662.573ZM582.701 648.729V570.804H504.775V648.729H582.701ZM582.701 568.856V490.931H504.775V568.856H582.701ZM582.701 488.983V411.056H504.775V488.983H582.701ZM582.701 409.108V331.182H504.775V409.108H582.701ZM582.701 329.234V251.31H504.775V329.234H582.701ZM582.701 249.361V171.436H504.775V249.361H582.701ZM582.701 169.488V91.5631H504.775V169.488H582.701ZM424.903 91.5631H502.827V169.488H424.903V91.5631ZM424.903 171.436H502.827V249.361H424.903V171.436ZM424.903 251.31H502.827V329.234H424.903V251.31ZM424.903 331.182H502.827V409.108H424.903V331.182ZM424.903 411.056H502.827V488.983H424.903V411.056ZM424.903 490.931H502.827V568.856H424.903V490.931ZM424.903 570.804H502.827V648.729H424.903V570.804ZM422.955 648.729V570.804H345.029V648.729H422.955ZM422.955 568.856V490.931H345.029V568.856H422.955ZM422.955 488.983V411.056H345.029V488.983H422.955ZM422.955 409.108V331.182H345.029V409.108H422.955ZM422.955 329.234V251.31H345.029V329.234H422.955ZM422.955 249.361V171.436H345.029V249.361H422.955ZM422.955 169.488V91.5631H345.029V169.488H422.955Z" fill="url(#paint1_radial_3104_1120)"/>
<path d="M323.651 548.5L323.446 547.521L323.651 548.5ZM711 472.5L710.454 471.662L711 472.5ZM906.5 417L898.595 425.417L909.837 428.054L906.5 417ZM197.934 657.764C203.8 642.452 218.713 618.822 240.484 597.283C262.249 575.749 290.784 556.389 323.855 549.479L323.446 547.521C289.879 554.535 261.015 574.157 239.078 595.861C217.147 617.558 202.053 641.42 196.066 657.048L197.934 657.764ZM323.855 549.479C365.231 540.834 415.626 552.898 461.429 565.221C484.281 571.369 505.994 577.581 524.751 581.242C543.467 584.895 559.476 586.064 570.841 581.94L570.159 580.06C559.36 583.979 543.843 582.931 525.134 579.279C506.467 575.635 484.856 569.453 461.949 563.29C416.233 550.99 365.367 538.762 323.446 547.521L323.855 549.479ZM570.841 581.94C593.218 573.82 615.939 554.728 639.228 533.722C662.581 512.659 686.544 489.632 711.546 473.338L710.454 471.662C685.283 488.066 661.16 511.247 637.888 532.237C614.552 553.286 592.109 572.095 570.159 580.06L570.841 581.94ZM711.546 473.338C720.36 467.594 735.59 464.039 753.984 461.412C772.334 458.792 793.601 457.121 814.399 455.033C835.163 452.949 855.451 450.45 871.722 446.167C879.858 444.025 887.033 441.427 892.778 438.185C898.52 434.945 902.898 431.025 905.337 426.211L903.553 425.307C901.354 429.646 897.336 433.316 891.795 436.443C886.256 439.569 879.261 442.114 871.213 444.233C855.112 448.471 834.966 450.959 814.199 453.043C793.466 455.124 772.106 456.804 753.701 459.432C735.339 462.054 719.686 465.646 710.454 471.662L711.546 473.338Z" fill="#60D2C3"/>
<line x1="1178" y1="657.5" y2="657.5" stroke="white"/>
<rect x="643" y="187" width="253" height="119" rx="20" fill="url(#paint2_linear_3104_1120)"/>
<path d="M664.25 228V216.8H669.722C670.48 216.8 671.146 216.949 671.722 217.248C672.309 217.536 672.762 217.941 673.082 218.464C673.413 218.987 673.578 219.589 673.578 220.272C673.578 220.987 673.381 221.616 672.986 222.16C672.592 222.704 672.064 223.109 671.402 223.376L673.882 228H671.29L669.098 223.712H666.57V228H664.25ZM666.57 221.808H669.514C670.037 221.808 670.453 221.669 670.762 221.392C671.082 221.115 671.242 220.752 671.242 220.304C671.242 219.856 671.082 219.493 670.762 219.216C670.453 218.939 670.037 218.8 669.514 218.8H666.57V221.808ZM678.561 228.16C677.729 228.16 676.972 227.968 676.289 227.584C675.617 227.2 675.084 226.683 674.689 226.032C674.295 225.381 674.097 224.651 674.097 223.84C674.097 223.029 674.284 222.299 674.657 221.648C675.041 220.997 675.559 220.48 676.209 220.096C676.86 219.712 677.585 219.52 678.385 219.52C679.185 219.52 679.895 219.717 680.513 220.112C681.132 220.507 681.617 221.04 681.969 221.712C682.332 222.384 682.513 223.147 682.513 224V224.576H676.337C676.433 224.907 676.588 225.205 676.801 225.472C677.025 225.739 677.297 225.947 677.617 226.096C677.948 226.245 678.3 226.32 678.673 226.32C679.047 226.32 679.388 226.261 679.697 226.144C680.017 226.027 680.289 225.861 680.513 225.648L681.953 226.96C681.441 227.376 680.913 227.68 680.369 227.872C679.836 228.064 679.233 228.16 678.561 228.16ZM676.305 223.008H680.353C680.279 222.677 680.14 222.389 679.937 222.144C679.745 221.888 679.511 221.691 679.233 221.552C678.967 221.403 678.668 221.328 678.337 221.328C677.996 221.328 677.687 221.397 677.409 221.536C677.132 221.675 676.897 221.872 676.705 222.128C676.524 222.373 676.391 222.667 676.305 223.008ZM687.574 228.128C686.646 228.128 685.942 227.92 685.462 227.504C684.992 227.077 684.758 226.459 684.758 225.648V221.488H683.046V219.664H684.758V217.536L686.95 217.04V219.664H689.334V221.488H686.95V225.2C686.95 225.584 687.035 225.861 687.206 226.032C687.376 226.192 687.675 226.272 688.102 226.272C688.315 226.272 688.507 226.261 688.678 226.24C688.859 226.208 689.056 226.155 689.27 226.08V227.888C689.046 227.963 688.763 228.021 688.422 228.064C688.091 228.107 687.808 228.128 687.574 228.128ZM694.389 228.16C693.557 228.16 692.8 227.968 692.117 227.584C691.445 227.2 690.912 226.683 690.517 226.032C690.123 225.381 689.925 224.651 689.925 223.84C689.925 223.029 690.112 222.299 690.485 221.648C690.869 220.997 691.387 220.48 692.037 220.096C692.688 219.712 693.413 219.52 694.213 219.52C695.013 219.52 695.723 219.717 696.341 220.112C696.96 220.507 697.445 221.04 697.797 221.712C698.16 222.384 698.341 223.147 698.341 224V224.576H692.165C692.261 224.907 692.416 225.205 692.629 225.472C692.853 225.739 693.125 225.947 693.445 226.096C693.776 226.245 694.128 226.32 694.501 226.32C694.875 226.32 695.216 226.261 695.525 226.144C695.845 226.027 696.117 225.861 696.341 225.648L697.781 226.96C697.269 227.376 696.741 227.68 696.197 227.872C695.664 228.064 695.061 228.16 694.389 228.16ZM692.133 223.008H696.181C696.107 222.677 695.968 222.389 695.765 222.144C695.573 221.888 695.339 221.691 695.061 221.552C694.795 221.403 694.496 221.328 694.165 221.328C693.824 221.328 693.515 221.397 693.237 221.536C692.96 221.675 692.725 221.872 692.533 222.128C692.352 222.373 692.219 222.667 692.133 223.008ZM699.684 228V219.664H701.876V220.352C702.506 219.787 703.284 219.504 704.212 219.504C704.863 219.504 705.434 219.648 705.924 219.936C706.426 220.213 706.815 220.603 707.092 221.104C707.37 221.595 707.508 222.171 707.508 222.832V228H705.316V223.152C705.316 222.608 705.162 222.181 704.852 221.872C704.543 221.552 704.122 221.392 703.588 221.392C703.215 221.392 702.884 221.467 702.596 221.616C702.308 221.755 702.068 221.957 701.876 222.224V228H699.684ZM712.886 228.128C711.958 228.128 711.254 227.92 710.774 227.504C710.305 227.077 710.07 226.459 710.07 225.648V221.488H708.358V219.664H710.07V217.536L712.262 217.04V219.664H714.646V221.488H712.262V225.2C712.262 225.584 712.348 225.861 712.518 226.032C712.689 226.192 712.988 226.272 713.414 226.272C713.628 226.272 713.82 226.261 713.99 226.24C714.172 226.208 714.369 226.155 714.582 226.08V227.888C714.358 227.963 714.076 228.021 713.734 228.064C713.404 228.107 713.121 228.128 712.886 228.128ZM715.716 228V219.664H717.908V228H715.716ZM716.804 218.672C716.462 218.672 716.169 218.549 715.924 218.304C715.678 218.059 715.556 217.765 715.556 217.424C715.556 217.072 715.678 216.779 715.924 216.544C716.169 216.299 716.462 216.176 716.804 216.176C717.156 216.176 717.449 216.299 717.684 216.544C717.929 216.779 718.052 217.072 718.052 217.424C718.052 217.765 717.929 218.059 717.684 218.304C717.449 218.549 717.156 218.672 716.804 218.672ZM723.686 228.16C722.854 228.16 722.102 227.968 721.43 227.584C720.758 227.2 720.224 226.683 719.83 226.032C719.435 225.381 719.238 224.651 719.238 223.84C719.238 223.029 719.43 222.299 719.814 221.648C720.208 220.987 720.742 220.464 721.414 220.08C722.096 219.696 722.854 219.504 723.686 219.504C724.518 219.504 725.27 219.696 725.942 220.08C726.624 220.464 727.158 220.987 727.542 221.648C727.936 222.299 728.134 223.029 728.134 223.84C728.134 224.651 727.936 225.381 727.542 226.032C727.158 226.683 726.63 227.2 725.958 227.584C725.286 227.968 724.528 228.16 723.686 228.16ZM723.686 226.256C724.123 226.256 724.512 226.149 724.854 225.936C725.206 225.723 725.483 225.435 725.686 225.072C725.899 224.699 726.006 224.288 726.006 223.84C726.006 223.381 725.899 222.971 725.686 222.608C725.483 222.245 725.206 221.957 724.854 221.744C724.512 221.52 724.123 221.408 723.686 221.408C723.259 221.408 722.87 221.52 722.518 221.744C722.166 221.957 721.888 222.245 721.686 222.608C721.483 222.971 721.382 223.381 721.382 223.84C721.382 224.288 721.483 224.699 721.686 225.072C721.888 225.435 722.166 225.723 722.518 225.936C722.87 226.149 723.259 226.256 723.686 226.256ZM729.481 228V219.664H731.673V220.352C732.303 219.787 733.081 219.504 734.009 219.504C734.66 219.504 735.231 219.648 735.721 219.936C736.223 220.213 736.612 220.603 736.889 221.104C737.167 221.595 737.305 222.171 737.305 222.832V228H735.113V223.152C735.113 222.608 734.959 222.181 734.649 221.872C734.34 221.552 733.919 221.392 733.385 221.392C733.012 221.392 732.681 221.467 732.393 221.616C732.105 221.755 731.865 221.957 731.673 222.224V228H729.481ZM747.112 228.16C746.099 228.16 745.219 227.957 744.472 227.552C743.736 227.147 743.166 226.571 742.76 225.824C742.355 225.067 742.152 224.181 742.152 223.168V216.8H744.472V223.168C744.472 223.744 744.579 224.251 744.792 224.688C745.016 225.115 745.326 225.445 745.72 225.68C746.126 225.904 746.595 226.016 747.128 226.016C747.662 226.016 748.126 225.904 748.52 225.68C748.915 225.445 749.219 225.115 749.432 224.688C749.656 224.251 749.768 223.744 749.768 223.168V216.8H752.072V223.168C752.072 224.171 751.87 225.051 751.464 225.808C751.059 226.555 750.483 227.136 749.736 227.552C749 227.957 748.126 228.16 747.112 228.16ZM753.778 231.264V219.664H755.938V220.352C756.621 219.819 757.41 219.552 758.306 219.552C759.095 219.552 759.81 219.744 760.45 220.128C761.09 220.512 761.597 221.029 761.97 221.68C762.354 222.32 762.546 223.04 762.546 223.84C762.546 224.64 762.354 225.365 761.97 226.016C761.586 226.656 761.069 227.168 760.418 227.552C759.767 227.925 759.042 228.112 758.242 228.112C757.826 228.112 757.426 228.059 757.042 227.952C756.658 227.835 756.301 227.669 755.97 227.456V231.264H753.778ZM757.954 226.256C758.413 226.256 758.823 226.149 759.186 225.936C759.559 225.723 759.853 225.435 760.066 225.072C760.279 224.709 760.386 224.299 760.386 223.84C760.386 223.381 760.279 222.971 760.066 222.608C759.853 222.235 759.559 221.947 759.186 221.744C758.823 221.531 758.413 221.424 757.954 221.424C757.549 221.424 757.175 221.493 756.834 221.632C756.503 221.76 756.215 221.957 755.97 222.224V225.472C756.205 225.717 756.493 225.909 756.834 226.048C757.186 226.187 757.559 226.256 757.954 226.256ZM763.872 228V216.8L766.064 216.432V228H763.872ZM767.778 228V219.664H769.97V228H767.778ZM768.866 218.672C768.525 218.672 768.231 218.549 767.986 218.304C767.741 218.059 767.618 217.765 767.618 217.424C767.618 217.072 767.741 216.779 767.986 216.544C768.231 216.299 768.525 216.176 768.866 216.176C769.218 216.176 769.511 216.299 769.746 216.544C769.991 216.779 770.114 217.072 770.114 217.424C770.114 217.765 769.991 218.059 769.746 218.304C769.511 218.549 769.218 218.672 768.866 218.672ZM772.964 228V221.488H771.108V219.664H772.964V218.864C772.964 217.925 773.236 217.211 773.78 216.72C774.324 216.219 775.108 215.968 776.132 215.968C776.356 215.968 776.586 215.979 776.82 216C777.055 216.021 777.258 216.059 777.428 216.112V217.952C777.226 217.909 777.05 217.877 776.9 217.856C776.751 217.835 776.586 217.824 776.404 217.824C775.988 217.824 775.674 217.915 775.46 218.096C775.258 218.267 775.156 218.539 775.156 218.912V219.664H777.428V221.488H775.156V228H772.964ZM782.574 228.128C781.646 228.128 780.942 227.92 780.462 227.504C779.992 227.077 779.758 226.459 779.758 225.648V221.488H778.046V219.664H779.758V217.536L781.95 217.04V219.664H784.334V221.488H781.95V225.2C781.95 225.584 782.035 225.861 782.206 226.032C782.376 226.192 782.675 226.272 783.102 226.272C783.315 226.272 783.507 226.261 783.678 226.24C783.859 226.208 784.056 226.155 784.27 226.08V227.888C784.046 227.963 783.763 228.021 783.422 228.064C783.091 228.107 782.808 228.128 782.574 228.128ZM791.71 225.936V223.12H789.086V221.472H791.71V218.656H793.406V221.472H796.03V223.12H793.406V225.936H791.71ZM804.104 228V225.376H797.784V223.616L803.768 216.8H806.296V223.536H807.672V225.376H806.296V228H804.104ZM800.312 223.536H804.104V219.232L800.312 223.536ZM813.589 228.176C812.619 228.176 811.76 227.936 811.013 227.456C810.277 226.965 809.701 226.288 809.285 225.424C808.88 224.549 808.677 223.541 808.677 222.4C808.677 221.248 808.88 220.24 809.285 219.376C809.701 218.512 810.277 217.84 811.013 217.36C811.76 216.869 812.619 216.624 813.589 216.624C814.571 216.624 815.429 216.869 816.165 217.36C816.912 217.84 817.488 218.512 817.893 219.376C818.309 220.24 818.517 221.248 818.517 222.4C818.517 223.541 818.309 224.549 817.893 225.424C817.488 226.288 816.912 226.965 816.165 227.456C815.429 227.936 814.571 228.176 813.589 228.176ZM813.589 226.272C814.165 226.272 814.661 226.117 815.077 225.808C815.493 225.499 815.813 225.051 816.037 224.464C816.272 223.877 816.389 223.189 816.389 222.4C816.389 221.6 816.272 220.912 816.037 220.336C815.813 219.749 815.493 219.301 815.077 218.992C814.661 218.683 814.165 218.528 813.589 218.528C813.024 218.528 812.533 218.683 812.117 218.992C811.701 219.301 811.376 219.749 811.141 220.336C810.917 220.912 810.805 221.6 810.805 222.4C810.805 223.189 810.917 223.877 811.141 224.464C811.376 225.051 811.701 225.499 812.117 225.808C812.533 226.117 813.024 226.272 813.589 226.272ZM821.982 222.48C821.204 222.48 820.58 222.219 820.11 221.696C819.652 221.163 819.422 220.459 819.422 219.584C819.422 218.731 819.657 218.037 820.126 217.504C820.596 216.971 821.214 216.704 821.982 216.704C822.74 216.704 823.353 216.971 823.822 217.504C824.292 218.037 824.526 218.731 824.526 219.584C824.526 220.459 824.292 221.163 823.822 221.696C823.364 222.219 822.75 222.48 821.982 222.48ZM821.982 221.312C822.366 221.312 822.665 221.163 822.878 220.864C823.102 220.555 823.214 220.128 823.214 219.584C823.214 219.061 823.102 218.645 822.878 218.336C822.654 218.027 822.356 217.872 821.982 217.872C821.598 217.872 821.294 218.027 821.07 218.336C820.857 218.645 820.745 219.061 820.734 219.584C820.745 220.128 820.857 220.555 821.07 220.864C821.284 221.163 821.588 221.312 821.982 221.312ZM821.358 228L827.694 216.8H829.326L822.99 228H821.358ZM828.862 228.08C828.084 228.08 827.46 227.819 826.99 227.296C826.532 226.763 826.302 226.059 826.302 225.184C826.302 224.331 826.537 223.637 827.006 223.104C827.476 222.571 828.094 222.304 828.862 222.304C829.62 222.304 830.233 222.571 830.702 223.104C831.172 223.637 831.406 224.331 831.406 225.184C831.406 226.059 831.172 226.763 830.702 227.296C830.244 227.819 829.63 228.08 828.862 228.08ZM828.862 226.912C829.246 226.912 829.545 226.763 829.758 226.464C829.982 226.155 830.094 225.728 830.094 225.184C830.094 224.661 829.982 224.245 829.758 223.936C829.534 223.627 829.236 223.472 828.862 223.472C828.478 223.472 828.174 223.627 827.95 223.936C827.737 224.245 827.625 224.661 827.614 225.184C827.625 225.728 827.737 226.155 827.95 226.464C828.164 226.763 828.468 226.912 828.862 226.912Z" fill="white"/>
<path d="M664.099 259V250.453H664.892V258.267H669.532V259H664.099ZM671.094 258.219C670.5 257.616 670.203 256.859 670.203 255.948C670.203 255.036 670.5 254.279 671.094 253.677C671.688 253.074 672.429 252.773 673.316 252.773C674.203 252.773 674.944 253.074 675.538 253.677C676.132 254.279 676.429 255.036 676.429 255.948C676.429 256.859 676.132 257.616 675.538 258.219C674.944 258.821 674.203 259.122 673.316 259.122C672.429 259.122 671.688 258.821 671.094 258.219ZM671.619 254.153C671.163 254.625 670.935 255.223 670.935 255.948C670.935 256.672 671.163 257.27 671.619 257.742C672.075 258.215 672.64 258.451 673.316 258.451C673.992 258.451 674.557 258.215 675.013 257.742C675.469 257.27 675.697 256.672 675.697 255.948C675.697 255.223 675.469 254.625 675.013 254.153C674.557 253.681 673.992 253.445 673.316 253.445C672.64 253.445 672.075 253.681 671.619 254.153ZM677.951 259V252.895H678.683V254.055H678.696C678.801 253.827 678.944 253.624 679.123 253.445C679.53 253.038 680.055 252.834 680.698 252.834H681.369V253.506H680.698C680.112 253.506 679.628 253.705 679.245 254.104C678.871 254.495 678.683 255.008 678.683 255.642V259H677.951ZM682.921 258.219C682.335 257.616 682.042 256.859 682.042 255.948C682.042 255.036 682.335 254.279 682.921 253.677C683.507 253.074 684.232 252.773 685.095 252.773C685.949 252.773 686.67 253.074 687.256 253.677C687.85 254.271 688.147 255.008 688.147 255.887V256.192H682.775C682.807 256.835 683.043 257.372 683.483 257.803C683.923 258.235 684.46 258.451 685.095 258.451C685.795 258.451 686.369 258.227 686.816 257.779C687.028 257.584 687.187 257.36 687.292 257.108H688.025C687.878 257.49 687.671 257.828 687.402 258.121C686.8 258.788 686.031 259.122 685.095 259.122C684.232 259.122 683.507 258.821 682.921 258.219ZM682.775 255.52H687.353C687.288 254.926 687.044 254.434 686.621 254.043C686.206 253.644 685.697 253.445 685.095 253.445C684.492 253.445 683.98 253.64 683.556 254.031C683.133 254.421 682.873 254.918 682.775 255.52ZM689.671 259V252.895H690.404V253.933H690.416C690.546 253.713 690.705 253.522 690.892 253.359C691.332 252.969 691.861 252.773 692.479 252.773C693.082 252.773 693.59 252.997 694.006 253.445C694.177 253.64 694.319 253.864 694.433 254.116H694.494C694.592 253.896 694.754 253.673 694.982 253.445C695.463 252.997 696.053 252.773 696.753 252.773C697.379 252.773 697.9 253.009 698.315 253.481C698.739 253.953 698.95 254.592 698.95 255.398V259H698.218V255.398C698.218 254.771 698.071 254.291 697.778 253.958C697.493 253.616 697.111 253.445 696.631 253.445C696.11 253.445 695.654 253.644 695.263 254.043C694.872 254.434 694.677 254.906 694.677 255.459V259H693.945V255.398C693.945 254.771 693.798 254.291 693.505 253.958C693.22 253.616 692.838 253.445 692.357 253.445C691.836 253.445 691.381 253.644 690.99 254.043C690.599 254.434 690.404 254.906 690.404 255.459V259H689.671ZM704.181 251.455C704.075 251.349 704.023 251.219 704.023 251.064C704.023 250.909 704.075 250.779 704.181 250.673C704.287 250.567 704.417 250.514 704.572 250.514C704.727 250.514 704.857 250.567 704.963 250.673C705.068 250.779 705.121 250.909 705.121 251.064C705.121 251.219 705.068 251.349 704.963 251.455C704.857 251.56 704.727 251.613 704.572 251.613C704.417 251.613 704.287 251.56 704.181 251.455ZM704.206 259V252.895H704.938V259H704.206ZM706.888 261.32V252.895H707.621V254.116H707.633C707.763 253.791 708.036 253.485 708.451 253.201C708.866 252.916 709.363 252.773 709.941 252.773C710.755 252.773 711.447 253.078 712.016 253.689C712.586 254.291 712.871 255.044 712.871 255.948C712.871 256.851 712.586 257.608 712.016 258.219C711.447 258.821 710.755 259.122 709.941 259.122C709.363 259.122 708.866 258.98 708.451 258.695C708.036 258.41 707.763 258.105 707.633 257.779H707.621V261.32H706.888ZM708.292 254.165C707.845 254.637 707.621 255.231 707.621 255.948C707.621 256.664 707.845 257.262 708.292 257.742C708.748 258.215 709.277 258.451 709.88 258.451C710.498 258.451 711.027 258.215 711.467 257.742C711.915 257.262 712.138 256.664 712.138 255.948C712.138 255.231 711.915 254.637 711.467 254.165C711.027 253.685 710.498 253.445 709.88 253.445C709.277 253.445 708.748 253.685 708.292 254.165ZM713.912 257.169H714.705C714.811 257.429 714.949 257.645 715.12 257.816C715.511 258.239 716.044 258.451 716.72 258.451C717.273 258.451 717.684 258.353 717.953 258.158C718.23 257.954 718.368 257.685 718.368 257.352C718.368 257.173 718.315 257.018 718.209 256.888C718.104 256.749 717.933 256.635 717.697 256.546C717.469 256.456 717.261 256.387 717.074 256.338C716.895 256.29 716.634 256.228 716.292 256.155C715.894 256.082 715.552 255.988 715.267 255.874C714.99 255.76 714.746 255.581 714.534 255.337C714.323 255.085 714.217 254.78 714.217 254.421C714.217 253.974 714.416 253.587 714.815 253.262C715.222 252.936 715.776 252.773 716.476 252.773C717.355 252.773 718.051 253.07 718.563 253.665C718.783 253.917 718.942 254.21 719.04 254.544H718.246C718.156 254.324 718.038 254.141 717.892 253.994C717.526 253.628 717.054 253.445 716.476 253.445C715.987 253.445 715.609 253.542 715.34 253.738C715.08 253.925 714.949 254.153 714.949 254.421C714.949 254.568 714.99 254.702 715.072 254.824C715.153 254.938 715.251 255.036 715.365 255.117C715.478 255.191 715.637 255.26 715.841 255.325C716.052 255.39 716.235 255.443 716.39 255.484C716.553 255.516 716.765 255.557 717.025 255.606C717.318 255.671 717.574 255.744 717.794 255.826C718.022 255.899 718.238 256.005 718.441 256.143C718.653 256.273 718.816 256.44 718.93 256.644C719.044 256.847 719.101 257.083 719.101 257.352C719.101 257.865 718.893 258.288 718.478 258.622C718.071 258.955 717.485 259.122 716.72 259.122C715.743 259.122 714.986 258.797 714.449 258.145C714.197 257.86 714.017 257.535 713.912 257.169ZM720.624 256.497V252.895H721.356V256.497C721.356 257.124 721.507 257.608 721.808 257.95C722.118 258.284 722.537 258.451 723.066 258.451C723.652 258.451 724.144 258.243 724.543 257.828C724.942 257.413 725.141 256.888 725.141 256.253V252.895H725.874V259H725.141V257.962H725.129C724.966 258.272 724.706 258.544 724.348 258.78C723.99 259.008 723.522 259.122 722.944 259.122C722.26 259.122 721.702 258.886 721.271 258.414C720.84 257.942 720.624 257.303 720.624 256.497ZM727.826 259V252.895H728.558V253.933H728.57C728.701 253.713 728.859 253.522 729.046 253.359C729.486 252.969 730.015 252.773 730.634 252.773C731.236 252.773 731.745 252.997 732.16 253.445C732.331 253.64 732.473 253.864 732.587 254.116H732.648C732.746 253.896 732.909 253.673 733.137 253.445C733.617 252.997 734.207 252.773 734.907 252.773C735.534 252.773 736.055 253.009 736.47 253.481C736.893 253.953 737.105 254.592 737.105 255.398V259H736.372V255.398C736.372 254.771 736.226 254.291 735.933 253.958C735.648 253.616 735.265 253.445 734.785 253.445C734.264 253.445 733.808 253.644 733.417 254.043C733.027 254.434 732.831 254.906 732.831 255.459V259H732.099V255.398C732.099 254.771 731.952 254.291 731.659 253.958C731.374 253.616 730.992 253.445 730.512 253.445C729.991 253.445 729.535 253.644 729.144 254.043C728.753 254.434 728.558 254.906 728.558 255.459V259H727.826ZM742.787 258.219C742.217 257.608 741.933 256.851 741.933 255.948C741.933 255.044 742.217 254.291 742.787 253.689C743.357 253.078 744.049 252.773 744.863 252.773C745.441 252.773 745.929 252.916 746.328 253.201C746.727 253.477 747.008 253.783 747.17 254.116H747.183V250.453H747.915V259H747.183V257.779H747.17C747.008 258.113 746.727 258.422 746.328 258.707C745.929 258.984 745.441 259.122 744.863 259.122C744.049 259.122 743.357 258.821 742.787 258.219ZM743.324 254.165C742.885 254.637 742.665 255.231 742.665 255.948C742.665 256.664 742.885 257.262 743.324 257.742C743.772 258.215 744.305 258.451 744.924 258.451C745.526 258.451 746.051 258.215 746.499 257.742C746.955 257.262 747.183 256.664 747.183 255.948C747.183 255.231 746.955 254.637 746.499 254.165C746.051 253.685 745.526 253.445 744.924 253.445C744.305 253.445 743.772 253.685 743.324 254.165ZM750.336 258.219C749.741 257.616 749.444 256.859 749.444 255.948C749.444 255.036 749.741 254.279 750.336 253.677C750.93 253.074 751.67 252.773 752.558 252.773C753.445 252.773 754.186 253.074 754.78 253.677C755.374 254.279 755.671 255.036 755.671 255.948C755.671 256.859 755.374 257.616 754.78 258.219C754.186 258.821 753.445 259.122 752.558 259.122C751.67 259.122 750.93 258.821 750.336 258.219ZM750.861 254.153C750.405 254.625 750.177 255.223 750.177 255.948C750.177 256.672 750.405 257.27 750.861 257.742C751.316 258.215 751.882 258.451 752.558 258.451C753.233 258.451 753.799 258.215 754.255 257.742C754.711 257.27 754.938 256.672 754.938 255.948C754.938 255.223 754.711 254.625 754.255 254.153C753.799 253.681 753.233 253.445 752.558 253.445C751.882 253.445 751.316 253.681 750.861 254.153ZM757.192 259V250.453H757.925V258.328H759.329V259H757.192ZM760.947 258.219C760.353 257.616 760.056 256.859 760.056 255.948C760.056 255.036 760.353 254.279 760.947 253.677C761.541 253.074 762.282 252.773 763.169 252.773C764.056 252.773 764.797 253.074 765.391 253.677C765.986 254.279 766.283 255.036 766.283 255.948C766.283 256.859 765.986 257.616 765.391 258.219C764.797 258.821 764.056 259.122 763.169 259.122C762.282 259.122 761.541 258.821 760.947 258.219ZM761.472 254.153C761.016 254.625 760.788 255.223 760.788 255.948C760.788 256.672 761.016 257.27 761.472 257.742C761.928 258.215 762.494 258.451 763.169 258.451C763.845 258.451 764.411 258.215 764.866 257.742C765.322 257.27 765.55 256.672 765.55 255.948C765.55 255.223 765.322 254.625 764.866 254.153C764.411 253.681 763.845 253.445 763.169 253.445C762.494 253.445 761.928 253.681 761.472 254.153ZM767.804 259V252.895H768.537V254.055H768.549C768.655 253.827 768.797 253.624 768.976 253.445C769.383 253.038 769.908 252.834 770.551 252.834H771.223V253.506H770.551C769.965 253.506 769.481 253.705 769.098 254.104C768.724 254.495 768.537 255.008 768.537 255.642V259H767.804ZM775.257 257.169H776.05C776.156 257.429 776.294 257.645 776.465 257.816C776.856 258.239 777.389 258.451 778.065 258.451C778.618 258.451 779.029 258.353 779.298 258.158C779.575 257.954 779.713 257.685 779.713 257.352C779.713 257.173 779.66 257.018 779.554 256.888C779.448 256.749 779.277 256.635 779.041 256.546C778.814 256.456 778.606 256.387 778.419 256.338C778.24 256.29 777.979 256.228 777.637 256.155C777.239 256.082 776.897 255.988 776.612 255.874C776.335 255.76 776.091 255.581 775.879 255.337C775.668 255.085 775.562 254.78 775.562 254.421C775.562 253.974 775.761 253.587 776.16 253.262C776.567 252.936 777.121 252.773 777.821 252.773C778.7 252.773 779.396 253.07 779.908 253.665C780.128 253.917 780.287 254.21 780.384 254.544H779.591C779.501 254.324 779.383 254.141 779.237 253.994C778.871 253.628 778.398 253.445 777.821 253.445C777.332 253.445 776.954 253.542 776.685 253.738C776.425 253.925 776.294 254.153 776.294 254.421C776.294 254.568 776.335 254.702 776.416 254.824C776.498 254.938 776.596 255.036 776.709 255.117C776.823 255.191 776.982 255.26 777.186 255.325C777.397 255.39 777.58 255.443 777.735 255.484C777.898 255.516 778.109 255.557 778.37 255.606C778.663 255.671 778.919 255.744 779.139 255.826C779.367 255.899 779.583 256.005 779.786 256.143C779.998 256.273 780.161 256.44 780.275 256.644C780.389 256.847 780.446 257.083 780.446 257.352C780.446 257.865 780.238 258.288 779.823 258.622C779.416 258.955 778.83 259.122 778.065 259.122C777.088 259.122 776.331 258.797 775.794 258.145C775.541 257.86 775.362 257.535 775.257 257.169ZM781.944 251.455C781.839 251.349 781.786 251.219 781.786 251.064C781.786 250.909 781.839 250.779 781.944 250.673C782.05 250.567 782.18 250.514 782.335 250.514C782.49 250.514 782.62 250.567 782.726 250.673C782.832 250.779 782.885 250.909 782.885 251.064C782.885 251.219 782.832 251.349 782.726 251.455C782.62 251.56 782.49 251.613 782.335 251.613C782.18 251.613 782.05 251.56 781.944 251.455ZM781.969 259V252.895H782.701V259H781.969ZM783.98 253.567V252.895H784.835V251.552H785.567V252.895H787.582V253.567H785.567V258.328H787.643V259H784.835V253.567H783.98ZM792.841 258.219C792.271 257.608 791.986 256.851 791.986 255.948C791.986 255.044 792.271 254.291 792.841 253.689C793.411 253.078 794.103 252.773 794.916 252.773C795.494 252.773 795.983 252.916 796.382 253.201C796.78 253.477 797.061 253.783 797.224 254.116H797.236V252.895H797.969V259H797.236V257.779H797.224C797.061 258.113 796.78 258.422 796.382 258.707C795.983 258.984 795.494 259.122 794.916 259.122C794.103 259.122 793.411 258.821 792.841 258.219ZM793.378 254.165C792.939 254.637 792.719 255.231 792.719 255.948C792.719 256.664 792.939 257.262 793.378 257.742C793.826 258.215 794.359 258.451 794.978 258.451C795.58 258.451 796.105 258.215 796.553 257.742C797.008 257.262 797.236 256.664 797.236 255.948C797.236 255.231 797.008 254.637 796.553 254.165C796.105 253.685 795.58 253.445 794.978 253.445C794.359 253.445 793.826 253.685 793.378 254.165ZM799.925 259V252.895H800.658V253.933H800.67C800.8 253.713 800.959 253.522 801.146 253.359C801.586 252.969 802.115 252.773 802.733 252.773C803.336 252.773 803.844 252.997 804.26 253.445C804.43 253.64 804.573 253.864 804.687 254.116H804.748C804.846 253.896 805.008 253.673 805.236 253.445C805.716 252.997 806.307 252.773 807.007 252.773C807.633 252.773 808.154 253.009 808.569 253.481C808.993 253.953 809.204 254.592 809.204 255.398V259H808.472V255.398C808.472 254.771 808.325 254.291 808.032 253.958C807.747 253.616 807.365 253.445 806.885 253.445C806.364 253.445 805.908 253.644 805.517 254.043C805.126 254.434 804.931 254.906 804.931 255.459V259H804.198V255.398C804.198 254.771 804.052 254.291 803.759 253.958C803.474 253.616 803.091 253.445 802.611 253.445C802.09 253.445 801.635 253.644 801.244 254.043C800.853 254.434 800.658 254.906 800.658 255.459V259H799.925ZM811.489 258.219C810.903 257.616 810.61 256.859 810.61 255.948C810.61 255.036 810.903 254.279 811.489 253.677C812.075 253.074 812.8 252.773 813.663 252.773C814.517 252.773 815.238 253.074 815.824 253.677C816.418 254.271 816.715 255.008 816.715 255.887V256.192H811.343C811.375 256.835 811.611 257.372 812.051 257.803C812.491 258.235 813.028 258.451 813.663 258.451C814.363 258.451 814.936 258.227 815.384 257.779C815.596 257.584 815.755 257.36 815.86 257.108H816.593C816.446 257.49 816.239 257.828 815.97 258.121C815.368 258.788 814.599 259.122 813.663 259.122C812.8 259.122 812.075 258.821 811.489 258.219ZM811.343 255.52H815.921C815.856 254.926 815.612 254.434 815.189 254.043C814.774 253.644 814.265 253.445 813.663 253.445C813.06 253.445 812.548 253.64 812.124 254.031C811.701 254.421 811.441 254.918 811.343 255.52ZM817.568 253.567V252.895H818.422V251.552H819.155V252.895H821.169V253.567H819.155V258.328H821.231V259H818.422V253.567H817.568ZM822.152 258.634C822.152 258.447 822.205 258.3 822.311 258.194C822.425 258.08 822.575 258.023 822.762 258.023C822.966 258.023 823.129 258.105 823.251 258.267C823.373 258.43 823.434 258.674 823.434 259C823.434 259.83 823.027 260.319 822.213 260.465V260.099C822.701 259.977 822.946 259.712 822.946 259.305C822.946 259.289 822.933 259.232 822.909 259.134C822.893 259.085 822.885 259.061 822.885 259.061L822.811 259.098C822.73 259.114 822.673 259.122 822.64 259.122C822.518 259.122 822.404 259.073 822.298 258.976C822.201 258.87 822.152 258.756 822.152 258.634ZM664.416 274.219C663.838 273.608 663.549 272.851 663.549 271.948C663.549 271.044 663.838 270.291 664.416 269.689C665.002 269.078 665.71 268.773 666.541 268.773C667.509 268.773 668.279 269.131 668.848 269.848C669.101 270.157 669.288 270.511 669.41 270.91H668.677C668.563 270.625 668.413 270.381 668.226 270.177C667.802 269.689 667.241 269.445 666.541 269.445C665.922 269.445 665.389 269.685 664.941 270.165C664.502 270.637 664.282 271.231 664.282 271.948C664.282 272.664 664.502 273.262 664.941 273.742C665.389 274.215 665.922 274.451 666.541 274.451C667.249 274.451 667.827 274.186 668.274 273.657C668.486 273.413 668.641 273.148 668.738 272.863H669.471C669.349 273.278 669.158 273.657 668.897 273.999C668.279 274.748 667.493 275.122 666.541 275.122C665.71 275.122 665.002 274.821 664.416 274.219ZM671.404 274.219C670.81 273.616 670.513 272.859 670.513 271.948C670.513 271.036 670.81 270.279 671.404 269.677C671.998 269.074 672.739 268.773 673.626 268.773C674.513 268.773 675.254 269.074 675.848 269.677C676.442 270.279 676.739 271.036 676.739 271.948C676.739 272.859 676.442 273.616 675.848 274.219C675.254 274.821 674.513 275.122 673.626 275.122C672.739 275.122 671.998 274.821 671.404 274.219ZM671.929 270.153C671.473 270.625 671.245 271.223 671.245 271.948C671.245 272.672 671.473 273.27 671.929 273.742C672.385 274.215 672.95 274.451 673.626 274.451C674.302 274.451 674.867 274.215 675.323 273.742C675.779 273.27 676.007 272.672 676.007 271.948C676.007 271.223 675.779 270.625 675.323 270.153C674.867 269.681 674.302 269.445 673.626 269.445C672.95 269.445 672.385 269.681 671.929 270.153ZM678.261 275V268.895H678.993V269.933H679.006C679.152 269.632 679.408 269.363 679.775 269.127C680.149 268.891 680.621 268.773 681.191 268.773C681.875 268.773 682.432 269.009 682.864 269.481C683.295 269.953 683.511 270.592 683.511 271.398V275H682.778V271.398C682.778 270.771 682.624 270.291 682.314 269.958C682.013 269.616 681.598 269.445 681.069 269.445C680.483 269.445 679.99 269.652 679.592 270.067C679.193 270.483 678.993 271.008 678.993 271.642V275H678.261ZM684.855 273.169H685.648C685.754 273.429 685.893 273.645 686.063 273.816C686.454 274.239 686.987 274.451 687.663 274.451C688.216 274.451 688.627 274.353 688.896 274.158C689.173 273.954 689.311 273.685 689.311 273.352C689.311 273.173 689.258 273.018 689.152 272.888C689.047 272.749 688.876 272.635 688.64 272.546C688.412 272.456 688.204 272.387 688.017 272.338C687.838 272.29 687.577 272.228 687.236 272.155C686.837 272.082 686.495 271.988 686.21 271.874C685.933 271.76 685.689 271.581 685.477 271.337C685.266 271.085 685.16 270.78 685.16 270.421C685.16 269.974 685.359 269.587 685.758 269.262C686.165 268.936 686.719 268.773 687.419 268.773C688.298 268.773 688.994 269.07 689.507 269.665C689.726 269.917 689.885 270.21 689.983 270.544H689.189C689.1 270.324 688.982 270.141 688.835 269.994C688.469 269.628 687.997 269.445 687.419 269.445C686.93 269.445 686.552 269.542 686.283 269.738C686.023 269.925 685.893 270.153 685.893 270.421C685.893 270.568 685.933 270.702 686.015 270.824C686.096 270.938 686.194 271.036 686.308 271.117C686.422 271.191 686.58 271.26 686.784 271.325C686.995 271.39 687.179 271.443 687.333 271.484C687.496 271.516 687.708 271.557 687.968 271.606C688.261 271.671 688.518 271.744 688.737 271.826C688.965 271.899 689.181 272.005 689.384 272.143C689.596 272.273 689.759 272.44 689.873 272.644C689.987 272.847 690.044 273.083 690.044 273.352C690.044 273.865 689.836 274.288 689.421 274.622C689.014 274.955 688.428 275.122 687.663 275.122C686.686 275.122 685.929 274.797 685.392 274.145C685.14 273.86 684.961 273.535 684.855 273.169ZM692.019 274.219C691.433 273.616 691.14 272.859 691.14 271.948C691.14 271.036 691.433 270.279 692.019 269.677C692.605 269.074 693.329 268.773 694.192 268.773C695.047 268.773 695.767 269.074 696.353 269.677C696.947 270.271 697.244 271.008 697.244 271.887V272.192H691.872C691.905 272.835 692.141 273.372 692.58 273.803C693.02 274.235 693.557 274.451 694.192 274.451C694.892 274.451 695.466 274.227 695.914 273.779C696.125 273.584 696.284 273.36 696.39 273.108H697.122C696.976 273.49 696.768 273.828 696.5 274.121C695.897 274.788 695.128 275.122 694.192 275.122C693.329 275.122 692.605 274.821 692.019 274.219ZM691.872 271.52H696.451C696.386 270.926 696.141 270.434 695.718 270.043C695.303 269.644 694.794 269.445 694.192 269.445C693.59 269.445 693.077 269.64 692.654 270.031C692.23 270.421 691.97 270.918 691.872 271.52ZM699.208 274.219C698.63 273.608 698.341 272.851 698.341 271.948C698.341 271.044 698.63 270.291 699.208 269.689C699.794 269.078 700.502 268.773 701.333 268.773C702.301 268.773 703.07 269.131 703.64 269.848C703.893 270.157 704.08 270.511 704.202 270.91H703.469C703.355 270.625 703.205 270.381 703.018 270.177C702.594 269.689 702.033 269.445 701.333 269.445C700.714 269.445 700.181 269.685 699.733 270.165C699.294 270.637 699.074 271.231 699.074 271.948C699.074 272.664 699.294 273.262 699.733 273.742C700.181 274.215 700.714 274.451 701.333 274.451C702.041 274.451 702.619 274.186 703.066 273.657C703.278 273.413 703.433 273.148 703.53 272.863H704.263C704.141 273.278 703.95 273.657 703.689 273.999C703.07 274.748 702.285 275.122 701.333 275.122C700.502 275.122 699.794 274.821 699.208 274.219ZM705.06 269.567V268.895H705.915V267.552H706.648V268.895H708.662V269.567H706.648V274.328H708.723V275H705.915V269.567H705.06ZM710.524 274.219C709.938 273.616 709.645 272.859 709.645 271.948C709.645 271.036 709.938 270.279 710.524 269.677C711.11 269.074 711.834 268.773 712.697 268.773C713.552 268.773 714.272 269.074 714.858 269.677C715.452 270.271 715.749 271.008 715.749 271.887V272.192H710.377C710.41 272.835 710.646 273.372 711.085 273.803C711.525 274.235 712.062 274.451 712.697 274.451C713.397 274.451 713.971 274.227 714.418 273.779C714.63 273.584 714.789 273.36 714.895 273.108H715.627C715.481 273.49 715.273 273.828 715.004 274.121C714.402 274.788 713.633 275.122 712.697 275.122C711.834 275.122 711.11 274.821 710.524 274.219ZM710.377 271.52H714.956C714.891 270.926 714.646 270.434 714.223 270.043C713.808 269.644 713.299 269.445 712.697 269.445C712.095 269.445 711.582 269.64 711.159 270.031C710.735 270.421 710.475 270.918 710.377 271.52ZM716.602 269.567V268.895H717.457V267.552H718.189V268.895H720.204V269.567H718.189V274.328H720.265V275H717.457V269.567H716.602ZM721.614 272.497V268.895H722.346V272.497C722.346 273.124 722.497 273.608 722.798 273.95C723.107 274.284 723.526 274.451 724.055 274.451C724.641 274.451 725.134 274.243 725.533 273.828C725.932 273.413 726.131 272.888 726.131 272.253V268.895H726.864V275H726.131V273.962H726.119C725.956 274.272 725.696 274.544 725.337 274.78C724.979 275.008 724.511 275.122 723.933 275.122C723.25 275.122 722.692 274.886 722.261 274.414C721.829 273.942 721.614 273.303 721.614 272.497ZM728.815 275V268.895H729.548V270.055H729.56C729.666 269.827 729.808 269.624 729.987 269.445C730.394 269.038 730.919 268.834 731.562 268.834H732.234V269.506H731.562C730.976 269.506 730.492 269.705 730.109 270.104C729.735 270.495 729.548 271.008 729.548 271.642V275H728.815ZM737.183 274.219C736.614 273.608 736.329 272.851 736.329 271.948C736.329 271.044 736.614 270.291 737.183 269.689C737.753 269.078 738.445 268.773 739.259 268.773C739.837 268.773 740.325 268.916 740.724 269.201C741.123 269.477 741.404 269.783 741.567 270.116H741.579V268.895H742.311V275H741.579V273.779H741.567C741.404 274.113 741.123 274.422 740.724 274.707C740.325 274.984 739.837 275.122 739.259 275.122C738.445 275.122 737.753 274.821 737.183 274.219ZM737.721 270.165C737.281 270.637 737.061 271.231 737.061 271.948C737.061 272.664 737.281 273.262 737.721 273.742C738.168 274.215 738.701 274.451 739.32 274.451C739.922 274.451 740.447 274.215 740.895 273.742C741.351 273.262 741.579 272.664 741.579 271.948C741.579 271.231 741.351 270.637 740.895 270.165C740.447 269.685 739.922 269.445 739.32 269.445C738.701 269.445 738.168 269.685 737.721 270.165ZM744.695 274.219C744.125 273.608 743.84 272.851 743.84 271.948C743.84 271.044 744.125 270.291 744.695 269.689C745.265 269.078 745.957 268.773 746.771 268.773C747.348 268.773 747.837 268.916 748.236 269.201C748.635 269.477 748.915 269.783 749.078 270.116H749.09V266.453H749.823V275H749.09V273.779H749.078C748.915 274.113 748.635 274.422 748.236 274.707C747.837 274.984 747.348 275.122 746.771 275.122C745.957 275.122 745.265 274.821 744.695 274.219ZM745.232 270.165C744.793 270.637 744.573 271.231 744.573 271.948C744.573 272.664 744.793 273.262 745.232 273.742C745.68 274.215 746.213 274.451 746.832 274.451C747.434 274.451 747.959 274.215 748.407 273.742C748.862 273.262 749.09 272.664 749.09 271.948C749.09 271.231 748.862 270.637 748.407 270.165C747.959 269.685 747.434 269.445 746.832 269.445C746.213 269.445 745.68 269.685 745.232 270.165ZM751.755 267.455C751.649 267.349 751.596 267.219 751.596 267.064C751.596 266.909 751.649 266.779 751.755 266.673C751.861 266.567 751.991 266.514 752.146 266.514C752.3 266.514 752.43 266.567 752.536 266.673C752.642 266.779 752.695 266.909 752.695 267.064C752.695 267.219 752.642 267.349 752.536 267.455C752.43 267.56 752.3 267.613 752.146 267.613C751.991 267.613 751.861 267.56 751.755 267.455ZM751.779 275V268.895H752.512V275H751.779ZM754.462 277.32V268.895H755.195V270.116H755.207C755.337 269.791 755.61 269.485 756.025 269.201C756.44 268.916 756.936 268.773 757.514 268.773C758.328 268.773 759.02 269.078 759.59 269.689C760.16 270.291 760.445 271.044 760.445 271.948C760.445 272.851 760.16 273.608 759.59 274.219C759.02 274.821 758.328 275.122 757.514 275.122C756.936 275.122 756.44 274.98 756.025 274.695C755.61 274.41 755.337 274.105 755.207 273.779H755.195V277.32H754.462ZM755.866 270.165C755.418 270.637 755.195 271.231 755.195 271.948C755.195 272.664 755.418 273.262 755.866 273.742C756.322 274.215 756.851 274.451 757.453 274.451C758.072 274.451 758.601 274.215 759.04 273.742C759.488 273.262 759.712 272.664 759.712 271.948C759.712 271.231 759.488 270.637 759.04 270.165C758.601 269.685 758.072 269.445 757.453 269.445C756.851 269.445 756.322 269.685 755.866 270.165ZM761.949 267.455C761.843 267.349 761.79 267.219 761.79 267.064C761.79 266.909 761.843 266.779 761.949 266.673C762.055 266.567 762.185 266.514 762.34 266.514C762.495 266.514 762.625 266.567 762.731 266.673C762.836 266.779 762.889 266.909 762.889 267.064C762.889 267.219 762.836 267.349 762.731 267.455C762.625 267.56 762.495 267.613 762.34 267.613C762.185 267.613 762.055 267.56 761.949 267.455ZM761.974 275V268.895H762.706V275H761.974ZM764.168 273.169H764.962C765.067 273.429 765.206 273.645 765.377 273.816C765.767 274.239 766.301 274.451 766.976 274.451C767.53 274.451 767.941 274.353 768.209 274.158C768.486 273.954 768.624 273.685 768.624 273.352C768.624 273.173 768.571 273.018 768.466 272.888C768.36 272.749 768.189 272.635 767.953 272.546C767.725 272.456 767.517 272.387 767.33 272.338C767.151 272.29 766.891 272.228 766.549 272.155C766.15 272.082 765.808 271.988 765.523 271.874C765.246 271.76 765.002 271.581 764.791 271.337C764.579 271.085 764.473 270.78 764.473 270.421C764.473 269.974 764.673 269.587 765.071 269.262C765.478 268.936 766.032 268.773 766.732 268.773C767.611 268.773 768.307 269.07 768.82 269.665C769.039 269.917 769.198 270.21 769.296 270.544H768.502C768.413 270.324 768.295 270.141 768.148 269.994C767.782 269.628 767.31 269.445 766.732 269.445C766.244 269.445 765.865 269.542 765.596 269.738C765.336 269.925 765.206 270.153 765.206 270.421C765.206 270.568 765.246 270.702 765.328 270.824C765.409 270.938 765.507 271.036 765.621 271.117C765.735 271.191 765.894 271.26 766.097 271.325C766.309 271.39 766.492 271.443 766.646 271.484C766.809 271.516 767.021 271.557 767.281 271.606C767.574 271.671 767.831 271.744 768.051 271.826C768.278 271.899 768.494 272.005 768.698 272.143C768.909 272.273 769.072 272.44 769.186 272.644C769.3 272.847 769.357 273.083 769.357 273.352C769.357 273.865 769.149 274.288 768.734 274.622C768.327 274.955 767.741 275.122 766.976 275.122C765.999 275.122 765.242 274.797 764.705 274.145C764.453 273.86 764.274 273.535 764.168 273.169ZM771.32 274.219C770.742 273.608 770.453 272.851 770.453 271.948C770.453 271.044 770.742 270.291 771.32 269.689C771.906 269.078 772.614 268.773 773.444 268.773C774.413 268.773 775.182 269.131 775.752 269.848C776.004 270.157 776.191 270.511 776.313 270.91H775.581C775.467 270.625 775.316 270.381 775.129 270.177C774.706 269.689 774.144 269.445 773.444 269.445C772.826 269.445 772.292 269.685 771.845 270.165C771.405 270.637 771.185 271.231 771.185 271.948C771.185 272.664 771.405 273.262 771.845 273.742C772.292 274.215 772.826 274.451 773.444 274.451C774.152 274.451 774.73 274.186 775.178 273.657C775.39 273.413 775.544 273.148 775.642 272.863H776.374C776.252 273.278 776.061 273.657 775.801 273.999C775.182 274.748 774.397 275.122 773.444 275.122C772.614 275.122 771.906 274.821 771.32 274.219ZM777.819 267.455C777.713 267.349 777.66 267.219 777.66 267.064C777.66 266.909 777.713 266.779 777.819 266.673C777.925 266.567 778.055 266.514 778.21 266.514C778.364 266.514 778.495 266.567 778.6 266.673C778.706 266.779 778.759 266.909 778.759 267.064C778.759 267.219 778.706 267.349 778.6 267.455C778.495 267.56 778.364 267.613 778.21 267.613C778.055 267.613 777.925 267.56 777.819 267.455ZM777.843 275V268.895H778.576V275H777.843ZM780.526 275V268.895H781.259V269.933H781.271C781.417 269.632 781.674 269.363 782.04 269.127C782.415 268.891 782.887 268.773 783.456 268.773C784.14 268.773 784.698 269.009 785.129 269.481C785.56 269.953 785.776 270.592 785.776 271.398V275H785.044V271.398C785.044 270.771 784.889 270.291 784.58 269.958C784.278 269.616 783.863 269.445 783.334 269.445C782.748 269.445 782.256 269.652 781.857 270.067C781.458 270.483 781.259 271.008 781.259 271.642V275H780.526ZM788.036 274.219C787.466 273.608 787.181 272.851 787.181 271.948C787.181 271.044 787.466 270.291 788.036 269.689C788.606 269.078 789.297 268.773 790.111 268.773C790.689 268.773 791.178 268.916 791.577 269.201C791.975 269.477 792.256 269.783 792.419 270.116H792.431V268.895H793.164V277.32H787.975V276.648H792.431V273.779H792.419C792.256 274.113 791.975 274.422 791.577 274.707C791.178 274.984 790.689 275.122 790.111 275.122C789.297 275.122 788.606 274.821 788.036 274.219ZM788.573 270.165C788.134 270.637 787.914 271.231 787.914 271.948C787.914 272.664 788.134 273.262 788.573 273.742C789.021 274.215 789.554 274.451 790.172 274.451C790.775 274.451 791.3 274.215 791.747 273.742C792.203 273.262 792.431 272.664 792.431 271.948C792.431 271.231 792.203 270.637 791.747 270.165C791.3 269.685 790.775 269.445 790.172 269.445C789.554 269.445 789.021 269.685 788.573 270.165ZM798.994 274.219C798.408 273.616 798.115 272.859 798.115 271.948C798.115 271.036 798.408 270.279 798.994 269.677C799.58 269.074 800.304 268.773 801.167 268.773C802.022 268.773 802.742 269.074 803.328 269.677C803.922 270.271 804.219 271.008 804.219 271.887V272.192H798.847C798.88 272.835 799.116 273.372 799.555 273.803C799.995 274.235 800.532 274.451 801.167 274.451C801.867 274.451 802.441 274.227 802.889 273.779C803.1 273.584 803.259 273.36 803.365 273.108H804.097C803.951 273.49 803.743 273.828 803.475 274.121C802.872 274.788 802.103 275.122 801.167 275.122C800.304 275.122 799.58 274.821 798.994 274.219ZM798.847 271.52H803.426C803.361 270.926 803.117 270.434 802.693 270.043C802.278 269.644 801.769 269.445 801.167 269.445C800.565 269.445 800.052 269.64 799.629 270.031C799.205 270.421 798.945 270.918 798.847 271.52ZM805.744 275V266.453H806.476V274.328H807.88V275H805.744ZM809.01 267.455C808.904 267.349 808.851 267.219 808.851 267.064C808.851 266.909 808.904 266.779 809.01 266.673C809.116 266.567 809.246 266.514 809.401 266.514C809.555 266.514 809.686 266.567 809.791 266.673C809.897 266.779 809.95 266.909 809.95 267.064C809.95 267.219 809.897 267.349 809.791 267.455C809.686 267.56 809.555 267.613 809.401 267.613C809.246 267.613 809.116 267.56 809.01 267.455ZM809.035 275V268.895H809.767V275H809.035ZM811.046 269.567V268.895H811.9V267.552H812.633V268.895H814.647V269.567H812.633V274.328H814.709V275H811.9V269.567H811.046ZM815.63 274.573C815.63 274.385 815.683 274.239 815.789 274.133C815.903 274.019 816.053 273.962 816.24 273.962C816.428 273.962 816.574 274.019 816.68 274.133C816.794 274.239 816.851 274.385 816.851 274.573C816.851 274.76 816.794 274.906 816.68 275.012C816.574 275.126 816.428 275.183 816.24 275.183C816.053 275.183 815.903 275.126 815.789 275.012C815.683 274.898 815.63 274.752 815.63 274.573Z" fill="white"/>
<circle cx="302" cy="389" r="4.5" fill="#191919" stroke="#8C8FFF" stroke-width="3"/>
<circle cx="337" cy="547" r="4.5" fill="#191919" stroke="#60D2C3" stroke-width="3"/>
<circle cx="562" cy="582" r="4.5" fill="#191919" stroke="#60D2C3" stroke-width="3"/>
<circle cx="719" cy="468" r="4.5" fill="#191919" stroke="#60D2C3" stroke-width="3"/>
<circle cx="588" cy="331" r="4.5" fill="#191919" stroke="#8C8FFF" stroke-width="3"/>
<circle cx="637" cy="187" r="4.5" fill="#191919" stroke="#8C8FFF" stroke-width="3"/>
<defs>
<linearGradient id="paint0_linear_3104_1120" x1="472" y1="362" x2="646.5" y2="555.5" gradientUnits="userSpaceOnUse">
<stop stop-color="#7E80E3" stop-opacity="0.28"/>
<stop offset="1" stop-color="#191919" stop-opacity="0"/>
</linearGradient>
<radialGradient id="paint1_radial_3104_1120" cx="0" cy="0" r="1" gradientUnits="userSpaceOnUse" gradientTransform="translate(623.612 364.301) rotate(90) scale(364.301 352.612)">
<stop stop-color="#8D8CFF"/>
<stop offset="1" stop-color="#60D2C3" stop-opacity="0"/>
</radialGradient>
<linearGradient id="paint2_linear_3104_1120" x1="769.5" y1="187" x2="769.5" y2="306" gradientUnits="userSpaceOnUse">
<stop stop-color="#8C8FFF"/>
<stop offset="1" stop-color="#60D2C3" stop-opacity="0.28"/>
</linearGradient>
</defs>
</svg>
