<svg width="143" height="30" viewBox="0 0 143 30" fill="none" xmlns="http://www.w3.org/2000/svg">
<path d="M13.3594 3.64775C13.6588 2.72644 14.9622 2.72644 15.2615 3.64775L17.2868 9.8809C17.4207 10.2929 17.8046 10.5719 18.2379 10.5719L24.7918 10.5719C25.7605 10.5719 26.1633 11.8115 25.3796 12.3809L20.0773 16.2332C19.7268 16.4878 19.5802 16.9392 19.7141 17.3512L21.7393 23.5844C22.0387 24.5057 20.9842 25.2718 20.2005 24.7024L14.8983 20.8501C14.5478 20.5955 14.0732 20.5955 13.7227 20.8501L8.42046 24.7024C7.63674 25.2718 6.58226 24.5057 6.88161 23.5844L8.90688 17.3512C9.04076 16.9392 8.8941 16.4878 8.54361 16.2332L3.24138 12.3809C2.45767 11.8115 2.86045 10.5719 3.82917 10.5719L10.3831 10.5719C10.8163 10.5719 11.2003 10.2929 11.3341 9.8809L13.3594 3.64775Z" fill="#5F2EEA"/>
<path d="M41.8728 3.64775C42.1722 2.72644 43.4756 2.72644 43.775 3.64775L45.8002 9.8809C45.9341 10.2929 46.3181 10.5719 46.7513 10.5719L53.3052 10.5719C54.2739 10.5719 54.6767 11.8115 53.893 12.3809L48.5907 16.2332C48.2403 16.4878 48.0936 16.9392 48.2275 17.3512L50.2528 23.5844C50.5521 24.5057 49.4976 25.2718 48.7139 24.7024L43.4117 20.8501C43.0612 20.5955 42.5866 20.5955 42.2361 20.8501L36.9339 24.7024C36.1502 25.2718 35.0957 24.5057 35.395 23.5844L37.4203 17.3512C37.5542 16.9392 37.4075 16.4878 37.057 16.2332L31.7548 12.3809C30.9711 11.8115 31.3739 10.5719 32.3426 10.5719L38.8965 10.5719C39.3297 10.5719 39.7137 10.2929 39.8476 9.8809L41.8728 3.64775Z" fill="#5F2EEA"/>
<path d="M70.3865 3.64775C70.6859 2.72644 71.9893 2.72644 72.2886 3.64775L74.3139 9.8809C74.4478 10.2929 74.8317 10.5719 75.265 10.5719L81.8189 10.5719C82.7876 10.5719 83.1904 11.8115 82.4067 12.3809L77.1044 16.2332C76.7539 16.4878 76.6073 16.9392 76.7412 17.3512L78.7664 23.5844C79.0658 24.5057 78.0113 25.2718 77.2276 24.7024L71.9254 20.8501C71.5749 20.5955 71.1003 20.5955 70.7498 20.8501L65.4476 24.7024C64.6638 25.2718 63.6094 24.5057 63.9087 23.5844L65.934 17.3512C66.0679 16.9392 65.9212 16.4878 65.5707 16.2332L60.2685 12.3809C59.4848 11.8115 59.8875 10.5719 60.8563 10.5719L67.4102 10.5719C67.8434 10.5719 68.2274 10.2929 68.3612 9.8809L70.3865 3.64775Z" fill="#5F2EEA"/>
<path d="M98.8999 3.64775C99.1993 2.72644 100.503 2.72644 100.802 3.64775L102.827 9.8809C102.961 10.2929 103.345 10.5719 103.778 10.5719L110.332 10.5719C111.301 10.5719 111.704 11.8115 110.92 12.3809L105.618 16.2332C105.267 16.4878 105.121 16.9392 105.255 17.3512L107.28 23.5844C107.579 24.5057 106.525 25.2718 105.741 24.7024L100.439 20.8501C100.088 20.5955 99.6137 20.5955 99.2632 20.8501L93.961 24.7024C93.1773 25.2718 92.1228 24.5057 92.4221 23.5844L94.4474 17.3512C94.5813 16.9392 94.4346 16.4878 94.0841 16.2332L88.7819 12.3809C87.9982 11.8115 88.401 10.5719 89.3697 10.5719L95.9236 10.5719C96.3568 10.5719 96.7408 10.2929 96.8747 9.8809L98.8999 3.64775Z" fill="#5F2EEA"/>
<path d="M127.413 3.64775C127.713 2.72644 129.016 2.72644 129.315 3.64775L131.341 9.8809C131.475 10.2929 131.859 10.5719 132.292 10.5719L138.846 10.5719C139.814 10.5719 140.217 11.8115 139.434 12.3809L134.131 16.2332C133.781 16.4878 133.634 16.9392 133.768 17.3512L135.793 23.5844C136.093 24.5057 135.038 25.2718 134.254 24.7024L128.952 20.8501C128.602 20.5955 128.127 20.5955 127.777 20.8501L122.474 24.7024C121.691 25.2718 120.636 24.5057 120.936 23.5844L122.961 17.3512C123.095 16.9392 122.948 16.4878 122.598 16.2332L117.295 12.3809C116.512 11.8115 116.914 10.5719 117.883 10.5719L124.437 10.5719C124.87 10.5719 125.254 10.2929 125.388 9.8809L127.413 3.64775Z" fill="#5F2EEA"/>
</svg>
