<svg width="60" height="60" viewBox="0 0 60 60" fill="none" xmlns="http://www.w3.org/2000/svg">
<circle cx="30" cy="30" r="30" transform="matrix(1 0 0 -1 0 60)" fill="white"/>
<path fill-rule="evenodd" clip-rule="evenodd" d="M29.0703 59.9859C13.2406 59.5041 0.495879 46.7594 0.0140554 30.9297L13.383 31.9922C21.1887 32.6125 27.3875 38.8113 28.0078 46.617L29.0703 59.9859ZM0.0078125 29.3053C0.370634 13.3395 13.2065 0.454075 29.1525 0.0118103L29.0714 0.234447L28.0078 13.6176C27.3875 21.4232 21.1887 27.622 13.383 28.2423L0.0078125 29.3053ZM30.6109 0.00616837C46.6942 0.327461 59.6725 13.3058 59.9938 29.3891L59.7655 29.3059L46.3824 28.2423C38.5768 27.622 32.378 21.4232 31.7577 13.6175L30.6941 0.234447L30.6109 0.00616837ZM59.9882 30.8475C59.5459 46.7935 46.6605 59.6294 30.6947 59.9922L31.7577 46.617C32.378 38.8113 38.5768 32.6125 46.3825 31.9922L59.7655 30.9286L59.9882 30.8475Z" fill="black"/>
</svg>
