<svg width="60" height="60" viewBox="0 0 60 60" fill="none" xmlns="http://www.w3.org/2000/svg">
<g clip-path="url(#clip0_431_279)">
<path d="M0 28.8C0 15.2235 0 8.43532 4.21766 4.21766C8.43532 0 15.2235 0 28.8 0H31.2C44.7765 0 51.5646 0 55.7824 4.21766C60 8.43532 60 15.2235 60 28.8V31.2C60 44.7765 60 51.5646 55.7824 55.7824C51.5646 60 44.7765 60 31.2 60H28.8C15.2235 60 8.43532 60 4.21766 55.7824C0 51.5646 0 44.7765 0 31.2V28.8Z" fill="#FF7700"/>
<g clip-path="url(#clip1_431_279)">
<path fill-rule="evenodd" clip-rule="evenodd" d="M30.0271 30.6611C35.9241 30.6611 40.72 26.0323 40.72 20.3419C40.72 14.6496 35.9241 10.0195 30.0271 10.0195C24.1288 10.0195 19.3342 14.6496 19.3342 20.3419C19.3342 26.0323 24.1288 30.6611 30.0271 30.6611ZM30.0273 16.0693C27.5859 16.0693 25.6 17.9857 25.6 20.3424C25.6 22.6973 27.5859 24.6149 30.0273 24.6149C32.4669 24.6149 34.4547 22.6973 34.4547 20.3424C34.4547 17.9857 32.4669 16.0693 30.0273 16.0693Z" fill="white"/>
<path d="M19.6956 44.5859L25.6732 38.5119C23.4966 38.0081 21.3974 37.1332 19.464 35.8994C18.0008 34.9621 17.5599 32.997 18.4819 31.5103C19.4032 30.0204 21.336 29.5719 22.8018 30.5093C27.1818 33.3077 32.821 33.307 37.1984 30.5093C38.6642 29.5719 40.5977 30.0204 41.5171 31.5103C42.439 32.9983 41.9995 34.9621 40.5363 35.8994C38.6028 37.1319 36.5036 38.0081 34.327 38.5119L40.3053 44.5859C41.5273 45.8288 41.5273 47.8439 40.304 49.0868C39.6917 49.7076 38.8907 50.0183 38.0897 50.0183C37.2874 50.0183 36.4851 49.7076 35.8728 49.0868L30.0007 43.1181L24.1236 49.0868C22.9016 50.3297 20.9189 50.3297 19.6956 49.0868C18.471 47.8439 18.471 45.8275 19.6956 44.5859Z" fill="white"/>
</g>
</g>
<defs>
<clipPath id="clip0_431_279">
<rect width="60" height="60" fill="white"/>
</clipPath>
<clipPath id="clip1_431_279">
<rect width="40" height="40" fill="white" transform="translate(10 10.0195)"/>
</clipPath>
</defs>
</svg>
