<svg width="60" height="60" viewBox="0 0 60 60" fill="none" xmlns="http://www.w3.org/2000/svg">
<g clip-path="url(#clip0_449_1848)">
<path d="M0 28.8C0 15.2235 0 8.43532 4.21766 4.21766C8.43532 0 15.2235 0 28.8 0H31.2C44.7765 0 51.5646 0 55.7824 4.21766C60 8.43532 60 15.2235 60 28.8V31.2C60 44.7765 60 51.5646 55.7824 55.7824C51.5646 60 44.7765 60 31.2 60H28.8C15.2235 60 8.43532 60 4.21766 55.7824C0 51.5646 0 44.7765 0 31.2V28.8Z" fill="#0077FF"/>
<path d="M31.7863 43.3516C18.1198 43.3516 10.3248 33.9672 10 18.3516H16.8457C17.0706 29.813 22.1173 34.6679 26.1148 35.6689V18.3516H32.561V28.2364C36.5086 27.811 40.6555 23.3065 42.0546 18.3516H48.5007C47.4264 24.4577 42.9292 28.9622 39.7312 30.814C42.9292 32.3155 48.0512 36.2445 50 43.3516H42.9042C41.3801 38.5968 37.5829 34.9181 32.561 34.4176V43.3516H31.7863Z" fill="white"/>
</g>
<defs>
<clipPath id="clip0_449_1848">
<rect width="60" height="60" fill="white"/>
</clipPath>
</defs>
</svg>
