<svg width="157" height="121" viewBox="0 0 157 121" fill="none" xmlns="http://www.w3.org/2000/svg">
<g clip-path="url(#clip0_431_257)">
<path d="M14.5649 20.0378C21.3771 15.104 30.0176 12.7846 38.3724 13.725C47.7971 14.6024 56.6693 19.6975 62.4206 27.2103C65.6921 55.4009 115.601 47.6316 128.591 28.1415C141.092 36.5227 148.591 51.7811 146.968 66.8787C125.693 80.4021 129.7 80.7043 129.18 99.8042C126.398 105.114 121.181 109.144 115.216 109.976C109.75 110.907 104.106 109.054 99.8882 105.526C93.7625 117.095 79.5228 123.489 66.8698 120.068C55.7777 117.39 46.8699 107.728 44.9795 96.428C43.0337 87.5296 21.6359 75.8905 6.45953 68.7588C1.78732 62.0877 -0.575562 53.8138 0.120014 45.6741C0.833528 35.5378 6.30793 25.8937 14.5649 20.0375V20.0378Z" fill="#7F1472"/>
<path d="M78.4882 5.54142C86.736 0.697172 97.0706 -0.332724 106.121 2.72982C117.418 6.38304 126.317 16.4478 128.591 28.1426C130.285 36.1389 128.903 44.6902 124.882 51.7822C124.115 48.4066 122.34 45.1114 119.327 43.2756C116.438 41.5025 112.933 41.3234 109.643 41.2519C102.581 41.2696 95.519 41.243 88.4572 41.2696C88.4572 50.2867 88.4572 59.3041 88.4572 68.3301C84.8994 67.4705 81.4665 66.1541 78.2476 64.417C80.1201 56.7163 81.8943 48.9795 83.8203 41.2876C80.637 41.243 77.4629 41.243 74.2887 41.2965C73.0936 46.92 71.8629 52.5257 70.6418 58.14C62.9202 50.0987 59.8524 38.0371 62.4207 27.2111C64.5069 18.1762 70.4457 10.1172 78.4884 5.54142H78.4882ZM144.775 7.66363C151.355 5.2816 158.649 12.1052 156.67 18.8567C155.341 25.501 146.3 28.4021 141.413 23.701C135.911 19.3135 137.998 9.49938 144.775 7.66363ZM97.8104 49.3286C102.483 49.5078 107.235 48.9077 111.863 49.6509C116.66 50.3583 117.017 57.8979 112.576 59.3665C107.806 60.7902 102.723 59.7606 97.8195 60.0559C97.8016 56.4831 97.8016 52.9012 97.8104 49.3284V49.3286ZM6.45907 68.7602C10.3379 61.1845 19.6558 57.4146 27.7253 59.9308C29.9098 69.2258 32.0498 78.5291 34.2705 87.8241C37.6675 87.8687 41.065 87.8778 44.4623 87.8241C45.0237 85.8987 45.5771 83.9643 46.0672 82.0212C47.2173 84.1168 48.8579 86.2029 48.6795 88.7464C48.7869 91.7546 46.8338 94.2802 44.9793 96.4291C40.5921 100.539 32.9685 98.2826 30.3916 93.1339C23.8464 96.2949 15.4831 95.3277 10.1863 90.2145C4.31903 84.9493 2.81241 75.7084 6.45907 68.7599V68.7602ZM124.846 67.4882C131.239 62.8053 140.378 62.286 146.968 66.8798C152.238 70.5147 155.51 76.9265 155.118 83.3736C154.877 89.9374 150.865 96.1607 145.042 99.1334C140.2 101.703 134.226 101.909 129.179 99.805C123.838 97.5217 119.665 92.7487 118.292 87.0626C126.156 84.7524 129.732 74.1055 124.846 67.488V67.4882Z" fill="#EF1A8A"/>
<path d="M97.8105 68.3013C97.8017 72.1162 97.7929 75.9394 97.8105 79.7632C101.77 79.7632 105.729 79.7723 109.688 79.7723C112.282 79.817 115.171 79.172 116.777 76.9424C117.945 74.1666 117.267 70.0029 114.039 69.0354C108.787 67.379 103.205 68.346 97.8108 68.3013H97.8105ZM97.8105 49.3268C97.8017 52.8996 97.8017 56.4815 97.8196 60.0543C102.724 59.759 107.806 60.7886 112.577 59.3649C117.017 57.8963 116.661 50.3567 111.863 49.6493C107.236 48.9061 102.483 49.5062 97.8105 49.327V49.3268ZM88.457 41.2678C95.5189 41.2411 102.581 41.2678 109.643 41.25C112.933 41.3216 116.437 41.5007 119.326 43.2738C122.34 45.1095 124.115 48.4047 124.881 51.7804C125.095 56.4726 122.929 61.1826 118.702 63.4391C120.958 64.433 123.134 65.6597 124.846 67.4864C129.732 74.1039 126.156 84.7508 118.292 87.061C108.439 88.6009 98.3987 87.4911 88.4568 87.813C88.4568 81.3208 88.4656 74.8205 88.4568 68.3282C88.4568 59.3022 88.4568 50.2849 88.4568 41.2678H88.457ZM23.4009 41.2678C26.6109 41.25 29.8122 41.2589 33.022 41.2589C35.2689 51.8253 37.5428 62.3914 39.8433 72.9398C42.6342 62.3914 45.2646 51.7895 48.1713 41.2678C51.8808 41.25 55.5987 41.2411 59.3086 41.2858C61.9744 52.0668 64.7208 62.8301 67.3154 73.6201C68.4299 68.4625 69.5444 63.3049 70.6414 58.1381C71.8628 52.5238 73.0935 46.9181 74.2883 41.2947C77.4625 41.2411 80.6367 41.2411 83.82 41.2858C81.8939 48.9776 80.1197 56.7144 78.2473 64.4152C76.3301 72.2058 74.5561 80.0225 72.6122 87.8042C69.2952 87.8313 65.9869 87.8313 62.67 87.8042C59.5311 76.3066 56.553 64.7643 53.5749 53.231C51.0422 62.8212 48.528 72.4113 46.0671 82.0196C45.5767 83.9627 45.0234 85.8971 44.4622 87.8224C41.0649 87.8762 37.6674 87.8671 34.2704 87.8224C32.05 78.5275 29.9099 69.2242 27.7252 59.9292C26.3168 53.6971 24.7564 47.5096 23.4009 41.268V41.2678Z" fill="#FEFEFE"/>
</g>
<defs>
<clipPath id="clip0_431_257">
<rect width="157" height="119.994" fill="white" transform="translate(0 0.996094)"/>
</clipPath>
</defs>
</svg>
