<svg width="164" height="46" viewBox="0 0 164 46" fill="none" xmlns="http://www.w3.org/2000/svg">
<path fill-rule="evenodd" clip-rule="evenodd" d="M159.438 38.6515C156.063 41.5371 151.823 43.2276 147.38 43.4585C144.308 43.654 141.918 42.5845 140.647 40.641C138.466 42.0345 136.034 42.9951 133.487 43.47C132.074 43.7025 130.634 43.7296 129.213 43.5505C126.903 43.24 125.552 41.446 126.037 40.9285C126.349 40.6065 127.077 40.986 127.608 41.101C128.139 41.216 128.671 41.216 129.156 41.0665C129.952 40.8365 130.599 40.2385 130.876 39.3185C131.258 37.9385 129.098 36.708 127.354 35.6155C124.501 41.6645 120.886 43.171 119.177 43.4125C118.538 43.5015 117.892 43.5285 117.248 43.493C114.892 43.378 113.853 41.8485 114.638 38.6285C114.961 37.789 112.64 42.0095 110.18 42.918C107.709 43.815 103.02 44.1255 103.02 40.158C103.02 38.525 103.366 36.823 103.759 35.2015C104.047 34.0055 104.625 31.9585 104.798 30.7855C104.948 30.153 104.613 29.1985 104.128 29.0605C103.528 28.8765 102.881 29.0375 101.46 29.601L101.495 29.7275C101.807 31.004 101.761 32.2115 101.645 33.3385C101.53 34.4655 101.31 35.374 101.195 35.811C100.791 37.306 98.7116 42.435 92.6483 43.4355C92.0246 43.5505 91.3547 43.5965 90.6387 43.608C86.5964 43.6425 84.7023 41.745 83.8246 39.836C83.8165 39.8433 83.8087 39.8509 83.8015 39.859C81.4108 42.274 78.1654 44.712 74.6082 43.217C71.4899 41.906 76.4561 30.9235 73.6728 30.774C71.1088 30.6475 69.0415 32.568 67.8173 36.455C66.6046 40.3305 67.5863 43.47 67.5863 43.47C67.5863 43.47 63.7057 43.8955 62.3198 41.975C61.7784 41.0758 61.4726 40.0556 61.4305 39.008C59.6288 41.423 56.4297 43.125 52.9418 43.447C52.1058 43.5509 51.26 43.5509 50.424 43.447C46.3587 42.9525 45.1113 39.9395 44.8804 36.616C41.6546 40.4207 37.1296 42.903 32.1761 43.585C28.157 44.1715 25.1657 42.435 24.2071 39.238C21.8511 41.676 18.1784 44.275 14.5981 42.78C11.5491 41.492 16.4113 30.728 13.6742 30.59C13.0669 30.5477 12.4582 30.6461 11.8956 30.8775C10.3018 31.556 9.08909 33.327 8.19979 36.1675C6.99867 39.9625 7.96881 43.033 7.96881 43.033C7.96881 43.033 4.15754 43.4585 2.80627 41.5725C1.455 39.675 2.37895 36.9035 2.76007 35.2015C3.01416 34.04 3.29134 32.016 3.24514 30.843C3.19895 29.7965 2.72543 29.578 1.81303 30.038C1.02768 30.4405 0.323172 30.6935 0.103736 30.383C-0.0695038 30.1415 -0.0233066 29.854 0.242327 29.4285C0.496412 29.003 1.39726 28.198 1.99782 27.6345C3.45303 26.2545 5.52036 24.932 6.40965 25.0585C7.29895 25.185 8.73106 26.726 8.34993 28.4855C8.21134 29.1525 8.22289 29.4975 8.22289 29.4975C8.22289 29.4975 10.2094 27.8415 11.8956 26.8295C12.3575 26.5535 12.808 26.3235 13.166 26.1855C14.8984 25.553 18.3863 24.8055 19.726 26.243C21.0542 27.692 20.8694 30.2105 20.0378 34.983C19.5758 37.674 19.6913 38.3985 20.3035 38.64C21.2158 39.0195 22.7866 38.548 23.9068 37.398L23.9184 37.375C23.9102 37.1374 23.9102 36.8996 23.9184 36.662C24.057 32.269 27.4178 26.5765 33.0192 25.1965C33.5655 25.0635 34.1217 24.9751 34.6823 24.932C41.277 24.38 41.8082 29.095 38.8863 33.097C37.384 35.0547 35.3471 36.5399 33.0192 37.375C31.8066 37.835 30.9635 37.973 30.9635 37.973C31.4947 38.548 32.1992 38.916 33.0192 39.1C34.7863 39.491 37.0615 39.031 39.1981 38.1455C41.5376 37.2284 43.5291 35.6034 44.8919 33.4995C44.9843 32.1655 45.146 30.912 45.273 29.8655C45.4116 28.6005 45.839 26.312 46.2894 23.7015C44.8919 23.736 43.8756 23.759 43.3097 23.7245C42.9401 23.69 42.7437 23.667 42.6744 23.2645C42.5243 22.4135 42.8477 20.4815 43.0556 19.8145C43.3097 19.0095 43.633 19.1245 44.1759 19.1015C44.1759 19.1015 45.3192 19.1475 47.017 19.1475C47.6175 15.3525 47.9409 12.4315 48.0911 12.0635C49.0035 9.85553 57.0995 4.81853 56.7184 6.77353C56.3373 8.64803 54.524 13.4895 53.0457 19.067H53.1612C56.1871 18.9405 58.8204 18.8025 60.4604 18.814C61.0378 18.814 61.7539 18.653 61.7308 19.389C61.7077 20.1365 61.2919 21.574 60.8992 22.4595C60.5528 23.2185 60.3218 23.3795 59.4556 23.483C58.0697 23.6325 55.9215 23.5175 52.1564 23.552H52.1333C50.9206 30.2105 50.3432 35.121 51.8792 36.9495C52.5606 37.7545 53.4153 38.3065 54.4085 38.5595C56.164 38.985 58.4623 37.9615 59.9175 37.1565C60.495 36.846 60.9916 36.524 61.419 36.271V36.2365C61.7192 31.7285 62.5161 26.7375 63.4285 22.3445C64.5257 17.089 65.8423 10.5225 65.9694 7.38303C66.0387 6.15253 66.0849 3.81803 67.0435 2.92103C68.6835 1.39153 71.6747 -0.298974 72.8066 0.0460263C75.7516 0.943026 69.1916 23.391 68.3485 27.991C68.2099 28.7155 68.4178 29.256 68.8221 28.9685C69.8384 28.2555 71.7902 26.542 73.2108 26.0245C74.9663 25.3805 78.5235 24.61 79.8978 26.082C81.2606 27.554 80.995 30.3945 80.1519 35.2705C79.6899 38.019 79.8054 38.7435 80.4175 38.9965C81.226 39.33 82.2192 38.594 83.1894 37.6165C83.0392 36.6965 83.0854 36.0295 83.0854 36.0295C82.8429 31.4295 87.2316 26.0475 92.6483 24.978C93.5183 24.8043 94.4082 24.7501 95.293 24.817C98.5268 25.07 100.213 26.542 101.033 28.3475C102.508 27.0981 104.232 26.1732 106.092 25.6335C107.986 25.1045 110.076 25.1275 110.434 26.8985C110.919 29.3135 107.755 37.5475 109.857 38.41C110.677 38.755 111.866 38.1455 112.975 37.1105C115.724 34.5575 115.92 32.3265 116.474 28.865C116.648 27.83 116.867 26.565 117.017 26.266C117.41 25.53 118.08 25.4955 118.807 25.507C119.962 25.53 121.233 25.737 121.81 26.197C122.85 27.002 122.157 28.842 121.464 32.016C121.092 33.7294 120.688 35.4355 120.251 37.1335C119.905 38.479 120.505 38.6515 120.921 38.778C122.122 39.123 125.391 37.0875 126.499 35.0635V35.052C126.037 34.73 125.679 34.4195 125.483 34.132C124.605 32.706 123.543 29.2675 128.232 26.2775C133.025 23.2185 138.51 25.1505 138.21 28.5545C137.979 31.096 136.593 32.108 134.861 31.7975C133.614 31.5675 133.302 29.992 134.283 30.153C135.057 30.2795 135.069 28.842 134.63 28.451C134.354 28.2245 134.034 28.0567 133.691 27.9578C133.347 27.8589 132.987 27.8311 132.632 27.876C131.154 28.0025 129.768 29.003 130.322 30.4865C130.588 31.188 131.188 31.4755 131.87 31.947C133.175 32.844 136.293 33.7755 137.24 36.018C137.61 36.938 137.679 37.9155 137.471 38.8585C137.321 39.5715 137.009 40.273 136.57 40.9055C137.61 40.7445 138.845 40.1005 140.012 39.3415C139.625 38.2148 139.507 37.0141 139.665 35.834C140.162 31.602 143.719 26.404 149.09 25.185C149.866 25.0075 150.661 24.9188 151.457 24.9205C154.067 24.9205 155.684 25.6335 156.481 26.7605C157.232 27.807 157.267 29.2215 156.712 30.6705C155.523 33.8675 152.901 35.1095 150.152 36.8C149.91 36.961 149.517 37.145 149.101 37.329C148.489 37.6165 147.842 37.904 147.507 38.134C147.323 38.249 147.242 38.364 147.323 38.4215C147.838 38.8432 148.448 39.1351 149.101 39.2725C150.718 39.652 152.739 39.2725 154.887 38.571C155.875 38.2801 156.834 37.8989 157.752 37.4325C158.895 36.8115 159.692 36.271 160.801 35.3165C161.124 35.0405 161.47 34.7875 161.574 34.8565C161.644 34.9025 161.678 34.9715 161.69 35.0865V35.2245C161.621 36.0065 160.581 37.697 159.438 38.6515ZM33.0192 34.5805C34.8787 32.936 36.5995 30.429 34.9826 29.4055C34.4282 29.0605 33.7353 29.1985 33.0192 29.739C32.5342 30.084 32.0375 30.613 31.564 31.28C30.6793 32.7266 30.3167 34.4305 30.5361 36.11C31.1598 35.995 32.1068 35.3855 33.0192 34.5805ZM94.6694 28.8305C93.9764 28.7845 93.2835 29.0145 92.6483 29.417C91.4438 30.232 90.4887 31.3622 89.888 32.683C88.9871 34.615 88.1902 39.1115 91.1468 39.353C91.6088 39.399 92.1285 39.284 92.6483 39.0195C93.6992 38.479 94.7733 37.2945 95.5933 35.4085C96.3556 33.6375 96.7944 28.9685 94.6694 28.8305ZM149.101 34.3505C151.007 32.7175 152.855 30.5555 151.388 29.4515C150.799 29.003 149.979 29.164 149.101 29.7965C148.616 30.1552 148.178 30.5724 147.796 31.0385C146.914 32.271 146.398 33.7255 146.306 35.236C146.283 35.604 146.352 36.1675 146.376 36.2825C146.93 36.0065 148.027 35.259 149.101 34.3505ZM18.0167 21.896C16.5384 21.1715 15.4297 20.5735 13.9513 19.964C12.9812 19.5615 12.4037 19.3085 11.8956 19.2395C11.2026 19.136 10.6367 19.3775 9.34317 20.01C7.79557 20.7575 6.34036 21.8385 4.7812 22.5975C2.74852 23.575 2.87557 22.8275 2.00937 21.1945C1.17782 19.619 1.22402 19.343 2.86402 18.4115C4.68881 17.3765 7.71472 15.755 9.7474 14.7315C10.9254 14.122 11.3297 13.9265 11.8956 14.0645C12.2767 14.145 12.7387 14.375 13.5471 14.7085C15.9032 15.709 18.0051 16.537 20.3381 17.572C22.6942 18.607 22.648 19.297 21.7471 20.907C20.8232 22.54 20.4767 23.115 18.0167 21.896Z" fill="#2B73FF"/>
</svg>
