<svg width="24" height="25" viewBox="0 0 24 25" fill="none" xmlns="http://www.w3.org/2000/svg">
<path d="M12 2.08325C8.13 2.08325 5 5.34367 5 9.37492C5 14.8437 12 22.9166 12 22.9166C12 22.9166 19 14.8437 19 9.37492C19 5.34367 15.87 2.08325 12 2.08325ZM12 11.9791C11.337 11.9791 10.7011 11.7047 10.2322 11.2163C9.76339 10.728 9.5 10.0656 9.5 9.37492C9.5 8.68425 9.76339 8.02187 10.2322 7.53349C10.7011 7.04512 11.337 6.77075 12 6.77075C12.663 6.77075 13.2989 7.04512 13.7678 7.53349C14.2366 8.02187 14.5 8.68425 14.5 9.37492C14.5 10.0656 14.2366 10.728 13.7678 11.2163C13.2989 11.7047 12.663 11.9791 12 11.9791Z" fill="#2B73FF"/>
</svg>
