<svg width="24" height="24" viewBox="0 0 24 24" fill="none" xmlns="http://www.w3.org/2000/svg">
<path d="M10.1026 6.58929C9.84233 3.59319 6.71855 2.1231 6.58634 2.0631C6.46276 2.00497 6.32426 1.98639 6.18974 2.00991C2.58348 2.60859 2.04105 4.70872 2.01924 4.796C1.98957 4.91762 1.99429 5.0451 2.03287 5.1642C6.33421 18.5178 15.2735 20.9929 18.2119 21.8071C18.4382 21.8698 18.6249 21.9202 18.7666 21.9666C18.9284 22.0195 19.1041 22.0093 19.2587 21.938C19.3486 21.8971 21.472 20.8961 21.9913 17.6313C22.0143 17.4888 21.9914 17.3427 21.9259 17.214C21.8795 17.124 20.7688 15.0089 17.6886 14.2616C17.5841 14.2348 17.4747 14.2339 17.3697 14.2589C17.2648 14.2838 17.1675 14.3339 17.0862 14.4048C16.1144 15.2353 14.772 16.1203 14.1927 16.2117C10.3098 14.312 8.14142 10.6668 8.05965 9.97541C8.01195 9.58675 8.90192 8.22166 9.92547 7.11159C9.9898 7.04173 10.0388 6.95917 10.0693 6.86921C10.0998 6.77925 10.1112 6.6839 10.1026 6.58929Z" fill="#2B73FF"/>
</svg>
