<svg width="24" height="24" viewBox="0 0 24 24" fill="none" xmlns="http://www.w3.org/2000/svg">
<g clip-path="url(#clip0_110_144)">
<path d="M11.742 18.0389H13.176C13.176 18.0389 13.6095 17.9909 13.83 17.7524C14.034 17.5334 14.0265 17.1224 14.0265 17.1224C14.0265 17.1224 13.998 15.1979 14.892 14.9144C15.7725 14.6354 16.9035 16.7744 18.102 17.5979C19.008 18.2204 19.6965 18.0839 19.6965 18.0839L22.902 18.0389C22.902 18.0389 24.579 17.9354 23.784 16.6169C23.7195 16.5089 23.3205 15.6419 21.4005 13.8599C19.3905 11.9939 19.6605 12.2969 22.0815 9.07044C23.556 7.10544 24.1455 5.90544 23.961 5.39244C23.7855 4.90344 22.701 5.03244 22.701 5.03244L19.095 5.05344C19.095 5.05344 18.828 5.01744 18.6285 5.13594C18.435 5.25294 18.3105 5.52294 18.3105 5.52294C18.3105 5.52294 17.739 7.04394 16.977 8.33694C15.3705 11.0654 14.727 11.2094 14.4645 11.0399C13.854 10.6454 14.007 9.45294 14.007 8.60694C14.007 5.96244 14.4075 4.85994 13.2255 4.57494C12.8325 4.48044 12.5445 4.41744 11.541 4.40694C10.254 4.39344 9.16353 4.41144 8.54703 4.71294C8.13603 4.91394 7.81953 5.36244 8.01303 5.38794C8.25153 5.41944 8.79153 5.53344 9.07803 5.92344C9.44853 6.42594 9.43503 7.55694 9.43503 7.55694C9.43503 7.55694 9.64803 10.6694 8.93853 11.0564C8.45103 11.3219 7.78353 10.7804 6.35103 8.30394C5.61753 7.03644 5.06253 5.63394 5.06253 5.63394C5.06253 5.63394 4.95603 5.37294 4.76553 5.23344C4.53453 5.06394 4.21053 5.00994 4.21053 5.00994L0.78153 5.03094C0.78153 5.03094 0.26703 5.04594 0.0780297 5.26944C-0.0899703 5.46894 0.0645297 5.87994 0.0645297 5.87994C0.0645297 5.87994 2.74953 12.1604 5.78853 15.3269C8.57703 18.2294 11.742 18.0389 11.742 18.0389Z" fill="#F5F5F5"/>
</g>
<defs>
<clipPath id="clip0_110_144">
<rect width="24" height="24" fill="white"/>
</clipPath>
</defs>
</svg>
