<svg width="64" height="64" viewBox="0 0 64 64" fill="none" xmlns="http://www.w3.org/2000/svg">
<path d="M56 8H48C45.7909 8 44 9.79086 44 12V52C44 54.2091 45.7909 56 48 56H56C58.2091 56 60 54.2091 60 52V12C60 9.79086 58.2091 8 56 8Z" fill="#DCDCDC"/>
<path d="M36 20H28C25.7909 20 24 21.7909 24 24V52C24 54.2091 25.7909 56 28 56H36C38.2091 56 40 54.2091 40 52V24C40 21.7909 38.2091 20 36 20Z" fill="#DCDCDC"/>
<path d="M16 32H8C5.79086 32 4 33.7909 4 36V52C4 54.2091 5.79086 56 8 56H16C18.2091 56 20 54.2091 20 52V36C20 33.7909 18.2091 32 16 32Z" fill="#FFA800"/>
</svg>
