<svg width="64" height="64" viewBox="0 0 64 64" fill="none" xmlns="http://www.w3.org/2000/svg">
<path d="M32 14C24.5739 14 17.452 16.95 12.201 22.201C6.94999 27.452 4 34.5739 4 42C4 43.5913 4.63214 45.1174 5.75736 46.2426C6.88258 47.3679 8.4087 48 10 48H54C55.5913 48 57.1174 47.3679 58.2426 46.2426C59.3679 45.1174 60 43.5913 60 42C60 34.5739 57.05 27.452 51.799 22.201C46.548 16.95 39.4261 14 32 14Z" fill="#FFA800"/>
<path d="M32 16C35.3137 16 38 13.3137 38 10C38 6.68629 35.3137 4 32 4C28.6863 4 26 6.68629 26 10C26 13.3137 28.6863 16 32 16Z" fill="#FFA800"/>
<path d="M58 56H6C5.46957 56 4.96086 55.7893 4.58579 55.4142C4.21071 55.0391 4 54.5304 4 54C4 53.4696 4.21071 52.9609 4.58579 52.5858C4.96086 52.2107 5.46957 52 6 52H58C58.5304 52 59.0391 52.2107 59.4142 52.5858C59.7893 52.9609 60 53.4696 60 54C60 54.5304 59.7893 55.0391 59.4142 55.4142C59.0391 55.7893 58.5304 56 58 56Z" fill="#DCDCDC"/>
</svg>
