<svg width="32" height="32" viewBox="0 0 32 32" fill="none" xmlns="http://www.w3.org/2000/svg">
<path d="M12.0007 13.3327H13.334C13.6876 13.3327 14.0267 13.1922 14.2768 12.9422C14.5268 12.6921 14.6673 12.353 14.6673 11.9993C14.6673 11.6457 14.5268 11.3066 14.2768 11.0565C14.0267 10.8065 13.6876 10.666 13.334 10.666H12.0007C11.647 10.666 11.3079 10.8065 11.0578 11.0565C10.8078 11.3066 10.6673 11.6457 10.6673 11.9993C10.6673 12.353 10.8078 12.6921 11.0578 12.9422C11.3079 13.1922 11.647 13.3327 12.0007 13.3327ZM12.0007 15.9993C11.647 15.9993 11.3079 16.1398 11.0578 16.3899C10.8078 16.6399 10.6673 16.9791 10.6673 17.3327C10.6673 17.6863 10.8078 18.0254 11.0578 18.2755C11.3079 18.5255 11.647 18.666 12.0007 18.666H20.0007C20.3543 18.666 20.6934 18.5255 20.9435 18.2755C21.1935 18.0254 21.334 17.6863 21.334 17.3327C21.334 16.9791 21.1935 16.6399 20.9435 16.3899C20.6934 16.1398 20.3543 15.9993 20.0007 15.9993H12.0007ZM26.6673 11.9193C26.6534 11.7969 26.6266 11.6762 26.5873 11.5593V11.4393C26.5232 11.3023 26.4377 11.1762 26.334 11.066L18.334 3.06602C18.2238 2.9623 18.0977 2.87679 17.9607 2.81268C17.9209 2.80703 17.8805 2.80703 17.8407 2.81268C17.7052 2.735 17.5556 2.68514 17.4007 2.66602H9.33398C8.27312 2.66602 7.2557 3.08744 6.50556 3.83759C5.75541 4.58773 5.33398 5.60515 5.33398 6.66602V25.3327C5.33398 26.3935 5.75541 27.411 6.50556 28.1611C7.2557 28.9113 8.27312 29.3327 9.33398 29.3327H22.6673C23.7282 29.3327 24.7456 28.9113 25.4957 28.1611C26.2459 27.411 26.6673 26.3935 26.6673 25.3327V11.9993C26.6673 11.9993 26.6673 11.9993 26.6673 11.9193ZM18.6673 7.21268L22.1207 10.666H20.0007C19.647 10.666 19.3079 10.5255 19.0578 10.2755C18.8078 10.0254 18.6673 9.6863 18.6673 9.33268V7.21268ZM24.0007 25.3327C24.0007 25.6863 23.8602 26.0254 23.6101 26.2755C23.3601 26.5255 23.0209 26.666 22.6673 26.666H9.33398C8.98036 26.666 8.64122 26.5255 8.39118 26.2755C8.14113 26.0254 8.00065 25.6863 8.00065 25.3327V6.66602C8.00065 6.31239 8.14113 5.97326 8.39118 5.72321C8.64122 5.47316 8.98036 5.33268 9.33398 5.33268H16.0007V9.33268C16.0007 10.3935 16.4221 11.411 17.1722 12.1611C17.9224 12.9113 18.9398 13.3327 20.0007 13.3327H24.0007V25.3327ZM20.0007 21.3327H12.0007C11.647 21.3327 11.3079 21.4732 11.0578 21.7232C10.8078 21.9733 10.6673 22.3124 10.6673 22.666C10.6673 23.0196 10.8078 23.3588 11.0578 23.6088C11.3079 23.8589 11.647 23.9993 12.0007 23.9993H20.0007C20.3543 23.9993 20.6934 23.8589 20.9435 23.6088C21.1935 23.3588 21.334 23.0196 21.334 22.666C21.334 22.3124 21.1935 21.9733 20.9435 21.7232C20.6934 21.4732 20.3543 21.3327 20.0007 21.3327Z" fill="#FFA800"/>
</svg>
