<svg width="24" height="24" viewBox="0 0 24 24" fill="none" xmlns="http://www.w3.org/2000/svg">
<path d="M11.6282 23.9939C5.29627 23.8011 0.198365 18.7032 0.00566761 12.3713L5.35325 12.7963C8.47553 13.0444 10.955 15.5239 11.2032 18.6462L11.6282 23.9939Z" fill="white"/>
<path d="M0.00317383 11.7215C0.148335 5.33527 5.28265 0.181129 11.661 0.00420952L11.6286 0.0932007L11.2032 5.44644C10.955 8.56872 8.47552 11.0482 5.35325 11.2964L0.00317383 11.7215Z" fill="white"/>
<path d="M12.2444 0.00195312C18.6777 0.130478 23.869 5.32176 23.9976 11.7551L23.9063 11.7218L18.553 11.2964C15.4307 11.0482 12.9512 8.56871 12.7031 5.44644L12.2777 0.0932007L12.2444 0.00195312Z" fill="white"/>
<path d="M23.9953 12.3384C23.8185 18.7169 18.6642 23.8512 12.2779 23.9964L12.7031 18.6462C12.9512 15.5239 15.4308 13.0444 18.553 12.7963L23.9063 12.3709L23.9953 12.3384Z" fill="white"/>
</svg>
