<svg width="24" height="24" viewBox="0 0 24 24" fill="none" xmlns="http://www.w3.org/2000/svg">
<path d="M12.653 11.8525L23 3.68852C22.4977 3.19672 21.7945 3 21.0913 3H3.00913C2.30594 3 1.60274 3.29508 1 3.68852L11.4475 11.8525C11.8493 12.0492 12.2511 12.0492 12.653 11.8525Z" fill="#FFA800"/>
<path d="M13.8 14.1544C13.2 14.557 12.6 14.7584 12 14.7584C11.4 14.7584 10.8 14.557 10.3 14.255L0 6V17.9799C0 19.6913 1.3 21 3 21H21C22.7 21 24 19.6913 24 17.9799V6.50336C24 6.30201 24 6.10067 23.9 6L13.8 14.1544Z" fill="#FFA800"/>
</svg>
