<svg width="24" height="24" viewBox="0 0 24 24" fill="none" xmlns="http://www.w3.org/2000/svg">
<path d="M9.4042 17.0954L5.81763 20.7398C5.08289 21.4848 5.08289 22.6946 5.81763 23.4404C6.55161 24.1861 7.74124 24.1861 8.47445 23.4404L12.0007 19.8592L15.524 23.4404C15.8913 23.8128 16.3727 23.9993 16.8541 23.9993C17.3347 23.9993 17.8153 23.8128 18.1827 23.4404C18.9167 22.6946 18.9167 21.4856 18.1835 20.7398L14.5965 17.0954C15.9025 16.7932 17.162 16.2674 18.322 15.5279C19.2 14.9655 19.4637 13.7872 18.9105 12.8945C18.3589 12.0005 17.1988 11.7314 16.3194 12.2938C13.6929 13.9725 10.3094 13.9729 7.68136 12.2938C6.80189 11.7314 5.6422 12.0005 5.08942 12.8945C4.53625 13.7865 4.80074 14.9655 5.67867 15.5279C6.83875 16.2682 8.09825 16.7932 9.4042 17.0954Z" fill="white"/>
<path fill-rule="evenodd" clip-rule="evenodd" d="M18.4323 6.1934C18.4323 9.60767 15.5548 12.385 12.0166 12.385C8.4776 12.385 5.60082 9.60767 5.60082 6.1934C5.60082 2.77803 8.4776 0 12.0166 0C15.5548 0 18.4323 2.77803 18.4323 6.1934ZM9.36027 6.19373C9.36027 4.77971 10.5518 3.62988 12.0167 3.62988C13.4804 3.62988 14.6731 4.77971 14.6731 6.19373C14.6731 7.60664 13.4804 8.75721 12.0167 8.75721C10.5518 8.75721 9.36027 7.60664 9.36027 6.19373Z" fill="white"/>
</svg>
