<svg width="24" height="24" viewBox="0 0 24 24" fill="none" xmlns="http://www.w3.org/2000/svg">
<path d="M21.8564 23.9999C21.8736 23.9999 21.8908 23.9994 21.908 23.9984C22.4527 23.9665 22.9664 23.7352 23.3516 23.3491C23.7368 22.963 23.9667 22.4491 23.9984 21.9049C23.9995 21.887 24 21.8691 24 21.8512V17.5482C24 17.5303 23.9995 17.5124 23.9984 17.4945C23.9667 16.9503 23.7368 16.4363 23.3516 16.0502C22.9664 15.6641 22.4527 15.4329 21.908 15.401C21.89 15.3999 21.872 15.3994 21.8539 15.3994C20.4672 15.3997 19.0893 15.1791 17.7717 14.7458C17.3856 14.6076 16.9678 14.583 16.5679 14.6752C16.1884 14.7627 15.8404 14.9519 15.5608 15.2215L13.113 17.0914C10.4638 15.707 8.302 13.5397 6.92125 10.883L8.77 8.44477C9.02786 8.16512 9.20999 7.82377 9.29871 7.45324C9.39254 7.06136 9.37843 6.65133 9.25786 6.26683L9.25389 6.25448C8.81807 4.93006 8.59652 3.54421 8.59768 2.14954C8.59769 2.13137 8.59717 2.11321 8.59611 2.09508C8.56441 1.55088 8.33444 1.03689 7.94928 0.650825C7.56406 0.264706 7.05042 0.0334614 6.50572 0.00157736C6.48776 0.000526043 6.46977 0 6.45178 0H2.1459C2.12791 0 2.10992 0.000526043 2.09196 0.00157736C1.54726 0.0334615 1.03361 0.264706 0.648401 0.650824C0.263242 1.03689 0.0332688 1.55088 0.00156267 2.09508C0.000521147 2.11296 1.05309e-10 2.13086 1.05309e-10 2.14877C-8.91298e-06 5.02259 0.565595 7.86823 1.66447 10.5227C2.76335 13.1772 4.37395 15.5885 6.40411 17.6184C8.43428 19.6483 10.8441 21.2569 13.4957 22.352C16.1473 23.4471 18.9885 24.0071 21.8564 23.9999Z" fill="#FFA800"/>
</svg>
