<svg width="64" height="64" viewBox="0 0 64 64" fill="none" xmlns="http://www.w3.org/2000/svg">
<g clip-path="url(#clip0_458_235)">
<path d="M32.0006 5.33203C17.2673 5.33203 5.33398 17.2654 5.33398 31.9987C5.33398 46.732 17.2673 58.6654 32.0006 58.6654C46.734 58.6654 58.6673 46.7187 58.6673 31.9987C58.6673 17.2654 46.734 5.33203 32.0006 5.33203ZM32.0006 53.332C20.214 53.332 10.6673 43.7854 10.6673 31.9987C10.6673 20.212 20.214 10.6654 32.0006 10.6654C43.7873 10.6654 53.334 20.212 53.334 31.9987C53.334 43.7854 43.7873 53.332 32.0006 53.332Z" fill="#DCDCDC"/>
<path d="M38.1255 17.2133C40.0679 18.0163 41.8329 19.1944 43.3197 20.68C49.5597 26.9333 49.5597 37.0667 43.3064 43.32C37.053 49.5733 26.933 49.5733 20.6797 43.32L31.9997 32V16C34.1015 15.998 36.1831 16.4103 38.1255 17.2133Z" fill="#FFA800"/>
</g>
<defs>
<clipPath id="clip0_458_235">
<rect width="64" height="64" fill="white"/>
</clipPath>
</defs>
</svg>
