<svg width="50" height="50" viewBox="0 0 50 50" fill="none" xmlns="http://www.w3.org/2000/svg">
<path d="M24.9999 23.773C26.2269 23.773 27.3772 21.8559 27.3772 20.5522C27.3772 19.2485 26.3036 18.1749 24.9999 18.1749C23.6963 18.1749 22.6227 19.2485 22.6227 20.5522C22.6227 21.8559 23.773 23.773 24.9999 23.773ZM26.9938 24.5399C26.457 25 25.6901 25.3067 24.9999 25.3067C24.2331 25.3067 23.5429 25 22.9294 24.4632L20.1687 25.4601C19.9387 25.6902 19.7853 25.9202 19.7853 26.227V29.9846H30.2146V26.227C30.2146 25.9202 30.0612 25.6135 29.8312 25.4601L26.9938 24.5399Z" fill="#23BD56"/>
<path d="M25.0002 13.2667C18.5585 13.2667 13.2672 18.4813 13.2672 24.9997C13.2672 31.4413 18.4818 36.7326 25.0002 36.7326C31.5185 36.7326 36.7331 31.4413 36.7331 24.9997C36.7331 18.558 31.4418 13.2667 25.0002 13.2667ZM31.7485 30.8278C31.7485 31.2112 31.3651 31.5947 30.9817 31.5947H19.0186C18.6352 31.5947 18.2518 31.2112 18.2518 30.8278V26.3033C18.2518 25.4598 18.6352 24.6929 19.3254 24.2328C19.4788 24.1561 19.4021 24.1561 21.856 23.2359C21.3959 22.3923 21.0892 21.4721 21.0892 20.5519C21.0892 18.4047 22.8529 16.6409 25.0002 16.6409C27.1474 16.6409 28.9111 18.4047 28.9111 20.5519C28.9111 21.4721 28.6044 22.469 28.0676 23.2359C30.5982 24.1561 30.4449 24.0794 30.5982 24.1561C31.2884 24.6162 31.7485 25.3831 31.7485 26.2266V30.8278ZM34.8927 16.1808L37.8834 13.19C39.1871 14.2636 40.7975 14.8771 42.5613 14.8771C46.6256 14.8771 49.9998 11.5796 49.9998 7.43855C49.9998 3.37419 46.7023 0 42.5613 0C38.4969 0 35.1227 3.2975 35.1227 7.43855C35.1227 9.20233 35.7362 10.8127 36.8098 12.1164L33.8191 15.1072L34.8927 16.1808ZM38.4202 7.97536C38.4202 7.36187 38.727 6.82506 39.1871 6.51832C39.3405 6.44163 39.3405 6.44163 40.3374 6.13489C40.1073 5.67477 40.0306 5.29134 40.0306 4.83122C40.0306 3.45087 41.1809 2.30058 42.5613 2.30058C43.9416 2.30058 45.0919 3.45087 45.0919 4.83122C45.0919 5.29134 44.9385 5.67477 44.7852 6.13489C45.7054 6.44163 45.7054 6.44163 45.8588 6.51832C46.3189 6.82506 46.6256 7.36187 46.6256 7.97536V10.506C46.6256 10.9661 46.3189 11.2729 45.8588 11.2729H39.2638C38.8037 11.2729 38.4969 10.9661 38.4969 10.506V7.97536H38.4202ZM15.1077 33.8186L12.1169 36.8093C10.8132 35.7357 9.20282 35.1222 7.43904 35.1222C3.37468 35.1222 0.000488281 38.4197 0.000488281 42.5608C0.000488281 46.6251 3.29799 49.9993 7.43904 49.9993C11.5034 49.9993 14.8776 46.7018 14.8776 42.5608C14.8776 40.797 14.2641 39.1866 13.1905 37.8829L16.1813 34.8922L15.1077 33.8186ZM11.5801 45.4749C11.5801 45.935 11.2733 46.2417 10.8132 46.2417H4.14154C3.68142 46.2417 3.37468 45.935 3.37468 45.4749V42.9442C3.37468 42.3307 3.68142 41.7939 4.14154 41.4872C4.29491 41.4872 4.3716 41.4872 5.29183 41.1037C5.06177 40.6436 4.98509 40.2602 4.98509 39.8001C4.98509 38.4197 6.13538 37.2694 7.51573 37.2694C8.89608 37.2694 10.0464 38.4197 10.0464 39.8001C10.0464 40.2602 9.893 40.6436 9.73962 41.1037C10.7365 41.4872 10.7365 41.4872 10.8899 41.5639C11.35 41.8706 11.6568 42.4074 11.6568 43.0209V45.4749H11.5801Z" fill="#23BD56"/>
<path d="M45.092 7.9754C45.092 7.89871 45.092 7.89871 45.0153 7.82202L43.7116 7.36191C42.9448 7.89871 42.0245 7.89871 41.3343 7.36191L40.0307 7.82202C40.0307 7.82202 39.954 7.89871 39.954 7.9754V9.73918H45.0153V7.9754H45.092ZM42.7914 6.13493C43.1748 5.90487 43.4816 5.2147 43.4816 4.75458C43.4816 4.21778 43.0214 3.75766 42.4846 3.75766C41.9478 3.75766 41.4877 4.21778 41.4877 4.75458C41.5644 5.44475 42.1779 6.51836 42.7914 6.13493ZM10.0464 7.9754C10.0464 7.89871 10.0464 7.89871 9.96973 7.82202L8.66607 7.36191C7.89921 7.89871 6.97897 7.89871 6.2888 7.36191L4.98513 7.82202C4.98513 7.82202 4.90845 7.89871 4.90845 7.9754V9.73918H9.96973V7.9754H10.0464ZM7.74583 6.13493C8.12926 5.90487 8.43601 5.2147 8.43601 4.75458C8.43601 4.21778 7.97589 3.75766 7.43909 3.75766C6.97897 3.83435 6.51886 4.29446 6.51886 4.75458C6.51886 5.44475 7.13234 6.51836 7.74583 6.13493Z" fill="#23BD56"/>
<path d="M7.51558 14.8771C9.27936 14.8771 10.8898 14.2636 12.1934 13.19L15.1842 16.1808C15.4909 15.7973 15.8744 15.4139 16.2578 15.1072L13.267 12.1164C14.3406 10.8127 14.9541 9.20233 14.9541 7.43855C14.9541 3.37419 11.6566 0 7.51558 0C3.45122 0 0.0770264 3.2975 0.0770264 7.43855C0.0770264 11.5796 3.37453 14.8771 7.51558 14.8771ZM3.37453 7.97536C3.37453 7.36187 3.68127 6.82506 4.14139 6.51832C4.29476 6.44163 4.37145 6.44163 5.29168 6.13489C5.13831 5.67477 4.98494 5.21465 4.98494 4.75454C4.98494 3.37419 6.13523 2.2239 7.51558 2.2239C8.89593 2.2239 10.0462 3.37419 10.0462 4.75454C10.0462 5.21465 9.89285 5.59809 9.73948 6.0582C10.7364 6.44163 10.7364 6.44163 10.8898 6.51832C11.3499 6.82506 11.6566 7.36187 11.6566 7.97536V10.506C11.6566 10.9661 11.3499 11.2729 10.8898 11.2729H4.14139C3.68127 11.2729 3.37453 10.9661 3.37453 10.506V7.97536ZM43.7114 42.4074C42.9446 42.9442 42.0243 42.9442 41.3342 42.4074L40.0305 42.8675C40.0305 42.8675 39.9538 42.9442 39.9538 43.0209V44.7847H45.0151V43.0209C45.0151 42.9442 45.0151 42.9442 44.9384 42.8675L43.7114 42.4074ZM42.7912 41.1804C43.1746 40.9504 43.4814 40.2602 43.4814 39.8001C43.4814 39.2633 43.0212 38.8032 42.4844 38.8032C41.9476 38.8032 41.4875 39.2633 41.4875 39.8001C41.5642 40.4903 42.1777 41.4872 42.7912 41.1804Z" fill="#23BD56"/>
<path d="M42.4846 35.1225C40.7209 35.1225 39.1105 35.736 37.8068 36.8096L34.816 33.8189C34.5093 34.2023 34.1259 34.5857 33.7424 34.8925L36.7332 37.8832C35.6596 39.1869 35.0461 40.7973 35.0461 42.5611C35.0461 46.6255 38.3436 49.9996 42.4846 49.9996C46.549 49.9996 49.9232 46.7021 49.9232 42.5611C49.9232 38.42 46.6257 35.1225 42.4846 35.1225ZM46.6257 45.4752C46.6257 45.9353 46.319 46.242 45.8588 46.242H39.2638C38.8037 46.242 38.497 45.9353 38.497 45.4752V42.9445C38.497 42.331 38.8037 41.7942 39.2638 41.4875C39.4172 41.4108 39.4172 41.4108 40.4141 41.1041C40.1841 40.6439 40.1074 40.2605 40.1074 39.8004C40.1074 38.42 41.2577 37.2698 42.638 37.2698C44.0184 37.2698 45.1687 38.42 45.1687 39.8004C45.1687 40.2605 45.0153 40.6439 44.8619 41.1041C45.8588 41.4875 45.8588 41.4875 46.0122 41.5642C46.4723 41.8709 46.7791 42.4077 46.7791 43.0212V45.4752H46.6257ZM8.66607 42.4077C7.89921 42.9445 6.97897 42.9445 6.2888 42.4077L4.98513 42.8678C4.98513 42.8678 4.90845 42.9445 4.90845 43.0212V44.785H9.96973V43.0212C9.96973 42.9445 9.96973 42.9445 9.89304 42.8678L8.66607 42.4077ZM7.74583 41.1807C8.12926 40.9507 8.43601 40.2605 8.43601 39.8004C8.43601 39.2636 7.97589 38.8035 7.43909 38.8035C6.90229 38.8035 6.44217 39.2636 6.44217 39.8004C6.51886 40.4906 7.13234 41.4875 7.74583 41.1807Z" fill="#23BD56"/>
</svg>
