<svg width="44" height="50" viewBox="0 0 44 50" fill="none" xmlns="http://www.w3.org/2000/svg">
<path d="M36.4849 35.5167C36.3327 35.4535 36.1651 35.4368 36.0035 35.4689C35.8418 35.5009 35.6932 35.5802 35.5766 35.6967L31.3599 39.915C31.0066 40.265 30.5666 40.5017 30.0816 40.5983L24.9883 41.6183C24.5846 41.7 24.167 41.6805 23.7728 41.5616C23.3785 41.4426 23.0198 41.2279 22.7287 40.9366C22.4376 40.6453 22.2231 40.2865 22.1043 39.8922C21.9856 39.4979 21.9663 39.0803 22.0483 38.6767L23.0683 33.58C23.1649 33.0967 23.4016 32.6533 23.7516 32.3033L36.1483 19.9083C36.2716 19.785 36.4099 19.6833 36.6783 19.4783C36.7785 19.4004 36.8596 19.3005 36.9153 19.1864C36.9711 19.0723 37 18.947 36.9999 18.82V8.33333C36.9999 6.495 35.5049 5 33.6666 5H28.5133C28.1683 4.03333 27.2516 3.33333 26.1666 3.33333H23.3816C22.6833 1.36667 20.7999 0 18.6666 0C16.5333 0 14.6483 1.36667 13.9516 3.33333H11.1666C10.6514 3.33547 10.1494 3.49674 9.72934 3.79507C9.30928 4.09341 8.99166 4.51424 8.81992 5H3.66659C1.82825 5 0.333252 6.495 0.333252 8.33333V46.6667C0.333252 48.505 1.82825 50 3.66659 50H33.6666C35.5049 50 36.9999 48.505 36.9999 46.6667V36.2867C36.9999 36.1218 36.9509 35.9606 36.8593 35.8235C36.7676 35.6864 36.6373 35.5797 36.4849 35.5167ZM10.3333 5.83333C10.3333 5.61232 10.421 5.40036 10.5773 5.24408C10.7336 5.0878 10.9456 5 11.1666 5H14.5833C14.7754 5.00004 14.9616 4.9337 15.1104 4.81222C15.2592 4.69073 15.3615 4.52156 15.3999 4.33333C15.7149 2.78833 17.0883 1.66667 18.6666 1.66667C20.2449 1.66667 21.6183 2.78833 21.9333 4.33333C21.9717 4.52156 22.0739 4.69073 22.2228 4.81222C22.3716 4.9337 22.5578 5.00004 22.7499 5H26.1666C26.3876 5 26.5996 5.0878 26.7558 5.24408C26.9121 5.40036 26.9999 5.61232 26.9999 5.83333V6.66667C26.9999 7.585 26.2516 8.33333 25.3333 8.33333H11.9999C11.0816 8.33333 10.3333 7.585 10.3333 6.66667V5.83333ZM9.49992 18.3333H27.8333C28.0543 18.3333 28.2662 18.4211 28.4225 18.5774C28.5788 18.7337 28.6666 18.9457 28.6666 19.1667C28.6666 19.3877 28.5788 19.5996 28.4225 19.7559C28.2662 19.9122 28.0543 20 27.8333 20H9.49992C9.2789 20 9.06694 19.9122 8.91066 19.7559C8.75438 19.5996 8.66659 19.3877 8.66659 19.1667C8.66659 18.9457 8.75438 18.7337 8.91066 18.5774C9.06694 18.4211 9.2789 18.3333 9.49992 18.3333ZM9.49992 25H26.9999C27.2209 25 27.4329 25.0878 27.5892 25.2441C27.7455 25.4004 27.8333 25.6123 27.8333 25.8333C27.8333 26.0543 27.7455 26.2663 27.5892 26.4226C27.4329 26.5789 27.2209 26.6667 26.9999 26.6667H9.49992C9.2789 26.6667 9.06694 26.5789 8.91066 26.4226C8.75438 26.2663 8.66659 26.0543 8.66659 25.8333C8.66659 25.6123 8.75438 25.4004 8.91066 25.2441C9.06694 25.0878 9.2789 25 9.49992 25ZM19.4999 40H9.49992C9.2789 40 9.06694 39.9122 8.91066 39.7559C8.75438 39.5996 8.66659 39.3877 8.66659 39.1667C8.66659 38.9457 8.75438 38.7337 8.91066 38.5774C9.06694 38.4211 9.2789 38.3333 9.49992 38.3333H19.4999C19.7209 38.3333 19.9329 38.4211 20.0892 38.5774C20.2455 38.7337 20.3333 38.9457 20.3333 39.1667C20.3333 39.3877 20.2455 39.5996 20.0892 39.7559C19.9329 39.9122 19.7209 40 19.4999 40ZM21.1666 33.3333H9.49992C9.2789 33.3333 9.06694 33.2455 8.91066 33.0893C8.75438 32.933 8.66659 32.721 8.66659 32.5C8.66659 32.279 8.75438 32.067 8.91066 31.9107C9.06694 31.7545 9.2789 31.6667 9.49992 31.6667H21.1666C21.3876 31.6667 21.5996 31.7545 21.7558 31.9107C21.9121 32.067 21.9999 32.279 21.9999 32.5C21.9999 32.721 21.9121 32.933 21.7558 33.0893C21.5996 33.2455 21.3876 33.3333 21.1666 33.3333Z" fill="#23BD56"/>
<path d="M39.9516 20C38.9616 20 38.0283 20.385 37.3266 21.0867L36.2933 22.12C36.2157 22.1974 36.1541 22.2894 36.1121 22.3906C36.0701 22.4919 36.0484 22.6004 36.0484 22.71C36.0484 22.8196 36.0701 22.9281 36.1121 23.0294C36.1541 23.1306 36.2157 23.2226 36.2933 23.3L40.3666 27.3733C40.4438 27.4511 40.5355 27.5128 40.6367 27.5549C40.7378 27.597 40.8462 27.6187 40.9558 27.6187C41.0653 27.6187 41.1738 27.597 41.2749 27.5549C41.376 27.5128 41.4678 27.4511 41.5449 27.3733L42.5783 26.34C43.2799 25.64 43.6666 24.7067 43.6666 23.715C43.6666 21.665 41.9999 20 39.9516 20ZM35.1133 24.4783C34.957 24.3221 34.7451 24.2343 34.5241 24.2343C34.3031 24.2343 34.0912 24.3221 33.9349 24.4783L24.9299 33.4817C24.8134 33.5982 24.7339 33.7467 24.7016 33.9083L23.6833 39.0033C23.6565 39.1378 23.6633 39.2767 23.7031 39.4079C23.7429 39.539 23.8144 39.6584 23.9113 39.7553C24.0082 39.8522 24.1276 39.9237 24.2587 39.9635C24.3899 40.0033 24.5288 40.0101 24.6633 39.9833L29.7533 38.965C29.9149 38.9327 30.0634 38.8532 30.1799 38.7367L39.1883 29.73C39.3445 29.5737 39.4323 29.3618 39.4323 29.1408C39.4323 28.9199 39.3445 28.7079 39.1883 28.5517L35.1133 24.4783Z" fill="#23BD56"/>
</svg>
