<svg width="20" height="20" viewBox="0 0 20 20" fill="none" xmlns="http://www.w3.org/2000/svg">
<path d="M18.9225 17.7442L11.1782 9.99996L18.9225 2.25572C19.2345 1.93284 19.2345 1.42086 18.9225 1.09788C18.6028 0.766868 18.0752 0.757712 17.7442 1.07743L9.99996 8.82168L2.25582 1.07754C1.93294 0.765647 1.42096 0.765647 1.09798 1.07754C0.766968 1.39726 0.757813 1.92481 1.07754 2.25582L8.82168 9.99996L1.07754 17.7441C0.921285 17.9004 0.833496 18.1122 0.833496 18.3332C0.833394 18.7934 1.20652 19.1665 1.66673 19.1666C1.88778 19.1668 2.09977 19.0789 2.25582 18.9224L9.99996 11.1782L17.7442 18.9225C17.9002 19.079 18.1123 19.1669 18.3334 19.1666C18.5542 19.1665 18.766 19.0788 18.9223 18.9227C19.2478 18.5973 19.2479 18.0696 18.9225 17.7442Z" fill="#555555"/>
</svg>
