<svg width="20" height="20" viewBox="0 0 20 20" fill="none" xmlns="http://www.w3.org/2000/svg">
<path d="M17.5 11.6667C17.2789 11.6667 17.067 11.7545 16.9107 11.9107C16.7544 12.067 16.6666 12.279 16.6666 12.5V15.8333C16.6666 16.0543 16.5788 16.2663 16.4225 16.4226C16.2663 16.5789 16.0543 16.6667 15.8333 16.6667H4.16663C3.94561 16.6667 3.73365 16.5789 3.57737 16.4226C3.42109 16.2663 3.33329 16.0543 3.33329 15.8333V12.5C3.33329 12.279 3.2455 12.067 3.08921 11.9107C2.93293 11.7545 2.72097 11.6667 2.49996 11.6667C2.27895 11.6667 2.06698 11.7545 1.9107 11.9107C1.75442 12.067 1.66663 12.279 1.66663 12.5V15.8333C1.66663 16.4964 1.93002 17.1322 2.39886 17.6011C2.8677 18.0699 3.50358 18.3333 4.16663 18.3333H15.8333C16.4963 18.3333 17.1322 18.0699 17.6011 17.6011C18.0699 17.1322 18.3333 16.4964 18.3333 15.8333V12.5C18.3333 12.279 18.2455 12.067 18.0892 11.9107C17.9329 11.7545 17.721 11.6667 17.5 11.6667ZM9.40829 13.0917C9.48755 13.1675 9.581 13.227 9.68329 13.2667C9.78304 13.3107 9.8909 13.3335 9.99996 13.3335C10.109 13.3335 10.2169 13.3107 10.3166 13.2667C10.4189 13.227 10.5124 13.1675 10.5916 13.0917L13.925 9.75832C14.0819 9.6014 14.17 9.38857 14.17 9.16666C14.17 8.94474 14.0819 8.73191 13.925 8.57499C13.768 8.41807 13.5552 8.32991 13.3333 8.32991C13.1114 8.32991 12.8985 8.41807 12.7416 8.57499L10.8333 10.4917V2.49999C10.8333 2.27898 10.7455 2.06701 10.5892 1.91073C10.4329 1.75445 10.221 1.66666 9.99996 1.66666C9.77894 1.66666 9.56698 1.75445 9.4107 1.91073C9.25442 2.06701 9.16663 2.27898 9.16663 2.49999V10.4917L7.25829 8.57499C7.18059 8.49729 7.08835 8.43566 6.98683 8.39361C6.88532 8.35156 6.77651 8.32991 6.66663 8.32991C6.55674 8.32991 6.44794 8.35156 6.34642 8.39361C6.2449 8.43566 6.15266 8.49729 6.07496 8.57499C5.99726 8.65269 5.93563 8.74493 5.89358 8.84645C5.85153 8.94797 5.82988 9.05677 5.82988 9.16666C5.82988 9.27654 5.85153 9.38535 5.89358 9.48686C5.93563 9.58838 5.99726 9.68062 6.07496 9.75832L9.40829 13.0917Z" fill="white"/>
</svg>
