<svg width="40" height="40" viewBox="0 0 40 40" fill="none" xmlns="http://www.w3.org/2000/svg">
<path d="M21.604 5.74147C21.4695 5.59444 21.3048 5.48189 21.1225 5.41248C20.9403 5.34307 20.7453 5.31865 20.5527 5.3411C22.0261 7.61295 22.9362 10.2373 23.2 12.9748C23.2373 15.8492 22.1917 18.6219 20.2923 20.6857C18.393 22.7494 15.7947 23.9358 13.0667 23.9849C11.5737 23.9826 10.1009 23.6221 8.76 22.9306C8.30453 24.1162 8.0474 25.376 8 26.6541C8 30.1935 9.33452 33.588 11.71 36.0908C14.0854 38.5936 17.3073 39.9997 20.6667 39.9997C24.0261 39.9997 27.2479 38.5936 29.6234 36.0908C31.9988 33.588 33.3333 30.1935 33.3333 26.6541C33.3333 19.7143 22.8073 7.15611 21.604 5.74147Z" fill="white"/>
<path d="M21.3312 13.7953C21.3312 9.31009 15.0662 1.3867 14.3464 0.495321C14.2213 0.339995 14.0659 0.215289 13.8911 0.129782C13.7162 0.0442763 13.5259 0 13.3334 0C13.1408 0 12.9506 0.0442763 12.7757 0.129782C12.6008 0.215289 12.4455 0.339995 12.3203 0.495321C11.6005 1.4433 5.33555 9.31009 5.33555 13.7953C5.31077 14.9355 5.49811 16.0698 5.88683 17.133C6.27556 18.1963 6.85804 19.1678 7.60093 19.9918C8.34381 20.8158 9.23252 21.4763 10.2162 21.9352C11.1998 22.3942 12.2591 22.6428 13.3334 22.6667C14.4076 22.6428 15.4669 22.3942 16.4506 21.9352C17.4342 21.4763 18.3229 20.8158 19.0658 19.9918C19.8087 19.1678 20.3912 18.1963 20.7799 17.133C21.1686 16.0698 21.356 14.9355 21.3312 13.7953Z" fill="white"/>
</svg>
