<svg width="30" height="40" viewBox="0 0 30 40" fill="none" xmlns="http://www.w3.org/2000/svg">
<path d="M29.6106 23.8484L29.5826 23.4631C29.1359 17.5191 26.5706 13.7764 24.3093 10.4737C22.1759 7.3604 20.3333 4.66973 20.3333 0.667065C20.3333 0.543928 20.2993 0.423176 20.2349 0.3182C20.1706 0.213223 20.0784 0.128124 19.9686 0.0723385C19.8588 0.0165531 19.7358 -0.00773891 19.613 0.0021563C19.4903 0.0120515 19.3727 0.0557472 19.2733 0.128398C15.3213 3.01506 12.0199 7.55906 11.0586 11.4351C10.2493 14.7044 9.76792 17.6897 9.68125 19.9511C6.12259 19.3804 5.68259 14.1844 5.66525 13.9511C5.65691 13.8401 5.62091 13.733 5.56055 13.6395C5.5002 13.546 5.41739 13.4691 5.3197 13.4158C5.222 13.3625 5.11252 13.3345 5.00124 13.3344C4.88995 13.3343 4.78041 13.362 4.68259 13.4151C4.51592 13.5057 0.589252 15.7284 0.350585 24.1977C0.333252 24.4791 0.333252 24.7604 0.333252 25.0431C0.333252 33.2911 6.91325 40.0004 14.9999 40.0004H15.0333C23.1066 39.9817 29.6666 33.2804 29.6666 25.0431C29.6666 24.6257 29.6386 24.2364 29.6106 23.8484ZM9.66659 32.9284C9.66659 32.8204 9.66659 32.7137 9.67325 32.5844C9.71459 31.0511 10.0333 30.0617 10.3546 29.4457C10.7466 30.5391 11.5493 31.6324 12.9999 31.6324C13.1767 31.6324 13.3463 31.5622 13.4713 31.4371C13.5963 31.3121 13.6666 31.1425 13.6666 30.9657C13.6666 30.0097 13.8746 28.5831 14.2373 27.0524C14.5186 25.8644 15.3839 24.4604 16.4733 23.3551C16.7706 24.7551 17.4933 25.8564 18.1959 26.9311C19.1453 28.3791 20.1266 29.8777 20.2999 32.2844L20.3106 32.4511C20.3213 32.6057 20.3333 32.7604 20.3333 32.9284C20.3333 36.0924 17.9413 38.6671 14.9999 38.6671C12.0586 38.6671 9.66659 36.0937 9.66659 32.9284Z" fill="white"/>
</svg>
