<svg width="50" height="50" viewBox="0 0 50 50" fill="none" xmlns="http://www.w3.org/2000/svg">
<path d="M45.4545 15.9091H38.6364V4.54545C38.6364 2.04545 36.5909 0 34.0909 0H15.9091C13.4091 0 11.3636 2.04545 11.3636 4.54545V15.9091H4.54545C2.04545 15.9091 0 17.9545 0 20.4545V48.8636C0 49.5455 0.454545 50 1.13636 50H48.8636C49.5455 50 50 49.5455 50 48.8636V20.4545C50 17.9545 47.9545 15.9091 45.4545 15.9091ZM13.6364 30.6818C13.6364 31.3636 13.1818 31.8182 12.5 31.8182H5.68182C5 31.8182 4.54545 31.3636 4.54545 30.6818V23.8636C4.54545 23.1818 5 22.7273 5.68182 22.7273H12.5C13.1818 22.7273 13.6364 23.1818 13.6364 23.8636V30.6818ZM23.8636 46.5909C23.8636 47.2727 23.4091 47.7273 22.7273 47.7273H17.0455C16.3636 47.7273 15.9091 47.2727 15.9091 46.5909V32.9545C15.9091 32.2727 16.3636 31.8182 17.0455 31.8182H22.7273C23.4091 31.8182 23.8636 32.2727 23.8636 32.9545V46.5909ZM25 20.4545H24.5455C19.0909 17.9545 18.1818 15.9091 18.1818 10.9091V7.5C18.1818 7.04545 18.4091 6.59091 19.0909 6.36364L24.7727 4.54545H25.4545L31.1364 6.36364C31.5909 6.36364 31.8182 6.81818 31.8182 7.5V11.1364C31.8182 16.1364 30.9091 17.9545 25.4545 20.4545H25ZM34.0909 46.5909C34.0909 47.2727 33.6364 47.7273 32.9545 47.7273H27.2727C26.5909 47.7273 26.1364 47.2727 26.1364 46.5909V32.9545C26.1364 32.2727 26.5909 31.8182 27.2727 31.8182H32.9545C33.6364 31.8182 34.0909 32.2727 34.0909 32.9545V46.5909ZM45.4545 30.6818C45.4545 31.3636 45 31.8182 44.3182 31.8182H37.5C36.8182 31.8182 36.3636 31.3636 36.3636 30.6818V23.8636C36.3636 23.1818 36.8182 22.7273 37.5 22.7273H44.3182C45 22.7273 45.4545 23.1818 45.4545 23.8636V30.6818Z" fill="#23BD56"/>
</svg>
