<svg width="28" height="40" viewBox="0 0 28 40" fill="none" xmlns="http://www.w3.org/2000/svg">
<path d="M27.2549 14.4913C27.1906 14.3662 27.0903 14.2607 26.9655 14.1868C26.8407 14.113 26.6963 14.0739 26.5491 14.0739H18.3766L24.905 1.05755C24.9617 0.944662 24.9872 0.820063 24.9792 0.695355C24.9711 0.570647 24.9298 0.449888 24.8591 0.344324C24.7883 0.23876 24.6904 0.151827 24.5745 0.0916213C24.4586 0.0314158 24.3284 -0.000103205 24.1961 2.53879e-07H11.6472C11.4959 -2.19325e-05 11.3478 0.0412799 11.2208 0.118928C11.0938 0.196575 10.9933 0.307254 10.9314 0.437625L0.735419 21.9189C0.681852 22.0317 0.659034 22.1554 0.669045 22.2786C0.679057 22.4019 0.72158 22.5209 0.792738 22.6246C0.863896 22.7284 0.961424 22.8137 1.07643 22.8728C1.19144 22.9318 1.32027 22.9627 1.45118 22.9627H9.1054L5.39068 39.1012C5.3528 39.2649 5.37484 39.436 5.45321 39.5863C5.53158 39.7367 5.66164 39.8576 5.82214 39.9291C5.98264 40.0007 6.16408 40.0187 6.33683 39.9802C6.50957 39.9418 6.6634 39.8491 6.77318 39.7174L27.1652 15.2733C27.2563 15.164 27.313 15.0327 27.3288 14.8944C27.3447 14.7562 27.3191 14.6165 27.2549 14.4913Z" fill="white"/>
</svg>
