<svg width="50" height="50" viewBox="0 0 50 50" fill="none" xmlns="http://www.w3.org/2000/svg">
<path d="M25 0.000244141C11.1875 0.000244141 0 11.1877 0 25.0002C0 38.8127 11.1875 50.0002 25 50.0002C38.8125 50.0002 50 38.8127 50 25.0002C50 11.1877 38.8125 0.000244141 25 0.000244141ZM25 7.50024C29.1375 7.50024 32.5 10.8627 32.5 15.0002C32.5 19.1502 29.1375 22.5002 25 22.5002C20.8625 22.5002 17.5 19.1502 17.5 15.0002C17.5 10.8627 20.8625 7.50024 25 7.50024ZM25 43.0002C18.7375 43.0002 13.2375 39.8002 10 34.9502C10.0625 29.9877 20.0125 27.2502 25 27.2502C29.9875 27.2502 39.925 29.9877 40 34.9502C36.7625 39.8002 31.2625 43.0002 25 43.0002Z" fill="#23BD56"/>
</svg>
