<svg width="16" height="20" viewBox="0 0 16 20" fill="none" xmlns="http://www.w3.org/2000/svg">
<path d="M0.5 7.5C0.5 5.51088 1.29018 3.60322 2.6967 2.1967C4.10322 0.790176 6.01088 0 8 0C9.98912 0 11.8968 0.790176 13.3033 2.1967C14.7098 3.60322 15.5 5.51088 15.5 7.5C15.5 12.5 8 20 8 20C8 20 0.5 12.5 0.5 7.5ZM4.875 7.5C4.875 8.3288 5.20424 9.12366 5.79029 9.70971C6.37634 10.2958 7.1712 10.625 8 10.625C8.8288 10.625 9.62366 10.2958 10.2097 9.70971C10.7958 9.12366 11.125 8.3288 11.125 7.5C11.125 6.6712 10.7958 5.87634 10.2097 5.29029C9.62366 4.70424 8.8288 4.375 8 4.375C7.1712 4.375 6.37634 4.70424 5.79029 5.29029C5.20424 5.87634 4.875 6.6712 4.875 7.5Z" fill="white"/>
</svg>
