<svg width="28" height="28" viewBox="0 0 28 28" fill="none" xmlns="http://www.w3.org/2000/svg">
<path d="M19.2032 15.4719C17.9309 17.3913 16.5522 19.2379 15.0735 21.0031C14.9113 21.1899 14.7027 21.3305 14.4688 21.4109V27.4531L20.1547 25.4234L19.2032 15.4719ZM12.9266 20.9984C11.4462 19.2362 10.0674 17.391 8.79691 15.4719L7.85941 25.4234L13.5313 27.4531V21.4109C13.2961 21.3307 13.0871 21.1881 12.9266 20.9984ZM21.0969 25.4703L26.9657 27.5656C27.044 27.5958 27.129 27.6044 27.2118 27.5905C27.2947 27.5766 27.3722 27.5407 27.4364 27.4866C27.5006 27.4324 27.5491 27.3621 27.5767 27.2828C27.6044 27.2035 27.6103 27.1183 27.5938 27.0359L25.7188 17.1922C25.7037 17.1164 25.6702 17.0455 25.6211 16.9858C25.5721 16.9261 25.509 16.8794 25.4375 16.85L20.0657 14.6141L21.0969 25.4703ZM1.03441 27.5656L6.90316 25.4703L7.93441 14.6141L2.57191 16.85C2.50046 16.8794 2.43739 16.9261 2.38832 16.9858C2.33925 17.0455 2.3057 17.1164 2.29066 17.1922L0.415662 27.0359C0.400038 27.1172 0.406193 27.2011 0.433501 27.2792C0.460808 27.3573 0.508296 27.4268 0.57114 27.4806C0.633985 27.5344 0.709948 27.5706 0.791315 27.5855C0.872681 27.6004 0.956553 27.5936 1.03441 27.5656ZM14.3563 20.3984C14.6516 20.0516 21.5 11.9141 21.5 7.90625C21.5 5.91713 20.7099 4.00947 19.3033 2.60295C17.8968 1.19643 15.9892 0.40625 14 0.40625C12.0109 0.40625 10.1033 1.19643 8.69674 2.60295C7.29021 4.00947 6.50004 5.91713 6.50004 7.90625C6.50004 11.9141 13.3485 20.0516 13.6438 20.3984C13.6878 20.4499 13.7424 20.4912 13.8039 20.5195C13.8654 20.5479 13.9323 20.5625 14 20.5625C14.0677 20.5625 14.1347 20.5479 14.1962 20.5195C14.2576 20.4912 14.3123 20.4499 14.3563 20.3984ZM10.7188 7.90625C10.7188 7.25728 10.9112 6.62288 11.2718 6.08329C11.6323 5.54369 12.1448 5.12312 12.7444 4.87477C13.3439 4.62642 14.0037 4.56144 14.6402 4.68805C15.2767 4.81466 15.8613 5.12716 16.3202 5.58606C16.7791 6.04495 17.0916 6.62961 17.2182 7.26611C17.3448 7.90261 17.2799 8.56236 17.0315 9.16193C16.7832 9.7615 16.3626 10.274 15.823 10.6345C15.2834 10.9951 14.649 11.1875 14 11.1875C13.1298 11.1875 12.2952 10.8418 11.6798 10.2264C11.0645 9.61109 10.7188 8.77649 10.7188 7.90625Z" fill="#23BD56"/>
</svg>
