<svg width="40" height="50" viewBox="0 0 40 50" fill="none" xmlns="http://www.w3.org/2000/svg">
<path d="M32.5 17.5002V12.5002C32.5 5.50024 27 0.000244141 20 0.000244141C13 0.000244141 7.5 5.50024 7.5 12.5002V17.5002C3.25 17.5002 0 20.7502 0 25.0002V42.5002C0 46.7502 3.25 50.0002 7.5 50.0002H32.5C36.75 50.0002 40 46.7502 40 42.5002V25.0002C40 20.7502 36.75 17.5002 32.5 17.5002ZM12.5 12.5002C12.5 8.25025 15.75 5.00024 20 5.00024C24.25 5.00024 27.5 8.25025 27.5 12.5002V17.5002H12.5V12.5002ZM22.75 33.7502L22.5 34.0002V37.5002C22.5 39.0002 21.5 40.0002 20 40.0002C18.5 40.0002 17.5 39.0002 17.5 37.5002V34.0002C16 32.5002 15.75 30.2502 17.25 28.7502C18.75 27.2502 21 27.0002 22.5 28.5002C24 29.7502 24.25 32.2502 22.75 33.7502Z" fill="#23BD56"/>
</svg>
