<svg width="30" height="30" viewBox="0 0 30 30" fill="none" xmlns="http://www.w3.org/2000/svg">
<path d="M15 13.8844L26.9813 6.1875C26.4996 5.8262 25.9147 5.62903 25.3125 5.625H4.68755C4.08543 5.62903 3.50049 5.8262 3.0188 6.1875L15 13.8844Z" fill="#23BD56"/>
<path d="M15.5063 15.7875L15.3469 15.8625H15.2719C15.1856 15.9011 15.0939 15.9264 15 15.9375C14.9222 15.9473 14.8434 15.9473 14.7656 15.9375H14.6906L14.5312 15.8625L1.96875 7.74377C1.90873 7.97022 1.87724 8.20327 1.875 8.43752V21.5625C1.875 22.3084 2.17132 23.0238 2.69876 23.5513C3.22621 24.0787 3.94158 24.375 4.6875 24.375H25.3125C26.0584 24.375 26.7738 24.0787 27.3012 23.5513C27.8287 23.0238 28.125 22.3084 28.125 21.5625V8.43752C28.1228 8.20327 28.0913 7.97022 28.0312 7.74377L15.5063 15.7875Z" fill="#23BD56"/>
</svg>
