<svg width="28" height="28" viewBox="0 0 28 28" fill="none" xmlns="http://www.w3.org/2000/svg">
<path d="M11.39 6.56C11.0319 2.44062 6.73439 0.419374 6.55252 0.336874C6.38249 0.25695 6.19196 0.231414 6.00689 0.263749C1.04564 1.08687 0.29939 3.97437 0.26939 4.09437C0.228574 4.2616 0.235065 4.43688 0.28814 4.60062C6.20564 22.9606 18.5038 26.3638 22.5463 27.4831C22.8575 27.5694 23.1144 27.6388 23.3094 27.7025C23.5319 27.7752 23.7737 27.7611 23.9863 27.6631C24.11 27.6069 27.0313 26.2306 27.7456 21.7419C27.7773 21.5459 27.7458 21.345 27.6556 21.1681C27.5919 21.0444 26.0638 18.1362 21.8263 17.1087C21.6825 17.072 21.532 17.0707 21.3876 17.105C21.2432 17.1393 21.1094 17.2081 20.9975 17.3056C19.6606 18.4475 17.8138 19.6644 17.0169 19.79C11.675 17.1781 8.69189 12.1662 8.57939 11.2156C8.51377 10.6812 9.73814 8.80437 11.1463 7.27812C11.2348 7.18207 11.3022 7.06855 11.3442 6.94487C11.3861 6.82118 11.4018 6.69008 11.39 6.56Z" fill="#23BD56"/>
</svg>
