<svg width="30" height="30" viewBox="0 0 30 30" fill="none" xmlns="http://www.w3.org/2000/svg">
<path d="M15 23.4375C19.6599 23.4375 23.4375 19.6599 23.4375 15C23.4375 10.3401 19.6599 6.5625 15 6.5625C10.3401 6.5625 6.5625 10.3401 6.5625 15C6.5625 19.6599 10.3401 23.4375 15 23.4375Z" fill="white"/>
<path d="M16.4062 3.88031V1.875C16.4062 1.50204 16.2581 1.14435 15.9944 0.880631C15.7306 0.616908 15.373 0.46875 15 0.46875C14.627 0.46875 14.2694 0.616908 14.0056 0.880631C13.7419 1.14435 13.5938 1.50204 13.5938 1.875V3.88031C13.5938 4.25327 13.7419 4.61096 14.0056 4.87468C14.2694 5.1384 14.627 5.28656 15 5.28656C15.373 5.28656 15.7306 5.1384 15.9944 4.87468C16.2581 4.61096 16.4062 4.25327 16.4062 3.88031ZM8.13188 8.13094C8.39551 7.86723 8.54361 7.50961 8.54361 7.13672C8.54361 6.76383 8.39551 6.40621 8.13188 6.1425L6.7125 4.725C6.58331 4.58848 6.42805 4.47924 6.25592 4.40374C6.08378 4.32825 5.89826 4.28803 5.71032 4.28546C5.52237 4.28289 5.33582 4.31802 5.16168 4.38878C4.98755 4.45955 4.82937 4.5645 4.69649 4.69744C4.56361 4.83038 4.45873 4.98861 4.38805 5.16278C4.31737 5.33695 4.28233 5.52352 4.28498 5.71146C4.28764 5.8994 4.32795 6.08491 4.40353 6.25701C4.4791 6.42911 4.58842 6.58431 4.725 6.71344L6.1425 8.13094C6.27297 8.26184 6.42799 8.3657 6.59868 8.43657C6.76937 8.50744 6.95237 8.54392 7.13719 8.54392C7.322 8.54392 7.505 8.50744 7.67569 8.43657C7.84638 8.3657 8.00141 8.26184 8.13188 8.13094ZM1.875 16.4062H3.87937C4.25234 16.4062 4.61002 16.2581 4.87374 15.9944C5.13747 15.7306 5.28562 15.373 5.28562 15C5.28562 14.627 5.13747 14.2694 4.87374 14.0056C4.61002 13.7419 4.25234 13.5938 3.87937 13.5938H1.875C1.50204 13.5938 1.14435 13.7419 0.880631 14.0056C0.616908 14.2694 0.46875 14.627 0.46875 15C0.46875 15.373 0.616908 15.7306 0.880631 15.9944C1.14435 16.2581 1.50204 16.4062 1.875 16.4062ZM4.725 25.275C4.85533 25.406 5.01025 25.5099 5.18087 25.5809C5.35149 25.6518 5.53444 25.6883 5.71922 25.6883C5.90399 25.6883 6.08695 25.6518 6.25757 25.5809C6.42819 25.5099 6.58311 25.406 6.71344 25.275L8.13094 23.8575C8.2691 23.7288 8.37992 23.5735 8.45678 23.401C8.53364 23.2285 8.57496 23.0423 8.5783 22.8535C8.58163 22.6647 8.54689 22.4771 8.47617 22.302C8.40544 22.1269 8.30017 21.9678 8.16663 21.8343C8.0331 21.7008 7.87404 21.5955 7.69893 21.5248C7.52383 21.454 7.33628 21.4193 7.14746 21.4226C6.95864 21.426 6.77243 21.4673 6.59993 21.5442C6.42743 21.621 6.27218 21.7318 6.14344 21.87L4.725 23.2856C4.59432 23.4162 4.49066 23.5713 4.41993 23.742C4.3492 23.9126 4.3128 24.0956 4.3128 24.2803C4.3128 24.4651 4.3492 24.648 4.41993 24.8187C4.49066 24.9893 4.59432 25.1444 4.725 25.275ZM13.5938 26.1197V28.125C13.5938 28.498 13.7419 28.8556 14.0056 29.1194C14.2694 29.3831 14.627 29.5312 15 29.5312C15.373 29.5312 15.7306 29.3831 15.9944 29.1194C16.2581 28.8556 16.4062 28.498 16.4062 28.125V26.1197C16.4062 25.7467 16.2581 25.389 15.9944 25.1253C15.7306 24.8616 15.373 24.7134 15 24.7134C14.627 24.7134 14.2694 24.8616 14.0056 25.1253C13.7419 25.389 13.5938 25.7467 13.5938 26.1197ZM23.2866 25.275C23.4169 25.406 23.5718 25.5099 23.7424 25.5809C23.9131 25.6518 24.096 25.6883 24.2808 25.6883C24.4656 25.6883 24.6485 25.6518 24.8191 25.5809C24.9898 25.5099 25.1447 25.406 25.275 25.275C25.5386 25.0113 25.6867 24.6537 25.6867 24.2808C25.6867 23.9079 25.5386 23.5503 25.275 23.2866L23.8575 21.8691C23.7283 21.7325 23.5731 21.6233 23.4009 21.5478C23.2288 21.4723 23.0433 21.4321 22.8553 21.4295C22.6674 21.427 22.4808 21.4621 22.3067 21.5328C22.1325 21.6036 21.9744 21.7086 21.8415 21.8415C21.7086 21.9744 21.6037 22.1327 21.5331 22.3068C21.4624 22.481 21.4273 22.6676 21.43 22.8555C21.4326 23.0435 21.4729 23.229 21.5485 23.4011C21.6241 23.5732 21.7334 23.7284 21.87 23.8575L23.2856 25.275H23.2866ZM28.125 13.5938H26.1197C25.7467 13.5938 25.389 13.7419 25.1253 14.0056C24.8616 14.2694 24.7134 14.627 24.7134 15C24.7134 15.373 24.8616 15.7306 25.1253 15.9944C25.389 16.2581 25.7467 16.4062 26.1197 16.4062H28.125C28.498 16.4062 28.8556 16.2581 29.1194 15.9944C29.3831 15.7306 29.5312 15.373 29.5312 15C29.5312 14.627 29.3831 14.2694 29.1194 14.0056C28.8556 13.7419 28.498 13.5938 28.125 13.5938ZM25.275 4.725C25.0113 4.46137 24.6537 4.31327 24.2808 4.31327C23.9079 4.31327 23.5503 4.46137 23.2866 4.725L21.8691 6.1425C21.7325 6.27169 21.6233 6.42695 21.5478 6.59908C21.4723 6.77122 21.4321 6.95674 21.4295 7.14468C21.427 7.33263 21.4621 7.51918 21.5328 7.69332C21.6036 7.86745 21.7086 8.02563 21.8415 8.15851C21.9744 8.29139 22.1327 8.39627 22.3068 8.46695C22.481 8.53763 22.6676 8.57267 22.8555 8.57002C23.0435 8.56736 23.229 8.52705 23.4011 8.45147C23.5732 8.3759 23.7284 8.26658 23.8575 8.13L25.275 6.71438C25.4057 6.58378 25.5093 6.42872 25.5801 6.25804C25.6508 6.08737 25.6872 5.90443 25.6872 5.71969C25.6872 5.53494 25.6508 5.352 25.5801 5.18133C25.5093 5.01066 25.4057 4.85559 25.275 4.725Z" fill="white"/>
</svg>
