<svg width="65" height="64" viewBox="0 0 65 64" fill="none" xmlns="http://www.w3.org/2000/svg">
<path d="M22.0853 18.6667C21.8434 18.6684 21.6056 18.604 21.3976 18.4804C21.1896 18.3569 21.0194 18.1788 20.9052 17.9656C20.791 17.7523 20.7372 17.5119 20.7497 17.2703C20.7622 17.0287 20.8404 16.7951 20.9759 16.5947C22.7573 13.9201 21.9599 12.3094 20.8586 10.0801C19.6799 7.69872 18.2133 4.73339 20.9759 0.594718C21.1766 0.311776 21.4795 0.118148 21.8206 0.0549308C22.1616 -0.00828665 22.5139 0.0638821 22.8026 0.25612C23.0913 0.448359 23.2937 0.745534 23.3669 1.08457C23.4401 1.42362 23.3783 1.77783 23.1946 2.07205C21.2879 4.93338 22.1519 6.68272 23.2479 8.89872C24.3999 11.2241 25.8293 14.1201 23.1919 18.0721C23.0712 18.2551 22.9069 18.4054 22.7137 18.5092C22.5205 18.613 22.3046 18.6671 22.0853 18.6667ZM32.7066 18.6667C32.4654 18.6666 32.2288 18.6011 32.0219 18.4771C31.815 18.3531 31.6457 18.1753 31.5318 17.9627C31.418 17.7501 31.364 17.5106 31.3755 17.2697C31.387 17.0288 31.4637 16.7955 31.5973 16.5947C33.3786 13.9227 32.5813 12.3121 31.4799 10.0827C30.3039 7.70138 28.8373 4.73605 31.5973 0.594718C31.7979 0.311776 32.1009 0.118148 32.4419 0.0549308C32.783 -0.00828665 33.1352 0.0638821 33.4239 0.25612C33.7126 0.448359 33.9151 0.745534 33.9882 1.08457C34.0614 1.42362 33.9996 1.77783 33.8159 2.07205C31.9093 4.93338 32.7733 6.68272 33.8719 8.89872C35.0239 11.2241 36.4533 14.1201 33.8159 18.0721C33.6943 18.2549 33.5294 18.4048 33.3359 18.5085C33.1423 18.6123 32.9262 18.6666 32.7066 18.6667ZM43.3279 18.6667C43.0868 18.6666 42.8501 18.6011 42.6433 18.4771C42.4364 18.3531 42.267 18.1753 42.1532 17.9627C42.0393 17.7501 41.9853 17.5106 41.9968 17.2697C42.0083 17.0288 42.085 16.7955 42.2186 16.5947C43.9999 13.9227 43.2026 12.3121 42.1013 10.0827C40.9253 7.70138 39.4586 4.73605 42.2186 0.594718C42.4192 0.311776 42.7222 0.118148 43.0633 0.0549308C43.4043 -0.00828665 43.7565 0.0638821 44.0453 0.25612C44.334 0.448359 44.5364 0.745534 44.6096 1.08457C44.6828 1.42362 44.621 1.77783 44.4373 2.07205C42.5306 4.93338 43.3946 6.68272 44.4933 8.89872C45.6453 11.2241 47.0746 14.1201 44.4373 18.0721C44.3161 18.2554 44.1513 18.4057 43.9577 18.5095C43.7641 18.6133 43.5477 18.6673 43.3279 18.6667ZM55.2666 58.6667H9.93327C8.16581 58.6646 6.47135 57.9615 5.22156 56.7118C3.97178 55.462 3.26872 53.7675 3.2666 52.0001V28.0001C3.2666 24.3254 6.25594 21.3334 9.93327 21.3334H55.2666C58.9439 21.3334 61.9333 24.3254 61.9333 28.0001V52.0001C61.9333 55.6747 58.9439 58.6667 55.2666 58.6667ZM9.93327 24.0001C7.72794 24.0001 5.93327 25.7947 5.93327 28.0001V52.0001C5.93327 54.2054 7.72794 56.0001 9.93327 56.0001H55.2666C57.4719 56.0001 59.2666 54.2054 59.2666 52.0001V28.0001C59.2666 25.7947 57.4719 24.0001 55.2666 24.0001H9.93327Z" fill="#9FA3A8"/>
<path d="M12.5999 53.3334C12.2463 53.3334 11.9072 53.1929 11.6571 52.9429C11.4071 52.6928 11.2666 52.3537 11.2666 52V28C11.2666 27.6464 11.4071 27.3073 11.6571 27.0572C11.9072 26.8072 12.2463 26.6667 12.5999 26.6667C12.9536 26.6667 13.2927 26.8072 13.5427 27.0572C13.7928 27.3073 13.9333 27.6464 13.9333 28V52C13.9333 52.3537 13.7928 52.6928 13.5427 52.9429C13.2927 53.1929 12.9536 53.3334 12.5999 53.3334ZM20.5999 53.3334C20.2463 53.3334 19.9072 53.1929 19.6571 52.9429C19.4071 52.6928 19.2666 52.3537 19.2666 52V28C19.2666 27.6464 19.4071 27.3073 19.6571 27.0572C19.9072 26.8072 20.2463 26.6667 20.5999 26.6667C20.9536 26.6667 21.2927 26.8072 21.5427 27.0572C21.7928 27.3073 21.9333 27.6464 21.9333 28V52C21.9333 52.3537 21.7928 52.6928 21.5427 52.9429C21.2927 53.1929 20.9536 53.3334 20.5999 53.3334ZM28.5999 53.3334C28.2463 53.3334 27.9072 53.1929 27.6571 52.9429C27.4071 52.6928 27.2666 52.3537 27.2666 52V28C27.2666 27.6464 27.4071 27.3073 27.6571 27.0572C27.9072 26.8072 28.2463 26.6667 28.5999 26.6667C28.9536 26.6667 29.2927 26.8072 29.5427 27.0572C29.7928 27.3073 29.9333 27.6464 29.9333 28V52C29.9333 52.3537 29.7928 52.6928 29.5427 52.9429C29.2927 53.1929 28.9536 53.3334 28.5999 53.3334ZM36.5999 53.3334C36.2463 53.3334 35.9072 53.1929 35.6571 52.9429C35.4071 52.6928 35.2666 52.3537 35.2666 52V28C35.2666 27.6464 35.4071 27.3073 35.6571 27.0572C35.9072 26.8072 36.2463 26.6667 36.5999 26.6667C36.9536 26.6667 37.2927 26.8072 37.5427 27.0572C37.7928 27.3073 37.9333 27.6464 37.9333 28V52C37.9333 52.3537 37.7928 52.6928 37.5427 52.9429C37.2927 53.1929 36.9536 53.3334 36.5999 53.3334ZM44.5999 53.3334C44.2463 53.3334 43.9072 53.1929 43.6571 52.9429C43.4071 52.6928 43.2666 52.3537 43.2666 52V28C43.2666 27.6464 43.4071 27.3073 43.6571 27.0572C43.9072 26.8072 44.2463 26.6667 44.5999 26.6667C44.9536 26.6667 45.2927 26.8072 45.5427 27.0572C45.7928 27.3073 45.9333 27.6464 45.9333 28V52C45.9333 52.3537 45.7928 52.6928 45.5427 52.9429C45.2927 53.1929 44.9536 53.3334 44.5999 53.3334ZM52.5999 53.3334C52.2463 53.3334 51.9072 53.1929 51.6571 52.9429C51.4071 52.6928 51.2666 52.3537 51.2666 52V28C51.2666 27.6464 51.4071 27.3073 51.6571 27.0572C51.9072 26.8072 52.2463 26.6667 52.5999 26.6667C52.9536 26.6667 53.2927 26.8072 53.5428 27.0572C53.7928 27.3073 53.9333 27.6464 53.9333 28V52C53.9333 52.3537 53.7928 52.6928 53.5428 52.9429C53.2927 53.1929 52.9536 53.3334 52.5999 53.3334ZM15.2666 64C14.913 64 14.5738 63.8596 14.3238 63.6095C14.0737 63.3595 13.9333 63.0203 13.9333 62.6667V57.3334C13.9333 56.9798 14.0737 56.6406 14.3238 56.3906C14.5738 56.1405 14.913 56 15.2666 56C15.6202 56 15.9594 56.1405 16.2094 56.3906C16.4595 56.6406 16.5999 56.9798 16.5999 57.3334V62.6667C16.5999 63.0203 16.4595 63.3595 16.2094 63.6095C15.9594 63.8596 15.6202 64 15.2666 64ZM49.9333 64C49.5797 64 49.2405 63.8596 48.9905 63.6095C48.7404 63.3595 48.5999 63.0203 48.5999 62.6667V57.3334C48.5999 56.9798 48.7404 56.6406 48.9905 56.3906C49.2405 56.1405 49.5797 56 49.9333 56C50.2869 56 50.626 56.1405 50.8761 56.3906C51.1261 56.6406 51.2666 56.9798 51.2666 57.3334V62.6667C51.2666 63.0203 51.1261 63.3595 50.8761 63.6095C50.626 63.8596 50.2869 64 49.9333 64Z" fill="#9FA3A8"/>
</svg>
