<svg width="65" height="64" viewBox="0 0 65 64" fill="none" xmlns="http://www.w3.org/2000/svg">
<g clip-path="url(#clip0_135_56)">
<path fill-rule="evenodd" clip-rule="evenodd" d="M23.9415 1.62712C23.9415 0.728486 24.67 0 25.5687 0H40.0319C40.9306 0 41.659 0.728486 41.659 1.62712V13.9694C46.8509 17.0142 50.337 22.6537 50.337 29.1073C50.337 38.7926 42.4856 46.6441 32.8003 46.6441C23.115 46.6441 15.2636 38.7926 15.2636 29.1073C15.2636 22.6537 18.7497 17.0142 23.9415 13.9694V1.62712ZM26.2664 16.4037C26.2946 16.3903 26.3223 16.3761 26.3495 16.3612C28.2872 15.3786 30.4791 14.8249 32.8003 14.8249C35.1215 14.8249 37.3134 15.3786 39.2511 16.3612C39.2783 16.3761 39.306 16.3903 39.3341 16.4036C43.9359 18.7752 47.0828 23.5738 47.0828 29.1073C47.0828 36.9953 40.6883 43.3898 32.8003 43.3898C24.9123 43.3898 18.5178 36.9953 18.5178 29.1073C18.5178 23.5738 21.6647 18.7752 26.2664 16.4037ZM38.4048 12.4853C36.645 11.8921 34.7602 11.5706 32.8003 11.5706C30.8404 11.5706 28.9556 11.8921 27.1958 12.4853V3.25424H38.4048V12.4853ZM8.5085 4.81556C9.14393 4.18013 10.1742 4.18013 10.8096 4.81556L16.5949 10.6009C17.2303 11.2363 17.2303 12.2665 16.5949 12.902C15.9595 13.5374 14.9292 13.5374 14.2938 12.902L8.5085 7.11665C7.87307 6.48122 7.87307 5.45098 8.5085 4.81556ZM57.0921 4.81556C57.7275 5.45098 57.7275 6.48122 57.0921 7.11665L51.3068 12.902C50.6713 13.5374 49.6411 13.5374 49.0057 12.902C48.3703 12.2665 48.3703 11.2363 49.0057 10.6009L54.791 4.81556C55.4264 4.18013 56.4566 4.18013 57.0921 4.81556ZM0.800293 30.5537C0.800293 29.655 1.52878 28.9266 2.42741 28.9266H8.21272C9.11136 28.9266 9.83984 29.655 9.83984 30.5537C9.83984 31.4523 9.11136 32.1808 8.21272 32.1808H2.42741C1.52878 32.1808 0.800293 31.4523 0.800293 30.5537ZM55.7607 30.5537C55.7607 29.655 56.4892 28.9266 57.3879 28.9266H63.1732C64.0718 28.9266 64.8003 29.655 64.8003 30.5537C64.8003 31.4523 64.0718 32.1808 63.1732 32.1808H57.3879C56.4892 32.1808 55.7607 31.4523 55.7607 30.5537ZM16.5949 45.3127C17.2303 45.9482 17.2303 46.9784 16.5949 47.6138L10.8096 53.3991C10.1742 54.0346 9.14393 54.0346 8.5085 53.3991C7.87307 52.7637 7.87307 51.7335 8.5085 51.098L14.2938 45.3127C14.9292 44.6773 15.9595 44.6773 16.5949 45.3127ZM49.0057 45.3127C49.6411 44.6773 50.6713 44.6773 51.3068 45.3127L57.0921 51.098C57.7275 51.7335 57.7275 52.7637 57.0921 53.3991C56.4566 54.0346 55.4264 54.0346 54.791 53.3991L49.0057 47.6138C48.3703 46.9784 48.3703 45.9482 49.0057 45.3127ZM32.8003 52.0678C33.6989 52.0678 34.4274 52.7963 34.4274 53.6949V62.3729C34.4274 63.2715 33.6989 64 32.8003 64C31.9017 64 31.1732 63.2715 31.1732 62.3729V53.6949C31.1732 52.7963 31.9017 52.0678 32.8003 52.0678Z" fill="#9FA3A8"/>
</g>
<defs>
<clipPath id="clip0_135_56">
<rect width="64" height="64" fill="white" transform="translate(0.800293)"/>
</clipPath>
</defs>
</svg>
