<svg width="64" height="64" viewBox="0 0 64 64" fill="none" xmlns="http://www.w3.org/2000/svg">
<path d="M32.0002 22.3226C26.6629 22.3226 22.3228 26.6628 22.3228 32C22.3228 37.3372 26.6629 41.6774 32.0002 41.6774C37.3374 41.6774 41.6776 37.3372 41.6776 32C41.6776 26.6628 37.3374 22.3226 32.0002 22.3226ZM32.0002 38.8622C28.2465 38.8622 25.138 35.8123 25.138 32C25.138 28.1877 28.1879 25.1378 32.0002 25.1378C35.8125 25.1378 38.8623 28.1877 38.8623 32C38.8623 35.8123 35.7538 38.8622 32.0002 38.8622ZM32.0002 19.2727C32.7626 19.2727 33.4078 18.6276 33.4078 17.8651V13.4076C33.4078 12.6452 32.7626 12 32.0002 12C31.2377 12 30.5925 12.6452 30.5925 13.4076V17.8651C30.5925 18.6276 31.2377 19.2727 32.0002 19.2727ZM32.0002 44.7273C31.2377 44.7273 30.5925 45.3724 30.5925 46.1349V50.5924C30.5925 51.3548 31.2377 52 32.0002 52C32.7626 52 33.4078 51.3548 33.4078 50.5924V46.1349C33.4078 45.3724 32.7626 44.7273 32.0002 44.7273ZM41.9708 23.4369C42.3227 23.4369 42.6747 23.3196 42.9679 23.0264L46.1351 19.8592C46.6629 19.3314 46.6629 18.393 46.1351 17.8651C45.6072 17.3372 44.6688 17.3372 44.1409 17.8651L40.9738 21.0323C40.4459 21.5601 40.4459 22.4985 40.9738 23.0264C41.267 23.261 41.6189 23.4369 41.9708 23.4369ZM21.0324 40.9736L17.8653 44.1408C17.3374 44.6686 17.3374 45.607 17.8653 46.1349C18.1585 46.4282 18.5104 46.5455 18.8623 46.5455C19.2142 46.5455 19.5662 46.4282 19.8594 46.1349L23.0266 42.9677C23.5544 42.4399 23.5544 41.5015 23.0266 40.9736C22.4987 40.4457 21.5603 40.4457 21.0324 40.9736ZM50.5925 30.5924H46.1351C45.3726 30.5924 44.7274 31.2375 44.7274 32C44.7274 32.7625 45.3726 33.4076 46.1351 33.4076H50.5925C51.355 33.4076 52.0002 32.7625 52.0002 32C52.0002 31.2375 51.355 30.5924 50.5925 30.5924ZM19.2729 32C19.2729 31.2375 18.6277 30.5924 17.8653 30.5924H13.4078C12.6453 30.5924 12.0002 31.2375 12.0002 32C12.0002 32.7625 12.6453 33.4076 13.4078 33.4076H17.8653C18.6277 33.4076 19.2729 32.7625 19.2729 32ZM42.9679 40.9736C42.4401 40.4457 41.5016 40.4457 40.9738 40.9736C40.4459 41.5015 40.4459 42.4399 40.9738 42.9677L44.1409 46.1349C44.4342 46.4282 44.7861 46.5455 45.138 46.5455C45.4899 46.5455 45.8418 46.4282 46.1351 46.1349C46.6629 45.607 46.6629 44.6686 46.1351 44.1408L42.9679 40.9736ZM21.0324 23.0264C21.3257 23.3196 21.6776 23.4369 22.0295 23.4369C22.3814 23.4369 22.7333 23.3196 23.0266 23.0264C23.5544 22.4985 23.5544 21.5601 23.0266 21.0323L19.8594 17.8651C19.3315 17.3372 18.3931 17.3372 17.8653 17.8651C17.3374 18.393 17.3374 19.3314 17.8653 19.8592L21.0324 23.0264Z" fill="#9FA3A8"/>
<path d="M54.667 61H9.33366C7.5662 60.9979 5.87174 60.2948 4.62195 59.045C3.37217 57.7952 2.66911 56.1008 2.66699 54.3333V9.66667C2.66699 5.992 5.65633 3 9.33366 3H54.667C58.3443 3 61.3337 5.992 61.3337 9.66667V54.3333C61.3337 58.008 58.3443 61 54.667 61ZM9.33366 5.66667C7.12833 5.66667 5.33366 7.46133 5.33366 9.66667V54.3333C5.33366 56.5387 7.12833 58.3333 9.33366 58.3333H54.667C56.8723 58.3333 58.667 56.5387 58.667 54.3333V9.66667C58.667 7.46133 56.8723 5.66667 54.667 5.66667H9.33366Z" fill="#9FA3A8"/>
</svg>
