<svg width="65" height="64" viewBox="0 0 65 64" fill="none" xmlns="http://www.w3.org/2000/svg">
<path fill-rule="evenodd" clip-rule="evenodd" d="M14.4822 40H26.2002V49.1447H22.8808C22.6012 49.1447 22.3217 49.2275 22.0937 49.3933L16.3932 53.4161C15.893 53.7701 15.6797 54.4105 15.8562 55.0056C15.9463 55.2932 16.1228 55.5443 16.3606 55.7229C16.5984 55.9015 16.8853 55.9985 17.1802 56H47.2202C47.8307 56 48.3676 55.5932 48.5515 55.0056C48.728 54.4105 48.5147 53.7701 48.0146 53.4161L42.314 49.3933C42.0787 49.2351 41.8065 49.1447 41.527 49.1447H38.2002V40H49.9108C50.5299 40.0006 51.1419 39.8665 51.7046 39.6071C52.2673 39.3476 52.7674 38.9688 53.1706 38.4967C53.573 38.0253 53.8689 37.4718 54.0377 36.8743C54.2066 36.2769 54.2444 35.6498 54.1486 35.0363L50.5183 11.6391C50.3653 10.6235 49.8538 9.69709 49.0771 9.02898C48.3005 8.36086 47.3105 7.99566 46.2879 8.00006H39.7259L39.7114 8L39.6971 8.00006H18.1125C17.0896 7.99442 16.0989 8.35918 15.322 9.02752C14.5451 9.69586 14.0339 10.623 13.8821 11.6391L10.2518 35.0363C10.156 35.6498 10.1938 36.2769 10.3627 36.8743C10.5315 37.4718 10.8274 38.0253 11.2298 38.4967C12.0448 39.4567 13.2302 40 14.4822 40ZM49.9108 37.1944H41.2002V30.9743H50.6879L51.3851 35.4679C51.4518 35.907 51.3332 36.3386 51.0443 36.6735C50.7554 37.0084 50.3553 37.1944 49.9108 37.1944ZM50.2484 28.1418H41.2002V19.8325H48.9591L50.2484 28.1418ZM48.5196 17H41.2002V10.7982H46.2805C47.0214 10.7982 47.6437 11.334 47.7548 12.0708L48.5196 17ZM38.2226 17V10.7982H26.1778V17H38.2226ZM23.2002 19.8325H15.4339L14.1446 28.1418H23.2002V19.8325ZM23.2002 17H15.8733L16.6382 12.0708C16.7493 11.334 17.3716 10.7982 18.1125 10.7982H23.2002V17ZM26.1778 28.1418V19.8325H38.2226V28.1418H26.1778ZM23.2002 30.9743V37.1944H14.4822C14.0377 37.1944 13.6376 37.0084 13.3487 36.6735C13.0598 36.3386 12.9338 35.907 13.0079 35.4679L13.7051 30.9743H23.2002ZM26.1778 30.9743H38.2226V37.1944H26.1778V30.9743ZM35.3903 48.483H29.0027V40.517H35.3903V48.483ZM42.7701 53.1675H21.623L23.3074 51.9772H41.0857L42.7701 53.1675Z" fill="#9FA3A8"/>
</svg>
