<svg width="65" height="64" viewBox="0 0 65 64" fill="none" xmlns="http://www.w3.org/2000/svg">
<path fill-rule="evenodd" clip-rule="evenodd" d="M26.3555 3.27186C27.0089 -1.49751 33.67 -0.822436 33.67 3.80388L33.67 21.895C35.8678 22.5343 37.4484 24.6331 37.4484 27.072C37.4484 27.2424 37.4407 27.4111 37.4256 27.5778L45.2237 27.4409C46.39 27.4204 47.5256 27.8082 48.4487 28.535L54.9627 33.6631L54.9842 33.6803C56.759 35.1346 56.6826 37.3385 55.7545 38.771C55.2917 39.4855 54.5822 40.0829 53.6981 40.3457C52.7852 40.6171 51.782 40.5011 50.8497 39.9393L50.8496 39.9393L35.8841 30.9204C35.2751 31.5378 34.5186 32.0022 33.67 32.2491V53.9512C34.1743 54.0576 34.67 54.2217 35.1479 54.4436C35.1481 54.4437 35.1483 54.4438 35.1485 54.4439L39.6801 56.5457L39.6802 56.5458C41.5408 57.409 42.1488 59.3173 41.8263 60.9041C41.5031 62.4935 40.1938 64 38.1371 64H26.3873C24.3302 64 23.0208 62.4937 22.6977 60.9041C22.3751 59.3174 22.983 57.4092 24.843 56.5459L24.8433 56.5457L29.3753 54.4437C29.3753 54.4437 29.3754 54.4436 29.3755 54.4436C29.8535 54.2218 30.3492 54.0577 30.8534 53.9513V32.2491C30.287 32.0843 29.7616 31.8226 29.2937 31.4831L25.5129 38.5926L25.5129 38.5927C24.9565 39.6388 24.0763 40.4683 23.0073 40.9412C23.0073 40.9413 23.0072 40.9413 23.0071 40.9413L15.4959 44.266L15.4703 44.277C14.4676 44.697 13.4583 44.6623 12.594 44.26C11.7574 43.8706 11.1384 43.1771 10.7784 42.4043C10.0576 40.8571 10.2735 38.6578 12.2383 37.4739C12.2383 37.4739 12.2383 37.4738 12.2384 37.4738L27.243 28.4313C27.1333 27.996 27.075 27.5403 27.075 27.072C27.075 24.9263 28.2984 23.0439 30.0891 22.1869L26.0472 15.1561L26.0472 15.156C25.4574 14.13 25.2152 12.9313 25.3546 11.7507L25.3546 11.7507L26.352 3.29884L26.3555 3.27186ZM30.8534 17.8404L28.4786 13.7095C28.4786 13.7095 28.4786 13.7094 28.4786 13.7094C28.2013 13.2269 28.0845 12.6568 28.1511 12.0922C28.1511 12.0922 28.1511 12.0922 28.1511 12.0922L29.1468 3.65599C29.1985 3.2967 29.3415 3.12338 29.4647 3.03003C29.6091 2.92058 29.8179 2.85497 30.0532 2.87241C30.2885 2.88984 30.4887 2.98579 30.6198 3.11838C30.7335 3.23342 30.8534 3.43238 30.8534 3.80388L30.8534 17.8404ZM30.2426 28.3895C30.2258 28.3562 30.2076 28.3234 30.1882 28.2914C30 27.9335 29.8917 27.5192 29.8917 27.072C29.8917 25.6502 30.9867 24.5608 32.2617 24.5608C33.5368 24.5608 34.6318 25.6502 34.6318 27.072C34.6318 27.5192 34.5235 27.9335 34.3353 28.2914C34.316 28.3232 34.2978 28.3559 34.2809 28.3894C33.8579 29.1139 33.0986 29.5832 32.2617 29.5832C31.4249 29.5832 30.6656 29.114 30.2426 28.3895ZM25.3299 32.9147L13.6738 39.9393L13.6738 39.9393C13.3862 40.1126 13.2789 40.3106 13.2371 40.4844C13.1889 40.6847 13.2113 40.9359 13.3237 41.1771C13.4363 41.4189 13.6057 41.5797 13.7658 41.6542C13.8967 41.7152 14.0895 41.7536 14.3871 41.6318L21.8836 38.3137L21.8838 38.3136C22.3658 38.1003 22.7739 37.721 23.0356 37.2291C23.0356 37.2291 23.0356 37.2291 23.0356 37.2291L25.3299 32.9147ZM32.2295 56.6699C31.6553 56.6745 31.0815 56.8014 30.5442 57.0508L30.544 57.0509L26.0121 59.1528C25.5418 59.3711 25.3539 59.8218 25.4559 60.3237C25.5574 60.8226 25.893 61.1345 26.3873 61.1345H38.1371C38.6308 61.1345 38.9665 60.8228 39.068 60.3237C39.17 59.822 38.9822 59.3713 38.5115 59.1529L33.9795 57.0509L33.9789 57.0506C33.4421 56.8014 32.8685 56.6744 32.2941 56.6699C32.2833 56.6701 32.2725 56.6702 32.2617 56.6702C32.251 56.6702 32.2402 56.6701 32.2295 56.6699ZM40.5292 30.3892L52.2851 37.4738C52.2851 37.4738 52.2851 37.4739 52.2851 37.4739C52.5717 37.6465 52.7715 37.6358 52.9081 37.5952C53.0736 37.546 53.2602 37.4142 53.4027 37.1942C53.5449 36.9747 53.6015 36.7309 53.5808 36.5244C53.563 36.3464 53.4839 36.1337 53.2263 35.9194L46.725 30.8012C46.303 30.469 45.7912 30.2968 45.2723 30.3059L40.5292 30.3892Z" fill="#9FA3A8"/>
</svg>
