<svg width="70" height="70" fill="none" xmlns="http://www.w3.org/2000/svg"><path fill-rule="evenodd" clip-rule="evenodd" d="M4 20.882a1.866 1.866 0 0 1 .975-1.65l29.121-16a1.876 1.876 0 0 1 1.808 0l29.12 16a1.862 1.862 0 0 1 .976 1.65v27.293a1.885 1.885 0 0 1-.936 1.628l-29.12 16.94a1.89 1.89 0 0 1-.915.257 1.938 1.938 0 0 1-.973-.258L4.935 49.802A1.88 1.88 0 0 1 4 48.175V20.882zm29.121 17.113L7.758 24.061v23.03L33.12 61.844v-23.85zm29.121-13.934L36.88 37.995v23.85l25.363-14.754v-23.03zm-12.974-9.193c-.074.053-.15.102-.233.146L23.723 28.538 35 34.735l25.213-13.853-10.946-6.014zm-3.918-2.152L35 7.029 9.787 20.882l9.999 5.494 25.566-13.66h-.002z" fill="#2C72C6"/></svg>