<svg width="70" height="70" fill="none" xmlns="http://www.w3.org/2000/svg"><path d="M20.632 20.333h27.736c.925 0 1.632-.722 1.632-1.666 0-.945-.707-1.667-1.632-1.667H20.632c-.925 0-1.632.722-1.632 1.667 0 .944.707 1.666 1.632 1.666zM50 27c0-.944-.707-1.667-1.632-1.667H20.632c-.925 0-1.632.723-1.632 1.667 0 .944.707 1.667 1.632 1.667h27.736c.925 0 1.632-.723 1.632-1.667zm-29.368 6.667c-.925 0-1.632.722-1.632 1.666 0 .945.707 1.667 1.632 1.667h12.78c.925 0 1.632-.722 1.632-1.667 0-.944-.707-1.666-1.632-1.666h-12.78z" fill="#2C72C6"/><path d="M37.759 61.358c0-.93-.718-1.641-1.656-1.641h-17.93c-2.152 0-3.863-1.696-3.863-3.83V12.113c0-2.134 1.71-3.83 3.862-3.83h33.656c2.151 0 3.862 1.696 3.862 3.83v43.774c0 2.134-1.71 3.83-3.862 3.83h-1.656c-.938 0-1.655.711-1.655 1.642 0 .93.717 1.641 1.655 1.641h1.656C55.8 63 59 59.826 59 55.887V12.113C59 8.173 55.8 5 51.828 5H18.172C14.2 5 11 8.174 11 12.113v43.774C11 59.827 14.2 63 18.172 63h17.931c.938 0 1.656-.711 1.656-1.642z" fill="#2C72C6"/><path d="M43.054 63.426 46.744 65v-5.646C48.698 58.051 50 55.826 50 53.22c0-3.963-3.147-7.22-7-7.22s-7 3.257-7 7.22a7.388 7.388 0 0 0 3.256 6.134V65l3.798-1.574zM39.31 53.22c0-2.171 1.682-3.963 3.744-3.963 2.062 0 3.744 1.792 3.744 3.963 0 2.171-1.682 3.963-3.744 3.963-2.062 0-3.744-1.792-3.744-3.963z" fill="#2C72C6"/></svg>