<svg width="70" height="70" fill="none" xmlns="http://www.w3.org/2000/svg"><path d="M8.362 13v4.405h6.528V13H8.362zm8.698 0v4.405h25.866l-3.813 30.794H25.37c-.909-2.546-3.307-4.404-6.123-4.404-2.816 0-5.215 1.858-6.124 4.404H4v4.4h9.12C14.025 55.15 16.427 57 19.248 57c2.82 0 5.222-1.852 6.128-4.4h16.073c.906 2.548 3.303 4.4 6.124 4.4 2.82 0 5.222-1.852 6.128-4.4h4.762a2.181 2.181 0 0 0 2.106-1.59l4.345-15.398a2.223 2.223 0 0 0-.034-1.332l-4.536-13.205a2.18 2.18 0 0 0-2.06-1.478H47.045l.51-4.126c.162-1.309-.846-2.465-2.152-2.471H17.06zM4 21.805v4.4h6.532v-4.4H4zm8.72 0v4.4h13.06v-4.4H12.72zm33.78 2.192h10.24l3.795 11.061L56.82 48.2h-3.124c-.909-2.546-3.307-4.404-6.123-4.404-1.354 0-2.617.43-3.664 1.155L46.5 23.997zM8.362 30.606v4.405h10.886v-4.405H8.362zm13.06 0v4.405h6.545v-4.405h-6.545zM4 39.394v4.4h6.532v-4.4H4zM19.248 48.2c1.229 0 2.174.968 2.174 2.209s-.945 2.191-2.174 2.191c-1.23 0-2.188-.95-2.188-2.191 0-1.241.959-2.209 2.188-2.209zm28.325 0c1.229 0 2.17.968 2.17 2.209s-.941 2.191-2.17 2.191c-1.23 0-2.17-.95-2.17-2.191 0-1.241.94-2.209 2.17-2.209z" fill="#2C72C6"/></svg>