<svg width="70" height="70" fill="none" xmlns="http://www.w3.org/2000/svg"><path d="M34.5 25.377c6.08 0 11.585 2.497 15.569 6.536a22.393 22.393 0 0 1 6.45 15.775 22.38 22.38 0 0 1-6.45 15.775C46.085 67.5 40.579 70 34.5 70c-6.08 0-11.585-2.497-15.569-6.537a22.394 22.394 0 0 1-6.45-15.775 22.38 22.38 0 0 1 6.45-15.775c3.984-4.036 9.49-6.537 15.569-6.537zM12.22 17.3l-.486 1.522c-.109.343-.326.64-.617.844a1.596 1.596 0 0 1-.997.29l-1.506-.004 1.281.938c.285.21.495.508.598.85.102.341.091.708-.03 1.043l-.473 1.47 1.278-.945a1.594 1.594 0 0 1 1.923.02l1.252.928-.493-1.53a1.66 1.66 0 0 1 .001-1.013c.106-.33.312-.617.59-.82l1.28-.941-1.58.003a1.616 1.616 0 0 1-1.536-1.133l-.486-1.522zm-3.198-.615 1.655-5.199c.103-.331.307-.62.583-.827a1.6 1.6 0 0 1 1.907-.006c.277.204.483.493.588.823l1.659 5.213 5.29-.01a1.607 1.607 0 0 1 1.428.674 1.647 1.647 0 0 1 .288 1.22 1.652 1.652 0 0 1-.65 1.068l-4.377 3.211 1.678 5.205h-.003a1.659 1.659 0 0 1-.228 1.467 1.601 1.601 0 0 1-2.253.36l-4.368-3.23-4.27 3.157a1.607 1.607 0 0 1-1.948.115 1.637 1.637 0 0 1-.63-.826 1.66 1.66 0 0 1-.01-1.043l1.682-5.205-4.378-3.21v-.004A1.647 1.647 0 0 1 2 18.318c0-.902.724-1.635 1.614-1.635l5.408.01v-.007zm49.3-5.199 1.656 5.2 5.408-.01c.89 0 1.614.733 1.614 1.634 0 .545-.264 1.028-.665 1.322v.003l-4.378 3.21 1.682 5.206a1.642 1.642 0 0 1-1.04 2.064 1.6 1.6 0 0 1-1.548-.31l-4.27-3.158-4.368 3.23a1.597 1.597 0 0 1-1.897.002 1.631 1.631 0 0 1-.585-.818 1.654 1.654 0 0 1 0-1.01h-.002l1.678-5.206-4.378-3.21a1.658 1.658 0 0 1-.362-2.289c.163-.226.379-.406.629-.524s.525-.17.8-.15l5.29.01 1.66-5.212a1.609 1.609 0 0 1 2.03-1.057c.518.168.893.578 1.046 1.067v.006zm-1.056 7.336-.485-1.522-.486 1.522c-.105.33-.31.616-.586.82a1.6 1.6 0 0 1-.95.313l-1.58-.003 1.28.938c.278.203.484.49.59.82.106.329.106.684 0 1.013l-.492 1.53 1.252-.929a1.605 1.605 0 0 1 1.924-.02l1.277.945-.472-1.47a1.665 1.665 0 0 1-.03-1.042c.103-.341.312-.64.597-.85l1.28-.938-1.505.003a1.604 1.604 0 0 1-.995-.29 1.64 1.64 0 0 1-.619-.843v.003zM36.042 1.146l2.155 6.768L45.23 7.9c.89 0 1.614.734 1.614 1.635 0 .545-.264 1.027-.665 1.325l.003.003-5.698 4.178 2.184 6.771a1.642 1.642 0 0 1-1.037 2.065 1.592 1.592 0 0 1-1.548-.31l-5.584-4.13-5.682 4.202a1.601 1.601 0 0 1-1.2.293 1.6 1.6 0 0 1-1.052-.653 1.633 1.633 0 0 1-.229-1.466h-.003l2.184-6.772-5.698-4.178a1.658 1.658 0 0 1-.362-2.289c.162-.226.378-.407.628-.525a1.6 1.6 0 0 1 .8-.149l6.917.014 2.158-6.778a1.641 1.641 0 0 1 .8-.955 1.597 1.597 0 0 1 1.231-.102c.519.168.897.578 1.047 1.067h.003zm-.554 8.905-.985-3.092-.984 3.092c-.105.329-.311.616-.587.82a1.6 1.6 0 0 1-.952.313l-3.207-.007 2.598 1.906c.55.406.811 1.14.586 1.833l-.997 3.095 2.569-1.896a1.604 1.604 0 0 1 1.923-.02l2.595 1.916-.982-3.036a1.656 1.656 0 0 1-.028-1.041c.103-.342.313-.64.599-.848l2.598-1.906-3.133.007a1.605 1.605 0 0 1-.995-.29 1.64 1.64 0 0 1-.618-.843v-.003zm-.985 40.56c1.898 0 3.615-.78 4.86-2.038a6.988 6.988 0 0 0 2.012-4.924 7 7 0 0 0-2.011-4.925 6.847 6.847 0 0 0-2.23-1.51 6.818 6.818 0 0 0-7.491 1.51 6.949 6.949 0 0 0-1.49 2.259 7.023 7.023 0 0 0-.521 2.666 7 7 0 0 0 2.01 4.924 6.806 6.806 0 0 0 4.861 2.038zm7.149.281a9.874 9.874 0 0 1-.75.687c1.144.357 2.25.806 3.306 1.338a21.856 21.856 0 0 1 6.281 4.77 19.14 19.14 0 0 0 2.797-9.999 19.107 19.107 0 0 0-5.5-13.456c-3.4-3.445-8.093-5.572-13.28-5.572-5.186 0-9.88 2.13-13.28 5.572a19.093 19.093 0 0 0-5.5 13.456 19.14 19.14 0 0 0 2.798 9.998 21.734 21.734 0 0 1 9.587-6.107 10.286 10.286 0 0 1-3.713-7.93c0-2.828 1.131-5.39 2.963-7.244a10.018 10.018 0 0 1 7.149-3.002c2.79 0 5.32 1.146 7.148 3.002a10.286 10.286 0 0 1 2.964 7.244c0 2.827-1.132 5.39-2.964 7.243h-.006zm6.862 9.473a18.676 18.676 0 0 0-5.747-4.512 18.275 18.275 0 0 0-8.264-1.958c-2.97 0-5.776.706-8.263 1.958a18.635 18.635 0 0 0-5.747 4.512c.234.268.479.529.73.783 3.4 3.445 8.094 5.572 13.28 5.572 5.187 0 9.88-2.13 13.28-5.572.252-.254.496-.515.73-.783z" fill="#2C72C6"/></svg>