<svg width="50" height="50" viewBox="0 0 50 50" fill="none" xmlns="http://www.w3.org/2000/svg">
<path d="M25.4114 3.72217e-06C29.1775 3.72217e-06 32.7273 0.867221 35.9172 2.37748C33.6143 2.84156 31.6575 3.85233 31.1894 3.74811C30.4716 3.59079 26.9946 4.19253 25.7182 4.67039C24.4419 5.15021 24.5619 5.75785 24.2433 5.83848C23.9247 5.91714 23.7536 6.20227 23.2599 6.75879C22.7663 7.31727 23.5058 7.98784 23.5058 7.98784C23.5058 7.98784 25.3996 8.41456 25.7182 7.0046C25.907 6.16884 25.6396 7.7204 25.7182 8.35754C25.7969 8.99664 26.9867 9.15396 27.6239 8.35754C27.911 7.99767 27.8717 7.11865 28.0546 6.82172C28.2788 6.45595 28.7744 6.73519 29.0379 6.69783C29.1952 6.67816 28.8334 6.94757 29.0379 7.06753C29.445 7.30744 30.2828 6.89644 30.0822 7.86592C30.0016 8.25725 28.7665 8.33394 28.6072 8.91012C28.446 9.48629 28.1765 9.83239 28.1765 9.83239L25.5353 9.89335L24.6739 8.66431C24.6739 8.66431 23.8362 9.0281 24.0584 9.77143C24.2138 10.2827 23.8145 10.8766 23.8145 10.8766C23.8145 10.8766 22.4615 11.0929 22.4615 11.4921C22.4615 11.7104 21.9108 11.7379 21.6001 11.8598C21.3464 11.9601 21.1753 12.377 20.9255 12.4124C20.7761 12.4321 19.8419 12.5697 19.6354 12.5973C19.073 12.6661 19.3267 12.7939 19.3267 13.0279C19.3267 13.3465 20.371 13.3976 20.371 13.3976C20.371 13.3976 21.0396 13.6552 20.8036 14.1331C20.5637 14.6129 20.9727 14.8095 20.4948 14.8095C20.2864 14.8095 19.8065 14.7447 19.3267 14.7486C18.7072 14.7486 18.1133 14.5539 18.0975 14.8095C18.0385 15.7928 18.0366 17.2067 18.0366 17.2067C18.0366 17.2067 18.8763 17.6196 19.3267 17.5135C19.9521 17.3679 20.8685 17.8576 21.2933 16.7151C21.3267 16.6266 21.3484 16.4358 21.4172 16.3454C21.7122 15.958 22.0328 15.1753 22.5224 14.9334C22.8233 14.782 23.2422 14.8803 23.3838 14.8725C23.7024 14.8528 24.2433 14.4399 24.2433 14.4399C24.2433 14.4399 25.6553 14.6326 26.025 16.0386C26.1352 16.4535 26.0309 17.1359 26.2709 17.2676C26.4184 17.3483 27.0713 16.6541 27.0713 16.6541L27.8088 16.7151L27.3781 15.7318L26.025 14.196L26.2709 14.078C26.2709 14.078 27.2974 14.1449 27.3781 14.3828C27.4567 14.6227 28.6918 15.2284 28.4853 15.9206C28.1392 17.0631 28.9769 17.3325 28.9769 17.3325C28.9769 17.3325 29.7026 17.5036 30.0193 16.9038C30.2966 16.3788 30.328 15.9206 30.328 15.9206L31.2504 15.7318C31.2504 15.7318 31.1619 13.8184 32.1708 13.7653C33.1816 13.7142 33.278 13.7653 33.278 13.7653C33.278 13.7653 35.4963 14.4988 35.7363 15.0554C35.9742 15.6138 36.0844 16.1448 35.3665 16.2234C34.6507 16.3041 33.5848 16.1645 33.5848 16.1645C33.5848 16.1645 30.7646 15.7377 31.0045 16.5342C31.2425 17.3325 31.4962 18.1329 31.4962 18.1329C31.4962 18.1329 32.1078 18.068 32.6624 18.1899C33.2563 18.3256 34.0155 18.2509 34.0155 18.2509L34.1394 19.6038L33.7696 19.7257C33.3684 19.8378 32.1826 19.9145 31.864 20.0325C31.5454 20.1505 28.0723 19.5448 27.9936 19.6648C27.913 19.7828 26.7861 20.1918 26.1489 20.0345C25.5117 19.8732 25.3505 18.3748 25.3505 18.3748C25.3505 18.3748 25.2344 17.659 24.7978 17.6983L21.3562 18.0051C21.3562 18.0051 20.3729 18.4436 20.3729 18.6815C20.3729 18.6815 20.0937 18.481 19.6964 18.6815C19.2972 18.8821 18.6875 18.8546 18.5282 19.1732C18.3689 19.4917 17.7416 20.0895 17.421 20.648C17.1044 21.2045 16.1879 21.2498 15.946 22.2468C15.7081 23.2418 15.5389 24.9074 15.5783 25.6252C15.6176 26.3429 15.5979 28.1226 16.3157 28.5139C17.0336 28.9072 17.9854 29.8747 18.3433 30.2346C18.7013 30.5925 20.6246 30.8835 20.8626 30.7262C21.1025 30.5669 21.962 30.2346 22.4005 30.2346C22.8391 30.2346 23.7811 30.3034 24.0604 30.5414C24.3377 30.7813 24.6798 31.2965 24.9198 31.8943C25.1577 32.4921 25.3977 33.5009 25.5963 33.8608C25.7949 34.2187 26.5521 34.903 26.2709 35.5815C25.9936 36.2599 25.5157 36.9344 25.5963 37.7308C25.675 38.5272 26.1529 39.5852 26.3338 39.9431C26.5147 40.301 27.6652 41.4278 27.6239 41.7877C27.5846 42.1456 27.9228 42.0571 28.3614 42.2183C28.8 42.3756 30.6624 41.8624 30.9436 41.5419C31.2209 41.2233 31.6535 40.2164 32.1727 39.6973C32.69 39.1801 33.7657 38.3306 34.3223 37.7308C34.8808 37.133 35.4511 36.5844 35.4904 35.8273C35.5298 35.0682 35.0912 33.4026 35.4904 33.1234C35.8897 32.8441 36.4423 32.4115 36.8435 31.8943C37.2407 31.3752 38.0884 31.4165 38.6862 29.743C39.2841 28.0695 39.4807 27.5484 39.3628 27.4697C39.2448 27.3891 38.2929 27.7844 38.1336 28.0223C37.9743 28.2622 37.0421 28.3212 36.8415 28.5139C36.6449 28.7066 35.7363 28.5139 35.7363 28.5139C35.7363 28.5139 36.1198 27.0037 35.9211 26.4865C35.7205 25.9693 34.7018 23.9458 34.3832 23.228C34.1217 22.6401 34.0764 21.9597 34.2003 21.5093C34.2515 21.5821 34.2829 21.6214 34.3223 21.6922C34.4639 21.9479 35.2289 22.8524 35.5514 23.7826C36.2397 25.7746 37.0264 27.2239 37.0264 27.2239C37.0264 27.2239 38.0648 27.2633 39.7934 25.9319C40.9675 25.0293 42.2242 24.9821 42.4346 24.52C42.8339 23.643 41.2055 22.8603 41.2055 22.8603H39.7305L38.6253 20.9548L38.9321 20.8329C38.9321 20.8329 40.1573 22.2468 40.7138 22.2468C41.2724 22.2468 42.7552 22.117 43.2351 22.6755C43.7129 23.2339 45.2076 24.1779 45.4475 25.1336C45.6875 26.0893 45.5655 27.4265 45.9982 27.9004C46.6118 28.5651 47.1683 28.5139 47.1683 28.5139L47.9058 26.7933L49.6266 24.8268L49.9904 24.6419C49.957 38.2008 38.9773 49.162 25.4114 49.162C19.234 49.1645 13.2842 46.8309 8.756 42.6293L9.49349 41.5419L10.3549 38.1005L8.26434 36.8105L5.86898 36.0102L4.2701 32.1401C4.2701 32.1401 2.77939 30.9347 1.54238 30.3762C1.07509 28.4797 0.835435 26.5342 0.828491 24.581C0.828491 23.1317 0.979922 21.7178 1.22182 20.3373C2.73219 19.1771 4.76176 18.2529 4.76176 18.2529C4.76176 18.2529 5.88274 18.1231 3.96331 14.9334C3.71918 14.5324 3.53499 14.0978 3.41658 13.6434C4.2229 12.023 5.18459 10.4951 6.31344 9.10086C6.21511 9.68491 5.83358 12.1096 6.54353 12.5363C7.34002 13.0142 8.10504 11.5393 8.26434 11.0614C8.42364 10.5836 10.0854 8.76066 10.7226 7.80495C11.1769 7.12259 11.0176 5.79915 10.5496 5.02435C14.8171 1.76275 20.04 -0.00295894 25.4114 3.72217e-06ZM20.5558 4.42458C20.1743 4.46194 19.3876 4.66646 19.3876 5.2859V6.45202C19.3876 6.45202 19.1516 6.87284 19.0199 7.00657C18.8861 7.13832 19.0022 7.74989 19.0808 7.9898C19.1595 8.22971 19.2047 8.97304 19.2047 8.97304C19.2047 8.97304 19.5902 9.17362 19.6964 9.27981C19.8026 9.38404 20.7112 9.61411 21.1104 9.40174C21.5077 9.19132 21.7397 8.63088 22.0308 8.60334C22.3238 8.57581 22.1449 8.57778 22.0918 8.35754C22.0406 8.14516 22.3396 7.3743 22.3396 7.3743L21.5391 6.69783C21.5391 6.69783 21.0553 5.66543 21.1084 5.34686C21.1615 5.02632 20.7151 4.46194 20.7407 4.42458C20.7466 4.40491 20.6817 4.40491 20.5558 4.42458ZM18.4692 6.76076C18.361 6.80795 18.1526 7.06753 18.0385 7.12849C17.8871 7.20518 17.9343 7.46869 17.8537 7.68107C17.775 7.89345 17.5469 8.66431 17.5469 8.66431L18.0385 8.84915C18.0385 8.84915 18.8193 8.70167 18.8999 8.54238C18.9628 8.41456 18.7327 7.71646 18.6521 7.43526C18.6324 7.3684 18.6521 7.31333 18.6521 7.31333L18.5302 6.82172C18.5105 6.78239 18.5046 6.74306 18.4692 6.75879V6.76076ZM39.0579 13.5195C39.2369 13.5195 39.5909 13.6454 39.6715 13.7044C39.7777 13.783 39.7777 14.7171 39.6715 15.3012C39.6324 15.4964 39.6595 15.6991 39.7485 15.8772C39.8376 16.0553 39.9835 16.1986 40.1632 16.2844C40.3244 16.3375 40.4365 17.6177 40.409 17.8832C40.3834 18.1486 39.6322 18.3472 39.4257 18.3748C39.2192 18.4023 38.3539 18.3944 38.3814 18.0051C38.4089 17.6196 38.2319 16.3591 38.0726 15.8538C37.9153 15.3503 37.9566 14.6345 38.1965 14.5028C38.4365 14.371 38.934 13.5805 38.934 13.5805C38.9537 13.5372 38.997 13.5215 39.0579 13.5195ZM37.9507 35.2747C37.8543 35.2747 37.7147 35.2943 37.581 35.3337C37.581 35.3337 37.5259 36.5136 36.9674 36.8715C36.4108 37.2313 36.045 37.9255 36.045 38.2854C36.045 38.6433 35.927 38.9697 36.045 39.3296C36.165 39.6875 36.4384 39.9844 36.7825 39.9451C37.1287 39.9057 37.5023 39.1585 37.5829 38.8379C37.6616 38.5194 37.9586 37.8311 38.1965 37.6089C38.4365 37.3867 38.4837 36.7613 38.4424 36.4408C38.4089 36.1635 38.6194 35.259 37.9507 35.2747Z" fill="url(#paint0_linear_40_23)"/>
<defs>
<linearGradient id="paint0_linear_40_23" x1="42.3122" y1="2.15084" x2="6.36301" y2="44.6173" gradientUnits="userSpaceOnUse">
<stop stop-color="#004D95"/>
<stop offset="1" stop-color="#4CA7FC"/>
</linearGradient>
</defs>
</svg>
