<svg width="413" height="49" fill="none" xmlns="http://www.w3.org/2000/svg"><path d="M114.357 0c3.764 0 7.312.864 10.5 2.37-2.301.462-4.257 1.47-4.725 1.366-.718-.157-4.193.443-5.469.919-1.275.478-1.155 1.084-1.474 1.164-.318.079-.489.363-.983.918-.493.556.246 1.225.246 1.225s1.893.425 2.211-.98c.189-.833-.078.713 0 1.348.079.637 1.268.794 1.905 0 .287-.359.248-1.235.431-1.53.224-.365.719-.087.982-.124.158-.02-.204.249 0 .368.407.24 1.245-.17 1.044.796-.08.39-1.315.466-1.474 1.04-.161.575-.431.92-.431.92l-2.639.06-.861-1.224s-.838.362-.616 1.103c.156.51-.243 1.102-.243 1.102s-1.353.215-1.353.613c0 .218-.55.245-.861.367-.253.1-.424.515-.674.55-.149.02-1.083.157-1.29.185-.562.068-.308.196-.308.429 0 .318 1.044.369 1.044.369s.668.256.432.732c-.24.479.169.675-.309.675-.208 0-.688-.065-1.167-.061-.619 0-1.213-.194-1.229.06-.059.98-.061 2.39-.061 2.39s.84.412 1.29.306c.625-.145 1.541.343 1.966-.796.033-.088.055-.278.123-.369.295-.386.616-1.166 1.105-1.407.301-.15.72-.053.861-.06.319-.02.859-.432.859-.432s1.411.192 1.781 1.594c.11.413.006 1.093.246 1.225.147.08.8-.612.8-.612l.737.061-.431-.98-1.352-1.53.246-.118s1.026.066 1.106.303c.079.24 1.313.843 1.107 1.533-.346 1.139.492 1.407.492 1.407s.725.171 1.041-.427c.277-.523.309-.98.309-.98l.922-.188s-.089-1.907.92-1.96c1.01-.051 1.106 0 1.106 0s2.218.731 2.458 1.286c.237.556.348 1.086-.37 1.164-.715.08-1.781-.059-1.781-.059s-2.819-.425-2.579.369c.238.795.492 1.593.492 1.593s.611-.064 1.165.057c.594.135 1.353.06 1.353.06l.123 1.35-.369.12c-.401.113-1.586.189-1.905.306-.318.118-3.79-.486-3.868-.366-.081.118-1.207.525-1.844.368-.637-.16-.798-1.654-.798-1.654s-.116-.713-.553-.674l-3.44.306s-.982.437-.982.674c0 0-.28-.2-.677 0-.399.2-1.008.172-1.167.49-.159.317-.787.913-1.107 1.47-.316.555-1.232.6-1.474 1.594-.238.991-.407 2.651-.368 3.367.04.715.02 2.489.737 2.879.718.392 1.669 1.356 2.027 1.715.358.357 2.28.647 2.518.49.24-.159 1.099-.49 1.537-.49.439 0 1.38.069 1.659.306.277.239.619.752.859 1.348.238.596.478 1.602.676 1.96.199.357.956 1.039.675 1.715-.277.676-.755 1.349-.675 2.142.079.794.557 1.849.738 2.206.18.356 1.33 1.48 1.289 1.838-.039.357.299.269.737.43.439.156 2.3-.355 2.581-.675.277-.318.71-1.321 1.229-1.839.517-.515 1.592-1.362 2.148-1.96.559-.595 1.129-1.142 1.168-1.897.039-.756-.399-2.416 0-2.695.399-.278.951-.71 1.352-1.225.397-.517 1.245-.476 1.842-2.144.598-1.668.794-2.187.676-2.266-.118-.08-1.069.314-1.228.551-.159.24-1.091.298-1.292.49-.196.192-1.104 0-1.104 0s.383-1.505.184-2.02c-.2-.516-1.218-2.533-1.537-3.248-.261-.587-.306-1.265-.183-1.713.051.072.083.111.122.182.142.255.906 1.156 1.229 2.083a25.217 25.217 0 0 0 1.474 3.43s1.038.04 2.766-1.288c1.173-.9 2.429-.946 2.64-1.407.399-.874-1.229-1.654-1.229-1.654h-1.474l-1.105-1.9.307-.12s1.224 1.409 1.781 1.409c.558 0 2.04-.13 2.52.427.477.556 1.971 1.497 2.211 2.45.24.952.118 2.285.551 2.758.613.662 1.169.611 1.169.611l.737-1.715 1.72-1.96.364-.184C138.891 38.075 127.916 49 114.357 49a24.498 24.498 0 0 1-16.648-6.511l.737-1.084.861-3.43-2.09-1.286-2.393-.797-1.599-3.858s-1.49-1.201-2.726-1.758a24.444 24.444 0 0 1-.713-5.776c0-1.445.15-2.854.393-4.23 1.51-1.156 3.538-2.077 3.538-2.077s1.12-.13-.798-3.309a4.793 4.793 0 0 1-.547-1.286 24.566 24.566 0 0 1 2.896-4.527c-.098.582-.48 2.999.23 3.424.796.476 1.56-.994 1.72-1.47.159-.476 1.82-2.293 2.457-3.246.454-.68.295-1.999-.173-2.771A24.485 24.485 0 0 1 114.357 0zm-4.854 4.41c-.381.037-1.167.241-1.167.858v1.163s-.236.42-.368.552c-.133.132-.017.741.061.98.079.24.124.98.124.98s.385.2.491.306c.107.104 1.015.333 1.414.122.397-.21.629-.769.92-.796.293-.027.114-.025.061-.245-.051-.212.247-.98.247-.98l-.8-.674s-.483-1.03-.43-1.347c.053-.32-.393-.882-.368-.919.006-.02-.059-.02-.185 0zm-2.085 2.328c-.108.048-.317.306-.431.367-.151.076-.104.34-.184.55-.079.212-.307.98-.307.98l.491.185s.781-.147.861-.306c.063-.127-.167-.823-.247-1.103-.02-.067 0-.122 0-.122l-.122-.49c-.02-.039-.026-.078-.061-.062v.001zm20.579 6.737c.179 0 .532.125.613.184.106.079.106 1.01 0 1.592a.89.89 0 0 0 .491.98c.162.053.274 1.329.246 1.593-.025.265-.776.463-.983.49-.206.028-1.071.02-1.044-.368.028-.384-.149-1.64-.308-2.145-.157-.501-.116-1.215.124-1.346.239-.131.737-.92.737-.92.019-.042.063-.058.124-.06zm-1.107 21.683c-.096 0-.236.02-.37.06 0 0-.055 1.175-.613 1.532-.556.359-.922 1.05-.922 1.41 0 .356-.118.681 0 1.04.12.357.393.653.737.613.346-.039.72-.784.8-1.103.079-.318.376-1.004.614-1.225.239-.221.287-.845.245-1.164-.033-.277.177-1.178-.491-1.163z" fill="url(#a)"/><path d="m19.99 35.283-.063-10.174-4.862 8.165h-3.327L6.877 25.46v9.823H0V12.957h6.205l7.293 11.897 7.1-11.897h6.205l.064 22.326H19.99zM30.798 12.957h7.42v11.61l7.708-11.61h7.101v22.326h-7.42V23.706L37.93 35.283h-7.132V12.957zM67.783 12.957c2.068 0 3.87.34 5.405 1.02 1.535.681 2.719 1.66 3.55 2.935.832 1.276 1.248 2.764 1.248 4.465s-.416 3.19-1.248 4.466c-.831 1.276-2.014 2.254-3.55 2.934-1.535.68-3.337 1.02-5.405 1.02h-3.23v5.486h-7.549V12.957h10.779zm-.48 11.036c1.023 0 1.791-.223 2.303-.67.512-.468.768-1.116.768-1.946 0-.829-.256-1.467-.768-1.913-.512-.468-1.28-.702-2.303-.702h-2.75v5.23h2.75zM172.41 13.563V35.89h-7.421V19.4h-6.812v16.49h-7.421V13.562h21.654zM187.756 36.4c-2.41 0-4.574-.5-6.493-1.5-1.919-.999-3.423-2.38-4.51-4.145-1.088-1.787-1.631-3.796-1.631-6.029 0-2.232.543-4.231 1.631-5.996 1.087-1.786 2.591-3.179 4.51-4.178 1.919-1 4.083-1.499 6.493-1.499 2.409 0 4.573.5 6.492 1.499 1.92 1 3.423 2.392 4.51 4.178 1.088 1.765 1.632 3.764 1.632 5.996 0 2.233-.544 4.242-1.632 6.029-1.087 1.764-2.59 3.146-4.51 4.146-1.919 1-4.083 1.499-6.492 1.499zm0-6.092c.938 0 1.78-.223 2.526-.67a5.011 5.011 0 0 0 1.823-1.945c.448-.85.672-1.84.672-2.967s-.224-2.105-.672-2.934c-.447-.85-1.055-1.499-1.823-1.946-.746-.467-1.588-.701-2.526-.701-.939 0-1.792.234-2.559.701-.747.447-1.344 1.096-1.791 1.946-.448.83-.672 1.807-.672 2.934 0 1.127.224 2.116.672 2.967.447.829 1.044 1.477 1.791 1.945.767.447 1.62.67 2.559.67zM220.154 19.4h-9.627v16.49h-7.421V13.562h17.048V19.4zM233.438 13.563c2.069 0 3.87.34 5.406 1.02 1.535.681 2.718 1.66 3.55 2.935.832 1.276 1.247 2.764 1.247 4.465s-.415 3.19-1.247 4.466c-.832 1.275-2.015 2.254-3.55 2.934-1.536.68-3.337 1.02-5.406 1.02h-3.23v5.486h-7.549V13.563h10.779zm-.48 11.036c1.024 0 1.792-.224 2.303-.67.512-.468.768-1.116.768-1.946 0-.829-.256-1.467-.768-1.913-.511-.468-1.279-.702-2.303-.702h-2.75v5.23h2.75zM267.819 13.563l-8.988 16.809c-1.066 1.998-2.377 3.519-3.934 4.56a8.86 8.86 0 0 1-5.085 1.563c-1.429 0-2.879-.297-4.35-.893l1.759-5.422c.938.256 1.706.383 2.303.383.554 0 1.023-.096 1.407-.287.405-.191.789-.51 1.152-.957l-8.572-15.756h7.964l4.446 9.41 4.605-9.41h7.293zM284.388 24.28c1.194.489 2.121 1.201 2.782 2.137.683.935 1.024 1.998 1.024 3.19 0 1.403-.501 2.625-1.503 3.667-.981 1.02-2.314 1.807-3.998 2.36-1.664.532-3.519.798-5.566.798a22.82 22.82 0 0 1-9.307-1.946l2.207-5.199c1.045.426 2.132.755 3.262.989 1.13.213 2.196.319 3.199.319 1.215 0 2.196-.17 2.942-.51.768-.34 1.152-.84 1.152-1.5 0-.892-.736-1.339-2.207-1.339h-6.045v-5.422h5.405c.64 0 1.119-.117 1.439-.35.341-.235.512-.564.512-.99 0-.552-.298-.978-.896-1.275-.575-.298-1.343-.447-2.302-.447-.896 0-1.866.128-2.911.383a14.208 14.208 0 0 0-2.975 1.084l-2.207-5.581c2.474-1.127 5.161-1.69 8.061-1.69 1.94 0 3.731.265 5.373.797 1.663.531 2.985 1.307 3.966 2.328 1.002 1 1.503 2.18 1.503 3.54 0 1-.255 1.903-.767 2.711-.512.808-1.226 1.457-2.143 1.946zM311.379 13.563V35.89h-7.421v-7.144c-1.492.447-2.846.67-4.062.67-3.283 0-5.789-.776-7.516-2.328-1.706-1.553-2.559-3.817-2.559-6.794v-6.73h7.421v5.9c0 1.362.298 2.372.895 3.03.597.639 1.503.958 2.719.958 1.258 0 2.292-.17 3.102-.51v-9.378h7.421zM315.334 13.563h7.42v11.61l7.708-11.61h7.101V35.89h-7.42V24.313l-7.677 11.577h-7.132V13.563zM357.18 24.407l6.621 11.482h-8.508l-4.286-8.069h-2.111v8.07h-7.548V13.562h7.548v8.325h2.303l4.766-8.325h7.868l-6.653 10.844zM376.571 36.4c-2.409 0-4.573-.5-6.492-1.5-1.92-.999-3.423-2.38-4.51-4.145-1.088-1.787-1.632-3.796-1.632-6.029 0-2.232.544-4.231 1.632-5.996 1.087-1.786 2.59-3.179 4.51-4.178 1.919-1 4.083-1.499 6.492-1.499 2.41 0 4.574.5 6.493 1.499 1.919 1 3.423 2.392 4.51 4.178 1.088 1.765 1.631 3.764 1.631 5.996 0 2.233-.543 4.242-1.631 6.029-1.087 1.764-2.591 3.146-4.51 4.146-1.919 1-4.083 1.499-6.493 1.499zm0-6.092c.939 0 1.781-.223 2.527-.67a5.011 5.011 0 0 0 1.823-1.945c.448-.85.672-1.84.672-2.967s-.224-2.105-.672-2.934c-.447-.85-1.055-1.499-1.823-1.946-.746-.467-1.588-.701-2.527-.701-.938 0-1.791.234-2.558.701-.747.447-1.344 1.096-1.792 1.946-.447.83-.671 1.807-.671 2.934 0 1.127.224 2.116.671 2.967.448.829 1.045 1.477 1.792 1.945.767.447 1.62.67 2.558.67zM409.13 24.184c1.258.447 2.217 1.116 2.878 2.01.661.871.992 1.945.992 3.22 0 2-.8 3.584-2.399 4.753-1.578 1.148-3.817 1.722-6.717 1.722h-11.962V13.563h11.355c2.772 0 4.915.51 6.429 1.531 1.535 1.02 2.302 2.456 2.302 4.306 0 1.063-.255 1.999-.767 2.807-.491.808-1.194 1.467-2.111 1.977zm-9.788-2.041h3.199c1.237 0 1.855-.542 1.855-1.627 0-1.127-.618-1.69-1.855-1.69h-3.199v3.317zm4.19 8.484c1.237 0 1.856-.595 1.856-1.786 0-1.148-.619-1.723-1.856-1.723h-4.19v3.509h4.19z" fill="#222"/><defs><linearGradient id="a" x1="131.249" y1="2.144" x2="95.435" y2="44.57" gradientUnits="userSpaceOnUse"><stop stop-color="#004D95"/><stop offset="1" stop-color="#4CA7FC"/></linearGradient></defs></svg>