<svg width="70" height="70" fill="none" xmlns="http://www.w3.org/2000/svg"><path d="m36.738 4.586 6.002 4.619c.536.41 1.201.616 1.875.582l7.696-.368a2.76 2.76 0 0 1 2.812 1.951l2.013 7.105A2.657 2.657 0 0 0 58.294 20l6.454 4.023a2.584 2.584 0 0 1 1.074 3.157l-2.744 6.88a2.535 2.535 0 0 0 0 1.882l2.744 6.88a2.584 2.584 0 0 1-1.074 3.155L58.294 50c-.561.347-.974.89-1.158 1.524l-2.015 7.105a2.758 2.758 0 0 1-2.81 1.95l-7.696-.367a2.857 2.857 0 0 0-1.875.582l-6.002 4.62a2.873 2.873 0 0 1-3.476 0l-6.002-4.62a2.857 2.857 0 0 0-1.876-.582l-7.695.368a2.76 2.76 0 0 1-2.812-1.951l-2.013-7.105A2.657 2.657 0 0 0 11.705 50l-6.453-4.023a2.584 2.584 0 0 1-1.074-3.157l2.744-6.88a2.535 2.535 0 0 0 0-1.882l-2.744-6.88a2.583 2.583 0 0 1 1.074-3.157l6.454-4.023c.561-.347.974-.89 1.158-1.524l2.015-7.105a2.759 2.759 0 0 1 2.81-1.95l7.695.367a2.857 2.857 0 0 0 1.876-.582l6.002-4.62a2.873 2.873 0 0 1 3.476 0z" stroke="#2C72C6" stroke-width="4" stroke-linecap="round" stroke-linejoin="round"/><path d="m36.504 20.597 2.837 8.028a1.612 1.612 0 0 0 1.439 1.094l8.18.341a1.692 1.692 0 0 1 .93 2.99l-6.426 5.302a1.721 1.721 0 0 0-.551 1.772l2.218 8.236a1.621 1.621 0 0 1-2.433 1.852L35.89 45.46a1.545 1.545 0 0 0-1.78 0l-6.808 4.752a1.62 1.62 0 0 1-2.433-1.85l2.218-8.238a1.72 1.72 0 0 0-.55-1.772l-6.425-5.3a1.69 1.69 0 0 1 .93-2.99l8.178-.34a1.612 1.612 0 0 0 1.44-1.095l2.836-8.028a1.58 1.58 0 0 1 3.008 0v-.002z" stroke="#2C72C6" stroke-width="4" stroke-linecap="round" stroke-linejoin="round"/></svg>