<svg width="30" height="35" viewBox="0 0 30 35" fill="none" xmlns="http://www.w3.org/2000/svg">
<path d="M15 0.866669C9.00233 0.866669 4 5.698 4 11.8667C4 14.2135 4.7052 16.3061 6.0586 18.2671L14.1582 30.9057C14.5511 31.5201 15.4497 31.5189 15.8418 30.9057L23.9765 18.2241C25.3008 16.352 26 14.1538 26 11.8667C26 5.80127 21.0654 0.866669 15 0.866669ZM15 16.8667C12.2431 16.8667 10 14.6235 10 11.8667C10 9.1098 12.2431 6.86667 15 6.86667C17.7569 6.86667 20 9.1098 20 11.8667C20 14.6235 17.7569 16.8667 15 16.8667Z" fill="#1BAFE5"/>
<path d="M22.8176 23.8463L17.7822 31.7188C16.4788 33.7509 13.5139 33.7443 12.2168 31.7207L7.1732 23.8484C2.7356 24.8744 0 26.7539 0 29C0 32.8975 7.72853 35 15 35C22.2715 35 30 32.8975 30 29C30 26.7523 27.2606 24.8718 22.8176 23.8463Z" fill="#1BAFE5"/>
</svg>
