<svg width="19" height="28" viewBox="0 0 19 28" fill="none" xmlns="http://www.w3.org/2000/svg">
<path d="M9.49976 0C5.75502 0 2.70966 3.04536 2.70966 6.7901C2.70966 10.5348 5.75502 13.5802 9.49976 13.5802C13.2445 13.5802 16.2899 10.5348 16.2899 6.7901C16.2899 3.04536 13.2445 0 9.49976 0ZM9.49976 10.1852C7.62739 10.1852 6.10471 8.66247 6.10471 6.7901C6.10471 4.91773 7.62739 3.39505 9.49976 3.39505C11.3721 3.39505 12.8948 4.91773 12.8948 6.7901C12.8948 8.66247 11.3721 10.1852 9.49976 10.1852Z" fill="white"/>
<path d="M18.5035 13.3918C17.8397 12.7281 16.7669 12.7281 16.1032 13.3918C12.4637 17.0313 6.53929 17.0313 2.8981 13.3918C2.23437 12.7281 1.16153 12.7281 0.497799 13.3918C-0.165933 14.0556 -0.165933 15.1284 0.497799 15.7938C2.60952 17.9056 5.28652 19.1091 8.0467 19.4232L3.20705 24.2628C2.54332 24.9265 2.54332 25.9994 3.20705 26.6631C3.87078 27.3268 4.94362 27.3268 5.60735 26.6631L9.49978 22.7707L13.3922 26.6631C13.7232 26.9941 14.1578 27.1605 14.5924 27.1605C15.0269 27.1605 15.4615 26.9941 15.7925 26.6631C16.4562 25.9994 16.4562 24.9265 15.7925 24.2628L10.9529 19.4232C13.713 19.1091 16.39 17.9056 18.5018 15.7938C19.1655 15.1301 19.1655 14.0556 18.5035 13.3918Z" fill="white"/>
</svg>
