<svg width="26" height="25" viewBox="0 0 26 25" fill="none" xmlns="http://www.w3.org/2000/svg">
<path d="M24.2289 16.7341C22.9082 15.6867 21.6967 15.1776 20.5251 15.1776C18.8303 15.1776 17.61 16.2415 16.5052 17.3313C16.3782 17.4568 16.2243 17.5153 16.0212 17.5153C15.0902 17.5154 13.4524 16.3649 11.1533 14.0958C8.44849 11.4265 7.42585 9.72877 8.11349 9.04992C9.97761 7.211 10.5596 5.36753 7.70547 1.86481C6.68373 0.609906 5.68407 0 4.64939 0C3.25401 0 2.19327 1.10069 1.25741 2.0719C1.09561 2.23978 0.942773 2.39837 0.79292 2.54625C-0.264834 3.58996 -0.264291 5.86653 0.794458 8.63638C1.9561 11.6755 4.24969 14.9815 7.25283 17.9454C9.57529 20.2371 12.1023 22.0891 14.5607 23.3326C16.7071 24.4183 18.789 25 20.423 25C20.4232 25 20.4234 25 20.4237 25C21.4462 25 22.2768 24.7799 22.8254 24.3322C23.9397 23.4231 26.0138 21.7391 25.9999 19.7388C25.9923 18.666 25.3966 17.6606 24.2289 16.7341Z" fill="#1BAFE5"/>
</svg>
