<svg width="25" height="14" viewBox="0 0 25 14" fill="none" xmlns="http://www.w3.org/2000/svg">
<path d="M24.3151 12.5955C24.2855 12.5317 24.2579 12.4788 24.2323 12.4364C23.8082 11.6726 22.9977 10.735 21.8014 9.62343L21.7761 9.59798L21.7634 9.5855L21.7506 9.5727H21.7378C21.1948 9.05511 20.851 8.70709 20.707 8.52891C20.4436 8.18949 20.3845 7.84593 20.5285 7.49782C20.6302 7.23481 21.0124 6.67937 21.674 5.83074C22.022 5.38099 22.2976 5.02053 22.5012 4.74897C23.9692 2.79734 24.6056 1.55023 24.4104 1.00713L24.3345 0.88022C24.2836 0.803814 24.1521 0.733915 23.9402 0.670168C23.7278 0.606556 23.4564 0.596036 23.1254 0.638429L19.46 0.663749C19.4007 0.642709 19.3159 0.64467 19.2054 0.670168C19.0951 0.695667 19.0399 0.708461 19.0399 0.708461L18.9761 0.740335L18.9255 0.778627C18.883 0.803947 18.8363 0.848481 18.7854 0.912138C18.7347 0.975573 18.6923 1.05002 18.6584 1.13485C18.2594 2.16152 17.8057 3.11607 17.2964 3.99845C16.9825 4.5246 16.6941 4.98059 16.4308 5.36668C16.1679 5.75264 15.9472 6.037 15.7692 6.21928C15.5909 6.40174 15.43 6.54791 15.2854 6.65833C15.1411 6.76879 15.031 6.81547 14.9547 6.79839C14.8783 6.78132 14.8063 6.76438 14.7381 6.74744C14.6194 6.67103 14.5239 6.56712 14.4519 6.43562C14.3796 6.30411 14.3309 6.13859 14.3055 5.9392C14.2802 5.73967 14.2652 5.56804 14.2609 5.42374C14.2569 5.27962 14.2588 5.07577 14.2674 4.81276C14.2762 4.54961 14.2802 4.37157 14.2802 4.27822C14.2802 3.95574 14.2864 3.60576 14.2991 3.22819C14.3119 2.85061 14.3223 2.55145 14.331 2.33105C14.3396 2.11044 14.3436 1.87703 14.3436 1.63096C14.3436 1.38489 14.3287 1.19191 14.2991 1.05185C14.2698 0.911959 14.2249 0.776175 14.1658 0.644536C14.1063 0.513031 14.0192 0.411304 13.9049 0.339088C13.7903 0.266961 13.648 0.209723 13.4785 0.167195C13.0288 0.0654237 12.4561 0.0103699 11.7602 0.00181093C10.1821 -0.0151287 9.16804 0.0867764 8.71834 0.307393C8.54016 0.400605 8.37892 0.527965 8.23476 0.689069C8.08199 0.875807 8.06068 0.977712 8.17097 0.994474C8.68014 1.07075 9.04059 1.2532 9.25274 1.54167L9.32919 1.69453C9.38866 1.80481 9.44804 2.00006 9.50746 2.28001C9.56679 2.55996 9.60509 2.86965 9.62194 3.20888C9.66429 3.82839 9.66429 4.35869 9.62194 4.79983C9.57945 5.24115 9.53933 5.58471 9.50104 5.83078C9.46275 6.07685 9.40551 6.27625 9.32919 6.42893C9.25274 6.58166 9.20188 6.675 9.17638 6.70888C9.15093 6.74276 9.12971 6.76411 9.11286 6.77249C9.00257 6.81475 8.88787 6.83628 8.76916 6.83628C8.65027 6.83628 8.5061 6.77682 8.33644 6.65797C8.16682 6.53913 7.99078 6.37588 7.80833 6.16797C7.62587 5.96002 7.4201 5.66941 7.19092 5.29612C6.96192 4.92282 6.72432 4.48163 6.47825 3.97255L6.27466 3.60336C6.14739 3.36584 5.97354 3.02001 5.75292 2.56616C5.53217 2.11213 5.33706 1.67295 5.16744 1.2487C5.09963 1.07052 4.99777 0.934873 4.86203 0.841527L4.79833 0.803234C4.75598 0.769355 4.688 0.73338 4.59474 0.695043C4.50135 0.65675 4.4039 0.62929 4.302 0.612395L0.814707 0.637716C0.458351 0.637716 0.21656 0.718446 0.0892451 0.879685L0.0382925 0.955958C0.0128385 0.998441 0 1.06629 0 1.15968C0 1.25303 0.025454 1.36759 0.0764067 1.50324C0.585487 2.69972 1.1391 3.85362 1.73725 4.96512C2.3354 6.07663 2.85518 6.97198 3.29627 7.65037C3.73746 8.32925 4.18717 8.96997 4.64538 9.57221C5.1036 10.1747 5.40691 10.5608 5.55531 10.7304C5.70389 10.9003 5.82059 11.0274 5.90542 11.1122L6.22367 11.4176C6.4273 11.6213 6.72633 11.8652 7.12089 12.1494C7.51554 12.4338 7.95245 12.7137 8.43184 12.9897C8.91132 13.2652 9.46912 13.4901 10.1056 13.664C10.7419 13.8381 11.3613 13.9079 11.9638 13.8742H13.4274C13.7243 13.8486 13.9492 13.7552 14.102 13.5941L14.1527 13.5303C14.1867 13.4797 14.2186 13.401 14.248 13.2951C14.2778 13.1891 14.2926 13.0723 14.2926 12.9452C14.2839 12.5804 14.3117 12.2516 14.3752 11.9589C14.4386 11.6663 14.5109 11.4457 14.5918 11.2971C14.6726 11.1487 14.7638 11.0234 14.8653 10.9219C14.967 10.8201 15.0395 10.7584 15.082 10.7372C15.1243 10.7159 15.158 10.7014 15.1835 10.6927C15.3871 10.6248 15.6268 10.6905 15.9028 10.8901C16.1786 11.0895 16.4373 11.3357 16.6793 11.6283C16.9211 11.9212 17.2117 12.2498 17.551 12.6146C17.8905 12.9795 18.1874 13.2507 18.4419 13.4292L18.6963 13.5819C18.8663 13.6838 19.0869 13.7772 19.3584 13.862C19.6295 13.9468 19.867 13.968 20.071 13.9256L23.329 13.8748C23.6513 13.8748 23.902 13.8214 24.0799 13.7156C24.2581 13.6095 24.364 13.4927 24.3982 13.3656C24.4322 13.2384 24.434 13.094 24.4046 12.9326C24.3744 12.7717 24.3447 12.6591 24.3151 12.5955Z" fill="white"/>
</svg>
