<svg width="157" height="43" viewBox="0 0 157 43" fill="none" xmlns="http://www.w3.org/2000/svg">
<path d="M156.037 42.2284C156.589 42.2081 157.02 41.7443 156.999 41.1924L156.67 32.1985C156.65 31.6465 156.186 31.2155 155.634 31.2357C155.082 31.256 154.651 31.7198 154.671 32.2717L154.964 40.2663L146.969 40.5592C146.418 40.5794 145.986 41.0432 146.007 41.5951C146.027 42.1471 146.491 42.5781 147.043 42.5579L156.037 42.2284ZM2.34166 21.1583C2.83185 20.9039 3.02297 20.3002 2.76854 19.8101C2.5141 19.3199 1.91047 19.1288 1.42029 19.3832L2.34166 21.1583ZM6.84001 16.622C6.34565 16.8682 6.14448 17.4685 6.39069 17.9629C6.63689 18.4573 7.23725 18.6584 7.73162 18.4122L6.84001 16.622ZM9.52229 17.5285C10.0185 17.286 10.2241 16.6871 9.98151 16.1909C9.73896 15.6948 9.14011 15.4892 8.64393 15.7317L9.52229 17.5285ZM14.1457 13.1293C13.6432 13.3585 13.4217 13.9517 13.6509 14.4541C13.88 14.9566 14.4732 15.1782 14.9757 14.949L14.1457 13.1293ZM16.8037 14.1263C17.3084 13.9022 17.536 13.3114 17.312 12.8066C17.0879 12.3018 16.497 12.0742 15.9922 12.2983L16.8037 14.1263ZM21.5984 9.92029C21.0863 10.1271 20.8388 10.7099 21.0456 11.222C21.2524 11.7341 21.8351 11.9816 22.3473 11.7748L21.5984 9.92029ZM24.2095 11.036C24.7242 10.8356 24.9788 10.2559 24.7784 9.74124C24.5779 9.22663 23.9982 8.97195 23.4836 9.17242L24.2095 11.036ZM29.207 7.07116C28.6848 7.25095 28.4072 7.82003 28.587 8.34223C28.7668 8.86443 29.3359 9.14201 29.8581 8.96222L29.207 7.07116ZM31.7523 8.32491C32.277 8.15252 32.5626 7.58743 32.3902 7.06274C32.2178 6.53805 31.6527 6.25245 31.128 6.42484L31.7523 8.32491ZM36.9715 4.64777C36.4396 4.79636 36.1289 5.34803 36.2775 5.87995C36.426 6.41187 36.9777 6.72262 37.5096 6.57403L36.9715 4.64777ZM39.4321 6.05315C39.9663 5.91292 40.2856 5.3662 40.1454 4.83201C40.0052 4.29782 39.4585 3.97846 38.9243 4.11869L39.4321 6.05315ZM44.8656 2.71351C44.3251 2.82716 43.9791 3.35742 44.0927 3.89788C44.2064 4.43835 44.7367 4.78436 45.2771 4.67071L44.8656 2.71351ZM47.2378 4.27591C47.7801 4.17155 48.1351 3.6473 48.0308 3.10496C47.9264 2.56263 47.4022 2.20758 46.8598 2.31194L47.2378 4.27591ZM52.8804 1.31732C52.3332 1.39271 51.9508 1.89734 52.0262 2.44446C52.1016 2.99157 52.6062 3.37399 53.1533 3.2986L52.8804 1.31732ZM55.145 3.04273C55.6934 2.9774 56.085 2.47986 56.0197 1.93146C55.9543 1.38305 55.4568 0.991443 54.9084 1.05678L55.145 3.04273ZM60.9858 0.504124C60.4346 0.538617 60.0157 1.01342 60.0502 1.56463C60.0847 2.11583 60.5595 2.53471 61.1107 2.50022L60.9858 0.504124ZM63.103 2.39456C63.6548 2.37057 64.0827 1.90383 64.0587 1.35207C64.0347 0.800307 63.5679 0.37246 63.0162 0.396447L63.103 2.39456ZM69.1301 0.307812C68.5779 0.299738 68.1237 0.740861 68.1156 1.29309C68.1075 1.84531 68.5486 2.29952 69.1009 2.3076L69.1301 0.307812ZM71.0955 2.3562C71.6475 2.37504 72.1102 1.94285 72.129 1.39089C72.1479 0.838925 71.7157 0.3762 71.1637 0.357363L71.0955 2.3562ZM77.2575 0.744608C76.7076 0.693413 76.2203 1.0977 76.1691 1.64761C76.1179 2.19751 76.5222 2.6848 77.0721 2.736L77.2575 0.744608ZM79.0645 2.94122C79.6133 3.00319 80.1084 2.60854 80.1704 2.05974C80.2324 1.51095 79.8377 1.01582 79.2889 0.95385L79.0645 2.94122ZM85.3441 1.81764C84.7998 1.72375 84.2825 2.08884 84.1886 2.63309C84.0948 3.17734 84.4598 3.69464 85.0041 3.78853L85.3441 1.81764ZM86.9591 4.14508C87.5014 4.24935 88.0256 3.89422 88.1299 3.35187C88.2342 2.80952 87.879 2.28533 87.3367 2.18105L86.9591 4.14508ZM93.2966 3.50412C92.7611 3.36925 92.2176 3.69407 92.0827 4.22964C91.9478 4.7652 92.2727 5.30869 92.8082 5.44357L93.2966 3.50412ZM94.7456 5.95071C95.2786 6.09552 95.828 5.78087 95.9728 5.2479C96.1177 4.71494 95.803 4.1655 95.27 4.02069L94.7456 5.95071ZM101.118 5.78265C100.593 5.60908 100.027 5.89341 99.8539 6.41772C99.6804 6.94202 99.9647 7.50775 100.489 7.68132L101.118 5.78265ZM102.387 8.32843C102.908 8.51124 103.479 8.23696 103.662 7.71581C103.845 7.19466 103.57 6.62398 103.049 6.44117L102.387 8.32843ZM108.754 8.60962C108.243 8.40032 107.659 8.64498 107.45 9.15607C107.241 9.66716 107.485 10.2511 107.996 10.4604L108.754 8.60962ZM109.827 11.2277C110.334 11.4453 110.922 11.2103 111.14 10.7027C111.358 10.1951 111.123 9.60718 110.615 9.38953L109.827 11.2277ZM116.161 11.9279C115.664 11.6862 115.066 11.8928 114.824 12.3894C114.582 12.886 114.789 13.4845 115.285 13.7262L116.161 11.9279ZM117.082 14.6177C117.575 14.867 118.176 14.6696 118.425 14.1767C118.675 13.6839 118.477 13.0823 117.985 12.833L117.082 14.6177ZM123.357 15.7032C122.875 15.4324 122.266 15.6029 121.995 16.0843C121.724 16.5656 121.895 17.1753 122.376 17.4462L123.357 15.7032ZM124.132 18.4513C124.61 18.729 125.222 18.5672 125.5 18.0898C125.777 17.6124 125.615 17.0003 125.138 16.7226L124.132 18.4513ZM130.328 19.8864C129.863 19.5896 129.244 19.7264 128.948 20.1921C128.651 20.6578 128.788 21.276 129.253 21.5729L130.328 19.8864ZM130.954 22.6729C131.416 22.9758 132.036 22.8471 132.339 22.3853C132.642 21.9236 132.513 21.3036 132.051 21.0007L130.954 22.6729ZM137.069 24.4294C136.619 24.1095 135.994 24.2151 135.675 24.6653C135.355 25.1154 135.46 25.7397 135.91 26.0597L137.069 24.4294ZM137.538 27.2311C137.985 27.5564 138.61 27.4582 138.935 27.0119C139.261 26.5655 139.162 25.94 138.716 25.6147L137.538 27.2311ZM143.578 29.2874C143.143 28.9471 142.514 29.0239 142.174 29.4589C141.834 29.8939 141.91 30.5224 142.345 30.8627L143.578 29.2874ZM143.91 32.1C144.341 32.445 144.97 32.375 145.315 31.9437C145.66 31.5124 145.59 30.8831 145.159 30.5381L143.91 32.1ZM149.859 34.4205C149.439 34.0622 148.808 34.1126 148.449 34.5329C148.091 34.9532 148.141 35.5844 148.562 35.9426L149.859 34.4205ZM150.074 37.244C150.49 37.6064 151.122 37.5623 151.484 37.1455C151.847 36.7287 151.803 36.0971 151.386 35.7347L150.074 37.244ZM155.922 39.7942C155.515 39.4202 154.883 39.4463 154.509 39.8526C154.134 40.2589 154.161 40.8915 154.567 41.2656L155.922 39.7942ZM1.46224 21.6158C1.75329 21.4641 2.04643 21.3116 2.34166 21.1583L1.42029 19.3832C1.12392 19.537 0.829734 19.6901 0.537756 19.8423L1.46224 21.6158ZM7.73162 18.4122C8.3216 18.1184 8.91851 17.8237 9.52229 17.5285L8.64393 15.7317C8.03544 16.0292 7.43411 16.3261 6.84001 16.622L7.73162 18.4122ZM14.9757 14.949C15.5791 14.6737 16.1885 14.3993 16.8037 14.1263L15.9922 12.2983C15.3706 12.5742 14.7551 12.8513 14.1457 13.1293L14.9757 14.949ZM22.3473 11.7748C22.9629 11.5262 23.5837 11.2798 24.2095 11.036L23.4836 9.17242C22.8499 9.41926 22.2215 9.66867 21.5984 9.92029L22.3473 11.7748ZM29.8581 8.96222C30.485 8.74637 31.1164 8.53384 31.7523 8.32491L31.128 6.42484C30.483 6.63676 29.8427 6.85231 29.207 7.07116L29.8581 8.96222ZM37.5096 6.57403C38.1465 6.39613 38.7873 6.22241 39.4321 6.05315L38.9243 4.11869C38.2692 4.29065 37.6183 4.46711 36.9715 4.64777L37.5096 6.57403ZM45.2771 4.67071C45.927 4.53406 46.5806 4.40237 47.2378 4.27591L46.8598 2.31194C46.1913 2.44059 45.5265 2.57454 44.8656 2.71351L45.2771 4.67071ZM53.1533 3.2986C53.8139 3.20758 54.4778 3.12222 55.145 3.04273L54.9084 1.05678C54.2289 1.13773 53.5529 1.22465 52.8804 1.31732L53.1533 3.2986ZM61.1107 2.50022C61.7719 2.45885 62.436 2.42356 63.103 2.39456L63.0162 0.396447C62.3363 0.426004 61.6595 0.461967 60.9858 0.504124L61.1107 2.50022ZM69.1009 2.3076C69.763 2.31728 70.4279 2.33342 71.0955 2.3562L71.1637 0.357363C70.4831 0.334135 69.8052 0.317682 69.1301 0.307812L69.1009 2.3076ZM77.0721 2.736C77.7338 2.7976 78.3979 2.86595 79.0645 2.94122L79.2889 0.95385C78.6093 0.877105 77.9321 0.807415 77.2575 0.744608L77.0721 2.736ZM85.0041 3.78853C85.6536 3.90057 86.3053 4.01937 86.9591 4.14508L87.3367 2.18105C86.6703 2.05293 86.0061 1.93184 85.3441 1.81764L85.0041 3.78853ZM92.8082 5.44357C93.4521 5.60571 94.0979 5.77471 94.7456 5.95071L95.27 4.02069C94.6103 3.84144 93.9525 3.66929 93.2966 3.50412L92.8082 5.44357ZM100.489 7.68132C101.12 7.8902 101.753 8.10587 102.387 8.32843L103.049 6.44117C102.404 6.21471 101.76 5.99524 101.118 5.78265L100.489 7.68132ZM107.996 10.4604C108.605 10.7097 109.215 10.9654 109.827 11.2277L110.615 9.38953C109.993 9.12296 109.373 8.86302 108.754 8.60962L107.996 10.4604ZM115.285 13.7262C115.883 14.0169 116.482 14.3141 117.082 14.6177L117.985 12.833C117.375 12.5248 116.767 12.2231 116.161 11.9279L115.285 13.7262ZM122.376 17.4462C122.96 17.775 123.546 18.11 124.132 18.4513L125.138 16.7226C124.543 16.3765 123.949 16.0367 123.357 15.7032L122.376 17.4462ZM129.253 21.5729C129.819 21.9336 130.386 22.3003 130.954 22.6729L132.051 21.0007C131.476 20.6233 130.902 20.2519 130.328 19.8864L129.253 21.5729ZM135.91 26.0597C136.452 26.4446 136.995 26.8351 137.538 27.2311L138.716 25.6147C138.166 25.2141 137.617 24.819 137.069 24.4294L135.91 26.0597ZM142.345 30.8627C142.866 31.2699 143.387 31.6824 143.91 32.1L145.159 30.5381C144.631 30.116 144.104 29.6991 143.578 29.2874L142.345 30.8627ZM148.562 35.9426C149.065 36.3715 149.569 36.8053 150.074 37.244L151.386 35.7347C150.876 35.2917 150.367 34.8536 149.859 34.4205L148.562 35.9426ZM154.567 41.2656C154.818 41.4963 155.068 41.7283 155.319 41.9616L156.681 40.4965C156.428 40.2612 156.174 40.0271 155.922 39.7942L154.567 41.2656Z" fill="#CCD6DE"/>
</svg>
