<svg width="157" height="42" viewBox="0 0 157 42" fill="none" xmlns="http://www.w3.org/2000/svg">
<path d="M156.204 20.1519C156.737 20.2966 157.052 20.846 156.907 21.379L154.549 30.0645C154.404 30.5975 153.855 30.9123 153.322 30.7676C152.789 30.6229 152.474 30.0735 152.619 29.5405L154.715 21.82L146.995 19.7239C146.462 19.5792 146.147 19.0298 146.292 18.4968C146.436 17.9638 146.986 17.6491 147.519 17.7938L156.204 20.1519ZM2.32226 0.730431C2.73056 1.10233 2.76006 1.73481 2.38816 2.14311C2.01625 2.55141 1.38378 2.58091 0.97548 2.209L2.32226 0.730431ZM5.52897 6.25759C5.11155 5.89595 5.06634 5.2644 5.42797 4.84699C5.78961 4.42957 6.42116 4.38435 6.83858 4.74599L5.52897 6.25759ZM8.34964 6.04312C8.77037 6.4009 8.82139 7.03201 8.46361 7.45273C8.10582 7.87346 7.47472 7.92448 7.05399 7.56669L8.34964 6.04312ZM11.7534 11.4442C11.322 11.0993 11.2519 10.4701 11.5968 10.0387C11.9417 9.60731 12.5709 9.53719 13.0023 9.88206L11.7534 11.4442ZM14.5709 11.1224C15.0059 11.4626 15.0828 12.091 14.7426 12.5261C14.4024 12.9612 13.774 13.0381 13.3389 12.6979L14.5709 11.1224ZM18.2035 16.3702C17.757 16.0452 17.6584 15.4198 17.9834 14.9732C18.3084 14.5267 18.9339 14.4281 19.3804 14.7531L18.2035 16.3702ZM21.0027 15.919C21.4531 16.2385 21.5592 16.8628 21.2396 17.3132C20.92 17.7636 20.2958 17.8697 19.8454 17.5501L21.0027 15.919ZM24.8887 20.9868C24.4264 20.6847 24.2965 20.065 24.5986 19.6027C24.9007 19.1404 25.5204 19.0105 25.9827 19.3126L24.8887 20.9868ZM27.6579 20.3915C28.1242 20.6874 28.2623 21.3054 27.9663 21.7717C27.6704 22.238 27.0524 22.376 26.5862 22.0801L27.6579 20.3915ZM31.801 25.2407C31.3228 24.9645 31.159 24.3528 31.4352 23.8746C31.7115 23.3963 32.3231 23.2326 32.8013 23.5088L31.801 25.2407ZM34.5427 24.4979C35.0249 24.7672 35.1975 25.3763 34.9283 25.8585C34.659 26.3407 34.0498 26.5133 33.5676 26.2441L34.5427 24.4979ZM38.9535 29.0956C38.4597 28.8483 38.2597 28.2476 38.507 27.7537C38.7542 27.2598 39.355 27.0599 39.8488 27.3071L38.9535 29.0956ZM41.6533 28.1929C42.151 28.4324 42.3603 29.0299 42.1208 29.5276C41.8814 30.0253 41.2838 30.2346 40.7861 29.9951L41.6533 28.1929ZM46.3403 32.5053C45.8316 32.2902 45.5936 31.7035 45.8088 31.1948C46.0239 30.6861 46.6106 30.4482 47.1193 30.6633L46.3403 32.5053ZM48.9661 31.4263C49.4782 31.633 49.7259 32.2157 49.5193 32.7279C49.3126 33.24 48.7299 33.4877 48.2178 33.2811L48.9661 31.4263ZM53.9379 35.4209C53.4158 35.2408 53.1385 34.6716 53.3186 34.1495C53.4987 33.6274 54.0679 33.3501 54.59 33.5302L53.9379 35.4209ZM56.4834 34.1647C57.0086 34.3356 57.2958 34.8999 57.1249 35.4251C56.954 35.9503 56.3897 36.2375 55.8645 36.0666L56.4834 34.1647ZM61.7159 37.799C61.1823 37.6566 60.8652 37.1086 61.0076 36.575C61.1501 36.0414 61.6981 35.7242 62.2317 35.8667L61.7159 37.799ZM64.1728 36.3658C64.7089 36.4985 65.036 37.0406 64.9034 37.5767C64.7708 38.1128 64.2286 38.4399 63.6925 38.3073L64.1728 36.3658ZM69.6646 39.6101C69.1219 39.5075 68.7652 38.9844 68.8678 38.4417C68.9704 37.8991 69.4935 37.5423 70.0361 37.6449L69.6646 39.6101ZM71.9921 37.996C72.5366 38.0884 72.903 38.6048 72.8105 39.1493C72.718 39.6938 72.2016 40.0602 71.6572 39.9677L71.9921 37.996ZM77.7037 40.8198C77.1549 40.7582 76.7599 40.2634 76.8214 39.7145C76.883 39.1657 77.3778 38.7707 77.9266 38.8322L77.7037 40.8198ZM79.9232 39.0369C80.4731 39.088 80.8775 39.5752 80.8263 40.1251C80.7752 40.675 80.288 41.0794 79.7381 41.0283L79.9232 39.0369ZM85.8387 41.4209C85.2867 41.401 84.8554 40.9375 84.8752 40.3856C84.895 39.8337 85.3585 39.4023 85.9104 39.4221L85.8387 41.4209ZM87.8938 39.4748C88.4461 39.4843 88.886 39.9397 88.8765 40.4919C88.867 41.0441 88.4116 41.484 87.8594 41.4745L87.8938 39.4748ZM93.9638 41.4086C93.4119 41.43 92.9472 40.9999 92.9259 40.448C92.9045 39.8962 93.3346 39.4315 93.8865 39.4101L93.9638 41.4086ZM95.887 39.3143C96.4383 39.2827 96.9109 39.7042 96.9424 40.2556C96.9739 40.8069 96.5525 41.2795 96.0011 41.311L95.887 39.3143ZM102.085 40.7965C101.536 40.8579 101.041 40.4628 100.98 39.9139C100.918 39.365 101.314 38.8703 101.862 38.8089L102.085 40.7965ZM103.855 38.5681C104.402 38.497 104.904 38.8833 104.975 39.431C105.046 39.9786 104.66 40.4803 104.112 40.5514L103.855 38.5681ZM110.143 39.607C109.6 39.7065 109.079 39.3468 108.98 38.8035C108.88 38.2603 109.24 37.7392 109.783 37.6397L110.143 39.607ZM111.731 37.266C112.272 37.1574 112.799 37.5083 112.908 38.0499C113.017 38.5914 112.666 39.1184 112.124 39.227L111.731 37.266ZM118.074 37.8797C117.538 38.0147 116.995 37.6901 116.86 37.1546C116.725 36.6191 117.049 36.0755 117.585 35.9404L118.074 37.8797ZM119.521 35.4356C120.054 35.2921 120.603 35.608 120.746 36.1413C120.89 36.6746 120.574 37.2233 120.041 37.3669L119.521 35.4356ZM125.886 35.6467C125.36 35.8146 124.797 35.5243 124.629 34.9982C124.461 34.472 124.752 33.9094 125.278 33.7414L125.886 35.6467ZM127.194 33.1137C127.718 32.9378 128.285 33.2197 128.461 33.7433C128.636 34.2669 128.354 34.8338 127.831 35.0096L127.194 33.1137ZM133.554 32.9491C133.039 33.1472 132.46 32.8898 132.262 32.3742C132.064 31.8587 132.321 31.2802 132.837 31.0822L133.554 32.9491ZM134.727 30.3408C135.24 30.1356 135.822 30.3849 136.027 30.8977C136.232 31.4104 135.983 31.9924 135.47 32.1976L134.727 30.3408ZM141.06 29.8302C140.556 30.0555 139.964 29.8294 139.739 29.3251C139.514 28.8209 139.74 28.2295 140.244 28.0042L141.06 29.8302ZM142.08 27.1694C142.582 26.9377 143.176 27.1562 143.408 27.6576C143.64 28.1589 143.421 28.7531 142.92 28.9849L142.08 27.1694ZM148.391 26.3324C147.898 26.5822 147.297 26.3855 147.047 25.893C146.797 25.4005 146.994 24.7986 147.486 24.5488L148.391 26.3324ZM149.271 23.6303C149.76 23.3746 150.364 23.5643 150.62 24.0539C150.875 24.5435 150.686 25.1476 150.196 25.4032L149.271 23.6303ZM155.541 22.4959C155.061 22.7678 154.45 22.5986 154.178 22.1179C153.907 21.6372 154.076 21.027 154.557 20.7551L155.541 22.4959ZM1.59388 0.0645926C1.83438 0.285215 2.07717 0.507186 2.32226 0.730431L0.97548 2.209C0.728592 1.98412 0.484057 1.76056 0.241879 1.53839L1.59388 0.0645926ZM6.83858 4.74599C7.33468 5.1758 7.83838 5.60834 8.34964 6.04312L7.05399 7.56669C6.5379 7.12781 6.02955 6.69127 5.52897 6.25759L6.83858 4.74599ZM13.0023 9.88206C13.5187 10.2949 14.0415 10.7084 14.5709 11.1224L13.3389 12.6979C12.8038 12.2794 12.2753 11.8614 11.7534 11.4442L13.0023 9.88206ZM19.3804 14.7531C19.9155 15.1425 20.4562 15.5313 21.0027 15.919L19.8454 17.5501C19.2922 17.1577 18.7449 16.7642 18.2035 16.3702L19.3804 14.7531ZM25.9827 19.3126C26.536 19.6741 27.0944 20.0338 27.6579 20.3915L26.5862 22.0801C26.0151 21.7176 25.4492 21.3531 24.8887 20.9868L25.9827 19.3126ZM32.8013 23.5088C33.377 23.8413 33.9575 24.1711 34.5427 24.4979L33.5676 26.2441C32.9738 25.9125 32.3849 25.5779 31.801 25.2407L32.8013 23.5088ZM39.8488 27.3071C40.4458 27.606 41.0473 27.9013 41.6533 28.1929L40.7861 29.9951C40.1706 29.699 39.5598 29.399 38.9535 29.0956L39.8488 27.3071ZM47.1193 30.6633C47.7307 30.9219 48.3463 31.1763 48.9661 31.4263L48.2178 33.2811C47.5876 33.0269 46.9618 32.7682 46.3403 32.5053L47.1193 30.6633ZM54.59 33.5302C55.2172 33.7465 55.8484 33.9581 56.4834 34.1647L55.8645 36.0666C55.2183 35.8563 54.5761 35.641 53.9379 35.4209L54.59 33.5302ZM62.2317 35.8667C62.875 36.0384 63.5221 36.2048 64.1728 36.3658L63.6925 38.3073C63.0298 38.1434 62.371 37.9739 61.7159 37.799L62.2317 35.8667ZM70.0361 37.6449C70.6847 37.7676 71.3367 37.8846 71.9921 37.996L71.6572 39.9677C70.9894 39.8543 70.3252 39.735 69.6646 39.6101L70.0361 37.6449ZM77.9266 38.8322C78.5889 38.9065 79.2544 38.9747 79.9232 39.0369L79.7381 41.0283C79.0567 40.965 78.3785 40.8954 77.7037 40.8198L77.9266 38.8322ZM85.9104 39.4221C86.5686 39.4458 87.2297 39.4634 87.8938 39.4748L87.8594 41.4745C87.1828 41.4629 86.5092 41.4449 85.8387 41.4209L85.9104 39.4221ZM93.8865 39.4101C94.5505 39.3845 95.2173 39.3525 95.887 39.3143L96.0011 41.311C95.3192 41.35 94.6401 41.3825 93.9638 41.4086L93.8865 39.4101ZM101.862 38.8089C102.524 38.735 103.188 38.6547 103.855 38.5681L104.112 40.5514C103.434 40.6396 102.758 40.7212 102.085 40.7965L101.862 38.8089ZM109.783 37.6397C110.43 37.5212 111.079 37.3967 111.731 37.266L112.124 39.227C111.462 39.3598 110.801 39.4864 110.143 39.607L109.783 37.6397ZM117.585 35.9404C118.228 35.7782 118.873 35.6099 119.521 35.4356L120.041 37.3669C119.383 37.5439 118.727 37.7148 118.074 37.8797L117.585 35.9404ZM125.278 33.7414C125.915 33.5381 126.553 33.3289 127.194 33.1137L127.831 35.0096C127.181 35.228 126.532 35.4403 125.886 35.6467L125.278 33.7414ZM132.837 31.0822C133.465 30.8408 134.095 30.5937 134.727 30.3408L135.47 32.1976C134.83 32.454 134.191 32.7045 133.554 32.9491L132.837 31.0822ZM140.244 28.0042C140.854 27.7314 141.467 27.4532 142.08 27.1694L142.92 28.9849C142.298 29.2722 141.678 29.5539 141.06 29.8302L140.244 28.0042ZM147.486 24.5488C148.079 24.2478 148.674 23.9416 149.271 23.6303L150.196 25.4032C149.593 25.7181 148.991 26.0278 148.391 26.3324L147.486 24.5488ZM154.557 20.7551C154.852 20.5878 155.149 20.4192 155.445 20.2493L156.439 21.9846C156.14 22.1564 155.84 22.3268 155.541 22.4959L154.557 20.7551Z" fill="#CCD6DE"/>
</svg>
