<svg width="430" height="430" viewBox="0 0 430 430" fill="none" xmlns="http://www.w3.org/2000/svg">
<g clip-path="url(#clip0_463_68)">
<g clip-path="url(#clip1_463_68)">
<path d="M113.034 -0.518555H159.892L536.134 377.101L513.394 399.841L113.034 -0.518555Z" fill="white"/>
<path d="M207.438 -0.518555H254.296L630.537 377.101L607.797 399.841L207.438 -0.518555Z" fill="white"/>
<path d="M791.096 75.2808H744.238L367.997 452.9L390.736 475.64L791.096 75.2808Z" fill="#FF7707"/>
<path d="M301.847 -0.518555H348.705L724.946 377.101L702.206 399.841L301.847 -0.518555Z" fill="white"/>
<path d="M696.69 75.2808H649.832L273.59 452.9L296.33 475.64L696.69 75.2808Z" fill="#FF7707"/>
<path d="M396.247 -0.518555H443.105L819.347 377.101L796.607 399.841L396.247 -0.518555Z" fill="white"/>
<path d="M602.286 75.2808H555.428L179.187 452.9L201.927 475.64L602.286 75.2808Z" fill="#FF7707"/>
<path d="M507.883 75.2808H461.025L84.7832 452.9L107.523 475.64L507.883 75.2808Z" fill="#FF7707"/>
</g>
</g>
<defs>
<clipPath id="clip0_463_68">
<rect width="429.062" height="429.062" fill="white" transform="translate(0 0.213379)"/>
</clipPath>
<clipPath id="clip1_463_68">
<rect width="828.97" height="800.719" fill="white" transform="matrix(-1 0 0 1 913.754 -325.079)"/>
</clipPath>
</defs>
</svg>
