<svg width="528" height="583" viewBox="0 0 528 583" fill="none" xmlns="http://www.w3.org/2000/svg">
<g clip-path="url(#clip0_88_371)">
<path d="M488.978 -0.994843H425.309L-85.9203 512.107L-55.0218 543.005L488.978 -0.994843Z" fill="white"/>
<path d="M-560.63 102H-496.961L14.2683 615.102L-16.6301 646L-560.63 102Z" fill="#FF7707"/>
<path d="M360.702 -0.994843H297.033L-214.196 512.107L-183.298 543.005L360.702 -0.994843Z" fill="white"/>
<path d="M-432.359 102H-368.689L142.54 615.102L111.641 646L-432.359 102Z" fill="#FF7707"/>
<path d="M232.423 -0.994843H168.753L-342.476 512.107L-311.577 543.005L232.423 -0.994843Z" fill="white"/>
<path d="M-304.083 102H-240.413L270.816 615.102L239.917 646L-304.083 102Z" fill="#FF7707"/>
<path d="M104.151 -0.994843H40.4815L-470.747 512.107L-439.849 543.005L104.151 -0.994843Z" fill="white"/>
<path d="M-175.807 102H-112.138L399.091 615.102L368.193 646L-175.807 102Z" fill="#FF7707"/>
<path d="M-47.5354 102H16.1341L527.363 615.102L496.465 646L-47.5354 102Z" fill="#FF7707"/>
<path d="M15.9697 102H-47.6999L-558.929 -411.102L-528.03 -442L15.9697 102Z" fill="#FF7707"/>
</g>
<defs>
<clipPath id="clip0_88_371">
<rect width="1126.39" height="1088" fill="white" transform="translate(-599.023 -442)"/>
</clipPath>
</defs>
</svg>
