<?xml version="1.0" standalone="no"?>
<!DOCTYPE svg PUBLIC "-//W3C//DTD SVG 20010904//EN"
 "http://www.w3.org/TR/2001/REC-SVG-20010904/DTD/svg10.dtd">
<svg version="1.0" xmlns="http://www.w3.org/2000/svg"
 width="350.000000pt" height="350.000000pt" viewBox="0 0 350.000000 350.000000"
 preserveAspectRatio="xMidYMid meet">

<g transform="translate(0.000000,350.000000) scale(0.100000,-0.100000)"
fill="#000000" stroke="none">
<path d="M413 3352 c-71 -25 -128 -65 -164 -115 -65 -89 -64 -85 -64 -397 l0
-285 28 -57 c35 -72 110 -140 184 -168 54 -20 72 -21 332 -18 267 3 277 4 319
26 67 36 129 98 159 161 l28 56 0 285 0 285 -34 63 c-39 71 -81 110 -161 150
l-55 27 -260 3 c-231 2 -266 0 -312 -16z m521 -143 c56 -14 114 -62 137 -113
16 -36 19 -68 19 -254 0 -230 -3 -249 -56 -311 -54 -65 -82 -71 -330 -71 -212
0 -223 1 -265 23 -29 16 -54 40 -74 72 l-30 48 -3 215 c-4 245 1 272 67 336
60 58 91 65 304 66 104 0 207 -5 231 -11z"/>
<path d="M590 3063 c-39 -8 -81 -43 -96 -79 -19 -46 -19 -253 0 -299 26 -62
62 -75 215 -75 117 0 138 3 166 20 53 33 65 71 65 210 0 199 -22 223 -210 226
-63 1 -126 0 -140 -3z"/>
<path d="M1548 3223 l-3 -148 -72 -3 -73 -3 0 -464 0 -465 75 0 75 0 0 -75 0
-75 75 0 76 0 -3 -147 -3 -148 -72 -3 -72 -3 -3 -72 -3 -72 -72 -3 -73 -3 0
-149 0 -149 73 -3 72 -3 3 -72 3 -73 -75 0 -76 0 0 -305 0 -305 75 0 74 0 3
73 3 72 70 0 70 0 3 -72 3 -73 74 0 74 0 3 73 3 72 72 3 72 3 3 72 3 72 73 3
72 3 0 -146 0 -145 -75 0 -75 0 0 -80 0 -80 80 0 80 0 0 75 0 75 150 0 150 0
0 75 0 75 75 0 75 0 0 -150 0 -150 75 0 75 0 0 -80 0 -80 230 0 230 0 0 80 0
80 -75 0 -75 0 0 230 0 230 -80 0 -80 0 0 -230 0 -230 -70 0 -70 0 0 230 0
230 -160 0 -160 0 0 -75 0 -75 -70 0 -70 0 0 75 0 75 -75 0 -76 0 3 68 3 67
223 3 222 2 0 160 0 160 -75 0 -76 0 3 68 3 67 72 3 73 3 2 227 3 227 73 3 72
3 0 -156 0 -155 150 0 150 0 0 -145 0 -145 -70 0 -70 0 0 75 0 76 -77 -3 -78
-3 -3 -77 -3 -78 76 0 75 0 0 -155 0 -155 235 0 235 0 0 80 0 80 -80 0 -80 0
0 75 0 75 80 0 80 0 0 80 0 80 -80 0 -80 0 0 70 0 69 -72 3 -73 3 0 75 0 75
72 3 72 3 3 72 3 72 78 3 77 3 0 74 0 75 -80 0 -80 0 0 -75 0 -76 -72 3 -73 3
-3 148 -3 147 -384 0 -385 0 0 -75 0 -76 -147 3 -148 3 -3 72 -3 72 -72 3 -72
3 -3 148 -3 147 75 0 75 0 3 -72 3 -73 78 -3 77 -3 0 81 0 80 -80 0 -80 0 0
70 0 70 80 0 80 0 0 385 0 385 -305 0 -304 0 -3 -147z m301 -315 l-1 -153 76
-3 76 -3 0 -69 0 -70 -75 0 c-64 0 -75 -2 -76 -17 0 -10 -1 -43 -2 -73 l-2
-55 -70 0 c-55 0 -70 3 -71 15 -1 8 -2 41 -3 72 l-1 57 -72 3 -73 3 -3 68 -3
67 76 0 75 0 0 80 0 79 -72 3 -73 3 -3 73 -3 72 151 0 151 0 -2 -152z m-151
-605 l-3 -148 -70 0 -70 0 -3 148 -3 147 76 0 76 0 -3 -147z m302 -683 l0
-370 -75 0 -75 0 0 370 0 370 75 0 75 0 0 -370z m448 -72 l3 -148 -71 0 -70 0
0 70 0 69 -72 3 -73 3 -3 64 c-2 35 -1 70 2 78 5 11 33 13 143 11 l138 -3 3
-147z m-750 -80 l3 -68 -76 0 -75 0 0 63 c0 35 3 67 7 71 4 4 37 6 73 4 l65
-3 3 -67z m452 -378 l0 -150 -150 0 -149 0 -3 -72 -3 -73 -148 -3 -148 -3 3
68 3 68 72 3 72 3 3 77 3 77 148 3 147 3 0 68 c0 37 3 71 7 74 3 4 37 7 75 7
l68 0 0 -150z m300 75 l0 -75 -70 0 -70 0 0 68 c0 38 3 72 7 75 3 4 35 7 70 7
l63 0 0 -75z"/>
<path d="M2565 3361 c-88 -23 -175 -91 -221 -173 l-29 -53 0 -295 c0 -289 0
-296 23 -338 34 -63 93 -124 154 -158 l53 -29 295 0 295 0 53 29 c66 37 116
92 151 165 l26 56 0 275 0 275 -28 56 c-32 67 -108 141 -174 171 -45 21 -64
22 -308 25 -143 1 -273 -2 -290 -6z m545 -171 c28 -16 55 -43 75 -74 l30 -49
0 -226 0 -226 -28 -48 c-15 -26 -47 -60 -69 -75 l-42 -27 -242 0 -242 0 -43
30 c-23 17 -53 50 -66 74 -22 42 -23 53 -23 264 0 204 2 224 21 264 12 24 36
55 55 69 64 50 92 54 319 51 203 -2 211 -3 255 -27z"/>
<path d="M2711 3060 c-18 -4 -48 -22 -65 -39 l-31 -31 0 -155 0 -155 33 -32
32 -33 156 0 156 0 34 37 34 38 0 149 c0 146 -1 150 -26 180 -14 17 -42 35
-62 41 -43 11 -211 12 -261 0z"/>
<path d="M180 2070 l0 -80 75 0 75 0 0 -70 0 -70 80 0 80 0 0 70 0 70 70 0 70
0 -2 -222 -3 -223 -67 -3 -68 -3 0 75 0 74 -47 4 c-27 1 -62 2 -80 0 l-32 -3
-3 -72 -3 -72 -72 -3 -73 -3 0 -74 0 -75 80 0 80 0 0 75 0 75 70 0 70 0 0 -75
0 -75 155 0 155 0 0 75 0 76 73 -3 72 -3 3 -72 3 -73 154 0 155 0 0 75 c0 71
-1 75 -22 76 -13 0 -80 0 -151 -1 l-127 -1 0 76 0 75 -80 0 -80 0 0 150 0 150
75 0 75 0 0 -70 0 -69 73 -3 72 -3 3 -72 3 -73 154 0 155 0 0 75 0 75 -150 0
-150 0 0 70 0 69 73 3 72 3 3 78 3 77 -386 0 -385 0 0 -75 0 -75 -70 0 -70 0
0 75 0 75 -80 0 -80 0 0 -80z"/>
<path d="M402 1221 c-96 -33 -175 -115 -206 -214 -15 -49 -17 -89 -14 -319 3
-251 4 -265 26 -309 35 -71 84 -122 154 -160 l63 -34 285 0 c270 0 287 1 330
21 68 32 135 98 167 162 l28 57 0 285 c0 283 0 285 -25 335 -31 64 -101 134
-165 165 -49 24 -56 25 -320 27 -242 3 -276 1 -323 -16z m563 -150 c49 -23 89
-64 109 -113 20 -46 23 -424 5 -479 -19 -55 -55 -95 -111 -123 -51 -25 -56
-26 -252 -26 -116 0 -218 5 -241 11 -52 15 -119 82 -134 134 -6 23 -11 124
-11 240 0 190 1 203 24 251 25 53 69 94 121 112 17 6 121 11 240 11 184 0 215
-2 250 -18z"/>
<path d="M549 917 c-60 -40 -70 -74 -67 -222 2 -101 7 -135 20 -153 34 -50 56
-57 182 -61 137 -4 179 6 221 49 30 31 30 32 33 164 6 223 -16 246 -224 246
-120 0 -134 -2 -165 -23z"/>
<path d="M1400 250 l0 -80 225 0 225 0 0 80 0 80 -225 0 -225 0 0 -80z"/>
<path d="M2300 250 l0 -80 80 0 80 0 0 80 0 80 -80 0 -80 0 0 -80z"/>
</g>
</svg>
