<svg width="88" height="108" viewBox="0 0 88 108" fill="none" xmlns="http://www.w3.org/2000/svg">
<path d="M3.8147e-05 75.2428V103.169C3.8147e-05 104.363 0.967196 105.329 2.16008 105.329H17.9575C19.0615 105.329 19.9375 104.49 20.0669 103.42C25.3502 104.962 36.4916 108 42.3065 108C42.7115 108 43.0912 107.985 43.4403 107.954C54.0042 107.017 81.3201 92.945 82.34 92.4135C85.2866 91.1447 87.3973 89.2042 87.3973 85.5916C87.3973 80.2888 81.5372 77.0841 78.2351 78.7845L65.1546 85.5768C63.1817 86.2295 57.5923 86.7861 56.9537 86.795C56.627 86.346 56.212 85.9365 55.6939 85.5916C38.5163 76.0208 38.2351 75.7174 37.4527 75.7174H20.1176V75.2428C20.1176 74.0489 19.1504 73.0828 17.9575 73.0828H2.16008C0.967218 73.0828 3.8147e-05 74.0489 3.8147e-05 75.2428ZM20.1175 80.0375H36.8884L53.4716 89.3295C53.4336 89.937 52.7628 91.6077 52.226 92.4367L38.8091 88.5343C37.6584 88.1968 36.4644 88.857 36.1322 90.0045C35.7989 91.1499 36.4571 92.3481 37.6025 92.6814L51.1206 96.6049C51.6227 96.8053 52.1616 96.9065 52.7238 96.9065C55.2417 96.9065 56.8274 93.3959 57.4672 91.0914C58.1034 91.0615 64.2299 90.4572 66.6955 89.6164C66.9345 89.5384 68.7031 88.595 79.9236 82.7756C81.5984 82.5843 83.0772 83.8981 83.0772 85.5916C83.0772 87.4962 81.699 87.9861 80.4932 88.509C80.2179 88.6524 52.7818 102.79 43.0584 103.65C38.5291 104.065 26.1299 100.723 20.1175 98.9319V80.0375H20.1175ZM4.32012 77.4029H15.7975V101.009H4.32012V77.4029ZM26.0028 32.8014C26.0028 37.6784 27.5701 42.2938 30.5359 46.1498C33.3784 49.8455 35.627 57.2474 36.5952 62.9428C36.7714 63.9807 37.671 64.74 38.7247 64.74H57.1103C58.1693 64.74 59.071 63.9722 59.2419 62.9281C60.1173 57.5744 62.155 50.0543 65.0186 46.4788C68.7512 41.817 70.3912 35.9529 69.6371 29.9685C68.3926 20.088 60.2935 12.1249 50.3813 11.0344C37.1985 9.61261 26.0028 19.9108 26.0028 32.8014ZM49.9088 15.3291C57.8581 16.2024 64.353 22.5876 65.3508 30.5085C65.9583 35.3242 64.642 40.0367 61.6456 43.7788C58.0353 48.2866 56.1042 56.2771 55.3026 60.4199H50.0691V43.4455L54.2511 39.2646C55.0948 38.4208 55.0948 37.0539 54.2511 36.2102C53.4073 35.3664 52.0404 35.3664 51.1966 36.2102L47.9091 39.4966L44.6216 36.2102C43.7778 35.3664 42.4109 35.3664 41.5672 36.2102C40.7234 37.054 40.7234 38.4209 41.5672 39.2646L45.7491 43.4455V60.4199H40.5188C39.385 54.8195 37.129 47.6369 33.9596 43.5172C31.5802 40.4227 30.3229 36.7164 30.3229 32.8014C30.3229 22.4463 39.328 14.1731 49.9088 15.3291ZM50.0691 7.91031V2.16004C50.0691 0.966121 49.102 0 47.9091 0C46.7162 0 45.749 0.966121 45.749 2.16004V7.91031C45.749 9.10423 46.7162 10.0703 47.9091 10.0703C49.102 10.0703 50.0691 9.10423 50.0691 7.91031Z" fill="#0291DD"/>
<path d="M28.0437 9.49447C27.2 8.65069 25.8331 8.65069 24.9893 9.49447C24.1455 10.3382 24.1455 11.7051 24.9893 12.5489L28.588 16.1476C29.4317 16.9913 30.7986 16.9914 31.6424 16.1476C32.4862 15.3038 32.4862 13.9369 31.6424 13.0931L28.0437 9.49447ZM67.2303 48.6811C66.3866 47.8373 65.0197 47.8373 64.1759 48.6811C63.3321 49.5248 63.3321 50.8917 64.1759 51.7355L67.7746 55.3342C68.6183 56.1779 69.9852 56.178 70.829 55.3342C71.6728 54.4904 71.6728 53.1235 70.829 52.2797L67.2303 48.6811ZM17.6559 30.2532C16.463 30.2532 15.4959 31.2193 15.4959 32.4133C15.4959 33.6072 16.463 34.5733 17.6559 34.5733H23.4062C24.5991 34.5733 25.5662 33.6072 25.5662 32.4133C25.5662 31.2193 24.5991 30.2532 23.4062 30.2532H17.6559V30.2532ZM78.1634 34.5733C79.3563 34.5733 80.3235 33.6072 80.3235 32.4133C80.3235 31.2193 79.3563 30.2532 78.1634 30.2532H72.4132C71.2203 30.2532 70.2531 31.2193 70.2531 32.4133C70.2531 33.6072 71.2203 34.5733 72.4132 34.5733H78.1634ZM28.588 48.6811L24.9893 52.2797C24.1455 53.1235 24.1455 54.4904 24.9893 55.3342C25.833 56.1779 27.1999 56.178 28.0437 55.3342L31.6424 51.7355C32.4862 50.8917 32.4862 49.5248 31.6424 48.6811C30.7986 47.8373 29.4317 47.8373 28.588 48.6811ZM67.7746 9.49447L64.1759 13.0931C63.3321 13.9369 63.3321 15.3038 64.1759 16.1476C65.0196 16.9913 66.3866 16.9914 67.2303 16.1476L70.829 12.5489C71.6728 11.7051 71.6728 10.3382 70.829 9.49447C69.9852 8.65071 68.6183 8.65069 67.7746 9.49447ZM41.775 68.1974C40.5821 68.1974 39.6149 69.1635 39.6149 70.3574C39.6149 71.5513 40.5821 72.5174 41.775 72.5174H54.0433C55.2362 72.5174 56.2034 71.5513 56.2034 70.3574C56.2034 69.1635 55.2362 68.1974 54.0433 68.1974H41.775Z" fill="#0291DD"/>
</svg>
