<svg width="90" height="20" viewBox="0 0 90 20" fill="none" xmlns="http://www.w3.org/2000/svg">
<path d="M84.1343 12.3284H82.2985V10.5373H81.3582V15.1045H82.2985V13.1344H84.1343V15.1045H85.0746V10.4926H84.1343V12.3284ZM78.9851 10.5373H77.9105L76.0746 15.1493H77.1045L77.4627 14.1194H79.4328L79.791 15.1493H80.8209L78.9851 10.5373ZM77.7313 13.2687L78.403 11.4329L79.0746 13.2687H77.7313ZM90 15.1045L87.9851 12.597L89.9105 10.4926H88.7463L87.0896 12.4627V10.4926H86.1493V15.1045H87.0896V12.7761L88.8358 15.1045H90ZM75.3582 12.6866C75.0896 12.4179 74.7313 12.2836 74.3731 12.2388H73.3881V11.3433H75.403V10.5373H72.4478V15.1045H74.3731C74.5522 15.1045 74.7313 15.0597 74.9105 15.015C75.0896 14.9702 75.2239 14.8359 75.3582 14.7015C75.4925 14.5672 75.5821 14.4329 75.6716 14.2538C75.7612 14.0747 75.7612 13.8956 75.7612 13.7164C75.7612 13.3135 75.5821 12.9553 75.3582 12.6866ZM74.5522 14.1642C74.4179 14.2985 74.2836 14.3433 74.1045 14.3881H73.3433V13.0448H74.1045C74.194 13.0448 74.2836 13.0448 74.3731 13.0896C74.4627 13.1344 74.5522 13.1791 74.597 13.2239C74.6418 13.2687 74.7313 13.3582 74.7313 13.4478C74.7761 13.5373 74.7761 13.6269 74.7761 13.7164C74.7761 13.8508 74.6866 14.0299 74.5522 14.1642ZM19.3881 15.8657H17.194L18.1791 14.1194L15.7164 9.77615H17.9552L19.2537 12.3284L20.5075 9.77615H22.6567L19.3881 15.8657ZM46.791 15.8657H44.0597C42.5821 15.8657 41.3731 14.612 41.3731 12.9105C41.3731 10.9403 42.5821 9.77615 44.0597 9.77615H46.791V11.2985H45.0448C44.0149 11.2985 43.3881 11.612 43.3881 12.8657C43.3881 14.1194 43.9702 14.3881 45.0448 14.3881H46.791V15.8657ZM53.9104 15.8657H51.8955V11.5672L49.6119 15.8657H47.194V9.77615H49.209V13.9403L51.4925 9.77615H53.9104V15.8657ZM39.3134 9.77615H37.1194L34.9702 14.8358L32.8209 9.77615H30.5821L27.9851 15.9105H30.0896L30.5373 14.612H32.7761L33.2687 15.9105H36.5821L38.194 11.4776L39.7612 15.9105H41.8657L39.3134 9.77615ZM31.1194 13.2239L31.791 11.4776L32.4179 13.2239H31.1194ZM26.9552 9.77615H22.8358V15.9105H24.806V14.1194H26.9552C29.0149 14.1194 29.0149 12.2836 29.0149 11.8806C29.0149 11.4776 29.0149 9.77615 26.9552 9.77615ZM26.2836 12.597H24.8507V11.2985H26.2836C26.5075 11.2985 27.0896 11.2985 27.0896 11.9254C27.0896 12.5523 26.5075 12.597 26.2836 12.597ZM58.3433 12.0597H56.3284V11.2538H60.1343V9.73137H54.3134V15.8657H58.3433C60.4478 15.8657 60.4478 14.612 60.4478 13.9403C60.4478 13.2687 60.4478 12.1045 58.3433 12.0597ZM57.9851 14.4776H56.2836V13.4926H57.9851C58.4328 13.4926 58.4328 13.806 58.4328 13.9403C58.4328 14.0747 58.4328 14.4776 57.9851 14.4776ZM6.85075 6.6866C6.98508 6.6866 7.16418 6.6866 7.29851 6.73137L7.25373 2.56719H7.74627C7.7015 4.00003 7.79105 5.38809 7.92538 6.82093C9.08956 7.08958 10.1642 7.67167 11.0149 8.56719C11.8657 9.46272 12.403 10.5373 12.6269 11.7463C12.8507 12.9553 12.6716 14.1642 12.1791 15.2836C11.6866 16.403 10.8806 17.2985 9.85075 17.9702C9.80597 17.9254 9.7612 17.8358 9.67165 17.7463C7.83582 15.4179 7.38806 11.9702 7.25373 8.97018C7.52239 9.01496 7.74627 9.05973 8.01493 9.10451C8.41791 11.6567 9.53732 14.0747 11.3284 15.9553C11.9552 15.1941 12.3134 14.1642 12.2239 13.1791C12.1791 12.1493 11.7313 11.209 11.0597 10.4926C10.2537 9.64182 9.26866 9.01496 8.14926 8.7463C7.61194 8.61197 7.07463 8.52242 6.53732 8.52242C6 8.52242 5.41791 8.61197 4.8806 8.7463C2.55224 9.32839 0.805974 11.1642 0.805974 13.3582C0.805974 14.2985 1.11941 15.1941 1.7015 15.9553C3.49254 14.0747 4.61194 11.6567 5.01493 9.10451C5.28359 9.05973 5.50747 9.05973 5.8209 8.97018C5.68657 12.015 5.23881 15.4179 3.40299 17.7015C3.35821 17.7911 3.26866 17.8806 3.22388 17.9254C2.19403 17.2538 1.43284 16.3135 0.940302 15.1941C0.447765 14.0747 0.313436 12.8657 0.537317 11.6567C0.761198 10.4478 1.34329 9.37317 2.14926 8.52242C2.95523 7.67167 4.07463 7.04481 5.23881 6.82093C5.41791 3.73137 5.37314 2.56719 5.37314 2.56719H5.86568L5.8209 6.73137C5.95523 6.6866 6.08956 6.64182 6.22388 6.6866V0.597046H6.7612C6.80597 0.597046 6.80597 6.6866 6.85075 6.6866Z" fill="#0E3263"/>
<path d="M6.85079 8.9254C6.89557 11.8358 7.11945 15.4179 8.05975 17.8806C8.1493 18.1493 8.28363 18.4179 8.46273 18.6866C7.83587 18.8657 7.209 18.9553 6.58213 19C5.95527 19 5.3284 18.9105 4.70154 18.6866C4.88064 18.3732 5.01497 18.1045 5.1493 17.7911C6.00005 15.3732 6.22393 11.7911 6.2687 8.9254H6.85079ZM66.1791 8.20898H66.5821V17.4329H66.1791V8.20898Z" fill="#0E3263"/>
</svg>
