<svg width="90" height="18" viewBox="0 0 90 18" fill="none" xmlns="http://www.w3.org/2000/svg">
<path d="M0 8.88945C0.00136842 6.54619 0.932843 4.29935 2.58979 2.6424C4.24674 0.985475 6.49358 0.054007 8.83684 0.0526123V3.25261C7.719 3.25472 6.62695 3.58851 5.69895 4.21172C4.77095 4.83493 4.04879 5.71951 3.62395 6.75345C3.19905 7.7874 3.09058 8.92419 3.31221 10.0198C3.53389 11.1155 4.07574 12.1207 4.86911 12.9081C5.66247 13.6956 6.67174 14.2299 7.769 14.4434C8.86626 14.6569 10.0022 14.5399 11.0329 14.1073C12.0636 13.6747 12.9428 12.946 13.5591 12.0134C14.1754 11.0808 14.501 9.98624 14.4947 8.8684H17.6947C17.6947 11.2149 16.7626 13.4652 15.1034 15.1245C13.4442 16.7836 11.1938 17.7158 8.84737 17.7158C6.50089 17.7158 4.25053 16.7836 2.59132 15.1245C0.932105 13.4652 0 11.2149 0 8.8684" fill="#016438"/>
<path d="M11.579 3.92101C11.5811 3.47743 11.7144 3.04438 11.9621 2.67643C12.2099 2.30848 12.561 2.02206 12.9712 1.85327C13.3814 1.68448 13.8324 1.64085 14.2674 1.7279C14.7023 1.81495 15.1018 2.02874 15.4155 2.34243C15.7291 2.65611 15.9429 3.05559 16.03 3.49053C16.117 3.92548 16.0735 4.37648 15.9047 4.78669C15.7358 5.19695 15.4495 5.54801 15.0815 5.7958C14.7135 6.04353 14.2805 6.1768 13.8369 6.1789C13.5402 6.17959 13.2462 6.12169 12.972 6.00843C12.6978 5.89522 12.4486 5.72895 12.2388 5.51911C12.029 5.30932 11.8627 5.06016 11.7495 4.7859C11.6362 4.51164 11.5783 4.21769 11.579 3.92101Z" fill="#016438"/>
<path d="M4.94214 8.88942C4.94214 8.11494 5.17182 7.35789 5.60209 6.71394C6.03235 6.06994 6.64393 5.56805 7.35946 5.27168C8.07493 4.97531 8.8623 4.89779 9.62188 5.04889C10.3815 5.19994 11.0792 5.57289 11.6268 6.12052C12.1745 6.66815 12.5474 7.36589 12.6985 8.12547C12.8496 8.88505 12.772 9.67242 12.4757 10.3879C12.1793 11.1034 11.6774 11.715 11.0335 12.1453C10.3895 12.5755 9.6324 12.8052 8.85793 12.8052C7.81982 12.8038 6.82467 12.3908 6.09061 11.6567C5.35656 10.9227 4.94356 9.92752 4.94214 8.88942Z" fill="#4FAE2E"/>
<path d="M80.6368 6.15784L80.3684 7.49994C79.721 10.4105 79.4736 11.3684 78.9473 14.2631L78.8105 14.3736L77.0421 14.4157L76.9526 14.3052L77.6684 11.3052L77.8684 10.321H74.0842C73.8157 11.4842 73.6157 12.5368 73.2789 14.2578L73.1421 14.3684L71.3736 14.4105L71.2842 14.2999L72 11.2999L72.2894 10.0052C72.6457 8.5602 72.9215 7.09652 73.1157 5.62099L73.2263 5.51047C73.8436 5.43783 74.4563 5.3342 75.0631 5.19994L75.1526 5.31047L74.9736 6.18415L74.7368 7.52099L74.4473 8.79468H78.2526C78.4999 7.67889 78.5894 7.07362 78.8105 5.63678L78.921 5.52626C79.5384 5.45552 80.1515 5.35183 80.7578 5.21573L80.8473 5.32626L80.6684 6.15257L80.6368 6.15784ZM59.321 10.0526C59.441 9.56115 59.5078 9.05831 59.521 8.55257C59.521 6.78415 58.3789 6.49468 57.7315 6.49468C54.9789 6.49468 54.6421 10.742 54.6421 11.3947C54.6421 12.7842 55.4684 13.4105 56.4315 13.4105C58.2894 13.4105 58.9842 11.4894 59.3157 10.0578L59.321 10.0526ZM61.1263 10.6157C60.7473 12.1157 59.6736 14.7105 56.3894 14.7105C54.0631 14.7105 52.7894 13.4999 52.7894 11.1315C52.7915 10.7954 52.8142 10.4596 52.8578 10.1263C52.861 10.0354 52.8752 9.94526 52.9 9.85783C53.5263 5.91047 55.2263 2.15783 58.9842 2.15783C59.7194 2.15115 60.4526 2.07536 61.1736 1.93152L60.9263 3.51047C60.1257 3.68562 59.3089 3.77557 58.4894 3.77889C58.1721 3.77189 57.8568 3.82778 57.5615 3.94341C57.2663 4.05905 56.9963 4.2321 56.7684 4.45257C56.5994 4.62162 56.4494 4.80868 56.321 5.01047C56.2215 5.15705 56.1384 5.3141 56.0736 5.47889C56.6105 5.31178 57.1694 5.22836 57.7315 5.23152C60.0157 5.23152 61.3789 6.5052 61.3789 8.7631C61.3726 9.39015 61.2894 10.0141 61.1315 10.621L61.1263 10.6157ZM83.6368 8.99994C84.0631 8.64205 84.2842 8.42099 84.8684 7.85783C85.4526 7.29468 86.9736 5.75257 87.2421 5.44204L87.4421 5.33152H89.4315L89.4789 5.48941C89.2999 5.64731 89.2105 5.71047 88.5157 6.29468C88.2473 6.52099 88.0684 6.69468 87.7315 6.98941L85.4736 9.09468L88.1789 14.2157L88.0684 14.3473L86.1421 14.3947L86.0052 14.2842C85.5578 13.2315 85.421 12.9631 84.7999 11.6894L83.5947 9.22626C83.2157 10.9263 82.9684 11.9999 82.5421 14.2368L82.4315 14.3473L80.6631 14.3947L80.5736 14.2842L81.2894 11.2894L81.5578 9.99468C81.9142 8.54968 82.19 7.08599 82.3842 5.61047L82.4947 5.49994C83.1121 5.4292 83.7252 5.32552 84.3315 5.18941L84.421 5.29994L84.2421 6.17362L83.9736 7.51573L83.6368 8.99994ZM68.2684 12.1578C68.0889 12.3261 67.8931 12.4759 67.6842 12.6052C67.2231 12.8746 66.6973 13.0129 66.1631 13.0052C64.5842 13.0052 64.1263 11.6631 64.1263 10.8368C64.1505 10.1397 64.33 9.45678 64.6515 8.83768C64.9726 8.21857 65.4278 7.67889 65.9842 7.25783C66.8078 6.7432 67.7663 6.48657 68.7368 6.52099H69.521L68.2684 12.1578ZM71.5789 5.35257L71.4894 5.21573H69.0947C67.4842 5.21573 65.2473 5.32626 63.6157 7.23152C62.7594 8.29331 62.2715 9.60494 62.2263 10.9684C62.2263 13.1368 63.6789 14.3894 65.4473 14.3894C66.3789 14.4216 67.2878 14.1023 67.9947 13.4947L67.8947 14.1684L67.9842 14.2999L69.6157 14.2526L69.7526 14.142C70.1105 12.0368 70.221 11.4105 70.8052 8.72626L71.5789 5.35257Z" fill="#4FAE2E"/>
<path d="M25.6105 14.6578C23.7105 14.6578 21.0052 14.0526 21.9894 9.68941C22.3684 8.05783 23.4894 4.56836 28.1631 4.56836C32.7052 4.56836 32.0315 8.28415 31.742 9.59994C30.8894 13.2947 28.6315 14.6578 25.6105 14.6578ZM26.2157 12.7105C27.5368 12.7105 28.1631 11.321 28.5631 9.55257C28.8526 8.29994 29.1473 6.46836 27.5578 6.46836C26.1947 6.46836 25.5894 7.78941 25.1894 9.55257C24.8315 11.2157 24.7368 12.7157 26.2157 12.7157V12.7105ZM36.6841 14.4368H33.7736L33.6842 14.3473C33.8631 13.7684 34.2684 12.1999 34.6894 10.2736C35.0473 8.73152 35.3368 7.3631 35.4736 6.74204C34.7368 6.74204 33.6157 6.74204 33.0578 6.78941L32.9684 6.65257C33.1052 6.18415 33.3263 5.35257 33.4368 4.8631L33.5947 4.77362C34.0842 4.77362 35.942 4.82099 37.421 4.82099C39.2315 4.82099 40.9789 4.77362 41.3578 4.75257L41.4947 4.84204C41.3578 5.26836 41.1157 6.1631 41.0052 6.63152L40.8263 6.74204H38.521C38.4315 7.14204 38.142 8.32099 37.6684 10.3894C37.3105 11.9684 37.021 13.3842 36.8631 14.3052L36.7052 14.4631L36.6841 14.4368ZM46.842 6.9631H45.2999C45.2105 7.3631 44.8526 8.8631 44.5157 10.321C44.1368 12.042 43.7789 13.6315 43.642 14.2999L43.4631 14.4105H40.5105L40.3999 14.2999C40.5789 13.5631 41.0684 11.5052 41.521 9.48941C41.9736 7.47362 42.3736 5.44204 42.5052 4.87889L42.6315 4.78941C43.6157 4.78941 44.5999 4.83678 47.0368 4.83678C48.9631 4.83678 50.7947 4.76836 51.7736 4.76836L51.8631 4.87889C51.7263 5.37362 51.1894 7.72099 50.6578 10.0473C50.2315 11.9263 49.8526 13.8052 49.742 14.321L49.6052 14.4315H46.6315L46.542 14.2999C46.6999 13.6736 47.0684 12.1947 47.4578 10.3631C47.7684 8.97362 48.0842 7.49994 48.2157 6.9631H46.8052H46.842Z" fill="#016438"/>
</svg>
