<svg width="90" height="22" viewBox="0 0 90 22" fill="none" xmlns="http://www.w3.org/2000/svg">
<path d="M24.0592 10.183L24.3813 9.17155L23.3337 9.2047C22.8431 9.1866 22.3706 9.02105 21.9732 8.7291H22.1147C22.7528 8.7261 23.3368 8.36185 23.6197 7.78995L24.0802 6.8057C23.719 6.8087 23.3578 6.7876 22.9996 6.74245C22.6565 6.6612 22.3495 6.4746 22.1177 6.2097C21.8047 5.8756 21.3713 5.68595 20.9137 5.68295C20.7361 5.68295 20.5585 5.71305 20.3869 5.7672C20.411 5.68595 20.4321 5.6047 20.4471 5.5204C20.5194 4.93345 20.3538 4.34045 19.9896 3.87391L19.195 2.89565L18.7073 4.03945C18.6291 4.202 18.5117 4.3435 18.3612 4.4458C18.2769 4.03645 18.0783 3.66321 17.7833 3.36823C17.2896 2.86254 16.6124 2.5796 15.905 2.58562C15.7816 2.58562 15.6582 2.59465 15.5378 2.61271L14.5866 2.79933C14.6679 2.48026 14.7973 2.17626 14.9719 1.89632L15.4956 1.0806L14.1772 1.20402L13.7558 0.301005L12.9431 0.74348L12.1907 0L11.4381 0.74348L10.6254 0.322075L10.204 1.20402L8.8856 1.05351L9.40935 1.87224C9.58395 2.15217 9.71335 2.45618 9.79465 2.77525L8.89165 2.59766H8.86155C8.7351 2.5796 8.6087 2.57057 8.48225 2.57057C7.7749 2.56455 7.09765 2.84749 6.604 3.35318C6.306 3.65117 6.10135 4.03045 6.02005 4.4458C5.8756 4.3465 5.7582 4.21105 5.67995 4.0515L5.1893 2.89866L4.38865 3.87993C4.03045 4.3465 3.8709 4.93645 3.94015 5.5204C3.9552 5.6047 3.97625 5.68595 4.00035 5.7672C3.82875 5.71305 3.65115 5.68295 3.4736 5.68295C3.01605 5.68595 2.5826 5.8756 2.26955 6.2097C2.0408 6.47155 1.7368 6.6582 1.39665 6.74245C1.03545 6.79665 0.66825 6.8177 0.301 6.8057L0.7495 7.805C1.03245 8.3769 1.6164 8.74115 2.2545 8.74415H2.396C2.0047 9.0301 1.53815 9.19565 1.0535 9.2167L0 9.17155L0.32205 10.183C0.5629 10.9746 1.24615 11.5555 2.0679 11.6608C1.9836 12.1936 1.6465 12.6542 1.1649 12.895L0.3582 13.2231L0.79165 13.9786C1.14985 14.5354 1.7669 14.8665 2.4261 14.8605C2.59765 14.8605 2.76925 14.8425 2.9378 14.8063C2.97995 14.99 3.0341 15.1736 3.0943 15.3512C3.2448 15.7485 3.25385 16.1819 3.1244 16.5853L2.7331 17.407L3.60905 17.6388C3.8047 17.6899 4.00935 17.7141 4.21105 17.7141C4.3555 17.7141 4.497 17.699 4.63845 17.6659C4.7408 17.6418 4.84315 17.6117 4.93945 17.5725C5.05085 17.7743 5.1923 17.9608 5.35185 18.1264C5.9117 18.7013 6.70635 18.9933 7.7147 18.9933H8.4341L6.95015 19.6103L8.0759 20.1672C8.53045 20.3899 8.994 20.5917 9.46655 20.7692L9.3311 21.1605L9.7194 21.3381C10.3636 21.591 11.0468 21.7325 11.7391 21.7565H12.6632C13.3525 21.7325 14.0328 21.5879 14.6739 21.3351L15.0501 21.1605L14.9177 20.7692C15.3963 20.5856 15.8659 20.3779 16.3234 20.1462L17.4281 19.6103L15.9471 19.0084H16.6695C17.6779 19.0084 18.4756 18.7074 19.0324 18.1415C19.195 17.9759 19.3335 17.7893 19.4448 17.5876C19.5411 17.6268 19.6434 17.6569 19.7458 17.681C19.8873 17.7141 20.0287 17.7291 20.1733 17.7291C20.3749 17.7291 20.5796 17.702 20.7752 17.6539L21.6542 17.4221L21.2719 16.6154C21.1274 16.206 21.1334 15.7575 21.2869 15.3512C21.3501 15.1676 21.4014 14.981 21.4435 14.7943C21.6121 14.8305 21.7866 14.8485 21.9582 14.8485C22.6234 14.8545 23.2435 14.5114 23.5956 13.9455L24.0231 13.199L23.2284 12.8739C22.7468 12.6331 22.4097 12.1726 22.3254 11.6398C23.1472 11.5315 23.8305 10.9535 24.0713 10.1588L24.0592 10.183Z" fill="white"/>
<path d="M15.8088 13.3796H8.58466V16.0886C8.58466 17.2024 9.38836 17.8947 10.5773 17.8947C11.5706 17.8947 11.8325 17.9338 12.1997 18.301C12.4315 18.0512 12.7596 17.9097 13.1027 17.9157V17.8736L13.3315 17.1692L12.9432 16.7448C12.7867 16.793 12.6241 16.8111 12.4616 16.802C12.2178 16.799 11.977 16.7749 11.7392 16.7268H11.6639C11.6308 16.7268 11.6308 16.7268 11.6218 16.7448L11.5767 16.8201L11.4954 16.9555L11.3389 16.9194L10.6435 16.7569L10.5472 16.9134V16.9315L10.6315 17.0248L10.5954 17.1452C10.5322 17.2927 10.4419 17.4251 10.3275 17.5395L10.1529 17.7261L9.99336 17.5274L9.87596 17.3799C9.74956 17.2144 9.71946 16.9977 9.79171 16.802L9.59606 16.8833L9.50876 16.6907L9.46061 16.5552C9.33716 16.2692 9.43046 15.9381 9.68031 15.7575L10.2402 15.4565L10.773 15.5619C10.773 15.5107 10.8061 15.3271 10.8211 15.282H10.791L10.49 15.3963L10.189 15.1917C10.1288 15.1315 10.1258 15.0321 10.189 14.9689L10.475 14.5355L9.74956 13.6325L10.8362 14.0599L10.9114 13.9696L11.0619 13.789L11.2335 13.9515C11.2787 13.9967 11.3088 14.0509 11.3238 14.1141C11.6248 14.2345 12.1817 14.5866 12.2268 15.1585L12.0552 15.2278C12.0763 15.2579 12.1034 15.282 12.1365 15.297L12.9312 15.3753L13.0034 15.3542C13.1389 15.303 13.2833 15.2759 13.4278 15.2729C13.5723 15.2729 13.7138 15.306 13.8432 15.3692C13.9004 15.3482 13.9636 15.3361 14.0238 15.3331H14.0629C14.4874 15.3331 14.7011 15.6522 14.8696 15.905L14.9569 16.0315C15.1044 16.2422 15.3001 16.5492 15.3091 16.5612L15.3964 16.6967L15.288 16.8231C15.1887 16.9555 15.0322 17.0308 14.8666 17.0308C14.8185 17.0338 14.7703 17.0338 14.7221 17.0308C14.68 17.0218 14.6379 17.0097 14.5957 16.9917C14.5957 17.0338 14.5957 17.085 14.5716 17.1271L14.4482 17.8375C15.267 17.6719 15.8449 16.9375 15.8118 16.1007L15.8088 13.3796ZM8.57566 13.1599H14.2014C13.9726 12.9191 13.8944 12.5729 13.9967 12.2569C13.9215 12.2208 13.8492 12.1726 13.786 12.1184C13.5663 12.281 12.883 12.7686 12.7205 12.892L12.6844 12.9161L10.475 12.5248H10.4298C10.3576 12.5278 10.2854 12.5278 10.2131 12.5248C10.192 12.6241 10.1048 12.6933 10.0054 12.6933H9.96931C9.85191 12.6723 9.77061 12.5609 9.78871 12.4435V12.3953C9.50271 12.1907 9.36726 11.8355 9.44251 11.4923V11.4532L9.47566 11.4291C9.47566 11.4291 9.51776 11.399 9.57496 11.3659L9.41546 11.3418C9.35526 11.3298 9.31611 11.2756 9.32516 11.2154C9.33416 11.1552 9.38836 11.1161 9.44856 11.1251H9.45156L9.83386 11.1853L9.86996 9.83982L10.4389 9.23782L10.7941 9.98427L10.4208 11.2786L10.7579 11.3328C10.8181 11.3448 10.8573 11.399 10.8482 11.4592C10.8392 11.5134 10.7941 11.5495 10.7399 11.5495H10.7218L10.4479 11.5044V11.5254C10.478 11.5796 10.5232 11.6218 10.5803 11.6488L12.2629 11.6759L12.6934 11.2515C12.3653 11.1371 12.1305 10.8482 12.0914 10.502C11.8807 10.4208 11.7091 10.2642 11.6128 10.0626C11.5315 9.87292 11.5165 9.65922 11.5737 9.46057C11.3088 9.35522 11.068 9.19567 10.8723 8.99097H8.37396C8.49436 9.28597 8.56361 9.59902 8.57566 9.91507V13.1599Z" fill="#FCE527"/>
<path d="M27.9932 10.8361H30.4735V15.0502H32.2795V10.8361H34.7598V9.30701H27.9932V10.8361ZM37.1437 12.6422V9.33111H35.3979V15.0502H36.9391L39.9491 11.703V15.0502H41.6949V9.30701H40.1538L37.1437 12.6422ZM47.5075 11.4381H44.7019V9.33111H42.9561V15.0502H44.7019V12.907H47.5075V15.0502H49.253V9.33111H47.5075V11.4381ZM55.3425 10.9927C54.93 10.8662 54.4965 10.8151 54.066 10.8361H52.26V9.33111H50.5145V15.0502L54.054 15.0261C54.4245 15.0321 54.7915 14.99 55.15 14.8937C56.059 14.6709 56.685 13.8432 56.655 12.907C56.691 12.0492 56.158 11.2666 55.3425 10.9927ZM54.4515 13.5813C54.2315 13.6565 53.997 13.6866 53.765 13.6656H52.26V12.2087H53.765C53.991 12.1937 54.2195 12.2208 54.4395 12.281C54.7165 12.3622 54.903 12.6181 54.897 12.907C54.9 13.202 54.7255 13.4699 54.4515 13.5813ZM63.969 9.33111H61.778L59.671 11.4863H59.1895V9.33111H57.4435V15.0502H59.1895V12.883H59.671L61.754 15.0502H64.0775L61.176 12.0402L63.969 9.33111Z" fill="#222220"/>
<path d="M67.726 9.15044C65.366 9.15044 63.957 10.4748 63.957 12.1845C63.957 13.8942 65.378 15.2186 67.7135 15.2186C70.0495 15.2186 71.458 13.8942 71.458 12.1845C71.458 10.4748 70.0855 9.15044 67.726 9.15044ZM67.7135 13.822C66.546 13.822 65.7995 13.1237 65.7995 12.1845C65.7995 11.2454 66.558 10.5591 67.7135 10.5591C68.8695 10.5591 69.628 11.2454 69.628 12.1845C69.628 13.1237 68.8815 13.822 67.7135 13.822ZM77.2105 9.55979V8.98189H75.4645V9.55979C73.273 9.60794 71.961 10.535 71.961 12.1725C71.961 13.81 73.273 14.6648 75.4645 14.713V15.2909H77.2105V14.713C79.4135 14.6648 80.726 13.81 80.726 12.1725C80.726 10.535 79.4165 9.60794 77.2105 9.55979ZM75.4645 13.4849C74.2605 13.4367 73.7305 12.9431 73.7305 12.1725C73.7305 11.4019 74.2605 10.8481 75.4645 10.7999V13.4849ZM77.2105 13.4849V10.7999C78.4265 10.8481 78.944 11.4019 78.944 12.1725H78.947C78.947 12.9431 78.4295 13.4367 77.2105 13.4849ZM86.484 9.55979V8.98189H84.7385V9.55979C82.547 9.60794 81.2345 10.535 81.2345 12.1725C81.2345 13.81 82.547 14.6648 84.7385 14.713V15.2909H86.484V14.713C88.6875 14.6648 90 13.81 90 12.1725C90 10.535 88.6875 9.60794 86.484 9.55979ZM84.7385 13.4849C83.5345 13.4367 83.0045 12.9431 83.0045 12.1725C83.0045 11.4019 83.5345 10.8481 84.7385 10.7999V13.4849ZM88.215 12.1725C88.215 12.9431 87.7005 13.4367 86.484 13.4849V10.7999C87.7005 10.8481 88.218 11.4019 88.218 12.1725H88.215ZM10.8843 14.5625C10.8481 14.5625 10.815 14.5896 10.812 14.6257V14.6287C10.809 14.6678 10.8391 14.7039 10.8782 14.7069H10.8812C10.9234 14.7069 10.9535 14.6738 10.9535 14.6347C10.9535 14.5926 10.9234 14.5625 10.8843 14.5625ZM10.8813 14.5594C10.8843 14.5594 10.8843 14.5625 10.8843 14.5625C10.8873 14.5625 10.8873 14.5594 10.8903 14.5594H10.8813ZM15.7996 19.4959L15.3842 19.3364L15.4986 18.9059L15.625 18.4364C15.0561 18.7283 14.4602 18.9631 13.8461 19.1377C13.5451 19.222 13.3284 19.2611 13.3284 19.2611V19.5651C12.9582 19.6253 12.5849 19.6584 12.2087 19.6615H12.1755C11.7993 19.6584 11.426 19.6253 11.0558 19.5651V19.2641C11.0558 19.2641 10.8361 19.222 10.5351 19.1377C9.92103 18.9631 9.32503 18.7283 8.75613 18.4364L8.87957 18.9059L8.99693 19.3364L8.57858 19.4959L8.12708 19.6675C8.74713 19.9895 9.39427 20.2574 10.0625 20.4681L9.90298 20.9016C10.6284 21.1785 11.405 21.314 12.1816 21.2959H12.1996C12.9762 21.314 13.7528 21.1785 14.4782 20.9016L14.3217 20.4681C14.9869 20.2574 15.6341 19.9895 16.2541 19.6675L15.7996 19.4959ZM8.62973 19.6946L9.30398 19.4688L9.10233 18.8066C9.54478 19.0263 10.0023 19.21 10.4749 19.3544L10.1438 20.2574C9.62302 20.119 9.11433 19.9294 8.62973 19.6946ZM12.2087 21.0822L12.1936 21.0702C11.5314 21.0671 10.8722 20.9768 10.2341 20.8023L10.6404 19.7006C11.1461 19.827 11.6668 19.8962 12.1906 19.8992H12.2237C12.7475 19.8932 13.2682 19.827 13.7739 19.7006L14.1802 20.8023C13.5391 20.9829 12.8739 21.0762 12.2087 21.0822ZM14.2615 20.2755V20.2665L13.9304 19.3635C14.403 19.219 14.8605 19.0354 15.303 18.8156L15.1013 19.4778L15.7846 19.7066C15.2969 19.9444 14.7852 20.137 14.2615 20.2755ZM12.1906 2.31465C12.8708 2.29659 13.5391 2.50127 14.0929 2.89559C14.1802 2.4501 14.3457 2.02268 14.5835 1.63438L13.9003 1.71264L13.5451 0.95111L12.8558 1.30629L12.1906 0.647095L11.5253 1.30629L10.836 0.95111L10.4809 1.71264L9.79757 1.63438C10.0354 2.02268 10.2009 2.4501 10.2882 2.89559C10.8421 2.50127 11.5103 2.29659 12.1906 2.31465ZM10.4508 1.97753L10.6404 1.9986L10.7217 1.82703L10.9595 1.31532L11.4019 1.54408L11.5735 1.63137L11.712 1.50495L12.1906 1.02034L12.6692 1.50495L12.8076 1.6404L12.9792 1.55311L13.4187 1.32435L13.6595 1.83606L13.7407 2.00763L13.9304 1.98656L14.111 1.96549C14.0387 2.13104 13.9755 2.30261 13.9243 2.47719C12.8377 1.92034 11.5464 1.92034 10.4598 2.47719C10.4086 2.30261 10.3454 2.13104 10.2732 1.96549L10.4508 1.97753ZM21.1184 8.52734L21.0371 8.42804C20.4772 7.71464 19.9444 7.03739 18.9933 6.72734C19.0324 6.69424 19.0715 6.66414 19.1137 6.63704C19.5652 6.38119 19.8842 5.94174 19.9866 5.43304C20.0378 4.97249 19.9083 4.51199 19.6254 4.14474L19.3244 3.7685L19.1347 4.21699C19.1347 4.24409 18.8006 4.96349 18.1264 4.96349H17.9277C17.9638 4.49089 17.7923 4.02434 17.4582 3.68723C17.0518 3.27184 16.4919 3.04007 15.911 3.04308C15.8026 3.04308 15.6943 3.05211 15.5889 3.06716L15.1284 3.15746L15.4143 3.53372C15.6371 3.83472 15.8388 4.35544 15.601 4.63539C15.4866 4.73474 15.3572 4.81299 15.2157 4.86714C14.9147 5.00864 14.4812 5.21029 14.4812 5.71599C14.4812 6.04409 14.7371 6.38724 15.1976 6.67919C16.5551 7.54009 17.3949 8.42804 17.7592 9.42734C18.322 10.9504 17.5876 11.8173 16.8742 12.2748L16.5551 12.4795L16.8351 12.7354C17.0849 12.9491 17.3919 13.0815 17.72 13.1146H17.9939C18.2739 13.1146 18.5508 13.0755 18.8187 12.9942C18.7525 13.1116 18.6712 13.223 18.5839 13.3253C18.1776 13.7979 17.5755 14.0568 16.9525 14.0237H16.6846L16.6635 14.2916C16.6605 14.6678 16.8261 15.023 17.112 15.2668C17.1873 15.333 17.2715 15.3872 17.3618 15.4293C16.9164 15.8628 16.6635 16.4558 16.6545 17.0788C16.6545 17.419 16.5762 17.7561 16.4287 18.0631L16.1277 18.5146H16.6635C17.5485 18.5146 18.2257 18.2708 18.6953 17.7862C18.9391 17.5304 19.1197 17.2203 19.225 16.8832C19.3996 17.0307 19.6043 17.133 19.8271 17.1842C19.9324 17.2083 20.0408 17.2203 20.1491 17.2203C20.3117 17.2203 20.4742 17.1992 20.6307 17.1631L20.9739 17.0728L20.8234 16.7538C20.6337 16.2451 20.6337 15.6822 20.8234 15.1735C20.9347 14.8424 21.013 14.4992 21.0551 14.1501C21.326 14.2885 21.6271 14.3578 21.9311 14.3548C22.4307 14.3608 22.8973 14.114 23.1682 13.6956L23.3337 13.3946L23.0327 13.2681C22.0244 12.8498 21.8016 11.724 21.7565 11.116C21.8558 11.137 21.9551 11.1491 22.0575 11.1521L22.1418 11.2093C23.2374 11.2093 23.6046 10.0926 23.6197 10.0444L23.7431 9.65009H23.3307C22.4638 9.61999 21.6541 9.21064 21.1184 8.52734ZM22.1448 10.9053H22.1026C21.8829 10.9083 21.6662 10.8481 21.4796 10.7337C21.4796 10.7337 21.32 12.91 22.9424 13.5842V13.5932C22.7287 13.9183 22.3615 14.111 21.9732 14.1049C21.5337 14.132 21.1093 13.9454 20.8324 13.6053C20.8414 14.117 20.7572 14.6287 20.5856 15.1103C20.3658 15.6912 20.3658 16.3354 20.5856 16.9163C20.4501 16.9494 20.3147 16.9675 20.1762 16.9675C20.0919 16.9675 20.0046 16.9584 19.9234 16.9374C19.523 16.8411 19.204 16.5461 19.0745 16.1578C19.0745 16.1578 19.1378 18.2467 16.7026 18.2467H16.6846C16.8682 17.8976 16.9645 17.5093 16.9615 17.115C17.0669 15.5708 18.1143 15.3511 18.1143 15.3511C17.8254 15.315 17.5515 15.2126 17.3107 15.0501C17.0909 14.8665 16.9645 14.5956 16.9585 14.3096C17.6628 14.3397 18.3431 14.0477 18.8036 13.512C19.0806 13.1959 19.2642 12.8106 19.3424 12.3982C18.9541 12.6902 18.4755 12.8377 17.9909 12.8166H17.7441C17.4822 12.7896 17.2324 12.6872 17.0307 12.5156C17.9578 11.9136 18.608 10.8842 18.0331 9.32199C17.5695 8.06984 16.4588 7.13374 15.3421 6.42939C14.9719 6.20059 14.7491 5.94174 14.7491 5.71899C14.7491 5.19524 15.4926 5.18019 15.7996 4.81599C16.1518 4.40664 15.9321 3.74442 15.625 3.34709C15.7123 3.33204 15.8026 3.32602 15.8899 3.32602C16.3926 3.32 16.8772 3.52168 17.2264 3.88288C17.5816 4.21999 17.717 4.72869 17.5816 5.19829L17.7441 5.23139C17.8434 5.24944 17.9428 5.25849 18.0451 5.26149H18.1113C18.9933 5.26149 19.3906 4.33739 19.3906 4.33739C19.3906 4.33739 20.3297 5.49324 18.9481 6.39624C18.7103 6.54979 18.605 6.69724 18.6471 6.84774L18.6682 6.94709L18.7675 6.96514C19.7699 7.23604 20.2725 7.92839 20.8956 8.71399C21.4856 9.46349 22.3766 9.91499 23.3307 9.94809H23.3488C23.3488 9.94809 23.0478 10.9053 22.1448 10.9053Z" fill="#222220"/>
<path d="M20.2123 6.86279C20.5494 7.05544 20.8414 7.31734 21.0702 7.63039C21.2418 7.89524 21.4856 8.10594 21.7745 8.23239C21.8829 8.26849 22.0003 8.28654 22.1147 8.28654C22.5752 8.28654 22.9966 8.02469 23.2073 7.61534L23.3819 7.22404L22.9575 7.19994C22.4999 7.11564 22.0876 6.88089 21.7836 6.52869C21.5578 6.28489 21.2418 6.14339 20.9076 6.14039C20.6488 6.14339 20.3989 6.22169 20.1822 6.36014L19.7909 6.63404L20.2123 6.86279ZM20.9167 6.43239L20.9076 6.43539C21.1635 6.43539 21.4043 6.54674 21.5759 6.73639C21.928 7.13974 22.4096 7.40764 22.9394 7.49494C22.7769 7.79894 22.4608 7.98854 22.1147 7.99159C22.0304 7.99159 21.9461 7.97654 21.8648 7.94944C21.3772 7.78389 21.2056 7.04644 20.3598 6.60094C20.5254 6.49259 20.718 6.43539 20.9167 6.43239ZM20.411 10.7427L20.405 10.7367C20.1582 8.75009 18.7163 7.31434 17.112 6.44444C16.9645 6.36314 16.826 6.29694 16.6936 6.23374C17.3558 6.36919 18.0451 6.20664 18.5779 5.79124C18.5779 5.79124 17.6478 6.47454 15.7454 5.85444C16.2722 6.19759 17.2956 6.67919 18.2317 7.46179C20.5675 9.51464 18.897 11.5193 18.897 11.5193C19.5953 10.8571 19.8391 9.84574 19.526 8.93674C20.0197 9.75844 20.2575 10.7096 20.2063 11.6668C20.1401 13.2441 19.2642 14.6227 18.3612 15.7213C18.0903 16.0675 17.9036 16.4738 17.8254 16.9073C17.9789 16.4768 18.2107 16.0795 18.5117 15.7364C19.4899 14.5896 20.3177 13.4006 20.4351 11.6879C20.5374 11.9889 20.9528 12.8648 21.615 13.1929C21.615 13.1929 20.7842 12.6932 20.411 10.7427ZM7.94946 18.0842C7.80496 17.7772 7.72671 17.4401 7.72371 17.0999C7.71466 16.4768 7.45881 15.8839 7.01331 15.4504C7.10361 15.4083 7.18791 15.3541 7.26316 15.2879C7.54911 15.0441 7.71466 14.6889 7.71166 14.3126L7.69361 14.0447H7.42266C6.80261 14.0748 6.20061 13.819 5.79426 13.3464C5.70696 13.2441 5.62871 13.1327 5.55946 13.0153C5.82736 13.0966 6.10431 13.1357 6.38421 13.1357H6.65816C6.98621 13.1026 7.29626 12.9702 7.54611 12.7564L7.82601 12.5006L7.50696 12.2959C6.79056 11.8384 6.05916 10.9715 6.62201 9.44844C6.98621 8.45814 7.82601 7.56414 9.19561 6.70329C9.65611 6.40229 9.90896 6.06819 9.90896 5.74009C9.90896 5.23439 9.48456 5.03274 9.17451 4.89124C9.03306 4.83704 8.90361 4.75879 8.78926 4.65949C8.54846 4.37954 8.75011 3.84677 8.97586 3.5578L9.27686 3.18155L8.81331 3.09125C8.70796 3.07319 8.59961 3.06717 8.49126 3.06717C7.90431 3.04911 7.33841 3.27486 6.92301 3.68723C6.58291 4.02134 6.40531 4.49089 6.43841 4.96649H6.25781C5.58056 4.96649 5.26146 4.25009 5.24946 4.21999L5.05981 3.77152L4.75881 4.14779C4.47886 4.51499 4.34946 4.97554 4.40061 5.43604C4.50296 5.94474 4.81901 6.38424 5.27051 6.64009C5.31266 6.66714 5.35481 6.69724 5.39091 6.73039C4.43976 7.03139 3.90696 7.71769 3.34711 8.43104L3.26581 8.53339C2.73006 9.21664 1.91736 9.62604 1.05046 9.65614H0.638062L0.764512 10.0504C0.764512 10.0986 1.14376 11.2153 2.24241 11.2153H2.29661C2.39896 11.2123 2.49826 11.2003 2.59761 11.1792C2.55246 11.7812 2.32971 12.913 1.31836 13.3314L1.01736 13.4578L1.18291 13.7588C1.45381 14.1772 1.92036 14.424 2.42001 14.418C2.72401 14.421 3.02201 14.3518 3.29291 14.2133C3.33506 14.5625 3.41331 14.9056 3.52471 15.2367C3.71431 15.7454 3.71431 16.3083 3.52471 16.817L3.37421 17.136L3.71731 17.2263C3.87386 17.2625 4.03641 17.2835 4.19896 17.2835C4.30731 17.2835 4.41566 17.2715 4.52101 17.2474C4.74376 17.1962 4.94846 17.0939 5.12301 16.9464C5.22836 17.2835 5.40896 17.5936 5.65281 17.8494C6.12536 18.334 6.80261 18.5748 7.68456 18.5778H8.22036L7.94946 18.0842ZM7.69056 18.2528C5.25546 18.2528 5.31566 16.1638 5.31566 16.1638C5.18621 16.5521 4.86716 16.8471 4.46681 16.9434C4.38556 16.9645 4.29826 16.9735 4.21401 16.9735C4.07551 16.9735 3.94006 16.9554 3.80766 16.9223C4.02736 16.3414 4.02736 15.6972 3.80766 15.1163C3.63606 14.6347 3.55481 14.123 3.56381 13.6113C3.28691 13.9514 2.86251 14.1381 2.42301 14.111H2.40796C2.01666 14.117 1.64946 13.9213 1.43571 13.5962C3.05816 12.922 2.89861 10.7457 2.89861 10.7457C2.71196 10.8601 2.49526 10.9203 2.27551 10.9173H2.24241C1.33941 10.9173 1.03841 9.96014 1.03841 9.96014H1.05646C2.01066 9.93004 2.90461 9.47854 3.49461 8.72904C4.11466 7.94344 4.62036 7.25109 5.62271 6.98019L5.72201 6.96214L5.74311 6.86284C5.77016 6.70929 5.66481 6.56179 5.44206 6.41129C4.06046 5.50829 4.99961 4.35244 4.99961 4.35244C4.99961 4.35244 5.39091 5.27654 6.27886 5.27654H6.32101C6.42336 5.27354 6.52266 5.26449 6.62201 5.24644L6.78456 5.21334C6.64611 4.74374 6.78456 4.23504 7.13976 3.89794C7.48891 3.53673 7.97351 3.33506 8.47621 3.34108C8.56351 3.34108 8.65381 3.3471 8.74106 3.36215C8.44006 3.76249 8.21731 4.42469 8.56951 4.83104C8.87051 5.18324 9.61701 5.19829 9.61701 5.73404C9.61701 5.95679 9.40931 6.21564 9.03906 6.44744C7.91936 7.15179 6.80866 8.08789 6.34811 9.34009C5.77321 10.9023 6.42336 11.9407 7.35046 12.5337C7.14876 12.7023 6.89896 12.8076 6.63706 12.8347H6.38721C5.90261 12.8558 5.42401 12.7083 5.03571 12.4163C5.11401 12.8287 5.29761 13.214 5.57151 13.53C6.03206 14.0628 6.71531 14.3578 7.41966 14.3277C7.41366 14.6136 7.28721 14.8845 7.06751 15.0682C6.82671 15.2307 6.55276 15.333 6.26381 15.3692C6.26381 15.3692 7.31431 15.5829 7.42871 17.133C7.42571 17.5273 7.52201 17.9156 7.70561 18.2648L7.69056 18.2528Z" fill="#222220"/>
<path d="M2.26352 8.28357H2.26657C2.38092 8.28357 2.49832 8.26552 2.60667 8.22942C2.89567 8.10297 3.13947 7.89227 3.31102 7.62737C3.53677 7.31437 3.82877 7.05247 4.16587 6.85982L4.58727 6.63407L4.19597 6.36017C3.97927 6.22172 3.72942 6.14342 3.47357 6.14042C3.13947 6.14342 2.82342 6.28492 2.59767 6.53172C2.29667 6.88092 1.88127 7.11872 1.42677 7.20297L1.00232 7.22407L1.17392 7.61537C1.38462 8.02472 1.80302 8.28057 2.26352 8.28357ZM2.80537 6.73642C2.97392 6.54677 3.21472 6.43542 3.47057 6.43542C3.66622 6.43842 3.85887 6.49862 4.02442 6.60397C3.17257 7.05847 2.99497 7.78692 2.51942 7.95247C2.44112 7.97957 2.35687 7.99462 2.27257 7.99462C1.92342 7.99462 1.60437 7.80197 1.44182 7.49497C1.97157 7.40767 2.45317 7.13977 2.80537 6.73642ZM4.18097 11.6789C4.12982 10.7217 4.36462 9.77052 4.86127 8.94882C4.54822 9.85782 4.79202 10.8692 5.49037 11.5314C5.49037 11.5314 3.81677 9.52672 6.15557 7.47387C7.09167 6.69127 8.11212 6.20967 8.63887 5.86652C6.73652 6.48657 5.80642 5.80332 5.80642 5.80332C6.33917 6.21872 7.02547 6.38122 7.68767 6.24577C7.55522 6.30902 7.41677 6.37822 7.26927 6.45647C5.66492 7.32942 4.21412 8.76517 3.97632 10.7518V10.7368C3.60307 12.6873 2.77232 13.1869 2.77232 13.1869C3.43147 12.8618 3.84987 11.9829 3.94922 11.6819C4.06057 13.3976 4.89737 14.5866 5.87562 15.7304C6.17362 16.0735 6.40842 16.4709 6.56192 16.9013C6.48067 16.4709 6.29402 16.0645 6.02012 15.7214C5.11712 14.6227 4.24422 13.2441 4.18097 11.6789ZM11.6398 8.05482C11.7451 7.95247 11.8926 7.90432 12.0401 7.92237V8.49127C12.0371 8.63272 12.001 8.76817 11.9318 8.89162H12.5007C12.4314 8.76817 12.3953 8.63272 12.3923 8.49127V7.92237C12.5368 7.90432 12.6843 7.95247 12.7896 8.05482V7.66052H11.6398V8.05482ZM11.402 5.32472H11.396C11.4833 5.39997 11.5857 5.46017 11.697 5.49627L11.7693 5.52942V5.15617L11.101 4.87622C11.1341 5.06282 11.2425 5.22537 11.402 5.32472ZM12.9884 5.32172L12.9854 5.32472C13.1449 5.22537 13.2532 5.06282 13.2864 4.87622L12.6181 5.15617V5.52637L12.6874 5.49327C12.7987 5.45717 12.9011 5.39697 12.9884 5.32172Z" fill="#222220"/>
<path d="M14.1863 3.81368C14.1863 3.2508 13.2381 2.74512 12.1936 2.74512C11.1491 2.74512 10.201 3.2508 10.201 3.81368L10.2221 3.95214L10.6404 6.36017L10.2221 6.60397L9.1294 7.22407C9.1294 7.22407 8.88555 7.35047 8.7712 7.42572C8.3588 7.72672 8.27155 8.13007 8.5093 8.30467C8.5695 7.89527 8.9277 7.59427 9.3431 7.60632C9.68925 7.61537 10.0114 7.78992 10.207 8.07587C10.2672 8.14812 10.3214 8.22637 10.3695 8.30467C10.4328 8.40697 10.496 8.49727 10.5592 8.58457H7.77185C8.00665 8.98792 8.1421 9.44242 8.1722 9.90902V16.1006C8.1722 17.6057 9.32505 18.313 10.5802 18.313C11.5435 18.313 11.6729 18.2679 12.2027 18.7976C12.7324 18.2679 12.8619 18.313 13.8251 18.313C15.0712 18.313 16.2331 17.5996 16.2331 16.1006V9.91502C16.2632 9.44847 16.3986 8.99397 16.6334 8.59062H13.816C13.8792 8.50332 13.9424 8.41302 14.0056 8.31067C14.0568 8.23242 14.111 8.15417 14.1682 8.08192C14.3668 7.79597 14.6889 7.62137 15.0351 7.61232C15.4505 7.60032 15.8087 7.90132 15.8689 8.31067C16.1097 8.13912 16.0224 7.70867 15.607 7.43172C15.4956 7.35347 15.2518 7.23007 15.2518 7.23007L14.1682 6.59192L13.7498 6.34812L14.1682 3.9401L14.1863 3.81368ZM10.6043 4.09062L12.0732 4.58727V6.89297L10.9926 6.32102L10.6043 4.09062ZM8.37385 8.99092H10.9053C11.101 9.19562 11.3418 9.35817 11.6067 9.46052C11.5495 9.65917 11.5645 9.87287 11.6458 10.0625C11.7421 10.2642 11.9136 10.4207 12.1243 10.502C12.1635 10.8481 12.3983 11.1371 12.7264 11.2515C12.5458 11.4351 12.3682 11.6067 12.2959 11.6759L10.6134 11.6488C10.5562 11.6217 10.511 11.5796 10.4809 11.5254V11.5043L10.7548 11.5495H10.7729C10.827 11.5495 10.8722 11.5134 10.8813 11.4592C10.8903 11.399 10.8511 11.3448 10.7909 11.3327L10.4538 11.2786L10.8271 9.98427L10.4719 9.23777L9.90295 9.83977L9.86685 11.1853L9.48455 11.1251C9.42435 11.113 9.3702 11.1521 9.35815 11.2123V11.2154C9.3491 11.2756 9.38825 11.3297 9.44845 11.3418L9.608 11.3659C9.5508 11.399 9.51165 11.423 9.50865 11.4291L9.47555 11.4531V11.4923C9.4003 11.8354 9.53875 12.1906 9.8217 12.3953V12.4435C9.80365 12.5608 9.8849 12.6722 10.0023 12.6933H10.0384C10.1378 12.6933 10.2251 12.6241 10.2461 12.5247C10.3184 12.5277 10.3876 12.5277 10.4598 12.5247H10.505L12.7113 12.9251L12.7474 12.901C12.922 12.7776 13.5932 12.299 13.813 12.1274C13.8762 12.1816 13.9485 12.2297 14.0237 12.2659C13.9214 12.5819 13.9996 12.9281 14.2284 13.1689H8.57555V9.91502C8.5635 9.59897 8.49425 9.28592 8.37385 8.99092ZM13.6234 11.9679C13.3946 12.1364 12.8318 12.5458 12.6271 12.6903L10.6253 12.3411V12.2869C10.6585 12.1515 10.6766 12.013 10.6796 11.8746L12.3652 11.9016L12.3983 11.8685C12.4254 11.8414 12.9581 11.3267 13.229 11.0287C13.3013 11.119 13.3856 11.1943 13.4819 11.2545C13.4338 11.5013 13.4849 11.7572 13.6234 11.9679ZM10.2792 11.6067V11.6157C10.3244 11.7 10.3906 11.7722 10.4719 11.8204C10.4689 11.9438 10.4568 12.0642 10.4358 12.1846C10.4358 12.2117 10.4358 12.2388 10.4146 12.2659V12.308C10.2762 12.308 10.1408 12.2869 10.0083 12.2448C9.7675 12.1154 9.63205 11.8505 9.6712 11.5796C9.77955 11.5043 9.90295 11.4562 10.0324 11.4381C10.1438 11.4351 10.2431 11.5013 10.2792 11.6067ZM10.0716 11.2063L10.1047 9.93307L10.4057 9.63207L10.5893 10.0144L10.2311 11.2545L10.0716 11.2063ZM13.6083 17.9127H13.3194L13.5451 17.1752C13.5812 17.0729 13.3946 16.9404 13.3164 16.823C13.5 16.9344 13.6896 17.0337 13.8853 17.124C13.8853 17.1481 13.6083 17.9127 13.6083 17.9127ZM14.3819 17.0879L14.3578 17.0669L14.2013 17.8796C14.1019 17.8796 13.9966 17.9006 13.9003 17.9067L14.0659 17.124C14.114 16.8923 13.4909 16.823 13.1839 16.3625C12.9823 16.5311 12.7234 16.6093 12.4645 16.5822C12.2358 16.5792 12.01 16.5552 11.7873 16.51C11.7481 16.507 11.709 16.507 11.6699 16.51C11.5766 16.504 11.4863 16.5521 11.4381 16.6334L11.393 16.7087L10.5351 16.501L10.3304 16.8562C10.2973 16.9043 10.3033 16.9705 10.3455 17.0127L10.4027 17.0759C10.3455 17.1873 10.2732 17.2896 10.1859 17.3769L10.0595 17.2204C9.96315 17.0638 9.9722 16.8622 10.0806 16.7147L10.4177 16.1458L11.1371 16.2542L11.0257 15.9983C10.8752 15.6612 11.1039 15.2307 11.128 14.9839C11.128 15.0592 11.0498 15.0742 10.9715 15.0742H10.7639C10.7488 15.0712 10.7307 15.0712 10.7157 15.0742L10.52 15.1916L10.3665 15.0501C10.3425 15.005 10.3514 14.9508 10.3876 14.9177L10.7428 14.5174L10.3214 14.0267L10.9234 14.3277L11.104 14.111C11.1522 14.1592 11.1311 14.2856 11.1311 14.2856C11.5675 14.394 11.8716 14.7913 11.8595 15.2428V15.3301C11.9197 15.4264 12.016 15.4926 12.1243 15.5197L12.9401 15.601C13.1026 15.5498 13.2682 15.5167 13.4368 15.4956C13.5812 15.4956 13.7257 15.5408 13.8461 15.619C13.9033 15.5799 13.9725 15.5558 14.0417 15.5528H14.0688C14.433 15.5528 14.5866 15.8839 14.7823 16.1548C14.9297 16.3625 15.1284 16.6756 15.1284 16.6756C15.0712 16.7598 14.9779 16.811 14.8756 16.811C14.8394 16.814 14.8063 16.814 14.7702 16.811C14.3789 16.7388 14.3217 15.9321 14.099 15.8689H14.0629C14.0207 15.8689 13.9816 15.8929 13.9605 15.9321C14.0629 16.206 14.0027 16.3174 14.114 16.5341C14.1953 16.6635 14.2976 16.7809 14.415 16.8802C14.415 16.8802 14.4 17.0006 14.3819 17.0879ZM9.9963 16.2993H9.99025L10.0264 16.3926C10.0023 16.4739 9.72535 16.5913 9.72535 16.5913L9.66515 16.4588C9.5869 16.2692 9.6441 16.0525 9.80965 15.9291L10.2642 15.6521L10.7488 15.7545C10.7458 15.8508 10.7759 15.9441 10.8331 16.0224L10.3244 15.9261L10.0234 16.1368C9.9752 16.1789 9.96615 16.2451 9.9963 16.2993ZM15.8177 16.1036C15.8508 16.9404 15.2699 17.6749 14.4481 17.8374L14.5865 17.109C14.5865 17.0669 14.6016 17.0157 14.6077 16.9735C14.6498 16.9916 14.692 17.0036 14.7341 17.0127C14.7823 17.0157 14.8304 17.0157 14.8785 17.0127C15.0441 17.0127 15.2006 16.9374 15.2999 16.805L15.4083 16.6786L15.318 16.5552C15.318 16.5552 15.1164 16.2361 14.9659 16.0254L14.8815 15.899C14.713 15.6461 14.4993 15.3271 14.0749 15.3271H14.0358C13.9756 15.3301 13.9124 15.3421 13.8552 15.3632C13.7257 15.3 13.5843 15.2669 13.4398 15.2669C13.2953 15.2699 13.1508 15.297 13.0154 15.3481L12.9431 15.3692L12.1485 15.2909C12.1154 15.2759 12.0882 15.2518 12.0672 15.2217L12.2388 15.1525C12.1906 14.5776 11.6368 14.2254 11.3358 14.108C11.3207 14.0448 11.2906 13.9906 11.2455 13.9455L11.0739 13.7829L10.9234 13.9635L10.8481 14.0538L9.7344 13.5963L10.4598 14.4993L10.1739 14.9327C10.1137 14.9929 10.1107 15.0923 10.1739 15.1555L10.4749 15.3602L10.7759 15.2458H10.806C10.806 15.2909 10.7729 15.4746 10.7578 15.5257L10.2341 15.4354L9.6742 15.7364C9.41535 15.923 9.32505 16.2662 9.4605 16.5552L9.5237 16.6906L9.611 16.8832L9.80665 16.802C9.7344 16.9976 9.7645 17.2144 9.8909 17.3799L10.0083 17.5304L10.1649 17.7291L10.3394 17.5424C10.4538 17.4281 10.5441 17.2956 10.6073 17.1481L10.6435 17.0277L10.5592 16.9344V16.9164L10.6555 16.7598L11.3508 16.9224L11.5073 16.9585L11.5916 16.82L11.6368 16.7448C11.6368 16.7297 11.6367 16.7267 11.6789 16.7267H11.7542C11.992 16.7749 12.2328 16.799 12.4736 16.802C12.6361 16.811 12.7986 16.7929 12.9552 16.7448L13.3404 17.1843L13.1117 17.8886V17.9307C12.7685 17.9247 12.4404 18.0662 12.2087 18.316C11.8384 17.9488 11.5766 17.9097 10.5863 17.9097C9.3973 17.9097 8.5936 17.2144 8.5936 16.1036V13.3946H15.8177V16.1036ZM16.0133 8.99092C15.8899 9.28292 15.8237 9.59597 15.8117 9.91502V11.9438C15.5498 11.8866 15.3541 11.6639 15.3361 11.396V11.3026H15.2458C15.0893 11.2906 14.9448 11.2184 14.8364 11.107C14.704 10.9535 14.6317 10.7608 14.6287 10.5592C14.4993 10.7699 14.5113 11.0408 14.6618 11.2394C14.7792 11.3869 14.9508 11.4863 15.1374 11.5103C15.1916 11.8595 15.4715 12.1304 15.8207 12.1756V13.1689H14.5564C14.2253 13.0003 14.0869 12.606 14.2344 12.2659L14.2826 12.1575L14.1712 12.1154C13.81 11.9889 13.6113 11.6006 13.7257 11.2334L13.7498 11.1431L13.6655 11.104C13.3495 10.9204 13.1749 10.5622 13.2261 10.201C13.0605 10.3695 13.0184 10.6254 13.1237 10.8361C13.0635 10.9053 12.9853 10.9866 12.898 11.0769C12.5819 11.0107 12.3532 10.7368 12.3411 10.4147V10.3394L12.2719 10.3123C12.0883 10.2582 11.9378 10.1317 11.8505 9.96317C11.7933 9.82472 11.7812 9.66822 11.8204 9.52372C11.8806 9.53577 11.9407 9.54477 12.0009 9.55082C12.0612 9.55382 12.1244 9.55382 12.1846 9.55082C12.6722 9.55082 13.1358 9.34012 13.4608 8.97892L16.0133 8.99092ZM14.0629 6.93812L14.5564 7.23912L14.6799 7.31132C14.4241 7.38057 14.1922 7.51902 14.0086 7.71167L13.9876 7.72972C13.9455 7.77487 13.9063 7.82002 13.8672 7.86822L13.8431 7.89832C13.8039 7.94647 13.7679 7.99762 13.7348 8.05182L13.7167 8.07892C13.6745 8.13912 13.6354 8.20532 13.5963 8.27152C13.3224 8.81637 12.7896 9.18057 12.1846 9.24077C11.5796 9.18057 11.0468 8.81637 10.7729 8.27152C10.7338 8.20532 10.6946 8.14212 10.6555 8.07892L10.6314 8.04577L10.5351 7.88927L10.508 7.85617C10.4689 7.80802 10.4297 7.76282 10.3906 7.72072L10.3695 7.69962C10.1859 7.50697 9.95415 7.36852 9.6983 7.29932L9.8247 7.22707L10.3214 6.92607L10.8301 6.62507L12.1876 7.36252L13.5451 6.64912L14.0629 6.93812ZM13.3946 6.33607L12.314 6.90497V4.59027L13.7799 4.09362L13.3946 6.33607ZM12.1906 4.34647L10.5833 3.70231C10.7187 3.37723 11.3508 3.1003 12.1906 3.1003C13.0304 3.1003 13.6625 3.37723 13.798 3.70231L12.1906 4.34647Z" fill="#222220"/>
</svg>
