<svg width="80" height="29" viewBox="0 0 80 29" fill="none" xmlns="http://www.w3.org/2000/svg">
<path d="M5.5237 0L4.14137 3.79177H23.2907L24.673 0H5.5237ZM3.45101 5.68604L2.06867 9.477H21.218L22.6003 5.68604H3.45101ZM1.38233 11.3721L0 15.1622H19.1493L20.53 11.3713C20.5308 11.3721 1.38233 11.3721 1.38233 11.3721Z" fill="#009FDF"/>
<path d="M40.2572 16.3522V16.4309C41.1171 16.7468 41.9393 17.2997 42.3693 17.6549C43.6985 18.7608 44.286 20.2211 44.286 22.1162C44.286 25.2369 42.6433 27.4864 39.9437 28.1976C39.1216 28.4347 38.2616 28.5135 36.6583 28.5135H28.4849V5.69055H35.7212C37.208 5.69055 38.2239 5.76931 39.1232 6.00559C41.744 6.71685 43.4655 8.53317 43.4655 11.4152C43.4655 12.9558 42.9182 14.2594 42.0188 15.1274C41.6275 15.522 41.0801 15.9962 40.2588 16.3514L40.2572 16.3522ZM33.0216 18.7608V24.7627H36.1512C37.0891 24.7627 37.9506 24.6839 38.5759 24.0916C39.2019 23.4993 39.4752 22.7487 39.4752 21.7618C39.4752 21.0127 39.2791 20.3015 38.8885 19.7879C38.2239 18.9585 37.4017 18.7608 35.9945 18.7608H33.0208H33.0216ZM32.9815 14.8115H35.5243C36.3063 14.8115 36.6977 14.8115 37.0883 14.6934C38.1451 14.3767 38.8097 13.4308 38.8097 12.1272C38.8097 10.5874 38.1057 9.9155 37.0883 9.60046C36.6575 9.48151 36.2283 9.44294 35.3676 9.44294H32.9815V14.8123V14.8115ZM51.0916 28.5143V9.52089H44.5601V5.69136H62.7096L61.4189 9.52089H55.6292V28.5143H51.0916ZM64.1176 28.5143V5.69136H78.825L77.5343 9.52089H68.6167V14.576H72.2549C75.1884 14.576 76.7137 15.2873 77.7706 16.1947C78.5927 16.9059 80 18.4843 80 21.605C80 24.6847 78.5534 26.3821 77.3398 27.2517C75.9318 28.2378 74.4458 28.5151 71.4328 28.5151H64.1185H64.1176V28.5143ZM68.6159 24.6831H72.0186C73.3093 24.6831 74.0913 24.3673 74.6386 23.656C74.9119 23.3016 75.3033 22.6683 75.3033 21.4845C75.3033 20.3007 74.9119 19.4705 74.1299 18.8782C73.6614 18.5237 73.0345 18.3268 71.9785 18.3268H68.6142V24.6831H68.6159Z" fill="#0A2973"/>
</svg>
