<svg width="90" height="9" viewBox="0 0 90 9" fill="none" xmlns="http://www.w3.org/2000/svg">
<path d="M87.8841 4.19791C89.0527 4.19791 90 3.25891 90 2.1006C90 0.942292 89.0527 0.0032959 87.8841 0.0032959C86.7155 0.0032959 85.7682 0.942292 85.7682 2.1006C85.7682 3.25891 86.7155 4.19791 87.8841 4.19791Z" fill="#00F500"/>
<path d="M64.9866 7.04357C63.9115 7.04357 63.0652 6.20465 63.0652 5.11632C63.0652 4.02799 63.9115 3.18906 64.9866 3.18906C66.0617 3.18906 66.931 4.02799 66.931 5.11632C66.931 6.20465 66.0617 7.04357 64.9866 7.04357ZM66.931 3.13238H66.7022C66.279 2.37281 65.4899 1.94202 64.5863 1.94202C63.0995 1.94202 61.7156 3.3251 61.7156 5.11632C61.7156 6.90753 63.0652 8.26795 64.5863 8.26795C65.4899 8.26795 66.279 7.83715 66.7022 7.07758H66.931V8.10923H68.2577V2.08939H66.931V3.13238ZM3.27106 7.04357C2.19596 7.04357 1.3496 6.20465 1.3496 5.11632C1.3496 4.02799 2.19596 3.18906 3.27106 3.18906C4.34617 3.18906 5.2154 4.02799 5.2154 5.11632C5.2154 6.20465 4.34617 7.04357 3.27106 7.04357ZM5.2154 3.13238H4.98665C4.56347 2.37281 3.7743 1.94202 2.87076 1.94202C1.38391 1.94202 0 3.3251 0 5.11632C0 6.90753 1.3496 8.26795 2.87076 8.26795C3.7743 8.26795 4.56347 7.83715 4.98665 7.07758H5.2154V8.10923H6.54212V2.08939H5.2154V3.13238ZM74.5825 4.47012H71.4716V2.08939H70.1448V8.12057H71.4716V5.72851H74.5825V8.12057H75.9092V2.08939H74.5825V4.47012ZM80.5985 5.03696L83.7438 2.08939H81.9252L79.1002 4.85557V2.08939H77.7735V8.12057H79.1002V5.34305L81.9481 8.12057H83.9039L80.5985 5.03696ZM58.5589 6.94154H56.4201V5.42241H58.5589C59.1651 5.42241 59.451 5.73984 59.451 6.18198C59.451 6.62411 59.1765 6.94154 58.5589 6.94154ZM58.7076 4.24339H56.4087V3.25708H60.3088V2.08939H55.0819V8.12057H58.719C59.9657 8.12057 60.812 7.30432 60.812 6.19331C60.812 5.08231 59.9428 4.24339 58.7076 4.24339ZM42.581 7.03224C41.483 7.03224 40.671 6.19331 40.671 5.11632C40.671 4.02799 41.483 3.18906 42.581 3.18906C43.6447 3.18906 44.491 4.02799 44.491 5.11632C44.491 6.19331 43.6675 7.03224 42.581 7.03224ZM42.581 1.94202C40.9798 1.94202 39.6874 3.03035 39.4014 4.48146H38.2806V2.08939H36.9424V8.12057H38.2691V5.71717H39.39C39.6645 7.17961 40.9798 8.27928 42.5696 8.27928C44.3652 8.27928 45.8177 6.87352 45.8177 5.12766C45.8292 3.34778 44.3652 1.94202 42.581 1.94202ZM46.3095 3.33644H48.5398V8.10923H49.8665V3.33644H52.0968V2.08939H46.3095V3.33644ZM31.647 2.08939L29.0393 8.12057H30.446L32.4704 3.30243L34.4948 8.12057H35.9588L33.3511 2.08939H31.647ZM18.2882 3.17773C19.5921 3.17773 19.9581 4.17536 19.9581 4.17536H21.3648C21.3648 4.17536 20.8044 1.94202 18.2882 1.94202C16.4811 1.94202 15.0629 3.34778 15.0629 5.11632C15.0629 6.89619 16.4811 8.29062 18.2882 8.29062C20.8044 8.29062 21.3648 6.05727 21.3648 6.05727H19.9581C19.9581 6.05727 19.5921 7.05491 18.2882 7.05491C17.2245 7.05491 16.4239 6.21599 16.4239 5.12766C16.4239 4.03932 17.2245 3.17773 18.2882 3.17773ZM11.9176 6.91887H9.756V5.42241H11.9062C12.5124 5.42241 12.7983 5.73984 12.7983 6.18198C12.7983 6.62411 12.5353 6.91887 11.9176 6.91887ZM12.0778 4.24339H9.756V3.26842H13.6676V2.08939H8.42928V8.12057H12.0778C13.313 8.12057 14.1708 7.30432 14.1708 6.19331C14.1708 5.08231 13.3016 4.24339 12.0778 4.24339ZM25.4136 7.03224C24.2928 7.03224 23.4693 6.19331 23.4693 5.11632C23.4693 4.02799 24.2928 3.18906 25.4136 3.18906C26.5002 3.18906 27.358 4.02799 27.358 5.11632C27.358 6.19331 26.5231 7.03224 25.4136 7.03224ZM25.4136 1.94202C23.5722 1.94202 22.1197 3.34778 22.1197 5.11632C22.1197 6.87352 23.5722 8.26795 25.4136 8.26795C27.2436 8.26795 28.719 6.86218 28.719 5.11632C28.719 3.34778 27.2093 1.94202 25.4136 1.94202Z" fill="#FF5000"/>
</svg>
