<svg width="90" height="15" viewBox="0 0 90 15" fill="none" xmlns="http://www.w3.org/2000/svg">
<path d="M40.25 4.64985L42.15 3.24985H35.85V11.5499H42.15V10.1499H37.65V8.04985H41.45V6.64985H37.65V4.64985H40.25ZM32.4 4.64985L34.3 3.24985H27.1V11.5499H30.85C32.95 11.5499 34.15 10.5999 34.15 8.94985C34.15 7.34985 33.05 6.49985 31.05 6.49985H28.85V4.64985H32.4ZM30.8 7.84985C31.95 7.84985 32.45 8.24985 32.45 8.99985C32.45 9.74985 31.9 10.1499 30.8 10.1499H28.9V7.84985H30.8ZM47.2 3.24985H43.8V11.5499H45.6V9.19985H47.25C49.45 9.19985 50.8 8.04985 50.8 6.19985C50.8 4.34985 49.4 3.24985 47.2 3.24985ZM47.2 7.79985H45.6V4.59985H47.2C48.35 4.59985 49 5.14985 49 6.19985C48.95 7.24985 48.35 7.79985 47.2 7.79985ZM24.05 9.74985C23.55 9.99985 23.05 10.1499 22.5 10.1499C20.9 10.1499 19.7 8.99985 19.7 7.39985C19.7 5.79985 20.85 4.64985 22.5 4.64985C23.1 4.64985 23.65 4.84985 24.15 5.14985L25.45 4.19985L25.35 4.09985C24.6 3.44985 23.6 3.09985 22.45 3.09985C21.2 3.09985 20.1 3.49985 19.25 4.29985C18.45 5.09985 17.95 6.19985 18 7.34985C18 8.49985 18.45 9.59985 19.25 10.4499C20.1 11.2499 21.25 11.6999 22.4 11.6499C23.7 11.6499 24.8 11.1999 25.6 10.3999L24.45 9.54985L24.05 9.74985ZM78 6.64985H74.15V3.24985H72.35V11.5499H74.15V8.14985H78V11.5499H79.8V3.24985H78V6.64985ZM65.85 3.24985L62.25 11.5499H64.05L64.75 9.89985H68.55L69.25 11.5499H71.15L67.65 3.24985H65.85ZM65.35 8.49985L66.75 5.14985L68.05 8.49985H65.35ZM86.3 7.24985L89.55 3.24985H87.5L84.8 6.79985H83.8V3.24985H82V11.5499H83.8V8.19985H84.95L87.7 11.5499H90L86.3 7.24985ZM58.5 6.49985H56.3V4.64985H61V3.24985H54.5V11.5499H58.25C60.35 11.5499 61.55 10.5999 61.55 8.94985C61.6 7.34985 60.5 6.49985 58.5 6.49985ZM58.2 10.1999H56.3V7.89985H58.2C59.35 7.89985 59.85 8.29985 59.85 9.04985C59.9 9.79985 59.3 10.1999 58.2 10.1999Z" fill="#21A038"/>
<path d="M12.2405 3.09058C12.5651 3.51589 12.8399 3.97796 13.0593 4.4675L6.83488 9.11764L4.23352 7.46501V5.47681L6.83488 7.12944L12.2405 3.09058Z" fill="#21A038"/>
<path d="M1.57865 7.32459C1.57865 7.23538 1.58079 7.14675 1.58509 7.05864L0.00858589 6.98035C0.00322 7.09454 1.90513e-06 7.20984 1.90513e-06 7.3262C-0.000668852 8.23538 0.175787 9.13571 0.519252 9.97558C0.862714 10.8155 1.36642 11.5784 2.00148 12.2205L3.11973 11.0877C2.63089 10.5943 2.24308 10.0078 1.97861 9.36203C1.71414 8.71622 1.57821 8.0238 1.57865 7.32459Z" fill="url(#paint0_linear_104_3858)"/>
<path d="M6.83347 1.99956C6.92146 1.99956 7.0089 2.00283 7.09583 2.00718L7.17471 0.408919C7.0617 0.403481 6.94792 0.400762 6.83347 0.400762C5.93594 0.399653 5.04708 0.578225 4.21787 0.926226C3.38865 1.27423 2.63544 1.7848 2.00146 2.42863L3.11972 3.56193C3.60661 3.06635 4.18536 2.67318 4.82271 2.40506C5.46005 2.13693 6.14337 1.99912 6.83347 1.99956Z" fill="url(#paint1_linear_104_3858)"/>
<path d="M6.83349 12.6503C6.7455 12.6503 6.65802 12.6503 6.57058 12.6432L6.4917 14.241C6.60509 14.2468 6.71904 14.2497 6.83349 14.2497C7.73064 14.2506 8.61908 14.0719 9.44785 13.7238C10.2766 13.3757 11.0293 12.8651 11.6628 12.2213L10.5467 11.0885C10.0597 11.5838 9.48104 11.9768 8.84383 12.2448C8.20662 12.5128 7.52342 12.6506 6.83349 12.6503Z" fill="url(#paint2_linear_104_3858)"/>
<path d="M9.79557 2.92863L11.1242 1.93618C9.90981 0.939622 8.39399 0.397136 6.83142 0.399913V1.99926C7.88952 1.99793 8.92306 2.32199 9.79557 2.92863Z" fill="url(#paint3_linear_104_3858)"/>
<path d="M13.6665 7.32484C13.6673 6.90878 13.6314 6.49344 13.5591 6.08386L12.0884 7.18236C12.0884 7.2297 12.0884 7.27699 12.0884 7.32484C12.0887 8.06893 11.9348 8.8048 11.6366 9.48474C11.3384 10.1647 10.9025 10.7735 10.3573 11.2718L11.4182 12.4601C12.127 11.8115 12.6935 11.0192 13.0808 10.1346C13.4681 9.24995 13.6676 8.29266 13.6665 7.32484Z" fill="#21A038"/>
<path d="M6.8335 12.6506C6.09924 12.6508 5.3731 12.4948 4.7021 12.1926C4.03113 11.8904 3.43025 11.4487 2.93839 10.8962L1.76648 11.9708C2.40634 12.6893 3.18807 13.2635 4.06098 13.6561C4.93388 14.0487 5.87846 14.251 6.8335 14.2499V12.6506Z" fill="url(#paint4_linear_104_3858)"/>
<path d="M3.30969 3.3778L2.24939 2.18958C1.54032 2.838 0.97366 3.63023 0.586149 4.51489C0.198643 5.39953 -0.00105648 6.35686 4.20318e-06 7.32477H1.57865C1.57832 6.58072 1.73225 5.84485 2.03045 5.16491C2.32865 4.485 2.76448 3.87614 3.30969 3.3778Z" fill="url(#paint5_linear_104_3858)"/>
<defs>
<linearGradient id="paint0_linear_104_3858" x1="2.32075" y1="12.0209" x2="0.554536" y2="6.98297" gradientUnits="userSpaceOnUse">
<stop offset="0.14" stop-color="#F1E813"/>
<stop offset="0.3" stop-color="#E6E418"/>
<stop offset="0.58" stop-color="#C9DA26"/>
<stop offset="0.89" stop-color="#A2CC39"/>
</linearGradient>
<linearGradient id="paint1_linear_104_3858" x1="2.4522" y1="2.71142" x2="6.90952" y2="1.03535" gradientUnits="userSpaceOnUse">
<stop offset="0.06" stop-color="#0FA7DF"/>
<stop offset="0.54" stop-color="#0098F8"/>
<stop offset="0.92" stop-color="#0290EA"/>
</linearGradient>
<linearGradient id="paint2_linear_104_3858" x1="6.38762" y1="13.2844" x2="11.4176" y2="12.1632" gradientUnits="userSpaceOnUse">
<stop offset="0.12" stop-color="#A2CC39"/>
<stop offset="0.28" stop-color="#86C239"/>
<stop offset="0.87" stop-color="#219F38"/>
</linearGradient>
<linearGradient id="paint3_linear_104_3858" x1="6.50305" y1="0.935566" x2="10.8078" y2="2.24635" gradientUnits="userSpaceOnUse">
<stop offset="0.06" stop-color="#0290EA"/>
<stop offset="0.79" stop-color="#0C89CA"/>
</linearGradient>
<linearGradient id="paint4_linear_104_3858" x1="2.16248" y1="11.7761" x2="6.85243" y2="13.5056" gradientUnits="userSpaceOnUse">
<stop offset="0.13" stop-color="#F1E813"/>
<stop offset="0.3" stop-color="#EAE616"/>
<stop offset="0.53" stop-color="#D8DF1F"/>
<stop offset="0.8" stop-color="#BAD52D"/>
<stop offset="0.98" stop-color="#A2CC39"/>
</linearGradient>
<linearGradient id="paint5_linear_104_3858" x1="0.588105" y1="7.51836" x2="2.50871" y2="2.58853" gradientUnits="userSpaceOnUse">
<stop offset="0.07" stop-color="#A2CC39"/>
<stop offset="0.26" stop-color="#81C45E"/>
<stop offset="0.92" stop-color="#0FA7DF"/>
</linearGradient>
</defs>
</svg>
