<svg width="1039" height="360" viewBox="0 0 1039 360" fill="none" xmlns="http://www.w3.org/2000/svg">
<path d="M0 1H62.1621L100.5 68M100.5 68L62.1621 126H0M100.5 68H222L283 176.5M283 176.5H412M283 176.5L222 282H100.5M100.5 282L62.1621 336H0M100.5 282L62.1621 217.34H0" stroke="#3C3D38"/>
<path d="M90 69L100 59L110 69L100 79L90 69Z" fill="#201D1D" stroke="#3C3D38"/>
<path d="M90 283L100 273L110 283L100 293L90 283Z" fill="#201D1D" stroke="#3C3D38"/>
<path d="M273 177L283 167L293 177L283 187L273 177Z" fill="#201D1D" stroke="#3C3D38"/>
<path d="M1039 350.498H976.838L938.5 283.498M938.5 283.498L976.838 225.498H1039M938.5 283.498H817L756 174.998M756 174.998L628 174.998M756 174.998L817 69.4979H938.5M938.5 69.4979L976.838 15.4979H1039M938.5 69.4979L976.838 134.158H1039" stroke="#3C3D38"/>
<path d="M411.5 176.5L520.5 335L628.5 175" stroke="#3C3D38"/>
<path d="M949.578 283.493L939.536 293.451L929.578 283.409L939.62 273.451L949.578 283.493Z" fill="#201D1D" stroke="#3C3D38"/>
<path d="M950.482 69.4952L940.44 79.4529L930.482 69.4107L940.525 59.453L950.482 69.4952Z" fill="#201D1D" stroke="#3C3D38"/>
<path d="M766.036 174.721L755.994 184.679L746.036 174.636L756.078 164.679L766.036 174.721Z" fill="#201D1D" stroke="#3C3D38"/>
<path d="M508 346.5L520.5 334L533 346.5L520.5 359L508 346.5Z" fill="#201D1D" stroke="#3C3D38"/>
</svg>
