<svg width="2432" height="338" viewBox="0 0 2432 338" fill="none" xmlns="http://www.w3.org/2000/svg">
<path opacity="0.05" d="M84.72 273.883C50.479 273.883 16.591 254.468 16.591 216.344C16.591 177.161 48.361 156.687 94.604 156.687C117.902 156.687 134.14 159.864 150.378 164.453V158.805C150.378 126.329 130.61 109.385 96.369 109.385C74.836 109.385 57.892 114.68 40.948 122.446L32.829 100.207C52.95 91.029 72.365 84.675 99.193 84.675C124.962 84.675 145.083 91.735 158.144 104.796C170.852 117.504 177.206 135.154 177.206 158.452V270H150.378V242.819C137.67 259.057 116.843 273.883 84.72 273.883ZM90.015 251.997C123.55 251.997 150.731 231.876 150.731 202.93V185.986C137.317 182.103 119.667 178.22 97.428 178.22C63.54 178.22 44.125 193.046 44.125 215.638C44.125 238.583 65.305 251.997 90.015 251.997ZM359.555 271.412L280.483 87.499H310.488L371.91 238.936L433.685 87.499H462.984L383.559 271.412H359.555ZM637.336 273.177C608.037 273.177 585.798 258.704 585.798 221.639V111.503H560.382V87.499H585.798V32.431H612.979V87.499H670.871V111.503H612.979V218.109C612.979 240.348 625.334 248.467 643.69 248.467C652.868 248.467 660.634 246.702 670.165 242.113V265.411C660.634 270.353 650.397 273.177 637.336 273.177Z" fill="#18191F"/>
<path opacity="0.05" d="M1032.6 189.869C1034.48 208.46 1041.42 223.286 1053.42 234.347C1065.66 245.172 1080.13 250.585 1096.84 250.585C1118.73 250.585 1137.91 241.995 1154.38 224.816L1171.33 239.995C1150.85 262.822 1125.79 274.236 1096.14 274.236C1070.48 274.236 1048.83 265.411 1031.18 247.761C1013.77 229.876 1005.06 206.931 1005.06 178.926C1005.06 152.333 1013.42 129.859 1030.12 111.503C1046.83 92.9117 1067.66 83.616 1092.61 83.616C1118.73 83.616 1139.44 92.794 1154.73 111.15C1170.03 129.506 1177.68 152.569 1177.68 180.338C1177.68 183.868 1177.56 187.045 1177.33 189.869H1032.6ZM1032.6 167.983H1150.15C1148.5 150.333 1142.61 135.742 1132.5 124.211C1122.61 112.444 1109.08 106.561 1091.9 106.561C1076.37 106.561 1063.07 112.327 1052.01 123.858C1040.95 135.389 1034.48 150.098 1032.6 167.983ZM1295.86 270V87.499H1323.04V135.154C1330.1 119.387 1340.1 106.796 1353.05 97.383C1365.99 87.9697 1380.82 83.616 1397.53 84.322V113.621H1395.41C1374.46 113.621 1357.17 120.916 1343.52 135.507C1329.87 150.098 1323.04 170.689 1323.04 197.282V270H1295.86ZM1569.89 273.53C1556.71 273.53 1543.29 271.177 1529.64 266.47C1516.23 261.528 1504.46 254.939 1494.34 246.702L1508.11 227.287C1528.82 242.819 1549.88 250.585 1571.3 250.585C1582.36 250.585 1591.42 247.879 1598.48 242.466C1605.54 237.053 1609.07 229.876 1609.07 220.933C1609.07 212.696 1605.19 206.342 1597.42 201.871C1589.89 197.4 1578.59 193.046 1563.53 188.81C1554.35 186.221 1547.06 183.868 1541.65 181.75C1536.23 179.632 1530.12 176.69 1523.29 172.925C1516.47 168.924 1511.41 163.982 1508.11 158.099C1504.82 151.98 1503.17 144.803 1503.17 136.566C1503.17 121.034 1508.94 108.444 1520.47 98.795C1532.23 89.1463 1547.18 84.322 1565.3 84.322C1588.83 84.322 1610.72 91.029 1630.96 104.443L1618.6 124.917C1600.48 113.15 1582.48 107.267 1564.59 107.267C1554 107.267 1545.41 109.856 1538.82 115.033C1532.47 119.975 1529.29 126.447 1529.29 134.448C1529.29 137.743 1530.23 140.802 1532.12 143.626C1534 146.45 1536.12 148.803 1538.47 150.686C1540.82 152.569 1544.47 154.569 1549.41 156.687C1554.59 158.805 1558.71 160.335 1561.77 161.276C1564.83 162.217 1569.65 163.747 1576.24 165.865C1584.95 168.454 1592.13 170.925 1597.77 173.278C1603.42 175.631 1609.42 178.808 1615.78 182.809C1622.13 186.81 1626.84 191.869 1629.9 197.988C1633.19 203.871 1634.84 210.814 1634.84 218.815C1634.84 235.759 1628.72 249.173 1616.48 259.057C1604.25 268.706 1588.71 273.53 1569.89 273.53ZM1810.3 273.883C1791.71 273.883 1775.7 268.823 1762.29 258.704C1748.87 248.585 1742.17 234.465 1742.17 216.344C1742.17 197.282 1749.23 182.574 1763.35 172.219C1777.47 161.864 1796.41 156.687 1820.18 156.687C1839.01 156.687 1857.6 159.276 1875.95 164.453V158.805C1875.95 142.802 1871.25 130.565 1861.83 122.093C1852.42 113.621 1839.12 109.385 1821.95 109.385C1804.06 109.385 1785.59 113.739 1766.52 122.446L1758.41 100.207C1781 89.8523 1803.12 84.675 1824.77 84.675C1850.66 84.675 1870.31 91.382 1883.72 104.796C1896.43 117.504 1902.78 135.389 1902.78 158.452V270H1875.95V242.819C1859.72 263.528 1837.83 273.883 1810.3 273.883ZM1815.59 251.997C1832.54 251.997 1846.89 247.408 1858.66 238.23C1870.42 229.052 1876.31 217.285 1876.31 202.93V185.986C1858.42 180.809 1840.65 178.22 1823 178.22C1806.3 178.22 1793.23 181.632 1783.82 188.457C1774.41 195.046 1769.7 204.107 1769.7 215.638C1769.7 226.699 1774.06 235.524 1782.76 242.113C1791.71 248.702 1802.65 251.997 1815.59 251.997ZM2030.96 270V87.499H2058.14V119.269C2072.49 95.5003 2093.32 83.616 2120.62 83.616C2142.27 83.616 2159.33 90.323 2171.8 103.737C2184.28 116.916 2190.51 134.566 2190.51 156.687V270H2163.33V163.394C2163.33 146.215 2158.86 132.801 2149.92 123.152C2141.21 113.268 2128.86 108.326 2112.85 108.326C2097.09 108.326 2084.02 113.621 2073.67 124.211C2063.32 134.801 2058.14 148.568 2058.14 165.512V270H2030.96ZM2380.15 273.177C2364.38 273.177 2351.79 269.059 2342.38 260.822C2333.2 252.35 2328.61 239.289 2328.61 221.639V111.503H2303.19V87.499H2328.61V32.431H2355.79V87.499H2413.68V111.503H2355.79V218.109C2355.79 238.348 2366.03 248.467 2386.5 248.467C2395.45 248.467 2404.27 246.349 2412.98 242.113V265.411C2403.09 270.588 2392.15 273.177 2380.15 273.177Z" fill="#18191F"/>
<g clip-path="url(#clip0_2304_1769)">
<path fill-rule="evenodd" clip-rule="evenodd" d="M703 168.956C703 96.7467 761.766 38 834 38C906.234 38 965 96.7467 965 168.956C965 241.166 906.234 300 834 300C761.766 300 703 241.166 703 168.956ZM719.965 168.956C719.965 231.987 770.949 282.953 834 282.953C896.964 282.953 948.035 231.987 948.035 168.956C948.035 106.713 896.964 54.9596 834 54.9596C770.949 54.9596 719.965 106.713 719.965 168.956Z" fill="#EF7F1A"/>
<path fill-rule="evenodd" clip-rule="evenodd" d="M782.23 215.028L879.299 168.957L782.23 123.673V101.73L902.648 158.379V180.321L782.23 236.97V215.028Z" fill="#EF7F1A"/>
</g>
<defs>
<clipPath id="clip0_2304_1769">
<rect width="262" height="262" fill="white" transform="translate(703 38)"/>
</clipPath>
</defs>
</svg>
