<svg width="110" height="110" viewBox="0 0 110 110" fill="none" xmlns="http://www.w3.org/2000/svg">
<path d="M22.6667 85.8334C30.3334 85.8334 36.5 79.6667 36.5 72.0001C36.5 64.3334 30.3334 58.1667 22.6667 58.1667C15 58.1667 8.83334 64.3334 8.83334 72.0001C8.83334 79.6667 15 85.8334 22.6667 85.8334ZM22.6667 61.5001C28.5 61.5001 33.1667 66.1667 33.1667 72.0001C33.1667 77.8334 28.5 82.5001 22.6667 82.5001C16.8333 82.5001 12.1667 77.8334 12.1667 72.0001C12.1667 66.1667 16.8333 61.5001 22.6667 61.5001ZM29.6667 86.3334H15.5C7.00001 86.3334 0 93.3334 0 101.833V108.333C0 109.333 0.666667 110 1.66667 110H43.5C44.5 110 45.1667 109.333 45.1667 108.333V101.833C45.1667 93.1667 38.3334 86.3334 29.6667 86.3334ZM41.8334 106.667H3.33334V101.833C3.33334 95.1667 8.83334 89.6667 15.5 89.6667H29.6667C36.3334 89.6667 41.8334 95.1667 41.8334 101.833V106.667ZM73.5001 72.0001C73.5001 79.6667 79.6667 85.8334 87.3334 85.8334C95.0001 85.8334 101.167 79.6667 101.167 72.0001C101.167 64.3334 95.0001 58.1667 87.3334 58.1667C79.8334 58.1667 73.5001 64.3334 73.5001 72.0001ZM87.3334 61.5001C93.1667 61.5001 97.8334 66.1667 97.8334 72.0001C97.8334 77.8334 93.1667 82.5001 87.3334 82.5001C81.5001 82.5001 76.8334 77.8334 76.8334 72.0001C76.8334 66.1667 81.6667 61.5001 87.3334 61.5001ZM94.5001 86.3334H80.3334C71.8334 86.3334 64.8334 93.3334 64.8334 101.833V108.333C64.8334 109.333 65.5001 110 66.5001 110H108.333C109.333 110 110 109.333 110 108.333V101.833C110 93.3334 103 86.3334 94.5001 86.3334ZM106.667 106.667H68.1667V101.833C68.1667 95.1667 73.6667 89.6667 80.3334 89.6667H94.5001C101.167 89.6667 106.667 95.1667 106.667 101.833V106.667ZM80.0001 54.8334L80.3334 55C81.0001 55.3334 81.8334 55 82.1667 54.5C82.6667 54 82.6667 53.1667 82.3334 52.5C79.3334 47.8334 77.5001 44.3334 76.6667 41.3334C89.6667 31 86.0001 12.6667 69.3334 6.66667C64.8334 2.5 58.3334 0 51.1667 0C37.3334 0 26.1667 9.50001 26.1667 21C26.1667 26.8334 29 32.3334 34 36.3334C33.1667 39.3334 31.3334 42.8334 28.3334 47.5C28 48.1667 28 48.8334 28.5 49.5C29 50 29.6667 50.3334 30.3334 50C36.1667 47.6667 40.6667 45.3334 44.1667 42.6667C49.8334 46.3334 57.3334 48 65.0001 46.5C68.1667 50.1667 74.1667 52.5 80.0001 54.8334ZM37.5 36C37.6667 35.3334 37.3334 34.6667 36.8334 34.3334C32.1667 31 29.5 26.1667 29.5 21C29.5 11.1667 39.1667 3.33334 51.1667 3.33334C63.1667 3.33334 72.8334 11.3333 72.8334 21C72.8334 30.6667 63.1667 38.6667 51.1667 38.6667C49.3334 38.6667 47.3334 38.5 45.3334 38C44.8334 37.8334 44.3334 38 43.8334 38.3334C41.3334 40.5 38 42.6667 33.6667 44.6667C35.6667 41.5 36.8334 38.6667 37.5 36ZM50.3334 42.1667C50.6667 42.1667 50.8334 42.1667 51.1667 42.1667C69.0001 42.1667 81.0001 26.8334 74.3334 13.1667C83.6667 20.3333 83.3334 32.5 73.8334 39.3334C73.3334 39.6667 73.0001 40.3334 73.1667 41C73.6667 43.5 75.0001 46.5 76.8334 50C72.6667 48.1667 68.6667 46.1667 66.8334 43.8334C66.5001 43.3334 65.8334 43 65.1667 43.1667C60 44.3334 54.8334 43.8334 50.3334 42.1667Z" fill="#0291DD"/>
<path d="M41.1667 15.1666H61C62 15.1666 62.6667 14.5 62.6667 13.5C62.6667 12.5 62 11.8333 61 11.8333H41.1667C40.1667 11.8333 39.5 12.5 39.5 13.5C39.5 14.5 40.3333 15.1666 41.1667 15.1666ZM41.1667 23.1667H61C62 23.1667 62.6667 22.5 62.6667 21.5C62.6667 20.5 62 19.8333 61 19.8333H41.1667C40.1667 19.8333 39.5 20.5 39.5 21.5C39.5 22.5 40.3333 23.1667 41.1667 23.1667ZM62.8334 29.5C62.8334 28.5 62.1667 27.8333 61.1667 27.8333H41.1667C40.1667 27.8333 39.5 28.5 39.5 29.5C39.5 30.5 40.1667 31.1667 41.1667 31.1667H61C62 31.1667 62.8334 30.5 62.8334 29.5Z" fill="#0291DD"/>
</svg>
