<svg width="76" height="108" viewBox="0 0 76 108" fill="none" xmlns="http://www.w3.org/2000/svg">
<path d="M61.9996 12.0001H13.9996C10.5996 12.0001 7.99963 14.6001 7.99963 18.0001V26.0001C7.99963 29.4001 10.5996 32.0001 13.9996 32.0001H61.9996C65.3996 32.0001 67.9996 29.4001 67.9996 26.0001V18.0001C67.9996 14.6001 65.3996 12.0001 61.9996 12.0001ZM63.9996 26.0001C63.9996 27.2001 63.1996 28.0001 61.9996 28.0001H13.9996C12.7996 28.0001 11.9996 27.2001 11.9996 26.0001V18.0001C11.9996 16.8001 12.7996 16.0001 13.9996 16.0001H61.9996C63.1996 16.0001 63.9996 16.8001 63.9996 18.0001V26.0001Z" fill="#0291DD"/>
<path d="M70 0H6C2.6 0 0 2.6 0 6V102C0 105.4 2.6 108 6 108H70C73.4 108 76 105.4 76 102V6C76 2.6 73.4 0 70 0ZM72 102C72 103.2 71.2 104 70 104H6C4.8 104 4 103.2 4 102V6C4 4.8 4.8 4 6 4H70C71.2 4 72 4.8 72 6V102Z" fill="#0291DD"/>
<path d="M19.9997 40H15.9997C12.5997 40 9.99969 42.6 9.99969 46V50C9.99969 53.4 12.5997 56 15.9997 56H19.9997C23.3997 56 25.9997 53.4 25.9997 50V46C25.9997 42.6 23.3997 40 19.9997 40ZM21.9997 50C21.9997 51.2 21.1997 52 19.9997 52H15.9997C14.7997 52 13.9997 51.2 13.9997 50V46C13.9997 44.8 14.7997 44 15.9997 44H19.9997C21.1997 44 21.9997 44.8 21.9997 46V50ZM39.9997 40H35.9997C32.5997 40 29.9997 42.6 29.9997 46V50C29.9997 53.4 32.5997 56 35.9997 56H39.9997C43.3997 56 45.9997 53.4 45.9997 50V46C45.9997 42.6 43.3997 40 39.9997 40ZM41.9997 50C41.9997 51.2 41.1997 52 39.9997 52H35.9997C34.7997 52 33.9997 51.2 33.9997 50V46C33.9997 44.8 34.7997 44 35.9997 44H39.9997C41.1997 44 41.9997 44.8 41.9997 46V50ZM59.9997 40H55.9997C52.5997 40 49.9997 42.6 49.9997 46V50C49.9997 53.4 52.5997 56 55.9997 56H59.9997C63.3997 56 65.9997 53.4 65.9997 50V46C65.9997 42.6 63.3997 40 59.9997 40ZM61.9997 50C61.9997 51.2 61.1997 52 59.9997 52H55.9997C54.7997 52 53.9997 51.2 53.9997 50V46C53.9997 44.8 54.7997 44 55.9997 44H59.9997C61.1997 44 61.9997 44.8 61.9997 46V50ZM19.9997 60H15.9997C12.5997 60 9.99969 62.6 9.99969 66V70C9.99969 73.4 12.5997 76 15.9997 76H19.9997C23.3997 76 25.9997 73.4 25.9997 70V66C25.9997 62.6 23.3997 60 19.9997 60ZM21.9997 70C21.9997 71.2 21.1997 72 19.9997 72H15.9997C14.7997 72 13.9997 71.2 13.9997 70V66C13.9997 64.8 14.7997 64 15.9997 64H19.9997C21.1997 64 21.9997 64.8 21.9997 66V70ZM39.9997 60H35.9997C32.5997 60 29.9997 62.6 29.9997 66V70C29.9997 73.4 32.5997 76 35.9997 76H39.9997C43.3997 76 45.9997 73.4 45.9997 70V66C45.9997 62.6 43.3997 60 39.9997 60ZM41.9997 70C41.9997 71.2 41.1997 72 39.9997 72H35.9997C34.7997 72 33.9997 71.2 33.9997 70V66C33.9997 64.8 34.7997 64 35.9997 64H39.9997C41.1997 64 41.9997 64.8 41.9997 66V70ZM59.9997 60H55.9997C52.5997 60 49.9997 62.6 49.9997 66V90C49.9997 93.4 52.5997 96 55.9997 96H59.9997C63.3997 96 65.9997 93.4 65.9997 90V66C65.9997 62.6 63.3997 60 59.9997 60ZM61.9997 90C61.9997 91.2 61.1997 92 59.9997 92H55.9997C54.7997 92 53.9997 91.2 53.9997 90V66C53.9997 64.8 54.7997 64 55.9997 64H59.9997C61.1997 64 61.9997 64.8 61.9997 66V90ZM19.9997 80H15.9997C12.5997 80 9.99969 82.6 9.99969 86V90C9.99969 93.4 12.5997 96 15.9997 96H19.9997C23.3997 96 25.9997 93.4 25.9997 90V86C25.9997 82.6 23.3997 80 19.9997 80ZM21.9997 90C21.9997 91.2 21.1997 92 19.9997 92H15.9997C14.7997 92 13.9997 91.2 13.9997 90V86C13.9997 84.8 14.7997 84 15.9997 84H19.9997C21.1997 84 21.9997 84.8 21.9997 86V90ZM39.9997 80H35.9997C32.5997 80 29.9997 82.6 29.9997 86V90C29.9997 93.4 32.5997 96 35.9997 96H39.9997C43.3997 96 45.9997 93.4 45.9997 90V86C45.9997 82.6 43.3997 80 39.9997 80ZM41.9997 90C41.9997 91.2 41.1997 92 39.9997 92H35.9997C34.7997 92 33.9997 91.2 33.9997 90V86C33.9997 84.8 34.7997 84 35.9997 84H39.9997C41.1997 84 41.9997 84.8 41.9997 86V90Z" fill="#0291DD"/>
</svg>
