<svg width="102" height="108" viewBox="0 0 102 108" fill="none" xmlns="http://www.w3.org/2000/svg">
<path fill-rule="evenodd" clip-rule="evenodd" d="M50.9017 8.23296e-05C50.8962 0.00276209 50.8908 0.00546561 50.8853 0.00819258C50.8717 0.00806061 50.8581 0.00806061 50.8445 0.00819258C50.5987 0.0256635 50.358 0.0860662 50.1334 0.186618L1.76553 20.7137C1.26902 20.7916 0.817384 21.0443 0.49322 21.4256C0.169056 21.8068 -0.00596923 22.2911 0.000155462 22.7899V85.0848C-0.00234706 85.3808 0.0589586 85.6739 0.179962 85.9445C0.182636 85.9526 0.18536 85.9607 0.188135 85.9688C0.206034 86.0072 0.225114 86.0451 0.245346 86.0823C0.470627 86.5293 0.850769 86.8806 1.31601 87.0718L49.7166 107.607C50.0739 107.861 50.5028 107.998 50.9425 107.996C51.434 108.026 51.9202 107.882 52.3156 107.591L100.692 87.0718C101.032 86.9344 101.329 86.7107 101.554 86.4231C101.779 86.1356 101.924 85.7943 101.975 85.4335C101.981 85.3958 101.987 85.358 101.991 85.32C101.995 85.2876 101.997 85.2551 101.999 85.2226C102 85.1875 102 85.1524 101.999 85.1172C101.999 85.1064 101.999 85.0956 101.999 85.0848V22.7899C102.005 22.2972 101.833 21.8187 101.516 21.4399C101.199 21.061 100.756 20.8065 100.267 20.7218L51.9151 0.210949C51.8989 0.202627 51.8825 0.194515 51.8661 0.186618C51.7552 0.139006 51.6403 0.101016 51.5228 0.0730746C51.5038 0.0673991 51.4847 0.0619915 51.4656 0.0568541C51.417 0.0442911 51.3679 0.0334704 51.3185 0.0244131C51.2995 0.0214484 51.2804 0.0187449 51.2613 0.0163028C51.2096 0.0116912 51.1578 0.00898585 51.106 0.00819258C51.0381 0.00218634 50.9699 -0.000520374 50.9017 8.23296e-05ZM50.9997 4.33907L61.2487 8.68617L17.7846 27.137C17.7432 27.1546 17.7023 27.1735 17.662 27.1938L7.39673 22.8386L50.9997 4.33907ZM66.5775 10.9489L79.0168 16.2287L34.7436 35.0202C34.3341 35.1941 33.9912 35.4932 33.7648 35.8739C33.5385 36.2547 33.4404 36.6971 33.485 37.1369C33.4775 37.2178 33.4747 37.2991 33.4768 37.3803V59.5942L28.9408 52.8384C28.658 52.4183 28.2307 52.1149 27.7387 51.985C27.2467 51.8552 26.7239 51.9077 26.2682 52.1328L20.9231 54.7849V30.3243L66.5775 10.9489ZM84.3374 18.4834L94.6027 22.8386L50.9997 41.3381L40.7426 36.991L84.2149 18.5401C84.2563 18.5225 84.2972 18.5036 84.3374 18.4834ZM4.18474 25.9853L16.7385 31.3138V58.1425C16.7388 58.4959 16.8301 58.8433 17.0035 59.1519C17.177 59.4605 17.427 59.7201 17.7297 59.906C18.0325 60.092 18.3782 60.1982 18.7339 60.2146C19.0896 60.231 19.4436 60.1571 19.7625 59.9998L26.4807 56.6664L33.7138 67.4287C33.7165 67.4342 33.7192 67.4396 33.722 67.445C33.9524 67.8708 34.3253 68.2035 34.7763 68.3858C34.779 68.3885 34.7818 68.3912 34.7845 68.3939C34.8461 68.4184 34.9088 68.4401 34.9725 68.4587C35.0977 68.4977 35.2263 68.5248 35.3566 68.5398C35.4381 68.5473 35.52 68.55 35.6018 68.548C35.6838 68.5473 35.7656 68.5419 35.847 68.5317C35.9046 68.5233 35.9619 68.5125 36.0186 68.4993C36.0598 68.4897 36.1007 68.4789 36.1412 68.4669C36.1769 68.457 36.2123 68.4462 36.2475 68.4344C36.366 68.396 36.4809 68.3472 36.5907 68.2884C36.5935 68.2857 36.5962 68.283 36.5989 68.2803C36.9663 68.0787 37.264 67.7722 37.4535 67.4005C37.643 67.0288 37.7154 66.6091 37.6614 66.196V40.2026L48.9074 44.9715V102.757L4.18474 83.7709V25.9853ZM97.8147 25.9935V83.7709L53.092 102.757V44.9715L97.8147 25.9935Z" fill="#0291DD"/>
</svg>
