<svg width="11" height="20" viewBox="0 0 11 20" fill="none" xmlns="http://www.w3.org/2000/svg">
<path fill-rule="evenodd" clip-rule="evenodd" d="M0.365538 19.708C0.770538 20.098 1.42554 20.098 1.82954 19.708L10.3925 11.4439C10.5842 11.2617 10.7369 11.0428 10.8412 10.7998C10.9454 10.5568 10.9992 10.2947 10.9992 10.0303C10.9992 9.76587 10.9454 9.50425 10.8412 9.26126C10.7369 9.01826 10.5842 8.79938 10.3925 8.61721L1.76755 0.292017C1.5718 0.105965 1.31258 0.00139415 1.04252 -0.000463169C0.772471 -0.00232048 0.511823 0.0989091 0.313536 0.282252C0.215308 0.372792 0.136721 0.48237 0.0826249 0.604517C0.0285292 0.726665 8.37091e-05 0.858626 -0.000947482 0.992213C-0.00197867 1.1258 0.0244246 1.25792 0.0766282 1.38088C0.128832 1.50385 0.205716 1.61501 0.302535 1.70706L8.19653 9.32424C8.29245 9.41533 8.36882 9.52497 8.42102 9.64651C8.47321 9.76805 8.50015 9.89851 8.50015 10.0308C8.50015 10.1631 8.47321 10.294 8.42102 10.4156C8.36882 10.5371 8.29245 10.6467 8.19653 10.7378L0.365538 18.2949C0.269648 18.3859 0.193294 18.4958 0.141112 18.6172C0.0889295 18.7387 0.0620103 18.8693 0.0620103 19.0015C0.0620103 19.1337 0.0889295 19.2643 0.141112 19.3858C0.193294 19.5072 0.269648 19.617 0.365538 19.708Z" fill="#C4413A"/>
</svg>
