<svg width="30" height="30" viewBox="0 0 30 30" fill="none" xmlns="http://www.w3.org/2000/svg">
<path d="M25.7812 8.4375H19.6875V2.34375C19.6875 2.21943 19.6381 2.1002 19.5502 2.01229C19.4623 1.92439 19.3431 1.875 19.2188 1.875H6.09375C5.96943 1.875 5.8502 1.92439 5.76229 2.01229C5.67439 2.1002 5.625 2.21943 5.625 2.34375V15.4688C5.625 15.5931 5.67439 15.7123 5.76229 15.8002C5.8502 15.8881 5.96943 15.9375 6.09375 15.9375H18.75V23.4375H6.09375C5.96943 23.4375 5.8502 23.4869 5.76229 23.5748C5.67439 23.6627 5.625 23.7819 5.625 23.9062V27.6562C5.625 27.7806 5.67439 27.8998 5.76229 27.9877C5.8502 28.0756 5.96943 28.125 6.09375 28.125H25.7812C25.9056 28.125 26.0248 28.0756 26.1127 27.9877C26.2006 27.8998 26.25 27.7806 26.25 27.6562V8.90625C26.25 8.78193 26.2006 8.6627 26.1127 8.57479C26.0248 8.48689 25.9056 8.4375 25.7812 8.4375Z" fill="white"/>
<path d="M19.2188 15H4.21875C3.95987 15 3.75 15.2099 3.75 15.4688V23.9062C3.75 24.1651 3.95987 24.375 4.21875 24.375H19.2188C19.4776 24.375 19.6875 24.1651 19.6875 23.9062V15.4688C19.6875 15.2099 19.4776 15 19.2188 15Z" fill="#42A5F5"/>
<path d="M26.1141 8.57323L19.5516 2.01073C19.486 1.94463 19.4022 1.89954 19.311 1.88123C19.2197 1.86291 19.125 1.8722 19.039 1.9079C18.953 1.94361 18.8796 2.00411 18.8281 2.0817C18.7767 2.15928 18.7495 2.25044 18.75 2.34355V8.90605C18.75 9.03037 18.7994 9.1496 18.8873 9.2375C18.9752 9.32541 19.0944 9.3748 19.2188 9.3748H25.7813C25.8744 9.37534 25.9655 9.34814 26.0431 9.29667C26.1207 9.2452 26.1812 9.17179 26.2169 9.0858C26.2526 8.99981 26.2619 8.90514 26.2436 8.81385C26.2253 8.72256 26.1802 8.6388 26.1141 8.57323Z" fill="#E0E0E0"/>
<path d="M6.09375 21.5626V17.8126H7.5C7.85248 17.8001 8.19794 17.9131 8.475 18.1313C8.70191 18.3194 8.88128 18.5584 8.99856 18.8287C9.11584 19.0991 9.16772 19.3934 9.15 19.6876C9.15115 20.0323 9.06744 20.3719 8.90625 20.6766C8.75843 20.9623 8.53033 21.1986 8.25 21.3563C7.92892 21.5103 7.57434 21.5812 7.21875 21.5626H6.09375ZM6.88594 20.8501H7.39219C7.57224 20.8566 7.75015 20.8093 7.90313 20.7141C8.06532 20.5924 8.19359 20.431 8.27565 20.2456C8.35772 20.0601 8.39085 19.8567 8.37188 19.6548C8.38784 19.465 8.35536 19.2742 8.27747 19.1004C8.19958 18.9266 8.07884 18.7754 7.92656 18.661C7.77563 18.5651 7.59898 18.5177 7.42031 18.5251H6.86719L6.88594 20.8501ZM11.3953 17.7423C11.6481 17.738 11.8989 17.7862 12.1321 17.8838C12.3653 17.9815 12.5757 18.1264 12.75 18.3094C13.109 18.6765 13.3101 19.1695 13.3101 19.6829C13.3101 20.1963 13.109 20.6893 12.75 21.0563C12.5751 21.2378 12.3654 21.3821 12.1334 21.4807C11.9015 21.5793 11.652 21.6301 11.4 21.6301C11.148 21.6301 10.8985 21.5793 10.6666 21.4807C10.4346 21.3821 10.2249 21.2378 10.05 21.0563C9.78157 20.7802 9.60024 20.4312 9.52856 20.0529C9.45689 19.6745 9.49803 19.2834 9.64688 18.9282C9.78537 18.5777 10.0263 18.2771 10.3382 18.0655C10.6501 17.854 11.0184 17.7413 11.3953 17.7423ZM11.3953 18.5391C11.2511 18.538 11.1082 18.5671 10.9758 18.6244C10.8434 18.6817 10.7245 18.766 10.6266 18.8719C10.5211 18.9791 10.4388 19.1068 10.3848 19.2471C10.3308 19.3874 10.3062 19.5374 10.3125 19.6876C10.3093 19.8396 10.3363 19.9908 10.3918 20.1324C10.4473 20.274 10.5303 20.4032 10.6359 20.5126C10.7363 20.6188 10.8573 20.7035 10.9915 20.7613C11.1257 20.8192 11.2703 20.849 11.4164 20.849C11.5626 20.849 11.7072 20.8192 11.8414 20.7613C11.9756 20.7035 12.0965 20.6188 12.1969 20.5126C12.3002 20.4075 12.3816 20.283 12.4363 20.1462C12.491 20.0093 12.518 19.863 12.5156 19.7157C12.5183 19.564 12.4907 19.4133 12.4343 19.2724C12.378 19.1316 12.2941 19.0034 12.1875 18.8954C12.0876 18.7832 11.9647 18.6937 11.8272 18.6331C11.6898 18.5724 11.5409 18.542 11.3906 18.5438L11.3953 18.5391ZM16.2281 20.3063H17.0719C17.0424 20.5644 16.9454 20.8102 16.7906 21.0188C16.6364 21.2127 16.4367 21.3657 16.2094 21.4641C15.9726 21.5725 15.7151 21.6285 15.4547 21.6282C15.2148 21.6361 14.9761 21.5925 14.7545 21.5004C14.533 21.4082 14.3337 21.2695 14.1703 21.0938C13.8228 20.7101 13.6409 20.2047 13.6641 19.6876C13.6433 19.1725 13.8212 18.6691 14.1609 18.2813C14.3179 18.1025 14.5121 17.9603 14.73 17.8648C14.9479 17.7692 15.184 17.7226 15.4219 17.7282C15.6626 17.7214 15.9019 17.7674 16.123 17.863C16.3441 17.9585 16.5416 18.1013 16.7016 18.2813C16.9014 18.5152 17.0299 18.8016 17.0719 19.1063H16.2281C16.1865 18.9409 16.0888 18.7951 15.9516 18.6938C15.7985 18.5939 15.6186 18.5432 15.4359 18.5485C15.3029 18.5448 15.1708 18.5716 15.0497 18.6269C14.9287 18.6821 14.8219 18.7643 14.7375 18.8673C14.5537 19.1002 14.4589 19.391 14.4703 19.6876C14.4577 19.985 14.5544 20.2768 14.7422 20.5079C14.828 20.61 14.9358 20.6914 15.0576 20.7458C15.1794 20.8002 15.312 20.8262 15.4453 20.8219C15.6141 20.8328 15.7818 20.7883 15.9231 20.6952C16.0643 20.6022 16.1714 20.4657 16.2281 20.3063Z" fill="white"/>
</svg>
