<svg width="16" height="20" viewBox="0 0 16 20" fill="none" xmlns="http://www.w3.org/2000/svg">
<path d="M14.3943 11.3763L9.59643 16.158C7.80143 17.9467 4.89102 17.9467 3.0956 16.158C2.66933 15.7338 2.33108 15.2297 2.10029 14.6744C1.86949 14.1192 1.7507 13.5238 1.75074 12.9225C1.75077 12.3211 1.86964 11.7258 2.10051 11.1705C2.33138 10.6153 2.6697 10.1112 3.09602 9.68712L9.49352 3.31212C10.5802 2.22879 12.3485 2.22962 13.4352 3.31212C13.6935 3.56871 13.8986 3.87383 14.0386 4.20995C14.1786 4.54607 14.2507 4.90654 14.2509 5.27065C14.2511 5.63475 14.1793 5.99531 14.0397 6.33157C13.9001 6.66783 13.6953 6.97318 13.4373 7.23004L7.03852 13.6063C6.85454 13.7889 6.6059 13.8915 6.34669 13.8917C6.08748 13.8919 5.83865 13.7898 5.65435 13.6075C5.56388 13.5176 5.49212 13.4107 5.44322 13.2929C5.39432 13.1751 5.36924 13.0488 5.36943 12.9213C5.36962 12.7937 5.39509 12.6675 5.44435 12.5499C5.49361 12.4322 5.56569 12.3255 5.65643 12.2359L10.4527 7.45629C10.5302 7.37906 10.5918 7.28731 10.6339 7.18628C10.6759 7.08525 10.6977 6.97693 10.6979 6.86749C10.6981 6.75806 10.6768 6.64965 10.6351 6.54846C10.5934 6.44727 10.5322 6.35528 10.455 6.27775C10.3777 6.20021 10.286 6.13865 10.185 6.09657C10.0839 6.0545 9.97562 6.03273 9.86618 6.03252C9.75674 6.0323 9.64833 6.05365 9.54714 6.09533C9.44595 6.13702 9.35397 6.19822 9.27643 6.27546L4.47977 11.0555C4.2336 11.2999 4.03821 11.5906 3.90482 11.9109C3.77143 12.2312 3.70268 12.5746 3.70253 12.9216C3.70237 13.2685 3.77082 13.612 3.90392 13.9324C4.03702 14.2528 4.23216 14.5437 4.4781 14.7884C4.97484 15.2818 5.64664 15.5585 6.34678 15.5582C7.04691 15.5579 7.71847 15.2805 8.21477 14.7867L14.6139 8.41004C16.3527 6.6767 16.3514 3.86546 14.6114 2.13129C12.8748 0.400872 10.0548 0.399622 8.31727 2.13129L1.91935 8.50629C-0.527735 10.9446 -0.527734 14.8996 1.91893 17.338C4.36477 19.7755 8.32727 19.775 10.7727 17.338L15.571 12.5563C15.6485 12.479 15.7101 12.3873 15.7521 12.2862C15.7941 12.1852 15.8159 12.0768 15.816 11.9674C15.8162 11.858 15.7948 11.7496 15.7531 11.6484C15.7114 11.5472 15.6502 11.4553 15.5729 11.3777C15.4956 11.3002 15.4039 11.2387 15.3028 11.1967C15.2018 11.1546 15.0934 11.1329 14.984 11.1327C14.8746 11.1326 14.7662 11.1539 14.665 11.1957C14.5638 11.2374 14.4719 11.2986 14.3943 11.3759V11.3763Z" fill="#444444"/>
</svg>
