<svg width="32" height="32" viewBox="0 0 32 32" fill="none" xmlns="http://www.w3.org/2000/svg">
<path d="M16 5C8.72727 5 2.51636 9.56133 0 16C2.51636 22.4387 8.72727 27 16 27C23.28 27 29.4836 22.4387 32 16C29.4836 9.56133 23.28 5 16 5ZM16 23.3333C11.9855 23.3333 8.72727 20.048 8.72727 16C8.72727 11.952 11.9855 8.66667 16 8.66667C20.0145 8.66667 23.2727 11.952 23.2727 16C23.2727 20.048 20.0145 23.3333 16 23.3333ZM16 11.6C13.5927 11.6 11.6364 13.5727 11.6364 16C11.6364 18.4273 13.5927 20.4 16 20.4C18.4073 20.4 20.3636 18.4273 20.3636 16C20.3636 13.5727 18.4073 11.6 16 11.6Z" fill="#0C424F"/>
</svg>
