<svg width="50" height="50" viewBox="0 0 50 50" fill="none" xmlns="http://www.w3.org/2000/svg">
<g clip-path="url(#clip0_437_23)">
<g filter="url(#filter0_d_437_23)">
<mask id="path-1-outside-1_437_23" maskUnits="userSpaceOnUse" x="9.53711" y="4.42871" width="31" height="42" fill="black">
<rect fill="white" x="9.53711" y="4.42871" width="31" height="42"/>
<path d="M24.9997 6.42871C17.5645 6.42871 11.5371 12.4561 11.5371 19.8913C11.5371 22.3778 12.0238 24.946 13.4205 26.797L24.9997 42.143L36.579 26.797C37.8476 25.1158 38.4623 22.1436 38.4623 19.8913C38.4623 12.4561 32.4349 6.42871 24.9997 6.42871ZM24.9997 14.2259C28.1282 14.2259 30.6651 16.7629 30.6651 19.8913C30.6651 23.0198 28.1282 25.5567 24.9997 25.5567C21.8713 25.5567 19.3344 23.0198 19.3344 19.8913C19.3344 16.7629 21.8713 14.2259 24.9997 14.2259Z"/>
<path d="M24.9997 14.2259C28.1282 14.2259 30.6651 16.7629 30.6651 19.8913C30.6651 23.0198 28.1282 25.5567 24.9997 25.5567C21.8713 25.5567 19.3344 23.0198 19.3344 19.8913C19.3344 16.7629 21.8713 14.2259 24.9997 14.2259Z"/>
</mask>
<path d="M24.9997 6.42871C17.5645 6.42871 11.5371 12.4561 11.5371 19.8913C11.5371 22.3778 12.0238 24.946 13.4205 26.797L24.9997 42.143L36.579 26.797C37.8476 25.1158 38.4623 22.1436 38.4623 19.8913C38.4623 12.4561 32.4349 6.42871 24.9997 6.42871ZM24.9997 14.2259C28.1282 14.2259 30.6651 16.7629 30.6651 19.8913C30.6651 23.0198 28.1282 25.5567 24.9997 25.5567C21.8713 25.5567 19.3344 23.0198 19.3344 19.8913C19.3344 16.7629 21.8713 14.2259 24.9997 14.2259Z" fill="#444444"/>
<path d="M24.9997 14.2259C28.1282 14.2259 30.6651 16.7629 30.6651 19.8913C30.6651 23.0198 28.1282 25.5567 24.9997 25.5567C21.8713 25.5567 19.3344 23.0198 19.3344 19.8913C19.3344 16.7629 21.8713 14.2259 24.9997 14.2259Z" fill="white"/>
<path d="M24.9997 15.2259C27.5759 15.2259 29.6651 17.3152 29.6651 19.8913H31.6651C31.6651 16.2106 28.6805 13.2259 24.9997 13.2259V15.2259ZM29.6651 19.8913C29.6651 22.4675 27.5759 24.5567 24.9997 24.5567V26.5567C28.6805 26.5567 31.6651 23.5721 31.6651 19.8913H29.6651ZM24.9997 24.5567C22.4236 24.5567 20.3344 22.4675 20.3344 19.8913H18.3344C18.3344 23.5721 21.319 26.5567 24.9997 26.5567V24.5567ZM20.3344 19.8913C20.3344 17.3152 22.4236 15.2259 24.9997 15.2259V13.2259C21.319 13.2259 18.3344 16.2106 18.3344 19.8913H20.3344ZM13.4205 26.797L11.824 28.0017L11.824 28.0017L13.4205 26.797ZM24.9997 42.143L23.4032 43.3476L24.9997 45.4635L26.5962 43.3476L24.9997 42.143ZM36.579 26.797L34.9825 25.5924L34.9824 25.5924L36.579 26.797ZM38.4623 19.8913L36.4623 19.8913V19.8913H38.4623ZM24.9997 4.42871C16.46 4.42871 9.53711 11.3516 9.53711 19.8913H13.5371C13.5371 13.5607 18.6691 8.42871 24.9997 8.42871V4.42871ZM9.53711 19.8913C9.53711 22.5677 10.0488 25.649 11.824 28.0017L15.017 25.5924C13.9989 24.243 13.5371 22.188 13.5371 19.8913H9.53711ZM11.824 28.0017L23.4032 43.3476L26.5962 40.9384L15.017 25.5924L11.824 28.0017ZM26.5962 43.3476L38.1755 28.0017L34.9824 25.5924L23.4032 40.9384L26.5962 43.3476ZM38.1755 28.0017C39.0318 26.8667 39.5885 25.4201 39.9353 24.0487C40.2881 22.6539 40.4623 21.1831 40.4623 19.8913H36.4623C36.4623 20.8518 36.3292 21.9932 36.0574 23.0679C35.7797 24.1659 35.3947 25.0461 34.9825 25.5924L38.1755 28.0017ZM40.4623 19.8913C40.4624 11.3516 33.5395 4.42871 24.9997 4.42871V8.42871C31.3303 8.42871 36.4623 13.5607 36.4623 19.8913L40.4623 19.8913Z" fill="white" mask="url(#path-1-outside-1_437_23)"/>
</g>
</g>
<defs>
<filter id="filter0_d_437_23" x="1.53711" y="-3.57129" width="50.9248" height="61.0347" filterUnits="userSpaceOnUse" color-interpolation-filters="sRGB">
<feFlood flood-opacity="0" result="BackgroundImageFix"/>
<feColorMatrix in="SourceAlpha" type="matrix" values="0 0 0 0 0 0 0 0 0 0 0 0 0 0 0 0 0 0 127 0" result="hardAlpha"/>
<feOffset dx="2" dy="2"/>
<feGaussianBlur stdDeviation="5"/>
<feComposite in2="hardAlpha" operator="out"/>
<feColorMatrix type="matrix" values="0 0 0 0 0 0 0 0 0 0 0 0 0 0 0 0 0 0 0.2 0"/>
<feBlend mode="normal" in2="BackgroundImageFix" result="effect1_dropShadow_437_23"/>
<feBlend mode="normal" in="SourceGraphic" in2="effect1_dropShadow_437_23" result="shape"/>
</filter>
<clipPath id="clip0_437_23">
<rect width="50" height="50" fill="white"/>
</clipPath>
</defs>
</svg>
