<svg width="24" height="20" viewBox="0 0 24 20" fill="none" xmlns="http://www.w3.org/2000/svg">
<g opacity="0.4">
<path d="M14.1633 14.2463L17.1522 17.2834C17.7645 17.9042 17.7645 18.9124 17.1522 19.5339C16.5405 20.1554 15.5491 20.1554 14.9381 19.5339L11.9995 16.5495L9.06335 19.5339C8.7572 19.8443 8.35603 19.9997 7.95487 19.9997C7.55435 19.9997 7.15382 19.8443 6.84767 19.5339C6.23601 18.9124 6.23601 17.9049 6.84703 17.2834L9.83624 14.2463C8.74792 13.9944 7.6983 13.5563 6.73155 12.94C5.99992 12.4713 5.78014 11.4894 6.24113 10.7454C6.70084 10.0005 7.66759 9.77618 8.4005 10.2449C10.5893 11.6438 13.409 11.6441 15.599 10.2449C16.332 9.77618 17.2984 10.0005 17.7591 10.7454C18.22 11.4888 17.9996 12.4713 17.268 12.94C16.3012 13.5569 15.2516 13.9944 14.1633 14.2463Z" fill="#0C424F"/>
<path fill-rule="evenodd" clip-rule="evenodd" d="M6.63965 5.16132C6.63965 8.00662 9.03767 10.3211 11.9863 10.3211C14.9355 10.3211 17.3329 8.00662 17.3329 5.16132C17.3329 2.31509 14.9355 0 11.9863 0C9.03767 0 6.63965 2.31509 6.63965 5.16132ZM14.1999 5.1615C14.1999 3.98312 13.2069 3.0249 11.9861 3.0249C10.7663 3.0249 9.77238 3.98312 9.77238 5.1615C9.77238 6.33897 10.7663 7.2978 11.9861 7.2978C13.2069 7.2978 14.1999 6.33897 14.1999 5.1615Z" fill="#0C424F"/>
</g>
</svg>
