<svg width="16" height="17" viewBox="0 0 16 17" fill="none" xmlns="http://www.w3.org/2000/svg">
<path d="M15.2249 2.83769C14.7249 2.32519 14.2249 1.81269 13.7249 1.31269C13.2499 0.837695 12.5124 0.875195 11.9624 1.40019C11.6999 1.66269 11.4374 1.91269 11.1749 2.17519L10.9624 2.38769C10.9499 2.41269 10.9249 2.42519 10.9124 2.45019L10.8999 2.43769L11.1249 2.67519L11.1874 2.73769L13.7749 5.35019L14.0499 5.6252L14.3624 5.3127C14.6124 5.07519 14.8624 4.82519 15.0999 4.57519C15.6499 4.05019 15.6999 3.32519 15.2249 2.83769ZM10.3374 3.02519L9.67492 3.67519L8.18742 5.1752C6.32492 7.0252 4.47492 8.8877 2.62492 10.7377C2.48742 10.8877 2.34992 11.0627 2.27492 11.2377C1.82492 12.1377 1.38742 13.0252 0.949919 13.9127L0.624919 14.5627C0.549919 14.7127 0.487419 14.8752 0.462419 15.0252C0.387419 15.4877 0.637419 15.9002 1.07492 16.0002C1.19992 16.0252 1.33742 16.0377 1.48742 16.0002C1.62492 15.9752 1.76242 15.9127 1.93742 15.8377L2.54992 15.5377C3.28742 15.1877 4.01242 14.8252 4.73742 14.4627L4.83742 14.4127C5.16242 14.2502 5.53742 14.0627 5.87492 13.7252C6.86242 12.7377 7.83742 11.7502 8.82492 10.7502L13.0749 6.47519C13.0999 6.4502 13.1249 6.4252 13.1499 6.41269L13.4374 6.1502L10.3374 3.02519ZM4.51242 13.7877L4.41242 13.8377C3.86242 14.1127 3.36242 14.3627 2.89992 14.5877C2.71242 14.4002 2.52492 14.2002 2.33742 14.0252L1.88742 13.5752C2.21242 12.9002 2.53742 12.2377 2.87492 11.5627C2.89992 11.5127 2.93742 11.4502 2.97492 11.4002C3.08742 11.5877 3.27492 11.7752 3.59992 11.8752C3.64992 12.0502 3.74992 12.2627 3.93742 12.4502C4.08742 12.6002 4.28742 12.7252 4.56242 12.8002C4.61242 13.0252 4.76242 13.3127 5.04992 13.5002C4.88742 13.6002 4.69992 13.6877 4.51242 13.7877Z" fill="#C4413A"/>
</svg>
