<svg width="32" height="32" viewBox="0 0 32 32" fill="none" xmlns="http://www.w3.org/2000/svg">
<path d="M31.1196 31.1196C30.8406 31.3987 30.5094 31.6201 30.1448 31.7712C29.7803 31.9222 29.3895 32 28.9949 32C28.6003 32 28.2095 31.9222 27.845 31.7712C27.4804 31.6201 27.1492 31.3987 26.8703 31.1196L21.5671 25.8164C19.3854 27.2128 16.8069 28.0483 14.0241 28.0483C6.27881 28.0483 0 21.7695 0 14.0241C0 6.27881 6.27881 0 14.0241 0C21.7695 0 28.0483 6.27881 28.0483 14.0241C28.0483 16.8069 27.2128 19.3854 25.8164 21.5671L31.1196 26.8703C31.3987 27.1492 31.6201 27.4804 31.7712 27.845C31.9222 28.2095 32 28.6003 32 28.9949C32 29.3895 31.9222 29.7803 31.7712 30.1448C31.6201 30.5094 31.3987 30.8406 31.1196 31.1196ZM14.0241 4.0069C8.49262 4.0069 4.0069 8.49062 4.0069 14.0241C4.0069 19.5577 8.49262 24.0414 14.0241 24.0414C19.5577 24.0414 24.0414 19.5577 24.0414 14.0241C24.0414 8.49062 19.5577 4.0069 14.0241 4.0069Z" fill="#0C424F"/>
</svg>
