<svg width="24" height="15" viewBox="0 0 24 15" fill="none" xmlns="http://www.w3.org/2000/svg">
<path opacity="0.4" d="M19.9157 8.17135C19.5277 7.68133 19.6387 7.46332 19.9157 7.02531C19.9207 7.02031 23.1238 2.59415 23.4538 1.0931L23.4558 1.0921C23.6198 0.54508 23.4558 0.143066 22.6628 0.143066H20.0387C19.3707 0.143066 19.0627 0.488078 18.8977 0.874092C18.8977 0.874092 17.5616 4.0722 15.6715 6.14528C15.0615 6.7443 14.7795 6.9363 14.4465 6.9363C14.2825 6.9363 14.0275 6.7443 14.0275 6.19728V1.0921C14.0275 0.436076 13.8405 0.143066 13.2875 0.143066H9.16132C8.7423 0.143066 8.49329 0.449077 8.49329 0.734087C8.49329 1.35611 9.43833 1.49911 9.53633 3.24917V7.04631C9.53633 7.87834 9.38533 8.03134 9.05031 8.03134C8.15828 8.03134 5.99321 4.82023 4.71016 1.1451C4.45115 0.432076 4.19815 0.144066 3.52512 0.144066H0.900031C0.151005 0.144066 0 0.489078 0 0.875092C0 1.55712 0.892031 4.94823 4.14814 9.42839C6.31822 12.4865 9.37433 14.1436 12.1544 14.1436C13.8255 14.1436 14.0295 13.7755 14.0295 13.1425C14.0295 10.2204 13.8785 9.94441 14.7155 9.94441C15.1035 9.94441 15.7715 10.1364 17.3316 11.6115C19.1147 13.3605 19.4077 14.1436 20.4057 14.1436H23.0298C23.7778 14.1436 24.1568 13.7755 23.9388 13.0495C23.4398 11.5225 20.0677 8.38135 19.9157 8.17135Z" fill="#0C424F"/>
</svg>
