<svg width="30" height="30" viewBox="0 0 30 30" fill="none" xmlns="http://www.w3.org/2000/svg">
<path d="M25.7812 8.4375H19.6875V2.34375C19.6875 2.21943 19.6381 2.1002 19.5502 2.01229C19.4623 1.92439 19.3431 1.875 19.2188 1.875H6.09375C5.96943 1.875 5.8502 1.92439 5.76229 2.01229C5.67439 2.1002 5.625 2.21943 5.625 2.34375V15.4688C5.625 15.5931 5.67439 15.7123 5.76229 15.8002C5.8502 15.8881 5.96943 15.9375 6.09375 15.9375H18.75V23.4375H6.09375C5.96943 23.4375 5.8502 23.4869 5.76229 23.5748C5.67439 23.6627 5.625 23.7819 5.625 23.9062V27.6562C5.625 27.7806 5.67439 27.8998 5.76229 27.9877C5.8502 28.0756 5.96943 28.125 6.09375 28.125H25.7812C25.9056 28.125 26.0248 28.0756 26.1127 27.9877C26.2006 27.8998 26.25 27.7806 26.25 27.6562V8.90625C26.25 8.78193 26.2006 8.6627 26.1127 8.57479C26.0248 8.48689 25.9056 8.4375 25.7812 8.4375Z" fill="white"/>
<path d="M19.2188 15H4.21875C3.95987 15 3.75 15.2099 3.75 15.4688V23.9062C3.75 24.1651 3.95987 24.375 4.21875 24.375H19.2188C19.4776 24.375 19.6875 24.1651 19.6875 23.9062V15.4688C19.6875 15.2099 19.4776 15 19.2188 15Z" fill="#66BB6A"/>
<path d="M26.1141 8.57323L19.5516 2.01073C19.486 1.94463 19.4022 1.89954 19.311 1.88123C19.2197 1.86291 19.125 1.8722 19.039 1.9079C18.953 1.94361 18.8796 2.00411 18.8281 2.0817C18.7767 2.15928 18.7495 2.25044 18.75 2.34355V8.90605C18.75 9.03037 18.7994 9.1496 18.8873 9.2375C18.9752 9.32541 19.0944 9.3748 19.2188 9.3748H25.7813C25.8744 9.37534 25.9655 9.34814 26.0431 9.29667C26.1207 9.2452 26.1812 9.17179 26.2169 9.0858C26.2526 8.99981 26.2619 8.90514 26.2436 8.81385C26.2253 8.72256 26.1802 8.6388 26.1141 8.57323Z" fill="#E0E0E0"/>
<path d="M7.16797 21.5626L8.43828 19.5892L7.25703 17.8126H8.16641L8.86953 18.9329L9.54922 17.8126H10.4305L9.31484 19.5658L10.6227 21.5626H9.68516L8.86016 20.1845L8.04453 21.5626H7.16797ZM11.0867 21.5626V17.8126H11.8789V20.8501H13.1258V21.5626H11.0867ZM13.4305 20.447H14.2133C14.246 20.6021 14.335 20.7397 14.4631 20.8332C14.5912 20.9266 14.7493 20.9694 14.907 20.9533C15.0537 20.9608 15.1987 20.9196 15.3195 20.8361C15.3689 20.8002 15.4088 20.7529 15.4358 20.6982C15.4627 20.6435 15.4759 20.583 15.4742 20.522C15.4786 20.4409 15.4556 20.3608 15.4088 20.2944C15.362 20.2281 15.2942 20.1795 15.2164 20.1564C15.182 20.1564 15.0258 20.1095 14.7477 20.0158C14.4535 19.9526 14.1717 19.8417 13.9133 19.6876C13.7886 19.5967 13.6882 19.4764 13.6212 19.3374C13.5541 19.1984 13.5224 19.045 13.5289 18.8908C13.5225 18.7344 13.5507 18.5785 13.6115 18.4343C13.6723 18.2901 13.7641 18.161 13.8805 18.0564C14.1413 17.8357 14.4768 17.7233 14.818 17.7423C15.1545 17.7295 15.4853 17.832 15.7555 18.0329C15.8736 18.1193 15.9699 18.2321 16.0367 18.3623C16.1034 18.4926 16.1388 18.6366 16.1398 18.7829H15.3523C15.3274 18.6659 15.2587 18.5628 15.1602 18.4949C15.0617 18.4269 14.9409 18.3991 14.8227 18.4173C14.6943 18.4112 14.5675 18.4474 14.4617 18.5204C14.4184 18.5522 14.3835 18.5939 14.3598 18.642C14.3361 18.6902 14.3245 18.7434 14.3258 18.797C14.3223 18.8567 14.3365 18.916 14.3665 18.9677C14.3965 19.0194 14.441 19.0611 14.4945 19.0876C14.6827 19.1663 14.8793 19.2229 15.0805 19.2564C15.3408 19.2999 15.5914 19.3888 15.8211 19.5189C15.9705 19.6143 16.0923 19.7472 16.1745 19.9042C16.2567 20.0612 16.2965 20.2371 16.2898 20.4142C16.2976 20.6119 16.2527 20.8082 16.1596 20.9828C16.0665 21.1574 15.9286 21.3042 15.7602 21.4079C15.4948 21.5625 15.1904 21.6374 14.8836 21.6236C14.651 21.6442 14.4169 21.6066 14.2025 21.5141C13.9881 21.4216 13.8001 21.2772 13.6555 21.0939C13.5265 20.901 13.449 20.6783 13.4305 20.447Z" fill="white"/>
</svg>
