<svg width="24" height="18" viewBox="0 0 24 18" fill="none" xmlns="http://www.w3.org/2000/svg">
<path opacity="0.4" d="M23.469 2.59598L23.499 2.79197C23.209 1.76299 22.426 0.968996 21.431 0.68L21.41 0.675C19.5391 0.167006 12.0101 0.167006 12.0101 0.167006C12.0101 0.167006 4.50024 0.157006 2.61026 0.675C1.59627 0.968996 0.812284 1.76299 0.527288 2.77097L0.522288 2.79197C-0.176704 6.44293 -0.181704 10.8299 0.553287 14.7388L0.522288 14.5408C0.812284 15.5698 1.59527 16.3638 2.59026 16.6528L2.61126 16.6578C4.48024 17.1668 12.0111 17.1668 12.0111 17.1668C12.0111 17.1668 19.5201 17.1668 21.411 16.6578C22.426 16.3638 23.21 15.5698 23.495 14.5618L23.5 14.5408C23.818 12.8429 24 10.8889 24 8.8929C24 8.8199 24 8.7459 23.999 8.6719C24 8.6039 24 8.5229 24 8.44191C24 6.44493 23.818 4.49095 23.469 2.59598ZM9.60818 12.3179V5.02495L15.8741 8.6769L9.60818 12.3179Z" fill="#0C424F"/>
</svg>
