<svg width="111" height="181" viewBox="0 0 111 181" fill="none" xmlns="http://www.w3.org/2000/svg">
<path d="M72 48.6395C77.8786 45.2455 85.1214 45.2455 91 48.6395L131.189 71.8425C137.067 75.2365 140.689 81.509 140.689 88.297V134.703C140.689 141.491 137.067 147.763 131.189 151.157L91 174.36C85.1214 177.754 77.8786 177.754 72 174.36L31.8112 151.157C25.9326 147.763 22.3112 141.491 22.3112 134.703V88.297C22.3112 81.509 25.9326 75.2365 31.8112 71.8425L72 48.6395Z" stroke="#5077FC" stroke-width="2"/>
<path d="M44.5 2.88675C46.3564 1.81496 48.6436 1.81495 50.5 2.88675L66.4497 12.0953C68.3061 13.1671 69.4497 15.1479 69.4497 17.2915V35.7085C69.4497 37.8521 68.3061 39.8329 66.4497 40.9047L50.5 50.1133C48.6436 51.185 46.3564 51.185 44.5 50.1133L28.5503 40.9047C26.6939 39.8329 25.5503 37.8521 25.5503 35.7085V17.2915C25.5503 15.1479 26.6939 13.1671 28.5503 12.0953L44.5 2.88675Z" stroke="#5077FC" stroke-width="2"/>
<path d="M14 44.0207C14.9282 43.4848 16.0718 43.4848 17 44.0207L26.4234 49.4613C27.3516 49.9972 27.9234 50.9876 27.9234 52.0594V62.9406C27.9234 64.0124 27.3516 65.0028 26.4234 65.5387L17 70.9793C16.0718 71.5152 14.9282 71.5152 14 70.9793L4.57661 65.5387C3.6484 65.0028 3.07661 64.0124 3.07661 62.9406V52.0594C3.07661 50.9876 3.6484 49.9972 4.57661 49.4613L14 44.0207Z" stroke="#5077FC" stroke-width="2"/>
<path d="M26.5 155.443C26.8094 155.265 27.1906 155.265 27.5 155.443L35.0263 159.789C35.3357 159.967 35.5263 160.297 35.5263 160.655V169.345C35.5263 169.703 35.3357 170.033 35.0263 170.211L27.5 174.557C27.1906 174.735 26.8094 174.735 26.5 174.557L18.9737 170.211C18.6643 170.033 18.4737 169.703 18.4737 169.345V160.655C18.4737 160.297 18.6643 159.967 18.9737 159.789L26.5 155.443Z" stroke="#5077FC" stroke-width="2"/>
</svg>
