<svg width="146" height="311" viewBox="0 0 146 311" fill="none" xmlns="http://www.w3.org/2000/svg">
<path d="M25 8.08291C32.4256 3.79572 41.5744 3.79572 49 8.0829L118.397 48.1491C125.822 52.4363 130.397 60.3594 130.397 68.9338V149.066C130.397 157.641 125.822 165.564 118.397 169.851L49 209.917C41.5744 214.204 32.4256 214.204 25 209.917L-44.3968 169.851C-51.8224 165.564 -56.3968 157.641 -56.3968 149.066V68.9338C-56.3968 60.3594 -51.8224 52.4363 -44.3968 48.1491L25 8.08291Z" stroke="#5077FC" stroke-width="2"/>
<path d="M77.5 207.196C81.8316 204.695 87.1684 204.695 91.5 207.196L123.698 225.786C128.03 228.287 130.698 232.909 130.698 237.91V275.09C130.698 280.091 128.03 284.713 123.698 287.214L91.5 305.804C87.1684 308.305 81.8316 308.305 77.5 305.804L45.3016 287.214C40.97 284.713 38.3016 280.091 38.3016 275.09V237.91C38.3016 232.909 40.97 228.287 45.3016 225.786L77.5 207.196Z" stroke="#5077FC" stroke-width="2"/>
</svg>
