<svg width="107" height="38" viewBox="0 0 107 38" fill="none" xmlns="http://www.w3.org/2000/svg">
<path d="M13.3166 0.765942H20.2569L32.659 31.9766H25.6777L22.8441 23.9275H10.3598L7.52623 31.9766H0.955566L13.3166 0.765942ZM21.0372 18.8353L16.602 6.30994L12.1668 18.8353H21.0372Z" fill="black"/>
<path d="M33.7005 11.0326H39.6962V31.9766H33.7005V11.0326ZM34.1111 5.94034C33.4541 5.28328 33.1255 4.46194 33.1255 3.47634C33.1255 2.51812 33.4541 1.71048 34.1111 1.05341C34.7956 0.396343 35.6443 0.0678101 36.6573 0.0678101C37.6702 0.0678101 38.5053 0.396343 39.1623 1.05341C39.8194 1.71048 40.1479 2.51812 40.1479 3.47634C40.1479 4.46194 39.8194 5.28328 39.1623 5.94034C38.5053 6.59741 37.6702 6.92594 36.6573 6.92594C35.6443 6.92594 34.7956 6.59741 34.1111 5.94034Z" fill="black"/>
<path d="M42.6966 11.0326H48.487L48.5281 15.0982C49.0209 13.7019 49.7601 12.6205 50.7457 11.8539C51.7313 11.06 52.8812 10.663 54.1953 10.663C54.6333 10.663 55.0714 10.7041 55.5094 10.7862C55.9748 10.8683 56.3444 10.9779 56.6182 11.1147L56.0844 16.7409C55.2356 16.4123 54.3459 16.2481 53.415 16.2481C51.9092 16.2481 50.7457 16.7956 49.9244 17.8907C49.103 18.9585 48.6924 20.5053 48.6924 22.5313V31.9766H42.6966V11.0326Z" fill="black"/>
<path d="M62.5132 15.9195H58.5297V11.0326H62.5132V5.40648H68.5089V11.0326H73.3548V15.9195H68.5089V31.9766H62.5132V15.9195Z" fill="#33AC3F"/>
<path d="M75.6943 11.0326H81.6901V31.9766H75.6943V11.0326ZM76.105 5.94034C75.4479 5.28328 75.1194 4.46194 75.1194 3.47634C75.1194 2.51812 75.4479 1.71048 76.105 1.05341C76.7894 0.396343 77.6382 0.0678101 78.6511 0.0678101C79.6641 0.0678101 80.4991 0.396343 81.1562 1.05341C81.8133 1.71048 82.1418 2.51812 82.1418 3.47634C82.1418 4.46194 81.8133 5.28328 81.1562 5.94034C80.4991 6.59741 79.6641 6.92594 78.6511 6.92594C77.6382 6.92594 76.7894 6.59741 76.105 5.94034Z" fill="#33AC3F"/>
<path d="M84.6905 11.0326H90.2756L90.3988 14.2358C91.8498 11.6623 94.1906 10.3755 97.4212 10.3755C99.2829 10.3755 100.926 10.8547 102.349 11.8129C103.8 12.7437 104.936 14.0442 105.758 15.7142C106.579 17.3843 106.99 19.3007 106.99 21.4635C106.99 23.5716 106.552 25.4744 105.676 27.1718C104.799 28.8419 103.622 30.1697 102.144 31.1553C100.665 32.1409 98.9954 32.6337 97.1337 32.6337C94.3138 32.6337 92.1646 31.5386 90.6862 29.3483V37.8433H84.6905V11.0326ZM95.6553 27.295C97.2158 27.295 98.4889 26.7611 99.4745 25.6934C100.487 24.5983 100.994 23.202 100.994 21.5046C100.994 19.8072 100.487 18.4246 99.4745 17.3569C98.4889 16.2618 97.2158 15.7142 95.6553 15.7142C94.0948 15.7142 92.808 16.2618 91.795 17.3569C90.8094 18.4246 90.3166 19.8072 90.3166 21.5046C90.3166 23.202 90.8094 24.5983 91.795 25.6934C92.808 26.7611 94.0948 27.295 95.6553 27.295Z" fill="#33AC3F"/>
</svg>
