<svg width="107" height="38" viewBox="0 0 107 38" fill="none" xmlns="http://www.w3.org/2000/svg">
<path d="M13.3166 0.766003H20.2569L32.659 31.9767H25.6777L22.8441 23.9276H10.3598L7.52623 31.9767H0.955566L13.3166 0.766003ZM21.0372 18.8353L16.602 6.31001L12.1668 18.8353H21.0372Z" fill="white"/>
<path d="M33.7005 11.0327H39.6962V31.9767H33.7005V11.0327ZM34.1111 5.94041C33.4541 5.28334 33.1255 4.462 33.1255 3.4764C33.1255 2.51818 33.4541 1.71054 34.1111 1.05347C34.7956 0.396404 35.6443 0.0678711 36.6573 0.0678711C37.6702 0.0678711 38.5053 0.396404 39.1623 1.05347C39.8194 1.71054 40.1479 2.51818 40.1479 3.4764C40.1479 4.462 39.8194 5.28334 39.1623 5.94041C38.5053 6.59747 37.6702 6.926 36.6573 6.926C35.6443 6.926 34.7956 6.59747 34.1111 5.94041Z" fill="white"/>
<path d="M42.6966 11.0327H48.487L48.5281 15.0983C49.0209 13.702 49.7601 12.6206 50.7457 11.854C51.7313 11.06 52.8812 10.6631 54.1953 10.6631C54.6333 10.6631 55.0714 10.7041 55.5094 10.7863C55.9748 10.8684 56.3444 10.9779 56.6182 11.1148L56.0844 16.7409C55.2356 16.4124 54.3459 16.2481 53.415 16.2481C51.9092 16.2481 50.7457 16.7957 49.9244 17.8908C49.103 18.9585 48.6924 20.5054 48.6924 22.5313V31.9767H42.6966V11.0327Z" fill="white"/>
<path d="M62.5132 15.9196H58.5298V11.0327H62.5132V5.40654H68.5089V11.0327H73.3548V15.9196H68.5089V31.9767H62.5132V15.9196Z" fill="#33AC3F"/>
<path d="M75.6943 11.0327H81.6901V31.9767H75.6943V11.0327ZM76.105 5.94041C75.4479 5.28334 75.1194 4.462 75.1194 3.4764C75.1194 2.51818 75.4479 1.71054 76.105 1.05347C76.7894 0.396404 77.6382 0.0678711 78.6511 0.0678711C79.6641 0.0678711 80.4991 0.396404 81.1562 1.05347C81.8133 1.71054 82.1418 2.51818 82.1418 3.4764C82.1418 4.462 81.8133 5.28334 81.1562 5.94041C80.4991 6.59747 79.6641 6.926 78.6511 6.926C77.6382 6.926 76.7894 6.59747 76.105 5.94041Z" fill="#33AC3F"/>
<path d="M84.6905 11.0327H90.2756L90.3988 14.2359C91.8498 11.6624 94.1906 10.3756 97.4212 10.3756C99.2829 10.3756 100.926 10.8547 102.349 11.8129C103.8 12.7438 104.936 14.0442 105.758 15.7143C106.579 17.3843 106.99 19.3008 106.99 21.4636C106.99 23.5717 106.552 25.4744 105.676 27.1719C104.799 28.8419 103.622 30.1697 102.144 31.1553C100.665 32.1409 98.9954 32.6337 97.1337 32.6337C94.3138 32.6337 92.1646 31.5386 90.6862 29.3484V37.8433H84.6905V11.0327ZM95.6553 27.2951C97.2158 27.2951 98.4889 26.7612 99.4745 25.6935C100.487 24.5984 100.994 23.2021 100.994 21.5047C100.994 19.8072 100.487 18.4247 99.4745 17.3569C98.4889 16.2618 97.2158 15.7143 95.6553 15.7143C94.0948 15.7143 92.808 16.2618 91.795 17.3569C90.8094 18.4247 90.3166 19.8072 90.3166 21.5047C90.3166 23.2021 90.8094 24.5984 91.795 25.6935C92.808 26.7612 94.0948 27.2951 95.6553 27.2951Z" fill="#33AC3F"/>
</svg>
