<svg width="130" height="44" viewBox="0 0 130 44" fill="none" xmlns="http://www.w3.org/2000/svg">
<g clip-path="url(#clip0_868_196)">
<path fill-rule="evenodd" clip-rule="evenodd" d="M22.2139 0.334217C21.9444 0.635899 21.9444 0.716905 22.2139 0.886135C22.6076 1.13321 22.6804 1.13299 23.079 0.882751C23.3522 0.711489 23.346 0.627099 23.0385 0.322258C22.603 -0.109392 22.6103 -0.109392 22.2139 0.334217ZM22.2317 1.93762C22.274 2.15469 22.4594 2.3325 22.6438 2.3325C22.8281 2.3325 23.0134 2.15469 23.0558 1.93762C23.1095 1.66054 22.9865 1.54275 22.6438 1.54275C22.3009 1.54275 22.178 1.66054 22.2317 1.93762ZM22.0429 3.0101C21.8936 3.39572 22.4236 6.28121 22.6438 6.28121C22.8638 6.28121 23.3939 3.39572 23.2445 3.0101C23.1723 2.82349 22.9021 2.67096 22.6438 2.67096C22.3854 2.67096 22.1151 2.82349 22.0429 3.0101ZM20.419 3.17414C19.6702 3.53178 19.5634 4.32039 20.0809 5.66973C20.5141 6.79974 20.5615 6.84238 21.303 6.76747C21.7274 6.7246 22.0999 6.66571 22.1306 6.6366C22.3029 6.47414 21.3986 2.89908 21.1885 2.91194C21.0496 2.92029 20.7036 3.0383 20.419 3.17414ZM23.4738 4.74009C23.2686 5.75412 23.1259 6.60749 23.1568 6.6366C23.1876 6.66571 23.5601 6.7246 23.9844 6.76747C24.726 6.84238 24.7733 6.79974 25.2066 5.66973C25.4618 5.00454 25.5986 4.2624 25.5221 3.95982C25.4035 3.49207 24.5686 2.8966 24.0313 2.8966C23.9298 2.8966 23.6789 3.72628 23.4738 4.74009ZM9.38536 3.91808C8.9175 4.34905 8.33443 4.70173 8.08969 4.70173C7.84471 4.70173 7.59109 4.78724 7.52575 4.89194C7.31902 5.22341 9.87759 4.71143 10.7541 4.24593C11.2165 4.00021 11.7502 3.79555 11.9398 3.79127C12.455 3.77931 11.2334 3.13849 10.6911 3.13623C10.4406 3.13533 9.853 3.4871 9.38536 3.91808ZM33.5719 3.4607C33.2256 3.65701 33.1377 3.7863 33.3476 3.79127C33.5373 3.79555 34.0709 4.00021 34.5333 4.24593C35.4099 4.71143 37.9684 5.22341 37.7617 4.89194C37.6964 4.78724 37.4445 4.70173 37.2019 4.70173C36.9592 4.70173 36.3636 4.34634 35.8786 3.91198C34.922 3.05545 34.45 2.96316 33.5719 3.4607ZM11.5983 4.46548C11.676 4.70804 11.5817 5.43303 11.3889 6.07656C10.8673 7.81715 11.3456 8.56831 13.3093 9.0918C13.8035 9.22357 13.7808 9.17912 13.1369 8.75469C12.1384 8.09627 12.0131 7.4286 12.6024 5.90281C13.1449 4.49775 12.9967 4.0248 12.0138 4.0248C11.5653 4.0248 11.4847 4.11032 11.5983 4.46548ZM15.7096 4.23488C15.5411 4.50497 15.9694 4.77235 16.2726 4.58665C16.5274 4.43073 16.3601 4.0248 16.0413 4.0248C15.9309 4.0248 15.7815 4.11935 15.7096 4.23488ZM28.9818 4.13627C28.7855 4.331 29.0601 5.60429 29.2985 5.60429C29.4242 5.60429 29.4733 5.40121 29.408 5.15323C29.3424 4.90525 29.3834 4.64419 29.4988 4.57356C29.6145 4.50271 29.65 4.3504 29.5778 4.23488C29.4351 4.00585 29.1594 3.96027 28.9818 4.13627ZM32.4579 4.33416C32.2605 4.56995 32.3144 4.94316 32.6851 5.90281C33.2743 7.4286 33.1491 8.09627 32.1505 8.75469C31.5067 9.17912 31.4839 9.22357 31.9782 9.0918C33.9418 8.56831 34.4202 7.81715 33.8986 6.07656C33.7057 5.43303 33.6115 4.70804 33.6891 4.46548C33.8027 4.11032 33.7221 4.0248 33.2736 4.0248C32.9674 4.0248 32.6004 4.16402 32.4579 4.33416ZM3.06158 5.6607C2.4899 6.59012 2.49013 7.91846 3.06226 9.16784C3.50235 10.1288 5.75902 12.6684 6.54175 13.0836C6.90125 13.2743 6.93084 13.2253 6.79356 12.6673C6.70818 12.3196 6.50214 11.9552 6.33617 11.8575C5.84326 11.5678 4.73792 9.83145 4.58174 9.10173C4.45538 8.51235 4.47314 8.47851 4.71788 8.83998C4.8727 9.06811 5.37449 9.75992 5.83324 10.3773C6.57841 11.3802 6.68291 11.4495 6.81769 11.0287C6.92447 10.6957 6.70591 10.1455 6.07116 9.14956C5.57757 8.37516 4.8513 7.10819 4.4572 6.33447C4.0631 5.56052 3.68927 4.92737 3.62666 4.92737C3.56405 4.92737 3.30974 5.25725 3.06158 5.6607ZM15.8136 5.26583C15.8136 5.45198 15.9161 5.60429 16.0413 5.60429C16.1665 5.60429 16.269 5.45198 16.269 5.26583C16.269 5.07968 16.1665 4.92737 16.0413 4.92737C15.9161 4.92737 15.8136 5.07968 15.8136 5.26583ZM40.8302 6.33447C40.4361 7.10819 39.7099 8.37516 39.2163 9.14956C38.5815 10.1455 38.363 10.6957 38.4698 11.0287C38.6045 11.4495 38.709 11.3802 39.4542 10.3773C39.913 9.75992 40.4147 9.06811 40.5696 8.83998C40.8143 8.47851 40.8321 8.51235 40.7057 9.10173C40.5495 9.83145 39.4442 11.5678 38.9513 11.8575C38.7853 11.9552 38.5793 12.3196 38.4939 12.6673C38.3566 13.2253 38.3862 13.2743 38.7457 13.0836C39.5284 12.6684 41.7851 10.1288 42.2252 9.16784C42.7973 7.91846 42.7975 6.59012 42.2259 5.6607C41.9777 5.25725 41.7234 4.92737 41.6608 4.92737C41.5982 4.92737 41.2243 5.56052 40.8302 6.33447ZM7.44675 5.30238C7.10706 5.43844 7.06745 6.1966 7.38983 6.39403C7.51505 6.47075 7.6175 6.82614 7.6175 7.18378C7.6175 7.54142 7.51505 7.8968 7.38983 7.97352C7.26461 8.05024 7.16216 8.22421 7.16216 8.36027C7.16216 8.49633 7.34953 8.43947 7.57857 8.23414C8.13545 7.73457 8.25566 7.76322 8.14182 8.36839C8.08923 8.64751 8.20261 9.07916 8.39386 9.32737C8.7324 9.76692 8.74151 9.76285 8.74857 9.1728C8.75266 8.83953 8.85193 8.31672 8.96918 8.01075C9.12149 7.61408 9.07254 7.12534 8.79843 6.30603C8.42823 5.19881 8.17529 5.01108 7.44675 5.30238ZM36.489 6.30603C36.2149 7.12534 36.166 7.61408 36.3183 8.01075C36.4355 8.31672 36.5348 8.83953 36.5389 9.1728C36.5459 9.76285 36.555 9.76692 36.8936 9.32737C37.0848 9.07916 37.1982 8.64751 37.1456 8.36839C37.0318 7.76322 37.152 7.73457 37.7089 8.23414C37.9379 8.43947 38.1253 8.49633 38.1253 8.36027C38.1253 8.22421 38.0228 8.05024 37.8976 7.97352C37.7724 7.8968 37.6699 7.54142 37.6699 7.18378C37.6699 6.82614 37.7724 6.47075 37.8976 6.39403C38.3184 6.13635 38.1364 5.43416 37.613 5.29516C37.3312 5.22048 37.0495 5.15888 36.9869 5.1582C36.9243 5.15775 36.7003 5.67424 36.489 6.30603ZM15.6791 6.76747C15.886 8.05092 16.116 8.33319 16.294 7.52224C16.588 6.18464 16.5288 5.82993 16.0122 5.82993C15.5716 5.82993 15.5414 5.91455 15.6791 6.76747ZM16.8782 5.99849C16.8225 6.0919 16.7027 6.61245 16.6121 7.15535C16.4534 8.10462 16.6462 8.52273 17.2482 8.53424C17.5166 8.5392 18.1379 6.95498 18.0036 6.60817C17.8574 6.23067 17.0128 5.77307 16.8782 5.99849ZM27.6577 6.23157C27.1764 6.61787 27.1568 6.71738 27.4102 7.47846C27.7271 8.43022 27.9161 8.59652 28.4497 8.39344C28.7651 8.2734 28.8056 8.06423 28.6792 7.20815C28.4837 5.88409 28.3043 5.7126 27.6577 6.23157ZM28.8177 6.33762C28.8682 7.28712 29.1407 8.20097 29.2996 7.95209C29.3861 7.81602 29.5253 7.28306 29.6084 6.76747C29.7461 5.91455 29.7158 5.82993 29.2753 5.82993C28.9167 5.82993 28.7978 5.96193 28.8177 6.33762ZM14.2227 6.50166C13.8848 7.12759 14.5173 8.64593 15.0341 8.4494C15.2329 8.37381 15.4719 8.31198 15.5653 8.31198C15.6584 8.31198 15.6299 7.80429 15.5015 7.18378C15.2481 5.95719 14.6803 5.65438 14.2227 6.50166ZM29.7859 7.18378C29.6575 7.80429 29.6291 8.31198 29.7222 8.31198C29.8155 8.31198 30.0546 8.37381 30.2533 8.4494C30.7702 8.64593 31.4026 7.12759 31.0648 6.50166C30.6071 5.65438 30.0393 5.95719 29.7859 7.18378ZM21.5054 7.0933C21.3176 7.16279 21.0132 7.26772 20.8288 7.32661C20.1205 7.55293 21.1562 7.85371 22.6438 7.85371C24.154 7.85371 24.9764 7.60979 24.4835 7.30788C24.1351 7.09465 21.9314 6.9358 21.5054 7.0933ZM19.1149 8.55658C18.0674 9.15227 18.0277 9.20439 18.6174 9.20936C19.532 9.2168 21.6195 8.29709 21.2356 8.05565C20.7653 7.76006 20.3377 7.86115 19.1149 8.55658ZM24.0518 8.05565C23.6686 8.29664 25.7539 9.21635 26.67 9.21048C27.2431 9.20687 27.1805 9.13512 26.0792 8.53356C24.7672 7.8167 24.5236 7.75939 24.0518 8.05565ZM14.7891 8.98891C14.8665 9.11301 15.43 9.21455 16.0413 9.21455C16.6526 9.21455 17.2161 9.11301 17.2935 8.98891C17.3814 8.84788 16.9119 8.76326 16.0413 8.76326C15.1707 8.76326 14.7012 8.84788 14.7891 8.98891ZM27.9939 8.98891C28.0713 9.11301 28.6348 9.21455 29.2461 9.21455C29.8574 9.21455 30.4209 9.11301 30.4983 8.98891C30.5862 8.84788 30.1167 8.76326 29.2461 8.76326C28.3755 8.76326 27.9061 8.84788 27.9939 8.98891ZM19.3425 9.47471C18.7164 9.58866 17.3588 9.62228 16.3259 9.54917C14.9553 9.4526 14.4476 9.48893 14.4476 9.68388C14.4476 10.1521 15.3679 11.447 16.0356 11.9182C16.7972 12.4557 17.1228 12.5109 16.7243 12.0351C16.3947 11.6413 16.5725 11.6002 17.1895 11.9274C17.5408 12.1138 17.599 12.0919 17.4918 11.8146C17.345 11.4358 17.752 11.3367 17.9765 11.6966C18.2158 12.0802 18.54 11.945 18.382 11.5274C18.2513 11.1817 18.2805 11.1711 18.617 11.4421C18.887 11.66 19.001 11.6729 19.001 11.4858C19.001 11.3069 19.167 11.3349 19.5071 11.5709C19.7854 11.7641 20.4256 11.9141 20.9301 11.9044C21.4344 11.8947 21.6932 11.8306 21.5054 11.7623C19.6606 11.0908 19.5955 11.0393 20.0133 10.5819C20.3937 10.1652 20.3885 10.1532 19.8757 10.2692C19.3817 10.3813 19.3929 10.3475 20.0256 9.81046C20.4012 9.49163 20.6573 9.23914 20.5947 9.2493C20.5321 9.25922 19.9686 9.36076 19.3425 9.47471ZM25.268 9.82852C25.8953 10.3491 25.9057 10.3813 25.4117 10.2692C24.899 10.1532 24.8937 10.1652 25.2742 10.5819C25.692 11.0393 25.6268 11.0908 23.782 11.7623C23.5942 11.8306 23.8531 11.8947 24.3574 11.9044C24.8619 11.9141 25.5021 11.7641 25.7803 11.5709C26.1204 11.3349 26.2864 11.3069 26.2864 11.4858C26.2864 11.6729 26.4005 11.66 26.6705 11.4421C27.007 11.1711 27.0361 11.1817 26.9054 11.5274C26.7474 11.945 27.0716 12.0802 27.3109 11.6966C27.5354 11.3367 27.9425 11.4358 27.7956 11.8146C27.6884 12.0919 27.7467 12.1138 28.098 11.9274C28.715 11.6002 28.8928 11.6413 28.5631 12.0351C28.1647 12.5109 28.4903 12.4557 29.2518 11.9182C29.9219 11.4452 30.8398 10.1516 30.8398 9.68004C30.8398 9.4799 30.3786 9.44741 29.0754 9.55572C28.105 9.63627 26.6989 9.60423 25.951 9.48464L24.5912 9.26712L25.268 9.82852ZM13.9996 10.1343C13.9955 10.3297 14.2623 10.7358 14.5924 11.0368C15.096 11.4958 15.1536 11.5113 14.9505 11.1325C14.8176 10.8843 14.5508 10.4781 14.3577 10.2299C14.0772 9.86936 14.0053 9.85018 13.9996 10.1343ZM30.9548 10.1282C30.8471 10.3082 30.6058 10.7094 30.4186 11.0197L30.0785 11.5838L30.7139 10.9876C31.0636 10.6598 31.3047 10.2586 31.2501 10.0961C31.172 9.86349 31.1094 9.87026 30.9548 10.1282ZM0.559701 10.3518C0.559701 10.9071 1.52275 12.3834 2.29843 13.0173C3.07205 13.6491 5.56049 15.0812 5.88492 15.0812C6.30794 15.0812 5.9193 14.377 5.28 13.9855C4.38389 13.4365 3.33888 12.3735 3.69541 12.3735C3.83566 12.3735 4.6275 12.8812 5.45463 13.5017C6.28175 14.1222 7.13256 14.625 7.34498 14.6191C7.97244 14.6015 4.4745 11.538 2.97074 10.7882C1.61245 10.1106 0.559701 9.92013 0.559701 10.3518ZM16.4967 10.3186C16.4967 10.4294 16.3346 10.5817 16.1365 10.6571C15.6276 10.8507 15.586 10.8353 15.586 10.4556C15.586 10.2676 15.7884 10.1171 16.0413 10.1171C16.2918 10.1171 16.4967 10.2078 16.4967 10.3186ZM29.7015 10.4556C29.7015 10.8353 29.6598 10.8507 29.151 10.6571C28.6421 10.4637 28.7034 10.1171 29.2461 10.1171C29.4991 10.1171 29.7015 10.2676 29.7015 10.4556ZM42.3167 10.7882C40.8129 11.538 37.315 14.6015 37.9425 14.6191C38.1549 14.625 39.0057 14.1222 39.8328 13.5017C40.6599 12.8812 41.4518 12.3735 41.592 12.3735C41.9486 12.3735 40.9036 13.4365 40.0074 13.9855C39.3681 14.377 38.9795 15.0812 39.4025 15.0812C39.7269 15.0812 42.2154 13.6491 42.989 13.0173C43.7647 12.3834 44.7277 10.9071 44.7277 10.3518C44.7277 9.92013 43.675 10.1106 42.3167 10.7882ZM12.2838 10.7949C11.9362 11.1756 11.9136 11.3401 12.1413 11.8349C12.359 12.3085 12.5097 12.3904 12.9172 12.256C13.5809 12.0373 14.377 12.0373 15.3583 12.2562L16.1552 12.4338L15.2445 11.7643C14.7436 11.396 14.1931 10.9256 14.0214 10.7189C13.598 10.2094 12.7861 10.2448 12.2838 10.7949ZM31.266 10.7189C31.0944 10.9256 30.5438 11.396 30.043 11.7643L29.1323 12.4338L29.9291 12.2562C30.9104 12.0373 31.7066 12.0373 32.3702 12.256C32.7778 12.3904 32.9285 12.3085 33.1461 11.8349C33.3738 11.3401 33.3513 11.1756 33.0036 10.7949C32.5014 10.2448 31.6895 10.2094 31.266 10.7189ZM7.16739 11.1325C6.83295 11.9836 7.01599 12.9221 7.72291 13.981C8.3654 14.9429 9.66562 15.9529 9.66813 15.4914C9.66881 15.3278 9.84822 15.4585 10.0666 15.7816C10.2847 16.1047 10.7707 16.6345 11.1464 16.959C12.2422 17.9056 11.6457 17.6519 10.4313 16.6551C9.10351 15.5652 7.6965 14.8556 6.86254 14.8556C6.13377 14.8556 6.11601 14.9711 6.69953 15.9195C7.20974 16.7489 9.28223 17.8988 9.86028 17.6732C10.1549 17.5581 10.0604 17.4365 9.4227 17.1088C8.46762 16.6185 7.72268 15.873 8.43916 16.1248C8.67594 16.2081 9.19571 16.5149 9.59436 16.8069C9.99302 17.0989 10.454 17.3408 10.6189 17.3444C10.8063 17.3487 10.7691 17.4376 10.5203 17.5813C10.3011 17.7079 10.1219 17.9509 10.1219 18.1213C10.1219 18.379 10.0085 18.3751 9.44888 18.0985C8.65568 17.7063 6.22165 17.7575 6.08459 18.1693C5.96256 18.5365 6.92925 19.1263 8.23722 19.4828L9.32503 19.7793L8.41435 19.8003C7.91256 19.812 7.14577 20.0401 6.70682 20.3084L5.90997 20.7956L6.88668 21.2227C7.61818 21.5424 8.12065 21.6115 8.88859 21.4973C10.0415 21.3261 10.1531 20.8351 9.03907 20.8351C8.65454 20.8351 8.26272 20.7588 8.16846 20.6658C8.07421 20.5729 8.33102 20.4966 8.73923 20.4966C9.27813 20.4966 9.51263 20.3786 9.59505 20.0661C9.65743 19.8294 9.92972 19.5645 10.1997 19.4771C10.6048 19.3465 10.511 19.2799 9.66654 19.0987C7.97449 18.7355 7.55922 18.439 8.94641 18.5847C10.1257 18.7084 11.0326 19.0728 11.0326 19.4228C11.0326 19.5169 10.8948 19.594 10.7263 19.594C10.5579 19.594 10.2259 19.8068 9.98846 20.0667C9.56363 20.532 9.56454 20.546 10.0349 20.9235C10.5078 21.303 10.5016 21.3118 9.46914 21.7351C8.47832 22.1413 7.38983 23.0456 7.38983 23.4628C7.38983 23.7469 9.09759 23.6973 9.76967 23.3936C10.0886 23.2496 10.3495 22.9958 10.3495 22.8295C10.3495 22.4685 10.3168 22.4651 9.5675 22.7473C9.24625 22.8685 8.98352 22.8793 8.98352 22.7719C8.98352 22.6643 9.39333 22.4139 9.89421 22.2153C10.3951 22.0165 10.8049 21.7518 10.8049 21.6266C10.8049 21.5016 10.9233 21.3992 11.0678 21.3992C11.2204 21.3992 11.1642 21.5817 10.934 21.8337C10.2883 22.5409 10.5611 23.0957 11.5403 23.0668C12.313 23.0438 12.3797 23.0937 12.4434 23.7417C12.53 24.6204 13.1009 24.7646 13.7901 24.0815C14.2316 23.644 14.2744 23.6348 14.1134 24.0111C13.8013 24.7413 13.7059 25.6491 13.8721 26.3039L14.0303 26.9273L14.5806 26.2942C15.239 25.5362 15.2884 25.1549 14.7037 25.3388C14.3588 25.4473 14.2769 25.3571 14.2769 24.8683C14.2769 24.3798 14.3172 24.3352 14.4875 24.6366C14.7834 25.1608 15.2531 25.1001 15.7506 24.4735C16.1702 23.945 16.1829 23.9434 16.7029 24.3607C16.993 24.5933 17.3213 24.7837 17.4326 24.7837C17.5439 24.7837 17.635 23.9207 17.635 22.8658C17.635 21.811 17.5795 20.9479 17.5116 20.9479C17.4438 20.9479 17.1806 21.1397 16.9267 21.3741C15.7932 22.4209 13.6316 22.0386 13.0688 20.692C12.8407 20.1457 12.8769 19.837 13.3027 18.7091C13.58 17.9744 13.7443 17.1788 13.6683 16.9412C13.5923 16.7036 12.8655 15.9274 12.0537 15.2164C11.2416 14.5056 10.5772 13.7696 10.5772 13.5812C10.5772 12.9927 10.0201 13.3869 9.76307 14.1572L9.51787 14.8917L8.79547 14.076C7.87317 13.0349 7.85177 12.5303 8.76655 13.3991C9.33277 13.9368 9.4976 13.9981 9.66289 13.7332C9.80746 13.5015 9.62487 13.1468 9.0261 12.496C8.56438 11.9942 8.01729 11.3299 7.81011 11.0197L7.43354 10.4556L7.16739 11.1325ZM37.4282 11.0458C37.2824 11.3155 36.7716 11.9574 36.2928 12.4724C35.6699 13.1418 35.4798 13.5008 35.6246 13.7332C35.7898 13.9981 35.9547 13.9368 36.5209 13.3991C37.4357 12.5303 37.4143 13.0349 36.492 14.076L35.7696 14.8917L35.5244 14.1572C35.2673 13.3869 34.7102 12.9927 34.7102 13.5812C34.7102 13.7696 34.0459 14.5056 33.2338 15.2164C32.4219 15.9274 31.6952 16.7036 31.6191 16.9412C31.5431 17.1788 31.7075 17.9744 31.9848 18.7091C32.4105 19.837 32.4467 20.1457 32.2186 20.692C31.6558 22.0386 29.4943 22.4209 28.3607 21.3741C28.1069 21.1397 27.8437 20.9479 27.7758 20.9479C27.708 20.9479 27.6524 21.811 27.6524 22.8658C27.6524 23.9207 27.741 24.7837 27.8494 24.7837C27.9577 24.7837 28.3054 24.5818 28.6219 24.3352L29.1972 23.8866L29.5685 24.448C29.9968 25.096 30.4974 25.1725 30.8 24.6366C30.9703 24.3352 31.0106 24.3798 31.0106 24.8683C31.0106 25.3571 30.9286 25.4473 30.5837 25.3388C29.999 25.1549 30.0484 25.5362 30.7069 26.2942L31.2571 26.9273L31.4154 26.3039C31.5816 25.6491 31.4862 24.7413 31.174 24.0111C31.0131 23.6348 31.0559 23.644 31.4973 24.0815C32.1865 24.7646 32.7575 24.6204 32.844 23.7417C32.9078 23.0937 32.9745 23.0438 33.7472 23.0668C34.7264 23.0957 34.9991 22.5409 34.3535 21.8337C34.1233 21.5817 34.0671 21.3992 34.2196 21.3992C34.3642 21.3992 34.4826 21.5016 34.4826 21.6266C34.4826 21.7518 34.8924 22.0165 35.3932 22.2153C35.8941 22.4139 36.3039 22.6643 36.3039 22.7719C36.3039 22.8793 36.0412 22.8685 35.7199 22.7473C34.9707 22.4651 34.9379 22.4685 34.9379 22.8295C34.9379 22.9958 35.1988 23.2496 35.5178 23.3936C36.1899 23.6973 37.8976 23.7469 37.8976 23.4628C37.8976 23.0456 36.8091 22.1413 35.8183 21.7351C34.7858 21.3118 34.7797 21.303 35.2525 20.9235C35.7229 20.546 35.7238 20.532 35.299 20.0667C35.0615 19.8068 34.7296 19.594 34.5611 19.594C34.3926 19.594 34.2549 19.5169 34.2549 19.4228C34.2549 19.0728 35.1617 18.7084 36.341 18.5847C37.7282 18.439 37.313 18.7355 35.6209 19.0987C34.7765 19.2799 34.6827 19.3465 35.0877 19.4771C35.3577 19.5645 35.63 19.8294 35.6924 20.0661C35.7748 20.3786 36.0093 20.4966 36.5482 20.4966C37.4915 20.4966 37.2208 20.8037 36.2616 20.8217C35.1394 20.8427 35.2373 21.3247 36.3989 21.4973C37.1668 21.6115 37.6693 21.5424 38.4008 21.2227L39.3775 20.7956L38.5806 20.3084C38.0971 20.0128 37.381 19.8136 36.7593 19.8014L35.7347 19.7813L36.915 19.4977C38.2758 19.1707 39.3319 18.5574 39.2029 18.1693C39.0658 17.7575 36.6318 17.7063 35.8386 18.0985C35.2789 18.3751 35.1656 18.379 35.1656 18.1213C35.1656 17.9509 34.9864 17.7079 34.7671 17.5813C34.5183 17.4376 34.4812 17.3487 34.6686 17.3444C34.8334 17.3408 35.2944 17.0989 35.6931 16.8069C36.0917 16.5149 36.6115 16.2081 36.8483 16.1248C37.5648 15.873 36.8198 16.6185 35.8647 17.1088C35.227 17.4365 35.1326 17.5581 35.4272 17.6732C36.0052 17.8988 38.0777 16.7489 38.5879 15.9195C39.1714 14.9711 39.1537 14.8556 38.4249 14.8556C37.5909 14.8556 36.1839 15.5652 34.8562 16.6551C33.4328 17.8237 33.2083 17.8223 34.4368 16.6524C34.9627 16.1512 35.3948 15.6182 35.3967 15.4677C35.3994 15.2563 35.4408 15.2572 35.5781 15.4716C35.8531 15.9007 37.3114 14.5891 37.901 13.3817C38.2642 12.6386 38.3607 12.1468 38.2542 11.5842C38.0697 10.6101 37.7692 10.4143 37.4282 11.0458ZM18.7734 12.0906C18.7734 12.1996 19.0885 12.5195 19.4735 12.8016L20.1733 13.3144L20.0995 12.6748C20.0408 12.1668 19.8965 12.0204 19.3995 11.9638C19.055 11.9245 18.7734 11.9814 18.7734 12.0906ZM25.2999 12.0727C25.2164 12.1553 25.1481 12.4631 25.1481 12.7564V13.2896L25.8311 12.7892C26.2067 12.5139 26.5141 12.2063 26.5141 12.1055C26.5141 11.8857 25.5157 11.8588 25.2999 12.0727ZM17.8627 12.3665C17.8627 12.4866 17.6835 12.5218 17.4643 12.4444C17.2036 12.3525 17.3022 12.5563 17.7488 13.0333C18.3925 13.7206 18.4362 13.7346 18.5068 13.2774C18.548 13.0105 18.5257 12.647 18.4569 12.4699C18.3169 12.1082 17.8627 12.029 17.8627 12.3665ZM26.8305 12.4699C26.7618 12.647 26.7395 13.0105 26.7807 13.2774C26.8513 13.7346 26.895 13.7206 27.5386 13.0333C27.9853 12.5563 28.0839 12.3525 27.8232 12.4444C27.6039 12.5218 27.4248 12.4866 27.4248 12.3665C27.4248 12.029 26.9706 12.1082 26.8305 12.4699ZM20.304 13.1229C20.1792 13.9359 20.4921 14.7015 20.8948 14.5686C21.464 14.3806 21.336 12.7562 20.7341 12.5272C20.5116 12.4426 20.3805 12.6244 20.304 13.1229ZM24.3908 12.705C23.9414 13.1502 23.9428 14.4237 24.3926 14.5699C24.8213 14.7091 25.1251 13.8941 24.9536 13.0644C24.8029 12.3338 24.7801 12.3191 24.3908 12.705ZM13.7646 12.855C13.4516 12.98 12.8608 13.0446 12.4516 12.9985C11.5817 12.9004 11.5756 13.2869 12.4421 13.5906C13.2064 13.8582 14.1491 13.6033 14.449 13.0477C14.7172 12.5513 14.6047 12.5195 13.7646 12.855ZM14.8244 13.0119C14.1847 13.7125 14.3864 13.9835 15.1876 13.4992C15.5944 13.2533 16.2153 13.0518 16.567 13.0513C16.9352 13.0509 17.1469 12.9548 17.0658 12.8248C16.8206 12.4315 15.2333 12.564 14.8244 13.0119ZM28.2216 12.8248C28.1406 12.9548 28.3523 13.0509 28.7204 13.0513C29.0722 13.0518 29.693 13.2533 30.0999 13.4992C30.9325 14.0024 31.1595 13.6328 30.4234 12.9726C29.969 12.5649 28.4475 12.4629 28.2216 12.8248ZM30.8268 13.0265C31.1372 13.601 32.0706 13.8618 32.8454 13.5906C33.7745 13.265 33.6538 12.9376 32.6043 12.9365C32.072 12.9356 31.3974 12.8498 31.1048 12.7458C30.6181 12.5725 30.5946 12.5962 30.8268 13.0265ZM18.7734 13.4668C18.7734 14.1098 19.4732 14.9892 19.7594 14.7057C20.0549 14.4129 19.9067 13.5672 19.4953 13.1982C18.9134 12.6763 18.7734 12.7285 18.7734 13.4668ZM25.7525 13.2375C25.3696 13.6567 25.2512 14.4314 25.528 14.7057C25.8142 14.9892 26.5141 14.1098 26.5141 13.4668C26.5141 12.7239 26.2846 12.6549 25.7525 13.2375ZM17.4089 13.5502C17.4114 14.0476 18.2502 15.1469 18.4198 14.875C18.6529 14.5011 18.3449 13.7574 17.8472 13.4936C17.5184 13.3192 17.4078 13.3334 17.4089 13.5502ZM27.216 13.7086C26.7229 14.1974 26.6004 14.7423 26.9371 14.9485C27.172 15.0925 28.0349 13.5798 27.8321 13.379C27.7542 13.3018 27.4769 13.4501 27.216 13.7086ZM0.0135201 14.3675C-0.0677584 14.4977 0.225937 14.9609 0.665796 15.3971C1.65115 16.3737 3.8286 17.0978 6.25147 17.2548C8.23016 17.3832 8.07125 17.1316 5.80615 16.5504C4.20858 16.1401 2.8034 15.509 3.19568 15.3775C3.33046 15.3321 4.09452 15.4968 4.89342 15.7432C5.69209 15.9896 6.38056 16.1566 6.42337 16.1144C6.62144 15.9179 5.67433 15.2924 4.48725 14.8357C3.03972 14.2788 0.250752 13.9869 0.0135201 14.3675ZM21.3203 14.74C20.9176 15.6164 21.5173 16.8933 22.1049 16.4102C22.4983 16.0867 22.4951 15.0905 22.0992 14.5735C21.7033 14.0566 21.6272 14.0728 21.3203 14.74ZM23.1539 14.6268C22.7805 15.2191 22.7946 16.0912 23.1826 16.4102C23.7702 16.8933 24.3699 15.6164 23.9671 14.74C23.655 14.0615 23.5218 14.043 23.1539 14.6268ZM41.1988 14.7227C39.1528 15.5025 39.082 15.5397 38.9372 15.9136C38.8422 16.1586 38.906 16.2205 39.1557 16.1255C40.1317 15.7543 42.0437 15.2793 42.1475 15.3822C42.3449 15.5778 41.0361 16.1512 39.4813 16.5504C37.2162 17.1316 37.0573 17.3832 39.036 17.2548C41.4588 17.0978 43.6363 16.3737 44.6216 15.3971C45.0615 14.9609 45.3618 14.5085 45.2889 14.3914C45.039 13.9907 42.6017 14.1881 41.1988 14.7227ZM18.6409 14.9354C18.4756 15.3621 18.8383 16.5479 19.1338 16.5479C19.5051 16.5479 19.5012 15.1735 19.1292 14.8673C18.8403 14.6297 18.7545 14.6417 18.6409 14.9354ZM19.9543 15.5478C20.0365 16.6618 20.505 16.9804 20.7336 16.0776C20.8957 15.438 20.6521 14.8368 20.1658 14.6762C19.9634 14.6094 19.9033 14.8565 19.9543 15.5478ZM24.7382 14.9007C24.2214 15.4129 24.5661 16.9044 25.1226 16.5634C25.4094 16.3879 25.4739 14.6299 25.1936 14.6299C25.0934 14.6299 24.8885 14.7518 24.7382 14.9007ZM26.0781 14.9452C25.7564 15.3294 25.8313 16.5675 26.1726 16.5084C26.5218 16.4479 26.8542 15.1024 26.5858 14.8364C26.4342 14.6861 26.2648 14.7224 26.0781 14.9452ZM20.8404 16.6273C20.2696 17.6842 20.7826 19.3485 21.4219 18.5143C21.8094 18.0091 21.8 17.1057 21.4025 16.5856C21.0979 16.1873 21.0772 16.1889 20.8404 16.6273ZM22.1884 16.8863C21.963 17.4258 21.963 17.7007 22.1884 18.2402C22.3439 18.6125 22.5488 18.9171 22.6438 18.9171C22.7387 18.9171 22.9435 18.6125 23.099 18.2402C23.3244 17.7007 23.3244 17.4258 23.099 16.8863C22.9435 16.514 22.7387 16.2094 22.6438 16.2094C22.5488 16.2094 22.3439 16.514 22.1884 16.8863ZM23.8389 16.6539C23.4751 17.2316 23.4865 18.02 23.8656 18.5143C24.521 19.3695 25.057 17.4658 24.4081 16.5871C24.1429 16.2281 24.1042 16.2327 23.8389 16.6539ZM19.185 17.0044C18.9776 17.4554 18.9951 17.7237 19.2699 18.2989L19.6164 19.0241L19.9919 18.3047C20.2953 17.723 20.3167 17.4748 20.103 17.01C19.7692 16.2841 19.5167 16.2825 19.185 17.0044ZM25.1845 17.01C24.9707 17.4748 24.9921 17.723 25.2956 18.3047L25.671 19.0241L26.0175 18.2989C26.2923 17.7237 26.3099 17.4554 26.1025 17.0044C25.7707 16.2825 25.5182 16.2841 25.1845 17.01ZM0.901207 17.2729C0.138511 17.4547 -0.00628742 17.7451 0.428791 18.2215C1.09108 18.9469 2.73601 19.3691 4.86906 19.3612C6.63464 19.3546 6.77853 19.3226 6.37874 19.0227C6.13559 18.8406 5.5721 18.687 5.12655 18.6813C4.68077 18.6757 4.00892 18.5238 3.63326 18.3438C2.96254 18.0222 2.9737 18.0177 4.263 18.0906C5.0883 18.1375 5.6593 18.0651 5.80114 17.8956C6.22415 17.3904 2.43048 16.9082 0.901207 17.2729ZM40.2882 17.4069C38.8286 17.7634 39.2807 18.1411 41.085 18.0725C42.3258 18.0254 42.3308 18.0279 41.6542 18.348C41.2785 18.5256 40.6067 18.6757 40.1609 18.6813C39.7153 18.687 39.1519 18.8406 38.9087 19.0227C38.5089 19.3226 38.6528 19.3546 40.4184 19.3612C42.5514 19.3691 44.1964 18.9469 44.8587 18.2215C45.158 17.8936 45.1967 17.7122 45.0078 17.5249C44.6371 17.1576 41.618 17.082 40.2882 17.4069ZM21.5355 18.636C21.1127 19.4187 21.2183 19.8197 21.8469 19.8197C22.4976 19.8197 22.6121 19.2691 22.1046 18.5811C21.803 18.1723 21.7848 18.1738 21.5355 18.636ZM23.1291 18.636C22.7064 19.4187 22.8119 19.8197 23.4405 19.8197C24.0912 19.8197 24.2057 19.2691 23.6982 18.5811C23.3966 18.1723 23.3784 18.1738 23.1291 18.636ZM19.8109 18.9674C19.2975 19.6935 19.363 19.8197 20.2532 19.8197C21.1516 19.8197 21.1471 19.8262 20.7857 19.0405C20.4615 18.3352 20.2678 18.3207 19.8109 18.9674ZM24.5017 19.0405C24.1404 19.8262 24.1358 19.8197 25.0342 19.8197C25.9244 19.8197 25.99 19.6935 25.4766 18.9674C25.0196 18.3207 24.8259 18.3352 24.5017 19.0405ZM18.5543 19.1784C18.0059 19.6213 17.3466 19.6477 16.4397 19.2632C16.1549 19.1425 16.0413 19.1978 16.0413 19.4571C16.0413 19.9142 16.8411 20.7222 17.2935 20.7222C17.4832 20.7222 17.635 20.5216 17.635 20.271C17.635 19.919 17.7869 19.8197 18.3251 19.8197C18.7217 19.8197 19.0698 19.6789 19.1436 19.4887C19.3842 18.8668 19.1156 18.7253 18.5543 19.1784ZM26.0972 19.1789C26.156 19.5902 26.3358 19.7224 26.9125 19.7775C27.468 19.8307 27.6524 19.9571 27.6524 20.2852C27.6524 20.8513 28.2123 20.8443 28.7908 20.271C29.372 19.6949 29.4098 19.0263 28.8477 19.2605C27.8787 19.664 27.3694 19.6383 26.7058 19.152L26.0216 18.6509L26.0972 19.1789ZM2.72258 19.7942C-0.371928 20.3484 0.622311 21.7697 4.04352 21.6823C5.02069 21.6573 5.91862 21.5763 6.03951 21.5025C6.50851 21.215 5.94571 20.9479 4.87202 20.9479C4.25321 20.9479 3.7471 20.8463 3.7471 20.7222C3.7471 20.5981 4.28485 20.4934 4.94237 20.4894C5.63039 20.4853 6.32524 20.3416 6.57955 20.1509C6.99232 19.8416 6.96226 19.8194 6.12421 19.8172C5.63084 19.8158 4.86837 19.7734 4.43011 19.7229C3.99184 19.6723 3.22345 19.7044 2.72258 19.7942ZM39.5223 19.7569C38.414 19.8368 38.3402 19.8745 38.7254 20.1635C38.962 20.3414 39.6787 20.4853 40.3451 20.4894C41.0024 20.4934 41.5403 20.5981 41.5403 20.7222C41.5403 20.8463 41.0342 20.9479 40.4154 20.9479C39.3417 20.9479 38.7789 21.215 39.2479 21.5025C39.3688 21.5763 40.2668 21.6573 41.2439 21.6823C43.0259 21.7277 44.2451 21.3881 44.4409 20.792C44.666 20.106 42.1184 19.5699 39.5223 19.7569ZM19.684 21.0501C19.684 21.3983 20.2555 22.2999 20.4611 22.2765C21.1641 22.1964 22.0908 22.813 21.8494 23.2002C21.7354 23.3832 21.6035 23.3787 21.3659 23.183C21.186 23.0352 20.9677 22.9851 20.8805 23.0716C20.7933 23.158 20.8572 23.3119 21.023 23.4132C21.2561 23.556 21.2149 23.6736 20.8404 23.9335C20.5328 24.147 20.409 24.4038 20.5002 24.6393C20.6981 25.1504 20.2352 25.1044 19.684 24.5581C19.3669 24.2438 19.2287 23.806 19.2287 23.1156C19.2287 22.0921 18.8984 21.7304 18.2042 21.9944C17.7511 22.1668 17.7536 23.6943 18.2083 24.566C18.599 25.3147 19.085 25.4787 20.6844 25.4015C21.2973 25.372 21.8344 25.4494 21.8781 25.5735C21.9216 25.6976 21.5899 26.0473 21.1407 26.3506C20.2473 26.9537 20.215 26.8517 21.6183 27.852C22.0632 28.169 22.0587 28.1868 21.3968 28.7099C21.0253 29.0034 20.6084 29.2011 20.4709 29.1488C20.3331 29.0964 20.1021 29.3112 19.9573 29.6262C19.7073 30.1698 19.7284 30.1991 20.3718 30.1991C20.8056 30.1991 21.0501 30.0838 21.0501 29.8792C21.0501 29.7029 21.4087 29.3394 21.8469 29.0709L22.6438 28.5828L23.4405 29.0709C23.8788 29.3394 24.2374 29.7029 24.2374 29.8792C24.2374 30.0838 24.4819 30.1991 24.9156 30.1991C25.559 30.1991 25.5802 30.1698 25.3302 29.6262C25.1854 29.3112 24.9472 29.0991 24.8009 29.1546C24.6545 29.2104 24.2374 29.0089 23.8738 28.7067C23.2254 28.1681 23.2215 28.1516 23.6682 27.8344C25.1025 26.8159 25.0627 26.9384 24.1436 26.3756C22.9699 25.6567 23.2028 25.3347 24.843 25.4094C26.0348 25.4636 26.2611 25.4036 26.7299 24.909C27.0889 24.5301 27.2977 23.985 27.3703 23.2352C27.4655 22.2534 27.422 22.1056 26.9981 21.9723C26.2732 21.7442 26.0587 22.0028 26.0587 23.1047C26.0587 24.3866 25.047 25.5344 24.5789 24.7837C24.5015 24.6596 24.5645 24.5581 24.7189 24.5581C24.8801 24.5581 24.7895 24.3363 24.5063 24.0375C24.1242 23.6343 24.0741 23.4563 24.2845 23.2478C24.4364 23.0973 24.4557 22.9786 24.3284 22.9786C24.2032 22.9786 24.0026 23.0759 23.8827 23.1948C23.7627 23.3137 23.5311 23.3295 23.3681 23.2295C23.1493 23.0955 23.239 22.9393 23.7115 22.6318C24.0634 22.4028 24.5174 22.2277 24.7205 22.2424C25.0529 22.2668 25.7439 21.2376 25.5344 21.03C25.3354 20.8328 24.0509 21.2453 24.1315 21.4804C24.18 21.6219 23.8608 21.9642 23.4221 22.2413L22.6246 22.7448L21.8403 22.2413C21.4087 21.9642 21.0544 21.6225 21.0528 21.482C21.0514 21.3412 20.8194 21.1649 20.5378 21.09C19.9179 20.9253 19.684 20.9145 19.684 21.0501ZM5.05415 21.9773C3.56541 22.3349 2.60351 22.7796 2.15135 23.3193C1.06559 24.6161 6.15039 24.2318 7.30992 22.9296C7.72633 22.4622 7.7245 22.4585 7.16216 22.6192C6.84911 22.7085 6.13195 22.8263 5.56846 22.8807L4.54394 22.9797L5.31871 22.6259C5.74468 22.4315 6.61552 22.2092 7.25391 22.132C8.21513 22.0161 8.31668 21.9642 7.84517 21.8308C7.02191 21.5979 6.52536 21.6239 5.05415 21.9773ZM37.4423 21.8225C36.9633 21.9651 37.0568 22.014 38.0335 22.132C38.6719 22.2092 39.5428 22.4315 39.9687 22.6259L40.7435 22.9797L39.719 22.8807C39.1555 22.8263 38.4383 22.7085 38.1253 22.6192C37.5629 22.4585 37.5611 22.4622 37.9775 22.9296C38.8199 23.8758 42.1976 24.494 43.134 23.8737C43.4227 23.6824 43.3781 23.5621 42.8458 23.095C41.8195 22.195 38.6767 21.4547 37.4423 21.8225ZM9.8917 23.9376C9.40062 24.7359 9.29885 25.4607 9.67792 25.4607C10.1014 25.4607 11.1314 24.8424 11.683 24.2571C12.4801 23.4114 12.1896 23.028 11.3085 23.7627C10.9062 24.0982 10.5772 24.2679 10.5772 24.1402C10.5772 24.0123 10.6813 23.8439 10.8085 23.7661C11.0699 23.6059 10.8925 23.2042 10.5604 23.2042C10.4408 23.2042 10.1399 23.5344 9.8917 23.9376ZM33.1165 23.5059C33.1165 24.1569 35.3951 25.7596 35.7791 25.379C35.9859 25.1741 35.6542 24.1973 35.1847 23.6275C34.853 23.2255 34.6768 23.1555 34.4789 23.348C34.2913 23.5305 34.2868 23.6483 34.4627 23.7562C34.5989 23.8396 34.7102 24.0211 34.7102 24.1594C34.7102 24.2979 34.4798 24.2054 34.198 23.954C33.4225 23.2622 33.1165 23.1354 33.1165 23.5059ZM22.8713 23.6555C22.8713 23.7796 22.7116 23.8812 22.5165 23.8812C22.3214 23.8812 22.2249 23.7796 22.3023 23.6555C22.3797 23.5314 22.5393 23.4299 22.6572 23.4299C22.775 23.4299 22.8713 23.5314 22.8713 23.6555ZM6.13764 23.9698C5.23766 24.3607 3.97477 25.5475 3.97477 26.0024C3.97477 26.2639 4.19288 26.3632 4.76638 26.3632C5.33715 26.3632 5.65202 26.5056 5.89517 26.8732C6.36463 27.5833 7.52142 30.3873 8.31576 32.7403C8.68277 33.8276 9.10556 34.9116 9.25513 35.1492C9.46687 35.4852 9.46527 35.716 9.24808 36.1883C8.87743 36.9945 9.25445 37.8481 10.2735 38.5101C10.6911 38.7814 11.0357 39.1293 11.0396 39.2832C11.0499 39.6803 12.1249 40.4078 12.4275 40.2225C12.5862 40.1253 12.629 39.6995 12.5427 39.0752C12.4063 38.0889 12.4125 38.0778 13.4798 37.407C14.8151 36.5678 16.1048 36.2106 17.1193 36.3993C17.5974 36.4882 18.0241 36.4394 18.2265 36.2729C18.5134 36.0371 18.5104 35.9331 18.204 35.4699C17.8786 34.9777 17.8834 34.9376 18.2673 34.9376C18.7073 34.9376 19.2287 34.533 19.2287 34.1914C19.2287 34.0788 19.078 34.044 18.8938 34.1142C18.5541 34.2433 17.8627 33.7257 17.8627 33.3421C17.8627 32.9163 18.8223 32.1899 19.2415 32.2985C19.4757 32.3592 19.786 32.2671 19.9313 32.0938C20.1476 31.8352 20.057 31.7723 19.4272 31.743C19.0051 31.7235 18.5307 31.7123 18.3731 31.7184C18.2153 31.7242 18.0275 31.4963 17.9553 31.2116C17.8513 30.8007 17.6364 30.6763 16.911 30.6077C16.157 30.5367 15.9218 30.6168 15.5641 31.0676C15.3257 31.3682 15.1306 31.532 15.1306 31.432C15.1306 31.3318 15.2927 31.0723 15.491 30.8553C15.8212 30.4938 15.8164 30.4424 15.4341 30.2438C14.9032 29.9678 14.0956 30.263 13.7794 30.8485C13.646 31.0956 13.5369 31.7563 13.5369 32.3168C13.5369 33.0481 13.4245 33.4014 13.1385 33.5684C12.7906 33.7717 12.7833 33.8306 13.0816 34.0332C13.2694 34.1607 13.6537 34.2115 13.9354 34.1458C14.3356 34.0526 14.4476 34.1248 14.4476 34.4764C14.4476 34.8559 14.5544 34.9051 15.1306 34.7909C16.1622 34.5865 15.9828 35.1093 14.846 35.6206C14.3138 35.86 13.6041 36.0581 13.2685 36.0608C12.6718 36.0658 11.9432 35.5633 11.9432 35.1472C11.9432 35.0319 11.65 34.9376 11.2916 34.9376C10.6813 34.9376 10.5342 34.73 8.95802 31.6392L7.27599 28.3405L7.84517 27.9804C8.15822 27.7823 8.79865 27.2188 9.26811 26.7285C10.251 25.7019 10.2876 25.7201 9.66654 26.9273C9.15018 27.931 9.06275 29.0709 9.50193 29.0709C10.3705 29.0709 11.8337 27.3132 11.5924 26.5597C11.4428 26.0922 11.4232 26.097 10.8941 26.7288C10.2419 27.5077 10.391 26.8483 11.0945 25.8424C11.6341 25.071 11.4421 24.7763 10.7842 25.3666C10.5208 25.6028 10.0759 25.7664 9.7954 25.7298C9.51513 25.6935 9.15405 25.821 8.99309 26.0135C8.46899 26.6392 8.25611 26.3819 8.74037 25.708C8.99923 25.3474 9.21119 24.939 9.21119 24.8002C9.21119 24.3862 8.06168 25.2542 7.38664 26.1775C6.76191 27.0325 6.47915 27.0803 6.47915 26.3314C6.47915 26.1071 6.76077 25.7786 7.10524 25.6012C7.44971 25.4241 8.12953 24.9645 8.61652 24.58C9.71731 23.7108 9.19981 23.6506 7.58722 24.4604C6.29496 25.1096 5.80592 25.0457 6.92128 24.3735C7.50048 24.0242 7.56901 23.9109 7.26985 23.7972C7.06494 23.7194 6.88007 23.6596 6.8589 23.6643C6.83795 23.6693 6.5133 23.8067 6.13764 23.9698ZM37.9359 23.8135C37.7369 23.8906 37.883 24.0822 38.3598 24.3697C39.4802 25.0448 38.9964 25.1114 37.7002 24.4604C36.0872 23.6503 35.5706 23.7108 36.6709 24.5809C37.9739 25.6107 39.5938 26.3632 40.5083 26.3632C41.7295 26.3632 41.5019 25.5033 40.0172 24.5078C39.048 23.8582 38.388 23.6379 37.9359 23.8135ZM21.9608 24.3324C21.515 24.6181 21.2135 24.6181 21.3916 24.3324C21.469 24.2083 21.7055 24.1084 21.9173 24.1102C22.249 24.1133 22.2551 24.144 21.9608 24.3324ZM23.8959 24.3324C23.9733 24.4566 23.8829 24.5581 23.6951 24.5581C23.5072 24.5581 23.2903 24.4566 23.2129 24.3324C23.1354 24.2083 23.2258 24.1068 23.4137 24.1068C23.6015 24.1068 23.8185 24.2083 23.8959 24.3324ZM11.859 24.8401C11.6436 25.6367 11.6921 26.3632 11.9608 26.3632C12.2934 26.3632 13.5369 25.1105 13.5369 24.7752C13.5369 24.5937 13.3516 24.6267 12.9678 24.8758C12.4252 25.228 12.3986 25.224 12.3986 24.7889C12.3986 24.1734 12.03 24.2083 11.859 24.8401ZM15.8592 24.6032C15.545 24.9146 15.4892 26.2772 15.7831 26.4573C16.0313 26.6094 16.6226 25.9555 16.8204 25.3104C17.0283 24.6335 16.5456 24.4094 16.2622 25.0513C16.0409 25.5523 16.0352 25.5482 16.1187 24.953C16.2189 24.2399 16.2216 24.244 15.8592 24.6032ZM29.1683 24.9509C29.2523 25.5473 29.2461 25.5514 29.0253 25.0513C28.7418 24.4094 28.2592 24.6335 28.467 25.3104C28.6649 25.9555 29.2561 26.6094 29.5043 26.4573C29.8176 26.2655 29.7329 24.865 29.3912 24.5838C29.1396 24.3767 29.0975 24.4462 29.1683 24.9509ZM32.8889 24.7889C32.8889 25.224 32.8622 25.228 32.3197 24.8758C31.9358 24.6267 31.7505 24.5937 31.7505 24.7752C31.7505 25.1105 32.994 26.3632 33.3267 26.3632C33.5953 26.3632 33.6438 25.6367 33.4284 24.8401C33.2575 24.2083 32.8889 24.1734 32.8889 24.7889ZM36.0032 24.7187C36.0842 24.9406 36.3456 25.4013 36.5842 25.7427C37.0343 26.3867 36.8025 26.6202 36.3039 26.0248C36.148 25.8386 35.8229 25.6863 35.5815 25.6863C35.1797 25.6863 35.1936 25.7529 35.7475 26.4724C36.4494 27.3847 37.6324 28.1683 38.307 28.1683C38.7202 28.1683 38.753 28.0873 38.5809 27.4923C38.3163 26.578 37.6224 25.6504 36.6575 24.9209C36.0307 24.4473 35.8882 24.4031 36.0032 24.7187ZM23.2028 24.7675C23.3624 25.0236 22.5113 25.3201 22.1868 25.1211C22.0584 25.0425 22.0122 24.8837 22.0844 24.7682C22.2538 24.4965 23.0334 24.496 23.2028 24.7675ZM16.9761 25.6112C16.7357 26.134 16.7608 26.2741 17.1671 26.6769L17.635 27.1403V26.0748C17.635 24.8821 17.3905 24.7099 16.9761 25.6112ZM27.6524 26.0748V27.1403L28.1203 26.6769C28.5267 26.2741 28.5517 26.134 28.3113 25.6112C27.897 24.7099 27.6524 24.8821 27.6524 26.0748ZM33.7995 25.0938C33.7995 25.1402 34.065 25.6732 34.3894 26.2784L34.9793 27.3786L34.4036 26.7617C33.8585 26.178 33.8203 26.1689 33.6846 26.5927C33.4535 27.3141 34.9429 29.0709 35.7855 29.0709C36.5029 29.0709 35.9164 27.0099 34.8384 25.7427C34.3054 25.1166 33.7995 24.8004 33.7995 25.0938ZM13.2086 26.53C13.1194 26.9318 12.9411 27.3253 12.812 27.4043C12.657 27.4991 12.634 27.2897 12.7442 26.7863C12.9095 26.0308 12.9072 26.0281 12.4437 26.4397C11.9257 26.8996 11.594 28.336 11.833 29.0826C11.9854 29.5578 11.9967 29.5558 12.6431 28.9421C13.4579 28.1683 13.8482 27.0776 13.5736 26.3422C13.3746 25.8097 13.3676 25.8133 13.2086 26.53ZM15.0375 26.6719C14.9521 27.1225 14.7941 27.4914 14.6862 27.4914C14.5785 27.4914 14.5453 27.2631 14.6127 26.9837C14.7295 26.4991 14.7163 26.4936 14.3183 26.8673C13.8714 27.2872 13.7758 28.7209 14.1687 29.1104C14.7443 29.6808 15.8765 27.0634 15.4111 26.2391C15.2313 25.9205 15.1652 25.9968 15.0375 26.6719ZM29.8271 26.4077C29.6236 27.1408 30.012 28.4199 30.598 28.9455C31.1139 29.408 31.3316 29.1497 31.3635 28.0368C31.3771 27.553 31.228 27.1108 30.9691 26.8673C30.5712 26.4936 30.558 26.4991 30.6748 26.9837C30.7422 27.2631 30.7146 27.4914 30.6135 27.4914C30.5124 27.4914 30.3321 27.1108 30.213 26.6453C29.9981 25.8068 29.9947 25.8045 29.8271 26.4077ZM31.6708 26.4217C31.4794 27.1778 31.9383 28.3161 32.7243 29.0339L33.3012 29.5608L33.4548 29.0806C33.6934 28.3358 33.361 26.8991 32.8438 26.4397C32.38 26.0277 32.3777 26.0304 32.5455 26.8145C32.745 27.7471 32.4294 27.5503 32.0731 26.5203L31.8263 25.807L31.6708 26.4217ZM23.4697 26.5158L24.0518 26.8939L23.5186 27.3005C22.852 27.8084 22.5513 27.8152 21.8178 27.3389L21.2356 26.9607L21.7688 26.5541C22.4354 26.0462 22.7362 26.0394 23.4697 26.5158ZM17.1077 27.4314C17.051 27.5264 16.9317 28.0402 16.8427 28.5731C16.702 29.4159 16.593 29.5594 16.0053 29.6761C15.1443 29.8467 15.4293 30.1332 16.6533 30.3271L17.6066 30.478V28.9892C17.6066 27.651 17.3869 26.9643 17.1077 27.4314ZM27.8006 27.4364C27.7396 27.5341 27.6866 28.2591 27.6829 29.047L27.6759 30.48L28.4042 30.3589C28.8047 30.2921 29.3372 30.1592 29.5876 30.0633C29.9833 29.9119 30.0043 29.9362 29.7472 30.2497C29.5485 30.492 29.53 30.6581 29.6903 30.7564C29.8217 30.8368 29.926 31.0236 29.9219 31.1714C29.918 31.3199 29.7791 31.2632 29.6122 31.0453C29.1514 30.4437 27.7442 30.515 27.3845 31.1581C27.2283 31.4374 27.1279 31.7592 27.1616 31.8731C27.1953 31.9873 27.0687 31.9539 26.8804 31.7989C26.3725 31.3812 23.4596 31.5893 22.9096 32.0828C22.5274 32.4255 22.4502 32.4298 22.1932 32.1227C21.8665 31.7326 21.0501 31.6559 21.0501 32.0155C21.0501 32.4059 21.6557 33.4445 22.1331 33.8728C22.5657 34.2607 22.5991 34.2485 23.181 33.4923C23.5116 33.0627 23.782 32.609 23.782 32.484C23.782 32.3589 23.8729 32.2008 23.984 32.1329C24.0951 32.0647 24.0345 32.5219 23.849 33.1487C23.3713 34.7641 23.5623 35.2722 24.8054 35.6921C25.3696 35.8826 25.8311 35.9466 25.8311 35.8345C25.8311 35.7226 25.3958 35.2115 24.8635 34.6993C24.3312 34.1869 24.0022 33.8204 24.1322 33.8852C24.2622 33.9497 24.5042 33.6984 24.6704 33.3265C25.0704 32.4307 25.9381 32.0995 26.6587 32.5674C27.5573 33.1512 27.1409 34.4849 26.1749 34.1176C25.8299 33.9863 25.8124 34.03 26.0403 34.452C26.2031 34.7537 26.5218 34.9376 26.8818 34.9376C27.4052 34.9376 27.4466 35.0019 27.3127 35.6062C27.1522 36.3309 27.2287 36.3751 29.0185 36.5913C30.9093 36.8196 32.6054 37.2748 33.4986 37.7935C34.2599 38.2358 34.5518 38.3014 34.9108 38.111C35.1596 37.979 35.5786 37.8709 35.8415 37.8709C36.7137 37.8709 37.7993 37.0114 38.4773 35.7837L38.8199 35.1632H36.1985C33.6158 35.1632 33.578 35.1707 33.6315 35.6709C33.6798 36.1235 33.5746 36.1842 32.6612 36.2312C31.9698 36.2668 31.3075 36.1202 30.6238 35.7799C29.4071 35.1745 29.1466 34.7002 30.114 34.8514C30.736 34.9484 30.7727 34.9137 30.6663 34.3259C30.604 33.9797 30.4052 33.5284 30.2249 33.3229C30.0446 33.1171 29.9298 32.6428 29.9701 32.2682L30.043 31.5877L30.8173 31.9122C31.2433 32.0907 31.5233 32.3046 31.4397 32.3876C31.356 32.4704 31.1663 32.4181 31.0181 32.2712C30.6465 31.9029 30.1568 31.9363 30.1568 32.3298C30.1568 32.9172 31.1035 34.2607 31.5174 34.2607C32.1992 34.2607 32.4802 33.7211 31.9645 33.4019C31.5973 33.1746 31.5438 32.9691 31.6619 32.2364C31.7883 31.4535 31.7241 31.2664 31.1242 30.6718C30.7494 30.3004 30.1479 29.9322 29.7875 29.8534C29.4271 29.7747 29.0114 29.6738 28.8636 29.6294C28.7159 29.5849 28.5249 29.0844 28.439 28.5172C28.2874 27.5151 28.0267 27.0738 27.8006 27.4364ZM35.6778 30.311C35.5214 30.4873 35.3932 30.6937 35.3932 30.7698C35.3932 30.953 36.0036 31.553 36.1901 31.553C36.2707 31.553 36.4829 31.4079 36.6616 31.2305C36.8405 31.0534 36.9869 30.8431 36.9869 30.7632C36.9869 30.5502 36.367 29.9721 36.1493 29.982C36.0467 29.9868 35.8345 30.1348 35.6778 30.311ZM29.0235 32.4623C29.2882 32.831 29.4119 33.1325 29.2983 33.1325C29.1844 33.1325 28.9677 32.8633 28.8165 32.534C28.6082 32.0812 28.4773 31.9991 28.2781 32.1965C27.853 32.6178 28.0654 34.0361 28.6291 34.5393L29.1323 34.9886L28.5631 34.6537C27.8954 34.2607 27.5805 32.9224 27.9655 32.1139C28.2526 31.5108 28.3666 31.5484 29.0235 32.4623ZM15.1306 32.2166C15.1306 32.9671 15.629 33.0199 16.1852 32.3285L16.7091 31.6773L17.1455 32.1414C17.47 32.4869 17.5248 32.7069 17.3591 33.0002C17.2366 33.2173 17.184 33.5756 17.2423 33.7965C17.3151 34.0725 17.1262 34.3195 16.6378 34.5867C15.945 34.9656 15.9393 34.9651 16.4104 34.5614C16.9226 34.1228 17.258 32.9206 17.0315 32.3355C16.9108 32.0236 16.8484 32.0273 16.4684 32.368C16.2335 32.5787 16.0413 32.8781 16.0413 33.0334C16.0413 33.2112 15.8601 33.269 15.5518 33.1891C15.2294 33.1054 14.9576 33.2044 14.755 33.4788C14.586 33.7081 14.4476 33.7807 14.4476 33.6401C14.4476 33.4996 14.5501 33.322 14.6753 33.2453C15.01 33.0404 14.9528 32.0042 14.607 32.0042C14.4442 32.0042 14.1674 32.1313 13.9918 32.2863C13.7204 32.5261 13.7177 32.5095 13.9743 32.1735C14.388 31.6317 15.1306 31.6592 15.1306 32.2166ZM20.1453 32.1101C19.9215 32.3772 19.9604 32.5586 20.345 33.0431C21.008 33.8784 20.9481 34.2275 19.9921 35.0953C19.0577 35.9435 19.0778 36.1973 20.0504 35.8307C20.9203 35.503 21.5054 34.9586 21.5054 34.4773C21.5054 33.9075 20.7816 31.7786 20.5881 31.7786C20.4971 31.7786 20.2978 31.9277 20.1453 32.1101ZM35.9745 31.9851C35.9012 32.1026 35.9383 32.2581 36.0569 32.3307C36.1755 32.4034 36.3324 32.3666 36.4057 32.2491C36.479 32.1315 36.4419 31.976 36.3233 31.9034C36.2047 31.8307 36.0478 31.8675 35.9745 31.9851ZM34.5661 32.4041C34.1233 32.7597 33.5719 33.5934 33.5719 33.9073C33.5719 33.9775 34.0329 34.035 34.5964 34.035H35.6209V33.0196C35.6209 31.9047 35.3702 31.7585 34.5661 32.4041ZM36.7593 33.0196V34.035H37.7838C38.3473 34.035 38.8083 33.9775 38.8083 33.9073C38.8083 33.5934 38.2569 32.7597 37.8141 32.4041C37.0099 31.7585 36.7593 31.9047 36.7593 33.0196ZM35.8486 32.9068C35.8486 33.0309 36.0023 33.1325 36.1901 33.1325C36.3779 33.1325 36.5316 33.0309 36.5316 32.9068C36.5316 32.7827 36.3779 32.6812 36.1901 32.6812C36.0023 32.6812 35.8486 32.7827 35.8486 32.9068ZM35.8486 33.8094C35.8486 33.9335 36.0023 34.035 36.1901 34.035C36.3779 34.035 36.5316 33.9335 36.5316 33.8094C36.5316 33.6853 36.3779 33.5837 36.1901 33.5837C36.0023 33.5837 35.8486 33.6853 35.8486 33.8094ZM21.8831 34.4863C21.9612 34.9207 22.1297 35.408 22.2579 35.5694C22.5896 35.9873 23.0134 35.4974 23.1953 34.4863C23.3349 33.7112 23.3308 33.7058 22.9661 34.1993L22.5948 34.702L22.1682 34.1993L21.7415 33.6966L21.8831 34.4863ZM34.2549 34.5991C34.2549 34.7853 34.3573 34.9376 34.4826 34.9376C34.6078 34.9376 34.7102 34.7853 34.7102 34.5991C34.7102 34.413 34.6078 34.2607 34.4826 34.2607C34.3573 34.2607 34.2549 34.413 34.2549 34.5991ZM35.1656 34.6124C35.1656 34.8058 35.268 34.9015 35.3932 34.8248C35.5185 34.748 35.6209 34.5899 35.6209 34.473C35.6209 34.3561 35.5185 34.2607 35.3932 34.2607C35.268 34.2607 35.1656 34.4191 35.1656 34.6124ZM35.9745 34.4671C35.9012 34.5847 35.9383 34.7401 36.0569 34.8128C36.1755 34.8855 36.3324 34.8487 36.4057 34.7311C36.479 34.6136 36.4419 34.4581 36.3233 34.3854C36.2047 34.3128 36.0478 34.3496 35.9745 34.4671ZM36.7593 34.473C36.7593 34.5899 36.8617 34.748 36.9869 34.8248C37.1122 34.9015 37.2146 34.8058 37.2146 34.6124C37.2146 34.4191 37.1122 34.2607 36.9869 34.2607C36.8617 34.2607 36.7593 34.3561 36.7593 34.473ZM37.6699 34.5991C37.6699 34.7853 37.7724 34.9376 37.8976 34.9376C38.0228 34.9376 38.1253 34.7853 38.1253 34.5991C38.1253 34.413 38.0228 34.2607 37.8976 34.2607C37.7724 34.2607 37.6699 34.413 37.6699 34.5991ZM33.3442 34.7119C33.3442 34.836 33.4467 34.9376 33.5719 34.9376C33.6971 34.9376 33.7995 34.836 33.7995 34.7119C33.7995 34.5878 33.6971 34.4863 33.5719 34.4863C33.4467 34.4863 33.3442 34.5878 33.3442 34.7119ZM38.5806 34.7119C38.5806 34.836 38.6831 34.9376 38.8083 34.9376C38.9335 34.9376 39.036 34.836 39.036 34.7119C39.036 34.5878 38.9335 34.4863 38.8083 34.4863C38.6831 34.4863 38.5806 34.5878 38.5806 34.7119ZM19.758 36.1768C18.7344 36.6741 17.7019 37.2587 17.4636 37.476C17.225 37.6933 16.8006 37.8709 16.5203 37.8709C16.1142 37.8709 16.0399 37.7791 16.1552 37.4196C16.3398 36.8429 16.0015 36.84 15.4778 37.4135C15.1942 37.724 15.1117 38.0591 15.2051 38.5221C15.2939 38.9623 15.2274 39.2771 15.0072 39.4583C14.561 39.8254 14.5892 40.3162 15.1163 41.3404C15.5334 42.1513 15.5725 42.1734 15.8405 41.7481C16.1185 41.307 16.1319 41.309 16.5666 41.8564C16.9213 42.3032 17.1819 42.4018 17.8779 42.3519C18.4778 42.309 18.8943 42.4221 19.2237 42.7177C19.5097 42.9742 20.0526 43.1511 20.5793 43.1595C21.0792 43.1674 21.6475 43.3436 21.8979 43.5683C22.4839 44.0941 23.0268 44.0672 23.3344 43.4975C23.5325 43.1308 23.7244 43.0618 24.2367 43.1732C24.8969 43.317 26.2864 42.7924 26.2864 42.3993C26.2864 42.2903 26.6778 42.2531 27.1563 42.3167C28.0181 42.4313 28.5674 42.1468 28.8712 41.4288C28.959 41.2205 29.0608 41.2503 29.2443 41.5376C29.589 42.0775 29.7668 42.0326 30.0999 41.3216C30.435 40.6064 30.4742 39.5319 30.1718 39.3468C30.0548 39.2751 30.0147 38.8766 30.0828 38.461C30.1839 37.8441 30.1079 37.6365 29.6694 37.3303C29.1582 36.9731 29.1289 36.9771 29.0594 37.4129C28.9622 38.0257 28.4226 37.9905 27.5256 37.3122C27.1192 37.0051 26.2386 36.5412 25.5688 36.2815C24.8992 36.0218 24.1242 35.6639 23.8469 35.4863C23.3918 35.1948 23.3189 35.2072 23.099 35.6145C22.7983 36.1714 22.3439 36.1926 21.9316 35.6691C21.6388 35.2972 21.5029 35.3291 19.758 36.1768ZM21.872 37.9314C21.6789 38.5903 21.4521 39.7067 21.3686 40.4125C21.2848 41.1183 21.1277 41.6416 21.0193 41.5753C20.6603 41.3553 20.7994 40.2638 21.4408 38.2698C22.1128 36.1802 22.4673 35.9022 21.872 37.9314ZM23.9009 38.6954C24.3569 40.0384 24.4764 40.7083 24.3439 41.1775C24.1679 41.8002 24.1563 41.7889 23.9589 40.8042C23.7722 39.8741 23.1634 37.3298 22.933 36.5171C22.6344 35.4644 23.3531 37.0816 23.9009 38.6954ZM20.024 37.7755C19.5866 38.3434 19.2287 38.9222 19.2287 39.0616C19.2287 39.2448 19.16 39.2469 18.9799 39.0684C18.6509 38.7423 18.9983 38.1031 19.924 37.3312C20.9157 36.504 20.9356 36.5918 20.024 37.7755ZM26.2864 38.6796C26.2864 38.9795 26.2498 39.2248 26.2049 39.2248C26.1598 39.2248 25.7359 38.6467 25.2623 37.94L24.4018 36.6549L25.3441 37.3948C25.9827 37.8962 26.2864 38.3102 26.2864 38.6796ZM18.6497 40.3374C18.8779 40.7032 18.3822 40.8144 18.0883 40.4633C17.8595 40.19 17.8734 40.1273 18.163 40.1273C18.3585 40.1273 18.5778 40.2219 18.6497 40.3374ZM27.1971 40.3396C27.1971 40.6059 26.7531 40.8907 26.5899 40.7291C26.4269 40.5673 26.7142 40.1273 26.9829 40.1273C27.1008 40.1273 27.1971 40.2228 27.1971 40.3396Z" fill="#6E6E70"/>
<path d="M52.5919 4.73828H50.0875V42.1947H52.5919V4.73828Z" fill="#45C8F0"/>
<path d="M52.5919 4.73828H50.0875V42.1947H52.5919V4.73828Z" fill="#45C8F0"/>
<path d="M52.5919 13.9897H50.0875V42.1949H52.5919V13.9897Z" fill="#45C8F0"/>
<path d="M52.5919 13.9897H50.0875V42.1949H52.5919V13.9897Z" fill="#1B87C2"/>
<path d="M52.5919 24.3691H50.0875V42.1948H52.5919V24.3691Z" fill="#45C8F0"/>
<path d="M52.5919 24.3691H50.0875V42.1948H52.5919V24.3691Z" fill="#15648C"/>
<path d="M52.5919 34.2974H50.0875V42.1948H52.5919V34.2974Z" fill="#45C8F0"/>
<path d="M52.5919 34.2974H50.0875V42.1948H52.5919V34.2974Z" fill="white"/>
<path d="M67.792 12.2505H69.4606V21.6616H67.9005V14.9528L65.011 19.6853H64.8211L61.9317 14.9394V21.6616H60.3717V12.2505H62.0537L64.916 16.956L67.792 12.2505ZM72.8324 19.2012L76.3052 14.9394H77.4311V21.6616H75.9931V17.3863L72.5204 21.6616H71.3944V14.9394H72.8324V19.2012ZM83.8382 17.6148V14.9394H85.3032V21.6616H83.8382V18.9861H80.7316V21.6616H79.2666V14.9394H80.7316V17.6148H83.8382ZM92.9719 14.9394V20.2903H94.0843V23.4631H92.6463V21.6616H87.1387V14.9394H88.6038V20.2903H91.5068V14.9394H92.9719ZM96.8464 19.2012L100.319 14.9394H101.445V21.6616H100.007V17.3863L96.5342 21.6616H95.4084V14.9394H96.8464V19.2012ZM107.757 21.7826V24.3506H106.319V21.7826C105.27 21.6481 104.438 21.2628 103.823 20.6264C103.208 19.99 102.901 19.2147 102.901 18.3005C102.901 17.3863 103.208 16.611 103.823 15.9746C104.438 15.3382 105.27 14.9528 106.319 14.8184V12.2505H107.757V14.8184C108.806 14.9528 109.638 15.3382 110.253 15.9746C110.868 16.611 111.176 17.3863 111.176 18.3005C111.176 19.2147 110.868 19.99 110.253 20.6264C109.638 21.2628 108.806 21.6481 107.757 21.7826ZM107.757 16.2032V20.3978C108.381 20.2813 108.865 20.0393 109.209 19.6718C109.552 19.2954 109.724 18.8383 109.724 18.3005C109.724 17.7627 109.552 17.3101 109.209 16.9426C108.865 16.5661 108.381 16.3197 107.757 16.2032ZM106.319 20.3978V16.2032C105.704 16.3197 105.22 16.5661 104.868 16.9426C104.524 17.3101 104.352 17.7627 104.352 18.3005C104.352 18.8383 104.524 19.2954 104.868 19.6718C105.22 20.0393 105.704 20.2813 106.319 20.3978ZM116.475 14.7646C117.398 14.7646 118.194 15.1097 118.863 15.7998C119.523 16.481 119.853 17.3146 119.853 18.3005C119.853 19.2954 119.523 20.1334 118.863 20.8146C118.203 21.4958 117.407 21.8364 116.475 21.8364C115.453 21.8364 114.662 21.4599 114.102 20.707V24.3506H112.636V14.9394H114.102V15.9074C114.653 15.1455 115.445 14.7646 116.475 14.7646ZM114.712 19.8466C115.119 20.2499 115.63 20.4516 116.245 20.4516C116.86 20.4516 117.371 20.2499 117.778 19.8466C118.185 19.4343 118.388 18.9189 118.388 18.3005C118.388 17.682 118.185 17.1712 117.778 16.7678C117.371 16.3555 116.86 16.1494 116.245 16.1494C115.63 16.1494 115.119 16.3555 114.712 16.7678C114.305 17.1712 114.102 17.682 114.102 18.3005C114.102 18.91 114.305 19.4253 114.712 19.8466ZM122.782 17.2249H124.274C125.007 17.2249 125.599 17.4311 126.051 17.8434C126.512 18.2467 126.743 18.78 126.743 19.4432C126.743 20.0976 126.512 20.6308 126.051 21.0432C125.599 21.4554 125.007 21.6616 124.274 21.6616H121.317V14.9394H122.782V17.2249ZM127.557 21.6616V14.9394H129.022V21.6616H127.557ZM122.782 20.3575H124.288C124.577 20.3575 124.817 20.2723 125.007 20.102C125.206 19.9317 125.305 19.7121 125.305 19.4432C125.305 19.1744 125.21 18.9548 125.02 18.7845C124.83 18.6142 124.586 18.529 124.288 18.529H122.782V20.3575ZM60.3717 24.8865H63.8715C64.7669 24.8865 65.513 25.182 66.1099 25.7737C66.7158 26.3653 67.0188 27.1002 67.0188 27.9786C67.0188 28.848 66.7158 29.5829 66.1099 30.1834C65.513 30.775 64.7669 31.0708 63.8715 31.0708H61.9317V34.2975H60.3717V24.8865ZM61.9317 29.6188H63.8715C64.3327 29.6188 64.7127 29.4665 65.011 29.1617C65.3094 28.848 65.4588 28.4536 65.4588 27.9786C65.4588 27.5037 65.3094 27.1138 65.011 26.8089C64.7127 26.4953 64.3327 26.3385 63.8715 26.3385H61.9317V29.6188ZM73.675 33.4504C72.9879 34.1316 72.1423 34.4724 71.1383 34.4724C70.1345 34.4724 69.2889 34.1316 68.6015 33.4504C67.9053 32.7604 67.557 31.9224 67.557 30.9363C67.557 29.9505 67.9053 29.1125 68.6015 28.4223C69.2889 27.741 70.1345 27.4005 71.1383 27.4005C72.1423 27.4005 72.9879 27.741 73.675 28.4223C74.3714 29.1125 74.7195 29.9505 74.7195 30.9363C74.7195 31.9224 74.3714 32.7604 73.675 33.4504ZM69.0221 30.9363C69.0221 31.5458 69.2256 32.0524 69.6327 32.4556C70.0395 32.859 70.5415 33.0605 71.1383 33.0605C71.7352 33.0605 72.2372 32.859 72.6441 32.4556C73.0511 32.0524 73.2545 31.5458 73.2545 30.9363C73.2545 30.3269 73.0511 29.8205 72.6441 29.4171C72.2372 29.0139 71.7352 28.8122 71.1383 28.8122C70.5415 28.8122 70.0395 29.0139 69.6327 29.4171C69.2256 29.8205 69.0221 30.3269 69.0221 30.9363ZM79.3815 34.4724C78.3595 34.4724 77.5048 34.1316 76.8175 33.4504C76.1393 32.7604 75.8003 31.9224 75.8003 30.9363C75.8003 29.9325 76.1393 29.0944 76.8175 28.4223C77.5048 27.741 78.3595 27.4005 79.3815 27.4005C80.0415 27.4005 80.6431 27.5574 81.1856 27.871C81.7281 28.1846 82.1352 28.6059 82.4066 29.1348L81.1448 29.8607C80.9912 29.538 80.756 29.2871 80.4395 29.108C80.1322 28.9198 79.7747 28.8257 79.3679 28.8257C78.7709 28.8257 78.2691 29.0272 77.8621 29.4306C77.4641 29.8429 77.2653 30.3447 77.2653 30.9363C77.2653 31.528 77.4641 32.0298 77.8621 32.442C78.2691 32.8455 78.7709 33.0472 79.3679 33.0472C79.7658 33.0472 80.1231 32.9576 80.4395 32.7782C80.7651 32.5901 81.0094 32.3346 81.1722 32.012L82.4337 32.7245C82.1443 33.2623 81.7238 33.688 81.1722 34.0017C80.6294 34.3153 80.0327 34.4724 79.3815 34.4724ZM86.7237 34.4724C85.7017 34.4724 84.8472 34.1316 84.1599 33.4504C83.4817 32.7604 83.1424 31.9224 83.1424 30.9363C83.1424 29.9325 83.4817 29.0944 84.1599 28.4223C84.8472 27.741 85.7017 27.4005 86.7237 27.4005C87.3839 27.4005 87.9852 27.5574 88.528 27.871C89.0705 28.1846 89.4774 28.6059 89.7487 29.1348L88.4872 29.8607C88.3335 29.538 88.0984 29.2871 87.7819 29.108C87.4743 28.9198 87.1171 28.8257 86.71 28.8257C86.1133 28.8257 85.6113 29.0272 85.2044 29.4306C84.8065 29.8429 84.6075 30.3447 84.6075 30.9363C84.6075 31.528 84.8065 32.0298 85.2044 32.442C85.6113 32.8455 86.1133 33.0472 86.71 33.0472C87.108 33.0472 87.4652 32.9576 87.7819 32.7782C88.1075 32.5901 88.3515 32.3346 88.5143 32.012L89.7758 32.7245C89.4865 33.2623 89.066 33.688 88.5143 34.0017C87.9718 34.3153 87.3748 34.4724 86.7237 34.4724ZM92.4482 31.8371L95.9209 27.5752H97.0467V34.2975H95.609V30.022L92.1361 34.2975H91.0103V27.5752H92.4482V31.8371ZM100.32 31.8371L103.793 27.5752H104.919V34.2975H103.481V30.022L100.008 34.2975H98.8824V27.5752H100.32V31.8371Z" fill="#6E6E70"/>
</g>
<defs>
<clipPath id="clip0_868_196">
<rect width="130" height="44" fill="white"/>
</clipPath>
</defs>
</svg>
