<svg width="50" height="59" viewBox="0 0 50 59" fill="none" xmlns="http://www.w3.org/2000/svg">
<circle cx="25" cy="25" r="25" fill="white"/>
<path d="M25.5 59L18.1388 47.75L32.8612 47.75L25.5 59Z" fill="white"/>
<path fill-rule="evenodd" clip-rule="evenodd" d="M41.5207 25.0599C41.5207 15.8853 34.1449 8.45874 24.9371 8.45874C15.8131 8.45874 8.44922 15.8853 8.44922 25.0599C8.44922 34.3431 15.8131 41.7575 24.9371 41.7575C34.1449 41.7575 41.5207 34.3431 41.5207 25.0599Z" fill="#EF7F1A"/>
<path fill-rule="evenodd" clip-rule="evenodd" d="M7 25.06C7 15.1017 15.0463 7 24.9367 7C34.827 7 42.8733 15.1017 42.8733 25.06C42.8733 35.0182 34.827 43.132 24.9367 43.132C15.0463 43.132 7 35.0182 7 25.06ZM9.3229 25.06C9.3229 33.7524 16.3036 40.781 24.9367 40.781C33.5577 40.781 40.5504 33.7524 40.5504 25.06C40.5504 16.4761 33.5577 9.33887 24.9367 9.33887C16.3036 9.33887 9.3229 16.4761 9.3229 25.06Z" fill="#FEFEFE"/>
<path fill-rule="evenodd" clip-rule="evenodd" d="M17.8486 31.4135L31.1395 25.0599L17.8486 18.8149V15.7888L34.3365 23.6011V26.6272L17.8486 34.4395V31.4135Z" fill="#FEFEFE"/>
</svg>
