<svg width="64" height="64" viewBox="0 0 64 64" fill="none" xmlns="http://www.w3.org/2000/svg">
<circle cx="32" cy="32" r="32" fill="#EF7F1A"/>
<g clip-path="url(#clip0_486_179)">
<path d="M22.7438 43.8633C22.9141 43.9577 23.1066 44.0048 23.3013 43.9997C23.496 43.9946 23.6857 43.9374 23.8509 43.8342L41.3054 32.9252C41.4623 32.8271 41.5917 32.6907 41.6814 32.5289C41.7711 32.3671 41.8181 32.1851 41.8181 32.0001C41.8181 31.8151 41.7711 31.6331 41.6814 31.4712C41.5917 31.3094 41.4623 31.173 41.3054 31.075L23.8509 20.1658C23.6857 20.0626 23.496 20.0055 23.3013 20.0004C23.1066 19.9953 22.9142 20.0424 22.7438 20.1368C22.5735 20.2312 22.4316 20.3694 22.3327 20.5372C22.2339 20.705 22.1818 20.8962 22.1818 21.0909V42.9091C22.1818 43.1038 22.2339 43.295 22.3327 43.4628C22.4315 43.6306 22.5735 43.7689 22.7438 43.8633Z" fill="white"/>
</g>
<defs>
<clipPath id="clip0_486_179">
<rect width="24" height="24" fill="white" transform="translate(20 20)"/>
</clipPath>
</defs>
</svg>
