<svg width="307" height="60" viewBox="0 0 307 60" fill="none" xmlns="http://www.w3.org/2000/svg">
<path fill-rule="evenodd" clip-rule="evenodd" d="M19.8921 37.9929V42.7483H24.6451L19.8921 37.9929ZM50.5469 24.6514V42.7483H55.0337V26.5096L50.5469 24.6514ZM26.2474 11.9296H28.4907V3.03739H26.2474V11.9296ZM0 41.8342L13.4519 28.3785L17.6486 32.5777V14.1746H37.0883V35.564H41.5745V6.50443L57.2764 0V25.0114L77.6662 33.4596V42.9019C81.4821 42.9019 306.732 42.9106 306.732 42.9324L306.73 45.1169C306.73 45.1509 80.1482 45.146 75.4235 45.146V34.9592L57.2764 27.4395V44.9915H48.3042V21.2948L55.0337 24.0828V3.35886L43.8174 8.00505V37.806H34.8458V16.4165H19.8921V34.8209L30.0588 44.9915H17.6486V35.751L13.4519 31.551L0.0152484 44.9915L0 41.8342Z" fill="#817A97"/>
<path d="M111.617 36.8053H106.86V21.3928L99.5863 30.4263L92.3476 21.3928V36.8053H87.5903V12.669H90.4172L99.5863 24.1853L108.79 12.669H111.617V36.8053Z" fill="#00C2AF"/>
<path d="M123.612 22.4269H134.057V26.9095H123.612V32.3227H134.919V36.8053H118.855V12.669H134.919V17.1516H123.612V22.4269Z" fill="#00C2AF"/>
<path d="M145.502 17.1516V36.8053H140.745V12.669H156.36V17.1516H145.502Z" fill="#00C2AF"/>
<path d="M163.909 32.3919L162.186 36.8053H156.912L166.839 12.669H169.632L179.421 36.8053H174.147L172.424 32.3919H163.909ZM168.184 21.2891L165.564 27.875H170.769L168.184 21.2891H168.184Z" fill="#00C2AF"/>
<path d="M202.552 36.8053H197.795V17.1516H188.695V36.8053H183.938V12.669H202.552V36.8053Z" fill="#00C2AF"/>
<path d="M211.411 16.0309C212.553 14.8885 213.908 13.9823 215.4 13.3641C216.892 12.7458 218.491 12.4276 220.106 12.4276C221.721 12.4276 223.32 12.7458 224.812 13.3641C226.304 13.9823 227.66 14.8885 228.802 16.0309C229.965 17.159 230.885 18.5135 231.504 20.0109C232.124 21.5083 232.43 23.1168 232.404 24.7372C232.43 26.3576 232.124 27.9661 231.504 29.4635C230.885 30.9609 229.965 32.3155 228.802 33.4435C227.66 34.5859 226.304 35.492 224.812 36.1102C223.32 36.7285 221.721 37.0467 220.106 37.0467C218.491 37.0467 216.892 36.7285 215.4 36.1102C213.908 35.492 212.553 34.5859 211.411 33.4435C210.252 32.3129 209.336 30.9575 208.72 29.4604C208.104 27.9633 207.799 26.3561 207.826 24.7372C207.799 23.1183 208.104 21.5111 208.72 20.014C209.337 18.5169 210.252 17.1615 211.411 16.0309V16.0309ZM225.475 19.1168C224.046 17.703 222.117 16.9101 220.106 16.9101C218.096 16.9101 216.167 17.703 214.737 19.1168C214.02 19.8613 213.459 20.7425 213.089 21.708C212.719 22.6736 212.547 23.7037 212.583 24.7372C212.544 25.7736 212.714 26.8073 213.085 27.7761C213.455 28.7449 214.017 29.6288 214.737 30.3748C216.176 31.7786 218.105 32.5644 220.115 32.5644C222.124 32.5644 224.054 31.7786 225.492 30.3748C226.213 29.6288 226.775 28.7448 227.145 27.776C227.515 26.8072 227.686 25.7736 227.647 24.7372C227.682 23.7023 227.508 22.6709 227.135 21.705C226.762 20.7392 226.197 19.8588 225.475 19.1168Z" fill="#00C2AF"/>
<path d="M245.366 21.3928L239.368 36.8053H234.093L244.021 12.669H246.813L256.603 36.8053H251.329L245.366 21.3928Z" fill="#00C2AF"/>
<path d="M280.354 36.8053H275.597V21.5997L264.152 36.8053H261.36V12.669H266.118V27.8753L277.527 12.669H280.354V36.8053Z" fill="#00C2AF"/>
<path d="M297.899 12.4276C299.614 12.4026 301.314 12.7468 302.885 13.437C304.455 14.1271 305.858 15.147 307 16.4274L303.897 19.2893C303.108 18.5113 302.17 17.8998 301.14 17.4911C300.109 17.0824 299.007 16.8849 297.899 16.9101C296.902 16.8856 295.91 17.0692 294.987 17.4491C294.064 17.829 293.23 18.397 292.539 19.1168C291.822 19.8613 291.261 20.7425 290.891 21.708C290.521 22.6736 290.349 23.7037 290.385 24.7372C290.345 25.7736 290.516 26.8072 290.886 27.776C291.257 28.7448 291.819 29.6288 292.539 30.3748C293.233 31.0901 294.068 31.654 294.99 32.0308C295.913 32.4076 296.903 32.5893 297.899 32.5644C299.008 32.5982 300.113 32.4045 301.144 31.9953C302.176 31.5861 303.113 30.9701 303.897 30.1852L307 33.047C305.858 34.3274 304.455 35.3472 302.885 36.0373C301.314 36.7275 299.614 37.0717 297.899 37.0467C296.282 37.0737 294.676 36.7678 293.182 36.1479C291.687 35.5281 290.336 34.6076 289.212 33.4435C288.054 32.3129 287.138 30.9575 286.522 29.4604C285.905 27.9633 285.601 26.3561 285.628 24.7372C285.601 23.1183 285.905 21.5111 286.522 20.014C287.138 18.5169 288.054 17.1615 289.212 16.0309C290.336 14.8668 291.687 13.9463 293.182 13.3264C294.676 12.7066 296.282 12.4006 297.899 12.4276Z" fill="#00C2AF"/>
<path d="M2.97287 51.9356C3.40875 51.926 3.84098 52.0171 4.23602 52.2016C4.63106 52.3861 4.97829 52.6592 5.25077 52.9996L4.37201 53.948C4.00028 53.5765 3.49826 53.3649 2.97287 53.3582C2.77774 53.3553 2.58403 53.3917 2.40325 53.4652C2.22246 53.5387 2.0583 53.6478 1.92052 53.786C1.63832 54.0868 1.48125 54.4838 1.48125 54.8963C1.48125 55.3088 1.63832 55.7059 1.92052 56.0067C2.05828 56.1449 2.22243 56.2541 2.40321 56.3277C2.584 56.4012 2.77772 56.4376 2.97287 56.4348C3.49828 56.428 4.0003 56.2163 4.37201 55.8448L5.25077 56.7932C4.97829 57.1337 4.63106 57.4068 4.23603 57.5913C3.84099 57.7759 3.40876 57.8669 2.97287 57.8574C2.58227 57.8646 2.19437 57.7913 1.83332 57.642C1.47227 57.4928 1.1458 57.2708 0.874232 56.9899C0.322341 56.433 0.0126953 55.6806 0.0126953 54.8965C0.0126953 54.1123 0.322341 53.3599 0.874232 52.8031C1.14578 52.5221 1.47225 52.3001 1.8333 52.1509C2.19436 52.0016 2.58227 51.9284 2.97287 51.9356Z" fill="#817A97"/>
<path d="M9.48288 53.4278V57.7876H8.02563V53.4278H6.22217V52.0046H11.2863V53.4278H9.48288Z" fill="#817A97"/>
<path d="M13.7611 52.8261C13.9903 52.5363 14.2846 52.3046 14.6201 52.1499C14.9556 51.9952 15.3229 51.9218 15.692 51.9356C16.0691 51.9258 16.4439 51.9972 16.791 52.1448C17.1381 52.2924 17.4495 52.5129 17.7041 52.7913C18.2181 53.3731 18.5019 54.1228 18.5019 54.8993C18.5019 55.6758 18.2181 56.4255 17.7041 57.0073C17.4504 57.2872 17.1393 57.5091 16.7921 57.6578C16.4448 57.8065 16.0696 57.8785 15.692 57.8689C15.4059 57.8784 15.1211 57.8254 14.8575 57.7135C14.5939 57.6017 14.3579 57.4337 14.1658 57.2212V59.9161H12.6973V52.005H13.6802L13.7611 52.8261ZM15.5417 53.3582C15.3419 53.3581 15.1441 53.3981 14.96 53.476C14.7759 53.5538 14.6094 53.6679 14.4703 53.8114C14.3311 53.9548 14.2222 54.1248 14.1501 54.3112C14.0779 54.4976 14.0439 54.6966 14.0501 54.8964C14.0427 55.1032 14.0785 55.3092 14.1552 55.5014C14.2319 55.6936 14.3477 55.8677 14.4954 56.0126C14.6328 56.1501 14.7959 56.2591 14.9755 56.3336C15.155 56.408 15.3475 56.4463 15.5418 56.4463C15.7362 56.4463 15.9286 56.408 16.1081 56.3336C16.2877 56.2591 16.4508 56.1501 16.5882 56.0126C16.873 55.7122 17.0322 55.3144 17.0333 54.9005C17.0344 54.4865 16.8773 54.0878 16.594 53.786C16.4563 53.6478 16.2921 53.5387 16.1113 53.4652C15.9305 53.3917 15.7368 53.3553 15.5417 53.3582V53.3582Z" fill="#817A97"/>
<path d="M25.5898 57.7879H24.6068L24.5259 56.9668C24.2996 57.257 24.0075 57.4891 23.6737 57.644C23.34 57.7988 22.9741 57.872 22.6065 57.8574C22.2286 57.8668 21.8531 57.7953 21.5051 57.6477C21.1571 57.5001 20.8447 57.2797 20.5888 57.0015C20.0712 56.4214 19.7852 55.6711 19.7852 54.8935C19.7852 54.116 20.0712 53.3657 20.5888 52.7856C20.8438 52.5058 21.156 52.2841 21.5041 52.1354C21.8522 51.9867 22.2281 51.9146 22.6065 51.9238C22.9753 51.9096 23.3421 51.9842 23.6761 52.1412C24.01 52.2982 24.3015 52.5331 24.5259 52.8261L24.6068 52.005H25.5898V57.7879V57.7879ZM22.7454 56.4348C22.9452 56.4349 23.143 56.3948 23.3271 56.3169C23.5111 56.2391 23.6777 56.125 23.8168 55.9815C23.9559 55.838 24.0648 55.668 24.137 55.4816C24.2092 55.2952 24.2432 55.0962 24.237 54.8964C24.2443 54.6897 24.2085 54.4837 24.1319 54.2915C24.0552 54.0994 23.9394 53.9253 23.7918 53.7804C23.6544 53.6429 23.4913 53.5338 23.3117 53.4594C23.1322 53.385 22.9397 53.3467 22.7453 53.3467C22.551 53.3467 22.3585 53.385 22.179 53.4594C21.9994 53.5338 21.8363 53.6429 21.6989 53.7804C21.4141 54.0807 21.2548 54.4785 21.2537 54.8924C21.2526 55.3063 21.4098 55.7049 21.693 56.0067C21.8308 56.145 21.9949 56.2541 22.1757 56.3277C22.3565 56.4012 22.5502 56.4376 22.7454 56.4348V56.4348Z" fill="#817A97"/>
<path d="M30.0417 56.0064L28.6658 57.7876H26.9658L29.221 54.7806L27.0934 52.0046H28.7927L30.0762 53.6009L31.3252 52.0046H33.0134L30.8858 54.8385L33.1521 57.7876H31.4521L30.0417 56.0064Z" fill="#817A97"/>
<path d="M36.8635 51.9238C37.5486 51.9236 38.2125 52.1611 38.7422 52.5956C39.2718 53.0302 39.6344 53.6351 39.7682 54.3072C39.902 54.9792 39.7987 55.6769 39.4758 56.2813C39.153 56.8857 38.6306 57.3594 37.9977 57.6217C37.3649 57.884 36.6606 57.9187 36.005 57.7198C35.3495 57.521 34.7831 57.1009 34.4024 56.5312C34.0218 55.9614 33.8504 55.2773 33.9176 54.5953C33.9847 53.9134 34.2861 53.2758 34.7706 52.7913C35.0418 52.5115 35.3674 52.2902 35.7273 52.141C36.0873 51.9918 36.4739 51.9179 36.8635 51.9238ZM37.91 53.7804C37.7726 53.6428 37.6095 53.5338 37.4299 53.4593C37.2503 53.3849 37.0579 53.3466 36.8635 53.3466C36.6691 53.3466 36.4767 53.3849 36.2971 53.4593C36.1176 53.5338 35.9544 53.6428 35.817 53.7804C35.5322 54.0806 35.373 54.4784 35.3719 54.8923C35.3708 55.3062 35.528 55.7049 35.8112 56.0066C36.0916 56.2811 36.4683 56.4347 36.8606 56.4347C37.2529 56.4347 37.6296 56.2811 37.91 56.0066C38.0578 55.8631 38.1738 55.6901 38.2505 55.4988C38.3272 55.3075 38.3628 55.1023 38.3551 54.8963C38.3625 54.6896 38.3267 54.4836 38.25 54.2915C38.1734 54.0993 38.0576 53.9253 37.91 53.7804Z" fill="#817A97"/>
<path d="M41.4541 52.005H44.4837C45.8095 52.005 46.4725 52.5293 46.4725 53.5779C46.4972 53.8364 46.4327 54.0956 46.2896 54.3124C46.1466 54.5292 45.9336 54.6904 45.6862 54.7693C45.9938 54.8099 46.2742 54.9668 46.4699 55.2076C46.6656 55.4485 46.7617 55.7551 46.7386 56.0646C46.7614 56.3109 46.725 56.5591 46.6325 56.7884C46.5399 57.0178 46.3939 57.2217 46.2066 57.3832C45.693 57.695 45.0941 57.8366 44.4952 57.788H41.4541V52.005ZM42.9226 53.254V54.2833H44.4027C44.8035 54.2757 45.0039 54.1023 45.0041 53.763C45.0041 53.4237 44.7959 53.254 44.3797 53.254H42.9226ZM42.9226 56.5388H44.53C45.0232 56.5388 45.2699 56.3383 45.2699 55.9373C45.2699 55.5518 45.031 55.3552 44.5531 55.3475H42.9226V56.5388Z" fill="#817A97"/>
<path d="M53.7806 57.7879H52.7977L52.7168 56.9668C52.4905 57.257 52.1984 57.4891 51.8646 57.644C51.5309 57.7988 51.1651 57.872 50.7974 57.8574C50.4196 57.8668 50.044 57.7953 49.6961 57.6477C49.3481 57.5001 49.0356 57.2797 48.7798 57.0015C48.2621 56.4214 47.9761 55.6711 47.9761 54.8935C47.9761 54.116 48.2621 53.3657 48.7798 52.7856C49.0348 52.5058 49.3469 52.2841 49.695 52.1354C50.0431 51.9867 50.419 51.9146 50.7974 51.9238C51.1662 51.9096 51.533 51.9842 51.867 52.1412C52.2009 52.2982 52.4924 52.5331 52.7168 52.8261L52.7977 52.005H53.7806V57.7879V57.7879ZM50.9362 56.4348C51.136 56.4349 51.3339 56.3948 51.5179 56.3169C51.702 56.2391 51.8685 56.125 52.0077 55.9815C52.1468 55.838 52.2557 55.668 52.3278 55.4816C52.4 55.2952 52.434 55.0962 52.4278 54.8964C52.4352 54.6897 52.3994 54.4837 52.3227 54.2915C52.2461 54.0994 52.1303 53.9253 51.9827 53.7804C51.8453 53.6429 51.6822 53.5338 51.5026 53.4594C51.323 53.385 51.1306 53.3467 50.9362 53.3467C50.7418 53.3467 50.5494 53.385 50.3698 53.4594C50.1903 53.5338 50.0271 53.6429 49.8897 53.7804C49.6049 54.0807 49.4457 54.4785 49.4446 54.8924C49.4435 55.3063 49.6007 55.7049 49.8839 56.0067C50.0216 56.145 50.1858 56.2541 50.3666 56.3277C50.5473 56.4012 50.7411 56.4376 50.9362 56.4348V56.4348Z" fill="#817A97"/>
<path d="M61.2153 57.7876H59.7463V55.567H57.2256V57.7876H55.7573V52.0046H57.2256V54.1445H59.7463V52.0046H61.2153V57.7876Z" fill="#817A97"/>
<path d="M68.5695 57.7876H67.1012V54.3763L64.1412 57.7876H63.1929V52.0046H64.6612V55.4166L67.6212 52.0046H68.5695V57.7876Z" fill="#817A97"/>
<path d="M73.1015 51.9238C73.6356 51.8846 74.1685 52.0142 74.625 52.2944C75.0814 52.5746 75.4383 52.9912 75.6453 53.4853C75.769 53.7765 75.8358 54.0887 75.8419 54.405C75.8642 54.7076 75.8289 55.0117 75.7379 55.3011H71.7023C71.695 55.4716 71.7284 55.6413 71.7998 55.7962C71.8712 55.9512 71.9785 56.0868 72.1129 56.1919C72.4066 56.4143 72.7681 56.5287 73.1363 56.5157C73.7424 56.5235 74.3414 56.3847 74.8822 56.1109L75.657 56.9551C74.9385 57.5245 74.0527 57.8416 73.1363 57.8574C72.7429 57.8723 72.3508 57.8055 71.9846 57.6612C71.6184 57.5169 71.2861 57.2981 71.0087 57.0188C70.7362 56.7384 70.5231 56.4059 70.382 56.0413C70.2409 55.6766 70.1748 55.2872 70.1876 54.8964C70.1636 54.1115 70.4503 53.3488 70.9854 52.7741C71.2574 52.4901 71.5869 52.2673 71.9517 52.1207C72.3166 51.9741 72.7086 51.907 73.1014 51.9238H73.1015ZM73.1015 53.2657C72.7562 53.2539 72.4194 53.3738 72.1592 53.6011C72.0432 53.6961 71.9479 53.8138 71.8792 53.9471C71.8106 54.0804 71.7701 54.2264 71.7602 54.3761H74.4082C74.4096 54.2113 74.3612 54.0501 74.2694 53.9134C74.1589 53.7034 73.9895 53.5302 73.7821 53.4152C73.5746 53.3001 73.338 53.2482 73.1015 53.2657V53.2657Z" fill="#817A97"/>
<path d="M94.8754 52.005V57.0478C94.8902 57.4359 94.8284 57.8231 94.6935 58.1873C94.5586 58.5514 94.3532 58.8854 94.0891 59.1701C93.8162 59.4483 93.4878 59.6658 93.1251 59.8083C92.7625 59.9508 92.3738 60.0151 91.9846 59.997C91.0484 60.0148 90.137 59.6946 89.4176 59.095L90.2502 58.2043C90.7838 58.4918 91.3786 58.6465 91.9846 58.6554C92.3564 58.6753 92.7226 58.558 93.0137 58.3257C93.1437 58.2071 93.2454 58.0609 93.3114 57.8978C93.3775 57.7347 93.4061 57.5589 93.3953 57.3832V57.013C93.2046 57.2446 92.9614 57.4274 92.6859 57.5461C92.4104 57.6648 92.1105 57.716 91.8112 57.6955C91.4608 57.7176 91.1099 57.6604 90.7846 57.5282C90.4593 57.3961 90.1679 57.1923 89.9321 56.932C89.4714 56.3481 89.2391 55.6162 89.2788 54.8733V52.005H90.7473V54.7923C90.7473 55.7793 91.1791 56.2728 92.0425 56.2728C92.2291 56.2837 92.4158 56.2536 92.5896 56.1846C92.7633 56.1157 92.9199 56.0096 93.0483 55.8737C93.3129 55.5289 93.4406 55.0984 93.4068 54.6651V52.005L94.8754 52.005Z" fill="#817A97"/>
<path d="M99.4082 51.9356C99.844 51.926 100.276 52.0171 100.671 52.2016C101.066 52.3861 101.414 52.6592 101.686 52.9996L100.807 53.948C100.436 53.5765 99.9336 53.3649 99.4082 53.3582C99.213 53.3553 99.0193 53.3917 98.8385 53.4652C98.6578 53.5387 98.4936 53.6478 98.3558 53.786C98.0736 54.0868 97.9166 54.4838 97.9166 54.8963C97.9166 55.3088 98.0736 55.7059 98.3558 56.0067C98.4936 56.1449 98.6577 56.2541 98.8385 56.3276C99.0193 56.4012 99.213 56.4376 99.4082 56.4348C99.9336 56.428 100.436 56.2163 100.807 55.8448L101.686 56.7932C101.367 57.1776 100.957 57.4753 100.492 57.6585C100.028 57.8418 99.5246 57.9048 99.0294 57.8416C98.5341 57.7783 98.0629 57.591 97.6593 57.297C97.2558 57.003 96.933 56.6117 96.721 56.1596C96.509 55.7075 96.4145 55.2091 96.4465 54.7107C96.4785 54.2123 96.6358 53.7301 96.9038 53.3088C97.1718 52.8874 97.5419 52.5407 97.9797 52.3006C98.4175 52.0606 98.9089 51.935 99.4082 51.9356Z" fill="#817A97"/>
<path d="M105.802 54.168L104.218 57.7876H102.657L105.328 52.0046H106.277L108.948 57.7876H107.398L105.802 54.168Z" fill="#817A97"/>
<path d="M115.607 52.005V57.0478C115.622 57.4359 115.56 57.8231 115.425 58.1872C115.29 58.5514 115.085 58.8854 114.821 59.1701C114.548 59.4483 114.22 59.6658 113.857 59.8083C113.494 59.9508 113.106 60.0151 112.717 59.997C111.78 60.0148 110.869 59.6945 110.15 59.095L110.982 58.2043C111.516 58.4917 112.111 58.6465 112.717 58.6554C113.088 58.6752 113.455 58.5579 113.746 58.3257C113.876 58.2071 113.977 58.0609 114.043 57.8978C114.109 57.7347 114.138 57.5588 114.127 57.3832V57.013C113.937 57.2446 113.693 57.4274 113.418 57.5461C113.142 57.6648 112.842 57.716 112.543 57.6955C112.193 57.7176 111.842 57.6604 111.517 57.5282C111.191 57.3961 110.9 57.1923 110.664 56.932C110.203 56.3481 109.971 55.6162 110.011 54.8733V52.005H111.479V54.7923C111.479 55.7793 111.911 56.2728 112.774 56.2728C112.961 56.2837 113.148 56.2536 113.322 56.1846C113.495 56.1157 113.652 56.0096 113.78 55.8737C114.045 55.5289 114.173 55.0984 114.139 54.6651V52.005L115.607 52.005Z" fill="#817A97"/>
<path d="M118.995 53.4278V57.7876H117.527V52.0046H121.863V53.4278H118.995Z" fill="#817A97"/>
<path d="M128.651 57.7876H127.182V54.3763L124.222 57.7876H123.274V52.0046H124.742V55.4166L127.702 52.0046H128.651V57.7876Z" fill="#817A97"/>
<path d="M135.635 52.8261C135.864 52.5363 136.158 52.3046 136.494 52.1499C136.829 51.9952 137.196 51.9218 137.566 51.9356C137.943 51.9258 138.317 51.9972 138.665 52.1448C139.012 52.2924 139.323 52.5129 139.578 52.7913C140.092 53.3731 140.375 54.1228 140.375 54.8993C140.375 55.6758 140.092 56.4255 139.578 57.0073C139.324 57.2872 139.013 57.5091 138.666 57.6578C138.318 57.8065 137.943 57.8785 137.566 57.8689C137.279 57.8784 136.995 57.8254 136.731 57.7135C136.467 57.6017 136.231 57.4337 136.039 57.2212V59.9161H134.571V52.005H135.554L135.635 52.8261ZM137.415 53.3582C137.215 53.3581 137.018 53.3981 136.834 53.476C136.649 53.5538 136.483 53.6679 136.344 53.8113C136.205 53.9548 136.096 54.1248 136.024 54.3112C135.951 54.4976 135.917 54.6966 135.924 54.8964C135.916 55.1032 135.952 55.3092 136.029 55.5014C136.105 55.6936 136.221 55.8677 136.369 56.0126C136.506 56.1501 136.669 56.2591 136.849 56.3336C137.029 56.408 137.221 56.4463 137.415 56.4463C137.61 56.4463 137.802 56.408 137.982 56.3336C138.161 56.2591 138.324 56.1501 138.462 56.0126C138.747 55.7122 138.906 55.3144 138.907 54.9005C138.908 54.4865 138.751 54.0878 138.468 53.786C138.33 53.6478 138.166 53.5387 137.985 53.4652C137.804 53.3917 137.61 53.3553 137.415 53.3582V53.3582Z" fill="#817A97"/>
<path d="M147.382 57.7876H145.914V54.3763L142.954 57.7876H142.006V52.0046H143.474V55.4166L146.434 52.0046H147.382V57.7876Z" fill="#817A97"/>
<path d="M151.221 51.9356C151.719 51.9365 152.209 52.0629 152.645 52.3032C153.081 52.5435 153.449 52.89 153.716 53.3105C153.983 53.7311 154.139 54.2121 154.17 54.7091C154.202 55.2061 154.108 55.703 153.896 56.1539C153.685 56.6048 153.363 56.995 152.961 57.2885C152.559 57.582 152.089 57.7693 151.595 57.833C151.101 57.8968 150.6 57.8349 150.136 57.6531C149.672 57.4714 149.262 57.1756 148.943 56.7932L149.822 55.8448C150.194 56.2163 150.696 56.428 151.221 56.4348C151.539 56.4368 151.848 56.3331 152.1 56.1399C152.358 55.9494 152.539 55.6722 152.609 55.3591H150.817V54.4337H152.609C152.539 54.1207 152.358 53.8434 152.1 53.6531C151.848 53.4598 151.539 53.3561 151.221 53.3582C150.696 53.3649 150.194 53.5765 149.822 53.948L148.943 52.9996C149.216 52.6592 149.563 52.3861 149.958 52.2016C150.353 52.017 150.785 51.926 151.221 51.9356Z" fill="#817A97"/>
<path d="M158.355 54.168L156.771 57.7876H155.21L157.882 52.0046H158.829L161.5 57.7876H159.951L158.355 54.168Z" fill="#817A97"/>
<path d="M165.166 53.4278V57.7876H163.709V53.4278H161.905V52.0046H166.97V53.4278H165.166Z" fill="#817A97"/>
<path d="M170.843 51.9238C171.528 51.9236 172.192 52.1611 172.722 52.5957C173.251 53.0303 173.614 53.6351 173.748 54.3072C173.882 54.9793 173.778 55.6769 173.455 56.2813C173.133 56.8857 172.61 57.3594 171.977 57.6217C171.344 57.8841 170.64 57.9187 169.985 57.7199C169.329 57.521 168.763 57.1009 168.382 56.5312C168.001 55.9615 167.83 55.2773 167.897 54.5954C167.964 53.9134 168.266 53.2758 168.75 52.7913C169.021 52.5115 169.347 52.2902 169.707 52.141C170.067 51.9918 170.453 51.9179 170.843 51.9238ZM171.89 53.7804C171.752 53.6428 171.589 53.5338 171.409 53.4593C171.23 53.3849 171.037 53.3466 170.843 53.3466C170.649 53.3466 170.456 53.3849 170.277 53.4593C170.097 53.5338 169.934 53.6428 169.797 53.7804C169.512 54.0806 169.353 54.4784 169.351 54.8923C169.35 55.3062 169.507 55.7048 169.791 56.0066C170.071 56.281 170.448 56.4347 170.84 56.4347C171.232 56.4347 171.609 56.281 171.89 56.0066C172.037 55.8631 172.153 55.6901 172.23 55.4988C172.307 55.3075 172.342 55.1023 172.335 54.8963C172.342 54.6896 172.306 54.4836 172.23 54.2915C172.153 54.0993 172.037 53.9253 171.89 53.7804Z" fill="#817A97"/>
<path d="M176.475 52.8261C176.704 52.5363 176.998 52.3046 177.333 52.1499C177.669 51.9952 178.036 51.9218 178.405 51.9356C178.782 51.9258 179.157 51.9972 179.504 52.1448C179.851 52.2924 180.163 52.5129 180.417 52.7913C180.932 53.3731 181.215 54.1228 181.215 54.8993C181.215 55.6758 180.932 56.4255 180.417 57.0073C180.164 57.2872 179.853 57.5091 179.505 57.6578C179.158 57.8065 178.783 57.8785 178.405 57.8689C178.119 57.8784 177.834 57.8254 177.571 57.7135C177.307 57.6017 177.071 57.4337 176.879 57.2212V59.9161H175.411V52.005H176.394L176.475 52.8261H176.475ZM178.255 53.3582C178.055 53.3581 177.857 53.3981 177.673 53.476C177.489 53.5538 177.323 53.6679 177.184 53.8113C177.044 53.9548 176.936 54.1248 176.863 54.3112C176.791 54.4976 176.757 54.6966 176.763 54.8964C176.756 55.1032 176.792 55.3092 176.869 55.5014C176.945 55.6936 177.061 55.8677 177.209 56.0126C177.346 56.1501 177.509 56.2591 177.689 56.3336C177.868 56.408 178.061 56.4463 178.255 56.4463C178.45 56.4463 178.642 56.408 178.821 56.3336C179.001 56.2591 179.164 56.1501 179.302 56.0126C179.586 55.7122 179.746 55.3144 179.747 54.9005C179.748 54.4865 179.591 54.0878 179.307 53.786C179.17 53.6478 179.005 53.5387 178.825 53.4652C178.644 53.3917 178.45 53.3553 178.255 53.3582V53.3582Z" fill="#817A97"/>
<path d="M188.303 57.7879H187.32L187.239 56.9668C187.013 57.257 186.721 57.4891 186.387 57.644C186.053 57.7988 185.688 57.872 185.32 57.8574C184.942 57.8668 184.566 57.7953 184.218 57.6477C183.871 57.5001 183.558 57.2797 183.302 57.0015C182.785 56.4214 182.499 55.6711 182.499 54.8935C182.499 54.116 182.785 53.3657 183.302 52.7856C183.557 52.5058 183.869 52.2841 184.217 52.1354C184.566 51.9867 184.941 51.9146 185.32 51.9238C185.689 51.9096 186.055 51.9842 186.389 52.1412C186.723 52.2982 187.015 52.5331 187.239 52.8261L187.32 52.005H188.303V57.7879L188.303 57.7879ZM185.459 56.4348C185.658 56.4349 185.856 56.3948 186.04 56.3169C186.224 56.2391 186.391 56.125 186.53 55.9815C186.669 55.838 186.778 55.668 186.85 55.4816C186.922 55.2952 186.956 55.0962 186.95 54.8964C186.958 54.6897 186.922 54.4837 186.845 54.2915C186.769 54.0994 186.653 53.9253 186.505 53.7804C186.368 53.6429 186.205 53.5338 186.025 53.4594C185.845 53.385 185.653 53.3467 185.459 53.3467C185.264 53.3467 185.072 53.385 184.892 53.4594C184.713 53.5338 184.55 53.6429 184.412 53.7804C184.127 54.0807 183.968 54.4785 183.967 54.8924C183.966 55.3063 184.123 55.7049 184.406 56.0067C184.544 56.145 184.708 56.2541 184.889 56.3277C185.07 56.4012 185.264 56.4376 185.459 56.4348V56.4348Z" fill="#817A97"/>
<path d="M208.284 58.8638H206.816V57.7876H201.971V52.0046H203.439V56.3651H205.879V52.0046H207.347V56.3651H208.284V58.8638Z" fill="#817A97"/>
<path d="M212.216 51.9238C212.75 51.8846 213.283 52.0142 213.739 52.2944C214.196 52.5746 214.553 52.9912 214.759 53.4853C214.883 53.7765 214.95 54.0887 214.956 54.405C214.978 54.7076 214.943 55.0117 214.852 55.3011H210.817C210.809 55.4716 210.843 55.6413 210.914 55.7962C210.985 55.9512 211.093 56.0868 211.227 56.1919C211.521 56.4143 211.882 56.5287 212.251 56.5157C212.857 56.5235 213.456 56.3847 213.996 56.1109L214.771 56.9551C214.053 57.5245 213.167 57.8416 212.251 57.8574C211.857 57.8723 211.465 57.8055 211.099 57.6612C210.733 57.5169 210.4 57.2981 210.123 57.0188C209.85 56.7384 209.637 56.4059 209.496 56.0413C209.355 55.6766 209.289 55.2872 209.302 54.8964C209.278 54.1115 209.565 53.3488 210.1 52.7741C210.372 52.4901 210.701 52.2673 211.066 52.1207C211.431 51.9741 211.823 51.907 212.216 51.9238H212.216ZM212.216 53.2657C211.87 53.2539 211.534 53.3738 211.273 53.6011C211.157 53.6961 211.062 53.8138 210.993 53.9471C210.925 54.0804 210.884 54.2264 210.874 54.3761H213.522C213.524 54.2113 213.475 54.0501 213.384 53.9134C213.273 53.7034 213.104 53.5302 212.896 53.4152C212.689 53.3001 212.452 53.2482 212.216 53.2657V53.2657Z" fill="#817A97"/>
<path d="M218.992 54.168L217.407 57.7876H215.847L218.517 52.0046H219.465L222.136 57.7876H220.587L218.992 54.168Z" fill="#817A97"/>
<path d="M225.709 51.9238C226.243 51.8846 226.776 52.0142 227.233 52.2944C227.689 52.5746 228.046 52.9912 228.253 53.4853C228.377 53.7765 228.444 54.0887 228.45 54.405C228.472 54.7076 228.437 55.0117 228.346 55.3011H224.31C224.303 55.4716 224.336 55.6413 224.408 55.7962C224.479 55.9512 224.586 56.0868 224.721 56.1919C225.015 56.4143 225.376 56.5287 225.744 56.5157C226.35 56.5235 226.949 56.3847 227.49 56.1109L228.265 56.9551C227.546 57.5245 226.661 57.8416 225.744 57.8574C225.351 57.8723 224.959 57.8055 224.592 57.6612C224.226 57.5169 223.894 57.2981 223.617 57.0188C223.344 56.7384 223.131 56.4059 222.99 56.0413C222.849 55.6766 222.783 55.2872 222.796 54.8964C222.772 54.1115 223.058 53.3488 223.593 52.7741C223.865 52.4901 224.195 52.2673 224.56 52.1207C224.925 51.9741 225.316 51.907 225.709 51.9238H225.709ZM225.709 53.2657C225.364 53.2539 225.027 53.3738 224.767 53.6011C224.651 53.6961 224.556 53.8138 224.487 53.9471C224.418 54.0804 224.378 54.2264 224.368 54.3761H227.016C227.017 54.2113 226.969 54.0501 226.877 53.9134C226.767 53.7034 226.597 53.5302 226.39 53.4152C226.182 53.3001 225.946 53.2482 225.709 53.2657Z" fill="#817A97"/>
<path d="M230.196 52.005H233.225C234.551 52.005 235.214 52.5293 235.214 53.5779C235.239 53.8364 235.174 54.0957 235.031 54.3124C234.888 54.5292 234.675 54.6904 234.428 54.7693C234.735 54.8099 235.016 54.9668 235.212 55.2076C235.407 55.4485 235.503 55.7551 235.48 56.0646C235.503 56.3109 235.467 56.5591 235.374 56.7884C235.282 57.0178 235.136 57.2217 234.948 57.3832C234.435 57.695 233.836 57.8366 233.237 57.788H230.196V52.005ZM231.664 53.254V54.2833H233.144C233.545 54.2757 233.746 54.1023 233.746 53.763C233.746 53.4237 233.538 53.254 233.121 53.254H231.664ZM231.664 56.5388H233.272C233.765 56.5388 234.012 56.3383 234.012 55.9373C234.012 55.5518 233.773 55.3552 233.295 55.3475H231.664V56.5388Z" fill="#817A97"/>
<path d="M238.591 53.6705H239.932C240.349 53.6604 240.765 53.727 241.158 53.8671C241.452 53.9666 241.712 54.1469 241.909 54.3876C242.06 54.5827 242.177 54.8015 242.256 55.0352C242.395 55.4875 242.395 55.971 242.256 56.4232C242.177 56.6569 242.06 56.8758 241.909 57.0709C241.712 57.3115 241.452 57.4919 241.158 57.5914C240.765 57.7315 240.349 57.7981 239.932 57.7879H237.122V52.005H238.591V53.6705H238.591ZM244.384 57.7879H242.915V52.005H244.384V57.7879ZM238.591 56.4117H240.094C240.626 56.4117 240.892 56.1842 240.892 55.7292C240.892 55.2742 240.626 55.0467 240.094 55.0468H238.591V56.4117Z" fill="#817A97"/>
<path d="M248.916 51.9238C249.45 51.8846 249.983 52.0142 250.44 52.2944C250.896 52.5746 251.253 52.9912 251.46 53.4853C251.584 53.7765 251.651 54.0887 251.657 54.405C251.679 54.7076 251.644 55.0117 251.553 55.3011H247.517C247.51 55.4716 247.543 55.6413 247.615 55.7962C247.686 55.9512 247.793 56.0868 247.928 56.1919C248.221 56.4143 248.583 56.5287 248.951 56.5157C249.557 56.5235 250.156 56.3847 250.697 56.1109L251.472 56.9551C250.753 57.5245 249.868 57.8416 248.951 57.8574C248.558 57.8723 248.166 57.8055 247.8 57.6612C247.433 57.5169 247.101 57.2981 246.824 57.0188C246.551 56.7384 246.338 56.406 246.197 56.0413C246.056 55.6766 245.99 55.2872 246.003 54.8964C245.979 54.1115 246.265 53.3488 246.8 52.7741C247.072 52.4901 247.402 52.2673 247.767 52.1207C248.132 51.9741 248.524 51.907 248.916 51.9238H248.916ZM248.916 53.2657C248.571 53.2539 248.234 53.3738 247.974 53.6011C247.858 53.6961 247.763 53.8138 247.694 53.9471C247.625 54.0804 247.585 54.2264 247.575 54.3761H250.223C250.224 54.2113 250.176 54.05 250.084 53.9134C249.974 53.7034 249.804 53.5302 249.597 53.4152C249.389 53.3001 249.153 53.2482 248.916 53.2657Z" fill="#817A97"/>
<path d="M261.324 57.7879L260.329 56.2496C260.201 56.0292 260.035 55.8334 259.838 55.6714C259.655 55.5604 259.444 55.5079 259.231 55.521H258.826V57.7879H257.357V52.005H258.826V54.1099H259.184C259.396 54.1235 259.606 54.071 259.786 53.9595C259.979 53.7959 260.144 53.6004 260.271 53.3813L261.173 52.005H262.804L261.509 53.9595C261.32 54.3125 261.035 54.6051 260.688 54.8039C261.064 54.9943 261.371 55.2976 261.566 55.6714L262.954 57.7879L261.324 57.7879Z" fill="#817A97"/>
<path d="M265.347 52.8261C265.576 52.5363 265.871 52.3046 266.206 52.1499C266.542 51.9952 266.909 51.9218 267.278 51.9356C267.655 51.9258 268.03 51.9972 268.377 52.1448C268.724 52.2924 269.035 52.5129 269.29 52.7913C269.804 53.3731 270.088 54.1228 270.088 54.8993C270.088 55.6758 269.804 56.4255 269.29 57.0073C269.036 57.2872 268.725 57.5091 268.378 57.6578C268.031 57.8065 267.656 57.8785 267.278 57.8689C266.992 57.8784 266.707 57.8254 266.443 57.7135C266.18 57.6017 265.944 57.4337 265.752 57.2212V59.9161H264.283V52.005H265.266L265.347 52.8261H265.347ZM267.128 53.3582C266.928 53.3581 266.73 53.3981 266.546 53.476C266.362 53.5538 266.195 53.6679 266.056 53.8114C265.917 53.9548 265.808 54.1248 265.736 54.3112C265.664 54.4976 265.63 54.6966 265.636 54.8964C265.629 55.1032 265.664 55.3092 265.741 55.5014C265.818 55.6936 265.934 55.8677 266.081 56.0126C266.219 56.1501 266.382 56.2591 266.561 56.3336C266.741 56.408 266.933 56.4463 267.128 56.4463C267.322 56.4463 267.515 56.408 267.694 56.3336C267.874 56.2591 268.037 56.1501 268.174 56.0126C268.459 55.7122 268.618 55.3144 268.619 54.9005C268.62 54.4865 268.463 54.0878 268.18 53.786C268.042 53.6478 267.878 53.5387 267.697 53.4652C267.516 53.3917 267.323 53.3553 267.128 53.3582V53.3582Z" fill="#817A97"/>
<path d="M274.285 51.9238C274.819 51.8846 275.352 52.0142 275.809 52.2944C276.265 52.5746 276.622 52.9912 276.829 53.4853C276.953 53.7765 277.019 54.0887 277.025 54.405C277.048 54.7076 277.012 55.0117 276.921 55.3011H272.886C272.879 55.4716 272.912 55.6413 272.983 55.7962C273.055 55.9512 273.162 56.0868 273.296 56.1919C273.59 56.4143 273.952 56.5287 274.32 56.5157C274.926 56.5235 275.525 56.3847 276.066 56.1109L276.841 56.9551C276.122 57.5245 275.236 57.8416 274.32 57.8574C273.927 57.8723 273.534 57.8055 273.168 57.6612C272.802 57.5169 272.47 57.2981 272.192 57.0188C271.92 56.7384 271.707 56.4059 271.566 56.0413C271.425 55.6766 271.358 55.2872 271.371 54.8964C271.347 54.1115 271.634 53.3488 272.169 52.7741C272.441 52.4901 272.77 52.2673 273.135 52.1207C273.5 51.9741 273.892 51.907 274.285 51.9238H274.285ZM274.285 53.2657C273.94 53.2539 273.603 53.3738 273.343 53.6011C273.227 53.6961 273.131 53.8138 273.063 53.9471C272.994 54.0804 272.954 54.2264 272.944 54.376H275.592C275.593 54.2113 275.545 54.0501 275.453 53.9134C275.342 53.7034 275.173 53.5302 274.966 53.4152C274.758 53.3001 274.522 53.2482 274.285 53.2657Z" fill="#817A97"/>
<path d="M284.912 58.8636H283.443V57.7879H279.639V58.8636H278.17V56.3653H279.049L281.061 52.005H282.009L284.021 56.3653H284.912V58.8636H284.912ZM281.535 54.1678L280.552 56.3653H282.518L281.535 54.1678Z" fill="#817A97"/>
<path d="M291.641 57.7876H290.173V54.3763L287.213 57.7876H286.265V52.0046H287.733V55.4166L290.693 52.0046H291.641V57.7876Z" fill="#817A97"/>
<path d="M296.266 53.4278V57.7876H294.809V53.4278H293.006V52.0046H298.07V53.4278H296.266Z" fill="#817A97"/>
<path d="M300.891 53.6705H302.233C302.65 53.6604 303.065 53.727 303.458 53.8671C303.753 53.9666 304.013 54.147 304.21 54.3876C304.361 54.5827 304.478 54.8015 304.557 55.0352C304.696 55.4875 304.696 55.971 304.557 56.4232C304.478 56.6569 304.361 56.8758 304.21 57.0709C304.013 57.3115 303.753 57.4919 303.458 57.5914C303.065 57.7314 302.65 57.7981 302.233 57.7879H299.423V52.005H300.891V53.6705ZM306.684 57.7879H305.216V52.005H306.684V57.7879ZM300.891 56.4117H302.395C302.926 56.4117 303.192 56.1842 303.192 55.7292C303.192 55.2742 302.926 55.0467 302.395 55.0468H300.891V56.4117Z" fill="#817A97"/>
<path fill-rule="evenodd" clip-rule="evenodd" d="M80.0426 54.79C80.0406 54.483 80.1054 54.1794 80.2326 53.9001C80.3524 53.6235 80.5255 53.3732 80.7418 53.1634C80.9598 52.952 81.2138 52.7813 81.4918 52.6593C81.777 52.5305 82.0869 52.4657 82.3998 52.4694C82.7108 52.4676 83.0185 52.5324 83.3024 52.6593C83.5782 52.7779 83.8283 52.9492 84.0387 53.1634C84.2503 53.3749 84.4194 53.625 84.537 53.9001C84.6592 54.1808 84.7217 54.4838 84.7205 54.79C84.7224 55.1065 84.66 55.4201 84.537 55.7118C84.418 55.9937 84.2492 56.2518 84.0387 56.4739C83.8284 56.698 83.5746 56.8767 83.2927 56.9992C83.0109 57.1217 82.7071 57.1854 82.3998 57.1862C82.0868 57.1895 81.7769 57.1243 81.4918 56.995C81.2105 56.8714 80.9558 56.6944 80.7418 56.4739C80.5265 56.2535 80.3539 55.9951 80.2326 55.7118C80.1046 55.4215 80.0398 55.1073 80.0426 54.79Z" fill="#00C2AF"/>
<path fill-rule="evenodd" clip-rule="evenodd" d="M192.659 54.9081C192.657 54.6011 192.722 54.2973 192.85 54.018C192.969 53.7414 193.142 53.4912 193.359 53.2816C193.577 53.0701 193.83 52.8993 194.108 52.7773C194.394 52.6486 194.704 52.5839 195.017 52.5875C195.327 52.5857 195.635 52.6504 195.919 52.7773C196.195 52.896 196.445 53.0673 196.656 53.2816C196.867 53.493 197.036 53.743 197.154 54.018C197.276 54.2987 197.338 54.6019 197.337 54.9081C197.339 55.2247 197.277 55.5383 197.154 55.8299C197.035 56.1118 196.866 56.3699 196.656 56.592C196.445 56.8161 196.191 56.9948 195.91 57.1173C195.628 57.2398 195.324 57.3034 195.017 57.3044C194.704 57.3075 194.394 57.2422 194.108 57.1131C193.827 56.9896 193.573 56.8126 193.359 56.592C193.143 56.3717 192.971 56.1133 192.85 55.8299C192.721 55.5397 192.656 55.2254 192.659 54.9081Z" fill="#00C2AF"/>
</svg>
