<svg width="22" height="22" viewBox="0 0 22 22" fill="none" xmlns="http://www.w3.org/2000/svg">
<g clip-path="url(#clip0_431_2499)">
<path d="M18.8329 5.03958L17.5633 3.49958C17.4331 3.34397 17.2705 3.21865 17.0868 3.13237C16.9032 3.04608 16.7029 3.00091 16.5 3H5.5C5.07375 3 4.69333 3.19708 4.44125 3.49958L3.17167 5.03958C2.90583 5.36042 2.75 5.76375 2.75 6.20833V17.6667C2.75 18.6796 3.57042 19.5 4.58333 19.5H17.4167C18.4296 19.5 19.25 18.6796 19.25 17.6667V6.20833C19.25 5.76375 19.0942 5.36042 18.8329 5.03958ZM11 16.2917L5.95833 11.25H9.16667V9.41667H12.8333V11.25H16.0417L11 16.2917ZM4.69792 4.83333L5.445 3.91667H16.445L17.3021 4.83333H4.69792Z" fill="#329BF8"/>
</g>
<defs>
<clipPath id="clip0_431_2499">
<rect width="22" height="22" fill="white"/>
</clipPath>
</defs>
</svg>
