<svg width="20" height="20" viewBox="0 0 20 20" fill="none" xmlns="http://www.w3.org/2000/svg">
<path d="M10.7681 2.5C10.6363 2.50511 10.5104 2.55644 10.4125 2.645L5.66252 6.595C5.58496 6.67202 5.49097 6.73048 5.3876 6.76598C5.28423 6.80149 5.17415 6.81312 5.06564 6.8H2.00502C1.90568 6.79933 1.80721 6.81841 1.71531 6.85612C1.62341 6.89382 1.53991 6.94941 1.46967 7.01965C1.39943 7.08989 1.34384 7.17339 1.30613 7.26529C1.26843 7.35719 1.24935 7.45567 1.25002 7.555V12.4462C1.24952 12.5455 1.26872 12.6438 1.3065 12.7356C1.34428 12.8273 1.39989 12.9107 1.47012 12.9808C1.54034 13.0509 1.62378 13.1064 1.7156 13.144C1.80742 13.1816 1.90579 13.2007 2.00502 13.2H5.06252C5.17103 13.1869 5.2811 13.1985 5.38448 13.234C5.48785 13.2695 5.58184 13.328 5.65939 13.405L10.4094 17.355C10.735 17.6256 11.085 17.495 11.085 17.1744V2.82625C11.0875 2.78356 11.081 2.74083 11.0661 2.70077C11.0511 2.66071 11.028 2.62418 10.9982 2.59351C10.9685 2.56284 10.9326 2.53869 10.893 2.5226C10.8534 2.5065 10.8109 2.4988 10.7681 2.5ZM16.875 3.9375L15.7556 5.05812C16.7008 6.53657 17.203 8.25464 17.203 10.0094C17.203 11.7641 16.7008 13.4822 15.7556 14.9606L16.8713 16.0706C18.0944 14.2841 18.7491 12.1697 18.7498 10.0046C18.7505 7.83955 18.097 5.72478 16.875 3.9375ZM14.1669 6.63937L13.0656 7.75C13.5546 8.40261 13.8188 9.19611 13.8188 10.0116C13.8188 10.827 13.5546 11.6205 13.0656 12.2731L14.1631 13.3706C14.9353 12.4193 15.3572 11.2316 15.3584 10.0064C15.3595 8.78119 14.9398 7.59275 14.1694 6.64L14.1669 6.63937Z" fill="#257FCE"/>
</svg>
