<svg width="27" height="26" viewBox="0 0 27 26" fill="none" xmlns="http://www.w3.org/2000/svg">
<g id="Calendar">
<path id="Vector" d="M6.75 13H10.1251V15.2501H6.75V13ZM11.8124 13H15.1876V15.2501H11.8124V13ZM16.8749 13H20.25V15.2501H16.8749V13ZM6.75 16.7499H10.1251V19H6.75V16.7499ZM11.8124 16.7499H15.1876V19H11.8124V16.7499ZM16.8749 16.7499H20.25V19H16.8749V16.7499Z" fill="#3A3A3A"/>
<path id="Vector_2" d="M20.9999 5.49985H18.7499V4H17.2501V5.50007H9.74993V4H8.25007V5.50007H6.00007C5.17522 5.50007 4.5 6.1753 4.5 7.00015V22H22.5V6.99992C22.5 6.17508 21.8248 5.49985 20.9999 5.49985ZM20.9999 20.4999H6.00007V11.4999H20.9999V20.4999ZM6.00007 9.99985V6.99992H8.25007V8.5H9.74993V6.99992H17.2501V8.5H18.7499V6.99992H20.9999V9.99985H6.00007Z" fill="#3A3A3A"/>
</g>
</svg>
