<svg width="26" height="28" viewBox="0 0 26 28" fill="none" xmlns="http://www.w3.org/2000/svg">
<path d="M9.19156 25.7094V21.6203C9.19154 20.5841 10.0341 19.7422 11.0778 19.7357H14.9101C15.9584 19.7357 16.8083 20.5795 16.8083 21.6203V25.6976C16.8083 26.5963 17.5386 27.3267 18.4438 27.3333H21.0584C22.2794 27.3364 23.4516 26.857 24.3161 26.0009C25.1807 25.1448 25.6666 23.9823 25.6666 22.77V11.1544C25.6666 10.1751 25.2293 9.24624 24.4727 8.61796L15.5906 1.56565C14.0379 0.332123 11.8204 0.37197 10.3138 1.66047L1.6226 8.61796C0.830239 9.22772 0.356655 10.1594 0.333252 11.1544V22.7581C0.333252 25.2849 2.39643 27.3333 4.94148 27.3333H7.49631C7.93215 27.3364 8.35123 27.1667 8.66055 26.8619C8.96986 26.557 9.14382 26.1422 9.14381 25.7094H9.19156Z" fill="white"/>
</svg>
