<svg width="21" height="21" viewBox="0 0 21 21" fill="none" xmlns="http://www.w3.org/2000/svg">
<path d="M13.5 4H7.5C6.57205 4.00099 5.68238 4.37006 5.02622 5.02622C4.37006 5.68238 4.00099 6.57205 4 7.5V13.5C4.00099 14.428 4.37006 15.3176 5.02622 15.9738C5.68238 16.6299 6.57205 16.999 7.5 17H13.5C14.428 16.999 15.3176 16.6299 15.9738 15.9738C16.6299 15.3176 16.999 14.428 17 13.5V7.5C16.999 6.57205 16.6299 5.68238 15.9738 5.02622C15.3176 4.37006 14.428 4.00099 13.5 4ZM10.5 13.5C9.90666 13.5 9.32664 13.3241 8.83329 12.9944C8.33994 12.6648 7.95542 12.1962 7.72836 11.6481C7.5013 11.0999 7.44189 10.4967 7.55764 9.91473C7.6734 9.33279 7.95912 8.79824 8.37868 8.37868C8.79824 7.95912 9.33279 7.6734 9.91473 7.55764C10.4967 7.44189 11.0999 7.5013 11.6481 7.72836C12.1962 7.95542 12.6648 8.33994 12.9944 8.83329C13.3241 9.32664 13.5 9.90666 13.5 10.5C13.4992 11.2954 13.1828 12.058 12.6204 12.6204C12.058 13.1828 11.2954 13.4992 10.5 13.5ZM14.25 7.5C14.1017 7.5 13.9567 7.45601 13.8333 7.3736C13.71 7.29119 13.6139 7.17406 13.5571 7.03701C13.5003 6.89997 13.4855 6.74917 13.5144 6.60368C13.5434 6.4582 13.6148 6.32456 13.7197 6.21967C13.8246 6.11478 13.9582 6.04335 14.1037 6.01441C14.2492 5.98547 14.4 6.00032 14.537 6.05709C14.6741 6.11386 14.7912 6.20999 14.8736 6.33332C14.956 6.45666 15 6.60166 15 6.75C15 6.94891 14.921 7.13968 14.7803 7.28033C14.6397 7.42098 14.4489 7.5 14.25 7.5ZM12.5 10.5C12.5 10.8956 12.3827 11.2822 12.1629 11.6111C11.9432 11.94 11.6308 12.1964 11.2654 12.3478C10.8999 12.4991 10.4978 12.5387 10.1098 12.4616C9.72186 12.3844 9.36549 12.1939 9.08579 11.9142C8.80608 11.6345 8.6156 11.2781 8.53843 10.8902C8.46126 10.5022 8.50087 10.1001 8.65224 9.73463C8.80362 9.36918 9.05996 9.05682 9.38886 8.83706C9.71776 8.6173 10.1044 8.5 10.5 8.5C11.0304 8.5 11.5391 8.71071 11.9142 9.08579C12.2893 9.46086 12.5 9.96957 12.5 10.5Z" fill="white"/>
</svg>
