<svg width="21" height="21" viewBox="0 0 21 21" fill="none" xmlns="http://www.w3.org/2000/svg">
<path d="M10.5 11C12.4298 11 14 9.42985 14 7.5C14 5.57015 12.4298 4 10.5 4C8.57015 4 7 5.57069 7 7.5C7 9.42931 8.57015 11 10.5 11ZM10.5 6.15385C11.2425 6.15385 11.8462 6.758 11.8462 7.5C11.8462 8.242 11.2425 8.84615 10.5 8.84615C9.75746 8.84615 9.15385 8.24254 9.15385 7.5C9.15385 6.75746 9.75746 6.15385 10.5 6.15385Z" fill="white"/>
<path d="M14.3202 12.9996C14.529 12.8837 14.7003 12.726 14.819 12.5407C14.9376 12.3554 14.9998 12.1482 15 11.9377C15 11.575 14.772 11.2628 14.3904 11.1016C14.1996 11.0212 13.9858 10.9874 13.7734 11.0042C13.5609 11.021 13.3583 11.0877 13.1886 11.1966C11.6256 12.1807 9.37447 12.1807 7.81088 11.1966C7.64126 11.0877 7.43877 11.0211 7.22644 11.0044C7.0141 10.9876 6.80042 11.0213 6.6097 11.1016C6.42447 11.1781 6.26885 11.2972 6.16093 11.4452C6.05301 11.5932 5.99724 11.764 6.00011 11.9377C6.00011 12.3646 6.2545 12.7616 6.6799 12.9996C7.22229 13.3032 7.81388 13.5406 8.43848 13.7058C8.54408 13.7331 8.65267 13.7583 8.76487 13.7821L6.95229 15.2759C6.84029 15.3692 6.75146 15.4804 6.69099 15.603C6.63053 15.7255 6.59963 15.857 6.6001 15.9897C6.6001 16.2594 6.7249 16.513 6.95169 16.704C7.41909 17.098 8.18108 17.098 8.65207 16.7009L10.5001 15.0905L12.3516 16.704C12.5856 16.9015 12.8928 17 13.2 17C13.5072 17 13.8144 16.9015 14.0484 16.7045C14.2752 16.5135 14.4 16.2599 14.4 15.9897C14.4 15.7194 14.2752 15.4658 14.046 15.2733L12.2352 13.7816C12.348 13.7578 12.4572 13.7321 12.5634 13.7048C13.1856 13.5407 13.7771 13.3033 14.3202 12.9996Z" fill="white"/>
</svg>
