<svg width="20" height="20" viewBox="0 0 20 20" fill="none" xmlns="http://www.w3.org/2000/svg">
<path d="M10 13.0556C10.75 13.0556 11.3876 12.8124 11.9128 12.3261C12.438 11.8398 12.7004 11.2496 12.7 10.5556C12.7 9.86111 12.4374 9.27074 11.9122 8.78444C11.387 8.29815 10.7496 8.05519 10 8.05556C9.25 8.05556 8.6124 8.2987 8.0872 8.785C7.562 9.2713 7.2996 9.86148 7.3 10.5556C7.3 11.25 7.5626 11.8404 8.0878 12.3267C8.613 12.813 9.2504 13.0559 10 13.0556ZM5.2 15C4.87 15 4.5874 14.8911 4.3522 14.6733C4.117 14.4556 3.9996 14.1941 4 13.8889V7.22222C4 6.91667 4.1176 6.655 4.3528 6.43722C4.588 6.21944 4.8704 6.11074 5.2 6.11111H7.09L8.2 5H11.8L12.91 6.11111H14.8C15.13 6.11111 15.4126 6.22 15.6478 6.43778C15.883 6.65556 16.0004 6.91704 16 7.22222V13.8889C16 14.1944 15.8824 14.4561 15.6472 14.6739C15.412 14.8917 15.1296 15.0004 14.8 15H5.2Z" fill="#329BF8"/>
</svg>
