<svg width="21" height="21" viewBox="0 0 21 21" fill="none" xmlns="http://www.w3.org/2000/svg">
<path d="M10.3181 14.9579H11.3339C11.3339 14.9579 11.641 14.9228 11.7972 14.7486C11.9417 14.5887 11.9364 14.2885 11.9364 14.2885C11.9364 14.2885 11.9162 12.8831 12.5495 12.676C13.1732 12.4723 13.9744 14.0344 14.8234 14.6358C15.4652 15.0904 15.9529 14.9907 15.9529 14.9907L18.2237 14.9579C18.2237 14.9579 19.4116 14.8823 18.8485 13.9194C18.8028 13.8405 18.5201 13.2073 17.16 11.9059C15.7362 10.5431 15.9274 10.7644 17.6424 8.40808C18.687 6.97303 19.1046 6.09665 18.9739 5.722C18.8495 5.36488 18.0813 5.45909 18.0813 5.45909L15.5269 5.47443C15.5269 5.47443 15.3377 5.44814 15.1964 5.53468C15.0593 5.62013 14.9711 5.81731 14.9711 5.81731C14.9711 5.81731 14.5663 6.92811 14.0265 7.8724C12.8885 9.86505 12.4326 9.97022 12.2467 9.84643C11.8142 9.55832 11.9226 8.68743 11.9226 8.06959C11.9226 6.13828 12.2063 5.33311 11.369 5.12498C11.0906 5.05596 10.8866 5.00995 10.1757 5.00228C9.26402 4.99242 8.49153 5.00557 8.05481 5.22576C7.76366 5.37255 7.53946 5.7001 7.67653 5.71872C7.84548 5.74172 8.22801 5.82498 8.43096 6.1098C8.69342 6.47678 8.68385 7.30276 8.68385 7.30276C8.68385 7.30276 8.83474 9.57585 8.33214 9.85848C7.9868 10.0524 7.51396 9.65692 6.49919 7.8483C5.97959 6.92263 5.58644 5.89837 5.58644 5.89837C5.58644 5.89837 5.511 5.70776 5.37605 5.60589C5.21241 5.4821 4.98289 5.44266 4.98289 5.44266L2.55384 5.458C2.55384 5.458 2.18938 5.46895 2.05549 5.63218C1.93648 5.77787 2.04593 6.07803 2.04593 6.07803C2.04593 6.07803 3.94794 10.6647 6.10073 12.9773C8.07606 15.097 10.3181 14.9579 10.3181 14.9579Z" fill="white"/>
</svg>
