<svg width="21" height="21" viewBox="0 0 21 21" fill="none" xmlns="http://www.w3.org/2000/svg">
<path fill-rule="evenodd" clip-rule="evenodd" d="M17.3625 5.96364C16.9556 5.26182 16.5141 5.13273 15.615 5.08364C14.7169 5.02455 12.4584 5 10.5019 5C8.54156 5 6.28219 5.02455 5.385 5.08273C4.48781 5.13273 4.04531 5.26091 3.63469 5.96364C3.21562 6.66455 3 7.87182 3 9.99727V10.0045C3 12.1209 3.21562 13.3373 3.63469 14.0309C4.04531 14.7327 4.48687 14.86 5.38406 14.9191C6.28219 14.97 8.54156 15 10.5019 15C12.4584 15 14.7169 14.97 15.6159 14.92C16.515 14.8609 16.9566 14.7336 17.3634 14.0318C17.7863 13.3382 18 12.1218 18 10.0055V9.99818C18 7.87182 17.7863 6.66455 17.3625 5.96364ZM8.625 12.7273V7.27273L13.3125 10L8.625 12.7273Z" fill="white"/>
</svg>
