<svg width="37" height="16" viewBox="0 0 37 16" fill="none" xmlns="http://www.w3.org/2000/svg">
<path d="M1.50391 7C0.951621 7 0.503906 7.44772 0.503906 8C0.503906 8.55228 0.951621 9 1.50391 9V7ZM36.2087 8.70711C36.5992 8.31658 36.5992 7.68342 36.2087 7.29289L29.8447 0.928932C29.4542 0.538408 28.821 0.538408 28.4305 0.928932C28.04 1.31946 28.04 1.95262 28.4305 2.34315L34.0873 8L28.4305 13.6569C28.04 14.0474 28.04 14.6805 28.4305 15.0711C28.821 15.4616 29.4542 15.4616 29.8447 15.0711L36.2087 8.70711ZM1.50391 9H35.5015V7H1.50391V9Z" fill="#025EA1"/>
</svg>
