<svg width="22" height="32" viewBox="0 0 22 32" fill="none" xmlns="http://www.w3.org/2000/svg">
<mask id="path-1-inside-1_0_1348" fill="white">
<rect y="7.66406" width="22" height="24.3349" rx="1"/>
</mask>
<rect y="7.66406" width="22" height="24.3349" rx="1" stroke="white" stroke-width="4" mask="url(#path-1-inside-1_0_1348)"/>
<path fill-rule="evenodd" clip-rule="evenodd" d="M15.7409 6.07227C15.7403 6.07227 15.7398 6.07178 15.7398 6.07118C15.7398 3.58489 13.6569 1.5 11.0008 1.5C8.34464 1.5 6.26172 3.58489 6.26172 6.07118C6.26172 6.07178 6.26123 6.07227 6.26064 6.07227H4.7628C4.7622 6.07227 4.76172 6.07178 4.76172 6.07118C4.76172 2.71816 7.55504 0 11.0008 0C14.4465 0 17.2398 2.71816 17.2398 6.07118C17.2398 6.07178 17.2394 6.07227 17.2388 6.07227H15.7409Z" fill="white"/>
<path d="M4.76172 13.0143C4.76172 13.4286 5.0975 13.7643 5.51172 13.7643C5.92593 13.7643 6.26172 13.4286 6.26172 13.0143L4.76172 13.0143ZM4.76172 6.07227L4.76172 13.0143L6.26172 13.0143L6.26172 6.07227L4.76172 6.07227Z" fill="white"/>
<path d="M15.7422 13.0143C15.7422 13.4286 16.078 13.7643 16.4922 13.7643C16.9064 13.7643 17.2422 13.4286 17.2422 13.0143L15.7422 13.0143ZM15.7422 6.07227L15.7422 13.0143L17.2422 13.0143L17.2422 6.07227L15.7422 6.07227Z" fill="white"/>
</svg>
