<svg width="15" height="15" viewBox="0 0 15 15" fill="none" xmlns="http://www.w3.org/2000/svg">
<path d="M7.5013 1.12086e-07C6.01783 -0.0002563 4.5676 0.439426 3.33403 1.26344C2.10047 2.08745 1.13897 3.25878 0.571155 4.62927C0.00333703 5.99977 -0.145297 7.50788 0.144051 8.96286C0.433398 10.4178 1.14773 11.7543 2.1967 12.8033C3.24567 13.8523 4.58216 14.5666 6.03714 14.8559C7.49212 15.1453 9.00023 14.9967 10.3707 14.4288C11.7412 13.861 12.9126 12.8995 13.7366 11.666C14.5606 10.4324 15.0003 8.98217 15 7.4987C14.9997 5.51003 14.2095 3.6029 12.8033 2.1967C11.3971 0.790494 9.48997 0.000343846 7.5013 1.12086e-07ZM7.5013 12.1867C6.57368 12.1872 5.66675 11.9126 4.89523 11.3976C4.12371 10.8826 3.52227 10.1503 3.16699 9.29341C2.81171 8.43653 2.71856 7.49352 2.89931 6.58369C3.08005 5.67385 3.52659 4.83806 4.18242 4.18204C4.83826 3.52603 5.67392 3.07926 6.58371 2.89826C7.4935 2.71726 8.43653 2.81016 9.29351 3.1652C10.1505 3.52024 10.8829 4.12148 11.3982 4.89285C11.9134 5.66423 12.1882 6.57108 12.188 7.4987C12.1876 8.7417 11.6938 9.93371 10.815 10.8128C9.93617 11.6918 8.7443 12.186 7.5013 12.1867Z" fill="#868686"/>
<path d="M7.49841 9.36597C8.52876 9.36597 9.36401 8.53071 9.36401 7.50037C9.36401 6.47002 8.52876 5.63477 7.49841 5.63477C6.46807 5.63477 5.63281 6.47002 5.63281 7.50037C5.63281 8.53071 6.46807 9.36597 7.49841 9.36597Z" fill="#868686"/>
</svg>
