<svg width="20" height="20" viewBox="0 0 20 20" fill="none" xmlns="http://www.w3.org/2000/svg">
<path d="M10.0017 1.49448e-07C8.02377 -0.000341733 6.09014 0.585901 4.44538 1.68458C2.80062 2.78327 1.51863 4.34503 0.76154 6.17237C0.00444938 7.9997 -0.19373 10.0105 0.192067 11.9505C0.577864 13.8904 1.53031 15.6724 2.92894 17.0711C4.32756 18.4697 6.10955 19.4221 8.04952 19.8079C9.98949 20.1937 12.0003 19.9956 13.8276 19.2385C15.655 18.4814 17.2167 17.1994 18.3154 15.5546C19.4141 13.9099 20.0003 11.9762 20 9.99827C19.9995 7.3467 18.946 4.80387 17.0711 2.92893C15.1961 1.05399 12.6533 0.000458462 10.0017 1.49448e-07ZM10.0017 16.2489C8.76491 16.2496 7.55567 15.8834 6.52698 15.1968C5.49829 14.5101 4.69637 13.5337 4.22266 12.3912C3.74895 11.2487 3.62474 9.99136 3.86574 8.77825C4.10674 7.56513 4.70212 6.45074 5.57656 5.57606C6.45101 4.70137 7.56523 4.10568 8.77828 3.86435C9.99133 3.62301 11.2487 3.74687 12.3914 4.22026C13.534 4.69366 14.5106 5.49531 15.1975 6.52381C15.8845 7.55231 16.251 8.76145 16.2506 9.99827C16.2502 11.6556 15.5917 13.245 14.42 14.417C13.2482 15.5891 11.6591 16.248 10.0017 16.2489Z" fill="white"/>
<path d="M9.99919 12.4857C11.373 12.4857 12.4867 11.372 12.4867 9.99821C12.4867 8.62442 11.373 7.51074 9.99919 7.51074C8.6254 7.51074 7.51172 8.62442 7.51172 9.99821C7.51172 11.372 8.6254 12.4857 9.99919 12.4857Z" fill="white"/>
</svg>
