<svg width="16" height="16" viewBox="0 0 16 16" fill="none" xmlns="http://www.w3.org/2000/svg">
<path d="M8.00138 1.19558e-07C6.41902 -0.000273386 4.87211 0.468721 3.5563 1.34767C2.2405 2.22661 1.2149 3.47603 0.609232 4.93789C0.0035595 6.39976 -0.154984 8.0084 0.153654 9.56038C0.462292 11.1124 1.22425 12.5379 2.34315 13.6569C3.46205 14.7758 4.88764 15.5377 6.43962 15.8463C7.99159 16.155 9.60024 15.9964 11.0621 15.3908C12.524 14.7851 13.7734 13.7595 14.6523 12.4437C15.5313 11.1279 16.0003 9.58098 16 7.99862C15.9996 5.87736 15.1568 3.8431 13.6569 2.34315C12.1569 0.843193 10.1226 0.000366769 8.00138 1.19558e-07ZM8.00138 12.9991C7.01193 12.9997 6.04453 12.7068 5.22158 12.1574C4.39863 11.6081 3.75709 10.827 3.37813 9.91297C2.99916 8.99896 2.89979 7.99309 3.09259 7.0226C3.28539 6.0521 3.7617 5.16059 4.46125 4.46084C5.16081 3.7611 6.05219 3.28454 7.02263 3.09148C7.99307 2.89841 8.99897 2.9975 9.91308 3.37621C10.8272 3.75492 11.6085 4.39624 12.158 5.21904C12.7076 6.04184 13.0008 7.00916 13.0005 7.99862C13.0002 9.32448 12.4734 10.596 11.536 11.5336C10.5986 12.4713 9.32725 12.9984 8.00138 12.9991Z" fill="white" fill-opacity="0.6"/>
<path d="M7.99681 9.98971C9.09584 9.98971 9.98678 9.09877 9.98678 7.99974C9.98678 6.90071 9.09584 6.00977 7.99681 6.00977C6.89778 6.00977 6.00684 6.90071 6.00684 7.99974C6.00684 9.09877 6.89778 9.98971 7.99681 9.98971Z" fill="white" fill-opacity="0.6"/>
</svg>
