<svg width="22" height="22" viewBox="0 0 22 22" fill="none" xmlns="http://www.w3.org/2000/svg">
<path d="M11.0019 1.64392e-07C8.82615 -0.000375906 6.69915 0.644491 4.88992 1.85304C3.08069 3.06159 1.67049 4.77954 0.837694 6.7896C0.00489432 8.79967 -0.213103 11.0116 0.211274 13.1455C0.635651 15.2795 1.68334 17.2397 3.22183 18.7782C4.76032 20.3167 6.72051 21.3643 8.85448 21.7887C10.9884 22.2131 13.2003 21.9951 15.2104 21.1623C17.2205 20.3295 18.9384 18.9193 20.147 17.1101C21.3555 15.3009 22.0004 13.1739 22 10.9981C21.9995 8.08137 20.8406 5.28426 18.7782 3.22182C16.7157 1.15939 13.9186 0.000504308 11.0019 1.64392e-07ZM11.0019 17.8738C9.6414 17.8746 8.31123 17.4718 7.17967 16.7164C6.04811 15.9611 5.166 14.8871 4.64493 13.6303C4.12385 12.3736 3.98722 10.9905 4.25232 9.65607C4.51741 8.32164 5.17233 7.09582 6.13422 6.13366C7.09611 5.17151 8.32176 4.51625 9.65611 4.25078C10.9905 3.98531 12.3736 4.12156 13.6305 4.64229C14.8874 5.16302 15.9616 6.04484 16.7173 7.17619C17.4729 8.30754 17.8761 9.63759 17.8757 10.9981C17.8752 12.8212 17.1509 14.5694 15.862 15.8587C14.5731 17.148 12.825 17.8728 11.0019 17.8738Z" fill="#171717"/>
<path d="M11.0018 13.7361C12.513 13.7361 13.7381 12.5111 13.7381 10.9999C13.7381 9.48872 12.513 8.26367 11.0018 8.26367C9.49067 8.26367 8.26562 9.48872 8.26562 10.9999C8.26562 12.5111 9.49067 13.7361 11.0018 13.7361Z" fill="#171717"/>
</svg>
