<svg width="27" height="27" viewBox="0 0 27 27" fill="none" xmlns="http://www.w3.org/2000/svg">
<path fill-rule="evenodd" clip-rule="evenodd" d="M13.5 16.176L23.851 26.4631C24.5714 27.179 25.7393 27.179 26.4597 26.4631C27.1801 25.7471 27.1801 24.5864 26.4597 23.8704L16.0248 13.5L26.4597 3.12956C27.1801 2.41364 27.1801 1.25288 26.4597 0.536955C25.7393 -0.178976 24.5714 -0.178976 23.851 0.536955L13.5 10.824L3.14901 0.536949C2.42863 -0.17898 1.26067 -0.17898 0.540285 0.53695C-0.180096 1.25288 -0.180096 2.41363 0.540285 3.12956L10.9752 13.5L0.540285 23.8704C-0.180096 24.5864 -0.180096 25.7471 0.540285 26.463C1.26067 27.179 2.42863 27.179 3.14901 26.463L13.5 16.176Z" fill="#171717"/>
</svg>
