<svg width="35" height="35" viewBox="0 0 35 35" fill="none" xmlns="http://www.w3.org/2000/svg">
<circle cx="17.5" cy="17.5" r="17.5" fill="#025EA1"/>
<path d="M28.2225 22.7385H26.9934V12.5013C26.9934 12.4516 26.9451 12.4516 26.9451 12.402C26.9451 12.402 26.9451 12.3523 26.8967 12.3523C26.8644 12.3192 26.8321 12.3026 26.7999 12.3026L26.7515 12.2529H8.38314C8.08958 12.2529 7.8928 12.455 7.8928 12.7563V22.8411H6.61534C6.32178 22.8411 6.125 23.0432 6.125 23.3446C6.125 23.6459 6.32178 23.848 6.61534 23.848H10.0542C10.3477 23.848 10.5445 23.6459 10.5445 23.3446C10.5445 23.0432 10.3477 22.8411 10.0542 22.8411H8.82509V17.3963H26.016V22.7418H24.7869C24.4934 22.7418 24.2966 22.9438 24.2966 23.2452C24.2966 23.5466 24.4934 23.7486 24.7869 23.7486H28.2257C28.5193 23.7486 28.7161 23.5466 28.7161 23.2452C28.7161 22.9438 28.5193 22.7418 28.2257 22.7418L28.2225 22.7385ZM16.0899 13.1571L12.5542 16.3332C12.5542 16.3332 12.5542 16.3829 12.5059 16.3829H9.4606L13.0446 13.1571H16.0899ZM17.6125 13.1571H20.6577L17.1221 16.3332C17.1221 16.3332 17.1221 16.3829 17.0738 16.3829H13.9801L17.6157 13.1571H17.6125ZM22.132 13.1571H25.1773L21.6416 16.3332C21.6416 16.3332 21.6417 16.3829 21.5933 16.3829H18.548L22.132 13.1571ZM26.0128 13.7632V16.3862H23.0675L26.0128 13.7632ZM11.5736 13.1571L8.82187 15.6278V13.1571H11.5736Z" fill="white"/>
</svg>
