<svg width="18" height="14" viewBox="0 0 18 14" fill="none" xmlns="http://www.w3.org/2000/svg">
<path fill-rule="evenodd" clip-rule="evenodd" d="M11.0084 6.08675C12.6892 6.08675 14.0518 4.72419 14.0518 3.04338C14.0518 1.36257 12.6892 0 11.0084 0C10.2163 0 9.49479 0.30266 8.95333 0.798652C8.41187 0.30266 7.69039 0 6.89822 0C5.21741 0 3.85485 1.36257 3.85485 3.04338C3.85485 4.72419 5.21741 6.08675 6.89822 6.08675C7.69039 6.08675 8.41187 5.78409 8.95333 5.2881C9.49479 5.78409 10.2163 6.08675 11.0084 6.08675ZM7.9959 2.60845C7.82273 2.17178 7.39654 1.86299 6.89822 1.86299C6.24631 1.86299 5.71784 2.39147 5.71784 3.04338C5.71784 3.69528 6.24631 4.22376 6.89822 4.22376C7.39654 4.22376 7.82273 3.91497 7.9959 3.4783C7.97557 3.33625 7.96506 3.19104 7.96506 3.04338C7.96506 2.89571 7.97557 2.7505 7.9959 2.60845ZM4.35065 12.137C4.71718 11.0102 5.36182 10.0089 6.20355 9.21401C4.44238 9.45227 2.96303 10.5835 2.23909 12.137H4.35065ZM6.89826 7.3044C7.61342 7.3044 8.30352 7.41165 8.95337 7.61094C9.60322 7.41165 10.2933 7.3044 11.0085 7.3044C14.4407 7.3044 17.296 9.77472 17.8934 13.0344C17.9889 13.5558 17.5596 14 17.0296 14H12.9194H4.98737H0.877161C0.347097 14 -0.082158 13.5558 0.0133844 13.0344C0.610711 9.77472 3.466 7.3044 6.89826 7.3044Z" fill="white" fill-opacity="0.6"/>
</svg>
