<svg width="104" height="27" viewBox="0 0 104 27" fill="none" xmlns="http://www.w3.org/2000/svg">
<g clip-path="url(#clip0_9_1394)">
<path d="M55.9002 2.01807e-07C53.2379 -0.000461402 50.6353 0.790976 48.4214 2.27422C46.2075 3.75747 44.4819 5.8659 43.4628 8.33288C42.4436 10.7999 42.1767 13.5146 42.6959 16.1337C43.215 18.7528 44.4968 21.1587 46.3791 23.0471C48.2615 24.9355 50.6599 26.2216 53.2711 26.7427C55.8822 27.2639 58.5888 26.9966 61.0485 25.9748C63.5082 24.953 65.6105 23.2226 67.0897 21.0023C68.5688 18.7819 69.3583 16.1715 69.3583 13.5012C69.3583 9.92084 67.9405 6.48712 65.4167 3.95523C62.8929 1.42333 59.4698 0.0006191 55.9002 2.01807e-07ZM55.9002 21.9379C54.2355 21.9384 52.6081 21.4436 51.2237 20.5163C49.8394 19.5889 48.7603 18.2705 48.123 16.728C47.4858 15.1854 47.3189 13.4879 47.6436 11.8502C47.9682 10.2125 48.7698 8.7082 49.9469 7.5275C51.1241 6.3468 52.6239 5.54279 54.2566 5.21715C55.8894 4.89151 57.5817 5.05887 59.1196 5.69807C60.6576 6.33728 61.9719 7.4196 62.8965 8.80814C63.8211 10.1967 64.3143 11.8291 64.3139 13.4988C64.3139 15.737 63.4274 17.8835 61.8496 19.4662C60.2717 21.0488 58.1317 21.9379 55.9002 21.9379Z" fill="white"/>
<path d="M7.33168 22.9555L5.74016 26.4562H0L11.9852 0H12.5297L24.7872 26.4562H18.6142L17.1018 22.9555H7.33168ZM9.50256 17.8981H14.9333L12.2575 11.5548L9.50256 17.8981Z" fill="white"/>
<path d="M29.0848 26.4554V5.60036H23.4609V0.542969H40.2137V5.60036H34.5946V26.4531L29.0848 26.4554Z" fill="white"/>
<path d="M87.5913 16.9646L96.3283 0H97.1427L104.007 26.4562H98.2596L94.7694 13.3448L87.7891 26.4562H87.0212L80.1456 13.3028L76.6554 26.4539H71.1875L78.0492 0H78.8635L87.5913 16.9646Z" fill="white"/>
<path d="M55.9029 16.8593C57.7521 16.8593 59.2512 15.3557 59.2512 13.5009C59.2512 11.6462 57.7521 10.1426 55.9029 10.1426C54.0537 10.1426 52.5547 11.6462 52.5547 13.5009C52.5547 15.3557 54.0537 16.8593 55.9029 16.8593Z" fill="#025EA1"/>
</g>
<defs>
<clipPath id="clip0_9_1394">
<rect width="104" height="27" fill="white"/>
</clipPath>
</defs>
</svg>
