<svg width="35" height="35" viewBox="0 0 35 35" fill="none" xmlns="http://www.w3.org/2000/svg">
<circle cx="17.5" cy="17.5" r="17.5" fill="#025EA1"/>
<path d="M20.4751 24.1003C20.7638 24.1003 20.9971 23.8608 20.9971 23.5644V14.4744C20.9971 14.1779 20.7638 13.9385 20.4751 13.9385C20.1863 13.9385 19.9531 14.1779 19.9531 14.4744V23.5644C19.9531 23.8608 20.1863 24.1003 20.4751 24.1003Z" fill="white"/>
<path d="M17.522 24.1003C17.8107 24.1003 18.0439 23.8608 18.0439 23.5644V14.4744C18.0439 14.1779 17.8107 13.9385 17.522 13.9385C17.2332 13.9385 17 14.1779 17 14.4744V23.5644C17 23.8608 17.2332 24.1003 17.522 24.1003Z" fill="white"/>
<path d="M14.5727 24.1003C14.8615 24.1003 15.0947 23.8608 15.0947 23.5644V14.4744C15.0947 14.1779 14.8615 13.9385 14.5727 13.9385C14.284 13.9385 14.0508 14.1779 14.0508 14.4744V23.5644C14.0508 23.8608 14.284 24.1003 14.5727 24.1003Z" fill="white"/>
<path d="M19.0009 7.87785H16.0496C14.9502 7.87785 14.0534 8.73013 14.0534 9.77624V10.9079H10.147C9.85822 10.9079 9.625 11.1473 9.625 11.4437C9.625 11.7402 9.85822 11.9796 10.147 11.9796H11.102V25.0802C11.102 26.2118 11.9988 27.1297 13.0983 27.1297H21.9523C23.0545 27.1297 23.9485 26.209 23.9485 25.0802V11.9768H24.9036C25.1923 11.9768 25.4255 11.7373 25.4255 11.4409C25.4255 11.1444 25.1923 10.905 24.9036 10.905H20.9972V9.77339C20.9972 8.72728 20.1004 7.875 19.0009 7.875V7.87785ZM15.0945 9.77624C15.0945 9.32587 15.5332 8.94676 16.0496 8.94676H19.0009C19.5201 8.94676 19.956 9.32587 19.956 9.77624V10.9079H15.0945V9.77624ZM22.9073 25.0774C22.9073 25.6189 22.4798 26.0579 21.9523 26.0579H13.0955C12.568 26.0579 12.1404 25.6189 12.1404 25.0774V11.9768H22.9046V25.0774H22.9073Z" fill="white"/>
<line x1="3.15533" y1="3.63959" x2="32.9053" y2="33.3896" stroke="#F9F9F9" stroke-width="1.5"/>
</svg>
