<svg width="35" height="35" viewBox="0 0 35 35" fill="none" xmlns="http://www.w3.org/2000/svg">
<circle cx="17.5" cy="17.5" r="17.5" fill="#025EA1"/>
<path d="M17.5062 24.2524C20.8224 24.2524 23.528 21.5037 23.528 18.1194C23.528 14.735 20.8224 11.9893 17.5062 11.9893C14.1899 11.9893 11.4844 14.7379 11.4844 18.1194C11.4844 21.5037 14.1899 24.2524 17.5062 24.2524ZM17.5062 13.1503C20.2174 13.1503 22.3971 15.3707 22.3971 18.1194C22.3971 20.8681 20.2174 23.0914 17.5062 23.0914C14.795 23.0914 12.6152 20.871 12.6152 18.1194C12.6152 15.3707 14.795 13.1503 17.5062 13.1503Z" fill="white"/>
<path d="M25.2262 16.8829C26.145 16.8829 26.9083 16.1109 26.9083 15.1675C26.9083 14.2242 26.145 13.4521 25.2262 13.4521C24.3074 13.4521 23.5469 14.2242 23.5469 15.1675C23.5469 16.1109 24.3074 16.8829 25.2262 16.8829ZM25.2262 14.6132C25.54 14.6132 25.7775 14.857 25.7775 15.1675C25.7775 15.4781 25.54 15.7219 25.2262 15.7219C24.9124 15.7219 24.6777 15.4781 24.6777 15.1675C24.6777 14.857 24.9124 14.6132 25.2262 14.6132Z" fill="white"/>
<path d="M27.3852 26.4074C28.6263 26.4074 29.6554 25.3654 29.6554 24.0912V13.9092C29.6554 12.635 28.6263 11.5959 27.3852 11.5959H23.8032V10.7019C23.8032 9.54092 22.8646 8.5918 21.7309 8.5918H13.2721C12.1384 8.5918 11.1998 9.54092 11.1998 10.7019V11.5959H7.61785C6.37391 11.5959 5.34766 12.6379 5.34766 13.9092V24.0912C5.34766 25.3654 6.37391 26.4074 7.61785 26.4074H27.3852ZM6.47851 24.0912V13.9121C6.47851 13.2794 6.98457 12.7598 7.61785 12.7598H11.672C11.8529 12.7888 12.0338 12.7308 12.1639 12.5973C12.1667 12.5944 12.1724 12.5915 12.1752 12.5857C12.1752 12.5857 12.1752 12.5857 12.178 12.5857C12.3024 12.455 12.359 12.2693 12.3307 12.0893V10.7077C12.3307 10.1853 12.7491 9.75861 13.2721 9.75861H21.7309C22.2539 9.75861 22.6724 10.1853 22.6724 10.7077V12.0864C22.6413 12.2722 22.7006 12.4608 22.8307 12.5915C22.8335 12.5944 22.8363 12.6002 22.842 12.6031C22.842 12.6031 22.842 12.6031 22.8448 12.6031C22.972 12.7308 23.153 12.7888 23.3283 12.7598H27.3852C28.0157 12.7598 28.5245 13.2823 28.5245 13.9121V24.0941C28.5245 24.7298 28.0157 25.2493 27.3852 25.2493H7.61785C6.98457 25.2493 6.47851 24.7298 6.47851 24.0941V24.0912Z" fill="white"/>
<path d="M17.4997 21.2211C19.1734 21.2211 20.5502 19.825 20.5502 18.1125C20.5502 16.4 19.1734 15.0039 17.4997 15.0039C15.826 15.0039 14.4492 16.4 14.4492 18.1125C14.4492 19.825 15.8232 21.2211 17.4997 21.2211ZM17.4997 16.1649C18.5684 16.1649 19.4193 17.0328 19.4193 18.1125C19.4193 19.1922 18.5684 20.0601 17.4997 20.0601C16.431 20.0601 15.5801 19.1922 15.5801 18.1125C15.5801 17.0328 16.4282 16.1649 17.4997 16.1649Z" fill="white"/>
<line x1="3.15533" y1="3.63959" x2="32.9053" y2="33.3896" stroke="#F9F9F9" stroke-width="1.5"/>
</svg>
