<svg width="30" height="31" viewBox="0 0 30 31" fill="none" xmlns="http://www.w3.org/2000/svg">
<path d="M5 0.166992C2.23858 0.166992 0 2.40557 0 5.16699V25.2616C0 28.0231 2.23858 30.2616 5 30.2616H25C27.7614 30.2616 30 28.0231 30 25.2616V5.16699C30 2.40556 27.7614 0.166992 25 0.166992H5ZM21.8826 16.937L24.488 19.9401C24.8211 20.3241 24.5492 20.923 24.0418 20.923H21.1016C20.637 20.923 20.1895 20.7465 19.8493 20.4291L18.9786 19.6169C17.996 18.7545 17.5784 18.4588 17.1854 18.4588C16.7924 18.4588 16.6941 18.7544 16.6941 19.5184C16.6941 20.2822 16.5467 20.923 14.2869 20.923C12.027 20.923 10.2584 19.2227 8.26874 16.5861C6.32098 14.005 5.43252 11.235 5.39598 11.1195C5.39481 11.1158 5.39421 11.1139 5.3931 11.1102C5.2878 10.7573 5.55128 10.4012 5.91959 10.4012H8.27245C8.71997 10.4012 9.12757 10.6606 9.31523 11.0681C9.50784 11.4864 9.83916 12.132 10.4059 13.087C11.2101 14.4422 11.9826 15.0528 12.4202 15.3127C12.5832 15.4096 12.7886 15.2899 12.7886 15.0999V11.8492C12.7886 11.4238 12.6355 11.0128 12.3572 10.6919L12.0255 10.3093C11.9397 10.2103 12.0098 10.0562 12.1405 10.0562H15.859C16.4288 10.0562 16.8907 10.5195 16.8907 11.0911V14.8715C16.8907 15.115 17.2058 15.2103 17.3399 15.0074L20.0163 10.9611C20.2273 10.6421 20.5836 10.4503 20.9651 10.4503H24.1069C24.5362 10.4503 24.7973 10.9247 24.5687 11.2893L21.7887 15.7217C21.5495 16.1033 21.5876 16.5969 21.8826 16.937Z" fill="#56C02B"/>
<rect x="3.66016" y="6.77344" width="23.4146" height="18.3504" fill="#56C02B"/>
<rect x="8.04688" y="3.10254" width="14.6341" height="24.2225" fill="white"/>
<path d="M15.3942 12.7908C16.7815 12.7864 17.8864 11.6956 17.8814 10.334C17.8758 8.97234 16.7691 7.88776 15.3813 7.88672C13.9818 7.88543 12.8642 8.98943 12.8751 10.3635C12.8854 11.7199 14.0027 12.7965 15.3942 12.7908Z" fill="#56C02B"/>
<path d="M26.4842 3.05849H4.27512C3.55146 3.05849 2.95315 3.63475 2.95315 4.35841V26.1017C2.95315 26.8167 3.53272 27.3963 4.24768 27.3963H26.4842C27.2143 27.3963 27.8062 26.8044 27.8062 26.0743V4.38046C27.8062 3.65034 27.2143 3.05849 26.4842 3.05849ZM15.4008 5.32812C18.2295 5.33511 20.5007 7.60163 20.4867 10.4033C20.4716 13.14 18.1634 15.3584 15.3392 15.3491C12.543 15.3398 10.2502 13.0699 10.266 10.3272C10.2827 7.55451 12.5771 5.31983 15.4008 5.32812ZM21.131 17.3173C20.5054 17.9467 19.7525 18.4014 18.9159 18.7196C18.245 18.9735 17.5197 19.1212 16.7914 19.2215C16.63 19.2438 16.5565 19.4415 16.672 19.5564C17.8364 20.7021 19.0055 21.8431 20.166 22.9922C20.561 23.3834 20.6445 23.8689 20.4264 24.3243C20.1882 24.8227 19.6554 25.1497 19.1325 25.1145C18.8014 25.0917 18.5434 24.9304 18.3144 24.7049C17.4356 23.8388 16.5401 22.9891 15.6797 22.1077C15.4294 21.8509 15.3088 21.8988 15.0872 22.1222C14.2034 23.0134 13.3057 23.8909 12.4023 24.7631C11.9965 25.1551 11.514 25.2253 11.0425 25.0019C10.5423 24.7644 10.2245 24.2645 10.2491 23.7614C10.266 23.4217 10.4368 23.1623 10.675 22.9293C11.8267 21.8027 12.9758 20.6734 14.1254 19.5448C14.2343 19.4384 14.1629 19.2509 14.0119 19.2316C12.592 19.0503 11.306 18.6626 10.1928 17.8095C10.0429 17.6943 9.88767 17.583 9.75018 17.454C9.22087 16.9559 9.16772 16.386 9.58679 15.798C9.94478 15.2952 10.5471 15.1601 11.1724 15.4488C11.2937 15.5044 11.409 15.5746 11.5195 15.6494C13.7743 17.1666 16.8722 17.2088 19.1356 15.7183C19.3596 15.5508 19.5994 15.412 19.8775 15.3431C20.4182 15.2072 20.9211 15.4011 21.2114 15.8641C21.5437 16.3915 21.5392 16.9072 21.131 17.3173Z" fill="#56C02B"/>
</svg>
