<svg width="35" height="35" viewBox="0 0 35 35" fill="none" xmlns="http://www.w3.org/2000/svg">
<path d="M5 0C2.23858 0 0 2.23858 0 5V30C0 32.7614 2.23858 35 5 35H30C32.7614 35 35 32.7614 35 30V5C35 2.23858 32.7614 0 30 0H5ZM25.5297 19.5034L28.5693 22.9961C28.9579 23.4427 28.6407 24.1391 28.0488 24.1391H24.6186C24.0766 24.1391 23.5544 23.9339 23.1575 23.5648L22.1417 22.6203C20.9954 21.6173 20.5081 21.2733 20.0496 21.2733C19.5911 21.2733 19.4765 21.6171 19.4765 22.5056C19.4765 23.3939 19.3045 24.1391 16.668 24.1391C14.0315 24.1391 11.9681 22.1617 9.64686 19.0954C7.36773 16.0847 6.33179 12.8529 6.29495 12.7366C6.29378 12.7329 6.29334 12.7315 6.29222 12.7278C6.16865 12.3171 6.47618 11.9023 6.90619 11.9023H9.65119C10.1733 11.9023 10.6488 12.2041 10.8678 12.678C11.0925 13.1645 11.479 13.9152 12.1402 15.0259C13.0784 16.6021 13.9797 17.3121 14.4903 17.6144C14.6804 17.7271 14.9201 17.5879 14.9201 17.3669V13.5864C14.9201 13.0917 14.7414 12.6137 14.4167 12.2404L14.0297 11.7955C13.9296 11.6804 14.0114 11.5011 14.1639 11.5011H18.5022C19.1669 11.5011 19.7058 12.0399 19.7058 12.7047V17.1013C19.7058 17.3845 20.0734 17.4953 20.2299 17.2593L23.3524 12.5535C23.5986 12.1826 24.0142 11.9595 24.4593 11.9595H28.1247C28.6256 11.9595 28.9302 12.5111 28.6635 12.9352L25.4202 18.0901C25.1411 18.5339 25.1855 19.108 25.5297 19.5034Z" fill="#259789"/>
<rect x="4.26953" y="7.68359" width="27.3171" height="21.3415" fill="#259789"/>
<rect x="9.39062" y="3.41406" width="17.0732" height="28.1707" fill="white"/>
<path d="M17.9586 14.68C19.5771 14.6749 20.8662 13.4063 20.8603 11.8227C20.8538 10.2391 19.5626 8.97777 17.9435 8.97656C16.3108 8.97506 15.007 10.259 15.0196 11.857C15.0317 13.4346 16.3352 14.6866 17.9586 14.68Z" fill="#259789"/>
<path d="M30.8982 3.36194H4.98764C4.14335 3.36194 3.44534 4.0343 3.44534 4.87859V30.1612C3.44534 30.9927 4.11937 31.6667 4.95087 31.6667H30.8982C31.75 31.6667 32.4405 30.9762 32.4405 30.1244V4.90423C32.4405 4.05243 31.75 3.36194 30.8982 3.36194ZM17.9676 6.00151C21.2678 6.00964 23.9175 8.6456 23.9011 11.904C23.8835 15.0867 21.1907 17.6667 17.8957 17.6559C14.6335 17.645 11.9585 15.0051 11.977 11.8154C11.9965 8.5908 14.6733 5.99187 17.9676 6.00151ZM24.6528 19.9449C23.923 20.677 23.0445 21.2057 22.0686 21.5758C21.2856 21.8712 20.4391 22.043 19.5892 22.1596C19.4015 22.1854 19.3161 22.4155 19.4507 22.549C20.8091 23.8814 22.1731 25.2084 23.527 26.5448C23.9878 26.9998 24.0853 27.5644 23.8308 28.094C23.5529 28.6737 22.9313 29.054 22.3212 29.013C21.935 28.9865 21.6339 28.7989 21.3668 28.5367C20.3415 27.5294 19.2968 26.5412 18.293 25.5162C18.0009 25.2175 17.8603 25.2732 17.6018 25.533C16.5706 26.5695 15.5234 27.5899 14.4694 28.6044C13.9959 29.0603 13.4329 29.1419 12.883 28.882C12.2994 28.6059 11.9286 28.0245 11.9573 27.4394C11.977 27.0443 12.1763 26.7426 12.4542 26.4716C13.7979 25.1615 15.1384 23.848 16.4796 22.5354C16.6065 22.412 16.5235 22.1937 16.3479 22.1713C14.6911 21.9605 13.1906 21.5096 11.8916 20.5174C11.7167 20.3834 11.5356 20.2539 11.3752 20.1039C10.7577 19.5246 10.6957 18.8618 11.1846 18.178C11.6022 17.5932 12.3049 17.4361 13.0344 17.7718C13.176 17.8365 13.3105 17.9181 13.4394 18.0052C16.07 19.7697 19.6842 19.8188 22.3249 18.0853C22.5862 17.8904 22.8659 17.729 23.1904 17.6489C23.8212 17.4909 24.4079 17.7164 24.7466 18.2548C25.1343 18.8682 25.1291 19.468 24.6528 19.9449Z" fill="#259789"/>
</svg>
