<svg width="30" height="30" viewBox="0 0 30 30" fill="none" xmlns="http://www.w3.org/2000/svg">
<path d="M10.9635 19.154C10.9635 19.8771 10.7566 20.4969 10.2394 20.9101C9.72212 21.3233 9.10143 21.5299 8.27384 21.5299H7.34281V23.9058H5.89453V16.6748H8.27384C9.10143 16.6748 9.82557 16.8814 10.2394 17.2946C10.6532 17.7078 10.9635 18.3276 10.9635 19.154ZM9.51522 19.154C9.51522 18.8441 9.41177 18.5342 9.20488 18.3276C8.99798 18.121 8.68764 18.0177 8.27384 18.0177H7.34281V20.3936H8.27384C8.68764 20.3936 8.99798 20.2903 9.20488 20.0837C9.41177 19.7738 9.51522 19.4639 9.51522 19.154Z" fill="#56C02B"/>
<path d="M18.3085 20.2903C18.3085 21.5299 17.9981 22.3563 17.3774 22.9761C16.7567 23.5959 15.8257 23.9058 14.5843 23.9058H12.1016V16.6748H14.5843C15.7223 16.6748 16.5498 16.9847 17.274 17.6045C17.9981 18.3276 18.3085 19.154 18.3085 20.2903ZM16.8602 20.2903C16.8602 19.5672 16.6533 19.0507 16.2395 18.6375C15.8257 18.2243 15.3085 18.0177 14.5843 18.0177H13.3429V22.7695H14.3774C16.136 22.6662 16.8602 21.9431 16.8602 20.2903Z" fill="#56C02B"/>
<path d="M24.1006 16.6748V17.9144H20.9972V19.5672H23.9972V20.8068H20.9972V23.9058H19.6523V16.6748H24.1006Z" fill="#56C02B"/>
<path d="M25.3436 15.8479H4.65396C4.34362 15.8479 4.13672 15.6413 4.13672 15.3314V0.559469C4.13672 0.249569 4.34362 0.0429688 4.65396 0.0429688H17.0678C17.1712 0.0429688 17.3781 0.146269 17.4815 0.146269L25.7574 8.51357C25.8609 8.61687 25.8609 8.72017 25.8609 8.92677V15.3314C25.8609 15.538 25.654 15.8479 25.3436 15.8479ZM5.1712 14.8149H24.8264V9.13337L16.8609 1.07597H5.1712V14.8149Z" fill="#56C02B"/>
<path d="M25.3436 30H4.65396C4.34362 30 4.13672 29.7934 4.13672 29.4835V25.3515C4.13672 25.0416 4.34362 24.835 4.65396 24.835H25.3436C25.654 24.835 25.8609 25.0416 25.8609 25.3515V29.4835C25.8609 29.7934 25.654 30 25.3436 30ZM5.1712 28.967H24.8264V25.868H5.1712V28.967Z" fill="#56C02B"/>
<path d="M25.34 9.44309H17.0641C16.7538 9.44309 16.5469 9.23649 16.5469 8.92659V0.559288C16.5469 0.352688 16.6503 0.146088 16.8572 0.0427883C17.0641 -0.0605117 17.271 0.0427883 17.3745 0.146088L25.5469 8.41009C25.6503 8.51339 25.7538 8.61669 25.7538 8.82329C25.8572 9.23649 25.6503 9.44309 25.34 9.44309ZM17.5814 8.41009H24.0986L17.5814 1.79889V8.41009Z" fill="#56C02B"/>
<path d="M29.4828 25.8683H0.517241C0.206897 25.8683 0 25.6617 0 25.3518V15.2284C0 14.9185 0.206897 14.7119 0.517241 14.7119H29.4828C29.7931 14.7119 30 14.9185 30 15.2284V25.3518C30 25.6617 29.7931 25.8683 29.4828 25.8683ZM1.03448 24.8353H28.9655V15.7449H1.03448V24.8353Z" fill="#56C02B"/>
</svg>
