<svg width="40" height="41" viewBox="0 0 40 41" fill="none" xmlns="http://www.w3.org/2000/svg">
<path d="M14.618 26.1773C14.618 27.1656 14.3421 28.0126 13.6525 28.5773C12.9628 29.1421 12.1352 29.4244 11.0318 29.4244H9.79041V32.6715H7.85938V22.7891H11.0318C12.1352 22.7891 13.1008 23.0714 13.6525 23.6361C14.2042 24.2008 14.618 25.0479 14.618 26.1773ZM12.687 26.1773C12.687 25.7538 12.549 25.3303 12.2732 25.0479C11.9973 24.7656 11.5835 24.6244 11.0318 24.6244H9.79041V27.8715H11.0318C11.5835 27.8715 11.9973 27.7303 12.2732 27.4479C12.549 27.0244 12.687 26.6009 12.687 26.1773Z" fill="#259789"/>
<path d="M24.4087 27.7303C24.4087 29.4244 23.9949 30.5538 23.1673 31.4009C22.3397 32.248 21.0983 32.6715 19.4432 32.6715H16.1328V22.7891H19.4432C20.9604 22.7891 22.0638 23.2126 23.0294 24.0597C23.9949 25.0479 24.4087 26.1773 24.4087 27.7303ZM22.4776 27.7303C22.4776 26.742 22.2018 26.0361 21.6501 25.4714C21.0983 24.9067 20.4087 24.6244 19.4432 24.6244H17.788V31.1185H19.1673C21.5121 30.9774 22.4776 29.9891 22.4776 27.7303Z" fill="#259789"/>
<path d="M32.1342 22.7891V24.4832H27.9962V26.742H31.9962V28.4362H27.9962V32.6715H26.2031V22.7891H32.1342Z" fill="#259789"/>
<path d="M33.7915 21.6588H6.20528C5.79149 21.6588 5.51562 21.3764 5.51562 20.9529V0.764482C5.51562 0.340949 5.79149 0.0585938 6.20528 0.0585938H22.757C22.8949 0.0585938 23.1708 0.199771 23.3087 0.199771L34.3432 11.6352C34.4811 11.7763 34.4811 11.9175 34.4811 12.1999V20.9529C34.4811 21.2352 34.2053 21.6588 33.7915 21.6588ZM6.89494 20.247H33.1018V12.4822L22.4811 1.47037H6.89494V20.247Z" fill="#259789"/>
<path d="M33.7915 41.0003H6.20528C5.79149 41.0003 5.51562 40.7179 5.51562 40.2944V34.6473C5.51562 34.2238 5.79149 33.9414 6.20528 33.9414H33.7915C34.2053 33.9414 34.4811 34.2238 34.4811 34.6473V40.2944C34.4811 40.7179 34.2053 41.0003 33.7915 41.0003ZM6.89494 39.5885H33.1018V35.3532H6.89494V39.5885Z" fill="#259789"/>
<path d="M33.7905 12.9056H22.7561C22.3423 12.9056 22.0664 12.6233 22.0664 12.1998V0.764366C22.0664 0.482011 22.2043 0.199655 22.4802 0.0584777C22.7561 -0.0827 23.0319 0.0584777 23.1699 0.199655L34.0664 11.4939C34.2043 11.635 34.3423 11.7762 34.3423 12.0586C34.4802 12.6233 34.2043 12.9056 33.7905 12.9056ZM23.4457 11.4939H32.1354L23.4457 2.4585V11.4939Z" fill="#259789"/>
<path d="M39.3103 35.3527H0.689655C0.275862 35.3527 0 35.0703 0 34.6468V20.8114C0 20.3878 0.275862 20.1055 0.689655 20.1055H39.3103C39.7241 20.1055 40 20.3878 40 20.8114V34.6468C40 35.0703 39.7241 35.3527 39.3103 35.3527ZM1.37931 33.9409H38.6207V21.5172H1.37931V33.9409Z" fill="#259789"/>
</svg>
