<svg width="27" height="27" viewBox="0 0 27 27" fill="none" xmlns="http://www.w3.org/2000/svg">
<path d="M5.16667 17.6654C7.46785 17.6654 9.33333 15.7999 9.33333 13.4987C9.33333 11.1975 7.46785 9.33203 5.16667 9.33203C2.86548 9.33203 1 11.1975 1 13.4987C1 15.7999 2.86548 17.6654 5.16667 17.6654Z" stroke="#171717" stroke-width="1.5" stroke-miterlimit="10"/>
<path d="M21.8346 9.33333C24.1358 9.33333 26.0013 7.46785 26.0013 5.16667C26.0013 2.86548 24.1358 1 21.8346 1C19.5334 1 17.668 2.86548 17.668 5.16667C17.668 7.46785 19.5334 9.33333 21.8346 9.33333Z" stroke="#171717" stroke-width="1.5" stroke-miterlimit="10"/>
<path d="M21.8346 25.9993C24.1358 25.9993 26.0013 24.1339 26.0013 21.8327C26.0013 19.5315 24.1358 17.666 21.8346 17.666C19.5334 17.666 17.668 19.5315 17.668 21.8327C17.668 24.1339 19.5334 25.9993 21.8346 25.9993Z" stroke="#171717" stroke-width="1.5" stroke-miterlimit="10"/>
<path d="M8.5 11.834L18.5 6.83398" stroke="#171717" stroke-width="1.5" stroke-miterlimit="10"/>
<path d="M18.5 20.166L8.5 15.166" stroke="#171717" stroke-width="1.5" stroke-miterlimit="10"/>
</svg>
