<svg width="27" height="27" viewBox="0 0 27 27" fill="none" xmlns="http://www.w3.org/2000/svg">
<path d="M5.16471 17.6654C7.4659 17.6654 9.33138 15.7999 9.33138 13.4987C9.33138 11.1975 7.4659 9.33203 5.16471 9.33203C2.86353 9.33203 0.998047 11.1975 0.998047 13.4987C0.998047 15.7999 2.86353 17.6654 5.16471 17.6654Z" stroke="#259789" stroke-width="1.5" stroke-miterlimit="10"/>
<path d="M21.8327 9.33333C24.1339 9.33333 25.9993 7.46785 25.9993 5.16667C25.9993 2.86548 24.1339 1 21.8327 1C19.5315 1 17.666 2.86548 17.666 5.16667C17.666 7.46785 19.5315 9.33333 21.8327 9.33333Z" stroke="#259789" stroke-width="1.5" stroke-miterlimit="10"/>
<path d="M21.8327 25.9993C24.1339 25.9993 25.9993 24.1339 25.9993 21.8327C25.9993 19.5315 24.1339 17.666 21.8327 17.666C19.5315 17.666 17.666 19.5315 17.666 21.8327C17.666 24.1339 19.5315 25.9993 21.8327 25.9993Z" stroke="#259789" stroke-width="1.5" stroke-miterlimit="10"/>
<path d="M8.49805 11.834L18.498 6.83398" stroke="#259789" stroke-width="1.5" stroke-miterlimit="10"/>
<path d="M18.498 20.166L8.49805 15.166" stroke="#259789" stroke-width="1.5" stroke-miterlimit="10"/>
</svg>
