<svg width="27" height="28" viewBox="0 0 27 28" fill="none" xmlns="http://www.w3.org/2000/svg">
<path d="M5.16667 17.8948C7.46785 17.8948 9.33333 16.0234 9.33333 13.715C9.33333 11.4065 7.46785 9.53516 5.16667 9.53516C2.86548 9.53516 1 11.4065 1 13.715C1 16.0234 2.86548 17.8948 5.16667 17.8948Z" stroke="#56C02B" stroke-width="1.5" stroke-miterlimit="10"/>
<path d="M21.8346 9.53638C24.1358 9.53638 26.0013 7.66501 26.0013 5.35657C26.0013 3.04812 24.1358 1.17676 21.8346 1.17676C19.5334 1.17676 17.668 3.04812 17.668 5.35657C17.668 7.66501 19.5334 9.53638 21.8346 9.53638Z" stroke="#56C02B" stroke-width="1.5" stroke-miterlimit="10"/>
<path d="M21.8346 26.2551C24.1358 26.2551 26.0013 24.3838 26.0013 22.0753C26.0013 19.7669 24.1358 17.8955 21.8346 17.8955C19.5334 17.8955 17.668 19.7669 17.668 22.0753C17.668 24.3838 19.5334 26.2551 21.8346 26.2551Z" stroke="#56C02B" stroke-width="1.5" stroke-miterlimit="10"/>
<path d="M8.5 12.0451L18.5 7.0293" stroke="#56C02B" stroke-width="1.5" stroke-miterlimit="10"/>
<path d="M18.5 20.4035L8.5 15.3877" stroke="#56C02B" stroke-width="1.5" stroke-miterlimit="10"/>
</svg>
