<svg width="30" height="31" viewBox="0 0 30 31" fill="none" xmlns="http://www.w3.org/2000/svg">
<path fill-rule="evenodd" clip-rule="evenodd" d="M5 0.166992C2.23858 0.166992 0 2.40557 0 5.16699V25.2616C0 28.0231 2.23858 30.2616 5 30.2616H25C27.7614 30.2616 30 28.0231 30 25.2616V5.16699C30 2.40556 27.7614 0.166992 25 0.166992H5ZM25.3724 6.82617L21.8476 23.8337C21.7646 24.2352 21.2953 24.4172 20.9641 24.1758L16.1525 20.6715C15.8604 20.4587 15.4621 20.47 15.1825 20.6987L12.5148 22.8802C12.2053 23.1342 11.7387 22.9926 11.6202 22.6101L10.4939 18.9765C10.0359 17.499 8.91982 16.3166 7.47115 15.7743L4.98211 14.8424C4.49598 14.6597 4.49182 13.9712 4.97657 13.7839L24.6171 6.18321C25.0335 6.02169 25.4631 6.38759 25.3724 6.82617Z" fill="#56C02B"/>
<path fill-rule="evenodd" clip-rule="evenodd" d="M20.6757 9.90117L11.3227 15.6798C10.9642 15.9017 10.7955 16.336 10.9111 16.7426L11.9223 20.307C11.9943 20.5596 12.3596 20.5338 12.3946 20.2728L12.6574 18.3181C12.707 17.9501 12.8819 17.6109 13.1533 17.3576L20.8722 10.1599C21.0167 10.0256 20.8437 9.79765 20.6757 9.90117Z" fill="#56C02B"/>
</svg>
