<svg width="35" height="35" viewBox="0 0 35 35" fill="none" xmlns="http://www.w3.org/2000/svg">
<path fill-rule="evenodd" clip-rule="evenodd" d="M5 0C2.23858 0 0 2.23858 0 5V30C0 32.7614 2.23858 35 5 35H30C32.7614 35 35 32.7614 35 30V5C35 2.23858 32.7614 0 30 0H5ZM29.6011 7.74462L25.4889 27.5243C25.3921 27.9913 24.8445 28.2029 24.4581 27.9222L18.8446 23.8467C18.5038 23.5992 18.0392 23.6124 17.7129 23.8784L14.6006 26.4154C14.2395 26.7108 13.6952 26.5462 13.5568 26.1013L12.124 21.4934C11.6647 20.016 10.5473 18.8346 9.09782 18.2936L5.81246 17.0675C5.24531 16.855 5.24046 16.0543 5.806 15.8365L28.72 6.99685C29.2058 6.809 29.7069 7.23454 29.6011 7.74462Z" fill="#259789"/>
<path fill-rule="evenodd" clip-rule="evenodd" d="M24.1216 11.3207L13.2098 18.0413C12.7916 18.2993 12.5947 18.8044 12.7296 19.2773L13.9094 23.4227C13.9933 23.7164 14.4195 23.6864 14.4603 23.3829L14.7669 21.1096C14.8249 20.6816 15.0289 20.2871 15.3456 19.9926L24.3509 11.6216C24.5195 11.4655 24.3176 11.2003 24.1216 11.3207Z" fill="#259789"/>
</svg>
