<svg width="42" height="41" viewBox="0 0 42 41" fill="none" xmlns="http://www.w3.org/2000/svg">
<path fill-rule="evenodd" clip-rule="evenodd" d="M5 0C2.23858 0 0 2.23858 0 5V36C0 38.7614 2.23858 41 5 41H37C39.7614 41 42 38.7614 42 36V5C42 2.23858 39.7614 0 37 0H5ZM35.5213 9.07226L30.5867 32.2428C30.4705 32.7898 29.8134 33.0377 29.3497 32.7088L22.6135 27.9347C22.2046 27.6448 21.647 27.6602 21.2555 27.9718L17.5207 30.9437C17.0874 31.2898 16.4342 31.0969 16.2682 30.5758L14.4202 24.7741C13.9502 23.2984 12.8228 22.1239 11.3676 21.5937L6.97495 19.9933C6.29437 19.7444 6.28855 18.8065 6.9672 18.5513L34.464 8.19631C35.0469 7.97626 35.6483 8.47475 35.5213 9.07226Z" fill="#F9F9F9"/>
<path fill-rule="evenodd" clip-rule="evenodd" d="M28.9436 13.2622L15.8494 21.1348C15.3475 21.4372 15.1113 22.0288 15.2732 22.5827L16.6889 27.4388C16.7896 27.7829 17.301 27.7477 17.35 27.3923L17.718 24.7292C17.7875 24.2279 18.0324 23.7657 18.4123 23.4207L29.2187 13.6147C29.421 13.4318 29.1788 13.1212 28.9436 13.2622Z" fill="#F9F9F9"/>
</svg>
