<svg width="14" height="14" viewBox="0 0 14 14" fill="none" xmlns="http://www.w3.org/2000/svg">
<path d="M14 6.99457C14 8.85253 13.2625 10.6344 11.9497 11.9482C10.637 13.2619 8.85651 14 7 14C5.14348 14 3.36301 13.2619 2.05025 11.9482C0.737498 10.6344 0 8.85253 0 6.99457C0 6.78813 0.0819442 6.59015 0.227806 6.44417C0.373667 6.2982 0.571498 6.21619 0.777778 6.21619C0.984057 6.21619 1.18189 6.2982 1.32775 6.44417C1.47361 6.59015 1.55556 6.78813 1.55556 6.99457C1.5474 8.28811 1.99633 9.5429 2.82303 10.5373C3.64973 11.5317 4.80101 12.2017 6.07347 12.4289C7.34593 12.6561 8.65769 12.4259 9.77701 11.779C10.8963 11.1322 11.7512 10.1102 12.1906 8.89364C12.6299 7.67711 12.6255 6.34431 12.1782 5.13071C11.7308 3.9171 10.8692 2.90078 9.74565 2.2613C8.62208 1.62181 7.30883 1.40032 6.0379 1.63593C4.76696 1.87155 3.62013 2.54912 2.8 3.54894H3.96667C4.17295 3.54894 4.37078 3.63095 4.51664 3.77692C4.6625 3.9229 4.74444 4.12088 4.74444 4.32732C4.74444 4.53376 4.6625 4.73174 4.51664 4.87772C4.37078 5.02369 4.17295 5.1057 3.96667 5.1057H1.2237C1.01742 5.1057 0.819593 5.02369 0.673732 4.87772C0.52787 4.73174 0.445926 4.53376 0.445926 4.32732V1.58223C0.445926 1.37579 0.52787 1.1778 0.673732 1.03183C0.819593 0.885855 1.01742 0.803847 1.2237 0.803847C1.42998 0.803847 1.62781 0.885855 1.77368 1.03183C1.91954 1.1778 2.00148 1.37579 2.00148 1.58223V2.10115C2.97419 1.10821 4.22017 0.427431 5.58076 0.145502C6.94135 -0.136428 8.355 -0.00675371 9.64171 0.518012C10.9284 1.04278 12.03 1.93889 12.8061 3.09225C13.5822 4.24562 13.9978 5.60404 14 6.99457ZM7 2.72904C6.79372 2.72904 6.59589 2.81105 6.45003 2.95703C6.30417 3.103 6.22222 3.30098 6.22222 3.50742V6.99457C6.22222 7.20101 6.30417 7.39899 6.45003 7.54497C6.59589 7.69094 6.79372 7.77295 7 7.77295H10.4844C10.6907 7.77295 10.8886 7.69094 11.0344 7.54497C11.1803 7.39899 11.2622 7.20101 11.2622 6.99457C11.2622 6.78813 11.1803 6.59015 11.0344 6.44417C10.8886 6.2982 10.6907 6.21619 10.4844 6.21619H7.77778V3.50742C7.77778 3.30098 7.69583 3.103 7.54997 2.95703C7.40411 2.81105 7.20628 2.72904 7 2.72904Z" fill="white" fill-opacity="0.6"/>
</svg>
