<svg width="15" height="15" viewBox="0 0 15 15" fill="none" xmlns="http://www.w3.org/2000/svg">
<path d="M6.24408 4.24427C6.40036 4.08787 6.61232 4 6.83333 4C7.05435 4 7.26631 4.08787 7.42259 4.24427C7.57887 4.40067 7.66667 4.61279 7.66667 4.83398V7.73623H10.5667C10.7877 7.73623 10.9996 7.82409 11.1559 7.9805C11.3122 8.1369 11.4 8.34902 11.4 8.57021C11.4 8.79139 11.3122 9.00352 11.1559 9.15992C10.9996 9.31632 10.7877 9.40419 10.5667 9.40419H6.83333C6.61232 9.40419 6.40036 9.31632 6.24408 9.15992C6.0878 9.00352 6 8.79139 6 8.57021V4.83398C6 4.61279 6.0878 4.40067 6.24408 4.24427Z" fill="white"/>
<circle cx="7.5" cy="7.5" r="6.65" stroke="white" stroke-width="1.7"/>
</svg>
