<svg width="31" height="32" viewBox="0 0 31 32" fill="none" xmlns="http://www.w3.org/2000/svg">
<mask id="path-1-inside-1_0_1357" fill="white">
<path fill-rule="evenodd" clip-rule="evenodd" d="M0.0779463 29.9879C0.0157101 30.5536 0.473169 31.0293 1.04223 31.0293H29.9548C30.5239 31.0293 30.9813 30.5536 30.9191 29.9879C30.0652 22.227 23.4869 16.1895 15.4985 16.1895C7.51012 16.1895 0.93186 22.227 0.0779463 29.9879Z"/>
</mask>
<path d="M0.0779463 29.9879L-1.91006 29.7692L0.0779463 29.9879ZM1.04223 33.0293H29.9548V29.0293H1.04223V33.0293ZM15.4985 18.1895C22.4558 18.1895 28.1875 23.4483 28.9311 30.2067L32.9071 29.7692C31.9429 21.0057 24.5181 14.1895 15.4985 14.1895V18.1895ZM2.06595 30.2067C2.80955 23.4483 8.54126 18.1895 15.4985 18.1895V14.1895C6.47898 14.1895 -0.945829 21.0057 -1.91006 29.7692L2.06595 30.2067ZM29.9548 33.0293C31.6248 33.0293 33.1093 31.6068 32.9071 29.7692L28.9311 30.2067C28.8534 29.5004 29.423 29.0293 29.9548 29.0293V33.0293ZM1.04223 29.0293C1.57411 29.0293 2.14366 29.5004 2.06595 30.2067L-1.91006 29.7692C-2.11224 31.6068 -0.627772 33.0293 1.04223 33.0293V29.0293Z" fill="#025EA1" mask="url(#path-1-inside-1_0_1357)"/>
<circle cx="15.4988" cy="6.74539" r="5.74539" stroke="#025EA1" stroke-width="2"/>
</svg>
