<svg width="35" height="35" viewBox="0 0 35 35" fill="none" xmlns="http://www.w3.org/2000/svg">
<path d="M5 0C2.23858 0 0 2.23858 0 5V30C0 32.7614 2.23858 35 5 35H30C32.7614 35 35 32.7614 35 30V5C35 2.23858 32.7614 0 30 0H5ZM25.5297 19.5034L28.5693 22.9961C28.9579 23.4427 28.6407 24.1391 28.0488 24.1391H24.6186C24.0766 24.1391 23.5544 23.9339 23.1575 23.5648L22.1417 22.6203C20.9954 21.6173 20.5081 21.2733 20.0496 21.2733C19.5911 21.2733 19.4765 21.6171 19.4765 22.5056C19.4765 23.3939 19.3045 24.1391 16.668 24.1391C14.0315 24.1391 11.9681 22.1617 9.64686 19.0954C7.36773 16.0847 6.33179 12.8529 6.29495 12.7366C6.29378 12.7329 6.29334 12.7315 6.29222 12.7278C6.16865 12.3171 6.47618 11.9023 6.90619 11.9023H9.65119C10.1733 11.9023 10.6488 12.2041 10.8678 12.678C11.0925 13.1645 11.479 13.9152 12.1402 15.0259C13.0784 16.6021 13.9797 17.3121 14.4903 17.6144C14.6804 17.7271 14.9201 17.5879 14.9201 17.3669V13.5864C14.9201 13.0917 14.7414 12.6137 14.4167 12.2404L14.0297 11.7955C13.9296 11.6804 14.0114 11.5011 14.1639 11.5011H18.5022C19.1669 11.5011 19.7058 12.0399 19.7058 12.7047V17.1013C19.7058 17.3845 20.0734 17.4953 20.2299 17.2593L23.3524 12.5535C23.5986 12.1826 24.0142 11.9595 24.4593 11.9595H28.1247C28.6256 11.9595 28.9302 12.5111 28.6635 12.9352L25.4202 18.0901C25.1411 18.5339 25.1855 19.108 25.5297 19.5034Z" fill="#025EA1"/>
</svg>
