<svg width="30" height="30" viewBox="0 0 30 30" fill="none" xmlns="http://www.w3.org/2000/svg">
<path d="M5 0C2.23858 0 0 2.23858 0 5V25C0 27.7614 2.23858 30 5 30H25C27.7614 30 30 27.7614 30 25V5C30 2.23858 27.7614 0 25 0H5ZM21.8826 16.7172L24.488 19.711C24.8211 20.0937 24.5492 20.6907 24.0418 20.6907H21.1016C20.637 20.6907 20.1895 20.5148 19.8493 20.1984L18.9786 19.3888C17.996 18.5291 17.5784 18.2342 17.1854 18.2342C16.7924 18.2342 16.6941 18.529 16.6941 19.2905C16.6941 20.0519 16.5467 20.6907 14.2869 20.6907C12.027 20.6907 10.2584 18.9958 8.26874 16.3675C6.32121 13.7948 5.43273 11.0338 5.39599 10.9181C5.39482 10.9144 5.3942 10.9125 5.39309 10.9087C5.28782 10.557 5.55129 10.202 5.91959 10.202H8.27245C8.71997 10.202 9.12757 10.4606 9.31523 10.8669C9.50784 11.2839 9.83916 11.9273 10.4059 12.8794C11.2101 14.2304 11.9826 14.839 12.4202 15.0981C12.5832 15.1946 12.7886 15.0753 12.7886 14.886V11.6455C12.7886 11.2214 12.6355 10.8117 12.3572 10.4918L12.0255 10.1104C11.9397 10.0117 12.0098 9.85808 12.1405 9.85808H15.859C16.4288 9.85808 16.8907 10.3199 16.8907 10.8897V14.6582C16.8907 14.901 17.2058 14.996 17.3399 14.7937L20.0163 10.7602C20.2273 10.4422 20.5836 10.251 20.9651 10.251H24.1069C24.5362 10.251 24.7973 10.7238 24.5687 11.0873L21.7887 15.5058C21.5495 15.8862 21.5876 16.3782 21.8826 16.7172Z" fill="#56C02B"/>
</svg>
