<svg width="30" height="30" viewBox="0 0 30 30" fill="none" xmlns="http://www.w3.org/2000/svg">
<path d="M0.0537098 15.6864C1.65336 14.4059 3.0985 13.8876 3.68928 13.7656L5.18896 16.9668L9.05174 30.0004L7.18852 28.354C6.0524 23.9638 4.73451 21.4028 3.5075 18.9333C2.5259 16.9577 1.09894 16.1894 0.508161 16.0522C0.144611 15.9678 -0.11768 15.8236 0.0537098 15.6864Z" fill="#0C6D73"/>
<path d="M10.9128 21.3567C7.14729 11.1034 4.24548 12.8441 1.23914 15.48C1.14127 15.5659 1.18192 15.726 1.30724 15.7612C2.09315 15.9817 3.52667 16.6144 4.91409 19.2073C6.27706 21.7545 8.30729 27.4238 9.04955 30L12.9578 26.6159C16.1207 15.4939 24.7734 5.25915 29.9995 1.37195L29.2724 0C21.1651 4.17073 13.6546 15.9756 10.9128 21.3567Z" fill="white"/>
<path d="M9.96094 18.9329L10.9153 21.4024C10.9153 21.4024 14.7324 14.2586 18.0046 10.2896C21.7992 5.68711 29.2749 0 29.2749 0C21.2403 2.37805 13.0512 13.6128 9.96094 18.9329Z" fill="#0C6D73"/>
</svg>
