<svg width="36" height="23" viewBox="0 0 36 23" fill="none" xmlns="http://www.w3.org/2000/svg">
<path fill-rule="evenodd" clip-rule="evenodd" d="M2.44745 3.93723C2.97013 3.2682 4.07181 3.06481 4.90811 3.48295L18.2472 10.1525L24.4435 7.05429C25.2797 6.63616 26.3815 6.83958 26.9041 7.50857C27.4268 8.17756 27.1725 9.05896 26.3363 9.4771L19.1936 13.0485C18.6145 13.338 17.8798 13.338 17.3008 13.0485L3.01529 5.90575C2.17899 5.48761 1.92476 4.60627 2.44745 3.93723Z" fill="black"/>
<path fill-rule="evenodd" clip-rule="evenodd" d="M5.38086 4.7188C4.41437 4.7188 3.63086 5.39035 3.63086 6.2188V18.2188C3.63086 19.0471 4.41437 19.7188 5.38086 19.7188H29.8809C30.8474 19.7188 31.6309 19.0471 31.6309 18.2188V9.21879C31.6309 8.39034 32.4143 7.71879 33.3809 7.71879C34.3474 7.71879 35.1309 8.39034 35.1309 9.21879V18.2188C35.1309 20.704 32.7804 22.7188 29.8809 22.7188H5.38086C2.48137 22.7188 0.130859 20.704 0.130859 18.2188V6.2188C0.130859 3.73347 2.48137 1.71875 5.38086 1.71875H19.3809C20.3474 1.71875 21.1309 2.39033 21.1309 3.21875C21.1309 4.04718 20.3474 4.7188 19.3809 4.7188H5.38086Z" fill="black"/>
<path d="M33.2513 1.02536L33.2513 1.02535C33.7051 0.548843 34.4304 0.548843 34.8842 1.02534C35.3511 1.51567 35.3511 2.32027 34.8842 2.8106L31.5508 6.31056C31.33 6.54245 31.0357 6.66797 30.7344 6.66797C30.4331 6.66797 30.1388 6.54245 29.9179 6.31056L26.5846 2.8106C26.5846 2.81059 26.5846 2.81059 26.5846 2.81058C26.1176 2.32025 26.1176 1.51567 26.5846 1.02535C27.0384 0.548843 27.7637 0.548843 28.2174 1.02535L28.2175 1.02536L30.3723 3.28793L30.7344 3.6681L31.0964 3.28793L33.2513 1.02536Z" fill="#37B87B" stroke="#37B87B"/>
</svg>
