<svg width="28" height="32" viewBox="0 0 28 32" fill="none" xmlns="http://www.w3.org/2000/svg">
<path d="M14 29.018C20.1063 29.018 25.0525 24.146 25.0525 18.1363H28C28 25.7487 21.7337 31.9199 14 31.9199C6.26589 31.9199 0 25.7487 0 18.1363C0 10.5204 6.26589 4.35261 14 4.35261L18.5474 4.35261L16.2132 2.05047L18.2946 -7.62939e-05L23.1475 4.77787C23.7244 5.34372 23.7262 6.26301 23.1475 6.82886L18.2946 11.6077L16.2105 9.55538L18.5302 7.27326V7.25498L14 7.25498C7.89503 7.25498 2.94748 12.1248 2.94748 18.1367C2.94748 24.1465 7.89503 29.018 14 29.018Z" fill="#0B6C72"/>
<path d="M12.816 21.2825V22.5625H7.072V21.2825H9.344V15.0425C9.248 15.1705 9.09867 15.3092 8.896 15.4585C8.69333 15.5972 8.464 15.7305 8.208 15.8585C7.952 15.9865 7.696 16.0932 7.44 16.1785C7.184 16.2532 6.94933 16.2905 6.736 16.2905V14.9465C6.97067 14.9465 7.22667 14.8825 7.504 14.7545C7.792 14.6158 8.06933 14.4558 8.336 14.2745C8.60267 14.0932 8.82667 13.9225 9.008 13.7625C9.2 13.6025 9.312 13.4905 9.344 13.4265H10.784V21.2825H12.816ZM22.1631 17.8745C22.1631 18.8132 21.9871 19.6505 21.6351 20.3865C21.2831 21.1118 20.8031 21.6825 20.1951 22.0985C19.5871 22.5145 18.8938 22.7225 18.1151 22.7225C17.3365 22.7225 16.6431 22.5145 16.0351 22.0985C15.4271 21.6825 14.9471 21.1118 14.5951 20.3865C14.2431 19.6505 14.0671 18.8132 14.0671 17.8745C14.0671 16.9358 14.2431 16.1038 14.5951 15.3785C14.9471 14.6425 15.4271 14.0665 16.0351 13.6505C16.6431 13.2238 17.3365 13.0105 18.1151 13.0105C18.8938 13.0105 19.5871 13.2238 20.1951 13.6505C20.8031 14.0665 21.2831 14.6425 21.6351 15.3785C21.9871 16.1038 22.1631 16.9358 22.1631 17.8745ZM20.7391 17.8745C20.7391 17.1705 20.6271 16.5518 20.4031 16.0185C20.1791 15.4852 19.8698 15.0692 19.4751 14.7705C19.0805 14.4718 18.6271 14.3225 18.1151 14.3225C17.5925 14.3225 17.1338 14.4718 16.7391 14.7705C16.3445 15.0692 16.0351 15.4852 15.8111 16.0185C15.5871 16.5518 15.4751 17.1705 15.4751 17.8745C15.4751 18.5785 15.5871 19.1972 15.8111 19.7305C16.0351 20.2532 16.3445 20.6638 16.7391 20.9625C17.1338 21.2612 17.5925 21.4105 18.1151 21.4105C18.6271 21.4105 19.0805 21.2612 19.4751 20.9625C19.8698 20.6638 20.1791 20.2532 20.4031 19.7305C20.6271 19.1972 20.7391 18.5785 20.7391 17.8745Z" fill="#0B6C72"/>
</svg>
