<svg width="28" height="32" viewBox="0 0 28 32" fill="none" xmlns="http://www.w3.org/2000/svg">
<path d="M12.5933 21.1927V22.4727H6.84934V21.1927H9.12134V14.9527C9.02534 15.0807 8.87601 15.2193 8.67334 15.3687C8.47068 15.5073 8.24134 15.6407 7.98534 15.7687C7.72934 15.8967 7.47334 16.0033 7.21734 16.0887C6.96134 16.1633 6.72668 16.2007 6.51334 16.2007V14.8567C6.74801 14.8567 7.00401 14.7927 7.28134 14.6647C7.56934 14.526 7.84668 14.366 8.11334 14.1847C8.38001 14.0033 8.60401 13.8327 8.78534 13.6727C8.97734 13.5127 9.08934 13.4007 9.12134 13.3367H10.5613V21.1927H12.5933ZM21.9405 17.7847C21.9405 18.7233 21.7645 19.5607 21.4125 20.2967C21.0605 21.022 20.5805 21.5927 19.9725 22.0087C19.3645 22.4247 18.6711 22.6327 17.8925 22.6327C17.1138 22.6327 16.4205 22.4247 15.8125 22.0087C15.2045 21.5927 14.7245 21.022 14.3725 20.2967C14.0205 19.5607 13.8445 18.7233 13.8445 17.7847C13.8445 16.846 14.0205 16.014 14.3725 15.2887C14.7245 14.5527 15.2045 13.9767 15.8125 13.5607C16.4205 13.134 17.1138 12.9207 17.8925 12.9207C18.6711 12.9207 19.3645 13.134 19.9725 13.5607C20.5805 13.9767 21.0605 14.5527 21.4125 15.2887C21.7645 16.014 21.9405 16.846 21.9405 17.7847ZM20.5165 17.7847C20.5165 17.0807 20.4045 16.462 20.1805 15.9287C19.9565 15.3953 19.6471 14.9793 19.2525 14.6807C18.8578 14.382 18.4045 14.2327 17.8925 14.2327C17.3698 14.2327 16.9111 14.382 16.5165 14.6807C16.1218 14.9793 15.8125 15.3953 15.5885 15.9287C15.3645 16.462 15.2525 17.0807 15.2525 17.7847C15.2525 18.4887 15.3645 19.1073 15.5885 19.6407C15.8125 20.1633 16.1218 20.574 16.5165 20.8727C16.9111 21.1713 17.3698 21.3207 17.8925 21.3207C18.4045 21.3207 18.8578 21.1713 19.2525 20.8727C19.6471 20.574 19.9565 20.1633 20.1805 19.6407C20.4045 19.1073 20.5165 18.4887 20.5165 17.7847Z" fill="#0B6C72"/>
<path d="M14 29.018C7.89371 29.018 2.94748 24.146 2.94748 18.1363H0C0 25.7487 6.26633 31.9199 14 31.9199C21.7341 31.9199 28 25.7487 28 18.1363C28 10.5204 21.7341 4.35261 14 4.35261L9.45255 4.35261L11.7868 2.05047L9.70543 -7.62939e-05L4.8525 4.77787C4.27555 5.34372 4.27378 6.26301 4.8525 6.82886L9.70543 11.6077L11.7895 9.55538L9.46979 7.27326V7.25498L14 7.25498C20.105 7.25498 25.0525 12.1248 25.0525 18.1367C25.0525 24.1465 20.105 29.018 14 29.018Z" fill="#0B6C72"/>
</svg>
