<svg width="29" height="28" viewBox="0 0 29 28" fill="none" xmlns="http://www.w3.org/2000/svg">
<mask id="mask0_1_211" style="mask-type:luminance" maskUnits="userSpaceOnUse" x="0" y="0" width="29" height="28">
<path d="M28.4107 0.486328H0.970703V27.9263H28.4107V0.486328Z" fill="white"/>
</mask>
<g mask="url(#mask0_1_211)">
<path fill-rule="evenodd" clip-rule="evenodd" d="M15.8815 22.9228C20.1509 21.7788 22.6846 17.3902 21.5406 13.1206C21.3772 12.5108 21.7392 11.8838 22.3491 11.7204C22.959 11.557 23.5859 11.9189 23.7494 12.5288C25.2202 18.0182 21.9626 23.6606 16.4732 25.1315C13.7175 25.8699 10.9209 25.4156 8.63658 24.087C8.09074 23.7695 7.9056 23.0697 8.22305 22.5239C8.54051 21.978 9.24035 21.7929 9.78619 22.1103C11.5657 23.1453 13.7375 23.4972 15.8815 22.9228Z" fill="#0B6C72"/>
<path fill-rule="evenodd" clip-rule="evenodd" d="M19.5332 16.0431C19.0792 15.6041 19.067 14.8803 19.5059 14.4264L21.823 12.03C22.2619 11.5761 22.9858 11.5639 23.4397 12.0028L25.836 14.3197C26.29 14.7586 26.3021 15.4825 25.8632 15.9364C25.4244 16.3904 24.7006 16.4025 24.2465 15.9636L22.6722 14.4414L21.1498 16.0159C20.7109 16.4698 19.9872 16.482 19.5332 16.0431Z" fill="#0B6C72"/>
<path fill-rule="evenodd" clip-rule="evenodd" d="M13.037 6.42669C8.76754 7.5707 6.23383 11.9592 7.37785 16.2288C7.54127 16.8386 7.17932 17.4656 6.56938 17.629C5.95945 17.7924 5.33253 17.4305 5.1691 16.8206C3.69822 11.3312 6.95585 5.68882 12.4452 4.21794C15.201 3.47952 17.9976 3.93384 20.2818 5.26239C20.8277 5.57985 21.0129 6.27968 20.6954 6.82553C20.378 7.37137 19.6782 7.55651 19.1322 7.23905C17.3527 6.20412 15.181 5.85224 13.037 6.42669Z" fill="#0B6C72"/>
<path fill-rule="evenodd" clip-rule="evenodd" d="M9.38584 13.3063C9.83979 13.7452 9.85197 14.4689 9.41304 14.923L7.09597 17.3193C6.65706 17.7732 5.93326 17.7854 5.47931 17.3465L3.08298 15.0295C2.62903 14.5907 2.61683 13.8669 3.05575 13.4128C3.49467 12.9589 4.21848 12.9467 4.67244 13.3856L6.24682 14.9079L7.76916 13.3334C8.20808 12.8795 8.9319 12.8674 9.38584 13.3063Z" fill="#0B6C72"/>
</g>
</svg>
