<svg width="25" height="23" viewBox="0 0 25 23" fill="none" xmlns="http://www.w3.org/2000/svg">
<path d="M3.24566 5.86406C1.81046 7.29926 1.00289 9.24498 1 11.2747C1 11.4487 1.06914 11.6156 1.19221 11.7387L3.24566 5.86406ZM3.24566 5.86406C4.68086 4.42887 6.62657 3.6213 8.65625 3.6184L3.24566 5.86406ZM0.5 11.2739V11.2747C0.5 11.5813 0.621819 11.8754 0.838656 12.0922C1.0555 12.3091 1.3496 12.4309 1.65625 12.4309C1.9629 12.4309 2.257 12.3091 2.47384 12.0922C2.69068 11.8754 2.8125 11.5813 2.8125 11.2747C2.8125 9.7248 3.42818 8.23841 4.52409 7.1425C5.62001 6.04658 7.10639 5.4309 8.65625 5.4309H19.8694L19.2183 6.08673C19.2181 6.087 19.2178 6.08726 19.2175 6.08753C19.0024 6.30306 18.8816 6.59513 18.8816 6.89965C18.8816 7.20456 19.0027 7.49698 19.2183 7.71258C19.4339 7.92818 19.7263 8.04931 20.0312 8.04931C20.3362 8.04931 20.6286 7.92818 20.8442 7.71258L23.4655 5.09124C23.5744 4.98626 23.6612 4.86056 23.7208 4.72151C23.7813 4.5803 23.8125 4.42828 23.8125 4.27465C23.8125 4.12103 23.7813 3.96901 23.7208 3.8278C23.6612 3.68874 23.5744 3.56304 23.4655 3.45806L20.8442 0.836726C20.6286 0.621123 20.3362 0.5 20.0312 0.5C19.7263 0.5 19.4339 0.621123 19.2183 0.836726C19.0027 1.05233 18.8816 1.34475 18.8816 1.64965C18.8816 1.95417 19.0024 2.24623 19.2175 2.46175C19.2178 2.46203 19.218 2.46231 19.2183 2.46258L19.8694 3.1184L8.65625 3.1184L8.65554 3.1184C6.4935 3.12149 4.4209 3.98172 2.89211 5.51051C1.36331 7.0393 0.503083 9.11191 0.5 11.2739ZM4.44311 19.4309H15.6562H15.657C17.819 19.4278 19.8916 18.5676 21.4204 17.0388C22.9492 15.51 23.8094 13.4374 23.8125 11.2754V11.2747C23.8125 10.968 23.6907 10.6739 23.4738 10.4571C23.257 10.2402 22.9629 10.1184 22.6562 10.1184C22.3496 10.1184 22.0555 10.2402 21.8387 10.4571C21.6218 10.6739 21.5 10.968 21.5 11.2747C21.5 12.8245 20.8843 14.3109 19.7884 15.4068C18.6925 16.5027 17.2061 17.1184 15.6562 17.1184H4.44311L5.09418 16.4626C5.09439 16.4624 5.0946 16.4622 5.09481 16.462C5.31002 16.2464 5.4309 15.9543 5.4309 15.6497C5.4309 15.3447 5.30978 15.0523 5.09418 14.8367C4.87858 14.6211 4.58616 14.5 4.28125 14.5C3.97634 14.5 3.68392 14.6211 3.46832 14.8367L0.846981 17.4581C0.738112 17.563 0.651315 17.6887 0.59172 17.8278L1.05129 18.0248L0.591719 17.8278C0.531204 17.969 0.5 18.121 0.5 18.2747C0.5 18.4283 0.531204 18.5803 0.591719 18.7215L1.05129 18.5245L0.59172 18.7215C0.651315 18.8606 0.738111 18.9863 0.846979 19.0912L3.46832 21.7126L3.82187 21.359L3.46832 21.7126C3.57508 21.8193 3.70181 21.904 3.8413 21.9618C3.98078 22.0196 4.13028 22.0493 4.28125 22.0493C4.43222 22.0493 4.58172 22.0196 4.7212 21.9618C4.86069 21.904 4.98742 21.8193 5.09418 21.7126L4.74063 21.359L5.09418 21.7126C5.20093 21.6058 5.28562 21.4791 5.34339 21.3396C5.40117 21.2001 5.4309 21.0506 5.4309 20.8997C5.4309 20.7487 5.40117 20.5992 5.34339 20.4597C5.28579 20.3206 5.20145 20.1943 5.09517 20.0877C5.09484 20.0874 5.09451 20.0871 5.09418 20.0867L4.44311 19.4309Z" fill="#0B6C72" stroke="#0B6C72"/>
</svg>
