<svg width="31" height="30" viewBox="0 0 31 30" fill="none" xmlns="http://www.w3.org/2000/svg">
<path d="M0.78406 26.3316L12.1081 16.0234L13.9189 17.2369L2.27263 27.8564C1.85959 28.233 1.21985 28.205 0.841247 27.7938L0.725092 27.6676C0.370932 27.283 0.397386 26.6836 0.78406 26.3316Z" fill="#0C6C72"/>
<path d="M15.3328 5.22334C18.9772 2.49303 22.8121 3.2683 24.3022 4.00987C17.6247 0.217768 12.9277 4.81885 12.2486 7.47331C11.2583 10.0519 12.1638 12.3272 13.5219 14.4761C12.475 12.2008 11.6884 7.95365 15.3328 5.22334Z" fill="#34AA85"/>
<path d="M30.7526 9.42084C30.4357 5.80066 27.8854 3.56416 26.6498 2.89844L29.8189 10.4574C30.1867 11.1399 28.8285 16.4236 23.6789 18.1679C19.5591 19.5634 15.3602 18.109 13.804 17.3337C14.766 18.7241 17.3974 19.8618 21.4719 19.6342C24.7314 19.4522 27.3195 17.418 28.206 16.4236C29.1869 15.5977 31.0695 13.041 30.7526 9.42084Z" fill="#34AA85"/>
<path d="M2.08894 27.9554L13.8596 17.2617L14.6519 18.0707L6.47464 25.5285L3.11552 28.4492C2.6313 28.8702 1.90514 28.8496 1.44565 28.4017L1.01374 27.9807C1.46646 28.2639 1.94747 28.0818 2.08894 27.9554Z" fill="#34AA85"/>
<path fill-rule="evenodd" clip-rule="evenodd" d="M24.9236 5.47656C26.2818 6.83329 28.4843 9.64787 25.8573 13.1872C24.0748 15.5888 21.698 15.9175 20.0569 15.9175C22.2356 15.4287 25.7159 14.1225 26.3666 9.77427C26.4839 8.99057 26.2138 7.09452 24.9236 5.47656Z" fill="#34AA85"/>
<path d="M19.3212 15.0579C26.7231 13.2377 26.1403 7.91193 24.9236 5.47656C26.2138 7.09452 26.4839 8.99057 26.3666 9.77427C25.7159 14.1225 22.2356 15.4287 20.0569 15.9175L19.3212 15.0579Z" fill="#34AA85"/>
<path d="M10.9081 9.70194C10.9081 13.7427 14.6361 17.3225 19.6319 17.3225C24.6276 17.3225 28.3557 13.7427 28.3557 9.70194C28.3557 5.66121 24.6276 2.08135 19.6319 2.08135C14.6361 2.08135 10.9081 5.66121 10.9081 9.70194Z" stroke="#0C6C72" stroke-width="3.26425"/>
</svg>
