<svg width="30" height="28" viewBox="0 0 30 28" fill="none" xmlns="http://www.w3.org/2000/svg">
<path d="M10.1863 0.0564709C8.70691 0.303196 7.43944 0.946827 7.10427 1.61906C6.99255 1.83718 6.98869 1.94803 7.06574 2.21979C7.2237 2.73827 7.28148 3.65008 7.19673 4.20789C7.08501 4.95164 6.83845 5.52018 6.47246 5.87775C5.60565 6.7252 4.24957 7.03271 2.95899 6.67156C2.39267 6.51423 2.06906 6.43914 1.94578 6.43914C1.6607 6.44272 1.2716 6.69659 0.998071 7.05417C0.335443 7.92307 -0.126856 9.33548 0.0310962 10.0113C0.085031 10.2437 0.235278 10.5333 0.373968 10.6728C0.431755 10.7264 0.63979 10.8444 0.840119 10.9303C1.74545 11.3236 2.53522 11.9851 2.89735 12.6502C3.14776 13.1043 3.24022 13.7229 3.14006 14.2557C3.02448 14.8743 2.70087 15.3999 2.10759 15.9363C1.69152 16.3153 1.29471 16.5728 0.793889 16.7873C0.269951 17.0161 0.127408 17.177 0.0349487 17.6669C-0.0921835 18.3284 0.373968 19.7444 1.00192 20.6026C1.4334 21.1962 2.01898 21.3857 2.75095 21.1783C3.71408 20.903 4.96999 20.9387 5.65958 21.2605C6.26828 21.5466 6.81918 22.2188 7.01181 22.9161C7.06574 23.1092 7.08501 23.3058 7.08501 23.6205C7.08501 24.1104 7.01566 24.4215 6.81533 24.8577C6.58033 25.3655 6.53025 25.6587 6.62656 25.9304C6.73058 26.2129 7.2237 26.6527 7.79772 26.9745C8.19838 27.1962 9.02666 27.5073 9.65077 27.6682C9.96667 27.7469 10.1169 27.7648 10.5137 27.7648C10.9914 27.7684 10.9953 27.7684 11.2418 27.6432C11.5269 27.5002 11.6502 27.3607 11.839 26.9567C12.0316 26.549 12.3552 26.1199 12.7251 25.791C13.4493 25.1473 14.1081 24.8792 14.9826 24.8792C15.6452 24.8756 16.1114 25.0043 16.6584 25.3369C17.2363 25.6873 17.6794 26.1664 18.0184 26.8065C18.2611 27.2677 18.369 27.4251 18.55 27.5681C18.7889 27.7648 18.916 27.797 19.3552 27.7755C20.615 27.7076 22.3871 26.903 22.7569 26.2308C22.8263 26.1021 22.861 25.9769 22.8725 25.7838C22.8879 25.5407 22.8764 25.4835 22.7569 25.1938C22.4757 24.5216 22.3987 24.0854 22.4603 23.4882C22.5219 22.866 22.7646 22.3332 23.2077 21.8398C23.7509 21.2319 24.4559 20.978 25.5962 20.978C26.1818 20.978 26.463 21.021 27.2335 21.2248C27.8923 21.4036 28.6012 21.1032 29.0789 20.4417C29.6105 19.7122 29.938 18.8004 29.9457 18.0424C29.9495 17.6812 29.9418 17.6312 29.8455 17.4524C29.6568 17.102 29.3871 16.891 28.7938 16.6335C28.0888 16.3296 27.5494 15.8362 27.222 15.1997C26.9908 14.7527 26.9485 14.5417 26.9446 13.8945C26.9446 13.3904 26.9562 13.2902 27.0332 13.0542C27.3337 12.1746 28.0618 11.4023 28.9633 11.0125C29.5104 10.7765 29.5335 10.7622 29.6914 10.6156C29.7762 10.5369 29.8763 10.4153 29.9149 10.3438C30.0651 10.0578 30.015 9.49281 29.7762 8.71688C29.5296 7.91949 29.1521 7.21507 28.7591 6.81817C28.5087 6.56429 28.2891 6.4606 27.9617 6.44629C27.7459 6.43199 27.6689 6.44629 27.4416 6.53926C26.7289 6.8289 26.2319 6.91829 25.4806 6.89326C24.6793 6.86823 24.2093 6.71805 23.6623 6.32114C22.5335 5.49515 22.129 4.05056 22.6645 2.75972C22.8571 2.29845 22.9033 2.08033 22.8455 1.88724C22.7338 1.52609 22.1521 0.971857 21.5241 0.635738C20.6034 0.142288 19.2126 -0.140194 18.7619 0.0743504C18.5192 0.188772 18.2418 0.510588 18.0145 0.946827C17.7102 1.52967 17.3557 1.91227 16.7933 2.26985C15.757 2.93135 14.2506 2.96354 13.2528 2.34851C12.6634 1.98379 12.2204 1.49749 11.8698 0.8181C11.6309 0.356833 11.446 0.138712 11.2226 0.0528946C11.0646 -0.00789261 10.5561 -0.00789261 10.1863 0.0564709ZM16.2193 7.47253C17.6832 7.70853 19.1549 8.45943 20.1488 9.47493C21.0927 10.444 21.7129 11.6597 21.9209 12.9505C21.9903 13.3832 21.9787 14.4237 21.9017 14.86C21.8208 15.3034 21.6782 15.8075 21.5241 16.1615C20.561 18.4321 18.5076 19.9518 15.9457 20.2987C15.3293 20.3809 14.2121 20.3559 13.6188 20.245C11.4036 19.8302 9.53134 18.4393 8.60674 16.5227C8.36403 16.0185 8.26772 15.7611 8.14444 15.2569C7.87477 14.1377 7.94411 12.9041 8.34092 11.8063C9.20002 9.41772 11.4576 7.71568 14.1736 7.40459C14.632 7.35453 15.7069 7.39029 16.2193 7.47253Z" fill="#0B6C72"/>
</svg>
