<svg width="33" height="32" viewBox="0 0 33 32" fill="none" xmlns="http://www.w3.org/2000/svg">
<g filter="url(#filter0_d_1_232)">
<circle cx="14.0879" cy="14" r="14" fill="url(#paint0_linear_1_232)"/>
<circle cx="14.0879" cy="14" r="13.5" stroke="#C4C4C4"/>
</g>
<path fill-rule="evenodd" clip-rule="evenodd" d="M14.6466 7.4807C14.548 7.56954 14.4677 8.36323 14.4677 9.24434V10.8463L13.2205 11.4174C11.6293 12.1462 9.91716 13.6927 9.11233 15.1282C8.50954 16.2032 7.36939 18.7903 7.36918 20.8355C7.36164 21.647 8.46352 20.3136 9.71745 19.315C11.1378 18.1838 12.721 17.3025 13.7401 17.0759L14.4427 16.9196L14.5202 18.5288C14.5704 19.5733 14.7059 20.1378 14.9059 20.1378C15.3274 20.1378 23.0491 14.119 23.0491 13.7905C23.0491 13.5489 15.5235 7.52935 15.0387 7.3834C14.9212 7.34791 14.7449 7.39186 14.6466 7.4807ZM18.6539 11.4621C20.2131 12.7011 21.4889 13.7498 21.4889 13.7921C21.4889 13.9155 15.8334 18.3751 15.6769 18.3751C15.5989 18.3751 15.4998 17.82 15.4564 17.1412C15.3877 16.0634 15.3032 15.8977 14.7883 15.8317C13.8615 15.7127 12.4809 16.2223 10.6351 17.3645C9.69899 17.9436 8.99115 18.2759 9.06214 18.1025C9.13287 17.9293 9.39187 17.2355 9.63736 16.5607C10.2292 14.9336 12.0448 13.1326 13.9856 12.247L15.5079 11.5525V10.3809C15.5079 9.73649 15.5778 9.20909 15.6634 9.20909C15.7489 9.20909 17.0946 10.223 18.6539 11.4621Z" fill="#0B6C72"/>
<path d="M18.6539 11.4621C20.2131 12.7011 21.4889 13.7498 21.4889 13.7921C21.4889 13.9155 15.8334 18.3751 15.6769 18.3751C15.5989 18.3751 15.4998 17.82 15.4564 17.1412C15.3877 16.0634 15.3032 15.8977 14.7883 15.8317C13.8615 15.7127 12.4809 16.2223 10.6351 17.3645C9.69899 17.9436 8.99115 18.2759 9.06214 18.1025C9.13287 17.9293 9.39187 17.2355 9.63736 16.5607C10.2292 14.9336 12.0448 13.1326 13.9856 12.247L15.5079 11.5525V10.3809C15.5079 9.73649 15.5778 9.20909 15.6634 9.20909C15.7489 9.20909 17.0946 10.223 18.6539 11.4621Z" fill="#0B6C72"/>
<path fill-rule="evenodd" clip-rule="evenodd" d="M14.6466 7.4807C14.548 7.56954 14.4677 8.36323 14.4677 9.24434V10.8463L13.2205 11.4174C11.6293 12.1462 9.91716 13.6927 9.11233 15.1282C8.50954 16.2032 7.36939 18.7903 7.36918 20.8355C7.36164 21.647 8.46352 20.3136 9.71745 19.315C11.1378 18.1838 12.721 17.3025 13.7401 17.0759L14.4427 16.9196L14.5202 18.5288C14.5704 19.5733 14.7059 20.1378 14.9059 20.1378C15.3274 20.1378 23.0491 14.119 23.0491 13.7905C23.0491 13.5489 15.5235 7.52935 15.0387 7.3834C14.9212 7.34791 14.7449 7.39186 14.6466 7.4807ZM18.6539 11.4621C20.2131 12.7011 21.4889 13.7498 21.4889 13.7921C21.4889 13.9155 15.8334 18.3751 15.6769 18.3751C15.5989 18.3751 15.4998 17.82 15.4564 17.1412C15.3877 16.0634 15.3032 15.8977 14.7883 15.8317C13.8615 15.7127 12.4809 16.2223 10.6351 17.3645C9.69899 17.9436 8.99115 18.2759 9.06214 18.1025C9.13287 17.9293 9.39187 17.2355 9.63736 16.5607C10.2292 14.9336 12.0448 13.1326 13.9856 12.247L15.5079 11.5525V10.3809C15.5079 9.73649 15.5778 9.20909 15.6634 9.20909C15.7489 9.20909 17.0946 10.223 18.6539 11.4621Z" stroke="#0B6C72"/>
<path d="M18.6539 11.4621C20.2131 12.7011 21.4889 13.7498 21.4889 13.7921C21.4889 13.9155 15.8334 18.3751 15.6769 18.3751C15.5989 18.3751 15.4998 17.82 15.4564 17.1412C15.3877 16.0634 15.3032 15.8977 14.7883 15.8317C13.8615 15.7127 12.4809 16.2223 10.6351 17.3645C9.69899 17.9436 8.99115 18.2759 9.06214 18.1025C9.13287 17.9293 9.39187 17.2355 9.63736 16.5607C10.2292 14.9336 12.0448 13.1326 13.9856 12.247L15.5079 11.5525V10.3809C15.5079 9.73649 15.5778 9.20909 15.6634 9.20909C15.7489 9.20909 17.0946 10.223 18.6539 11.4621Z" stroke="#0B6C72"/>
<defs>
<filter id="filter0_d_1_232" x="0.0878906" y="0" width="32" height="32" filterUnits="userSpaceOnUse" color-interpolation-filters="sRGB">
<feFlood flood-opacity="0" result="BackgroundImageFix"/>
<feColorMatrix in="SourceAlpha" type="matrix" values="0 0 0 0 0 0 0 0 0 0 0 0 0 0 0 0 0 0 127 0" result="hardAlpha"/>
<feOffset dx="2" dy="2"/>
<feGaussianBlur stdDeviation="1"/>
<feComposite in2="hardAlpha" operator="out"/>
<feColorMatrix type="matrix" values="0 0 0 0 0 0 0 0 0 0 0 0 0 0 0 0 0 0 0.25 0"/>
<feBlend mode="normal" in2="BackgroundImageFix" result="effect1_dropShadow_1_232"/>
<feBlend mode="normal" in="SourceGraphic" in2="effect1_dropShadow_1_232" result="shape"/>
</filter>
<linearGradient id="paint0_linear_1_232" x1="14.0879" y1="0" x2="14.0879" y2="28" gradientUnits="userSpaceOnUse">
<stop offset="0.442708" stop-color="white"/>
<stop offset="0.859375" stop-color="#FBF7F7"/>
</linearGradient>
</defs>
</svg>
