<svg width="18" height="16" viewBox="0 0 18 16" fill="none" xmlns="http://www.w3.org/2000/svg">
<path fill-rule="evenodd" clip-rule="evenodd" d="M8.64659 1.4807C8.54803 1.56954 8.46768 2.36323 8.46768 3.24434V4.84628L7.22051 5.4174C5.6293 6.14622 3.91716 7.69269 3.11233 9.12824C2.50954 10.2032 1.36939 12.7903 1.36918 14.8355C1.36164 15.647 2.46352 14.3136 3.71745 13.315C5.13781 12.1838 6.72096 11.3025 7.74008 11.0759L8.44272 10.9196L8.52021 12.5288C8.5704 13.5733 8.70588 14.1378 8.90586 14.1378C9.32739 14.1378 17.0491 8.11903 17.0491 7.79046C17.0491 7.54886 9.52346 1.52935 9.03874 1.3834C8.9212 1.34791 8.74489 1.39186 8.64659 1.4807ZM12.6539 5.46205C14.2131 6.70111 15.4889 7.7498 15.4889 7.79211C15.4889 7.9155 9.83343 12.3751 9.67688 12.3751C9.59887 12.3751 9.49979 11.82 9.45637 11.1412C9.38772 10.0634 9.3032 9.89771 8.78831 9.83167C7.86152 9.71275 6.48094 10.2223 4.63515 11.3645C3.69899 11.9436 2.99115 12.2759 3.06214 12.1025C3.13287 11.9293 3.39187 11.2355 3.63736 10.5607C4.22922 8.93363 6.04485 7.13262 7.98556 6.24704L9.50786 5.55254V4.38093C9.50786 3.73649 9.57781 3.20909 9.66336 3.20909C9.74892 3.20909 11.0946 4.22299 12.6539 5.46205Z" fill="#0B6C72"/>
<path d="M12.6539 5.46205C14.2131 6.70111 15.4889 7.7498 15.4889 7.79211C15.4889 7.9155 9.83343 12.3751 9.67688 12.3751C9.59887 12.3751 9.49979 11.82 9.45637 11.1412C9.38772 10.0634 9.3032 9.89771 8.78831 9.83167C7.86152 9.71275 6.48094 10.2223 4.63515 11.3645C3.69899 11.9436 2.99115 12.2759 3.06214 12.1025C3.13287 11.9293 3.39187 11.2355 3.63736 10.5607C4.22922 8.93363 6.04485 7.13262 7.98556 6.24704L9.50786 5.55254V4.38093C9.50786 3.73649 9.57781 3.20909 9.66336 3.20909C9.74892 3.20909 11.0946 4.22299 12.6539 5.46205Z" fill="#0B6C72"/>
<path fill-rule="evenodd" clip-rule="evenodd" d="M8.64659 1.4807C8.54803 1.56954 8.46768 2.36323 8.46768 3.24434V4.84628L7.22051 5.4174C5.6293 6.14622 3.91716 7.69269 3.11233 9.12824C2.50954 10.2032 1.36939 12.7903 1.36918 14.8355C1.36164 15.647 2.46352 14.3136 3.71745 13.315C5.13781 12.1838 6.72096 11.3025 7.74008 11.0759L8.44272 10.9196L8.52021 12.5288C8.5704 13.5733 8.70588 14.1378 8.90586 14.1378C9.32739 14.1378 17.0491 8.11903 17.0491 7.79046C17.0491 7.54886 9.52346 1.52935 9.03874 1.3834C8.9212 1.34791 8.74489 1.39186 8.64659 1.4807ZM12.6539 5.46205C14.2131 6.70111 15.4889 7.7498 15.4889 7.79211C15.4889 7.9155 9.83343 12.3751 9.67688 12.3751C9.59887 12.3751 9.49979 11.82 9.45637 11.1412C9.38772 10.0634 9.3032 9.89771 8.78831 9.83167C7.86152 9.71275 6.48094 10.2223 4.63515 11.3645C3.69899 11.9436 2.99115 12.2759 3.06214 12.1025C3.13287 11.9293 3.39187 11.2355 3.63736 10.5607C4.22922 8.93363 6.04485 7.13262 7.98556 6.24704L9.50786 5.55254V4.38093C9.50786 3.73649 9.57781 3.20909 9.66336 3.20909C9.74892 3.20909 11.0946 4.22299 12.6539 5.46205Z" stroke="#0B6C72"/>
<path d="M12.6539 5.46205C14.2131 6.70111 15.4889 7.7498 15.4889 7.79211C15.4889 7.9155 9.83343 12.3751 9.67688 12.3751C9.59887 12.3751 9.49979 11.82 9.45637 11.1412C9.38772 10.0634 9.3032 9.89771 8.78831 9.83167C7.86152 9.71275 6.48094 10.2223 4.63515 11.3645C3.69899 11.9436 2.99115 12.2759 3.06214 12.1025C3.13287 11.9293 3.39187 11.2355 3.63736 10.5607C4.22922 8.93363 6.04485 7.13262 7.98556 6.24704L9.50786 5.55254V4.38093C9.50786 3.73649 9.57781 3.20909 9.66336 3.20909C9.74892 3.20909 11.0946 4.22299 12.6539 5.46205Z" stroke="#0B6C72"/>
</svg>
