<svg width="21" height="17" viewBox="0 0 21 17" fill="none" xmlns="http://www.w3.org/2000/svg">
<path d="M5.09751 5.24049H5.09762C5.21924 5.24051 5.33762 5.20496 5.43778 5.13906L5.09751 5.24049ZM5.09751 5.24049H2.10833C1.6839 5.24049 1.27553 5.40681 0.973419 5.70495C0.67108 6.00331 0.5 6.4094 0.5 6.83424V11.2092C0.5 11.6341 0.67108 12.0402 0.973419 12.3385C1.27553 12.6367 1.6839 12.803 2.10833 12.803L5.09751 12.803L5.09836 12.803L5.09751 5.24049ZM10.0849 2.081L5.43779 5.13905L12.5833 3.41189L12.0833 3.4108H12.5833V3.41142C12.5839 3.12144 12.5046 2.83717 12.3545 2.58903C12.2043 2.34082 11.9892 2.13839 11.7328 2.00266C11.4764 1.86695 11.1879 1.80277 10.8981 1.81652C10.6083 1.83027 10.3273 1.92145 10.085 2.08093C10.085 2.08096 10.085 2.08098 10.0849 2.081ZM12.5833 14.6326L12.0833 14.6327H12.5833C12.5833 14.6326 12.5833 14.6326 12.5833 14.6326ZM10.0849 15.9603L10.0851 15.9604L10.3599 15.5427L10.0849 15.9603ZM5.71263 12.4856L5.43785 12.9034L5.43812 12.9035C5.43826 12.9036 5.4384 12.9037 5.43854 12.9038L5.71263 12.4856Z" fill="#0B6C72" stroke="#0B6C72"/>
<path d="M15.25 4.21429C15.25 4.21429 16.5455 5.82143 16.5455 8.5C16.5455 11.1786 15.25 12.7857 15.25 12.7857M17.8409 1C17.8409 1 20 3.67857 20 8.5C20 13.3214 17.8409 16 17.8409 16" stroke="#0B6C72" stroke-width="2" stroke-linecap="round" stroke-linejoin="round"/>
</svg>
