<svg width="36" height="38" viewBox="0 0 36 38" fill="none" xmlns="http://www.w3.org/2000/svg">
<path fill-rule="evenodd" clip-rule="evenodd" d="M34.6047 18.9457C34.6047 9.77101 27.2288 2.34448 18.021 2.34448C8.89705 2.34448 1.5332 9.77101 1.5332 18.9457C1.5332 28.2288 8.89705 35.6433 18.021 35.6433C27.2288 35.6433 34.6047 28.2288 34.6047 18.9457Z" fill="#EF7F1A"/>
<path fill-rule="evenodd" clip-rule="evenodd" d="M0.0844727 18.9457C0.0844727 8.9874 8.13082 0.885742 18.0211 0.885742C27.9114 0.885742 35.9578 8.9874 35.9578 18.9457C35.9578 28.904 27.9114 37.0177 18.0211 37.0177C8.13082 37.0177 0.0844727 28.904 0.0844727 18.9457ZM2.40738 18.9457C2.40738 27.6381 9.38806 34.6668 18.0211 34.6668C26.6422 34.6668 33.6349 27.6381 33.6349 18.9457C33.6349 10.3618 26.6422 3.22461 18.0211 3.22461C9.38806 3.22461 2.40738 10.3618 2.40738 18.9457Z" fill="#FEFEFE"/>
<path fill-rule="evenodd" clip-rule="evenodd" d="M10.9326 25.2992L24.2235 18.9457L10.9326 12.7006V9.67456L27.4205 17.4869V20.5129L10.9326 28.3253V25.2992Z" fill="#FEFEFE"/>
</svg>
