<svg width="217" height="38" viewBox="0 0 217 38" fill="none" xmlns="http://www.w3.org/2000/svg">
<g clip-path="url(#clip0_868_97)">
<path fill-rule="evenodd" clip-rule="evenodd" d="M25.6837 26.6013L20.4392 13.6169H22.5705L26.7494 24.5518H26.8452L30.9162 13.6169H33.0476L27.7192 26.6013H25.6837Z" fill="#2B2A29"/>
<path fill-rule="evenodd" clip-rule="evenodd" d="M0.0119737 23.1895C0.0119737 18.8975 4.94515 18.5961 8.05832 18.5961H8.92043V18.3068C8.92043 16.0644 7.86674 14.8949 5.62766 14.8949C4.08304 14.8949 2.81383 15.4736 1.65238 16.4502L0.586713 15.1843C1.74817 13.9063 3.59212 13.2312 6.02279 13.2312C8.63306 13.2312 10.7644 14.69 10.7644 17.9089V23.7682C10.7644 24.7447 10.8722 25.9262 11.0637 26.6014H9.21978C9.12399 26.0227 9.12399 25.239 9.12399 24.5518H9.0282C7.96253 26.2156 6.50174 26.9992 4.4662 26.9992C2.1433 26.9992 0 25.7213 0 23.1895H0.0119737ZM1.93975 22.9001C1.93975 24.6483 3.59212 25.3355 5.05292 25.3355C7.66319 25.3355 8.92043 23.3824 8.92043 21.14V20.1634H8.05832C6.21437 20.1634 1.93975 20.2599 1.93975 22.9001Z" fill="#2B2A29"/>
<path fill-rule="evenodd" clip-rule="evenodd" d="M50.4692 15.2808H46.6855V22.9967C46.6855 24.9498 47.4638 25.3355 48.5295 25.3355C49.212 25.3355 49.8825 25.1426 50.4692 24.8533L50.565 26.505C49.8825 26.8064 49.0084 26.9993 48.0505 26.9993C46.6855 26.9993 44.8416 26.4085 44.8416 23.4789V15.2808H42.1355V13.6171H44.8416V9.90381H46.6855V13.6171H50.4692V15.2808Z" fill="#2B2A29"/>
<path fill-rule="evenodd" clip-rule="evenodd" d="M94.4489 18.9457C94.4489 8.79456 86.199 0.5 76.0213 0.5C65.9275 0.5 57.5938 8.79456 57.5938 18.9457C57.5938 29.2054 65.9275 37.5 76.0213 37.5C86.199 37.5 94.4369 29.2054 94.4489 18.9457Z" fill="#FEFEFE"/>
<path fill-rule="evenodd" clip-rule="evenodd" d="M92.6047 18.9457C92.6047 9.77101 85.2288 2.34448 76.021 2.34448C66.897 2.34448 59.5332 9.77101 59.5332 18.9457C59.5332 28.2288 66.897 35.6433 76.021 35.6433C85.2288 35.6433 92.6047 28.2288 92.6047 18.9457Z" fill="#EF7F1A"/>
<path fill-rule="evenodd" clip-rule="evenodd" d="M58.0845 18.9457C58.0845 8.9874 66.1308 0.885742 76.0211 0.885742C85.9114 0.885742 93.9578 8.9874 93.9578 18.9457C93.9578 28.904 85.9114 37.0177 76.0211 37.0177C66.1308 37.0177 58.0845 28.904 58.0845 18.9457ZM60.4074 18.9457C60.4074 27.6381 67.3881 34.6668 76.0211 34.6668C84.6422 34.6668 91.6349 27.6381 91.6349 18.9457C91.6349 10.3618 84.6422 3.22461 76.0211 3.22461C67.3881 3.22461 60.4074 10.3618 60.4074 18.9457Z" fill="#FEFEFE"/>
<path fill-rule="evenodd" clip-rule="evenodd" d="M68.9326 25.2992L82.2235 18.9457L68.9326 12.7006V9.67456L85.4205 17.4869V20.5129L68.9326 28.3253V25.2992Z" fill="#FEFEFE"/>
<path fill-rule="evenodd" clip-rule="evenodd" d="M101.705 20.1634C101.705 16.1608 104.507 13.2312 108.195 13.2312C112.17 13.3276 114.397 16.2573 114.397 19.7656V20.6457H103.633C103.836 23.2859 105.872 25.3355 108.386 25.3355C110.326 25.3355 111.883 24.2625 112.565 23.093L114.014 24.2625C112.457 26.2156 110.529 26.9992 108.386 26.9992C104.507 26.9992 101.705 24.0696 101.705 20.1634ZM103.728 19.0904H112.457C112.457 16.6431 110.913 14.8949 108.195 14.8949C105.872 14.8949 103.728 16.9445 103.728 19.0904Z" fill="#2B2A29"/>
<path fill-rule="evenodd" clip-rule="evenodd" d="M126.335 26.6014V17.6196C126.335 16.4502 126.239 15.4736 126.131 13.617H127.975V16.0644H128.071C128.562 14.5935 129.915 13.2312 132.154 13.2312C132.729 13.2312 133.112 13.3276 133.507 13.4241L133.22 15.2807C132.92 15.1843 132.633 15.0878 132.154 15.0878C129.34 15.0878 128.071 17.5232 128.071 19.2833V26.6014H126.335Z" fill="#2B2A29"/>
<path fill-rule="evenodd" clip-rule="evenodd" d="M142.523 24.4554L144.08 23.3824C144.846 24.5518 146.02 25.3355 147.469 25.3355C149.025 25.3355 150.57 24.6483 150.57 23.1895C150.57 21.8272 149.408 21.3329 148.055 21.0435L146.307 20.6457C145.433 20.3563 143.014 19.6691 143.014 17.2338C143.014 14.4971 145.337 13.2312 147.756 13.2312C149.6 13.2312 151.252 13.9063 152.126 15.5701L150.474 16.6431C149.899 15.6665 149.025 14.8949 147.66 14.8949C146.403 14.8949 144.954 15.4736 144.954 16.836C144.954 18.1139 145.816 18.5961 147.564 18.994L149.408 19.3798C151.252 19.7656 152.51 21.14 152.51 22.9966C152.51 25.8177 150.091 26.9992 147.469 26.9992C145.529 26.9992 143.781 26.312 142.523 24.4554Z" fill="#2B2A29"/>
<path fill-rule="evenodd" clip-rule="evenodd" d="M163.082 23.1895C163.082 18.8975 168.027 18.5961 171.129 18.5961H172.003V18.3068C172.003 16.0644 170.937 14.8949 168.71 14.8949C167.153 14.8949 165.896 15.4736 164.735 16.4502L163.669 15.1843C164.83 13.9063 166.674 13.2312 169.093 13.2312C171.715 13.2312 173.847 14.69 173.847 17.9089V23.7682C173.847 24.7447 173.942 25.9262 174.134 26.6014H172.29C172.194 26.0227 172.194 25.239 172.194 24.5518H172.098C171.033 26.2156 169.584 26.9992 167.548 26.9992C165.214 26.9992 163.082 25.7213 163.082 23.1895ZM165.022 22.9001C165.022 24.6483 166.674 25.3355 168.123 25.3355C170.745 25.3355 172.003 23.3824 172.003 21.14V20.1634H171.129C169.285 20.1634 165.022 20.2599 165.022 22.9001Z" fill="#2B2A29"/>
<path fill-rule="evenodd" clip-rule="evenodd" d="M195.759 26.6014V19.3798C195.759 16.5466 194.885 14.8949 192.178 14.8949C191.783 14.8949 188.299 15.1843 188.299 19.9705V26.6014H186.455V16.4502C186.455 15.763 186.359 14.4971 186.263 13.617H188.203C188.299 14.3042 188.299 14.9914 188.299 15.6665C189.077 14.3042 190.909 13.2312 192.657 13.2312C195.962 13.2312 197.507 15.0878 197.507 18.4032V26.6014H195.759Z" fill="#2B2A29"/>
<path fill-rule="evenodd" clip-rule="evenodd" d="M216.904 15.2808H213.12V22.9967C213.12 24.9498 213.899 25.3355 214.964 25.3355C215.647 25.3355 216.317 25.1426 216.904 24.8533L217 26.505C216.317 26.8064 215.443 26.9993 214.473 26.9993C213.12 26.9993 211.277 26.4085 211.277 23.4789V15.2808H208.558V13.6171H211.277V9.90381H213.12V13.6171H216.904V15.2808Z" fill="#2B2A29"/>
</g>
<defs>
<clipPath id="clip0_868_97">
<rect width="217" height="37" fill="white" transform="translate(0 0.5)"/>
</clipPath>
</defs>
</svg>
