<svg width="129" height="128" viewBox="0 0 129 128" fill="none" xmlns="http://www.w3.org/2000/svg">
<path d="M34.0635 49.9999C34.4336 49.9988 34.7961 49.8954 35.1108 49.7013C35.4256 49.5071 35.6804 49.2298 35.8469 48.8999L43.8619 32.8999C44.0996 32.4276 44.1403 31.8805 43.975 31.3784C43.8098 30.8762 43.4522 30.4597 42.9803 30.2199L37.5701 27.4799L33.8231 25.5999L26.7699 21.9999C26.3939 21.8077 25.9666 21.739 25.5492 21.8037C25.1317 21.8683 24.7455 22.063 24.4455 22.3599C15.0956 31.7024 9.35412 44.0422 8.23511 57.1999C8.23511 57.9399 8.11488 58.6599 8.09484 59.3199C8.07481 59.9799 8.09484 61.1199 8.09484 61.9799C7.96698 72.9972 11.0556 83.8133 16.9836 93.1077C22.9116 102.402 31.4226 109.773 41.4774 114.32L49.2721 117.82C49.5301 117.937 49.8101 117.999 50.0936 118C50.479 117.999 50.8561 117.887 51.1795 117.678C51.5029 117.469 51.759 117.171 51.917 116.82L55.9245 107.94L57.5876 104.22L59.9922 98.8199C60.2022 98.3513 60.2237 97.82 60.0521 97.336C59.8805 96.852 59.529 96.4524 59.0704 96.2199L43.0404 88.2199C42.6925 88.0432 42.3004 87.9718 41.9124 88.0145C41.5244 88.0571 41.1573 88.2119 40.8563 88.4599L36.8488 91.7799C28.6089 83.2476 24.0172 71.8507 24.0447 59.9999C24.036 56.6359 24.4056 53.2816 25.1468 49.9999H34.0635Z" fill="#0F6296"/>
<path d="M70.1297 10C57.8697 9.99544 46.0369 14.4947 36.8874 22.64L39.3721 23.9L40.7547 24.6L44.7622 26.6C46.1641 27.3228 47.225 28.5667 47.7161 30.0634C48.2072 31.5601 48.089 33.1895 47.3871 34.6L39.3721 50.6C38.8895 51.6022 38.1375 52.4508 37.1999 53.0511C36.2622 53.6515 35.1759 53.98 34.0621 54H28.4716C28.1892 55.9875 28.0486 57.9926 28.0509 60C28.0334 69.5247 31.2786 78.7691 37.2481 86.2L38.2299 85.38C39.1311 84.6328 40.2313 84.1647 41.3953 84.0332C42.5594 83.9018 43.7366 84.1127 44.7822 84.64L60.8123 92.64C62.2002 93.3306 63.267 94.5299 63.7898 95.9872C64.3126 97.4445 64.2508 99.047 63.6175 100.46L61.6138 105.16L59.9306 108.94C63.2857 109.637 66.7029 109.992 70.1297 110C83.4155 110 96.1571 104.732 105.552 95.3553C114.946 85.9785 120.224 73.2608 120.224 60C120.224 46.7392 114.946 34.0215 105.552 24.6447C96.1571 15.2678 83.4155 10 70.1297 10V10ZM70.1297 18C70.5261 18 70.9135 18.1173 71.243 18.3371C71.5725 18.5568 71.8293 18.8692 71.981 19.2346C72.1326 19.6001 72.1723 20.0022 72.095 20.3902C72.0177 20.7781 71.8268 21.1345 71.5466 21.4142C71.2664 21.6939 70.9094 21.8844 70.5207 21.9616C70.132 22.0387 69.7291 21.9991 69.3629 21.8478C68.9968 21.6964 68.6839 21.44 68.4637 21.1111C68.2435 20.7822 68.126 20.3956 68.126 20C68.126 19.4696 68.3371 18.9609 68.7129 18.5858C69.0887 18.2107 69.5983 18 70.1297 18ZM48.3489 26.36C48.1529 26.0169 48.0631 25.6235 48.0908 25.2295C48.1185 24.8355 48.2624 24.4585 48.5045 24.146C48.7465 23.8336 49.0759 23.5996 49.4509 23.4737C49.826 23.3478 50.23 23.3356 50.6121 23.4386C50.9941 23.5416 51.337 23.7552 51.5976 24.0524C51.8582 24.3497 52.0248 24.7173 52.0763 25.1089C52.1279 25.5005 52.0621 25.8986 51.8873 26.2529C51.7125 26.6073 51.4365 26.902 51.0941 27.1C50.8654 27.2322 50.6127 27.318 50.3507 27.3524C50.0886 27.3867 49.8223 27.369 49.5672 27.3002C49.312 27.2315 49.073 27.113 48.8639 26.9516C48.6549 26.7902 48.4798 26.5892 48.3489 26.36V26.36ZM66.1222 58C66.1222 60.1217 65.2778 62.1566 63.7747 63.6569C62.2716 65.1571 60.2329 66 58.1072 66C57.0443 66 56.025 66.4214 55.2735 67.1716C54.5219 67.9217 54.0997 68.9391 54.0997 70H64.1185C64.6499 70 65.1596 70.2107 65.5353 70.5858C65.9111 70.9609 66.1222 71.4696 66.1222 72C66.1222 72.5304 65.9111 73.0391 65.5353 73.4142C65.1596 73.7893 64.6499 74 64.1185 74H52.0959C51.5645 74 51.0548 73.7893 50.6791 73.4142C50.3033 73.0391 50.0922 72.5304 50.0922 72V70C50.0922 67.8783 50.9366 65.8434 52.4397 64.3432C53.9428 62.8429 55.9815 62 58.1072 62C59.1701 62 60.1894 61.5786 60.9409 60.8284C61.6925 60.0783 62.1147 59.0609 62.1147 58V54C62.1147 52.9391 61.6925 51.9217 60.9409 51.1716C60.1894 50.4214 59.1701 50 58.1072 50C57.0443 50 56.025 50.4214 55.2735 51.1716C54.5219 51.9217 54.0997 52.9391 54.0997 54V56C54.0997 56.5304 53.8886 57.0391 53.5128 57.4142C53.137 57.7893 52.6274 58 52.0959 58C51.5645 58 51.0548 57.7893 50.6791 57.4142C50.3033 57.0391 50.0922 56.5304 50.0922 56V54C50.0922 51.8783 50.9366 49.8434 52.4397 48.3432C53.9428 46.8429 55.9815 46 58.1072 46C60.2329 46 62.2716 46.8429 63.7747 48.3432C65.2778 49.8434 66.1222 51.8783 66.1222 54V58ZM70.1297 102C69.7334 102 69.346 101.883 69.0165 101.663C68.687 101.443 68.4302 101.131 68.2785 100.765C68.1269 100.4 68.0872 99.9978 68.1645 99.6098C68.2418 99.2219 68.4326 98.8655 68.7129 98.5858C68.9931 98.3061 69.3501 98.1156 69.7388 98.0384C70.1275 97.9613 70.5304 98.0009 70.8966 98.1522C71.2627 98.3036 71.5756 98.56 71.7958 98.8889C72.016 99.2178 72.1335 99.6044 72.1335 100C72.1335 100.53 71.9224 101.039 71.5466 101.414C71.1708 101.789 70.6612 102 70.1297 102ZM88.1636 72C88.1636 72.5304 87.9525 73.0391 87.5767 73.4142C87.2009 73.7893 86.6912 74 86.1598 74C85.6284 74 85.1187 73.7893 84.7429 73.4142C84.3672 73.0391 84.156 72.5304 84.156 72V66H72.1335C71.7919 65.999 71.4563 65.9108 71.1585 65.7439C70.8607 65.5769 70.6105 65.3368 70.4318 65.0462C70.2532 64.7557 70.1519 64.4244 70.1376 64.0837C70.1233 63.7431 70.1965 63.4045 70.3502 63.1L78.3652 47.1C78.4772 46.8566 78.637 46.6382 78.8352 46.4576C79.0334 46.277 79.2659 46.1381 79.5189 46.0489C79.772 45.9597 80.0404 45.9222 80.3082 45.9385C80.576 45.9549 80.8379 46.0247 81.0781 46.144C81.3184 46.2632 81.5322 46.4294 81.707 46.6327C81.8817 46.836 82.0137 47.0722 82.0952 47.3274C82.1767 47.5826 82.206 47.8515 82.1814 48.1182C82.1568 48.3849 82.0787 48.644 81.9519 48.88L75.3796 62H84.156V56C84.156 55.4696 84.3672 54.9609 84.7429 54.5858C85.1187 54.2107 85.6284 54 86.1598 54C86.6912 54 87.2009 54.2107 87.5767 54.5858C87.9525 54.9609 88.1636 55.4696 88.1636 56V62C88.695 62 89.2047 62.2107 89.5804 62.5858C89.9562 62.9609 90.1673 63.4696 90.1673 64C90.1673 64.5304 89.9562 65.0391 89.5804 65.4142C89.2047 65.7893 88.695 66 88.1636 66V72ZM91.1692 96.38C90.8254 96.5756 90.4313 96.6653 90.0366 96.6376C89.6418 96.61 89.2641 96.4663 88.9511 96.2247C88.638 95.9831 88.4036 95.6544 88.2775 95.28C88.1514 94.9057 88.1391 94.5024 88.2423 94.1211C88.3455 93.7398 88.5595 93.3975 88.8573 93.1374C89.1551 92.8773 89.5234 92.711 89.9157 92.6596C90.3081 92.6081 90.7069 92.6738 91.0619 92.8483C91.4169 93.0227 91.7122 93.2982 91.9106 93.64C92.0431 93.8683 92.129 94.1204 92.1634 94.382C92.1979 94.6436 92.1801 94.9093 92.1112 95.164C92.0423 95.4187 91.9236 95.6572 91.7619 95.8659C91.6002 96.0746 91.3988 96.2493 91.1692 96.38ZM91.9106 26.38C91.7122 26.7218 91.4169 26.9973 91.0619 27.1717C90.7069 27.3462 90.3081 27.4119 89.9157 27.3604C89.5234 27.309 89.1551 27.1427 88.8573 26.8826C88.5595 26.6225 88.3455 26.2802 88.2423 25.8989C88.1391 25.5176 88.1514 25.1143 88.2775 24.74C88.4036 24.3656 88.638 24.0369 88.9511 23.7953C89.2641 23.5537 89.6418 23.41 90.0366 23.3824C90.4313 23.3547 90.8254 23.4444 91.1692 23.64C91.6275 23.9038 91.9627 24.3379 92.1016 24.8475C92.2405 25.357 92.1718 25.9008 91.9106 26.36V26.38ZM106.578 81C106.38 81.3418 106.084 81.6173 105.729 81.7917C105.374 81.9662 104.976 82.0319 104.583 81.9804C104.191 81.929 103.823 81.7627 103.525 81.5026C103.227 81.2425 103.013 80.9002 102.91 80.5189C102.807 80.1376 102.819 79.7343 102.945 79.36C103.071 78.9856 103.306 78.6569 103.619 78.4153C103.932 78.1737 104.309 78.03 104.704 78.0024C105.099 77.9747 105.493 78.0644 105.837 78.26C106.066 78.3907 106.268 78.5654 106.429 78.7741C106.591 78.9828 106.71 79.2213 106.779 79.476C106.848 79.7307 106.865 79.9964 106.831 80.258C106.797 80.5196 106.711 80.7717 106.578 81ZM110.205 58C110.601 58 110.989 58.1173 111.318 58.3371C111.648 58.5568 111.904 58.8692 112.056 59.2346C112.208 59.6001 112.247 60.0022 112.17 60.3902C112.093 60.7781 111.902 61.1345 111.622 61.4142C111.342 61.6939 110.984 61.8844 110.596 61.9616C110.207 62.0387 109.804 61.9991 109.438 61.8478C109.072 61.6964 108.759 61.44 108.539 61.1111C108.319 60.7822 108.201 60.3956 108.201 60C108.201 59.4696 108.412 58.9609 108.788 58.5858C109.164 58.2107 109.673 58 110.205 58ZM106.578 39C106.774 39.3431 106.864 39.7365 106.836 40.1305C106.809 40.5245 106.665 40.9015 106.423 41.214C106.18 41.5264 105.851 41.7604 105.476 41.8863C105.101 42.0122 104.697 42.0244 104.315 41.9214C103.933 41.8184 103.59 41.6048 103.329 41.3076C103.069 41.0103 102.902 40.6427 102.851 40.2511C102.799 39.8595 102.865 39.4614 103.04 39.1071C103.215 38.7527 103.491 38.458 103.833 38.26C104.062 38.1278 104.314 38.042 104.576 38.0076C104.838 37.9733 105.105 37.991 105.36 38.0598C105.615 38.1285 105.854 38.247 106.063 38.4084C106.272 38.5698 106.447 38.7708 106.578 39V39Z" fill="#0F6296"/>
</svg>
