<svg width="128" height="128" viewBox="0 0 128 128" fill="none" xmlns="http://www.w3.org/2000/svg">
<path d="M124.236 120.429H80.4146C83.1714 119.197 85.7905 117.678 88.2282 115.896V104.898C88.2282 95.6931 72.2132 90.5976 63.0292 90.5976C53.7943 90.5976 37.8094 95.7063 37.8094 104.898V115.891C40.2541 117.675 42.8801 119.196 45.6437 120.429H3.76517C3.26593 120.429 2.78715 120.627 2.43414 120.98C2.08113 121.333 1.88281 121.812 1.88281 122.311C1.88281 122.811 2.08113 123.29 2.43414 123.643C2.78715 123.996 3.26593 124.194 3.76517 124.194H124.236C124.735 124.194 125.214 123.996 125.567 123.643C125.92 123.29 126.118 122.811 126.118 122.311C126.118 121.812 125.92 121.333 125.567 120.98C125.214 120.627 124.735 120.429 124.236 120.429ZM91.2626 31.8701L90.1332 38.3266C90.0871 38.5975 90.1008 38.8752 90.1732 39.1402C90.2457 39.4053 90.3752 39.6513 90.5527 39.8611C90.7302 40.0709 90.9514 40.2393 91.2009 40.3547C91.4503 40.4701 91.7219 40.5295 91.9967 40.5289C92.2979 40.5289 92.599 40.4724 92.8626 40.3218L98.679 37.2724L104.496 40.3218C105.117 40.6607 105.888 40.6042 106.472 40.1713C107.056 39.7571 107.338 39.0418 107.225 38.3266L106.114 31.8701L110.801 27.296C111.328 26.7877 111.498 26.0536 111.291 25.3571C111.065 24.6795 110.481 24.1901 109.766 24.0771L103.272 23.136L100.373 17.263C100.219 16.9454 99.9781 16.6778 99.6783 16.4913C99.3786 16.3048 99.0321 16.2069 98.679 16.2089C97.9637 16.2089 97.3049 16.6042 96.9849 17.263L94.0861 23.136L87.592 24.0771C87.2458 24.1316 86.9214 24.2812 86.6552 24.5091C86.3889 24.737 86.1911 25.0343 86.0837 25.3679C85.9764 25.7016 85.9638 26.0585 86.0473 26.3989C86.1308 26.7393 86.3072 27.0498 86.5567 27.296L91.2626 31.8701ZM53.4837 24.7171L51.8461 34.223C51.7332 34.9195 52.0155 35.6348 52.599 36.0489C52.919 36.2936 53.3143 36.4254 53.7096 36.4254C54.0108 36.4254 54.312 36.3501 54.5755 36.1995L63.1026 31.7195L71.6296 36.1995C72.2696 36.5383 73.0414 36.4818 73.6249 36.0489C74.1896 35.6348 74.4908 34.9195 74.359 34.223L72.7214 24.7171L79.6296 17.9971C80.1379 17.5077 80.3261 16.7548 80.1002 16.0771C79.9957 15.7434 79.7988 15.446 79.5323 15.2195C79.2658 14.993 78.9406 14.8466 78.5943 14.7971L69.0508 13.4042L64.7967 4.7642C64.1567 3.4842 62.0485 3.4842 61.4273 4.7642L57.1543 13.4042L47.6296 14.7971C46.9143 14.8913 46.3308 15.3995 46.1049 16.0771C45.879 16.7548 46.0673 17.5077 46.5943 17.9971L53.4837 24.7171ZM21.8038 31.8701L20.6932 38.3266C20.5802 39.0418 20.8626 39.7571 21.4461 40.1713C22.0296 40.6042 22.8014 40.6607 23.4226 40.3218L29.239 37.2724L35.0555 40.3218C35.319 40.4724 35.6202 40.5289 35.9214 40.5289C36.1962 40.5295 36.4678 40.4701 36.7172 40.3547C36.9666 40.2393 37.1878 40.0709 37.3653 39.8611C37.5429 39.6513 37.6724 39.4053 37.7449 39.1402C37.8173 38.8752 37.831 38.5975 37.7849 38.3266L36.6555 31.8701L41.3614 27.296C41.6109 27.0498 41.7873 26.7393 41.8708 26.3989C41.9543 26.0585 41.9417 25.7016 41.8343 25.3679C41.727 25.0343 41.5292 24.737 41.2629 24.5091C40.9966 24.2812 40.6723 24.1316 40.3261 24.0771L33.832 23.136L30.9332 17.263C30.2932 15.9642 28.1849 15.9642 27.5449 17.263L24.6461 23.136L18.152 24.0771C17.4555 24.1901 16.8532 24.6795 16.6273 25.3571C16.4202 26.0536 16.5896 26.7877 17.1167 27.296L21.8038 31.8701ZM63.0179 57.1557C56.744 57.1557 51.6428 62.2588 51.6428 68.5327C51.6428 74.8066 56.744 79.9096 63.0179 79.9096C69.2917 79.9096 74.3948 74.8084 74.3948 68.5327C74.3948 62.2569 69.2936 57.1557 63.0179 57.1557Z" fill="#0F6296"/>
<path d="M92.7486 112.134C101.182 103.964 105.775 93.0654 105.662 81.4513C105.455 60.463 89.4545 38.7595 63.0263 38.7595C39.4592 38.7595 20.2969 57.9219 20.2969 81.4889C20.2969 93.1595 24.9086 104.04 33.2851 112.134C33.5298 112.369 33.7952 112.572 34.0437 112.8V104.898C34.0437 93.1896 51.303 86.8329 63.0282 86.8329C74.7044 86.8329 91.9919 93.1765 91.9919 104.898V112.802C92.2404 112.572 92.5058 112.369 92.7486 112.134ZM63.0169 83.6743C54.6686 83.6743 47.8771 76.8828 47.8771 68.5327C47.8771 60.1826 54.6686 53.3911 63.0169 53.3911C71.367 53.3911 78.1585 60.1845 78.1585 68.5327C78.1585 76.8809 71.367 83.6743 63.0169 83.6743Z" fill="#0F6296"/>
</svg>
