<svg width="128" height="128" viewBox="0 0 128 128" fill="none" xmlns="http://www.w3.org/2000/svg">
<path d="M104.5 68.8607C103.54 75.7087 101.115 82.2685 97.392 88.0922C93.6686 93.9159 88.7341 98.8663 82.9253 102.605L63.3836 115.279C62.1488 116.076 60.7107 116.5 59.2415 116.5C57.7722 116.5 56.3341 116.076 55.0993 115.279L35.5576 102.605C28.7773 98.2344 23.2035 92.2261 19.3491 85.1331C15.4946 78.0402 13.4833 70.0904 13.5001 62.0151V32.9276C13.4977 31.0995 14.1504 29.3312 15.3395 27.9442C16.5287 26.5572 18.1753 25.6436 19.9801 25.3694C26.1381 24.503 32.1919 23.0108 38.048 20.9159C44.0607 18.7618 49.8345 15.9901 55.2772 12.6452C56.4645 11.897 57.8387 11.5 59.2415 11.5C60.6442 11.5 62.0185 11.897 63.2057 12.6452C67.7887 15.4638 72.61 17.8737 77.6142 19.8471C71.4934 23.6082 67.0528 29.5842 65.2132 36.5358C63.3736 43.4874 64.2762 50.8813 67.7337 57.1845C71.1912 63.4877 76.9384 68.2165 83.7837 70.3904C90.629 72.5643 98.0471 72.0166 104.5 68.8607Z" fill="#0F6296"/>
<path d="M92 20.5C87.3521 20.5 82.8087 21.8782 78.9441 24.4605C75.0796 27.0427 72.0675 30.7129 70.2888 35.0069C68.5102 39.301 68.0448 44.0261 68.9516 48.5846C69.8583 53.1432 72.0965 57.3305 75.383 60.617C78.6695 63.9035 82.8568 66.1417 87.4154 67.0484C91.9739 67.9552 96.699 67.4898 100.993 65.7112C105.287 63.9325 108.957 60.9204 111.54 57.0559C114.122 53.1913 115.5 48.6479 115.5 44C115.493 37.7695 113.015 31.7962 108.609 27.3906C104.204 22.985 98.2305 20.5069 92 20.5ZM99.5722 47.7783C99.4191 48.0853 99.2069 48.3591 98.9479 48.584C98.6888 48.809 98.388 48.9807 98.0626 49.0893C97.7372 49.1979 97.3935 49.2414 97.0513 49.2171C96.7091 49.1929 96.375 49.1015 96.0681 48.948L90.8459 46.3369C90.4094 46.1219 90.0417 45.7891 89.7842 45.3762C89.5268 44.9632 89.3899 44.4866 89.3889 44V36.1667C89.3889 35.4742 89.664 34.81 90.1537 34.3203C90.6433 33.8307 91.3075 33.5556 92 33.5556C92.6925 33.5556 93.3567 33.8307 93.8463 34.3203C94.336 34.81 94.6111 35.4742 94.6111 36.1667V42.3863L98.3894 44.2742C98.6975 44.4262 98.9726 44.6375 99.1989 44.896C99.4252 45.1545 99.5982 45.4552 99.7081 45.7807C99.818 46.1062 99.8626 46.4502 99.8392 46.793C99.8159 47.1358 99.7252 47.4706 99.5722 47.7783Z" fill="#0F6296"/>
</svg>
