<svg width="128" height="128" viewBox="0 0 128 128" fill="none" xmlns="http://www.w3.org/2000/svg">
<path d="M118.199 50.22L65.2795 6.46002C65.0013 6.21951 64.6622 6.06034 64.2995 6.00002C64.02 5.95752 63.7346 5.97477 63.4623 6.05061C63.19 6.12645 62.9368 6.25917 62.7195 6.44002L31.7995 32V28.94H18.3995V43.1L9.79948 50.22C8.66083 51.1613 7.82554 52.4179 7.39841 53.8322C6.97129 55.2465 6.97136 56.7554 7.39862 58.1696C7.82588 59.5838 8.66129 60.8403 9.80003 61.7815C10.9388 62.7227 12.3301 63.3066 13.7995 63.46C15.7763 63.6454 17.7462 63.0415 19.2795 61.78L22.3395 59.26L61.7795 26.7C62.4003 26.1755 63.1868 25.8878 63.9995 25.8878C64.8122 25.8878 65.5987 26.1755 66.2195 26.7L108.639 61.78L108.879 61.96C110.033 62.8517 111.425 63.3807 112.879 63.48H113.399H114.119C115.102 63.3922 116.056 63.1101 116.929 62.65C117.801 62.1899 118.573 61.5611 119.199 60.8C120.462 59.265 121.066 57.2925 120.878 55.3137C120.691 53.3349 119.728 51.5107 118.199 50.24V50.22Z" fill="#0F6296"/>
<path d="M34.1591 12H16.0391C14.9345 12 14.0391 12.8954 14.0391 14V22.94C14.0391 24.0446 14.9345 24.94 16.0391 24.94H34.1591C35.2636 24.94 36.1591 24.0446 36.1591 22.94V14C36.1591 12.8954 35.2636 12 34.1591 12Z" fill="#0F6296"/>
<path d="M74.3789 118V122H92.9389V118V88.46H74.3789V118Z" fill="#0F6296"/>
<path d="M106.459 65.14L105.999 64.86L63.9989 30L24.9589 62.34L21.8989 64.86C21.4223 65.2546 20.9139 65.6091 20.3789 65.92C19.7451 66.2882 19.0748 66.5898 18.3789 66.82V120C18.3789 120.53 18.5896 121.039 18.9647 121.414C19.3398 121.789 19.8485 122 20.3789 122H70.3789V86.46C70.3789 85.9296 70.5896 85.4209 70.9647 85.0458C71.3398 84.6707 71.8485 84.46 72.3789 84.46H94.9389C95.4694 84.46 95.9781 84.6707 96.3531 85.0458C96.7282 85.4209 96.9389 85.9296 96.9389 86.46V122H110.939C111.469 122 111.978 121.789 112.353 121.414C112.728 121.039 112.939 120.53 112.939 120V67.48H112.599C110.367 67.3184 108.232 66.5047 106.459 65.14Z" fill="#0F6296"/>
</svg>
