<svg width="167" height="60" viewBox="0 0 167 60" fill="none" xmlns="http://www.w3.org/2000/svg">
<rect width="167" height="60" rx="30" fill="url(#paint0_linear_3114_1219)"/>
<g clip-path="url(#clip0_3114_1219)">
<path d="M135.175 30.4999L130.24 35.4354C129.705 35.9701 129.705 36.8381 130.24 37.3729C130.774 37.9076 131.642 37.9076 132.177 37.3729L138.137 31.4131C138.642 30.9081 138.642 30.0904 138.137 29.5867L132.177 23.6269C131.642 23.0922 130.774 23.0922 130.24 23.6269C129.705 24.1617 129.705 25.0297 130.24 25.5644L135.175 30.4999Z" fill="#7173C8"/>
</g>
<path d="M122.175 30.4999L117.24 35.4354C116.705 35.9701 116.705 36.8381 117.24 37.3729C117.774 37.9076 118.642 37.9076 119.177 37.3729L125.137 31.4131C125.642 30.9081 125.642 30.0904 125.137 29.5867L119.177 23.6269C118.642 23.0922 117.774 23.0922 117.24 23.6269C116.705 24.1617 116.705 25.0297 117.24 25.5644L122.175 30.4999Z" fill="#5F2EEA"/>
<defs>
<linearGradient id="paint0_linear_3114_1219" x1="-1.24425e-06" y1="30" x2="167" y2="30" gradientUnits="userSpaceOnUse">
<stop stop-color="#8C8EFD"/>
<stop offset="1" stop-color="#191919" stop-opacity="0"/>
</linearGradient>
<clipPath id="clip0_3114_1219">
<rect width="31" height="31" fill="white" transform="translate(117 46) rotate(-90)"/>
</clipPath>
</defs>
</svg>
