<svg width="1051" height="753" viewBox="0 0 1051 753" fill="none" xmlns="http://www.w3.org/2000/svg">
<path fill-rule="evenodd" clip-rule="evenodd" d="M388.053 591.486V644H389.366V591.486H441.879V644H443.192V591.486H495.704V644H497.017V591.486H549.532V644H550.845V591.486H603.358V644H604.671V591.486H653.246V590.173H604.671V537.66H653.246V536.347H604.671V483.833H653.246V482.52H604.671V430.008H653.246V428.695H604.671V376.182H653.246V374.87H604.671V322.355H653.246V321.042H604.671V268.53H653.246V267.217H604.671V214.703H653.246V213.39H604.671V153H603.358V213.39H550.845V153H549.532V213.39H497.017V153H495.704V213.39H443.192V153H441.879V213.39H389.366V153H388.053V213.39H335.54V154.313H334.227V213.39H281.714V154.313H280.401V213.39H227.887V154.313H226.575V213.39H178V214.703H226.575V267.217H178V268.53H226.575V321.042H178V322.355H226.575V374.87H178V376.182H226.575V428.695H178V430.008H226.575V482.52H178V483.833H226.575V536.347H178V537.66H226.575V590.173H178V591.486H226.575V644H227.887V591.486H280.401V644H281.714V591.486H334.227V644H335.54V591.486H388.053ZM603.358 214.703H550.845V267.217H603.358V214.703ZM603.358 268.53H550.845V321.042H603.358V268.53ZM603.358 322.355H550.845V374.87H603.358V322.355ZM603.358 376.182H550.845V428.695H603.358V376.182ZM603.358 430.008H550.845V482.52H603.358V430.008ZM603.358 483.833H550.845V536.347H603.358V483.833ZM603.358 537.66H550.845V590.173H603.358V537.66ZM549.532 537.66V590.173H497.017V537.66H549.532ZM549.532 483.833V536.347H497.017V483.833H549.532ZM549.532 430.008V482.52H497.017V430.008H549.532ZM549.532 376.182V428.695H497.017V376.182H549.532ZM549.532 322.355V374.87H497.017V322.355H549.532ZM549.532 268.53V321.042H497.017V268.53H549.532ZM549.532 214.703V267.217H497.017V214.703H549.532ZM495.704 214.703H443.192V267.217H495.704V214.703ZM495.704 268.53H443.192V321.042H495.704V268.53ZM495.704 322.355H443.192V374.87H495.704V322.355ZM495.704 376.182H443.192V428.695H495.704V376.182ZM495.704 430.008H443.192V482.52H495.704V430.008ZM495.704 483.833H443.192V536.347H495.704V483.833ZM495.704 537.66H443.192V590.173H495.704V537.66ZM441.879 537.66V590.173H389.366V537.66H441.879ZM441.879 483.833V536.347H389.366V483.833H441.879ZM441.879 430.008V482.52H389.366V430.008H441.879ZM441.879 376.182V428.695H389.366V376.182H441.879ZM441.879 322.355V374.87H389.366V322.355H441.879ZM441.879 268.53V321.042H389.366V268.53H441.879ZM441.879 214.703V267.217H389.366V214.703H441.879ZM388.053 590.173V537.66H335.54V590.173H388.053ZM388.053 536.347V483.833H335.54V536.347H388.053ZM388.053 482.52V430.008H335.54V482.52H388.053ZM388.053 428.695V376.182H335.54V428.695H388.053ZM388.053 374.87V322.355H335.54V374.87H388.053ZM388.053 321.042V268.53H335.54V321.042H388.053ZM388.053 267.217V214.703H335.54V267.217H388.053ZM281.714 214.703H334.227V267.217H281.714V214.703ZM281.714 268.53H334.227V321.042H281.714V268.53ZM281.714 322.355H334.227V374.87H281.714V322.355ZM281.714 376.182H334.227V428.695H281.714V376.182ZM281.714 430.008H334.227V482.52H281.714V430.008ZM281.714 483.833H334.227V536.347H281.714V483.833ZM281.714 537.66H334.227V590.173H281.714V537.66ZM280.401 590.173V537.66H227.887V590.173H280.401ZM280.401 536.347V483.833H227.887V536.347H280.401ZM280.401 482.52V430.008H227.887V482.52H280.401ZM280.401 428.695V376.182H227.887V428.695H280.401ZM280.401 374.87V322.355H227.887V374.87H280.401ZM280.401 321.042V268.53H227.887V321.042H280.401ZM280.401 267.217V214.703H227.887V267.217H280.401Z" fill="url(#paint0_radial_1124_1893)"/>
<g filter="url(#filter0_f_1124_1893)">
<path d="M629.144 434.488C579.399 412.848 359.251 392.367 329.362 387.006C241.241 366.113 410.878 307.864 445.766 307.864C480.991 307.863 602.171 299.374 665.11 307.864C728.05 316.354 743.06 396.98 746.294 421.187C749.527 445.394 691.325 461.538 629.144 434.488Z" fill="#5F2EEA" fill-opacity="0.4"/>
</g>
<defs>
<filter id="filter0_f_1124_1893" x="0.27832" y="0.09021" width="1050.14" height="752.463" filterUnits="userSpaceOnUse" color-interpolation-filters="sRGB">
<feFlood flood-opacity="0" result="BackgroundImageFix"/>
<feBlend mode="normal" in="SourceGraphic" in2="BackgroundImageFix" result="shape"/>
<feGaussianBlur stdDeviation="152" result="effect1_foregroundBlur_1124_1893"/>
</filter>
<radialGradient id="paint0_radial_1124_1893" cx="0" cy="0" r="1" gradientUnits="userSpaceOnUse" gradientTransform="translate(415.623 398.5) rotate(90) scale(245.5 237.623)">
<stop stop-color="#391952"/>
<stop offset="1" stop-color="#D9D9D9" stop-opacity="0"/>
</radialGradient>
</defs>
</svg>
