<svg xmlns="http://www.w3.org/2000/svg" width="1711.833" height="981.202" viewBox="0 0 1711.833 981.202"><g transform="translate(728.833 -9069.81)" opacity="0.4"><g transform="translate(-728.836 9069.81)"><path d="M1370.25,1140.442l-39.86-80.643L1443.029,933.71l-46.47,132.006Z" transform="translate(-616.664 -432.795)" fill="#c5c6c6" fill-rule="evenodd"/><path d="M1302.468,1058.974l-32.318-62.092,36.432-16.293a9.949,9.949,0,0,0,1.18.07c4.3,0,7.731-2.564,11.111-5.558l96.566-43.17-.333.955Z" transform="translate(-588.741 -431.97)" fill="#d7d8d8" fill-rule="evenodd"/><path d="M1310.343,1250.006l-108.723-38.895,69.082-42.371,39.86,80.643Z" transform="translate(-556.976 -541.737)" fill="#c2c2c3" fill-rule="evenodd"/><path d="M1310.338,1286.62l-.038-.016-63.433-22.687-45.257-16.2h.005l108.723,38.895-108.723-38.895,108.723,38.895Z" transform="translate(-556.971 -578.346)" fill="#c2c2c3" fill-rule="evenodd"/><path d="M1236.281,984.473l-39.2-79.313,97.172,25.472c-6.288,10.783-17.859,28.2-25.713,28.2a4.83,4.83,0,0,1-3.417-1.406c-4.464-4.244-6.845-5.853-7.8-5.853-2.736,0,6.379,13.358,11.513,15.558a13.321,13.321,0,0,0,3.879,1.046l-36.432,16.293Z" transform="translate(-554.872 -419.562)" fill="#babbbb" fill-rule="evenodd"/><path d="M1360.99,987.526c4.694-4.152,9.286-9.115,15.944-9.115h.166c.027,0,.048.005.075.005,6.4,0,5.606-9.989,5.579-19.657l26.84,7.039Z" transform="translate(-630.847 -444.406)" fill="#babbbb" fill-rule="evenodd"/><path d="M1201.615,1157.463h-.005L1238.38,1053l32.317,62.092Z" transform="translate(-556.971 -488.089)" fill="#cececf" fill-rule="evenodd"/><path d="M1107.89,1214.189,999.42,1175.38l108.47,38.8Z" transform="translate(-463.252 -544.815)" fill="#b6b7b7" fill-rule="evenodd"/><path d="M1107.89,1157.458l-108.47-38.8L1144.661,1053Z" transform="translate(-463.252 -488.089)" fill="#b6b7b7" fill-rule="evenodd"/><path d="M1107.89,1214.183h0l-108.47-38.8Z" transform="translate(-463.252 -544.815)" fill="#aaabab" fill-rule="evenodd"/><path d="M1310.343,1286.615h0L1201.62,1247.72Z" transform="translate(-556.976 -578.346)" fill="#aaabab" fill-rule="evenodd"/><path d="M999.42,1050.127h0L1105.46,905.16l39.2,79.313Z" transform="translate(-463.252 -419.562)" fill="#babbbb" fill-rule="evenodd"/><path d="M999.42,1050.127l49.071-139.4,56.969-5.563Z" transform="translate(-463.252 -419.562)" fill="#9d9e9e" fill-rule="evenodd"/><path d="M1090.89,868.441l19.19-54.5c3.074,2.221,6.609,9.694,13,9.694a10.075,10.075,0,0,0,4.3-1.046h0l5.526,10.874c-2.586.472-4.753.939-4.769,2.028-.048,4.265,1.357,5.746,3.519,5.746a11.612,11.612,0,0,0,4.528-1.314l11.668,22.956Z" transform="translate(-505.65 -377.279)" fill="#babbbb" fill-rule="evenodd"/><path d="M936.307,1051.179,863.26,907.43l122.118,4.346Z" transform="translate(-400.139 -420.614)" fill="#a6a7a7" fill-rule="evenodd"/><path d="M985.379,862.5h0L863.26,858.153l128.3-57.033A51.948,51.948,0,0,1,988,807.654c-2.43,3.905-1.733,5.22.327,5.22,4.168,0,13.9-5.392,14.356-5.472a1.851,1.851,0,0,1,.3-.022,2.786,2.786,0,0,1,1.588.617h0Z" transform="translate(-400.139 -371.337)" fill="#a6a7a7" fill-rule="evenodd"/><path d="M1428.4,950.354l-26.84-7.039c-.027-9.077.622-17.875,8.519-17.875a18.789,18.789,0,0,1,6.674,1.5c5.226,2.022,6.679,9.678,7.7,14.051.333,1.411.848,2,1.438,2a2.091,2.091,0,0,0,1.39-.848h0l1.116,8.219Z" transform="translate(-649.652 -428.962)" fill="#c2c2c3" fill-rule="evenodd"/><path d="M1424.316,873.667c-2.725-2.023-4.651-2.688-6.18-8.605-.027-.118-.306-.161-.762-.161-.907,0-2.516.182-4.276.359s-3.643.359-5.118.359a5.807,5.807,0,0,1-2.189-.284c-12.462-5.773-1.057-26.781,3.449-38.82.719-1.926-.113-5.193-1.175-8.723l8.256-3.2Z" transform="translate(-648.997 -377.581)" fill="#c2c2c3" fill-rule="evenodd"/><path d="M1294.252,893.805h0l-97.172-25.472,47.623-18.5a67.342,67.342,0,0,1,.333,6.964c.182,6.926,8.2,12.843,13.771,12.843,3.8,0,6.459-2.758,4.7-9.828-1.261-5.08-3.5-10.8-6.432-14.78l49.753-19.324c-1.105,9.849-9.421,20.381-12.006,30.622-2.972,11.8,5.987,25.171,2.816,31.378C1296.865,889.2,1295.7,891.332,1294.252,893.805Z" transform="translate(-554.871 -382.735)" fill="#c2c2c3" fill-rule="evenodd"/><path d="M1420.077,738.277l-.547-4.077A5.682,5.682,0,0,1,1420.077,738.277Z" transform="translate(-657.982 -340.318)" fill="#dfe0e0" fill-rule="evenodd"/><path d="M1523.713,746.591a1.812,1.812,0,0,1-.059-.177c-.284-3.187,5.054-3.31,5.59-4.657,1.051-2.677-7.677-17.832-5.284-20.89,2.328-2.983,8.181-3.7,14.248-3.7,5.043,0,10.231.493,13.643.585h0l18.975,6.878-.22.617-46.893,21.341Z" transform="translate(-706.194 -332.424)" fill="#dfe0e0" fill-rule="evenodd"/><path d="M1428.52,770.648h0l-2.06-15.37a27.043,27.043,0,0,0,5.311-.708c9.641-3.546,5.944-6.915,3.975-12.4-1.228-3.423,3.627-3.224,3.9-5.966.574-5.628-8.6-5.268-6.229-12.312.976-2.913,2.109-4.1,3.3-4.1,3.439,0,7.377,9.807,9.528,16.593,1.379,4.351,1.8,5.408-.295,9.565-1.25,2.452-2.822,5.064-3.514,5.531-1.234.848-2.6,3.948-.493,3.948a2.9,2.9,0,0,0,.66-.086c3-.654,3.6-2.006,4.04-2.006.375,0,.617.987,2.1,4.233.789,1.717,1.727,2.4,2.779,2.4a3.335,3.335,0,0,0,.6-.07Z" transform="translate(-661.194 -333.638)" fill="#dfe0e0" fill-rule="evenodd"/><path d="M1477.39,783.782c4.1-2.656,9.313-10.842,14.3-10.842a5.424,5.424,0,0,1,4.254,2.4l-18.556,8.444Z" transform="translate(-684.801 -358.275)" fill="#dfe0e0" fill-rule="evenodd"/><path d="M1416.277,709.9l-1.057-7.859A6.534,6.534,0,0,1,1416.277,709.9Z" transform="translate(-655.984 -325.411)" fill="#dfe0e0" fill-rule="evenodd"/><path d="M1187,842.385h0l-11.668-22.956c4.592-2.141,10.032-6.143,13.133-6.143a2.48,2.48,0,0,1,1.175.263.058.058,0,0,0,.037.011c.81,0,1.384-12.892-.048-16.76-1.679-4.528,5.654-3.273,2.006-7.484-11.051-12.763-10.15-19.587-5.418-19.587a8.972,8.972,0,0,1,4.426,1.459c2,1.191,3.713,8.128,5.864,9.946,1.851,1.561,5.274,4.555,5.15,5.831-.161,1.615-2.468,2.092-2.495,3.943-.016,1.271,8.3,6.862,9.694,7.736,3.514,2.226,1.673,2.736,3.24,5.091.671,1.008,3.326,1.717,5.837,2.586L1187,842.385Z" transform="translate(-544.79 -356.787)" fill="#b8b9ba" fill-rule="evenodd"/><path d="M1164.446,839.817h0l-5.526-10.875a15.845,15.845,0,0,0,1.556-.831,3.562,3.562,0,0,1,1.878-.461c3.509,0,8.761,3.423,10.188,5.982C1175.041,838.106,1169.065,838.97,1164.446,839.817Z" transform="translate(-537.184 -383.634)" fill="#b8b9ba" fill-rule="evenodd"/><path d="M1595.286,725.138h0l-18.975-6.878c.22.005.451.021.655.021a48.081,48.081,0,0,0,8.359.617,42.576,42.576,0,0,0,6.969-.5h0l3.2,6.148-.167.488Z" transform="translate(-730.653 -332.929)" fill="#e6e7e7" fill-rule="evenodd"/><path d="M1609.3,695.132h0l-3.2-6.148c5.15-.891,8.412-3.128,3.38-8.155-5.456-5.451.531-8-.708-12.033-1.9-6.213,8.771-10.086,14.721-13.986Z" transform="translate(-744.461 -303.519)" fill="#e3e3e3" fill-rule="evenodd"/><path d="M1490,838.437l-59.7-62.022,23.61-10.746a5.173,5.173,0,0,0,1.652-.756l18.557-8.444a15.354,15.354,0,0,1,1.572,2.446c2.924,5.606,17.7,15.231,15.52,18.01-5.971,7.639,2.173,14.228,2.124,18.069-.032,2.758-.526,7.613-2.473,11.352-1.513,2.892-1.368,3.986-.456,3.986,1.717,0,6.142-3.884,7.3-6.915,1.7-4.437-1.078-7.87-.059-12.881,1.6-7.87-2.071-5.88,1.443-13.943,2.017-4.63-9.732-14.313-12.559-17.114-1.427-1.411-5.633-3.594-6.046-5.907l46.9-21.341L1490,838.436Z" transform="translate(-662.974 -339.405)" fill="#e6e7e7" fill-rule="evenodd"/><path d="M835.334,710.41c-6.051,0-12.3-2.157-18.53-5.842-7.688-4.549-14.7-21.894-17.087-30.053-.794-2.731-1.357-5.987-2.1-9.184L855.533,685.8c-.585,5.558,2.05,12.554-.606,15.37C848.827,707.637,842.2,710.41,835.334,710.41Z" transform="translate(-369.713 -308.395)" fill="#9d9e9e" fill-rule="evenodd"/><path d="M839.1,838.852,811.13,782.13c4.077-3.852-3.289-22.65,8.063-22.65,2.457,0,5.783.88,10.3,2.977,3.085,1.438,6.98,7.425,11.288,7.425,2.167,0,4.447-1.524,6.776-5.912a1.777,1.777,0,0,1,1.668-1.057c3.294,0,9.6,6.861,14.973,10.15Z" transform="translate(-375.975 -352.036)" fill="#9d9e9e" fill-rule="evenodd"/><path d="M748.6,674.862,732.55,642.33h.005l22.908,8.1c-.472,4.5-.005,9.517,1.352,11.55,2.532,3.793-6.9,9.3-7.8,11.931A10.263,10.263,0,0,1,748.6,674.862Z" transform="translate(-339.552 -297.734)" fill="#9d9e9e" fill-rule="evenodd"/><path d="M1197.08,874h0l30.933-36.062a13.668,13.668,0,0,1,4,1.926c2.022,1.69,3.46,3.814,5.687,5.123,4.984,4.072,6.491,6.846,7.007,10.515h0Z" transform="translate(-554.871 -388.404)" fill="#c8c8c9" fill-rule="evenodd"/><path d="M1303.494,785.847a16.154,16.154,0,0,0-2.924-3.154c-10.021-7.988,5.66-10.966,5.74-17.108.065-5.8,6.331-6.974,2.071-13.718-9.329-14.764,19.684-12.64,20.515-25.515.311-4.694,5.713-3.831,7.559-9.142.821-2.36-.478-7.377.74-8.583a4.228,4.228,0,0,1,3.208-1.122c.306,0,.611.011.912.027s.606.021.9.021a3.1,3.1,0,0,0,3.316-2.044c2.3-5.375,6.121-7.489,9.549-7.489a7.743,7.743,0,0,1,5.451,2.157l1.057,7.859a11.3,11.3,0,0,1-1.218,1.947c-.847,1.111-11.464,4.71-3.465,5.113,3.332.166,5.086,1.046,5.939,2.339l.547,4.072c-.467,2.934-1.958,6.395-2,9.324-2.022,15.574-16.642,11.99-9.469,26.931a15.62,15.62,0,0,1,1.325,8.761h0Z" transform="translate(-601.291 -323.548)" fill="#c8c8c9" fill-rule="evenodd"/><path d="M1412.638,804.513c-1.186-3.938-2.666-8.2-2.629-11.293.07-6.062,4.571-6.9,8.825-7.28l2.06,15.37Z" transform="translate(-653.568 -364.301)" fill="#c8c8c9" fill-rule="evenodd"/><path d="M595.75,965.874l26.523-75.354,116.99,9.072Z" transform="translate(-276.142 -412.776)" fill="#a0a0a0" fill-rule="evenodd"/><path d="M762.18,784.55h0l-116.99-9.072,10.9-30.96c4.088-5.005,8.246-8.417,9.5-10.794,1.132-2.162.064-3.916.928-6.642,1.352-4.26-.016-6.448-1.985-6.523l20.858-59.26,6.674-18.97L708.1,674.862c-2.892,5.789-12.929,12.414-12.977,16.491-.15,12.151,1.132,18.68,2.173,31.593.22,2.742,1.722,3.847,3.627,3.847,5.622,0,14.753-9.646,4.807-15.338-4.995-2.859-.794-13.165,5.558-13.165a7.674,7.674,0,0,1,5.209,2.344c9.125,8.455.327,23.868,14.345,27.656a5.724,5.724,0,0,0,1.481.22,2.646,2.646,0,0,0,1.888-.681Z" transform="translate(-299.058 -297.734)" fill="#999a99" fill-rule="evenodd"/><path d="M1441.721,898.973h0l-1.116-8.219c2.189-2.457,4.356-9.571,2.409-12.248a20.625,20.625,0,0,0-4.721-4.839h0L1430.3,814.59l59.7,62.022-.263.74-.064.188Z" transform="translate(-662.974 -377.58)" fill="#ddddde" fill-rule="evenodd"/><path d="M906.289,1051.179,798.5,1012.623,833.242,907.43Z" transform="translate(-370.121 -420.614)" fill="#aeafaf" fill-rule="evenodd"/><path d="M704.521,1012.623,595.75,973.712,739.263,907.43Z" transform="translate(-276.142 -420.614)" fill="#999a99" fill-rule="evenodd"/><path d="M863.26,820.826h0l25.1-65.788a9.625,9.625,0,0,0,4.667,1.722c2.516,0,4.3-2.269,4.619-8.788.182-3.809-7.114-9.254,1.105-12.334,5.021-1.883,9.657-7.071,11.513-10.5a16.143,16.143,0,0,0,1.561-4.544h0l23.594,8.444a3.413,3.413,0,0,1-1,3.492c-9.662,10.837-7.58,12.629-21.293,19.286-6.148,2.983-5.6,18.61,1.674,20.2a5.964,5.964,0,0,0,1.245.134c3.562,0,6.127-3.476,8.857-6.958s5.617-6.958,9.828-6.958a10.7,10.7,0,0,1,5.322,1.631.2.2,0,0,0,.118.032c.826-.005,3.5-3.079,6.615-6.159s6.663-6.164,9.238-6.164c1.373,0,2.462.875,3.069,3.079,1.631,5.933,6.416,7.489,11.883,7.489a62.031,62.031,0,0,0,9.238-.939,57.631,57.631,0,0,1,8-.944c3.991,0,5.933,1.566,3.342,7.532h0Z" transform="translate(-400.139 -334.009)" fill="#a0a0a0" fill-rule="evenodd"/><path d="M977.384,722.336l-23.594-8.444c.842-4.115.5-7.752,2.672-7.752a3.305,3.305,0,0,1,1.121.241c4.136,1.572,7.468,5.515,12.049,8.959,3.181,2.387,6.958,4.533,7.752,7Z" transform="translate(-442.101 -327.311)" fill="#a0a0a0" fill-rule="evenodd"/><path d="M732.56,578.809l.145-.418,12.747-36.218c.729-.166,1.464-.333,2.264-.51,1.808-.4,3.417-21.384,7.055-21.384h.011c9.431-8.058,6.539-10.944,18.895-14.8a4.291,4.291,0,0,1,1.282-.188c4.517,0,10.44,6.11,15.016,6.829,3.981.622,19.624,8.788,22,10.789,3.138,2.64-3.455,7.935-5.418,8.739a6.8,6.8,0,0,1-2.58.547,6.694,6.694,0,0,1-1.953-.317,5.789,5.789,0,0,0-1.448-.311c-.789,0-1.47.526-2.344,2.554-.9,2.071,7.462,2.629.37,4.732-6.051,1.786,6.5,6.3,9.281,6.336,2.833.032,8.9,1.255,5.257,5.214-.134.145-.091.633.059,1.347l-80.633,27.06Z" transform="translate(-339.556 -234.213)" fill="#a4a4a4" fill-rule="evenodd"/><path d="M825.376,651.755h0l-57.913-20.467c-.933-4.04-2.135-7.988-4.469-10.649-1.245-1.422-2.329-2.028-3.267-2.028-2.393,0-3.793,3.959-4.26,8.439h0l-22.908-8.1,80.633-27.06c1.159,5.295,9.206,24.318,9.147,29.469,1.352,6.078,5.467,22.13,3.487,28.176A10.856,10.856,0,0,0,825.376,651.755Z" transform="translate(-339.556 -274.354)" fill="#a6a7a7" fill-rule="evenodd"/><path d="M458.65,1239.9l46.733-132.746L532.2,1030.98l39.689,81.287Z" transform="translate(-212.593 -477.882)" fill="#a6a7a7" fill-rule="evenodd"/><path d="M458.65,1310.133h0L571.89,1182.5l32.312,62.086-97.344,43.519Z" transform="translate(-212.593 -548.115)" fill="#9c9c9c" fill-rule="evenodd"/><path d="M635.439,1112.267h0L595.75,1030.98l108.771,38.911Z" transform="translate(-276.142 -477.882)" fill="#a4a4a4" fill-rule="evenodd"/><path d="M685.044,1377.543,548.51,1341.749l97.344-43.519Z" transform="translate(-254.245 -601.758)" fill="#a4a4a4" fill-rule="evenodd"/><path d="M702.042,1207.973h0l-32.312-62.087,69.082-42.376Z" transform="translate(-310.433 -511.501)" fill="#aeafaf" fill-rule="evenodd"/><path d="M729.96,1207.973l36.77-104.463,108.476,38.8Z" transform="translate(-338.351 -511.501)" fill="#a4a4a4" fill-rule="evenodd"/><path d="M769.15,1320.813h0L729.96,1241.5l145.246-65.66Z" transform="translate(-338.351 -545.028)" fill="#9d9e9e" fill-rule="evenodd"/><path d="M803.01,1320.813,909.066,1175.84l-49.077,139.409Z" transform="translate(-372.211 -545.028)" fill="#b2b3b3" fill-rule="evenodd"/><path d="M835.521,1505.222l-32.511-63.959,56.979-5.563Z" transform="translate(-372.211 -665.479)" fill="#9d9e9e" fill-rule="evenodd"/><path d="M1031.339,1319.589l-122.119-4.34L958.3,1175.84Z" transform="translate(-421.442 -545.028)" fill="#aeafaf" fill-rule="evenodd"/><path d="M863.61,1505.222l24.469-69.522,122.118,4.34-45.756,20.344a25.958,25.958,0,0,1-.316-2.661c-.005-.113-.134-.166-.354-.166a31.857,31.857,0,0,0-5.73,1.625,29.427,29.427,0,0,1-6.105,1.62c-.064,0-.129-.005-.182-.011-7.714-.8-29.672-9.072-40.01-9.072-3.015,0-5.048.708-5.44,2.511-2.489,11.5,12.586,17.446.842,18.691-.252.021-.526.037-.826.037-3.718,0-10.966-1.9-15.531-1.958-5.252,9.528,3.385,11.041-9.152,11.041-.971,0-2.071-.01-3.315-.027h-.156c-9.42,0-5.628,10.6-1.282,17.3l-13.273,5.906Z" transform="translate(-400.301 -665.479)" fill="#acacad" fill-rule="evenodd"/><path d="M637.667,1433.545c-2.956-3.219-5.054-6.051-3.959-8.691,1.9-4.56-7.162-15.118-10.88-15.166-3.423-.445-5.7-1.915-8.895-3.112-2.666-.992-5.494-.612-4-3.267,1.524-2.72.2-1.754-1.663-3.24a6.7,6.7,0,0,0-4.04-1.293,5.149,5.149,0,0,0-2.511.585,13.4,13.4,0,0,1-6.727,1.577,44.532,44.532,0,0,1-8.852-1.218,42.616,42.616,0,0,0-8.154-1.223c-4.7,0-8.021,2.28-8.128,11.255-.048,3.766-6.352,7.409-10.386,7.409-1.567,0-2.8-.553-3.181-1.856-.622-2.114,1.089-14.962.8-16.673-.751-4.443-1.872-6.24-3.4-6.24-.912,0-1.969.649-3.176,1.765l-2.006-14.807,136.534,35.794Z" transform="translate(-254.245 -639.359)" fill="#9c9c9c" fill-rule="evenodd"/><path d="M401.912,1619.663l-13.562-4.909,13.541-6.234a8.561,8.561,0,0,0-.241,9.26,2.638,2.638,0,0,1,.263,1.883Z" transform="translate(-180.007 -745.585)" fill="#a6a7a7" fill-rule="evenodd"/><path d="M471.457,1581.994c-6.159-.005-14.85-4.211-20.987-4.694l34.184-15.73c-.842,8.552-3.487,15.714-8.782,19.281A7.707,7.707,0,0,1,471.457,1581.994Z" transform="translate(-208.801 -723.822)" fill="#a6a7a7" fill-rule="evenodd"/><path d="M796.713,1514.289c-26.475-.193-.6-20.461-24.163-20.751-13.047-.155-6.631-6.443-16.872-6.443a42.124,42.124,0,0,0-5.177.381,44.634,44.634,0,0,1-5.633.51c-2.264,0-4.517-.392-6-1.8l34.41-40.118,32.511,63.959Z" transform="translate(-342.481 -670.285)" fill="#a4a4a4" fill-rule="evenodd"/><path d="M395.786,1634.593l-7.436-14.453,13.562,4.909C401.5,1627.4,398.935,1630.687,395.786,1634.593Z" transform="translate(-180.007 -750.971)" fill="#a8a8a9" fill-rule="evenodd"/><path d="M348.164,1697.5c-3.235,0-5.612-1.787-7.484-4.732l25.574-72.628,7.436,14.453c-7.436,9.227-18.058,21.883-10.848,33.83,6.749,11.175-4.088,28.948-14.571,29.077Z" transform="translate(-157.911 -750.971)" fill="#a4a4a4" fill-rule="evenodd"/><path d="M388.35,1527.561l37.714-107.15,20.746,21.69c-8.959,5.333,6.878,25.826,8.2,38.524a81.483,81.483,0,0,1,.2,16.17h0l-34.19,15.729c-.424-.032-.842-.054-1.239-.054a8.973,8.973,0,0,0-1.094.059c-8.407,1.04-14.227,4.614-16.8,8.8h0l-13.541,6.234Z" transform="translate(-180.007 -658.391)" fill="#a4a4a4" fill-rule="evenodd"/><path d="M1186.305,1544.991c-2.854-1.674-4.571-4.174-3.863-7.881h0Z" transform="translate(-548.013 -712.485)" fill="#b8b9ba" fill-rule="evenodd"/><path d="M1126.85,1457.851l5.365-14.061,6.792,13.857c-2.344-1.572-4.233-2.516-5.236-2.516a1.016,1.016,0,0,0-.327.049A44.641,44.641,0,0,0,1126.85,1457.851Z" transform="translate(-522.318 -669.229)" fill="#b8b9ba" fill-rule="evenodd"/><path d="M853.938,1570.478c-.628-.682-1.169-1.132-1.615-1.132h-.043c-1.915.139-3.626.2-5.172.2h-.418l9.077-4.26-1.829,5.188Z" transform="translate(-392.458 -725.546)" fill="#a6a7a7" fill-rule="evenodd"/><path d="M727.667,1486.188a5.891,5.891,0,0,1-1.711-4.024c-.542-7.221-6.856-12.891-11.255-17.693l47.376-18.4Z" transform="translate(-331.278 -670.285)" fill="#a2a3a3" fill-rule="evenodd"/><path d="M1253.647,1395.87l-116.8-9.367,143.433-66.3Z" transform="translate(-526.954 -611.942)" fill="#b8b9ba" fill-rule="evenodd"/><path d="M1203.314,1524.24c-2.468,0-5.735-1.111-10.7-3.986-6.561-3.8.456-13.122-6.207-14.893-4.136-.161-15.161-.1-21.164-3.627h0l-3.862-7.881c.027-.129.037-.257.064-.392.521-2.253,3.165-4.168,4.33-6.175,3.992-6.851-12.725-23.331-22.135-29.64h0l-6.792-13.857,116.8,9.367-22.629,64.27a15.351,15.351,0,0,0-8.846-3.439,9.111,9.111,0,0,0-4.179.993C1210.38,1518.827,1208.771,1524.24,1203.314,1524.24Z" transform="translate(-526.954 -669.229)" fill="#b6b7b7" fill-rule="evenodd"/><path d="M479.4,1423.067h0l-20.746-21.69,48.208-22.028,2.006,14.807c-5.869,5.424-15.295,21.936-29,28.637a4.027,4.027,0,0,0-.472.273Z" transform="translate(-212.593 -639.359)" fill="#a6a7a7" fill-rule="evenodd"/><path d="M1073.741,1319.589h0L1000.7,1175.84l109.812,39.292Z" transform="translate(-463.845 -545.028)" fill="#bcbdbd" fill-rule="evenodd"/><path d="M1136.85,1353.537h0l36.77-104.458,43.229,15.467,63.433,22.688Z" transform="translate(-526.954 -578.976)" fill="#b8b9ba" fill-rule="evenodd"/><path d="M1061.549,1470.4c-.064,0-.134,0-.2-.005-7.022-.086-9.061-2.291-9.791-6.261l45.756-20.343-5.365,14.061C1082.2,1462.561,1070.895,1470.4,1061.549,1470.4Z" transform="translate(-487.42 -669.229)" fill="#bcbdbd" fill-rule="evenodd"/><path d="M883.932,1567.45l-20.322-7.264,13.272-5.906c1.8,2.779,3.686,4.887,4.78,5.29,6.245,2.3,5.311,5.306,2.269,7.88Z" transform="translate(-400.301 -720.443)" fill="#bcbdbd" fill-rule="evenodd"/><path d="M872.172,1577.865c-3.648,0-6.395-2.736-8.439-5.113l-.123-7.462,10.349,12.36A7.841,7.841,0,0,1,872.172,1577.865Z" transform="translate(-400.301 -725.546)" fill="#a6a7a7" fill-rule="evenodd"/><path d="M873.959,1577.65h0l-10.349-12.36,20.322,7.264a31.537,31.537,0,0,1-9.233,4.914C874.447,1577.554,874.206,1577.586,873.959,1577.65Z" transform="translate(-400.301 -725.546)" fill="#b6b7b7" fill-rule="evenodd"/><path d="M862.153,1572.752c-.74-.858-1.384-1.658-1.953-2.275l1.829-5.188.123,7.462Z" transform="translate(-398.72 -725.546)" fill="#9c9c9c" fill-rule="evenodd"/><path d="M560.93,850.46,520.64,768.969l22-24.63c.354.021.7.032,1.052.032,8.315,0,15.59-6.014,12.3-14.968l78.487-87.854-.145.418h-.005l-6.674,18.97L606.788,720.2h-.107c-1.416,0-3.112,1.057-4.351,3.224-1.754,3.074,2.216,13.358-4.855,13.358-.027,0-.059-.005-.091-.005-.231,0,.681-2.414.574-3.214-.1-.692-.365-.923-.724-.923-.687,0-1.711.875-2.473.885h-.177c-.435,0-1.39-.032-1.3-.338.681-2.344,2.017-2.108.8-4.6a1.24,1.24,0,0,0-1.223-.665c-3.884,0-14.367,9.383-12,12.312,4.292,5.3,4.469,3.771,3.369,11.953-.746,5.542-17.994,9.877-3.739,10.054.992.011,2.591.526,4.3.526a5.628,5.628,0,0,0,3.836-1.331c2.924-2.532,4.308-9.71,7.157-13.873.831-1.218,1.7-2.334,2.57-3.4L560.93,850.46Z" transform="translate(-241.327 -297.373)" fill="#979898" fill-rule="evenodd"/><path d="M496.092,768.969l-28.412-54.6a12.692,12.692,0,0,1,6.33-1.894,11.221,11.221,0,0,1,6.18,1.974,6.506,6.506,0,0,0,3.541,1.207c4.421,0,7.318-6.207,10.316-12.414s6.116-12.414,10.971-12.414c2.371,0,5.161,1.481,8.557,5.172,1.057,1.153,4.286,1.572,8.439,1.572,9.678,0,24.34-2.28,27.913-2.838,7.4-1.143,3.444-21.459,11.127-28.5a62.434,62.434,0,0,0,4.828-5.005l44.045-19.683L531.44,729.4a18.408,18.408,0,0,0-1.454-3.026c-3.031-5.075,5.708-16.5,2.028-18.224a23.88,23.88,0,0,0-8.246-1.363c-2.484,0-4.737.4-5.585,1.513-3.16,4.158-1.6,9.174-6.84,11.626-5.182,2.425-.976,9.571-7.613,13.755-5.923,3.739,5.1,7.693,8.187,9.115a17.235,17.235,0,0,0,6.175,1.54h0ZM609.927,641.55,496.092,768.969Z" transform="translate(-216.779 -297.373)" fill="#999a99" fill-rule="evenodd"/><path d="M501.247,960.562h0l-.011-.005L391.87,921.431l69.082-42.371,40.29,81.491Z" transform="translate(-181.639 -407.464)" fill="#9c9c9c" fill-rule="evenodd"/><path d="M391.87,874.258h0L423.318,784.9c2.843-2.677,5.9-5.708,9.222-7.613l28.412,54.6Z" transform="translate(-181.639 -360.291)" fill="#aeafaf" fill-rule="evenodd"/><path d="M381.379,880.835l-7.9-2.822c1.883-1.518,3.412-3.106,3.986-4.877,2.618-7.983-9.737-8.895-8.063-26.384,2.087-14.394,20.585-46.555,35.676-49.871,2.425-.531,4.984-2.79,7.752-5.392Z" transform="translate(-171.153 -366.873)" fill="#9c9c9c" fill-rule="evenodd"/><path d="M723.161,610.258h0L711.97,598.627a34.482,34.482,0,0,0,3.4-4.329c5.671-15.284,7.167-17.2,20.536-20.257h0Z" transform="translate(-330.012 -266.08)" fill="#a0a0a0" fill-rule="evenodd"/><path d="M650.74,651.179a91.17,91.17,0,0,0,6.577-8.514c2.393-3.509,3.686-4.426,4.63-4.426a2.581,2.581,0,0,1,1.384.569,2.758,2.758,0,0,0,1.507.563,3.557,3.557,0,0,0,2.092-.885c.424-.317,11.041-12.006,16.658-18.616L694.779,631.5Z" transform="translate(-301.631 -287.324)" fill="#979898" fill-rule="evenodd"/><path d="M319.138,1143.083l-6.652-.252c-1.459-2.806-2.881-5.66-2.532-7.607a10.015,10.015,0,0,1,2.64-4.9h0Z" transform="translate(-143.644 -523.928)" fill="#999a99" fill-rule="evenodd"/><path d="M316.045,1156.236c-.408-.842-.864-1.717-1.325-2.6l6.652.252Z" transform="translate(-145.878 -534.738)" fill="#a8a8a9" fill-rule="evenodd"/><path d="M367.267,1296.974,261.5,1259.136c1.432-3.508,5.569-8.036,11.416-8.036.145,0,.29,0,.435.005,6.341.241,14.839,8.331,20.461,10.059a8.336,8.336,0,0,0,2.473.4c4.083,0,5.831-3.648,4.125-5.906-4.045-5.386,5.107-5.032,8.927-7.548,6.813-4.49,10.445-6.379,9.437-15.6-.258-2.36-.585-7.961-3.122-10.451-2.586-2.521-7.4-1.958-9.544-5.617-2.382-4.067-.933-17.816-3.09-22.36-2.3-4.844-8.176-.515-9.689-5.263-1.534-4.807-3.948-8.428-5.451-11.572l8.825-23.133,70.563,142.864Z" transform="translate(-121.21 -534.956)" fill="#9c9c9c" fill-rule="evenodd"/><path d="M444.416,1107.154h0l-117.3-10.118,144.114-66.056Zm26.819-76.174-26.819,76.174Z" transform="translate(-151.626 -477.882)" fill="#aeafaf" fill-rule="evenodd"/><path d="M397.683,1296.974h0L327.12,1154.11l117.3,10.118Z" transform="translate(-151.626 -534.955)" fill="#a8a8a9" fill-rule="evenodd"/><path d="M310.241,1060.784h0l-6.545-12.763c2.951-3.288,7.425-5.81,9.045-8.836,2.334-4.351-1.255-9.753-2.285-11.583-7.554-13.466-33.2-3.755-10.713-29.292,2.967-3.364,5.456-4.49,7.57-4.49a8.676,8.676,0,0,1,5.327,2.312c1.443,1.159,2.58,2.312,3.5,2.312.574,0,1.068-.45,1.5-1.631,4.834-13.38,4.1-23.288,7.57-33.444,1.389-4.066,7.575-7.157,11.867-10.6l9.941,3.557-36.77,104.457Z" transform="translate(-134.747 -441.63)" fill="#a6a7a7" fill-rule="evenodd"/><path d="M327.12,1063.858h0L363.89,959.4l107.333,38.4.011.005Z" transform="translate(-151.626 -444.703)" fill="#9c9c9c" fill-rule="evenodd"/><path d="M309.506,1177.243c-1.288-2.7-1.91-5.064-.692-7.527.885-1.781,3.841-2.629,5.553-8.133.381-1.2-.343-3.063-1.363-5.129l5.327-2.344Z" transform="translate(-142.836 -534.955)" fill="#979898" fill-rule="evenodd"/><path d="M284.743,1615.754c-4.533-3.422-11.781-8.342-18.412-16.218-5.1-6.052-7.6-17.371-11.851-26.937l71.818,25.5-41.556,17.65Z" transform="translate(-117.956 -728.935)" fill="#a8a8a9" fill-rule="evenodd"/><path d="M241.01,1356.366a3.5,3.5,0,0,1,.853-.676Z" transform="translate(-111.712 -628.392)" fill="#9c9c9c" fill-rule="evenodd"/><path d="M174.128,1392.307a22.744,22.744,0,0,1-1.041-10.633c.113-.8,1.073-8.042,5.279-8.89a3.254,3.254,0,0,1,.628-.064c3.578-.005,4.48,6.7,8.053,9.324l-12.918,10.263Z" transform="translate(-80.12 -636.286)" fill="#9c9c9c" fill-rule="evenodd"/><path d="M300.16,1558.621l-71.818-25.5a45.168,45.168,0,0,0-4.26-7.741c-5.971-8.407-14.007-10.236-19.78-18.67-3.262-4.769-5-10.708-6.212-16.937l30.311-2.35Z" transform="translate(-91.818 -689.452)" fill="#a4a4a4" fill-rule="evenodd"/><path d="M326.349,1527.561h0l-71.759-71.2,109.474-35.949Zm37.714-107.15-37.714,107.15Z" transform="translate(-118.007 -658.391)" fill="#a8a8a9" fill-rule="evenodd"/><path d="M326.872,1692.768c-3.326-5.247-5.032-14.227-7-23.643-1.786-8.562-8.643-14.538-4.565-25.987.488-1.389-1.347-3.026-4.415-5.349l41.556-17.65Z" transform="translate(-144.103 -750.971)" fill="#9c9c9c" fill-rule="evenodd"/><path d="M254.14,1423.667h0l-.52-68.273a27.106,27.106,0,0,0,8.374,5.22,18.033,18.033,0,0,0,5.826,1.035c3.155,0,5.612-1.083,4.769-3.814-1.293-4.206-15.435-4.973-15.247-6.228a7.831,7.831,0,0,1,.5-1.728l105.767,37.838Z" transform="translate(-117.557 -625.699)" fill="#999a99" fill-rule="evenodd"/><path d="M187.5,1428.469c-1.642-8.4-2.323-17.3-4.453-24.533-2.355-8.01-5.928-13.841-7.816-19.764l12.918-10.263a5.209,5.209,0,0,0,3.149,1.046,6.013,6.013,0,0,0,.8-.054c3.546-.456,2.114-5.772,6.352-8.337a1.823,1.823,0,0,1,.971-.263c1.347,0,3.01,1.228,4.716,2.452s3.444,2.452,4.957,2.452a2.35,2.35,0,0,0,1.132-.274c2.006-1.073-1.824-12.51-.011-14.479.1-.1.2-.215.3-.327l.853-.676a2.332,2.332,0,0,1,1.127-.279,4.981,4.981,0,0,1,2.307.719,20.136,20.136,0,0,1,2.473,1.958l.526,68.272Z" transform="translate(-81.221 -628.151)" fill="#9c9c9c" fill-rule="evenodd"/><path d="M2875.41,55.456l-50.289-17.784c5.466,1.105,10.89,2.8,13.954,2.8.193,0,.381-.011.552-.021,6.711-.542,1.057-10.638-4.94-10.638a4.918,4.918,0,0,0-.682.048c-3.4.445-5.391.687-6.475.687-2.859,0,.628-1.658,1.433-5.472.236-19.775,1.191-9.539,16.422-21.271,3.2-2.473,6.492-3.8,9.613-3.8,3.766,0,7.3,1.947,10.145,6.191,5.483,8.181-10.043,12.387-4.651,15.188,2.709,1.406-.252,3.943,1.014,4.093a5.381,5.381,0,0,0,.58.032,8.113,8.113,0,0,0,4.42-1.765c1.341-.885,2.639-1.765,4.19-1.765a4.512,4.512,0,0,1,.6.043c2.018.29,4.592,3.23,7.043,4.49,3.595,1.835,7.28,2.157,11.422,2.527,10.048.891-.424,13.846-2.543,16.931-2.145,3.122-7.425,6.534-11.8,9.49Z" transform="translate(-1309.504)" fill="#c0c1c1" fill-rule="evenodd"/><path d="M2939.557,402.14l-45.107-88.76,44.517,1.583c.644,1.411.848,2.672.134,3.4-11.625,12,2.484,4.726,3.2,17,.14,2.355-3.589,5.038-.5,7.082,1.341.885,3.316,7.114,3.718,8.846-.907,10.37,8.294,10.96,6.835,15.327-6,17.967,28.439,18.975.907,30.933-5.542,2.4-11.02,2.135-13.7,4.587Z" transform="translate(-1341.64 -145.259)" fill="#b5b5b6" fill-rule="evenodd"/><path d="M2938.967,301.437l-44.517-1.583,35.22-15.654c-.778,3.283.005,6.668,3.6,9.834a27.9,27.9,0,0,1,5.692,7.4Z" transform="translate(-1341.64 -131.733)" fill="#b2b3b3" fill-rule="evenodd"/><path d="M2842.828,199.873,2783.08,78.859c3.422-2.886,5.81-5.182,6.421-6.389,1.524-2.988,4.688-3.97,8.471-3.97a39.728,39.728,0,0,1,7.651.923l43.878,15.52-.525,9.05a1.648,1.648,0,0,1-1.824,1.207,19.95,19.95,0,0,1-4.941-1.046,6.847,6.847,0,0,0-1.958-.317c-5.376,0-3.922,8.895-3.509,12.918.585,5.735-15.466,6.143-19.458,8.353-13.321,7.382,26.024,11.577,22.344,17.017,1.744,5.708,5.917,3.053,3.182,9.812-1.024,2.521-3.488,5.445-2.017,8.133.944,1.711-13.5,11.271-9.855,14.587,1.9,1.733,3.573,2.446,5.064,2.446,3.986,0,6.707-5.113,9.287-9.624Z" transform="translate(-1290.018 -31.751)" fill="#c0c1c1" fill-rule="evenodd"/><path d="M2626.59,372.066l.188-.531,26.636-75.665,116.877,9.394Z" transform="translate(-1217.481 -137.142)" fill="#b8b9ba" fill-rule="evenodd"/><path d="M2793.467,208.823h0L2676.59,199.43l32.9-93.465c8.771-6.068,18.149-13.036,24.227-18.154Z" transform="translate(-1240.657 -40.702)" fill="#b2b3b3" fill-rule="evenodd"/><path d="M2903.291,445.531,2854.016,427.9c-1.578-3.278-1.98-6.411-.011-8.841,2.264-2.784.339-4.233-2.612-4.233-4.1,0-10.172,2.8-9.721,8.653l-15.762-5.638,36.77-104.463,45.107,88.76c-1.727,1.583-2.3,4.292-.939,9.619a33.225,33.225,0,0,0,5.821,11.668c1.438,1.829.231,14.152-1.443,14.152h-.005c-8.814-.107-5.907-3.584-9.48-7.843a.215.215,0,0,0-.171-.086c-1.041,0-4.066,6.722-1.642,9.077,2.553,2.473,3.4,4.785,3.364,6.8Z" transform="translate(-1309.87 -145.259)" fill="#b5b5b6" fill-rule="evenodd"/><path d="M2733.521,417.843l-106.93-37.661,143.7-66.8Z" transform="translate(-1217.481 -145.259)" fill="#bebebf" fill-rule="evenodd"/><path d="M2894.45,270.852h0l2.463-42.393c1.835-3.208,3.6-6.105,5.7-6.636a6.354,6.354,0,0,1,1.578-.193c2.323,0,4.721,1.143,7.188,2.285s5.006,2.285,7.608,2.285a8.156,8.156,0,0,0,2.838-.494,33.909,33.909,0,0,1,11.148-1.717c11.9,0,23.481,5.215,7.173,17.929-4.286,3.342-9.271,8.187-10.478,13.278h0Z" transform="translate(-1341.64 -102.73)" fill="#b2b3b3" fill-rule="evenodd"/><path d="M2905.9,108.2l.526-9.05,6.405,2.28a55.1,55.1,0,0,0-4.936,3.605,7.016,7.016,0,0,0-2,3.165Z" transform="translate(-1346.947 -45.958)" fill="#b2b3b3" fill-rule="evenodd"/><path d="M2912.619,1662.692l-24.179-46.475,40.676-18.187c.1,9.415.558,18.734,1.25,27.087.183,2.253-12.3,34.147-13.4,35.048A16.992,16.992,0,0,1,2912.619,1662.692Z" transform="translate(-1338.854 -740.722)" fill="#b0b0b1" fill-rule="evenodd"/><path d="M2869.842,1567.44l-17.532-35.472c-2.157-7.789-4.072-15.547-3.992-22.537l.167-13.734c0-1.041,0-1.985-.017-2.9l64.222,16.84c-.1,1.272-.215,2.538-.386,3.793a259.258,259.258,0,0,0-1.786,35.821h0Z" transform="translate(-1320.256 -691.946)" fill="#acacad" fill-rule="evenodd"/><path d="M2818.374,1490.174l-3-6.083,6.309,1.658C2820.627,1487.116,2819.522,1488.607,2818.374,1490.174Z" transform="translate(-1304.985 -687.909)" fill="#acacad" fill-rule="evenodd"/><path d="M2868.068,1706.9c-4.083,0-6.942-6.507-9.667-9.233-1.614-1.62,4.33-6.137,5.22-9.378,1.41-5.123-.354-10.633-3.541-15.719l14.308-40.638,24.18,46.475a19.568,19.568,0,0,1-7.275,1.449,13.613,13.613,0,0,1-9.866-3.809,3.858,3.858,0,0,0-2.516-1.427c-3.562,0-3.422,11.309-3.991,11.873.843,5.075-1.346,6.094-1.4,10.075a13.741,13.741,0,0,0,.14,2.945.6.6,0,0,0-.14-.226.73.73,0,0,0-.552-.225c-.472,0-1.24.327-2.473,1.545-1.712,1.685-.773,5.944-.923,6A4.227,4.227,0,0,1,2868.068,1706.9Z" transform="translate(-1324.802 -756.435)" fill="#a6a7a7" fill-rule="evenodd"/><path d="M2843.527,1672.568a53.9,53.9,0,0,0-17.135-16.529,7.455,7.455,0,0,1-3.857-8.155h0l35.3-15.955-14.308,40.638Zm14.308-40.638-14.308,40.638Z" transform="translate(-1308.25 -756.435)" fill="#a4a4a4" fill-rule="evenodd"/><path d="M2822.64,1617.237h0c1.224-7.843,11.282-17.221,18.112-17.221h.451c13.32,0,5.091-9.453,3.68-17.135-1.147-5.5-2.876-11.293-4.474-17.071l17.532,35.472Z" transform="translate(-1308.354 -725.787)" fill="#b6b7b7" fill-rule="evenodd"/><path d="M2765.009,1528.607c-1.953,0-4.12-1.18-6.309-2.951l30.4-41.566,3,6.084c-1.99,2.731-4.11,5.67-6.3,8.53-4.029,5.231-13.047,8.54-13.589,15.08C2771.307,1524.8,2768.517,1528.607,2765.009,1528.607Z" transform="translate(-1278.717 -687.908)" fill="#b6b7b7" fill-rule="evenodd"/><path d="M2730.532,1525.656c-4.839-3.916-9.774-10.729-12.624-14.125-.7-.837-2.719-1.1-5.031-1.1a71.389,71.389,0,0,0-8.573.719.48.48,0,0,1-.085.005c-1.31,0-2.608-3.949-6.288-4.362l6.041-17.141,56.963-5.563Z" transform="translate(-1250.549 -687.908)" fill="#bebebf" fill-rule="evenodd"/><path d="M2709.19,1434.4l24.469-69.511,32.495,63.948Z" transform="translate(-1255.768 -632.657)" fill="#b6b7b7" fill-rule="evenodd"/><path d="M2620.814,1519.813c-2.033,0-4.179-.944-6.631-3.476-6.54-6.76-12.773-17.645-20.193-25.977l61.8,2.2-6.035,17.14c-.225-.021-.456-.038-.692-.038a6.521,6.521,0,0,0-1.62.209l-8.959,2.253c-7.678,1.2-12.318,7.687-17.672,7.687Z" transform="translate(-1202.37 -690.815)" fill="#b8b9ba" fill-rule="evenodd"/><path d="M2635.75,1434.4h0l-61.8-2.2a48.378,48.378,0,0,0-6.652-6.336c-3.884-2.994-10-7.961-16.545-12.312l109.469-48.664Z" transform="translate(-1182.327 -632.657)" fill="#b5b5b6" fill-rule="evenodd"/><path d="M2910.2,1480.841h0L2845.981,1464c-.145-7.13-1.234-10.134-3.031-10.419l59-22.913c.183,3.176,1.036,5.655,3.326,6.459C2907.805,1449.12,2911.378,1465.52,2910.2,1480.841Z" transform="translate(-1317.769 -663.147)" fill="#aeafaf" fill-rule="evenodd"/><path d="M2821.678,1481.706h0l-6.309-1.658,12.049-4.678A36.64,36.64,0,0,0,2821.678,1481.706Z" transform="translate(-1304.985 -683.867)" fill="#aeafaf" fill-rule="evenodd"/><path d="M2787.295,1397.866h0l-32.494-63.948,76.276-35.848c2.177,7.264,13.326,16.014,21.089,24.163Z" transform="translate(-1276.91 -601.684)" fill="#b2b3b3" fill-rule="evenodd"/><path d="M2410.83,1342.949l-60-121.689h0l109.608,38.734-30.7,80.461C2423.153,1342.348,2416.752,1342.246,2410.83,1342.949Z" transform="translate(-1089.66 -566.081)" fill="#aeafaf" fill-rule="evenodd"/><path d="M2754.8,1283.083l33.3-94.624c.22.005.446.011.681.011.413-.005.848-.011,1.32-.032.7-.027,1.368-.038,2.006-.038,5.053,0,8.477.81,13.085.864,2.65,7.891-12.769,9.431-.166,13.959,15.075,5.413,12.4,20.327,20.1,26.867,7.355,6.25,5.676,5.8,5.569,14.667a8.136,8.136,0,0,0,.375,2.479h0l-76.277,35.847Z" transform="translate(-1276.909 -550.85)" fill="#babbbb" fill-rule="evenodd"/><path d="M2815.37,1418.743h0l64.871-75.633c5.81,6.1,9.721,11.872,6.524,16.427-.429.617,3.927,10.048,3.89,12.934-.054,4.619-1.792,12.146-1.486,17.613h0l-59,22.913a1.69,1.69,0,0,0-.29-.022,4.341,4.341,0,0,0-2.458,1.089h0l-12.049,4.678Z" transform="translate(-1304.985 -622.561)" fill="#acacad" fill-rule="evenodd"/><path d="M2214.02,1544.8l26.523-75.343,77.58,6.014a24.883,24.883,0,0,1,.665,7.613c-.214,3.594-9.243,7.564-9.286,11.266-.027,1.8,4.426,2.012,9.168,2.124L2214.02,1544.8Z" transform="translate(-1026.246 -681.127)" fill="#b8b9ba" fill-rule="evenodd"/><path d="M2341.04,1360.428l-77.58-6.014,46.872-133.154,60,121.689c-5.95.708-11.417,2.275-16.089,7.634-12.43,7.328-13.637,7.291-13.2,9.844Z" transform="translate(-1049.162 -566.081)" fill="#b2b3b3" fill-rule="evenodd"/><path d="M2305.7,1600.946l-91.678-32.8,104.65-48.326c7.828.182,16.454.086,7.108,6.448-1.679,1.143-3.159,16.309-4.5,20.987-2.189,7.58,2.494,9.179-3.15,14.131-6.792,5.966,20.193,12.022,3.82,18.3-1.786.682.064,4.228-.928,6.432-2.72,6.03-8.514,12.425-15.322,14.828Z" transform="translate(-1026.246 -704.47)" fill="#a0a0a0" fill-rule="evenodd"/><path d="M2526.263,1380.445c-7.06-4.694-14.613-8.67-20.429-8.67a9.653,9.653,0,0,0-3.846.73,33.542,33.542,0,0,1-4.078,1.416l30.7-80.461,107.113,38.32Z" transform="translate(-1157.835 -599.547)" fill="#b2b3b3" fill-rule="evenodd"/><path d="M2489.57,646.718l.145-.418,46.91-133.25,26.448-75.139,40.563,81Z" transform="translate(-1153.969 -202.981)" fill="#c0c1c1" fill-rule="evenodd"/><path d="M2489.57,716.7h0L2603.636,588.89l32.312,62.092-97.338,43.524Z" transform="translate(-1153.969 -272.963)" fill="#c4c5c5" fill-rule="evenodd"/><path d="M2667.143,518.9h0l-40.563-81,.006-.005,106.93,37.661Z" transform="translate(-1217.476 -202.976)" fill="#c0c1c1" fill-rule="evenodd"/><path d="M2690.2,776.781,2580.98,748.154l97.339-43.524,31.244,63.219c-3.021,2.071-4.694,5.5-9.023,6-5.837.681-8.928,1.679-10.344,2.929Z" transform="translate(-1196.34 -326.612)" fill="#c8c8c9" fill-rule="evenodd"/><path d="M2734.5,613.534h0l-32.312-62.092,66.373-43.342Z" transform="translate(-1252.523 -235.516)" fill="#b8b9ba" fill-rule="evenodd"/><path d="M2903.027,582.284c-1.594-4.5-2.575-7.666-2.441-8.176,3.138-11.352-1-24.174-7.719-30.37-3.541-3.262-11.427-10.359-14.576-16.888l49.281,17.629c-.075,4.318-4.233,7.307-4.581,7.736.048-.188-.033-.274-.2-.274a8.6,8.6,0,0,0-3.659,2.205c-.644,1.529,5.1,11.164,8.379,16.878Zm19.946-30.021c-.016-.005-.005-.021.016-.048C2922.984,552.231,2922.979,552.247,2922.973,552.263Z" transform="translate(-1334.15 -244.207)" fill="#b5b5b6" fill-rule="evenodd"/><path d="M2762.42,613.534,2796.481,508.1l15.761,5.638a8.707,8.707,0,0,0,.14,1.014c2.13,10.917,19.609,11.717,13.884,31.089-1.964,6.636.306,17.012,4.008,20.451,4.533,4.2-.724,11.609-6.341,11.609a6.284,6.284,0,0,1-3.991-1.438c-3.8-3.026-5.483-14.115-7.05-15.542a4.539,4.539,0,0,0-2.671-1.5c-3,0-1.073,9.528-1.674,9.608-8.348,1.062-11.915,14.125-12.355,28.975l-33.771,15.526Z" transform="translate(-1280.44 -235.516)" fill="#b5b5b6" fill-rule="evenodd"/><path d="M2938.011,654.517c-4.051-8.922-10.22-24.5-13.611-34.066l24.479-11.261c.929,1.615,1.669,2.935,2,3.648a109.528,109.528,0,0,0,7.339,13.594Z" transform="translate(-1355.522 -282.373)" fill="#b2b3b3" fill-rule="evenodd"/><path d="M2801.7,766.178c-1.523,0-3.058-1.443-4.522-4.946-1.121-2.693,2.87-8.369.322-8.369a6.874,6.874,0,0,0-2.569.826,9.392,9.392,0,0,0-1.266.746h0l-31.245-63.219,33.771-15.526c-.483,16.663,2.978,35.574,8.1,42.258,4.023,5.247,5.724,7.06,6.695,7.06,1.953,0,1-7.253,9.92-8.793a7.925,7.925,0,0,1,1.335-.129c8.38,0-6.062,18.589-7.945,18.943C2814.678,739.273,2808.278,766.178,2801.7,766.178Z" transform="translate(-1280.441 -313.197)" fill="#b2b3b3" fill-rule="evenodd"/><path d="M2955.558,719.334a13.176,13.176,0,0,1-3.675-5.644c-2.94-8.879,7.672-28.17,1.309-37.693a40.029,40.029,0,0,1-3.422-6.583l20.209-28.085a35.794,35.794,0,0,0,8.852,9.791Z" transform="translate(-1367.282 -297.271)" fill="#c0c1c1" fill-rule="evenodd"/><path d="M3059.117,751.006l-76.851-2.736c-5.305-4.812-8.712-8.181-8.7-8.847.182-15.542-7.736-17.049-13-21.99l23.272-68.213a13.446,13.446,0,0,0,7.543,2.672h.215c8.728,0-.172-6.615-.73-10.316-.343-2.237,3.573-4.346,6.631-4.346,1.637,0,3.026.6,3.4,2.108,1.384,5.719,5.671,10.027,6.014,12.532.5,3.643,3.8,4.388,7.574,4.388,1.3,0,2.65-.091,3.965-.177s2.59-.177,3.734-.177c.295,0,.58.011.853.021l.241.016h0l4.442,8.61c-1.378,1.669-2.559,3.23-2.076,4.287,3.154,6.9-1.76,4.453-.928,6.432.81,1.947,5.907,4.163,5.885,5.869.472,4.265,4.926,5.912,9.373,7.167h0l7.365,14.286c-3.358,3.653-9.034,10.327-6.727,13.02,2.661,3.1,9.9,9.388,10.912,13.235,1.416,5.408,8.594,6.277,13.127,7.3v-.005l2.371,4.6C3062.92,743.716,3051.739,742.68,3059.117,751.006Z" transform="translate(-1372.283 -295.37)" fill="#babbbb" fill-rule="evenodd"/><path d="M3034.389,872.724c-12.135-9.968-25.086-21-33.369-28.514l76.85,2.736c.2.225.4.456.633.7a7.441,7.441,0,0,1,2.13,4.517l-46.244,20.558Z" transform="translate(-1391.038 -391.31)" fill="#b8b9ba" fill-rule="evenodd"/><path d="M2701.176,1284.1l-62.066-74.114,24.4-19.394c-4.479,10.494-12.505,26.743.542,26.738a22.1,22.1,0,0,0,3.808-.37c3.225-.553,10.107-6.781,13.59-6.781a1.83,1.83,0,0,1,1.378.526c1.824,1.883,2.419.289,3.143,4.12.794,4.179,2.077,6.491,3.241,6.491s2.215-2.35,2.515-7.5c.07-1.255.391-1.776.9-1.776,1.454,0,4.426,4.211,7.484,7.752h0l1.063,64.307Z" transform="translate(-1223.284 -551.865)" fill="#b5b5b6" fill-rule="evenodd"/><path d="M2592.4,870.132,2580.98,785.76,2690.2,814.387c-4.056,3.6,5.917,9.3,5.429,15.665Z" transform="translate(-1196.34 -364.217)" fill="#c0c1c1" fill-rule="evenodd"/><path d="M2529.977,1023.207l-108.5-38.589,96.99-41.588Z" transform="translate(-1122.408 -437.115)" fill="#babbbb" fill-rule="evenodd"/><path d="M2623.72,1054.976l38.3-43.406a16.925,16.925,0,0,1-.294,3.686c-1.422,7.318,4.957,13.251,1.443,21.486-.14.333-.257.612-.387.907Z" transform="translate(-1216.15 -468.885)" fill="#b8b9ba" fill-rule="evenodd"/><path d="M2662.253,1300.854l-107.113-38.321,45.048-35.794Z" transform="translate(-1184.362 -568.621)" fill="#b5b5b6" fill-rule="evenodd"/><path d="M2492.612,1091.644l-71.132-71.094,112.832,40.128,32.682,11.652c-.23,4.646-.569,9.163-.917,13.6Z" transform="translate(-1122.408 -473.047)" fill="#b8b9ba" fill-rule="evenodd"/><path d="M2350.83,1128.226l.15-.424,37.714-107.145.038-.107,71.132,71.094Z" transform="translate(-1089.66 -473.047)" fill="#b8b9ba" fill-rule="evenodd"/><path d="M2421.48,930.9l28.889-82.065,7.64-21.7,60.461,62.172Z" transform="translate(-1122.408 -383.398)" fill="#bcbdbd" fill-rule="evenodd"/><path d="M2460.437,1228.386l-109.607-38.734,109.033-36.583Z" transform="translate(-1089.66 -534.473)" fill="#acacad" fill-rule="evenodd"/><path d="M3171.034,960.382c-1.03,0-1.491-1.9-.429-6.717,2.039-9.249.08-10.413-2.844-10.413-.493,0-1.013.032-1.544.064s-1.073.07-1.621.07a5.223,5.223,0,0,1-4.785-2.194l.392-5.563c3.895-2.183,12.2-4.222,2.666-10.338-.575-.37-1.229-.7-1.872-1.025l2.43-34.656c1.958,1.609.966,3.734,2.393,6.3,1,1.792,7.173,3.342,9.093,4.828.151,11.266-5.944,31.019-.327,40.118C3179.509,948.843,3173.555,960.382,3171.034,960.382Z" transform="translate(-1464.641 -412.354)" fill="#a4a4a4" fill-rule="evenodd"/><path d="M2660.737,1090.7h0l-32.682-11.652-4.335-1.54,39.062-17.328c-3.524,8.267-1.8,4.313-1.926,14.528C2661.1,1080.293,2660.989,1085.577,2660.737,1090.7Z" transform="translate(-1216.15 -491.417)" fill="#bcbdbd" fill-rule="evenodd"/><path d="M2613.777,988.577h0L2602.27,908.4l103.223-40.08c-.15,1.947-1.282,3.954-4.1,5.987-5.9,4.244-10.268,8.68-16.529,12.468-1.915,1.153,2.7,2.87,3.777,4.126,1.352,1.577-6.931,5.987-8.17,7.2-11.937,9.318-25.536,9.791-24.555,25.252.1,1.593-3.364,3.691-4.11,5.751-2.183,6.041.15,10.617.274,16.068h0Z" transform="translate(-1206.208 -402.485)" fill="#c5c6c6" fill-rule="evenodd"/><path d="M2554.645,1223.454h0l-.575-75.316,73.466-5.708c-.489,6.2-.955,12.28-1.025,18.471-.021,1.513-1.057,4.174-2.414,7.36Z" transform="translate(-1183.866 -529.541)" fill="#b8b9ba" fill-rule="evenodd"/><path d="M2550.031,870.132h0l-60.462-62.178,49.04-22.194Z" transform="translate(-1153.969 -364.217)" fill="#bebebf" fill-rule="evenodd"/><path d="M3115.936,746.726h0l-7.365-14.286c6.143,1.733,12.274,2.7,7.885,8.718-1.432,1.964,2.833,1.921,1.449,3.45-.376.424-1.1,1.175-1.969,2.119Z" transform="translate(-1440.89 -339.502)" fill="#a6a7a7" fill-rule="evenodd"/><path d="M3081.892,680.72h0l-4.442-8.61C3088.942,672.722,3084.961,677,3081.892,680.72Z" transform="translate(-1426.465 -311.538)" fill="#a6a7a7" fill-rule="evenodd"/><path d="M3158.635,980.953a9.576,9.576,0,0,1-1.342-3.53c-.15-.762.607-1.4,1.733-2.033h0Z" transform="translate(-1463.465 -452.115)" fill="#c4c5c5" fill-rule="evenodd"/><path d="M3116.229,910.1c-6.593-3.391-16.453-4.962-22.688-7.414-2.972-1.164-16.067-11.373-30.321-23.085l46.25-20.558c.563,4.952-2.768,10.059,8.261,15.794a5.413,5.413,0,0,1,.924.606h0Z" transform="translate(-1419.869 -398.184)" fill="#c4c5c5" fill-rule="evenodd"/><path d="M2753.883,1281.09h0l-1.062-64.308c2.216,2.559,4.469,4.77,6.223,4.77,1.862,0,3.16-2.484,3.246-9.667.172-14.625-11.276-17.608,7.108-25.252,4.582-1.9,6.974-2.532,8.557-2.532,2.978,0,3.042,2.226,9.233,2.366Z" transform="translate(-1275.992 -548.857)" fill="#b5b5b6" fill-rule="evenodd"/><path d="M2165.063,1691.713a23.194,23.194,0,0,1-4.453-.413l1.834-5.22,26.819-76.18,26.6,54.48c-.086.091-.155.209-.247.306C2206.13,1674.663,2182.52,1691.713,2165.063,1691.713Z" transform="translate(-1001.489 -746.224)" fill="#a0a0a0" fill-rule="evenodd"/><path d="M2240.624,1664.379h0l-26.6-54.48,91.678,32.8a16.7,16.7,0,0,1-5.541.987c-3.836,0-7.806-1.459-11.6-5.048a1.289,1.289,0,0,0-.927-.338c-1.283,0-3.225,1.261-5.574,2.516s-5.107,2.522-8.02,2.522a9.365,9.365,0,0,1-3.4-.623,17.931,17.931,0,0,0-6.464-1.266c-6.422,0-10.65,3.879-14.211,4.238-4.141,6.046-4.893,13.75-9.34,18.691Z" transform="translate(-1026.246 -746.224)" fill="#a4a4a4" fill-rule="evenodd"/><path d="M2610.24,290.78l-19.33-39.1c2.661-1.974,5.537-2.13,8.063-4.968,1.224-1.379-.392-4.152,1.233-5.891,5.054-5.386,4.861-5.772,4.941-12.822-1.652-7.961-4.039-12.334.971-12.334a25.261,25.261,0,0,1,5.655.928c1.057.263,1.679,4.233,2.95,4.233.537,0,1.186-.7,2.028-2.672.51-1.175,5.027-1.733,8.16-2.784s4.855-2.618,6.165-3.16c3.567-1.481,8.75-5.6,2.333-8.45a8.323,8.323,0,0,0-3.417-.633,33.642,33.642,0,0,0-5.8.735,34.671,34.671,0,0,1-6.137.74,15.252,15.252,0,0,1-1.566-.086c-3.82-.413-7.371-9.378-5.8-12.843.858-1.878,2.5-3.589,2.94-5.225.6-2.226,4.088-4.4,4.109-5.531,3.568-7.924,21.454-45.493,30.124-46.228,2.371-.2,11.732-6.009,21.92-13.042l-32.9,93.465Z" transform="translate(-1200.942 -56.387)" fill="#c4c5c5" fill-rule="evenodd"/><path d="M2574.474,403.129l-60.724-21.717a38.662,38.662,0,0,1,4.458-.279,12.956,12.956,0,0,1,5.048.746c5.065,2.387,7.442,4.791,10.912,5.44a8.419,8.419,0,0,0,1.594.129c.992,0,2.082-.107,3.246-.22s2.408-.225,3.707-.225c.542,0,1.089.021,1.647.064.112.011.225.016.333.016a5.14,5.14,0,0,0,1.689-.327,4.619,4.619,0,0,1,1.368-.322c.638,0,1.261.349,2.023,1.561.858,1.363,4.013,8,7.017,8,.982,0,1.943-.7,2.812-2.516,5.171-10.864-11.921-11.352-8.691-20.5,1.346-3.814.016-5.515,3.825-8.653.134-.107.274-.188.408-.3Z" transform="translate(-1165.177 -168.736)" fill="#cfd0d0" fill-rule="evenodd"/><path d="M2574.474,418.147h0L2513.75,396.43l60.724,21.717L2513.75,396.43Z" transform="translate(-1165.177 -183.754)" fill="#cfd0d0" fill-rule="evenodd"/><path d="M2574.474,418.147h0L2513.75,396.43Z" transform="translate(-1165.177 -183.754)" fill="#aaabab" fill-rule="evenodd"/><path d="M2179.209,1429.391h0l-40.289-81.5,113.835-127.425-.15.424h0l-46.872,133.154Z" transform="translate(-991.435 -565.715)" fill="#b6b7b7" fill-rule="evenodd"/><path d="M2111.007,1347.895l-32.307-62.1,146.142-65.327Z" transform="translate(-963.522 -565.715)" fill="#b8b9ba" fill-rule="evenodd"/><path d="M2119.526,1539.486l-45.74-16.362c-.065-.976-1-1.18-2.189-1.18-.328,0-.666.016-1.014.032l-4.329-1.545c-.746-4.63,8.781-11.121,7.912-12.709-.5-.918-5.488-15.113-5.1-18.1-.553-2.779-.751-14.448-.461-14.817,2.757-3.525,1.85-4.882-.333-4.882-4.523,0-14.544,5.837-8.879,10.354,8.932,7.119-5.9,6.293-1.829,10.284.874.847-1.266,23.674-2,24.667a4.681,4.681,0,0,1-1.046,1.009l-44.361-15.874,69.077-42.371,40.29,81.5Z" transform="translate(-931.752 -675.811)" fill="#b6b7b7" fill-rule="evenodd"/><path d="M2044.831,1273.713l-39.2-79.313,136.534,35.8Z" transform="translate(-929.652 -553.631)" fill="#ddddde" fill-rule="evenodd"/><path d="M2010.16,1446.708h0l36.77-104.469,32.307,62.1Z" transform="translate(-931.752 -622.158)" fill="#c2c2c3" fill-rule="evenodd"/><path d="M1916.435,1446.708l-107.79-38.562-.676-.241,145.24-65.665Z" transform="translate(-838.033 -622.158)" fill="#c8c8c9" fill-rule="evenodd"/><path d="M2174.5,1595.763h0l-45.74-16.363Z" transform="translate(-986.726 -732.087)" fill="#aaabab" fill-rule="evenodd"/><line x1="4.329" y1="1.545" transform="translate(1134.502 844.62)" fill="none"/><path d="M1807.97,1339.378h0L1914.01,1194.4l39.2,79.313Z" transform="translate(-838.033 -553.631)" fill="#cfd0d0" fill-rule="evenodd"/><path d="M1807.97,1339.378h0l49.072-139.409,56.969-5.569Z" transform="translate(-838.033 -553.631)" fill="#dcdcdc" fill-rule="evenodd"/><path d="M1899.44,1144.721l24.469-69.511,32.5,63.943Z" transform="translate(-880.431 -498.384)" fill="#ddddde" fill-rule="evenodd"/><path d="M1744.857,1340.435h0L1671.81,1196.68l122.119,4.345Z" transform="translate(-774.919 -554.688)" fill="#ddddde" fill-rule="evenodd"/><path d="M1793.928,1144.721h0l-122.119-4.345L1818.4,1075.21Z" transform="translate(-774.919 -498.384)" fill="#d9dada" fill-rule="evenodd"/><path d="M2142.164,1188.223l-136.534-35.8,125.118-48.584Z" transform="translate(-929.652 -511.654)" fill="#c2c2c3" fill-rule="evenodd"/><path d="M2229.1,1031.146h0l-11.282-84.136,109.221,39.56Z" transform="translate(-1028.007 -438.96)" fill="#ddddde" fill-rule="evenodd"/><path d="M1977.55,1079.729h0l-32.5-63.943,146.335-68.776Z" transform="translate(-901.572 -438.96)" fill="#e1e1e1" fill-rule="evenodd"/><path d="M2327.042,959.551l-109.221-39.56,72.328-31.271Z" transform="translate(-1028.007 -411.941)" fill="#cacbcb" fill-rule="evenodd"/><path d="M2389.534,930.618h0l-36.895-70.831L2426.17,826.3l.075.027-.145.418h0v.005l-7.64,21.7-28.889,82.065Z" transform="translate(-1090.499 -383.008)" fill="#d7d8d8" fill-rule="evenodd"/><path d="M2299.075,1127.9h0l-60.225-62.569,97.939-44.576Z" transform="translate(-1037.755 -473.14)" fill="#c2c2c3" fill-rule="evenodd"/><path d="M2287.288,813.68h0l-75.637-86.85.016.005,72.054,25.778,77.1,27.58Z" transform="translate(-1025.147 -336.902)" fill="#e1e1e1" fill-rule="evenodd"/><path d="M1611.219,1073.8,1541.09,931.58,1650.7,970.314Z" transform="translate(-714.328 -431.808)" fill="#c2c2c3" fill-rule="evenodd"/><path d="M1945.05,982.26l37.87-107.58,108.465,38.8Z" transform="translate(-901.572 -405.434)" fill="#e4e5e5" fill-rule="evenodd"/><path d="M2005.63,1079.729h0L2119.465,947.01l11.282,84.136Z" transform="translate(-929.652 -438.96)" fill="#e4e5e5" fill-rule="evenodd"/><path d="M1404.28,1255.118l.22-.623,26.309-74.726,116.995,9.072Z" transform="translate(-650.913 -546.849)" fill="#c2c2c3" fill-rule="evenodd"/><path d="M2214.96,844.952h0l-3.31-118.122h0l75.637,86.85Z" transform="translate(-1025.147 -336.902)" fill="#e4e5e5" fill-rule="evenodd"/><path d="M1570.725,1073.8h0l-116.995-9.072,46.47-132.006.333-.955.065-.188Z" transform="translate(-673.834 -431.808)" fill="#d2d2d3" fill-rule="evenodd"/><path d="M2250.266,1188.223h0l-11.416-84.383,60.225,62.57Z" transform="translate(-1037.755 -511.654)" fill="#b6b7b7" fill-rule="evenodd"/><path d="M1714.839,1340.435l-107.789-38.557,34.742-105.2Z" transform="translate(-744.902 -554.688)" fill="#d9dada" fill-rule="evenodd"/><path d="M1513.061,1301.878l-108.781-38.921L1547.8,1196.68Z" transform="translate(-650.913 -554.688)" fill="#bcbdbd" fill-rule="evenodd"/><path d="M1671.81,1107.266h0l39.479-103.487L1818.4,1042.1Z" transform="translate(-774.919 -465.274)" fill="#ddddde" fill-rule="evenodd"/><path d="M2077.271,650.4l-5.547-10.923c2.366-3.943.885-11.47-1.18-13.605-3.933-4.072-4.249-4.769-3.289-4.769a9.16,9.16,0,0,1,.977.1,10.082,10.082,0,0,0,1.25.1,3.46,3.46,0,0,0,1.535-.306c2.269-1.121,2.044-1.894,5.4-2.752,4.115-1.052,8.97-2.87,13.728-4.41Z" transform="translate(-958.006 -284.524)" fill="#e3e3e3" fill-rule="evenodd"/><path d="M2320.031,533.821l-45.761-1.631c4.115-2.334,9.3-3.219,5.139-6.813-9.854-8.53,3-12.639,14.4-16.942a57.462,57.462,0,0,0,10.284-5.51v-.005l2.57,4.978c-.419.933-.671,1.615-.472,1.7a1.078,1.078,0,0,0,.4.081,1.639,1.639,0,0,0,.843-.279h0l12.6,24.426Z" transform="translate(-1054.173 -233.115)" fill="#dfe0e0" fill-rule="evenodd"/><path d="M2156.867,824.172h0L2086.32,682l67.236,24.05Z" transform="translate(-967.054 -316.122)" fill="#ddddde" fill-rule="evenodd"/><path d="M2086.32,648.005l12.875-36.577c4.678-1.513,9.265-2.768,12.961-2.768,4.892,0,8.219,2.194,8.138,8.868-.043,3.782,9.323,6.867,12.478,9.823Z" transform="translate(-967.054 -282.127)" fill="#e1e1e1" fill-rule="evenodd"/><path d="M2284.413,573.558c-1.229-2.361-3.224-5.15-3.187-8.02s-.622-3.895-1.626-3.895c-1.845,0-4.855,3.482-6.878,5.37-.724.676-1.234,1.1-1.717,1.1-.445,0-.874-.359-1.416-1.212-1.229-1.9-2.42-5.327-1.921-6.25a8.635,8.635,0,0,1,3.488-3.17l45.761,1.631Z" transform="translate(-1051.059 -258.404)" fill="#e1e1e1" fill-rule="evenodd"/><path d="M1891.435,969.963l-62.054-74.115,60-47.7.043.016Z" transform="translate(-847.957 -393.136)" fill="#e3e3e3" fill-rule="evenodd"/><path d="M1785.638,591.419l-7.977-58.948a7.5,7.5,0,0,1,2.907-1.921c8.541-3.144.558-10.81,11.733-10.81.1,0,.209,0,.311.005,5.4.064,14.1,2.2,6.5,7.806-1.116.821-.467,7.3,1.186,7.318.054,0,.107.005.161.005.606,0,1.288-.043,2-.075s1.47-.081,2.216-.081c2.978,0,5.89.6,6.213,4.147.241,2.752-1.513,2.135-1.54,4.49-.011,1.084.408,1.47.982,1.47a3.1,3.1,0,0,0,1.615-.66,8.233,8.233,0,0,1,2.886-1.507c6.926-2.312,13.551-8.375,19-8.375,3.541,0,6.588,2.554,8.895,10.333,1.5,5.054,5.4.59,6.073,8.449.392,4.641,8.3,4.469,10.638,9.694l-73.8,28.659Z" transform="translate(-823.983 -240.911)" fill="#e8e8e8" fill-rule="evenodd"/><path d="M1720.242,733.521l-107.854-38.353-.118-.037-.52-.188.52.188-.52-.188,96.985-41.593Zm-107.972-38.39.118.037Z" transform="translate(-747.08 -302.842)" fill="#e6e7e7" fill-rule="evenodd"/><path d="M1813.98,737.364l28.852-32.7c4.018-.477,14.072-8.97,17.039-12.9,3.492-4.624,3.691-7.65,3.187-10.027l9.769-11.073c1.7.917,3.412,2.1,5.627,2.092a8.137,8.137,0,0,0,4.211-1.325c3.326-2,8.187-2.473,12.312-2.473,1.556,0,3,.07,4.228.145.375.027.708.038,1.019.038,4.464,0,3.144-2.4,7.709-4.882a19.136,19.136,0,0,1,8.793-2.259c4.056,0,6.878,1.652,4.92,4.968-1.234,2.087.258,2.854,3.133,2.854,7.559,0,24.678-5.316,26.9-5.928a4.758,4.758,0,0,0,2.859-2.259l5.547,10.923-146.1,64.8Z" transform="translate(-840.818 -306.685)" fill="#e3e3e3" fill-rule="evenodd"/><path d="M1852.508,1011.174,1745.4,972.854l45.053-35.794Z" transform="translate(-809.03 -434.348)" fill="#e3e3e3" fill-rule="evenodd"/><path d="M1682.882,801.969,1611.75,730.88l.52.188.118.038,112.4,39.978,63.642,22.682Z" transform="translate(-747.08 -338.779)" fill="#e6e7e7" fill-rule="evenodd"/><path d="M1541.09,838.551l.263-.74L1578.74,731.6l.22-.617.038-.107,71.131,71.089Z" transform="translate(-714.328 -338.779)" fill="#e3e3e3" fill-rule="evenodd"/><path d="M1611.75,668.745h0l.167-.488,14.195-40.322a12.953,12.953,0,0,0,3.031-2.543c4.475-5.756,7.318-10.225,15.682-10.225h.29a20.464,20.464,0,0,0,3.144.274c9.941,0,8.111-9.689,17.768-14.614,4.506-2.307,6.394-4,7.183-4,.912,0,.327,2.3.633,8.594.086,1.749.569,2.441,1.3,2.441,1.84,0,5.247-4.286,7.972-7.065h0l25.623,26.352-96.985,41.593Z" transform="translate(-747.08 -276.644)" fill="#e3e3e3" fill-rule="evenodd"/><path d="M1650.7,938.706,1541.09,899.972l109.039-36.582Z" transform="translate(-714.328 -400.2)" fill="#ccc" fill-rule="evenodd"/><path d="M2423.163,703.132l-.076-.027-77.1-27.58,7.285-115Z" transform="translate(-1087.416 -259.813)" fill="#ddddde" fill-rule="evenodd"/><path d="M1941.273,848.138l-.043-.016.043-.032Z" transform="translate(-899.802 -393.109)" fill="#e3e3e3" fill-rule="evenodd"/><path d="M1922.166,785.369h0L1882.29,771.1l-.118.005-63.642-22.682-4.549-1.625,146.1-64.8Z" transform="translate(-840.818 -316.122)" fill="#e3e3e3" fill-rule="evenodd"/><path d="M1904.382,688.625c-.628-2.935-2.339-4.855-.215-7.543,2.773-3.493,4.844-4.592,6.652-4.592a7.022,7.022,0,0,1,3.331,1.062h0Z" transform="translate(-882.143 -313.568)" fill="#e4e5e5" fill-rule="evenodd"/><path d="M1804.038,708.76h0l-11.508-80.171,73.8-28.659a6.526,6.526,0,0,1,.295.746c2.994,9.614-12.339,17.618-10.708,24.131.659,2.65-3.026,8.889-4.389,10.467-3.46,4.029-2.838,6.6-5.043,9.968-2.607,3.959-6.626,9.8-8.61,11.336-3.359,2.623-2.86,8.653-4.828,12.613-2.516,5.043-2.216,6.894-.494,6.894a2.365,2.365,0,0,0,.333-.021h0l-28.852,32.7Z" transform="translate(-830.876 -278.081)" fill="#e4e5e5" fill-rule="evenodd"/><path d="M2476.366,512.586l-116.8-9.362,143.438-66.314-.187.531-.005.005Z" transform="translate(-1093.711 -202.517)" fill="#c8c8c9" fill-rule="evenodd"/><path d="M1744.909,931.614h0l-.569-75.316,105.552-8.2.118-.005-.043.032Z" transform="translate(-808.539 -393.109)" fill="#e4e5e5" fill-rule="evenodd"/><path d="M2429.457,703.132h0L2359.57,560.52l116.8,9.361Z" transform="translate(-1093.711 -259.813)" fill="#dfe0e0" fill-rule="evenodd"/><path d="M1770.392,602.418h0l-25.622-26.352c1.309-1.331,2.457-2.323,3.2-2.323a1.616,1.616,0,0,1,.161.016,23.806,23.806,0,0,0,4.485.735c3,0-2.779-3.165-5.483-6.325-2-2.334,10.526.07,11.1-3.3,1.309-7.677-.011-16.98,4.179-21.4Z" transform="translate(-808.738 -251.91)" fill="#e3e3e3" fill-rule="evenodd"/><path d="M2332.429,506.044h0l-2.57-4.979c.977-.617,1.8-1.148,2.414-1.481a4.154,4.154,0,0,1,1.818-.665C2336,498.92,2333.572,503.485,2332.429,506.044Z" transform="translate(-1079.94 -231.26)" fill="#e3e3e3" fill-rule="evenodd"/><path d="M2348.687,517.431h0l-12.6-24.426c1.368-.842,2.683-3.417,3.487-4.034a.284.284,0,0,1,.188-.07c.59,0,1.491,1.7,2.5,3.39s2.13,3.391,3.171,3.391c1.159-.005,2.215-2.13,2.886-8.755.177-1.733-6.282-9.914-1.325-13.761,1.851-1.432,12.763-5.263,17.806-5.606Z" transform="translate(-1082.828 -216.724)" fill="#e3e3e3" fill-rule="evenodd"/><path d="M2359.57,484.461h0l16.116-49.871c.247-.016.478-.022.7-.022.9,0,1.535.15,1.771.51,2.033,3.16-1.486,4.463.354,6.014a1.306,1.306,0,0,0,.708.123c4.2-.005,24.522-4.962,28.927-5.773,3.991-.74,9.683-13.224,10.842-17.258.928-3.214-3.626-11.76,4.27-11.76h.15c2.474,0,4.958-4.024,7.049-6.137,1.851-1.878,6.959-3.289,11.83-3.857l60.723,21.717Z" transform="translate(-1093.711 -183.754)" fill="#ddddde" fill-rule="evenodd"/><path d="M2124.105,824.172h0l-108.465-38.8L2053.558,682Z" transform="translate(-934.292 -316.122)" fill="#e4e5e5" fill-rule="evenodd"/><path d="M2225.627,675.525l-72.055-25.778-.016-.005h0l-67.237-24.05,46.453-20.654a4.9,4.9,0,0,1,.59.638c3.289,4.458-4.984,7.345.729,9.887,1.32.59,17.49,12.977,25.483,12.977,2.216,0,3.8-.95,4.276-3.369a3.441,3.441,0,0,0-.671-3.155c-3.857-5.773-19.726-22.79-7.612-23.154.091-.005.188-.005.284-.005a9.381,9.381,0,0,1,6.846,3.251c1.62,1.631,2.795,3.251,4.152,3.251a2.618,2.618,0,0,0,1.84-.971c3.5-3.541,6.137-12.468,10.552-12.468a5.491,5.491,0,0,1,3.729,1.942c.966.95,1.357,1.282,2.028,1.282a12.01,12.01,0,0,0,2.129-.391c3.911-.864,10-3.031,7.919-6.148-1.186-1.776-11.062-6.363-.768-7.307,8.047-.74,7.785-3.138,6.127-6.331l32.506-14.447Z" transform="translate(-967.054 -259.813)" fill="#e6e7e7" fill-rule="evenodd"/><path d="M1943.317,969.935h0l-2.007-121.8v-.048l39.877,14.265Z" transform="translate(-899.838 -393.109)" fill="#e3e3e3" fill-rule="evenodd"/><path d="M1327.369,1484.962l-2.892-8.487a37.36,37.36,0,0,0-12.028-16.3l49.265-139.946v-.005l39.694,81.287Z" transform="translate(-608.348 -611.951)" fill="#b5b5b6" fill-rule="evenodd"/><path d="M1348,1577.941l-7.741-22.746,74.039-83.454,32.318,62.092-97.339,43.524Z" transform="translate(-621.239 -682.184)" fill="#b8b9ba" fill-rule="evenodd"/><path d="M1443.974,1401.507h0l-39.694-81.287,108.781,38.921Z" transform="translate(-650.913 -611.951)" fill="#c5c6c6" fill-rule="evenodd"/><path d="M1493.6,1666.793,1357.07,1631l97.339-43.525Z" transform="translate(-629.03 -735.832)" fill="#bcbdbd" fill-rule="evenodd"/><path d="M1510.588,1497.228h0l-32.318-62.092,69.088-42.366Z" transform="translate(-685.209 -645.58)" fill="#bcbdbd" fill-rule="evenodd"/><path d="M1538.51,1497.228l36.77-104.458,107.789,38.557h0l.676.241Z" transform="translate(-713.132 -645.58)" fill="#c5c6c6" fill-rule="evenodd"/><path d="M1577.7,1610.062h0l-39.19-79.313,145.235-65.66Z" transform="translate(-713.132 -679.102)" fill="#b8b9ba" fill-rule="evenodd"/><path d="M1611.56,1610.062l106.046-144.972L1668.534,1604.5Z" transform="translate(-746.992 -679.102)" fill="#c0c1c1" fill-rule="evenodd"/><path d="M1629.226,1765.272l-17.666-34.758,56.974-5.563-6.223,17.677a10.627,10.627,0,0,1-5.3,2.822c-4.474,2.124-21.958,8.89-23.75,11.3-1.432,1.926,1.32,5.2-2.216,7.49a20.932,20.932,0,0,1-1.824,1.03Z" transform="translate(-746.992 -799.553)" fill="#b2b3b3" fill-rule="evenodd"/><path d="M1792.513,1607.155l-74.753-2.656,49.072-139.409,67.4,132.645a26.344,26.344,0,0,1-4.3.418h-.2c-8.085-.1-5.821-5.4-11.465-5.4a15.881,15.881,0,0,0-3.584.5,3.967,3.967,0,0,1-.907.107c-1.534,0-2.468-1.046-3.406-2.1s-1.872-2.1-3.418-2.1a3.848,3.848,0,0,0-.944.118c-13.492,3.713-11.609,5.483-13.38,16.368a8.785,8.785,0,0,0-.118,1.508Z" transform="translate(-796.218 -679.102)" fill="#acacad" fill-rule="evenodd"/><path d="M1752.576,1761.184c-10.322,0-21.239-1.164-24.163-7.033-3.455-6.926,2.908-11.985-8.112-15.338a16.637,16.637,0,0,0-4.823-.8c-4.469,0-6.834,2.5-9.318,4.619l6.223-17.677,74.753,2.656c.08,7.505,10.617,9,6.25,19.179-.145.349-.285.644-.424.976l-29.506,13.117C1760.21,1761.018,1756.433,1761.184,1752.576,1761.184Z" transform="translate(-790.841 -799.553)" fill="#a6a7a7" fill-rule="evenodd"/><path d="M1433.593,1727.7c-6.309-9.845-12.425-20.246-18.841-20.246a7.629,7.629,0,0,0-5.354,2.569,27.078,27.078,0,0,0-4.592-.257c-1.046,0-2.2.016-3.412.032s-2.484.027-3.777.027c-8.653,0-18.417-.681-18.347-6.609.059-4.823-.649-6.475-1.749-6.475-2.21,0-6.014,6.754-8.267,7.645a9.387,9.387,0,0,1-3.407.751,4.6,4.6,0,0,1-4.163-2.436l-1.84-13.589c.075-3.857.241-7.318-.3-8.895l-1.5-4.41-.976-7.2L1493.6,1704.4l-60.005,23.3Z" transform="translate(-629.03 -773.438)" fill="#acacad" fill-rule="evenodd"/><path d="M1561.847,1785.561c-3.653-.005-6.5-6.4-6.98-12.173a2.072,2.072,0,0,0-1.068-1.942l30.987-36.126,17.666,34.759c-10.649,5.391-31.234,5.606-36.421,12.677C1564.583,1784.735,1563.162,1785.561,1561.847,1785.561Z" transform="translate(-720.219 -804.359)" fill="#b8b9ba" fill-rule="evenodd"/><path d="M1517.532,1775.894c-6.33,0-12.156-8.412-17.822-17.269l60.005-23.3-30.987,36.126a1.991,1.991,0,0,0-.815-.156c-2.859,0-8.08,4.351-9.421,4.538A7.176,7.176,0,0,1,1517.532,1775.894Z" transform="translate(-695.147 -804.359)" fill="#a8a8a9" fill-rule="evenodd"/><path d="M2079.27,1686.08h0l-19.093-1.647c-4.544-1.733-8.595-3.283-8.551-3.557.821-4.48-18.5-6.454-20.982-6.486-4.179,2.307-8.46,4.094-12.43,6.422l-34.582-2.983c.333-3.605.327-7.559-2.049-10.257-.134-.151-.274-.263-.413-.408l24.528-11.25c3.712-.091,6.947-.6,7.532-1.486a23.134,23.134,0,0,1,2.709-3.2h0l90.15-41.325Zm26.819-76.18-26.819,76.18Z" transform="translate(-918.315 -746.224)" fill="#b6b7b7" fill-rule="evenodd"/><path d="M1996.832,1747.148c-5.231,0-9.99-.7-11.454-2.4-1.089-1.255-.408-4.566-.07-8.23l34.581,2.983a34.714,34.714,0,0,0-6.207,4.522C2011.682,1745.887,2003.828,1747.148,1996.832,1747.148Z" transform="translate(-919.991 -804.915)" fill="#a4a4a4" fill-rule="evenodd"/><path d="M2145.7,1755.7a17.586,17.586,0,0,1-5.483-2.017c-1.712-1-7.017-3.031-11.776-4.85l19.093,1.647-1.835,5.22Z" transform="translate(-986.578 -810.621)" fill="#a4a4a4" fill-rule="evenodd"/><path d="M1364.058,1720.419c-1.867-3.111-1.931-8.669-1.84-13.589Z" transform="translate(-631.405 -791.153)" fill="#b8b9ba" fill-rule="evenodd"/><path d="M1356.943,1675.81l-2.253-6.615,1.277-.585Z" transform="translate(-627.927 -773.438)" fill="#b8b9ba" fill-rule="evenodd"/><path d="M1876.633,1597.734h0l-67.4-132.644,107.789,38.562,2.028.724-32.167,91.395C1883.414,1596.237,1879.927,1597.182,1876.633,1597.734Z" transform="translate(-838.616 -679.102)" fill="#c4c5c5" fill-rule="evenodd"/><path d="M1968.568,1633.985a14.16,14.16,0,0,0-10.928-4.539,27.43,27.43,0,0,0-3.669.268l32.167-91.394,42.339,15.15c-3.117,2.275-8.847,2.1-6.105,9.855,2.334,6.593-4.48,7.044-7.361,11.073-3.476,4.855-.756,10.488-3.38,15.638-3.4,6.642-8.428,6.642-11.47,16.175-3.2,10.038-13.224,7.924-19.088,12.87-2.94,2.478,4.19,3.675,10.671,3.675.451,0,.906-.005,1.347-.021h0Z" transform="translate(-905.707 -713.045)" fill="#babbbb" fill-rule="evenodd"/><path d="M2045.98,1637.088h0c4.49-4.63,11.706-10.52,11.765-15.52.118-10.027,7.317-14.287,16.175-18.482,2.822-1.33,5.933-8.852,5.681-12.382-.617-8.5,9.474-3.375,10.767-10.821a1.89,1.89,0,0,0,.022-.483l45.74,16.363Z" transform="translate(-948.355 -732.087)" fill="#babbbb" fill-rule="evenodd"/><path d="M2117.381,1575.995c-1.212,0-2.253-.193-2.57-1.105a3.238,3.238,0,0,1-.091-.51l4.329,1.545C2118.491,1575.952,2117.917,1575.995,2117.381,1575.995Z" transform="translate(-980.218 -729.76)" fill="#babbbb" fill-rule="evenodd"/><path d="M1812.96,1780.587l29.506-13.116c-5.086,11.717-6.851,12.956-17.983,12.956-1.417,0-2.989-.022-4.732-.043h-.472C1817.622,1780.383,1815.449,1780.48,1812.96,1780.587Z" transform="translate(-840.345 -819.262)" fill="#acacad" fill-rule="evenodd"/><path d="M205.649,758.112H202.4c-.209,0-.424.005-.649.011a4.769,4.769,0,0,1-1.84-.156,4.492,4.492,0,0,1-1.212-.885,8,8,0,0,0-.869-.735c-.215-.15-.472-.37-.756-.612a6.982,6.982,0,0,0-2.022-1.368,2.534,2.534,0,0,0-2.747.848c-.156.139-.317.284-.483.418-.118.086-.231.161-.343.231l-4.324,12.183-.172.488c.257.4.494.821.724,1.25l22.634-10.456C209.694,758.225,207.592,758.118,205.649,758.112Z" transform="translate(-86.668 -349.6)" fill="#a0a0a0" fill-rule="evenodd"/><path d="M217.316,783.676a6.081,6.081,0,0,0-1.2-2.028,9.154,9.154,0,0,1-.563-.762,12.194,12.194,0,0,1-1.368-2.629,3.622,3.622,0,0,1-.091-1.132,4.748,4.748,0,0,0-.129-1.454,6.6,6.6,0,0,0-1.368-2.2c-.22-.268-.424-.526-.59-.756a5.951,5.951,0,0,1-.987-2.666c-.043-.257-.086-.5-.139-.762a8.384,8.384,0,0,1-.215-2.076,6.832,6.832,0,0,1,.193-.944,4.17,4.17,0,0,0,.166-2.436.9.9,0,0,0-.059-.091L188.33,774.2c.236.451.467.912.681,1.379l28.256,10.107A4.3,4.3,0,0,0,217.316,783.676Z" transform="translate(-87.294 -354.01)" fill="#999a99" fill-rule="evenodd"/><path d="M190.55,787.946c.526,1.228,1.073,2.505,1.706,3.691a36.784,36.784,0,0,0,4.362,6.025,34.221,34.221,0,0,1,2.672,3.825c.563.891,1.148,1.808,1.781,2.677a32.107,32.107,0,0,0,2.58,3.02c.558.606,1.137,1.229,1.679,1.872a6.705,6.705,0,0,1,.435.622,4.2,4.2,0,0,0,.6.794,4.436,4.436,0,0,0,.853.413c.043,0,.08.011.123.011a1.833,1.833,0,0,0,1.014-.349,5.4,5.4,0,0,0,2.334-2.666c.064-.193.129-.381.2-.6a8.813,8.813,0,0,1,1.078-2.42,6.95,6.95,0,0,1,1.094-1.121,9.9,9.9,0,0,0,1.1-1.078l.258-.317a13.809,13.809,0,0,0,3.187-5.37l.086-.338c.059-.231.113-.472.166-.729L189.6,785.8c.333.708.644,1.433.95,2.146Z" transform="translate(-87.882 -364.235)" fill="#a4a4a4" fill-rule="evenodd"/><path d="M186.672,755.11a6.441,6.441,0,0,1-3.6.633l-.606-.005a4.97,4.97,0,0,1-2.505-.472,3.333,3.333,0,0,1-.928-.992,3.99,3.99,0,0,0-1.148-1.191l-.95-.552v1.11c0,.59-.054,1.191-.107,1.781a17.978,17.978,0,0,0-.1,2.173,6.617,6.617,0,0,0,1.416,3.557c.676,1.025,1.336,2.119,1.974,3.2s1.309,2.178,2,3.235c.038.054.075.113.107.166l.172-.488,4.276-12.151Z" transform="translate(-81.913 -348.814)" fill="#9c9c9c" fill-rule="evenodd"/><path d="M191.624,757.28l-.048.032L187.3,769.464Z" transform="translate(-86.816 -351.016)" fill="#9c9c9c" fill-rule="evenodd"/><path d="M1263.668,1619.4v-.005l-74.538-26.668Z" transform="translate(-551.187 -738.266)" fill="#b6b7b7" fill-rule="evenodd"/><path d="M868.975,1597.343a15.565,15.565,0,0,1-1.985-1.293l.944,1.931Z" transform="translate(-401.867 -739.804)" fill="#a4a4a4" fill-rule="evenodd"/><path d="M2968.424,1299.131l-3.332-.043-2.6-3.53-8.079-.1.059-5.118-8.428-.1-2.7-8.847-4.56-1.121-.268-6.819-3.375-4.694-1.84-.022-3.772-7.945.88-14.544,4.979,1.834,8.428-6.378-24.694-15.064-2.538-.032-5.156-6.969-10.735-4.281-5.4-.778-15.8-19.356-5.139-8.433-12.677-4.565-4.2-8.573-5.037-.059-.049,3.906,4.265,6.084-.064,5.724,2.854,1.55-.053,4.12,6.566,3.981,3.943,13.54,26.186,23.428-.059,5.2,5.235,2.248,4.222.048,5.714,4.7-.054,4.276,3.788,3.954,10.558,18.31,6.465,2.79,7.43,10.794,2.436,1.937-.746,3.4,3.825,3.245,3.138,2.049,4.109,9.142,15.311,12.715-7.585-12.618-.279-5.612,3.181-1.91,8.449.107,6.636,2.023-6.572-7.06Z" transform="translate(-1322.149 -543.985)" fill="#babbbb" fill-rule="evenodd"/><path d="M92.26,1350.586s-11.309-7.361-15.579-7.119c-1.432.075-3.932,2.35-5.349,2.114-3.289-.553-8.965-5.574-10.182-8.707-1.046-2.709.95-9.077-.456-11.615-3.643-6.556-26.373-13.938-26.373-13.938s-5.671-2.028-3.315,7c.708,2.709-1.636-3.155-14.742,2.9-20.021,9.243-16.438,12.162-15.2,12.607,1.888.665,3.5-1.368,9.136,1.121,7.28,3.214,9.142,5.279,11.454,10.4s-4.029,12.908-4.211,14.388,2.961,5.955,8.444,8.283,15.365-4.989,19-7.468c5.644-3.852,17.006-7.656,22.725-6.234,2.092.515,5.07,4.136,7.017,5.059,2.6,1.234,11.384,1.588,11.384,1.588a25.078,25.078,0,0,0,1.347-2.9c.3-1.046-.07-3.391.477-4.329C88.52,1352.566,92.26,1350.586,92.26,1350.586Z" transform="translate(0 -607.736)" fill="#9c9c9c" fill-rule="evenodd"/></g></g></svg>