<svg width="40" height="40" viewBox="0 0 40 40" fill="none" xmlns="http://www.w3.org/2000/svg">
<rect x="40" width="40" height="40" rx="20" transform="rotate(90 40 0)" fill="#2C72C6"/>
<path fill-rule="evenodd" clip-rule="evenodd" d="M10.0002 20.0001C10.0002 20.3316 10.1319 20.6496 10.3663 20.884C10.6007 21.1184 10.9187 21.2501 11.2502 21.2501L25.7327 21.2501L20.3652 26.6151C20.249 26.7313 20.1568 26.8693 20.0939 27.0212C20.031 27.173 19.9986 27.3358 19.9986 27.5001C19.9986 27.6645 20.031 27.8272 20.0939 27.9791C20.1568 28.1309 20.249 28.2689 20.3652 28.3851C20.4814 28.5013 20.6194 28.5935 20.7712 28.6564C20.9231 28.7193 21.0858 28.7517 21.2502 28.7517C21.4146 28.7517 21.5773 28.7193 21.7292 28.6564C21.881 28.5935 22.019 28.5013 22.1352 28.3851L29.6352 20.8851C29.7516 20.769 29.844 20.6311 29.907 20.4792C29.97 20.3273 30.0024 20.1645 30.0024 20.0001C30.0024 19.8357 29.97 19.6729 29.907 19.521C29.844 19.3692 29.7516 19.2312 29.6352 19.1151L22.1352 11.6151C21.9005 11.3804 21.5821 11.2485 21.2502 11.2485C20.9183 11.2485 20.5999 11.3804 20.3652 11.6151C20.1305 11.8498 19.9986 12.1682 19.9986 12.5001C19.9986 12.8321 20.1305 13.1504 20.3652 13.3851L25.7327 18.7501L11.2502 18.7501C10.9187 18.7501 10.6007 18.8818 10.3663 19.1162C10.1319 19.3507 10.0002 19.6686 10.0002 20.0001Z" fill="white"/>
</svg>
