<svg width="67" height="61" viewBox="0 0 67 61" fill="none" xmlns="http://www.w3.org/2000/svg">
<path d="M46.5744 24.8602C55.5252 26.8362 61.3334 35.2968 59.6516 43.8921C59.0329 47.0386 57.5143 49.7993 55.3968 51.9894C55.0972 52.2974 54.9659 52.7176 55.023 53.1309L55.669 57.9145C55.8897 59.5622 53.981 60.6983 52.5217 59.7875L48.0538 56.9956C47.707 56.7776 47.2819 56.7017 46.884 56.7962C44.5193 57.3589 41.9928 57.4546 39.4456 56.9828C30.3134 55.3032 24.1499 46.8814 25.677 38.1511C27.3099 28.8008 36.8702 22.7168 46.5795 24.8569L46.5744 24.8602Z" fill="url(#paint0_linear_339_364)"/>
<g filter="url(#filter0_b_339_364)">
<path d="M31.3057 4.44754C19.5804 2.60882 8.27239 10.061 5.85202 21.2023C4.9653 25.2817 5.35829 29.3232 6.76419 32.9508C6.96331 33.4621 6.90338 34.0303 6.62399 34.5063L3.38552 39.9652C2.26876 41.8441 3.96484 44.1095 6.18276 43.6987L12.969 42.4448C13.4923 42.3489 14.0406 42.4523 14.4722 42.7578C17.0085 44.5473 19.9806 45.8521 23.2724 46.4855C35.0623 48.7594 46.7754 41.5274 49.453 30.295C52.3218 18.2655 44.0282 6.44046 31.31 4.44834L31.3057 4.44754Z" fill="url(#paint1_linear_339_364)"/>
<path d="M6.48124 21.3277L6.48125 21.3276C8.82327 10.547 19.7822 3.29466 31.1857 5.07783L31.1899 5.07863L31.1998 5.08018C43.5784 7.01909 51.6036 18.5126 48.8267 30.1571L48.8267 30.1571C46.2352 41.0278 34.8771 48.0702 23.4048 45.8576L23.4045 45.8575C20.2036 45.2416 17.3151 43.9732 14.8505 42.2344C14.2683 41.8225 13.5423 41.6912 12.8621 41.8159L12.8611 41.816L6.07485 43.07L6.07457 43.07C4.33118 43.3929 3.13734 41.6318 3.93855 40.2838L3.93883 40.2834L7.17731 34.8245L7.17886 34.8218C7.5522 34.1857 7.63833 33.4142 7.3655 32.7128C6.00243 29.1956 5.62209 25.2802 6.48124 21.3277Z" stroke="url(#paint2_linear_339_364)" stroke-width="1.28342"/>
</g>
<defs>
<filter id="filter0_b_339_364" x="-8.51854" y="-7.38182" width="70.0903" height="65.836" filterUnits="userSpaceOnUse" color-interpolation-filters="sRGB">
<feFlood flood-opacity="0" result="BackgroundImageFix"/>
<feGaussianBlur in="BackgroundImageFix" stdDeviation="5.77538"/>
<feComposite in2="SourceAlpha" operator="in" result="effect1_backgroundBlur_339_364"/>
<feBlend mode="normal" in="SourceGraphic" in2="effect1_backgroundBlur_339_364" result="shape"/>
</filter>
<linearGradient id="paint0_linear_339_364" x1="42.226" y1="25.176" x2="43.0795" y2="58.7021" gradientUnits="userSpaceOnUse">
<stop stop-color="#FEDB7C"/>
<stop offset="1" stop-color="#F98F2C"/>
</linearGradient>
<linearGradient id="paint1_linear_339_364" x1="4.3201" y1="41.048" x2="50.1513" y2="9.46935" gradientUnits="userSpaceOnUse">
<stop stop-color="white" stop-opacity="0.2"/>
<stop offset="1" stop-color="white" stop-opacity="0.49"/>
</linearGradient>
<linearGradient id="paint2_linear_339_364" x1="12.5379" y1="4.37292" x2="40.1799" y2="49.9647" gradientUnits="userSpaceOnUse">
<stop stop-color="white"/>
<stop offset="1" stop-color="white" stop-opacity="0"/>
</linearGradient>
</defs>
</svg>
