<svg width="112" height="110" viewBox="0 0 112 110" fill="none" xmlns="http://www.w3.org/2000/svg">
<g clip-path="url(#clip0_2119_377)">
<g filter="url(#filter0_f_2119_377)">
<rect x="32.0752" y="82.1481" width="8.10158" height="24.3047" rx="4.05079" transform="rotate(-45 32.0752 82.1481)" fill="url(#paint0_linear_2119_377)"/>
</g>
<rect x="32.0747" y="82.1481" width="8.10158" height="24.3047" rx="4.05079" transform="rotate(-45 32.0747 82.1481)" fill="url(#paint1_linear_2119_377)"/>
<g filter="url(#filter1_bd_2119_377)">
<mask id="path-3-inside-1_2119_377" fill="white">
<path d="M38.7584 58.2785C45.6134 65.1335 45.6134 76.2477 38.7584 83.1028C31.9034 89.9578 20.7891 89.9578 13.9341 83.1028C7.07908 76.2477 7.07908 65.1335 13.9341 58.2785C20.7891 51.4235 31.9034 51.4235 38.7584 58.2785ZM18.899 78.1379C23.012 82.2509 29.6805 82.2509 33.7935 78.1379C37.9066 74.0249 37.9066 67.3564 33.7935 63.2434C29.6805 59.1303 23.012 59.1303 18.899 63.2434C14.7859 67.3564 14.7859 74.0249 18.899 78.1379Z"/>
</mask>
<path d="M38.7584 58.2785C45.6134 65.1335 45.6134 76.2477 38.7584 83.1028C31.9034 89.9578 20.7891 89.9578 13.9341 83.1028C7.07908 76.2477 7.07908 65.1335 13.9341 58.2785C20.7891 51.4235 31.9034 51.4235 38.7584 58.2785ZM18.899 78.1379C23.012 82.2509 29.6805 82.2509 33.7935 78.1379C37.9066 74.0249 37.9066 67.3564 33.7935 63.2434C29.6805 59.1303 23.012 59.1303 18.899 63.2434C14.7859 67.3564 14.7859 74.0249 18.899 78.1379Z" fill="url(#paint2_linear_2119_377)" shape-rendering="crispEdges"/>
<path d="M38.7584 58.2785C45.6134 65.1335 45.6134 76.2477 38.7584 83.1028C31.9034 89.9578 20.7891 89.9578 13.9341 83.1028C7.07908 76.2477 7.07908 65.1335 13.9341 58.2785C20.7891 51.4235 31.9034 51.4235 38.7584 58.2785ZM18.899 78.1379C23.012 82.2509 29.6805 82.2509 33.7935 78.1379C37.9066 74.0249 37.9066 67.3564 33.7935 63.2434C29.6805 59.1303 23.012 59.1303 18.899 63.2434C14.7859 67.3564 14.7859 74.0249 18.899 78.1379Z" stroke="url(#paint3_linear_2119_377)" stroke-width="1.08021" shape-rendering="crispEdges" mask="url(#path-3-inside-1_2119_377)"/>
</g>
</g>
<g clip-path="url(#clip1_2119_377)">
<g filter="url(#filter2_df_2119_377)">
<rect x="54.4336" y="15.3329" width="37.5657" height="50.0876" rx="3.13047" transform="rotate(8.35633 54.4336 15.3329)" fill="url(#paint4_linear_2119_377)"/>
</g>
<g filter="url(#filter3_f_2119_377)">
<rect x="61.5376" y="10.0483" width="37.5657" height="50.0876" rx="3.13047" transform="rotate(8.35633 61.5376 10.0483)" fill="url(#paint5_linear_2119_377)"/>
</g>
<g filter="url(#filter4_df_2119_377)">
<rect x="54.4336" y="15.3329" width="37.5657" height="50.0876" rx="3.13047" transform="rotate(8.35633 54.4336 15.3329)" fill="url(#paint6_linear_2119_377)"/>
</g>
<g filter="url(#filter5_bd_2119_377)">
<rect x="47.3291" y="20.6176" width="37.5657" height="50.0876" rx="3.13047" transform="rotate(8.35633 47.3291 20.6176)" fill="url(#paint7_linear_2119_377)" shape-rendering="crispEdges"/>
<rect x="47.5933" y="20.9728" width="36.9396" height="49.4615" rx="2.81743" transform="rotate(8.35633 47.5933 20.9728)" stroke="url(#paint8_linear_2119_377)" stroke-width="0.626095" shape-rendering="crispEdges"/>
</g>
<g filter="url(#filter6_d_2119_377)">
<path d="M51.9312 32.3677C52.0568 31.5124 52.852 30.9209 53.7073 31.0465L75.388 34.2312C76.2433 34.3568 76.8347 35.152 76.7091 36.0073C76.5835 36.8625 75.7883 37.454 74.933 37.3284L53.2524 34.1438C52.3971 34.0181 51.8056 33.223 51.9312 32.3677Z" fill="white"/>
<path d="M50.5664 41.6594C50.692 40.8041 51.4872 40.2126 52.3425 40.3382L74.0231 43.5229C74.8784 43.6485 75.4699 44.4437 75.3443 45.299C75.2186 46.1543 74.4235 46.7458 73.5682 46.6201L51.8875 43.4355C51.0322 43.3099 50.4407 42.5147 50.5664 41.6594Z" fill="white"/>
<path d="M49.2015 50.9511C49.3272 50.0958 50.1223 49.5043 50.9776 49.63L63.3666 51.4498C64.2218 51.5754 64.8133 52.3706 64.6877 53.2258C64.5621 54.0811 63.7669 54.6726 62.9116 54.547L50.5227 52.7272C49.6674 52.6016 49.0759 51.8064 49.2015 50.9511Z" fill="white"/>
</g>
</g>
<defs>
<filter id="filter0_f_2119_377" x="12.9616" y="57.3059" width="61.1418" height="61.1417" filterUnits="userSpaceOnUse" color-interpolation-filters="sRGB">
<feFlood flood-opacity="0" result="BackgroundImageFix"/>
<feBlend mode="normal" in="SourceGraphic" in2="BackgroundImageFix" result="shape"/>
<feGaussianBlur stdDeviation="10.3957" result="effect1_foregroundBlur_2119_377"/>
</filter>
<filter id="filter1_bd_2119_377" x="3.39192" y="47.7362" width="45.909" height="45.9089" filterUnits="userSpaceOnUse" color-interpolation-filters="sRGB">
<feFlood flood-opacity="0" result="BackgroundImageFix"/>
<feGaussianBlur in="BackgroundImageFix" stdDeviation="2.70053"/>
<feComposite in2="SourceAlpha" operator="in" result="effect1_backgroundBlur_2119_377"/>
<feColorMatrix in="SourceAlpha" type="matrix" values="0 0 0 0 0 0 0 0 0 0 0 0 0 0 0 0 0 0 127 0" result="hardAlpha"/>
<feOffset/>
<feGaussianBlur stdDeviation="1.35026"/>
<feComposite in2="hardAlpha" operator="out"/>
<feColorMatrix type="matrix" values="0 0 0 0 0 0 0 0 0 0 0 0 0 0 0 0 0 0 0.1 0"/>
<feBlend mode="normal" in2="effect1_backgroundBlur_2119_377" result="effect2_dropShadow_2119_377"/>
<feBlend mode="normal" in="SourceGraphic" in2="effect2_dropShadow_2119_377" result="shape"/>
</filter>
<filter id="filter2_df_2119_377" x="30.4743" y="-1.34723" width="77.8063" height="88.3754" filterUnits="userSpaceOnUse" color-interpolation-filters="sRGB">
<feFlood flood-opacity="0" result="BackgroundImageFix"/>
<feColorMatrix in="SourceAlpha" type="matrix" values="0 0 0 0 0 0 0 0 0 0 0 0 0 0 0 0 0 0 127 0" result="hardAlpha"/>
<feOffset/>
<feGaussianBlur stdDeviation="6.26094"/>
<feComposite in2="hardAlpha" operator="out"/>
<feColorMatrix type="matrix" values="0 0 0 0 0 0 0 0 0 0 0 0 0 0 0 0 0 0 0.25 0"/>
<feBlend mode="normal" in2="BackgroundImageFix" result="effect1_dropShadow_2119_377"/>
<feBlend mode="normal" in="SourceGraphic" in2="effect1_dropShadow_2119_377" result="shape"/>
<feGaussianBlur stdDeviation="8.5507" result="effect2_foregroundBlur_2119_377"/>
</filter>
<filter id="filter3_f_2119_377" x="54.0536" y="9.84348" width="44.8557" height="55.4248" filterUnits="userSpaceOnUse" color-interpolation-filters="sRGB">
<feFlood flood-opacity="0" result="BackgroundImageFix"/>
<feBlend mode="normal" in="SourceGraphic" in2="BackgroundImageFix" result="shape"/>
<feGaussianBlur stdDeviation="0.313047" result="effect1_foregroundBlur_2119_377"/>
</filter>
<filter id="filter4_df_2119_377" x="35.0538" y="3.23229" width="68.6473" height="79.2164" filterUnits="userSpaceOnUse" color-interpolation-filters="sRGB">
<feFlood flood-opacity="0" result="BackgroundImageFix"/>
<feColorMatrix in="SourceAlpha" type="matrix" values="0 0 0 0 0 0 0 0 0 0 0 0 0 0 0 0 0 0 127 0" result="hardAlpha"/>
<feOffset/>
<feGaussianBlur stdDeviation="6.26094"/>
<feComposite in2="hardAlpha" operator="out"/>
<feColorMatrix type="matrix" values="0 0 0 0 0 0 0 0 0 0 0 0 0 0 0 0 0 0 0.25 0"/>
<feBlend mode="normal" in2="BackgroundImageFix" result="effect1_dropShadow_2119_377"/>
<feBlend mode="normal" in="SourceGraphic" in2="effect1_dropShadow_2119_377" result="shape"/>
<feGaussianBlur stdDeviation="0.156524" result="effect2_foregroundBlur_2119_377"/>
</filter>
<filter id="filter5_bd_2119_377" x="34.2102" y="14.778" width="56.1254" height="66.6945" filterUnits="userSpaceOnUse" color-interpolation-filters="sRGB">
<feFlood flood-opacity="0" result="BackgroundImageFix"/>
<feGaussianBlur in="BackgroundImageFix" stdDeviation="3.13047"/>
<feComposite in2="SourceAlpha" operator="in" result="effect1_backgroundBlur_2119_377"/>
<feColorMatrix in="SourceAlpha" type="matrix" values="0 0 0 0 0 0 0 0 0 0 0 0 0 0 0 0 0 0 127 0" result="hardAlpha"/>
<feOffset/>
<feGaussianBlur stdDeviation="1.56524"/>
<feComposite in2="hardAlpha" operator="out"/>
<feColorMatrix type="matrix" values="0 0 0 0 0 0 0 0 0 0 0 0 0 0 0 0 0 0 0.1 0"/>
<feBlend mode="normal" in2="effect1_backgroundBlur_2119_377" result="effect2_dropShadow_2119_377"/>
<feBlend mode="normal" in="SourceGraphic" in2="effect2_dropShadow_2119_377" result="shape"/>
</filter>
<filter id="filter6_d_2119_377" x="46.0541" y="27.8993" width="33.8024" height="29.795" filterUnits="userSpaceOnUse" color-interpolation-filters="sRGB">
<feFlood flood-opacity="0" result="BackgroundImageFix"/>
<feColorMatrix in="SourceAlpha" type="matrix" values="0 0 0 0 0 0 0 0 0 0 0 0 0 0 0 0 0 0 127 0" result="hardAlpha"/>
<feOffset/>
<feGaussianBlur stdDeviation="1.56524"/>
<feComposite in2="hardAlpha" operator="out"/>
<feColorMatrix type="matrix" values="0 0 0 0 0 0 0 0 0 0 0 0 0 0 0 0 0 0 0.1 0"/>
<feBlend mode="normal" in2="BackgroundImageFix" result="effect1_dropShadow_2119_377"/>
<feBlend mode="normal" in="SourceGraphic" in2="effect1_dropShadow_2119_377" result="shape"/>
</filter>
<linearGradient id="paint0_linear_2119_377" x1="36.126" y1="82.1481" x2="36.126" y2="106.453" gradientUnits="userSpaceOnUse">
<stop stop-color="#FFB13D"/>
<stop offset="1" stop-color="#FF912B"/>
</linearGradient>
<linearGradient id="paint1_linear_2119_377" x1="36.1255" y1="82.1481" x2="36.1255" y2="106.453" gradientUnits="userSpaceOnUse">
<stop stop-color="#FFB13D"/>
<stop offset="1" stop-color="#FF912B"/>
</linearGradient>
<linearGradient id="paint2_linear_2119_377" x1="13.9341" y1="58.2785" x2="38.7584" y2="83.1028" gradientUnits="userSpaceOnUse">
<stop stop-color="white" stop-opacity="0.5"/>
<stop offset="1" stop-color="white" stop-opacity="0.2"/>
</linearGradient>
<linearGradient id="paint3_linear_2119_377" x1="13.9341" y1="58.2785" x2="38.7584" y2="83.1028" gradientUnits="userSpaceOnUse">
<stop stop-color="white" stop-opacity="0"/>
<stop offset="1" stop-color="white"/>
</linearGradient>
<linearGradient id="paint4_linear_2119_377" x1="54.4336" y1="65.4204" x2="104.521" y2="-0.319481" gradientUnits="userSpaceOnUse">
<stop stop-color="#FFB13D"/>
<stop offset="1" stop-color="#FF912B"/>
</linearGradient>
<linearGradient id="paint5_linear_2119_377" x1="61.5376" y1="60.1358" x2="92.8423" y2="19.4397" gradientUnits="userSpaceOnUse">
<stop stop-color="#FFB13D"/>
<stop offset="1" stop-color="#FF912B"/>
</linearGradient>
<linearGradient id="paint6_linear_2119_377" x1="54.4336" y1="65.4204" x2="104.521" y2="-0.319481" gradientUnits="userSpaceOnUse">
<stop stop-color="#FFB13D"/>
<stop offset="1" stop-color="#FF912B"/>
</linearGradient>
<linearGradient id="paint7_linear_2119_377" x1="66.1119" y1="20.6176" x2="66.1119" y2="70.7052" gradientUnits="userSpaceOnUse">
<stop stop-color="white" stop-opacity="0.5"/>
<stop offset="1" stop-color="#EDEEFF" stop-opacity="0.2"/>
<stop offset="1" stop-color="white" stop-opacity="0.2"/>
</linearGradient>
<linearGradient id="paint8_linear_2119_377" x1="47.3291" y1="20.6176" x2="87.7858" y2="67.0144" gradientUnits="userSpaceOnUse">
<stop stop-color="white"/>
<stop offset="1" stop-color="white" stop-opacity="0"/>
</linearGradient>
<clipPath id="clip0_2119_377">
<rect width="64.8126" height="64.8126" fill="white" transform="translate(0.630371 44.9752)"/>
</clipPath>
<clipPath id="clip1_2119_377">
<rect width="75.1313" height="75.1313" fill="white" transform="translate(37.6699 0.214233) rotate(8.35633)"/>
</clipPath>
</defs>
</svg>
