<svg width="78" height="78" viewBox="0 0 78 78" fill="none" xmlns="http://www.w3.org/2000/svg">
<g clip-path="url(#clip0_339_350)">
<rect x="28.5972" y="11.3934" width="5.66843" height="14.1711" rx="2.83422" transform="rotate(8.53055 28.5972 11.3934)" fill="url(#paint0_linear_339_350)"/>
<rect x="51.02" y="14.7567" width="5.66843" height="14.1711" rx="2.83422" transform="rotate(8.53055 51.02 14.7567)" fill="url(#paint1_linear_339_350)"/>
<g filter="url(#filter0_bd_339_350)">
<rect x="16.5449" y="15.3175" width="51.0159" height="45.3474" rx="2.83422" transform="rotate(8.53055 16.5449 15.3175)" fill="url(#paint2_linear_339_350)" shape-rendering="crispEdges"/>
<rect x="16.7832" y="15.6398" width="50.449" height="44.7806" rx="2.55079" transform="rotate(8.53055 16.7832 15.6398)" stroke="url(#paint3_linear_339_350)" stroke-width="0.566843" shape-rendering="crispEdges"/>
</g>
<g filter="url(#filter1_d_339_350)">
<path d="M25.4436 32.4149C25.5597 31.6409 26.2813 31.1075 27.0552 31.2236C27.8292 31.3397 28.3626 32.0613 28.2465 32.8353C28.1304 33.6093 27.4088 34.1426 26.6348 34.0265C25.8608 33.9104 25.3275 33.1888 25.4436 32.4149Z" fill="white"/>
<path d="M33.8522 33.6761C33.9683 32.9021 34.6898 32.3688 35.4638 32.4849C36.2378 32.601 36.7711 33.3225 36.655 34.0965C36.5389 34.8705 35.8174 35.4038 35.0434 35.2878C34.2694 35.1717 33.7361 34.4501 33.8522 33.6761Z" fill="white"/>
<path d="M42.2608 34.9374C42.3769 34.1634 43.0984 33.6301 43.8724 33.7461C44.6464 33.8622 45.1797 34.5838 45.0636 35.3578C44.9475 36.1318 44.226 36.6651 43.452 36.549C42.678 36.4329 42.1447 35.7114 42.2608 34.9374Z" fill="white"/>
<path d="M50.6693 36.1986C50.7854 35.4246 51.507 34.8913 52.281 35.0074C53.055 35.1235 53.5883 35.8451 53.4722 36.619C53.3561 37.393 52.6346 37.9264 51.8606 37.8103C51.0866 37.6942 50.5532 36.9726 50.6693 36.1986Z" fill="white"/>
<path d="M24.1823 40.8234C24.2984 40.0494 25.02 39.5161 25.794 39.6322C26.568 39.7483 27.1013 40.4699 26.9852 41.2439C26.8691 42.0178 26.1476 42.5512 25.3736 42.4351C24.5996 42.319 24.0662 41.5974 24.1823 40.8234Z" fill="white"/>
<path d="M32.5909 42.0847C32.707 41.3107 33.4286 40.7774 34.2026 40.8935C34.9766 41.0096 35.5099 41.7311 35.3938 42.5051C35.2777 43.2791 34.5561 43.8124 33.7821 43.6963C33.0082 43.5802 32.4748 42.8587 32.5909 42.0847Z" fill="white"/>
<path d="M40.9995 43.3459C41.1156 42.572 41.8372 42.0386 42.6111 42.1547C43.3851 42.2708 43.9185 42.9924 43.8024 43.7664C43.6863 44.5404 42.9647 45.0737 42.1907 44.9576C41.4167 44.8415 40.8834 44.1199 40.9995 43.3459Z" fill="white"/>
<path d="M49.4081 44.6072C49.5242 43.8332 50.2457 43.2999 51.0197 43.416C51.7937 43.5321 52.327 44.2536 52.2109 45.0276C52.0949 45.8016 51.3733 46.3349 50.5993 46.2188C49.8253 46.1027 49.292 45.3812 49.4081 44.6072Z" fill="url(#paint4_linear_339_350)"/>
<path d="M22.9211 49.232C23.0372 48.458 23.7587 47.9247 24.5327 48.0408C25.3067 48.1569 25.84 48.8784 25.7239 49.6524C25.6079 50.4264 24.8863 50.9598 24.1123 50.8437C23.3383 50.7276 22.805 50.006 22.9211 49.232Z" fill="white"/>
<path d="M31.3297 50.4933C31.4458 49.7193 32.1673 49.186 32.9413 49.3021C33.7153 49.4181 34.2486 50.1397 34.1325 50.9137C34.0164 51.6877 33.2949 52.221 32.5209 52.1049C31.7469 51.9888 31.2136 51.2673 31.3297 50.4933Z" fill="white"/>
<path d="M39.7383 51.7545C39.8543 50.9805 40.5759 50.4472 41.3499 50.5633C42.1239 50.6794 42.6572 51.401 42.5411 52.1749C42.425 52.9489 41.7035 53.4823 40.9295 53.3662C40.1555 53.2501 39.6222 52.5285 39.7383 51.7545Z" fill="white"/>
<path d="M48.1468 53.0158C48.2629 52.2418 48.9845 51.7085 49.7585 51.8246C50.5325 51.9407 51.0658 52.6622 50.9497 53.4362C50.8336 54.2102 50.112 54.7435 49.3381 54.6274C48.5641 54.5113 48.0307 53.7898 48.1468 53.0158Z" fill="white"/>
</g>
</g>
<defs>
<filter id="filter0_bd_339_350" x="7.37282" y="12.8719" width="62.0693" height="57.3044" filterUnits="userSpaceOnUse" color-interpolation-filters="sRGB">
<feFlood flood-opacity="0" result="BackgroundImageFix"/>
<feGaussianBlur in="BackgroundImageFix" stdDeviation="1.41711"/>
<feComposite in2="SourceAlpha" operator="in" result="effect1_backgroundBlur_339_350"/>
<feColorMatrix in="SourceAlpha" type="matrix" values="0 0 0 0 0 0 0 0 0 0 0 0 0 0 0 0 0 0 127 0" result="hardAlpha"/>
<feOffset/>
<feGaussianBlur stdDeviation="1.41711"/>
<feComposite in2="hardAlpha" operator="out"/>
<feColorMatrix type="matrix" values="0 0 0 0 0 0 0 0 0 0 0 0 0 0 0 0 0 0 0.1 0"/>
<feBlend mode="normal" in2="effect1_backgroundBlur_339_350" result="effect2_dropShadow_339_350"/>
<feBlend mode="normal" in="SourceGraphic" in2="effect2_dropShadow_339_350" result="shape"/>
</filter>
<filter id="filter1_d_339_350" x="20.0711" y="28.3735" width="36.2514" height="29.104" filterUnits="userSpaceOnUse" color-interpolation-filters="sRGB">
<feFlood flood-opacity="0" result="BackgroundImageFix"/>
<feColorMatrix in="SourceAlpha" type="matrix" values="0 0 0 0 0 0 0 0 0 0 0 0 0 0 0 0 0 0 127 0" result="hardAlpha"/>
<feOffset/>
<feGaussianBlur stdDeviation="1.41711"/>
<feComposite in2="hardAlpha" operator="out"/>
<feColorMatrix type="matrix" values="0 0 0 0 0 0 0 0 0 0 0 0 0 0 0 0 0 0 0.1 0"/>
<feBlend mode="normal" in2="BackgroundImageFix" result="effect1_dropShadow_339_350"/>
<feBlend mode="normal" in="SourceGraphic" in2="effect1_dropShadow_339_350" result="shape"/>
</filter>
<linearGradient id="paint0_linear_339_350" x1="31.4314" y1="11.3934" x2="31.4314" y2="25.5644" gradientUnits="userSpaceOnUse">
<stop stop-color="#FFB13D"/>
<stop offset="1" stop-color="#FF912B"/>
</linearGradient>
<linearGradient id="paint1_linear_339_350" x1="53.8542" y1="14.7567" x2="53.8542" y2="28.9278" gradientUnits="userSpaceOnUse">
<stop stop-color="#FFB13D"/>
<stop offset="1" stop-color="#FF912B"/>
</linearGradient>
<linearGradient id="paint2_linear_339_350" x1="16.5449" y1="15.3175" x2="61.5796" y2="65.9815" gradientUnits="userSpaceOnUse">
<stop stop-color="white" stop-opacity="0.2"/>
<stop offset="1" stop-color="white" stop-opacity="0.5"/>
</linearGradient>
<linearGradient id="paint3_linear_339_350" x1="42.0529" y1="15.3175" x2="42.0529" y2="60.6649" gradientUnits="userSpaceOnUse">
<stop stop-color="white"/>
<stop offset="1" stop-color="white" stop-opacity="0"/>
</linearGradient>
<linearGradient id="paint4_linear_339_350" x1="39.6681" y1="33.1155" x2="36.7252" y2="52.7355" gradientUnits="userSpaceOnUse">
<stop stop-color="#FFB13D"/>
<stop offset="1" stop-color="#FF912B"/>
</linearGradient>
<clipPath id="clip0_339_350">
<rect width="68.0212" height="68.0212" fill="white" transform="translate(10.2388 0.0419617) rotate(8.53055)"/>
</clipPath>
</defs>
</svg>
