<svg width="91" height="91" viewBox="0 0 91 91" fill="none" xmlns="http://www.w3.org/2000/svg">
<g clip-path="url(#clip0_339_344)">
<g filter="url(#filter0_f_339_344)">
<rect x="40.7285" y="16.4879" width="32.901" height="32.901" rx="3.2901" transform="rotate(36.1273 40.7285 16.4879)" fill="url(#paint0_linear_339_344)"/>
</g>
<rect x="40.7285" y="16.4879" width="32.901" height="32.901" rx="3.2901" transform="rotate(36.1274 40.7285 16.4879)" fill="url(#paint1_linear_339_344)"/>
<g filter="url(#filter1_bd_339_344)">
<path d="M20.099 76.3173L14.0094 37.3085C13.7292 35.5132 14.9574 33.8306 16.7527 33.5503L24.4958 32.3416C25.7271 32.1494 26.9613 32.6693 27.6839 33.6847L29.5915 36.3653C30.3141 37.3806 31.5483 37.9005 32.7796 37.7083L54.7673 34.2759C55.9986 34.0837 57.0156 33.2123 57.3944 32.025L58.3942 28.8906C58.773 27.7033 59.79 26.8319 61.0213 26.6397L68.7644 25.431C70.5597 25.1507 72.2423 26.3789 72.5226 28.1742L78.6121 67.183C78.8924 68.9783 77.6642 70.6609 75.8689 70.9412L23.8571 79.0606C22.0618 79.3409 20.3792 78.1126 20.099 76.3173Z" fill="url(#paint2_linear_339_344)" shape-rendering="crispEdges"/>
<path d="M20.099 76.3173L14.0094 37.3085C13.7292 35.5132 14.9574 33.8306 16.7527 33.5503L24.4958 32.3416C25.7271 32.1494 26.9613 32.6693 27.6839 33.6847L29.5915 36.3653C30.3141 37.3806 31.5483 37.9005 32.7796 37.7083L54.7673 34.2759C55.9986 34.0837 57.0156 33.2123 57.3944 32.025L58.3942 28.8906C58.773 27.7033 59.79 26.8319 61.0213 26.6397L68.7644 25.431C70.5597 25.1507 72.2423 26.3789 72.5226 28.1742L78.6121 67.183C78.8924 68.9783 77.6642 70.6609 75.8689 70.9412L23.8571 79.0606C22.0618 79.3409 20.3792 78.1126 20.099 76.3173Z" stroke="url(#paint3_linear_339_344)" stroke-width="0.658021" shape-rendering="crispEdges"/>
</g>
<g filter="url(#filter2_d_339_344)">
<path d="M52.3287 45.1616C52.8642 44.3912 53.902 44.2292 54.6468 44.7997C55.3915 45.3703 55.5612 46.4573 55.0258 47.2276L47.4636 58.1077C46.8211 59.0321 45.5757 59.2265 44.682 58.5419L36.8605 52.5504C36.1158 51.9799 35.9461 50.8929 36.4815 50.1225C37.017 49.3521 38.0548 49.1901 38.7996 49.7607L45.5422 54.9257L52.3287 45.1616Z" fill="white"/>
</g>
</g>
<defs>
<filter id="filter0_f_339_344" x="-9.25525" y="-14.0982" width="107.144" height="107.144" filterUnits="userSpaceOnUse" color-interpolation-filters="sRGB">
<feFlood flood-opacity="0" result="BackgroundImageFix"/>
<feBlend mode="normal" in="SourceGraphic" in2="BackgroundImageFix" result="shape"/>
<feGaussianBlur stdDeviation="15.9465" result="effect1_foregroundBlur_339_344"/>
</filter>
<filter id="filter1_bd_339_344" x="7.06042" y="18.4819" width="78.5007" height="67.5278" filterUnits="userSpaceOnUse" color-interpolation-filters="sRGB">
<feFlood flood-opacity="0" result="BackgroundImageFix"/>
<feGaussianBlur in="BackgroundImageFix" stdDeviation="3.2901"/>
<feComposite in2="SourceAlpha" operator="in" result="effect1_backgroundBlur_339_344"/>
<feColorMatrix in="SourceAlpha" type="matrix" values="0 0 0 0 0 0 0 0 0 0 0 0 0 0 0 0 0 0 127 0" result="hardAlpha"/>
<feOffset/>
<feGaussianBlur stdDeviation="1.64505"/>
<feComposite in2="hardAlpha" operator="out"/>
<feColorMatrix type="matrix" values="0 0 0 0 0 0 0 0 0 0 0 0 0 0 0 0 0 0 0.1 0"/>
<feBlend mode="normal" in2="effect1_backgroundBlur_339_344" result="effect2_dropShadow_339_344"/>
<feBlend mode="normal" in="SourceGraphic" in2="effect2_dropShadow_339_344" result="shape"/>
</filter>
<filter id="filter2_d_339_344" x="32.8788" y="41.1686" width="25.7496" height="21.0726" filterUnits="userSpaceOnUse" color-interpolation-filters="sRGB">
<feFlood flood-opacity="0" result="BackgroundImageFix"/>
<feColorMatrix in="SourceAlpha" type="matrix" values="0 0 0 0 0 0 0 0 0 0 0 0 0 0 0 0 0 0 127 0" result="hardAlpha"/>
<feOffset/>
<feGaussianBlur stdDeviation="1.64505"/>
<feComposite in2="hardAlpha" operator="out"/>
<feColorMatrix type="matrix" values="0 0 0 0 0 0 0 0 0 0 0 0 0 0 0 0 0 0 0.1 0"/>
<feBlend mode="normal" in2="BackgroundImageFix" result="effect1_dropShadow_339_344"/>
<feBlend mode="normal" in="SourceGraphic" in2="effect1_dropShadow_339_344" result="shape"/>
</filter>
<linearGradient id="paint0_linear_339_344" x1="57.179" y1="16.4879" x2="57.179" y2="49.3889" gradientUnits="userSpaceOnUse">
<stop stop-color="#FFB13D"/>
<stop offset="1" stop-color="#FF912B"/>
</linearGradient>
<linearGradient id="paint1_linear_339_344" x1="57.179" y1="16.4879" x2="57.179" y2="49.3889" gradientUnits="userSpaceOnUse">
<stop stop-color="#FFB13D"/>
<stop offset="1" stop-color="#FF912B"/>
</linearGradient>
<linearGradient id="paint2_linear_339_344" x1="42.7585" y1="29.4906" x2="49.863" y2="75.0009" gradientUnits="userSpaceOnUse">
<stop stop-color="white" stop-opacity="0.5"/>
<stop offset="1" stop-color="white" stop-opacity="0.2"/>
</linearGradient>
<linearGradient id="paint3_linear_339_344" x1="42.7585" y1="29.4906" x2="49.863" y2="75.0009" gradientUnits="userSpaceOnUse">
<stop stop-color="white"/>
<stop offset="1" stop-color="white" stop-opacity="0"/>
</linearGradient>
<clipPath id="clip0_339_344">
<rect width="78.9625" height="78.9625" fill="white" transform="translate(0.197266 12.8252) rotate(-8.87265)"/>
</clipPath>
</defs>
</svg>
