<svg width="248" height="8" viewBox="0 0 248 8" fill="none" xmlns="http://www.w3.org/2000/svg">
<path d="M1 3.5C0.723858 3.5 0.5 3.72386 0.5 4C0.5 4.27614 0.723858 4.5 1 4.5L1 3.5ZM247.354 4.35353C247.549 4.15827 247.549 3.84169 247.354 3.64643L244.172 0.464445C243.976 0.269183 243.66 0.269183 243.464 0.464445C243.269 0.659707 243.269 0.97629 243.464 1.17155L246.293 3.99998L243.464 6.82841C243.269 7.02367 243.269 7.34025 243.464 7.53551C243.66 7.73077 243.976 7.73077 244.172 7.53551L247.354 4.35353ZM1 4.5L247 4.49998L247 3.49998L1 3.5L1 4.5Z" fill="#494563"/>
</svg>
