<svg width="23" height="23" viewBox="0 0 23 23" fill="none" xmlns="http://www.w3.org/2000/svg">
<path fill-rule="evenodd" clip-rule="evenodd" d="M8.17215 13.5504C7.82894 12.9576 7.52468 12.343 7.2611 11.7101C6.66599 12.6977 6.21989 13.7587 5.93719 14.8586C7.04789 15.1679 8.20763 15.3119 9.37815 15.2858C8.93596 14.7357 8.53308 14.156 8.17215 13.5504ZM12.8226 13.6882C12.3928 13.9364 11.903 14.0582 11.415 14.0384C10.9271 14.0187 10.4629 13.8581 10.0813 13.577C9.69962 13.2959 9.41758 12.907 9.27081 12.4594C9.12404 12.0118 9.11915 11.5255 9.25674 11.0622C9.39432 10.5988 9.66822 10.1792 10.0438 9.85622C10.4194 9.53329 10.8798 9.32159 11.3668 9.24789C11.8538 9.17419 12.3455 9.24181 12.7799 9.44218C13.2142 9.64255 13.5716 9.96669 13.8069 10.3736C14.1223 10.9199 14.1956 11.576 14.0108 12.1977C13.826 12.8194 13.3982 13.3558 12.8215 13.6889L12.8226 13.6882ZM5.88112 15.119C5.68018 16.1309 5.74068 16.9938 6.09306 17.5922C6.27419 17.9007 6.35445 17.9223 6.72465 17.9726C7.74928 18.1116 9.12724 17.614 10.5683 16.6306C10.2265 16.2864 9.90523 15.9266 9.61167 15.5723C8.34156 15.6185 7.08172 15.4656 5.88045 15.1194L5.88112 15.119ZM11.12 7.85009C10.7797 7.90449 10.446 7.9674 10.1187 8.03881C10.7301 7.42813 11.3935 6.86915 12.1013 6.36846C12.5407 6.77293 12.9503 7.20696 13.3273 7.66762C12.5905 7.68056 11.853 7.74152 11.12 7.85009ZM9.59421 8.16055C8.78327 8.35884 7.98718 8.6204 7.21385 8.94263C6.889 7.33937 6.99327 5.95155 7.54748 5.08123C7.74966 4.76389 7.80417 4.6979 8.17329 4.63504C9.23239 4.45705 10.5732 5.04081 11.888 6.17864C11.0591 6.76442 10.2903 7.42882 9.59378 8.16136L9.59421 8.16055ZM6.50893 9.26473C4.80526 10.1069 3.6558 11.1695 3.42941 12.2226C3.33351 12.8116 3.47746 13.4028 3.83031 13.8691C4.30107 14.4167 4.92418 14.82 5.63109 15.0348C5.46317 15.7543 5.50092 16.4957 5.74019 17.1771C5.9676 17.7158 6.40764 18.1361 6.96565 18.3476C7.99804 18.6796 9.50774 18.2083 11.1001 17.1376C12.6563 18.5353 14.5043 19.436 15.9727 18.1041C16.8247 17.331 17.056 15.773 16.7001 13.9115C18.4757 13.0248 19.6355 11.8937 19.7576 10.7898C19.9108 9.39468 18.9351 8.58906 17.5644 8.14506C17.8659 6.73617 17.6559 5.48907 16.3706 4.92334C15.3534 4.47641 13.7919 4.91644 12.1356 6.01191C10.9393 4.98197 9.72288 4.40985 8.7169 4.45474C8.10793 4.48233 7.52317 4.74119 7.08843 5.17565C6.34715 5.99155 6.16347 7.49228 6.50915 9.26461L6.50893 9.26473ZM10.5423 15.5263C11.0355 15.4888 11.5404 15.4291 12.0569 15.347C12.1047 15.3389 12.1529 15.3312 12.2012 15.3228C11.8568 15.6391 11.51 15.931 11.1642 16.1963C10.9548 15.9867 10.7462 15.7631 10.5423 15.5268L10.5423 15.5263ZM13.5654 15.04C14.5487 14.8022 15.5091 14.4679 16.4314 14.0423C16.7533 15.7078 16.6065 17.1327 15.967 17.9727C15.922 18.0647 15.852 18.1437 15.7648 18.2008C15.6776 18.2579 15.5769 18.2907 15.474 18.2955C14.4013 18.4763 13.0378 17.8731 11.7055 16.7038C12.3686 16.1974 12.9906 15.6412 13.5655 15.0405L13.5654 15.04ZM16.8872 7.9605C15.8488 7.74563 14.7836 7.64535 13.7112 7.66154C13.2962 7.14048 12.8406 6.65193 12.3481 6.1999C13.8287 5.21663 15.2352 4.75602 16.2462 4.9827C16.5275 5.04665 16.5765 5.05654 16.7167 5.29365C17.0905 5.93123 17.1354 6.86593 16.8861 7.9617L16.8872 7.9605ZM19.6447 10.8675C19.3352 11.8559 18.2337 12.8422 16.6437 13.6334C16.4983 12.9806 16.3023 12.3417 16.0573 11.7219C16.6074 10.802 17.053 9.82994 17.3857 8.82379C18.4593 9.1558 19.2463 9.66204 19.61 10.304C19.7459 10.5445 19.7302 10.5923 19.6444 10.8676L19.6447 10.8675ZM16.3745 13.7631C15.5866 14.1266 14.7701 14.422 13.9348 14.6459C14.1599 14.3985 14.381 14.141 14.5984 13.8734C15.0593 13.2923 15.4813 12.6838 15.8614 12.0517C16.0721 12.6089 16.2432 13.181 16.3734 13.7643L16.3745 13.7631ZM12.586 14.958C12.4003 14.9938 12.2125 15.0267 12.0226 15.057C11.4384 15.1504 10.8666 15.2151 10.3117 15.25C9.24048 13.9358 8.38732 12.4621 7.78107 10.8788C8.09064 10.4137 8.43318 9.94825 8.80772 9.48754C8.92869 9.33847 9.05172 9.19246 9.17508 9.04908C9.84667 8.86198 10.5272 8.71332 11.2131 8.60388C12.0964 8.461 12.9865 8.3845 13.8755 8.37508C14.1896 8.80833 14.4907 9.27196 14.7737 9.76197C15.0547 10.2488 15.3038 10.7382 15.5209 11.2238C15.0684 11.9895 14.5569 12.7224 13.9911 13.416C13.5532 13.9551 13.0841 14.4699 12.5861 14.9577L12.586 14.958ZM5.68416 14.7764C4.70741 14.4444 3.99038 13.9606 3.64831 13.3562C3.47167 13.0451 3.49312 12.9648 3.63469 12.6191C4.02316 11.6707 5.12522 10.7351 6.6749 9.98325C6.80006 10.4542 6.95074 10.9172 7.12631 11.3705C6.46602 12.433 5.97886 13.583 5.68306 14.7775L5.68416 14.7764ZM7.38445 9.66555C7.78955 9.49787 8.21756 9.34244 8.66626 9.20166L8.57356 9.31431C8.24254 9.72104 7.93686 10.1318 7.65682 10.5425C7.55332 10.2459 7.46252 9.9536 7.38445 9.66555ZM14.2482 8.37782C15.0764 8.38581 15.8978 8.47526 16.6998 8.64483C16.4455 9.42381 16.1125 10.1796 15.7056 10.9007C15.5077 10.472 15.2843 10.0404 15.0364 9.61112C14.7857 9.17748 14.5228 8.76651 14.2479 8.37795L14.2482 8.37782Z" fill="#56688B"/>
</svg>
