<svg width="24" height="24" viewBox="0 0 24 24" fill="none" xmlns="http://www.w3.org/2000/svg">
<path fill-rule="evenodd" clip-rule="evenodd" d="M3.51472 3.51472C1.26428 5.76516 0 8.8174 0 12C0 15.1826 1.26428 18.2348 3.51472 20.4853C5.76516 22.7357 8.8174 24 12 24C15.1826 24 18.2348 22.7357 20.4853 20.4853C22.7357 18.2348 24 15.1826 24 12C24 8.8174 22.7357 5.76516 20.4853 3.51472C18.2348 1.26428 15.1826 0 12 0C8.8174 0 5.76516 1.26428 3.51472 3.51472ZM6.4116 3.11104C8.08555 2.05854 10.0227 1.50011 12 1.5C13.9773 1.50011 15.9145 2.05854 17.5884 3.11104C19.2623 4.16354 20.6051 5.66732 21.4621 7.44929C22.319 9.23127 22.6554 11.219 22.4325 13.1837C22.2096 15.1485 21.4364 17.0103 20.202 18.555C19.1355 16.8375 16.7925 15 12 15C7.2075 15 4.863 16.839 3.798 18.555C2.56358 17.0103 1.79042 15.1485 1.5675 13.1837C1.34458 11.219 1.68097 9.23127 2.53795 7.44929C3.39492 5.66732 4.73766 4.16354 6.4116 3.11104ZM15.182 12.182C16.0259 11.3381 16.5 10.1935 16.5 9C16.5 7.80653 16.0259 6.66193 15.182 5.81802C14.3381 4.97411 13.1935 4.5 12 4.5C10.8065 4.5 9.66193 4.97411 8.81802 5.81802C7.97411 6.66193 7.5 7.80653 7.5 9C7.5 10.1935 7.97411 11.3381 8.81802 12.182C9.66193 13.0259 10.8065 13.5 12 13.5C13.1935 13.5 14.3381 13.0259 15.182 12.182Z" fill="white"/>
</svg>
