<svg xmlns="http://www.w3.org/2000/svg" width="48" height="48" viewBox="0 0 48 48"><g><g><path fill="#2d40ff" d="M6.651 33.912a7.31 7.31 0 0 0 4.248-2.03c3.27-3.268 1.178-5.52 3.184-7.992.5-.59 1.362-1.346 2.652-1.602 4.348-.938 7.382-4.69 7.382-9.126 0-2.344.272-5.516-2.176-9.054a19.9 19.9 0 0 1 7.786.74 15.888 15.888 0 0 0 2.066 10.412c3.198 5.278 8.364 4.172 11.556 3.788.362 1.412.576 2.88.618 4.394-5.456-1.57-5.336 4.886-9.59 3.208-11.57-4.668-19.724 7.648-11.896 17.274-6.776-.512-12.616-4.41-15.83-10.012zM23.999 0c-13.234 0-24 10.766-24 24s10.766 24 24 24 24-10.766 24-24-10.766-24-24-24z"/></g></g></svg>