<svg width="16" height="16" viewBox="0 0 16 16" fill="none" xmlns="http://www.w3.org/2000/svg">
<g clip-path="url(#clip0_1120_1109)">
<path d="M7.99996 7.32048L15.3029 2.62899C15.0093 2.40877 14.6528 2.28859 14.2858 2.28613H1.71418C1.34716 2.28859 0.990629 2.40877 0.697021 2.62899L7.99996 7.32048Z" fill="#F22866"/>
<path d="M8.30867 8.48006L8.21152 8.52578H8.16581C8.11319 8.54928 8.05732 8.5647 8.00009 8.57149C7.95266 8.57747 7.90467 8.57747 7.85723 8.57149H7.81152L7.71437 8.52578L0.0571435 3.57715C0.0205592 3.71517 0.0013627 3.85723 0 4.00001V12.0001C0 12.4548 0.180614 12.8908 0.502109 13.2123C0.823603 13.5338 1.25964 13.7144 1.71431 13.7144H14.2859C14.7405 13.7144 15.1766 13.5338 15.4981 13.2123C15.8196 12.8908 16.0002 12.4548 16.0002 12.0001V4.00001C15.9988 3.85723 15.9796 3.71517 15.943 3.57715L8.30867 8.48006Z" fill="#F22866"/>
</g>
<defs>
<clipPath id="clip0_1120_1109">
<rect width="16" height="16" fill="white"/>
</clipPath>
</defs>
</svg>
