<svg xmlns="http://www.w3.org/2000/svg" width="128" height="82" viewBox="0 0 128 82"><g><g opacity=".25"><path fill="#fff" d="M97.704 0c19.258 0 40.808 19.257 23.384 55.48-5.502 12.38-16.506 22.925-28.886 25.676-5.96 1.376-8.712-5.502-3.21-9.17 12.839-7.336 22.009-22.467 4.586-18.34-15.131 3.21-25.219-10.546-25.219-24.76v-2.292C68.36 11.463 80.74 0 94.953 0h2.751zM29.386 0C48.644 0 69.735 19.257 53.23 55.48c-5.961 12.38-16.965 22.925-28.886 25.676-6.878 1.376-8.712-5.502-4.127-9.17 13.755-7.336 22.008-22.467 5.502-18.34C10.588 56.856.5 43.1.5 28.886v-2.292C.5 11.463 11.963 0 26.635 0h2.751z"/></g></g></svg>