<svg xmlns="http://www.w3.org/2000/svg" width="17" height="16" viewBox="0 0 17 16"><g><g><path fill="#8ecaff" d="M16.391 12.655l-2.47-2.477c-.493-.49-1.308-.476-1.817.035l-1.245 1.247-.246-.137c-.786-.436-1.862-1.035-2.994-2.17-1.136-1.138-1.733-2.218-2.17-3.007-.046-.083-.09-.164-.134-.24l.835-.837.411-.412c.51-.511.524-1.328.033-1.82L4.124.359c-.492-.492-1.307-.477-1.817.035l-.696.702.019.019a4.039 4.039 0 0 0-.574 1.014C.922 2.483.838 2.82.8 3.16c-.326 2.71.91 5.188 4.265 8.55 4.637 4.647 8.373 4.296 8.535 4.279a4.167 4.167 0 0 0 1.029-.26 4.01 4.01 0 0 0 1.009-.572l.015.013.705-.692c.51-.511.524-1.328.033-1.822z"/></g></g></svg>