<svg xmlns="http://www.w3.org/2000/svg" width="16" height="16" viewBox="0 0 16 16"><g><g><path fill="#f22866" d="M15.641 12.655l-2.47-2.477c-.493-.49-1.308-.476-1.817.035l-1.245 1.247-.246-.137c-.786-.436-1.862-1.035-2.994-2.17-1.136-1.138-1.733-2.218-2.17-3.007-.046-.083-.09-.164-.134-.24l.836-.837.41-.412c.51-.511.525-1.328.033-1.82L3.374.359c-.491-.492-1.307-.477-1.817.035l-.696.702.019.019a4.039 4.039 0 0 0-.574 1.014C.172 2.483.089 2.82.05 3.16c-.327 2.71.91 5.188 4.264 8.55 4.637 4.647 8.373 4.296 8.535 4.279a4.167 4.167 0 0 0 1.03-.26 4.01 4.01 0 0 0 1.008-.572l.015.013.705-.692c.51-.511.524-1.328.033-1.822z"/></g></g></svg>