<svg xmlns="http://www.w3.org/2000/svg" width="93" height="93" viewBox="0 0 93 93">
  <g id="Сгруппировать_261" data-name="Сгруппировать 261" transform="translate(-913.075 -598.075)">
    <path id="Base" d="M46.5,0A46.5,46.5,0,1,1,0,46.5,46.5,46.5,0,0,1,46.5,0Z" transform="translate(913.075 598.075)" fill="#f22866"/>
    <path id="Play" d="M23.13,11.659,3.925.268A3.637,3.637,0,0,0,2.12,0C-.009,0,0,1.551,0,1.943V25.225c0,.332-.009,1.94,2.12,1.94A3.639,3.639,0,0,0,3.925,26.9l19.2-11.391c1.576-.883,1.3-1.925,1.3-1.925S24.706,12.542,23.13,11.659Z" transform="translate(949.208 630.491)" fill="#fff"/>
  </g>
</svg>
