<svg xmlns="http://www.w3.org/2000/svg" width="61" height="65" viewBox="0 0 61 65"><g><g><path fill="#2d40ff" d="M15.416 38.527a68.939 68.939 0 0 1-.255-5.967c0-2.024.087-4.004.253-5.923-2.965 1.876-5.557 3.89-7.688 5.944 2.131 2.057 4.726 4.07 7.69 5.946zm25.463 9.454c.293-1.178.556-2.396.782-3.655a68.372 68.372 0 0 1-5.441 2.47c-.176.068-.352.14-.528.208 1.774.418 3.507.742 5.187.977zm4.165-5.5a56.938 56.938 0 0 1-1.17 5.823c6.64.505 12.137-.553 15.27-3.112 1.142-.933 1.369-1.172 1.379-2.633.023-2.834-1.443-6.007-4.07-9.173-2.761 3.17-6.671 6.316-11.41 9.094zM33.7 18.66a68.392 68.392 0 0 0-7.682 2.582 67.039 67.039 0 0 0-9.357 4.627 68.68 68.68 0 0 0-.323 6.69c0 2.31.112 4.563.326 6.734a67.426 67.426 0 0 0 9.354 4.624 68.42 68.42 0 0 0 7.682 2.584c.691-.255 1.384-.52 2.078-.8a68.385 68.385 0 0 0 6.125-2.822c.497-3.214.767-6.657.767-10.236 0-3.63-.278-7.119-.79-10.376a69.322 69.322 0 0 0-8.18-3.607zm-14.99-3.507a53.84 53.84 0 0 0-1.59 7.096c3.036-1.75 5.832-3.091 7.749-3.861a68.049 68.049 0 0 1 3.713-1.377c-3.443-.958-6.774-1.575-9.871-1.858zM2.17 18.715c-.818.798-.964.935-.974 2.062-.023 3.01 1.634 6.405 4.585 9.77 2.927-2.855 6.579-5.44 10.048-7.532.408-2.84.994-5.51 1.73-7.952-6.85-.452-12.443.79-15.39 3.652zm-.974 25.672c.01 1.124.156 1.264.974 2.06 2.949 2.864 8.546 4.105 15.402 3.652-.736-2.44-1.325-5.108-1.738-7.947-3.469-2.096-7.124-4.68-10.053-7.537-2.951 3.364-4.608 6.76-4.585 9.772zm38.821-30.1C37.817 7.438 34.42 2.523 30.48.974c-1.048-.41-1.231-.327-2.274.135-3.764 1.664-7.01 6.4-9.15 12.943 3.589.32 7.49 1.093 11.52 2.322 3.263-.994 6.444-1.688 9.441-2.085zm1.619 6.536a54.568 54.568 0 0 0-.788-3.637c-1.67.232-3.395.555-5.158.97l.53.21a69.062 69.062 0 0 1 5.416 2.457zm1.402 30.359c-2.269 6.969-5.784 11.898-9.841 13.27-2.146.726-4.9.292-6.844-.776-3.454-1.893-6.42-6.397-8.434-12.479-7.662.492-13.738-1.139-16.28-4.794-3.208-4.619-1.5-9.459 2.23-13.822-3.73-4.367-5.438-9.204-2.23-13.823 2.542-3.652 8.61-5.283 16.267-4.794C20.312 6.659 24.097 1.625 28.443.631c7.489-1.71 11.934 5.243 14.442 13.358 7.4-.535 13.363.88 16.177 4.16 1.476 1.718 2.103 4.433 1.84 6.637-.295 2.457-1.615 5.126-3.774 7.795 2.156 2.67 3.479 5.337 3.774 7.794.263 2.205-.364 4.92-1.84 6.637-2.793 3.26-8.694 4.675-16.024 4.17zm-23.97-.074c2.203 6.704 5.562 11.503 9.452 13.035 1.358.535 1.667.413 2.956-.296 3.538-1.945 6.569-6.637 8.58-12.966-3.008-.4-6.202-1.093-9.48-2.092-4.024 1.228-7.921 1.998-11.507 2.32zm5.802-4.335c-1.915-.77-4.71-2.108-7.741-3.86.398 2.521.935 4.9 1.593 7.094 3.097-.285 6.423-.902 9.864-1.858a67.37 67.37 0 0 1-3.716-1.376zm31.582-14.998c2.628-3.165 4.094-6.339 4.07-9.173-.01-1.46-.236-1.7-1.378-2.633-3.16-2.582-8.735-3.635-15.459-3.097.48 1.914.86 3.841 1.157 5.692 4.83 2.806 8.812 5.997 11.61 9.211zm-25.998-9.107c5.36 0 9.706 4.346 9.706 9.706 0 5.36-4.346 9.704-9.706 9.704-5.357 0-9.703-4.344-9.703-9.704s4.346-9.706 9.703-9.706zm15.296 9.976c0 2.893-.176 5.697-.507 8.363 4.31-2.597 7.9-5.495 10.516-8.426-2.65-2.97-6.303-5.909-10.692-8.531.486 3.456.683 6.537.683 8.594z"/></g></g></svg>