<svg xmlns="http://www.w3.org/2000/svg" width="48" height="48" viewBox="0 0 48 48"><g><g><path fill="#2d40ff" d="M24 18c3.308 0 6-2.692 6-6s-2.692-6-6-6-6 2.692-6 6 2.692 6 6 6zm8.5 12c.828 0 1.5-.673 1.5-1.5v-3c0-3.034-2.466-5.5-5.5-5.5h-9a5.505 5.505 0 0 0-5.5 5.5v3a1.5 1.5 0 0 0 1.5 1.5zM6 4h36c1.102 0 2 .898 2 2v26H4V6c0-1.102.898-2 2-2zm2 34h6a2 2 0 0 1 4 0h22a2 2 0 0 1 0 4H18a2 2 0 0 1-4 0H8a2 2 0 0 1 0-4zm34 10c3.308 0 6-2.692 6-6V6c0-3.308-2.692-6-6-6H6C2.692 0 0 2.692 0 6v36c0 3.308 2.692 6 6 6z"/></g></g></svg>