<svg xmlns="http://www.w3.org/2000/svg" width="48" height="48" viewBox="0 0 48 48"><g><g><path fill="#2d40ff" d="M9.998 12c3.308 0 6-2.692 6-6s-2.692-6-6-6-6 2.692-6 6 2.692 6 6 6zm19.5 8c.5 0 .98-.18 1.38-.54l8.5-8c.8-.76.84-2.02.08-2.84-.76-.8-2.02-.84-2.84-.08l-7.08 6.68-3.62-3.64c-.78-.78-2.06-.78-2.84 0l-2.14 2.14c.94 1.02 1.7 2.18 2.2 3.46l1.36-1.36 3.58 3.6c.4.38.9.58 1.42.58zm2.9 17.2c.41.533 1.016.801 1.615.801.422 0 .84-.133 1.185-.4.88-.661 1.06-1.921.4-2.802L32.002 30h11.996c2.2 0 4-1.8 4-3.999V4c0-2.2-1.8-4-4-4h-26c.02.02.04.06.04.08.878.99 1.76 3.288 1.76 3.92h24.2v22h-20c0 .614.034 3.44-.06 4h.056l-3.596 4.8c-.66.88-.48 2.14.4 2.8.88.66 2.14.48 2.8-.4l4.4-5.86 4.4 5.86zM12.498 48c1.93 0 3.5-1.57 3.5-3.5V33.736c0-.19.106-.362.276-.449l1.79-.893a3.48 3.48 0 0 0 1.934-3.13V21.5c0-4.136-3.364-7.5-7.5-7.5h-5c-4.136 0-7.5 3.364-7.5 7.5v7.763c0 1.335.742 2.535 1.934 3.13l1.79.894c.17.087.276.259.276.449V44.5c0 1.93 1.57 3.5 3.5 3.5z"/></g></g></svg>