<svg xmlns="http://www.w3.org/2000/svg" width="48" height="48" viewBox="0 0 48 48"><g><g><path fill="#2d40ff" d="M16.998 9c0 .644-.298 1.232-.82 1.615-1.705 1.249-2.68 3.045-2.68 4.925V16a1.5 1.5 0 0 0 3 0v-.46c0-1.252.91-2.108 1.454-2.506A5.025 5.025 0 0 0 19.998 9c0-2.756-2.242-5-5-5s-5 2.244-5 5a1.501 1.501 0 0 0 3 0c0-1.102.896-2 2-2 1.105 0 2 .898 2 2zm-3.5 11.5a1.5 1.5 0 1 0 3-.002 1.5 1.5 0 0 0-3 .002zm7.982 11.102L15.412 26H5.498a5.505 5.505 0 0 1-5.5-5.5v-15c0-3.034 2.466-5.5 5.5-5.5h19c3.033 0 5.5 2.466 5.5 5.5v15c0 3.034-2.467 5.5-5.5 5.5h-.5v4.5a1.501 1.501 0 0 1-2.518 1.102zM30.998 29a6 6 0 1 1 12 0 6 6 0 0 1-12 0zm-27 5a4 4 0 1 1 8-.001 4 4 0 0 1-8 .001zm-2.5 14c-.828 0-1.5-.673-1.5-1.5v-1c0-3.034 2.466-5.5 5.5-5.5h5c3.034 0 5.5 2.466 5.5 5.5v1c0 .827-.672 1.5-1.5 1.5zm26 0a1.5 1.5 0 0 1-1.5-1.5v-3c0-3.034 2.466-5.5 5.5-5.5h11a5.505 5.505 0 0 1 5.5 5.5v3c0 .827-.672 1.5-1.5 1.5z"/></g></g></svg>