<svg xmlns="http://www.w3.org/2000/svg" width="48" height="46" viewBox="0 0 48 46"><g><g><path fill="#2d40ff" d="M28.292 29.705a1.008 1.008 0 0 0 1.417 0 1.003 1.003 0 0 0 0-1.414l-4.003-4-.009-.005c.187-.39.301-.825.301-1.287a2.994 2.994 0 0 0-2-2.816V13a1 1 0 0 0-2 0v7.183a2.994 2.994 0 0 0-2 2.816c0 1.655 1.346 3 3 3 .463 0 .896-.113 1.287-.301.003.001.005.006.006.008l4.001 4zM22.997 36a1 1 0 0 0-1 1v.95C14.527 37.452 8.544 31.473 8.048 24h.95a1 1 0 0 0 0-2h-.95c.497-7.472 6.479-13.455 13.95-13.95V9a1 1 0 0 0 2.001 0v-.95c7.472.495 13.453 6.476 13.95 13.95h-.95a1 1 0 0 0 0 2h.95c-.497 7.472-6.476 13.453-13.95 13.95V37a1 1 0 0 0-1-1zm17 10c.514 0 .945-.39.997-.9l.902-9.018A23.042 23.042 0 0 0 44.89 30h.108c1.654 0 3-1.346 3-3v-6a3.006 3.006 0 0 0-2.556-2.969 22.776 22.776 0 0 0-3.546-8.113L40.994.9c-.052-.51-.483-.9-.996-.9h-5a1 1 0 0 0-.97.758l-.46 1.838c-6.544-3.404-14.596-3.404-21.14 0l-.46-1.838a1 1 0 0 0-.97-.758h-5c-.515 0-.944.39-.996.9l-.9 9.018A22.833 22.833 0 0 0-.002 22.999c0 4.695 1.418 9.213 4.104 13.083l.902 9.018a1 1 0 0 0 .994.9h5a1 1 0 0 0 .97-.758l.46-1.839c6.544 3.405 14.596 3.405 21.14 0l.46 1.84a1 1 0 0 0 .97.757z"/></g></g></svg>