<svg xmlns="http://www.w3.org/2000/svg" width="40" height="48" viewBox="0 0 40 48"><g><g><path fill="#2d40ff" d="M26.936 32.382a1.004 1.004 0 0 0 .98-.254c2.36-2.36 3.724-6.14 3.885-10.672 4.8-4.202 8.095-10.79 8.201-16.438a1.024 1.024 0 0 0-.294-.726c-.194-.192-.48-.3-.727-.292-5.653.106-12.25 3.406-16.437 8.2-4.53.161-8.313 1.528-10.67 3.886a1 1 0 0 0 .474 1.68l4.258 1.02-.026.028c-.356.394-.34 1 .036 1.376l7.194 7.193c.194.197.45.293.708.293.24 0 .478-.084.667-.257l.03-.025 1.019 4.258a.998.998 0 0 0 .702.73zM11 34c.096 0 .192-.014.289-.042 1.103-.33 6.675-2.046 8.02-3.39a4.16 4.16 0 0 0 0-5.876 4.16 4.16 0 0 0-5.877.002c-1.342 1.342-3.06 6.916-3.39 8.02A1.001 1.001 0 0 0 11 34zm15 14c3.3 0 6-2.7 6-6v-8.5c-.38.52-.82 1.02-1.26 1.46-.74.74-1.7 1.24-2.74 1.4V42c0 1.1-.9 2-2 2H6c-1.1 0-2-.9-2-2V6c0-1.1.9-2 2-2h1c1.1 0 2 .9 2 2s.9 2 2 2h10.04c.98-.02 1.8-.76 1.94-1.72C23 6.2 23 6.1 23 6c0-1.1.9-2 2-2h1c.06 0 .12 0 .18.02 1.34-.84 2.74-1.56 4.16-2.14A5.9 5.9 0 0 0 26 0H6C2.7 0 0 2.7 0 6v36c0 3.3 2.7 6 6 6z"/></g></g></svg>