<svg xmlns="http://www.w3.org/2000/svg" width="44" height="48" viewBox="0 0 44 48"><g><g><path fill="#2d40ff" d="M11.878 26A3.493 3.493 0 0 1 9.2 24.752a3.483 3.483 0 0 1-.77-2.852l3.304-19A3.493 3.493 0 0 1 15.182 0h13.634a3.49 3.49 0 0 1 3.448 2.902l3.304 19a3.481 3.481 0 0 1-.77 2.852A3.488 3.488 0 0 1 32.121 26zM22 48h-8.5a2 2 0 0 1 0-4H20v-5H7.5c-.27 0-.523-.072-.742-.197A4 4 0 0 1 4 35v-6c0-1.096-.88-2.014-1.976-2A2 2 0 1 1 2 23c3.308 0 6 2.692 6 6v.26A5.475 5.475 0 0 1 11.5 28h21c1.329 0 2.548.473 3.5 1.26V29c0-3.308 2.692-6 6-6a2.001 2.001 0 1 1-.024 4C40.88 26.986 40 27.904 40 29v6a4 4 0 0 1-2.758 3.803A1.492 1.492 0 0 1 36.5 39H24v5h6.5a2 2 0 0 1 0 4z"/></g></g></svg>