<svg xmlns="http://www.w3.org/2000/svg" width="48" height="48" viewBox="0 0 48 48"><g><g><path fill="#2d40ff" d="M10 12a2 2 0 1 1 0-4h22a2 2 0 1 1 0 4zm0 8a2 2 0 1 1 0-4h30a2 2 0 1 1 0 4zm0 8a2 2 0 1 1 0-4h12a2 2 0 1 1 0 4zm-4 8c-3.3 0-6-2.7-6-6V6c0-3.3 2.7-6 6-6h36c3.3 0 6 2.7 6 6v24c0 1.84-.84 3.48-2.14 4.58.1-.52.14-1.06.14-1.58 0-2.34-.74-4.52-2-6.3V6c0-1.1-.9-2-2-2H6c-1.1 0-2 .9-2 2v24c0 1.1.9 2 2 2h18.06a9.577 9.577 0 0 0 .4 4zm31.44 11.56L35 45.12l-2.44 2.44c-.89.888-2.426.35-2.552-.912l-1-10c-.002-.024.01-.046.008-.072-.632-1.05-1.016-2.264-1.016-3.577C28 29.14 31.14 26 35 26s7 3.14 7 7c0 1.312-.384 2.526-1.016 3.576 0 .023.01.046.008.072l-1 10C39.91 47.482 39.21 48 38.49 48c-.372 0-.749-.138-1.05-.44z"/></g></g></svg>