<svg xmlns="http://www.w3.org/2000/svg" width="17" height="10" viewBox="0 0 17 10"><g><g><path fill="#8ecaff" d="M8.07 9.576h.957s.288-.03.438-.19c.14-.149.13-.418.13-.418s-.02-1.284.577-1.474c.588-.189 1.345 1.245 2.141 1.793.608.419 1.066.329 1.066.329l2.142-.03s1.115-.07.587-.946c-.04-.07-.309-.648-1.593-1.843-1.345-1.245-1.166-1.046.458-3.197.986-1.315 1.374-2.112 1.255-2.46C16.108.81 15.39.9 15.39.9l-2.41.02s-.18-.02-.309.06a.665.665 0 0 0-.21.26s-.378 1.015-.886 1.882c-1.075 1.823-1.504 1.922-1.673 1.803-.408-.26-.309-1.056-.309-1.624 0-1.763.27-2.5-.518-2.69C8.817.553 8.618.503 7.951.503c-.857-.01-1.584 0-2.002.21-.279.129-.488.438-.359.448.16.02.518.1.707.358.25.339.24 1.086.24 1.086s.139 2.082-.33 2.34c-.328.18-.766-.189-1.722-1.842-.488-.847-.857-1.783-.857-1.783s-.07-.18-.2-.269C3.28.94 3.06.9 3.06.9L.77.91S.42.92.3 1.07c-.11.13-.01.408-.01.408s1.793 4.194 3.825 6.305C5.96 9.705 8.07 9.576 8.07 9.576z"/></g></g></svg>