<svg width="24" height="24" viewBox="0 0 24 24" fill="none" xmlns="http://www.w3.org/2000/svg">
<path d="M0 12C0 5.37258 5.37258 0 12 0C18.6274 0 24 5.37258 24 12C24 18.6274 18.6274 24 12 24C5.37258 24 0 18.6274 0 12Z" fill="white"/>
<path fill-rule="evenodd" clip-rule="evenodd" d="M0 12C0 5.37258 5.37258 0 12 0C18.6274 0 24 5.37258 24 12C24 18.6274 18.6274 24 12 24C5.37258 24 0 18.6274 0 12Z" fill="#F68634"/>
<path fill-rule="evenodd" clip-rule="evenodd" d="M12.0006 5.6001C10.2624 5.6001 10.0443 5.6077 9.36161 5.63876C8.68027 5.66997 8.2152 5.77783 7.80827 5.9361C7.38733 6.09957 7.03026 6.31824 6.67452 6.67411C6.31852 7.02985 6.09985 7.38692 5.93585 7.80772C5.77718 8.21479 5.66918 8.68 5.63851 9.36107C5.60798 10.0437 5.59998 10.262 5.59998 12.0002C5.59998 13.7383 5.60771 13.9558 5.63864 14.6385C5.66998 15.3198 5.77784 15.7849 5.93598 16.1918C6.09958 16.6127 6.31825 16.9698 6.67412 17.3256C7.02972 17.6816 7.38679 17.9008 7.80747 18.0642C8.21467 18.2225 8.67987 18.3304 9.36108 18.3616C10.0438 18.3926 10.2618 18.4002 11.9998 18.4002C13.7381 18.4002 13.9555 18.3926 14.6382 18.3616C15.3195 18.3304 15.7851 18.2225 16.1924 18.0642C16.6132 17.9008 16.9697 17.6816 17.3253 17.3256C17.6813 16.9698 17.9 16.6127 18.064 16.1919C18.2213 15.7849 18.3293 15.3197 18.3613 14.6386C18.392 13.9559 18.4 13.7383 18.4 12.0002C18.4 10.262 18.392 10.0439 18.3613 9.3612C18.3293 8.67986 18.2213 8.21479 18.064 7.80785C17.9 7.38692 17.6813 7.02985 17.3253 6.67411C16.9693 6.31811 16.6133 6.09944 16.192 5.9361C15.7839 5.77783 15.3186 5.66997 14.6373 5.63876C13.9546 5.6077 13.7373 5.6001 11.9986 5.6001H12.0006ZM11.7871 6.75338H11.7873L12.0006 6.75344C13.7094 6.75344 13.9119 6.75958 14.5867 6.79024C15.2107 6.81878 15.5494 6.92304 15.775 7.01065C16.0737 7.12665 16.2866 7.26532 16.5105 7.48932C16.7345 7.71332 16.8732 7.92666 16.9894 8.22533C17.077 8.45066 17.1814 8.78933 17.2098 9.41334C17.2405 10.088 17.2472 10.2907 17.2472 11.9987C17.2472 13.7067 17.2405 13.9094 17.2098 14.5841C17.1813 15.2081 17.077 15.5467 16.9894 15.7721C16.8734 16.0707 16.7345 16.2834 16.5105 16.5073C16.2865 16.7313 16.0738 16.8699 15.775 16.986C15.5497 17.074 15.2107 17.178 14.5867 17.2065C13.9121 17.2372 13.7094 17.2438 12.0006 17.2438C10.2916 17.2438 10.0891 17.2372 9.41442 17.2065C8.79041 17.1777 8.45174 17.0734 8.226 16.9858C7.92733 16.8698 7.714 16.7311 7.49 16.5071C7.26599 16.2831 7.12732 16.0703 7.01106 15.7715C6.92346 15.5462 6.81905 15.2075 6.79065 14.5835C6.75999 13.9089 6.75385 13.7062 6.75385 11.9971C6.75385 10.288 6.75999 10.0864 6.79065 9.41174C6.81919 8.78773 6.92346 8.44906 7.01106 8.22346C7.12706 7.92479 7.26599 7.71145 7.49 7.48745C7.714 7.26345 7.92733 7.12478 8.226 7.00851C8.45161 6.92051 8.79041 6.81651 9.41442 6.78784C10.0048 6.76118 10.2336 6.75318 11.4264 6.75184V6.75344C11.5379 6.75327 11.6578 6.75332 11.7871 6.75338ZM14.6489 8.58386C14.6489 8.15972 14.9929 7.81612 15.4169 7.81612V7.81585C15.8409 7.81585 16.1849 8.15986 16.1849 8.58386C16.1849 9.00787 15.8409 9.35187 15.4169 9.35187C14.9929 9.35187 14.6489 9.00787 14.6489 8.58386ZM12.0004 8.71346C10.1854 8.71353 8.71387 10.1851 8.71387 12.0002C8.71387 13.8152 10.1855 15.2862 12.0006 15.2862C13.8157 15.2862 15.2867 13.8152 15.2867 12.0002C15.2867 10.1851 13.8155 8.71346 12.0004 8.71346ZM14.1339 12.0002C14.1339 10.8219 13.1787 9.86681 12.0006 9.86681C10.8223 9.86681 9.86722 10.8219 9.86722 12.0002C9.86722 13.1783 10.8223 14.1335 12.0006 14.1335C13.1787 14.1335 14.1339 13.1783 14.1339 12.0002Z" fill="white"/>
</svg>
