<svg width="24" height="24" viewBox="0 0 24 24" fill="none" xmlns="http://www.w3.org/2000/svg">
<path d="M0 12C0 5.37258 5.37258 0 12 0C18.6274 0 24 5.37258 24 12C24 18.6274 18.6274 24 12 24C5.37258 24 0 18.6274 0 12Z" fill="#F68634"/>
<path d="M13.298 14.7204L15.0913 16.4517C15.4587 16.8055 15.4587 17.3803 15.0913 17.7345C14.7243 18.0888 14.1295 18.0888 13.7629 17.7345L11.9997 16.0333L10.238 17.7345C10.0543 17.9115 9.81364 18.0001 9.57295 18.0001C9.33263 18.0001 9.09232 17.9115 8.90863 17.7345C8.54163 17.3803 8.54163 16.8059 8.90824 16.4517L10.7018 14.7204C10.0488 14.5768 9.41901 14.327 8.83895 13.9757C8.39998 13.7086 8.26811 13.1488 8.5447 12.7247C8.82053 12.3001 9.40058 12.1722 9.84032 12.4394C11.1536 13.2368 12.8454 13.237 14.1595 12.4394C14.5992 12.1722 15.1791 12.3001 15.4555 12.7247C15.732 13.1485 15.5998 13.7086 15.1608 13.9757C14.5808 14.3274 13.951 14.5768 13.298 14.7204Z" fill="white"/>
<path fill-rule="evenodd" clip-rule="evenodd" d="M8.78394 9.09679C8.78394 10.804 10.2227 12.1927 11.9919 12.1927C13.7614 12.1927 15.1999 10.804 15.1999 9.09679C15.1999 7.38905 13.7614 6 11.9919 6C10.2227 6 8.78394 7.38905 8.78394 9.09679ZM13.3202 9.09679C13.3202 8.38976 12.7244 7.81483 11.9919 7.81483C11.26 7.81483 10.6636 8.38976 10.6636 9.09679C10.6636 9.80327 11.26 10.3786 11.9919 10.3786C12.7244 10.3786 13.3202 9.80327 13.3202 9.09679Z" fill="white"/>
</svg>
