<svg width="24" height="24" viewBox="0 0 24 24" fill="none" xmlns="http://www.w3.org/2000/svg">
<path d="M12 24C18.6274 24 24 18.6274 24 12C24 5.37258 18.6274 0 12 0C5.37258 0 0 5.37258 0 12C0 18.6274 5.37258 24 12 24Z" fill="#F68634"/>
<path d="M4.46906 12.5872C5.87186 11.8145 7.43776 11.1696 8.90086 10.5214C11.418 9.45966 13.9451 8.41636 16.4977 7.44506C16.9943 7.27957 17.8867 7.11775 17.9742 7.85372C17.9262 8.89552 17.7291 9.93122 17.594 10.9669C17.2508 13.2445 16.8542 15.5143 16.4675 17.7844C16.3342 18.5406 15.387 18.932 14.7809 18.4481C13.3243 17.4643 11.8565 16.4899 10.4185 15.4832C9.9474 15.0046 10.3842 14.3172 10.8049 13.9754C12.0046 12.7931 13.2769 11.7886 14.4139 10.5452C14.7206 9.8046 13.8144 10.4288 13.5155 10.62C11.8731 11.7518 10.2709 12.9527 8.53928 13.9474C7.65478 14.4343 6.62388 14.0182 5.73978 13.7466C4.94709 13.4183 3.78548 13.0877 4.46898 12.5873L4.46906 12.5872Z" fill="white"/>
</svg>
