<svg width="24" height="24" viewBox="0 0 24 24" fill="none" xmlns="http://www.w3.org/2000/svg">
<path fill-rule="evenodd" clip-rule="evenodd" d="M0 12C0 5.37258 5.37258 0 12 0C18.6274 0 24 5.37258 24 12C24 18.6274 18.6274 24 12 24C5.37258 24 0 18.6274 0 12Z" fill="#F68634"/>
<path fill-rule="evenodd" clip-rule="evenodd" d="M19.6161 7.66055C19.7346 7.28793 19.6161 7.01694 19.091 7.01694H17.3465C16.9061 7.01694 16.7029 7.25406 16.5843 7.50812C16.5843 7.50812 15.6867 9.67607 14.4333 11.0819C14.0268 11.4884 13.8405 11.6239 13.6203 11.6239C13.5018 11.6239 13.3493 11.4884 13.3493 11.1157V7.64361C13.3493 7.20325 13.2138 7 12.8412 7H10.0974C9.82639 7 9.65702 7.20325 9.65702 7.40649C9.65702 7.82992 10.2837 7.93155 10.3514 9.11715V11.6916C10.3514 12.2505 10.2498 12.3522 10.0296 12.3522C9.43684 12.3522 7.99718 10.1673 7.13338 7.67749C6.96401 7.18631 6.79464 7 6.35427 7H4.5928C4.08469 7 4 7.23712 4 7.49118C4 7.94848 4.5928 10.2519 6.76076 13.3006C8.20042 15.3839 10.2498 16.5018 12.096 16.5018C13.2138 16.5018 13.3493 16.2477 13.3493 15.8243V14.2491C13.3493 13.741 13.451 13.6563 13.8066 13.6563C14.0607 13.6563 14.518 13.7918 15.5512 14.7911C16.7368 15.9767 16.94 16.5187 17.6006 16.5187H19.3451C19.8532 16.5187 20.0903 16.2646 19.9548 15.7735C19.8024 15.2823 19.2265 14.5709 18.4813 13.7241C18.0748 13.2498 17.4651 12.7248 17.2788 12.4707C17.0247 12.132 17.0924 11.9965 17.2788 11.6916C17.2618 11.6916 19.3959 8.67678 19.6161 7.66055Z" fill="white"/>
</svg>
