<svg width="24" height="24" viewBox="0 0 24 24" fill="none" xmlns="http://www.w3.org/2000/svg">
<path d="M12 24C18.6274 24 24 18.6274 24 12C24 5.37258 18.6274 0 12 0C5.37258 0 0 5.37258 0 12C0 18.6274 5.37258 24 12 24Z" fill="#F68634"/>
<path fill-rule="evenodd" clip-rule="evenodd" d="M12.3955 18.6762H12.3925C11.1983 18.6757 10.0249 18.3761 8.98263 17.8076L5.19995 18.7999L6.21226 15.1023C5.58782 14.0202 5.25924 12.7926 5.25978 11.535C5.26134 7.60075 8.46236 4.3999 12.3954 4.3999C14.3043 4.40073 16.0959 5.14384 17.4431 6.49261C18.7902 7.84131 19.5318 9.63407 19.531 11.5407C19.5294 15.474 16.3297 18.6746 12.3955 18.6762ZM9.15788 16.5158L9.37445 16.6444C10.285 17.1847 11.3288 17.4707 12.3931 17.4711H12.3955C15.6644 17.4711 18.3249 14.8105 18.3262 11.5402C18.3268 9.95551 17.7105 8.46544 16.5908 7.3444C15.471 6.22335 13.9819 5.60567 12.3978 5.60512C9.12641 5.60512 6.46584 8.26546 6.46454 11.5354C6.46408 12.6561 6.77764 13.7475 7.37132 14.6917L7.51234 14.9161L6.91319 17.1047L9.15788 16.5158ZM15.7462 13.0769C15.8705 13.137 15.9545 13.1776 15.9903 13.2375C16.0349 13.3118 16.0349 13.6688 15.8864 14.0853C15.7378 14.5018 15.0255 14.8819 14.6829 14.9331C14.3757 14.979 13.987 14.9981 13.5599 14.8624C13.301 14.7803 12.9689 14.6706 12.5435 14.4868C10.872 13.7651 9.74247 12.1451 9.52898 11.8389C9.51402 11.8175 9.50356 11.8025 9.49773 11.7947L9.49629 11.7928C9.40193 11.6669 8.76971 10.8233 8.76971 9.95029C8.76971 9.12902 9.17313 8.69855 9.35882 8.50041C9.37155 8.48683 9.38325 8.47435 9.39372 8.4629C9.55715 8.2844 9.75032 8.23978 9.86917 8.23978C9.98802 8.23978 10.107 8.24088 10.2109 8.2461C10.2237 8.24674 10.237 8.24666 10.2508 8.24658C10.3547 8.24597 10.4843 8.24521 10.612 8.55215C10.6612 8.67028 10.7331 8.8454 10.809 9.0301C10.9624 9.40361 11.1319 9.81629 11.1618 9.87601C11.2063 9.96526 11.236 10.0693 11.1766 10.1884C11.1677 10.2062 11.1594 10.2231 11.1516 10.2392C11.1069 10.3303 11.0741 10.3973 10.9983 10.4858C10.9685 10.5206 10.9377 10.5581 10.907 10.5956C10.8456 10.6703 10.7843 10.745 10.7309 10.7982C10.6416 10.8871 10.5487 10.9835 10.6527 11.162C10.7567 11.3405 11.1145 11.9244 11.6446 12.3971C12.2143 12.9054 12.7095 13.1201 12.9605 13.229C13.0096 13.2503 13.0493 13.2675 13.0784 13.2821C13.2566 13.3714 13.3606 13.3564 13.4646 13.2375C13.5686 13.1185 13.9103 12.7168 14.0292 12.5384C14.148 12.3599 14.2669 12.3897 14.4303 12.4491C14.5938 12.5087 15.4704 12.94 15.6487 13.0292C15.6835 13.0466 15.716 13.0624 15.7462 13.0769Z" fill="#FDFDFD"/>
</svg>
