<svg width="16" height="16" viewBox="0 0 16 16" fill="none" xmlns="http://www.w3.org/2000/svg">
<path fill-rule="evenodd" clip-rule="evenodd" d="M15.3884 1.33139C15.4362 1.29388 15.4601 1.27513 15.5079 1.23763C15.5557 1.21888 15.5796 1.18137 15.6274 1.16262C15.7707 1.05011 15.8902 0.918844 15.9619 0.787581C16.0336 0.637565 16.0097 0.48755 15.8424 0.318783C15.7229 0.168767 15.5796 0.0562558 15.3884 0.018752C15.1973 -0.0187519 14.9583 -1.06182e-07 14.7194 0.0750076C14.6238 0.112511 14.5521 0.150015 14.4804 0.206271C14.4087 0.262527 14.337 0.318783 14.2653 0.375039C13.8591 0.637566 13.4768 0.881341 13.0945 1.14387C12.7122 1.40639 12.3299 1.68767 11.9714 2.00646C10.2988 3.50661 8.79338 5.10052 7.45526 6.75069C6.09324 8.41962 4.92238 10.1823 3.96658 12.0762C3.89489 12.1888 3.82321 12.3013 3.77542 12.4138C3.70373 12.5263 3.63205 12.6576 3.53647 12.8076C3.46478 12.62 3.3931 12.47 3.34531 12.3575C3.29752 12.245 3.24973 12.1325 3.20194 12.0387C2.84351 10.8761 2.60456 9.69475 2.46119 8.53213C2.31782 7.36951 2.29393 6.18814 2.36561 4.98801C2.38951 4.38795 2.4373 3.82539 2.50898 3.26284C2.58067 2.70028 2.62846 2.13772 2.67625 1.55641C2.72404 1.06886 2.53288 0.768829 2.05497 0.693821C1.83992 0.656317 1.62486 0.675069 1.40981 0.750077C1.19475 0.825085 1.05138 0.9751 0.931907 1.20012C0.740746 1.57516 0.597376 1.9502 0.525691 2.34399C0.310635 3.31909 0.167265 4.29419 0.0716852 5.26929C-0.0238951 6.24439 -0.0238951 7.21949 0.0716852 8.21335C0.167265 9.28221 0.33453 10.3323 0.573481 11.3824C0.836327 12.4138 1.19475 13.4451 1.64876 14.4577C1.74434 14.6078 1.81602 14.7765 1.9116 14.9265C1.98329 15.0766 2.07887 15.2453 2.19834 15.3953C2.34172 15.6016 2.53288 15.7516 2.77183 15.8641C3.01078 15.9766 3.27362 16.0141 3.58426 15.9954C3.91879 15.9579 4.15774 15.8829 4.3489 15.7329C4.54006 15.5829 4.68343 15.3953 4.77901 15.1703C4.8507 15.0203 4.89849 14.889 4.94628 14.7578C4.99407 14.6265 5.04186 14.4765 5.06575 14.3265C5.3047 13.5576 5.56755 12.7888 5.87818 12.0387C6.18882 11.2887 6.59504 10.5573 7.09683 9.86351C8.24379 8.25085 9.46244 6.73194 10.7767 5.28804C12.067 3.82539 13.6202 2.51276 15.3884 1.33139Z" fill="#FF3D54"/>
</svg>
