<svg width="114" height="96" viewBox="0 0 114 96" fill="none" xmlns="http://www.w3.org/2000/svg">
<path d="M2.9252 79.0424L2.0001 35.6586C1.99221 35.2886 2.46265 34.8261 3.11022 34.5486C3.62828 34.3265 43.9691 31.681 64.0747 30.3859V37.3236V85.7026C51.4932 87.9843 25.5718 92.6773 22.5374 93.1953C21.2853 93.4091 20.3892 93.4097 19.762 93.3063C18.8693 93.1591 18.5213 92.8013 18.467 92.5478C14.9516 89.8344 7.42122 84.0005 5.42299 82.3725C3.42476 80.7444 2.9252 79.4741 2.9252 79.0424Z" fill="white"/>
<path d="M64.0747 37.3236V85.7026C51.4932 87.9843 25.5718 92.6773 22.5374 93.1953C21.2853 93.4091 20.3892 93.4097 19.762 93.3063M64.0747 37.3236V30.3859C43.9691 31.681 3.62828 34.3265 3.11022 34.5486M64.0747 37.3236L19.762 40.5612M3.11022 34.5486C2.46265 34.8261 1.99221 35.2886 2.0001 35.6586L2.9252 79.0424C2.9252 79.4741 3.42476 80.7444 5.42299 82.3725C7.42122 84.0005 14.9516 89.8344 18.467 92.5478C18.5213 92.8013 18.8693 93.1591 19.762 93.3063M3.11022 34.5486C8.29078 36.1519 18.8739 39.5992 19.762 40.5612M19.762 40.5612C20.8722 41.7638 21.3347 72.2897 21.1497 76.8223C21.0017 80.4484 20.1629 89.3225 19.762 93.3063" stroke="#F3662A" stroke-width="4"/>
<path d="M64.0742 88.1257V4.95157V4.48691L107.067 3L112 7.56432V84.2448L71.3771 91.0913L64.0742 88.1257Z" fill="white"/>
<path d="M71.3771 91.0913L64.0742 88.1257V4.95157V4.48691M71.3771 91.0913V8.93361M71.3771 91.0913L112 84.2448V7.56432M71.3771 8.93361L64.0742 4.48691M71.3771 8.93361L112 7.56432M64.0742 4.48691L107.067 3L112 7.56432" stroke="#F3662A" stroke-width="4"/>
</svg>
