<svg width="128" height="100" viewBox="0 0 128 100" fill="none" xmlns="http://www.w3.org/2000/svg">
<g filter="url(#filter0_d_37_5)">
<path d="M22.7768 27.1839L97.8868 7.25613C100.446 6.63197 106.914 6.75674 112.318 12.2494C115.389 15.3703 119.998 20.3636 120.762 26.4492C121.683 33.7831 119.841 39.4005 116.77 42.8334C114.324 45.5689 71.4805 75.498 51.0617 91.3621C46.8653 93.0265 38.0102 94.0106 32.1781 91.3621C24.9624 88.0852 19.282 84.8084 13.2945 76.0701C10.1153 71.4302 6.99997 67.1758 7 53.4442V53.4442C7.00001 49.205 7.00005 32.8468 17.9003 28.4777C19.2761 27.8297 20.9375 27.3732 22.7768 27.1839Z" fill="white"/>
<path d="M17.9003 28.4777L97.8868 7.25613C100.446 6.63197 106.914 6.75674 112.318 12.2494C115.389 15.3703 119.998 20.3636 120.762 26.4492C121.683 33.7831 119.841 39.4005 116.77 42.8334C114.324 45.5689 71.4805 75.498 51.0617 91.3621M17.9003 28.4777C7 32.8468 7.00001 49.2052 7 53.4442C6.99997 67.1758 10.1153 71.4302 13.2945 76.0701C19.282 84.8084 24.9624 88.0852 32.1781 91.3621C38.0102 94.0106 46.8653 93.0265 51.0617 91.3621M17.9003 28.4777C22.0966 26.5012 28.9501 26.3069 35.4022 30.0381C44.3066 35.1874 49.68 38.4643 55.5139 53.4442C57.5818 58.7539 59.6591 63.738 58.2774 75.2899C57.172 84.5314 53.0064 89.8553 51.0617 91.3621M13.2945 47.0465C15.5974 41.557 24.3716 40.6277 28.6471 44.3938C33.2528 48.4509 34.481 49.6992 37.705 55.4727C40.3225 60.16 43.2319 68.2681 42.1573 75.2899C41.0068 82.8072 35.4021 85.4325 29.5682 83.404C22.9666 81.1086 18.8314 76.0701 16.9792 72.6372C14.3692 67.8 7.73052 60.31 13.2945 47.0465Z" stroke="#52ACE0" stroke-width="4"/>
</g>
<defs>
<filter id="filter0_d_37_5" x="0" y="0.00131226" width="128" height="99.9987" filterUnits="userSpaceOnUse" color-interpolation-filters="sRGB">
<feFlood flood-opacity="0" result="BackgroundImageFix"/>
<feColorMatrix in="SourceAlpha" type="matrix" values="0 0 0 0 0 0 0 0 0 0 0 0 0 0 0 0 0 0 127 0" result="hardAlpha"/>
<feOffset/>
<feGaussianBlur stdDeviation="2.5"/>
<feComposite in2="hardAlpha" operator="out"/>
<feColorMatrix type="matrix" values="0 0 0 0 1 0 0 0 0 1 0 0 0 0 1 0 0 0 0.77 0"/>
<feBlend mode="normal" in2="BackgroundImageFix" result="effect1_dropShadow_37_5"/>
<feBlend mode="normal" in="SourceGraphic" in2="effect1_dropShadow_37_5" result="shape"/>
</filter>
</defs>
</svg>
