<svg width="146" height="95" viewBox="0 0 146 95" fill="none" xmlns="http://www.w3.org/2000/svg">
<g filter="url(#filter0_d_37_3)">
<path d="M7 60.4263V56.706C11.683 55.1116 21.7382 51.7101 24.495 50.8598C27.2518 50.0094 37.6604 47.3166 42.5202 46.0765C41.99 45.6336 40.6646 44.5352 39.6043 43.6849C38.279 42.6219 38.0139 41.559 36.9536 36.7757C35.8933 31.9924 36.6885 29.8665 36.9536 25.8805C37.2187 21.8944 39.6043 17.9084 40.9297 15.251C42.2551 12.5936 45.1709 10.202 47.5566 8.34188C49.9423 6.48172 54.9787 7.0132 56.3041 7.27893C57.6295 7.54467 124.429 18.7056 127.875 19.5028C128.755 19.7065 129.549 19.9274 130.26 20.1569C132.335 20.8257 133.712 21.5666 134.502 22.1602C135.562 22.9574 137.682 25.6148 138.478 28.0064C139.273 30.398 139.273 39.6988 137.682 47.4052C136.41 53.5703 131.851 60.9578 129.73 63.8809L122.838 67.5173L114.621 71.853L84.1371 87L7 60.4263Z" fill="white"/>
<path d="M42.5202 46.0765C41.99 45.6336 40.6646 44.5352 39.6043 43.6849C38.279 42.6219 38.0139 41.559 36.9536 36.7757C35.8933 31.9924 36.6885 29.8665 36.9536 25.8805C37.2187 21.8944 39.6043 17.9084 40.9297 15.251C42.2551 12.5936 45.1709 10.202 47.5566 8.34188C49.9423 6.48172 54.9787 7.0132 56.3041 7.27893C57.6295 7.54467 124.429 18.7056 127.875 19.5028C128.755 19.7065 129.549 19.9274 130.26 20.1569M42.5202 46.0765C37.6604 47.3166 27.2518 50.0094 24.495 50.8598C21.7382 51.7101 11.683 55.1116 7 56.706V60.4263L84.1371 87L114.621 71.853L122.838 67.5173M42.5202 46.0765L118.067 66.2436M122.838 67.5173L129.73 63.8809C131.851 60.9578 136.41 53.5703 137.682 47.4052C139.273 39.6988 139.273 30.398 138.478 28.0064C137.682 25.6148 135.562 22.9574 134.502 22.1602C133.712 21.5666 132.335 20.8257 130.26 20.1569M122.838 67.5173L118.067 66.2436M118.067 66.2436C113.295 59.3502 111.97 58.0083 111.705 52.7067C111.44 47.4052 111.97 43.9374 112.5 42.343C113.03 40.7486 114.886 34.9024 116.211 32.245C117.537 29.5876 118.067 28.5247 119.392 26.9303C120.718 25.3358 121.778 23.2363 123.898 22.1602C125.595 21.2993 128.847 20.466 130.26 20.1569" stroke="#52ACE0" stroke-width="4"/>
</g>
<defs>
<filter id="filter0_d_37_3" x="0" y="1.52588e-05" width="146" height="94.1636" filterUnits="userSpaceOnUse" color-interpolation-filters="sRGB">
<feFlood flood-opacity="0" result="BackgroundImageFix"/>
<feColorMatrix in="SourceAlpha" type="matrix" values="0 0 0 0 0 0 0 0 0 0 0 0 0 0 0 0 0 0 127 0" result="hardAlpha"/>
<feOffset/>
<feGaussianBlur stdDeviation="2.5"/>
<feComposite in2="hardAlpha" operator="out"/>
<feColorMatrix type="matrix" values="0 0 0 0 1 0 0 0 0 1 0 0 0 0 1 0 0 0 0.77 0"/>
<feBlend mode="normal" in2="BackgroundImageFix" result="effect1_dropShadow_37_3"/>
<feBlend mode="normal" in="SourceGraphic" in2="effect1_dropShadow_37_3" result="shape"/>
</filter>
</defs>
</svg>
