<svg width="128" height="108" viewBox="0 0 128 108" fill="none" xmlns="http://www.w3.org/2000/svg">
<g filter="url(#filter0_d_37_4)">
<path d="M12 27.5166L51.2633 11L63.1381 23.5298L77.3112 11L116 27.5166L104.125 38.9073L116 54.2848L104.125 58.5384V85.2296L63.1381 97L23.8748 85.2296V56.7633L13.3407 52.3863L23.8748 38.9073L12 27.5166Z" fill="white"/>
<path d="M63.1381 23.5298L51.2633 11L12 27.5166L23.8748 38.9073M63.1381 23.5298L23.8748 38.9073M63.1381 23.5298L77.3112 11L116 27.5166L104.125 38.9073M63.1381 23.5298L104.125 38.9073M23.8748 38.9073L63.1381 56.9426M23.8748 38.9073L13.3407 52.3863L23.8748 56.7633M104.125 38.9073L116 54.2848L104.125 58.5384M104.125 38.9073L63.1381 56.9426M63.1381 56.9426L77.3112 68.1435L104.125 58.5384M63.1381 56.9426L51.2633 68.1435L23.8748 56.7633M63.1381 56.9426V97M63.1381 97L104.125 85.2296V58.5384M63.1381 97L23.8748 85.2296V56.7633" stroke="#52ACE0" stroke-width="4"/>
</g>
<defs>
<filter id="filter0_d_37_4" x="0.418945" y="0.619965" width="127.149" height="106.464" filterUnits="userSpaceOnUse" color-interpolation-filters="sRGB">
<feFlood flood-opacity="0" result="BackgroundImageFix"/>
<feColorMatrix in="SourceAlpha" type="matrix" values="0 0 0 0 0 0 0 0 0 0 0 0 0 0 0 0 0 0 127 0" result="hardAlpha"/>
<feOffset/>
<feGaussianBlur stdDeviation="4"/>
<feComposite in2="hardAlpha" operator="out"/>
<feColorMatrix type="matrix" values="0 0 0 0 1 0 0 0 0 1 0 0 0 0 1 0 0 0 0.49 0"/>
<feBlend mode="normal" in2="BackgroundImageFix" result="effect1_dropShadow_37_4"/>
<feBlend mode="normal" in="SourceGraphic" in2="effect1_dropShadow_37_4" result="shape"/>
</filter>
</defs>
</svg>
