<svg width="91" height="110" viewBox="0 0 91 110" fill="none" xmlns="http://www.w3.org/2000/svg">
<g filter="url(#filter0_d_37_9)">
<path d="M7.02269 23.2256C7.02269 18.4837 7.02269 13.1633 8.76032 9.55063C10.1256 6.71209 18.2263 6.86209 20.7623 7.14213C23.2983 7.42216 60.3745 6.302 63.895 8.85054C68.0701 11.8729 67.64 15.3169 67.64 17.4639C67.64 19.6108 67.7809 33.2433 67.64 37.6772C67.4991 42.1111 67.64 79.8694 67.64 87.9955C67.64 90.9826 65.2849 93.5865 62.4792 93.5865C58.2651 93.5865 19.7028 97.5404 19.1862 97.027C18.6696 96.5136 8.43158 92.9542 7.44535 91.3674C6.45913 89.7805 7.35143 72.7451 7.82106 68.2645C8.29069 63.784 7.02269 29.153 7.02269 23.2256Z" fill="white"/>
<path d="M19.1862 97.027C18.6696 96.5136 8.43158 92.9542 7.44535 91.3674C6.45913 89.7805 7.35143 72.7451 7.82106 68.2645C8.29069 63.784 7.02269 29.153 7.02269 23.2256C7.02269 18.4837 7.02269 13.1633 8.76032 9.55063C10.1256 6.71209 18.2263 6.86209 20.7623 7.14213M19.1862 97.027C19.7028 97.5404 58.2651 93.5865 62.4792 93.5865C65.2849 93.5865 67.64 90.9826 67.64 87.9955C67.64 79.8694 67.4991 42.1111 67.64 37.6772C67.7809 33.2433 67.64 19.6108 67.64 17.4639C67.64 15.3169 68.0701 11.8729 63.895 8.85054C60.3745 6.302 23.2983 7.42216 20.7623 7.14213M19.1862 97.027C19.421 95.9691 19.7497 92.5342 19.1862 89.1738C18.4817 84.9733 19.1862 61.4504 19.1862 59.1634C19.1862 56.8765 19.3271 28.453 19.1862 23.2256C19.0735 19.0438 20.3553 9.69356 20.7623 7.14213" stroke="#52ACE0" stroke-width="4"/>
</g>
<g filter="url(#filter1_d_37_9)">
<path d="M41.2575 51.8914C41.9799 50.3401 41.5585 46.6708 41.2575 45.03L76.3253 43.9859C76.18 44.9223 76.9224 48.0696 77.0989 49.3976C77.8113 49.8646 78.291 50.9097 79.3355 51.8914C80.991 53.4475 81.5931 63.2275 82.1951 65.1666C82.3252 65.5856 82.4763 66.9097 82.6349 68.7464C83.2102 75.4106 84.0012 88.8173 84.0012 90.2255C84.0012 93.4441 81.2921 97.3851 79.3355 97.9818C77.3789 98.5784 52.8462 102.307 51.0402 102.457C50.5489 102.497 49.6011 102.472 48.4815 102.392C48.3968 102.386 48.3116 102.379 48.226 102.372C48.0177 102.358 47.8019 102.347 47.5862 102.311C44.8014 102.009 41.7878 101.25 41.2575 100.816C40.1342 99.8951 36.7373 93.5485 36.7373 90.8637C36.7373 88.1788 36.742 86.1329 36.742 82.6183C36.742 81.7153 37.0112 78.3419 37.3106 74.2654C37.7191 68.703 38.1837 62.3385 38.0968 61.7359C37.9463 60.6918 40.3544 53.8305 41.2575 51.8914Z" fill="white"/>
<path d="M41.2575 51.8914C41.9799 50.3401 41.5585 46.6708 41.2575 45.03L76.3253 43.9859C76.1729 44.9676 76.9962 48.3788 77.1203 49.5768M41.2575 51.8914C40.3544 53.8305 37.9463 60.6918 38.0968 61.7359C38.1837 62.3385 37.7191 68.703 37.3106 74.2654M41.2575 51.8914C42.4612 53.2338 42.2682 58.6235 42.4612 59.946C43.1447 64.6293 44.3645 69.5419 44.9327 74.2654M41.5063 52.2598C41.9578 51.3648 77.9469 49.5768 77.1203 49.5768M77.1203 49.5768C79.3003 51.4613 76.0282 49.1468 76.2602 49.1468C77.5504 49.1468 77.936 50.5759 79.3355 51.8914C80.991 53.4475 81.5931 63.2275 82.1951 65.1666C82.3252 65.5856 82.4763 66.9097 82.6349 68.7464M48.4815 102.392C45.485 102.178 41.8454 101.298 41.2575 100.816C40.1342 99.8951 36.7373 93.5485 36.7373 90.8637C36.7373 88.1788 36.742 86.1329 36.742 82.6183C36.742 81.7153 37.0112 78.3419 37.3106 74.2654M48.4815 102.392C49.6011 102.472 50.5489 102.497 51.0402 102.457C52.8462 102.307 77.3789 98.5784 79.3355 97.9818C81.2921 97.3851 84.0012 93.4441 84.0012 90.2255C84.0012 88.8173 83.2102 75.4106 82.6349 68.7464M48.4815 102.392C47.6287 102.308 46.5853 102.457 45.9229 100.816C45.4265 99.5861 45.1704 96.341 45.9229 92.9103C46.6754 89.4797 45.1704 79.3368 45.1704 76.9502C45.1704 76.4575 45.0806 75.4943 44.9327 74.2654M37.3106 74.2654C39.8513 74.2654 44.9327 74.2654 44.9327 74.2654M44.9327 74.2654C49.9285 74.5637 61.0639 74.9813 65.6393 74.2654C71.3586 73.3704 82.8214 70.6855 82.6349 68.7464" stroke="#52ACE0" stroke-width="4"/>
</g>
<defs>
<filter id="filter0_d_37_9" x="0" y="0" width="74.7021" height="104.073" filterUnits="userSpaceOnUse" color-interpolation-filters="sRGB">
<feFlood flood-opacity="0" result="BackgroundImageFix"/>
<feColorMatrix in="SourceAlpha" type="matrix" values="0 0 0 0 0 0 0 0 0 0 0 0 0 0 0 0 0 0 127 0" result="hardAlpha"/>
<feOffset/>
<feGaussianBlur stdDeviation="2.5"/>
<feComposite in2="hardAlpha" operator="out"/>
<feColorMatrix type="matrix" values="0 0 0 0 1 0 0 0 0 1 0 0 0 0 1 0 0 0 0.77 0"/>
<feBlend mode="normal" in2="BackgroundImageFix" result="effect1_dropShadow_37_9"/>
<feBlend mode="normal" in="SourceGraphic" in2="effect1_dropShadow_37_9" result="shape"/>
</filter>
<filter id="filter1_d_37_9" x="29.7373" y="36.9152" width="61.2637" height="72.5602" filterUnits="userSpaceOnUse" color-interpolation-filters="sRGB">
<feFlood flood-opacity="0" result="BackgroundImageFix"/>
<feColorMatrix in="SourceAlpha" type="matrix" values="0 0 0 0 0 0 0 0 0 0 0 0 0 0 0 0 0 0 127 0" result="hardAlpha"/>
<feOffset/>
<feGaussianBlur stdDeviation="2.5"/>
<feComposite in2="hardAlpha" operator="out"/>
<feColorMatrix type="matrix" values="0 0 0 0 1 0 0 0 0 1 0 0 0 0 1 0 0 0 0.77 0"/>
<feBlend mode="normal" in2="BackgroundImageFix" result="effect1_dropShadow_37_9"/>
<feBlend mode="normal" in="SourceGraphic" in2="effect1_dropShadow_37_9" result="shape"/>
</filter>
</defs>
</svg>
