<svg width="145" height="133" viewBox="0 0 145 133" fill="none" xmlns="http://www.w3.org/2000/svg">
<g filter="url(#filter0_d_37_12)">
<path d="M24.4092 97.6615C24.4095 91.8237 29.4359 89.2316 36.5403 87.6714C36.5403 87.2522 37.3116 86.2323 40.3968 85.5057C44.2533 84.5975 67.8992 81.4892 79.2902 85.5057C88.6596 88.8094 95.1621 92.617 92.665 97.6615C88.4668 106.142 86.157 100.738 76.0991 106.456C69.9327 109.962 58.2358 115.638 40.3968 110.629C28.168 107.195 24.4089 103.013 24.4092 97.6615Z" fill="white" stroke="#52ACE0" stroke-width="5" stroke-linejoin="round"/>
<path d="M22.161 34.1266C25.7542 28.9402 36.0679 29.0608 41.1671 28.8196V35.8152C38.1539 35.8152 31.3109 36.6595 30.7372 37.9862C30.1635 39.313 28.9991 40.3985 30.7372 44.0169C31.8154 46.2617 37.6518 48.158 41.1671 47.1529V54.2691C40.1241 54.3495 32.8236 54.5103 28.9991 54.2691C25.1747 54.0279 22.1609 51.9774 20.8869 47.9972C19.5082 43.6896 19.5951 37.8301 22.161 34.1266Z" fill="white" stroke="#52ACE0" stroke-width="5" stroke-linejoin="round"/>
<path d="M112.319 40.5386L60.5713 28.8196V36.6994C84.2168 42.8698 104.557 45.9473 115.769 49.8537C119.475 51.1448 113.898 42.6649 112.319 40.5386Z" fill="white" stroke="#52ACE0" stroke-width="5" stroke-linejoin="round"/>
<path d="M115.03 47.142L60.5713 46.4587V54.2024C76.832 54.582 110.39 54.4301 114.536 53.5191C118.682 52.6081 116.757 48.6983 115.03 47.142Z" fill="white" stroke="#52ACE0" stroke-width="5" stroke-linejoin="round"/>
<path d="M109.96 59.2473V44.2539C109.96 42.062 111.737 40.2851 113.929 40.2851C116.121 40.2851 117.898 42.062 117.898 44.2539V59.2473C117.898 61.4392 116.121 63.2161 113.929 63.2161C111.737 63.2161 109.96 61.4392 109.96 59.2473Z" fill="white" stroke="#52ACE0" stroke-width="5" stroke-linejoin="round"/>
<path d="M105.109 71.1538L122.748 71.1538C123.966 71.1538 124.953 72.141 124.953 73.3587C124.953 74.5765 123.966 75.5637 122.748 75.5637L105.109 75.5637C103.891 75.5637 102.904 74.5765 102.904 73.3587C102.904 72.141 103.891 71.1538 105.109 71.1538Z" fill="white" stroke="#52ACE0" stroke-width="5" stroke-linejoin="round"/>
<path d="M102.884 71.99L112.033 58.0767C112.807 56.9006 114.387 56.5741 115.563 57.3475C116.739 58.121 117.066 59.7014 116.292 60.8775L107.143 74.7908C106.37 75.967 104.789 76.2934 103.613 75.52C102.437 74.7466 102.11 73.1661 102.884 71.99Z" fill="white" stroke="#52ACE0" stroke-width="5" stroke-linejoin="round"/>
<path d="M116.685 57.475L125.011 71.8961C125.715 73.1152 125.297 74.674 124.078 75.3778C122.859 76.0817 121.3 75.664 120.596 74.4449L112.27 60.0238C111.566 58.8047 111.984 57.2459 113.203 56.5421C114.422 55.8383 115.981 56.256 116.685 57.475Z" fill="white" stroke="#52ACE0" stroke-width="5" stroke-linejoin="round"/>
<path d="M38.5215 90.557V32.3475C38.5215 25.5282 44.0496 20 50.869 20C57.6883 20 63.2164 25.5281 63.2164 32.3475V90.557C63.2164 97.3764 57.6883 102.905 50.869 102.905C44.0496 102.905 38.5215 97.3764 38.5215 90.557Z" fill="white" stroke="#52ACE0" stroke-width="5" stroke-linejoin="round"/>
</g>
<defs>
<filter id="filter0_d_37_12" x="0.5" y="0.5" width="144.354" height="131.607" filterUnits="userSpaceOnUse" color-interpolation-filters="sRGB">
<feFlood flood-opacity="0" result="BackgroundImageFix"/>
<feColorMatrix in="SourceAlpha" type="matrix" values="0 0 0 0 0 0 0 0 0 0 0 0 0 0 0 0 0 0 127 0" result="hardAlpha"/>
<feOffset/>
<feGaussianBlur stdDeviation="8.5"/>
<feComposite in2="hardAlpha" operator="out"/>
<feColorMatrix type="matrix" values="0 0 0 0 1 0 0 0 0 1 0 0 0 0 1 0 0 0 0.56 0"/>
<feBlend mode="normal" in2="BackgroundImageFix" result="effect1_dropShadow_37_12"/>
<feBlend mode="normal" in="SourceGraphic" in2="effect1_dropShadow_37_12" result="shape"/>
</filter>
</defs>
</svg>
