<svg width="43" height="43" viewBox="0 0 43 43" fill="none" xmlns="http://www.w3.org/2000/svg">
<circle cx="21.5" cy="21.5" r="21.5" fill="#E6E6E6"/>
<path d="M14.3125 12.0586C14.0937 12.1406 13.8398 12.3242 13.7226 12.4961C13.4843 12.8438 13.5 12.125 13.5 22.0039C13.5 31.0156 13.5 31.0195 13.582 31.2344C13.6797 31.4961 13.9179 31.7539 14.1836 31.8828L14.3789 31.9805L20.9492 31.9922L27.5195 32L27.7382 31.918C28.0273 31.8086 28.3086 31.5312 28.4179 31.2383C28.5 31.0195 28.5 31.0117 28.5 24.6367V18.2539L25.8945 18.2383C23.9609 18.2305 23.2461 18.2148 23.1406 18.1797C22.7929 18.0625 22.4375 17.707 22.3203 17.3594C22.2851 17.2539 22.2695 16.5391 22.2617 14.6055L22.2461 12L18.3515 12.0039C15.1523 12.0039 14.4297 12.0156 14.3125 12.0586ZM26 25.125V29.5H24.75H23.5V25.125V20.75H24.75H26V25.125ZM22.25 26.375V29.5H21H19.75V26.375V23.25H21H22.25V26.375ZM18.5 27.625V29.5H17.25H16V27.625V25.75H17.25H18.5V27.625Z" fill="#160A1F"/>
<path d="M23.5 14.5V17H26.0078H28.5195L26.0195 14.5C24.6445 13.125 23.5156 12 23.5117 12C23.5039 12 23.5 13.125 23.5 14.5Z" fill="#160A1F"/>
</svg>
