<svg width="43" height="43" viewBox="0 0 43 43" fill="none" xmlns="http://www.w3.org/2000/svg">
<circle cx="21.5" cy="21.5" r="21.5" fill="#E6E6E6"/>
<g clip-path="url(#clip0_1124_1689)">
<path d="M19.4414 12.1445C19.2812 12.2891 19.2734 12.3125 19.1367 12.8633L19 13.4297L18.7188 13.5C18.082 13.6641 17.332 13.9648 16.7266 14.3047C16.5352 14.4141 16.3633 14.5 16.3477 14.5C16.332 14.5 16.125 14.3867 15.8906 14.2461C15.4453 13.9766 15.2812 13.9258 15.0352 13.9727C14.9062 13.9961 14.7578 14.1289 13.9805 14.9023C13.4805 15.3984 13.043 15.8633 13.0078 15.9375C12.8945 16.1797 12.9453 16.3945 13.2422 16.8828C13.3828 17.125 13.5 17.332 13.5 17.3477C13.5 17.3633 13.4141 17.5352 13.3047 17.7266C12.9648 18.332 12.6641 19.082 12.5 19.7188L12.4297 20L11.8633 20.1367C11.3125 20.2734 11.2891 20.2812 11.1484 20.4414L11 20.6055V22V23.3945L11.1484 23.5586C11.2891 23.7188 11.3125 23.7266 11.8633 23.8633L12.4297 24L12.5 24.2812C12.6641 24.918 12.9648 25.668 13.3047 26.2734C13.4141 26.4648 13.5 26.6367 13.5 26.6523C13.5 26.668 13.3828 26.875 13.2422 27.1172C12.9453 27.6055 12.8945 27.8203 13.0078 28.0625C13.043 28.1367 13.4805 28.6016 13.9805 29.0977C14.7578 29.8711 14.9062 30.0039 15.0352 30.0273C15.2812 30.0742 15.4453 30.0234 15.8906 29.7539C16.125 29.6133 16.332 29.5 16.3477 29.5C16.3633 29.5 16.5352 29.5859 16.7266 29.6953C17.332 30.0352 18.082 30.3359 18.7188 30.5L19 30.5703L19.1367 31.1367C19.2734 31.6875 19.2812 31.7109 19.4414 31.8555L19.6055 32H21H22.3945L22.5586 31.8516C22.7188 31.7109 22.7266 31.6875 22.8633 31.1367L23 30.5703L23.2812 30.5C23.918 30.3359 24.668 30.0352 25.2734 29.6953C25.4648 29.5859 25.6367 29.5 25.6523 29.5C25.668 29.5 25.875 29.6133 26.1094 29.7539C26.5547 30.0234 26.7188 30.0742 26.9648 30.0273C27.0938 30.0039 27.2422 29.8711 28.0195 29.0977C28.5195 28.6016 28.957 28.1367 28.9922 28.0625C29.1055 27.8203 29.0547 27.6055 28.7578 27.1172C28.6172 26.875 28.5 26.668 28.5 26.6523C28.5 26.6367 28.5859 26.4648 28.6953 26.2734C29.0352 25.668 29.3359 24.918 29.5 24.2812L29.5703 24L30.1367 23.8633C30.6875 23.7266 30.7109 23.7188 30.8555 23.5586L31 23.3945V22V20.6055L30.8555 20.4414C30.7109 20.2812 30.6875 20.2734 30.1367 20.1367L29.5703 20L29.5 19.7188C29.3359 19.082 29.0352 18.332 28.6953 17.7266C28.5859 17.5352 28.5 17.3633 28.5 17.3477C28.5 17.332 28.6172 17.125 28.7578 16.8828C29.0547 16.3945 29.1055 16.1797 28.9922 15.9375C28.957 15.8633 28.5195 15.3984 28.0195 14.9023C27.2422 14.1289 27.0938 13.9961 26.9648 13.9727C26.7188 13.9258 26.5547 13.9766 26.1094 14.2461C25.875 14.3867 25.668 14.5 25.6523 14.5C25.6367 14.5 25.4648 14.4141 25.2734 14.3047C24.668 13.9648 23.918 13.6641 23.2812 13.5L23 13.4297L22.8633 12.8633C22.7266 12.3125 22.7188 12.2891 22.5586 12.1445L22.3945 12H21H19.6055L19.4414 12.1445ZM21.9375 15.6484C24.0078 15.9883 25.7383 17.2227 26.6797 19.0312C27.2227 20.0781 27.4336 21.0078 27.3945 22.2188C27.3711 23.0078 27.2969 23.4258 27.0703 24.0742C26.8047 24.8398 26.2383 25.8242 25.9688 25.9922L25.8242 26.082H21C15.4023 26.082 16.0625 26.1445 15.6797 25.5742C15.2266 24.8945 14.875 24.0781 14.707 23.2969C14.6016 22.8047 14.5625 21.668 14.6328 21.1836C14.8359 19.7422 15.4648 18.4805 16.4727 17.4727C17.4414 16.5 18.6367 15.8906 20.0234 15.6523C20.4297 15.5859 21.5273 15.582 21.9375 15.6484ZM22.4375 27.3711C22.6172 27.4766 22.7188 27.6562 22.7188 27.8594C22.7188 28.0625 22.6172 28.2422 22.4375 28.3477C22.3164 28.4219 22.2383 28.4258 21 28.4258C19.7617 28.4258 19.6836 28.4219 19.5625 28.3477C19.1172 28.0781 19.2188 27.4375 19.7266 27.3086C19.793 27.293 20.4023 27.2812 21.0781 27.2852C22.2305 27.293 22.3164 27.2969 22.4375 27.3711Z" fill="#160A1F"/>
</g>
<defs>
<clipPath id="clip0_1124_1689">
<rect width="20" height="20" fill="white" transform="translate(11 12)"/>
</clipPath>
</defs>
</svg>
