<svg width="43" height="43" viewBox="0 0 43 43" fill="none" xmlns="http://www.w3.org/2000/svg">
<circle cx="21.5" cy="21.5" r="21.5" fill="#E6E6E6"/>
<g clip-path="url(#clip0_1124_1620)">
<path d="M20.4102 12.0898C19.9688 12.2422 19.5781 12.5898 19.3906 13.0039L19.3164 13.1719H18.8164C18.4258 13.1719 18.2695 13.1875 18.1016 13.2461C17.3828 13.4922 16.8984 14.1445 16.8984 14.8672C16.8984 15.1758 16.9609 15.3125 17.1562 15.4414C17.2656 15.5117 17.4102 15.5156 21 15.5156C24.5898 15.5156 24.7344 15.5117 24.8438 15.4414C25.0391 15.3125 25.1016 15.1758 25.1016 14.8672C25.1016 14.1484 24.6172 13.4922 23.9023 13.2461C23.7305 13.1875 23.5781 13.1719 23.1836 13.1719H22.6836L22.6094 13.0039C22.418 12.582 22.0039 12.2148 21.5586 12.0781C21.207 11.9688 20.75 11.9727 20.4102 12.0898Z" fill="#160A1F"/>
<path d="M14.5664 14.4219C14.043 14.6094 13.6406 15.0156 13.457 15.5469C13.3867 15.7578 13.3828 15.9766 13.3828 23.1719C13.3828 30.3672 13.3867 30.5859 13.457 30.7969C13.6406 31.3359 14.0469 31.7422 14.582 31.9258C14.7969 31.9961 14.9609 32 21 32C27.0391 32 27.2031 31.9961 27.418 31.9258C27.9531 31.7422 28.3594 31.3359 28.543 30.7969C28.6133 30.5859 28.6172 30.3672 28.6172 23.1719C28.6172 15.9766 28.6133 15.7578 28.543 15.5469C28.3594 15.0078 27.9531 14.6016 27.418 14.418C27.2461 14.3594 27.0938 14.3438 26.707 14.3438H26.2148V14.8398C26.2148 15.2734 26.2031 15.3711 26.125 15.5664C25.8828 16.1602 25.3477 16.5625 24.6719 16.6523C24.3398 16.6953 17.6602 16.6953 17.3281 16.6523C16.6484 16.5625 16.1172 16.1602 15.875 15.5625C15.7969 15.3711 15.7852 15.2695 15.7852 14.8398V14.3438L15.2773 14.3477C14.8867 14.3477 14.7227 14.3672 14.5664 14.4219ZM25.3906 18.5586C25.4492 18.5977 25.5352 18.6836 25.5742 18.7422C25.668 18.8828 25.6719 19.1758 25.5859 19.3047C25.4922 19.4453 23.8594 21.0898 23.6797 21.2227C23.5 21.3555 23.2266 21.3789 23.0703 21.2734C22.9258 21.1758 21.8711 20.1289 21.7383 19.9531C21.4609 19.5781 21.7109 19.0703 22.1719 19.0703C22.3945 19.0703 22.4531 19.1094 22.9453 19.5938L23.3438 19.9883L24.0391 19.3008C24.418 18.9219 24.7734 18.582 24.8281 18.5469C24.957 18.4609 25.25 18.4648 25.3906 18.5586ZM19.5078 19.1289C19.6875 19.2344 19.7891 19.4141 19.7891 19.6172C19.7891 19.8203 19.6875 20 19.5078 20.1055C19.3867 20.1797 19.3086 20.1836 18.0703 20.1836C16.832 20.1836 16.7539 20.1797 16.6328 20.1055C16.1875 19.8359 16.2891 19.1953 16.7969 19.0664C16.8633 19.0508 17.4727 19.0391 18.1484 19.043C19.3008 19.0508 19.3867 19.0547 19.5078 19.1289ZM25.3906 22.0742C25.4492 22.1133 25.5352 22.1992 25.5742 22.2578C25.668 22.3984 25.6719 22.6914 25.5859 22.8203C25.4922 22.9609 23.8594 24.6055 23.6797 24.7383C23.5 24.8711 23.2266 24.8945 23.0703 24.7891C22.9258 24.6914 21.8711 23.6445 21.7383 23.4688C21.4609 23.0938 21.7109 22.5859 22.1719 22.5859C22.3945 22.5859 22.4531 22.625 22.9453 23.1094L23.3438 23.5039L24.0391 22.8164C24.418 22.4375 24.7734 22.0977 24.8281 22.0625C24.957 21.9766 25.25 21.9805 25.3906 22.0742ZM19.5078 23.2305C19.6875 23.3359 19.7891 23.5156 19.7891 23.7188C19.7891 23.9219 19.6875 24.1016 19.5078 24.207C19.3867 24.2812 19.3086 24.2852 18.0703 24.2852C16.832 24.2852 16.7539 24.2812 16.6328 24.207C16.1875 23.9375 16.2891 23.2969 16.7969 23.168C16.8633 23.1523 17.4727 23.1406 18.1484 23.1445C19.3008 23.1523 19.3867 23.1562 19.5078 23.2305ZM22.4453 26.1641C22.5 26.1992 22.7227 26.4062 22.9453 26.625L23.3438 27.0195L23.7461 26.625C24.2344 26.1406 24.293 26.1016 24.5156 26.1016C24.832 26.1016 25.0625 26.332 25.0625 26.6484C25.0625 26.8711 25.0234 26.9297 24.5391 27.418L24.1445 27.8203L24.5391 28.2188C25.0234 28.7109 25.0625 28.7695 25.0625 28.9922C25.0625 29.3086 24.832 29.5391 24.5156 29.5391C24.293 29.5391 24.2344 29.5 23.7461 29.0156L23.3438 28.6211L22.9453 29.0156C22.4531 29.5 22.3945 29.5391 22.1719 29.5391C21.8555 29.5391 21.625 29.3086 21.625 28.9922C21.625 28.7695 21.6641 28.7109 22.1484 28.2188L22.543 27.8203L22.1484 27.418C21.6641 26.9297 21.625 26.8711 21.625 26.6484C21.625 26.332 21.8555 26.1016 22.1719 26.1016C22.2734 26.1016 22.3906 26.1289 22.4453 26.1641ZM19.5078 27.332C19.6875 27.4375 19.7891 27.6172 19.7891 27.8203C19.7891 28.0234 19.6875 28.2031 19.5078 28.3086C19.3867 28.3828 19.3086 28.3867 18.0703 28.3867C16.832 28.3867 16.7539 28.3828 16.6328 28.3086C16.1875 28.0391 16.2891 27.3984 16.7969 27.2695C16.8633 27.2539 17.4727 27.2422 18.1484 27.2461C19.3008 27.2539 19.3867 27.2578 19.5078 27.332Z" fill="#160A1F"/>
</g>
<defs>
<clipPath id="clip0_1124_1620">
<rect width="20" height="20" fill="white" transform="translate(11 12)"/>
</clipPath>
</defs>
</svg>
