<svg width="43" height="43" viewBox="0 0 43 43" fill="none" xmlns="http://www.w3.org/2000/svg">
<circle cx="21.5" cy="21.5" r="21.5" fill="#E6E6E6"/>
<g clip-path="url(#clip0_3109_1216)">
<path d="M19.7305 12.0586C17.418 12.3633 15.3672 13.4023 13.7461 15.1016C12.3438 16.5703 11.418 18.4375 11.0977 20.4375C10.9961 21.0625 10.9727 22.543 11.0547 23.2109C11.4336 26.3359 13.25 29.0742 16 30.6836C17 31.2656 18.1446 31.6758 19.375 31.8906C20.0547 32.0078 21.4961 32.0352 22.2149 31.9414C26.5196 31.4023 29.9649 28.2109 30.8243 23.9727C31.0078 23.0742 31.0547 21.6914 30.9414 20.75C30.3789 16.2305 26.7696 12.6211 22.25 12.0586C21.6563 11.9883 20.293 11.9883 19.7305 12.0586ZM21.8203 17.1367C22.7539 17.2891 23.6563 17.707 24.293 18.2812L24.5078 18.4766L23.6407 19.3359L22.7774 20.1992L22.6407 20.082C22.4336 19.9023 22.0664 19.7109 21.7422 19.6133C21.3946 19.5039 20.7266 19.4883 20.375 19.5742C20.0391 19.6562 19.5547 19.9062 19.3125 20.125C19.0352 20.3711 18.7539 20.7891 18.6211 21.1523C18.5274 21.4062 18.5196 21.4844 18.5196 22C18.5196 22.5156 18.5274 22.5937 18.6211 22.8477C18.8985 23.6055 19.4766 24.1484 20.2578 24.3867C20.6719 24.5156 21.3282 24.5156 21.7422 24.3867C22.0664 24.2891 22.4336 24.0977 22.6407 23.918L22.7774 23.8008L23.6407 24.6641L24.5078 25.5273L24.2657 25.7422C23.3868 26.5312 22.2344 26.9648 20.9961 26.9648C19.7696 26.9648 18.6094 26.5312 17.7266 25.7383C16.6055 24.7305 16.0391 23.4727 16.0391 22C16.0391 19.5391 17.7344 17.5469 20.1797 17.1367C20.5899 17.0664 21.3789 17.0664 21.8203 17.1367Z" fill="#160A1F"/>
</g>
<defs>
<clipPath id="clip0_3109_1216">
<rect width="20" height="20" fill="white" transform="translate(11 12)"/>
</clipPath>
</defs>
</svg>
