<svg width="43" height="43" viewBox="0 0 43 43" fill="none" xmlns="http://www.w3.org/2000/svg">
<circle cx="21.5" cy="21.5" r="21.5" fill="#E6E6E6"/>
<path d="M21.5273 12.125C21.4257 12.2227 20.7499 13.5508 18.6367 17.8008C17.121 20.8516 15.871 23.4141 15.8593 23.4922C15.8281 23.6836 15.9609 23.9609 16.1328 24.0703C16.2578 24.1445 16.3203 24.1484 18.3203 24.1484C19.5898 24.1484 20.3749 24.1641 20.3749 24.1836C20.3749 24.207 20.1913 25.8633 19.9648 27.8711C19.5078 31.9258 19.5156 31.7305 19.7851 31.9102C19.8828 31.9766 19.9726 32 20.1288 32C20.3124 32 20.3554 31.9844 20.4687 31.8711C20.5703 31.7773 21.3046 30.3672 23.3124 26.418C24.8007 23.4883 26.0507 21.0117 26.0898 20.9141C26.1835 20.6758 26.1484 20.5 25.9804 20.332L25.8515 20.2031H23.707H21.5624L22.0038 16.4023C22.2734 14.0781 22.4335 12.543 22.4179 12.4492C22.4023 12.3398 22.3515 12.25 22.2499 12.1484C22.1132 12.0117 22.0859 12 21.8828 12C21.6874 12 21.6484 12.0156 21.5273 12.125Z" fill="#160A1F"/>
<path d="M19.2617 13.3047C18.164 13.5312 17.207 13.9062 16.3164 14.4687C14.0937 15.8672 12.6211 18.1015 12.2265 20.6719C12.1406 21.2148 12.1132 22.3867 12.1679 22.8906C12.5273 26.039 14.3593 28.6484 17.1523 29.9922C17.7031 30.2578 18.5742 30.5742 18.6171 30.5273C18.6328 30.5078 18.6914 30.039 18.75 29.4805C18.8086 28.9219 18.8593 28.4414 18.8632 28.414C18.8671 28.3828 18.7734 28.3242 18.6328 28.2695C15.8711 27.2226 14.0859 24.4258 14.3203 21.5039C14.5156 19.1055 15.9336 17.0234 18.0898 15.9765L18.5078 15.7734L19.1289 14.5312C19.4687 13.8476 19.75 13.2734 19.75 13.25C19.75 13.2031 19.7812 13.1992 19.2617 13.3047Z" fill="#160A1F"/>
<path d="M23.3631 13.5351C23.3475 13.6055 23.1639 15.2461 23.1366 15.5469C23.1288 15.625 23.1756 15.6562 23.4803 15.7812C24.4803 16.1992 25.328 16.793 26.0077 17.5664C28.9374 20.8867 27.9374 25.9766 23.9647 28.0078L23.5233 28.2305L22.8827 29.4922C22.5311 30.1875 22.2499 30.7617 22.2616 30.7734C22.2928 30.8047 23.035 30.6484 23.4881 30.5195C25.1053 30.0547 26.6092 29.0859 27.7108 27.8008C28.8319 26.4961 29.5624 24.8789 29.7928 23.1914C29.8749 22.6133 29.8631 21.2305 29.7772 20.6914C29.2733 17.5078 27.2069 14.918 24.2421 13.7461C23.996 13.6484 23.6991 13.543 23.5897 13.5078C23.3866 13.4492 23.3827 13.4492 23.3631 13.5351Z" fill="#160A1F"/>
</svg>
