<svg width="83" height="100" viewBox="0 0 83 100" fill="none" xmlns="http://www.w3.org/2000/svg">
<path fill-rule="evenodd" clip-rule="evenodd" d="M22.4084 56.2319C22.3187 56.2599 22.2304 56.2962 22.1439 56.3415L20.061 57.4398C19.4881 57.7419 18.8132 57.6399 18.3553 57.1819L14.6009 53.4271C14.1429 52.9696 14.0409 52.2942 14.3426 51.7213L15.4448 49.6309C15.7022 49.1428 15.6716 48.5917 15.361 48.1355C14.4868 46.8505 13.7085 45.5029 13.0327 44.1038C12.9808 43.9964 12.9187 43.8983 12.8477 43.81C12.8938 43.6227 12.9417 43.4351 12.9919 43.2478C13.6641 40.7389 14.6537 38.3601 15.9241 36.1587C17.1745 41.708 20.223 46.7324 24.592 50.403C24.3501 51.0513 24.1096 51.7005 23.8709 52.3497C23.3934 53.648 22.9 54.9398 22.4084 56.2319Z" fill="#134869"/>
<path fill-rule="evenodd" clip-rule="evenodd" d="M51.41 64.1336L47.8544 65.0863C47.2287 65.254 46.5933 65.0051 46.2485 64.4571L44.9932 62.4643C44.6994 61.9975 44.206 61.7485 43.6553 61.7894C42.1186 61.9043 40.5616 61.9056 38.9952 61.7876C38.4441 61.7459 37.9507 61.9948 37.656 62.4621L36.3998 64.4571C36.055 65.0051 35.4191 65.254 34.7939 65.0863L31.2383 64.1336C31.3182 63.8554 31.3971 63.5772 31.4761 63.2989C32.0224 61.3683 32.7905 59.3621 33.4778 57.474C33.7179 56.8138 33.9601 56.1535 34.2033 55.4937C34.3307 55.53 34.4585 55.566 34.5871 55.6001C39.3054 56.8643 44.068 56.7468 48.4459 55.4968C48.689 56.1553 48.9304 56.8146 49.1705 57.474C49.8574 59.3621 50.6259 61.3683 51.1722 63.2989C51.2507 63.5772 51.3301 63.8554 51.41 64.1336Z" fill="#134869"/>
<path fill-rule="evenodd" clip-rule="evenodd" d="M69.8105 43.812C69.7395 43.8998 69.6778 43.9979 69.6263 44.1053C68.9452 45.5212 68.1642 46.8693 67.2963 48.1432C66.9856 48.5994 66.9546 49.151 67.2119 49.6391L68.3097 51.7211C68.6115 52.2939 68.5094 52.9693 68.0515 53.4268L64.2971 57.1817C63.8391 57.6392 63.1642 57.7412 62.5913 57.4395L60.5005 56.3372C60.4166 56.2929 60.3305 56.2569 60.2431 56.2299C59.7519 54.9382 59.2585 53.6469 58.781 52.3494C58.5418 51.6984 58.3009 51.0484 58.0586 50.3983C62.0171 47.0827 65.0319 42.5606 66.47 37.1941C66.5623 36.8498 66.6449 36.5054 66.7225 36.1606L66.7296 36.1722C68.1247 38.5883 69.1546 41.1602 69.8105 43.812Z" fill="#134869"/>
<path fill-rule="evenodd" clip-rule="evenodd" d="M16.0055 82.9823L15.9868 82.9921C15.3044 83.3519 14.4999 83.2303 13.9545 82.6845L9.48079 78.2108C8.935 77.665 8.81341 76.861 9.17328 76.1785L10.4867 73.6869C10.7934 73.1052 10.7565 72.4485 10.3869 71.9049C9.34501 70.374 8.41716 68.7681 7.61222 67.1006C7.32602 66.5086 6.77623 66.1483 6.11906 66.1235L3.30534 66.0152C2.53457 65.9855 1.8987 65.4778 1.69902 64.7328L0.0616394 58.6213C-0.138485 57.8758 0.158374 57.1188 0.811551 56.7074L3.1842 55.2129C3.74064 54.8624 4.0375 54.2749 3.98825 53.619C3.85202 51.7873 3.85024 49.9303 3.99091 48.0635C4.04016 47.4068 3.74375 46.8184 3.18686 46.4678L0.811551 44.972C0.158374 44.5607 -0.138041 43.8032 0.0616394 43.0582L1.69902 36.9466C1.8987 36.2016 2.53457 35.694 3.30534 35.6642L6.11018 35.5564C6.76824 35.5311 7.31892 35.1699 7.60424 34.5766C8.41627 32.8891 9.34634 31.2832 10.3802 29.7648C10.7508 29.2212 10.788 28.564 10.4814 27.9823L9.17328 25.5009C8.81341 24.8185 8.935 24.014 9.48035 23.4686L13.9545 18.9949C14.5003 18.4491 15.3044 18.3275 15.9868 18.6874L18.4784 20.0008C19.0597 20.3075 19.7164 20.2706 20.26 19.901C21.7909 18.8596 23.3972 17.9326 25.0643 17.1272C25.6562 16.8415 26.017 16.2912 26.0418 15.6341L26.1501 12.8194C26.1798 12.0487 26.687 11.4133 27.4325 11.2131L33.5441 9.57575C34.2234 9.39337 34.913 9.62411 35.3412 10.161C30.52 12.4418 27.3407 17.3358 27.3407 22.8035C27.3407 22.9206 27.342 23.0373 27.3451 23.154C19.7417 26.9968 13.7437 33.9354 11.3653 42.8119C8.49881 53.5103 11.5916 64.4005 18.608 71.9604C18.3186 74.4719 17.8123 76.8672 17.1019 79.3232C16.7549 80.5236 16.3467 81.7496 16.0055 82.9823Z" fill="#134869"/>
<path fill-rule="evenodd" clip-rule="evenodd" d="M57.2542 84.758C56.8615 85.0664 56.629 85.5221 56.609 86.0453L56.5008 88.8599C56.471 89.6307 55.9634 90.2661 55.2184 90.4658L49.1068 92.1036C48.3613 92.3033 47.6043 92.0064 47.193 91.3537L45.6976 88.9793C45.347 88.4228 44.7595 88.1264 44.1037 88.1752C42.2724 88.3115 40.4163 88.3132 38.5499 88.1726C37.8936 88.1233 37.3053 88.4197 36.9543 88.9766L35.4575 91.3537C35.0462 92.0064 34.2892 92.3033 33.5437 92.1036L27.4322 90.4662C26.6871 90.2666 26.1795 89.6307 26.1498 88.8599L26.0419 86.0524C26.022 85.5288 25.7886 85.0726 25.3945 84.7642C25.5707 84.0143 25.7615 83.2706 25.9461 82.5491C26.302 81.1585 26.6774 79.7718 27.0639 78.3882C29.011 79.3942 31.0939 80.2093 33.2974 80.7999C41.0766 82.8841 48.9573 81.8183 55.5853 78.3838C55.9723 79.7687 56.3481 81.1567 56.7044 82.5491C56.8886 83.2684 57.0785 84.0103 57.2542 84.758Z" fill="#227EB7"/>
<path fill-rule="evenodd" clip-rule="evenodd" d="M57.5873 17.1206C59.2743 17.9322 60.8802 18.8613 62.3978 19.8952C62.9414 20.2653 63.5985 20.3026 64.1803 19.996L66.6625 18.6874C67.345 18.3275 68.1495 18.4491 68.6953 18.9945L73.169 23.4686C73.7148 24.0144 73.8364 24.8185 73.4765 25.5009L72.163 27.9925C71.8564 28.5738 71.8933 29.2305 72.2629 29.7741C73.3048 31.305 74.2322 32.9113 75.0371 34.5788C75.3229 35.1708 75.8735 35.5311 76.5303 35.556L79.3444 35.6642C80.1152 35.694 80.7506 36.2011 80.9503 36.9466L82.5881 43.0582C82.7878 43.8036 82.491 44.5607 81.8382 44.972L79.4651 46.4665C78.9087 46.817 78.6123 47.4045 78.6611 48.0604C78.7978 49.8926 78.7991 51.7487 78.6589 53.6159C78.6092 54.2718 78.9056 54.8606 79.4625 55.2112L81.8382 56.7074C82.491 57.1183 82.7878 57.8758 82.5881 58.6208L80.9508 64.7328C80.7511 65.4778 80.1152 65.9855 79.3444 66.0152L76.5392 66.1226C75.8815 66.1483 75.3304 66.5095 75.0451 67.1028C74.2335 68.7899 73.3034 70.3966 72.2691 71.9142C71.899 72.4582 71.8617 73.1154 72.1684 73.6971L73.4765 76.1785C73.8364 76.861 73.7148 77.665 73.169 78.2108L68.6953 82.6845C68.1495 83.2303 67.3454 83.3519 66.663 82.9921L66.6443 82.9823C66.3026 81.7496 65.8948 80.5236 65.5474 79.3232C64.8374 76.8681 64.3311 74.4737 64.0418 71.963C67.3858 68.3732 69.9262 63.9368 71.2844 58.8675C75.156 44.4187 68.1583 29.6188 55.3047 23.146C55.3073 23.0324 55.3087 22.918 55.3087 22.8035C55.3087 17.3358 52.1293 12.4418 47.3086 10.161C47.7368 9.62411 48.4259 9.39337 49.1053 9.57575L55.2173 11.2131C55.9623 11.4128 56.4699 12.0487 56.4997 12.8194L56.6075 15.6265C56.6328 16.2846 56.994 16.8352 57.5873 17.1206Z" fill="#134869"/>
<path fill-rule="evenodd" clip-rule="evenodd" d="M47.5319 53.0291L45.0794 53.6862C44.72 53.7825 44.3548 53.6392 44.1569 53.3246L43.4358 52.1798C43.2667 51.9117 42.9836 51.7688 42.6672 51.7924C41.7847 51.858 40.8901 51.8589 39.9902 51.791C39.6738 51.7671 39.3903 51.91 39.2212 52.1789L38.4992 53.3246C38.3013 53.6392 37.9361 53.7825 37.5767 53.6862L35.1211 53.0282C35.7011 51.4751 36.2868 49.9242 36.8738 48.3747L36.9786 48.0996C37.137 48.1475 37.2967 48.1937 37.4582 48.2367C40.2609 48.988 43.0906 48.8903 45.6753 48.1018L45.7787 48.3747C46.3662 49.9247 46.9519 51.4755 47.5319 53.0291Z" fill="#134869"/>
<path fill-rule="evenodd" clip-rule="evenodd" d="M40.1815 35.0506C37.4987 41.9742 30.947 58.9901 29.8576 62.8399C28.4816 67.7028 23.8938 82.2919 23.1599 87.4299C22.4259 92.5679 19.5816 100 19.5816 100L19.6735 91.1919C19.6735 91.1919 16.5536 89.3566 17.1042 85.7783C17.6545 82.2 19.7649 78.3462 20.4074 70.9145C21.0495 63.4824 22.5174 60.9132 25.4535 52.9309C27.5639 47.1929 31.4284 37.3309 33.435 32.2382C30.7402 29.9823 29.0265 26.593 29.0265 22.8035C29.0265 17.2218 32.745 12.5089 37.8399 11.0055V3.48642C37.8399 1.56905 39.409 0 41.3264 0C43.2442 0 44.8132 1.56905 44.8132 3.48642V11.0055C49.9082 12.5089 53.6267 17.2218 53.6267 22.8035C53.6267 26.593 51.9125 29.9823 49.2177 32.2382C51.2243 37.3309 55.0888 47.1929 57.1996 52.9309C60.1358 60.9132 61.6037 63.4824 62.2458 70.9145C62.8883 78.3462 64.9983 82.2 65.5489 85.7783C66.0996 89.3566 62.9797 91.1919 62.9797 91.1919L63.0716 100C63.0716 100 60.2272 92.5679 59.4933 87.4299C58.7594 82.2919 54.1716 67.7028 52.7956 62.8399C51.7058 58.9901 45.1545 41.9742 42.4716 35.0506C42.0945 35.0852 41.7129 35.1038 41.3264 35.1038C40.9403 35.1038 40.5587 35.0852 40.1815 35.0506ZM41.3264 16.6236C44.7396 16.6236 47.5063 19.3908 47.5063 22.8035C47.5063 26.2167 44.7396 28.9834 41.3264 28.9834C37.9136 28.9834 35.1469 26.2167 35.1469 22.8035C35.1469 19.3908 37.9136 16.6236 41.3264 16.6236Z" fill="#134869"/>
<path d="M41.3269 27.1734C43.7404 27.1734 45.6968 25.2169 45.6968 22.8035C45.6968 20.3901 43.7404 18.4336 41.3269 18.4336C38.9135 18.4336 36.957 20.3901 36.957 22.8035C36.957 25.2169 38.9135 27.1734 41.3269 27.1734Z" fill="#227EB7"/>
</svg>
