<svg width="50" height="50" viewBox="0 0 50 50" fill="none" xmlns="http://www.w3.org/2000/svg">
<path fill-rule="evenodd" clip-rule="evenodd" d="M32.2917 34.375H17.9687C16.6743 34.375 15.625 33.3257 15.625 32.0312V21.3521C15.6254 20.7892 15.7395 20.2323 15.9604 19.7146L17.1 17.0479C17.4693 16.1849 18.3175 15.6252 19.2562 15.625H30.7437C31.6819 15.6254 32.5293 16.1852 32.8979 17.0479L34.0396 19.7167C34.2605 20.2343 34.3746 20.7913 34.375 21.3542V32.2917C34.375 33.4423 33.4423 34.375 32.2917 34.375Z" stroke="#323232" stroke-width="3.125" stroke-linecap="round" stroke-linejoin="round"/>
<path d="M25.0002 15.625V21.875" stroke="#323232" stroke-width="3.125" stroke-linecap="round" stroke-linejoin="round"/>
<path d="M34.375 25V23.9583C34.375 22.8077 33.4423 21.875 32.2917 21.875H17.7083C16.5577 21.875 15.625 22.8077 15.625 23.9583V25" stroke="#323232" stroke-width="3.125" stroke-linecap="round" stroke-linejoin="round"/>
<path d="M37.0811 10.5458L39.5833 13.0458L43.7477 8.87915" stroke="#323232" stroke-width="3.125" stroke-linecap="round" stroke-linejoin="round"/>
<path d="M42.8792 19.4854C43.448 21.2687 43.7417 23.1282 43.75 25C43.75 35.3553 35.3553 43.75 25 43.75C14.6447 43.75 6.25 35.3553 6.25 25C6.25 14.6447 14.6447 6.25 25 6.25C26.8718 6.25832 28.7313 6.55197 30.5146 7.12083" stroke="#323232" stroke-width="3.125" stroke-linecap="round" stroke-linejoin="round"/>
</svg>
