<svg width="50" height="50" viewBox="0 0 50 50" fill="none" xmlns="http://www.w3.org/2000/svg">
<path d="M36.4603 10.9168C36.7591 10.9179 37.0006 11.1609 36.9998 11.4598C36.9991 11.7587 36.7564 12.0005 36.4575 12.0001C36.1586 11.9997 35.9165 11.7573 35.9165 11.4584C35.9157 11.3142 35.9728 11.1756 36.075 11.0738C36.1772 10.972 36.316 10.9154 36.4603 10.9168" stroke="#323232" stroke-width="3.125" stroke-linecap="round" stroke-linejoin="round"/>
<path d="M29.1665 11.4583C29.1665 14.8718 32.8915 18.5183 35.0165 20.3215C35.8557 21.0038 37.0585 21.0038 37.8978 20.3215C40.0248 18.5183 43.7498 14.8718 43.7498 11.4583" stroke="#323232" stroke-width="3.125" stroke-linecap="round" stroke-linejoin="round"/>
<path d="M29.1665 11.4584V11.4584C29.1665 7.43134 32.4311 4.16675 36.4582 4.16675V4.16675C40.4852 4.16675 43.7498 7.43134 43.7498 11.4584V11.4584" stroke="#323232" stroke-width="3.125" stroke-linecap="round" stroke-linejoin="round"/>
<path d="M6.25 16.6667V12.5C6.25 9.04822 9.04822 6.25 12.5 6.25H22.9167" stroke="#323232" stroke-width="3.125" stroke-linecap="round" stroke-linejoin="round"/>
<path d="M43.7502 25V37.5C43.7502 40.9518 40.9519 43.75 37.5002 43.75H33.3335" stroke="#323232" stroke-width="3.125" stroke-linecap="round" stroke-linejoin="round"/>
<path d="M16.6667 22.9167V30.2084" stroke="#323232" stroke-width="3.125" stroke-linecap="round" stroke-linejoin="round"/>
<path d="M27.0833 33.3333V32.8124C27.0833 31.3742 25.9174 30.2083 24.4792 30.2083H8.85417C7.41593 30.2083 6.25 31.3742 6.25 32.8124V33.3333" stroke="#323232" stroke-width="3.125" stroke-linecap="round" stroke-linejoin="round"/>
<path fill-rule="evenodd" clip-rule="evenodd" d="M24.4792 43.7501H8.85417C7.41593 43.7501 6.25 42.5842 6.25 41.1459V29.8256C6.25 28.8406 6.44954 27.8659 6.83658 26.9602L7.88898 24.4976C8.29873 23.5387 9.24093 22.9167 10.2836 22.9167H23.0474C24.0897 22.9167 25.0317 23.5383 25.4417 24.4967L26.4957 26.9605C26.8834 27.8669 27.0833 28.8425 27.0833 29.8284V41.1459C27.0833 41.8366 26.809 42.499 26.3206 42.9873C25.8322 43.4757 25.1698 43.7501 24.4792 43.7501Z" stroke="#323232" stroke-width="3.125" stroke-linecap="round" stroke-linejoin="round"/>
</svg>
