<svg width="50" height="50" viewBox="0 0 50 50" fill="none" xmlns="http://www.w3.org/2000/svg">
<path d="M31.25 16.6667H40.2562C41.1083 16.6667 41.875 17.1855 42.1896 17.9772L45.5354 26.3397C45.7312 26.8313 45.8333 27.3563 45.8333 27.8855V40.2772C45.8333 41.4272 44.9 42.3605 43.75 42.3605H39.9354" stroke="#323232" stroke-width="3.125" stroke-linecap="round" stroke-linejoin="round"/>
<path d="M33.333 42.5414H17.0205" stroke="#323232" stroke-width="3.125" stroke-linecap="round" stroke-linejoin="round"/>
<path d="M45.8333 31.2501H37.5V22.9167H44.1667" stroke="#323232" stroke-width="3.125" stroke-linecap="round" stroke-linejoin="round"/>
<path d="M26.1582 12.4998H29.1665C30.3165 12.4998 31.2498 13.4331 31.2498 14.5831V33.3331H4.1665" stroke="#323232" stroke-width="3.125" stroke-linecap="round" stroke-linejoin="round"/>
<path fill-rule="evenodd" clip-rule="evenodd" d="M16.1221 4.27094C12.4742 4.82928 9.4909 7.81261 8.93256 11.4605C8.03673 17.3147 13.0076 22.2855 18.8617 21.3897C22.5096 20.8314 25.493 17.848 26.0513 14.2001C26.9492 8.34594 21.9763 3.37511 16.1221 4.27094Z" stroke="#323232" stroke-width="3.125" stroke-linecap="round" stroke-linejoin="round"/>
<path d="M38.9665 40.1997C40.2552 41.4884 40.2552 43.5779 38.9665 44.8666C37.6777 46.1553 35.5883 46.1553 34.2996 44.8666C33.0108 43.5779 33.0108 41.4884 34.2996 40.1997C35.5883 38.911 37.6777 38.911 38.9665 40.1997" stroke="#323232" stroke-width="3.125" stroke-linecap="round" stroke-linejoin="round"/>
<path d="M16.0499 40.1997C17.3387 41.4884 17.3387 43.5779 16.0499 44.8666C14.7612 46.1553 12.6718 46.1553 11.3831 44.8666C10.0943 43.5779 10.0943 41.4884 11.3831 40.1997C12.6718 38.911 14.7612 38.911 16.0499 40.1997" stroke="#323232" stroke-width="3.125" stroke-linecap="round" stroke-linejoin="round"/>
<path d="M10.4165 42.5331H6.24984C5.09984 42.5331 4.1665 41.5998 4.1665 40.4498V14.5831C4.1665 13.4331 5.09984 12.4998 6.24984 12.4998H8.829" stroke="#323232" stroke-width="3.125" stroke-linecap="round" stroke-linejoin="round"/>
<path d="M20.8332 12.5002H16.6665V8.66479" stroke="#323232" stroke-width="3.125" stroke-linecap="round" stroke-linejoin="round"/>
</svg>
