<?xml version="1.0" standalone="no"?>
<!DOCTYPE svg PUBLIC "-//W3C//DTD SVG 20010904//EN"
 "http://www.w3.org/TR/2001/REC-SVG-20010904/DTD/svg10.dtd">
<svg version="1.0" xmlns="http://www.w3.org/2000/svg"
 width="512.000000pt" height="512.000000pt" viewBox="0 0 512.000000 512.000000"
 preserveAspectRatio="xMidYMid meet">

<g transform="translate(0.000000,512.000000) scale(0.100000,-0.100000)"
fill="#000000" stroke="none">
<path d="M845 4466 c-88 -22 -145 -54 -215 -121 -74 -72 -120 -152 -139 -243
-15 -73 -15 -1091 0 -1164 19 -91 57 -158 133 -234 76 -76 143 -114 234 -133
33 -7 177 -11 375 -11 204 0 337 -4 362 -11 54 -15 139 -100 154 -154 15 -56
13 -207 -4 -290 -46 -220 -223 -411 -445 -480 -37 -12 -109 -19 -226 -24 -165
-6 -172 -7 -206 -33 -62 -47 -68 -72 -68 -288 0 -216 6 -241 68 -288 l36 -27
190 0 c115 1 215 6 251 14 275 58 488 171 676 360 185 184 286 370 356 651 15
57 17 184 20 1055 3 722 1 1006 -7 1050 -18 90 -55 160 -128 236 -70 75 -145
118 -240 138 -78 16 -1110 14 -1177 -3z"/>
<path d="M3085 4466 c-88 -22 -145 -54 -215 -121 -74 -72 -120 -152 -139 -243
-15 -73 -15 -1091 0 -1164 19 -91 57 -158 133 -234 76 -76 143 -114 234 -133
33 -7 177 -11 375 -11 204 0 337 -4 362 -11 54 -15 139 -100 154 -154 15 -56
13 -207 -4 -290 -46 -220 -223 -411 -445 -480 -37 -12 -109 -19 -226 -24 -165
-6 -172 -7 -206 -33 -62 -47 -68 -72 -68 -288 0 -216 6 -241 68 -288 l36 -27
190 0 c115 1 215 6 251 14 275 58 488 171 676 360 185 184 286 370 356 651 15
57 17 184 20 1055 3 722 1 1006 -7 1050 -18 90 -55 160 -128 236 -70 75 -145
118 -240 138 -78 16 -1110 14 -1177 -3z"/>
</g>
</svg>
