<svg width="25" height="25" viewBox="0 0 25 25" fill="none" xmlns="http://www.w3.org/2000/svg">
<path d="M8.50878 9.39534L5.92301 11.9811H15.5088C19.3748 11.9811 22.5088 15.1151 22.5088 18.9811C22.5088 19.5334 22.0611 19.9811 21.5088 19.9811C20.9565 19.9811 20.5088 19.5334 20.5088 18.9811C20.5088 16.2197 18.2702 13.9811 15.5088 13.9811H5.923L8.50878 16.5669C8.89931 16.9574 8.8993 17.5906 8.50878 17.9811C8.11825 18.3716 7.48509 18.3716 7.09456 17.9811L2.80168 13.6882C2.41116 13.2977 2.41116 12.6645 2.80168 12.274L7.09456 7.98113C7.48509 7.5906 8.11825 7.5906 8.50878 7.98113C8.55759 8.02994 8.60031 8.08255 8.63692 8.138C8.8932 8.52615 8.85049 9.05363 8.50878 9.39534Z" fill="white"/>
</svg>
