<svg width="24" height="24" viewBox="0 0 24 24" fill="none" xmlns="http://www.w3.org/2000/svg">
<path fill-rule="evenodd" clip-rule="evenodd" d="M9.14121 3.21953L21.2032 9.44512C21.5337 9.61567 21.7423 9.95547 21.7449 10.3274C21.7474 10.6992 21.5434 11.0418 21.2152 11.2169L16.7134 13.6179C16.1335 13.9272 15.4387 13.9321 14.8546 13.6309L2.79556 7.40327C2.46508 7.23272 2.25647 6.89292 2.25393 6.52103C2.25143 6.14914 2.45541 5.80654 2.78356 5.63153L7.28543 3.23053C7.86482 2.92286 8.55822 2.91875 9.14121 3.21953Z" stroke="#323232" stroke-width="1.5" stroke-linecap="round" stroke-linejoin="round"/>
<path fill-rule="evenodd" clip-rule="evenodd" d="M14.8576 3.21953L2.79556 9.44512C2.46508 9.61567 2.25647 9.95547 2.25393 10.3274C2.25143 10.6992 2.45541 11.0418 2.78356 11.2169L7.28543 13.6179C7.86529 13.9272 8.56008 13.9321 9.14421 13.6309L21.2032 7.40327C21.5337 7.23272 21.7423 6.89292 21.7449 6.52103C21.7474 6.14914 21.5434 5.80654 21.2152 5.63153L16.7134 3.23053C16.134 2.92286 15.4406 2.91875 14.8576 3.21953Z" stroke="#323232" stroke-width="1.5" stroke-linecap="round" stroke-linejoin="round"/>
<path d="M19.1063 12.3413V16.2789C19.1063 17.018 18.699 17.6969 18.0469 18.0447L12.9447 20.7688C12.3564 21.0825 11.6503 21.0825 11.062 20.7688L5.95983 18.0447C5.30767 17.6969 4.90039 17.018 4.90039 16.2789V12.3413" stroke="#323232" stroke-width="1.5" stroke-linecap="round" stroke-linejoin="round"/>
<path d="M11.9983 21.004V12.1543" stroke="#323232" stroke-width="1.5" stroke-linecap="round" stroke-linejoin="round"/>
</svg>
