<svg width="24" height="24" viewBox="0 0 24 24" fill="none" xmlns="http://www.w3.org/2000/svg">
<path d="M4 7.00012H18C19.105 7.00012 20 7.89512 20 9.00012V20.0001C20 21.1051 19.105 22.0001 18 22.0001H6C4.895 22.0001 4 21.1051 4 20.0001V7.05112C4 6.16812 4.579 5.39012 5.424 5.13612L15.712 2.04412C16.354 1.85012 17 2.33112 17 3.00112V7.00012" stroke="#323232" stroke-width="1.5" stroke-linecap="round" stroke-linejoin="round"/>
<path fill-rule="evenodd" clip-rule="evenodd" d="M13.7258 11C15.2068 11 16.2008 12.304 16.2008 13.518C16.2008 15.982 12.0758 18 12.0008 18C11.9258 18 7.80078 15.982 7.80078 13.518C7.80078 12.304 8.79478 11 10.2758 11C11.1228 11 11.6788 11.396 12.0008 11.748C12.3228 11.396 12.8788 11 13.7258 11Z" stroke="#323232" stroke-width="1.5" stroke-linecap="round" stroke-linejoin="round"/>
</svg>
