<svg width="24" height="24" viewBox="0 0 24 24" fill="none" xmlns="http://www.w3.org/2000/svg">
<path d="M3 12.2529C3 14.7379 7.029 16.7529 12 16.7529" stroke="#323232" stroke-width="1.5" stroke-linecap="round" stroke-linejoin="round"/>
<path d="M21 12.2529C21 13.8129 19.411 15.1869 17 15.9939C19.411 15.1869 21 13.8129 21 12.2529" stroke="#323232" stroke-width="1.5" stroke-linecap="round" stroke-linejoin="round"/>
<path d="M13 16.7529H12C7.029 16.7529 3 14.7379 3 12.2529" stroke="#323232" stroke-width="1.5" stroke-linecap="round" stroke-linejoin="round"/>
<path d="M10.7539 18.9981L12.9999 16.7531L10.7539 14.5071" stroke="#323232" stroke-width="1.5" stroke-linecap="round" stroke-linejoin="round"/>
<path d="M21 12.2531C21 10.2951 18.493 8.63509 15 8.01709" stroke="#323232" stroke-width="1.5" stroke-linecap="round" stroke-linejoin="round"/>
<path d="M9 8.01611C5.507 8.63411 3 10.2941 3 12.2521" stroke="#323232" stroke-width="1.5" stroke-linecap="round" stroke-linejoin="round"/>
<path d="M11.8441 4.99512C11.8441 5.08512 11.9041 5.14512 11.9941 5.14512C12.0841 5.14512 12.1441 5.08512 12.1441 4.99512C12.1441 4.90512 12.0841 4.84512 11.9941 4.84512C11.9041 4.84512 11.8441 4.90512 11.8441 4.99512" stroke="#323232" stroke-width="1.5" stroke-linecap="round" stroke-linejoin="round"/>
<path d="M11.8441 7.99512C11.8441 8.08512 11.9041 8.14512 11.9941 8.14512C12.0841 8.14512 12.1441 8.08512 12.1441 7.99512C12.1441 7.90512 12.0841 7.84512 11.9941 7.84512C11.9041 7.84512 11.8441 7.90512 11.8441 7.99512" stroke="#323232" stroke-width="1.5" stroke-linecap="round" stroke-linejoin="round"/>
<path d="M11.8402 10.9951C11.8402 11.0851 11.9002 11.1451 11.9902 11.1451C12.0802 11.1451 12.1402 11.0851 12.1402 10.9951C12.1402 10.9051 12.0802 10.8451 11.9902 10.8451C11.9002 10.8451 11.8402 10.9051 11.8402 10.9951" stroke="#323232" stroke-width="1.5" stroke-linecap="round" stroke-linejoin="round"/>
</svg>
