<svg width="390" height="156" viewBox="0 0 390 156" fill="none" xmlns="http://www.w3.org/2000/svg">
<path d="M236.115 1.15924e-06C220.822 -0.00265044 205.872 4.54361 193.155 13.0638C180.438 21.5841 170.525 33.6956 164.671 47.8666C158.817 62.0377 157.283 77.6318 160.265 92.6769C163.247 107.722 170.61 121.542 181.423 132.39C192.236 143.237 206.013 150.625 221.013 153.619C236.012 156.612 251.559 155.077 265.688 149.208C279.818 143.338 291.894 133.398 300.391 120.643C308.888 107.889 313.423 92.8944 313.423 77.5549C313.423 56.9884 305.278 37.264 290.781 22.72C276.283 8.17607 256.62 0.0035563 236.115 1.15924e-06ZM236.115 126.018C226.553 126.021 217.204 123.179 209.252 117.852C201.3 112.525 195.101 104.952 191.441 96.0907C187.78 87.2297 186.822 77.4788 188.686 68.0714C190.551 58.664 195.156 50.0226 201.918 43.2403C208.68 36.458 217.295 31.8395 226.674 29.9689C236.053 28.0983 245.774 29.0597 254.609 32.7315C263.443 36.4033 270.993 42.6205 276.304 50.5967C281.615 58.5729 284.449 67.9499 284.446 77.5415C284.446 90.3984 279.354 102.729 270.29 111.82C261.227 120.911 248.933 126.018 236.115 126.018Z" fill="white" fill-opacity="0.3"/>
<path d="M-42.8846 131.863L-52.0267 151.973H-85L-16.1531 0H-13.0255L57.3852 151.973H21.9259L13.2382 131.863H-42.8846ZM-30.4143 102.812H0.781303L-14.5893 66.3741L-30.4143 102.812Z" fill="white" fill-opacity="0.3"/>
<path d="M82.0706 151.966V32.1684H49.7656V3.11719H145.999V32.1684H113.721V151.953L82.0706 151.966Z" fill="white" fill-opacity="0.3"/>
<path d="M418.154 97.4497L468.343 0H473.021L512.449 151.973H479.436L459.387 76.6567L419.29 151.973H414.88L375.384 76.4154L355.335 151.959H323.926L363.341 0H368.019L418.154 97.4497Z" fill="white" fill-opacity="0.3"/>
<path d="M236.124 96.8331C246.746 96.8331 255.357 88.1959 255.357 77.5415C255.357 66.8871 246.746 58.25 236.124 58.25C225.502 58.25 216.891 66.8871 216.891 77.5415C216.891 88.1959 225.502 96.8331 236.124 96.8331Z" fill="#025EA1"/>
</svg>
