<svg width="1814" height="471" viewBox="0 0 1814 471" fill="none" xmlns="http://www.w3.org/2000/svg">
<path d="M974.998 3.51975e-06C928.564 -0.0080474 883.17 13.7956 844.558 39.6652C805.946 65.5348 775.849 102.308 758.074 145.335C740.299 188.362 735.644 235.71 744.698 281.391C753.751 327.071 776.107 369.033 808.938 401.969C841.769 434.905 883.601 457.336 929.142 466.425C974.683 475.515 1021.89 470.854 1064.79 453.032C1107.69 435.211 1144.36 405.029 1170.15 366.304C1195.95 327.58 1209.72 282.051 1209.72 235.477C1209.72 173.031 1184.99 113.143 1140.98 68.9839C1096.96 24.8246 1037.25 0.0107979 974.998 3.51975e-06ZM974.998 382.624C945.963 382.632 917.578 374.003 893.433 357.828C869.289 341.654 850.469 318.66 839.354 291.756C828.239 264.852 825.329 235.246 830.991 206.682C836.654 178.119 850.634 151.881 871.165 131.289C891.696 110.696 917.854 96.6729 946.331 90.9933C974.808 85.3137 1004.32 88.2328 1031.15 99.3812C1057.97 110.53 1080.9 129.407 1097.02 153.625C1113.15 177.842 1121.75 206.313 1121.74 235.436C1121.74 274.473 1106.28 311.91 1078.76 339.514C1051.24 367.117 1013.92 382.624 974.998 382.624Z" fill="white" fill-opacity="0.3"/>
<path d="M127.873 400.371L100.115 461.428H0L209.037 0H218.533L432.318 461.428H324.654L298.276 400.371H127.873ZM165.736 312.164H260.454L213.785 201.529L165.736 312.164Z" fill="white" fill-opacity="0.3"/>
<path d="M507.274 461.415V97.6777H409.188V9.4707H701.376V97.6777H603.371V461.374L507.274 461.415Z" fill="white" fill-opacity="0.3"/>
<path d="M1527.7 295.882L1680.08 0H1694.28L1814 461.428H1713.76L1652.89 232.749L1531.15 461.428H1517.75L1397.83 232.017L1336.96 461.387H1241.59L1361.27 0H1375.47L1527.7 295.882Z" fill="white" fill-opacity="0.3"/>
<path d="M975.007 294.012C1007.26 294.012 1033.4 267.788 1033.4 235.438C1033.4 203.089 1007.26 176.864 975.007 176.864C942.755 176.864 916.609 203.089 916.609 235.438C916.609 267.788 942.755 294.012 975.007 294.012Z" fill="#025EA1"/>
</svg>
