<svg width="25" height="26" viewBox="0 0 25 26" fill="none" xmlns="http://www.w3.org/2000/svg">
<path d="M8.13263 20.7379C6.7081 20.7379 5.55326 21.8928 5.55326 23.3173C5.55326 24.7418 6.7081 25.8967 8.13263 25.8967C9.55644 25.8949 10.7102 24.7411 10.712 23.3173C10.712 21.8928 9.55715 20.7379 8.13263 20.7379ZM8.13263 24.607C7.42033 24.607 6.84294 24.0296 6.84294 23.3173C6.84294 22.605 7.42033 22.0276 8.13263 22.0276C8.84469 22.0281 9.42184 22.6052 9.42231 23.3173C9.42231 24.0296 8.84493 24.607 8.13263 24.607ZM18.4501 20.7379C17.0256 20.7379 15.8707 21.8928 15.8707 23.3173C15.8707 24.7418 17.0256 25.8967 18.4501 25.8967C19.8739 25.8949 21.0276 24.7411 21.0295 23.3173C21.0295 21.8928 19.8746 20.7379 18.4501 20.7379ZM18.4501 24.607C17.7378 24.607 17.1604 24.0296 17.1604 23.3173C17.1604 22.605 17.7378 22.0276 18.4501 22.0276C19.1622 22.0281 19.7393 22.6052 19.7398 23.3173C19.7398 24.0296 19.1624 24.607 18.4501 24.607ZM21.6724 13.0646L24.2322 3.49348C24.2467 3.4394 24.2539 3.38375 24.2539 3.32779C24.254 2.97144 23.9652 2.68247 23.6088 2.68239H4.16022L3.59748 0.58225C3.52192 0.300368 3.26648 0.104287 2.9746 0.104287H1.04559C1.04339 0.104287 1.04158 0.103027 1.03937 0.103027C0.683262 0.103027 0.394531 0.391758 0.394531 0.747869C0.394531 1.10398 0.683262 1.39271 1.03937 1.39271V1.39397L2.47893 1.39271L5.8061 13.8109C5.88166 14.0932 6.13757 14.2895 6.42984 14.2895H10.712H19.5597H21.0295C22.0979 14.2895 22.964 15.1556 22.964 16.2241C22.964 17.2925 22.0979 18.1586 21.0295 18.1586H2.9739C2.61779 18.1586 2.32906 18.4473 2.32906 18.8034C2.32906 19.1595 2.61779 19.4483 2.9739 19.4483H21.0295C22.8102 19.4483 24.2537 18.0048 24.2537 16.2241C24.2537 14.6636 23.145 13.3627 21.6724 13.0646ZM20.3539 12.9999H19.5597H10.712H6.92481L4.50579 3.97208H22.7688L20.3539 12.9999Z" fill="#222222"/>
</svg>
