<svg width="20" height="20" viewBox="0 0 20 20" fill="none" xmlns="http://www.w3.org/2000/svg">
<path d="M16.25 16.6249C15.375 16.6249 14.9167 16.3749 14.5 16.1666C14.125 15.9583 13.7917 15.7916 13.125 15.7916C12.4583 15.7916 12.125 15.9583 11.75 16.1666C11.3333 16.3749 10.875 16.6249 10 16.6249C9.125 16.6249 8.66667 16.3749 8.25 16.1666C7.875 15.9583 7.54167 15.7916 6.875 15.7916C6.20833 15.7916 5.875 15.9583 5.5 16.1666C5.08333 16.3749 4.875 16.5 4 16.5L3.75 15.7916C4.41667 15.7916 4.75 15.6249 5.125 15.4166C5.54167 15.2083 6 14.9583 6.875 14.9583C7.75 14.9583 8.20833 15.2083 8.625 15.4166C9 15.6249 9.33333 15.7916 10 15.7916C10.6667 15.7916 11 15.6249 11.375 15.4166C11.7917 15.2083 12.25 14.9583 13.125 14.9583C14 14.9583 14.4583 15.2083 14.875 15.4166C15.25 15.6249 15.5833 15.7916 16.25 15.7916C16.9167 15.7916 17.25 15.6249 17.625 15.4166C17.97 15.2441 18.3437 15.043 18.9588 14.9789C19.1877 14.9551 19.375 15.1448 19.375 15.3749V15.3749C19.375 15.605 19.1874 15.7867 18.9592 15.8171C18.551 15.8714 18.2878 16.0067 18 16.1666C17.5833 16.3749 17.125 16.6249 16.25 16.6249ZM16.25 19.7916C15.375 19.7916 14.9167 19.5416 14.5 19.3333C14.125 19.1249 13.7917 18.9583 13.125 18.9583C12.4583 18.9583 12.125 19.1249 11.75 19.3333C11.3333 19.5416 10.875 19.7916 10 19.7916C9.125 19.7916 8.66667 19.5416 8.25 19.3333C7.875 19.1249 7.54167 18.9583 6.875 18.9583C6.20833 18.9583 5.875 19.1249 5.5 19.3333C5.08333 19.5416 4.625 19.7916 3.75 19.7916C2.875 19.7916 2.41667 19.5416 2 19.3333C1.71221 19.1734 1.44896 19.038 1.04075 18.9837C0.812643 18.9534 0.625 18.7717 0.625 18.5416V18.5416C0.625 18.3115 0.812332 18.1218 1.04121 18.1456C1.65635 18.2096 2.02996 18.4107 2.375 18.5833C2.75 18.7916 3.08333 18.9583 3.75 18.9583C4.41667 18.9583 4.75 18.7916 5.125 18.5833C5.54167 18.3749 6 18.1249 6.875 18.1249C7.75 18.1249 8.20833 18.3749 8.625 18.5833C9 18.7916 9.33333 18.9583 10 18.9583C10.6667 18.9583 11 18.7916 11.375 18.5833C11.7917 18.3749 12.25 18.1249 13.125 18.1249C14 18.1249 14.4583 18.3749 14.875 18.5833C15.25 18.7916 15.5833 18.9583 16.25 18.9583C16.9167 18.9583 17.25 18.7916 17.625 18.5833C17.97 18.4107 18.3437 18.2096 18.9588 18.1456C19.1877 18.1218 19.375 18.3115 19.375 18.5416V18.5416C19.375 18.7717 19.1874 18.9534 18.9592 18.9837C18.551 19.038 18.2878 19.1734 18 19.3333C17.5833 19.5416 17.125 19.7916 16.25 19.7916Z" fill="#FF3D54"/>
<path d="M10 16.6251C9.12501 16.6251 8.66668 16.3751 8.25001 16.1667C7.87501 15.9584 7.54168 15.7917 6.87501 15.7917C6.20835 15.7917 5.87501 15.9584 5.50001 16.1667C5.16668 16.3334 4.83335 16.5417 4.25001 16.5834C4.20835 16.5834 4.14842 16.5848 4.08335 16.5834C2.25408 16.544 0.583347 14.9584 0.41668 13.6667C0.375014 13.4584 0.54168 13.2501 0.79168 13.2084L19.3333 10.7501C19.4583 10.7501 19.5417 10.7501 19.625 10.8334C19.7083 10.9167 19.75 11.0001 19.7917 11.1251C20.0417 12.9584 18 14.8334 14.4167 16.0417C14.3333 16.0834 14.2083 16.0834 14.125 16.0417C13.9167 15.9584 13.625 15.8751 13.125 15.8751C12.4583 15.8751 12.125 16.0417 11.75 16.2501C11.3333 16.3751 10.875 16.6251 10 16.6251ZM6.87501 14.9584C7.75001 14.9584 8.20835 15.2084 8.62501 15.4167C9.00001 15.6251 9.33335 15.7917 10 15.7917C10.6667 15.7917 11 15.6251 11.375 15.4167C11.7917 15.2084 12.25 14.9584 13.125 14.9584C13.5833 14.9584 13.9583 15.0001 14.2917 15.1667C16.9583 14.2501 18.75 12.8751 18.9167 11.6251L1.37501 13.9584C1.70835 14.7084 2.75001 15.3751 4.25001 15.7501C4.62501 15.7084 4.83335 15.5417 5.12501 15.4167C5.54168 15.2084 6.00001 14.9584 6.87501 14.9584ZM9.87501 11.1667C9.75001 11.1667 9.66668 11.1251 9.58335 11.0417C9.50001 10.9584 9.45835 10.8334 9.45835 10.7084C9.83335 7.08339 9.41668 3.83339 8.16668 0.791721C8.08335 0.625054 8.12501 0.458387 8.29168 0.333387C8.41668 0.208387 8.62501 0.208387 8.75001 0.291721C13.5417 2.79172 17.0833 5.75005 19.5 9.29172C19.5833 9.41672 19.5833 9.58339 19.5417 9.70839C19.5 9.83339 19.375 9.91672 19.2083 9.95839L9.95835 11.2084C9.91668 11.1667 9.91668 11.1667 9.87501 11.1667ZM9.37501 1.54172C10.3333 4.25005 10.625 7.12506 10.375 10.2917L18.4167 9.20839C16.25 6.25005 13.2917 3.70839 9.37501 1.54172ZM0.625014 12.4167C0.500014 12.4167 0.375014 12.3751 0.29168 12.2501C0.208347 12.1251 0.16668 11.9584 0.250014 11.8334C1.95835 7.70839 4.00001 4.79172 6.66668 2.66672C6.75001 2.58339 6.91668 2.54172 7.04168 2.58339C7.16668 2.62505 7.25001 2.70839 7.33335 2.83339C8.37501 5.08339 8.75001 7.79172 8.41668 11.0834C8.41668 11.2917 8.25001 11.4167 8.04168 11.4584L0.66668 12.3751L0.625014 12.4167ZM6.75001 3.66672C4.54168 5.58339 2.75001 8.08339 1.29168 11.5001L7.58335 10.6667C7.83335 7.87505 7.54168 5.58339 6.75001 3.66672Z" fill="#FF3D54"/>
</svg>
