<svg width="26" height="26" viewBox="0 0 26 26" fill="none" xmlns="http://www.w3.org/2000/svg">
<path fill-rule="evenodd" clip-rule="evenodd" d="M0.210938 0.812402C0.210938 0.481032 0.479567 0.212402 0.810938 0.212402H5.97031C6.30168 0.212402 6.57031 0.481032 6.57031 0.812402V5.97178C6.57031 6.30315 6.30168 6.57178 5.97031 6.57178H0.810938C0.479567 6.57178 0.210938 6.30315 0.210938 5.97178V0.812402ZM1.41094 1.4124V5.37178H5.37031V1.4124H1.41094Z" fill="#FF3D54"/>
<path fill-rule="evenodd" clip-rule="evenodd" d="M9.81875 0.812402C9.81875 0.481032 10.0874 0.212402 10.4187 0.212402H15.5781C15.9095 0.212402 16.1781 0.481032 16.1781 0.812402V5.97178C16.1781 6.30315 15.9095 6.57178 15.5781 6.57178H10.4187C10.0874 6.57178 9.81875 6.30315 9.81875 5.97178V0.812402ZM11.0187 1.4124V5.37178H14.9781V1.4124H11.0187Z" fill="#FF3D54"/>
<path fill-rule="evenodd" clip-rule="evenodd" d="M19.4266 0.812402C19.4266 0.481032 19.6952 0.212402 20.0266 0.212402H25.1859C25.5173 0.212402 25.7859 0.481032 25.7859 0.812402V5.97178C25.7859 6.30315 25.5173 6.57178 25.1859 6.57178H20.0266C19.6952 6.57178 19.4266 6.30315 19.4266 5.97178V0.812402ZM20.6266 1.4124V5.37178H24.5859V1.4124H20.6266Z" fill="#FF3D54"/>
<path fill-rule="evenodd" clip-rule="evenodd" d="M0.210938 10.4203C0.210938 10.0889 0.479567 9.82031 0.810938 9.82031H5.97031C6.30168 9.82031 6.57031 10.0889 6.57031 10.4203V15.5797C6.57031 15.9111 6.30168 16.1797 5.97031 16.1797H0.810938C0.479567 16.1797 0.210938 15.9111 0.210938 15.5797V10.4203ZM1.41094 11.0203V14.9797H5.37031V11.0203H1.41094Z" fill="#FF3D54"/>
<path fill-rule="evenodd" clip-rule="evenodd" d="M9.81875 10.4203C9.81875 10.0889 10.0874 9.82031 10.4187 9.82031H15.5781C15.9095 9.82031 16.1781 10.0889 16.1781 10.4203V15.5797C16.1781 15.9111 15.9095 16.1797 15.5781 16.1797H10.4187C10.0874 16.1797 9.81875 15.9111 9.81875 15.5797V10.4203ZM11.0187 11.0203V14.9797H14.9781V11.0203H11.0187Z" fill="#FF3D54"/>
<path fill-rule="evenodd" clip-rule="evenodd" d="M19.4266 10.4203C19.4266 10.0889 19.6952 9.82031 20.0266 9.82031H25.1859C25.5173 9.82031 25.7859 10.0889 25.7859 10.4203V15.5797C25.7859 15.9111 25.5173 16.1797 25.1859 16.1797H20.0266C19.6952 16.1797 19.4266 15.9111 19.4266 15.5797V10.4203ZM20.6266 11.0203V14.9797H24.5859V11.0203H20.6266Z" fill="#FF3D54"/>
<path fill-rule="evenodd" clip-rule="evenodd" d="M0.210938 20.028C0.210938 19.6966 0.479567 19.428 0.810938 19.428H5.97031C6.30168 19.428 6.57031 19.6966 6.57031 20.028V25.1874C6.57031 25.5187 6.30168 25.7874 5.97031 25.7874H0.810938C0.479567 25.7874 0.210938 25.5187 0.210938 25.1874V20.028ZM1.41094 20.628V24.5874H5.37031V20.628H1.41094Z" fill="#FF3D54"/>
<path fill-rule="evenodd" clip-rule="evenodd" d="M9.81875 20.028C9.81875 19.6966 10.0874 19.428 10.4187 19.428H15.5781C15.9095 19.428 16.1781 19.6966 16.1781 20.028V25.1874C16.1781 25.5187 15.9095 25.7874 15.5781 25.7874H10.4187C10.0874 25.7874 9.81875 25.5187 9.81875 25.1874V20.028ZM11.0187 20.628V24.5874H14.9781V20.628H11.0187Z" fill="#FF3D54"/>
<path fill-rule="evenodd" clip-rule="evenodd" d="M19.4266 20.028C19.4266 19.6966 19.6952 19.428 20.0266 19.428H25.1859C25.5173 19.428 25.7859 19.6966 25.7859 20.028V25.1874C25.7859 25.5187 25.5173 25.7874 25.1859 25.7874H20.0266C19.6952 25.7874 19.4266 25.5187 19.4266 25.1874V20.028ZM20.6266 20.628V24.5874H24.5859V20.628H20.6266Z" fill="#FF3D54"/>
</svg>
