<svg width="100" height="100" viewBox="0 0 100 100" fill="none" xmlns="http://www.w3.org/2000/svg">
<path d="M1.23439 2.37979L1.75576 1.75576C3.31987 0.191643 5.74783 0.0178509 7.50391 1.23439L8.12794 1.75576L50 43.6288L91.872 1.75576C93.6317 -0.00387147 96.4846 -0.00387147 98.2442 1.75576C100.004 3.51539 100.004 6.36831 98.2442 8.12794L56.3712 50L98.2442 91.872C99.8083 93.4362 99.9821 95.8641 98.7656 97.6202L98.2442 98.2442C96.6801 99.8083 94.2522 99.9821 92.4961 98.7656L91.872 98.2442L50 56.3712L8.12794 98.2442C6.36831 100.004 3.51539 100.004 1.75576 98.2442C-0.00387147 96.4846 -0.00387147 93.6317 1.75576 91.872L43.6288 50L1.75576 8.12794C0.191643 6.56382 0.0178509 4.13587 1.23439 2.37979L1.75576 1.75576L1.23439 2.37979Z" fill="#222222"/>
</svg>
