<svg width="30" height="30" viewBox="0 0 30 30" fill="none" xmlns="http://www.w3.org/2000/svg">
<path d="M17.8232 10.1976C17.8232 10.6684 17.8232 11.1393 17.8232 11.6101C17.8232 12.7401 17.8232 13.8702 17.8232 15.0033C17.8232 16.3656 17.8232 17.7279 17.8232 19.0902C17.8232 20.2705 17.8232 21.4539 17.8232 22.6341C17.8232 23.2054 17.7981 23.783 17.8232 24.3511C17.8232 24.3605 17.8232 24.3668 17.8232 24.3762C18.0335 24.1659 18.2407 23.9588 18.451 23.7484C17.3963 23.7484 16.3416 23.7484 15.2869 23.7484C13.6013 23.7484 11.9125 23.7484 10.2269 23.7484C9.84083 23.7484 9.45474 23.7484 9.07178 23.7484C9.28209 23.9588 9.48927 24.1659 9.69958 24.3762C9.68702 23.0265 8.83636 21.8494 7.57764 21.3848C6.37856 20.9422 4.93464 21.3346 4.11852 22.3171C3.63198 22.9009 3.36203 23.6135 3.35575 24.3762C3.56606 24.1659 3.77323 23.9588 3.98354 23.7484C3.31494 23.7484 2.64321 23.7484 1.97461 23.7484C1.95892 23.7484 1.68897 23.7641 1.67955 23.7453C1.68583 23.7579 1.82394 23.7736 1.69838 23.7422C1.68583 23.739 1.59794 23.7202 1.59794 23.7139C1.62305 23.7233 1.64502 23.7359 1.67013 23.7453C1.64502 23.7327 1.61991 23.7202 1.5948 23.7076C1.56969 23.6951 1.54771 23.6794 1.5226 23.6637C1.40332 23.5978 1.61049 23.761 1.51946 23.6606C1.50377 23.6417 1.4818 23.6197 1.45982 23.6009C1.35938 23.5099 1.5226 23.7171 1.45668 23.5978C1.43471 23.557 1.41274 23.5099 1.38449 23.4722C1.34054 23.4094 1.41902 23.6135 1.3939 23.4848C1.39077 23.4754 1.35624 23.3655 1.36565 23.3624C1.35624 23.3655 1.37507 23.5162 1.37193 23.3561C1.37193 23.3498 1.37193 23.3467 1.37193 23.3404C1.37193 23.309 1.37193 23.2745 1.37193 23.2431C1.37193 22.1758 1.37193 21.1086 1.37193 20.0413C1.37193 18.2929 1.37193 16.5446 1.37193 14.7962C1.37193 13.4527 1.37193 12.1061 1.37193 10.7626C1.37193 10.6151 1.37193 10.4644 1.37193 10.3169C1.37193 10.2823 1.37193 10.2478 1.37193 10.2164C1.37193 10.2102 1.37193 10.2039 1.37193 10.1945C1.37193 10.1788 1.37193 10.1568 1.37193 10.1474C1.37193 10.0187 1.37193 10.1882 1.36251 10.185C1.35624 10.1819 1.39704 10.0218 1.40646 10.0218C1.41588 10.0218 1.34368 10.1411 1.39077 10.0563C1.41274 10.0218 1.43157 9.98415 1.45354 9.94962C1.51632 9.83975 1.38135 10.003 1.44413 9.96217C1.46924 9.94648 1.49749 9.90881 1.51632 9.88998C1.60735 9.78953 1.40018 9.95276 1.51946 9.88684C1.54457 9.87428 1.56655 9.85859 1.59166 9.84289C1.60421 9.83662 1.61677 9.83034 1.62933 9.82406C1.69211 9.79581 1.67955 9.79895 1.5948 9.83975C1.5948 9.83034 1.69838 9.8115 1.71722 9.80523C1.85219 9.76442 1.5791 9.80209 1.72036 9.80523C1.72977 9.80523 1.75175 9.80523 1.76744 9.80523C1.78 9.80523 1.78941 9.80523 1.80197 9.80523C1.86161 9.80523 1.91811 9.80523 1.97775 9.80523C2.38581 9.80523 2.79074 9.80523 3.1988 9.80523C3.29297 9.80523 3.384 9.80523 3.47817 9.80523C3.26786 9.59492 3.06069 9.38775 2.85038 9.17744C2.85038 10.546 3.26472 11.9209 4.05574 13.0383C4.86559 14.1841 5.97992 15.0441 7.292 15.5338C9.91616 16.5132 13.03 15.6656 14.7972 13.4904C15.7923 12.2662 16.3479 10.7563 16.3479 9.1743C16.1376 9.38461 15.9304 9.59178 15.7201 9.80209C16.1658 9.80209 16.6084 9.80209 17.0541 9.80209C17.1515 9.80209 17.2519 9.80209 17.3492 9.80209C17.3743 9.80209 17.3963 9.80209 17.4214 9.80209C17.4245 9.80209 17.4308 9.80209 17.434 9.80209C17.4559 9.80209 17.4779 9.80209 17.4999 9.80523C17.5501 9.80836 17.5281 9.80523 17.4402 9.79581C17.4434 9.78953 17.6035 9.83348 17.6035 9.83975C17.525 9.80523 17.5062 9.79581 17.5501 9.81778C17.5689 9.8272 17.5878 9.83661 17.6066 9.84603C17.6317 9.85859 17.6537 9.87428 17.6788 9.88998C17.7353 9.92765 17.7259 9.92137 17.6505 9.86487C17.66 9.85859 17.7259 9.93706 17.7384 9.94962C17.7824 9.99984 17.7761 9.99042 17.7196 9.91823C17.7353 9.9402 17.751 9.96217 17.7635 9.98728C17.7698 9.99984 17.8295 10.0815 17.82 10.0971C17.7855 10.0124 17.7792 9.99984 17.8012 10.0658C17.8106 10.094 17.8169 10.1191 17.8232 10.1474C17.8357 10.2164 17.8357 10.2039 17.82 10.1066C17.8232 10.1411 17.8232 10.1693 17.8232 10.1976C17.8295 10.5272 18.1057 10.8411 18.451 10.8254C18.7837 10.8097 19.085 10.5492 19.0788 10.1976C19.0662 9.5855 18.7303 8.99224 18.1653 8.72857C17.8514 8.58104 17.5375 8.55592 17.2017 8.55592C16.7089 8.55592 16.216 8.55592 15.7201 8.55592C15.3811 8.55592 15.0923 8.84471 15.0923 9.18371C15.0923 9.32183 15.0892 9.45994 15.0797 9.59805C15.0766 9.67025 15.0703 9.74245 15.0609 9.81464C15.0578 9.85859 15.0515 9.89939 15.0452 9.94334C15.0295 10.094 15.0703 9.79895 15.0452 9.94648C14.995 10.2541 14.9291 10.5586 14.838 10.8568C14.791 11.0043 14.7407 11.1487 14.6842 11.2899C14.6811 11.2994 14.6654 11.3559 14.6528 11.3684C14.6623 11.3433 14.6748 11.3182 14.6842 11.2962C14.6748 11.3213 14.6623 11.3465 14.6497 11.3716C14.6152 11.4469 14.5806 11.5222 14.543 11.5976C14.408 11.8675 14.2542 12.1312 14.0816 12.3792C14.0439 12.4357 13.9999 12.489 13.9623 12.5455C13.8775 12.6617 14.0502 12.4357 13.9591 12.5487C13.934 12.5801 13.9089 12.6114 13.8807 12.646C13.7865 12.7621 13.686 12.8751 13.5825 12.985C13.482 13.0886 13.3816 13.189 13.2748 13.2863C13.1713 13.3805 13.0426 13.5312 12.9139 13.5908C13.0488 13.528 12.9515 13.5594 12.9107 13.5908C12.8888 13.6065 12.8668 13.6222 12.8448 13.6379C12.782 13.6818 12.7224 13.7258 12.6596 13.7666C12.5278 13.8545 12.3928 13.9361 12.2547 14.0146C12.1354 14.0805 12.0098 14.1433 11.8874 14.2029C11.8498 14.2217 11.8121 14.2374 11.7744 14.2563C11.7619 14.2625 11.7493 14.2688 11.7368 14.272C11.674 14.3002 11.6865 14.2939 11.7713 14.2563C11.7273 14.3033 11.5955 14.3253 11.539 14.3473C11.2471 14.454 10.9489 14.5388 10.6444 14.5984C10.5753 14.611 10.5031 14.6267 10.4341 14.6361C10.4058 14.6392 10.3336 14.6643 10.3054 14.6549C10.3117 14.658 10.4623 14.6361 10.3431 14.6486C10.1704 14.6675 9.99778 14.6832 9.82199 14.6894C9.49868 14.702 9.18165 14.6832 8.86147 14.6486C8.78614 14.6392 8.83636 14.6737 8.89914 14.6549C8.87089 14.6643 8.80184 14.6392 8.77045 14.6361C8.70139 14.6235 8.62919 14.611 8.56014 14.5984C8.40005 14.567 8.2431 14.5293 8.08615 14.4823C7.9449 14.4415 7.80365 14.3975 7.66553 14.3473C7.59962 14.3222 7.53684 14.2971 7.47092 14.272C7.3328 14.2186 7.59962 14.3316 7.46778 14.272C7.42383 14.2531 7.37989 14.2311 7.33594 14.2123C7.06599 14.0868 6.8086 13.9424 6.56062 13.7791C6.49156 13.7352 6.42251 13.6881 6.35659 13.6379C6.33462 13.6222 6.31264 13.6065 6.29067 13.5908C6.24673 13.5594 6.14942 13.5249 6.28753 13.5908C6.16197 13.5312 6.04269 13.393 5.94225 13.2989C5.71938 13.098 5.50907 12.8783 5.32073 12.646C5.29562 12.6146 5.27051 12.5832 5.24226 12.5487C5.15751 12.4451 5.31132 12.646 5.23912 12.5455C5.18576 12.4733 5.13554 12.4011 5.08217 12.3289C4.98487 12.1877 4.89384 12.0402 4.80909 11.8926C4.72747 11.7482 4.65214 11.6007 4.58308 11.45C4.56425 11.4124 4.54855 11.3747 4.53286 11.337C4.47322 11.2021 4.58622 11.4689 4.53286 11.3339C4.50147 11.2554 4.47322 11.1769 4.44497 11.0985C4.32569 10.7657 4.2378 10.4236 4.17816 10.0752C4.17188 10.0344 4.1656 9.99042 4.15932 9.94962C4.13735 9.82092 4.17502 10.0846 4.15932 9.94648C4.14991 9.86173 4.14049 9.77384 4.13421 9.68908C4.12165 9.52272 4.11538 9.35636 4.11538 9.18999C4.11538 8.85098 3.82659 8.5622 3.48759 8.5622C3.16114 8.5622 2.83468 8.5622 2.50509 8.5622C2.13156 8.5622 1.71722 8.5214 1.34996 8.6187C0.628 8.80704 0.141462 9.47877 0.128906 10.2133C0.128906 10.2918 0.128906 10.3734 0.128906 10.4518C0.128906 11.6792 0.128906 12.9034 0.128906 14.1307C0.128906 15.9325 0.128906 17.7311 0.128906 19.5328C0.128906 20.7382 0.128906 21.9435 0.128906 23.1489C0.128906 23.2211 0.128906 23.2964 0.128906 23.3686C0.141462 24.1408 0.693918 24.8596 1.47552 24.9852C1.80511 25.0386 2.14725 25.0166 2.47998 25.0166C2.9006 25.0166 3.32122 25.0166 3.7387 25.0166C3.82032 25.0166 3.90193 25.0166 3.98668 25.0166C4.32883 25.0166 4.61133 24.7278 4.61447 24.3888C4.61447 24.3229 4.61761 24.257 4.62075 24.191C4.62389 24.1628 4.62703 24.1345 4.63017 24.1031C4.63644 24.0153 4.60819 24.2287 4.62389 24.1408C4.649 24.0153 4.67411 23.8928 4.71492 23.7704C4.72747 23.7359 4.75258 23.6135 4.78084 23.5946C4.7777 23.5978 4.71492 23.7359 4.76828 23.6292C4.78084 23.6041 4.79339 23.5789 4.80595 23.5538C4.86245 23.444 4.92523 23.3372 4.99742 23.2368C5.00684 23.2211 5.03509 23.1772 5.04765 23.1709C5.04451 23.174 4.9472 23.287 5.02567 23.2023C5.06334 23.1615 5.09787 23.1207 5.13554 23.0798C5.1732 23.039 5.21401 23.0014 5.25168 22.9637C5.27679 22.9417 5.3019 22.9198 5.33015 22.8947C5.41176 22.8225 5.33329 22.8633 5.31446 22.9041C5.33015 22.8695 5.41804 22.8287 5.44943 22.8099C5.49966 22.7754 5.55302 22.744 5.60952 22.7126C5.6566 22.6843 5.70683 22.6624 5.75705 22.6373C5.76333 22.6341 5.76961 22.631 5.77588 22.6278C5.83866 22.5996 5.82611 22.6059 5.74135 22.6404C5.75391 22.6216 5.81669 22.609 5.83866 22.6027C5.95166 22.5619 6.06781 22.5305 6.18395 22.5054C6.2122 22.4991 6.24045 22.496 6.2687 22.4897C6.35659 22.474 6.253 22.4709 6.23103 22.4929C6.26242 22.4646 6.40367 22.4772 6.44762 22.4772C6.5669 22.474 6.68304 22.4803 6.79918 22.4897C6.91218 22.4991 6.77721 22.4897 6.76152 22.4834C6.78349 22.4929 6.82116 22.4929 6.84627 22.4991C6.91532 22.5117 6.98438 22.5274 7.05344 22.5462C7.1068 22.5619 7.16016 22.5776 7.21352 22.5965C7.23864 22.6059 7.26689 22.6153 7.292 22.6247C7.42383 22.6718 7.19783 22.5745 7.2763 22.6184C7.38617 22.6781 7.49917 22.7283 7.60275 22.7973C7.64984 22.8287 7.69378 22.8601 7.73773 22.8915C7.80679 22.9386 7.65298 22.8099 7.70634 22.8695C7.72831 22.8947 7.7597 22.9135 7.78481 22.9355C7.87898 23.0171 7.95746 23.1081 8.04221 23.2023C8.09243 23.2588 8.07046 23.1991 8.02024 23.1709C8.04221 23.1834 8.06732 23.2337 8.07988 23.2556C8.12068 23.3121 8.15521 23.3686 8.18974 23.4283C8.22113 23.4816 8.24938 23.5381 8.27763 23.5915C8.27763 23.5884 8.3153 23.6606 8.31216 23.6668C8.27763 23.5821 8.27135 23.5695 8.29646 23.6323C8.30274 23.6449 8.30588 23.6574 8.31216 23.67C8.36238 23.8018 8.40005 23.9399 8.42516 24.078C8.43144 24.1031 8.43144 24.1408 8.44086 24.1628C8.41888 24.1063 8.4283 24.0466 8.43772 24.1471C8.44399 24.2287 8.44713 24.3072 8.45027 24.3888C8.45341 24.7278 8.73592 25.0166 9.07806 25.0166C10.1328 25.0166 11.1874 25.0166 12.2421 25.0166C13.9277 25.0166 15.6165 25.0166 17.3021 25.0166C17.6882 25.0166 18.0743 25.0166 18.4573 25.0166C18.7963 25.0166 19.085 24.7278 19.085 24.3888C19.085 23.9179 19.085 23.4471 19.085 22.9763C19.085 21.8462 19.085 20.7162 19.085 19.5831C19.085 18.2208 19.085 16.8584 19.085 15.4961C19.085 14.3159 19.085 13.1325 19.085 11.9523C19.085 11.381 19.1007 10.8066 19.085 10.2353C19.085 10.2258 19.085 10.2196 19.085 10.2102C19.085 9.88056 18.7963 9.56667 18.4573 9.58236C18.112 9.5855 17.8232 9.84603 17.8232 10.1976Z" fill="white"/>
<path d="M28.6214 19.2405C28.6214 20.1822 28.6214 21.1239 28.6214 22.0687C28.6214 22.4862 28.6245 22.9006 28.6214 23.318C28.6214 23.3306 28.6214 23.3431 28.6214 23.3557C28.6214 23.3588 28.6214 23.362 28.6214 23.362C28.6214 23.3777 28.6214 23.4122 28.6214 23.4059C28.6214 23.5221 28.6465 23.318 28.6245 23.3902C28.6182 23.4091 28.5994 23.5346 28.5868 23.5346C28.5806 23.5346 28.6622 23.3934 28.6025 23.5001C28.59 23.5252 28.5774 23.5503 28.5617 23.5723C28.5523 23.588 28.5366 23.6068 28.5272 23.6257C28.499 23.6947 28.6088 23.5566 28.5492 23.5943C28.5335 23.6037 28.5209 23.6257 28.5084 23.6382C28.4927 23.6539 28.4801 23.6665 28.4644 23.679C28.4299 23.7104 28.4456 23.6978 28.5115 23.6445C28.5146 23.657 28.3954 23.7167 28.3891 23.7198C28.3828 23.723 28.3389 23.7512 28.3326 23.7481C28.3263 23.7449 28.4613 23.7041 28.364 23.7292C28.3389 23.7355 28.3075 23.7418 28.2824 23.7512C28.207 23.7732 28.2573 23.7198 28.3232 23.7481C28.3043 23.7387 28.2541 23.7512 28.2321 23.7512C28.1694 23.7512 28.1066 23.7512 28.0469 23.7512C27.5102 23.7512 26.9703 23.7512 26.4335 23.7512C26.6438 23.9615 26.851 24.1687 27.0613 24.379C27.0488 23.0293 26.1981 21.8521 24.9394 21.3876C23.7403 20.945 22.2964 21.3374 21.4803 22.3198C20.9937 22.9037 20.7238 23.6162 20.7175 24.379C20.9278 24.1687 21.135 23.9615 21.3453 23.7512C20.504 23.7512 19.6659 23.7512 18.8247 23.7512C18.7023 23.7512 18.5799 23.7512 18.4574 23.7512C18.6678 23.9615 18.8749 24.1687 19.0852 24.379C19.0852 24.0086 19.0852 23.6413 19.0852 23.271C19.0852 22.3858 19.0852 21.4974 19.0852 20.6123C19.0852 19.5387 19.0852 18.4683 19.0852 17.3948C19.0852 16.4688 19.0852 15.5397 19.0852 14.6137C19.0852 14.1648 19.1041 13.7097 19.0852 13.2577C19.0852 13.2514 19.0852 13.2451 19.0852 13.2388C18.8749 13.4492 18.6678 13.6563 18.4574 13.8666C19.2045 13.8666 19.9516 13.8666 20.6987 13.8666C21.7157 13.8666 22.7327 13.8666 23.7497 13.8666C23.8313 13.8666 23.9129 13.8666 23.9946 13.8666C24.0291 13.8666 24.0636 13.8698 24.0981 13.8698C24.2111 13.8729 23.9914 13.8447 24.1452 13.8792C24.1672 13.8855 24.1923 13.8917 24.2143 13.898C24.2331 13.9043 24.3618 13.942 24.2739 13.9137C24.2017 13.8917 24.2708 13.9106 24.2865 13.92C24.3147 13.9357 24.343 13.9482 24.3712 13.9639C24.3932 13.9765 24.5282 14.0738 24.4654 14.0236C24.4026 13.9734 24.4685 14.0267 24.4748 14.0361C24.4968 14.0581 24.5219 14.0801 24.5439 14.1021C24.5658 14.1272 24.5878 14.1491 24.6098 14.1743C24.7542 14.3406 24.8923 14.5133 25.0335 14.6796C25.7398 15.5209 26.4429 16.3621 27.1492 17.2033C27.4662 17.5832 27.7833 17.9598 28.1003 18.3396C28.1945 18.4527 28.2886 18.5657 28.3859 18.6787C28.4111 18.7069 28.433 18.7352 28.4581 18.7634C28.4644 18.7697 28.4707 18.7791 28.477 18.7854C28.5052 18.8105 28.4173 18.6912 28.4613 18.7665C28.4895 18.8168 28.5241 18.867 28.5523 18.9172C28.568 18.9455 28.59 19.0239 28.5523 18.9047C28.5617 18.9298 28.568 18.9517 28.5774 18.9769C28.5806 18.9894 28.6339 19.1338 28.6214 19.1464C28.6214 19.1464 28.612 18.9863 28.6182 19.1307C28.6214 19.1715 28.6214 19.206 28.6214 19.2405C28.6276 19.5701 28.907 19.884 29.2492 19.8683C29.585 19.8526 29.8832 19.5921 29.8769 19.2405C29.8675 18.732 29.6855 18.2894 29.3622 17.9002C29.3057 17.8343 29.2523 17.7684 29.1958 17.7024C28.9227 17.376 28.6465 17.0464 28.3734 16.7199C27.6326 15.8348 26.8887 14.9464 26.1479 14.0612C25.9438 13.8164 25.7398 13.5716 25.5358 13.3299C25.1403 12.859 24.5627 12.6142 23.9506 12.611C23.0435 12.6079 22.1332 12.611 21.226 12.611C20.3188 12.611 19.4085 12.5985 18.5014 12.611C18.4857 12.611 18.47 12.611 18.4543 12.611C18.1153 12.611 17.8265 12.8998 17.8265 13.2388C17.8265 13.6092 17.8265 13.9765 17.8265 14.3469C17.8265 15.2321 17.8265 16.1204 17.8265 17.0056C17.8265 18.0791 17.8265 19.1495 17.8265 20.223C17.8265 21.149 17.8265 22.0781 17.8265 23.0041C17.8265 23.4561 17.814 23.9082 17.8265 24.3602C17.8265 24.3664 17.8265 24.3727 17.8265 24.379C17.8265 24.718 18.1153 25.0068 18.4543 25.0068C19.2955 25.0068 20.1336 25.0068 20.9749 25.0068C21.0973 25.0068 21.2197 25.0068 21.3421 25.0068C21.6843 25.0068 21.9668 24.718 21.9699 24.379C21.9699 24.3131 21.9731 24.2472 21.9762 24.1812C21.9793 24.153 21.9825 24.1247 21.9856 24.0934C21.9919 24.0055 21.9637 24.2189 21.9793 24.131C22.0045 24.0055 22.0296 23.883 22.0704 23.7606C22.0829 23.7261 22.108 23.6037 22.1363 23.5848C22.1332 23.588 22.0704 23.7261 22.1237 23.6194C22.1363 23.5943 22.1489 23.5692 22.1614 23.544C22.2179 23.4342 22.2807 23.3275 22.3529 23.227C22.3623 23.2113 22.3906 23.1674 22.4031 23.1611C22.4 23.1642 22.3027 23.2772 22.3811 23.1925C22.4188 23.1517 22.4533 23.1109 22.491 23.0701C22.5287 23.0292 22.5695 22.9916 22.6071 22.9539C22.6322 22.9319 22.6574 22.91 22.6856 22.8849C22.7672 22.8127 22.6888 22.8535 22.6699 22.8943C22.6856 22.8597 22.7735 22.8189 22.8049 22.8001C22.8551 22.7656 22.9085 22.7342 22.965 22.7028C23.0121 22.6745 23.0623 22.6526 23.1125 22.6275C23.1973 22.5835 23.1376 22.5741 23.0968 22.6306C23.1125 22.6118 23.1721 22.5992 23.1941 22.5929C23.3071 22.5521 23.4233 22.5207 23.5394 22.4956C23.5677 22.4893 23.5959 22.4862 23.6242 22.4799C23.712 22.4642 23.6116 22.4611 23.5865 22.4831C23.6179 22.4548 23.7591 22.4674 23.8031 22.4674C23.9224 22.4642 24.0385 22.4705 24.1546 22.4799C24.2676 22.4893 24.1295 22.4799 24.117 22.4737C24.1389 22.4831 24.1766 22.4831 24.2017 22.4893C24.2708 22.5019 24.3398 22.5176 24.4089 22.5364C24.4623 22.5521 24.5156 22.5678 24.569 22.5867C24.5941 22.5961 24.6223 22.6055 24.6475 22.6149C24.7793 22.662 24.5533 22.5647 24.6318 22.6086C24.7416 22.6683 24.8546 22.7185 24.9582 22.7875C25.0053 22.8189 25.0492 22.8503 25.0932 22.8817C25.1622 22.9288 25.0084 22.8001 25.0618 22.8597C25.0838 22.8849 25.1152 22.9037 25.1403 22.9257C25.2344 23.0073 25.3161 23.0983 25.3977 23.1925C25.4479 23.249 25.4291 23.1893 25.3757 23.1611C25.3977 23.1736 25.4228 23.2239 25.4353 23.2458C25.4761 23.3023 25.5107 23.3588 25.5452 23.4185C25.5766 23.4718 25.6048 23.5283 25.6331 23.5817C25.6331 23.5786 25.6708 23.6508 25.6676 23.657C25.6331 23.5723 25.6268 23.5597 25.6519 23.6225C25.6582 23.6351 25.6613 23.6476 25.6676 23.6602C25.7178 23.792 25.7555 23.9301 25.7806 24.0682C25.7869 24.0934 25.7869 24.131 25.7963 24.153C25.7743 24.0965 25.7838 24.0369 25.7932 24.1373C25.7995 24.2189 25.8026 24.2974 25.8057 24.379C25.8089 24.718 26.0914 25.0068 26.4335 25.0068C26.9295 25.0068 27.4286 25.0068 27.9245 25.0068C28.1976 25.0068 28.477 25.0193 28.7406 24.9283C29.381 24.7055 29.7985 24.1624 29.8738 23.4938C29.9115 23.1423 29.8832 22.775 29.8832 22.4234C29.8832 21.7799 29.8832 21.1365 29.8832 20.493C29.8832 20.0755 29.8832 19.6611 29.8832 19.2437C29.8832 18.9141 29.5944 18.6002 29.2554 18.6159C28.9102 18.6284 28.6214 18.889 28.6214 19.2405ZM8.44419 24.379C8.44419 24.4449 8.44105 24.5108 8.43791 24.5768C8.43478 24.605 8.43164 24.6333 8.4285 24.6646C8.42222 24.7525 8.45047 24.5391 8.43478 24.627C8.40966 24.7525 8.38455 24.875 8.34375 24.9974C8.33119 25.0319 8.30608 25.1543 8.27783 25.1732C8.28097 25.17 8.34375 25.0319 8.29038 25.1386C8.27783 25.1637 8.26527 25.1889 8.25272 25.214C8.19622 25.3238 8.13344 25.4306 8.06124 25.531C8.05182 25.5467 8.02671 25.5906 8.01102 25.5969C8.06124 25.5718 8.08321 25.509 8.03299 25.5655C7.99532 25.6063 7.96079 25.6471 7.92313 25.6879C7.87918 25.7319 7.83524 25.7758 7.79129 25.8166C7.77246 25.8355 7.75048 25.8512 7.72851 25.87C7.6469 25.9422 7.72537 25.9014 7.74421 25.8606C7.72851 25.8983 7.62179 25.9485 7.59354 25.9673C7.54645 25.9987 7.49937 26.027 7.45228 26.0521C7.39892 26.0835 7.34242 26.1086 7.28592 26.1368C7.21059 26.1745 7.29848 26.1557 7.32045 26.1243C7.30475 26.1431 7.24511 26.1557 7.22314 26.1619C7.11014 26.2027 6.994 26.2341 6.87786 26.2592C6.84961 26.2655 6.82135 26.2687 6.7931 26.2749C6.68324 26.2969 6.81508 26.2687 6.83077 26.2718C6.76171 26.2687 6.68324 26.2875 6.61418 26.2875C6.4949 26.2906 6.3819 26.2844 6.26262 26.2749C6.11823 26.2655 6.37248 26.2969 6.27832 26.2781C6.25007 26.2718 6.22182 26.2687 6.19356 26.2624C6.13079 26.2498 6.06801 26.2341 6.00837 26.2184C5.94873 26.2027 5.88595 26.1808 5.82631 26.1619C5.8012 26.1525 5.77295 26.1431 5.74783 26.1337C5.66936 26.1054 5.85456 26.1902 5.78236 26.1462C5.67564 26.0803 5.5595 26.0332 5.45591 25.9673C5.42452 25.9485 5.32094 25.8983 5.30524 25.8606C5.30838 25.8637 5.42138 25.961 5.33663 25.8826C5.31466 25.8637 5.29582 25.848 5.27385 25.8292C5.18282 25.7476 5.09807 25.6566 5.01646 25.5624C4.93798 25.4745 5.03215 25.5906 5.03843 25.5938C5.02587 25.5875 5.00076 25.5404 4.98821 25.5279C4.95682 25.4839 4.92543 25.4368 4.89718 25.3897C4.86579 25.3364 4.8344 25.283 4.80615 25.2265C4.79359 25.2014 4.78104 25.1763 4.76848 25.1512C4.71826 25.0507 4.74023 25.1449 4.77162 25.1669C4.74337 25.148 4.71826 25.0225 4.7057 24.9911C4.68687 24.9315 4.66803 24.8687 4.65234 24.809C4.63978 24.7525 4.62723 24.6992 4.61781 24.6427C4.60212 24.5548 4.59898 24.6552 4.62095 24.6803C4.60526 24.6615 4.61153 24.5736 4.60839 24.5516C4.59898 24.4355 4.59898 24.3162 4.60839 24.2001C4.61153 24.1718 4.61467 24.1436 4.61467 24.1122C4.62409 23.9992 4.61467 24.1342 4.60839 24.1499C4.63351 24.0871 4.63351 24.0055 4.6492 23.9395C4.67745 23.8234 4.71512 23.7104 4.75906 23.5974C4.78731 23.5189 4.7057 23.7073 4.74651 23.6319C4.75906 23.6068 4.76848 23.5817 4.78104 23.5566C4.81243 23.4938 4.84382 23.4342 4.88148 23.3745C4.90973 23.3275 4.94112 23.2804 4.97251 23.2364C4.98821 23.2144 5.0039 23.1925 5.0196 23.1705C5.06982 23.0952 4.91915 23.2866 5.01018 23.1831C5.09493 23.092 5.17341 23.001 5.26757 22.9162C5.28955 22.8974 5.30838 22.8817 5.33035 22.8629C5.38685 22.8127 5.32721 22.8346 5.29896 22.8849C5.3178 22.8472 5.39627 22.8127 5.43394 22.7907C5.53752 22.7216 5.64739 22.6651 5.76039 22.6086C5.86711 22.5553 5.72586 22.618 5.72586 22.6212C5.73214 22.6118 5.78864 22.5961 5.80433 22.5898C5.86397 22.5678 5.92361 22.549 5.98325 22.5302C6.03662 22.5145 6.09312 22.5019 6.14648 22.4893C6.17473 22.4831 6.20298 22.4768 6.23123 22.4737C6.37876 22.4485 6.17473 22.4768 6.23437 22.4705C6.35993 22.4611 6.48235 22.4517 6.60791 22.4548C6.66755 22.458 6.72405 22.4611 6.78369 22.4674C6.83705 22.4705 6.86216 22.5019 6.74602 22.4611C6.78369 22.4737 6.83391 22.4768 6.87158 22.4831C7.00341 22.5113 7.13211 22.549 7.25767 22.5961C7.28592 22.6055 7.35184 22.6526 7.27964 22.6024C7.19803 22.5459 7.31417 22.6212 7.33614 22.6306C7.39264 22.6589 7.44601 22.6871 7.49937 22.7185C7.55901 22.753 7.61551 22.7907 7.67201 22.8315C7.67829 22.8378 7.73165 22.866 7.73793 22.8817C7.67201 22.8284 7.65632 22.8189 7.69084 22.8472C7.70654 22.8597 7.72223 22.8723 7.73793 22.888C7.83838 22.9727 7.92627 23.0669 8.01416 23.1642C8.01729 23.1705 8.02357 23.1736 8.02671 23.1799C8.06752 23.2333 8.06124 23.2207 8.00474 23.1485C8.02671 23.1611 8.05182 23.2113 8.06438 23.2333C8.10519 23.2898 8.13971 23.3463 8.17424 23.4059C8.20563 23.4593 8.23388 23.5158 8.26213 23.5692C8.26213 23.566 8.2998 23.6382 8.29666 23.6445C8.26213 23.5597 8.25586 23.5472 8.28097 23.61C8.28724 23.6225 8.29038 23.6351 8.29666 23.6476C8.34688 23.7795 8.38455 23.9176 8.40966 24.0557C8.41594 24.0808 8.41594 24.1185 8.42536 24.1404C8.40339 24.0839 8.4128 24.0243 8.42222 24.1247C8.44105 24.2158 8.44419 24.2974 8.44419 24.379C8.44733 24.7086 8.72984 25.0225 9.07198 25.0068C9.41099 24.9911 9.70291 24.7306 9.69977 24.379C9.68722 23.0293 8.83656 21.8553 7.57784 21.3876C6.37562 20.9418 4.91601 21.3436 4.10616 22.3355C3.25865 23.3714 3.10484 24.8498 3.80796 26.0113C4.50795 27.1664 5.85456 27.7345 7.17292 27.4866C8.63881 27.2103 9.69036 25.848 9.70291 24.3821C9.70605 24.0526 9.41099 23.7387 9.07512 23.7544C8.72984 23.7638 8.44733 24.0243 8.44419 24.379Z" fill="white"/>
<path d="M25.8002 24.3796C25.8002 24.4455 25.797 24.5115 25.7939 24.5774C25.7908 24.6056 25.7876 24.6339 25.7845 24.6653C25.7782 24.7532 25.8065 24.5397 25.7908 24.6276C25.7656 24.7532 25.7405 24.8756 25.6997 24.998C25.6872 25.0325 25.6621 25.1549 25.6338 25.1738C25.637 25.1706 25.6997 25.0325 25.6464 25.1392C25.6338 25.1644 25.6213 25.1895 25.6087 25.2146C25.5522 25.3244 25.4894 25.4312 25.4172 25.5316C25.4078 25.5473 25.3827 25.5913 25.367 25.5975C25.4172 25.5724 25.4392 25.5128 25.389 25.5661C25.3513 25.6069 25.3168 25.6478 25.2791 25.6886C25.2352 25.7325 25.1912 25.7764 25.1473 25.8173C25.1284 25.8361 25.1065 25.8518 25.0845 25.8706C25.0029 25.9428 25.0814 25.902 25.1002 25.8612C25.0845 25.8989 24.9778 25.9491 24.9495 25.9679C24.9024 25.9993 24.8554 26.0276 24.8083 26.0527C24.7549 26.0841 24.6984 26.1092 24.6419 26.1374C24.5666 26.1751 24.6545 26.1563 24.6764 26.1249C24.6607 26.1437 24.6011 26.1563 24.5791 26.1625C24.4661 26.2033 24.35 26.2347 24.2338 26.2598C24.2056 26.2661 24.1773 26.2693 24.1491 26.2755C24.0392 26.2975 24.1711 26.2693 24.1868 26.2724C24.1177 26.2693 24.0392 26.2881 23.9702 26.2881C23.8509 26.2912 23.7379 26.285 23.6186 26.2755C23.4742 26.2661 23.7285 26.2975 23.6343 26.2787C23.606 26.2724 23.5778 26.2693 23.5495 26.263C23.4868 26.2504 23.424 26.2347 23.3643 26.219C23.3047 26.2033 23.2419 26.1814 23.1823 26.1625C23.1572 26.1531 23.1289 26.1437 23.1038 26.1343C23.0253 26.106 23.2105 26.1908 23.1383 26.1468C23.0316 26.0809 22.9155 26.0338 22.8119 25.9679C22.7805 25.9491 22.6769 25.8989 22.6612 25.8612C22.6644 25.8643 22.7774 25.9616 22.6926 25.8832C22.6706 25.8643 22.6518 25.8486 22.6298 25.8298C22.5388 25.7482 22.4541 25.6572 22.3724 25.563C22.294 25.4751 22.3881 25.5913 22.3944 25.5944C22.3819 25.5881 22.3567 25.541 22.3442 25.5285C22.3128 25.4845 22.2814 25.4374 22.2532 25.3904C22.2218 25.337 22.1904 25.2836 22.1621 25.2271C22.1496 25.202 22.137 25.1769 22.1245 25.1518C22.0742 25.0514 22.0962 25.1455 22.1276 25.1675C22.0993 25.1487 22.0742 25.0231 22.0617 24.9917C22.0429 24.9321 22.024 24.8693 22.0083 24.8097C21.9958 24.7532 21.9832 24.6998 21.9738 24.6433C21.9581 24.5554 21.955 24.6558 21.9769 24.681C21.9612 24.6621 21.9675 24.5742 21.9644 24.5523C21.955 24.4361 21.955 24.3168 21.9644 24.2007C21.9675 24.1724 21.9707 24.1442 21.9707 24.1128C21.9801 23.9998 21.9707 24.1348 21.9644 24.1505C21.9895 24.0877 21.9895 24.0061 22.0052 23.9402C22.0334 23.824 22.0711 23.711 22.115 23.598C22.1433 23.5195 22.0617 23.7079 22.1025 23.6325C22.115 23.6074 22.1245 23.5823 22.137 23.5572C22.1684 23.4944 22.1998 23.4348 22.2375 23.3752C22.2657 23.3281 22.2971 23.281 22.3285 23.237C22.3442 23.2151 22.3599 23.1931 22.3756 23.1711C22.4258 23.0958 22.2751 23.2873 22.3662 23.1837C22.4509 23.0926 22.5294 23.0016 22.6236 22.9169C22.6455 22.898 22.6644 22.8823 22.6863 22.8635C22.7428 22.8133 22.6832 22.8353 22.6549 22.8855C22.6738 22.8478 22.7523 22.8133 22.7899 22.7913C22.8935 22.7223 23.0034 22.6658 23.1164 22.6093C23.2231 22.5559 23.0818 22.6187 23.0818 22.6218C23.0881 22.6124 23.1446 22.5967 23.1603 22.5904C23.22 22.5684 23.2796 22.5496 23.3392 22.5308C23.3926 22.5151 23.4491 22.5025 23.5025 22.49C23.5307 22.4837 23.559 22.4774 23.5872 22.4743C23.7347 22.4492 23.5307 22.4774 23.5904 22.4711C23.7159 22.4617 23.8383 22.4523 23.9639 22.4554C24.0235 22.4586 24.08 22.4617 24.1397 22.468C24.193 22.4711 24.2181 22.5025 24.102 22.4617C24.1397 22.4743 24.1899 22.4774 24.2276 22.4837C24.3594 22.5119 24.4881 22.5496 24.6137 22.5967C24.6419 22.6061 24.7078 22.6532 24.6356 22.603C24.554 22.5465 24.6702 22.6218 24.6921 22.6312C24.7486 22.6595 24.802 22.6877 24.8554 22.7191C24.915 22.7536 24.9715 22.7913 25.028 22.8321C25.0343 22.8384 25.0876 22.8666 25.0939 22.8823C25.028 22.829 25.0123 22.8196 25.0468 22.8478C25.0625 22.8604 25.0782 22.8729 25.0939 22.8886C25.1944 22.9734 25.2823 23.0675 25.3701 23.1648C25.3733 23.1711 25.3796 23.1743 25.3827 23.1805C25.4235 23.2339 25.4172 23.2213 25.3607 23.1491C25.3827 23.1617 25.4078 23.2119 25.4204 23.2339C25.4612 23.2904 25.4957 23.3469 25.5302 23.4065C25.5616 23.4599 25.5899 23.5164 25.6181 23.5698C25.6181 23.5666 25.6558 23.6388 25.6526 23.6451C25.6181 23.5604 25.6118 23.5478 25.637 23.6106C25.6432 23.6231 25.6464 23.6357 25.6526 23.6482C25.7029 23.7801 25.7405 23.9182 25.7656 24.0563C25.7719 24.0814 25.7719 24.1191 25.7813 24.1411C25.7594 24.0846 25.7688 24.0249 25.7782 24.1254C25.797 24.2164 25.8002 24.298 25.8002 24.3796C25.8033 24.7092 26.0858 25.0231 26.428 25.0074C26.767 24.9917 27.0589 24.7312 27.0558 24.3796C27.0432 23.0299 26.1925 21.8559 24.9338 21.3882C23.7316 20.9425 22.272 21.3443 21.4621 22.3362C20.6146 23.372 20.4608 24.8505 21.1639 26.0119C21.8639 27.167 23.2105 27.7352 24.5289 27.4872C25.9948 27.2109 27.0463 25.8486 27.0589 24.3828C27.062 24.0532 26.767 23.7393 26.4311 23.755C26.0858 23.7644 25.8033 24.0249 25.8002 24.3796ZM15.0932 9.18083C15.0932 9.31894 15.0901 9.45705 15.0806 9.59517C15.0775 9.66736 15.0712 9.73956 15.0618 9.81176C15.0587 9.8557 15.0524 9.89651 15.0461 9.94045C15.0336 10.0691 15.0681 9.80548 15.0461 9.94359C14.9959 10.2512 14.93 10.5557 14.839 10.8539C14.795 10.9951 14.7479 11.1333 14.6914 11.2682C14.682 11.2933 14.6726 11.3467 14.6538 11.3655C14.6632 11.3404 14.6757 11.3153 14.6851 11.2933C14.6757 11.3185 14.6632 11.3436 14.6506 11.3687C14.6161 11.444 14.5816 11.5193 14.5439 11.5947C14.4089 11.8646 14.2551 12.1283 14.0825 12.3763C14.0448 12.4328 14.0008 12.4861 13.9632 12.5426C13.8816 12.6556 14.0322 12.461 13.9726 12.5301C13.9506 12.5552 13.9287 12.5834 13.9098 12.6117C13.8157 12.7278 13.7152 12.8408 13.6116 12.9507C13.4044 13.1704 13.1816 13.3713 12.9462 13.5597C12.8332 13.6507 13.0592 13.478 12.943 13.5628C12.921 13.5785 12.8991 13.5942 12.8771 13.613C12.8112 13.6601 12.7421 13.7072 12.6731 13.7543C12.5475 13.839 12.4188 13.9175 12.287 13.9928C12.1614 14.065 12.0327 14.1309 11.9009 14.1937C11.8444 14.222 11.7565 14.2816 11.6937 14.2879C11.7847 14.2816 11.7879 14.2502 11.7282 14.2722C11.6749 14.291 11.6247 14.313 11.5713 14.3318C11.2825 14.4386 10.9843 14.5265 10.6798 14.5892C10.6108 14.6049 10.5386 14.6175 10.4695 14.63C10.435 14.6363 10.4005 14.6426 10.3628 14.6457C10.2937 14.6552 10.2718 14.696 10.3816 14.6457C10.3283 14.674 10.2278 14.6646 10.165 14.6708C10.0772 14.6803 9.99241 14.6865 9.90452 14.6897C9.58434 14.7054 9.26103 14.696 8.94086 14.6614C8.90633 14.6583 8.84355 14.6614 8.81216 14.6457C8.91888 14.6991 8.90005 14.6583 8.83099 14.6457C8.75252 14.6332 8.67718 14.6206 8.59871 14.6049C8.4449 14.5767 8.29423 14.539 8.14356 14.4982C8.00231 14.4605 7.86106 14.4166 7.72294 14.3664C7.65075 14.3413 7.57855 14.313 7.50635 14.2848C7.49694 14.2816 7.44044 14.2659 7.42788 14.2534C7.51263 14.291 7.52519 14.2942 7.46241 14.2691C7.4373 14.2565 7.41219 14.2471 7.38707 14.2345C7.11085 14.109 6.84404 13.9646 6.58978 13.7982C6.47364 13.7229 6.36378 13.6444 6.25077 13.5628C6.13463 13.478 6.36064 13.6507 6.24763 13.5597C6.22566 13.544 6.20369 13.5251 6.18485 13.5094C6.1158 13.4529 6.04674 13.3964 5.98082 13.3368C5.7611 13.1422 5.55393 12.9319 5.36559 12.7059C5.31536 12.6494 5.27142 12.5897 5.22433 12.5301C5.16469 12.461 5.31536 12.6556 5.23375 12.5426C5.20864 12.5081 5.18353 12.4767 5.16156 12.4422C5.07367 12.3198 4.98891 12.1942 4.91044 12.0655C4.8351 11.9431 4.76291 11.8144 4.69699 11.6857C4.66246 11.6167 4.62793 11.5507 4.59654 11.4817C4.58399 11.4566 4.57457 11.4315 4.56202 11.4063C4.54946 11.3812 4.54004 11.3561 4.52749 11.331C4.49924 11.2682 4.50551 11.2808 4.54318 11.3655C4.50865 11.331 4.48354 11.218 4.46785 11.1709C4.44274 11.105 4.42076 11.0391 4.39879 10.9732C4.34543 10.8131 4.29834 10.6499 4.25754 10.4866C4.22301 10.3485 4.19476 10.2104 4.16965 10.0691C4.16337 10.0283 4.15709 9.9844 4.15081 9.94359C4.13198 9.82745 4.15081 9.97498 4.15395 9.98126C4.11942 9.91534 4.13198 9.77409 4.1257 9.70189C4.10059 9.40997 4.09745 9.11805 4.11628 8.82613C4.12256 8.74765 4.12884 8.66604 4.13512 8.58757C4.13826 8.55304 4.14453 8.51537 4.14767 8.48084C4.16337 8.33017 4.1257 8.62523 4.14767 8.4777C4.17279 8.32076 4.1979 8.16695 4.23243 8.01314C4.30148 7.7118 4.39251 7.4136 4.50551 7.12482C4.51807 7.09343 4.53376 7.0589 4.54318 7.02751C4.57457 6.94276 4.47726 7.1719 4.5369 7.0432C4.56515 6.98042 4.59341 6.91765 4.62479 6.85487C4.69699 6.7042 4.77546 6.55981 4.86022 6.41541C4.92927 6.29613 5.00461 6.17999 5.08308 6.06699C5.12075 6.01049 5.16156 5.95399 5.20236 5.89749C5.22433 5.86924 5.24945 5.82215 5.2777 5.79704C5.2212 5.86924 5.21492 5.87865 5.25572 5.82529C5.26828 5.8096 5.28084 5.7939 5.29339 5.77821C5.47859 5.54906 5.68262 5.33248 5.89921 5.13472C6.00907 5.03114 6.12521 4.93697 6.24449 4.83966C6.33239 4.76747 6.21938 4.85536 6.21624 4.86163C6.23194 4.83652 6.29158 4.80513 6.31669 4.7863C6.38261 4.73921 6.45167 4.68899 6.52072 4.64505C6.77184 4.47554 7.03865 4.32487 7.31488 4.19618C7.36196 4.1742 7.45299 4.11456 7.50635 4.11143C7.48124 4.12084 7.45613 4.1334 7.43416 4.14281C7.45927 4.1334 7.48438 4.12084 7.51263 4.11143C7.53774 4.10201 7.56599 4.08945 7.59111 4.08004C7.74805 4.0204 7.90814 3.96703 8.06823 3.91995C8.2032 3.87914 8.34132 3.84461 8.47943 3.81636C8.54849 3.80067 8.61754 3.78811 8.68974 3.77556C8.73055 3.76928 8.77449 3.75986 8.81844 3.75358C8.84669 3.75045 8.87494 3.74417 8.90319 3.74103C8.8153 3.75358 8.79332 3.75672 8.84355 3.75045C9.15744 3.71592 9.47134 3.69708 9.78523 3.7065C9.94532 3.70964 10.1054 3.7222 10.2655 3.73789C10.2937 3.74103 10.322 3.74417 10.3502 3.74731C10.5009 3.763 10.2059 3.7222 10.3534 3.74731C10.4381 3.75986 10.5229 3.77556 10.6076 3.79125C10.9121 3.85089 11.2135 3.9325 11.5054 4.03609C11.5713 4.0612 11.6372 4.08317 11.7 4.11143C11.7126 4.1177 11.7251 4.12084 11.7377 4.12712C11.8004 4.15223 11.7879 4.14909 11.7031 4.11143C11.722 4.11143 11.7596 4.13654 11.7785 4.14595C11.9291 4.21501 12.0798 4.28721 12.2242 4.36882C12.4847 4.51321 12.7233 4.68271 12.9681 4.85222C13.0435 4.90244 12.8457 4.75491 12.9556 4.8428C12.987 4.86791 13.0184 4.89302 13.0529 4.92127C13.1062 4.96522 13.1565 5.00916 13.2098 5.05625C13.3228 5.15669 13.4327 5.26028 13.5363 5.367C13.643 5.47373 13.7435 5.58673 13.8408 5.70287C13.8753 5.74368 13.9569 5.81274 13.9695 5.86296C13.9538 5.84099 13.9381 5.82215 13.9224 5.80018C13.9381 5.82215 13.9569 5.84412 13.9726 5.8661C13.9977 5.90063 14.0228 5.93202 14.0448 5.96654C14.2206 6.21452 14.3775 6.47505 14.5156 6.745C14.547 6.80778 14.5784 6.87056 14.6067 6.93334C14.6255 6.97101 14.6412 7.00868 14.6569 7.04634C14.704 7.14679 14.6506 7.02123 14.6443 7.01181C14.7291 7.13423 14.773 7.3414 14.8201 7.48266C14.9174 7.78086 14.9896 8.08533 15.0367 8.39295C15.0398 8.4212 15.0461 8.44945 15.0493 8.4777C15.0712 8.62837 15.0336 8.33017 15.0493 8.48084C15.0555 8.55304 15.065 8.62523 15.0712 8.69743C15.0869 8.86066 15.0932 9.02074 15.0932 9.18083C15.0963 9.51042 15.382 9.82431 15.721 9.80862C16.06 9.79292 16.3519 9.53239 16.3488 9.18083C16.3394 7.80283 15.9156 6.41855 15.1058 5.29795C14.2834 4.16165 13.1565 3.30471 11.835 2.82759C9.20767 1.88591 6.10952 2.7554 4.37054 4.94011C3.47908 6.05757 2.95173 7.39477 2.86698 8.82613C2.78537 10.1853 3.14007 11.5758 3.85575 12.731C4.55888 13.8673 5.61043 14.8121 6.83776 15.3489C8.17181 15.9327 9.63456 16.0928 11.0628 15.7852C13.7309 15.2107 15.8779 12.935 16.2703 10.2324C16.3205 9.88081 16.3551 9.53239 16.3551 9.17769C16.3551 8.8481 16.0663 8.5342 15.7273 8.5499C15.382 8.56873 15.0932 8.82927 15.0932 9.18083Z" fill="white"/>
<path d="M8.97545 5.56076C8.97545 6.61859 8.97545 7.67642 8.97545 8.73424C8.97545 8.88491 8.96917 9.03872 8.97545 9.18939C8.988 9.4719 9.13239 9.61943 9.30818 9.79521C9.73193 10.219 10.1557 10.6396 10.5763 11.0633C10.931 11.418 11.2857 11.7727 11.6404 12.1274C11.8727 12.3597 12.2996 12.3786 12.5287 12.1274C12.7579 11.8763 12.7767 11.4871 12.5287 11.2391C11.8036 10.514 11.0785 9.78893 10.3566 9.06697C10.253 8.96339 10.1526 8.86294 10.049 8.75935C10.1117 8.90689 10.1714 9.05441 10.2342 9.20195C10.2342 8.14098 10.2342 7.08002 10.2342 6.01905C10.2342 5.86838 10.2342 5.71457 10.2342 5.5639C10.2342 5.23431 9.94538 4.92042 9.60638 4.93611C9.26109 4.94867 8.97545 5.2092 8.97545 5.56076Z" fill="white"/>
</svg>
