<svg width="20" height="20" viewBox="0 0 20 20" fill="none" xmlns="http://www.w3.org/2000/svg">
<path d="M14.75 8.04156C13.6666 8.04156 12.7916 7.45822 12.375 6.49989C12.3333 6.41656 11.7916 4.74989 12.9166 3.24989C13.0416 3.08322 13.2083 2.87489 13.3333 2.74989C14.125 1.74989 14.3333 1.41656 14.1666 0.791558C14.125 0.624891 14.2083 0.416558 14.375 0.333225C14.5416 0.249891 14.7083 0.249891 14.875 0.374891C15 0.499891 17.625 3.04156 17.75 5.37489C17.7916 5.99989 17.5416 6.62489 17.0833 7.12489C16.4583 7.66656 15.625 8.04156 14.75 8.04156ZM14.9583 1.62489C14.7916 2.12489 14.4583 2.58322 13.9583 3.20822L13.5833 3.70822C12.6666 4.87489 13.125 6.16656 13.125 6.20822C13.5 7.12489 14.2916 7.24989 14.75 7.24989C15.375 7.24989 16.0416 6.95822 16.4583 6.54156C16.6666 6.29156 16.9166 5.91656 16.9166 5.37489C16.8333 3.99989 15.7083 2.45822 14.9583 1.62489V1.62489Z" fill="#FF3D54"/>
<path d="M16.625 19.2084C16.4584 19.2084 16.2917 19.2084 16.125 19.1667C16.125 19.1667 15.9584 19.1251 15.75 19.0417C15.5 18.9584 15.25 18.8334 15.0417 18.6251C14.7917 18.4167 14.6667 18.1251 14.625 17.7501L14.5 16.9584C14.25 15.3334 14.0834 13.7917 13.9584 12.4584C13.9584 12.1667 13.9167 11.9167 13.875 11.6251L13.75 10.0001C13.7084 9.33339 13.6667 8.58339 13.6667 7.87506V7.62506C13.6667 7.41673 13.8334 7.20839 14.0834 7.20839C14.3334 7.20839 14.5 7.37506 14.5 7.62506V7.87506C14.5 8.58339 14.5417 9.29173 14.5834 9.95839C14.5834 10.4584 14.6667 11.0001 14.7084 11.5417C14.75 11.8334 14.75 12.0834 14.7917 12.3751C14.9167 13.7084 15.0834 15.2084 15.3334 16.8334L15.4584 17.6667C15.4584 17.9167 15.5417 18.0001 15.625 18.0417C15.75 18.1667 16 18.2917 16.0834 18.2917L16.3334 18.3751C16.7084 18.4584 17.0417 18.4167 17.375 18.2084L17.625 18.0417C17.6667 18.0001 17.875 17.8334 17.9584 17.6667C18 17.5834 18.0417 17.5001 18 17.2917L17.8334 16.4167C17.5417 14.7917 17.25 13.3334 16.9167 12.0001C16.8334 11.7501 16.7917 11.5001 16.7084 11.2501C16.5834 10.7084 16.4584 10.2084 16.2917 9.70839C16.125 9.04173 15.9167 8.37506 15.7084 7.66673L15.625 7.41673C15.5417 7.20839 15.6667 6.95839 15.875 6.91673C16.0834 6.83339 16.3334 6.95839 16.375 7.16673L16.4584 7.41673C16.6667 8.12506 16.875 8.79173 17.0417 9.45839C17.2084 9.95839 17.3334 10.5001 17.4584 11.0417C17.5 11.2917 17.5834 11.5417 17.6667 11.7917C18 13.1251 18.2917 14.6251 18.5834 16.2501L18.7084 17.0834C18.7917 17.4167 18.75 17.7501 18.5834 18.0417C18.4584 18.2917 18.2084 18.5001 18.0417 18.6251C17.8334 18.7501 17.7084 18.8334 17.7084 18.8751C17.4167 19.0834 17.0417 19.2084 16.625 19.2084V19.2084Z" fill="#FF3D54"/>
<path d="M11.125 19.7916C10.375 19.7916 9.58336 19.7083 8.83336 19.5833C5.75003 19.1249 3.00003 17.6249 1.45836 15.5416C0.458364 14.1666 0.0416969 12.6249 0.291697 11.1249C0.916697 7.24992 5.7917 4.74992 11.125 5.54159C11.7084 5.62492 12.2917 5.74992 12.875 5.91659C13.0834 5.99992 13.2084 6.20825 13.125 6.41659C13.0417 6.62492 12.8334 6.74992 12.625 6.66659C12.0834 6.49992 11.5417 6.37492 10.9584 6.29159C6.08336 5.54159 1.62503 7.79159 1.08336 11.2083C0.87503 12.4999 1.20836 13.8333 2.12503 15.0416C3.50003 16.9583 6.08336 18.3333 8.95836 18.7916C10.875 19.0833 12.9167 19.2083 13.8334 18.0833C13.9584 17.9583 14 17.9166 13.5417 17.3749C13.5 17.3333 13.4584 17.2499 13.375 17.2083C12.6667 16.3333 11.5834 14.9999 12.5834 13.6249C13.0417 12.9999 13.7084 12.7083 14.4584 12.7916C14.6667 12.8333 14.8334 13.0416 14.7917 13.2499C14.75 13.4583 14.5834 13.6249 14.3334 13.5833C13.875 13.4999 13.5 13.6666 13.2084 14.0833C12.625 14.8749 13.1667 15.6666 13.9584 16.6666L14.0834 16.8333C14.4584 17.2499 14.9584 17.8333 14.375 18.5416C13.7084 19.4999 12.4584 19.7916 11.125 19.7916V19.7916ZM17.875 14.9166C17.6667 14.9166 17.5 14.7499 17.4584 14.5416C17.4584 14.3333 17.625 14.1249 17.8334 14.1249C18 14.1249 18.2084 14.0833 18.375 13.9999C18.5834 13.9166 18.8334 13.7499 18.875 13.5416C19.2917 11.9166 18.2084 9.91659 16 8.37492C15.8334 8.24992 15.7917 7.99992 15.9167 7.79159C16.0417 7.62492 16.2917 7.58325 16.5 7.70825C18.9584 9.45825 20.2084 11.7916 19.6667 13.7499C19.5417 14.1666 19.2084 14.4999 18.7084 14.7499C18.4584 14.7916 18.2084 14.8749 17.875 14.9166C17.875 14.9166 17.9167 14.9166 17.875 14.9166Z" fill="#FF3D54"/>
<path d="M4.62498 12.4583C3.41665 12.4583 2.45831 11.7083 2.45831 10.7499C2.45831 9.79158 3.41665 9.04159 4.62498 9.04159C5.83331 9.04159 6.79165 9.79158 6.79165 10.7499C6.79165 11.7083 5.83331 12.4583 4.62498 12.4583V12.4583ZM4.62498 9.87492C3.87498 9.87492 3.24998 10.2916 3.24998 10.7499C3.24998 11.2499 3.87498 11.6249 4.62498 11.6249C5.37498 11.6249 5.99998 11.2083 5.99998 10.7499C5.99998 10.2499 5.37498 9.87492 4.62498 9.87492V9.87492ZM7.08331 16.6249C5.87498 16.6249 4.91665 15.8749 4.91665 14.9166C4.91665 13.9583 5.87498 13.2083 7.08331 13.2083C8.29165 13.2083 9.24998 13.9583 9.24998 14.9166C9.24998 15.8749 8.29165 16.6249 7.08331 16.6249ZM7.08331 14.0416C6.33331 14.0416 5.70831 14.4583 5.70831 14.9166C5.70831 15.4166 6.33331 15.7916 7.08331 15.7916C7.83331 15.7916 8.45831 15.3749 8.45831 14.9166C8.45831 14.4583 7.83331 14.0416 7.08331 14.0416ZM9.20831 10.1249C7.99998 10.1249 7.04165 9.37492 7.04165 8.41659C7.04165 7.45825 7.99998 6.70825 9.20831 6.70825C10.4166 6.70825 11.375 7.45825 11.375 8.41659C11.375 9.37492 10.4166 10.1249 9.20831 10.1249V10.1249ZM9.20831 7.49992C8.45831 7.49992 7.83331 7.91659 7.83331 8.37492C7.83331 8.87492 8.45831 9.24992 9.20831 9.24992C9.95831 9.24992 10.5833 8.83325 10.5833 8.37492C10.5833 7.91659 9.91665 7.49992 9.20831 7.49992Z" fill="#FF3D54"/>
</svg>
