<svg width="16" height="16" viewBox="0 0 16 16" fill="none" xmlns="http://www.w3.org/2000/svg">
<path d="M13.712 13.552H2.288C1.7222 13.552 1.17958 13.3272 0.779502 12.9272C0.379424 12.5271 0.154663 11.9845 0.154663 11.4187V4.58133C0.154663 4.01554 0.379424 3.47291 0.779502 3.07284C1.17958 2.67276 1.7222 2.448 2.288 2.448H13.712C14.2778 2.448 14.8204 2.67276 15.2205 3.07284C15.6206 3.47291 15.8453 4.01554 15.8453 4.58133V11.4187C15.8453 11.9845 15.6206 12.5271 15.2205 12.9272C14.8204 13.3272 14.2778 13.552 13.712 13.552ZM2.288 2.98133C1.86365 2.98133 1.45668 3.1499 1.15663 3.44996C0.856567 3.75002 0.687996 4.15699 0.687996 4.58133V11.4187C0.687996 11.843 0.856567 12.25 1.15663 12.55C1.45668 12.8501 1.86365 13.0187 2.288 13.0187H13.712C14.1363 13.0187 14.5433 12.8501 14.8434 12.55C15.1434 12.25 15.312 11.843 15.312 11.4187V4.58133C15.312 4.15699 15.1434 3.75002 14.8434 3.44996C14.5433 3.1499 14.1363 2.98133 13.712 2.98133H2.288Z" fill="white"/>
<path d="M8.00001 9.48788C7.53721 9.49058 7.08608 9.3427 6.71468 9.06655L0.485348 4.34922C0.451773 4.331 0.422502 4.30579 0.399516 4.27529C0.376531 4.24478 0.360366 4.20969 0.352118 4.1724C0.343869 4.13511 0.343728 4.09647 0.351705 4.05912C0.359682 4.02177 0.37559 3.98656 0.398353 3.95589C0.421116 3.92522 0.450202 3.89979 0.483644 3.88134C0.517085 3.86288 0.554101 3.85183 0.592186 3.84892C0.63027 3.84601 0.668536 3.85132 0.704392 3.86448C0.740248 3.87764 0.772858 3.89836 0.800014 3.92522L7.03468 8.63188C7.31259 8.84213 7.65154 8.9559 8.00001 8.9559C8.34849 8.9559 8.68744 8.84213 8.96535 8.63188L15.2 3.92522C15.2277 3.90216 15.2597 3.88495 15.2942 3.87462C15.3287 3.86429 15.365 3.86106 15.4007 3.86511C15.4365 3.86917 15.4711 3.88042 15.5024 3.89821C15.5337 3.91599 15.5611 3.93994 15.5829 3.96859C15.6047 3.99725 15.6205 4.03003 15.6293 4.06495C15.6381 4.09987 15.6397 4.13621 15.6341 4.17177C15.6285 4.20734 15.6157 4.2414 15.5966 4.2719C15.5774 4.30239 15.5523 4.32869 15.5227 4.34922L9.28535 9.06655C8.91395 9.3427 8.46282 9.49058 8.00001 9.48788V9.48788Z" fill="white"/>
<path d="M0.578636 12.4374C0.525097 12.4367 0.473 12.4199 0.429125 12.3892C0.385251 12.3585 0.351631 12.3154 0.332642 12.2653C0.313652 12.2152 0.310173 12.1606 0.322657 12.1085C0.335141 12.0565 0.36301 12.0094 0.402636 11.9734L5.30664 7.59737C5.36003 7.55034 5.42993 7.52644 5.50094 7.53094C5.57195 7.53545 5.63827 7.56797 5.6853 7.62137C5.73233 7.67477 5.75623 7.74466 5.75173 7.81567C5.74723 7.88669 5.7147 7.953 5.6613 8.00004L0.757302 12.3707C0.708 12.4142 0.644373 12.4379 0.578636 12.4374ZM15.4213 12.4374C15.3556 12.4379 15.2919 12.4142 15.2426 12.3707L10.3386 8.00004C10.3104 7.97738 10.2871 7.94922 10.2701 7.91726C10.2531 7.8853 10.2428 7.85021 10.2398 7.81414C10.2368 7.77807 10.2412 7.74176 10.2527 7.70744C10.2641 7.67311 10.2825 7.64148 10.3066 7.61448C10.3307 7.58748 10.36 7.56566 10.3929 7.55037C10.4257 7.53507 10.4612 7.52662 10.4974 7.52551C10.5336 7.52441 10.5696 7.53069 10.6033 7.54396C10.637 7.55723 10.6676 7.57722 10.6933 7.6027L15.5973 11.9734C15.6499 12.0205 15.6817 12.0865 15.6857 12.157C15.6897 12.2274 15.6656 12.2966 15.6186 12.3494C15.5937 12.377 15.5633 12.3991 15.5293 12.4143C15.4953 12.4294 15.4585 12.4373 15.4213 12.4374V12.4374Z" fill="white"/>
</svg>
