<svg width="17" height="17" viewBox="0 0 17 17" fill="none" xmlns="http://www.w3.org/2000/svg">
<path d="M1.41667 3.54161H3.92771C4.01399 4.03411 4.27116 4.48041 4.65401 4.80201C5.03685 5.12362 5.52083 5.29993 6.02083 5.29993C6.52083 5.29993 7.00482 5.12362 7.38766 4.80201C7.7705 4.48041 8.02768 4.03411 8.11396 3.54161H15.5833C15.6773 3.54161 15.7673 3.50429 15.8338 3.43787C15.9002 3.37145 15.9375 3.28137 15.9375 3.18744C15.9375 3.09351 15.9002 3.00343 15.8338 2.93701C15.7673 2.87059 15.6773 2.83327 15.5833 2.83327H8.11396C8.02768 2.34077 7.7705 1.89447 7.38766 1.57287C7.00482 1.25126 6.52083 1.07495 6.02083 1.07495C5.52083 1.07495 5.03685 1.25126 4.65401 1.57287C4.27116 1.89447 4.01399 2.34077 3.92771 2.83327H1.41667C1.32274 2.83327 1.23265 2.87059 1.16623 2.93701C1.09981 3.00343 1.0625 3.09351 1.0625 3.18744C1.0625 3.28137 1.09981 3.37145 1.16623 3.43787C1.23265 3.50429 1.32274 3.54161 1.41667 3.54161ZM6.02083 1.77077C6.30102 1.77077 6.57492 1.85386 6.80789 2.00952C7.04086 2.16519 7.22244 2.38644 7.32966 2.64531C7.43689 2.90417 7.46494 3.18901 7.41028 3.46382C7.35562 3.73862 7.22069 3.99105 7.02257 4.18917C6.82444 4.3873 6.57202 4.52222 6.29721 4.57689C6.0224 4.63155 5.73756 4.60349 5.4787 4.49627C5.21984 4.38905 4.99858 4.20747 4.84292 3.9745C4.68725 3.74153 4.60417 3.46763 4.60417 3.18744C4.60417 2.81172 4.75342 2.45138 5.0191 2.18571C5.28478 1.92003 5.64511 1.77077 6.02083 1.77077ZM15.5833 8.14577H13.0723C12.986 7.65328 12.7288 7.20697 12.346 6.88537C11.9632 6.56376 11.4792 6.38745 10.9792 6.38745C10.4792 6.38745 9.99518 6.56376 9.61234 6.88537C9.2295 7.20697 8.97232 7.65328 8.88604 8.14577H1.41667C1.32274 8.14577 1.23265 8.18309 1.16623 8.24951C1.09981 8.31593 1.0625 8.40601 1.0625 8.49994C1.0625 8.59387 1.09981 8.68396 1.16623 8.75037C1.23265 8.81679 1.32274 8.85411 1.41667 8.85411H8.88604C8.97232 9.34661 9.2295 9.79291 9.61234 10.1145C9.99518 10.4361 10.4792 10.6124 10.9792 10.6124C11.4792 10.6124 11.9632 10.4361 12.346 10.1145C12.7288 9.79291 12.986 9.34661 13.0723 8.85411H15.5833C15.6773 8.85411 15.7673 8.81679 15.8338 8.75037C15.9002 8.68396 15.9375 8.59387 15.9375 8.49994C15.9375 8.40601 15.9002 8.31593 15.8338 8.24951C15.7673 8.18309 15.6773 8.14577 15.5833 8.14577ZM10.9792 9.91661C10.699 9.91661 10.4251 9.83352 10.1921 9.67786C9.95914 9.52219 9.77756 9.30094 9.67034 9.04208C9.56311 8.78321 9.53506 8.49837 9.58972 8.22356C9.64438 7.94876 9.77931 7.69633 9.97743 7.49821C10.1756 7.30008 10.428 7.16516 10.7028 7.11049C10.9776 7.05583 11.2624 7.08389 11.5213 7.19111C11.7802 7.29834 12.0014 7.47991 12.1571 7.71288C12.3127 7.94585 12.3958 8.21975 12.3958 8.49994C12.3958 8.87566 12.2466 9.236 11.9809 9.50167C11.7152 9.76735 11.3549 9.91661 10.9792 9.91661ZM15.5833 13.4583H8.11396C8.02768 12.9658 7.7705 12.5195 7.38766 12.1979C7.00482 11.8763 6.52083 11.7 6.02083 11.7C5.52083 11.7 5.03685 11.8763 4.65401 12.1979C4.27116 12.5195 4.01399 12.9658 3.92771 13.4583H1.41667C1.32274 13.4583 1.23265 13.4956 1.16623 13.562C1.09981 13.6284 1.0625 13.7185 1.0625 13.8124C1.0625 13.9064 1.09981 13.9965 1.16623 14.0629C1.23265 14.1293 1.32274 14.1666 1.41667 14.1666H3.92771C4.01399 14.6591 4.27116 15.1054 4.65401 15.427C5.03685 15.7486 5.52083 15.9249 6.02083 15.9249C6.52083 15.9249 7.00482 15.7486 7.38766 15.427C7.7705 15.1054 8.02768 14.6591 8.11396 14.1666H15.5833C15.6773 14.1666 15.7673 14.1293 15.8338 14.0629C15.9002 13.9965 15.9375 13.9064 15.9375 13.8124C15.9375 13.7185 15.9002 13.6284 15.8338 13.562C15.7673 13.4956 15.6773 13.4583 15.5833 13.4583ZM6.02083 15.2291C5.74064 15.2291 5.46675 15.146 5.23378 14.9904C5.00081 14.8347 4.81923 14.6134 4.712 14.3546C4.60478 14.0957 4.57673 13.8109 4.63139 13.5361C4.68605 13.2613 4.82097 13.0088 5.0191 12.8107C5.21722 12.6126 5.46965 12.4777 5.74446 12.423C6.01926 12.3683 6.30411 12.3964 6.56297 12.5036C6.82183 12.6108 7.04308 12.7924 7.19875 13.0254C7.35441 13.2584 7.4375 13.5323 7.4375 13.8124C7.4375 14.1882 7.28824 14.5485 7.02257 14.8142C6.75689 15.0799 6.39656 15.2291 6.02083 15.2291Z" fill="#222222"/>
</svg>
