<svg width="30" height="30" viewBox="0 0 30 30" fill="none" xmlns="http://www.w3.org/2000/svg">
<path fill-rule="evenodd" clip-rule="evenodd" d="M18.2359 1.19787C20.0124 -0.0614406 22.4644 0.131106 23.6696 1.83971C24.875 3.54842 24.2296 5.92912 22.4527 7.17663C22.2367 7.32822 22.0102 7.46451 21.7751 7.58438C21.6906 7.6275 21.597 7.64993 21.5021 7.64985L15.3413 7.6445C15.144 7.64432 14.9594 7.54714 14.8476 7.38458C14.7357 7.22202 14.7109 7.01486 14.7813 6.83052C15.6393 4.58288 16.4966 2.4309 18.2359 1.19787ZM22.6891 2.53143C21.9444 1.47574 20.2821 1.21829 18.9299 2.17684C17.7074 3.0435 16.98 4.51781 16.2175 6.44526L21.3538 6.44972C21.4948 6.37214 21.6315 6.28692 21.7633 6.19444C23.1148 5.24552 23.4337 3.58697 22.6891 2.53143ZM1.91686 14.1749C1.91686 13.8435 2.18549 13.5749 2.51686 13.5749H27.4865C27.8179 13.5749 28.0865 13.8435 28.0865 14.1749V26.8713C28.0865 27.5987 27.7975 28.2964 27.2831 28.8108C26.7688 29.3252 26.0711 29.6141 25.3436 29.6141H4.65972C3.93226 29.6141 3.23461 29.3252 2.72022 28.8108C2.20584 28.2964 1.91686 27.5987 1.91686 26.8713V14.1749ZM3.11686 14.7749V26.8713C3.11686 27.2805 3.27941 27.6729 3.56875 27.9622C3.85809 28.2516 4.25053 28.4141 4.65972 28.4141H25.3436C25.7528 28.4141 26.1453 28.2516 26.4346 27.9622C26.724 27.6729 26.8865 27.2805 26.8865 26.8713V14.7749H3.11686Z" fill="white"/>
<path fill-rule="evenodd" clip-rule="evenodd" d="M11.2651 14.1749C11.2651 13.8435 11.5337 13.5749 11.8651 13.5749H18.1329C18.4643 13.5749 18.7329 13.8435 18.7329 14.1749V29.0141C18.7329 29.3455 18.4643 29.6141 18.1329 29.6141H11.8651C11.5337 29.6141 11.2651 29.3455 11.2651 29.0141V14.1749ZM12.4651 14.7749V28.4141H17.5329V14.7749H12.4651Z" fill="white"/>
<path fill-rule="evenodd" clip-rule="evenodd" d="M11.0796 2.17739C9.7221 1.21836 8.06357 1.47507 7.31339 2.53269C6.56593 3.5865 6.88694 5.24445 8.24018 6.1945L8.24513 6.19797C8.37301 6.28969 8.50616 6.37377 8.6439 6.44972L13.7898 6.44526C13.0249 4.51597 12.3059 3.04376 11.0796 2.17739ZM6.33461 1.83844C7.54515 0.131781 9.99019 -0.0615073 11.772 1.19731C13.5178 2.43067 14.3651 4.58525 15.227 6.82937C15.2978 7.01378 15.2733 7.22123 15.1615 7.38408C15.0497 7.54693 14.8649 7.64432 14.6674 7.6445L8.49595 7.64985C8.40151 7.64993 8.30839 7.62772 8.22416 7.58503C7.98874 7.4657 7.76277 7.32859 7.5482 7.1749C5.77474 5.92804 5.12192 3.54813 6.33461 1.83844Z" fill="white"/>
<path fill-rule="evenodd" clip-rule="evenodd" d="M2.94542 7.64986C2.38919 7.64986 1.93828 8.10077 1.93828 8.657V12.5677C1.93828 13.1239 2.38919 13.5749 2.94542 13.5749H27.0526C27.6088 13.5749 28.0597 13.1239 28.0597 12.5677V8.657C28.0597 8.10077 27.6088 7.64986 27.0526 7.64986H2.94542ZM0.738281 8.657C0.738281 7.43803 1.72645 6.44986 2.94542 6.44986H27.0526C28.2715 6.44986 29.2597 7.43803 29.2597 8.657V12.5677C29.2597 13.7867 28.2715 14.7749 27.0526 14.7749H2.94542C1.72645 14.7749 0.738281 13.7867 0.738281 12.5677V8.657Z" fill="white"/>
<path fill-rule="evenodd" clip-rule="evenodd" d="M10.6972 7.04986C10.6972 6.71849 10.9658 6.44986 11.2972 6.44986H18.7061C19.0375 6.44986 19.3061 6.71849 19.3061 7.04986V14.1749C19.3061 14.5062 19.0375 14.7749 18.7061 14.7749H11.2972C10.9658 14.7749 10.6972 14.5062 10.6972 14.1749V7.04986ZM11.8972 7.64986V13.5749H18.1061V7.64986H11.8972Z" fill="white"/>
</svg>
