<svg width="30" height="30" viewBox="0 0 30 30" fill="none" xmlns="http://www.w3.org/2000/svg">
<path d="M19.5 17.25H10.4992C10.0852 17.2503 9.74973 17.586 9.75 18C9.75348 20.898 12.102 23.2465 15 23.25C17.898 23.2465 20.2465 20.898 20.25 18V17.9991C20.2497 17.5852 19.914 17.2497 19.5 17.25ZM15.7513 21.674C13.7215 22.0889 11.7396 20.7798 11.3247 18.75H18.6753C18.3744 20.2224 17.2236 21.373 15.7513 21.674ZM12.75 12C12.75 10.7574 11.7426 9.75 10.5 9.75C9.25735 9.75 8.25 10.7574 8.25 12C8.25 13.2426 9.25735 14.25 10.5 14.25C11.7421 14.2486 12.7486 13.2421 12.75 12ZM9.75 12C9.75 11.5858 10.0858 11.25 10.5 11.25C10.9139 11.2508 11.2492 11.5861 11.25 12C11.25 12.4142 10.9142 12.75 10.5 12.75C10.0858 12.75 9.75 12.4142 9.75 12ZM19.5 9.75C18.2574 9.75 17.25 10.7574 17.25 12C17.25 13.2426 18.2574 14.25 19.5 14.25C20.7421 14.2486 21.7486 13.2421 21.75 12C21.75 10.7574 20.7426 9.75 19.5 9.75ZM19.5 12.75C19.0858 12.75 18.75 12.4142 18.75 12C18.75 11.5858 19.0858 11.25 19.5 11.25C19.9139 11.2508 20.2492 11.5861 20.25 12C20.25 12.4142 19.9142 12.75 19.5 12.75ZM15 0C6.71576 0 0 6.71576 0 15C0 23.2842 6.71576 30 15 30C23.2802 29.9903 29.9903 23.2802 30 15C30 6.71576 23.2842 0 15 0ZM15 28.5C7.54413 28.5 1.5 22.4559 1.5 15C1.5 7.54413 7.54413 1.5 15 1.5C22.4525 1.50815 28.4919 7.54752 28.5 15C28.5 22.4559 22.4559 28.5 15 28.5Z" fill="white"/>
</svg>
