<svg width="20" height="20" viewBox="0 0 20 20" fill="none" xmlns="http://www.w3.org/2000/svg">
<path d="M9.14288 18.9999H10.8572C11.2359 18.9994 11.599 18.8412 11.8668 18.56C12.1346 18.2788 12.2853 17.8976 12.2857 17.4999V15.1482L12.8072 13.5063C14.6632 12.4854 16 9.9042 16 7.2999C16 5.62904 15.3679 4.02661 14.2427 2.84513C13.1174 1.66365 11.5913 0.999902 10 0.999902C8.40873 0.999902 6.8826 1.66365 5.75738 2.84513C4.63217 4.02661 4.00002 5.62904 4.00002 7.2999C4.00002 9.9042 5.33688 12.4854 7.19288 13.5063L7.71431 15.1482V17.4999C7.71476 17.8976 7.86542 18.2788 8.13323 18.56C8.40104 18.8412 8.76414 18.9994 9.14288 18.9999ZM10 1.5999C10.946 1.5999 12 3.9399 12 7.2999C12 9.6528 11.5249 12.0498 10.8835 12.9999H9.1166C8.47517 12.0498 8.00002 9.6528 8.00002 7.2999C8.00002 3.9399 9.05402 1.5999 10 1.5999ZM11.7943 14.7999H10.2857V13.5999H12.1752L11.7943 14.7999ZM9.71431 13.5999V14.7999H8.20574L7.82488 13.5999H9.71431ZM11.7143 17.4999C11.7143 17.7386 11.624 17.9675 11.4633 18.1363C11.3025 18.3051 11.0845 18.3999 10.8572 18.3999H9.14288C8.91555 18.3999 8.69754 18.3051 8.53679 18.1363C8.37604 17.9675 8.28574 17.7386 8.28574 17.4999V15.3999H11.7143V17.4999ZM15.4286 7.2999C15.4286 9.6723 14.1755 12.1068 12.5046 12.9999H11.5546C12.2235 11.6832 12.5715 9.2592 12.5715 7.2999C12.5715 4.8756 12.0395 2.8119 11.2395 1.7556C12.4301 2.04987 13.4913 2.7573 14.2515 3.76344C15.0118 4.76957 15.4265 6.01558 15.4286 7.2999ZM4.57145 7.2999C4.57358 6.01558 4.98829 4.76957 5.7485 3.76344C6.50872 2.7573 7.56997 2.04987 8.7606 1.7556C7.9606 2.8119 7.4286 4.8756 7.4286 7.2999C7.4286 9.2592 7.7766 11.6832 8.44545 12.9999H7.49545C5.8246 12.1068 4.57145 9.6723 4.57145 7.2999Z" fill="#FF3D54"/>
<path fill-rule="evenodd" clip-rule="evenodd" d="M9.14276 19.0999C8.73592 19.0994 8.34693 18.9294 8.06082 18.629C7.77486 18.3287 7.61479 17.9226 7.61431 17.5V15.1637L7.10959 13.5744C5.23262 12.5189 3.90002 9.91498 3.90002 7.2999C3.90002 5.60405 4.54157 3.97673 5.68497 2.77616C6.82852 1.57543 8.38059 0.899902 10 0.899902C11.6195 0.899902 13.1715 1.57543 14.3151 2.77616C15.4585 3.97673 16.1 5.60405 16.1 7.2999C16.1 9.91498 14.7674 12.5189 12.8905 13.5744L12.3857 15.1637V17.4999C12.3853 17.9225 12.2252 18.3287 11.9392 18.629C11.6531 18.9294 11.2641 19.0994 10.8573 19.0999H9.14276ZM12.2857 15.1482L12.8072 13.5063C14.6632 12.4854 16 9.9042 16 7.2999C16 5.62904 15.3679 4.02661 14.2427 2.84513C13.1174 1.66365 11.5913 0.999902 10 0.999902C8.40873 0.999902 6.8826 1.66365 5.75738 2.84513C4.63217 4.02661 4.00002 5.62904 4.00002 7.2999C4.00002 9.9042 5.33688 12.4854 7.19288 13.5063L7.71431 15.1482V17.4999C7.71476 17.8976 7.86542 18.2788 8.13323 18.56C8.40104 18.8412 8.76414 18.9994 9.14288 18.9999H10.8572C11.2359 18.9994 11.599 18.8412 11.8668 18.56C12.1346 18.2788 12.2853 17.8976 12.2857 17.4999V15.1482ZM10.6355 2.08291C10.412 1.82075 10.194 1.6999 10 1.6999C9.80604 1.6999 9.58808 1.82075 9.36452 2.08291C9.14263 2.34312 8.92721 2.72928 8.73876 3.22541C8.36217 4.21681 8.10002 5.62936 8.10002 7.2999C8.10002 8.47011 8.21822 9.65111 8.4159 10.6567C8.60806 11.6342 8.8732 12.4346 9.17055 12.8999H10.8295C11.1269 12.4346 11.392 11.6342 11.5842 10.6567C11.7818 9.65111 11.9 8.47011 11.9 7.2999C11.9 5.62936 11.6379 4.21681 11.2613 3.22541C11.0728 2.72928 10.8574 2.34312 10.6355 2.08291ZM10.8835 12.9999C11.5249 12.0498 12 9.6528 12 7.2999C12 3.9399 10.946 1.5999 10 1.5999C9.05402 1.5999 8.00002 3.9399 8.00002 7.2999C8.00002 9.6528 8.47517 12.0498 9.1166 12.9999H10.8835ZM11.7211 14.6999L12.0385 13.6999H10.3857V14.6999H11.7211ZM10.2857 13.5999V14.7999H11.7943L12.1752 13.5999H10.2857ZM9.61431 14.6999V13.6999H7.96154L8.27892 14.6999H9.61431ZM8.20574 14.7999H9.71431V13.5999H7.82488L8.20574 14.7999ZM11.3908 18.0673C11.5334 17.9176 11.6143 17.7136 11.6143 17.4999V15.4999H8.38574V17.4999C8.38574 17.7136 8.46664 17.9176 8.6092 18.0673C8.75161 18.2169 8.94369 18.2999 9.14288 18.2999H10.8572C11.0564 18.2999 11.2484 18.2169 11.3908 18.0673ZM14.5042 10.659C15.0195 9.65544 15.3286 8.46936 15.3286 7.30007C15.3265 6.03702 14.9186 4.8122 14.1718 3.82372C13.4817 2.91048 12.5399 2.24853 11.4796 1.9255C12.2074 3.05806 12.6715 5.02968 12.6715 7.2999C12.6715 8.28496 12.584 9.38633 12.4125 10.4074C12.2532 11.3555 12.0204 12.2405 11.7143 12.8999H12.4794C13.2829 12.4628 13.993 11.6544 14.5042 10.659ZM12.5046 12.9999H11.5546C11.5712 12.9672 11.5876 12.9339 11.6038 12.8999C12.2405 11.5632 12.5715 9.2106 12.5715 7.2999C12.5715 4.9694 12.0798 2.97213 11.3311 1.88269C11.301 1.83885 11.2704 1.79647 11.2395 1.7556C11.2907 1.76828 11.3418 1.78172 11.3926 1.79592C12.5209 2.11137 13.5241 2.80063 14.2515 3.76344C15.0118 4.76957 15.4265 6.01558 15.4286 7.2999C15.4286 9.6723 14.1755 12.1068 12.5046 12.9999ZM4.67145 7.29996C4.67146 8.46928 4.9805 9.65541 5.49584 10.659C6.00702 11.6544 6.71718 12.4628 7.5207 12.8999H8.28577C7.97963 12.2405 7.74686 11.3555 7.58759 10.4074C7.41603 9.38633 7.3286 8.28496 7.3286 7.2999C7.3286 5.02968 7.79263 3.05806 8.52048 1.9255C7.46017 2.24853 6.51831 2.91048 5.82829 3.82372C5.08144 4.81217 4.67356 6.03695 4.67145 7.29996ZM8.60748 1.79592C7.47911 2.11137 6.47597 2.80063 5.7485 3.76344C4.98829 4.76957 4.57358 6.01558 4.57145 7.2999C4.57145 9.6723 5.8246 12.1068 7.49545 12.9999H8.44545C8.42886 12.9672 8.41247 12.9339 8.39627 12.8999C7.75955 11.5632 7.4286 9.2106 7.4286 7.2999C7.4286 4.9694 7.92023 2.97213 8.66896 1.88269C8.69909 1.83885 8.72964 1.79647 8.7606 1.7556C8.70931 1.76828 8.65827 1.78172 8.60748 1.79592ZM11.4633 18.1363C11.624 17.9675 11.7143 17.7386 11.7143 17.4999V15.3999H8.28574V17.4999C8.28574 17.7386 8.37604 17.9675 8.53679 18.1363C8.69754 18.3051 8.91555 18.3999 9.14288 18.3999H10.8572C11.0845 18.3999 11.3025 18.3051 11.4633 18.1363Z" fill="#FF3D54"/>
</svg>
