<svg width="16" height="16" viewBox="0 0 16 16" fill="none" xmlns="http://www.w3.org/2000/svg">
<path d="M7.99999 15.9L7.7 15.5333C7.5 15.2666 2.39999 9.29997 2.39999 5.73331C2.39999 2.63331 4.93333 0.133301 7.99999 0.133301C11.0667 0.133301 13.6 2.66664 13.6 5.73331C13.6 9.29997 8.49999 15.3 8.29999 15.5333L7.99999 15.9ZM7.99999 0.899974C5.33333 0.899974 3.2 3.06664 3.2 5.69997C3.2 8.49997 6.89999 13.2666 7.99999 14.6333C9.09999 13.2666 12.8 8.53331 12.8 5.69997C12.8 3.06664 10.6667 0.899974 7.99999 0.899974Z" fill="white"/>
<path d="M8 7.86653C6.83333 7.86653 5.86667 6.89986 5.86667 5.7332C5.86667 4.56653 6.83333 3.59985 8 3.59985C9.16667 3.59985 10.1333 4.56653 10.1333 5.7332C10.1333 6.89986 9.16667 7.86653 8 7.86653ZM8 4.39986C7.26667 4.39986 6.66667 4.99986 6.66667 5.7332C6.66667 6.46653 7.26667 7.06653 8 7.06653C8.73333 7.06653 9.33333 6.46653 9.33333 5.7332C9.33333 4.99986 8.73333 4.39986 8 4.39986Z" fill="white"/>
</svg>
