<svg width="20" height="20" viewBox="0 0 20 20" fill="none" xmlns="http://www.w3.org/2000/svg">
<path fill-rule="evenodd" clip-rule="evenodd" d="M5.00002 1.66659C4.07955 1.66659 3.33335 2.41278 3.33335 3.33325C3.33335 4.25373 4.07955 4.99992 5.00002 4.99992C5.9205 4.99992 6.66669 4.25373 6.66669 3.33325C6.66669 2.41278 5.9205 1.66659 5.00002 1.66659ZM2.50002 3.33325C2.50002 1.95254 3.61931 0.833252 5.00002 0.833252C6.38073 0.833252 7.50002 1.95254 7.50002 3.33325C7.50002 4.71396 6.38073 5.83325 5.00002 5.83325C3.61931 5.83325 2.50002 4.71396 2.50002 3.33325ZM14.1667 2.08325C13.2796 2.08325 12.5 2.87937 12.5 3.93931V5.41659H15.8334V3.93931C15.8334 2.87937 15.0538 2.08325 14.1667 2.08325ZM11.6667 3.93931C11.6667 2.48887 12.7526 1.24992 14.1667 1.24992C15.5808 1.24992 16.6667 2.48887 16.6667 3.93931V5.83325C16.6667 6.06337 16.4801 6.24992 16.25 6.24992H12.0834C11.8533 6.24992 11.6667 6.06337 11.6667 5.83325V3.93931ZM1.66669 8.33325C1.66669 7.64289 2.22633 7.08325 2.91669 7.08325H7.08335C7.77371 7.08325 8.33335 7.64289 8.33335 8.33325V12.3883C8.33335 12.9343 7.979 13.4171 7.45814 13.5808L7.03419 13.714C6.86056 13.7686 6.74245 13.9295 6.74245 14.1115V18.7499C6.74245 18.98 6.5559 19.1666 6.32578 19.1666H3.67426C3.44415 19.1666 3.2576 18.98 3.2576 18.7499V14.1115C3.2576 13.9295 3.13948 13.7686 2.96585 13.714L2.5419 13.5808C2.02105 13.4171 1.66669 12.9343 1.66669 12.3883V8.33325V8.33325ZM2.91669 7.91659C2.68657 7.91659 2.50002 8.10314 2.50002 8.33325V12.3883C2.50002 12.5703 2.61814 12.7313 2.79176 12.7858L3.21571 12.919C3.73658 13.0828 4.09093 13.5656 4.09093 14.1115V18.3333H5.90911V14.1115C5.90911 13.5656 6.26346 13.0828 6.78433 12.919L7.20828 12.7858C7.3819 12.7313 7.50002 12.5703 7.50002 12.3883V8.33325C7.50002 8.10314 7.31347 7.91659 7.08335 7.91659H2.91669ZM11.7429 7.39991C11.7889 7.21391 11.9559 7.08325 12.1474 7.08325H16.25C16.4429 7.08325 16.6107 7.21572 16.6554 7.40341L18.322 14.4034C18.3515 14.5274 18.3227 14.6582 18.2437 14.7582C18.1647 14.8583 18.0442 14.9166 17.9167 14.9166H16.564L15.4326 18.8647C15.3814 19.0434 15.218 19.1666 15.0321 19.1666H13.3013C13.1133 19.1666 12.9484 19.0406 12.8992 18.8591L11.8289 14.9166H10.4167C10.2886 14.9166 10.1676 14.8577 10.0886 14.7568C10.0096 14.6559 9.98144 14.5243 10.0122 14.3999L11.7429 7.39991V7.39991ZM12.4737 7.91659L10.9489 14.0833H12.1474C12.3355 14.0833 12.5003 14.2093 12.5496 14.3908L13.6199 18.3333H14.718L15.8495 14.3852C15.9007 14.2064 16.0641 14.0833 16.25 14.0833H17.3892L15.9209 7.91659H12.4737V7.91659Z" fill="#FF3D54"/>
</svg>
