<svg width="20" height="20" viewBox="0 0 20 20" fill="none" xmlns="http://www.w3.org/2000/svg">
<path fill-rule="evenodd" clip-rule="evenodd" d="M10.5 0.909091C9.5335 0.909091 8.75 1.72312 8.75 2.72727C8.75 3.73143 9.5335 4.54545 10.5 4.54545C11.4665 4.54545 12.25 3.73143 12.25 2.72727C12.25 1.72312 11.4665 0.909091 10.5 0.909091ZM7.875 2.72727C7.875 1.22105 9.05026 0 10.5 0C11.9497 0 13.125 1.22105 13.125 2.72727C13.125 4.2335 11.9497 5.45455 10.5 5.45455C9.05026 5.45455 7.875 4.2335 7.875 2.72727ZM7 8.18182C7 7.4287 7.58762 6.81818 8.3125 6.81818H12.6875C13.4124 6.81818 14 7.4287 14 8.18182V12.6055C14 13.2011 13.6279 13.7278 13.081 13.9065L12.6359 14.0517C12.4536 14.1113 12.3295 14.2868 12.3295 14.4854V19.5455C12.3295 19.7965 12.1337 20 11.892 20H9.10795C8.86633 20 8.67045 19.7965 8.67045 19.5455V14.4854C8.67045 14.2868 8.54643 14.1113 8.36413 14.0517L7.91898 13.9065C7.37208 13.7278 7 13.2011 7 12.6055V8.18182ZM8.3125 7.72727C8.07088 7.72727 7.875 7.93078 7.875 8.18182V12.6055C7.875 12.8041 7.99902 12.9796 8.18133 13.0392L8.62648 13.1845C9.17339 13.3631 9.54545 13.8898 9.54545 14.4854V19.0909H11.4545V14.4854C11.4545 13.8898 11.8266 13.3631 12.3735 13.1845L12.8187 13.0392C13.001 12.9796 13.125 12.8041 13.125 12.6055V8.18182C13.125 7.93078 12.9291 7.72727 12.6875 7.72727H8.3125Z" fill="#FF3D54"/>
</svg>
