<svg width="20" height="20" viewBox="0 0 20 20" fill="none" xmlns="http://www.w3.org/2000/svg">
<path d="M18.2222 5.33328H15.44C15.1222 5.33328 14.8267 5.16217 14.6689 4.88439L13.66 3.11772C13.3422 2.56439 12.7511 2.22217 12.1156 2.22217H7.88444C7.24889 2.22217 6.65778 2.56439 6.34 3.11772L5.33111 4.88439C5.17333 5.16217 4.87778 5.33328 4.56 5.33328H1.77778C0.797778 5.33328 0 6.13106 0 7.11106V15.9999C0 16.9799 0.797778 17.7777 1.77778 17.7777H18.2222C19.2022 17.7777 20 16.9799 20 15.9999V7.11106C20 6.13106 19.2022 5.33328 18.2222 5.33328ZM19.1111 15.9999C19.1111 16.4911 18.7133 16.8888 18.2222 16.8888H1.77778C1.28667 16.8888 0.888889 16.4911 0.888889 15.9999V7.11106C0.888889 6.61995 1.28667 6.22217 1.77778 6.22217H4.56C5.19556 6.22217 5.78667 5.87995 6.10444 5.32661L7.11333 3.55995C7.27111 3.28439 7.56667 3.11106 7.88444 3.11106H12.1156C12.4333 3.11106 12.7289 3.28217 12.8867 3.55995L13.8956 5.32661C14.2111 5.87995 14.8022 6.22217 15.44 6.22217H18.2222C18.7133 6.22217 19.1111 6.61995 19.1111 7.11106V15.9999ZM10 6.66661C7.54889 6.66661 5.55556 8.65995 5.55556 11.1111C5.55556 13.5622 7.54889 15.5555 10 15.5555C12.4511 15.5555 14.4444 13.5622 14.4444 11.1111C14.4444 8.65995 12.4511 6.66661 10 6.66661ZM10 14.6666C8.04 14.6666 6.44444 13.0711 6.44444 11.1111C6.44444 9.15106 8.04 7.5555 10 7.5555C11.96 7.5555 13.5556 9.15106 13.5556 11.1111C13.5556 13.0711 11.96 14.6666 10 14.6666Z" fill="#FF3D54"/>
</svg>
