<svg width="24" height="24" viewBox="0 0 24 24" fill="none" xmlns="http://www.w3.org/2000/svg">
<path d="M5.90427 1.0002C3.19395 1.0002 0.999219 3.19649 0.999219 5.9069V18.0951C0.999219 20.8055 3.19394 23.0002 5.90427 23.0002H18.0942C20.8045 23.0002 22.9992 20.8055 22.9992 18.0951V5.9069C22.9992 3.19649 20.8045 1.0002 18.0942 1.0002H5.90427ZM5.90427 1.84635H18.0942C20.3504 1.84635 22.1531 3.65056 22.1531 5.9069V18.0951C22.1531 20.3513 20.3504 22.154 18.0942 22.154H5.90427C3.64808 22.154 1.84537 20.3513 1.84537 18.0951V5.9069C1.84537 3.65056 3.64807 1.84635 5.90427 1.84635ZM9.86896 6.92327C9.75935 6.92712 9.65551 6.97338 9.57936 7.05231C9.5032 7.13124 9.46068 7.23667 9.46076 7.34635V16.6524C9.46031 16.7321 9.48241 16.8103 9.52449 16.8781C9.56658 16.9458 9.62695 17.0002 9.69864 17.0351C9.77032 17.07 9.85041 17.0839 9.92967 17.0753C10.0089 17.0666 10.0841 17.0358 10.1466 16.9862C12.1205 15.4353 14.0957 13.8834 16.0697 12.3324C16.1199 12.2928 16.1605 12.2423 16.1884 12.1848C16.2163 12.1273 16.2308 12.0641 16.2308 12.0002C16.2308 11.9363 16.2163 11.8731 16.1884 11.8156C16.1605 11.7581 16.1199 11.7076 16.0697 11.668L10.1466 7.01417C10.0678 6.95186 9.96937 6.91964 9.86896 6.92327ZM10.3069 8.21729L15.1227 12.0002C13.5178 13.2613 11.9118 14.5221 10.3069 15.7831V8.21729Z" fill="white"/>
<path fill-rule="evenodd" clip-rule="evenodd" d="M16.0697 12.3324L10.1466 16.9862C10.0841 17.0358 10.0089 17.0666 9.92967 17.0753C9.85041 17.0839 9.77032 17.07 9.69864 17.0351C9.62695 17.0002 9.56658 16.9458 9.52449 16.8781C9.48241 16.8103 9.46031 16.7321 9.46076 16.6524V7.34635C9.46068 7.23667 9.5032 7.13124 9.57936 7.05231C9.65551 6.97338 9.75935 6.92712 9.86896 6.92327C9.96937 6.91964 10.0678 6.95186 10.1466 7.01417L16.0697 11.668C16.1199 11.7076 16.1605 11.7581 16.1884 11.8156C16.2163 11.8731 16.2308 11.9363 16.2308 12.0002C16.2308 12.0641 16.2163 12.1273 16.1884 12.1848C16.1605 12.2423 16.1199 12.2928 16.0697 12.3324ZM10.3327 6.77883C10.3327 6.77889 10.3326 6.77876 10.3327 6.77883L16.255 11.4321C16.3409 11.4998 16.4106 11.5864 16.4583 11.6847C16.506 11.783 16.5308 11.8909 16.5308 12.0002C16.5308 12.1095 16.506 12.2174 16.4583 12.3157C16.4106 12.414 16.3413 12.5003 16.2554 12.568L10.333 17.2213C10.3329 17.2214 10.3331 17.2212 10.333 17.2213C10.2263 17.3058 10.0975 17.3587 9.96222 17.3735C9.82676 17.3883 9.68987 17.3645 9.56734 17.3049C9.44481 17.2452 9.34163 17.1522 9.2697 17.0364C9.19793 16.921 9.16018 16.7876 9.16076 16.6517L9.16076 7.34657C9.16076 7.3465 9.16076 7.34665 9.16076 7.34657C9.16068 7.15919 9.23335 6.97886 9.36346 6.84401C9.49363 6.7091 9.6711 6.63002 9.85845 6.62346C9.85856 6.62345 9.85834 6.62346 9.85845 6.62346M10.3327 6.77883C10.1981 6.67253 10.0298 6.61733 9.85845 6.62346L10.3327 6.77883ZM0.699219 5.9069C0.699219 3.03094 3.02814 0.700195 5.90427 0.700195H18.0942C20.9703 0.700195 23.2992 3.03094 23.2992 5.9069V18.0951C23.2992 20.9711 20.9702 23.3002 18.0942 23.3002H5.90427C3.02825 23.3002 0.699219 20.9711 0.699219 18.0951V5.9069ZM18.0942 2.14635H5.90427C3.81391 2.14635 2.14537 3.81609 2.14537 5.9069V18.0951C2.14537 20.1856 3.81377 21.854 5.90427 21.854H18.0942C20.1847 21.854 21.8531 20.1856 21.8531 18.0951V5.9069C21.8531 3.81609 20.1845 2.14635 18.0942 2.14635ZM10.3069 8.21729V15.7831C10.4069 15.7045 10.5069 15.626 10.6069 15.5474C11.2326 15.0558 11.8585 14.5643 12.4844 14.0727C13.283 13.4455 14.0816 12.8183 14.8799 12.191C14.9609 12.1274 15.0418 12.0638 15.1227 12.0002L10.3069 8.21729ZM10.6069 8.83444V15.1659C11.1713 14.7225 11.7358 14.2792 12.3002 13.8359C13.0792 13.224 13.8582 12.6122 14.6371 12.0002L10.6069 8.83444ZM0.999219 5.9069C0.999219 3.19649 3.19395 1.0002 5.90427 1.0002H18.0942C20.8045 1.0002 22.9992 3.19649 22.9992 5.9069V18.0951C22.9992 20.8055 20.8045 23.0002 18.0942 23.0002H5.90427C3.19394 23.0002 0.999219 20.8055 0.999219 18.0951V5.9069ZM18.0942 1.84635H5.90427C3.64807 1.84635 1.84537 3.65056 1.84537 5.9069V18.0951C1.84537 20.3513 3.64808 22.154 5.90427 22.154H18.0942C20.3504 22.154 22.1531 20.3513 22.1531 18.0951V5.9069C22.1531 3.65056 20.3504 1.84635 18.0942 1.84635Z" fill="white"/>
</svg>
