<svg width="20" height="20" viewBox="0 0 20 20" fill="none" xmlns="http://www.w3.org/2000/svg">
<path fill-rule="evenodd" clip-rule="evenodd" d="M0.75 2.5C0.75 1.55719 1.55719 0.75 2.5 0.75H8.58333C9.39128 0.75 10.0994 1.05899 10.6869 1.64645L18.5202 9.47978C18.9463 9.90581 19.25 10.6159 19.25 11.25C19.25 11.868 19.0405 12.5 18.5202 13.0202L13.0202 18.5202C12.5942 18.9463 11.8841 19.25 11.25 19.25C10.632 19.25 10 19.0405 9.47978 18.5202L1.66151 10.702C1.03574 10.1694 0.75 9.3556 0.75 8.58333V2.5ZM2.5 1.75C2.10948 1.75 1.75 2.10948 1.75 2.5V8.58333C1.75 9.13687 1.95866 9.64803 2.32009 9.94922C2.3317 9.9589 2.34287 9.96909 2.35355 9.97978L10.1869 17.8131C10.5 18.1262 10.868 18.25 11.25 18.25C11.6159 18.25 12.0725 18.0537 12.3131 17.8131L17.8131 12.3131C18.1262 12 18.25 11.632 18.25 11.25C18.25 10.8841 18.0537 10.4275 17.8131 10.1869L9.97978 2.35355C9.56723 1.94101 9.10872 1.75 8.58333 1.75H2.5Z" fill="#FF3D54"/>
<path fill-rule="evenodd" clip-rule="evenodd" d="M4.16669 3.41675C3.75247 3.41675 3.41669 3.75253 3.41669 4.16675C3.41669 4.58096 3.75247 4.91675 4.16669 4.91675C4.5809 4.91675 4.91669 4.58096 4.91669 4.16675C4.91669 3.75253 4.5809 3.41675 4.16669 3.41675ZM2.41669 4.16675C2.41669 3.20025 3.20019 2.41675 4.16669 2.41675C5.13319 2.41675 5.91669 3.20025 5.91669 4.16675C5.91669 5.13325 5.13319 5.91675 4.16669 5.91675C3.20019 5.91675 2.41669 5.13325 2.41669 4.16675Z" fill="#FF3D54"/>
</svg>
