<svg width="15" height="20" viewBox="0 0 15 20" fill="none" xmlns="http://www.w3.org/2000/svg">
<path d="M11.5517 8.36373C10.0668 7.15161 9.21833 5.36373 9.21833 3.39404V3.0304H9.40015C9.58197 3.0304 9.70318 2.90919 9.70318 2.72737C9.70318 2.54555 9.58197 2.42434 9.40015 2.42434H8.8547V0.454642C8.8547 0.272823 8.73348 0.151611 8.55167 0.151611H5.67288C5.49106 0.151611 5.36985 0.272823 5.36985 0.454642V2.42434H4.82439C4.64258 2.42434 4.52136 2.54555 4.52136 2.72737C4.52136 2.90919 4.64258 3.0304 4.82439 3.0304H5.00621V3.45464C5.00621 5.33343 4.12742 7.15161 2.58197 8.45464C0.824394 9.84858 -0.0846964 11.9698 0.00621265 14.2122C0.127425 16.4546 1.33955 18.5456 3.27894 19.788C3.33955 19.8183 3.36985 19.8486 3.43045 19.8486H10.7335C10.7941 19.8486 10.8547 19.8183 10.885 19.788C12.9456 18.4849 14.1577 16.2728 14.1577 13.8486C14.1577 11.6971 13.2183 9.69707 11.5517 8.36373ZM5.94561 0.757672H8.21833V2.42434H5.94561V0.757672ZM10.6729 19.2425H3.55167C1.82439 18.091 0.733485 16.2122 0.642576 14.1819C0.521364 12.1213 1.36985 10.2122 2.94561 8.87888C4.61227 7.48494 5.58197 5.48494 5.58197 3.42434V3.0304H8.58197V3.39404C8.58197 5.51525 9.52136 7.51525 11.1577 8.81828C12.6729 10.0607 13.5517 11.8789 13.5517 13.8486C13.5517 16.0304 12.4911 18.0304 10.6729 19.2425Z" fill="#FF3D54"/>
<path d="M11.3092 11.909C11.2486 11.909 10.2789 11.6969 9.06682 11.9696C8.24864 10.5756 6.52137 9.96958 5.00622 10.6665C4.94561 10.6969 4.88501 10.7575 4.8547 10.8484C4.8244 10.9393 4.8244 10.9999 4.8547 11.0908C5.27895 11.9999 6.12743 12.6362 7.09713 12.8181C6.73349 13.0605 6.36986 13.3635 6.03652 13.7575C5.36986 13.3332 4.43046 13.515 3.73349 13.9696C2.73349 14.6362 2.30925 15.7272 2.7941 16.4847C3.33955 17.3332 4.61228 17.212 5.46076 16.6665C6.43046 16.0302 6.8547 14.9999 6.43046 14.2423C6.55167 14.1211 6.64258 13.9999 6.76379 13.909C6.70319 15.1211 7.58198 16.3029 8.49107 16.3029C8.52137 16.3029 9.30925 16.3332 9.58198 15.3332C9.7941 14.4544 9.36985 13.3029 8.61228 12.8181C8.73349 12.7878 8.88501 12.7272 9.00622 12.6665C10.1577 12.3635 11.0971 12.5453 11.1577 12.5756C11.3092 12.6059 11.4911 12.515 11.5214 12.3332C11.582 12.0908 11.4608 11.9393 11.3092 11.909ZM5.15773 16.0908C4.61228 16.4544 3.67289 16.6362 3.33955 16.0908C3.03652 15.6362 3.40016 14.8787 4.09713 14.4241C4.64258 14.0605 5.58198 13.8787 5.91531 14.4241C6.21834 14.8787 5.8547 15.6362 5.15773 16.0908ZM5.55167 11.0908C6.64258 10.7575 7.8244 11.1817 8.46076 12.1211C7.33955 12.4847 6.15773 11.9999 5.55167 11.0908ZM8.52137 15.6059C8.21834 15.6059 7.73349 15.2423 7.52137 14.6059C7.33955 14.0302 7.36986 13.1211 7.94561 13.1211C9.00622 13.0908 9.46076 15.6059 8.52137 15.6059Z" fill="#FF3D54"/>
</svg>
