<svg width="30" height="30" viewBox="0 0 30 30" fill="none" xmlns="http://www.w3.org/2000/svg">
<path fill-rule="evenodd" clip-rule="evenodd" d="M21.2484 1.23711C19.5087 1.23711 18.0984 2.64741 18.0984 4.38711C18.0984 6.12681 19.5087 7.53711 21.2484 7.53711C22.9881 7.53711 24.3984 6.12681 24.3984 4.38711C24.3984 2.64741 22.9881 1.23711 21.2484 1.23711ZM16.8984 4.38711C16.8984 1.98467 18.846 0.0371094 21.2484 0.0371094C23.6508 0.0371094 25.5984 1.98467 25.5984 4.38711C25.5984 6.78955 23.6508 8.73711 21.2484 8.73711C18.846 8.73711 16.8984 6.78955 16.8984 4.38711Z" fill="white"/>
<path fill-rule="evenodd" clip-rule="evenodd" d="M14.5437 11.8188C16.6037 10.7117 18.8941 10.1016 21.2319 10.0373L21.2484 10.6371L21.2649 10.0373C23.6027 10.1016 25.8931 10.7117 27.9531 11.8188C28.5608 12.1331 29.0706 12.6082 29.4268 13.1924C29.784 13.7781 29.9731 14.4508 29.9734 15.1369V15.7092C29.9754 15.941 29.9317 16.171 29.8447 16.386C29.7572 16.602 29.6278 16.7985 29.4639 16.9642C29.3 17.1299 29.1048 17.2614 28.8898 17.3512C28.6747 17.4409 28.444 17.4871 28.2109 17.4871M21.2484 11.2373C23.395 11.299 25.4978 11.8607 27.3892 12.878L27.3985 12.8829C27.8125 13.0963 28.1598 13.4196 28.4023 13.8172C28.6448 14.2148 28.7732 14.6714 28.7734 15.1371V15.7121L28.7734 15.7186C28.7742 15.7929 28.7603 15.8667 28.7324 15.9357C28.7045 16.0046 28.6632 16.0674 28.6108 16.1202C28.5585 16.1731 28.4963 16.2151 28.4276 16.2437C28.359 16.2724 28.2853 16.2871 28.2109 16.2871H14.2859C14.2115 16.2871 14.1378 16.2724 14.0692 16.2437C14.0006 16.2151 13.9383 16.1731 13.886 16.1202C13.8337 16.0673 13.7924 16.0046 13.7644 15.9357C13.7365 15.8667 13.7226 15.7929 13.7234 15.7186L13.7234 15.1374C13.7236 14.6717 13.852 14.2148 14.0945 13.8172C14.337 13.4196 14.6843 13.0963 15.0983 12.8829L15.1076 12.878C16.9991 11.8607 19.1018 11.299 21.2484 11.2373ZM14.5437 11.8188C13.936 12.1331 13.4263 12.6082 13.07 13.1924C12.7128 13.7781 12.5237 14.4508 12.5234 15.1369L12.5234 15.7092C12.5214 15.9411 12.5651 16.171 12.6521 16.386C12.7396 16.602 12.869 16.7985 13.0329 16.9642C13.1968 17.1299 13.392 17.2614 13.6071 17.3512C13.8221 17.4409 14.0529 17.4871 14.2859 17.4871H28.2109" fill="white"/>
<path fill-rule="evenodd" clip-rule="evenodd" d="M0.242794 16.4108C0.381677 16.2968 0.56432 16.2511 0.740521 16.2861L5.83098 17.2992C6.29264 17.3935 6.70093 17.6604 6.97252 18.0455C7.09962 18.2257 7.1923 18.4254 7.24817 18.6347C8.34411 18.3297 9.47547 18.1665 10.6146 18.1497L10.6234 18.1495C11.7581 18.1495 12.6437 18.5469 13.4934 18.9537C13.5578 18.9846 13.6221 19.0155 13.6865 19.0465C14.4803 19.4285 15.285 19.8157 16.3683 20.0367C17.6305 20.2942 18.7926 20.6004 19.6494 21.0348C20.4961 21.4641 21.2234 22.1169 21.2234 23.1246C21.2234 23.6322 21.0174 24.1074 20.5579 24.4461C20.1304 24.7612 19.5343 24.9209 18.8071 24.9657C17.3509 25.0552 15.0798 24.6979 11.7034 23.7C11.3856 23.6061 11.2041 23.2723 11.298 22.9546C11.3919 22.6368 11.7257 22.4553 12.0435 22.5492C15.392 23.5388 17.4959 23.844 18.7335 23.7679C19.3531 23.7298 19.6836 23.5998 19.8459 23.4801C19.9763 23.384 20.0234 23.2795 20.0234 23.1246C20.0234 22.8073 19.8195 22.4664 19.1068 22.1051C18.4042 21.7489 17.3788 21.4676 16.1285 21.2125C14.8935 20.9606 13.9652 20.5131 13.176 20.1327C13.1081 20.0999 13.0412 20.0677 12.9753 20.0361C12.1358 19.6342 11.466 19.3506 10.6277 19.3496C9.47066 19.3671 8.32239 19.5507 7.21802 19.8945L6.3675 25.8711C6.30457 26.3154 6.08221 26.7222 5.74198 27.0148C5.40241 27.3068 4.96847 27.4657 4.52069 27.4621H0.623407C0.292036 27.4621 0.023407 27.1935 0.023407 26.8621V16.8746C0.023407 16.695 0.103912 16.5247 0.242794 16.4108ZM6.10435 19.2029C6.12753 19.039 6.08732 18.8724 5.99192 18.7372C5.89674 18.6022 5.75377 18.5086 5.59208 18.4752L1.22341 17.6058V26.2621H4.52931C4.68704 26.2637 4.83994 26.2078 4.95953 26.105C5.07912 26.0021 5.15724 25.8593 5.17931 25.7031L6.10435 19.2029Z" fill="white"/>
<path fill-rule="evenodd" clip-rule="evenodd" d="M26.1725 21.9044C26.1977 21.9012 26.223 21.8996 26.2484 21.8996C27.0975 21.8996 27.9828 22.0675 28.6792 22.4389C29.3815 22.8135 29.9734 23.4508 29.9734 24.3746C29.9734 24.6128 29.8325 24.8284 29.6144 24.9241C29.1588 25.1239 28.4487 25.4728 27.5692 25.9049C27.4468 25.9651 27.3212 26.0268 27.1925 26.09C26.1474 26.6029 24.9178 27.2021 23.6622 27.7724C22.408 28.3422 21.1178 28.8879 19.9511 29.2921C18.8019 29.6903 17.709 29.9746 16.8734 29.9746C16.0481 29.9746 14.9457 29.7153 13.8067 29.3617C12.6508 29.0029 11.3959 28.5271 10.2416 28.055C9.08579 27.5822 8.02291 27.11 7.24941 26.7562C6.86244 26.5792 6.54739 26.4316 6.32874 26.328C6.21941 26.2763 6.13415 26.2355 6.07602 26.2076L6.00954 26.1756L5.98655 26.1645C5.98655 26.1645 5.98604 26.1642 6.23695 25.6482L5.98655 26.1645C5.68854 26.0196 5.56391 25.6603 5.70881 25.3622C5.85371 25.0642 6.21276 24.9401 6.51077 25.085L6.5317 25.0951L6.59545 25.1258C6.65172 25.1529 6.735 25.1927 6.84224 25.2435C7.05675 25.345 7.36699 25.4904 7.74858 25.6649C8.51218 26.0142 9.55946 26.4795 10.6959 26.9443C11.8337 27.4096 13.053 27.8713 14.1624 28.2156C15.2886 28.5652 16.2425 28.7746 16.8734 28.7746C17.4941 28.7746 18.4246 28.5511 19.5582 28.1583C20.6744 27.7715 21.9263 27.243 23.1659 26.6799C24.404 26.1175 25.6197 25.5252 26.6637 25.0128C26.7922 24.9497 26.9184 24.8877 27.0418 24.827C27.6795 24.5137 28.2455 24.2356 28.6919 24.0261C28.596 23.8342 28.4112 23.656 28.1145 23.4978C27.6473 23.2486 26.9854 23.1047 26.2857 23.0997C24.4261 23.3394 22.5921 23.7481 20.8067 24.3209C20.4912 24.4222 20.1533 24.2484 20.0521 23.9329C19.9509 23.6174 20.1246 23.2795 20.4401 23.1783C22.3079 22.5791 24.2267 22.1527 26.1725 21.9044Z" fill="white"/>
</svg>
