<svg width="20" height="20" viewBox="0 0 20 20" fill="none" xmlns="http://www.w3.org/2000/svg">
<path d="M16.8061 2.01514C16.7488 2.02208 16.6934 2.03731 16.6447 2.06786C16.6447 2.06786 11.743 5.14346 9.2283 10.5274C9.14671 10.7021 9.0756 10.8851 9.00586 11.0577C8.80074 11.4991 9.48882 11.7779 9.64876 11.3181C9.72034 11.141 9.78954 10.9675 9.85764 10.8217C12.0816 6.18182 15.6888 3.61749 16.5444 2.97534C16.5983 3.87944 16.9767 8.38714 14.8205 13.1316C13.9875 14.9643 12.0709 17.3081 10.3052 18.9543L8.16629 17.9574C7.73958 17.7419 7.43373 18.3988 7.87332 18.5867L10.2401 19.6894C10.3673 19.7484 10.5177 19.7255 10.6213 19.6311C12.4949 17.9221 14.5035 15.452 15.4498 13.4259C17.9645 8.04195 17.1737 2.3148 17.1737 2.3148C17.1491 2.13369 16.9885 2.00261 16.8061 2.01497V2.01514Z" fill="#FF3D54"/>
<path d="M6.17924 0.625C6.06114 0.625278 5.95129 0.685438 5.88763 0.78509C5.88763 0.78509 2.70837 5.71076 2.70837 11.7361C2.70837 14.0028 3.49139 17.1362 4.47839 19.5093C4.5327 19.6386 4.65952 19.7227 4.79985 19.7222H7.55999C7.70032 19.7227 7.82716 19.6386 7.88144 19.5093C8.86845 17.1362 9.65282 14.0028 9.65282 11.7361C9.65282 5.71076 6.47221 0.78509 6.47221 0.78509C6.40826 0.685229 6.29783 0.624861 6.17924 0.625V0.625ZM6.18341 1.7088C6.66179 2.50352 8.95871 6.50597 8.95871 11.7361C8.95871 13.7798 8.22363 16.7575 7.30805 19.0278H5.05246C4.13687 16.7575 3.40315 13.7798 3.40315 11.7361C3.40315 6.50646 5.70469 2.50415 6.18341 1.7088Z" fill="#FF3D54"/>
<path fill-rule="evenodd" clip-rule="evenodd" d="M12.0576 6.58469L12.0359 7.27913L14.4977 7.35645L16.1375 9.18886L16.6556 8.72499L14.9154 6.78272C14.884 6.74769 14.8458 6.71946 14.8032 6.69964C14.7605 6.67982 14.7143 6.66883 14.6672 6.66743L12.0576 6.58469ZM10.4178 8.46729L10.4056 9.16173L13.6269 9.22014L15.7428 11.6453L16.2663 11.1895L14.0487 8.64776C14.0169 8.61116 13.9778 8.5816 13.9338 8.56104C13.8899 8.54048 13.8422 8.52931 13.7937 8.52832L10.4178 8.46729ZM5.83337 0.972168V19.3749H6.52782V0.972168H5.83337Z" fill="#FF3D54"/>
</svg>
