<svg width="20" height="20" viewBox="0 0 20 20" fill="none" xmlns="http://www.w3.org/2000/svg">
<g clip-path="url(#clip0_505_3850)">
<path d="M4.17526 6.57227H9.6769C9.71842 6.57233 9.75951 6.58067 9.79778 6.59678C9.83604 6.61289 9.87072 6.63646 9.89978 6.66611L11.0728 7.83917L10.85 8.05814L11.0728 7.83917C11.1303 7.89756 11.1626 7.97618 11.1628 8.05814V9.47363C11.1616 9.55614 11.1279 9.63484 11.0689 9.6926L9.89587 10.8657C9.83812 10.9246 9.75941 10.9583 9.6769 10.9595H4.17526C4.13374 10.9594 4.09265 10.9511 4.05439 10.935C4.01612 10.9189 3.98145 10.8953 3.95238 10.8657L2.77933 9.6926C2.72182 9.63421 2.68953 9.55558 2.68939 9.47363V8.05814C2.68953 7.97618 2.72182 7.89756 2.77933 7.83917L3.95238 6.66611L4.17526 6.88508L3.95238 6.66611C3.98145 6.63646 4.01612 6.61289 4.05439 6.59678C4.09265 6.58067 4.13374 6.57233 4.17526 6.57227V6.57227ZM9.54787 7.1979H4.3043L3.31502 8.19108V9.34068L4.3043 10.3339H9.54396L10.5371 9.34068V8.19499L9.54787 7.20181V7.1979Z" fill="#FF3D54"/>
<path d="M8.89092 10.6467C8.89092 10.5638 8.85797 10.4842 8.7993 10.4255C8.74064 10.3669 8.66107 10.3339 8.57811 10.3339C8.49514 10.3339 8.41558 10.3669 8.35691 10.4255C8.29825 10.4842 8.26529 10.5638 8.26529 10.6467V11.9605C8.26529 12.0435 8.29825 12.1231 8.35691 12.1817C8.41558 12.2404 8.49514 12.2734 8.57811 12.2734C8.66107 12.2734 8.74064 12.2404 8.7993 12.1817C8.85797 12.1231 8.89092 12.0435 8.89092 11.9605V10.6467ZM4.96118 11.9605C4.96118 12.0435 4.99414 12.1231 5.0528 12.1817C5.11147 12.2404 5.19103 12.2734 5.274 12.2734C5.35696 12.2734 5.43653 12.2404 5.49519 12.1817C5.55385 12.1231 5.58681 12.0435 5.58681 11.9605V10.6467C5.58681 10.5638 5.55385 10.4842 5.49519 10.4255C5.43653 10.3669 5.35696 10.3339 5.274 10.3339C5.19103 10.3339 5.11147 10.3669 5.0528 10.4255C4.99414 10.4842 4.96118 10.5638 4.96118 10.6467V11.9605ZM10.8538 7.74536C10.7709 7.74536 10.6913 7.77832 10.6326 7.83698C10.574 7.89565 10.541 7.97521 10.541 8.05818C10.541 8.14114 10.574 8.22071 10.6326 8.27937C10.6913 8.33803 10.7709 8.37099 10.8538 8.37099H14.1658V9.17258H10.8499C10.767 9.17258 10.6874 9.20554 10.6287 9.2642C10.5701 9.32287 10.5371 9.40243 10.5371 9.4854C10.5371 9.56836 10.5701 9.64793 10.6287 9.70659C10.6874 9.76525 10.767 9.79821 10.8499 9.79821H14.4786C14.5615 9.79821 14.6411 9.76525 14.6998 9.70659C14.7584 9.64793 14.7914 9.56836 14.7914 9.4854V8.05818C14.7914 7.97521 14.7584 7.89565 14.6998 7.83698C14.6411 7.77832 14.5615 7.74536 14.4786 7.74536H10.8499H10.8538Z" fill="#FF3D54"/>
<path d="M14.4786 8.94189C14.3957 8.94189 14.3161 8.97485 14.2574 9.03351C14.1988 9.09218 14.1658 9.17174 14.1658 9.25471C14.1658 9.33767 14.1988 9.41724 14.2574 9.4759C14.3161 9.53456 14.3957 9.56752 14.4786 9.56752H19.7026C19.7856 9.56752 19.8652 9.53456 19.9238 9.4759C19.9825 9.41724 20.0155 9.33767 20.0155 9.25471V8.28889C20.0155 8.20593 19.9825 8.12636 19.9238 8.0677C19.8652 8.00903 19.7856 7.97607 19.7026 7.97607H14.4786C14.3957 7.97607 14.3161 8.00903 14.2574 8.0677C14.1988 8.12636 14.1658 8.20593 14.1658 8.28889C14.1658 8.37185 14.1988 8.45142 14.2574 8.51008C14.3161 8.56875 14.3957 8.6017 14.4786 8.6017H19.3898V8.94189H14.4786V8.94189ZM1.25437 11.6477H14.8462C15.4757 11.6477 15.8394 11.9254 15.9958 12.3672C16.0876 12.6581 16.105 12.9672 16.0466 13.2666C15.9997 13.5794 15.8902 13.9078 15.7494 14.2441C15.2216 15.4563 14.1306 16.688 13.286 16.688H2.80672C2.04423 16.688 0.906364 15.4367 0.351117 14.2167C0.205789 13.9079 0.099399 13.5821 0.0343912 13.247C-0.0308056 12.9471 -0.0146049 12.6353 0.0813136 12.3438C0.245542 11.9136 0.613099 11.6477 1.25437 11.6477V11.6477ZM7.02581 12.2734H1.25437C0.918094 12.2734 0.734315 12.3829 0.667842 12.5627C0.611684 12.7494 0.604947 12.9475 0.648291 13.1375C0.703793 13.4214 0.794425 13.6972 0.918094 13.9587C1.39123 14.9988 2.27493 16.0623 2.80672 16.0623H13.286C13.8843 16.0623 14.7328 15.0222 15.1746 13.9939C15.2939 13.7317 15.3805 13.4559 15.4327 13.1727C15.4736 12.9757 15.4655 12.7716 15.4093 12.5784C15.3428 12.3907 15.1668 12.2734 14.8423 12.2734H7.0219H7.02581Z" fill="#FF3D54"/>
<path d="M3.50273 12.8988C3.75518 12.8955 4.00283 12.9679 4.21372 13.1067C4.42462 13.2454 4.58908 13.4443 4.68588 13.6774C4.78268 13.9106 4.80739 14.1674 4.7568 14.4148C4.70621 14.6621 4.58265 14.8886 4.40208 15.0651C4.22588 15.247 3.99903 15.3718 3.751 15.4232C3.50297 15.4746 3.24522 15.4502 3.01122 15.3533C2.77722 15.2563 2.57778 15.0912 2.43881 14.8794C2.29984 14.6676 2.22776 14.419 2.23192 14.1657C2.2314 13.9989 2.26395 13.8336 2.32767 13.6794C2.3914 13.5252 2.48505 13.3851 2.60321 13.2673C2.72138 13.1495 2.86171 13.0563 3.0161 12.9931C3.17049 12.9298 3.33589 12.8978 3.50273 12.8988V12.8988ZM3.95632 13.7121C3.86663 13.6224 3.75234 13.5613 3.62791 13.5365C3.50348 13.5117 3.3745 13.5244 3.25729 13.573C3.14008 13.6216 3.03991 13.7038 2.96945 13.8093C2.89899 13.9148 2.86141 14.0388 2.86146 14.1657C2.86063 14.2929 2.89765 14.4175 2.96781 14.5236C3.03797 14.6297 3.13811 14.7126 3.25548 14.7616C3.37285 14.8106 3.50215 14.8237 3.62695 14.799C3.75175 14.7744 3.8664 14.7132 3.95632 14.6232C4.01649 14.5636 4.06426 14.4926 4.09686 14.4144C4.12946 14.3362 4.14624 14.2524 4.14624 14.1677C4.14624 14.083 4.12946 13.9991 4.09686 13.9209C4.06426 13.8427 4.01649 13.7718 3.95632 13.7121ZM6.52531 12.8988C6.77775 12.8955 7.0254 12.9679 7.2363 13.1067C7.44719 13.2454 7.61166 13.4443 7.70846 13.6774C7.80526 13.9106 7.82996 14.1674 7.77937 14.4148C7.72879 14.6621 7.60523 14.8886 7.42465 15.0651C7.24822 15.2456 7.02171 15.3692 6.77436 15.4198C6.52702 15.4704 6.27019 15.4457 6.03702 15.3489C5.80385 15.2521 5.60504 15.0876 5.46626 14.8767C5.32747 14.6658 5.25507 14.4182 5.25841 14.1657C5.25789 13.9992 5.29031 13.8342 5.35379 13.6803C5.41728 13.5263 5.51058 13.3865 5.62832 13.2687C5.74607 13.151 5.88594 13.0577 6.03988 12.9942C6.19382 12.9307 6.35879 12.8983 6.52531 12.8988V12.8988ZM6.9828 13.7121C6.89333 13.621 6.77871 13.5587 6.6536 13.5332C6.5285 13.5076 6.39862 13.52 6.2806 13.5687C6.16258 13.6175 6.06179 13.7003 5.99114 13.8066C5.92049 13.913 5.8832 14.038 5.88404 14.1657C5.88321 14.2929 5.92023 14.4175 5.99039 14.5236C6.06055 14.6297 6.16068 14.7126 6.27805 14.7616C6.39543 14.8106 6.52473 14.8237 6.64953 14.799C6.77433 14.7744 6.88897 14.7132 6.97889 14.6232C7.03907 14.5636 7.08683 14.4926 7.11943 14.4144C7.15203 14.3362 7.16882 14.2524 7.16882 14.1677C7.16882 14.083 7.15203 13.9991 7.11943 13.9209C7.08683 13.8427 7.03907 13.7718 6.97889 13.7121H6.9828ZM9.5518 12.8988C9.80424 12.8955 10.0519 12.9679 10.2628 13.1067C10.4737 13.2454 10.6381 13.4443 10.7349 13.6774C10.8317 13.9106 10.8565 14.1674 10.8059 14.4148C10.7553 14.6621 10.6317 14.8886 10.4511 15.0651C10.2749 15.247 10.0481 15.3718 9.80006 15.4232C9.55203 15.4746 9.29428 15.4502 9.06028 15.3533C8.82628 15.2563 8.62684 15.0912 8.48787 14.8794C8.3489 14.6676 8.27682 14.419 8.28099 14.1657C8.28047 13.9989 8.31301 13.8336 8.37674 13.6794C8.44047 13.5252 8.53412 13.3851 8.65228 13.2673C8.77044 13.1495 8.91077 13.0563 9.06516 12.9931C9.21956 12.9298 9.38495 12.8978 9.5518 12.8988V12.8988ZM10.0054 13.7121C9.9157 13.6224 9.80141 13.5613 9.67698 13.5365C9.55255 13.5117 9.42357 13.5244 9.30636 13.573C9.18915 13.6216 9.08897 13.7038 9.01851 13.8093C8.94805 13.9148 8.91047 14.0388 8.91053 14.1657C8.90969 14.2929 8.94671 14.4175 9.01687 14.5236C9.08704 14.6297 9.18717 14.7126 9.30454 14.7616C9.42191 14.8106 9.55122 14.8237 9.67602 14.799C9.80081 14.7744 9.91546 14.7132 10.0054 14.6232C10.0656 14.5636 10.1133 14.4926 10.1459 14.4144C10.1785 14.3362 10.1953 14.2524 10.1953 14.1677C10.1953 14.083 10.1785 13.9991 10.1459 13.9209C10.1133 13.8427 10.0656 13.7718 10.0054 13.7121ZM12.5744 12.8988C12.826 12.8974 13.0723 12.971 13.2819 13.1101C13.4916 13.2492 13.655 13.4476 13.7515 13.6799C13.848 13.9123 13.8731 14.1681 13.8236 14.4148C13.7741 14.6615 13.6523 14.8879 13.4737 15.0651C13.2965 15.2437 13.0701 15.3655 12.8235 15.4149C12.5768 15.4644 12.3209 15.4393 12.0886 15.3428C11.8562 15.2464 11.6578 15.0829 11.5187 14.8733C11.3796 14.6636 11.3061 14.4173 11.3075 14.1657C11.307 13.9992 11.3394 13.8342 11.4029 13.6803C11.4663 13.5263 11.5596 13.3865 11.6774 13.2687C11.7951 13.151 11.935 13.0577 12.0889 12.9942C12.2429 12.9307 12.4079 12.8983 12.5744 12.8988V12.8988ZM13.028 13.7121C12.9383 13.6224 12.824 13.5613 12.6996 13.5365C12.5751 13.5117 12.4461 13.5244 12.3289 13.573C12.2117 13.6216 12.1116 13.7038 12.0411 13.8093C11.9706 13.9148 11.933 14.0388 11.9331 14.1657C11.9323 14.2929 11.9693 14.4175 12.0395 14.5236C12.1096 14.6297 12.2097 14.7126 12.3271 14.7616C12.4445 14.8106 12.5738 14.8237 12.6986 14.799C12.8234 14.7744 12.938 14.7132 13.028 14.6232C13.0881 14.5636 13.1359 14.4926 13.1685 14.4144C13.2011 14.3362 13.2179 14.2524 13.2179 14.1677C13.2179 14.083 13.2011 13.9991 13.1685 13.9209C13.1359 13.8427 13.0881 13.7718 13.028 13.7121V13.7121ZM8.06984 4.62876C8.06984 4.54579 8.03688 4.46623 7.97821 4.40756C7.91955 4.3489 7.83998 4.31594 7.75702 4.31594C7.67406 4.31594 7.59449 4.3489 7.53583 4.40756C7.47716 4.46623 7.4442 4.54579 7.4442 4.62876V6.88494C7.4442 6.9679 7.47716 7.04747 7.53583 7.10613C7.59449 7.1648 7.67406 7.19775 7.75702 7.19775C7.83998 7.19775 7.91955 7.1648 7.97821 7.10613C8.03688 7.04747 8.06984 6.9679 8.06984 6.88494V4.62876ZM6.408 3.63557C6.408 3.55261 6.37505 3.47304 6.31638 3.41438C6.25772 3.35571 6.17815 3.32275 6.09519 3.32275C6.01223 3.32275 5.93266 3.35571 5.874 3.41438C5.81533 3.47304 5.78237 3.55261 5.78237 3.63557V6.88494C5.78237 6.9679 5.81533 7.04747 5.874 7.10613C5.93266 7.1648 6.01223 7.19775 6.09519 7.19775C6.17815 7.19775 6.25772 7.1648 6.31638 7.10613C6.37505 7.04747 6.408 6.9679 6.408 6.88494V3.63948V3.63557Z" fill="#FF3D54"/>
</g>
<defs>
<clipPath id="clip0_505_3850">
<rect width="20" height="20" fill="white"/>
</clipPath>
</defs>
</svg>
