<svg width="20" height="20" viewBox="0 0 20 20" fill="none" xmlns="http://www.w3.org/2000/svg">
<path fill-rule="evenodd" clip-rule="evenodd" d="M10 0.930232C8.93552 0.930232 8.00002 1.81892 8.00002 3.00211V4.65116H12V3.00211C12 1.81892 11.0645 0.930232 10 0.930232ZM7.00002 3.00211C7.00002 1.38301 8.30312 0 10 0C11.6969 0 13 1.38301 13 3.00211V5.11628C13 5.37315 12.7761 5.5814 12.5 5.5814H7.50002C7.22392 5.5814 7.00002 5.37315 7.00002 5.11628V3.00211ZM7.09152 6.86511C7.14672 6.65748 7.34702 6.51163 7.57692 6.51163H12.5C12.7315 6.51163 12.9328 6.6595 12.9864 6.86901L14.9864 14.683C15.0218 14.8214 14.9872 14.9673 14.8924 15.079C14.7976 15.1907 14.653 15.2558 14.5 15.2558H12.8768L11.5191 19.663C11.4577 19.8625 11.2616 20 11.0385 20H8.96152C8.73592 20 8.53812 19.8594 8.47902 19.6567L7.19462 15.2558H5.50002C5.34632 15.2558 5.20112 15.19 5.10632 15.0774C5.01152 14.9648 4.97772 14.8179 5.01462 14.6791L7.09152 6.86511ZM7.96842 7.44186L6.13872 14.3256H7.57692C7.80262 14.3256 8.00032 14.4662 8.05952 14.6688L9.34392 19.0698H10.6616L12.0194 14.6626C12.0808 14.4631 12.2769 14.3256 12.5 14.3256H13.867L12.1051 7.44186H7.96842Z" fill="#FF3D54"/>
</svg>
