<svg width="20" height="20" viewBox="0 0 20 20" fill="none" xmlns="http://www.w3.org/2000/svg">
<g clip-path="url(#clip0_427_1864)">
<path d="M19.5573 4.94068L19.5823 5.10402C19.3406 4.24652 18.6881 3.58485 17.8589 3.34402L17.8414 3.33985C16.2823 2.91652 10.0081 2.91652 10.0081 2.91652C10.0081 2.91652 3.74976 2.90818 2.17476 3.33985C1.32976 3.58485 0.676424 4.24652 0.438924 5.08652L0.434757 5.10402C-0.147743 8.14652 -0.15191 11.8023 0.46059 15.0599L0.434757 14.8949C0.676424 15.7524 1.32892 16.414 2.15809 16.6549L2.17559 16.659C3.73309 17.0832 10.0089 17.0832 10.0089 17.0832C10.0089 17.0832 16.2664 17.0832 17.8423 16.659C18.6881 16.414 19.3414 15.7524 19.5789 14.9124L19.5831 14.8949C19.8481 13.4799 19.9998 11.8515 19.9998 10.1882C19.9998 10.1273 19.9998 10.0657 19.9989 10.004C19.9998 9.94735 19.9998 9.87985 19.9998 9.81235C19.9998 8.14818 19.8481 6.51985 19.5573 4.94068V4.94068ZM8.00642 13.0423V6.96485L13.2281 10.0082L8.00642 13.0423Z" fill="white"/>
</g>
<defs>
<clipPath id="clip0_427_1864">
<rect width="20" height="20" fill="white"/>
</clipPath>
</defs>
</svg>
