<svg width="32" height="32" viewBox="0 0 32 32" fill="none" xmlns="http://www.w3.org/2000/svg">
<path d="M23.4502 20.93C23.1715 20.6503 22.8403 20.4284 22.4756 20.277C22.111 20.1256 21.72 20.0476 21.3252 20.0476C20.9303 20.0476 20.5394 20.1256 20.1747 20.277C19.8101 20.4284 19.4789 20.6503 19.2002 20.93L17.7502 22.38C16.1176 21.3439 14.605 20.1298 13.2402 18.76C11.8733 17.3926 10.6595 15.8803 9.62016 14.25L11.0702 12.8C11.3498 12.5213 11.5718 12.1901 11.7232 11.8255C11.8746 11.4608 11.9525 11.0698 11.9525 10.675C11.9525 10.2802 11.8746 9.8892 11.7232 9.52454C11.5718 9.15989 11.3498 8.82871 11.0702 8.55L8.24016 5.73C7.96539 5.44939 7.63701 5.22689 7.27453 5.07572C6.91206 4.92454 6.52289 4.84778 6.13016 4.85C5.73464 4.84903 5.34284 4.92628 4.97729 5.07731C4.61174 5.22833 4.27966 5.45015 4.00016 5.73L2.64016 7.08C1.99193 7.77697 1.50813 8.61035 1.22433 9.51887C0.940521 10.4274 0.863923 11.388 1.00016 12.33C1.32016 16.08 3.78016 20.59 7.57016 24.39C11.3602 28.19 15.9202 30.64 19.6702 31C19.95 31.015 20.2304 31.015 20.5102 31C21.3174 31.0339 22.1233 30.9063 22.8805 30.6247C23.6378 30.3431 24.3312 29.9131 24.9202 29.36L26.2702 28C26.55 27.7205 26.7718 27.3884 26.9229 27.0229C27.0739 26.6573 27.1511 26.2655 27.1502 25.87C27.1524 25.4773 27.0756 25.0881 26.9244 24.7256C26.7733 24.3632 26.5508 24.0348 26.2702 23.76L23.4502 20.93ZM24.8602 26.59L23.5002 27.94C22.9973 28.3591 22.4103 28.6653 21.7788 28.8378C21.1474 29.0103 20.4863 29.0452 19.8402 28.94C16.5902 28.66 12.4502 26.36 9.03016 22.94C5.61016 19.52 3.31016 15.41 3.00016 12.16C2.89232 11.5139 2.92588 10.8521 3.09852 10.2203C3.27116 9.5884 3.57878 9.00149 4.00016 8.5L5.41016 7.14C5.5036 7.04732 5.61442 6.97399 5.73626 6.92423C5.85809 6.87446 5.98856 6.84924 6.12016 6.85C6.25177 6.84924 6.38223 6.87446 6.50407 6.92423C6.62591 6.97399 6.73672 7.04732 6.83016 7.14L9.66016 10C9.84641 10.1874 9.95095 10.4408 9.95095 10.705C9.95095 10.9692 9.84641 11.2226 9.66016 11.41L7.66016 13.41C7.50366 13.5657 7.40309 13.7689 7.37415 13.9878C7.34521 14.2066 7.38952 14.4289 7.50016 14.62C8.69755 16.6585 10.1529 18.5339 11.8302 20.2C13.4962 21.8773 15.3717 23.3326 17.4102 24.53C17.6012 24.6406 17.8235 24.685 18.0424 24.656C18.2613 24.6271 18.4644 24.5265 18.6202 24.37L20.6202 22.37C20.8075 22.1838 21.061 22.0792 21.3252 22.0792C21.5893 22.0792 21.8428 22.1838 22.0302 22.37L24.8602 25.2C24.9528 25.2934 25.0262 25.4043 25.0759 25.5261C25.1257 25.6479 25.1509 25.7784 25.1502 25.91C25.1439 26.1654 25.0401 26.4087 24.8602 26.59ZM26.6002 5.39C25.2104 3.99497 23.5583 2.88884 21.739 2.13538C19.9197 1.38192 17.9693 0.996048 16.0002 1C15.7349 1 15.4806 1.10536 15.2931 1.29289C15.1055 1.48043 15.0002 1.73478 15.0002 2C15.0002 2.26522 15.1055 2.51957 15.2931 2.70711C15.4806 2.89464 15.7349 3 16.0002 3C17.7166 2.99994 19.4161 3.3398 21.0006 3.99998C22.585 4.66016 24.0231 5.62758 25.2317 6.84642C26.4403 8.06526 27.3955 9.51138 28.0423 11.1013C28.6892 12.6913 29.0147 14.3936 29.0002 16.11C29.0002 16.3752 29.1055 16.6296 29.2931 16.8171C29.4806 17.0046 29.7349 17.11 30.0002 17.11C30.2654 17.11 30.5197 17.0046 30.7073 16.8171C30.8948 16.6296 31.0002 16.3752 31.0002 16.11C31.0193 14.1199 30.6399 12.1462 29.8842 10.3051C29.1285 8.46396 28.0119 6.79276 26.6002 5.39Z" fill="#D1D1D1"/>
<path d="M20.9102 11.11C21.4777 11.6741 21.9267 12.346 22.2306 13.0862C22.5346 13.8264 22.6874 14.6199 22.6802 15.42C22.6802 15.6852 22.7855 15.9396 22.9731 16.1271C23.1606 16.3147 23.415 16.42 23.6802 16.42C23.9454 16.42 24.1997 16.3147 24.3873 16.1271C24.5748 15.9396 24.6802 15.6852 24.6802 15.42C24.6934 14.361 24.4963 13.31 24.1002 12.3278C23.704 11.3456 23.1169 10.4519 22.3727 9.6984C21.6285 8.9449 20.7421 8.34667 19.7649 7.93839C18.7877 7.53012 17.7392 7.31992 16.6802 7.32001C16.415 7.32001 16.1606 7.42536 15.9731 7.6129C15.7855 7.80044 15.6802 8.05479 15.6802 8.32001C15.6802 8.58522 15.7855 8.83958 15.9731 9.02711C16.1606 9.21465 16.415 9.32001 16.6802 9.32001C17.4683 9.32594 18.2474 9.48708 18.9732 9.79421C19.699 10.1013 20.3572 10.5485 20.9102 11.11Z" fill="#D1D1D1"/>
</svg>
