<svg width="24" height="24" viewBox="0 0 24 24" fill="none" xmlns="http://www.w3.org/2000/svg">
<g clip-path="url(#clip0_40_220)">
<path d="M23.25 12C23.2529 10.1105 22.7798 8.25066 21.8745 6.59218C20.9691 4.93369 19.6606 3.52996 18.0697 2.51052C16.4788 1.49108 14.6567 0.888764 12.7716 0.759163C10.8866 0.629562 8.99922 0.976847 7.28376 1.76897C5.5683 2.5611 4.07999 3.77254 2.95617 5.29152C1.83234 6.81049 1.10921 8.58806 0.853498 10.4602C0.597788 12.3323 0.817739 14.2387 1.49305 16.0034C2.16837 17.7681 3.27729 19.3343 4.71749 20.5575C6.74592 22.2891 9.32548 23.2404 11.9925 23.2404C14.6595 23.2404 17.2391 22.2891 19.2675 20.5575C20.5115 19.5047 21.512 18.1942 22.1996 16.7166C22.8872 15.239 23.2456 13.6297 23.25 12ZM2.24999 12C2.24799 10.4341 2.62317 8.89075 3.34381 7.50053C4.06444 6.11031 5.10932 4.91411 6.39004 4.01313C7.67077 3.11214 9.14966 2.53289 10.7016 2.32436C12.2536 2.11584 13.8329 2.28418 15.306 2.81515C16.7792 3.34611 18.1027 4.22408 19.1648 5.37478C20.2268 6.52547 20.9961 7.91504 21.4075 9.42593C21.8189 10.9368 21.8603 12.5246 21.5283 14.0549C21.1963 15.5851 20.5006 17.013 19.5 18.2175V18C19.5 16.8065 19.0259 15.6619 18.182 14.818C17.3381 13.9741 16.1935 13.5 15 13.5H8.99999C7.80652 13.5 6.66192 13.9741 5.81801 14.818C4.9741 15.6619 4.49999 16.8065 4.49999 18V18.2175C3.04534 16.4722 2.2491 14.272 2.24999 12ZM5.99999 19.6725V18C5.99999 17.2043 6.31606 16.4413 6.87867 15.8787C7.44128 15.3161 8.20434 15 8.99999 15H15C15.7956 15 16.5587 15.3161 17.1213 15.8787C17.6839 16.4413 18 17.2043 18 18V19.6725C16.2905 21.0205 14.177 21.7535 12 21.7535C9.823 21.7535 7.70944 21.0205 5.99999 19.6725Z" fill="#888888"/>
<path d="M12 12C12.7417 12 13.4667 11.7801 14.0834 11.368C14.7001 10.956 15.1807 10.3703 15.4645 9.68506C15.7484 8.99984 15.8226 8.24584 15.6779 7.51841C15.5333 6.79098 15.1761 6.1228 14.6517 5.59835C14.1272 5.0739 13.459 4.71675 12.7316 4.57206C12.0042 4.42736 11.2502 4.50162 10.5649 4.78545C9.87971 5.06928 9.29404 5.54993 8.88199 6.16661C8.46993 6.7833 8.25 7.50832 8.25 8.25C8.25 9.24456 8.64509 10.1984 9.34835 10.9017C10.0516 11.6049 11.0054 12 12 12ZM12 6C12.445 6 12.88 6.13196 13.25 6.3792C13.62 6.62643 13.9084 6.97783 14.0787 7.38896C14.249 7.8001 14.2936 8.2525 14.2068 8.68895C14.12 9.12541 13.9057 9.52632 13.591 9.84099C13.2763 10.1557 12.8754 10.37 12.439 10.4568C12.0025 10.5436 11.5501 10.499 11.139 10.3287C10.7278 10.1584 10.3764 9.87005 10.1292 9.50003C9.88196 9.13002 9.75 8.69501 9.75 8.25C9.75 7.65326 9.98705 7.08097 10.409 6.65901C10.831 6.23705 11.4033 6 12 6Z" fill="#888888"/>
</g>
<defs>
<clipPath id="clip0_40_220">
<rect width="24" height="24" fill="white"/>
</clipPath>
</defs>
</svg>
