<svg width="16" height="16" viewBox="0 0 16 16" fill="none" xmlns="http://www.w3.org/2000/svg">
<rect x="0.5" y="0.5" width="15" height="15" rx="7.5" fill="white" stroke="#D1D1D1"/>
<path d="M7.14531 9.88807V9.80644C7.15104 9.27375 7.20402 8.84988 7.30426 8.53484C7.40737 8.21981 7.55343 7.96492 7.74245 7.77017C7.93147 7.57542 8.15916 7.39785 8.4255 7.23747C8.59734 7.12864 8.752 7.00692 8.88947 6.87232C9.02694 6.73771 9.13577 6.58306 9.21596 6.40835C9.29615 6.23365 9.33624 6.04033 9.33624 5.8284C9.33624 5.57351 9.2761 5.35298 9.15581 5.16683C9.03553 4.98067 8.87515 4.83747 8.67467 4.73723C8.47706 4.63413 8.25653 4.58258 8.01309 4.58258C7.79257 4.58258 7.58207 4.6284 7.38159 4.72005C7.18111 4.81169 7.015 4.95489 6.88326 5.14964C6.75152 5.34153 6.67562 5.58926 6.65558 5.89284H5.34961C5.36966 5.37733 5.49997 4.94201 5.74054 4.58687C5.98111 4.22888 6.29901 3.95823 6.69424 3.77494C7.09233 3.59165 7.53195 3.5 8.01309 3.5C8.54006 3.5 9.00116 3.59881 9.39639 3.79642C9.79161 3.99117 10.0981 4.26468 10.3157 4.61695C10.5362 4.96635 10.6465 5.37446 10.6465 5.84129C10.6465 6.16205 10.5964 6.45131 10.4961 6.70907C10.3959 6.96396 10.2527 7.19165 10.0666 7.39212C9.88326 7.5926 9.66274 7.77017 9.40498 7.92482C9.16154 8.07661 8.96393 8.23413 8.81214 8.39738C8.66321 8.56062 8.55438 8.75394 8.48565 8.97733C8.41691 9.20072 8.37968 9.47709 8.37395 9.80644V9.88807H7.14531ZM7.794 12.5C7.55916 12.5 7.35725 12.4169 7.18827 12.2508C7.0193 12.0819 6.93481 11.8785 6.93481 11.6408C6.93481 11.406 7.0193 11.2055 7.18827 11.0394C7.35725 10.8704 7.55916 10.7859 7.794 10.7859C8.02598 10.7859 8.22646 10.8704 8.39543 11.0394C8.56727 11.2055 8.65319 11.406 8.65319 11.6408C8.65319 11.7983 8.61309 11.943 8.5329 12.0747C8.45558 12.2036 8.35247 12.3067 8.2236 12.384C8.09472 12.4613 7.95152 12.5 7.794 12.5Z" fill="#D1D1D1"/>
</svg>
