<svg width="54" height="42" viewBox="0 0 54 42" fill="none" xmlns="http://www.w3.org/2000/svg">
<path d="M0 42L53.2048 34.9046V0L0 7.09538V42ZM2.75625 9.50381L50.4525 3.15V32.4962L2.75625 38.85V9.50381Z" fill="#F43E36"/>
<path d="M7.24499 20.2105C7.70515 20.4405 8.18936 20.6187 8.68875 20.7421C9.06871 20.8258 9.46007 20.8449 9.84637 20.7985C10.1827 20.7657 10.5021 20.6353 10.7651 20.4231C10.8706 20.3419 10.9564 20.2378 11.0159 20.1187C11.0755 19.9996 11.1073 19.8686 11.109 19.7354C11.109 19.36 10.7021 18.9912 9.88312 18.6342C9.75187 18.5778 9.65212 18.5279 9.576 18.503L8.9565 18.2405C8.42968 18.0369 7.96571 17.6983 7.61118 17.2587C7.31259 16.851 7.15834 16.3555 7.17281 15.8504C7.17216 15.4878 7.24631 15.129 7.39061 14.7963C7.53492 14.4637 7.74628 14.1643 8.01149 13.9171C8.60115 13.3514 9.36292 12.9989 10.1758 12.9156C10.5283 12.8699 10.8844 12.8594 11.2389 12.8841C11.6659 12.9168 12.0903 12.9773 12.5094 13.0653V15.2243C12.1062 15.0215 11.6825 14.8622 11.2455 14.7492C10.9165 14.6553 10.5729 14.6237 10.2322 14.656C9.96394 14.6823 9.70927 14.7868 9.49987 14.9566C9.41573 15.0268 9.34844 15.115 9.30301 15.2148C9.25757 15.3145 9.23514 15.4232 9.23738 15.5328C9.23478 15.689 9.29046 15.8406 9.39356 15.958C9.52432 16.1006 9.6872 16.2099 9.86868 16.277L10.9449 16.7271C11.6305 16.9634 12.2532 17.3531 12.7654 17.8664C13.088 18.2768 13.2545 18.7884 13.2352 19.3101C13.243 19.7347 13.1657 20.1565 13.0079 20.5508C12.8501 20.945 12.615 21.3037 12.3165 21.6057C11.6625 22.2597 10.8032 22.6685 9.88312 22.7633C9.51165 22.8071 9.13731 22.8216 8.76356 22.8066C8.31829 22.7839 7.875 22.7317 7.43662 22.6504L7.24499 20.2105ZM17.6938 13.8974L17.3932 13.9407V16.3938L17.787 16.3373C18.2498 16.3004 18.6916 16.1284 19.0575 15.8425C19.1996 15.7223 19.3128 15.5716 19.3887 15.4017C19.4646 15.2317 19.5012 15.0468 19.4959 14.8608C19.5141 14.6906 19.4832 14.5187 19.4066 14.3656C19.3301 14.2125 19.2112 14.0846 19.0641 13.9971C18.6277 13.8269 18.15 13.7926 17.6938 13.8987V13.8974ZM15.2001 21.7435V12.5403L17.5626 12.2213C18.135 12.127 18.7166 12.1019 19.2951 12.1465C19.6984 12.1877 20.0876 12.3182 20.4343 12.5285C20.7704 12.7247 21.0453 13.0106 21.2284 13.354C21.417 13.7081 21.5135 14.1039 21.5092 14.5051C21.5185 14.9443 21.4347 15.3805 21.2632 15.785C21.0917 16.1895 20.8365 16.5531 20.5144 16.8518C19.7652 17.5245 18.8196 17.9387 17.8172 18.0331C17.6977 18.0515 17.6111 18.058 17.5547 18.0646C17.4982 18.0711 17.4418 18.0646 17.3919 18.0777V21.4443L15.2001 21.7435ZM24.3876 17.5895L26.8026 17.264L25.6082 14.5418L24.3876 17.5895ZM20.9396 20.9744L25.6384 10.8577L25.7696 10.8393L30.3555 19.7105L28.0599 20.0176L27.4785 18.7602L23.7431 19.2603L23.1486 20.6804L20.9396 20.9744ZM38.2331 12.3657C37.8831 12.0395 37.473 11.7845 37.0256 11.615C36.6123 11.4705 36.1707 11.4255 35.7368 11.4837C34.9856 11.5735 34.3001 11.9554 33.8284 12.5468C33.3296 13.1587 33.0657 13.9285 33.0842 14.7177C33.0611 15.0759 33.1151 15.4349 33.2425 15.7705C33.37 16.106 33.568 16.4103 33.8231 16.6628C34.0811 16.8924 34.3886 17.0592 34.7217 17.1503C35.0548 17.2414 35.4044 17.2542 35.7433 17.1878C36.235 17.1183 36.7086 16.9547 37.1385 16.7061C37.6448 16.4125 38.1115 16.0552 38.5271 15.643L38.3827 18.1079C37.9911 18.428 37.5574 18.693 37.0939 18.8954C36.6294 19.0991 36.1385 19.236 35.6357 19.3023C35.1176 19.376 34.5909 19.3614 34.0777 19.2589C33.5878 19.1584 33.1209 18.9675 32.7009 18.6959C32.1192 18.3197 31.6484 17.795 31.3372 17.176C31.0163 16.5134 30.8553 15.7846 30.8674 15.0485C30.8657 14.3765 30.9844 13.7098 31.2178 13.0797C31.4531 12.4517 31.796 11.8694 32.2311 11.359C32.6704 10.8494 33.1981 10.4235 33.789 10.1016C34.3657 9.78529 34.9957 9.57752 35.6475 9.48869C36.1377 9.41935 36.6357 9.42556 37.1241 9.50708C37.5962 9.58789 38.0512 9.74857 38.4694 9.9822L38.2331 12.3657ZM40.3331 18.3717V9.16846L46.0018 8.41113V10.3064L42.4672 10.7815V12.4458L45.4952 12.0389V13.9236L42.4672 14.3305V16.1549L46.0517 15.6732V17.6131L40.3331 18.3717Z" fill="#432D50"/>
<path d="M17.6125 30.2097L20.0341 29.8842L18.8331 27.1621L17.6125 30.2097ZM14.1646 33.5946L18.8568 23.4779L18.988 23.4595L23.5817 32.3307L21.2862 32.6378L20.7047 31.3739L16.9694 31.8739L16.3748 33.2941L14.1646 33.5946ZM27.1583 24.3415L26.8577 24.3848V26.8431L27.2515 26.7867C27.7143 26.7498 28.1561 26.5778 28.522 26.2919C28.6641 26.1716 28.7772 26.0209 28.8531 25.851C28.929 25.681 28.9657 25.4962 28.9604 25.3102C28.9787 25.14 28.9477 24.9681 28.8711 24.815C28.7946 24.6619 28.6757 24.534 28.5286 24.4465C28.0931 24.2731 27.6151 24.2364 27.1583 24.3415ZM24.6646 32.1876V22.9844L27.0271 22.6654C27.5995 22.571 28.1812 22.5459 28.7596 22.5906C29.163 22.6318 29.5521 22.7623 29.8988 22.9726C30.2349 23.1689 30.5098 23.4547 30.6929 23.7981C30.8819 24.1521 30.9789 24.5479 30.975 24.9492C30.9844 25.3884 30.9005 25.8247 30.729 26.2292C30.5576 26.6336 30.3023 26.9972 29.9802 27.296C29.2311 27.9688 28.2855 28.3829 27.283 28.4772C27.1636 28.489 27.0769 28.5021 27.0205 28.5087C26.9641 28.5153 26.9076 28.5087 26.8577 28.5205V31.8871L24.6646 32.1876ZM35.2197 23.2627L34.9191 23.306V25.7642L35.3129 25.7078C35.7757 25.6709 36.2175 25.4988 36.5834 25.213C36.7255 25.0928 36.8387 24.9421 36.9146 24.7722C36.9905 24.6022 37.0271 24.4173 37.0218 24.2312C37.04 24.0611 37.009 23.8892 36.9325 23.7361C36.8559 23.583 36.737 23.4551 36.5899 23.3676C36.1544 23.1931 35.676 23.1551 35.2184 23.2587L35.2197 23.2627ZM32.7259 31.1088V21.9055L35.0884 21.5866C35.6608 21.4921 36.2425 21.467 36.8209 21.5118C37.2243 21.5529 37.6135 21.6834 37.9602 21.8937C38.2963 22.09 38.5712 22.3758 38.7542 22.7193C38.9433 23.0732 39.0404 23.469 39.0364 23.8703C39.0457 24.3096 38.9619 24.7458 38.7904 25.1503C38.6189 25.5548 38.3637 25.9183 38.0416 26.2171C37.2924 26.8898 36.3468 27.3039 35.3444 27.3983C35.2249 27.4115 35.1383 27.4233 35.0819 27.4298C35.0254 27.4364 34.969 27.4298 34.9191 27.443V30.8003L32.7259 31.1088Z" fill="#432D50"/>
</svg>
