<svg width="24" height="17" viewBox="0 0 24 17" fill="none" xmlns="http://www.w3.org/2000/svg">
<path d="M23.9945 5.94354C24.0484 4.38306 23.7071 2.83425 23.0024 1.44093C22.5242 0.869213 21.8606 0.483397 21.1272 0.350706C18.0937 0.0754526 15.0476 -0.0373647 12.002 0.0127374C8.96757 -0.0396387 5.93246 0.0695381 2.9096 0.339804C2.31196 0.448517 1.75889 0.72884 1.31788 1.14657C0.336678 2.05145 0.227656 3.59957 0.118633 4.90783C-0.0395445 7.26005 -0.0395445 9.62024 0.118633 11.9725C0.150174 12.7088 0.25981 13.4397 0.4457 14.1529C0.577153 14.7035 0.84311 15.213 1.21976 15.6356C1.66377 16.0755 2.22972 16.3717 2.84419 16.486C5.19461 16.7761 7.5629 16.8963 9.93062 16.8457C13.7464 16.9003 17.0934 16.8458 21.0509 16.5405C21.6804 16.4333 22.2623 16.1366 22.7189 15.6901C23.0241 15.3848 23.2521 15.011 23.384 14.5999C23.7738 13.4035 23.9653 12.1514 23.9509 10.8931C23.9945 10.2826 23.9945 6.59767 23.9945 5.94354ZM9.53814 11.5473V4.79881L15.9923 8.1894C14.1825 9.1924 11.7949 10.3262 9.53814 11.5473Z" fill="#D1D1D1"/>
</svg>
