<svg width="24" height="24" viewBox="0 0 24 24" fill="none" xmlns="http://www.w3.org/2000/svg">
<g clip-path="url(#clip0_435_901)">
<path d="M12 0C6.19636 0 0 0.796694 0 10.3679C0 15.4319 1.78909 18.5532 5.45455 19.8846V22.3402C5.45656 22.6788 5.56148 23.0089 5.75536 23.2865C5.94925 23.5642 6.22293 23.7762 6.54011 23.8946C6.85728 24.013 7.20295 24.0322 7.53123 23.9494C7.85952 23.8667 8.1549 23.6861 8.37818 23.4315L10.7673 20.7359H12C17.8036 20.7359 24 19.9392 24 10.3679C24 0.796694 17.8036 0 12 0ZM12 7.63953C12.5787 7.63953 13.1336 7.8695 13.5428 8.27884C13.9519 8.68818 14.1818 9.24336 14.1818 9.82226C14.1818 9.96698 14.1244 10.1058 14.0221 10.2081C13.9198 10.3104 13.781 10.3679 13.6364 10.3679C13.4917 10.3679 13.353 10.3104 13.2507 10.2081C13.1484 10.1058 13.0909 9.96698 13.0909 9.82226C13.0909 9.53281 12.976 9.25522 12.7714 9.05055C12.5668 8.84588 12.2893 8.7309 12 8.7309C11.8553 8.7309 11.7166 8.6734 11.6143 8.57107C11.512 8.46873 11.4545 8.32994 11.4545 8.18521C11.4545 8.04049 11.512 7.90169 11.6143 7.79936C11.7166 7.69702 11.8553 7.63953 12 7.63953ZM11.4545 6.00249C11.4545 5.85777 11.512 5.71897 11.6143 5.61664C11.7166 5.5143 11.8553 5.45681 12 5.45681C13.1573 5.45681 14.2672 5.91674 15.0856 6.73542C15.9039 7.5541 16.3636 8.66447 16.3636 9.82226C16.3636 9.96698 16.3062 10.1058 16.2039 10.2081C16.1016 10.3104 15.9628 10.3679 15.8182 10.3679C15.6735 10.3679 15.5348 10.3104 15.4325 10.2081C15.3302 10.1058 15.2727 9.96698 15.2727 9.82226C15.2727 8.95392 14.9279 8.12114 14.3142 7.50713C13.7004 6.89312 12.868 6.54817 12 6.54817C11.8553 6.54817 11.7166 6.49068 11.6143 6.38834C11.512 6.28601 11.4545 6.14721 11.4545 6.00249ZM17.4545 14.7334C17.3244 15.5041 16.9229 16.2028 16.3227 16.7032C15.7225 17.2036 14.9631 17.4727 14.1818 17.4618C12.4691 17.4618 9.17455 15.41 7.8 14.024C6.42545 12.638 4.36364 9.35297 4.36364 7.63953C4.35272 6.85795 4.62167 6.09826 5.12187 5.49778C5.62206 4.89729 6.32049 4.49565 7.09091 4.36545H8.18182C8.28405 4.36524 8.38428 4.39378 8.47108 4.44781C8.55787 4.50184 8.62775 4.57919 8.67273 4.67103C8.67273 4.67103 9.32727 6.00249 9.76364 6.85375C10.2 7.70502 9.33818 8.91643 8.81455 9.44028C9.12676 10.2527 9.59776 10.9948 10.2 11.623C10.828 12.2255 11.5697 12.6967 12.3818 13.009C12.8954 12.4181 13.6037 12.0309 14.3782 11.9177C14.5795 11.9179 14.7778 11.9665 14.9564 12.0595L17.1382 13.1509C17.23 13.1959 17.3073 13.2658 17.3613 13.3526C17.4153 13.4395 17.4438 13.5398 17.4436 13.642L17.4545 14.7334ZM18 10.3679C17.8553 10.3679 17.7166 10.3104 17.6143 10.2081C17.512 10.1058 17.4545 9.96698 17.4545 9.82226C17.4545 8.37502 16.8799 6.98706 15.8569 5.96371C14.834 4.94036 13.4466 4.36545 12 4.36545C11.8553 4.36545 11.7166 4.30796 11.6143 4.20562C11.512 4.10329 11.4545 3.96449 11.4545 3.81977C11.4545 3.67504 11.512 3.53625 11.6143 3.43391C11.7166 3.33158 11.8553 3.27409 12 3.27409C13.736 3.27409 15.4008 3.96398 16.6283 5.192C17.8558 6.42002 18.5455 8.08557 18.5455 9.82226C18.5455 9.96698 18.488 10.1058 18.3857 10.2081C18.2834 10.3104 18.1447 10.3679 18 10.3679Z" fill="#D1D1D1"/>
</g>
<defs>
<clipPath id="clip0_435_901">
<rect width="24" height="24" fill="white"/>
</clipPath>
</defs>
</svg>
