<svg width="126" height="126" viewBox="0 0 126 126" fill="none" xmlns="http://www.w3.org/2000/svg">
<circle cx="63" cy="63" r="63" fill="#EF7F1A"/>
<g clip-path="url(#clip0_714_230)">
<path d="M50.1018 45.7006C52.9825 45.7006 55.3178 43.3654 55.3178 40.4847C55.3178 37.604 52.9825 35.2687 50.1018 35.2687C47.2211 35.2687 44.8859 37.604 44.8859 40.4847C44.8859 43.3654 47.2211 45.7006 50.1018 45.7006Z" fill="white"/>
<path d="M89.9448 59.1756C86.9114 56.9895 84.3325 53.174 82.3481 49.6474C81.9805 48.9935 81.4455 48.4492 80.798 48.0702C80.1506 47.6913 79.414 47.4915 78.6638 47.4912H73.1316C72.3815 47.4916 71.6449 47.6915 70.9975 48.0704C70.3501 48.4493 69.8151 48.9935 69.4473 49.6474C67.7184 52.7195 65.5384 56.0092 63 58.2526C60.4616 56.0101 58.2808 52.7204 56.5527 49.6474C56.185 48.9937 55.6502 48.4495 55.0029 48.0706C54.3557 47.6917 53.6193 47.4917 52.8693 47.4912H47.3353C46.5853 47.4916 45.8489 47.6914 45.2016 48.0704C44.5543 48.4493 44.0194 48.9935 43.6519 49.6474C41.6684 53.174 39.0886 56.9895 36.0561 59.1756C33.5529 60.9777 35.9618 65.1711 38.4932 63.3453C40.9946 61.5441 43.2705 59.5086 45.232 57.2009C45.232 71.1648 44.0941 81.5325 44.0721 88.3955C44.0624 91.5117 48.8917 91.5082 48.9022 88.3955C48.9207 82.3314 49.2792 76.2822 49.8332 70.247H50.3732C50.928 76.283 51.2856 82.3322 51.305 88.3955C51.3156 91.5082 56.1449 91.5117 56.1343 88.3955C56.1123 81.5325 54.9743 71.1648 54.9743 57.2009C56.9367 59.5077 59.2118 61.5432 61.7132 63.3453C62.5332 63.9345 63.4897 63.9195 64.2886 63.3453C66.79 61.5441 69.0659 59.5086 71.0274 57.2009C71.0274 71.1648 69.8886 81.5325 69.8675 88.3955C69.8578 91.5117 74.688 91.5082 74.6985 88.3955C74.7162 82.3314 75.0737 76.2822 75.6286 70.247H76.1686C76.7235 76.283 77.081 82.3322 77.0995 88.3955C77.111 91.5082 81.9394 91.5117 81.9297 88.3955C81.9086 81.5325 80.7698 71.1648 80.7698 57.2009C82.7321 59.5077 85.0072 61.5432 87.5086 63.3453C90.0391 65.1711 92.4471 60.9786 89.9448 59.1756Z" fill="white"/>
<path d="M75.8973 45.7006C78.778 45.7006 81.1132 43.3654 81.1132 40.4847C81.1132 37.604 78.778 35.2687 75.8973 35.2687C73.0165 35.2687 70.6813 37.604 70.6813 40.4847C70.6813 43.3654 73.0165 45.7006 75.8973 45.7006Z" fill="white"/>
</g>
<defs>
<clipPath id="clip0_714_230">
<rect width="56" height="56" fill="white" transform="translate(35 35)"/>
</clipPath>
</defs>
</svg>
