<svg width="126" height="126" viewBox="0 0 126 126" fill="none" xmlns="http://www.w3.org/2000/svg">
<circle cx="63" cy="63" r="63" fill="#EF7F1A"/>
<path d="M76.0709 43.9994C78.4975 43.9994 80.4647 42.0323 80.4647 39.6057C80.4647 37.1792 78.4975 35.212 76.0709 35.212C73.6444 35.212 71.6772 37.1792 71.6772 39.6057C71.6772 42.0323 73.6444 43.9994 76.0709 43.9994Z" fill="white"/>
<path d="M89.6662 63.7149C89.6315 63.6197 86.1699 54.149 84.6455 49.7133C83.6619 46.8511 82.0127 45.3999 79.7437 45.3999C72.3985 45.3999 71.9639 45.3125 71.038 45.5963C73.0742 46.7088 74.4629 48.8473 74.4752 51.2984V67.5855C74.4752 69.5285 72.8945 71.1091 70.9515 71.1091C70.7757 71.1091 70.6028 71.0957 70.4338 71.0707V86.0505C70.4338 87.4622 71.5811 88.5945 72.9777 88.5945C74.3826 88.5945 75.5217 87.4555 75.5217 86.0505V70.6725H76.6201V86.0505C76.6201 87.4555 77.7591 88.5945 79.1641 88.5945C80.569 88.5945 81.708 87.4555 81.708 86.0505V70.6725H83.354C84.0808 70.6725 84.6399 70.0168 84.5144 69.2923L82.0645 55.1554V55.1552C83.6932 59.7242 85.6577 65.0991 85.6839 65.1707C86.0794 66.2525 87.2891 66.841 88.403 66.4338C89.5028 66.0317 90.0683 64.8144 89.6662 63.7149ZM49.3235 67.5856V51.3096C49.3362 48.7668 50.8254 46.5605 52.9809 45.4832H42.0634C39.2851 45.4832 37.0137 47.7086 37 50.4544V65.9324C37 67.096 37.9433 68.0392 39.1068 68.0392C40.2703 68.0392 41.2136 67.096 41.2136 65.9324V50.4651C41.2156 50.0557 41.6288 49.6968 42.0635 49.6968H42.1391L42.1167 85.8812C42.1167 87.2775 43.2486 88.4093 44.6448 88.4094C46.0354 88.4094 47.173 87.2831 47.173 85.8812V65.6733H48.2646V85.8812C48.2646 87.2775 49.3966 88.4093 50.7927 88.4094C52.1832 88.4094 53.3209 87.2831 53.3209 85.8812V71.0767C53.164 71.0981 53.0058 71.109 52.8473 71.1093C50.9042 71.1092 49.3235 69.5286 49.3235 67.5856Z" fill="white"/>
<path d="M47.7187 44.0915C50.1301 44.0915 52.085 42.1366 52.085 39.7251C52.085 37.3137 50.1301 35.3588 47.7187 35.3588C45.3072 35.3588 43.3523 37.3137 43.3523 39.7251C43.3523 42.1366 45.3072 44.0915 47.7187 44.0915Z" fill="white"/>
<path d="M73.1663 67.5856V51.305C73.1517 48.416 70.7447 46.0907 67.8438 46.0907H65.063C65.063 46.0907 64.3443 50.3841 62.7493 51.5976L62.9885 50.4618C62.9963 50.4242 62.9967 50.3855 62.9892 50.348L62.7084 48.9202C62.6956 48.8554 62.6607 48.797 62.6097 48.755C62.5587 48.7131 62.4947 48.6901 62.4286 48.6901H61.3515C61.2854 48.6901 61.2213 48.713 61.1703 48.755C61.1193 48.797 61.0844 48.8554 61.0717 48.9202L60.7908 50.348C60.7834 50.3856 60.7837 50.4244 60.7916 50.4618L61.0308 51.5976C59.4359 50.3841 58.717 46.0907 58.717 46.0907H55.9552C53.0349 46.0907 50.6473 48.4299 50.6328 51.3162V67.5856C50.6328 68.8087 51.6243 69.8001 52.8473 69.8001C53.0066 69.7999 53.1654 69.7824 53.3209 69.7481C54.3083 69.5327 55.0488 68.6596 55.0605 67.6104C55.0606 67.602 55.0618 67.5939 55.0618 67.5856V51.3272C55.0639 50.9047 55.5392 50.5198 56.0045 50.5198V88.5546C56.0045 90.0223 57.2008 91.2119 58.6685 91.212C60.125 91.212 61.326 90.0314 61.326 88.5546V67.3133H62.4734V88.5546C62.4734 90.0274 63.6683 91.212 65.1308 91.212C66.5962 91.212 67.799 90.0247 67.799 88.5546V50.5198C68.262 50.5198 68.7353 50.9028 68.7374 51.3163V67.5857C68.7374 68.8088 69.7289 69.8002 70.952 69.8002C72.1701 69.8001 73.1663 68.8101 73.1663 67.5856Z" fill="white"/>
<path d="M62.3563 44.5918C64.8785 44.3387 66.7179 42.089 66.4648 39.5668C66.2117 37.0446 63.962 35.2052 61.4398 35.4583C58.9177 35.7113 57.0782 37.9611 57.3313 40.4833C57.5844 43.0054 59.8341 44.8449 62.3563 44.5918Z" fill="white"/>
<path d="M61.0253 46.0907C60.9743 46.0907 60.9239 46.1019 60.8777 46.1236C60.8315 46.1452 60.7906 46.1768 60.758 46.216C60.7253 46.2552 60.7017 46.3011 60.6888 46.3505C60.6759 46.3999 60.674 46.4514 60.6833 46.5016L60.968 48.0439C60.9827 48.1239 61.025 48.1961 61.0875 48.2481C61.15 48.3001 61.2287 48.3285 61.31 48.3285H62.4697C62.551 48.3285 62.6297 48.3001 62.6922 48.2481C62.7547 48.1961 62.7969 48.1239 62.8117 48.0439L63.0964 46.5016C63.1057 46.4514 63.1038 46.3999 63.0909 46.3505C63.0779 46.3011 63.0543 46.2552 63.0217 46.216C62.9891 46.1768 62.9482 46.1452 62.902 46.1236C62.8558 46.1019 62.8054 46.0907 62.7544 46.0907H61.0253Z" fill="white"/>
</svg>
