<svg width="126" height="126" viewBox="0 0 126 126" fill="none" xmlns="http://www.w3.org/2000/svg">
<circle cx="63" cy="63" r="63" fill="#EF7F1A"/>
<path d="M53.3516 56.9164C55.5478 56.9164 57.3287 55.1365 57.3287 52.9402C57.3287 50.7422 55.5478 48.963 53.3516 48.963C51.1547 48.963 49.3738 50.7422 49.3738 52.9402C49.3738 55.1365 51.1547 56.9164 53.3516 56.9164ZM69.3305 49.3431C67.1334 49.3431 65.3524 51.1224 65.3524 53.3204C65.3524 55.5166 67.1334 57.2965 69.3305 57.2965C71.5267 57.2965 73.3076 55.5166 73.3076 53.3204C73.3076 51.1222 71.5267 49.3431 69.3305 49.3431Z" fill="white"/>
<path d="M53.3515 47.5765C55.6967 47.5765 57.6735 49.0995 58.4011 51.2007C58.8479 50.6654 59.4717 50.3144 60.1649 50.1763C59.3542 49.2366 58.846 48.0289 58.846 46.6938C58.846 45.6721 59.1485 44.7252 59.6467 43.9118C59.3777 43.7314 58.9688 43.6257 58.7982 43.6257H53.478C52.7259 43.6257 52.0868 43.8369 51.7774 44.5158L49.7236 49.0146C50.7617 48.0549 52.1654 47.5765 53.3515 47.5765ZM56.1382 42.9558C58.058 42.9558 59.616 41.3987 59.616 39.4789C59.616 37.5562 58.058 36 56.1382 36C54.2172 36 52.6592 37.5562 52.6592 39.4789C52.6592 41.3987 54.2172 42.9558 56.1382 42.9558ZM76.1437 50.5565C75.3331 49.6168 74.8248 48.4088 74.8248 47.0739C74.8248 47.0342 74.8357 46.9973 74.8367 46.9575H70.0256C70.0084 46.9575 69.6138 47.0315 69.5371 47.0558C69.5164 47.3664 69.4777 47.6706 69.4052 47.964C71.7169 47.9973 73.6604 49.5029 74.3797 51.5809C74.8267 51.0456 75.4503 50.6944 76.1437 50.5565ZM72.7776 46.2633C73.6812 46.2633 74.4963 45.9195 75.1282 45.3706C75.3792 44.6286 75.7745 43.9569 76.3017 43.4001C76.3503 43.1626 76.3774 42.917 76.3774 42.6653C76.3774 40.6767 74.7662 39.0673 72.7776 39.0673C70.7901 39.0673 69.1789 40.6767 69.1789 42.6653C69.1789 44.6529 70.7899 46.2633 72.7776 46.2633ZM61.1684 51.4363C60.2901 51.4363 59.5717 51.6864 59.2242 52.4536L58.6338 53.748C58.4812 54.7447 58.0554 55.6409 57.4324 56.3784L57.4117 56.4245C57.8176 56.5066 58.2023 56.6709 58.5423 56.9073C58.8823 57.1437 59.1703 57.4472 59.3886 57.7991C59.4573 57.9094 59.5437 58.0051 59.5988 58.1251L61.4277 62.1311L63.0831 58.5043C63.4919 57.6034 64.3252 56.9933 65.2847 56.8028C64.474 55.8631 63.9658 54.6553 63.9658 53.3204C63.9658 52.6551 64.103 52.0251 64.3252 51.4364L61.1684 51.4363ZM61.8329 74.817C61.1614 75.2222 60.3427 75.3786 59.5647 75.2188V82.2847C59.8822 82.9989 60.5918 83.4999 61.424 83.4999C62.1488 83.4999 62.7554 83.1009 63.1173 82.5312V74.8377C62.6914 74.9245 62.2544 74.9101 61.8329 74.817ZM64.2097 50.67C64.3857 50.67 64.5536 50.6402 64.7232 50.6187C65.4249 49.4249 66.5617 48.5494 67.8951 48.1761C68.0801 47.7173 68.1876 47.2192 68.1876 46.6938C68.1876 44.4958 66.4066 42.7166 64.2096 42.7166C62.0134 42.7166 60.2324 44.4958 60.2324 46.6938C60.2325 48.8901 62.0135 50.67 64.2097 50.67ZM41.349 72.9105C41.0601 72.1379 41.0898 71.2994 41.4329 70.5493L43.5904 65.8221L47.1042 58.1242C47.4905 57.273 48.2542 56.6719 49.146 56.4452V56.2296C48.5024 55.4092 48.0989 54.4043 48.0242 53.3021C47.9502 53.2787 47.5538 53.2037 47.5357 53.2037H42.0304C41.2487 53.2037 40.5906 53.424 40.271 54.1235L35.1395 65.3672C34.7864 66.1406 35.1268 67.0534 35.9004 67.4062C36.6811 67.7628 37.5893 67.4126 37.9395 66.6454L40.421 61.2086C40.421 61.6518 40.4156 68.3776 40.4156 80.3702C40.4156 81.3903 41.2424 82.2171 42.2624 82.2171C43.2822 82.2171 44.1092 81.3903 44.1092 80.3702V74.8991C43.7175 74.8894 43.3257 74.8071 42.9575 74.6383C42.2092 74.297 41.6369 73.6832 41.349 72.9105ZM45.4569 74.6282V80.3701C45.4569 81.3313 46.1999 82.0961 47.1386 82.1836V72.9178L47.0491 73.1126C46.7306 73.8133 46.142 74.3333 45.4569 74.6282ZM44.7836 52.5097C46.7713 52.5097 48.3824 50.8993 48.3824 48.9118C48.3824 46.9231 46.7713 45.3137 44.7836 45.3137C42.795 45.3137 41.1838 46.9231 41.1838 48.9118C41.1838 50.8993 42.795 52.5097 44.7836 52.5097Z" fill="white"/>
<path d="M57.4118 70.9293L58.1727 69.2622V66.5307L58.7964 67.8964L60.665 63.8011L58.337 58.7001C57.9859 57.9284 57.2548 57.6827 56.3927 57.6827H50.3088C49.4441 57.6827 48.7164 57.9258 48.3654 58.7001L42.694 71.1252C42.304 71.979 42.6805 72.9882 43.5353 73.3783C44.3838 73.7673 45.3965 73.397 45.7882 72.5369L48.5305 66.5289C48.5305 71.0665 48.525 70.885 48.525 87.7053C48.525 88.8326 49.4385 89.7462 50.566 89.7462C51.6934 89.7462 52.6069 88.8326 52.6069 87.7053V75.5401H54.0964V87.7053C54.0964 88.8326 55.0098 89.7462 56.1372 89.7462C57.2645 89.7462 58.178 88.8326 58.178 87.7053V74.5094C57.8051 74.1788 57.5065 73.7709 57.3276 73.2906C57.0281 72.4873 57.1013 71.6098 57.4118 70.9293ZM90.8463 65.2589L85.1748 52.8337C84.82 52.0565 84.0862 51.8164 83.2313 51.8164H77.1474C76.2772 51.8164 75.5542 52.061 75.203 52.8337L74.6128 54.1282C74.4602 55.1247 74.0341 56.0219 73.4114 56.7584L73.3907 56.8045C74.4023 57.0113 75.2256 57.7369 75.5778 58.5052L81.2484 70.9293C81.5913 71.6793 81.6211 72.5179 81.3323 73.2906C81.2347 73.5533 81.0931 73.7888 80.9332 74.0111V81.8388C80.9332 82.9662 81.8467 83.8798 82.9742 83.8798C84.1015 83.8798 85.015 82.9662 85.015 81.8388C85.015 70.5909 85.0096 64.2992 85.0096 60.6626L87.7519 66.6706C88.1435 67.5309 89.1564 67.9009 90.0049 67.5118C90.8599 67.1219 91.2362 66.1127 90.8463 65.2589Z" fill="white"/>
<path d="M75.6309 73.492L75.5415 73.2961L75.5434 73.4144V82.6649C75.8612 83.3788 76.5707 83.8799 77.403 83.8799C78.5301 83.8799 79.4438 82.9664 79.4438 81.839V75.1124C77.994 75.6033 76.2753 74.9038 75.6309 73.492ZM80.1884 51.0502C82.3854 51.0502 84.1665 49.2701 84.1665 47.0739C84.1665 44.8759 82.3855 43.0968 80.1884 43.0968C77.9922 43.0968 76.2113 44.8759 76.2113 47.0739C76.2113 49.2701 77.9922 51.0502 80.1884 51.0502Z" fill="white"/>
<path d="M74.3158 59.08C73.9637 58.3091 73.2344 58.0627 72.3715 58.0627H66.2877C65.4184 58.0627 64.6953 58.3091 64.3441 59.08L58.6727 71.5051C58.2828 72.359 58.6593 73.3681 59.5141 73.758C60.3626 74.1472 61.3755 73.7771 61.7671 72.9168L64.5094 66.9088V73.3873C64.5094 73.397 64.5038 73.4051 64.5038 73.4143V88.0852C64.5038 89.2126 65.4175 90.1261 66.5448 90.1261C67.6723 90.1261 68.5857 89.2126 68.5857 88.0852V75.9201H70.0752V88.0852C70.0752 89.2126 70.9887 90.1261 72.116 90.1261C73.2435 90.1261 74.1569 89.2126 74.1569 88.0852V73.4143C74.1569 73.4052 74.1516 73.397 74.1516 73.3873V66.9114L76.8929 72.917C77.1782 73.5432 77.7956 73.9124 78.441 73.9124C78.6775 73.9124 78.9176 73.8629 79.1461 73.7581C80.0009 73.3682 80.3773 72.3591 79.9871 71.5052L74.3158 59.08Z" fill="white"/>
</svg>
