<svg width="126" height="126" viewBox="0 0 126 126" fill="none" xmlns="http://www.w3.org/2000/svg">
<circle cx="63" cy="63" r="63" fill="#EF7F1A"/>
<path d="M73.7614 51.7148C73.7633 51.7148 73.7653 51.7151 73.7673 51.7151L73.792 51.334C73.8386 51.3688 73.8953 51.3875 73.9534 51.3874C74.0222 51.3873 74.0884 51.3611 74.1385 51.3141C74.1887 51.267 74.2191 51.2026 74.2236 51.134C74.3676 48.9299 73.8692 48.4042 73.7679 48.3212C73.7217 48.2833 73.6642 48.2619 73.6046 48.2603C73.5953 48.2593 73.5861 48.2588 73.5768 48.2588H72.2679C72.2586 48.2588 72.2493 48.2593 72.2402 48.2603C72.1805 48.2619 72.1231 48.2833 72.0769 48.3212C71.9755 48.4042 71.4771 48.9298 71.6211 51.1341C71.6235 51.1696 71.6327 51.2043 71.6485 51.2362C71.6642 51.2682 71.6861 51.2967 71.7129 51.3201C71.7396 51.3436 71.7707 51.3616 71.8044 51.373C71.8381 51.3844 71.8738 51.3891 71.9093 51.3868C71.9612 51.3834 72.011 51.3651 72.0527 51.334L72.1446 52.7521C72.4273 52.1408 73.0448 51.7148 73.7614 51.7148Z" fill="white"/>
<path d="M73.6387 47.5912C73.7999 47.2023 73.6154 46.7563 73.2265 46.5951C72.8376 46.4339 72.3917 46.6184 72.2304 47.0073C72.0692 47.3962 72.2537 47.8421 72.6426 48.0034C73.0315 48.1646 73.4775 47.9801 73.6387 47.5912Z" fill="white"/>
<path d="M78.6521 55.5928L78.8086 53.1792C78.8617 53.2188 78.9262 53.2401 78.9925 53.24C79.0708 53.2399 79.1462 53.2101 79.2034 53.1565C79.2606 53.1029 79.2952 53.0295 79.3003 52.9513C79.4644 50.4403 78.8966 49.8414 78.7811 49.7468C78.7285 49.7037 78.663 49.6793 78.595 49.6774C78.5845 49.6763 78.574 49.6758 78.5634 49.6758H77.0723C77.0616 49.6758 77.0511 49.6764 77.0407 49.6774C76.9727 49.6793 76.9073 49.7037 76.8547 49.7468C76.7392 49.8414 76.1714 50.4403 76.3354 52.9513C76.3408 53.033 76.3784 53.1093 76.4399 53.1633C76.5015 53.2173 76.5819 53.2446 76.6637 53.2393C76.7228 53.2355 76.7796 53.2146 76.8271 53.1792L76.9474 55.036C77.0243 55.0278 77.1021 55.0234 77.181 55.0234C77.7469 55.0234 78.2631 55.2392 78.6521 55.5928Z" fill="white"/>
<path d="M77.8179 49.4557C78.2975 49.4557 78.6863 49.0669 78.6863 48.5873C78.6863 48.1077 78.2975 47.7189 77.8179 47.7189C77.3383 47.7189 76.9495 48.1077 76.9495 48.5873C76.9495 49.0669 77.3383 49.4557 77.8179 49.4557Z" fill="white"/>
<path d="M59.6492 50.0805C59.652 50.1236 59.6665 50.1652 59.6909 50.2008C59.7154 50.2365 59.749 50.2649 59.7882 50.283C59.8274 50.3012 59.8708 50.3085 59.9138 50.3041C59.9568 50.2998 59.9978 50.2839 60.0326 50.2582L60.1965 52.7874C60.1996 52.8362 60.2124 52.8838 60.234 52.9277C60.2556 52.9715 60.2856 53.0107 60.3223 53.0429C60.359 53.0752 60.4017 53.0998 60.448 53.1156C60.4943 53.1313 60.5432 53.1378 60.5919 53.1346C60.6703 53.1296 60.745 53.0998 60.8052 53.0495C60.8655 53.0998 60.9402 53.1296 61.0185 53.1346C61.117 53.141 61.214 53.108 61.2881 53.0429C61.3623 52.9778 61.4075 52.8859 61.4139 52.7874L61.5778 50.2582C61.6193 50.2891 61.6696 50.3057 61.7213 50.3056C61.7824 50.3056 61.8412 50.2823 61.8858 50.2405C61.9303 50.1987 61.9573 50.1415 61.9613 50.0805C62.0894 48.1222 61.6466 47.6552 61.5564 47.5815C61.5154 47.5479 61.4643 47.5288 61.4113 47.5273C61.4031 47.5265 61.3949 47.526 61.3867 47.526H60.2239C60.2156 47.526 60.2074 47.5265 60.1993 47.5273C60.1462 47.5288 60.0952 47.5478 60.0541 47.5814C59.9641 47.6552 59.5213 48.1222 59.6493 50.0804L59.6492 50.0805Z" fill="white"/>
<path d="M60.8052 47.3545C61.1792 47.3545 61.4824 47.0513 61.4824 46.6773C61.4824 46.3032 61.1792 46 60.8052 46C60.4311 46 60.1279 46.3032 60.1279 46.6773C60.1279 47.0513 60.4311 47.3545 60.8052 47.3545Z" fill="white"/>
<path d="M46.2252 50.0805C46.228 50.1237 46.2424 50.1652 46.2669 50.2009C46.2914 50.2365 46.325 50.2649 46.3642 50.2831C46.4034 50.3013 46.4468 50.3086 46.4898 50.3042C46.5328 50.2998 46.5739 50.2839 46.6086 50.2582L46.7725 52.7874C46.7789 52.8859 46.8242 52.9778 46.8983 53.0429C46.9725 53.108 47.0694 53.141 47.1679 53.1346C47.2463 53.1296 47.321 53.0998 47.3813 53.0495C47.4416 53.0998 47.5163 53.1296 47.5946 53.1346C47.6931 53.141 47.7901 53.108 47.8642 53.0429C47.9384 52.9778 47.9836 52.8859 47.99 52.7874L48.1539 50.2582C48.1953 50.2891 48.2456 50.3057 48.2973 50.3056C48.3584 50.3056 48.4172 50.2823 48.4618 50.2405C48.5064 50.1987 48.5334 50.1415 48.5374 50.0805C48.6653 48.1222 48.2225 47.6552 48.1324 47.5815C48.0914 47.5479 48.0404 47.5288 47.9874 47.5273C47.9792 47.5265 47.971 47.526 47.9627 47.526H46.7998C46.7915 47.526 46.7833 47.5265 46.7752 47.5273C46.7222 47.5288 46.6712 47.5478 46.6301 47.5814C46.5401 47.6552 46.0973 48.1223 46.2252 50.0805ZM47.3813 47.3545C47.5609 47.3545 47.7332 47.2832 47.8602 47.1561C47.9872 47.0291 48.0586 46.8569 48.0586 46.6773C48.0586 46.4976 47.9872 46.3254 47.8602 46.1984C47.7332 46.0714 47.5609 46 47.3813 46C47.2017 46 47.0294 46.0714 46.9024 46.1984C46.7754 46.3254 46.7041 46.4976 46.7041 46.6773C46.7041 46.8569 46.7754 47.0291 46.9024 47.1561C47.0294 47.2832 47.2017 47.3545 47.3813 47.3545ZM56.5383 51.9656L56.5793 51.334C56.626 51.3687 56.6826 51.3875 56.7407 51.3874C56.8095 51.3873 56.8757 51.3611 56.9259 51.314C56.976 51.267 57.0064 51.2026 57.0109 51.134C57.155 48.9299 56.6565 48.4042 56.5552 48.3211C56.509 48.2833 56.4515 48.2619 56.3918 48.2603C56.3826 48.2593 56.3734 48.2588 56.3641 48.2588H55.0552C55.0458 48.2588 55.0366 48.2593 55.0275 48.2603C54.9678 48.2619 54.9103 48.2833 54.8641 48.3211C54.7628 48.4042 54.2644 48.9298 54.4084 51.134C54.4116 51.1826 54.4279 51.2293 54.4554 51.2695C54.4829 51.3096 54.5207 51.3416 54.5649 51.362C54.609 51.3825 54.6579 51.3907 54.7063 51.3858C54.7547 51.3808 54.8009 51.3629 54.84 51.334L55.0245 54.1807C55.0317 54.2916 55.0826 54.395 55.1661 54.4683C55.2495 54.5416 55.3587 54.5787 55.4695 54.5716C55.5577 54.5659 55.6418 54.5323 55.7097 54.4757C55.7775 54.5323 55.8616 54.5659 55.9497 54.5716C55.9756 54.5732 56.0009 54.5717 56.0257 54.5688C55.7995 54.2701 55.6636 53.8993 55.6636 53.4965C55.6636 52.8455 56.0157 52.2765 56.5384 51.9656H56.5383ZM56.4719 47.3034C56.4719 47.1013 56.3916 46.9074 56.2486 46.7644C56.1057 46.6215 55.9118 46.5411 55.7096 46.5411C55.5074 46.5411 55.3135 46.6215 55.1706 46.7644C55.0276 46.9074 54.9473 47.1013 54.9473 47.3034C54.9473 47.5056 55.0276 47.6995 55.1706 47.8425C55.3135 47.9854 55.5074 48.0658 55.7096 48.0658C55.9118 48.0658 56.1057 47.9854 56.2486 47.8425C56.3916 47.6995 56.4719 47.5056 56.4719 47.3034ZM87.6397 52.6436C87.7475 52.555 87.8813 52.5039 88.0208 52.4982C88.0398 52.4964 88.0588 52.4955 88.0783 52.4955H88.2452C88.2457 52.4797 88.2458 52.4648 88.2463 52.4491C87.899 52.2 87.6716 51.7939 87.6716 51.3348C87.6716 50.9684 87.8168 50.6359 88.0516 50.3897C87.9186 49.955 87.7588 49.7922 87.7032 49.7468C87.6506 49.7037 87.5852 49.6793 87.5172 49.6774C87.5067 49.6763 87.4962 49.6757 87.4856 49.6757H85.9945C85.9837 49.6757 85.9733 49.6763 85.9629 49.6774C85.8949 49.6793 85.8295 49.7037 85.7768 49.7468C85.6613 49.8414 85.0935 50.4402 85.2576 52.9513C85.2629 53.033 85.3005 53.1092 85.3621 53.1632C85.4236 53.2172 85.5041 53.2446 85.5858 53.2393C85.645 53.2354 85.7018 53.2146 85.7494 53.1791L85.9595 56.4222C85.9635 56.4848 85.9799 56.5459 86.0075 56.6021C86.0352 56.6583 86.0737 56.7085 86.1208 56.7499C86.1679 56.7912 86.2226 56.8229 86.282 56.8431C86.3413 56.8633 86.404 56.8716 86.4665 56.8675C86.567 56.861 86.6627 56.8227 86.74 56.7582C86.778 56.7898 86.8211 56.8156 86.868 56.8344C86.6885 53.6846 87.4105 52.8312 87.6396 52.6436H87.6397Z" fill="white"/>
<path d="M86.74 49.4557C87.2196 49.4557 87.6084 49.0669 87.6084 48.5873C87.6084 48.1077 87.2196 47.7189 86.74 47.7189C86.2604 47.7189 85.8716 48.1077 85.8716 48.5873C85.8716 49.0669 86.2604 49.4557 86.74 49.4557Z" fill="white"/>
<path d="M52.8712 57.891L52.8719 57.8794C52.8653 57.8833 52.8587 57.8872 52.852 57.891H52.8712ZM50.5164 54.7609C50.8727 54.409 51.3619 54.1914 51.901 54.1914C52.4468 54.1914 52.9415 54.4144 53.299 54.7738C53.3861 54.771 53.469 54.7359 53.5317 54.6753C53.5943 54.6147 53.6322 54.533 53.638 54.446C53.825 51.5843 53.1779 50.9017 53.0463 50.7939C52.9863 50.7448 52.9117 50.717 52.8342 50.7149C52.8222 50.7136 52.8102 50.7129 52.7982 50.7129H51.0988C51.0866 50.7129 51.0746 50.7136 51.0628 50.7149C50.9853 50.717 50.9107 50.7448 50.8508 50.7939C50.7191 50.9017 50.072 51.5843 50.259 54.446C50.269 54.5994 50.3763 54.722 50.5164 54.7608V54.7609Z" fill="white"/>
<path d="M52.1733 50.4305C52.7052 50.3044 53.0341 49.771 52.908 49.2392C52.7819 48.7074 52.2485 48.3784 51.7166 48.5046C51.1848 48.6307 50.8559 49.1641 50.982 49.6959C51.1081 50.2277 51.6415 50.5566 52.1733 50.4305Z" fill="white"/>
<path d="M43.2654 59.4386C43.3925 59.3342 43.5439 59.2635 43.7056 59.2331L43.7543 58.4818C43.4892 58.1117 43.3467 57.6679 43.347 57.2126C43.347 56.383 43.8109 55.6597 44.4929 55.2884C44.405 53.4454 43.9157 52.9328 43.7967 52.8354C43.7286 52.7797 43.6439 52.7481 43.5559 52.7456C43.5423 52.7442 43.5286 52.7434 43.515 52.7434H41.5852C41.5713 52.7434 41.5577 52.7442 41.5443 52.7456C41.4563 52.7481 41.3716 52.7797 41.3035 52.8354C41.1539 52.9578 40.4191 53.7329 40.6315 56.9827C40.6349 57.0351 40.6486 57.0863 40.6718 57.1333C40.695 57.1804 40.7272 57.2225 40.7667 57.2571C40.8061 57.2917 40.852 57.3182 40.9017 57.3351C40.9514 57.352 41.0039 57.3589 41.0563 57.3555C41.1328 57.3505 41.2063 57.3234 41.2678 57.2776L41.5398 61.4749C41.5613 61.8047 41.8379 62.0562 42.1645 62.0516C42.464 60.2693 43.0278 59.633 43.2654 59.4386Z" fill="white"/>
<path d="M42.5502 52.4588C43.1709 52.4588 43.6741 51.9556 43.6741 51.3349C43.6741 50.7141 43.1709 50.2109 42.5502 50.2109C41.9295 50.2109 41.4263 50.7141 41.4263 51.3349C41.4263 51.9556 41.9295 52.4588 42.5502 52.4588Z" fill="white"/>
<path d="M90.2899 52.8354C90.2217 52.7797 90.137 52.7481 90.049 52.7456C90.0355 52.7442 90.0218 52.7434 90.0081 52.7434H88.0783C88.0645 52.7434 88.0509 52.7442 88.0374 52.7456C87.9494 52.7481 87.8647 52.7797 87.7966 52.8354C87.6471 52.9578 86.9123 53.7329 87.1247 56.9827C87.1281 57.0351 87.1418 57.0863 87.165 57.1333C87.1882 57.1804 87.2204 57.2225 87.2599 57.2571C87.2993 57.2917 87.3452 57.3182 87.3949 57.3351C87.4446 57.352 87.4971 57.3589 87.5495 57.3555C87.626 57.3505 87.6994 57.3234 87.7609 57.2776L88.033 61.4749C88.0382 61.5558 88.0594 61.6349 88.0952 61.7077C88.131 61.7805 88.1808 61.8455 88.2417 61.899C88.3027 61.9525 88.3736 61.9935 88.4504 62.0196C88.5271 62.0457 88.6083 62.0565 88.6892 62.0512C88.8193 62.0428 88.9432 61.9933 89.0432 61.9098C89.1433 61.9933 89.2672 62.0428 89.3972 62.0512C89.4782 62.0564 89.5593 62.0457 89.6361 62.0196C89.7129 61.9935 89.7838 61.9525 89.8447 61.899C89.9056 61.8454 89.9554 61.7804 89.9912 61.7077C90.027 61.6349 90.0482 61.5558 90.0534 61.4749L90.3255 57.2776C90.3942 57.3288 90.4777 57.3564 90.5635 57.3563C90.6649 57.3562 90.7624 57.3175 90.8364 57.2482C90.9104 57.1788 90.9552 57.0839 90.9618 56.9827C91.1742 53.7329 90.4394 52.9579 90.2899 52.8354Z" fill="white"/>
<path d="M89.0431 52.4588C89.6639 52.4588 90.1671 51.9556 90.1671 51.3349C90.1671 50.7141 89.6639 50.2109 89.0431 50.2109C88.4224 50.2109 87.9192 50.7141 87.9192 51.3349C87.9192 51.9556 88.4224 52.4588 89.0431 52.4588Z" fill="white"/>
<path d="M38.2034 52.8354C38.1353 52.7797 38.0506 52.7481 37.9626 52.7456C37.949 52.7442 37.9354 52.7434 37.9217 52.7434H35.9919C35.978 52.7434 35.9644 52.7442 35.951 52.7456C35.863 52.7481 35.7783 52.7797 35.7102 52.8354C35.5607 52.9578 34.8258 53.7329 35.0382 56.9827C35.0417 57.0351 35.0554 57.0863 35.0785 57.1333C35.1017 57.1804 35.134 57.2225 35.1734 57.2571C35.2129 57.2917 35.2588 57.3182 35.3084 57.3351C35.3581 57.352 35.4107 57.3589 35.463 57.3555C35.5396 57.3505 35.613 57.3234 35.6745 57.2776L35.9466 61.4749C35.9518 61.5558 35.9729 61.6349 36.0087 61.7077C36.0446 61.7804 36.0944 61.8454 36.1553 61.899C36.2162 61.9525 36.2871 61.9935 36.3639 62.0196C36.4406 62.0457 36.5218 62.0564 36.6027 62.0512C36.7328 62.0428 36.8568 61.9933 36.9568 61.9098C37.0568 61.9933 37.1808 62.0428 37.3108 62.0512C37.3917 62.0564 37.4729 62.0457 37.5497 62.0196C37.6265 61.9935 37.6973 61.9525 37.7583 61.899C37.8192 61.8454 37.869 61.7804 37.9048 61.7077C37.9406 61.6349 37.9618 61.5558 37.967 61.4749L38.239 57.2776C38.3077 57.3289 38.3913 57.3565 38.477 57.3563C38.5784 57.3562 38.676 57.3175 38.75 57.2482C38.824 57.1788 38.8688 57.0839 38.8754 56.9827C39.0877 53.7329 38.3529 52.9579 38.2034 52.8354Z" fill="white"/>
<path d="M36.9569 52.4588C37.5777 52.4588 38.0809 51.9556 38.0809 51.3349C38.0809 50.7141 37.5777 50.2109 36.9569 50.2109C36.3362 50.2109 35.833 50.7141 35.833 51.3349C35.833 51.9556 36.3362 52.4588 36.9569 52.4588Z" fill="white"/>
<path d="M73.6784 66.5748C73.3256 61.1777 74.5319 59.7482 74.9101 59.4386C75.0757 59.3025 75.2812 59.2243 75.4953 59.2159C75.5249 59.2131 75.5548 59.2117 75.5852 59.2117H76.287V59.2102C75.5245 58.8675 74.9918 58.1013 74.9918 57.2126C74.9918 56.6276 75.223 56.0958 75.5981 55.7027C75.4989 55.551 75.4154 55.4703 75.3713 55.4342C75.2834 55.3622 75.174 55.3215 75.0604 55.3183C75.0428 55.3164 75.0252 55.3155 75.0075 55.3154H72.5155C72.4977 55.3154 72.4801 55.3165 72.4628 55.3183C72.3492 55.3214 72.2398 55.3622 72.1518 55.4342C72.0087 55.5514 71.4507 56.1332 71.283 58.1351C71.6579 58.4755 72.6458 59.8269 72.3445 64.4359C72.3417 64.48 72.3347 64.5228 72.3258 64.565L72.4571 66.5905C72.4855 67.03 72.865 67.3631 73.3044 67.3346C73.4723 67.3238 73.6324 67.2599 73.7616 67.1521C73.8577 67.2322 73.9715 67.2885 74.0935 67.3165C73.8588 67.1487 73.6984 66.8818 73.6784 66.5748Z" fill="white"/>
<path d="M73.7614 54.9478C74.5629 54.9478 75.2127 54.298 75.2127 53.4965C75.2127 52.6949 74.5629 52.0452 73.7614 52.0452C72.9598 52.0452 72.3101 52.6949 72.3101 53.4965C72.3101 54.298 72.9598 54.9478 73.7614 54.9478Z" fill="white"/>
<path d="M54.6381 60.8112C54.6372 60.7999 54.6368 60.7893 54.6361 60.7781C54.394 59.0193 53.8678 58.475 53.7221 58.3558C53.6226 58.2743 53.4988 58.2282 53.3703 58.2246C53.3505 58.2225 53.3305 58.2214 53.3106 58.2213H50.4914C50.4712 58.2213 50.4513 58.2226 50.4317 58.2246C50.3031 58.2282 50.1794 58.2743 50.0799 58.3558C49.8816 58.5181 48.978 59.4672 49.0461 63.1962C49.076 63.5727 49.095 63.9854 49.1009 64.4373C49.1166 64.5872 49.1897 64.7252 49.3049 64.8224C49.4201 64.9196 49.5684 64.9685 49.7188 64.9587C49.8307 64.9514 49.938 64.912 50.0278 64.845L50.4252 70.9765C50.4574 71.4738 50.8867 71.8506 51.3838 71.8184C51.5737 71.8061 51.7548 71.7338 51.901 71.6119C52.0471 71.7338 52.2282 71.8061 52.4181 71.8184C52.9151 71.8506 53.3444 71.4739 53.3767 70.9765L53.774 64.845C53.8745 64.9199 53.9965 64.9603 54.1218 64.96C54.4268 64.96 54.6836 64.723 54.7036 64.4143C54.8007 62.9291 54.7623 61.7977 54.6571 60.9387C54.6475 60.8967 54.6412 60.8541 54.6381 60.8112Z" fill="white"/>
<path d="M51.9009 57.8055C52.8076 57.8055 53.5427 57.0704 53.5427 56.1637C53.5427 55.2569 52.8076 54.5219 51.9009 54.5219C50.9941 54.5219 50.259 55.2569 50.259 56.1637C50.259 57.0704 50.9941 57.8055 51.9009 57.8055Z" fill="white"/>
<path d="M47.5981 59.6943C47.4854 59.602 47.3453 59.5498 47.1997 59.5457C47.1773 59.5434 47.1547 59.5421 47.1321 59.5421H43.9404C43.9176 59.5421 43.8951 59.5434 43.8729 59.5457C43.7274 59.5498 43.5872 59.602 43.4746 59.6943C43.2274 59.8967 42.012 61.1786 42.3633 66.5532C42.3747 66.7281 42.4551 66.8913 42.5869 67.0069C42.7186 67.1225 42.8909 67.1811 43.0658 67.1697C43.1924 67.1615 43.314 67.1167 43.4158 67.041L43.8656 73.9825C43.902 74.5455 44.388 74.9721 44.9509 74.9357C45.1659 74.9218 45.3709 74.8399 45.5363 74.7018C45.7017 74.8398 45.9068 74.9217 46.1218 74.9356C46.6845 74.9721 47.1706 74.5455 47.207 73.9825L47.6568 67.041C47.7706 67.1257 47.9087 67.1713 48.0505 67.1711C48.2182 67.1709 48.3796 67.107 48.502 66.9922C48.6243 66.8775 48.6984 66.7206 48.7094 66.5532C49.0606 61.1785 47.8452 59.8967 47.5981 59.6943Z" fill="white"/>
<path d="M45.5365 59.0713C46.5631 59.0713 47.3953 58.2391 47.3953 57.2125C47.3953 56.186 46.5631 55.3538 45.5365 55.3538C44.5099 55.3538 43.6777 56.186 43.6777 57.2125C43.6777 58.2391 44.5099 59.0713 45.5365 59.0713Z" fill="white"/>
<path d="M68.0637 50.6342C68.1568 50.5576 68.2724 50.5136 68.3929 50.5088C68.397 50.5084 68.4013 50.5085 68.4054 50.5081L68.4197 50.2882C68.2196 50.0742 68.0961 49.7879 68.0961 49.4726C68.0961 49.0086 68.3623 48.6062 68.7496 48.408C68.6418 47.8191 68.4552 47.6265 68.4002 47.5814C68.3592 47.5478 68.3082 47.5288 68.2551 47.5273C68.2469 47.5264 68.2387 47.526 68.2304 47.526H67.0676C67.0593 47.526 67.0511 47.5265 67.043 47.5273C66.9899 47.5288 66.9389 47.5478 66.8978 47.5814C66.8078 47.6552 66.365 48.1222 66.493 50.0804C66.4959 50.1236 66.5103 50.1651 66.5348 50.2007C66.5592 50.2364 66.5928 50.2648 66.632 50.283C66.6712 50.3011 66.7146 50.3084 66.7576 50.3041C66.8006 50.2997 66.8416 50.2839 66.8764 50.2582L67.0403 52.7874C67.046 52.8741 67.082 52.9562 67.1419 53.0192C67.2018 53.0822 67.2819 53.1222 67.3683 53.1322C67.4226 51.3218 67.8952 50.7722 68.0637 50.6342Z" fill="white"/>
<path d="M67.6492 47.3545C68.0232 47.3545 68.3264 47.0513 68.3264 46.6773C68.3264 46.3032 68.0232 46 67.6492 46C67.2751 46 66.9719 46.3032 66.9719 46.6773C66.9719 47.0513 67.2751 47.3545 67.6492 47.3545Z" fill="white"/>
<path d="M67.8352 54.7535C68.191 54.4061 68.6768 54.1915 69.2121 54.1915C69.7582 54.1915 70.253 54.4146 70.6105 54.7744C70.7032 54.7797 70.7943 54.7482 70.8639 54.6867C70.9335 54.6253 70.9759 54.5387 70.982 54.4461C71.169 51.5843 70.5218 50.9018 70.3902 50.7941C70.3303 50.7449 70.2557 50.7171 70.1782 50.7149C70.1662 50.7136 70.1542 50.713 70.1422 50.713H68.4428C68.4306 50.713 68.4186 50.7137 68.4068 50.7149C68.3293 50.7171 68.2547 50.7449 68.1948 50.7941C68.0632 50.9018 67.416 51.5843 67.603 54.4461C67.6076 54.5144 67.632 54.5798 67.6732 54.6344C67.7145 54.689 67.7708 54.7305 67.8352 54.7535ZM70.2152 57.891L70.2172 57.8598C70.1993 57.8704 70.1813 57.8809 70.1631 57.891H70.2152Z" fill="white"/>
<path d="M69.4478 50.4554C69.9873 50.3676 70.3534 49.859 70.2656 49.3195C70.1777 48.7801 69.6691 48.4139 69.1297 48.5018C68.5902 48.5897 68.2241 49.0982 68.3119 49.6377C68.3998 50.1772 68.9083 50.5433 69.4478 50.4554Z" fill="white"/>
<path d="M64.1617 61.5009C64.1616 61.6734 64.143 61.8454 64.106 62.0139C64.1599 62.0337 64.2169 62.0473 64.277 62.0512C64.358 62.0565 64.4391 62.0457 64.5159 62.0196C64.5927 61.9935 64.6636 61.9525 64.7245 61.899C64.7855 61.8455 64.8353 61.7805 64.8711 61.7077C64.9069 61.6349 64.9281 61.5558 64.9333 61.4749L65.2053 57.2776C65.274 57.3289 65.3576 57.3565 65.4433 57.3564C65.5448 57.3563 65.6424 57.3176 65.7163 57.2482C65.7903 57.1788 65.8351 57.0839 65.8417 56.9827C66.054 53.7329 65.3192 52.9579 65.1697 52.8354C65.1016 52.7797 65.0169 52.7481 64.9289 52.7456C64.9153 52.7442 64.9017 52.7434 64.888 52.7434H62.9582C62.9443 52.7434 62.9307 52.7442 62.9173 52.7456C62.8293 52.7481 62.7446 52.7797 62.6765 52.8354C62.527 52.9578 61.7922 53.7329 62.0045 56.9827C62.008 57.0351 62.0217 57.0863 62.0449 57.1333C62.0681 57.1804 62.1003 57.2225 62.1397 57.2571C62.1792 57.2917 62.2251 57.3182 62.2748 57.3351C62.3244 57.352 62.377 57.3589 62.4293 57.3555C62.5059 57.3505 62.5793 57.3234 62.6408 57.2776L62.7734 59.3234C63.5926 59.7067 64.1617 60.5383 64.1617 61.5009Z" fill="white"/>
<path d="M63.9233 52.4588C64.544 52.4588 65.0472 51.9556 65.0472 51.3349C65.0472 50.7141 64.544 50.2109 63.9233 50.2109C63.3025 50.2109 62.7993 50.7141 62.7993 51.3349C62.7993 51.9556 63.3025 52.4588 63.9233 52.4588Z" fill="white"/>
<path d="M83.6247 54.1381C83.5456 54.0734 83.4474 54.0368 83.3453 54.0339C83.3295 54.0322 83.3136 54.0314 83.2978 54.0314H81.0587C81.0427 54.0314 81.0269 54.0323 81.0113 54.0339C80.9092 54.0367 80.811 54.0734 80.7319 54.1381C80.5585 54.2801 79.7059 55.1793 79.9523 58.9499C79.9603 59.0726 80.0168 59.1871 80.1092 59.2682C80.2016 59.3493 80.3225 59.3903 80.4452 59.3823C80.534 59.3765 80.6192 59.3452 80.6906 59.292L81.0062 64.1617C81.0123 64.2556 81.0368 64.3474 81.0784 64.4318C81.1199 64.5162 81.1777 64.5917 81.2484 64.6537C81.3191 64.7158 81.4013 64.7634 81.4904 64.7937C81.5795 64.824 81.6737 64.8365 81.7676 64.8304C81.9184 64.8207 82.0623 64.7632 82.1783 64.6663C82.2943 64.7632 82.4381 64.8206 82.589 64.8304C82.6829 64.8365 82.777 64.824 82.8661 64.7937C82.9552 64.7634 83.0374 64.7158 83.1081 64.6537C83.1788 64.5917 83.2366 64.5162 83.2782 64.4318C83.3197 64.3474 83.3442 64.2556 83.3503 64.1617L83.6659 59.292C83.7457 59.3514 83.8426 59.3835 83.9421 59.3833C84.1844 59.3833 84.3883 59.1951 84.4043 58.9499C84.6507 55.1793 83.7981 54.2801 83.6247 54.1381Z" fill="white"/>
<path d="M82.1785 53.701C82.8986 53.701 83.4824 53.1172 83.4824 52.3971C83.4824 51.6769 82.8986 51.0931 82.1785 51.0931C81.4583 51.0931 80.8745 51.6769 80.8745 52.3971C80.8745 53.1172 81.4583 53.701 82.1785 53.701Z" fill="white"/>
<path d="M59.101 61.1705C59.1786 61.228 59.2708 61.2625 59.3671 61.27C59.417 60.749 59.6341 60.2762 59.9638 59.9056C60.059 56.4508 59.2337 55.5805 59.0551 55.4342C58.9671 55.3622 58.8577 55.3214 58.7441 55.3183C58.7265 55.3164 58.7089 55.3155 58.6912 55.3154H56.1992C56.1814 55.3154 56.1638 55.3165 56.1465 55.3183C56.0329 55.3214 55.9235 55.3622 55.8355 55.4342C55.6425 55.5923 54.6936 56.5932 54.9678 60.7897C54.9722 60.8573 54.9899 60.9234 55.0199 60.9842C55.0498 61.045 55.0915 61.0993 55.1424 61.144C55.1934 61.1887 55.2526 61.2229 55.3168 61.2447C55.3809 61.2665 55.4488 61.2754 55.5164 61.271C55.6152 61.2646 55.7101 61.2297 55.7896 61.1705L56.1408 66.5905C56.1693 67.03 56.5487 67.3631 56.9881 67.3346C57.156 67.3238 57.3161 67.2599 57.4453 67.1521C57.5952 67.2772 57.786 67.3426 57.9811 67.3358C58.1842 65.7302 58.5752 64.8459 58.8936 64.3722L59.101 61.1705Z" fill="white"/>
<path d="M57.4452 54.9478C58.2468 54.9478 58.8965 54.298 58.8965 53.4965C58.8965 52.6949 58.2468 52.0452 57.4452 52.0452C56.6437 52.0452 55.9939 52.6949 55.9939 53.4965C55.9939 54.298 56.6437 54.9478 57.4452 54.9478Z" fill="white"/>
<path d="M71.0332 58.3558C70.9337 58.2743 70.8099 58.2282 70.6814 58.2246C70.6616 58.2225 70.6416 58.2214 70.6217 58.2213H67.8025C67.7825 58.2214 67.7626 58.2225 67.7428 58.2246C67.6142 58.2282 67.4905 58.2743 67.391 58.3558C67.1726 58.5346 66.0991 59.6669 66.4094 64.4143C66.4195 64.5688 66.4905 64.7129 66.6069 64.815C66.7233 64.9171 66.8754 64.9688 67.0299 64.9587C67.1417 64.9515 67.249 64.912 67.3389 64.845L67.7363 70.9765C67.7685 71.4738 68.1978 71.8506 68.6949 71.8184C68.8848 71.8061 69.0659 71.7338 69.2121 71.6119C69.3582 71.7338 69.5393 71.8061 69.7292 71.8184C70.2262 71.8506 70.6555 71.4739 70.6878 70.9765L71.0851 64.845C71.1856 64.9199 71.3076 64.9603 71.4329 64.96C71.7379 64.96 71.9947 64.723 72.0148 64.4143C72.325 59.6669 71.2515 58.5346 71.0332 58.3558Z" fill="white"/>
<path d="M69.2121 57.8055C70.1189 57.8055 70.854 57.0704 70.854 56.1637C70.854 55.2569 70.1189 54.5219 69.2121 54.5219C68.3054 54.5219 67.5703 55.2569 67.5703 56.1637C67.5703 57.0704 68.3054 57.8055 69.2121 57.8055Z" fill="white"/>
<path d="M79.2428 59.6943C79.1302 59.602 78.9901 59.5498 78.8445 59.5457C78.822 59.5434 78.7994 59.5421 78.7768 59.5421H75.5852C75.5623 59.5421 75.5398 59.5434 75.5176 59.5457C75.3721 59.5498 75.232 59.602 75.1194 59.6943C74.8722 59.8967 73.6568 61.1786 74.0081 66.5532C74.0195 66.7281 74.0999 66.8913 74.2317 67.0069C74.3634 67.1225 74.5357 67.1811 74.7106 67.1697C74.8372 67.1614 74.9587 67.1167 75.0605 67.041L75.5103 73.9825C75.5468 74.5455 76.0328 74.9721 76.5955 74.9357C76.8106 74.9218 77.0156 74.8399 77.181 74.7018C77.3464 74.8398 77.5515 74.9217 77.7665 74.9356C78.3292 74.9721 78.8152 74.5455 78.8518 73.9825L79.3016 67.041C79.4153 67.1257 79.5535 67.1713 79.6953 67.1711C79.863 67.1709 80.0244 67.1069 80.1467 66.9922C80.269 66.8775 80.3431 66.7206 80.3541 66.5532C80.7053 61.1785 79.49 59.8967 79.2428 59.6943Z" fill="white"/>
<path d="M77.181 59.0713C78.2076 59.0713 79.0398 58.2391 79.0398 57.2125C79.0398 56.186 78.2076 55.3538 77.181 55.3538C76.1545 55.3538 75.3223 56.186 75.3223 57.2125C75.3223 58.2391 76.1545 59.0713 77.181 59.0713Z" fill="white"/>
<path d="M59.933 64.0618C59.7732 64.0663 59.6194 64.1236 59.4958 64.2249C59.2244 64.447 57.8904 65.8541 58.276 71.7536C58.2885 71.9456 58.3768 72.1248 58.5214 72.2516C58.666 72.3785 58.8551 72.4428 59.0471 72.4302C59.1861 72.4212 59.3195 72.3722 59.4312 72.289L59.9249 79.9085C59.965 80.5264 60.4984 80.9948 61.1161 80.9547C61.3522 80.9395 61.5773 80.8496 61.7589 80.698C61.9404 80.8496 62.1654 80.9395 62.4014 80.9547C63.0191 80.9948 63.5526 80.5265 63.5927 79.9085L64.0865 72.289C64.2113 72.382 64.3629 72.4321 64.5186 72.4319C64.7027 72.4317 64.8798 72.3615 65.0141 72.2356C65.1484 72.1096 65.2297 71.9374 65.2417 71.7536C65.6272 65.8541 64.2932 64.447 64.0219 64.2249C63.8982 64.1236 63.7444 64.0663 63.5847 64.0618C63.56 64.0592 63.5353 64.0579 63.5105 64.0579H60.0071C59.9821 64.0579 59.9574 64.0593 59.933 64.0618Z" fill="white"/>
<path d="M63.197 62.9448C63.9937 62.148 63.9937 60.8562 63.1969 60.0594C62.4002 59.2626 61.1084 59.2626 60.3116 60.0594C59.5148 60.8562 59.5148 62.148 60.3116 62.9448C61.1084 63.7415 62.4002 63.7415 63.197 62.9448Z" fill="white"/>
</svg>
