<svg width="60" height="60" viewBox="0 0 60 60" fill="none" xmlns="http://www.w3.org/2000/svg">
<circle cx="30" cy="30" r="30" fill="#0291DD"/>
<path fill-rule="evenodd" clip-rule="evenodd" d="M26.1646 30.0001C26.1646 30.2725 26.2728 30.5337 26.4654 30.7263C26.658 30.9189 26.9193 31.0272 27.1917 31.0272L39.0916 31.0272L34.6813 35.4355C34.5858 35.531 34.51 35.6443 34.4583 35.7691C34.4067 35.8939 34.3801 36.0276 34.3801 36.1626C34.3801 36.2977 34.4067 36.4314 34.4583 36.5562C34.51 36.681 34.5858 36.7943 34.6813 36.8898C34.7768 36.9853 34.8901 37.0611 35.0149 37.1128C35.1397 37.1644 35.2734 37.191 35.4085 37.191C35.5435 37.191 35.6772 37.1644 35.802 37.1128C35.9268 37.0611 36.0401 36.9853 36.1356 36.8898L42.2982 30.7272C42.3939 30.6318 42.4698 30.5185 42.5215 30.3937C42.5733 30.2689 42.6 30.1352 42.6 30.0001C42.6 29.865 42.5733 29.7312 42.5215 29.6064C42.4698 29.4816 42.3939 29.3683 42.2982 29.2729L36.1356 23.1103C35.9428 22.9174 35.6812 22.8091 35.4085 22.8091C35.1357 22.8091 34.8741 22.9174 34.6813 23.1103C34.4884 23.3032 34.3801 23.5647 34.3801 23.8375C34.3801 24.1102 34.4884 24.3718 34.6813 24.5647L39.0916 28.973L27.1917 28.973C26.9193 28.973 26.658 29.0812 26.4654 29.2738C26.2728 29.4664 26.1646 29.7277 26.1646 30.0001Z" fill="white"/>
<path fill-rule="evenodd" clip-rule="evenodd" d="M33.8354 29.9994C33.8354 29.727 33.7272 29.4658 33.5346 29.2732C33.342 29.0806 33.0807 28.9724 32.8083 28.9724L20.9084 28.9724L25.3187 24.564C25.4142 24.4686 25.49 24.3552 25.5417 24.2304C25.5933 24.1056 25.6199 23.9719 25.6199 23.8369C25.6199 23.7018 25.5933 23.5681 25.5417 23.4433C25.49 23.3185 25.4142 23.2052 25.3187 23.1097C25.2232 23.0142 25.1099 22.9384 24.9851 22.8868C24.8603 22.8351 24.7266 22.8085 24.5915 22.8085C24.4565 22.8085 24.3228 22.8351 24.198 22.8868C24.0732 22.9384 23.9599 23.0142 23.8644 23.1097L17.7018 29.2723C17.6061 29.3677 17.5302 29.481 17.4785 29.6058C17.4267 29.7306 17.4 29.8644 17.4 29.9994C17.4 30.1345 17.4267 30.2683 17.4785 30.3931C17.5302 30.5179 17.6061 30.6312 17.7018 30.7266L23.8644 36.8892C24.0572 37.0821 24.3188 37.1904 24.5915 37.1904C24.8643 37.1904 25.1259 37.0821 25.3187 36.8892C25.5116 36.6964 25.6199 36.4348 25.6199 36.162C25.6199 35.8893 25.5116 35.6277 25.3187 35.4348L20.9084 31.0265L32.8083 31.0265C33.0807 31.0265 33.342 30.9183 33.5346 30.7257C33.7272 30.5331 33.8354 30.2719 33.8354 29.9994Z" fill="white"/>
</svg>
