<svg width="100" height="100" viewBox="0 0 100 100" fill="none" xmlns="http://www.w3.org/2000/svg">
<path d="M84.3749 61.5C84.3749 74.5 79.3437 81.9375 71.8749 96.875H28.1249C19.9374 80.5313 13.0937 70.4063 16.4374 53.125C17.7769 46.2885 20.7106 39.8645 24.9999 34.375C80.5312 34.375 74.7499 34.0313 75.5937 35.1563C81.2776 42.7647 84.357 52.0029 84.3749 61.5Z" fill="#FFF8EC"/>
<path d="M75 21.875H25V34.375H75V21.875Z" fill="#FFDDA0"/>
<path d="M71.875 21.875C24.5625 21.875 28.2812 21.5625 28.125 21.875C30.0037 18.1208 32.8898 14.9633 36.4605 12.7558C40.0312 10.5482 44.1457 9.37765 48.3437 9.375H51.6562C55.8543 9.37765 59.9688 10.5482 63.5395 12.7558C67.1102 14.9633 69.9963 18.1208 71.875 21.875Z" fill="#DA9F37"/>
<path d="M53.125 9.375H46.875V6.25C46.875 5.4212 47.2042 4.62634 47.7903 4.04029C48.3763 3.45424 49.1712 3.125 50 3.125C50.8288 3.125 51.6237 3.45424 52.2097 4.04029C52.7958 4.62634 53.125 5.4212 53.125 6.25V9.375Z" fill="#FFC35A"/>
<path d="M81.25 78.125C80.3298 80.2669 79.2864 82.3537 78.125 84.375H21.875C20.7274 82.3463 19.6844 80.2603 18.75 78.125H81.25ZM83.5625 53.125H16.4375C16.8023 51.2637 17.2824 49.4268 17.875 47.625C18.2812 46.5 13.3438 46.875 81.8438 46.875C82.5875 48.9076 83.1623 50.998 83.5625 53.125Z" fill="#FFDDA0"/>
</svg>
