<svg width="100" height="100" viewBox="0 0 100 100" fill="none" xmlns="http://www.w3.org/2000/svg">
<path d="M32.7085 72.5C34.1668 80.625 41.4585 86.875 50.0002 86.875C58.5418 86.875 65.8335 80.625 67.2918 72.5H32.7085Z" fill="#FFC35A"/>
<path d="M67.4998 68.125H32.4998C31.0415 68.125 29.7915 69.375 29.7915 70.8333C29.7915 72.2917 31.0415 73.5417 32.4998 73.5417H67.7082C69.1665 73.5417 70.4165 72.2917 70.4165 70.8333C70.4165 69.375 68.9582 68.125 67.4998 68.125Z" fill="#DA9F37"/>
<path d="M50 93.125C44.375 93.125 39.375 95.8333 36.25 100H63.9583C60.625 95.8333 55.625 93.125 50 93.125Z" fill="#FFC35A"/>
<path d="M47.0835 80.625H53.1252V95.8333H47.0835V80.625Z" fill="#FFC35A"/>
<path d="M49.9998 0C49.9998 0 41.6665 12.7083 41.6665 17.2917C41.6665 21.875 45.4165 25.625 49.9998 25.625C54.5832 25.625 58.3332 21.875 58.3332 17.2917C58.3332 12.7083 49.9998 0 49.9998 0Z" fill="#DA9F37"/>
<path d="M66.0418 28.125C65.6252 27.0833 64.7918 26.0417 63.7502 25.8333C62.5002 25.4167 61.4585 26.0417 60.2085 26.4583C55.8335 28.125 51.0418 28.3333 46.4585 27.2917C45.0002 26.875 43.5418 26.4583 42.0835 26.4583C40.6252 26.4583 38.9585 26.875 38.1252 28.125C37.0835 29.5833 37.5002 31.4583 37.5002 33.3333C38.1252 39.1667 37.2918 45 35.2085 50.2083C34.7918 51.0417 34.5835 51.875 34.5835 52.7083C34.7918 53.5417 35.8335 54.375 36.4585 53.9583C37.0835 53.5417 37.0835 52.5 37.0835 51.6667C37.0835 50.8333 37.0835 49.7917 37.7085 49.375H37.9168V68.125H62.0835V49.375C62.2918 49.5833 62.5002 49.5833 62.7085 49.5833C63.5418 49.5833 64.1668 48.9583 64.3752 48.3333C64.5835 47.7083 64.5835 46.875 64.5835 46.0417C64.3752 42.5 63.7502 38.9583 62.5002 35.625C62.2918 35.2083 62.2918 34.5833 62.2918 34.1667C62.2918 33.75 62.7085 33.125 63.3335 33.3333C63.7502 33.3333 64.1668 33.9583 64.5835 33.9583C65.2085 34.1667 65.8335 33.75 66.2502 33.3333C66.4585 32.7083 66.4585 32.0833 66.4585 31.4583C66.4585 30.4167 66.4585 29.1667 66.0418 28.125Z" fill="#FFDDA0"/>
</svg>
