<svg width="100" height="100" viewBox="0 0 100 100" fill="none" xmlns="http://www.w3.org/2000/svg">
<path d="M71.875 18.75C63.4688 -2.31248 36.4062 -1.96873 28.125 18.75H25C23.3424 18.75 21.7527 19.4085 20.5806 20.5806C19.4085 21.7527 18.75 23.3424 18.75 25V81.25H81.25V25C81.25 23.3424 80.5915 21.7527 79.4194 20.5806C78.2473 19.4085 76.6576 18.75 75 18.75H71.875Z" fill="#FFDDA0"/>
<path d="M25 75V25H32.3438L34.125 20.5625C35.2753 17.3419 37.3786 14.5478 40.1554 12.5515C42.9321 10.5553 46.2507 9.4516 49.6699 9.38715C53.0892 9.3227 56.447 10.3006 59.297 12.1907C62.147 14.0809 64.3542 16.7938 65.625 19.9688L67.625 25H75V75H25Z" fill="#FFF8EC"/>
<path d="M90.625 87.5H9.375V96.875H90.625V87.5Z" fill="#FFC35A"/>
<path d="M84.375 81.25H15.625V87.5H84.375V81.25Z" fill="#DA9F37"/>
<path d="M53.125 28.125H46.875V65.625H53.125V28.125Z" fill="#DA9F37"/>
<path d="M62.5 37.5H37.5V43.75H62.5V37.5Z" fill="#DA9F37"/>
</svg>
