<svg width="100" height="100" viewBox="0 0 100 100" fill="none" xmlns="http://www.w3.org/2000/svg">
<path d="M27.0659 13.1344L73.7838 13.0924L50.4511 74.8178L27.0659 13.1344Z" fill="#FFDDA0"/>
<path d="M50.3986 17.1288L32.0057 5.04205L27.0659 13.1349L43.7772 31.4227L50.3986 17.1288Z" fill="#FFF8EC"/>
<path d="M2.94482 25.5895L27.0658 13.1349L50.3984 74.8603V95H5.57238L2.94482 25.5895Z" fill="#DA9F37"/>
<path d="M50.3981 74.8603L22.4935 51.4446L28.7996 40.7242L17.2163 31.4227L27.0654 13.1349L50.3981 74.8603Z" fill="#FFF8EC"/>
<path d="M52.395 32.2111L55.5533 28.1447L50.4506 17.1289L45.3479 28.1447L48.5062 32.2111L43.3184 55.9946L50.4506 74.8604L57.5828 55.9946L52.395 32.2111Z" fill="#DA9F37"/>
<path d="M50.4507 17.0867L68.8436 5L73.7834 13.0929L57.0721 31.3806L50.4507 17.0867Z" fill="#FFF8EC"/>
<path d="M97.9043 25.547L73.7834 13.0924L50.4507 74.8178V94.9565H95.2767L97.9043 25.547Z" fill="#FFC35A"/>
<path d="M50.4507 74.8178L78.3553 51.4021L72.0492 40.6817L83.6325 31.3802L73.7834 13.0924L50.4507 74.8178Z" fill="#FFF8EC"/>
<path d="M32.0054 5.04205H68.8437L50.4508 17.0868L32.0054 5.04205Z" fill="#FFDDA0"/>
</svg>
