<svg width="100" height="100" viewBox="0 0 100 100" fill="none" xmlns="http://www.w3.org/2000/svg">
<path d="M81.25 31.25L65.625 96.875H34.375L18.75 31.25L34.375 3.125H65.625L81.25 31.25Z" fill="#FFDDA0"/>
<path d="M39.3125 90.625L25.4062 32.1562L38.0625 9.375H61.9375L74.5938 32.1562L60.6875 90.625H39.3125Z" fill="#FFF8EC"/>
<path d="M34.375 3.125L38.0625 9.375H61.9375L65.625 3.125H34.375Z" fill="#FFDDA0"/>
<path d="M34.375 3.125L38.0625 9.375L25.4062 32.1562L18.75 31.25L34.375 3.125Z" fill="#DA9F37"/>
<path d="M18.75 31.25L25.4063 32.1562L39.3125 90.625L34.375 96.875L18.75 31.25Z" fill="#FFDDA0"/>
<path d="M65.625 3.125L61.9375 9.375L74.625 32.1562L81.25 31.25L65.625 3.125Z" fill="#DA9F37"/>
<path d="M81.25 31.25L74.625 32.1562L60.6875 90.625L65.625 96.875L81.25 31.25Z" fill="#FFDDA0"/>
<path d="M39.3125 90.625H60.6875L65.625 96.875H34.375L39.3125 90.625Z" fill="#DA9F37"/>
<path d="M53.125 25H46.875V53.125H53.125V25Z" fill="#DA9F37"/>
<path d="M59.375 31.25H40.625V37.5H59.375V31.25Z" fill="#DA9F37"/>
</svg>
