<svg width="100" height="100" viewBox="0 0 100 100" fill="none" xmlns="http://www.w3.org/2000/svg">
<path d="M43.75 46.875C43.75 46.875 68.75 37.5 78.125 25C78.125 25 84.375 31.25 81.25 37.5C81.25 37.5 84.375 40.625 78.125 50L56.25 59.375L43.75 46.875Z" fill="#DA9F37"/>
<path d="M71.875 75L96.875 84.375L93.75 90.625C92.7777 92.5122 91.3033 94.0944 89.4892 95.1972C87.6751 96.3 85.5917 96.8806 83.4687 96.875C80.125 96.875 79.9375 96.4062 56.1875 87.5L71.875 75Z" fill="#FFDDA0"/>
<path d="M28.125 37.5L15.625 43.75L28.125 46.875V37.5Z" fill="#DA9F37"/>
<path d="M25 37.125C25.1049 34.3457 26.0677 31.667 27.756 29.4568C29.4444 27.2466 31.7756 25.6133 34.4295 24.7812C37.0834 23.9491 39.9298 23.9589 42.5779 24.8094C45.2259 25.66 47.5457 27.3094 49.2188 29.5312C51.2655 32.48 52.6707 35.8254 53.3435 39.3512C54.0164 42.877 53.942 46.5047 53.125 50C50 65.625 71.875 75 71.875 75C71.875 75 71.875 90.625 53.125 90.625C34.375 90.625 28.125 78.125 25 68.75C21.875 59.375 28.125 50 28.125 50C25.6826 46.1744 24.5831 41.6446 25 37.125Z" fill="#FFF8EC"/>
<path d="M37.5 34.375C37.5 35.2038 37.1708 35.9987 36.5847 36.5847C35.9987 37.1708 35.2038 37.5 34.375 37.5C33.5462 37.5 32.7513 37.1708 32.1653 36.5847C31.5792 35.9987 31.25 35.2038 31.25 34.375C31.25 33.5462 31.5792 32.7513 32.1653 32.1653C32.7513 31.5792 33.5462 31.25 34.375 31.25C35.2038 31.25 35.9987 31.5792 36.5847 32.1653C37.1708 32.7513 37.5 33.5462 37.5 34.375Z" fill="#FFC35A"/>
<path d="M52.9062 46.6563C49.9854 46.6659 47.1259 47.494 44.6519 49.0466C42.178 50.5992 40.1888 52.8141 38.91 55.4401C37.6312 58.066 37.114 60.9978 37.4171 63.9028C37.7203 66.8078 38.8316 69.5696 40.6249 71.875C49.9999 84.375 67.4374 75.4375 78.1249 71.875C87.4999 68.75 93.7499 65.625 90.6249 59.375C93.7499 56.25 96.8749 53.125 93.7499 46.875C93.7499 46.875 99.9999 43.75 93.7499 34.375C93.7499 34.375 90.6249 40.625 78.1249 43.75C69.927 46.0553 61.4136 47.0365 52.9062 46.6563Z" fill="#FFDDA0"/>
<path d="M15.6251 53.375C12.5001 14.0312 29.3751 6.75 30.0938 6.46875C31.4688 9.90625 30.9688 8.71875 32.4688 12.25C32.4688 12.25 19.0001 18.6563 21.8751 52.875L15.6251 53.375Z" fill="#FFC35A"/>
<path d="M3.125 21.875H9.375C11.8614 21.875 14.246 22.8627 16.0041 24.6209C17.7623 26.379 18.75 28.7636 18.75 31.25V34.375H12.5C10.0136 34.375 7.62903 33.3873 5.87087 31.6291C4.11272 29.871 3.125 27.4864 3.125 25V21.875ZM9.375 3.125H15.625C18.1114 3.125 20.496 4.11272 22.2541 5.87087C24.0123 7.62903 25 10.0136 25 12.5V15.625H18.75C16.2636 15.625 13.879 14.6373 12.1209 12.8791C10.3627 11.121 9.375 8.7364 9.375 6.25V3.125Z" fill="#FFDDA0"/>
</svg>
