<svg width="100" height="100" viewBox="0 0 100 100" fill="none" xmlns="http://www.w3.org/2000/svg">
<path d="M54.7344 77.5641L50.6606 73.4894L79.0995 45.0475L83.1732 49.1218L54.7344 77.5641Z" fill="#FCF7EB"/>
<path fill-rule="evenodd" clip-rule="evenodd" d="M54.7346 84.9719L43.2539 73.4895L79.0997 37.6398L90.5802 49.1219L54.7346 84.9719ZM54.7346 77.5642L83.1734 49.1219L79.0997 45.0477L50.6608 73.4895L54.7346 77.5642Z" fill="#FDDE9D"/>
<path d="M20.167 77.5641L16.0933 73.4894L44.5319 45.0475L48.6057 49.1218L20.167 77.5641Z" fill="#FCF7EB"/>
<path fill-rule="evenodd" clip-rule="evenodd" d="M20.1672 84.9719L8.68652 73.4895L44.5321 37.6398L56.0128 49.1219L20.1672 84.9719ZM20.1672 77.5642L48.6059 49.1219L44.5321 45.0477L16.0935 73.4895L20.1672 77.5642Z" fill="#FDDE9D"/>
<path d="M10.3325 30.381H16.0937V82.762H10.3325V30.381Z" fill="#FCF7EB"/>
<path fill-rule="evenodd" clip-rule="evenodd" d="M5.09473 25.1428H21.3309V88H5.09473V25.1428ZM10.3322 30.3809V82.7619H16.0934V30.3809H10.3322Z" fill="#FDDE9D"/>
<path d="M83.1333 30.381H88.8945V82.762H83.1333V30.381Z" fill="#FCF7EB"/>
<path fill-rule="evenodd" clip-rule="evenodd" d="M77.8955 25.1428H94.1317V88H77.8955V25.1428ZM83.133 30.3809V82.7619H88.8942V30.3809H83.133Z" fill="#FDDE9D"/>
<path d="M21.3311 46.0953V40.3334H77.8957V46.0953H21.3311Z" fill="#FCF7EB"/>
<path fill-rule="evenodd" clip-rule="evenodd" d="M16.0933 51.3332V35.0952H83.1329V51.3332H16.0933ZM21.3307 46.0952H77.8954V40.3332H21.3307V46.0952Z" fill="#FDDE9D"/>
<path d="M21.3311 82.7619V77H77.8957V82.7619H21.3311Z" fill="#FCF7EB"/>
<path fill-rule="evenodd" clip-rule="evenodd" d="M16.0933 88.0001V71.762H83.1329V88.0001H16.0933ZM21.3307 82.762H77.8954V77.0001H21.3307V82.762Z" fill="#FDDE9D"/>
<path d="M18.1885 21.2142C18.1885 23.9625 15.9608 26.1904 13.2129 26.1904C10.465 26.1904 8.2373 23.9625 8.2373 21.2142C8.2373 18.466 10.465 16.238 13.2129 16.238C15.9608 16.238 18.1885 18.466 18.1885 21.2142Z" fill="#FEC259"/>
<path fill-rule="evenodd" clip-rule="evenodd" d="M23.4261 21.2143C23.4261 26.8555 18.8536 31.4286 13.2131 31.4286C7.57255 31.4286 3 26.8555 3 21.2143C3 15.5731 7.57255 11 13.2131 11C18.8536 11 23.4261 15.5731 23.4261 21.2143ZM13.2131 26.1905C15.961 26.1905 18.1887 23.9626 18.1887 21.2143C18.1887 18.466 15.961 16.2381 13.2131 16.2381C10.4651 16.2381 8.23747 18.466 8.23747 21.2143C8.23747 23.9626 10.4651 26.1905 13.2131 26.1905Z" fill="#DC9D39"/>
<path d="M90.9893 21.2142C90.9893 23.9625 88.7618 26.1904 86.0137 26.1904C83.2656 26.1904 81.0381 23.9625 81.0381 21.2142C81.0381 18.466 83.2656 16.238 86.0137 16.238C88.7618 16.238 90.9893 18.466 90.9893 21.2142Z" fill="#FEC259"/>
<path fill-rule="evenodd" clip-rule="evenodd" d="M96.2269 21.2143C96.2269 26.8555 91.6546 31.4286 86.0138 31.4286C80.3731 31.4286 75.8008 26.8555 75.8008 21.2143C75.8008 15.5731 80.3731 11 86.0138 11C91.6546 11 96.2269 15.5731 96.2269 21.2143ZM86.0138 26.1905C88.7619 26.1905 90.9894 23.9626 90.9894 21.2143C90.9894 18.466 88.7619 16.2381 86.0138 16.2381C83.2657 16.2381 81.0383 18.466 81.0383 21.2143C81.0383 23.9626 83.2657 26.1905 86.0138 26.1905Z" fill="#DC9D39"/>
</svg>
