<svg width="100" height="100" viewBox="0 0 100 100" fill="none" xmlns="http://www.w3.org/2000/svg">
<g clip-path="url(#clip0_139_144)">
<path d="M93.9643 42.8559C94.0233 48.404 89.5372 53.0268 83.9488 53.1668C82.7322 53.1984 81.5197 53.0154 80.3676 52.6263H18.5704C17.7228 52.8269 16.8525 52.9172 15.9815 52.8948C10.5023 52.7592 6.12283 48.2037 6.23122 42.7658C6.27943 40.364 7.20334 38.061 8.83172 36.2836C10.4601 34.5062 12.6825 33.3749 15.0871 33.0995C15.1159 33.0963 15.1437 33.0872 15.1687 33.0728C15.1938 33.0584 15.2156 33.039 15.2327 33.0158C15.2498 32.9926 15.262 32.9662 15.2683 32.9382C15.2746 32.9101 15.275 32.8811 15.2695 32.8529C14.9952 31.4169 15.0433 29.9387 15.4105 28.5233C15.7776 27.108 16.4547 25.7904 17.3935 24.6644C18.3323 23.5384 19.5097 22.6318 20.8419 22.009C22.1741 21.3862 23.6283 21.0627 25.1008 21.0614C25.2075 21.0614 25.3123 21.0614 25.4172 21.0666C25.5708 21.0713 25.722 21.0273 25.8488 20.941C25.9755 20.8546 26.0713 20.7305 26.1221 20.5865C28.696 13.305 35.6547 8.06914 43.8559 8.00005C54.3728 7.91259 62.9828 16.5426 62.9828 26.9838V28.5851C62.9827 28.5989 62.9869 28.6125 62.9949 28.6239C63.0028 28.6353 63.0141 28.644 63.0272 28.6487C63.0404 28.6535 63.0546 28.6542 63.0681 28.6506C63.0816 28.647 63.0937 28.6394 63.1026 28.6288C64.9884 26.383 66.6388 23.1472 70.8888 23.1472C73.5438 23.1475 76.0958 24.1672 78.0105 25.9928C79.9251 27.8184 81.054 30.3082 81.1607 32.9412C81.1613 32.9568 81.1654 32.9721 81.1727 32.986C81.18 32.9998 81.1902 33.0119 81.2028 33.0214C81.2154 33.0308 81.2299 33.0374 81.2453 33.0406C81.2607 33.0438 81.2767 33.0436 81.292 33.04C82.7939 32.6847 84.3571 32.6695 85.8657 32.9955C87.3744 33.3215 88.7897 33.9803 90.0068 34.9231C91.224 35.8659 92.2117 37.0685 92.8968 38.4417C93.5818 39.815 93.9467 41.3237 93.9643 42.8559Z" fill="#FFF8EC"/>
<path d="M32.6137 27.7504C33.7321 27.5534 34.4768 26.4878 34.2771 25.3702C34.0773 24.2526 33.0087 23.5063 31.8903 23.7032C30.7719 23.9001 30.0272 24.9657 30.227 26.0833C30.4267 27.2009 31.4953 27.9473 32.6137 27.7504Z" fill="#DA9F37"/>
<path d="M26.4499 43.8489C27.5683 43.652 28.313 42.5863 28.1133 41.4687C27.9135 40.3511 26.8449 39.6048 25.7265 39.8017C24.6081 39.9986 23.8634 41.0643 24.0631 42.1818C24.2629 43.2994 25.3315 44.0458 26.4499 43.8489Z" fill="#DA9F37"/>
<path d="M52.1589 20.1032C53.2773 19.9063 54.022 18.8407 53.8222 17.7231C53.6225 16.6055 52.5539 15.8591 51.4355 16.056C50.3171 16.253 49.5723 17.3186 49.7721 18.4362C49.9719 19.5538 51.0405 20.3001 52.1589 20.1032Z" fill="#DA9F37"/>
<path d="M52.1594 36.2819C53.2778 36.085 54.0225 35.0194 53.8227 33.9018C53.6229 32.7842 52.5544 32.0378 51.4359 32.2348C50.3175 32.4317 49.5728 33.4973 49.7726 34.6149C49.9724 35.7325 51.041 36.4788 52.1594 36.2819Z" fill="#DA9F37"/>
<path d="M77.3833 44.7337C78.5017 44.5368 79.2464 43.4712 79.0466 42.3536C78.8468 41.236 77.7782 40.4896 76.6598 40.6865C75.5414 40.8835 74.7967 41.9491 74.9965 43.0667C75.1963 44.1843 76.2649 44.9306 77.3833 44.7337Z" fill="#DA9F37"/>
<path d="M66.3447 84.304H33.741V92H66.3447V84.304Z" fill="#FFC35A"/>
<path d="M49.9987 86.884C75.938 86.884 96.9657 68.7748 96.9657 46.4363H3.03174C3.03174 68.7748 24.0602 86.884 49.9987 86.884Z" fill="#FFDDA0"/>
<path d="M4.33058 55.925H95.4236C95.4236 55.925 97.274 50.2886 96.9656 46.4406H3.03171C3.03171 46.4406 2.67836 51.3249 4.33058 55.925Z" fill="#FFC35A"/>
<path d="M56.6956 78.3134C56.6956 78.3134 65.5514 77.8324 73.0415 72.8475C81.7801 67.0318 84.3206 61.4784 84.3206 61.4784" stroke="#FFF8EC" stroke-width="33" stroke-miterlimit="10" stroke-linecap="round"/>
</g>
<defs>
<clipPath id="clip0_139_144">
<rect width="94" height="84" fill="white" transform="translate(3 8)"/>
</clipPath>
</defs>
</svg>
