<svg width="100" height="100" viewBox="0 0 100 100" fill="none" xmlns="http://www.w3.org/2000/svg">
<path d="M90.0239 52.0208L77.7948 56.9583L62.2323 48.1667L77.7948 39.375L90.0239 44.3125C90.5553 44.53 91.1505 44.532 91.6833 44.3181C92.2161 44.1042 92.6447 43.6912 92.8781 43.1667C93.3364 42.0833 92.8156 40.8333 91.6906 40.3958L82.5448 36.7083L90.8989 32C91.9406 31.4167 92.2948 30.1042 91.6906 29.0833C91.0864 28.0625 89.7531 27.7083 88.7114 28.3125L80.3573 33.0208L81.6489 23.4375C81.8156 22.2708 80.9614 21.2083 79.7739 21.0417C78.5864 20.8958 77.4823 21.7083 77.3364 22.875L75.6073 35.7083L60.0448 44.5V26.9167L70.5448 19.0417C71.5031 18.3333 71.6698 17 70.9406 16.0625C70.2114 15.125 68.8364 14.9583 67.8989 15.6667L60.0656 21.5625V12.125C60.0656 10.9583 59.0864 10 57.8989 10C56.7114 10 55.7323 10.9583 55.7323 12.125V21.5417L47.8989 15.6458C46.9406 14.9375 45.5864 15.1042 44.8573 16.0417C44.6727 16.2553 44.5347 16.505 44.4521 16.7749C44.3695 17.0449 44.344 17.329 44.3773 17.6094C44.4106 17.8897 44.502 18.16 44.6456 18.403C44.7893 18.646 44.982 18.8564 45.2114 19.0208L55.7114 26.8958V44.4792L40.2739 35.7708C39.7735 35.4918 39.1848 35.4162 38.63 35.5597C38.0753 35.7033 37.5971 36.0549 37.2948 36.5417C36.6906 37.5625 37.0448 38.8542 38.0864 39.4583L53.5239 48.1667L38.7114 56.5417C37.6698 57.125 37.3156 58.4375 37.9198 59.4583C38.3156 60.1458 39.0448 60.5208 39.8156 60.5208C40.1906 60.5208 40.5656 60.4375 40.8989 60.2292L55.7114 51.8542V69.4375L45.2114 77.3125C44.2531 78.0208 44.0864 79.3542 44.8156 80.2917C45.1762 80.7402 45.6964 81.032 46.2672 81.1057C46.838 81.1795 47.4153 81.0296 47.8781 80.6875L55.7114 74.7917V84.2083C55.7114 85.375 56.6906 86.3333 57.8781 86.3333C59.0656 86.3333 60.0448 85.375 60.0448 84.2083V74.7917L67.8781 80.6875C68.3404 81.0312 68.918 81.182 69.4893 81.1081C70.0606 81.0343 70.5809 80.7416 70.9406 80.2917C71.6698 79.3542 71.5031 78.0208 70.5448 77.3125L60.0448 69.4375V51.8542L75.6073 60.6458L77.3364 73.4792C77.4823 74.5417 78.4198 75.3333 79.4823 75.3333C79.5864 75.3333 79.6698 75.3333 79.7739 75.3125C80.9614 75.1667 81.7948 74.0833 81.6489 72.9167L80.3573 63.3333L88.7114 68.0417C89.2107 68.326 89.8012 68.4045 90.3574 68.2606C90.9136 68.1167 91.3919 67.7616 91.6906 67.2708C92.2948 66.25 91.9406 64.9583 90.8989 64.3542L82.5448 59.6458L91.6906 55.9583C92.7948 55.5 93.3364 54.2708 92.8781 53.1875C92.3989 52.0833 91.1281 51.5833 90.0239 52.0208Z" fill="#FFDDA0"/>
<path d="M38.703 54.0781V14.7031C38.703 9.35938 34.3437 5 28.9999 5C23.6562 5 19.2968 9.35938 19.2968 14.7031V54.0781C11.8437 57.875 6.78116 65.8906 7.48429 75.0312C8.32804 85.5781 16.9062 94.1562 27.453 94.8594C40.1093 95.7031 50.6562 85.7188 50.6562 73.3438C50.6562 65.0469 45.7343 57.7344 38.703 54.0781Z" fill="#FFC35A"/>
<path d="M28.9999 91.9062C28.5781 91.9062 28.1562 91.9062 27.5937 91.9062C18.4531 91.2031 11.1406 83.8906 10.4374 74.8906C9.87493 67.2969 13.8124 60.2656 20.5624 56.8906L22.2499 56.0469V14.7031C22.2499 11.0469 25.2031 7.95312 28.9999 7.95312C32.6562 7.95312 35.7499 10.9063 35.7499 14.7031V56.0469L37.4374 56.8906C43.7656 60.125 47.5624 66.4531 47.5624 73.4844C47.5624 78.4062 45.5937 83.0469 42.0781 86.5625C38.5624 90.0781 33.9218 91.9062 28.9999 91.9062Z" fill="#EBEBEB"/>
<path d="M44.4686 73.3437C44.4686 77.4219 42.9218 81.3594 39.9686 84.3125C37.0155 87.2656 33.078 88.8125 28.9999 88.8125C28.578 88.8125 28.2968 88.8125 27.8749 88.8125C20.2811 88.25 14.0936 82.2031 13.5311 74.6094C13.1093 68.2812 16.3436 62.375 21.9686 59.5625L25.3436 57.875V34.8125H32.6561V57.875L36.0311 59.5625C41.2343 62.2344 44.4686 67.5781 44.4686 73.3437Z" fill="#DA9F37"/>
</svg>
