<svg width="100" height="100" viewBox="0 0 100 100" fill="none" xmlns="http://www.w3.org/2000/svg">
<path d="M96.8749 52.4063V59.375C96.8749 60.2038 96.5457 60.9987 95.9596 61.5847C95.3736 62.1708 94.5787 62.5 93.7499 62.5H6.24993C5.42113 62.5 4.62628 62.1708 4.04022 61.5847C3.45417 60.9987 3.12493 60.2038 3.12493 59.375C3.12493 40.0938 1.96868 46.0625 7.65618 34.7187C8.17361 33.6775 8.97126 32.8012 9.95945 32.1884C10.9476 31.5756 12.0872 31.2506 13.2499 31.25H56.7812C60.2187 31.25 60.6562 32.5313 71.8749 43.75L91.4062 46.1875C92.9196 46.3782 94.311 47.1157 95.3183 48.2612C96.3256 49.4066 96.8793 50.8809 96.8749 52.4063Z" fill="#FFF8EC"/>
<path d="M18.75 68.75C22.2018 68.75 25 65.9518 25 62.5C25 59.0482 22.2018 56.25 18.75 56.25C15.2982 56.25 12.5 59.0482 12.5 62.5C12.5 65.9518 15.2982 68.75 18.75 68.75Z" fill="#FFC35A"/>
<path d="M21.875 62.5C21.875 63.3288 21.5458 64.1237 20.9597 64.7097C20.3737 65.2958 19.5788 65.625 18.75 65.625C17.9212 65.625 17.1263 65.2958 16.5403 64.7097C15.9542 64.1237 15.625 63.3288 15.625 62.5C15.625 61.6712 15.9542 60.8763 16.5403 60.2903C17.1263 59.7042 17.9212 59.375 18.75 59.375C19.5788 59.375 20.3737 59.7042 20.9597 60.2903C21.5458 60.8763 21.875 61.6712 21.875 62.5Z" fill="#DA9F37"/>
<path d="M81.25 68.75C84.7018 68.75 87.5 65.9518 87.5 62.5C87.5 59.0482 84.7018 56.25 81.25 56.25C77.7982 56.25 75 59.0482 75 62.5C75 65.9518 77.7982 68.75 81.25 68.75Z" fill="#FFC35A"/>
<path d="M84.375 62.5C84.375 63.3288 84.0458 64.1237 83.4597 64.7097C82.8737 65.2958 82.0788 65.625 81.25 65.625C80.4212 65.625 79.6263 65.2958 79.0403 64.7097C78.4542 64.1237 78.125 63.3288 78.125 62.5C78.125 61.6712 78.4542 60.8763 79.0403 60.2903C79.6263 59.7042 80.4212 59.375 81.25 59.375C82.0788 59.375 82.8737 59.7042 83.4597 60.2903C84.0458 60.8763 84.375 61.6712 84.375 62.5ZM31.25 31.25L21.875 43.75H3.28125C4.50048 40.6295 5.96333 37.6098 7.65625 34.7187C8.17368 33.6775 8.97133 32.8012 9.95952 32.1884C10.9477 31.5756 12.0872 31.2506 13.25 31.25H31.25Z" fill="#DA9F37"/>
<path d="M65.625 43.75H28.125L34.375 34.375H56.25L65.625 43.75Z" fill="#FFDDA0"/>
<path d="M50 34.375H43.75V43.75H50V34.375Z" fill="#FFF8EC"/>
<path d="M96.875 56.25H93.75C92.9212 56.25 92.1263 55.9208 91.5403 55.3347C90.9542 54.7487 90.625 53.9538 90.625 53.125C90.625 52.2962 90.9542 51.5013 91.5403 50.9153C92.1263 50.3292 92.9212 50 93.75 50H96.4062C96.9909 52.0289 97.1504 54.1566 96.875 56.25ZM6.25 56.25H3.125V50H6.25C7.0788 50 7.87366 50.3292 8.45971 50.9153C9.04576 51.5013 9.375 52.2962 9.375 53.125C9.375 53.9538 9.04576 54.7487 8.45971 55.3347C7.87366 55.9208 7.0788 56.25 6.25 56.25Z" fill="#FFDDA0"/>
</svg>
