<svg width="100" height="100" viewBox="0 0 100 100" fill="none" xmlns="http://www.w3.org/2000/svg">
<path d="M69.6563 14.7188L64.3438 9.375H37.5V3.125H66.9062L74.0937 10.2812L69.6563 14.7188Z" fill="#FFC35A"/>
<path d="M53.125 9.375H46.875V15.625H53.125V9.375Z" fill="#FFC35A"/>
<path d="M40.625 15.625H59.375C60.2038 15.625 60.9987 15.9542 61.5847 16.5403C62.1708 17.1263 62.5 17.9212 62.5 18.75V28.125H37.5V18.75C37.5 17.9212 37.8292 17.1263 38.4153 16.5403C39.0013 15.9542 39.7962 15.625 40.625 15.625Z" fill="#DA9F37"/>
<path d="M37.5 28.125H62.5C65.8152 28.125 68.9946 29.442 71.3388 31.7862C73.683 34.1304 75 37.3098 75 40.625V96.875H25V40.625C25 37.3098 26.317 34.1304 28.6612 31.7862C31.0054 29.442 34.1848 28.125 37.5 28.125Z" fill="#FFDDA0"/>
<path d="M75 50H25V81H75V50Z" fill="#DA9F37"/>
<path d="M56.5 68.75C56.5 70.4076 55.8415 71.9973 54.6694 73.1694C53.4973 74.3415 51.9076 75 50.25 75C48.5924 75 47.0027 74.3415 45.8306 73.1694C44.6585 71.9973 44 70.4076 44 68.75C44 65.3125 50.25 56.25 50.25 56.25C50.25 56.25 56.5 65.3125 56.5 68.75Z" fill="#FFF8EC"/>
</svg>
