<svg width="100" height="100" viewBox="0 0 100 100" fill="none" xmlns="http://www.w3.org/2000/svg">
<path d="M93 36H79V10.6621C79 8.39967 81.5938 7.17234 83.2855 8.63436L91.0585 15.3525C92.2897 16.4166 92.9998 17.9799 92.9998 19.6266V36H93Z" fill="#FFDDA0"/>
<path d="M91.0587 15.2044L83.2855 8.62162C81.5938 7.18904 79 8.39147 79 10.6085V14.216C79 11.9991 81.5938 10.7965 83.2855 12.2291L91.0587 18.8119C92.2899 19.8547 93 21.3864 93 23V19.3925C93 17.7789 92.2899 16.2472 91.0587 15.2044Z" fill="#DA9F37"/>
<path d="M38 77C57.33 77 73 60.4345 73 40C73 19.5655 57.33 3 38 3C18.67 3 3 19.5655 3 40C3 60.4345 18.67 77 38 77Z" fill="#DA9F37"/>
<path d="M38 69C53.464 69 66 56.0163 66 40C66 23.9837 53.464 11 38 11C22.536 11 10 23.9837 10 40C10 56.0163 22.536 69 38 69Z" fill="#FFF8EC"/>
<path d="M51 80H25V75.391C25 74.6228 25.5264 74 26.1758 74H49.8242C50.4736 74 51 74.6228 51 75.391V80Z" fill="#FFC35A"/>
<path d="M70.5631 97H5.43694C4.09106 97 3 95.8948 3 94.5316V82.4684C3 81.1052 4.09106 80 5.43694 80H70.5631C71.9089 80 73 81.1052 73 82.4684V94.5316C73 95.8948 71.9089 97 70.5631 97Z" fill="#FFC35A"/>
<path d="M70.5631 93.4607H5.43694C4.09106 93.4607 3 92.3554 3 90.9923V94.5316C3 95.8948 4.09106 97 5.43694 97H70.5631C71.9089 97 73 95.8948 73 94.5316V90.9923C73 92.3554 71.9089 93.4607 70.5631 93.4607ZM51.6039 86.9271H24.3963C20.6193 86.9271 17.5575 83.8257 17.5575 80H58.4425C58.4425 83.8257 55.3808 86.9271 51.6039 86.9271Z" fill="#DA9F37"/>
<path d="M96.2332 97H75.7666C74.791 97 74 96.1788 74 95.1658V45.8342C74 44.8212 74.791 44 75.7666 44H96.2334C97.209 44 98 44.8212 98 45.8342V95.166C97.9998 96.1788 97.2088 97 96.2332 97Z" fill="#FFC35A"/>
<path d="M96.2335 93.3262H75.7667C74.791 93.3262 74 92.5117 74 91.5071V95.181C74 96.1856 74.791 97 75.7667 97H96.2335C97.2092 97 98 96.1856 98 95.181V91.5071C98 92.5117 97.209 93.3262 96.2335 93.3262ZM93.9317 36H78.0681C77.3037 36 76.6839 36.6381 76.6839 37.4252V44H95.3161V37.4252C95.3161 36.6381 94.6963 36 93.9317 36Z" fill="#DA9F37"/>
</svg>
