<svg width="100" height="100" viewBox="0 0 100 100" fill="none" xmlns="http://www.w3.org/2000/svg">
<path d="M60.6667 8H39.3333C37.9188 8 36.5623 8.63214 35.5621 9.75736C34.5619 10.8826 34 12.4087 34 14V23H39.3333V17C39.3333 16.2044 39.6143 15.4413 40.1144 14.8787C40.6145 14.3161 41.2928 14 42 14H58C58.7072 14 59.3855 14.3161 59.8856 14.8787C60.3857 15.4413 60.6667 16.2044 60.6667 17V23H66V14C66 10.691 63.6107 8 60.6667 8Z" fill="#DA9F37"/>
<path d="M13.25 23H86.75C87.4397 23 88.1226 23.1488 88.7597 23.4379C89.3968 23.7271 89.9757 24.1509 90.4632 24.6851C90.9508 25.2193 91.3374 25.8535 91.6011 26.5514C91.8648 27.2493 92.0003 27.9973 92 28.7526V86.2502C92 87.7752 91.4469 89.2376 90.4623 90.3159C89.4777 91.3942 88.1424 92 86.75 92H13.25C11.8576 92 10.5223 91.3942 9.53769 90.3159C8.55312 89.2376 8 87.7752 8 86.2502V28.7526C7.99966 27.9973 8.1352 27.2493 8.39888 26.5514C8.66256 25.8535 9.04922 25.2193 9.53676 24.6851C10.0243 24.1509 10.6032 23.7271 11.2403 23.4379C11.8774 23.1488 12.5603 23 13.25 23Z" fill="#FFDDA0"/>
<path d="M63.3333 51.6667H55.3333V42.9225C55.334 42.539 55.2656 42.1591 55.1319 41.8045C54.9982 41.45 54.8019 41.1278 54.5542 40.8563C54.3065 40.5849 54.0123 40.3695 53.6884 40.2226C53.3645 40.0756 53.0173 40 52.6667 40H47.3333C46.9827 40 46.6355 40.0756 46.3116 40.2226C45.9877 40.3695 45.6935 40.5849 45.4458 40.8563C45.1981 41.1278 45.0018 41.45 44.8681 41.8045C44.7344 42.1591 44.666 42.539 44.6667 42.9225V51.6667H36.6667C35.9594 51.6667 35.2812 51.974 34.7811 52.5209C34.281 53.0679 34 53.8098 34 54.5833V60.4167C33.9993 60.8002 34.0678 61.1801 34.2015 61.5346C34.3352 61.8892 34.5315 62.2114 34.7792 62.4828C35.0269 62.7543 35.3211 62.9696 35.6449 63.1166C35.9688 63.2635 36.316 63.3392 36.6667 63.3392H44.6667V72.0833C44.6667 73.6992 45.8587 75 47.3333 75H52.6667C54.1413 75 55.3333 73.6992 55.3333 72.0833V63.3392H63.3333C63.684 63.3392 64.0312 63.2635 64.3551 63.1166C64.6789 62.9696 64.9731 62.7543 65.2208 62.4828C65.4685 62.2114 65.6648 61.8892 65.7985 61.5346C65.9322 61.1801 66.0007 60.8002 66 60.4167V54.5833C66 52.9792 64.808 51.6667 63.3333 51.6667Z" fill="white"/>
<path d="M13.25 23C12.5603 23 11.8774 23.1488 11.2403 23.438C10.6032 23.7271 10.0243 24.1509 9.53676 24.6852C9.04922 25.2194 8.66256 25.8536 8.39888 26.5516C8.1352 27.2495 7.99966 27.9975 8 28.7529V43.125L26.375 23H13.25ZM13.2238 92H26.375L8 71.8721V86.2529C8 89.4183 10.3363 91.9856 13.2238 92ZM86.75 23H73.625L92 43.125V28.7529C92.0003 27.9975 91.8648 27.2495 91.6011 26.5516C91.3374 25.8536 90.9508 25.2194 90.4632 24.6852C89.9757 24.1509 89.3968 23.7271 88.7597 23.438C88.1226 23.1488 87.4397 23 86.75 23ZM86.7763 92C88.1636 91.9924 89.4919 91.3836 90.4707 90.3068C91.4495 89.2299 91.9993 87.7724 92 86.2529V71.8721L73.625 92H86.7763Z" fill="#FFC35A"/>
</svg>
