<svg width="100" height="100" viewBox="0 0 100 100" fill="none" xmlns="http://www.w3.org/2000/svg">
<path d="M75 28.125H50V84.375H75V28.125Z" fill="#DA9F37"/>
<path d="M65.625 18.75H59.375V28.125H65.625V18.75Z" fill="#FFF8EC"/>
<path d="M68.75 15.625C68.75 17.2826 68.0915 18.8723 66.9194 20.0444C65.7473 21.2165 64.1576 21.875 62.5 21.875C60.8424 21.875 59.2527 21.2165 58.0806 20.0444C56.9085 18.8723 56.25 17.2826 56.25 15.625C56.25 12.1875 62.5 3.125 62.5 3.125C62.5 3.125 68.75 12.1875 68.75 15.625ZM75 28.125V48.4375C75 49.6807 74.5061 50.873 73.6271 51.7521C72.748 52.6311 71.5557 53.125 70.3125 53.125C69.0693 53.125 67.877 52.6311 66.9979 51.7521C66.1189 50.873 65.625 49.6807 65.625 48.4375V42.1875C65.625 40.9443 65.1311 39.752 64.2521 38.8729C63.373 37.9939 62.1807 37.5 60.9375 37.5C59.6943 37.5 58.502 37.9939 57.6229 38.8729C56.7439 39.752 56.25 40.9443 56.25 42.1875V43.75C56.25 44.5788 55.9208 45.3737 55.3347 45.9597C54.7487 46.5458 53.9538 46.875 53.125 46.875C52.2962 46.875 51.5013 46.5458 50.9153 45.9597C50.3292 45.3737 50 44.5788 50 43.75V28.125H75Z" fill="#FFDDA0"/>
<path d="M68.75 75H62.5C63.4029 75.0095 64.2972 74.8233 65.1212 74.4542C65.9453 74.085 66.6796 73.5417 67.2736 72.8616C67.8675 72.1815 68.3071 71.3808 68.562 70.5146C68.8168 69.6483 68.881 68.7371 68.75 67.8437C68.4526 66.2975 67.6117 64.9088 66.3794 63.9287C65.1471 62.9486 63.6047 62.4418 62.0313 62.5C48.0313 62.5 44 62.75 43.6875 62.5C37.1875 56 26.75 53.9375 15.5625 59.375C15.25 59.375 3.06253 59.375 3.28128 59.375C3.12503 59.375 3.12503 90.625 3.12503 90.4375C3.12503 90.625 2.84378 90.625 15.4375 90.625C15.4873 90.625 15.5349 90.6052 15.5701 90.5701C15.6053 90.5349 15.625 90.4872 15.625 90.4375V90.625C38.25 96.2812 39.375 96.875 44.4688 96.875C57.5313 96.875 67.3438 98.4375 76.1875 88.5937C96.875 65.625 96.875 66.3437 96.875 63.6562C96.8722 62.6932 96.5999 61.7503 96.0887 60.9341C95.5775 60.118 94.848 59.4613 93.9828 59.0385C93.1177 58.6157 92.1513 58.4436 91.1934 58.5417C90.2354 58.6398 89.324 59.0043 88.5625 59.5937L68.75 75Z" fill="#FFF8EC"/>
<path d="M62.5 81.25H34.375V75C70.6875 75 68.75 75.3125 68.75 75C68.75 76.6576 68.0915 78.2473 66.9194 79.4194C65.7473 80.5915 64.1576 81.25 62.5 81.25Z" fill="#FFDDA0"/>
</svg>
