<svg width="30" height="30" viewBox="0 0 30 30" fill="none" xmlns="http://www.w3.org/2000/svg">
<path d="M12.3898 7.56C12.0316 3.44062 7.73415 1.41937 7.55227 1.33687C7.38225 1.25695 7.19171 1.23141 7.00665 1.26375C2.0454 2.08687 1.29915 4.97437 1.26915 5.09437C1.22833 5.2616 1.23482 5.43688 1.2879 5.60062C7.2054 23.9606 19.5035 27.3638 23.546 28.4831C23.8573 28.5694 24.1141 28.6388 24.3091 28.7025C24.5317 28.7752 24.7734 28.7611 24.986 28.6631C25.1098 28.6069 28.031 27.2306 28.7454 22.7419C28.7771 22.5459 28.7456 22.345 28.6554 22.1681C28.5916 22.0444 27.0635 19.1362 22.826 18.1087C22.6823 18.072 22.5317 18.0707 22.3874 18.105C22.243 18.1393 22.1091 18.2081 21.9973 18.3056C20.6604 19.4475 18.8135 20.6644 18.0166 20.79C12.6748 18.1781 9.69165 13.1662 9.57915 12.2156C9.51352 11.6812 10.7379 9.80437 12.146 8.27812C12.2345 8.18207 12.3019 8.06855 12.3439 7.94487C12.3859 7.82118 12.4015 7.69008 12.3898 7.56Z" fill="#FFC35A"/>
</svg>
