<svg width="16" height="16" viewBox="0 0 16 16" fill="none" xmlns="http://www.w3.org/2000/svg">
<g clip-path="url(#clip0_168_295)">
<path d="M14.7203 7.04001H8.96031V1.28001C8.96031 0.748807 8.53151 0.320007 8.00031 0.320007C7.46911 0.320007 7.04031 0.748807 7.04031 1.28001V7.04001H1.28031C0.749112 7.04001 0.320312 7.46881 0.320312 8.00001C0.320312 8.53121 0.749112 8.96001 1.28031 8.96001H7.04031V14.72C7.04031 15.2512 7.46911 15.68 8.00031 15.68C8.53151 15.68 8.96031 15.2512 8.96031 14.72V8.96001H14.7203C15.2515 8.96001 15.6803 8.53121 15.6803 8.00001C15.6803 7.46881 15.2515 7.04001 14.7203 7.04001Z" fill="white"/>
</g>
<defs>
<clipPath id="clip0_168_295">
<rect width="16" height="16" fill="white"/>
</clipPath>
</defs>
</svg>
