<svg width="100" height="100" viewBox="0 0 100 100" fill="none" xmlns="http://www.w3.org/2000/svg">
<path d="M71.875 90.625C67.2714 88.7628 63.3267 85.5717 60.5439 81.4588C57.7611 77.3458 56.2663 72.4972 56.25 67.5313V53.125H87.5V67.5313C87.4837 72.4972 85.9889 77.3458 83.2061 81.4588C80.4233 85.5717 76.4786 88.7628 71.875 90.625Z" fill="#FFF8EC"/>
<path d="M75 9.375H68.75V53.125H75V9.375Z" fill="#DA9F37"/>
<path d="M96.875 96.875H3.125C3.12707 94.1054 4.04889 91.4149 5.74574 89.226C7.44258 87.0371 9.81835 85.4736 12.5 84.7812C12.4845 84.6463 12.4845 84.51 12.5 84.375C12.499 81.5205 13.4751 78.7516 15.2659 76.5287C17.0567 74.3058 19.5544 72.7628 22.3438 72.1563C22.8798 70.4871 23.8732 69.0017 25.211 67.8687C26.5489 66.7357 28.1776 66.0005 29.9122 65.7467C31.6469 65.4928 33.418 65.7304 35.0244 66.4326C36.6308 67.1347 38.0081 68.2732 39 69.7187C40.7097 69.0107 42.5552 68.6911 44.4035 68.7829C46.2517 68.8748 48.0565 69.3759 49.6875 70.25C51.174 68.435 53.1413 67.075 55.3644 66.3255C57.5875 65.576 59.9767 65.4672 62.2587 66.0116C64.5407 66.556 66.6234 67.7317 68.2687 69.4041C69.914 71.0765 71.0554 73.1782 71.5625 75.4687C73.2051 75.0031 74.9257 74.8788 76.6181 75.1037C78.3106 75.3286 79.939 75.8977 81.4031 76.7762C82.8671 77.6546 84.1356 78.8236 85.1305 80.2111C86.1253 81.5986 86.8254 83.1753 87.1875 84.8437C89.9168 85.4738 92.3553 87.0022 94.112 89.184C95.8687 91.3657 96.8417 94.0742 96.875 96.875Z" fill="#DA9F37"/>
<path d="M81.25 3.125H62.5V9.375H81.25V3.125Z" fill="#FFC35A"/>
<path d="M31.25 87.5C31.25 88.3288 30.9208 89.1237 30.3347 89.7097C29.7487 90.2958 28.9538 90.625 28.125 90.625C27.2962 90.625 26.5013 90.2958 25.9153 89.7097C25.3292 89.1237 25 88.3288 25 87.5C25 86.6712 25.3292 85.8763 25.9153 85.2903C26.5013 84.7042 27.2962 84.375 28.125 84.375C28.9538 84.375 29.7487 84.7042 30.3347 85.2903C30.9208 85.8763 31.25 86.6712 31.25 87.5ZM43.75 81.25C43.75 82.0788 43.4208 82.8737 42.8347 83.4597C42.2487 84.0458 41.4538 84.375 40.625 84.375C39.7962 84.375 39.0013 84.0458 38.4153 83.4597C37.8292 82.8737 37.5 82.0788 37.5 81.25C37.5 80.4212 37.8292 79.6263 38.4153 79.0403C39.0013 78.4542 39.7962 78.125 40.625 78.125C41.4538 78.125 42.2487 78.4542 42.8347 79.0403C43.4208 79.6263 43.75 80.4212 43.75 81.25ZM68.75 87.5C68.75 88.3288 68.4208 89.1237 67.8347 89.7097C67.2487 90.2958 66.4538 90.625 65.625 90.625C64.7962 90.625 64.0013 90.2958 63.4153 89.7097C62.8292 89.1237 62.5 88.3288 62.5 87.5C62.5 86.6712 62.8292 85.8763 63.4153 85.2903C64.0013 84.7042 64.7962 84.375 65.625 84.375C66.4538 84.375 67.2487 84.7042 67.8347 85.2903C68.4208 85.8763 68.75 86.6712 68.75 87.5Z" fill="#FFDDA0"/>
</svg>
