<svg width="100" height="100" viewBox="0 0 100 100" fill="none" xmlns="http://www.w3.org/2000/svg">
<g clip-path="url(#clip0_356_166)">
<path d="M72.5261 35.8965C73.4743 36.2214 74.4834 36.435 75.5406 36.435C80.8139 36.435 85.0955 32.076 85.0955 26.7067C85.0955 21.3418 80.8139 16.9761 75.5407 16.9761C70.2674 16.9761 65.9924 21.3418 65.9924 26.7067C65.9924 27.5567 66.1344 28.3712 66.331 29.1544C69.0703 30.5808 71.2329 32.9371 72.5262 35.8965H72.5261ZM84.5253 38.5579H73.4129C73.7205 39.8397 73.876 41.1545 73.8761 42.4741V71.1408C73.8761 75.028 70.7915 78.1789 67.0104 78.1789C66.3135 78.1789 65.6407 78.0566 65.0029 77.8563V106.808H74.5599V78.7174H76.5149V106.808H86.0828V51.6885H87.1618V74.8501C87.1618 76.855 88.7566 78.4748 90.7226 78.4748C92.6885 78.4748 94.2308 76.855 94.2308 74.8501V49.1651C94.2308 43.3086 90.2726 38.5578 84.5253 38.5578V38.5579Z" fill="#DA9F37"/>
<path d="M24.4613 36.435C25.5514 36.435 26.5737 36.2126 27.5545 35.8743C28.8521 33.0173 30.9819 30.7031 33.6339 29.2656C33.8567 28.4445 34.014 27.5967 34.014 26.7067C34.014 21.3418 29.7369 16.9761 24.4613 16.9761C19.186 16.9761 14.911 21.3418 14.911 26.7067C14.911 32.0759 19.1861 36.435 24.4613 36.435ZM26.1238 71.1408V42.4741C26.1238 41.1124 26.3072 39.8018 26.6152 38.5579H15.4834C9.72729 38.5579 5.76904 43.3086 5.76904 49.1651V74.8501C5.76904 76.855 7.3135 78.4748 9.28156 78.4748C11.2455 78.4748 12.8379 76.855 12.8379 74.8501V51.6884H13.9216V106.808H23.4873V78.7174H25.4445V106.808H35.0037V77.8519C34.357 78.0543 33.6909 78.1789 32.9874 78.1789C29.2061 78.1789 26.1239 75.0281 26.1239 71.1407L26.1238 71.1408Z" fill="#DA9F37"/>
<path d="M50.0781 28.662C56.2598 28.662 61.2777 23.808 61.2777 17.8333C61.2777 11.8539 56.2598 7 50.0781 7C43.8894 7 38.8716 11.8539 38.8716 17.8333C38.8716 23.808 43.8894 28.662 50.0781 28.662ZM67.8727 75.4636C70.1843 75.4636 72 73.6525 72 71.4244V42.8308C72 41.4615 71.782 40.152 71.3961 38.9247C69.9388 34.3258 65.933 31.0211 60.6121 31.0211H56.3104L55.8144 31.4272L50.9573 35.4555L54.5338 44.7196L49.7567 54.7493L45.471 44.8793L48.7307 35.4555L44.1557 31.4407L43.6783 31.0211H39.5418C34.2163 31.0211 30.1119 34.3258 28.6221 38.9247C28.2098 40.1884 28 41.5057 28 42.8308V71.4242C28 73.6524 29.8181 75.4635 32.1204 75.4635C32.894 75.4635 33.6171 75.2417 34.2391 74.8865C34.7327 74.5979 35.1712 74.2273 35.504 73.7812C35.9976 73.1132 36.2982 72.3031 36.2982 71.4242V45.643H37.7145V107H48.9235V75.7322H51.2122V107H62.437V78.3401V45.6431H63.7019V71.4243C63.7019 72.2988 64.005 73.1066 64.4986 73.7768C64.8312 74.2253 65.2674 74.5958 65.7632 74.8867C66.3876 75.2417 67.0993 75.4636 67.8727 75.4636Z" fill="#FFDDA0"/>
</g>
<defs>
<clipPath id="clip0_356_166">
<rect width="100" height="100" fill="white"/>
</clipPath>
</defs>
</svg>
