<svg width="100" height="100" viewBox="0 0 100 100" fill="none" xmlns="http://www.w3.org/2000/svg">
<g clip-path="url(#clip0_139_139)">
<path d="M57.3254 14.8232C57.3254 14.8232 63.9071 9.80304 74.9804 9.80304C86.0538 9.80304 92.9999 14.8232 92.9999 14.8232V88.5279C92.9999 88.5279 86.4952 83.2077 75.1627 83.2077C63.8302 83.2077 57.4044 86.4338 57.4044 86.4338L57.3254 14.8232Z" fill="#FFC35A"/>
<path d="M74.9804 9.80304C63.9071 9.80304 57.3254 14.8232 57.3254 14.8232L57.3412 29.3925L78.6199 9.98713C77.4109 9.86461 76.1961 9.80317 74.9804 9.80304Z" fill="#DA9F37"/>
<path d="M93 14.8233C93 14.8233 90.7394 13.196 86.7439 11.7874L57.3508 38.5968L57.3677 53.5963L93 21.0974V14.8233Z" fill="#DA9F37"/>
<path d="M93.0001 30.0068L57.3772 62.4935L57.393 77.4939L93.0001 45.0215V30.0068Z" fill="#DA9F37"/>
<path d="M93 54.2289L57.9639 86.1816C59.7546 85.4208 65.7759 83.2077 75.1628 83.2077C76.0055 83.2077 76.8124 83.2372 77.5972 83.2911L93 69.2436V54.2289Z" fill="#DA9F37"/>
<path d="M93.0001 78.9921L86.3279 85.0761C90.6542 86.6088 93.0001 88.5269 93.0001 88.5269V78.9921Z" fill="#DA9F37"/>
<path d="M57.4045 13.915H8V85.9853C8 85.9985 8 86.0107 8 86.0229C8 92.0724 19.0607 96.9756 32.7012 96.9756C46.3417 96.9756 57.4045 92.0724 57.4045 86.0229C57.4045 86.0107 57.4045 85.9985 57.4045 85.9853V13.915Z" fill="#FFDDA0"/>
<path d="M10.031 13.9394L8.02002 15.7742V30.7889L26.4946 13.9394H10.031Z" fill="#FFC35A"/>
<path d="M36.5935 13.9394L8.02002 39.9993V55.0141L53.0582 13.9394H36.5935Z" fill="#FFC35A"/>
<path d="M57.4224 18.8691L8.02002 63.9224V78.9372L57.4224 33.8838V18.8691Z" fill="#FFC35A"/>
<path d="M57.4224 43.0912L8.35181 87.8425C9.36939 90.5804 12.6771 92.9755 17.3752 94.6293L57.4224 58.1059V43.0912Z" fill="#FFC35A"/>
<path d="M57.4225 67.8544L25.9258 96.58C28.1798 96.8622 30.4505 97.0025 32.7234 97C36.182 97.0118 39.6327 96.6785 43.0204 96.0054L57.4225 82.8691V67.8544Z" fill="#FFC35A"/>
<path d="M32.7012 24.9053C46.3433 24.9053 57.4024 20.0016 57.4024 13.9526C57.4024 7.90366 46.3433 3 32.7012 3C19.0591 3 8 7.90366 8 13.9526C8 20.0016 19.0591 24.9053 32.7012 24.9053Z" fill="#FFF8EC"/>
</g>
<defs>
<clipPath id="clip0_139_139">
<rect width="85" height="94" fill="white" transform="translate(8 3)"/>
</clipPath>
</defs>
</svg>
