<svg width="100" height="100" viewBox="0 0 100 100" fill="none" xmlns="http://www.w3.org/2000/svg">
<path d="M43.4267 73.1167C43.4267 68.6086 46.3973 64.2306 47.0806 63.2907C44.8833 63.0969 42.734 62.5509 40.7196 61.6747C35.8552 59.5418 30.9759 59.4406 27.3071 61.4036C26.5151 61.8188 25.6891 62.1694 24.8377 62.452C25.8997 64.1873 28.5733 68.9665 28.5733 73.1167C28.5733 79.0311 26.8466 86.7024 23.5455 89.9127C23.2851 90.1655 23.1078 90.4878 23.0359 90.8389C22.9639 91.19 23.0007 91.5539 23.1415 91.8846C23.2823 92.2153 23.5208 92.4978 23.8267 92.6964C24.1327 92.895 24.4923 93.0006 24.86 93H47.14C47.5077 93.0006 47.8673 92.895 48.1733 92.6964C48.4792 92.4978 48.7177 92.2153 48.8585 91.8846C48.9993 91.5539 49.0361 91.19 48.9641 90.8389C48.8922 90.4878 48.7149 90.1655 48.4545 89.9127C45.1497 86.7024 43.4267 79.0311 43.4267 73.1167Z" fill="#FFDDA0"/>
<path opacity="0.1" d="M48.8783 91.2449C48.7377 91.532 48.4993 91.7774 48.1934 91.9501C47.8875 92.1228 47.5277 92.215 47.1597 92.2151H24.8403C24.4723 92.215 24.1125 92.1228 23.8066 91.9501C23.5007 91.7774 23.2623 91.532 23.1217 91.2449C23.0845 91.1664 23.1143 91.0816 23.092 91C22.9598 91.3358 22.9704 91.6999 23.1217 92.0298C23.2623 92.3169 23.5007 92.5623 23.8066 92.735C24.1125 92.9077 24.4723 92.9999 24.8403 93H47.1597C47.5277 92.9999 47.8875 92.9077 48.1934 92.735C48.4993 92.5623 48.7377 92.3169 48.8783 92.0298C49.0296 91.6999 49.0402 91.3358 48.908 91C48.8857 91.0816 48.9155 91.1664 48.8783 91.2449Z" fill="#010101"/>
<path d="M40.6668 61.6837C35.8337 59.5393 30.9748 59.4376 27.3278 61.4111C26.5795 61.8023 25.8012 62.1353 25 62.4069L25.2143 63.0466L44.48 82C43.7585 79.1153 43.384 76.1572 43.3641 73.1866C43.3641 68.6544 46.3201 64.2532 47 63.3082C44.8136 63.1134 42.6712 62.5645 40.6668 61.6837Z" fill="url(#paint0_linear_356_237)"/>
<path d="M60.7439 29.1933C59.3715 16.6895 48.652 7 36.0018 7C32.5091 7.00419 29.0563 7.74407 25.8674 9.17163C22.6786 10.5992 19.8249 12.6825 17.4915 15.2865C15.1581 17.8904 13.3972 20.9568 12.323 24.2867C11.2488 27.6166 10.8853 31.1355 11.2561 34.6152C8.75445 36.2404 6.75878 38.5371 5.49653 41.2435C4.23428 43.9499 3.75622 46.9572 4.11684 49.9226C4.94526 56.8905 10.5521 62.7256 17.4568 63.7979C18.3101 63.9297 19.1634 63.9973 20.0131 63.9973C22.701 63.9973 25.3107 63.3312 27.6786 62.0274C31.1913 60.0966 35.8667 60.1928 40.5207 62.2981C44.2542 63.967 48.4155 64.423 52.4207 63.6019C59.9155 62.1057 65.9988 56.0925 67.5597 48.6294C69.1098 41.2269 66.5037 33.8636 60.7439 29.1933Z" fill="#DA9F37"/>
<path opacity="0.1" d="M48.5 25.8386C55.1422 25.8386 61.078 28.626 65 33C61.3912 28.1698 55.3498 25 48.5 25C41.6502 25 35.6088 28.1698 32 33C34.0053 30.7579 36.525 28.9529 39.378 27.7146C42.2309 26.4764 45.3462 25.8357 48.5 25.8386Z" fill="white"/>
<path opacity="0.2" d="M36 7.90154C41.2506 7.90453 46.3725 9.54799 50.6674 12.6079C54.9623 15.6677 58.2213 19.9951 60 25C58.4304 19.7909 55.2511 15.2302 50.9304 11.9897C46.6096 8.7491 41.3759 7 36 7C30.6241 7 25.3904 8.7491 21.0696 11.9897C16.7489 15.2302 13.5696 19.7909 12 25C13.7783 19.9948 17.0371 15.6671 21.3322 12.6072C25.6272 9.54726 30.7493 7.904 36 7.90154Z" fill="white"/>
<path opacity="0.1" d="M21.3128 32.883C23.6851 32.883 25.9438 33.3634 28 34.2217C25.5744 32.7823 22.8055 32.0152 19.9811 32C15.7426 32 11.6778 33.6746 8.68074 36.6554C5.68371 39.6362 4 43.679 4 47.8945C4 48.2724 4.08523 48.6256 4.11009 49C4.69606 40.0108 12.1326 32.883 21.3128 32.883Z" fill="white"/>
<path d="M93 93H43C43.0011 91.4922 43.4927 90.0275 44.3977 88.8359C45.3027 87.6442 46.5698 86.7931 48 86.4162C47.9917 86.3427 47.9917 86.2685 48 86.195C47.9995 84.641 48.52 83.1337 49.4752 81.9235C50.4303 80.7134 51.7624 79.8734 53.25 79.5432C53.5359 78.6345 54.0657 77.8258 54.7792 77.209C55.4927 76.5922 56.3614 76.192 57.2865 76.0538C58.2117 75.9156 59.1563 76.045 60.013 76.4272C60.8698 76.8094 61.6043 77.4292 62.1333 78.2162C63.0452 77.8307 64.0295 77.6567 65.0152 77.7067C66.0009 77.7567 66.9634 78.0295 67.8333 78.5054C68.6261 77.5173 69.6754 76.7769 70.861 76.3689C72.0467 75.9609 73.3209 75.9016 74.538 76.198C75.755 76.4944 76.8658 77.1344 77.7433 78.0449C78.6208 78.9553 79.2296 80.0995 79.5 81.3465C80.376 81.093 81.2937 81.0253 82.1963 81.1477C83.099 81.2702 83.9675 81.58 84.7483 82.0582C85.5291 82.5364 86.2057 83.1728 86.7363 83.9282C87.2668 84.6836 87.6402 85.5419 87.8333 86.4502C89.2889 86.7932 90.5895 87.6253 91.5264 88.813C92.4633 90.0007 92.9823 91.4752 93 93Z" fill="#DA9F37"/>
<path d="M57.4286 87.5C57.4286 87.8978 57.248 88.2794 56.9265 88.5607C56.605 88.842 56.1689 89 55.7143 89C55.2596 89 54.8236 88.842 54.5021 88.5607C54.1806 88.2794 54 87.8978 54 87.5C54 87.1022 54.1806 86.7206 54.5021 86.4393C54.8236 86.158 55.2596 86 55.7143 86C56.1689 86 56.605 86.158 56.9265 86.4393C57.248 86.7206 57.4286 87.1022 57.4286 87.5ZM64.2857 84.5C64.2857 84.8978 64.1051 85.2794 63.7836 85.5607C63.4621 85.842 63.0261 86 62.5714 86C62.1168 86 61.6807 85.842 61.3592 85.5607C61.0378 85.2794 60.8571 84.8978 60.8571 84.5C60.8571 84.1022 61.0378 83.7206 61.3592 83.4393C61.6807 83.158 62.1168 83 62.5714 83C63.0261 83 63.4621 83.158 63.7836 83.4393C64.1051 83.7206 64.2857 84.1022 64.2857 84.5ZM78 87.5C78 87.8978 77.8194 88.2794 77.4979 88.5607C77.1764 88.842 76.7404 89 76.2857 89C75.8311 89 75.395 88.842 75.0735 88.5607C74.752 88.2794 74.5714 87.8978 74.5714 87.5C74.5714 87.1022 74.752 86.7206 75.0735 86.4393C75.395 86.158 75.8311 86 76.2857 86C76.7404 86 77.1764 86.158 77.4979 86.4393C77.8194 86.7206 78 87.1022 78 87.5Z" fill="#FFDDA0"/>
<defs>
<linearGradient id="paint0_linear_356_237" x1="31.2039" y1="58.3545" x2="46.5389" y2="73.9489" gradientUnits="userSpaceOnUse">
<stop stop-color="#010101" stop-opacity="0.1"/>
<stop offset="1" stop-color="#010101" stop-opacity="0"/>
</linearGradient>
</defs>
</svg>
