<svg width="110" height="110" viewBox="0 0 110 110" fill="none" xmlns="http://www.w3.org/2000/svg">
<path d="M43.6486 84.7045C42.1314 82.5866 38.6292 80.7952 38.6389 80.7424C38.6606 80.7381 37.1126 83.959 38.4642 86.4207C39.8323 88.8755 42.1155 89.7506 43.5885 89.1531C45.0947 88.5462 45.1587 86.8839 43.6486 84.7045ZM21.206 36.051C21.2163 36.0736 17.8676 34.7957 15.5778 36.3857C13.2957 37.9842 12.6952 40.3139 13.4457 41.7076C14.1998 43.1396 15.8487 43.0805 17.8285 41.4273C19.7487 39.7753 21.1418 36.0547 21.206 36.051ZM20.1754 33.8792C22.4586 32.6524 24.8292 29.2366 24.8998 29.2439C24.9056 29.2617 21.9099 27.3006 19.2237 28.4049C16.5489 29.5226 15.3788 31.7013 15.781 33.2342C16.1849 34.806 17.8233 35.0997 20.1754 33.8792ZM13.0871 50.4049C14.1231 51.6396 15.7187 51.2347 17.281 49.2108C18.7856 47.1954 19.2806 43.3157 19.3367 43.3011C19.3517 43.3237 15.821 42.7769 13.9701 44.7848C12.1338 46.808 12.0582 49.1967 13.0871 50.4049ZM14.2537 53.2987C12.8982 55.6568 13.3099 58.025 14.55 58.9914C15.8137 59.99 17.2795 59.2623 18.3858 56.9444C19.4396 54.647 19.0976 50.7476 19.1474 50.7231C19.1654 50.7457 15.628 50.9457 14.2537 53.2987ZM52.6087 90.3609C54.0234 89.4053 53.6949 87.7873 51.6483 86.0565C49.5871 84.387 45.6606 83.4586 45.663 83.4017C45.6885 83.3882 44.8466 86.8788 46.7653 88.9494C48.7 91.0121 51.2332 91.3039 52.6087 90.3609ZM5.15312 51.4121C5.07277 51.3954 5.86576 57.0668 8.21486 59.1948C10.4802 61.3304 12.1272 60.9505 12.6557 59.4754C13.1984 57.9586 12.5493 55.8742 10.5824 53.6882C8.62285 51.4921 5.16258 51.3883 5.15312 51.4121ZM7.05041 61.6494C6.97478 61.6494 8.87572 67.0714 11.5714 68.6912C14.183 70.3242 15.7054 69.6047 15.931 68.0327C16.1632 66.4261 15.1298 64.4978 12.7777 62.7582C10.4378 61.0028 7.05879 61.6247 7.05041 61.6494ZM24.4661 26.8581C27.0635 26.1059 30.4651 23.1365 30.5461 23.1516C30.5472 23.1767 28.1072 20.5936 25.0728 21.1606C22.0506 21.7486 20.279 23.6887 20.2635 25.3099C20.2472 26.9618 21.7855 27.5961 24.4661 26.8581ZM36.4462 81.5766C35.4637 79.1586 32.4565 76.6545 32.4699 76.6084C32.4963 76.6084 30.3255 79.4095 31.108 82.1081C31.913 84.801 33.8964 86.1607 35.4222 85.9004C36.9822 85.6492 37.4042 84.0372 36.4462 81.5766ZM10.267 44.3919C8.8117 41.8376 5.43736 41.0014 5.4176 41.0223C5.33445 40.9931 4.90777 46.7023 6.7984 49.2695C8.59836 51.8188 10.2991 51.7935 11.1183 50.4653C11.9611 49.1137 11.7488 46.9429 10.267 44.3919ZM42.2631 97.1386C42.2051 97.2209 48.0187 98.2719 50.9314 96.5792C53.7931 94.982 53.9091 93.2557 52.5339 92.3405C51.1318 91.3937 48.8171 91.4137 46.0819 92.6314C43.3418 93.8221 42.2498 97.1201 42.2631 97.1386ZM23.8007 87.6264C23.7375 87.672 28.3085 91.0936 31.409 90.8194C34.4509 90.6108 35.2562 89.1017 34.5246 87.6638C33.7725 86.1971 31.8376 85.2126 28.9866 85.1531C26.1281 85.0689 23.796 87.6011 23.8007 87.6264ZM32.4301 93.4201C32.371 93.4854 37.6171 95.8257 40.6623 94.8479C43.6544 93.9542 44.1397 92.2969 43.0814 91.0678C42.0027 89.8103 39.8543 89.2938 37.0172 89.8649C34.1811 90.4177 32.4226 93.3973 32.4301 93.4201ZM29.9063 18.2662C32.3811 16.2802 33.3151 12.473 33.3151 12.473C33.3151 12.473 29.2152 12.2343 26.5743 14.1885C23.2299 16.6575 23.3111 18.5084 24.2269 19.4111C25.2116 20.3427 27.0493 20.5522 29.9063 18.2662ZM30.1745 76.9386C29.7252 74.3742 27.2807 71.2983 27.3018 71.2557C27.3267 71.2622 24.6289 73.5294 24.8506 76.3233C25.0876 79.1132 26.7421 80.8644 28.2763 80.9394C29.8404 81.0275 30.5943 79.5446 30.1745 76.9386ZM16.5661 80.1438C16.4986 80.1722 20.2904 84.4731 23.3532 84.8749C26.3475 85.3233 27.4451 84.0222 27.0369 82.4699C26.6141 80.8719 24.937 79.5008 22.1496 78.8344C19.373 78.1505 16.5661 80.1174 16.5661 80.1438ZM10.9202 71.3559C10.8441 71.37 13.7464 76.3327 16.6784 77.3741C19.5337 78.4397 20.87 77.411 20.7794 75.8085C20.6906 74.1699 19.309 72.4825 16.6926 71.2564C14.081 70.0109 10.9219 71.3292 10.9202 71.3559ZM17.6798 67.1613C19.0976 67.8861 20.3763 66.8564 20.9993 64.3363C21.5743 61.8389 20.4642 58.0704 20.5001 58.042C20.519 58.0562 17.1326 58.9914 16.2681 61.5955C15.4203 64.2127 16.2848 66.4647 17.6798 67.1613ZM24.972 71.0972C25.0459 68.5115 23.2363 65.0143 23.2675 64.975C23.2909 64.9881 20.181 66.6248 19.8508 69.3774C19.5384 72.143 20.8182 74.1869 22.3071 74.5875C23.8243 75.0037 24.8644 73.7181 24.972 71.0972ZM22.3943 18.6014C23.1847 15.5631 21.1476 12.8185 21.1083 12.824C21.0195 12.7589 16.2758 17.3074 16.0206 20.5683C15.6674 23.765 17.0681 24.7702 18.6406 24.1757C20.2642 23.5583 21.6325 21.6339 22.3943 18.6014ZM12.0225 35.2213C11.1806 32.3907 8.05845 30.857 8.03762 30.872C7.95254 30.8305 6.19512 36.3623 7.50244 39.2758C8.7133 42.1517 10.3972 42.4864 11.494 41.3585C12.6172 40.202 12.889 38.0387 12.0225 35.2213ZM16.0072 26.5031C15.9136 23.516 13.2323 21.3319 13.201 21.3422C13.1178 21.2893 9.92094 26.4361 10.5156 29.5803C11.0095 32.679 12.5964 33.3625 13.9437 32.4807C15.3249 31.5829 16.1263 29.4895 16.0072 26.5031ZM66.4212 89.1529C67.8888 89.7504 70.1711 88.8753 71.5431 86.4205C72.894 83.9588 71.3422 80.7389 71.3645 80.7422C71.3759 80.795 67.8699 82.5864 66.3503 84.7043C64.8474 86.8839 64.9123 88.5462 66.4212 89.1529ZM92.1747 41.4271C94.1553 43.0798 95.8086 43.1391 96.5663 41.7074C97.3101 40.3139 96.7107 37.984 94.4267 36.3855C92.136 34.7961 88.789 36.074 88.8021 36.0508C88.8603 36.0547 90.2622 39.7753 92.1747 41.4271ZM94.2215 33.2338C94.6254 31.7011 93.4599 29.5226 90.7795 28.4045C88.0957 27.3002 85.099 29.2615 85.1085 29.2435C85.1839 29.236 87.5519 32.6518 89.8333 33.8787C92.1837 35.0997 93.8213 34.806 94.2215 33.2338ZM96.0374 44.7853C94.1816 42.7767 90.6605 43.3241 90.6661 43.3016C90.7284 43.3157 91.221 47.1958 92.7221 49.2113C94.287 51.2349 95.8823 51.6399 96.9204 50.4054C97.9478 49.1967 97.87 46.808 96.0374 44.7853ZM90.8549 50.7231C90.9058 50.7476 90.5632 54.647 91.6206 56.9444C92.7262 59.2623 94.1932 59.9906 95.4517 58.9914C96.6929 58.025 97.1054 55.6568 95.7516 53.2987C94.3801 50.9457 90.8388 50.7457 90.8549 50.7231ZM63.2419 88.949C65.162 86.8777 64.3176 83.3875 64.3424 83.4013C64.3424 83.4589 60.4187 84.3866 58.3568 86.0561C56.3089 87.7871 55.9806 89.4049 57.3945 90.3605C58.7719 91.3039 61.3051 91.0121 63.2419 88.949ZM99.4248 53.6875C97.453 55.8736 96.8063 57.958 97.3503 59.4748C97.8769 60.9499 99.5301 61.3304 101.792 59.1942C104.142 57.0668 104.931 51.3949 104.847 51.4115C104.844 51.3883 101.382 51.4921 99.4248 53.6875ZM97.2313 62.7582C94.8753 64.4978 93.8436 66.4261 94.0733 68.0327C94.2993 69.6047 95.8249 70.3242 98.4385 68.6912C101.133 67.0714 103.032 61.6494 102.954 61.6494C102.946 61.6247 99.569 61.0028 97.2313 62.7582ZM89.7431 25.3101C89.727 23.688 87.9575 21.7491 84.9315 21.1608C81.9015 20.5934 79.4564 23.1769 79.4564 23.1514C79.5421 23.1368 82.9465 26.1055 85.5393 26.8583C88.2261 27.5961 89.7609 26.9618 89.7431 25.3101ZM74.5837 85.9004C76.1139 86.1607 78.0994 84.801 78.8971 82.1081C79.6796 79.4095 77.5125 76.6084 77.5342 76.6084C77.5503 76.6545 74.5442 79.1586 73.5606 81.5766C72.6009 84.0372 73.024 85.6492 74.5837 85.9004ZM98.8877 50.4653C99.7088 51.7933 101.41 51.8188 103.207 49.2695C105.096 46.7023 104.667 40.9935 104.591 41.0223C104.569 41.0014 101.195 41.8376 99.7376 44.3919C98.2574 46.9429 98.0449 49.1137 98.8877 50.4653ZM63.9221 92.631C61.1919 91.4132 58.8735 91.3933 57.4665 92.3401C56.093 93.2555 56.212 94.9818 59.0755 96.5787C61.9885 98.2721 67.799 97.2205 67.7448 97.1382C67.759 97.1201 66.668 93.8221 63.9221 92.631ZM81.0224 85.154C78.1688 85.2129 76.2314 86.1973 75.4824 87.6646C74.7438 89.102 75.5593 90.6117 78.6 90.8203C81.6933 91.0938 86.2661 87.6728 86.2066 87.6273C86.2128 87.6011 83.8789 85.0689 81.0224 85.154ZM72.9887 89.8653C70.1534 89.2942 68.0044 89.8107 66.9254 91.0682C65.8673 92.2973 66.3492 93.9546 69.3446 94.8484C72.3885 95.8264 77.6371 93.4854 77.5759 93.4205C77.5834 93.3973 75.8262 90.4177 72.9887 89.8653ZM85.7788 19.4111C86.6945 18.5088 86.777 16.6579 83.4293 14.1885C80.7908 12.2339 76.6881 12.473 76.6881 12.473C76.6881 12.473 77.621 16.2804 80.1001 18.2662C82.9538 20.5522 84.7927 20.3427 85.7788 19.4111ZM81.7337 80.9394C83.2626 80.8633 84.9171 79.1132 85.156 76.3233C85.3712 73.5294 82.6823 71.2622 82.704 71.2557C82.7239 71.2983 80.2807 74.3748 79.8317 76.9386C79.4147 79.5446 80.1658 81.0275 81.7337 80.9394ZM87.8561 78.8339C85.07 79.5004 83.3943 80.8711 82.968 82.4695C82.5594 84.0224 83.6589 85.3229 86.6524 84.8745C89.7154 84.4734 93.5102 80.1718 93.441 80.1434C93.441 80.1174 90.6364 78.1505 87.8561 78.8339ZM93.3121 71.2557C90.6938 72.4819 89.3151 74.1697 89.2238 75.8079C89.1334 77.4104 90.4729 78.439 93.3291 77.3734C96.2578 76.3321 99.1618 71.37 99.091 71.3552C99.0856 71.3292 95.9203 70.0109 93.3121 71.2557ZM93.7383 61.5955C92.8745 58.9914 89.4844 58.0562 89.5061 58.042C89.5439 58.0704 88.4354 61.8389 89.006 64.3363C89.6282 66.8564 90.9095 67.8861 92.3264 67.1613C93.7203 66.4647 94.5857 64.2127 93.7383 61.5955ZM87.7023 74.5875C89.1856 74.1869 90.4699 72.143 90.1507 69.3774C89.826 66.6246 86.7151 64.9875 86.7377 64.9746C86.7688 65.0147 84.9585 68.5115 85.0294 71.0972C85.1394 73.7181 86.181 75.0037 87.7023 74.5875ZM91.3645 24.1755C92.9357 24.7702 94.3367 23.765 93.9856 20.5681C93.7312 17.3072 88.9832 12.7587 88.8988 12.8238C88.8599 12.8182 86.8204 15.5629 87.6104 18.6012C88.3668 21.6339 89.7431 23.5583 91.3645 24.1755ZM98.5122 41.3592C99.6087 42.4871 101.292 42.1519 102.504 39.2765C103.805 36.3625 102.05 30.8305 101.967 30.8726C101.945 30.8574 98.8254 32.3912 97.9864 35.2219C97.1211 38.0387 97.3872 40.202 98.5122 41.3592ZM96.0589 32.4805C97.4079 33.362 98.9943 32.6786 99.4899 29.5801C100.082 26.4359 96.8864 21.2895 96.8063 21.342C96.7741 21.3316 94.0946 23.5157 93.9992 26.5029C93.8788 29.4895 94.6791 31.5829 96.0589 32.4805Z" fill="#FFDDA0"/>
<path d="M61.1855 38.763C61.0702 38.6191 61.1732 38.4057 61.3575 38.4057H64.8401C65.3747 38.4057 65.8803 38.6486 66.2143 39.0661L71.8168 46.0696C72.3443 46.7292 72.3289 47.6699 71.7807 48.3123L60.2729 61.7851C60.2047 61.8647 60.0798 61.7803 60.1282 61.6874L67.2469 48.0193C67.569 47.4011 67.4955 46.6509 67.0604 46.1066L61.1855 38.763Z" fill="#FFC35A"/>
<path d="M50.8315 38.4057H58.5403C58.6072 38.4057 58.6705 38.4361 58.7119 38.4884L65.5068 46.9822C65.6155 47.1181 65.634 47.3056 65.5535 47.4605L55.0762 67.5764C54.9116 67.8919 54.4602 67.8919 54.2956 67.5764L43.8183 47.46C43.7378 47.3056 43.7563 47.1181 43.865 46.9817L50.6599 38.4884C50.7017 38.4361 50.7646 38.4057 50.8315 38.4057Z" fill="#FFC35A"/>
<path d="M49.2437 61.687C49.2921 61.7798 49.1667 61.8643 49.099 61.7847L37.5912 48.3119C37.043 47.6699 37.0276 46.7287 37.5551 46.0692L43.1576 39.0657C43.4912 38.6486 43.9967 38.4057 44.5313 38.4057H48.0139C48.1983 38.4057 48.3008 38.6191 48.1855 38.763L42.3115 46.1061C41.8759 46.6504 41.8029 47.4006 42.125 48.0188L49.2437 61.687Z" fill="#FFC35A"/>
</svg>
