<svg width="100" height="100" viewBox="0 0 100 100" fill="none" xmlns="http://www.w3.org/2000/svg">
<path d="M93.7498 50C93.7498 45.3125 90.6248 44.875 90.6248 40.1875C90.6248 38.5625 90.9998 38.1875 90.9998 36.5625C90.9998 29.1562 84.4685 30.3125 83.2498 23.625C82.9436 21.8971 82.114 20.305 80.8732 19.0641C79.6323 17.8233 78.0402 16.9936 76.3123 16.6875C75.1542 16.4739 74.0521 16.0255 73.074 15.3698C72.0958 14.7141 71.2623 13.8651 70.6248 12.875C69.677 11.4002 68.3009 10.2505 66.681 9.58024C65.0611 8.90995 63.275 8.7511 61.5623 9.125C55.781 10.375 55.3123 6.25 49.9373 6.25C45.2498 6.25 44.8123 9.375 40.1248 9.375C38.4998 9.375 38.1248 9 36.4998 9C29.0935 9 30.2498 15.5312 23.5623 16.75C21.8544 17.0637 20.2822 17.8892 19.0543 19.1171C17.8265 20.3449 17.0009 21.9171 16.6873 23.625C16.4737 24.7831 16.0253 25.8851 15.3696 26.8633C14.7139 27.8414 13.8649 28.675 12.8748 29.3125C11.4 30.2603 10.2503 31.6364 9.58001 33.2563C8.90972 34.8761 8.75087 36.6623 9.12477 38.375C9.36614 39.5276 9.37151 40.7172 9.14056 41.8719C8.90961 43.0266 8.44713 44.1226 7.78102 45.0938C6.78799 46.5372 6.25635 48.248 6.25635 50C6.25635 51.752 6.78799 53.4628 7.78102 54.9062C8.44878 55.8766 8.91225 56.9725 9.14325 58.1276C9.37425 59.2826 9.36797 60.4725 9.12477 61.625C8.75087 63.3377 8.90972 65.1239 9.58001 66.7437C10.2503 68.3636 11.4 69.7397 12.8748 70.6875C13.8649 71.325 14.7139 72.1586 15.3696 73.1367C16.0253 74.1149 16.4737 75.2169 16.6873 76.375C16.9934 78.1029 17.823 79.6951 19.0639 80.9359C20.3047 82.1767 21.8969 83.0064 23.6248 83.3125C30.1873 84.5312 29.1248 91.0625 36.5623 91.0625C38.1873 91.0625 38.5623 90.6875 40.1873 90.6875C44.8748 90.6875 45.3123 93.8125 49.9998 93.8125C54.6873 93.8125 55.1248 90.6875 59.8123 90.6875C61.4373 90.6875 61.8123 91.0625 63.4373 91.0625C70.8435 91.0625 69.8435 84.5312 76.3748 83.3125C78.1027 83.0064 79.6948 82.1767 80.9357 80.9359C82.1765 79.6951 83.0061 78.1029 83.3123 76.375C83.5258 75.2169 83.9743 74.1149 84.63 73.1367C85.2856 72.1586 86.1347 71.325 87.1248 70.6875C88.5996 69.7397 89.7492 68.3636 90.4195 66.7437C91.0898 65.1239 91.2487 63.3377 90.8748 61.625C89.656 55.8125 93.7498 55.1875 93.7498 50ZM49.9998 78.125C44.4372 78.125 38.9995 76.4755 34.3744 73.3851C29.7492 70.2947 26.1444 65.9021 24.0157 60.763C21.8869 55.6238 21.33 49.9688 22.4152 44.5131C23.5004 39.0574 26.179 34.046 30.1124 30.1126C34.0457 26.1793 39.0571 23.5006 44.5129 22.4154C49.9686 21.3302 55.6236 21.8872 60.7627 24.0159C65.9019 26.1446 70.2944 29.7495 73.3849 34.3746C76.4753 38.9997 78.1248 44.4374 78.1248 50C78.1248 57.4592 75.1616 64.6129 69.8871 69.8874C64.6127 75.1618 57.459 78.125 49.9998 78.125Z" fill="#FFC35A"/>
<path d="M47.5624 96.0938C46.8475 95.566 45.9823 95.2812 45.0937 95.2813C44.214 95.2796 43.3572 95.001 42.6448 94.485C41.9324 93.9689 41.4007 93.2416 41.1249 92.4063C40.8612 91.5661 40.3356 90.8324 39.6249 90.3125C38.9109 89.7979 38.3801 89.0685 38.1102 88.2307C37.8404 87.393 37.8455 86.4909 38.1249 85.6563C38.3846 84.8218 38.3846 83.9282 38.1249 83.0938C37.8404 82.2596 37.8327 81.3559 38.103 80.5169C38.3732 79.678 38.907 78.9487 39.6249 78.4375C40.3372 77.9192 40.8632 77.1849 41.1249 76.3438C41.4048 75.511 41.9376 74.7863 42.6491 74.2709C43.3605 73.7555 44.2152 73.4751 45.0937 73.4688C45.9837 73.4779 46.8518 73.1922 47.5624 72.6563C48.2733 72.1474 49.1257 71.8737 49.9999 71.8737C50.8742 71.8737 51.7266 72.1474 52.4374 72.6563C53.1523 73.184 54.0176 73.4688 54.9062 73.4688C55.7859 73.4704 56.6427 73.749 57.3551 74.2651C58.0674 74.7811 58.5992 75.5084 58.8749 76.3438C59.1387 77.1839 59.6643 77.9176 60.3749 78.4375C61.089 78.9521 61.6198 79.6815 61.8897 80.5193C62.1595 81.357 62.1544 82.2591 61.8749 83.0938C61.6153 83.9282 61.6153 84.8218 61.8749 85.6563C62.1595 86.4904 62.1672 87.3942 61.8969 88.2331C61.6267 89.072 61.0929 89.8013 60.3749 90.3125C59.6594 90.8276 59.1325 91.5631 58.8749 92.4063C58.5951 93.239 58.0623 93.9637 57.3508 94.4791C56.6393 94.9945 55.7847 95.2749 54.9062 95.2813C54.0161 95.2721 53.1481 95.5578 52.4374 96.0938C51.7266 96.6027 50.8742 96.8763 49.9999 96.8763C49.1257 96.8763 48.2733 96.6027 47.5624 96.0938Z" fill="#DA9F37"/>
<path d="M50 90.625C53.4518 90.625 56.25 87.8268 56.25 84.375C56.25 80.9232 53.4518 78.125 50 78.125C46.5482 78.125 43.75 80.9232 43.75 84.375C43.75 87.8268 46.5482 90.625 50 90.625Z" fill="#FFF8EC"/>
<path d="M78.8124 80.4688C78.0975 79.941 77.2323 79.6562 76.3437 79.6563C75.464 79.6546 74.6072 79.376 73.8948 78.86C73.1824 78.3439 72.6507 77.6166 72.3749 76.7813C72.1112 75.9411 71.5856 75.2074 70.8749 74.6875C70.1609 74.1729 69.6301 73.4435 69.3602 72.6057C69.0904 71.768 69.0955 70.8659 69.3749 70.0313C69.6346 69.1968 69.6346 68.3032 69.3749 67.4688C69.0904 66.6346 69.0827 65.7309 69.353 64.8919C69.6232 64.053 70.157 63.3237 70.8749 62.8125C71.5872 62.2942 72.1132 61.5599 72.3749 60.7188C72.6548 59.886 73.1876 59.1613 73.8991 58.6459C74.6105 58.1305 75.4652 57.8501 76.3437 57.8438C77.2337 57.8529 78.1018 57.5672 78.8124 57.0313C79.5233 56.5224 80.3757 56.2487 81.2499 56.2487C82.1242 56.2487 82.9766 56.5224 83.6874 57.0313C84.4023 57.559 85.2676 57.8438 86.1562 57.8438C87.0359 57.8454 87.8927 58.124 88.6051 58.6401C89.3174 59.1561 89.8492 59.8834 90.1249 60.7188C90.3887 61.5589 90.9143 62.2926 91.6249 62.8125C92.339 63.3271 92.8698 64.0565 93.1396 64.8943C93.4095 65.732 93.4044 66.6341 93.1249 67.4688C92.8653 68.3032 92.8653 69.1968 93.1249 70.0313C93.4095 70.8654 93.4172 71.7692 93.1469 72.6081C92.8767 73.447 92.3429 74.1763 91.6249 74.6875C90.9094 75.2026 90.3825 75.9381 90.1249 76.7813C89.8451 77.614 89.3123 78.3387 88.6008 78.8541C87.8893 79.3695 87.0347 79.6499 86.1562 79.6563C85.2661 79.6471 84.3981 79.9328 83.6874 80.4688C82.9766 80.9777 82.1242 81.2513 81.2499 81.2513C80.3757 81.2513 79.5233 80.9777 78.8124 80.4688Z" fill="#DA9F37"/>
<path d="M81.25 75C84.7018 75 87.5 72.2018 87.5 68.75C87.5 65.2982 84.7018 62.5 81.25 62.5C77.7982 62.5 75 65.2982 75 68.75C75 72.2018 77.7982 75 81.25 75Z" fill="#FFF8EC"/>
<path d="M78.8124 19.5312C78.0975 20.059 77.2323 20.3437 76.3437 20.3437C75.464 20.3453 74.6072 20.6239 73.8948 21.14C73.1824 21.6561 72.6507 22.3834 72.3749 23.2187C72.1112 24.0588 71.5856 24.7925 70.8749 25.3124C70.1609 25.827 69.6301 26.5565 69.3602 27.3942C69.0904 28.232 69.0955 29.1341 69.3749 29.9687C69.6346 30.8031 69.6346 31.6968 69.3749 32.5312C69.0904 33.3654 69.0827 34.2691 69.353 35.108C69.6232 35.9469 70.157 36.6762 70.8749 37.1874C71.5872 37.7058 72.1132 38.4401 72.3749 39.2812C72.6548 40.114 73.1876 40.8387 73.8991 41.3541C74.6105 41.8695 75.4652 42.1499 76.3437 42.1562C77.2337 42.1471 78.1018 42.4327 78.8124 42.9687C79.5233 43.4776 80.3757 43.7512 81.2499 43.7512C82.1242 43.7512 82.9766 43.4776 83.6874 42.9687C84.4023 42.4409 85.2676 42.1562 86.1562 42.1562C87.0359 42.1546 87.8927 41.876 88.6051 41.3599C89.3174 40.8438 89.8492 40.1165 90.1249 39.2812C90.3887 38.4411 90.9143 37.7074 91.6249 37.1874C92.339 36.6729 92.8698 35.9434 93.1396 35.1057C93.4095 34.2679 93.4044 33.3658 93.1249 32.5312C92.8653 31.6968 92.8653 30.8031 93.1249 29.9687C93.4095 29.1345 93.4172 28.2308 93.1469 27.3919C92.8767 26.553 92.3429 25.8237 91.6249 25.3124C90.9094 24.7973 90.3825 24.0619 90.1249 23.2187C89.8451 22.3859 89.3123 21.6612 88.6008 21.1458C87.8893 20.6304 87.0347 20.35 86.1562 20.3437C85.2661 20.3528 84.3981 20.0672 83.6874 19.5312C82.9766 19.0223 82.1242 18.7487 81.2499 18.7487C80.3757 18.7487 79.5233 19.0223 78.8124 19.5312Z" fill="#DA9F37"/>
<path d="M81.25 37.5C84.7018 37.5 87.5 34.7018 87.5 31.25C87.5 27.7982 84.7018 25 81.25 25C77.7982 25 75 27.7982 75 31.25C75 34.7018 77.7982 37.5 81.25 37.5Z" fill="#FFF8EC"/>
<path d="M21.1874 80.4688C21.9023 79.941 22.7676 79.6562 23.6562 79.6563C24.5359 79.6546 25.3927 79.376 26.1051 78.86C26.8174 78.3439 27.3492 77.6166 27.6249 76.7813C27.8887 75.9411 28.4143 75.2074 29.1249 74.6875C29.839 74.1729 30.3698 73.4435 30.6397 72.6057C30.9095 71.768 30.9044 70.8659 30.6249 70.0313C30.3748 69.1954 30.3748 68.3046 30.6249 67.4688C30.9095 66.6346 30.9172 65.7309 30.6469 64.8919C30.3767 64.053 29.8429 63.3237 29.1249 62.8125C28.4127 62.2942 27.8867 61.5599 27.6249 60.7188C27.3451 59.886 26.8123 59.1613 26.1008 58.6459C25.3893 58.1305 24.5347 57.8501 23.6562 57.8438C22.7661 57.8529 21.8981 57.5672 21.1874 57.0313C20.4766 56.5224 19.6242 56.2487 18.7499 56.2487C17.8757 56.2487 17.0233 56.5224 16.3124 57.0313C15.5975 57.559 14.7323 57.8438 13.8437 57.8438C12.964 57.8454 12.1072 58.124 11.3948 58.6401C10.6824 59.1561 10.1507 59.8834 9.87494 60.7188C9.61123 61.5589 9.0856 62.2926 8.37494 62.8125C7.66088 63.3271 7.13011 64.0565 6.86023 64.8943C6.59035 65.732 6.59551 66.6341 6.87494 67.4688C7.13458 68.3032 7.13458 69.1968 6.87494 70.0313C6.59042 70.8654 6.58271 71.7692 6.85296 72.6081C7.12321 73.447 7.657 74.1763 8.37494 74.6875C9.08719 75.2059 9.61323 75.9401 9.87494 76.7813C10.1548 77.614 10.6876 78.3387 11.3991 78.8541C12.1105 79.3695 12.9652 79.6499 13.8437 79.6563C14.7337 79.6471 15.6018 79.9328 16.3124 80.4688C17.0233 80.9777 17.8757 81.2513 18.7499 81.2513C19.6242 81.2513 20.4766 80.9777 21.1874 80.4688Z" fill="#DA9F37"/>
<path d="M18.75 75C22.2018 75 25 72.2018 25 68.75C25 65.2982 22.2018 62.5 18.75 62.5C15.2982 62.5 12.5 65.2982 12.5 68.75C12.5 72.2018 15.2982 75 18.75 75Z" fill="#FFF8EC"/>
<path d="M21.1874 19.5312C21.9023 20.059 22.7676 20.3437 23.6562 20.3437C24.5359 20.3453 25.3927 20.6239 26.1051 21.14C26.8174 21.6561 27.3492 22.3834 27.6249 23.2187C27.8887 24.0588 28.4143 24.7925 29.1249 25.3124C29.839 25.827 30.3698 26.5565 30.6397 27.3942C30.9095 28.232 30.9044 29.1341 30.6249 29.9687C30.3653 30.8031 30.3653 31.6968 30.6249 32.5312C30.9095 33.3654 30.9172 34.2691 30.6469 35.108C30.3767 35.9469 29.8429 36.6762 29.1249 37.1874C28.4127 37.7058 27.8867 38.4401 27.6249 39.2812C27.3451 40.114 26.8123 40.8387 26.1008 41.3541C25.3893 41.8695 24.5347 42.1499 23.6562 42.1562C22.7661 42.1471 21.8981 42.4327 21.1874 42.9687C20.4766 43.4776 19.6242 43.7512 18.7499 43.7512C17.8757 43.7512 17.0233 43.4776 16.3124 42.9687C15.5975 42.4409 14.7323 42.1562 13.8437 42.1562C12.964 42.1546 12.1072 41.876 11.3948 41.3599C10.6824 40.8438 10.1507 40.1165 9.87494 39.2812C9.61123 38.4411 9.0856 37.7074 8.37494 37.1874C7.66088 36.6729 7.13011 35.9434 6.86023 35.1057C6.59035 34.2679 6.59551 33.3658 6.87494 32.5312C7.13458 31.6968 7.13458 30.8031 6.87494 29.9687C6.59042 29.1345 6.58271 28.2308 6.85296 27.3919C7.12321 26.553 7.657 25.8237 8.37494 25.3124C9.09044 24.7973 9.61735 24.0619 9.87494 23.2187C10.1548 22.3859 10.6876 21.6612 11.3991 21.1458C12.1105 20.6304 12.9652 20.35 13.8437 20.3437C14.7337 20.3528 15.6018 20.0672 16.3124 19.5312C17.0233 19.0223 17.8757 18.7487 18.7499 18.7487C19.6242 18.7487 20.4766 19.0223 21.1874 19.5312Z" fill="#DA9F37"/>
<path d="M18.75 37.5C22.2018 37.5 25 34.7018 25 31.25C25 27.7982 22.2018 25 18.75 25C15.2982 25 12.5 27.7982 12.5 31.25C12.5 34.7018 15.2982 37.5 18.75 37.5Z" fill="#FFF8EC"/>
<path d="M34.375 18.75C34.375 19.5788 34.0458 20.3737 33.4597 20.9597C32.8737 21.5458 32.0788 21.875 31.25 21.875C30.4212 21.875 29.6263 21.5458 29.0403 20.9597C28.4542 20.3737 28.125 19.5788 28.125 18.75C28.125 17.9212 28.4542 17.1263 29.0403 16.5403C29.6263 15.9542 30.4212 15.625 31.25 15.625C32.0788 15.625 32.8737 15.9542 33.4597 16.5403C34.0458 17.1263 34.375 17.9212 34.375 18.75ZM71.875 18.75C71.875 19.5788 71.5458 20.3737 70.9597 20.9597C70.3737 21.5458 69.5788 21.875 68.75 21.875C67.9212 21.875 67.1263 21.5458 66.5403 20.9597C65.9542 20.3737 65.625 19.5788 65.625 18.75C65.625 17.9212 65.9542 17.1263 66.5403 16.5403C67.1263 15.9542 67.9212 15.625 68.75 15.625C69.5788 15.625 70.3737 15.9542 70.9597 16.5403C71.5458 17.1263 71.875 17.9212 71.875 18.75ZM34.375 81.25C34.375 80.4212 34.0458 79.6263 33.4597 79.0403C32.8737 78.4542 32.0788 78.125 31.25 78.125C30.4212 78.125 29.6263 78.4542 29.0403 79.0403C28.4542 79.6263 28.125 80.4212 28.125 81.25C28.125 82.0788 28.4542 82.8737 29.0403 83.4597C29.6263 84.0458 30.4212 84.375 31.25 84.375C32.0788 84.375 32.8737 84.0458 33.4597 83.4597C34.0458 82.8737 34.375 82.0788 34.375 81.25ZM71.875 81.25C71.875 80.4212 71.5458 79.6263 70.9597 79.0403C70.3737 78.4542 69.5788 78.125 68.75 78.125C67.9212 78.125 67.1263 78.4542 66.5403 79.0403C65.9542 79.6263 65.625 80.4212 65.625 81.25C65.625 82.0788 65.9542 82.8737 66.5403 83.4597C67.1263 84.0458 67.9212 84.375 68.75 84.375C69.5788 84.375 70.3737 84.0458 70.9597 83.4597C71.5458 82.8737 71.875 82.0788 71.875 81.25ZM81.25 50C81.25 50.8288 81.5792 51.6237 82.1653 52.2097C82.7513 52.7958 83.5462 53.125 84.375 53.125C85.2038 53.125 85.9987 52.7958 86.5847 52.2097C87.1708 51.6237 87.5 50.8288 87.5 50C87.5 49.1712 87.1708 48.3763 86.5847 47.7903C85.9987 47.2042 85.2038 46.875 84.375 46.875C83.5462 46.875 82.7513 47.2042 82.1653 47.7903C81.5792 48.3763 81.25 49.1712 81.25 50Z" fill="#FFF8EC"/>
<path d="M9.375 62.5H3.125V50H9.375C18.4918 50 27.2352 46.3784 33.6818 39.9318C40.1284 33.4852 43.75 24.7418 43.75 15.625H56.25C56.25 28.057 51.3114 39.9799 42.5206 48.7706C33.7299 57.5614 21.807 62.5 9.375 62.5Z" fill="#FFDDA0"/>
<path d="M90.625 62.5H96.875V50H90.625C81.5082 50 72.7648 46.3784 66.3182 39.9318C59.8716 33.4852 56.25 24.7418 56.25 15.625H43.75C43.75 28.057 48.6886 39.9799 57.4794 48.7706C66.2701 57.5614 78.193 62.5 90.625 62.5Z" fill="#FFDDA0"/>
<path d="M52.4374 3.9062C53.1523 4.43398 54.0176 4.71874 54.9062 4.7187C55.7859 4.72032 56.6427 4.99893 57.3551 5.515C58.0674 6.03106 58.5992 6.75836 58.8749 7.5937C59.1387 8.43382 59.6643 9.16752 60.3749 9.68745C61.089 10.202 61.6198 10.9315 61.8897 11.7692C62.1595 12.607 62.1544 13.5091 61.8749 14.3437C61.6248 15.1796 61.6248 16.0703 61.8749 16.9062C62.1595 17.7404 62.1672 18.6441 61.8969 19.483C61.6267 20.3219 61.0929 21.0512 60.3749 21.5624C59.6594 22.0776 59.1325 22.813 58.8749 23.6562C58.5951 24.489 58.0623 25.2137 57.3508 25.7291C56.6393 26.2445 55.7847 26.5249 54.9062 26.5312C54.0176 26.5312 53.1523 26.8159 52.4374 27.3437C51.7266 27.8526 50.8742 28.1262 49.9999 28.1262C49.1257 28.1262 48.2733 27.8526 47.5624 27.3437C46.8475 26.8159 45.9823 26.5312 45.0937 26.5312C44.214 26.5296 43.3572 26.251 42.6448 25.7349C41.9324 25.2188 41.4007 24.4915 41.1249 23.6562C40.8612 22.8161 40.3356 22.0824 39.6249 21.5624C38.9109 21.0479 38.3801 20.3184 38.1102 19.4807C37.8404 18.6429 37.8455 17.7408 38.1249 16.9062C38.3846 16.0718 38.3846 15.1781 38.1249 14.3437C37.8404 13.5095 37.8327 12.6058 38.103 11.7669C38.3732 10.928 38.907 10.1987 39.6249 9.68745C40.3372 9.16909 40.8632 8.43482 41.1249 7.5937C41.4048 6.7609 41.9376 6.03624 42.6491 5.52084C43.3605 5.00543 44.2152 4.72501 45.0937 4.7187C45.9823 4.71874 46.8475 4.43398 47.5624 3.9062C48.2733 3.3973 49.1257 3.12366 49.9999 3.12366C50.8742 3.12366 51.7266 3.3973 52.4374 3.9062Z" fill="#DA9F37"/>
<path d="M50 21.875C53.4518 21.875 56.25 19.0768 56.25 15.625C56.25 12.1732 53.4518 9.375 50 9.375C46.5482 9.375 43.75 12.1732 43.75 15.625C43.75 19.0768 46.5482 21.875 50 21.875Z" fill="#FFF8EC"/>
</svg>
