<svg width="32" height="32" viewBox="0 0 32 32" fill="none" xmlns="http://www.w3.org/2000/svg">
<path d="M22.075 0.5H9.92502C7.49502 0.5 5.52502 2.47 5.52502 4.9V23.41C5.52502 25.32 6.75002 26.945 8.45002 27.55C8.76502 28.695 9.71502 29.575 10.9 29.78V31.495H13.505V29.83H18.49V31.495H21.095V29.78C22.28 29.57 23.23 28.695 23.545 27.55C25.25 26.945 26.47 25.32 26.47 23.41V4.9C26.47 2.47 24.5 0.5 22.07 0.5H22.075ZM15.495 26.91C14.87 26.745 14.365 26.235 14.2 25.615C13.93 24.58 14.52 23.65 15.405 23.345V24.635C15.405 24.965 15.67 25.23 16 25.23C16.33 25.23 16.595 24.965 16.595 24.635V23.345C17.33 23.595 17.865 24.285 17.865 25.105C17.865 26.3 16.74 27.235 15.49 26.905L15.495 26.91ZM21.97 20.485H10.03V8.735C10.03 7.4 11.11 6.32 12.445 6.32H19.545C20.88 6.32 21.96 7.4 21.96 8.735V20.485H21.97Z" fill="#7EC637"/>
<path d="M19.285 14.125C19.175 12.99 18.695 11.915 18.055 10.97C17.415 10.025 16.62 9.2 15.81 8.395C15.995 9.125 16.13 9.87 16.11 10.62C16.085 11.37 15.895 12.13 15.465 12.745C15.285 11.705 14.69 10.745 13.84 10.12C14.125 12.745 12.78 13.465 12.695 15.33C12.65 16.32 13.095 17.3 13.875 17.91C14.175 18.145 14.51 18.305 14.86 18.41C14.67 17.735 14.545 16.295 16.355 15.04C16.355 15.04 17.055 16.73 16.82 18.36C17.42 18.165 17.965 17.81 18.375 17.325C19.11 16.455 19.395 15.255 19.285 14.12V14.125Z" fill="#7EC637"/>
</svg>
