<svg width="20" height="20" viewBox="0 0 20 20" fill="none" xmlns="http://www.w3.org/2000/svg">
<path d="M10 1C5.02943 1 1 5.02943 1 10C1 14.9706 5.02943 19 10 19C14.9706 19 19 14.9706 19 10C19 5.02943 14.9706 1 10 1ZM9.95307 3.13621C10.0137 3.12952 10.0751 3.13585 10.1331 3.1548C10.1911 3.17374 10.2444 3.20485 10.2895 3.24606C10.3345 3.28726 10.3702 3.3376 10.3942 3.39371C10.4182 3.44983 10.4299 3.51042 10.4286 3.57143V8.45307L12.2031 5.49336C12.2617 5.39566 12.3567 5.32525 12.4672 5.2976C12.5777 5.26995 12.6947 5.28733 12.7924 5.34593C12.8901 5.40452 12.9605 5.49953 12.9881 5.61004C13.0158 5.72055 12.9984 5.83752 12.9398 5.93521L10.3684 10.2209C10.3203 10.3017 10.247 10.3645 10.1597 10.3996C10.0725 10.4346 9.97612 10.44 9.8855 10.4149C9.79489 10.3898 9.71505 10.3355 9.6583 10.2606C9.60154 10.1856 9.57102 10.094 9.57143 10V3.57143C9.56913 3.46431 9.60703 3.36021 9.67767 3.27966C9.74831 3.1991 9.84657 3.14792 9.95307 3.13621ZM3.31707 9.57143C3.33042 9.5708 3.34379 9.5708 3.35714 9.57143H4.21429C4.32795 9.57143 4.43696 9.61658 4.51733 9.69695C4.5977 9.77733 4.64286 9.88634 4.64286 10C4.64286 10.1137 4.5977 10.2227 4.51733 10.303C4.43696 10.3834 4.32795 10.4286 4.21429 10.4286H3.35714C3.24348 10.4339 3.13235 10.3939 3.0482 10.3173C2.96405 10.2407 2.91377 10.1338 2.90843 10.0201C2.90309 9.90648 2.94312 9.79535 3.01971 9.7112C3.09631 9.62705 3.20341 9.57677 3.31707 9.57143ZM15.7456 9.57143C15.759 9.5708 15.7724 9.5708 15.7857 9.57143H16.6429C16.7565 9.57143 16.8655 9.61658 16.9459 9.69695C17.0263 9.77733 17.0714 9.88634 17.0714 10C17.0714 10.1137 17.0263 10.2227 16.9459 10.303C16.8655 10.3834 16.7565 10.4286 16.6429 10.4286H15.7857C15.7294 10.4312 15.6732 10.4228 15.6202 10.4037C15.5672 10.3846 15.5184 10.3552 15.4768 10.3173C15.4351 10.2794 15.4013 10.2336 15.3773 10.1826C15.3534 10.1316 15.3396 10.0764 15.337 10.0201C15.3344 9.96386 15.3428 9.90761 15.3619 9.8546C15.381 9.80159 15.4104 9.75286 15.4483 9.7112C15.4862 9.66953 15.532 9.63574 15.583 9.61176C15.6339 9.58778 15.6891 9.57407 15.7454 9.57143H15.7456ZM9.95286 15.3505C10.0135 15.3438 10.0749 15.3501 10.133 15.369C10.191 15.3879 10.2443 15.419 10.2894 15.4603C10.3344 15.5015 10.3701 15.5518 10.3941 15.6079C10.4182 15.6641 10.4299 15.7247 10.4286 15.7857V16.6429C10.4286 16.7565 10.3834 16.8655 10.303 16.9459C10.2227 17.0263 10.1137 17.0714 10 17.0714C9.88634 17.0714 9.77733 17.0263 9.69695 16.9459C9.61658 16.8655 9.57143 16.7565 9.57143 16.6429V15.7857C9.56913 15.6786 9.60703 15.5745 9.67767 15.4939C9.74831 15.4134 9.84635 15.3622 9.95286 15.3505Z" fill="#CFBCB5"/>
</svg>
