<svg width="32" height="32" viewBox="0 0 32 32" fill="none" xmlns="http://www.w3.org/2000/svg">
<path d="M14.88 7.168L11.264 3.552L11.936 2.88H19.168L14.88 7.168ZM21.664 27.552L29.12 20.064V12.832L18.048 23.936L21.664 27.552ZM26.624 6.272L20.288 12.608L23.904 16.224L29.12 11.04V3.776L26.624 6.272ZM9.888 3.104L10.112 2.88H3.52C3.168 2.88 2.88 3.168 2.88 3.52V10.112L3.104 9.888L9.888 3.104ZM10.336 4.448L2.88 11.936V19.168L13.952 8.096L10.336 4.448ZM8.768 22.336L11.712 19.392L8.064 15.776L2.88 20.96V28.192L5.376 25.696L8.768 22.336ZM22.112 28.896L21.888 29.12H28.48C28.832 29.12 29.12 28.832 29.12 28.48V21.888L28.896 22.112L22.112 28.896ZM8.992 14.88L12.608 18.496L25.28 5.824L22.336 2.88H20.96L15.328 8.544L8.992 14.88ZM23.008 17.12L19.392 13.504L13.056 19.84L9.664 23.232L6.72 26.176L9.664 29.12H11.04L16.704 23.456L23.008 17.12ZM12.832 29.12H20.064L20.736 28.448L17.12 24.832L12.832 29.12ZM3.776 29.12H7.84L5.792 27.072L3.776 29.12ZM28.224 2.88H24.16L26.208 4.896L28.224 2.88Z" fill="#7EC637"/>
</svg>
