<svg width="33" height="32" viewBox="0 0 33 32" fill="none" xmlns="http://www.w3.org/2000/svg">
<g clip-path="url(#clip0_96_182)">
<path d="M31.9667 21.3333H29.3V6.4C29.3 5.22347 28.3432 4.26667 27.1667 4.26667C26.1757 4.26667 25.348 4.94933 25.1091 5.86667H23.8909C23.652 4.94933 22.8243 4.26667 21.8333 4.26667C20.8424 4.26667 20.0147 4.94933 19.7757 5.86667H18.5576C18.3187 4.94933 17.4909 4.26667 16.5 4.26667C15.5091 4.26667 14.6813 4.94933 14.4424 5.86667H13.2243C12.9853 4.94933 12.1576 4.26667 11.1667 4.26667C10.1757 4.26667 9.348 4.94933 9.10907 5.86667H7.89093C7.652 4.94933 6.82427 4.26667 5.83333 4.26667C4.6568 4.26667 3.7 5.22347 3.7 6.4H1.03333C0.891885 6.4 0.756229 6.45619 0.65621 6.55621C0.55619 6.65623 0.5 6.79188 0.5 6.93333L0.5 10.1333C0.5 10.2748 0.55619 10.4104 0.65621 10.5105C0.756229 10.6105 0.891885 10.6667 1.03333 10.6667H3.7V25.6C3.7 26.7765 4.6568 27.7333 5.83333 27.7333C7.00987 27.7333 7.96667 26.7765 7.96667 25.6H9.03333C9.03333 26.7765 9.99013 27.7333 11.1667 27.7333C12.3432 27.7333 13.3 26.7765 13.3 25.6H14.3667C14.3667 26.7765 15.3235 27.7333 16.5 27.7333C17.6765 27.7333 18.6333 26.7765 18.6333 25.6H19.7C19.7 26.7765 20.6568 27.7333 21.8333 27.7333C23.0099 27.7333 23.9667 26.7765 23.9667 25.6H25.0333C25.0333 26.7765 25.9901 27.7333 27.1667 27.7333C28.3432 27.7333 29.3 26.7765 29.3 25.6H31.9667C32.1081 25.6 32.2438 25.5438 32.3438 25.4438C32.4438 25.3438 32.5 25.2081 32.5 25.0667V21.8667C32.5 21.7252 32.4438 21.5896 32.3438 21.4895C32.2438 21.3895 32.1081 21.3333 31.9667 21.3333ZM13.3 10.1333H14.3667V21.3333H13.3V10.1333ZM18.6333 10.1333H19.7V21.3333H18.6333V10.1333ZM23.9667 10.1333H25.0333V21.3333H23.9667V10.1333ZM7.96667 10.1333H9.03333V21.3333H7.96667V10.1333Z" fill="#7EC637"/>
</g>
<defs>
<clipPath id="clip0_96_182">
<rect width="32" height="32" fill="white" transform="translate(0.5)"/>
</clipPath>
</defs>
</svg>
