<svg width="24" height="24" viewBox="0 0 24 24" fill="none" xmlns="http://www.w3.org/2000/svg">
<path d="M17.3085 14.6839L15.578 15.6588C15.3704 15.7757 15.1301 15.8214 14.894 15.789C14.6579 15.7566 14.4389 15.6478 14.2705 15.4792L8.49473 9.70346C8.32628 9.53492 8.21756 9.31592 8.18514 9.07985C8.15272 8.84378 8.19837 8.60359 8.31515 8.39587L9.29004 6.66539C9.46553 6.35394 9.53423 5.9936 9.48567 5.63943C9.4371 5.28526 9.27393 4.95672 9.02108 4.70401L6.42742 2.11035C6.27541 1.95826 6.09491 1.83761 5.89626 1.7553C5.6976 1.67298 5.48467 1.63062 5.26963 1.63062C5.05459 1.63062 4.84166 1.67298 4.64301 1.7553C4.44435 1.83761 4.26385 1.95826 4.11184 2.11035L2.93418 3.28718C2.24553 3.97583 1.80687 4.87494 1.68795 5.84155C1.56904 6.80816 1.77669 7.78678 2.27791 8.6218L2.8688 9.60663C5.88638 14.6358 10.1456 18.8053 15.2379 21.715L15.3546 21.7821C17.0942 22.776 19.2434 22.4864 20.6363 21.0944L21.866 19.8646C22.0181 19.7125 22.1388 19.5321 22.2211 19.3334C22.3034 19.1347 22.3458 18.9218 22.3458 18.7068C22.3458 18.4917 22.3034 18.2788 22.2211 18.0801C22.1388 17.8815 22.0181 17.701 21.866 17.549L19.2707 14.9537C19.0181 14.7005 18.6894 14.537 18.3351 14.4883C17.9807 14.4396 17.6202 14.5083 17.3085 14.6839Z" fill="#CFBCB5"/>
</svg>
