<svg width="80" height="80" viewBox="0 0 80 80" fill="none" xmlns="http://www.w3.org/2000/svg">
<rect x="0.363636" y="0.363636" width="79.2727" height="79.2727" rx="39.6364" fill="url(#paint0_radial_17_515)"/>
<rect x="0.363636" y="0.363636" width="79.2727" height="79.2727" rx="39.6364" stroke="url(#paint1_linear_17_515)" stroke-width="0.727273"/>
<g clip-path="url(#clip0_17_515)">
<path d="M26.1184 47.0006C23.351 44.2328 21.7965 40.4789 21.7969 36.565C21.7972 32.651 23.3524 28.8974 26.1202 26.1301C28.8881 23.3627 32.6419 21.8082 36.5559 21.8086C40.4699 21.8089 44.2234 23.3641 46.9908 26.132C49.3107 28.4171 50.792 31.418 51.1951 34.6494C51.5981 37.8807 50.8994 41.1536 49.2119 43.9386C49.1411 44.0562 49.1112 44.194 49.1269 44.3304C49.1426 44.4669 49.203 44.5942 49.2986 44.6928L56.8406 52.2347C58.349 53.7431 58.6959 55.8285 57.3685 57.1559L57.1385 57.3859C55.8111 58.7133 53.7145 58.3588 52.2174 56.8617L44.6867 49.3235C44.5893 49.2266 44.4629 49.1642 44.3267 49.1458C44.1906 49.1274 44.0521 49.1541 43.9325 49.2217C41.1467 50.9112 37.8723 51.611 34.6393 51.2079C31.4063 50.8048 28.404 49.3224 26.1184 47.0006ZM44.2644 44.278C45.7887 42.7532 46.8268 40.8107 47.2472 38.696C47.6677 36.5813 47.4516 34.3894 46.6264 32.3975C45.8012 30.4056 44.4038 28.7031 42.6111 27.5053C40.8183 26.3075 38.7107 25.6682 36.5546 25.6682C34.3985 25.6682 32.2908 26.3075 30.4981 27.5053C28.7053 28.7031 27.308 30.4056 26.4828 32.3975C25.6575 34.3894 25.4415 36.5813 25.8619 38.696C26.2824 40.8107 27.3204 42.7532 28.8448 44.278C30.8913 46.3194 33.664 47.4658 36.5546 47.4658C39.4452 47.4658 42.2178 46.3194 44.2644 44.278Z" fill="url(#paint2_linear_17_515)"/>
<path d="M43.3216 35.6914C43.5743 35.6951 43.8238 35.6353 44.0473 35.5174C44.2709 35.3995 44.4612 35.2274 44.6008 35.0168C44.7405 34.8062 44.825 34.5639 44.8466 34.3121C44.8682 34.0604 44.8262 33.8072 44.7244 33.5759C43.7318 31.234 41.85 29.3819 39.4926 28.4266C37.1351 27.4714 34.4949 27.491 32.152 28.4813C31.7799 28.6388 31.4857 28.9377 31.334 29.3121C31.1823 29.6866 31.1856 30.106 31.3431 30.478C31.5006 30.8501 31.7995 31.1443 32.1739 31.296C32.5484 31.4477 32.9678 31.4444 33.3398 31.2869C34.9382 30.6114 36.7393 30.5977 38.3477 31.2489C39.9562 31.9 41.2405 33.1628 41.9188 34.76C42.0335 35.0371 42.2283 35.2738 42.4782 35.4397C42.728 35.6056 43.0217 35.6932 43.3216 35.6914Z" fill="url(#paint3_linear_17_515)"/>
</g>
<defs>
<radialGradient id="paint0_radial_17_515" cx="0" cy="0" r="1" gradientUnits="userSpaceOnUse" gradientTransform="translate(40 70.7273) rotate(-90) scale(70.9091 117.348)">
<stop stop-color="white"/>
<stop offset="1" stop-color="#EDF0F4"/>
</radialGradient>
<linearGradient id="paint1_linear_17_515" x1="40" y1="0" x2="40" y2="80" gradientUnits="userSpaceOnUse">
<stop stop-color="#E6ECF2"/>
<stop offset="1" stop-color="#F7F8FB"/>
</linearGradient>
<linearGradient id="paint2_linear_17_515" x1="39.995" y1="21.6721" x2="39.995" y2="51.8384" gradientUnits="userSpaceOnUse">
<stop stop-color="#64A821"/>
<stop offset="1" stop-color="#7EC637"/>
</linearGradient>
<linearGradient id="paint3_linear_17_515" x1="39.995" y1="21.6721" x2="39.995" y2="51.8384" gradientUnits="userSpaceOnUse">
<stop stop-color="#64A821"/>
<stop offset="1" stop-color="#7EC637"/>
</linearGradient>
<clipPath id="clip0_17_515">
<rect width="36.3636" height="36.3636" fill="white" transform="translate(21.8184 21.8181)"/>
</clipPath>
</defs>
</svg>
