<svg width="24" height="24" viewBox="0 0 24 24" fill="none" xmlns="http://www.w3.org/2000/svg">
<path d="M17.4899 8.51627C18.226 7.80289 18.9567 6.13835 15.8898 8.15958C13.0248 10.0705 10.1404 11.954 7.23707 13.8097C6.79496 14.0035 6.31699 14.1086 5.83189 14.1188C5.34679 14.1291 4.86456 14.0441 4.41417 13.8692C2.57402 13.3341 0.425847 12.6208 0.425847 12.6208C0.425847 12.6208 -1.04094 11.7277 1.46993 10.7766C1.46993 10.7766 12.0855 6.55448 15.7671 5.06699C17.1779 4.47251 21.9636 2.57017 21.9636 2.57017C21.9636 2.57017 24.1731 1.73661 23.9891 3.75913C23.9278 4.59141 23.4371 7.50694 22.9464 10.6577C22.209 15.1176 21.4116 19.9949 21.4116 19.9949C21.4116 19.9949 21.2889 21.3622 20.2461 21.6C19.1299 21.5817 18.0514 21.2054 17.1792 20.5299C16.9339 20.3516 12.5775 17.6751 10.9814 16.3673C10.819 16.2607 10.6871 16.116 10.5979 15.9467C10.5087 15.7775 10.4652 15.5891 10.4713 15.3991C10.4774 15.2091 10.533 15.0237 10.6329 14.8602C10.7328 14.6966 10.8738 14.5602 11.0427 14.4636C13.2319 12.5224 15.3814 10.5396 17.4899 8.51627Z" fill="#CFBCB5"/>
</svg>
