<svg width="24" height="24" viewBox="0 0 24 24" fill="none" xmlns="http://www.w3.org/2000/svg">
<g clip-path="url(#clip0_1_222)">
<path fill-rule="evenodd" clip-rule="evenodd" d="M5.40243 22.0132C7.30604 23.2611 9.56688 24 12.0053 24C18.6178 24 24 18.5989 24 11.98C24 11.6904 24 11.3709 23.9801 11.0516C23.4947 4.8818 18.31 0 12.0053 0C5.79943 0 0.664243 4.75197 0.0792683 10.8319C0.0296466 11.2213 0 11.5906 0 11.98C0 14.6056 0.852726 17.0616 2.29022 19.0182L0.803075 23.4809L5.40243 22.0132ZM15.8258 13.6558C15.842 13.6603 15.8584 13.665 15.8752 13.6696C15.8752 13.6718 15.9916 13.7305 16.1778 13.8246C16.907 14.1929 18.708 15.1027 18.7992 15.276C18.8953 15.4313 18.8953 16.1673 18.6178 17.0066C18.3312 17.8771 16.9457 18.6858 16.3432 18.7373C16.237 18.7463 16.1493 18.7684 16.0588 18.7912C15.6276 18.8999 15.133 19.0246 12.2819 17.8256C9.0492 16.4581 6.94448 13.029 6.57708 12.4304C6.55463 12.3938 6.53866 12.3678 6.52933 12.3535C6.52111 12.3409 6.50971 12.324 6.49548 12.3028C6.3099 12.027 5.64473 11.0384 5.33429 9.83514C5.21983 9.45173 5.14292 9.01635 5.14292 8.61218C5.14292 6.59141 6.02199 5.15087 7.89558 5.15087C7.9172 5.15087 7.94032 5.1491 7.96474 5.14723C8.14513 5.13342 8.39662 5.11417 8.64099 5.76229C8.89176 6.38799 9.44262 7.84677 9.62121 8.31973C9.64673 8.38731 9.66465 8.43476 9.673 8.45678C9.76827 8.63297 9.81587 8.84022 9.70141 9.08898C9.57626 9.36395 9.37297 9.62249 9.17906 9.86909C8.83949 10.3009 8.52872 10.6962 8.717 11.0788C8.89922 11.4311 9.58692 12.6022 10.5906 13.5764C11.7049 14.6505 12.6622 15.083 13.1302 15.2944C13.2041 15.3278 13.2657 15.3557 13.3139 15.3797C14.0008 15.7522 14.7058 14.5399 15.0611 13.929C15.0715 13.9111 15.0816 13.8938 15.0913 13.877C15.3184 13.5127 15.519 13.5692 15.8258 13.6558Z" fill="#CFBCB5"/>
</g>
<defs>
<clipPath id="clip0_1_222">
<rect width="24" height="24" fill="white"/>
</clipPath>
</defs>
</svg>
