<svg width="24" height="24" viewBox="0 0 24 24" fill="none" xmlns="http://www.w3.org/2000/svg">
<g clip-path="url(#clip0_135_1214)">
<path d="M21.2893 2.33643C20.6619 1.79154 18.1209 0.0398974 12.4621 0.0169021C12.4621 0.0169021 5.78475 -0.36202 2.53202 2.4684C0.722724 4.18405 0.0890473 6.69653 0.0162958 9.81289C-0.0564557 12.9292 -0.137642 18.7701 5.79951 20.3577H5.80479L5.79951 22.7762C5.79951 22.7762 5.7605 23.756 6.43952 23.953C7.25982 24.1969 7.74483 23.4511 8.53033 22.6493C8.96051 22.2083 9.55307 21.5625 10.0033 21.0696C10.6359 21.1286 11.3697 21.1616 12.1131 21.1616C14.0394 21.1616 15.9109 20.9366 17.6991 20.5127L17.541 20.5447C18.3613 20.2917 23.0026 19.7289 23.7533 13.8891C24.5378 7.86029 23.3801 4.05707 21.2893 2.33643ZM21.9767 13.4491C21.3367 18.3231 17.5768 18.6331 16.8852 18.843C15.3753 19.207 13.6419 19.4149 11.8569 19.4149C11.3444 19.4149 10.8362 19.3979 10.3333 19.3639L10.4008 19.3679C10.4008 19.3679 7.83023 22.3063 7.02996 23.0702C6.76848 23.3181 6.48064 23.2981 6.48591 22.8032C6.48591 22.4803 6.50594 18.786 6.50594 18.786C1.47976 17.4643 1.77077 12.4893 1.82981 9.89087C1.88886 7.29241 2.40339 5.15685 3.93539 3.72314C6.6894 1.35663 12.3587 1.70755 12.3587 1.70755C17.1487 1.72655 19.442 3.09527 19.9755 3.55418C21.7405 4.98888 22.6399 8.42118 21.9767 13.4491ZM15.1117 9.66192V9.67592C15.1117 9.84388 14.9683 9.97986 14.7912 9.97986C14.6193 9.97986 14.4791 9.85188 14.4717 9.69091C14.4759 9.64892 14.4791 9.59793 14.4791 9.54894C14.4791 8.74811 13.7948 8.09924 12.9502 8.09924C12.9186 8.09924 12.887 8.10024 12.8564 8.10224H12.8606C12.6909 8.09324 12.557 7.96127 12.557 7.7993C12.557 7.63134 12.7004 7.49537 12.8775 7.49537H12.8954H12.8944C12.9155 7.49437 12.9418 7.49437 12.9671 7.49437C14.1543 7.49437 15.1159 8.40618 15.1159 9.53195C15.1159 9.57794 15.1138 9.62393 15.1107 9.66892V9.66292L15.1117 9.66192ZM16.1144 10.1928C16.164 8.20522 14.8544 6.64954 12.3682 6.47558C12.2006 6.46458 12.0698 6.3326 12.0698 6.17264C12.0698 6.00467 12.2132 5.8687 12.3904 5.8687C12.3978 5.8687 12.4062 5.8687 12.4136 5.8697H12.4125H12.4304C14.8207 5.8697 16.7597 7.70732 16.7597 9.97486C16.7597 10.0558 16.7576 10.1368 16.7523 10.2168L16.7534 10.2058C16.7491 10.3708 16.6079 10.5017 16.4339 10.5017C16.2568 10.5017 16.1134 10.3658 16.1134 10.1978C16.1134 10.1948 16.1134 10.1928 16.1134 10.1898L16.1144 10.1928ZM18.434 10.8217V10.8237C18.434 10.9916 18.2906 11.1276 18.1135 11.1276C17.9364 11.1276 17.7951 10.9926 17.794 10.8267C17.7687 7.00547 15.0811 4.92489 11.8242 4.9029C11.647 4.9029 11.5047 4.76693 11.5047 4.59996C11.5047 4.43299 11.6481 4.29702 11.8242 4.29702C15.4712 4.32102 18.4024 6.70753 18.4319 10.8207L18.434 10.8217ZM17.8805 15.4187V15.4277C17.347 16.3186 16.3485 17.3024 15.3205 16.9884L15.311 16.9744C13.3794 16.2906 11.7093 15.3967 10.2173 14.296L10.2606 14.326C9.47715 13.7341 8.78865 13.0812 8.1845 12.3634L8.16446 12.3384C7.62779 11.7005 7.12486 10.9866 6.68624 10.2328L6.64406 10.1538C6.16222 9.40797 5.72676 8.54615 5.3862 7.64134L5.35457 7.54336C5.0235 6.56856 6.05573 5.62175 7.00044 5.11585H7.00993C7.147 5.03287 7.31359 4.98288 7.49283 4.98288C7.77435 4.98288 8.02529 5.10586 8.19082 5.29682L8.19188 5.29882C8.19188 5.29882 8.80447 5.99167 9.067 6.3346C9.31373 6.65354 9.64585 7.16443 9.81772 7.44938C9.91683 7.59635 9.97482 7.77631 9.97482 7.96927C9.97482 8.25721 9.84408 8.51616 9.63531 8.69512L9.63426 8.69612L9.0417 9.14603C8.87827 9.296 8.77705 9.50595 8.77705 9.7379C8.77705 9.7609 8.77811 9.7829 8.78022 9.80489V9.80189C9.3907 11.7045 10.9396 13.1732 12.9028 13.7421L12.9471 13.7531C12.9671 13.7551 12.9914 13.7561 13.0146 13.7561C13.2592 13.7561 13.4806 13.6601 13.6388 13.5061L14.1132 12.9442C14.303 12.7453 14.5761 12.6213 14.8797 12.6213C15.0832 12.6213 15.272 12.6773 15.4322 12.7733L15.428 12.7713C16.2852 13.2342 17.0264 13.7431 17.7023 14.32L17.6907 14.31C17.8931 14.4639 18.0207 14.6989 18.0207 14.9618C18.0207 15.1308 17.968 15.2878 17.8763 15.4197L17.8784 15.4167L17.8805 15.4187Z" fill="#CFBCB5"/>
</g>
<defs>
<clipPath id="clip0_135_1214">
<rect width="24" height="24" fill="white"/>
</clipPath>
</defs>
</svg>
