<svg width="24" height="24" viewBox="0 0 24 24" fill="none" xmlns="http://www.w3.org/2000/svg">
<path d="M23.9945 9.52085C24.0484 7.96633 23.7071 6.42343 23.0024 5.03543C22.5242 4.4659 21.8606 4.08156 21.1272 3.94937C18.0937 3.67517 15.0476 3.56278 12.002 3.61269C8.96757 3.56052 5.93246 3.66928 2.9096 3.93851C2.31196 4.04681 1.75889 4.32606 1.31788 4.7422C0.336678 5.64362 0.227656 7.18583 0.118633 8.4891C-0.0395445 10.8323 -0.0395445 13.1835 0.118633 15.5268C0.150174 16.2603 0.25981 16.9884 0.4457 17.6989C0.577153 18.2474 0.84311 18.7549 1.21976 19.1759C1.66377 19.6141 2.22972 19.9092 2.84419 20.023C5.19461 20.3121 7.5629 20.4318 9.93062 20.3814C13.7464 20.4357 17.0934 20.3814 21.0509 20.0773C21.6804 19.9705 22.2623 19.675 22.7189 19.2302C23.0241 18.926 23.2521 18.5537 23.384 18.1442C23.7738 16.9523 23.9653 15.705 23.9509 14.4516C23.9945 13.8434 23.9945 10.1725 23.9945 9.52085ZM9.53814 15.1032V8.38049L15.9923 11.7581C14.1825 12.7573 11.7949 13.8868 9.53814 15.1032Z" fill="#CFBCB5"/>
</svg>
