<svg width="40" height="40" viewBox="0 0 40 40" fill="none" xmlns="http://www.w3.org/2000/svg">
<g clip-path="url(#clip0_1124_1830)">
<path d="M17.4609 0.117111C13.8515 0.585861 10.5468 1.96867 7.65622 4.20305C6.74216 4.91399 5.18747 6.44524 4.42966 7.38274C2.27341 10.0546 0.843723 13.2109 0.234348 16.6484C0.0155979 17.8671 -0.0703396 20.7968 0.0702854 22.1327C0.71091 28.1171 4.0156 33.4999 9.10153 36.8202C11.6328 38.4687 14.4843 39.5077 17.5781 39.8905C18.7656 40.039 21.2656 40.0312 22.5 39.8827C31.5625 38.7577 38.7578 31.5624 39.8828 22.4999C40.039 21.2343 40.039 18.7655 39.8828 17.4999C39.164 11.6874 35.9062 6.47649 30.9765 3.2343C28.4062 1.5468 25.5468 0.499924 22.5 0.117111C21.3125 -0.0235138 18.5859 -0.0235138 17.4609 0.117111ZM12.8672 8.75774C13.4843 8.99211 14.0625 9.56242 14.2968 10.1952C14.625 11.0859 14.3984 12.1562 13.7343 12.789C13.2656 13.2421 12.6953 13.4609 11.9375 13.4999C11.1172 13.539 10.5859 13.3984 10.0312 12.9765C8.49997 11.8202 8.89841 9.37492 10.7187 8.74211C11.3125 8.53899 12.2812 8.5468 12.8672 8.75774ZM27.5312 15.4296C28.4297 15.6171 29.3125 16.1015 29.9687 16.7577C30.4375 17.2265 30.6015 17.4687 30.9218 18.1327C31.6718 19.6796 31.7187 20.1562 31.7187 25.7577V30.2343H29.3437H26.9609L26.9297 25.8359C26.8984 21.0624 26.8906 20.9921 26.4453 20.164C26 19.3515 25.3125 19.0155 24.2265 19.078C23.2422 19.1405 22.4687 19.6718 21.9765 20.6249L21.7578 21.0546L21.7343 25.6405L21.7109 30.2343H19.3359H16.9531V22.9296V15.6249H19.3359H21.7187V16.6405C21.7187 17.1952 21.7422 17.6562 21.7812 17.6562C21.8125 17.6562 21.9531 17.4765 22.1015 17.2577C22.664 16.4374 23.7187 15.7109 24.7656 15.4374C25.3281 15.289 26.8437 15.2812 27.5312 15.4296ZM14.1406 22.9296V30.2343H11.7578H9.37497V22.9296V15.6249H11.7578H14.1406V22.9296Z" fill="white"/>
</g>
<defs>
<clipPath id="clip0_1124_1830">
<rect width="40" height="40" fill="white"/>
</clipPath>
</defs>
</svg>
