<svg width="41" height="40" viewBox="0 0 41 40" fill="none" xmlns="http://www.w3.org/2000/svg">
<g clip-path="url(#clip0_1124_1833)">
<path d="M17.998 0.117111C14.3886 0.585861 11.084 1.96867 8.19333 4.20305C7.27927 4.91399 5.72458 6.44524 4.96677 7.38274C2.81052 10.0546 1.38083 13.2109 0.771457 16.6484C0.552707 17.8671 0.46677 20.7968 0.607395 22.1327C1.24802 28.1171 4.55271 33.4999 9.63864 36.8202C12.1699 38.4687 15.0215 39.5077 18.1152 39.8905C19.3027 40.039 21.8027 40.0312 23.0371 39.8827C32.0996 38.7577 39.2949 31.5624 40.4199 22.4999C40.5761 21.2343 40.5761 18.7655 40.4199 17.4999C39.7011 11.6874 36.4433 6.47649 31.5136 3.2343C28.9433 1.5468 26.084 0.499924 23.0371 0.117111C21.8496 -0.0235138 19.123 -0.0235138 17.998 0.117111ZM25.7402 8.6718C26.8965 8.77336 27.6855 8.9843 28.584 9.42961C29.209 9.7343 29.4355 9.90617 30.0371 10.4999C30.6308 11.1015 30.8027 11.328 31.1074 11.953C31.9043 13.5624 31.9668 14.2265 31.9199 20.6249C31.8965 25.2734 31.8808 25.6327 31.7324 26.2968C31.1621 28.7968 29.5761 30.4921 27.2324 31.0859C26.1543 31.3671 25.123 31.414 20.5371 31.414C14.7793 31.414 14.0449 31.3359 12.4902 30.5702C11.8652 30.2655 11.6386 30.0937 11.0371 29.4999C10.4433 28.8984 10.2715 28.6718 9.96677 28.0468C9.20114 26.4921 9.13083 25.8124 9.13083 19.9999C9.13083 14.1874 9.20114 13.5077 9.96677 11.953C10.2715 11.328 10.4355 11.1015 11.0371 10.5077C12.0136 9.53899 12.8886 9.08586 14.3886 8.78117C15.4746 8.56242 23.5605 8.4843 25.7402 8.6718Z" fill="white"/>
<path d="M15.7324 10.6247C14.1777 10.7341 13.1855 11.1091 12.4043 11.8904C11.623 12.6794 11.2871 13.6013 11.1621 15.2966C11.0684 16.5857 11.0684 23.4138 11.1621 24.7029C11.2871 26.3904 11.6309 27.3279 12.4199 28.1169C13.248 28.9529 14.1309 29.2497 16.084 29.3826C17.748 29.4919 25.4355 29.4294 26.1543 29.3044C28.3027 28.9138 29.4512 27.7654 29.8418 25.6169C29.9668 24.8982 30.0293 17.2107 29.9199 15.5466C29.7871 13.5701 29.498 12.7185 28.6543 11.8826C27.8496 11.0779 26.9355 10.7419 25.1934 10.6247C23.9902 10.5388 16.9746 10.5466 15.7324 10.6247ZM27.2637 12.7029C27.7637 12.9607 28.0996 13.6482 27.959 14.1326C27.6543 15.2107 26.5059 15.5466 25.748 14.7888C24.6934 13.7341 25.9355 12.0232 27.2637 12.7029ZM22.1387 14.3747C23.1621 14.6951 23.8652 15.1247 24.6387 15.8982C25.4199 16.6794 25.8418 17.3747 26.1699 18.4372C26.4355 19.281 26.4355 20.7185 26.1699 21.5622C25.8418 22.6247 25.4199 23.3201 24.6387 24.1013C23.8574 24.8826 23.1621 25.3044 22.0996 25.6326C21.2559 25.8982 19.8184 25.8982 18.9746 25.6326C17.9121 25.3044 17.2168 24.8826 16.4355 24.1013C15.6543 23.3201 15.2324 22.6247 14.9043 21.5622C14.6387 20.7185 14.6387 19.281 14.9043 18.4372C15.498 16.5076 16.9434 15.0232 18.8027 14.4138C19.4746 14.1951 19.9043 14.1482 20.7715 14.1794C21.3184 14.1951 21.7715 14.2654 22.1387 14.3747Z" fill="white"/>
<path d="M19.3105 16.3281C18.2871 16.6641 17.3418 17.5547 16.9355 18.5703C16.7793 18.9609 16.748 19.1562 16.748 20C16.748 20.8359 16.7793 21.0391 16.9277 21.4219C17.3105 22.3672 18.1699 23.2266 19.1152 23.6094C19.498 23.7578 19.7012 23.7891 20.5371 23.7891C21.373 23.7891 21.5762 23.7578 21.959 23.6094C22.9043 23.2266 23.7637 22.3672 24.1465 21.4219C24.2949 21.0391 24.3262 20.8359 24.3262 20C24.3262 19.1641 24.2949 18.9609 24.1465 18.5781C23.7637 17.6328 22.8965 16.7656 21.959 16.3984C21.3105 16.1406 19.9902 16.1094 19.3105 16.3281Z" fill="white"/>
</g>
<defs>
<clipPath id="clip0_1124_1833">
<rect width="40" height="40" fill="white" transform="translate(0.537109)"/>
</clipPath>
</defs>
</svg>
