<svg width="143" height="143" viewBox="0 0 143 143" fill="none" xmlns="http://www.w3.org/2000/svg">
<path d="M107.708 9.84612C92.7255 1.04689 75.0511 -1.99525 57.9885 1.28824C40.926 4.57174 25.6429 13.9562 14.9958 27.6876C4.3487 41.419 -0.933829 58.5577 0.135537 75.9004C1.2049 93.2431 8.55298 109.603 20.8064 121.922C33.0598 134.242 49.38 141.677 66.7167 142.84C84.0535 144.002 101.22 138.812 115.009 128.238C128.797 117.665 138.263 102.433 141.638 85.388C145.013 68.3433 142.066 50.6528 133.347 35.6229L132.754 35.9669C141.39 50.8527 144.309 68.3736 140.966 85.2549C137.623 102.136 128.248 117.223 114.591 127.695C100.935 138.166 83.9331 143.307 66.7626 142.156C49.5921 141.005 33.4283 133.64 21.2924 121.439C9.15639 109.238 1.87876 93.0347 0.819648 75.8582C-0.239468 58.6818 4.99242 41.7074 15.5375 28.1076C26.0825 14.5078 41.2191 5.21333 58.1181 1.9613C75.0171 -1.29072 92.522 1.72227 107.361 10.4371L107.708 9.84612Z" fill="#5077FC"/>
</svg>
