<svg width="35" height="35" viewBox="0 0 35 35" fill="none" xmlns="http://www.w3.org/2000/svg">
<path d="M7.29167 10.2083C8.90247 10.2083 10.2083 8.90247 10.2083 7.29167C10.2083 5.68084 8.90247 4.375 7.29167 4.375C5.68084 4.375 4.375 5.68084 4.375 7.29167C4.375 8.90247 5.68084 10.2083 7.29167 10.2083Z" fill="white" fill-opacity="0.9"/>
<path d="M17.5 10.2083C19.1108 10.2083 20.4167 8.90247 20.4167 7.29167C20.4167 5.68084 19.1108 4.375 17.5 4.375C15.8892 4.375 14.5834 5.68084 14.5834 7.29167C14.5834 8.90247 15.8892 10.2083 17.5 10.2083Z" fill="white" fill-opacity="0.9"/>
<path d="M27.7083 10.2083C29.3191 10.2083 30.625 8.90247 30.625 7.29167C30.625 5.68084 29.3191 4.375 27.7083 4.375C26.0975 4.375 24.7916 5.68084 24.7916 7.29167C24.7916 8.90247 26.0975 10.2083 27.7083 10.2083Z" fill="white" fill-opacity="0.9"/>
<path d="M7.29167 20.4167C8.90247 20.4167 10.2083 19.1108 10.2083 17.5C10.2083 15.8892 8.90247 14.5833 7.29167 14.5833C5.68084 14.5833 4.375 15.8892 4.375 17.5C4.375 19.1108 5.68084 20.4167 7.29167 20.4167Z" fill="white" fill-opacity="0.9"/>
<path d="M17.5 20.4167C19.1108 20.4167 20.4167 19.1108 20.4167 17.5C20.4167 15.8892 19.1108 14.5833 17.5 14.5833C15.8892 14.5833 14.5834 15.8892 14.5834 17.5C14.5834 19.1108 15.8892 20.4167 17.5 20.4167Z" fill="white" fill-opacity="0.9"/>
<path d="M27.7083 20.4167C29.3191 20.4167 30.625 19.1108 30.625 17.5C30.625 15.8892 29.3191 14.5833 27.7083 14.5833C26.0975 14.5833 24.7916 15.8892 24.7916 17.5C24.7916 19.1108 26.0975 20.4167 27.7083 20.4167Z" fill="white" fill-opacity="0.9"/>
<path d="M7.29167 30.625C8.90247 30.625 10.2083 29.3191 10.2083 27.7083C10.2083 26.0975 8.90247 24.7917 7.29167 24.7917C5.68084 24.7917 4.375 26.0975 4.375 27.7083C4.375 29.3191 5.68084 30.625 7.29167 30.625Z" fill="white" fill-opacity="0.9"/>
<path d="M17.5 30.625C19.1108 30.625 20.4167 29.3191 20.4167 27.7083C20.4167 26.0975 19.1108 24.7917 17.5 24.7917C15.8892 24.7917 14.5834 26.0975 14.5834 27.7083C14.5834 29.3191 15.8892 30.625 17.5 30.625Z" fill="white" fill-opacity="0.9"/>
<path d="M27.7083 30.625C29.3191 30.625 30.625 29.3191 30.625 27.7083C30.625 26.0975 29.3191 24.7917 27.7083 24.7917C26.0975 24.7917 24.7916 26.0975 24.7916 27.7083C24.7916 29.3191 26.0975 30.625 27.7083 30.625Z" fill="white" fill-opacity="0.9"/>
</svg>
