<svg width="16" height="30" viewBox="0 0 16 30" fill="none" xmlns="http://www.w3.org/2000/svg">
<path d="M13.1669 29.583C13.6537 29.584 14.1254 29.4145 14.5002 29.1039C14.7112 28.929 14.8856 28.7142 15.0134 28.4718C15.1412 28.2294 15.2199 27.9642 15.2451 27.6913C15.2703 27.4185 15.2413 27.1433 15.16 26.8816C15.0787 26.62 14.9465 26.3769 14.7711 26.1664L5.43774 14.9997L14.4377 3.81221C14.6108 3.59911 14.74 3.35391 14.818 3.09071C14.896 2.8275 14.9212 2.55148 14.8921 2.2785C14.8631 2.00552 14.7804 1.74098 14.6488 1.50007C14.5172 1.25916 14.3393 1.04664 14.1252 0.874713C13.9097 0.685054 13.6573 0.541997 13.3838 0.454519C13.1103 0.367042 12.8217 0.337035 12.5361 0.366378C12.2505 0.395722 11.9741 0.483783 11.7241 0.625037C11.4741 0.766291 11.2561 0.957687 11.0836 1.18721L1.02107 13.6872C0.714653 14.06 0.547141 14.5276 0.547141 15.0101C0.547141 15.4927 0.714653 15.9603 1.02107 16.333L11.4377 28.833C11.6467 29.0852 11.9122 29.2845 12.2127 29.4148C12.5131 29.5451 12.84 29.6027 13.1669 29.583Z" fill="#5077FC"/>
</svg>
