<svg width="16" height="30" viewBox="0 0 16 30" fill="none" xmlns="http://www.w3.org/2000/svg">
<path d="M2.83309 29.583C2.34632 29.584 1.87458 29.4145 1.49976 29.1039C1.2888 28.929 1.11443 28.7142 0.98661 28.4718C0.858793 28.2294 0.780051 27.9642 0.754893 27.6913C0.729734 27.4185 0.758655 27.1433 0.839998 26.8816C0.921341 26.62 1.05351 26.3769 1.22893 26.1664L10.5623 14.9997L1.56226 3.81221C1.38921 3.59911 1.25997 3.35391 1.18199 3.09071C1.10401 2.8275 1.07881 2.55148 1.10785 2.2785C1.13689 2.00552 1.2196 1.74098 1.35121 1.50007C1.48282 1.25916 1.66075 1.04664 1.87476 0.874713C2.09031 0.685054 2.34274 0.541997 2.61621 0.454519C2.88967 0.367042 3.17826 0.337035 3.46387 0.366378C3.74948 0.395722 4.02595 0.483783 4.27591 0.625037C4.52587 0.766291 4.74394 0.957687 4.91643 1.18721L14.9789 13.6872C15.2853 14.06 15.4529 14.5276 15.4529 15.0101C15.4529 15.4927 15.2853 15.9603 14.9789 16.333L4.56226 28.833C4.35327 29.0852 4.08778 29.2845 3.78734 29.4148C3.48691 29.5451 3.15998 29.6027 2.83309 29.583Z" fill="#5077FC"/>
</svg>
