<svg width="45" height="49" viewBox="0 0 45 49" fill="none" xmlns="http://www.w3.org/2000/svg">
<path fill-rule="evenodd" clip-rule="evenodd" d="M26.5 3.0718L39 10.2887C41.4752 11.7177 43 14.3588 43 17.2169V31.6506C43 34.5088 41.4752 37.1498 39 38.5788L26.5 45.7957C24.0248 47.2248 20.9752 47.2248 18.5 45.7957L6 38.5788C3.52479 37.1498 2 34.5088 2 31.6506V17.2169C2 14.3588 3.52479 11.7177 6 10.2887L18.5 3.0718C20.9752 1.64273 24.0248 1.64273 26.5 3.0718ZM17.5 1.33975C20.594 -0.446583 24.406 -0.446581 27.5 1.33975L40 8.55663C43.094 10.343 45 13.6442 45 17.2169V31.6506C45 35.2233 43.094 38.5246 40 40.3109L27.5 47.5278C24.406 49.3141 20.594 49.3141 17.5 47.5278L5 40.3109C1.90599 38.5246 0 35.2233 0 31.6506V17.2169C0 13.6442 1.90599 10.343 5 8.55663L17.5 1.33975ZM31.152 24.4353C31.152 29.024 27.3252 32.8276 22.4999 32.8276C17.6746 32.8276 13.8478 29.024 13.8478 24.4353C13.8478 19.8467 17.6746 16.043 22.4999 16.043C27.3252 16.043 31.152 19.8467 31.152 24.4353ZM33.152 24.4353C33.152 30.1749 28.3829 34.8276 22.4999 34.8276C16.6169 34.8276 11.8478 30.1749 11.8478 24.4353C11.8478 18.6958 16.6169 14.043 22.4999 14.043C28.3829 14.043 33.152 18.6958 33.152 24.4353Z" fill="#5077FC"/>
</svg>
