<svg width="39" height="46" viewBox="0 0 39 46" fill="none" xmlns="http://www.w3.org/2000/svg">
<path fill-rule="evenodd" clip-rule="evenodd" d="M19.2858 28.372C21.0295 28.372 22.3582 27.0056 22.3582 25.4233C22.3582 23.8411 21.0295 22.4746 19.2858 22.4746C17.5421 22.4746 16.2134 23.8411 16.2134 25.4233C16.2134 27.0056 17.5421 28.372 19.2858 28.372ZM19.2858 30.372C22.0872 30.372 24.3582 28.1564 24.3582 25.4233C24.3582 22.6902 22.0872 20.4746 19.2858 20.4746C16.4844 20.4746 14.2134 22.6902 14.2134 25.4233C14.2134 28.1564 16.4844 30.372 19.2858 30.372Z" fill="#5077FC"/>
<path d="M2.0572 16.8362L2.93996 17.2777C1.8086 19.5398 1.17686 21.9057 1.0169 24.4935C0.984546 25.017 1.00167 26.632 1.04146 27.0517L0.045922 27.1461L1.04146 27.0517C1.17572 28.4684 1.37753 29.555 1.72738 30.7673C3.34326 36.3664 7.65524 40.9731 13.1484 42.9659C14.7827 43.5588 16.4511 43.9125 18.2424 44.0435C20.4271 44.2034 22.8228 43.9258 24.9832 43.2587L25.2782 44.2142L24.9832 43.2587C30.8903 41.4346 35.5663 36.6796 37.2726 30.7673C37.6249 29.5466 37.8233 28.4781 37.9585 27.0517C37.9983 26.632 38.0155 25.017 37.9831 24.4935C37.8234 21.9105 37.1894 19.5339 36.065 17.2872L36.9592 16.8396L36.0649 17.2872C35.3262 15.8111 34.5054 14.5965 33.3187 13.2333C33.3199 13.2346 33.2813 13.1932 33.1749 13.0837C33.0797 12.9856 32.9483 12.8515 32.7852 12.6859C32.4593 12.3548 32.011 11.902 31.4806 11.3677C30.42 10.2993 29.034 8.90804 27.6482 7.52023C26.2624 6.13241 24.8775 4.74868 23.8194 3.69528C23.2903 3.16845 22.8436 2.72501 22.5196 2.40522C22.3574 2.24515 22.2272 2.11728 22.1333 2.02587C22.076 1.97017 22.0407 1.93641 22.0219 1.91842C22.0044 1.9016 22.0012 1.89855 22.0079 1.90423C21.5008 1.47571 20.8992 1.18534 20.2203 1.04833L20.2202 1.04831C20.0771 1.01943 19.984 1.00726 19.5669 1.00188L19.5669 1.00188C19.4225 1.00001 19.284 0.999595 19.1785 1.00037C19.1265 1.00076 19.086 1.0014 19.0582 1.00215C18.2032 1.13291 17.5606 1.42384 16.9921 1.90423M2.0572 16.8362L16.9921 1.90427L16.9921 1.90423M2.0572 16.8362L2.93996 17.2777C3.67166 15.8147 4.49732 14.5934 5.68127 13.2333C5.68114 13.2335 5.68187 13.2327 5.68357 13.2309M2.0572 16.8362L5.68357 13.2309M16.9921 1.90423C16.9988 1.89855 16.9956 1.9016 16.9781 1.91842M16.9921 1.90423L16.9781 1.91842M30.2332 20.9878L30.2332 20.9878C30.2436 21.0906 30.2475 21.3193 30.2507 21.5524C30.2544 21.8173 30.2574 22.1729 30.2598 22.5875C30.2646 23.4173 30.267 24.4906 30.267 25.5629C30.267 26.6352 30.2646 27.7082 30.2598 28.5372C30.2574 28.9515 30.2544 29.3066 30.2507 29.571C30.2475 29.8027 30.2436 30.0321 30.233 30.1352C30.1479 30.9651 29.7826 31.723 29.1762 32.2933C28.8965 32.5564 28.6276 32.722 28.0613 33.0474C27.8063 33.1939 26.7836 33.784 25.788 34.3591C25.5529 34.4949 25.3291 34.6242 25.1161 34.7472C23.0291 35.9528 21.9753 36.5616 21.4119 36.8766C21.1086 37.0462 20.9133 37.1502 20.7638 37.2168C20.6028 37.2884 20.4809 37.3205 20.4186 37.3368C20.4091 37.3394 20.401 37.3415 20.3943 37.3434C20.3943 37.3434 20.3943 37.3434 20.3943 37.3434L20.1254 36.3802L30.2332 20.9878ZM30.2332 20.9878C30.1416 20.081 29.6628 19.1874 28.9414 18.631L30.2332 20.9878ZM8.76676 20.9878L8.76677 20.9878C8.83928 20.2699 9.14888 19.567 9.63204 19.0316L8.76676 20.9878ZM8.76676 20.9878C8.75638 21.0906 8.75245 21.3193 8.74925 21.5524M8.76676 20.9878L8.74925 21.5524M11.6829 17.653L11.6829 17.6529C12.5605 17.1474 13.1307 16.8183 15.5937 15.396L16.0938 16.2619L15.5937 15.396C16.7625 14.721 17.3744 14.3679 17.7193 14.176C18.0719 13.9798 18.2077 13.9162 18.407 13.851L18.4071 13.851C18.8388 13.7098 19.1188 13.6777 19.5921 13.6899L19.5922 13.6899C19.9462 13.6989 20.1504 13.7185 20.4601 13.8112M11.6829 17.653L20.546 14.9089L20.9963 14.0161C20.8467 13.9406 20.617 13.8581 20.4601 13.8112M11.6829 17.653C10.9415 18.08 10.5215 18.3222 10.2609 18.4926M11.6829 17.653L10.2609 18.4926M20.4601 13.8112L20.1734 14.7692L20.4598 13.8111C20.4599 13.8111 20.46 13.8111 20.4601 13.8112ZM5.68357 13.2309C5.69331 13.2206 5.73471 13.1767 5.82507 13.0837M5.68357 13.2309L5.82507 13.0837M5.82507 13.0837C5.92032 12.9856 6.05167 12.8515 6.21477 12.6859M5.82507 13.0837L6.21477 12.6859M6.21477 12.6859C6.54068 12.3548 6.98896 11.902 7.51937 11.3677M6.21477 12.6859L7.51937 11.3677M7.51937 11.3677C8.57996 10.2993 9.96603 8.90804 11.3518 7.52023M7.51937 11.3677L11.3518 7.52023M11.3518 7.52023C12.7376 6.13241 14.1225 4.74868 15.1806 3.69528M11.3518 7.52023L15.1806 3.69528M15.1806 3.69528C15.7097 3.16845 16.1564 2.72501 16.4804 2.40522M15.1806 3.69528L16.4804 2.40522M16.4804 2.40522C16.6426 2.24515 16.7728 2.11728 16.8667 2.02587M16.4804 2.40522L16.8667 2.02587M16.8667 2.02587C16.924 1.97017 16.9593 1.93641 16.9781 1.91842M16.8667 2.02587L16.9781 1.91842M8.74925 21.5524C8.74561 21.8173 8.74261 22.1729 8.74021 22.5875M8.74925 21.5524L8.74021 22.5875M8.74021 22.5875C8.73542 23.4173 8.73303 24.4906 8.73303 25.5629M8.74021 22.5875L8.73303 25.5629M8.73303 25.5629C8.73303 26.6352 8.73542 27.7082 8.74022 28.5372M8.73303 25.5629L8.74022 28.5372M8.74022 28.5372C8.74262 28.9515 8.74563 29.3066 8.74927 29.571M8.74022 28.5372L8.74927 29.571M8.74927 29.571C8.75246 29.8027 8.75637 30.0321 8.76696 30.1352L8.74927 29.571ZM10.2609 18.4926C9.94054 18.7021 9.80284 18.8424 9.63207 19.0316L10.2609 18.4926ZM25.3904 16.5416L25.3904 16.5416L28.9414 18.631C28.8704 18.5763 28.7578 18.5071 28.6888 18.4647L28.6854 18.4626C28.5897 18.4039 28.4644 18.3284 28.3194 18.2422C28.0287 18.0693 27.6496 17.8472 27.2515 17.6174C26.4609 17.1609 25.6236 16.6769 25.3904 16.5416Z" stroke="#5077FC" stroke-width="2"/>
</svg>
