<svg width="109" height="109" viewBox="0 0 109 109" fill="none" xmlns="http://www.w3.org/2000/svg">
<path d="M75.1203 57.942L77.1425 55.9198C79.1647 53.8976 79.1434 50.3853 77.0361 48.4482L83.9542 41.5301C90.5743 42.6157 97.2796 40.487 102.048 35.7188C107.604 30.1631 110.094 22.3296 106.263 11.8779L95.4064 22.7128L87.5516 20.7544L85.5933 12.8997L96.4707 2.02222C89.659 -0.702457 80.08 -1.23462 72.6297 6.23696C67.8616 11.0052 65.7329 17.7104 66.8185 24.3305L50.4917 40.6573L21.1588 11.3245L12.6655 0L0 12.6655L11.3245 21.1588L40.636 50.4704L3.85287 87.2536C-0.894035 92.0005 -0.894035 99.7063 3.85287 104.453C6.40725 107.008 13.8576 110.882 21.0524 104.453L48.4269 77.0786C48.7675 77.6747 52.4501 80.3781 55.8985 77.1851L57.9207 75.1628L87.2323 104.474C89.5313 106.773 92.5753 108.029 95.8321 108.029C99.0889 108.029 102.133 106.773 104.432 104.474C109.179 99.7275 109.179 92.0218 104.432 87.2749L75.1203 57.942ZM70.5649 25.4587C70.5649 25.4587 67.819 16.2842 75.0777 8.66363C78.9093 4.66176 84.4438 2.98012 89.808 3.76772L81.7404 11.8353L84.6779 23.6281L96.4707 26.5656L104.517 18.5193C105.283 23.8835 103.559 29.3542 99.6211 33.2496C92.1495 40.6148 82.826 37.7624 82.826 37.7624L74.5881 46.0003L73.3748 44.7869C71.3526 42.7647 68.0319 42.7647 66.0096 44.7869L60.3048 50.4917L52.9184 43.1053L70.5649 25.4587ZM52.9397 57.8569L14.9219 19.8391L19.8391 14.9219L57.8569 52.9397L52.9397 57.8569ZM12.2823 5.30035L17.5401 12.3249L12.3036 17.5401L5.27907 12.2823L12.2823 5.30035ZM18.6045 101.984C17.1357 104.027 10.8987 106.561 6.32211 101.984C2.93755 98.5993 2.93755 93.0861 6.32211 89.7016L43.1053 52.9184L50.4917 60.3048L44.7869 66.0096C42.0835 68.8407 43.5097 72.2892 44.7869 73.3748L46.0003 74.5881L18.6045 101.984ZM53.4506 74.7158C52.7907 75.3757 51.6625 75.3757 51.0026 74.7158L47.2349 70.9481C46.9156 70.6288 46.2983 69.4793 47.2349 68.5002L68.4789 47.2562C69.5219 46.3408 70.6075 46.9156 70.9268 47.2562L74.6945 51.0239C75.3757 51.7051 75.3757 52.812 74.6945 53.4718L55.4728 72.6936L53.4506 74.7158ZM101.984 101.984C100.345 103.623 98.1736 104.517 95.8534 104.517C93.5331 104.517 91.3619 103.623 89.7229 101.984L60.39 72.6723L72.6723 60.39L101.984 89.7016C105.368 93.0861 105.368 98.5993 101.984 101.984Z" fill="#0291DD"/>
</svg>
