<svg width="114" height="108" viewBox="0 0 114 108" fill="none" xmlns="http://www.w3.org/2000/svg">
<path d="M59.3289 70.1645H51.8684C51.5131 69.4539 51.3355 68.5658 50.9802 67.8553L56.3092 62.5263C57.0197 61.8158 57.0197 60.75 56.3092 60.0395L48.3158 52.046C47.6052 51.3355 46.5395 51.3355 45.8289 52.046L40.5 57.375C39.7895 57.0197 39.0789 56.6645 38.1908 56.4868V49.0263C38.1908 47.9605 37.4802 47.25 36.4145 47.25H24.8684C23.8026 47.25 23.0921 47.9605 23.0921 49.0263V56.4868C22.3816 56.6645 21.4934 57.0197 20.7829 57.375L15.4539 52.046C15.0987 51.6908 14.7434 51.5132 14.2105 51.5132C13.6776 51.5132 13.3224 51.6908 12.9671 52.046L4.97368 60.0395C4.61842 60.3947 4.44079 60.75 4.44079 61.2829C4.44079 61.8158 4.61842 62.171 4.97368 62.5263L10.3026 67.8553C9.94736 68.5658 9.5921 69.4539 9.41447 70.1645H1.77631C0.710526 70.1645 0 70.875 0 71.9408V83.3092C0 84.375 0.710526 85.0855 1.77631 85.0855H9.23684C9.5921 85.796 9.76973 86.6842 10.125 87.3947L4.79605 92.7237C4.44079 93.0789 4.26316 93.4342 4.26316 93.9671C4.26316 94.5 4.44079 94.8552 4.79605 95.2105L12.7895 103.204C13.5 103.914 14.5658 103.914 15.2763 103.204L20.6053 97.875C21.3158 98.2302 22.0263 98.5855 22.9145 98.7631V106.224C22.9145 107.289 23.625 108 24.6908 108H36.0592C37.125 108 37.8355 107.289 37.8355 106.224V98.7631C38.546 98.4079 39.4342 98.2302 40.1447 97.875L45.4737 103.204C46.1842 103.914 47.25 103.914 47.9605 103.204L55.9539 95.2105C56.3092 94.8552 56.4868 94.5 56.4868 93.9671C56.4868 93.4342 56.3092 93.0789 55.9539 92.7237L50.625 87.3947C50.9802 86.6842 51.3355 85.9737 51.5131 85.0855H58.9737C60.0394 85.0855 60.75 84.375 60.75 83.3092V71.9408C61.1052 70.875 60.2171 70.1645 59.3289 70.1645ZM57.5526 81.5329H50.4473C49.7368 81.5329 49.0263 82.0658 48.671 82.7763C48.3158 84.1974 47.6052 85.6184 47.0723 86.6842C46.7171 87.3947 46.7171 88.2829 47.4276 88.8158L52.4013 93.7895L46.8947 99.296L41.921 94.3223C41.3881 93.7895 40.5 93.6118 39.7895 93.9671C38.546 94.6776 37.125 95.2105 35.8816 95.5658C35.171 95.7434 34.6381 96.4539 34.6381 97.3421V104.447H26.6447V97.5197C26.6447 96.8092 26.1118 96.0987 25.4013 95.7434C23.9803 95.3881 22.5592 94.8552 21.3158 94.1447C20.6053 93.7894 19.7171 93.7894 19.1842 94.5L14.2105 99.4737L8.70394 93.9671L13.6776 88.9934C14.2105 88.4605 14.3882 87.5723 14.0329 86.8618C13.3224 85.6184 12.7895 84.375 12.4342 82.7763C12.2566 82.0658 11.546 81.5329 10.6579 81.5329H3.55263V73.7171H10.6579C11.546 73.7171 12.0789 73.1842 12.4342 72.4737C12.7895 71.0526 13.3224 69.8092 14.0329 68.3881C14.3882 67.6776 14.2105 66.7895 13.6776 66.2566L8.70394 61.2829L14.2105 55.7763L19.1842 60.75C19.7171 61.2829 20.6053 61.4605 21.3158 61.1053C22.5592 60.3947 23.9803 59.8618 25.4013 59.5066C26.1118 59.3289 26.6447 58.6184 26.6447 57.7303V50.625H34.4605V57.7303C34.4605 58.4408 34.9934 59.1513 35.7039 59.5066C37.125 59.8618 38.3684 60.3947 39.6118 61.1053C40.3223 61.4605 41.2105 61.4605 41.7434 60.75L46.7171 55.7763L52.2237 61.2829L47.25 66.2566C46.7171 66.7895 46.5395 67.6776 46.8947 68.3881C47.6052 69.6316 48.1381 71.0526 48.4934 72.296C48.671 73.0066 49.3816 73.5395 50.2697 73.5395H57.375V81.5329H57.5526Z" fill="#0291DD"/>
<path d="M30.5524 67.6776C25.0459 67.6776 20.7827 72.1184 20.7827 77.4473C20.7827 82.9539 25.2235 87.3947 30.5524 87.3947C36.059 87.3947 40.3222 82.9539 40.3222 77.4473C40.3222 72.1184 35.8814 67.6776 30.5524 67.6776ZM30.5524 83.8421C26.9998 83.8421 24.3353 81 24.3353 77.4473C24.3353 73.8947 27.1775 71.2302 30.5524 71.2302C34.1051 71.2302 36.7696 74.0723 36.7696 77.4473C36.7696 81 33.9274 83.8421 30.5524 83.8421ZM111.908 39.7895H104.447C104.092 39.0789 103.914 38.1908 103.559 37.4803L108.888 32.1513C109.243 31.796 109.421 31.4408 109.421 30.9079C109.421 30.375 109.243 30.0197 108.888 29.6645L100.895 21.671C100.184 20.9605 99.1182 20.9605 98.4077 21.671L93.0787 27C92.3682 26.6447 91.6577 26.2895 90.7695 26.1118V18.6513C90.7695 17.5855 90.059 16.875 88.9932 16.875H77.6248C76.559 16.875 75.8485 17.5855 75.8485 18.6513V26.1118C75.138 26.2895 74.2498 26.6447 73.5393 27L68.2103 21.671C67.4998 20.9605 66.434 20.9605 65.7235 21.671L57.7301 29.6645C57.3748 30.0197 57.1972 30.375 57.1972 30.9079C57.1972 31.4408 57.3748 31.796 57.7301 32.1513L63.059 37.4803C62.7037 38.1908 62.3485 39.0789 62.1708 39.7895H54.7103C53.6445 39.7895 52.934 40.5 52.934 41.5658V52.9342C52.934 54 53.6445 54.7105 54.7103 54.7105H62.1708C62.5261 55.421 62.7037 56.3092 63.059 57.0197L57.7301 62.3487C57.3748 62.7039 57.1972 63.0592 57.1972 63.5921C57.1972 64.125 57.3748 64.4802 57.7301 64.8355L65.7235 72.8289C66.434 73.5394 67.4998 73.5394 68.2103 72.8289L73.5393 67.5C74.2498 67.8552 74.9603 68.2105 75.8485 68.3881V75.8486C75.8485 76.9144 76.559 77.625 77.6248 77.625H88.8156C89.8814 77.625 90.5919 76.9144 90.5919 75.8486V68.3881C91.3024 68.0329 92.1906 67.8552 92.9011 67.5L98.23 72.8289C98.9406 73.5394 100.006 73.5394 100.717 72.8289L108.71 64.8355C109.066 64.4802 109.243 64.125 109.243 63.5921C109.243 63.0592 109.066 62.7039 108.71 62.3487L103.381 57.0197C103.737 56.3092 104.092 55.5987 104.27 54.7105H111.908C112.973 54.7105 113.684 54 113.684 52.9342V41.5658C113.684 40.6776 112.973 39.7895 111.908 39.7895ZM110.131 51.3355H103.026C102.316 51.3355 101.605 51.8684 101.25 52.5789C100.895 54 100.184 55.421 99.6511 56.4868C99.2958 57.1973 99.2958 58.0855 100.006 58.6184L104.98 63.5921L99.4735 69.0987L94.4998 64.125C93.9669 63.5921 93.0787 63.4144 92.3682 63.7697C91.1248 64.4802 89.7037 65.0131 88.4603 65.3684C87.7498 65.546 87.2169 66.2565 87.2169 67.1447V74.25H79.4011V67.3223C79.4011 66.6118 78.8682 65.9013 78.1577 65.546C76.7366 65.1908 75.3156 64.6579 74.0722 63.9473C73.3616 63.5921 72.4735 63.5921 71.9406 64.3026L66.9669 69.2763L61.4603 63.7697L66.434 58.796C66.9669 58.2631 67.1445 57.375 66.7893 56.6644C66.0787 55.421 65.5458 54.1776 65.1906 52.5789C65.013 51.8684 64.3024 51.3355 63.4143 51.3355H56.309V43.3421H63.4143C64.3024 43.3421 64.8353 42.8092 65.1906 42.0987C65.5458 40.6776 66.0787 39.4342 66.7893 38.0131C67.1445 37.3026 66.9669 36.4145 66.434 35.8816L61.4603 30.9079L66.9669 25.4013L71.9406 30.375C72.4735 30.9079 73.3616 31.0855 74.0722 30.7303C75.3156 30.0197 76.7366 29.4868 78.1577 29.1316C78.8682 28.9539 79.4011 28.2434 79.4011 27.3553V20.25H87.0393V27.3553C87.0393 28.0658 87.5722 28.7763 88.2827 29.1316C89.7037 29.4868 90.9472 30.0197 92.1906 30.7303C92.9011 31.0855 93.7893 31.0855 94.3221 30.375L99.4735 25.5789L104.98 31.0855L100.006 36.0592C99.4735 36.5921 99.2958 37.4803 99.6511 38.1908C100.362 39.4342 100.895 40.8552 101.25 42.0987C101.427 42.8092 102.138 43.3421 103.026 43.3421H110.131V51.3355Z" fill="#0291DD"/>
<path d="M83.1314 37.4802C77.6248 37.4802 73.3617 41.921 73.3617 47.25C73.3617 52.7566 77.8025 57.1973 83.1314 57.1973C88.638 57.1973 92.9012 52.7566 92.9012 47.25C93.0788 41.921 88.638 37.4802 83.1314 37.4802ZM83.1314 53.6447C79.5788 53.6447 76.9143 50.8026 76.9143 47.25C76.9143 43.6973 79.7564 41.0329 83.1314 41.0329C86.6841 41.0329 89.3485 43.875 89.3485 47.25C89.5262 50.8026 86.6841 53.6447 83.1314 53.6447ZM27.3551 39.0789C38.1907 39.0789 46.8946 30.375 46.8946 19.5395C46.8946 8.70394 38.1907 0 27.3551 0C16.5196 0 7.81567 8.70394 7.81567 19.5395C7.81567 30.375 16.5196 39.0789 27.3551 39.0789ZM27.3551 3.55263C36.2367 3.55263 43.342 10.6579 43.342 19.5395C43.342 28.421 36.2367 35.5263 27.3551 35.5263C18.4736 35.5263 11.3683 28.421 11.3683 19.5395C11.3683 10.6579 18.4736 3.55263 27.3551 3.55263Z" fill="#0291DD"/>
<path d="M27.3552 23.2698H37.6578C38.7236 23.2698 39.4341 22.5592 39.4341 21.4935C39.4341 20.4277 38.7236 19.7171 37.6578 19.7171H29.1315V12.079C29.1315 11.0132 28.421 10.3027 27.3552 10.3027C26.2894 10.3027 25.5789 11.0132 25.5789 12.079V21.4935C25.5789 22.3816 26.2894 23.2698 27.3552 23.2698Z" fill="#0291DD"/>
</svg>
