<svg width="101" height="17" viewBox="0 0 101 17" fill="none" xmlns="http://www.w3.org/2000/svg">
<path d="M7.5806 2.13778C7.744 1.63488 8.45547 1.63488 8.61887 2.13777L9.79568 5.75964C9.86876 5.98455 10.0783 6.13682 10.3148 6.13682H14.1231C14.6519 6.13682 14.8717 6.81346 14.4439 7.12427L11.363 9.36271C11.1717 9.50171 11.0916 9.74809 11.1647 9.97299L12.3415 13.5949C12.5049 14.0978 11.9293 14.5159 11.5015 14.2051L8.42058 11.9667C8.22926 11.8277 7.9702 11.8277 7.77889 11.9667L4.69794 14.2051C4.27015 14.5159 3.69456 14.0978 3.85796 13.5949L5.03478 9.97299C5.10786 9.74809 5.0278 9.50171 4.83649 9.36271L1.75554 7.12427C1.32775 6.81346 1.54761 6.13682 2.07639 6.13682H5.88464C6.12112 6.13682 6.3307 5.98455 6.40378 5.75964L7.5806 2.13778Z" fill="#1E1E1E"/>
<path d="M28.6402 2.13778C28.8036 1.63488 29.515 1.63488 29.6784 2.13777L30.8553 5.75964C30.9283 5.98455 31.1379 6.13682 31.3744 6.13682H35.1826C35.7114 6.13682 35.9313 6.81346 35.5035 7.12427L32.4225 9.36271C32.2312 9.50171 32.1512 9.74809 32.2243 9.97299L33.4011 13.5949C33.5645 14.0978 32.9889 14.5159 32.5611 14.2051L29.4801 11.9667C29.2888 11.8277 29.0298 11.8277 28.8385 11.9667L25.7575 14.2051C25.3297 14.5159 24.7541 14.0978 24.9175 13.5949L26.0944 9.97299C26.1674 9.74809 26.0874 9.50171 25.8961 9.36271L22.8151 7.12427C22.3873 6.81346 22.6072 6.13682 23.136 6.13682H26.9442C27.1807 6.13682 27.3903 5.98455 27.4634 5.75964L28.6402 2.13778Z" fill="#1E1E1E"/>
<path d="M49.6997 2.13778C49.8631 1.63488 50.5746 1.63488 50.738 2.13777L51.9148 5.75964C51.9879 5.98455 52.1975 6.13682 52.434 6.13682H56.2422C56.771 6.13682 56.9909 6.81346 56.5631 7.12427L53.4821 9.36271C53.2908 9.50171 53.2107 9.74809 53.2838 9.97299L54.4606 13.5949C54.624 14.0978 54.0485 14.5159 53.6207 14.2051L50.5397 11.9667C50.3484 11.8277 50.0893 11.8277 49.898 11.9667L46.8171 14.2051C46.3893 14.5159 45.8137 14.0978 45.9771 13.5949L47.1539 9.97299C47.227 9.74809 47.1469 9.50171 46.9556 9.36271L43.8747 7.12427C43.4469 6.81346 43.6667 6.13682 44.1955 6.13682H48.0038C48.2403 6.13682 48.4498 5.98455 48.5229 5.75964L49.6997 2.13778Z" fill="#1E1E1E"/>
<path d="M70.7583 2.13778C70.9217 1.63488 71.6332 1.63488 71.7966 2.13777L72.9734 5.75964C73.0465 5.98455 73.2561 6.13682 73.4926 6.13682H77.3008C77.8296 6.13682 78.0494 6.81346 77.6217 7.12427L74.5407 9.36271C74.3494 9.50171 74.2693 9.74809 74.3424 9.97299L75.5192 13.5949C75.6826 14.0978 75.107 14.5159 74.6793 14.2051L71.5983 11.9667C71.407 11.8277 71.1479 11.8277 70.9566 11.9667L67.8757 14.2051C67.4479 14.5159 66.8723 14.0978 67.0357 13.5949L68.2125 9.97299C68.2856 9.74809 68.2055 9.50171 68.0142 9.36271L64.9333 7.12427C64.5055 6.81346 64.7253 6.13682 65.2541 6.13682H69.0624C69.2989 6.13682 69.5084 5.98455 69.5815 5.75964L70.7583 2.13778Z" fill="#1E1E1E"/>
<path d="M91.8208 2.13778C91.9842 1.63488 92.6957 1.63488 92.8591 2.13777L94.0359 5.75964C94.109 5.98455 94.3186 6.13682 94.5551 6.13682H98.3633C98.8921 6.13682 99.1119 6.81346 98.6842 7.12427L95.6032 9.36271C95.4119 9.50171 95.3318 9.74809 95.4049 9.97299L96.5817 13.5949C96.7451 14.0978 96.1695 14.5159 95.7418 14.2051L92.6608 11.9667C92.4695 11.8277 92.2104 11.8277 92.0191 11.9667L88.9382 14.2051C88.5104 14.5159 87.9348 14.0978 88.0982 13.5949L89.275 9.97299C89.3481 9.74809 89.268 9.50171 89.0767 9.36271L85.9958 7.12427C85.568 6.81346 85.7878 6.13682 86.3166 6.13682H90.1249C90.3614 6.13682 90.5709 5.98455 90.644 5.75964L91.8208 2.13778Z" fill="#1E1E1E"/>
</svg>
