<svg width="120" height="120" viewBox="0 0 120 120" fill="none" xmlns="http://www.w3.org/2000/svg">
<circle cx="60" cy="60" r="60" fill="#FFA800"/>
<circle cx="60" cy="60" r="49.5" fill="#FFA800" stroke="#FFBB38"/>
<path d="M71.1379 70.1521C69.7619 66.4482 64.7536 70.2587 55.9738 67.5577C46.6419 64.6869 37.413 67.5577 37.413 67.5577V80.0677C37.413 80.0677 47.975 81.4007 52.1794 82.8363C56.3844 84.2718 61.7159 86.2202 69.7145 80.0677C77.7124 73.9151 88.3771 66.0196 88.3771 65.0616C88.3769 64.1427 89.5149 56.5257 71.1379 70.1521ZM71.1379 70.1521C71.2255 70.3839 71.2976 70.6456 71.3545 70.9412C72.3801 76.1714 59.7676 75.2479 57.8193 75.2479H54.4129M31.6084 65.4889C31.6084 64.4697 32.4421 63.6362 33.4604 63.6362H35.5601C36.5793 63.6362 37.4128 64.4697 37.4128 65.4889V81.8315C37.4128 82.8503 36.5793 83.6845 35.5601 83.6845H33.4606C32.442 83.6845 31.6086 82.8503 31.6086 81.8315L31.6084 65.4889Z" stroke="white" stroke-width="2" stroke-miterlimit="10" stroke-linecap="round" stroke-linejoin="round"/>
<path d="M53.7763 38.666C57.0206 38.666 58.6706 40.0095 60.0008 42.2509C61.3306 40.0092 62.9754 38.666 66.2245 38.666C69.4685 38.666 73.3337 41.1628 73.3337 46.2656C73.3337 50.0813 70.5622 52.6922 67.7912 54.8866C65.2424 56.9058 62.4057 58.7441 60.6636 61.0086C60.4963 61.2221 60.2648 61.3327 60.0008 61.3327C59.7364 61.3327 59.5049 61.2219 59.3373 61.0086C57.5901 58.7441 54.7587 56.9058 52.2098 54.8866C49.4384 52.6924 46.667 50.0811 46.667 46.2656C46.6672 41.1624 50.5323 38.666 53.7763 38.666Z" stroke="white" stroke-width="2" stroke-miterlimit="10" stroke-linecap="round" stroke-linejoin="round"/>
</svg>
