<svg width="120" height="120" viewBox="0 0 120 120" fill="none" xmlns="http://www.w3.org/2000/svg">
<circle cx="60" cy="60" r="60" fill="#FFA800"/>
<circle cx="60" cy="60" r="49.5" fill="#FFA800" stroke="#FFBB38"/>
<path d="M60.2971 69.8559C71.2237 69.8559 80.0814 60.9981 80.0814 50.0715C80.0814 39.1449 71.2237 30.2871 60.2971 30.2871C49.3705 30.2871 40.5127 39.1449 40.5127 50.0715C40.5127 60.9981 49.3705 69.8559 60.2971 69.8559Z" stroke="white" stroke-width="2" stroke-miterlimit="10" stroke-linecap="round" stroke-linejoin="round"/>
<path d="M45.2031 50.0723C45.2031 47.7482 45.7284 45.5468 46.6667 43.5803C48.3918 39.9647 51.5133 37.1433 55.3333 35.8136M60.2969 34.9785C62.1911 34.9785 64.004 35.3275 65.6745 35.9646M75.3907 50.0723C75.3907 58.4084 68.633 65.166 60.297 65.166M69.8728 67.9308V89.6516L60.2969 82.1161L50.7211 89.6516V67.9308" stroke="white" stroke-width="2" stroke-miterlimit="10" stroke-linecap="round" stroke-linejoin="round"/>
<path d="M59.2217 42.3003C59.6219 41.8036 60.3787 41.8036 60.779 42.3003L63.3965 45.5486C63.5076 45.6866 63.6535 45.7925 63.819 45.8556L67.7172 47.3412C68.3133 47.5684 68.5472 48.2881 68.1984 48.8223L65.918 52.3155C65.8211 52.4638 65.7654 52.6353 65.7566 52.8122L65.5483 56.9787C65.5164 57.6158 64.9042 58.0607 64.2884 57.8941L60.2615 56.8046C60.0904 56.7584 59.9102 56.7584 59.7392 56.8046L55.7123 57.8941C55.0965 58.0607 54.4842 57.6158 54.4524 56.9787L54.2441 52.8122C54.2352 52.6353 54.1795 52.4638 54.0827 52.3155L51.8022 48.8223C51.4535 48.2881 51.6873 47.5684 52.2834 47.3412L56.1816 45.8556C56.3472 45.7925 56.493 45.6866 56.6042 45.5486L59.2217 42.3003Z" stroke="white" stroke-width="2"/>
</svg>
