<svg width="120" height="120" viewBox="0 0 120 120" fill="none" xmlns="http://www.w3.org/2000/svg">
<circle cx="60" cy="60" r="60" fill="#FFA800"/>
<circle cx="60" cy="60" r="49.5" fill="#FFA800" stroke="#FFBB38"/>
<path d="M65.1382 49.0046C63.9223 47.7887 61.9287 47.8652 60.8094 49.1706C58.9517 51.3374 55.4061 49.8688 55.6247 47.0229C55.7563 45.3084 54.4007 43.8447 52.6812 43.8447H50.1156C48.3961 43.8447 47.0404 45.3084 47.1721 47.0229C47.3906 49.8687 43.8451 51.3373 41.9873 49.1706C40.8681 47.8651 38.8744 47.7887 37.6586 49.0046L35.8444 50.8188C34.6286 52.0347 34.7049 54.0283 36.0104 55.1476C38.1773 57.0053 36.7087 60.5508 33.8628 60.3323C32.1483 60.2007 30.6846 61.5563 30.6846 63.2758V65.8414C30.6846 67.5609 32.1483 68.9166 33.8628 68.7849C36.7086 68.5663 38.1772 72.1119 36.0104 73.9697C34.7049 75.0889 34.6286 77.0826 35.8444 78.2984L37.6586 80.1126C38.8744 81.3284 40.8681 81.2521 41.9873 79.9466C43.8451 77.7797 47.3906 79.2483 47.1721 82.0942C47.0404 83.8087 48.3961 85.2724 50.1156 85.2724H52.6812C54.4007 85.2724 55.7563 83.8087 55.6247 82.0942V79.6903M49.7387 71.5116C46.5921 70.7633 44.2516 67.9342 44.2516 64.5586C44.2516 60.6116 47.4513 57.4118 51.3983 57.4118M81.6822 56.9818C82.4768 57.9086 83.8922 57.9629 84.7553 57.0997L86.0433 55.8117C86.9066 54.9484 86.8522 53.5331 85.9255 52.7386C84.3871 51.4197 85.4298 48.9026 87.4501 49.0577C88.6673 49.1512 89.7065 48.1887 89.7065 46.9679V45.1464C89.7065 43.9257 88.6672 42.9632 87.4501 43.0567C85.4297 43.2118 84.3871 40.6947 85.9255 39.3758C86.8522 38.5812 86.9066 37.1658 86.0433 36.3027L84.7553 35.0147C83.8921 34.1514 82.4767 34.2057 81.6822 35.1326C80.3633 36.6709 77.8462 35.6283 78.0013 33.6079C78.0948 32.3907 77.1323 31.3516 75.9116 31.3516H74.0901C72.8693 31.3516 71.9068 32.3908 72.0003 33.6079C72.1555 35.6283 69.6383 36.6709 68.3194 35.1326C67.5248 34.2058 66.1094 34.1516 65.2463 35.0147L63.9583 36.3027C63.0951 37.1659 63.1493 38.5813 64.0762 39.3758C65.6146 40.6947 64.5718 43.2118 62.5516 43.0567C61.3343 42.9632 60.2952 43.9257 60.2952 45.1464M75.0008 51.1309C72.1987 51.1309 69.9271 48.8593 69.9271 46.0572C69.9271 43.2551 72.1987 40.9834 75.0008 40.9834C77.803 40.9834 80.0746 43.2551 80.0746 46.0572C80.0746 48.8593 77.803 51.1309 75.0008 51.1309Z" stroke="white" stroke-width="2" stroke-miterlimit="10" stroke-linecap="round" stroke-linejoin="round"/>
<path d="M66.3247 79.4404C73.5699 79.4404 79.4433 73.567 79.4433 66.3217C79.4433 59.0765 73.5699 53.2031 66.3247 53.2031C59.0795 53.2031 53.2061 59.0765 53.2061 66.3217C53.2061 73.567 59.0795 79.4404 66.3247 79.4404Z" stroke="white" stroke-width="2" stroke-miterlimit="10" stroke-linecap="round" stroke-linejoin="round"/>
<path d="M66.3252 57.4453C69.6132 57.4453 72.4837 59.2328 74.0179 61.8891M75.1569 65.4152C75.1875 65.7168 75.2028 66.0197 75.2028 66.3228M75.6976 75.6953L88.5887 88.5863" stroke="white" stroke-width="2" stroke-miterlimit="10" stroke-linecap="round" stroke-linejoin="round"/>
</svg>
