<svg width="120" height="120" viewBox="0 0 120 120" fill="none" xmlns="http://www.w3.org/2000/svg">
<circle cx="60" cy="60" r="60" fill="#FFA800"/>
<circle cx="60" cy="60" r="49.5" fill="#FFA800" stroke="#FFBB38"/>
<path d="M65.5869 55.4511C65.6904 55.5364 65.7874 55.6345 65.8877 55.7252C65.9719 55.9125 66.1084 56.0715 66.2808 56.1832C66.4531 56.2948 66.6541 56.3543 66.8594 56.3545H66.8797C66.8978 56.3545 66.9138 56.3439 66.933 56.3439C66.9522 56.3439 66.9704 56.3545 66.9906 56.3545C67.1309 56.3546 67.2698 56.3271 67.3994 56.2735C67.5289 56.2198 67.6467 56.1412 67.7458 56.042C67.9538 55.834 68.1714 55.6367 68.3965 55.4521C69.9695 54.1553 71.9461 53.4486 73.9848 53.4543C75.144 53.4508 76.2923 53.6778 77.3629 54.122C78.4336 54.5663 79.4053 55.2189 80.2216 56.042C80.3722 56.1926 80.5645 56.2946 80.7738 56.3345C80.983 56.3745 81.1994 56.3506 81.3949 56.266C81.4013 56.2639 81.4077 56.2649 81.413 56.2628C81.5229 56.2121 81.6232 56.1428 81.7096 56.058C81.716 56.0516 81.7245 56.0495 81.7309 56.0441C81.7469 56.0271 81.7522 56.0057 81.7672 55.9887C81.9201 55.8165 82.012 55.5986 82.0285 55.3689C82.0317 55.3327 82.0392 55.2985 82.0392 55.2623C82.0392 55.2516 82.0424 55.2409 82.0424 55.2281C81.3864 43.5492 71.7064 34.4004 59.9997 34.4004C48.2962 34.4004 38.613 43.5492 37.957 55.2281C37.957 55.2399 37.9613 55.2495 37.9602 55.2623C37.9602 55.2975 37.9677 55.3316 37.9709 55.3689C37.9803 55.4984 38.0135 55.6249 38.069 55.7423C38.1117 55.8329 38.1672 55.9151 38.2333 55.9897C38.2482 56.0057 38.2536 56.0271 38.2685 56.0431C38.2749 56.0495 38.2834 56.0505 38.2898 56.0569C38.3761 56.1421 38.4764 56.2117 38.5864 56.2628C38.5928 56.2649 38.6002 56.2649 38.6066 56.2681C38.6333 56.2788 38.6621 56.282 38.6898 56.2905C38.7814 56.3221 38.8769 56.3407 38.9736 56.346C39.0141 56.3481 39.0514 56.3449 39.092 56.3417C39.1791 56.3357 39.2651 56.3189 39.348 56.2916C39.3864 56.2799 39.4226 56.2703 39.46 56.2532C39.5778 56.2026 39.6855 56.131 39.7778 56.042C40.5943 55.2186 41.5664 54.5659 42.6374 54.1216C43.7085 53.6774 44.8572 53.4505 46.0168 53.4543C47.1761 53.4507 48.3246 53.6776 49.3955 54.1218C50.4664 54.5661 51.4383 55.2188 52.2546 56.042C52.3537 56.1414 52.4714 56.2202 52.601 56.274C52.7306 56.3278 52.8695 56.3556 53.0098 56.3556C53.0301 56.3556 53.0472 56.3449 53.0674 56.3439C53.0856 56.3439 53.1016 56.3545 53.1208 56.3545C53.589 56.3631 53.9602 56.0985 54.1213 55.7177C54.436 55.434 54.7613 55.1663 55.109 54.9337C56.2543 54.1684 57.5649 53.6859 58.933 53.5257V58.5135C57.6421 57.6477 56.1236 57.1838 54.5693 57.1801C49.7768 57.1801 45.876 61.6068 45.876 67.05C45.876 77.0351 58.8893 85.1055 59.444 85.4436C59.6113 85.5463 59.8039 85.6007 60.0002 85.6007C60.1966 85.6007 60.3891 85.5463 60.5565 85.4436C61.1112 85.1055 74.1245 77.0351 74.1245 67.05C74.1245 61.6079 70.2237 57.1801 65.4312 57.1801C63.8764 57.1834 62.3575 57.6474 61.0664 58.5135V53.5257C62.7268 53.7203 64.2961 54.3887 65.5869 55.4511ZM64.5992 52.3279C63.1576 51.6614 61.5879 51.3177 59.9997 51.3209C57.9538 51.3209 55.9997 51.8863 54.3005 52.9284C54.8552 43.1577 57.6125 36.5337 59.9997 36.5337C62.3869 36.5337 65.1442 43.1577 65.6989 52.9284C65.3446 52.7072 64.9767 52.5067 64.5992 52.3279ZM79.62 52.8783C79.5624 52.8431 79.5005 52.8207 79.4429 52.7865C79.1314 52.6073 78.8136 52.4441 78.4872 52.2959C78.4093 52.2607 78.3346 52.2201 78.2557 52.186C77.8559 52.0175 77.4462 51.8732 77.029 51.754C76.9192 51.722 76.8072 51.6996 76.6962 51.6708C76.3689 51.5879 76.0379 51.5202 75.7042 51.4681C75.1445 51.3765 74.5786 51.3281 74.0114 51.3231L73.9848 51.3209C71.765 51.3209 69.6488 51.9812 67.8536 53.2004C67.5133 46.6233 66.1362 40.2863 63.8301 36.9124C71.8152 38.4697 78.1469 44.794 79.62 52.8783ZM56.1693 36.9124C53.8642 40.2873 52.4861 46.6233 52.1458 53.2004C50.338 51.9715 48.2016 51.3165 46.0157 51.3209L45.988 51.3231C45.5474 51.3231 45.1133 51.3583 44.6824 51.4105C44.5522 51.4265 44.4242 51.4479 44.2952 51.4681C43.9602 51.5204 43.6296 51.5887 43.3032 51.6708C43.1933 51.6996 43.0813 51.7231 42.9725 51.754C42.5533 51.8745 42.1437 52.0175 41.7437 52.1871C41.6669 52.2191 41.5944 52.2596 41.5176 52.2937C41.189 52.4431 40.8669 52.6073 40.5544 52.7887C40.4978 52.8207 40.437 52.8441 40.3805 52.8783C41.8525 44.7929 48.1853 38.4708 56.1693 36.9124ZM65.4312 59.3135C69.0472 59.3135 71.9912 62.7844 71.9912 67.05C71.9912 74.7588 62.4317 81.6388 59.9997 83.2633C57.5677 81.6409 48.0104 74.7716 48.0104 67.05C48.0104 62.7833 50.9522 59.3135 54.5693 59.3135C56.3069 59.3135 57.9474 60.1124 59.1912 61.562C59.2008 61.5727 59.2157 61.5769 59.2253 61.5876C59.316 61.6836 59.4237 61.7615 59.5453 61.8191C59.5496 61.8212 59.5538 61.8265 59.5592 61.8287C59.6969 61.894 59.8472 61.9285 59.9997 61.93C60.1597 61.93 60.3069 61.8905 60.4424 61.8276L60.4456 61.8255C60.5698 61.7682 60.6817 61.6874 60.7752 61.5876C60.7858 61.5769 60.8008 61.5737 60.8104 61.562C62.052 60.1124 63.6925 59.3135 65.4312 59.3135Z" fill="white"/>
<path d="M52.2769 67.0491C52.2769 66.7662 52.1645 66.4949 51.9645 66.2948C51.7644 66.0948 51.4931 65.9824 51.2102 65.9824C50.9273 65.9824 50.656 66.0948 50.456 66.2948C50.2559 66.4949 50.1436 66.7662 50.1436 67.0491C50.1436 72.5904 56.5894 78.0891 59.3596 80.1968C59.4709 80.2819 59.5979 80.3441 59.7334 80.38C59.8688 80.4158 60.01 80.4246 60.1488 80.4057C60.2877 80.3869 60.4214 80.3409 60.5424 80.2702C60.6634 80.1996 60.7693 80.1058 60.854 79.9942C60.9389 79.8827 61.001 79.7556 61.0368 79.62C61.0726 79.4845 61.0813 79.3433 61.0625 79.2044C61.0437 79.0655 60.9977 78.9317 60.9271 78.8106C60.8566 78.6895 60.7628 78.5835 60.6513 78.4987C58.6865 77.0054 52.2769 71.7638 52.2769 67.0491Z" fill="white"/>
</svg>
