<svg width="120" height="120" viewBox="0 0 120 120" fill="none" xmlns="http://www.w3.org/2000/svg">
<circle cx="60" cy="60" r="60" fill="#FFA800"/>
<circle cx="60" cy="60" r="49.5" fill="#FFA800" stroke="#FFBB38"/>
<path d="M57.4286 75.75H52.2857C52.0584 75.75 51.8404 75.8422 51.6796 76.0063C51.5189 76.1704 51.4286 76.3929 51.4286 76.625V81.875C51.4286 82.1071 51.5189 82.3296 51.6796 82.4937C51.8404 82.6578 52.0584 82.75 52.2857 82.75H57.4286C57.6559 82.75 57.8739 82.6578 58.0347 82.4937C58.1954 82.3296 58.2857 82.1071 58.2857 81.875V76.625C58.2857 76.3929 58.1954 76.1704 58.0347 76.0063C57.8739 75.8422 57.6559 75.75 57.4286 75.75ZM56.5714 81H53.1429V77.5H56.5714V81ZM73.7143 82.1427C73.7815 82.2797 73.8827 82.3962 74.0079 82.4806C74.133 82.5651 74.2777 82.6145 74.4274 82.624H74.4806C74.6217 82.6239 74.7607 82.5883 74.8851 82.5202C75.0095 82.4521 75.1155 82.3537 75.1937 82.2337L78.6223 76.9837C78.6848 76.8881 78.7282 76.7809 78.75 76.6682C78.7719 76.5555 78.7718 76.4394 78.7498 76.3267C78.7277 76.214 78.6842 76.1069 78.6216 76.0114C78.5589 75.9159 78.4785 75.8339 78.3849 75.7701C78.2912 75.7064 78.1862 75.662 78.0757 75.6397C77.9653 75.6174 77.8517 75.6175 77.7413 75.64C77.6309 75.6625 77.5259 75.707 77.4323 75.7709C77.3388 75.8348 77.2585 75.9169 77.196 76.0125L74.5869 80.0078L73.5429 77.8605C73.4412 77.6528 73.263 77.4948 73.0472 77.4213C72.8315 77.3478 72.596 77.3648 72.3926 77.4685C72.1891 77.5722 72.0344 77.7542 71.9623 77.9744C71.8903 78.1947 71.907 78.4351 72.0086 78.6427L73.7143 82.1427ZM72.8571 72.25H78C78.2273 72.25 78.4453 72.1578 78.6061 71.9937C78.7668 71.8296 78.8571 71.6071 78.8571 71.375V66.125C78.8571 65.8929 78.7668 65.6704 78.6061 65.5063C78.4453 65.3422 78.2273 65.25 78 65.25H72.8571C72.6298 65.25 72.4118 65.3422 72.2511 65.5063C72.0903 65.6704 72 65.8929 72 66.125V71.375C72 71.6071 72.0903 71.8296 72.2511 71.9937C72.4118 72.1578 72.6298 72.25 72.8571 72.25ZM73.7143 67H77.1429V70.5H73.7143V67ZM72.8571 61.75H78C78.2273 61.75 78.4453 61.6578 78.6061 61.4937C78.7668 61.3296 78.8571 61.1071 78.8571 60.875V55.625C78.8571 55.3929 78.7668 55.1704 78.6061 55.0063C78.4453 54.8422 78.2273 54.75 78 54.75H72.8571C72.6298 54.75 72.4118 54.8422 72.2511 55.0063C72.0903 55.1704 72 55.3929 72 55.625V60.875C72 61.1071 72.0903 61.3296 72.2511 61.4937C72.4118 61.6578 72.6298 61.75 72.8571 61.75ZM73.7143 56.5H77.1429V60H73.7143V56.5ZM42 72.25H47.1429C47.3702 72.25 47.5882 72.1578 47.7489 71.9937C47.9097 71.8296 48 71.6071 48 71.375V66.125C48 65.8929 47.9097 65.6704 47.7489 65.5063C47.5882 65.3422 47.3702 65.25 47.1429 65.25H42C41.7727 65.25 41.5547 65.3422 41.3939 65.5063C41.2332 65.6704 41.1429 65.8929 41.1429 66.125V71.375C41.1429 71.6071 41.2332 71.8296 41.3939 71.9937C41.5547 72.1578 41.7727 72.25 42 72.25ZM42.8571 67H46.2857V70.5H42.8571V67ZM42 82.75H47.1429C47.3702 82.75 47.5882 82.6578 47.7489 82.4937C47.9097 82.3296 48 82.1071 48 81.875V76.625C48 76.3929 47.9097 76.1704 47.7489 76.0063C47.5882 75.8422 47.3702 75.75 47.1429 75.75H42C41.7727 75.75 41.5547 75.8422 41.3939 76.0063C41.2332 76.1704 41.1429 76.3929 41.1429 76.625V81.875C41.1429 82.1071 41.2332 82.3296 41.3939 82.4937C41.5547 82.6578 41.7727 82.75 42 82.75ZM42.8571 77.5H46.2857V81H42.8571V77.5ZM42 61.75H47.1429C47.3702 61.75 47.5882 61.6578 47.7489 61.4937C47.9097 61.3296 48 61.1071 48 60.875V55.625C48 55.3929 47.9097 55.1704 47.7489 55.0063C47.5882 54.8422 47.3702 54.75 47.1429 54.75H42C41.7727 54.75 41.5547 54.8422 41.3939 55.0063C41.2332 55.1704 41.1429 55.3929 41.1429 55.625V60.875C41.1429 61.1071 41.2332 61.3296 41.3939 61.4937C41.5547 61.6578 41.7727 61.75 42 61.75ZM42.8571 56.5H46.2857V60H42.8571V56.5ZM79.7143 39H78.8571V35.5C78.8571 34.5717 78.4959 33.6815 77.8529 33.0251C77.21 32.3687 76.3379 32 75.4286 32C74.5193 32 73.6472 32.3687 73.0042 33.0251C72.3612 33.6815 72 34.5717 72 35.5V39H48V35.5C48 34.5717 47.6388 33.6815 46.9958 33.0251C46.3528 32.3687 45.4807 32 44.5714 32C43.6621 32 42.79 32.3687 42.1471 33.0251C41.5041 33.6815 41.1429 34.5717 41.1429 35.5V39H40.2857C39.1491 39 38.059 39.4609 37.2553 40.2814C36.4515 41.1019 36 42.2147 36 43.375V83.625C36 84.7853 36.4515 85.8981 37.2553 86.7186C38.059 87.5391 39.1491 88 40.2857 88H79.7143C80.8509 88 81.941 87.5391 82.7447 86.7186C83.5485 85.8981 84 84.7853 84 83.625V43.375C84 42.2147 83.5485 41.1019 82.7447 40.2814C81.941 39.4609 80.8509 39 79.7143 39ZM73.7143 35.5C73.7143 35.0359 73.8949 34.5908 74.2164 34.2626C74.5379 33.9344 74.9739 33.75 75.4286 33.75C75.8832 33.75 76.3193 33.9344 76.6408 34.2626C76.9622 34.5908 77.1429 35.0359 77.1429 35.5V42.5C77.1429 42.9641 76.9622 43.4092 76.6408 43.7374C76.3193 44.0656 75.8832 44.25 75.4286 44.25C74.9739 44.25 74.5379 44.0656 74.2164 43.7374C73.8949 43.4092 73.7143 42.9641 73.7143 42.5V35.5ZM42.8571 35.5C42.8571 35.0359 43.0378 34.5908 43.3592 34.2626C43.6807 33.9344 44.1168 33.75 44.5714 33.75C45.0261 33.75 45.4621 33.9344 45.7836 34.2626C46.1051 34.5908 46.2857 35.0359 46.2857 35.5V42.5C46.2857 42.9641 46.1051 43.4092 45.7836 43.7374C45.4621 44.0656 45.0261 44.25 44.5714 44.25C44.1168 44.25 43.6807 44.0656 43.3592 43.7374C43.0378 43.4092 42.8571 42.9641 42.8571 42.5V35.5ZM82.2857 83.625C82.2857 84.3212 82.0148 84.9889 81.5326 85.4812C81.0503 85.9734 80.3963 86.25 79.7143 86.25H40.2857C39.6037 86.25 38.9497 85.9734 38.4674 85.4812C37.9852 84.9889 37.7143 84.3212 37.7143 83.625V51.25H82.2857V83.625ZM82.2857 49.5H37.7143V43.375C37.7143 42.6788 37.9852 42.0111 38.4674 41.5188C38.9497 41.0266 39.6037 40.75 40.2857 40.75H41.1429V42.5C41.1429 43.4283 41.5041 44.3185 42.1471 44.9749C42.79 45.6313 43.6621 46 44.5714 46C45.4807 46 46.3528 45.6313 46.9958 44.9749C47.6388 44.3185 48 43.4283 48 42.5V40.75H72V42.5C72 43.4283 72.3612 44.3185 73.0042 44.9749C73.6472 45.6313 74.5193 46 75.4286 46C76.3379 46 77.21 45.6313 77.8529 44.9749C78.4959 44.3185 78.8571 43.4283 78.8571 42.5V40.75H79.7143C80.3963 40.75 81.0503 41.0266 81.5326 41.5188C82.0148 42.0111 82.2857 42.6788 82.2857 43.375V49.5ZM53.1429 61.1427C53.2101 61.2797 53.3113 61.3962 53.4365 61.4806C53.5616 61.5651 53.7063 61.6145 53.856 61.624H53.9091C54.0503 61.6239 54.1893 61.5883 54.3137 61.5202C54.4381 61.4521 54.5441 61.3537 54.6223 61.2337L58.0509 55.9837C58.1133 55.8881 58.1567 55.7809 58.1786 55.6682C58.2005 55.5555 58.2004 55.4394 58.1784 55.3267C58.1563 55.214 58.1127 55.1069 58.0501 55.0114C57.9875 54.9159 57.9071 54.8339 57.8134 54.7701C57.7198 54.7064 57.6147 54.662 57.5043 54.6397C57.3939 54.6174 57.2802 54.6175 57.1698 54.64C57.0594 54.6625 56.9545 54.707 56.8609 54.7709C56.7673 54.8348 56.687 54.9169 56.6246 55.0125L54.0154 59.0077L52.9714 56.8605C52.9211 56.7577 52.8514 56.6659 52.7664 56.5906C52.6814 56.5152 52.5826 56.4577 52.4758 56.4213C52.369 56.3849 52.2562 56.3703 52.1439 56.3784C52.0316 56.3865 51.9219 56.4171 51.8211 56.4685C51.7204 56.5199 51.6306 56.591 51.5567 56.6778C51.4829 56.7646 51.4266 56.8654 51.3909 56.9744C51.3553 57.0835 51.341 57.1986 51.3489 57.3133C51.3568 57.428 51.3868 57.5399 51.4371 57.6427L53.1429 61.1427ZM62.5714 61.75H67.7143C67.9416 61.75 68.1596 61.6578 68.3204 61.4937C68.4811 61.3296 68.5714 61.1071 68.5714 60.875V55.625C68.5714 55.3929 68.4811 55.1704 68.3204 55.0063C68.1596 54.8422 67.9416 54.75 67.7143 54.75H62.5714C62.3441 54.75 62.1261 54.8422 61.9653 55.0063C61.8046 55.1704 61.7143 55.3929 61.7143 55.625V60.875C61.7143 61.1071 61.8046 61.3296 61.9653 61.4937C62.1261 61.6578 62.3441 61.75 62.5714 61.75ZM63.4286 56.5H66.8571V60H63.4286V56.5ZM62.5714 82.75H67.7143C67.9416 82.75 68.1596 82.6578 68.3204 82.4937C68.4811 82.3296 68.5714 82.1071 68.5714 81.875V76.625C68.5714 76.3929 68.4811 76.1704 68.3204 76.0063C68.1596 75.8422 67.9416 75.75 67.7143 75.75H62.5714C62.3441 75.75 62.1261 75.8422 61.9653 76.0063C61.8046 76.1704 61.7143 76.3929 61.7143 76.625V81.875C61.7143 82.1071 61.8046 82.3296 61.9653 82.4937C62.1261 82.6578 62.3441 82.75 62.5714 82.75ZM63.4286 77.5H66.8571V81H63.4286V77.5ZM62.5714 72.25H67.7143C67.9416 72.25 68.1596 72.1578 68.3204 71.9937C68.4811 71.8296 68.5714 71.6071 68.5714 71.375V66.125C68.5714 65.8929 68.4811 65.6704 68.3204 65.5063C68.1596 65.3422 67.9416 65.25 67.7143 65.25H62.5714C62.3441 65.25 62.1261 65.3422 61.9653 65.5063C61.8046 65.6704 61.7143 65.8929 61.7143 66.125V71.375C61.7143 71.6071 61.8046 71.8296 61.9653 71.9937C62.1261 72.1578 62.3441 72.25 62.5714 72.25ZM63.4286 67H66.8571V70.5H63.4286V67ZM57.4286 65.25H52.2857C52.0584 65.25 51.8404 65.3422 51.6796 65.5063C51.5189 65.6704 51.4286 65.8929 51.4286 66.125V71.375C51.4286 71.6071 51.5189 71.8296 51.6796 71.9937C51.8404 72.1578 52.0584 72.25 52.2857 72.25H57.4286C57.6559 72.25 57.8739 72.1578 58.0347 71.9937C58.1954 71.8296 58.2857 71.6071 58.2857 71.375V66.125C58.2857 65.8929 58.1954 65.6704 58.0347 65.5063C57.8739 65.3422 57.6559 65.25 57.4286 65.25ZM56.5714 70.5H53.1429V67H56.5714V70.5Z" fill="white"/>
</svg>
