<svg width="120" height="120" viewBox="0 0 120 120" fill="none" xmlns="http://www.w3.org/2000/svg">
<circle cx="60" cy="60" r="60" fill="#FFA800"/>
<circle cx="60" cy="60" r="49.5" fill="#FFA800" stroke="#FFBB38"/>
<path fill-rule="evenodd" clip-rule="evenodd" d="M86.129 33H33.871C33.64 33 33.4184 33.0932 33.2551 33.2591C33.0918 33.4249 33 33.6499 33 33.8845V49.8052C33 50.0398 33.0918 50.2647 33.2551 50.4306C33.4184 50.5965 33.64 50.6897 33.871 50.6897C34.102 50.6897 34.3235 50.5965 34.4868 50.4306C34.6502 50.2647 34.7419 50.0398 34.7419 49.8052V34.769H85.2581V66.6103H51.2903C51.0593 66.6103 50.8378 66.7035 50.6745 66.8694C50.5111 67.0353 50.4194 67.2602 50.4194 67.4948C50.4194 67.7294 50.5111 67.9544 50.6745 68.1203C50.8378 68.2861 51.0593 68.3793 51.2903 68.3793H86.129C86.36 68.3793 86.5816 68.2861 86.7449 68.1203C86.9082 67.9544 87 67.7294 87 67.4948V33.8845C87 33.6499 86.9082 33.4249 86.7449 33.2591C86.5816 33.0932 86.36 33 86.129 33ZM43.7912 72.0733C44.1735 72.6434 44.3776 73.3137 44.3776 73.9994C44.3776 74.9188 44.011 75.8006 43.3585 76.4508C42.706 77.1009 41.821 77.4662 40.8982 77.4662C40.21 77.4662 39.5373 77.2629 38.9652 76.8819C38.393 76.501 37.947 75.9595 37.6837 75.3261C37.4203 74.6926 37.3514 73.9955 37.4857 73.323C37.6199 72.6505 37.9513 72.0328 38.4379 71.5479C38.9245 71.0631 39.5445 70.7329 40.2194 70.5991C40.8943 70.4654 41.5939 70.534 42.2297 70.7964C42.8655 71.0588 43.4089 71.5032 43.7912 72.0733ZM39.4517 73.0363C39.2605 73.3214 39.1585 73.6565 39.1585 73.9994C39.1585 74.4591 39.3418 74.9 39.668 75.2251C39.9943 75.5502 40.4368 75.7328 40.8982 75.7328C41.2423 75.7328 41.5786 75.6311 41.8647 75.4407C42.1508 75.2502 42.3738 74.9795 42.5055 74.6627C42.6371 74.346 42.6716 73.9974 42.6045 73.6612C42.5373 73.3249 42.3716 73.0161 42.1283 72.7737C41.885 72.5312 41.5751 72.3661 41.2376 72.2993C40.9001 72.2324 40.5503 72.2667 40.2324 72.3979C39.9146 72.5291 39.6429 72.7513 39.4517 73.0363ZM33.0696 86.1333V82.6665C33.0696 81.5171 33.5278 80.4149 34.3434 79.6022C34.7473 79.1998 35.2268 78.8806 35.7544 78.6628C36.2821 78.445 36.8477 78.3329 37.4188 78.3329H44.3776C45.5311 78.3329 46.6373 78.7895 47.4529 79.6022C48.2686 80.4149 48.7268 81.5171 48.7268 82.6665V86.1333C48.7268 86.3632 48.6352 86.5836 48.472 86.7461C48.3089 86.9087 48.0877 87 47.857 87H33.9394C33.7087 87 33.4875 86.9087 33.3244 86.7461C33.1612 86.5836 33.0696 86.3632 33.0696 86.1333ZM46.9871 85.2666V82.6665C46.9871 81.9769 46.7122 81.3155 46.2228 80.8279C45.7334 80.3403 45.0697 80.0663 44.3776 80.0663H37.4188C36.7267 80.0663 36.063 80.3403 35.5736 80.8279C35.0842 81.3155 34.8093 81.9769 34.8093 82.6665V85.2666H36.549V82.6665C36.549 82.4366 36.6406 82.2161 36.8037 82.0536C36.9669 81.8911 37.1881 81.7997 37.4188 81.7997C37.6495 81.7997 37.8708 81.8911 38.0339 82.0536C38.197 82.2161 38.2887 82.4366 38.2887 82.6665V85.2666H43.5077V82.6665C43.5077 82.4366 43.5994 82.2161 43.7625 82.0536C43.9256 81.8911 44.1469 81.7997 44.3776 81.7997C44.6083 81.7997 44.8295 81.8911 44.9927 82.0536C45.1558 82.2161 45.2474 82.4366 45.2474 82.6665V85.2666H46.9871ZM62.9278 72.0733C63.3101 72.6434 63.5142 73.3137 63.5142 73.9994C63.5142 74.9188 63.1476 75.8006 62.4951 76.4508C61.8426 77.1009 60.9576 77.4662 60.0348 77.4662C59.3466 77.4662 58.6739 77.2629 58.1018 76.8819C57.5296 76.501 57.0836 75.9595 56.8203 75.3261C56.5569 74.6926 56.488 73.9955 56.6223 73.323C56.7565 72.6505 57.0879 72.0328 57.5745 71.5479C58.0611 71.0631 58.6811 70.7329 59.356 70.5991C60.0309 70.4654 60.7305 70.534 61.3663 70.7964C62.0021 71.0588 62.5455 71.5032 62.9278 72.0733ZM58.5883 73.0363C58.3971 73.3214 58.2951 73.6565 58.2951 73.9994C58.2951 74.4591 58.4784 74.9 58.8046 75.2251C59.1309 75.5502 59.5734 75.7328 60.0348 75.7328C60.3789 75.7328 60.7152 75.6311 61.0013 75.4407C61.2874 75.2502 61.5104 74.9795 61.6421 74.6627C61.7737 74.346 61.8082 73.9974 61.7411 73.6612C61.6739 73.3249 61.5082 73.0161 61.2649 72.7737C61.0216 72.5312 60.7117 72.3661 60.3742 72.2993C60.0367 72.2324 59.6869 72.2667 59.369 72.3979C59.0512 72.5291 58.7795 72.7513 58.5883 73.0363ZM52.2062 86.1333V82.6665C52.2062 81.5171 52.6644 80.4149 53.48 79.6022C54.2957 78.7895 55.4019 78.3329 56.5554 78.3329H63.5142C64.0853 78.3329 64.6509 78.445 65.1786 78.6628C65.7062 78.8806 66.1857 79.1998 66.5895 79.6022C66.9934 80.0046 67.3138 80.4823 67.5323 81.0081C67.7509 81.5338 67.8634 82.0974 67.8634 82.6665V86.1333C67.8634 86.3632 67.7718 86.5836 67.6086 86.7461C67.4455 86.9087 67.2243 87 66.9936 87H53.076C52.8453 87 52.6241 86.9087 52.461 86.7461C52.2978 86.5836 52.2062 86.3632 52.2062 86.1333ZM66.1237 85.2666V82.6665C66.1237 81.9769 65.8488 81.3155 65.3594 80.8279C64.87 80.3403 64.2063 80.0663 63.5142 80.0663H56.5554C55.8633 80.0663 55.1996 80.3403 54.7102 80.8279C54.2208 81.3155 53.9459 81.9769 53.9459 82.6665V85.2666H55.6856V82.6665C55.6856 82.4366 55.7772 82.2161 55.9403 82.0536C56.1035 81.8911 56.3247 81.7997 56.5554 81.7997C56.7861 81.7997 57.0074 81.8911 57.1705 82.0536C57.3336 82.2161 57.4253 82.4366 57.4253 82.6665V85.2666H62.6443V82.6665C62.6443 82.4366 62.736 82.2161 62.8991 82.0536C63.0622 81.8911 63.2835 81.7997 63.5142 81.7997C63.7449 81.7997 63.9661 81.8911 64.1292 82.0536C64.2924 82.2161 64.384 82.4366 64.384 82.6665V85.2666H66.1237ZM82.0644 72.0733C82.4467 72.6434 82.6508 73.3137 82.6508 73.9994C82.6508 74.9188 82.2842 75.8006 81.6317 76.4508C80.9792 77.1009 80.0942 77.4662 79.1714 77.4662C78.4832 77.4662 77.8105 77.2629 77.2383 76.8819C76.6662 76.501 76.2202 75.9595 75.9569 75.3261C75.6935 74.6926 75.6246 73.9955 75.7589 73.323C75.8931 72.6505 76.2245 72.0328 76.7111 71.5479C77.1977 71.0631 77.8177 70.7329 78.4926 70.5991C79.1675 70.4654 79.8671 70.534 80.5029 70.7964C81.1387 71.0588 81.6821 71.5032 82.0644 72.0733ZM77.7249 73.0363C77.5337 73.3214 77.4317 73.6565 77.4317 73.9994C77.4317 74.4591 77.615 74.9 77.9412 75.2251C78.2675 75.5502 78.71 75.7328 79.1714 75.7328C79.5155 75.7328 79.8518 75.6311 80.1379 75.4407C80.424 75.2502 80.647 74.9795 80.7787 74.6627C80.9103 74.346 80.9448 73.9974 80.8777 73.6612C80.8105 73.3249 80.6448 73.0161 80.4015 72.7737C80.1582 72.5312 79.8483 72.3661 79.5108 72.2993C79.1733 72.2324 78.8235 72.2667 78.5056 72.3979C78.1878 72.5291 77.916 72.7513 77.7249 73.0363ZM72.6166 79.6022C73.4323 78.7895 74.5385 78.3329 75.692 78.3329H82.6508C83.8043 78.3329 84.9105 78.7895 85.7261 79.6022C86.5418 80.4149 87 81.5171 87 82.6665V86.1333C87 86.3632 86.9084 86.5836 86.7452 86.7461C86.5821 86.9087 86.3609 87 86.1302 87H72.2126C71.9819 87 71.7607 86.9087 71.5976 86.7461C71.4344 86.5836 71.3428 86.3632 71.3428 86.1333V82.6665C71.3428 81.5171 71.801 80.4149 72.6166 79.6022ZM83.5206 85.2666H85.2603V82.6665C85.2603 81.9769 84.9854 81.3155 84.496 80.8279C84.0066 80.3403 83.3429 80.0663 82.6508 80.0663H75.692C74.9999 80.0663 74.3362 80.3403 73.8468 80.8279C73.3574 81.3155 73.0825 81.9769 73.0825 82.6665V85.2666H74.8222V82.6665C74.8222 82.4366 74.9138 82.2161 75.0769 82.0536C75.2401 81.8911 75.4613 81.7997 75.692 81.7997C75.9227 81.7997 76.144 81.8911 76.3071 82.0536C76.4702 82.2161 76.5619 82.4366 76.5619 82.6665V85.2666H81.7809V82.6665C81.7809 82.4366 81.8726 82.2161 82.0357 82.0536C82.1988 81.8911 82.4201 81.7997 82.6508 81.7997C82.8815 81.7997 83.1027 81.8911 83.2658 82.0536C83.429 82.2161 83.5206 82.4366 83.5206 82.6665V85.2666ZM47.7874 67.9324H33.8698C33.6391 67.9324 33.4179 67.8411 33.2548 67.6786C33.0916 67.516 33 67.2956 33 67.0657V55.7985C33 54.6492 33.4582 53.5469 34.2739 52.7342C35.0895 51.9215 36.1957 51.4649 37.3492 51.4649H46.587L53.798 45.0773C54.1956 44.7247 54.7096 44.5303 55.2419 44.5313C55.4092 44.5367 55.5754 44.56 55.7378 44.6006L61.096 37.927C61.2456 37.7691 61.4492 37.6728 61.6666 37.6574C61.8839 37.6419 62.0992 37.7083 62.2698 37.8434C62.4404 37.9785 62.5539 38.1725 62.5878 38.387C62.6217 38.6015 62.5736 38.8208 62.453 39.0017L57.1295 45.6493C57.1418 45.6708 57.1595 45.6911 57.1773 45.7115C57.2099 45.7489 57.2426 45.7865 57.2426 45.8313C57.415 46.2172 57.4691 46.6453 57.3979 47.0617C57.3267 47.4781 57.1334 47.8642 56.8425 48.1714L48.6572 58.6933V67.0657C48.6572 67.2956 48.5656 67.516 48.4024 67.6786C48.2393 67.8411 48.0181 67.9324 47.7874 67.9324ZM35.504 53.9599C35.0146 54.4475 34.7397 55.1089 34.7397 55.7985V66.199H46.9175V58.3986C46.9181 58.2071 46.9824 58.0212 47.1002 57.8699L55.5203 47.0447C55.5929 46.9818 55.6443 46.8982 55.6677 46.8052C55.691 46.7122 55.6851 46.6143 55.6508 46.5247C55.6168 46.4472 55.5608 46.3813 55.4897 46.3351C55.4186 46.2889 55.3355 46.2644 55.2506 46.2647C55.1963 46.2629 55.1422 46.272 55.0914 46.2913C55.0406 46.3107 54.9942 46.3399 54.9549 46.3774L47.5003 52.9817C47.3395 53.123 47.132 53.2002 46.9175 53.1984H37.3492C36.6571 53.1984 35.9934 53.4723 35.504 53.9599ZM43.9656 48.9741C43.2 49.4856 42.3 49.7586 41.3793 49.7586C40.1447 49.7586 38.9606 49.2682 38.0876 48.3952C37.2146 47.5221 36.7241 46.3381 36.7241 45.1034C36.7241 44.1827 36.9972 43.2827 37.5087 42.5172C38.0202 41.7516 38.7472 41.155 39.5979 40.8026C40.4485 40.4503 41.3845 40.3581 42.2875 40.5377C43.1905 40.7173 44.02 41.1607 44.671 41.8117C45.322 42.4628 45.7654 43.2923 45.945 44.1953C46.1247 45.0983 46.0325 46.0343 45.6801 46.8849C45.3278 47.7355 44.7311 48.4626 43.9656 48.9741ZM43.1035 42.523C42.5931 42.182 41.9931 42 41.3793 42C40.5562 42 39.7668 42.327 39.1848 42.909C38.6028 43.491 38.2759 44.2804 38.2759 45.1034C38.2759 45.7173 38.4579 46.3173 38.7989 46.8276C39.1399 47.338 39.6246 47.7358 40.1917 47.9707C40.7588 48.2056 41.3828 48.267 41.9848 48.1473C42.5868 48.0275 43.1398 47.7319 43.5738 47.2979C44.0078 46.8639 44.3034 46.3109 44.4231 45.7089C44.5429 45.1069 44.4814 44.4829 44.2465 43.9158C44.0116 43.3487 43.6139 42.864 43.1035 42.523ZM63.2272 44.3359C63.062 44.1733 62.9692 43.9528 62.9692 43.7229C62.9692 43.4931 63.062 43.2726 63.2272 43.11C63.3924 42.9474 63.6164 42.8561 63.85 42.8561H81.4641C81.6977 42.8561 81.9217 42.9474 82.0869 43.11C82.252 43.2726 82.3448 43.4931 82.3448 43.7229C82.3448 43.9528 82.252 44.1733 82.0869 44.3359C81.9217 44.4984 81.6977 44.5898 81.4641 44.5898H63.85C63.6164 44.5898 63.3924 44.4984 63.2272 44.3359ZM82.0869 39.1349C81.9217 39.2975 81.6977 39.3888 81.4641 39.3888H70.0149C69.7813 39.3888 69.5573 39.2975 69.3922 39.1349C69.227 38.9724 69.1342 38.7519 69.1342 38.522C69.1342 38.2921 69.227 38.0716 69.3922 37.9091C69.5573 37.7465 69.7813 37.6552 70.0149 37.6552H81.4641C81.6977 37.6552 81.9217 37.7465 82.0869 37.9091C82.252 38.0716 82.3448 38.2921 82.3448 38.522C82.3448 38.7519 82.252 38.9724 82.0869 39.1349ZM59.7044 50.4037C59.5392 50.2411 59.4464 50.0206 59.4464 49.7907C59.4464 49.5608 59.5392 49.3403 59.7044 49.1778C59.8695 49.0152 60.0935 48.9239 60.3271 48.9239H81.4641C81.6977 48.9239 81.9217 49.0152 82.0869 49.1778C82.252 49.3403 82.3448 49.5608 82.3448 49.7907C82.3448 50.0206 82.252 50.2411 82.0869 50.4037C81.9217 50.5662 81.6977 50.6576 81.4641 50.6576H60.3271C60.0935 50.6576 59.8695 50.5662 59.7044 50.4037ZM55.0429 54.9917H81.4641C81.6977 54.9917 81.9217 55.083 82.0869 55.2456C82.252 55.4081 82.3448 55.6286 82.3448 55.8585C82.3448 56.0884 82.252 56.3089 82.0869 56.4714C81.9217 56.634 81.6977 56.7253 81.4641 56.7253H55.0429C54.8093 56.7253 54.5853 56.634 54.4201 56.4714C54.255 56.3089 54.1622 56.0884 54.1622 55.8585C54.1622 55.6286 54.255 55.4081 54.4201 55.2456C54.5853 55.083 54.8093 54.9917 55.0429 54.9917ZM50.6393 61.0595H81.4641C81.6977 61.0595 81.9217 61.1508 82.0869 61.3133C82.252 61.4759 82.3448 61.6964 82.3448 61.9263C82.3448 62.1562 82.252 62.3767 82.0869 62.5392C81.9217 62.7018 81.6977 62.7931 81.4641 62.7931H50.6393C50.4058 62.7931 50.1817 62.7018 50.0166 62.5392C49.8514 62.3767 49.7586 62.1562 49.7586 61.9263C49.7586 61.6964 49.8514 61.4759 50.0166 61.3133C50.1817 61.1508 50.4058 61.0595 50.6393 61.0595Z" fill="white"/>
</svg>
