<svg width="120" height="120" viewBox="0 0 120 120" fill="none" xmlns="http://www.w3.org/2000/svg">
<circle cx="60" cy="60" r="60" fill="#FFA800"/>
<circle cx="60" cy="60" r="49.5" fill="#FFA800" stroke="#FFBB38"/>
<path d="M41.94 32C40.346 32.0021 38.8178 32.6358 37.6905 33.7622C36.5632 34.8887 35.9286 36.416 35.926 38.0093V45.7515H34C32.8954 45.7515 32 46.647 32 47.7515V53.1117C32 53.664 32.4477 54.1117 33 54.1117C33.5523 54.1117 34 53.664 34 53.1117V47.7506H35.926V70.0203H35C34.7348 70.0203 34.4804 70.1257 34.2929 70.3131C34.1054 70.5006 34 70.7548 34 71.0198V77.0171C34 77.2822 34.1054 77.5363 34.2929 77.7238C34.4804 77.9112 34.7348 78.0166 35 78.0166H35.926V81.0872C35.926 81.3523 36.0314 81.6064 36.2189 81.7939C36.4064 81.9813 36.6608 82.0867 36.926 82.0867H39.856V85.0414C39.856 86.6667 41.192 88 42.816 88H46.746C48.37 88 49.706 86.6667 49.706 85.0414V82.0867H70.29V85.0414C70.29 86.6667 71.63 88 73.254 88H77.184C78.808 88 80.144 86.6667 80.144 85.0414V82.0867H83.074C83.3392 82.0867 83.5936 81.9813 83.7811 81.7939C83.9686 81.6064 84.074 81.3523 84.074 81.0872V78.0186H85C85.2652 78.0186 85.5196 77.9134 85.7071 77.726C85.8946 77.5385 86 77.2841 86 77.019V71.0218C86 70.7567 85.8946 70.5025 85.7071 70.3151C85.5196 70.1276 85.2652 70.0223 85 70.0223H84.074V47.7526H86V53.1097C86 53.662 86.4477 54.1097 87 54.1097C87.5523 54.1097 88 53.662 88 53.1097V47.7535C88 46.6489 87.1046 45.7535 86 45.7535H84.074V38.0093C84.0714 36.4157 83.4366 34.888 82.3088 33.7615C81.181 32.635 79.6524 32.0016 78.058 32H41.942H41.94ZM41.94 33.9992H78.06C80.3 33.9992 82.074 35.7703 82.074 38.0093V41.8115H37.926V38.0093C37.926 35.7703 39.7 33.9992 41.942 33.9992H41.94ZM37.926 43.8106H59V62.424H37.926V43.8106ZM61 43.8106H82.074V62.424H61V43.8106ZM37.926 64.4231H82.074V70.0203H37.926V64.4231ZM41.2535 66.3479C40.7015 66.3479 40.254 66.7955 40.254 67.3475C40.254 67.8995 40.7015 68.347 41.2535 68.347H45.2545C45.8065 68.347 46.254 67.8995 46.254 67.3475C46.254 66.7955 45.8065 66.3479 45.2545 66.3479H41.2535ZM74.6355 66.3479C74.0835 66.3479 73.636 66.7955 73.636 67.3475C73.636 67.8995 74.0835 68.347 74.6355 68.347H78.6365C79.1885 68.347 79.636 67.8995 79.636 67.3475C79.636 66.7955 79.1885 66.3479 78.6365 66.3479H74.6355ZM36 72.0213H84V76.0195H36V72.0213ZM37.926 78.0186H82.074V80.0877H37.926V78.0186ZM41.856 82.0867H47.708V85.0414C47.708 85.5912 47.298 86.0009 46.746 86.0009H42.816C42.689 86.0042 42.5627 85.9816 42.4448 85.9346C42.3268 85.8875 42.2196 85.8169 42.1298 85.7271C42.04 85.6374 41.9694 85.5302 41.9224 85.4123C41.8753 85.2944 41.8527 85.1683 41.856 85.0414V82.0867ZM72.29 82.0867H78.144V85.0414C78.144 85.5912 77.736 86.0009 77.184 86.0009H73.254C73.1269 86.0042 73.0004 85.9816 72.8822 85.9346C72.764 85.8875 72.6566 85.8171 72.5665 85.7274C72.4764 85.6377 72.4054 85.5307 72.3579 85.4128C72.3103 85.2949 72.2873 85.1685 72.29 85.0414V82.0867Z" fill="white"/>
</svg>
