<svg width="120" height="120" viewBox="0 0 120 120" fill="none" xmlns="http://www.w3.org/2000/svg">
<circle cx="60" cy="60" r="60" fill="#FFA800"/>
<circle cx="60" cy="60" r="49.5" fill="#FFA800" stroke="#FFBB38"/>
<path d="M85.0533 38.8345L76.3476 36.4273L72.1936 31.3138C72.114 31.2157 72.0135 31.1366 71.8994 31.0823C71.7854 31.0281 71.6606 30.9999 71.5343 31H48.4657C48.3395 30.9999 48.2148 31.0279 48.1008 31.0819C47.9867 31.136 47.8862 31.2148 47.8064 31.3127L43.6524 36.4273L34.9467 38.8345C33.8134 39.1505 32.8144 39.8281 32.1019 40.7644C31.3894 41.7006 31.0025 42.844 31 44.0205V83.6191C31.0018 85.0457 31.5693 86.4133 32.578 87.422C33.5867 88.4307 34.9543 88.9982 36.3809 89H83.6191C85.0457 88.9982 86.4133 88.4307 87.422 87.422C88.4307 86.4133 88.9982 85.0457 89 83.6191V44.0205C88.9975 42.844 88.6106 41.7006 87.8981 40.7644C87.1856 39.8281 86.1866 39.1505 85.0533 38.8345ZM74.8002 37.2169L67.3825 48.0432C67.2048 48.3029 66.9456 48.496 66.6459 48.592C66.3462 48.688 66.0231 48.6814 65.7275 48.5733L61.3594 46.9783L71.5637 33.2339L74.8002 37.2169ZM57.8998 55.0315H62.1002L65.3355 76.5855L60 83.3767L54.6645 76.5855L57.8998 55.0315ZM62.243 53.3323H57.757L56.3637 49.6178L60 48.2901L63.6363 49.6178L62.243 53.3323ZM67.7428 35.5313H52.2572L50.1547 32.6992H69.8453L67.7428 35.5313ZM66.4808 37.2305L60 45.9599L53.5192 37.2305H66.4808ZM48.4363 33.2339L58.6406 46.9783L54.2736 48.5733C53.9781 48.6814 53.6549 48.688 53.3552 48.592C53.0555 48.496 52.7963 48.3029 52.6186 48.0432L45.1998 37.2169L48.4363 33.2339ZM87.3008 83.6191C87.2996 84.5952 86.9113 85.5309 86.2211 86.2211C85.5309 86.9113 84.5952 87.2996 83.6191 87.3008H79.9375V80.2207C79.9375 79.9954 79.848 79.7793 79.6887 79.6199C79.5293 79.4606 79.3132 79.3711 79.0879 79.3711C78.8626 79.3711 78.6465 79.4606 78.4871 79.6199C78.3278 79.7793 78.2383 79.9954 78.2383 80.2207V87.3008H41.7617V80.2207C41.7617 79.9954 41.6722 79.7793 41.5129 79.6199C41.3535 79.4606 41.1374 79.3711 40.9121 79.3711C40.6868 79.3711 40.4707 79.4606 40.3113 79.6199C40.152 79.7793 40.0625 79.9954 40.0625 80.2207V87.3008H36.3809C35.4048 87.2996 34.4691 86.9113 33.7789 86.2211C33.0887 85.5309 32.7004 84.5952 32.6992 83.6191V44.0205C32.7008 43.2156 32.9656 42.4332 33.4532 41.7926C33.9407 41.1521 34.6244 40.6885 35.3998 40.4726L43.7827 38.1548L51.2162 49.0038C51.5972 49.5623 52.1501 49.9811 52.7909 50.1967C53.4317 50.4122 54.1254 50.4126 54.7664 50.1978L56.2946 54.2759L52.929 76.6965C52.9122 76.8109 52.9188 76.9275 52.9484 77.0393C52.978 77.1511 53.03 77.2557 53.1012 77.3468L59.3316 85.2764C59.4111 85.3777 59.5126 85.4596 59.6284 85.5159C59.7442 85.5723 59.8712 85.6015 60 85.6015C60.1288 85.6015 60.2558 85.5723 60.3716 85.5159C60.4874 85.4596 60.5889 85.3777 60.6684 85.2764L66.8988 77.3468C66.97 77.2557 67.022 77.1511 67.0516 77.0393C67.0812 76.9275 67.0878 76.8109 67.071 76.6965L63.7054 54.2736L65.2336 50.1955C65.8746 50.4103 66.5683 50.4099 67.2091 50.1944C67.8499 49.9789 68.4028 49.56 68.7838 49.0015L76.2173 38.1526L84.6002 40.4703C85.376 40.6864 86.0599 41.1503 86.5475 41.7913C87.0351 42.4323 87.2996 43.2152 87.3008 44.0205V83.6191Z" fill="white"/>
<path d="M79.1477 75C78.9217 75 78.7049 75.0948 78.5451 75.2636C78.3852 75.4324 78.2955 75.6613 78.2955 75.9V77.1C78.2955 77.3387 78.3852 77.5676 78.5451 77.7364C78.7049 77.9052 78.9217 78 79.1477 78C79.3738 78 79.5905 77.9052 79.7504 77.7364C79.9102 77.5676 80 77.3387 80 77.1V75.9C80 75.6613 79.9102 75.4324 79.7504 75.2636C79.5905 75.0948 79.3738 75 79.1477 75ZM40.8523 75C40.6262 75 40.4095 75.0948 40.2496 75.2636C40.0898 75.4324 40 75.6613 40 75.9V77.1C40 77.3387 40.0898 77.5676 40.2496 77.7364C40.4095 77.9052 40.6262 78 40.8523 78C41.0783 78 41.2951 77.9052 41.4549 77.7364C41.6148 77.5676 41.7045 77.3387 41.7045 77.1V75.9C41.7045 75.6613 41.6148 75.4324 41.4549 75.2636C41.2951 75.0948 41.0783 75 40.8523 75Z" fill="white"/>
</svg>
