<svg xmlns="http://www.w3.org/2000/svg" xmlns:xlink="http://www.w3.org/1999/xlink" width="24" height="24" viewBox="0 0 24 24">
  <defs>
    <linearGradient id="linear-gradient" x2="1" y2="1" gradientUnits="objectBoundingBox">
      <stop offset="0" stop-color="#eea941"/>
      <stop offset="0.529" stop-color="#e63dc4"/>
      <stop offset="1" stop-color="#8800e2"/>
    </linearGradient>
  </defs>
  <path id="instagram" d="M12,9.614A2.387,2.387,0,1,0,14.386,12,2.39,2.39,0,0,0,12,9.614Zm0,0A2.387,2.387,0,1,0,14.386,12,2.39,2.39,0,0,0,12,9.614Zm3.976-3.891H8.024a2.3,2.3,0,0,0-2.3,2.3v7.952a2.3,2.3,0,0,0,2.3,2.3h7.952a2.3,2.3,0,0,0,2.3-2.3V8.024A2.3,2.3,0,0,0,15.976,5.722ZM12,16.133A4.133,4.133,0,1,1,16.133,12,4.138,4.138,0,0,1,12,16.133Zm4.266-7.412a.978.978,0,1,1,.978-.978A.979.979,0,0,1,16.266,8.721ZM12,9.614A2.387,2.387,0,1,0,14.386,12,2.39,2.39,0,0,0,12,9.614Zm3.976-3.891H8.024a2.3,2.3,0,0,0-2.3,2.3v7.952a2.3,2.3,0,0,0,2.3,2.3h7.952a2.3,2.3,0,0,0,2.3-2.3V8.024A2.3,2.3,0,0,0,15.976,5.722ZM12,16.133A4.133,4.133,0,1,1,16.133,12,4.138,4.138,0,0,1,12,16.133Zm4.266-7.412a.978.978,0,1,1,.978-.978A.979.979,0,0,1,16.266,8.721ZM12,9.614A2.387,2.387,0,1,0,14.386,12,2.39,2.39,0,0,0,12,9.614ZM0,0V24H24V0ZM20.024,15.976a4.053,4.053,0,0,1-4.048,4.048H8.024a4.053,4.053,0,0,1-4.048-4.048V8.024A4.053,4.053,0,0,1,8.024,3.976h7.952a4.053,4.053,0,0,1,4.048,4.048v7.952ZM15.976,5.722H8.024a2.3,2.3,0,0,0-2.3,2.3v7.952a2.3,2.3,0,0,0,2.3,2.3h7.952a2.3,2.3,0,0,0,2.3-2.3V8.024A2.3,2.3,0,0,0,15.976,5.722ZM12,16.133A4.133,4.133,0,1,1,16.133,12,4.138,4.138,0,0,1,12,16.133Zm4.266-7.412a.978.978,0,1,1,.978-.978A.979.979,0,0,1,16.266,8.721ZM12,9.614A2.387,2.387,0,1,0,14.386,12,2.39,2.39,0,0,0,12,9.614Zm0,0A2.387,2.387,0,1,0,14.386,12,2.39,2.39,0,0,0,12,9.614Zm0,0A2.387,2.387,0,1,0,14.386,12,2.39,2.39,0,0,0,12,9.614Zm3.976-3.891H8.024a2.3,2.3,0,0,0-2.3,2.3v7.952a2.3,2.3,0,0,0,2.3,2.3h7.952a2.3,2.3,0,0,0,2.3-2.3V8.024A2.3,2.3,0,0,0,15.976,5.722ZM12,16.133A4.133,4.133,0,1,1,16.133,12,4.138,4.138,0,0,1,12,16.133Zm4.266-7.412a.978.978,0,1,1,.978-.978A.979.979,0,0,1,16.266,8.721ZM12,9.614A2.387,2.387,0,1,0,14.386,12,2.39,2.39,0,0,0,12,9.614Zm0,0A2.387,2.387,0,1,0,14.386,12,2.39,2.39,0,0,0,12,9.614Zm0,0A2.387,2.387,0,1,0,14.386,12,2.39,2.39,0,0,0,12,9.614Zm3.976-3.891H8.024a2.3,2.3,0,0,0-2.3,2.3v7.952a2.3,2.3,0,0,0,2.3,2.3h7.952a2.3,2.3,0,0,0,2.3-2.3V8.024A2.3,2.3,0,0,0,15.976,5.722ZM12,16.133A4.133,4.133,0,1,1,16.133,12,4.138,4.138,0,0,1,12,16.133Zm4.266-7.412a.978.978,0,1,1,.978-.978A.979.979,0,0,1,16.266,8.721ZM12,9.614A2.387,2.387,0,1,0,14.386,12,2.39,2.39,0,0,0,12,9.614Z" fill="url(#linear-gradient)"/>
</svg>
