<svg width="126" height="75" viewBox="0 0 126 75" fill="none" xmlns="http://www.w3.org/2000/svg">
<path d="M67.8153 8.4375H67.1796V63.5071H67.8153V8.4375Z" fill="white"/>
<path fill-rule="evenodd" clip-rule="evenodd" d="M1.20932 5.20969C0.962269 8.28746 0.528058 11.3577 0.325926 14.4955C-0.669765 29.9294 0.221116 47.5553 8.64331 60.0465L11.009 63.2444C13.7865 66.7125 18.3532 70.1732 22.9273 72.4252C26.4834 74.1743 30.0993 75 30.0993 75C30.0993 75 34.097 74.3394 37.9301 72.5228C49.6163 66.9678 57.1701 55.52 59.2139 42.8711C47.348 42.8711 35.4895 42.8711 23.6236 42.8711V46.6545H54.1007C53.7563 48.1108 53.3296 49.5296 52.7382 50.8958C48.9201 59.6937 41.6883 66.5249 33.4233 69.8504C31.1474 70.7587 30.0993 70.9163 30.0993 70.9163C30.0993 70.9163 29.0662 70.7587 26.8352 69.8504C18.7275 66.5249 11.6603 59.6937 8.00697 50.8958C4.68301 42.8936 3.78464 33.0973 3.78464 23.6163C3.78464 19.4125 4.18142 15.051 4.45093 11.4028C4.45093 11.4028 7.5503 12.5288 11.5929 12.7465C19.6333 13.1819 24.3647 9.74377 30.0993 5.12711C35.8414 9.74377 40.5728 13.1819 48.6057 12.7465C52.6483 12.5288 55.7477 11.4028 55.7477 11.4028C55.9723 14.413 56.2792 17.9036 56.384 21.4018H60.1722C60.1272 19.0672 60.0224 16.7551 59.8727 14.4955C59.6706 11.3577 59.2364 8.28746 58.9893 5.20969C50.8965 9.04564 43.5823 10.1867 35.512 4.72175C32.7645 2.86758 30.3538 0.165149 30.0993 0C29.8523 0.165149 27.4342 2.86758 24.6866 4.72175C16.6163 10.1867 9.30211 9.04564 1.20932 5.20969Z" fill="white"/>
<path fill-rule="evenodd" clip-rule="evenodd" d="M23.5412 38.382L33.3484 38.397L33.6104 41.3396L35.8189 41.3547V35.5895L34.0895 35.5519L34.0371 24.2468L30.8554 24.2543L30.8479 35.582H26.7528L26.7079 24.2393L23.5112 24.2768L23.5412 38.382Z" fill="white"/>
<path fill-rule="evenodd" clip-rule="evenodd" d="M52.7756 26.8291L56.7659 26.8516L56.8108 38.382H60.0075V24.2393H49.534L49.5864 38.382L52.7531 38.367L52.7756 26.8291Z" fill="white"/>
<path fill-rule="evenodd" clip-rule="evenodd" d="M36.343 28.2107L39.0381 28.6536C39.4573 26.0112 42.377 26.6643 43.0658 27.1373C43.732 27.5877 43.8593 28.5936 43.3952 29.3367C42.916 30.1024 40.9546 30.0349 40.8797 30.0424L40.8273 32.1668C40.8273 32.1668 43.0059 32.0317 43.6123 32.8199C44.2187 33.6006 44.024 34.8767 43.3577 35.4172C42.6839 35.9577 41.3738 36.0403 40.4829 35.74C39.622 35.4472 39.068 34.7491 38.9333 33.6756L35.9761 34.0735C36.051 35.1395 36.2456 35.77 36.7847 36.5432C39.0156 39.7411 46.7865 39.3808 47.3929 34.7041C47.6774 32.5121 46.3897 31.3636 44.7502 30.9056C45.2069 30.4402 47.4079 29.9148 46.9587 27.2198C46.4047 23.8418 41.1717 23.474 38.7611 24.5775C37.4584 25.1705 36.5676 26.3566 36.343 28.2107Z" fill="white"/>
<path d="M75.085 45.7617H83.1029V56.0009H81.7479V46.9628H76.44V56.0009H75.085V45.7617ZM85.1691 58.8535V48.5843H86.3071V49.5526C86.5766 49.1773 86.8835 48.892 87.2204 48.7044C87.5573 48.5167 87.969 48.4266 88.4557 48.4266C89.0845 48.4266 89.6385 48.5843 90.1251 48.9146C90.6043 49.2373 90.9711 49.6953 91.2181 50.2883C91.4652 50.8813 91.585 51.5269 91.585 52.24C91.585 52.9907 91.4502 53.6738 91.1807 54.2819C90.9112 54.8899 90.5144 55.3554 89.9979 55.6781C89.4813 56.0009 88.9348 56.1586 88.3658 56.1586C87.9466 56.1586 87.5723 56.076 87.2429 55.8958C86.906 55.7232 86.6365 55.498 86.4194 55.2277V58.8535H85.1691ZM86.3071 52.3376C86.3071 53.291 86.5017 53.9891 86.8835 54.447C87.2653 54.9049 87.737 55.1302 88.2835 55.1302C88.8375 55.1302 89.3166 54.8974 89.7059 54.4245C90.1027 53.9516 90.3048 53.2234 90.3048 52.2325C90.3048 51.2867 90.1102 50.5811 89.7209 50.1156C89.3316 49.6427 88.8749 49.41 88.3359 49.41C87.8043 49.41 87.3327 49.6577 86.9209 50.1607C86.5092 50.6561 86.3071 51.3843 86.3071 52.3376ZM97.9334 55.0776C97.4693 55.4755 97.0201 55.7532 96.5934 55.9184C96.1592 56.0835 95.695 56.1586 95.2009 56.1586C94.3924 56.1586 93.7635 55.9634 93.3293 55.5655C92.8876 55.1677 92.6705 54.6647 92.6705 54.0417C92.6705 53.6813 92.7529 53.351 92.9176 53.0508C93.0823 52.7505 93.2994 52.5103 93.5689 52.3301C93.8384 52.15 94.1378 52.0148 94.4747 51.9173C94.7218 51.8572 95.0886 51.7896 95.5902 51.7296C96.6009 51.6095 97.3495 51.4669 97.8286 51.3017C97.8361 51.129 97.8361 51.0164 97.8361 50.9714C97.8361 50.4609 97.7163 50.1006 97.4768 49.8904C97.1549 49.6052 96.6832 49.4701 96.0469 49.4701C95.4554 49.4701 95.0212 49.5752 94.7367 49.7778C94.4523 49.988 94.2501 50.3559 94.1154 50.8813L92.8876 50.7087C92.9999 50.1832 93.1796 49.7553 93.4341 49.4325C93.6961 49.1097 94.063 48.862 94.5496 48.6894C95.0362 48.5092 95.5977 48.4266 96.234 48.4266C96.8629 48.4266 97.3794 48.4942 97.7762 48.6443C98.173 48.7944 98.465 48.9821 98.6521 49.2073C98.8393 49.44 98.9666 49.7253 99.0414 50.0706C99.0863 50.2808 99.1088 50.6711 99.1088 51.2266V52.8931C99.1088 54.0567 99.1313 54.7923 99.1837 55.1076C99.2361 55.4229 99.3409 55.7157 99.4906 56.0009H98.1805C98.0532 55.7382 97.9709 55.4304 97.9334 55.0776ZM97.8361 52.2851C97.3794 52.4728 96.6982 52.6304 95.7848 52.758C95.2608 52.8331 94.894 52.9157 94.6843 53.0057C94.4672 53.1033 94.3025 53.2384 94.1902 53.4111C94.0705 53.5913 94.0106 53.7864 94.0106 54.0116C94.0106 54.3419 94.1378 54.6197 94.3924 54.8374C94.6469 55.0626 95.0212 55.1752 95.5078 55.1752C95.987 55.1752 96.4212 55.0701 96.7955 54.8599C97.1698 54.6497 97.4543 54.357 97.6265 53.9966C97.7612 53.7114 97.8286 53.291 97.8286 52.743L97.8361 52.2851ZM101.033 48.5843H103.923C104.634 48.5843 105.158 48.6368 105.502 48.7569C105.847 48.877 106.146 49.0947 106.393 49.41C106.648 49.7328 106.767 50.1081 106.767 50.551C106.767 50.9114 106.693 51.2191 106.55 51.4819C106.401 51.7446 106.183 51.9698 105.891 52.1425C106.236 52.2626 106.52 52.4803 106.752 52.7955C106.984 53.1183 107.097 53.4937 107.097 53.9291C107.052 54.6347 106.797 55.1527 106.341 55.4905C105.891 55.8358 105.233 56.0009 104.364 56.0009H101.033V48.5843ZM102.291 51.7146H103.623C104.147 51.7146 104.514 51.6845 104.716 51.632C104.911 51.5719 105.09 51.4593 105.248 51.2867C105.405 51.1215 105.487 50.9114 105.487 50.6786C105.487 50.2808 105.345 50.0105 105.075 49.8529C104.798 49.7028 104.327 49.6277 103.661 49.6277H102.291V51.7146ZM102.291 54.9725H103.938C104.641 54.9725 105.135 54.8899 105.397 54.7248C105.659 54.5596 105.794 54.2744 105.809 53.869C105.809 53.6288 105.734 53.4111 105.585 53.2084C105.427 53.0057 105.233 52.8781 104.986 52.8256C104.739 52.773 104.342 52.743 103.803 52.743H102.291V54.9725ZM113.288 55.0776C112.824 55.4755 112.375 55.7532 111.94 55.9184C111.514 56.0835 111.05 56.1586 110.555 56.1586C109.747 56.1586 109.118 55.9634 108.684 55.5655C108.242 55.1677 108.025 54.6647 108.025 54.0417C108.025 53.6813 108.107 53.351 108.272 53.0508C108.437 52.7505 108.654 52.5103 108.923 52.3301C109.193 52.15 109.492 52.0148 109.822 51.9173C110.069 51.8572 110.443 51.7896 110.945 51.7296C111.955 51.6095 112.704 51.4669 113.183 51.3017C113.183 51.129 113.191 51.0164 113.191 50.9714C113.191 50.4609 113.071 50.1006 112.831 49.8904C112.509 49.6052 112.03 49.4701 111.401 49.4701C110.81 49.4701 110.368 49.5752 110.091 49.7778C109.807 49.988 109.605 50.3559 109.462 50.8813L108.242 50.7087C108.354 50.1832 108.534 49.7553 108.789 49.4325C109.051 49.1097 109.418 48.862 109.904 48.6894C110.383 48.5092 110.952 48.4266 111.589 48.4266C112.217 48.4266 112.734 48.4942 113.131 48.6443C113.528 48.7944 113.82 48.9821 114.007 49.2073C114.186 49.44 114.321 49.7253 114.396 50.0706C114.433 50.2808 114.456 50.6711 114.456 51.2266V52.8931C114.456 54.0567 114.486 54.7923 114.538 55.1076C114.583 55.4229 114.688 55.7157 114.845 56.0009H113.528C113.408 55.7382 113.325 55.4304 113.288 55.0776ZM113.191 52.2851C112.734 52.4728 112.045 52.6304 111.132 52.758C110.615 52.8331 110.249 52.9157 110.039 53.0057C109.822 53.1033 109.657 53.2384 109.545 53.4111C109.425 53.5913 109.365 53.7864 109.365 54.0116C109.365 54.3419 109.492 54.6197 109.747 54.8374C110.002 55.0626 110.368 55.1752 110.862 55.1752C111.342 55.1752 111.768 55.0701 112.15 54.8599C112.524 54.6497 112.801 54.357 112.981 53.9966C113.116 53.7114 113.183 53.291 113.183 52.743L113.191 52.2851Z" fill="white"/>
<path d="M75.1 13.8057H76.4551V22.8438H81.7629V13.8057H83.118V22.8438H84.0388V26.8899H82.841V24.0449H75.1V13.8057ZM90.5145 21.6427L91.8097 21.8154C91.6075 22.5736 91.2332 23.1591 90.6792 23.5795C90.1252 23.9923 89.4215 24.2025 88.5681 24.2025C87.49 24.2025 86.6291 23.8722 86.0002 23.2041C85.3639 22.536 85.0495 21.5977 85.0495 20.3966C85.0495 19.1505 85.3714 18.1821 86.0077 17.499C86.6515 16.8084 87.475 16.4631 88.5007 16.4631C89.4814 16.4631 90.2899 16.8009 90.9188 17.4765C91.5402 18.1521 91.8546 19.0979 91.8546 20.3215C91.8546 20.3966 91.8546 20.5092 91.8471 20.6593H86.3371C86.382 21.4701 86.6066 22.0931 87.0259 22.5285C87.4376 22.9564 87.9542 23.1741 88.5681 23.1741C89.0247 23.1741 89.414 23.054 89.7434 22.8063C90.0653 22.5661 90.3199 22.1757 90.5145 21.6427ZM86.4045 19.6309H90.5295C90.4696 19.0003 90.3124 18.5349 90.0579 18.2196C89.6611 17.7392 89.137 17.499 88.5082 17.499C87.9317 17.499 87.4451 17.6867 87.0558 18.077C86.6665 18.4599 86.4494 18.9778 86.4045 19.6309ZM93.3968 16.6207H94.6545V19.7135H98.1357V16.6207H99.3859V24.0449H98.1357V20.7569H94.6545V24.0449H93.3968V16.6207ZM100.614 16.6207H106.61V17.6641H104.237V24.0449H102.987V17.6641H100.614V16.6207ZM107.808 26.8899V16.6207H108.946V17.5966C109.216 17.2212 109.522 16.936 109.859 16.7483C110.196 16.5606 110.608 16.4631 111.095 16.4631C111.723 16.4631 112.277 16.6282 112.764 16.9585C113.243 17.2813 113.61 17.7392 113.857 18.3322C114.104 18.9253 114.224 19.5709 114.224 20.284C114.224 21.0347 114.089 21.7178 113.82 22.3258C113.55 22.9339 113.153 23.3993 112.637 23.7221C112.12 24.0449 111.574 24.2025 111.005 24.2025C110.586 24.2025 110.211 24.1124 109.882 23.9398C109.545 23.7596 109.275 23.5419 109.058 23.2717V26.8899H107.808ZM108.946 20.3816C108.946 21.3349 109.141 22.0331 109.522 22.491C109.912 22.9489 110.376 23.1741 110.922 23.1741C111.476 23.1741 111.956 22.9414 112.345 22.4685C112.742 21.9955 112.944 21.2674 112.944 20.2765C112.944 19.3306 112.749 18.625 112.36 18.1596C111.971 17.6867 111.514 17.4539 110.975 17.4539C110.443 17.4539 109.972 17.7017 109.56 18.2046C109.156 18.7001 108.946 19.4282 108.946 20.3816Z" fill="white"/>
<path d="M74.516 37.136L75.7962 36.8057C75.8935 37.3012 76.1555 37.7966 76.5822 38.2921C77.009 38.7875 77.563 39.0352 78.2667 39.0352C78.9779 39.0352 79.5468 38.8551 79.9586 38.4872C80.3704 38.1194 80.5725 37.669 80.5725 37.151C80.5725 36.588 80.3629 36.1376 79.9212 35.8073C79.4944 35.4695 78.903 35.3044 78.1544 35.3044H77.5105V34.1183C78.1244 34.1183 78.6036 34.0808 78.9255 34.0132C79.2549 33.9381 79.5468 33.758 79.8014 33.4577C80.0484 33.165 80.1757 32.8271 80.1757 32.4518C80.1757 32.0089 80.0035 31.6186 79.6591 31.2958C79.3223 30.9655 78.8506 30.8003 78.2667 30.8003C77.7576 30.8003 77.3159 30.9279 76.9566 31.1907C76.5972 31.4459 76.3427 31.7912 76.2079 32.2191C76.0657 32.647 75.9983 32.9623 75.9983 33.1725L74.6957 32.8722C75.0176 30.7027 76.2079 29.6143 78.2742 29.6143C79.2699 29.6143 80.0634 29.892 80.6399 30.4475C81.2238 31.003 81.5158 31.6486 81.5158 32.3918C81.5158 33.3451 81.0666 34.0883 80.1682 34.6138C80.6923 34.7564 81.1265 35.0491 81.4783 35.492C81.8302 35.9425 82.0024 36.4754 82.0024 37.091C82.0024 37.9768 81.6655 38.7124 80.9842 39.3055C80.303 39.8985 79.4046 40.1988 78.2816 40.1988C76.3502 40.1988 75.0924 39.1779 74.516 37.136ZM88.3658 39.0953C87.9017 39.4931 87.4525 39.7709 87.0183 39.936C86.5915 40.1012 86.1274 40.1838 85.6333 40.1838C84.8173 40.1838 84.1959 39.9811 83.7542 39.5832C83.32 39.1929 83.1029 38.6824 83.1029 38.0669C83.1029 37.7065 83.1852 37.3687 83.3499 37.0685C83.5146 36.7682 83.7317 36.5355 83.9938 36.3478C84.2633 36.1677 84.5627 36.0325 84.8996 35.9425C85.1467 35.8749 85.521 35.8148 86.0151 35.7473C87.0332 35.6347 87.7819 35.4845 88.261 35.3194C88.261 35.1467 88.261 35.0416 88.261 34.9891C88.261 34.4861 88.1487 34.1258 87.9091 33.9156C87.5872 33.6304 87.1081 33.4877 86.4792 33.4877C85.8878 33.4877 85.4461 33.5928 85.1691 33.803C84.8846 34.0057 84.675 34.3735 84.5403 34.9065L83.3125 34.7339C83.4248 34.2084 83.612 33.7805 83.8665 33.4577C84.121 33.1274 84.4954 32.8797 84.982 32.707C85.4611 32.5344 86.0226 32.4443 86.6589 32.4443C87.2953 32.4443 87.8118 32.5194 88.2086 32.6695C88.6054 32.8196 88.8974 33.0073 89.077 33.2325C89.2642 33.4577 89.3989 33.743 89.4738 34.0883C89.5112 34.306 89.5337 34.6888 89.5337 35.2443V36.9108C89.5337 38.0819 89.5636 38.8175 89.616 39.1253C89.661 39.4406 89.7658 39.7409 89.9155 40.0261H88.6054C88.4781 39.7634 88.4033 39.4481 88.3658 39.0953ZM88.261 36.3028C87.8043 36.4904 87.1231 36.6481 86.2097 36.7757C85.6932 36.8508 85.3263 36.9333 85.1092 37.0309C84.8996 37.121 84.7349 37.2561 84.6151 37.4363C84.5028 37.609 84.4429 37.8116 84.4429 38.0293C84.4429 38.3596 84.5702 38.6374 84.8248 38.8626C85.0793 39.0803 85.4461 39.1929 85.9327 39.1929C86.4194 39.1929 86.8461 39.0878 87.2279 38.8776C87.6022 38.6674 87.8792 38.3821 88.0589 38.0143C88.1936 37.7291 88.261 37.3162 88.261 36.7607V36.3028ZM91.5026 32.6019H92.7603V38.9977H95.6126V32.6019H96.8704V38.9977H99.7227V32.6019H100.973V38.9977H101.804V42.128H100.763V40.0261H91.5026V32.6019ZM103.196 32.6019H104.454V38.262L107.943 32.6019H109.29V40.0261H108.033V34.3961L104.551 40.0261H103.196V32.6019ZM110.511 32.6019H116.5V33.6454H114.134V40.0261H112.876V33.6454H110.511V32.6019ZM124.75 32.6019H126V40.0261H124.75V32.6019ZM117.742 32.6019H119V35.5071H120.58C121.613 35.5071 122.414 35.7022 122.968 36.1076C123.529 36.513 123.806 37.0685 123.806 37.7741C123.806 38.3972 123.574 38.9226 123.11 39.3655C122.639 39.8084 121.897 40.0261 120.872 40.0261H117.742V32.6019ZM119 38.9977H120.318C121.111 38.9977 121.673 38.9001 122.017 38.7049C122.354 38.5098 122.519 38.202 122.519 37.7891C122.519 37.4663 122.399 37.1811 122.144 36.9258C121.897 36.6781 121.343 36.5505 120.482 36.5505H119V38.9977Z" fill="white"/>
</svg>
