<svg xmlns="http://www.w3.org/2000/svg" width="24" height="24" viewBox="0 0 24 24">
  <g id="Group_4" data-name="Group 4" transform="translate(-607 -22)">
    <g id="badoo" transform="translate(607 22)">
      <rect id="Rectangle_1" data-name="Rectangle 1" width="24" height="24" fill="#ff9800"/>
    </g>
    <g id="odnoklassniki" transform="translate(613.5 25.5)">
      <path id="Subtraction_1" data-name="Subtraction 1" d="M-608.847-16.3a4.641,4.641,0,0,1-4.653-4.6,4.632,4.632,0,0,1,4.653-4.6,4.631,4.631,0,0,1,4.652,4.6A4.631,4.631,0,0,1-608.847-16.3Zm0-6.639A2.054,2.054,0,0,0-610.91-20.9a2.057,2.057,0,0,0,2.063,2.038,2.053,2.053,0,0,0,2.062-2.038A2.053,2.053,0,0,0-608.847-22.939Z" transform="translate(614.216 25.5)" fill="#fff"/>
      <path id="Path_13" data-name="Path 13" d="M106.163,261.46a1.777,1.777,0,0,0,.811-1.486,1.282,1.282,0,0,0-.728-1.171,1.373,1.373,0,0,0-1.432.133,5.5,5.5,0,0,1-6.417,0,1.38,1.38,0,0,0-1.432-.133,1.284,1.284,0,0,0-.729,1.17,1.779,1.779,0,0,0,.811,1.486,8.3,8.3,0,0,0,2.1.991q.189.058.39.108l-2.163,2.091a1.4,1.4,0,0,0-.031,2,1.443,1.443,0,0,0,2.024.03l.035-.035,2.2-2.256,2.209,2.26a1.443,1.443,0,0,0,2.024.032,1.4,1.4,0,0,0,.032-2l-.035-.035-2.159-2.089q.2-.051.392-.108A8.273,8.273,0,0,0,106.163,261.46Z" transform="translate(-96.237 -250.08)" fill="#fff"/>
    </g>
  </g>
</svg>
