<svg id="telegram" xmlns="http://www.w3.org/2000/svg" width="24" height="24" viewBox="0 0 24 24">
  <rect id="Rectangle_2" data-name="Rectangle 2" width="24" height="24" fill="#38a2f2"/>
  <path id="Path_2" data-name="Path 2" d="M63.435,99.562l-16.049,6.254a.585.585,0,0,0,.047,1.107l4.078,1.2,1.522,4.829a.7.7,0,0,0,1.168.28l2.109-2.153,4.137,3.037A.863.863,0,0,0,61.8,113.6l2.74-13.1A.826.826,0,0,0,63.435,99.562Zm-2.012,2.907-7.455,6.592a.4.4,0,0,0-.133.255l-.287,2.551a.077.077,0,0,1-.151.014l-1.181-3.805a.4.4,0,0,1,.171-.459l8.8-5.46A.194.194,0,0,1,61.422,102.469Z" transform="translate(-44.537 -94.264)" fill="#fff"/>
</svg>
