<svg width="24" height="24" viewBox="0 0 24 24" fill="none" xmlns="http://www.w3.org/2000/svg">
<path d="M12 24C18.6274 24 24 18.6274 24 12C24 5.37258 18.6274 0 12 0C5.37258 0 0 5.37258 0 12C0 18.6274 5.37258 24 12 24Z" fill="#000078"/>
<path d="M4.46911 12.5869C5.87191 11.8142 7.43781 11.1693 8.90091 10.5211C11.418 9.45942 13.9451 8.41612 16.4977 7.44482C16.9943 7.27933 17.8867 7.11751 17.9742 7.85348C17.9263 8.89528 17.7292 9.93098 17.594 10.9667C17.2509 13.2443 16.8542 15.5141 16.4675 17.7842C16.3342 18.5404 15.387 18.9318 14.7809 18.4479C13.3243 17.464 11.8565 16.4897 10.4185 15.483C9.94745 15.0043 10.3843 14.317 10.8049 13.9752C12.0046 12.7929 13.2769 11.7884 14.4139 10.545C14.7206 9.80436 13.8144 10.4285 13.5155 10.6198C11.8731 11.7516 10.2709 12.9525 8.53933 13.9472C7.65483 14.4341 6.62393 14.018 5.73983 13.7463C4.94714 13.4181 3.78553 13.0874 4.46903 12.587L4.46911 12.5869Z" fill="white"/>
</svg>
