<svg width="24" height="24" viewBox="0 0 24 24" fill="none" xmlns="http://www.w3.org/2000/svg">
<path d="M12 0C18.6274 0 24 5.37258 24 12C24 18.6274 18.6274 24 12 24C5.37258 24 0 18.6274 0 12C0 5.37258 5.37258 0 12 0Z" fill="#000078"/>
<path d="M15.1971 10.4792C15.1387 10.005 14.993 9.63273 14.7342 9.30295C14.3981 8.87832 13.9686 8.62404 13.3328 8.4732C12.9184 8.37266 12.751 8.3842 12.6011 8.5211C12.4615 8.64935 12.4343 8.90647 12.5409 9.07298C12.616 9.19383 12.7025 9.23712 12.9432 9.28437C13.2638 9.34335 13.4853 9.41989 13.6868 9.53511C14.1145 9.78208 14.3137 10.1686 14.3351 10.7942C14.345 11.088 14.3704 11.1783 14.473 11.2825C14.6632 11.473 15.0016 11.4359 15.1452 11.208C15.1979 11.1221 15.2059 11.0847 15.2115 10.8852C15.2151 10.7617 15.2098 10.5779 15.1971 10.4792Z" fill="white"/>
<path d="M16.8723 11.0139C16.7878 9.56118 16.2196 8.39242 15.2027 7.57011C14.6298 7.10805 13.9372 6.79033 13.1781 6.63582C12.9 6.58055 12.3881 6.53576 12.3002 6.56138C12.2173 6.58511 12.1001 6.67485 12.0479 6.75601C11.9926 6.84402 11.9802 7.04053 12.0273 7.15419C12.1034 7.34421 12.2449 7.41133 12.6413 7.44601C13.2523 7.49947 13.8826 7.71415 14.3588 8.03198C14.9024 8.39384 15.3346 8.88879 15.6142 9.4704C15.8558 9.97012 16.0043 10.6903 16.0002 11.3352C15.9988 11.5684 16.0349 11.7001 16.1287 11.7964C16.2702 11.9445 16.4766 11.9769 16.6588 11.8785C16.8606 11.7724 16.9078 11.586 16.8723 11.0139Z" fill="white"/>
<path d="M18.7261 16.6082C18.6977 16.5252 18.6314 16.3971 18.584 16.3235C18.2856 15.8729 16.6823 14.6181 15.8817 14.2078C15.4247 13.973 15.086 13.8947 14.8349 13.9682C14.565 14.0441 14.4228 14.1698 13.9705 14.732C13.7881 14.9573 13.601 15.1684 13.5513 15.2016C13.4281 15.287 13.1866 15.3558 13.0161 15.3558C12.6205 15.3534 11.9029 15.0973 11.3511 14.7604C10.9224 14.4996 10.373 14.0323 9.95142 13.5697C9.45405 13.0266 9.11542 12.5474 8.84776 12.0066C8.502 11.3117 8.41437 10.8871 8.55882 10.5763C8.59436 10.4981 8.64173 10.4151 8.66302 10.389C8.68435 10.3653 8.90699 10.1826 9.15326 9.98337C9.63643 9.59914 9.71458 9.51138 9.80457 9.24809C9.91825 8.91362 9.88748 8.57207 9.71222 8.22816C9.57721 7.96723 9.22433 7.39798 8.96856 7.03033C8.62988 6.54648 7.78675 5.51232 7.61857 5.37233C7.31543 5.12568 6.92706 5.08296 6.49835 5.24903C6.04603 5.42455 5.19814 6.10766 4.83578 6.58442C4.50894 7.01611 4.38346 7.32207 4.3645 7.7253C4.34793 8.05736 4.37634 8.19493 4.5516 8.61952C5.92287 11.9497 7.96909 14.6086 10.7803 16.7197C12.2487 17.8226 13.7715 18.6623 15.3512 19.2363C16.2725 19.5707 16.6728 19.5873 17.1441 19.3122C17.343 19.1936 17.8356 18.6884 18.1103 18.3207C18.5651 17.7088 18.7332 17.4265 18.7806 17.2012C18.8137 17.047 18.7877 16.779 18.7261 16.6082Z" fill="white"/>
<path d="M18.5777 11.3475C18.5474 10.5258 18.4091 9.85177 18.1206 9.1003C17.8358 8.36111 17.5475 7.87875 17.0031 7.22634C16.4884 6.61463 16.0887 6.26535 15.4547 5.87656C14.5701 5.33486 13.4936 4.97639 12.2872 4.82563C11.8758 4.77294 11.7827 4.7767 11.6565 4.86092C11.4119 5.02047 11.4152 5.4184 11.6605 5.57555C11.7417 5.62554 11.8138 5.64376 12.1429 5.68683C12.6481 5.75485 12.9729 5.81894 13.3584 5.92411C14.8699 6.3373 16.0323 7.18188 16.8094 8.43561C17.4597 9.4806 17.7296 10.5257 17.6913 11.8604C17.6779 12.3116 17.6876 12.3911 17.7566 12.4995C17.8887 12.7015 18.2371 12.7415 18.4158 12.5738C18.5269 12.4716 18.5479 12.3949 18.5698 12.0087C18.5803 11.8072 18.5826 11.5098 18.5777 11.3475Z" fill="white"/>
</svg>
