<svg id="viber" xmlns="http://www.w3.org/2000/svg" width="24" height="24" viewBox="0 0 24 24">
  <rect id="Rectangle_4" data-name="Rectangle 4" width="24" height="24" fill="#9b35eb"/>
  <g id="Group_2" data-name="Group 2" transform="translate(4.054 3.787)">
    <path id="Path_4" data-name="Path 4" d="M92.522,75.865l0-.019a5.479,5.479,0,0,0-3.7-3.559l-.018,0a20.556,20.556,0,0,0-7.737,0l-.018,0a5.481,5.481,0,0,0-3.7,3.559l0,.019a15.144,15.144,0,0,0,0,6.524l0,.019a5.526,5.526,0,0,0,3.5,3.507v1.73a.7.7,0,0,0,1.2.482L83.791,86.3c.38.021.761.033,1.141.033A20.622,20.622,0,0,0,88.8,85.97l.018,0a5.479,5.479,0,0,0,3.7-3.559l0-.019A15.144,15.144,0,0,0,92.522,75.865Zm-1.387,6.21a4.144,4.144,0,0,1-2.611,2.5,19.159,19.159,0,0,1-4.115.332.1.1,0,0,0-.073.029l-1.28,1.314-1.361,1.4a.159.159,0,0,1-.274-.11V84.672a.1.1,0,0,0-.08-.1h0a4.145,4.145,0,0,1-2.611-2.5,13.743,13.743,0,0,1,0-5.9,4.145,4.145,0,0,1,2.611-2.5,19.144,19.144,0,0,1,7.185,0,4.143,4.143,0,0,1,2.611,2.5A13.728,13.728,0,0,1,91.135,82.075Z" transform="translate(-76.986 -71.916)" fill="#fff"/>
    <path id="Path_5" data-name="Path 5" d="M155.717,147.922c-.16-.049-.313-.081-.455-.14a10.335,10.335,0,0,1-3.895-2.6,10.108,10.108,0,0,1-1.49-2.28c-.191-.389-.352-.793-.517-1.194a1.036,1.036,0,0,1,.3-1.02,2.394,2.394,0,0,1,.8-.6.515.515,0,0,1,.644.153,8.306,8.306,0,0,1,1,1.395.664.664,0,0,1-.186.9c-.075.051-.144.111-.214.169a.7.7,0,0,0-.162.171.467.467,0,0,0-.031.41,3.715,3.715,0,0,0,2.086,2.31,1.062,1.062,0,0,0,.535.13c.327-.038.433-.4.662-.584a.623.623,0,0,1,.751-.033c.241.153.475.316.707.482a8.1,8.1,0,0,1,.666.507.528.528,0,0,1,.158.654,2.21,2.21,0,0,1-.95,1.046,2.292,2.292,0,0,1-.411.131C155.557,147.874,155.856,147.879,155.717,147.922Z" transform="translate(-145.503 -136.441)" fill="#fff"/>
    <path id="Path_6" data-name="Path 6" d="M221.705,131.457a3.907,3.907,0,0,1,3.841,3.231c.058.324.078.655.1.984a.231.231,0,0,1-.217.271c-.154,0-.224-.127-.234-.265-.02-.274-.034-.548-.071-.82a3.436,3.436,0,0,0-2.767-2.872c-.215-.038-.434-.048-.651-.071-.137-.014-.317-.023-.348-.194a.235.235,0,0,1,.232-.265c.037,0,.074,0,.112,0C223.628,131.51,221.668,131.456,221.705,131.457Z" transform="translate(-213.756 -128.32)" fill="#fff"/>
    <path id="Path_7" data-name="Path 7" d="M230.982,153.733a.887.887,0,0,1-.019.134.218.218,0,0,1-.411.022.582.582,0,0,1-.023-.186,2.329,2.329,0,0,0-.295-1.169,2.174,2.174,0,0,0-.912-.856,2.623,2.623,0,0,0-.727-.223c-.11-.018-.22-.029-.33-.044a.209.209,0,0,1-.2-.235.207.207,0,0,1,.23-.2,3.023,3.023,0,0,1,1.26.328,2.548,2.548,0,0,1,1.387,1.98c.006.04.016.08.019.121.008.1.012.2.02.332C230.978,153.757,230.974,153.6,230.982,153.733Z" transform="translate(-220.109 -146.808)" fill="#fff"/>
    <path id="Path_8" data-name="Path 8" d="M235.04,172.637a.238.238,0,0,1-.264-.234,2.418,2.418,0,0,0-.045-.307.864.864,0,0,0-.319-.5.832.832,0,0,0-.26-.125c-.118-.034-.241-.025-.358-.054a.22.22,0,0,1-.178-.255.231.231,0,0,1,.244-.186,1.322,1.322,0,0,1,1.354,1.317.609.609,0,0,1,0,.187.191.191,0,0,1-.172.157C234.879,172.64,235.114,172.632,235.04,172.637Z" transform="translate(-225.364 -165.759)" fill="#fff"/>
  </g>
</svg>
