<svg width="25" height="25" viewBox="0 0 25 25" fill="none" xmlns="http://www.w3.org/2000/svg">
<path fill-rule="evenodd" clip-rule="evenodd" d="M9.26611 0.949951H16.6338C23.3579 0.949951 24.95 2.54205 24.95 9.26611V16.6338C24.95 23.3579 23.3579 24.95 16.6338 24.95H9.26611C2.54205 24.95 0.949951 23.3579 0.949951 16.6338V9.26611C0.949951 2.54205 2.54205 0.949951 9.26611 0.949951Z" fill="#000078"/>
<path fill-rule="evenodd" clip-rule="evenodd" d="M20.5971 9.21524C20.7157 8.84262 20.5971 8.57162 20.0721 8.57162H18.3275C17.8872 8.57162 17.6839 8.80875 17.5653 9.0628C17.5653 9.0628 16.6677 11.2308 15.4143 12.6365C15.0078 13.043 14.8215 13.1785 14.6013 13.1785C14.4828 13.1785 14.3303 13.043 14.3303 12.6704V9.1983C14.3303 8.75793 14.1948 8.55469 13.8222 8.55469H11.0784C10.8074 8.55469 10.638 8.75793 10.638 8.96118C10.638 9.38461 11.2647 9.48623 11.3325 10.6718V13.2463C11.3325 13.8052 11.2308 13.9068 11.0107 13.9068C10.4179 13.9068 8.97819 11.7219 8.1144 9.23218C7.94503 8.741 7.77565 8.55469 7.33529 8.55469H5.57382C5.0657 8.55469 4.98102 8.79181 4.98102 9.04587C4.98102 9.50317 5.57382 11.8066 7.74178 14.8553C9.18144 16.9386 11.2308 18.0565 13.077 18.0565C14.1948 18.0565 14.3303 17.8024 14.3303 17.379V15.8038C14.3303 15.2957 14.432 15.211 14.7877 15.211C15.0417 15.211 15.499 15.3465 16.5322 16.3458C17.7178 17.5314 17.921 18.0734 18.5816 18.0734H20.3261C20.8342 18.0734 21.0713 17.8193 20.9358 17.3282C20.7834 16.837 20.2076 16.1256 19.4623 15.2788C19.0558 14.8045 18.4461 14.2795 18.2598 14.0254C18.0057 13.6867 18.0735 13.5512 18.2598 13.2463C18.2428 13.2463 20.3769 10.2315 20.5971 9.21524Z" fill="white"/>
</svg>
