<svg id="vk" xmlns="http://www.w3.org/2000/svg" width="24" height="24" viewBox="0 0 24 24">
  <rect id="Rectangle_5" data-name="Rectangle 5" width="24" height="24" fill="#3676bb"/>
  <path id="Path_9" data-name="Path 9" d="M35.994,116.5a13.052,13.052,0,0,0,1.874,3.279,1.75,1.75,0,0,0,.378.346.287.287,0,0,0,.48-.143,4.106,4.106,0,0,0,.173-1c.013-.673,0-1.115-.038-1.787a.873.873,0,0,0-.81-.923c-.2-.035-.214-.2-.088-.357a1.249,1.249,0,0,1,1.022-.409c.641-.035,1.284-.006,1.925,0a3.831,3.831,0,0,1,.781.08.714.714,0,0,1,.571.636,2.713,2.713,0,0,1,.039.514c-.017.735-.052,1.469-.06,2.2a3.839,3.839,0,0,0,.079.865c.086.391.353.49.625.207a9.579,9.579,0,0,0,.937-1.174,11.712,11.712,0,0,0,1.243-2.41c.173-.436.305-.531.774-.532q1.322,0,2.644,0a1.587,1.587,0,0,1,.467.062.4.4,0,0,1,.278.519,4.383,4.383,0,0,1-.781,1.549c-.539.761-1.1,1.5-1.656,2.256a2.84,2.84,0,0,0-.19.3.623.623,0,0,0,.109.893c.479.494.992.957,1.456,1.465a8.636,8.636,0,0,1,.917,1.192.675.675,0,0,1-.5,1.126c-.4.056-2.338,0-2.438,0a1.9,1.9,0,0,1-1.347-.538c-.41-.394-.782-.827-1.175-1.239a3.285,3.285,0,0,0-.381-.347c-.322-.245-.638-.191-.788.187a7.269,7.269,0,0,0-.245,1.25.663.663,0,0,1-.7.647,6.535,6.535,0,0,1-3.535-.666,7.471,7.471,0,0,1-2.345-2.049,24.765,24.765,0,0,1-2.6-4.267c-.038-.076-.794-1.685-.814-1.761a.452.452,0,0,1,.21-.581c.134-.052,2.626,0,2.667,0A.867.867,0,0,1,35.994,116.5Z" transform="translate(-28.78 -108.388)" fill="#fff"/>
</svg>
