<svg id="whatsapp" xmlns="http://www.w3.org/2000/svg" width="24" height="24" viewBox="0 0 24 24">
  <rect id="Rectangle_6" data-name="Rectangle 6" width="24" height="24" fill="#0dc933"/>
  <g id="Group_3" data-name="Group 3" transform="translate(3.607 3.598)">
    <path id="Path_10" data-name="Path 10" d="M68.494,85.125,69.67,80.95a8.379,8.379,0,1,1,3.13,3.067Zm4.526-2.633.257.157a6.959,6.959,0,1,0-2.24-2.19l.173.269-.677,2.4Z" transform="translate(-68.494 -68.321)" fill="#fff"/>
    <path id="Path_11" data-name="Path 11" d="M149.481,152.856l-.544-.03a.658.658,0,0,0-.468.16,2.478,2.478,0,0,0-.815,1.249,3.785,3.785,0,0,0,.878,2.967,8.825,8.825,0,0,0,4.757,3.458,2.318,2.318,0,0,0,1.963-.243,1.756,1.756,0,0,0,.764-1.115l.087-.406a.282.282,0,0,0-.158-.315l-1.838-.847a.282.282,0,0,0-.341.084l-.722.935a.206.206,0,0,1-.232.069,5.651,5.651,0,0,1-3.058-2.617.209.209,0,0,1,.026-.233l.69-.8a.282.282,0,0,0,.046-.295l-.792-1.854A.282.282,0,0,0,149.481,152.856Z" transform="translate(-143.432 -148.375)" fill="#fff"/>
  </g>
</svg>
