<svg width="94" height="106" viewBox="0 0 94 106" fill="none" xmlns="http://www.w3.org/2000/svg">
<g clip-path="url(#clip0_443_704)">
<path d="M6.99325 84.1035V71.7344C6.99325 71.4637 7.08254 71.2397 7.26348 71.0601C7.44443 70.8804 7.67001 70.7917 7.9426 70.7917H19.1938C19.4523 70.7917 19.6732 70.8827 19.8589 71.0694C20.0421 71.2514 20.1361 71.4754 20.1361 71.7321V72.6678C20.1361 72.9244 20.0468 73.1461 19.8706 73.3234C19.692 73.5054 19.4735 73.5988 19.215 73.5988H10.7601V75.9998H15.6972C17.3139 75.9998 18.6252 76.3778 19.6333 77.1338C20.639 77.8921 21.1395 79.0168 21.1395 80.5078C21.1395 82.0012 20.639 83.1258 19.6333 83.8842C18.6275 84.6402 17.3139 85.0182 15.6972 85.0182H7.8956C7.63947 85.0182 7.42798 84.9295 7.25409 84.7545C7.08019 84.5819 6.9956 84.3648 6.9956 84.1035H6.99325ZM10.7578 82.2112H15.6949C16.8134 82.2112 17.3727 81.6418 17.3727 80.5055C17.3727 79.3668 16.8134 78.7998 15.6949 78.7998H10.7578V82.2135V82.2112ZM22.9771 84.4115V74.7608C22.9771 74.5811 23.0359 74.4364 23.1534 74.3174C23.2685 74.2031 23.4119 74.1448 23.5858 74.1448H25.6725C25.8534 74.1448 26.0038 74.2031 26.1189 74.3174C26.2341 74.4364 26.2928 74.5811 26.2928 74.7608V81.2802L29.8083 74.8588C29.9187 74.6511 30.0785 74.4831 30.2994 74.3478C30.5179 74.2124 30.7318 74.1448 30.9362 74.1448H33.7349C33.9112 74.1448 34.0615 74.2031 34.179 74.3174C34.2942 74.4364 34.3529 74.5811 34.3529 74.7608V84.4115C34.3529 84.5912 34.2942 84.7359 34.179 84.8479C34.0639 84.9599 33.9135 85.0182 33.7349 85.0182H31.6459C31.4673 85.0182 31.3216 84.9599 31.2064 84.8455C31.0936 84.7312 31.0396 84.5842 31.0396 84.4115V77.9038L27.5195 84.3042C27.4137 84.4978 27.2492 84.6635 27.0307 84.8059C26.8098 84.9482 26.5983 85.0182 26.3892 85.0182H23.5834C23.4025 85.0182 23.2568 84.9599 23.144 84.8479C23.0312 84.7359 22.9748 84.5912 22.9748 84.4115H22.9771ZM35.9861 82.2298C35.9861 82.0502 36.0448 81.9055 36.16 81.7935C36.2798 81.6815 36.4232 81.6232 36.5971 81.6232H38.0939C38.5475 81.6232 38.9023 81.8472 39.1584 82.2928C39.4146 82.7408 39.9081 82.9625 40.6318 82.9625H42.6598C43.6256 82.9625 44.1096 82.5658 44.1096 81.7818C44.1096 80.9955 43.6256 80.6035 42.6598 80.6105H40.183C40.002 80.6105 39.8517 80.5522 39.7365 80.4378C39.6214 80.3235 39.5626 80.1741 39.5626 79.9968V78.9631C39.5626 78.7835 39.6214 78.6388 39.7365 78.5221C39.8517 78.4031 40.002 78.3448 40.183 78.3448H42.4718C42.9089 78.3448 43.2425 78.2468 43.4634 78.0531C43.6843 77.8571 43.7971 77.5981 43.7971 77.2738C43.7971 76.9495 43.6843 76.6881 43.4634 76.4875C43.2425 76.2915 42.9065 76.1935 42.4718 76.1935H40.6295C40.3968 76.1935 40.1595 76.2518 39.9104 76.3661C39.6637 76.4805 39.4827 76.6461 39.3605 76.8678C39.102 77.3181 38.7472 77.5375 38.2937 77.5305H36.8039C36.6253 77.5305 36.4749 77.4721 36.3597 77.3601C36.2446 77.2481 36.1858 77.1035 36.1858 76.9238C36.1858 76.0325 36.6229 75.3114 37.4994 74.7631C38.3759 74.2148 39.4334 73.9371 40.6718 73.9371H42.6809C44.0861 73.9371 45.2023 74.1938 46.0224 74.7094C46.8449 75.2204 47.2561 75.9998 47.2561 77.0428C47.2561 78.0881 46.7791 78.8441 45.8274 79.3038C46.9859 79.8871 47.5663 80.8065 47.5663 82.0642C47.5663 83.1608 47.1739 83.9612 46.389 84.4582C45.6089 84.9598 44.4457 85.2095 42.8971 85.2095H40.6694C39.3323 85.2095 38.2138 84.9388 37.3232 84.3928C36.4302 83.8515 35.9837 83.1258 35.9837 82.2228L35.9861 82.2298ZM49.3029 84.4115V74.7608C49.3029 74.5811 49.3616 74.4364 49.4791 74.3174C49.5943 74.2031 49.7376 74.1448 49.9115 74.1448H52.1486C52.3295 74.1448 52.4752 74.2031 52.588 74.3174C52.7008 74.4364 52.7572 74.5811 52.7572 74.7608V78.3121H57.1327V74.7608C57.1327 74.5811 57.1914 74.4364 57.3089 74.3174C57.4241 74.2031 57.5721 74.1448 57.7531 74.1448H59.9808C60.1617 74.1448 60.3074 74.2031 60.4202 74.3174C60.533 74.4364 60.5917 74.5811 60.5917 74.7608V84.4115C60.5917 84.5912 60.5353 84.7359 60.4202 84.8479C60.3074 84.9599 60.1617 85.0182 59.9808 85.0182H57.7531C57.5721 85.0182 57.4264 84.9599 57.3089 84.8455C57.1891 84.7312 57.1327 84.5842 57.1327 84.4115V80.7108H52.7572V84.4115C52.7572 84.5912 52.6985 84.7359 52.5833 84.8479C52.4682 84.9599 52.3201 85.0182 52.1462 85.0182H49.9092C49.7282 85.0182 49.5825 84.9599 49.4697 84.8479C49.3569 84.7359 49.2982 84.5912 49.2982 84.4115H49.3029ZM63.9709 83.7675C62.944 82.8015 62.4317 81.4108 62.4317 79.5955C62.4317 77.7801 62.9463 76.3848 63.9802 75.4094C65.0142 74.4341 66.4429 73.9441 68.2782 73.9441C70.1087 73.9441 71.5375 74.4201 72.562 75.3698C73.5889 76.3171 74.1035 77.6798 74.1035 79.4508V80.0155C74.1035 80.1952 74.0424 80.3445 73.9273 80.4588C73.8122 80.5732 73.6641 80.6315 73.4832 80.6315H65.9612C66.027 81.4435 66.262 82.0362 66.6638 82.4048C67.0703 82.7782 67.7142 82.9625 68.5978 82.9625C69.4837 82.9625 70.0923 82.7618 70.4189 82.3675C70.7432 81.9708 71.145 81.7678 71.6268 81.7608H73.1166C73.2952 81.7608 73.4432 81.8192 73.5607 81.9335C73.6759 82.0525 73.7346 82.1972 73.7346 82.3768C73.7346 84.2738 71.9135 85.2212 68.2711 85.2142C66.4335 85.2142 65.0001 84.7312 63.9732 83.7652L63.9709 83.7675ZM65.9377 78.5385H70.5834C70.5176 76.9775 69.7469 76.1981 68.2711 76.1981C66.7978 76.1981 66.0176 76.9775 65.9377 78.5385ZM81.2401 85.2165C79.372 85.2165 77.9151 84.7405 76.8788 83.7885C75.8378 82.8342 75.3208 81.4342 75.3208 79.5861C75.3208 77.7381 75.8354 76.3358 76.8694 75.3814C77.9033 74.4271 79.3391 73.9464 81.179 73.9464C83.0213 73.9464 84.436 74.2381 85.4253 74.8191C86.4146 75.4024 86.9081 76.2611 86.9081 77.3998C86.9081 77.5795 86.8493 77.7241 86.7342 77.8361C86.619 77.9481 86.4686 78.0065 86.29 78.0065H84.8002C84.3467 78.0065 83.966 77.7638 83.6511 77.2808C83.2587 76.6578 82.5631 76.3451 81.5668 76.3451C80.5704 76.3451 79.8749 76.5995 79.4801 77.1058C79.0853 77.6098 78.8879 78.4358 78.8879 79.5815C78.8879 80.7225 79.0923 81.5532 79.5012 82.0595C79.9101 82.5682 80.6221 82.8248 81.6396 82.8248C82.6571 82.8248 83.3574 82.5122 83.7498 81.8892C84.0647 81.4015 84.4454 81.1542 84.8989 81.1542H86.3887C86.5697 81.1542 86.7154 81.2125 86.8329 81.3315C86.948 81.4458 87.0068 81.5882 87.0068 81.7608C87.0068 82.8995 86.5133 83.7582 85.524 84.3415C84.5347 84.9248 83.1059 85.2142 81.2401 85.2142V85.2165Z" fill="white"/>
<path d="M0 101.716V89.3629C0 89.1063 0.0892955 88.8823 0.270236 88.7003C0.451177 88.5136 0.669716 88.4226 0.928204 88.4226H13.8972C14.1557 88.4226 14.3766 88.5136 14.5622 88.7003C14.7455 88.8823 14.8395 89.1063 14.8395 89.3629V101.716C14.8395 101.972 14.7432 102.194 14.5528 102.374C14.3625 102.556 14.1369 102.649 13.8784 102.649H12.0196C11.7612 102.649 11.5379 102.558 11.3499 102.374C11.1619 102.194 11.0703 101.975 11.0703 101.716V91.2296H3.76686V101.716C3.76686 101.972 3.67757 102.194 3.49428 102.374C3.31098 102.556 3.08775 102.649 2.82926 102.649H0.949353C0.690865 102.649 0.469976 102.558 0.281986 102.374C0.0939953 102.194 0.00234988 101.975 0.00234988 101.716H0ZM18.2069 101.933C17.3233 101.324 16.8839 100.463 16.8839 99.352C16.8839 98.2413 17.3233 97.3873 18.2069 96.7923C19.0904 96.1997 20.2254 95.901 21.6166 95.901H24.9252C24.9252 95.124 24.7607 94.5873 24.4364 94.2816C24.1098 93.976 23.5364 93.8266 22.721 93.8266C21.9056 93.8266 21.3322 94.0273 21.0009 94.4263C20.6743 94.8253 20.2677 95.026 19.786 95.026H18.2985C18.1176 95.026 17.9719 94.9677 17.8521 94.8533C17.7369 94.739 17.6782 94.592 17.6782 94.4193C17.6782 92.5223 19.4923 91.5703 23.1252 91.5703C24.7114 91.5703 25.9827 91.9226 26.9414 92.6273C27.9002 93.332 28.3795 94.4216 28.3795 95.8987V102.038C28.3795 102.217 28.3208 102.362 28.208 102.474C28.0952 102.586 27.9495 102.644 27.7686 102.644H25.8417C25.6607 102.644 25.515 102.586 25.4022 102.472C25.2894 102.355 25.2307 102.21 25.2307 102.038V101.73C24.1779 102.479 22.9631 102.85 21.5884 102.847C20.2137 102.843 19.0857 102.539 18.2022 101.93L18.2069 101.933ZM21.8586 98.1527C21.391 98.1527 21.022 98.2647 20.7542 98.4887C20.4839 98.715 20.3476 99.0067 20.3476 99.3637C20.3476 99.723 20.4886 100.017 20.7683 100.248C21.0479 100.479 21.4474 100.596 21.9573 100.596C22.9842 100.596 23.9735 100.297 24.9252 99.702V98.155H21.8586V98.1527ZM30.8375 105.386V92.3893C30.8375 92.2096 30.8963 92.065 31.0137 91.946C31.1289 91.8316 31.2722 91.7733 31.4461 91.7733H33.373C33.5469 91.7733 33.6926 91.8316 33.8101 91.946C33.9253 92.065 33.984 92.2096 33.984 92.3893V92.688C35.0367 91.946 36.2587 91.5726 37.6498 91.5726C39.0456 91.5726 40.2041 92.065 41.1394 93.038C42.0699 94.0133 42.5376 95.4087 42.5376 97.224C42.5376 99.0394 42.0535 100.43 41.0877 101.396C40.1219 102.362 38.8201 102.845 37.1822 102.845C36.3362 102.845 35.3704 102.675 34.2942 102.336V105.384C34.2942 105.559 34.2354 105.708 34.1203 105.825C34.0051 105.939 33.8571 105.997 33.6832 105.997H31.4461C31.2722 105.997 31.1289 105.939 31.0137 105.825C30.8939 105.71 30.8375 105.561 30.8375 105.384V105.386ZM34.2965 100.045C35.1566 100.316 35.878 100.453 36.4655 100.453C37.3749 100.453 38.0234 100.192 38.4088 99.6787C38.7919 99.163 38.9822 98.3417 38.9822 97.21C38.9822 96.0783 38.8013 95.257 38.437 94.7413C38.0751 94.2303 37.5323 93.9736 36.8109 93.9736C36.0871 93.9736 35.2482 94.2723 34.2989 94.8673V100.045H34.2965ZM43.1603 93.5676V92.3893C43.1603 92.2096 43.219 92.065 43.3342 91.946C43.4493 91.8316 43.5997 91.7733 43.7783 91.7733H53.6196C53.8006 91.7733 53.9463 91.8316 54.059 91.946C54.1718 92.065 54.2306 92.2096 54.2306 92.3893V93.5676C54.2306 93.7403 54.1718 93.885 54.059 94.0016C53.9463 94.116 53.8006 94.1743 53.6196 94.1743H50.4308V102.04C50.4308 102.213 50.3721 102.357 50.2569 102.474C50.1418 102.588 49.9937 102.647 49.8128 102.647H47.5828C47.4042 102.647 47.2561 102.588 47.1386 102.474C47.0235 102.357 46.9647 102.213 46.9647 102.04V94.1743H43.776C43.5997 94.1743 43.4493 94.116 43.3318 94.0016C43.2167 93.8873 43.1579 93.7403 43.1579 93.5676H43.1603ZM55.6664 102.04V92.3893C55.6664 92.2096 55.7251 92.065 55.8426 91.946C55.9577 91.8316 56.1011 91.7733 56.275 91.7733H58.5121C58.693 91.7733 58.8387 91.8316 58.9515 91.946C59.0643 92.065 59.123 92.2096 59.123 92.3893V95.9407H63.4985V92.3893C63.4985 92.2096 63.5573 92.065 63.6771 91.946C63.7923 91.8316 63.9403 91.7733 64.1212 91.7733H66.3489C66.5299 91.7733 66.6756 91.8316 66.7884 91.946C66.9012 92.065 66.9599 92.2096 66.9599 92.3893V102.04C66.9599 102.22 66.9012 102.364 66.7884 102.476C66.6756 102.588 66.5299 102.647 66.3489 102.647H64.1212C63.9403 102.647 63.7946 102.588 63.6771 102.474C63.5573 102.357 63.4985 102.213 63.4985 102.04V98.3393H59.123V102.04C59.123 102.22 59.0666 102.364 58.9492 102.476C58.834 102.588 58.686 102.647 58.5121 102.647H56.275C56.094 102.647 55.9483 102.588 55.8356 102.476C55.7228 102.364 55.664 102.22 55.664 102.04H55.6664ZM70.3343 101.396C69.3074 100.43 68.7975 99.0394 68.7975 97.224C68.7975 95.4087 69.3121 94.0133 70.3461 93.038C71.38 92.0626 72.8088 91.5726 74.644 91.5726C76.4746 91.5726 77.9033 92.051 78.9278 92.9983C79.9548 93.9456 80.4694 95.3083 80.4694 97.0793V97.644C80.4694 97.8237 80.4083 97.973 80.2908 98.0873C80.1756 98.2017 80.0276 98.26 79.849 98.26H72.3247C72.3905 99.072 72.6255 99.6647 73.0273 100.033C73.4338 100.407 74.0777 100.591 74.9613 100.591C75.8472 100.591 76.4558 100.39 76.7824 99.996C77.1067 99.5994 77.5085 99.3964 77.9902 99.3894H79.4801C79.6563 99.3894 79.8067 99.4477 79.9242 99.562C80.0393 99.681 80.0981 99.8257 80.0981 100.005C80.0981 101.902 78.2769 102.85 74.6346 102.843C72.797 102.843 71.3636 102.36 70.3367 101.394L70.3343 101.396ZM72.3012 96.167H76.9469C76.8811 94.606 76.1103 93.8266 74.6346 93.8266C73.1612 93.8266 72.3811 94.606 72.3012 96.167ZM82.2999 105.384V92.387C82.2999 92.2073 82.3587 92.0626 82.4762 91.9436C82.5913 91.8293 82.7347 91.771 82.9086 91.771H84.8354C85.0093 91.771 85.155 91.8293 85.2725 91.9436C85.3877 92.0626 85.4464 92.2073 85.4464 92.387V92.6856C86.4992 91.9436 87.7211 91.5703 89.1122 91.5703C90.5057 91.5703 91.6666 92.0626 92.6018 93.0356C93.5324 94.011 94 95.4063 94 97.2217C94 99.037 93.5159 100.428 92.5501 101.394C91.5843 102.36 90.2825 102.843 88.6446 102.843C87.7987 102.843 86.8329 102.672 85.7566 102.334V105.381C85.7566 105.556 85.6979 105.706 85.5827 105.822C85.4676 105.937 85.3195 105.995 85.148 105.995H82.9109C82.737 105.995 82.5937 105.937 82.4785 105.822C82.3587 105.708 82.3023 105.559 82.3023 105.381L82.2999 105.384ZM85.759 100.043C86.619 100.313 87.3404 100.451 87.9279 100.451C88.8373 100.451 89.4859 100.19 89.8713 99.6764C90.2543 99.1607 90.4446 98.3393 90.4446 97.2077C90.4446 96.076 90.2637 95.2547 89.8995 94.739C89.5376 94.228 88.9947 93.9713 88.2733 93.9713C87.5496 93.9713 86.7107 94.27 85.759 94.865V100.043Z" fill="white"/>
<path fill-rule="evenodd" clip-rule="evenodd" d="M47.3196 4.07886H48.5509V37.6068L47.3196 37.7958V4.07886Z" fill="white"/>
<path fill-rule="evenodd" clip-rule="evenodd" d="M49.8034 45.1553C56.8507 46.4059 63.6818 45.8763 69.0349 43.5779L69.0395 59.1834C69.0395 59.58 68.861 59.7737 68.5085 59.769H26.9978C26.6453 59.7737 26.4667 59.58 26.4644 59.1834V45.7643L22.3568 45.0923V60.7257C22.3568 61.5774 22.573 62.5154 23.1416 63.0824C23.7362 63.6681 24.6949 63.8477 25.5009 63.8477H70.0007C70.809 63.8477 71.7678 63.6681 72.3599 63.0824C72.9286 62.5154 73.1448 61.5774 73.1448 60.7257L73.1377 37.5089C65.5523 42.8266 59.0714 44.6629 49.7987 45.1576L49.8034 45.1553ZM6.73476 30.8075C6.73476 44.9219 35.0508 44.3479 45.3151 43.0856C71.145 39.9099 95.8259 27.2935 84.3937 14.1054C83.9566 13.6037 83.4537 13.067 82.871 12.6027C82.6454 12.423 82.3469 12.1967 82.1143 12.1337C82.871 13.5873 83.4702 15.1297 83.5971 16.49C84.1845 22.8298 78.2346 27.1394 73.2247 29.8765L73.3281 29.8041V13.3563C75.5511 13.7787 81.3083 16.0817 78.9983 22.7108C82.0344 20.0344 82.9297 16.0957 81.9404 14.327C80.6762 12.066 78.1641 9.89132 72.8205 8.87864C72.8299 7.31997 70.8631 4.57595 69.7892 3.51194C67.6061 1.34659 64.5959 0.000244141 61.2826 0.000244141H34.3952C31.0819 0.000244141 28.0693 1.34425 25.8887 3.51194C23.708 5.67729 22.3521 8.66864 22.3521 11.9587V14.789C16.4139 17.7757 8.70632 23.8028 10.1891 31.2415C11.8975 25.1794 18.3549 21.9804 22.3521 19.7894V37.9475C14.997 36.8719 9.49823 34.5572 6.73006 30.8075H6.73476ZM69.2205 31.8272C57.0716 37.1169 40.2558 39.7302 26.455 38.6079L26.462 11.9587C26.462 9.79332 27.355 7.82397 28.7955 6.39596C30.2336 4.96795 32.2169 4.07894 34.3976 4.07894H61.2849C63.4656 4.07894 65.4489 4.96562 66.8871 6.39596C68.3252 7.82397 69.2205 9.79332 69.2205 11.9587V31.8272Z" fill="white"/>
<path fill-rule="evenodd" clip-rule="evenodd" d="M61.6398 1.59619L62.0768 8.57058L63.6442 5.19422L62.7818 8.82725L68.0972 4.25154L63.6113 9.48292L67.1455 8.67324L63.9849 10.1946L70.7714 10.6636L64.1236 11.1326L67.1455 12.6539L63.8651 12.0776L68.0972 17.0733L63.0732 13.0086L63.6442 16.1306L62.1191 13.4099L61.6398 19.7287L61.1016 13.4006L59.6353 16.1306L60.1781 12.9549L55.1846 17.0733L59.4003 12.0473L56.134 12.6539L59.163 11.1536L52.5105 10.6636L59.2969 10.2273L56.134 8.67324L59.68 9.48292L58.317 7.5509L55.1846 4.25154L60.4813 8.82258L59.6353 5.19422L61.1745 8.57524L61.6398 1.59619Z" fill="white"/>
<path fill-rule="evenodd" clip-rule="evenodd" d="M29.162 12.7101V16.3175C29.162 16.4201 29.3289 16.4645 29.3406 16.3245L29.3547 16.1051C29.7378 10.5844 33.3401 6.99105 38.9164 6.60138L39.1373 6.58505C39.2759 6.57572 39.2313 6.40771 39.1279 6.40771L35.495 6.41472C32.2004 6.41938 29.162 9.4294 29.162 12.7101Z" fill="white"/>
</g>
<defs>
<clipPath id="clip0_443_704">
<rect width="94" height="106" fill="white"/>
</clipPath>
</defs>
</svg>
