<svg width="94" height="106" viewBox="0 0 94 106" fill="none" xmlns="http://www.w3.org/2000/svg">
<g clip-path="url(#clip0_446_320)">
<path d="M6.99316 84.1033V71.7342C6.99316 71.4635 7.08246 71.2395 7.2634 71.0598C7.44434 70.8802 7.66993 70.7915 7.94252 70.7915H19.1938C19.4522 70.7915 19.6731 70.8825 19.8588 71.0692C20.0421 71.2512 20.1361 71.4752 20.1361 71.7318V72.6675C20.1361 72.9242 20.0468 73.1458 19.8705 73.3232C19.6919 73.5052 19.4734 73.5985 19.2149 73.5985H10.76V75.9995H15.6971C17.3138 75.9995 18.6251 76.3775 19.6332 77.1336C20.6389 77.8919 21.1395 79.0166 21.1395 80.5076C21.1395 82.0009 20.6389 83.1256 19.6332 83.8839C18.6274 84.6399 17.3138 85.0179 15.6971 85.0179H7.89552C7.63938 85.0179 7.42789 84.9293 7.254 84.7543C7.08011 84.5816 6.99551 84.3646 6.99551 84.1033H6.99316ZM10.7577 82.2109H15.6948C16.8133 82.2109 17.3726 81.6416 17.3726 80.5052C17.3726 79.3666 16.8133 78.7996 15.6948 78.7996H10.7577V82.2133V82.2109ZM22.9771 84.4113V74.7605C22.9771 74.5809 23.0358 74.4362 23.1533 74.3172C23.2684 74.2029 23.4118 74.1445 23.5857 74.1445H25.6724C25.8533 74.1445 26.0037 74.2029 26.1189 74.3172C26.234 74.4362 26.2927 74.5809 26.2927 74.7605V81.2799L29.8082 74.8585C29.9186 74.6509 30.0784 74.4829 30.2993 74.3475C30.5178 74.2122 30.7317 74.1445 30.9361 74.1445H33.7348C33.9111 74.1445 34.0615 74.2029 34.179 74.3172C34.2941 74.4362 34.3528 74.5809 34.3528 74.7605V84.4113C34.3528 84.5909 34.2941 84.7356 34.179 84.8476C34.0638 84.9596 33.9134 85.0179 33.7348 85.0179H31.6458C31.4672 85.0179 31.3215 84.9596 31.2064 84.8453C31.0936 84.7309 31.0395 84.5839 31.0395 84.4113V77.9036L27.5194 84.3039C27.4136 84.4976 27.2491 84.6633 27.0306 84.8056C26.8097 84.9479 26.5982 85.0179 26.3891 85.0179H23.5833C23.4024 85.0179 23.2567 84.9596 23.1439 84.8476C23.0311 84.7356 22.9747 84.5909 22.9747 84.4113H22.9771ZM35.986 82.2296C35.986 82.0499 36.0448 81.9053 36.1599 81.7933C36.2797 81.6813 36.4231 81.6229 36.597 81.6229H38.0939C38.5474 81.6229 38.9022 81.8469 39.1584 82.2926C39.4145 82.7406 39.908 82.9623 40.6317 82.9623H42.6597C43.6255 82.9623 44.1096 82.5656 44.1096 81.7816C44.1096 80.9952 43.6255 80.6032 42.6597 80.6102H40.1829C40.002 80.6102 39.8516 80.5519 39.7364 80.4376C39.6213 80.3232 39.5625 80.1739 39.5625 79.9966V78.9629C39.5625 78.7832 39.6213 78.6386 39.7364 78.5219C39.8516 78.4029 40.002 78.3446 40.1829 78.3446H42.4717C42.9088 78.3446 43.2425 78.2466 43.4633 78.0529C43.6842 77.8569 43.797 77.5979 43.797 77.2736C43.797 76.9492 43.6842 76.6879 43.4633 76.4872C43.2425 76.2912 42.9064 76.1932 42.4717 76.1932H40.6294C40.3967 76.1932 40.1594 76.2515 39.9103 76.3659C39.6636 76.4802 39.4826 76.6459 39.3604 76.8675C39.102 77.3179 38.7471 77.5372 38.2936 77.5302H36.8038C36.6252 77.5302 36.4748 77.4719 36.3596 77.3599C36.2445 77.2479 36.1858 77.1032 36.1858 76.9235C36.1858 76.0322 36.6228 75.3112 37.4993 74.7629C38.3758 74.2145 39.4333 73.9369 40.6717 73.9369H42.6808C44.0861 73.9369 45.2023 74.1935 46.0224 74.7092C46.8448 75.2202 47.2561 75.9995 47.2561 77.0425C47.2561 78.0879 46.779 78.8439 45.8273 79.3036C46.9858 79.8869 47.5662 80.8062 47.5662 82.0639C47.5662 83.1606 47.1738 83.9609 46.3889 84.4579C45.6088 84.9596 44.4456 85.2093 42.897 85.2093H40.6693C39.3322 85.2093 38.2137 84.9386 37.3231 84.3926C36.4301 83.8513 35.9837 83.1256 35.9837 82.2226L35.986 82.2296ZM49.3028 84.4113V74.7605C49.3028 74.5809 49.3615 74.4362 49.479 74.3172C49.5942 74.2029 49.7375 74.1445 49.9114 74.1445H52.1485C52.3294 74.1445 52.4751 74.2029 52.5879 74.3172C52.7007 74.4362 52.7571 74.5809 52.7571 74.7605V78.3119H57.1326V74.7605C57.1326 74.5809 57.1914 74.4362 57.3088 74.3172C57.424 74.2029 57.572 74.1445 57.753 74.1445H59.9807C60.1616 74.1445 60.3073 74.2029 60.4201 74.3172C60.5329 74.4362 60.5916 74.5809 60.5916 74.7605V84.4113C60.5916 84.5909 60.5352 84.7356 60.4201 84.8476C60.3073 84.9596 60.1616 85.0179 59.9807 85.0179H57.753C57.572 85.0179 57.4263 84.9596 57.3088 84.8453C57.189 84.7309 57.1326 84.5839 57.1326 84.4113V80.7106H52.7571V84.4113C52.7571 84.5909 52.6984 84.7356 52.5832 84.8476C52.4681 84.9596 52.32 85.0179 52.1462 85.0179H49.9091C49.7281 85.0179 49.5824 84.9596 49.4696 84.8476C49.3568 84.7356 49.2981 84.5909 49.2981 84.4113H49.3028ZM63.9708 83.7673C62.9439 82.8013 62.4316 81.4106 62.4316 79.5952C62.4316 77.7799 62.9462 76.3845 63.9802 75.4092C65.0141 74.4339 66.4428 73.9439 68.2781 73.9439C70.1087 73.9439 71.5374 74.4199 72.5619 75.3695C73.5888 76.3169 74.1035 77.6796 74.1035 79.4506V80.0152C74.1035 80.1949 74.0424 80.3442 73.9272 80.4586C73.8121 80.5729 73.664 80.6312 73.4831 80.6312H65.9611C66.0269 81.4432 66.2619 82.0359 66.6637 82.4046C67.0703 82.7779 67.7141 82.9623 68.5977 82.9623C69.4836 82.9623 70.0922 82.7616 70.4188 82.3673C70.7431 81.9706 71.145 81.7676 71.6267 81.7606H73.1165C73.2951 81.7606 73.4431 81.8189 73.5606 81.9333C73.6758 82.0523 73.7345 82.1969 73.7345 82.3766C73.7345 84.2736 71.9134 85.2209 68.271 85.2139C66.4334 85.2139 65 84.7309 63.9731 83.7649L63.9708 83.7673ZM65.9376 78.5382H70.5833C70.5175 76.9772 69.7468 76.1979 68.271 76.1979C66.7977 76.1979 66.0175 76.9772 65.9376 78.5382ZM81.24 85.2163C79.3719 85.2163 77.915 84.7403 76.8787 83.7883C75.8377 82.8339 75.3207 81.4339 75.3207 79.5859C75.3207 77.7379 75.8353 76.3355 76.8693 75.3812C77.9032 74.4269 79.339 73.9462 81.1789 73.9462C83.0213 73.9462 84.4359 74.2379 85.4252 74.8189C86.4145 75.4022 86.908 76.2609 86.908 77.3995C86.908 77.5792 86.8492 77.7239 86.7341 77.8359C86.6189 77.9479 86.4685 78.0062 86.2899 78.0062H84.8001C84.3466 78.0062 83.9659 77.7636 83.651 77.2806C83.2586 76.6575 82.563 76.3449 81.5667 76.3449C80.5703 76.3449 79.8748 76.5992 79.48 77.1056C79.0852 77.6096 78.8878 78.4356 78.8878 79.5812C78.8878 80.7222 79.0923 81.5529 79.5011 82.0593C79.91 82.5679 80.622 82.8246 81.6395 82.8246C82.657 82.8246 83.3573 82.5119 83.7497 81.8889C84.0646 81.4012 84.4453 81.1539 84.8988 81.1539H86.3886C86.5696 81.1539 86.7153 81.2122 86.8328 81.3312C86.9479 81.4456 87.0067 81.5879 87.0067 81.7606C87.0067 82.8993 86.5132 83.7579 85.5239 84.3413C84.5346 84.9246 83.1059 85.2139 81.24 85.2139V85.2163Z" fill="#025D8A"/>
<path d="M0 101.715V89.3627C0 89.106 0.0892955 88.882 0.270236 88.7C0.451177 88.5134 0.669716 88.4224 0.928204 88.4224H13.8972C14.1557 88.4224 14.3766 88.5134 14.5622 88.7C14.7455 88.882 14.8395 89.106 14.8395 89.3627V101.715C14.8395 101.972 14.7432 102.194 14.5528 102.373C14.3625 102.555 14.1369 102.649 13.8784 102.649H12.0196C11.7612 102.649 11.5379 102.558 11.3499 102.373C11.1619 102.194 11.0703 101.974 11.0703 101.715V91.2294H3.76686V101.715C3.76686 101.972 3.67757 102.194 3.49428 102.373C3.31098 102.555 3.08775 102.649 2.82926 102.649H0.949353C0.690865 102.649 0.469976 102.558 0.281986 102.373C0.0939953 102.194 0.00234988 101.974 0.00234988 101.715H0ZM18.2069 101.932C17.3233 101.323 16.8839 100.462 16.8839 99.3518C16.8839 98.2411 17.3233 97.3871 18.2069 96.7921C19.0904 96.1994 20.2254 95.9007 21.6166 95.9007H24.9252C24.9252 95.1237 24.7607 94.5871 24.4364 94.2814C24.1098 93.9757 23.5364 93.8264 22.721 93.8264C21.9056 93.8264 21.3322 94.0271 21.0009 94.4261C20.6743 94.8251 20.2677 95.0257 19.786 95.0257H18.2985C18.1176 95.0257 17.9719 94.9674 17.8521 94.8531C17.7369 94.7387 17.6782 94.5917 17.6782 94.4191C17.6782 92.5221 19.4923 91.5701 23.1252 91.5701C24.7114 91.5701 25.9827 91.9224 26.9414 92.6271C27.9002 93.3317 28.3795 94.4214 28.3795 95.8984V102.037C28.3795 102.217 28.3208 102.362 28.208 102.474C28.0952 102.586 27.9495 102.644 27.7686 102.644H25.8417C25.6607 102.644 25.515 102.586 25.4022 102.471C25.2894 102.355 25.2307 102.21 25.2307 102.037V101.729C24.1779 102.478 22.9631 102.849 21.5884 102.847C20.2137 102.842 19.0857 102.539 18.2022 101.93L18.2069 101.932ZM21.8586 98.1524C21.391 98.1524 21.022 98.2644 20.7542 98.4884C20.4839 98.7148 20.3476 99.0064 20.3476 99.3634C20.3476 99.7228 20.4886 100.017 20.7683 100.248C21.0479 100.479 21.4474 100.595 21.9573 100.595C22.9842 100.595 23.9735 100.297 24.9252 99.7018V98.1548H21.8586V98.1524ZM30.8375 105.386V92.3891C30.8375 92.2094 30.8963 92.0647 31.0137 91.9457C31.1289 91.8314 31.2722 91.7731 31.4461 91.7731H33.373C33.5469 91.7731 33.6926 91.8314 33.8101 91.9457C33.9253 92.0647 33.984 92.2094 33.984 92.3891V92.6877C35.0367 91.9457 36.2587 91.5724 37.6498 91.5724C39.0456 91.5724 40.2041 92.0647 41.1394 93.0377C42.0699 94.0131 42.5376 95.4084 42.5376 97.2238C42.5376 99.0391 42.0535 100.43 41.0877 101.396C40.1219 102.362 38.8201 102.845 37.1822 102.845C36.3362 102.845 35.3704 102.674 34.2942 102.336V105.383C34.2942 105.558 34.2354 105.708 34.1203 105.824C34.0051 105.939 33.8571 105.997 33.6832 105.997H31.4461C31.2722 105.997 31.1289 105.939 31.0137 105.824C30.8939 105.71 30.8375 105.561 30.8375 105.383V105.386ZM34.2965 100.045C35.1566 100.315 35.878 100.453 36.4655 100.453C37.3749 100.453 38.0234 100.192 38.4088 99.6784C38.7919 99.1628 38.9822 98.3414 38.9822 97.2098C38.9822 96.0781 38.8013 95.2567 38.437 94.7411C38.0751 94.2301 37.5323 93.9734 36.8109 93.9734C36.0871 93.9734 35.2482 94.2721 34.2989 94.8671V100.045H34.2965ZM43.1603 93.5674V92.3891C43.1603 92.2094 43.219 92.0647 43.3342 91.9457C43.4493 91.8314 43.5997 91.7731 43.7783 91.7731H53.6196C53.8006 91.7731 53.9463 91.8314 54.059 91.9457C54.1718 92.0647 54.2306 92.2094 54.2306 92.3891V93.5674C54.2306 93.7401 54.1718 93.8847 54.059 94.0014C53.9463 94.1157 53.8006 94.1741 53.6196 94.1741H50.4308V102.04C50.4308 102.212 50.3721 102.357 50.2569 102.474C50.1418 102.588 49.9937 102.646 49.8128 102.646H47.5828C47.4042 102.646 47.2561 102.588 47.1386 102.474C47.0235 102.357 46.9647 102.212 46.9647 102.04V94.1741H43.776C43.5997 94.1741 43.4493 94.1157 43.3318 94.0014C43.2167 93.8871 43.1579 93.7401 43.1579 93.5674H43.1603ZM55.6664 102.04V92.3891C55.6664 92.2094 55.7251 92.0647 55.8426 91.9457C55.9577 91.8314 56.1011 91.7731 56.275 91.7731H58.5121C58.693 91.7731 58.8387 91.8314 58.9515 91.9457C59.0643 92.0647 59.123 92.2094 59.123 92.3891V95.9404H63.4985V92.3891C63.4985 92.2094 63.5573 92.0647 63.6771 91.9457C63.7923 91.8314 63.9403 91.7731 64.1212 91.7731H66.3489C66.5299 91.7731 66.6756 91.8314 66.7884 91.9457C66.9012 92.0647 66.9599 92.2094 66.9599 92.3891V102.04C66.9599 102.219 66.9012 102.364 66.7884 102.476C66.6756 102.588 66.5299 102.646 66.3489 102.646H64.1212C63.9403 102.646 63.7946 102.588 63.6771 102.474C63.5573 102.357 63.4985 102.212 63.4985 102.04V98.3391H59.123V102.04C59.123 102.219 59.0666 102.364 58.9492 102.476C58.834 102.588 58.686 102.646 58.5121 102.646H56.275C56.094 102.646 55.9483 102.588 55.8356 102.476C55.7228 102.364 55.664 102.219 55.664 102.04H55.6664ZM70.3343 101.396C69.3074 100.43 68.7975 99.0391 68.7975 97.2238C68.7975 95.4084 69.3121 94.0131 70.3461 93.0377C71.38 92.0624 72.8088 91.5724 74.644 91.5724C76.4746 91.5724 77.9033 92.0507 78.9278 92.9981C79.9548 93.9454 80.4694 95.3081 80.4694 97.0791V97.6438C80.4694 97.8234 80.4083 97.9728 80.2908 98.0871C80.1756 98.2014 80.0276 98.2598 79.849 98.2598H72.3247C72.3905 99.0718 72.6255 99.6644 73.0273 100.033C73.4338 100.406 74.0777 100.591 74.9613 100.591C75.8472 100.591 76.4558 100.39 76.7824 99.9958C77.1067 99.5991 77.5085 99.3961 77.9902 99.3891H79.4801C79.6563 99.3891 79.8067 99.4474 79.9242 99.5618C80.0393 99.6808 80.0981 99.8254 80.0981 100.005C80.0981 101.902 78.2769 102.849 74.6346 102.842C72.797 102.842 71.3636 102.359 70.3367 101.393L70.3343 101.396ZM72.3012 96.1668H76.9469C76.8811 94.6057 76.1103 93.8264 74.6346 93.8264C73.1612 93.8264 72.3811 94.6057 72.3012 96.1668ZM82.2999 105.383V92.3867C82.2999 92.2071 82.3587 92.0624 82.4762 91.9434C82.5913 91.8291 82.7347 91.7707 82.9086 91.7707H84.8354C85.0093 91.7707 85.155 91.8291 85.2725 91.9434C85.3877 92.0624 85.4464 92.2071 85.4464 92.3867V92.6854C86.4992 91.9434 87.7211 91.5701 89.1122 91.5701C90.5057 91.5701 91.6666 92.0624 92.6018 93.0354C93.5324 94.0107 94 95.4061 94 97.2214C94 99.0368 93.5159 100.427 92.5501 101.393C91.5843 102.359 90.2825 102.842 88.6446 102.842C87.7987 102.842 86.8329 102.672 85.7566 102.334V105.381C85.7566 105.556 85.6979 105.705 85.5827 105.822C85.4676 105.936 85.3195 105.995 85.148 105.995H82.9109C82.737 105.995 82.5937 105.936 82.4785 105.822C82.3587 105.708 82.3023 105.558 82.3023 105.381L82.2999 105.383ZM85.759 100.042C86.619 100.313 87.3404 100.451 87.9279 100.451C88.8373 100.451 89.4859 100.189 89.8713 99.6761C90.2543 99.1604 90.4446 98.3391 90.4446 97.2074C90.4446 96.0758 90.2637 95.2544 89.8995 94.7387C89.5376 94.2277 88.9947 93.9711 88.2733 93.9711C87.5496 93.9711 86.7107 94.2697 85.759 94.8647V100.042Z" fill="#025D8A"/>
<path fill-rule="evenodd" clip-rule="evenodd" d="M26.4551 38.5796C40.9069 39.7626 55.0884 37.8493 69.2206 31.8246V11.8558C69.2206 7.44106 65.5219 4.0647 61.4307 4.0647L34.2191 4.07403C30.142 4.07403 26.4551 7.77473 26.4551 11.8254V38.5796Z" fill="#CFEBFB"/>
<path fill-rule="evenodd" clip-rule="evenodd" d="M47.3198 4.07861H48.5512V37.6065L47.3198 37.7955V4.07861Z" fill="#FEFEFE"/>
<path fill-rule="evenodd" clip-rule="evenodd" d="M49.8033 45.155C56.8506 46.4057 63.6817 45.876 69.0348 43.5777L69.0395 59.1831C69.0395 59.5798 68.8609 59.7735 68.5084 59.7688H26.9977C26.6452 59.7735 26.4666 59.5798 26.4643 59.1831V45.764L22.3567 45.092V60.7255C22.3567 61.5771 22.5729 62.5151 23.1416 63.0821C23.7361 63.6678 24.6948 63.8475 25.5008 63.8475H70.0006C70.8089 63.8475 71.7677 63.6678 72.3598 63.0821C72.9285 62.5151 73.1447 61.5771 73.1447 60.7255L73.1377 37.5086C65.5522 42.8263 59.0713 44.6627 49.7986 45.1573L49.8033 45.155ZM6.73468 30.8072C6.73468 44.9217 35.0508 44.3477 45.3151 43.0853C71.145 39.9096 95.8258 27.2932 84.3936 14.1051C83.9565 13.6034 83.4537 13.0668 82.8709 12.6024C82.6453 12.4228 82.3468 12.1964 82.1142 12.1334C82.8709 13.5871 83.4701 15.1294 83.597 16.4898C84.1845 22.8295 78.2346 27.1392 73.2246 29.8762L73.328 29.8039V13.3561C75.551 13.7784 81.3082 16.0815 78.9983 22.7105C82.0343 20.0342 82.9296 16.0955 81.9403 14.3268C80.6761 12.0658 78.1641 9.89108 72.8204 8.8784C72.8298 7.31972 70.863 4.5757 69.7891 3.51169C67.606 1.34634 64.5958 0 61.2825 0H34.3951C31.0818 0 28.0693 1.34401 25.8886 3.51169C23.7079 5.67704 22.352 8.6684 22.352 11.9584V14.7888C16.4138 17.7755 8.70623 23.8025 10.189 31.2412C11.8974 25.1792 18.3548 21.9802 22.352 19.7892V37.9473C14.9969 36.8716 9.49814 34.5569 6.72998 30.8072H6.73468ZM69.2204 31.8269C57.0715 37.1166 40.2558 39.73 26.4549 38.6076L26.4619 11.9584C26.4619 9.79307 27.3549 7.82373 28.7954 6.39572C30.2335 4.9677 32.2168 4.0787 34.3975 4.0787H61.2849C63.4655 4.0787 65.4488 4.96537 66.887 6.39572C68.3251 7.82373 69.2204 9.79307 69.2204 11.9584V31.8269Z" fill="#065D8A"/>
<path fill-rule="evenodd" clip-rule="evenodd" d="M61.6395 1.59595L62.0766 8.57033L63.644 5.19397L62.7816 8.827L68.097 4.2513L63.6111 9.48267L67.1453 8.673L63.9847 10.1943L70.7712 10.6633L64.1234 11.1324L67.1453 12.6537L63.8649 12.0774L68.097 17.0731L63.073 13.0084L63.644 16.1304L62.1189 13.4097L61.6395 19.7284L61.1014 13.4004L59.6351 16.1304L60.1779 12.9547L55.1844 17.0731L59.4001 12.047L56.1338 12.6537L59.1628 11.1534L52.5103 10.6633L59.2967 10.227L56.1338 8.673L59.6797 9.48267L58.3168 7.55066L55.1844 4.2513L60.4811 8.82234L59.6351 5.19397L61.1743 8.575L61.6395 1.59595Z" fill="#FEFEFE"/>
<path fill-rule="evenodd" clip-rule="evenodd" d="M29.1621 12.7099V16.3172C29.1621 16.4199 29.329 16.4642 29.3407 16.3242L29.3548 16.1049C29.7378 10.5842 33.3402 6.99081 38.9165 6.60114L39.1374 6.58481C39.276 6.57547 39.2314 6.40747 39.128 6.40747L35.495 6.41447C32.2005 6.41914 29.1621 9.42916 29.1621 12.7099Z" fill="#FEFEFE"/>
</g>
<defs>
<clipPath id="clip0_446_320">
<rect width="94" height="106" fill="white"/>
</clipPath>
</defs>
</svg>
