<svg width="196" height="58" viewBox="0 0 196 58" fill="none" xmlns="http://www.w3.org/2000/svg">
<path d="M78 25.6651V5.11577H93.7636V9.94921H83.6609V13.075H88.1897C90.5508 13.075 92.3411 13.6249 93.5603 14.7248C94.7796 15.8246 95.3893 17.3296 95.3893 19.2398C95.3893 20.5712 95.128 21.7193 94.6054 22.684C94.0829 23.6295 93.3087 24.3627 92.283 24.8837C91.2766 25.4047 90.0089 25.6651 88.48 25.6651H78ZM83.6609 20.8317H87.6381C88.122 20.8317 88.4994 20.7449 88.7703 20.5712C89.0606 20.3976 89.2638 20.1757 89.3799 19.9055C89.5154 19.6354 89.5832 19.3556 89.5832 19.0662C89.5832 18.7768 89.5251 18.5066 89.409 18.2558C89.3122 17.9857 89.1187 17.7734 88.8284 17.619C88.5381 17.4647 88.1316 17.3875 87.6091 17.3875H83.6609V20.8317Z" fill="white"/>
<path d="M97.76 25.6651V5.11577H103.421V17.619L111.027 5.11577H116.31V25.6651H110.65V13.1619L103.131 25.6651H97.76Z" fill="white"/>
<path d="M127.852 25.8388C125.936 25.8388 124.213 25.4722 122.684 24.739C121.175 23.9865 119.975 22.9445 119.084 21.6132L123.323 18.9794C123.768 19.6547 124.358 20.195 125.094 20.6002C125.849 20.9861 126.72 21.179 127.707 21.179C128.732 21.179 129.448 21.0054 129.855 20.658C130.261 20.2914 130.464 19.838 130.464 19.2977C130.464 18.9118 130.377 18.5838 130.203 18.3137C130.029 18.0435 129.739 17.8313 129.332 17.6769C128.926 17.5226 128.384 17.4454 127.707 17.4454H124.833V13.2197H127.707C128.268 13.2197 128.713 13.1619 129.042 13.0461C129.39 12.911 129.632 12.7277 129.768 12.4962C129.923 12.2453 130 11.9559 130 11.6279C130 11.2999 129.923 11.0201 129.768 10.7886C129.613 10.5377 129.352 10.3448 128.984 10.2097C128.616 10.0746 128.113 10.0071 127.474 10.0071C126.352 10.0071 125.413 10.2001 124.658 10.586C123.923 10.9719 123.362 11.4639 122.975 12.062L118.91 9.16776C119.859 7.93287 121.02 6.92952 122.394 6.15771C123.768 5.3859 125.539 5 127.707 5C129.352 5 130.745 5.21225 131.887 5.63674C133.048 6.06124 133.938 6.69798 134.558 7.54696C135.177 8.39595 135.487 9.45719 135.487 10.7307C135.487 11.5797 135.283 12.4093 134.877 13.2197C134.471 14.0301 133.755 14.6669 132.729 15.13C133.851 15.4773 134.713 16.0754 135.313 16.9244C135.912 17.7541 136.212 18.7382 136.212 19.8766C136.212 21.1887 135.845 22.2885 135.109 23.1761C134.374 24.0636 133.377 24.7293 132.119 25.1731C130.861 25.6169 129.439 25.8388 127.852 25.8388Z" fill="white"/>
<path d="M157.238 5.11577V25.6651H151.577V17.619H144.668V25.6651H139.007V5.11577H144.668V12.6988H151.577V5.11577H157.238Z" fill="white"/>
<path d="M175.469 20.7449V25.6651H160.78V5.11577H175.208V10.036H166.44V12.9303H173.93V17.5033H166.44V20.7449H175.469Z" fill="white"/>
<path d="M176.657 15.2168C176.657 13.9626 176.89 12.7374 177.354 11.5411C177.838 10.3255 178.535 9.22565 179.444 8.24159C180.354 7.25754 181.457 6.47608 182.754 5.89723C184.07 5.29908 185.55 5 187.195 5C189.17 5 190.892 5.41485 192.363 6.24454C193.834 7.05494 194.927 8.13547 195.643 9.48613L191.318 12.5541C191.066 11.8787 190.698 11.3578 190.215 10.9912C189.75 10.6245 189.237 10.3737 188.676 10.2386C188.134 10.0843 187.602 10.0071 187.079 10.0071C186.266 10.0071 185.56 10.1711 184.96 10.4991C184.379 10.8079 183.896 11.2227 183.509 11.7437C183.141 12.2646 182.86 12.8435 182.667 13.4802C182.493 14.117 182.405 14.7537 182.405 15.3905C182.405 16.1044 182.512 16.7894 182.725 17.4454C182.938 18.1014 183.247 18.6899 183.654 19.2109C184.06 19.7126 184.554 20.1081 185.134 20.3976C185.734 20.687 186.402 20.8317 187.137 20.8317C187.66 20.8317 188.192 20.7545 188.734 20.6002C189.276 20.4265 189.769 20.1564 190.215 19.7898C190.66 19.4231 190.998 18.9311 191.231 18.3137L195.847 21.0632C195.44 22.0666 194.763 22.9252 193.814 23.6391C192.866 24.3531 191.792 24.903 190.592 25.2889C189.392 25.6555 188.202 25.8388 187.021 25.8388C185.492 25.8388 184.089 25.5397 182.812 24.9416C181.554 24.3241 180.46 23.5137 179.531 22.5104C178.622 21.4877 177.915 20.3493 177.412 19.0951C176.909 17.8216 176.657 16.5289 176.657 15.2168Z" fill="white"/>
<path d="M78 52.9998V34.305H91.8357V52.9998H90.4891V35.5162H79.3466V52.9998H78Z" fill="#FA601E"/>
<path d="M102.634 34.305H103.796L111.717 52.9998H110.291L107.677 46.8384H98.7262L96.1122 52.9998H94.6599L102.634 34.305ZM107.307 45.7325L103.215 35.9375L99.043 45.7325H107.307Z" fill="#FA601E"/>
<path d="M114.563 52.9998V34.305H122.273C123.066 34.305 123.787 34.4718 124.439 34.8053C125.107 35.1388 125.688 35.5864 126.181 36.1481C126.674 36.6923 127.053 37.3067 127.317 37.9913C127.598 38.6759 127.739 39.3781 127.739 40.0978C127.739 41.0983 127.51 42.0462 127.053 42.9415C126.613 43.8192 125.996 44.5389 125.204 45.1006C124.43 45.6623 123.506 45.9432 122.432 45.9432H115.91V52.9998H114.563ZM115.91 44.7056H122.379C123.206 44.7056 123.919 44.4862 124.518 44.0474C125.116 43.6085 125.574 43.038 125.891 42.3359C126.208 41.6337 126.366 40.8877 126.366 40.0978C126.366 39.2727 126.172 38.5179 125.785 37.8333C125.416 37.1312 124.914 36.5694 124.28 36.1481C123.664 35.7269 122.978 35.5162 122.221 35.5162H115.91V44.7056Z" fill="#FA601E"/>
<path d="M144.059 35.5162H137.194V52.9998H135.848V35.5162H128.983V34.305H144.059V35.5162Z" fill="#FA601E"/>
<path d="M161.498 34.305V52.9998H160.151V44.0474H148.322V52.9998H146.975V34.305H148.322V42.8362H160.151V34.305H161.498Z" fill="#FA601E"/>
<path d="M178.881 51.7886V52.9998H166.392V34.305H178.643V35.5162H167.738V42.8625H177.27V44.021H167.738V51.7886H178.881ZM170.511 31.198V28.8809H171.673V31.198H170.511ZM174.102 31.198V28.8809H175.264V31.198H174.102Z" fill="#FA601E"/>
<path d="M182.559 52.9998V34.305H190.269C191.061 34.305 191.783 34.4718 192.434 34.8053C193.103 35.1388 193.684 35.5864 194.177 36.1481C194.67 36.6923 195.048 37.3067 195.312 37.9913C195.594 38.6759 195.735 39.3781 195.735 40.0978C195.735 41.0983 195.506 42.0462 195.048 42.9415C194.608 43.8192 193.992 44.5389 193.2 45.1006C192.425 45.6623 191.501 45.9432 190.428 45.9432H183.906V52.9998H182.559ZM183.906 44.7056H190.375C191.202 44.7056 191.915 44.4862 192.513 44.0474C193.112 43.6085 193.57 43.038 193.886 42.3359C194.203 41.6337 194.362 40.8877 194.362 40.0978C194.362 39.2727 194.168 38.5179 193.781 37.8333C193.411 37.1312 192.91 36.5694 192.276 36.1481C191.66 35.7269 190.973 35.5162 190.216 35.5162H183.906V44.7056Z" fill="#FA601E"/>
<path d="M1.54004 58H56.4601C57.3108 58 58 57.3109 58 56.4604V1.53963C58 0.689066 57.3108 0 56.4601 0H1.54004C0.689315 0 0.000122615 0.689066 0.000122615 1.53963V56.4496C-0.010646 57.3002 0.689315 58 1.54004 58ZM30.54 3.07926H54.9202V27.455H30.54V3.07926ZM30.54 30.5343H54.9202V54.91H30.54V30.5343ZM3.07995 3.07926H27.4601V27.455H3.07995V3.07926ZM3.07995 30.5343H27.4601V54.91H3.07995V30.5343Z" fill="white"/>
<rect x="14" y="14" width="30" height="30" rx="1" fill="white"/>
<rect x="17" y="17" width="24" height="24" fill="#FA601E"/>
</svg>
