<svg width="32" height="32" viewBox="0 0 32 32" fill="none" xmlns="http://www.w3.org/2000/svg">
<path d="M10.6 23.6C9.16988 23.6 8 24.7699 8 26.2001C8 27.6302 9.16988 28.8001 10.6 28.8001C12.0301 28.8001 13.2001 27.6302 13.2001 26.2001C13.2 24.7698 12.0301 23.6 10.6 23.6ZM4.3 3.20001C3.58203 3.20001 3 3.78204 3 4.50001C3 5.21798 3.58203 5.80001 4.3 5.80001H5.6L10.2802 15.2801L8.32344 18.4648C8.12856 18.7898 7.99844 19.2449 7.99844 19.7001C7.99844 21.4407 9.1875 22.3001 10.8 22.3001H24.75C25.4404 22.3001 26 21.7404 26 21.0501C26 20.3597 25.4404 19.8001 24.75 19.8001H11.1183C10.9234 19.8001 10.7933 19.6699 10.7933 19.4751C10.7933 19.4103 10.9313 19.1501 10.9313 19.1501L12.2301 17.1001H21.9147C22.8898 17.1001 23.7353 16.5803 24.1898 15.7353L28.8699 7.68532C28.9472 7.53151 29 7.29495 29 7.03539C29 6.32001 28.4148 5.80007 27.7 5.80007H8.46025L7.65895 4.11342C7.3939 3.55553 6.8314 3.20001 6.21375 3.20001H4.3ZM23.3999 23.6C21.9698 23.6 20.7999 24.7699 20.7999 26.2001C20.7999 27.6302 21.9698 28.8001 23.3999 28.8001C24.8301 28.8001 26 27.6301 26 26.2C26 24.7698 24.8301 23.6 23.3999 23.6Z" fill="#9FA3A8"/>
</svg>
