<svg width="20" height="20" viewBox="0 0 20 20" fill="none" xmlns="http://www.w3.org/2000/svg">
<g clip-path="url(#clip0_3_905)">
<path d="M19.8239 3.97241L13.7583 9.99894L19.8239 16.0255C19.9335 15.7963 20.0001 15.5429 20.0001 15.2724V4.7255C20.0001 4.45491 19.9335 4.20159 19.8239 3.97241Z" fill="#9FA3A8"/>
<path d="M18.2419 2.96851H1.75748C1.48689 2.96851 1.23357 3.03503 1.00439 3.14468L8.75686 10.8581C9.44232 11.5436 10.557 11.5436 11.2425 10.8581L18.9949 3.14468C18.7658 3.03503 18.5124 2.96851 18.2419 2.96851Z" fill="#9FA3A8"/>
<path d="M0.176172 3.97241C0.0665235 4.20159 0 4.45491 0 4.7255V15.2724C0 15.543 0.0665235 15.7963 0.176172 16.0255L6.24176 9.99894L0.176172 3.97241Z" fill="#9FA3A8"/>
<path d="M12.9294 10.8293L12.071 11.6877C10.9289 12.8298 9.07041 12.8298 7.92826 11.6877L7.06998 10.8293L1.00439 16.8559C1.23357 16.9655 1.48689 17.032 1.75748 17.032H18.2419C18.5124 17.032 18.7658 16.9655 18.9949 16.8559L12.9294 10.8293Z" fill="#9FA3A8"/>
</g>
<defs>
<clipPath id="clip0_3_905">
<rect width="20" height="20" fill="white"/>
</clipPath>
</defs>
</svg>
