<svg width="16" height="16" viewBox="0 0 16 16" fill="none" xmlns="http://www.w3.org/2000/svg">
<path d="M8.0001 1.60001C6.7343 1.60001 5.49692 1.97536 4.44445 2.6786C3.39198 3.38184 2.57167 4.38138 2.08727 5.55083C1.60287 6.72028 1.47613 8.0071 1.72307 9.24858C1.97002 10.4901 2.57956 11.6304 3.47462 12.5255C4.36967 13.4205 5.51004 14.0301 6.75152 14.277C7.993 14.524 9.27983 14.3972 10.4493 13.9128C11.6187 13.4284 12.6183 12.6081 13.3215 11.5557C14.0247 10.5032 14.4001 9.2658 14.4001 8C14.3981 6.30323 13.7232 4.67653 12.5234 3.47673C11.3236 2.27693 9.69687 1.60201 8.0001 1.60001ZM8.0001 13.2364C6.96444 13.2364 5.95205 12.9293 5.09093 12.3539C4.22982 11.7785 3.55866 10.9607 3.16233 10.0039C2.766 9.04705 2.66231 7.9942 2.86435 6.97844C3.0664 5.96269 3.56511 5.02966 4.29743 4.29734C5.02975 3.56502 5.96278 3.0663 6.97854 2.86426C7.99429 2.66221 9.04715 2.76591 10.004 3.16224C10.9608 3.55856 11.7786 4.22972 12.354 5.09084C12.9294 5.95195 13.2365 6.96435 13.2365 8C13.2348 9.38825 12.6825 10.7192 11.7009 11.7008C10.7193 12.6824 9.38835 13.2347 8.0001 13.2364Z" fill="#9FA3A8"/>
<path d="M9.28475 4.31419C8.95337 4.09603 8.57238 3.96484 8.17694 3.93271C7.78149 3.90058 7.38432 3.96854 7.02206 4.13033C6.61354 4.31197 6.26765 4.61003 6.02766 4.98725C5.78767 5.36446 5.66425 5.80406 5.67283 6.25106V6.25455C5.67329 6.40886 5.73503 6.55666 5.84447 6.66545C5.95391 6.77423 6.10208 6.83509 6.25639 6.83462C6.4107 6.83416 6.5585 6.77242 6.66729 6.66298C6.77607 6.55354 6.83693 6.40537 6.83646 6.25106C6.83052 6.03332 6.88781 5.81852 7.00139 5.63266C7.11498 5.44679 7.27999 5.29783 7.47646 5.20379C7.6613 5.11714 7.86521 5.07915 8.06886 5.0934C8.2725 5.10766 8.46913 5.17369 8.6401 5.28524C8.79311 5.38637 8.92005 5.52222 9.01056 5.68174C9.10108 5.84125 9.15261 6.0199 9.16095 6.20312C9.16928 6.38634 9.1342 6.56893 9.05854 6.73601C8.98289 6.90308 8.86882 7.04991 8.72563 7.16451C8.32786 7.4689 8.00378 7.85899 7.77745 8.30581C7.55112 8.75262 7.42836 9.24469 7.41828 9.74546C7.41855 9.82187 7.43386 9.89747 7.46335 9.96796C7.49283 10.0384 7.53592 10.1024 7.59013 10.1563C7.64435 10.2101 7.70864 10.2527 7.77933 10.2817C7.85002 10.3107 7.92573 10.3255 8.00213 10.3252C8.07854 10.325 8.15414 10.3097 8.22463 10.2802C8.29512 10.2507 8.35911 10.2076 8.41295 10.1534C8.46678 10.0992 8.50942 10.0349 8.53841 9.96419C8.5674 9.8935 8.58218 9.81779 8.58192 9.74139C8.59295 9.41528 8.6771 9.09582 8.82816 8.8066C8.97921 8.51738 9.19331 8.26578 9.45464 8.07041C9.74057 7.84116 9.96831 7.54762 10.1193 7.2137C10.2703 6.87979 10.3404 6.51493 10.3237 6.14883C10.307 5.78273 10.2041 5.42574 10.0234 5.10693C9.84264 4.78812 9.58916 4.5165 9.28359 4.31419H9.28475Z" fill="#9FA3A8"/>
<path d="M8.0001 12.0727C8.32143 12.0727 8.58192 11.8122 8.58192 11.4909C8.58192 11.1696 8.32143 10.9091 8.0001 10.9091C7.67877 10.9091 7.41828 11.1696 7.41828 11.4909C7.41828 11.8122 7.67877 12.0727 8.0001 12.0727Z" fill="#9FA3A8"/>
</svg>
