<svg width="20" height="20" viewBox="0 0 20 20" fill="none" xmlns="http://www.w3.org/2000/svg">
<path fill-rule="evenodd" clip-rule="evenodd" d="M9.66146 1C4.98843 1 1.2002 4.78824 1.2002 9.46126C1.2002 14.1343 4.98843 17.9225 9.66146 17.9225C11.6517 17.9225 13.4815 17.2354 14.9265 16.0853L17.6508 18.8027C17.915 19.0662 18.3428 19.0657 18.6062 18.8015C18.8697 18.5373 18.8692 18.1096 18.605 17.8461L15.9141 15.162C17.2861 13.6581 18.1227 11.6574 18.1227 9.46126C18.1227 4.78824 14.3345 1 9.66146 1ZM2.55136 9.46126C2.55136 5.53447 5.73466 2.35117 9.66146 2.35117C13.5883 2.35117 16.7715 5.53447 16.7715 9.46126C16.7715 13.3881 13.5883 16.5714 9.66146 16.5714C5.73466 16.5714 2.55136 13.3881 2.55136 9.46126Z" fill="#9FA3A8"/>
</svg>
