<svg width="20" height="20" viewBox="0 0 20 20" fill="none" xmlns="http://www.w3.org/2000/svg">
<path d="M13.8093 7.49167C14.3204 6.98056 14.8278 5.78797 12.6982 7.23612C10.7088 8.60526 8.70595 9.95471 6.68988 11.2843C6.38288 11.4231 6.05099 11.4984 5.71414 11.5057C5.37729 11.5131 5.04244 11.4522 4.7297 11.3269C3.45192 10.9435 1.96025 10.4324 1.96025 10.4324C1.96025 10.4324 0.941735 9.7926 2.68525 9.11112C2.68525 9.11112 10.0565 6.08612 12.613 5.02038C13.5927 4.59445 16.9158 3.23149 16.9158 3.23149C16.9158 3.23149 18.4501 2.63426 18.3223 4.08334C18.2797 4.67963 17.939 6.76852 17.5982 9.02593C17.0862 12.2213 16.5325 15.7157 16.5325 15.7157C16.5325 15.7157 16.4473 16.6954 15.7232 16.8657C14.9481 16.8526 14.1992 16.583 13.5936 16.0991C13.4232 15.9713 10.3982 14.0537 9.28988 13.1167C9.17714 13.0403 9.08555 12.9366 9.02362 12.8154C8.9617 12.6941 8.93145 12.5591 8.9357 12.423C8.93995 12.2869 8.97856 12.1541 9.04793 12.0369C9.1173 11.9197 9.21519 11.822 9.33248 11.7528C10.8526 10.362 12.3452 8.94132 13.8093 7.49167Z" fill="#9FA3A8"/>
</svg>
