<svg width="20" height="20" viewBox="0 0 20 20" fill="none" xmlns="http://www.w3.org/2000/svg">
<g clip-path="url(#clip0_3_958)">
<path d="M9.99984 12.5C12.5311 12.5 14.5832 10.448 14.5832 7.91671C14.5832 5.3854 12.5311 3.33337 9.99984 3.33337C7.46853 3.33337 5.4165 5.3854 5.4165 7.91671C5.4165 10.448 7.46853 12.5 9.99984 12.5Z" fill="#9FA3A8"/>
<path d="M17.825 16.2084C18.8196 14.9584 19.5003 13.4884 19.8101 11.9213C20.1199 10.3543 20.0498 8.7358 19.6057 7.20141C19.1615 5.66702 18.3563 4.26135 17.2573 3.10208C16.1583 1.94281 14.7976 1.06368 13.2891 0.538277C11.7806 0.0128751 10.1682 -0.143506 8.58687 0.0822244C7.00552 0.307955 5.50125 0.909229 4.2 1.83571C2.89875 2.76219 1.83837 3.98692 1.10765 5.40737C0.376927 6.82782 -0.00288306 8.40265 1.64776e-05 10C0.00139872 12.2535 0.768303 14.4396 2.17502 16.2C3.11196 17.3695 4.29974 18.3134 5.65056 18.962C7.00138 19.6107 8.4807 19.9474 9.97918 19.9474C11.4777 19.9474 12.957 19.6107 14.3078 18.962C15.6586 18.3134 16.8464 17.3695 17.7833 16.2L17.825 16.2084ZM10 1.66669C11.5476 1.66669 13.0646 2.09765 14.3811 2.91127C15.6976 3.72489 16.7615 4.88903 17.4536 6.27325C18.1457 7.65746 18.4387 9.20706 18.2997 10.7484C18.1607 12.2898 17.5952 13.7619 16.6667 15C14.5949 13.9587 12.3181 13.3895 10 13.3334C7.68195 13.3895 5.40514 13.9587 3.33335 15C2.40479 13.7619 1.83934 12.2898 1.70036 10.7484C1.56137 9.20706 1.85435 7.65746 2.54646 6.27325C3.23856 4.88903 4.30246 3.72489 5.61892 2.91127C6.93539 2.09765 8.45242 1.66669 10 1.66669Z" fill="#9FA3A8"/>
</g>
<defs>
<clipPath id="clip0_3_958">
<rect width="20" height="20" fill="white"/>
</clipPath>
</defs>
</svg>
