<svg width="20" height="20" viewBox="0 0 20 20" fill="none" xmlns="http://www.w3.org/2000/svg">
<g clip-path="url(#clip0_3_937)">
<path d="M17.5563 1.94742C17.0389 1.49325 14.9433 0.0332547 10.2763 0.014088C10.2763 0.014088 4.76937 -0.301745 2.08676 2.05742C0.594584 3.48742 0.0719747 5.58159 0.0119747 8.17909C-0.0480253 10.7766 -0.114982 15.6449 4.78154 16.9683H4.78589L4.78154 18.9841C4.78154 18.9841 4.74937 19.8008 5.30937 19.9649C5.98589 20.1683 6.38589 19.5466 7.03371 18.8783C7.3885 18.5107 7.87719 17.9724 8.2485 17.5616C8.77024 17.6108 9.37545 17.6383 9.9885 17.6383C11.5772 17.6383 13.1207 17.4508 14.5955 17.0974L14.465 17.1241C15.1415 16.9133 18.9694 16.4441 19.5885 11.5766C20.2355 6.55159 19.2807 3.38159 17.5563 1.94742ZM18.1233 11.2099C17.5955 15.2724 14.4946 15.5308 13.9241 15.7058C12.6789 16.0091 11.2494 16.1824 9.77719 16.1824C9.35458 16.1824 8.93545 16.1683 8.52067 16.1399L8.57632 16.1433C8.57632 16.1433 6.45632 18.5924 5.79632 19.2291C5.58067 19.4358 5.34328 19.4191 5.34763 19.0066C5.34763 18.7374 5.36415 15.6583 5.36415 15.6583C1.21893 14.5566 1.45893 10.4099 1.50763 8.24409C1.55632 6.07825 1.98067 4.29825 3.24415 3.10325C5.51545 1.13075 10.1911 1.42325 10.1911 1.42325C14.1415 1.43909 16.0328 2.57992 16.4728 2.96242C17.9285 4.15825 18.6702 7.01909 18.1233 11.2099ZM12.4615 8.05325V8.06492C12.4615 8.20492 12.3433 8.31825 12.1972 8.31825C12.0555 8.31825 11.9398 8.21159 11.9337 8.07742C11.9372 8.04242 11.9398 7.99992 11.9398 7.95909C11.9398 7.29159 11.3755 6.75075 10.6789 6.75075C10.6528 6.75075 10.6268 6.75159 10.6015 6.75325H10.605C10.465 6.74575 10.3546 6.63575 10.3546 6.50075C10.3546 6.36075 10.4728 6.24742 10.6189 6.24742H10.6337H10.6328C10.6502 6.24659 10.672 6.24659 10.6928 6.24659C11.672 6.24659 12.465 7.00659 12.465 7.94492C12.465 7.98325 12.4633 8.02159 12.4607 8.05909V8.05409L12.4615 8.05325ZM13.2885 8.49575C13.3294 6.83909 12.2494 5.54242 10.1989 5.39742C10.0607 5.38825 9.95284 5.27825 9.95284 5.14492C9.95284 5.00492 10.0711 4.89159 10.2172 4.89159C10.2233 4.89159 10.2302 4.89159 10.2363 4.89242H10.2355H10.2502C12.2215 4.89242 13.8207 6.42409 13.8207 8.31409C13.8207 8.38159 13.8189 8.44909 13.8146 8.51575L13.8155 8.50659C13.812 8.64409 13.6955 8.75325 13.552 8.75325C13.4059 8.75325 13.2876 8.63992 13.2876 8.49992C13.2876 8.49742 13.2876 8.49575 13.2876 8.49325L13.2885 8.49575ZM15.2015 9.01992V9.02159C15.2015 9.16159 15.0833 9.27492 14.9372 9.27492C14.7911 9.27492 14.6746 9.16242 14.6737 9.02409C14.6528 5.83909 12.4363 4.10492 9.75024 4.08659C9.60415 4.08659 9.48676 3.97325 9.48676 3.83409C9.48676 3.69492 9.60502 3.58159 9.75024 3.58159C12.7581 3.60159 15.1755 5.59075 15.1998 9.01909L15.2015 9.01992ZM14.745 12.8516V12.8591C14.305 13.6016 13.4815 14.4216 12.6337 14.1599L12.6259 14.1483C11.0328 13.5783 9.65545 12.8333 8.42502 11.9158L8.46067 11.9408C7.81458 11.4474 7.24676 10.9033 6.7485 10.3049L6.73197 10.2841C6.28937 9.75242 5.87458 9.15742 5.51284 8.52909L5.47806 8.46325C5.08067 7.84159 4.72154 7.12325 4.44067 6.36909L4.41458 6.28742C4.14154 5.47492 4.99284 4.68575 5.77197 4.26409H5.7798C5.89284 4.19492 6.03024 4.15325 6.17806 4.15325C6.41024 4.15325 6.61719 4.25575 6.75371 4.41492L6.75458 4.41659C6.75458 4.41659 7.2598 4.99409 7.47632 5.27992C7.6798 5.54575 7.95371 5.97159 8.09545 6.20909C8.17719 6.33159 8.22502 6.48159 8.22502 6.64242C8.22502 6.88242 8.11719 7.09825 7.94502 7.24742L7.94415 7.24825L7.45545 7.62325C7.32067 7.74825 7.23719 7.92325 7.23719 8.11659C7.23719 8.13575 7.23806 8.15409 7.2398 8.17242V8.16992C7.74328 9.75575 9.02067 10.9799 10.6398 11.4541L10.6763 11.4633C10.6928 11.4649 10.7128 11.4658 10.732 11.4658C10.9337 11.4658 11.1163 11.3858 11.2468 11.2574L11.6381 10.7891C11.7946 10.6233 12.0198 10.5199 12.2702 10.5199C12.4381 10.5199 12.5937 10.5666 12.7259 10.6466L12.7224 10.6449C13.4294 11.0308 14.0407 11.4549 14.5981 11.9358L14.5885 11.9274C14.7555 12.0558 14.8607 12.2516 14.8607 12.4708C14.8607 12.6116 14.8172 12.7424 14.7415 12.8524L14.7433 12.8499L14.745 12.8516Z" fill="#9FA3A8"/>
</g>
<defs>
<clipPath id="clip0_3_937">
<rect width="20" height="20" fill="white"/>
</clipPath>
</defs>
</svg>
