<svg width="20" height="20" viewBox="0 0 20 20" fill="none" xmlns="http://www.w3.org/2000/svg">
<path fill-rule="evenodd" clip-rule="evenodd" d="M5.11313 17.4171C6.52321 18.3415 8.19791 18.8889 10.0041 18.8889C14.9023 18.8889 18.8891 14.8881 18.8891 9.98514C18.8891 9.77062 18.8891 9.534 18.8744 9.29743C18.5148 4.72723 14.6743 1.11108 10.0041 1.11108C5.40721 1.11108 1.60336 4.63106 1.17005 9.13473C1.13329 9.42313 1.11133 9.69672 1.11133 9.98516C1.11133 11.93 1.74298 13.7493 2.80779 15.1987L1.7062 18.5043L5.11313 17.4171ZM12.8341 11.2264C12.8461 11.2298 12.8583 11.2332 12.8707 11.2367C12.8707 11.2382 12.9569 11.2817 13.0949 11.3514C13.635 11.6243 14.9691 12.2982 15.0366 12.4266C15.1078 12.5416 15.1078 13.0868 14.9023 13.7085C14.69 14.3533 13.6637 14.9523 13.2173 14.9905C13.1387 14.9972 13.0738 15.0136 13.0067 15.0305C12.6873 15.111 12.3209 15.2033 10.209 14.3152C7.81441 13.3022 6.25536 10.7621 5.98321 10.3187C5.96658 10.2916 5.95475 10.2724 5.94784 10.2617C5.94175 10.2525 5.9333 10.2399 5.92277 10.2242C5.7853 10.0199 5.29258 9.28761 5.06262 8.39631C4.97784 8.11231 4.92087 7.7898 4.92087 7.49042C4.92087 5.99355 5.57203 4.92648 6.95988 4.92648C6.97589 4.92648 6.99302 4.92517 7.01111 4.92379C7.14473 4.91356 7.33102 4.8993 7.51203 5.37938C7.69779 5.84287 8.10583 6.92346 8.23812 7.27379C8.25702 7.32384 8.2703 7.35899 8.27649 7.3753C8.34705 7.50582 8.38231 7.65933 8.29753 7.8436C8.20483 8.04728 8.05424 8.2388 7.91061 8.42146C7.65907 8.74136 7.42887 9.03411 7.56833 9.31754C7.70331 9.57854 8.21272 10.446 8.95616 11.1676C9.78161 11.9632 10.4907 12.2836 10.8374 12.4402C10.8921 12.465 10.9378 12.4856 10.9735 12.5034C11.4822 12.7793 12.0045 11.8813 12.2677 11.4288C12.2753 11.4155 12.2828 11.4027 12.2901 11.3903C12.4582 11.1204 12.6068 11.1623 12.8341 11.2264Z" fill="#9FA3A8"/>
</svg>
