<svg width="44" height="44" viewBox="0 0 44 44" fill="none" xmlns="http://www.w3.org/2000/svg">
<path d="M13.9883 25.421L20.6909 21.3345V12.8077" stroke="#F3C132" stroke-width="2.75" stroke-linecap="round" stroke-linejoin="round"/>
<path d="M40.3334 31.1667V25.6667C40.3334 24.1463 37.2534 22.9167 33.4584 22.9167C29.6634 22.9167 26.5853 24.1483 26.5834 25.6667V36.6667C26.5853 38.1851 29.6614 39.4167 33.4584 39.4167C37.2553 39.4167 40.3314 38.1851 40.3334 36.6667V25.6667" stroke="#F3C132" stroke-width="2.75" stroke-linecap="round" stroke-linejoin="round"/>
<path d="M26.5853 25.6667C26.5853 27.1851 29.6634 28.4167 33.4603 28.4167C37.2573 28.4167 40.3334 27.1851 40.3334 25.6667" stroke="#F3C132" stroke-width="2.75" stroke-linecap="round" stroke-linejoin="round"/>
<path d="M26.5834 31.1667C26.5834 32.6851 29.6614 33.9167 33.4584 33.9167C37.2553 33.9167 40.3334 32.6851 40.3334 31.1667" stroke="#F3C132" stroke-width="2.75" stroke-linecap="round" stroke-linejoin="round"/>
<path d="M36.2436 16.5C34.3222 8.08334 26.236 2.57198 17.6995 3.86079C9.16304 5.1496 3.06433 12.8025 3.71332 21.4113C4.36231 30.0201 11.5394 36.6722 20.1726 36.6667" stroke="#F3C132" stroke-width="2.75" stroke-linecap="round" stroke-linejoin="round"/>
</svg>
