<svg width="46" height="45" viewBox="0 0 46 45" fill="none" xmlns="http://www.w3.org/2000/svg">
<path d="M14.8032 26.0002L21.6611 21.8191V13.0948" stroke="#EC643A" stroke-width="2.8125" stroke-linecap="round" stroke-linejoin="round"/>
<path d="M21.1247 37.5063C12.044 37.5096 4.58745 30.3291 4.24831 21.2547C3.90917 12.1803 10.8089 4.46335 19.8646 3.78883C28.9202 3.11431 36.8871 9.72394 37.8961 18.7484" stroke="#EC643A" stroke-width="2.8125" stroke-linecap="round" stroke-linejoin="round"/>
<path fill-rule="evenodd" clip-rule="evenodd" d="M38.0066 39.382H30.5035C28.4316 39.382 26.752 37.7024 26.752 35.6305V28.1273C26.752 26.0554 28.4316 24.3758 30.5035 24.3758H38.0066C40.0786 24.3758 41.7582 26.0554 41.7582 28.1273V35.6305C41.7582 37.7024 40.0786 39.382 38.0066 39.382Z" stroke="#EC643A" stroke-width="2.8125" stroke-linecap="round" stroke-linejoin="round"/>
<path d="M36.1307 30.0031L32.3792 33.7547" stroke="#EC643A" stroke-width="2.8125" stroke-linecap="round" stroke-linejoin="round"/>
<path d="M32.3792 30.0031L36.1307 33.7547" stroke="#EC643A" stroke-width="2.8125" stroke-linecap="round" stroke-linejoin="round"/>
</svg>
