<svg width="44" height="44" viewBox="0 0 44 44" fill="none" xmlns="http://www.w3.org/2000/svg">
<path d="M23.8333 38.5H5.5" stroke="#EC643A" stroke-width="2.75" stroke-linecap="round" stroke-linejoin="round"/>
<path d="M7.33346 38.5L7.33337 20.1667" stroke="#EC643A" stroke-width="2.75" stroke-linecap="round" stroke-linejoin="round"/>
<path d="M18.3334 38.5V20.1667" stroke="#EC643A" stroke-width="2.75" stroke-linecap="round" stroke-linejoin="round"/>
<path d="M40.1736 12.8334H3.82568" stroke="#EC643A" stroke-width="2.75" stroke-linecap="round" stroke-linejoin="round"/>
<path d="M36.6668 25.6667L36.6666 20.1667" stroke="#EC643A" stroke-width="2.75" stroke-linecap="round" stroke-linejoin="round"/>
<path fill-rule="evenodd" clip-rule="evenodd" d="M4.23312 11.9364L7.21834 7.20894C7.89012 6.1451 9.06044 5.5 10.3186 5.5H33.6816C34.9399 5.5 36.1102 6.14512 36.782 7.209L39.7671 11.9364C40.137 12.5223 40.3334 13.2011 40.3334 13.8941V18.3333C40.3334 19.3459 39.5126 20.1667 38.5001 20.1667H5.50008C4.48756 20.1667 3.66675 19.3459 3.66675 18.3333V13.8941C3.66675 13.2011 3.86313 12.5223 4.23312 11.9364Z" stroke="#EC643A" stroke-width="2.75" stroke-linecap="round" stroke-linejoin="round"/>
<path d="M35.5927 37.4261L30.4072 32.2407" stroke="#EC643A" stroke-width="2.75" stroke-linecap="round" stroke-linejoin="round"/>
<path d="M30.4072 37.4261L35.5927 32.2407" stroke="#EC643A" stroke-width="2.75" stroke-linecap="round" stroke-linejoin="round"/>
</svg>
