<svg width="44" height="44" viewBox="0 0 44 44" fill="none" xmlns="http://www.w3.org/2000/svg">
<path d="M14.6672 5.5L10.7988 12.4245" stroke="#46B99E" stroke-width="2.75" stroke-linecap="round" stroke-linejoin="round"/>
<path d="M27.5 5.5L31.7167 12.4245" stroke="#46B99E" stroke-width="2.75" stroke-linecap="round" stroke-linejoin="round"/>
<path d="M29.3332 38.5C24.2713 38.5 20.1665 34.3952 20.1665 29.3333C20.1665 24.2715 24.2713 20.1667 29.3332 20.1667C34.3968 20.1667 38.4998 24.2715 38.4998 29.3333C38.4998 34.3952 34.3968 38.5 29.3332 38.5" stroke="#46B99E" stroke-width="2.75" stroke-linecap="round" stroke-linejoin="round"/>
<path d="M33.4066 27.2965L28.3136 32.3895L25.2593 29.3333" stroke="#46B99E" stroke-width="2.75" stroke-linecap="round" stroke-linejoin="round"/>
<path d="M35.6417 22.6875L36.9305 16.7365C37.4109 14.52 35.726 12.4245 33.4545 12.4245H9.05655C6.79055 12.4245 5.10205 14.52 5.58055 16.7365L8.27738 29.1885C8.62938 30.8257 10.0777 31.9917 11.7534 31.9917H20.5607" stroke="#46B99E" stroke-width="2.75" stroke-linecap="round" stroke-linejoin="round"/>
</svg>
