<svg width="46" height="46" viewBox="0 0 46 46" fill="none" xmlns="http://www.w3.org/2000/svg">
<path d="M23.0005 26.6682V32.1705" stroke="#46B99E" stroke-width="2.75" stroke-linecap="round" stroke-linejoin="round"/>
<path d="M29.4192 33.5974C29.4192 32.8093 28.7804 32.1705 27.9923 32.1705H18.0075C17.2194 32.1705 16.5806 32.8093 16.5806 33.5974" stroke="#46B99E" stroke-width="2.75" stroke-linecap="round" stroke-linejoin="round"/>
<path fill-rule="evenodd" clip-rule="evenodd" d="M18.4147 39.5069H27.5852C28.5981 39.5069 29.4192 38.6857 29.4192 37.6728V31.1342C29.4191 30.391 29.2688 29.6555 28.9772 28.9718L28.4674 27.7815C28.1789 27.1066 27.5158 26.6686 26.7818 26.6682H19.218C18.4833 26.6679 17.8194 27.1059 17.5306 27.7815L17.0226 28.97C16.731 29.6536 16.5807 30.3892 16.5806 31.1324V37.6728C16.5806 38.6857 17.4017 39.5069 18.4147 39.5069Z" stroke="#46B99E" stroke-width="2.75" stroke-linecap="round" stroke-linejoin="round"/>
<path d="M11.9959 39.5069H8.32775C7.31481 39.5069 6.49365 38.6857 6.49365 37.6728V17.2923C6.49426 15.9613 7.21584 14.735 8.3791 14.0881L21.2178 6.95532C22.3259 6.33954 23.6734 6.33954 24.7814 6.95532L37.6201 14.0881C38.7847 14.7348 39.5074 15.9621 39.5074 17.2941V37.6728C39.5074 38.6857 38.6863 39.5069 37.6733 39.5069H34.0051" stroke="#46B99E" stroke-width="2.75" stroke-linecap="round" stroke-linejoin="round"/>
<path d="M20.4766 17.4977H25.524" stroke="#46B99E" stroke-width="2.75" stroke-linecap="round" stroke-linejoin="round"/>
</svg>
