<svg width="44" height="44" viewBox="0 0 44 44" fill="none" xmlns="http://www.w3.org/2000/svg">
<path d="M28.417 30.25H33.0003" stroke="#323232" stroke-width="2.75" stroke-linecap="round" stroke-linejoin="round"/>
<path d="M32.9997 30.25V34.7699" stroke="#323232" stroke-width="2.75" stroke-linecap="round" stroke-linejoin="round"/>
<path d="M32.3012 30.25C31.1911 32.322 29.5066 34.0295 27.4499 35.1676C24.6218 36.7236 21.2875 37.0793 18.1948 36.1547C15.1022 35.2302 12.5101 33.1029 11 30.25" stroke="#323232" stroke-width="2.75" stroke-linecap="round" stroke-linejoin="round"/>
<path d="M21.9997 12.8333V5.5" stroke="#323232" stroke-width="2.75" stroke-linecap="round" stroke-linejoin="round"/>
<path d="M5.5 23.8333V14.3521C5.5 13.3797 5.88631 12.447 6.57395 11.7594L11.7594 6.57395C12.447 5.88631 13.3797 5.5 14.3521 5.5H29.6479C30.6203 5.5 31.553 5.88631 32.2406 6.57395L37.4261 11.7594C38.1137 12.447 38.5 13.3797 38.5 14.3521V23.8333" stroke="#323232" stroke-width="2.75" stroke-linecap="round" stroke-linejoin="round"/>
<path d="M5.83496 12.8333H38.1667" stroke="#323232" stroke-width="2.75" stroke-linecap="round" stroke-linejoin="round"/>
</svg>
