<svg width="44" height="44" viewBox="0 0 44 44" fill="none" xmlns="http://www.w3.org/2000/svg">
<path d="M34.2908 33.5427C35.4256 34.6775 35.4256 36.5163 34.2908 37.6493C33.156 38.7842 31.3171 38.7842 30.1841 37.6493C29.0493 36.5145 29.0493 34.6757 30.1841 33.5427C31.319 32.4078 33.1578 32.4078 34.2908 33.5427" stroke="#323232" stroke-width="2.75" stroke-linecap="round" stroke-linejoin="round"/>
<path d="M14.1231 33.5427C15.258 34.6775 15.258 36.5163 14.1231 37.6493C12.9883 38.7842 11.1495 38.7842 10.0165 37.6493C8.88345 36.5145 8.88162 34.6757 10.0165 33.5427C11.1513 32.4097 12.9883 32.4078 14.1231 33.5427" stroke="#323232" stroke-width="2.75" stroke-linecap="round" stroke-linejoin="round"/>
<path d="M18.3327 7.33333H25.666C26.678 7.33333 27.4993 8.15467 27.4993 9.16667V27.5H3.66602" stroke="#323232" stroke-width="2.75" stroke-linecap="round" stroke-linejoin="round"/>
<path d="M9.16602 35.596H5.49935C4.48735 35.596 3.66602 34.7747 3.66602 33.7627V23.8333" stroke="#323232" stroke-width="2.75" stroke-linecap="round" stroke-linejoin="round"/>
<path d="M27.499 12.8333H35.4245C36.1744 12.8333 36.849 13.2898 37.1259 13.9865L40.0702 21.3455C40.2425 21.7782 40.3324 22.2402 40.3324 22.7058V33.6105C40.3324 34.6225 39.511 35.4438 38.499 35.4438H35.1422" stroke="#323232" stroke-width="2.75" stroke-linecap="round" stroke-linejoin="round"/>
<path d="M29.3325 35.6033H14.9775" stroke="#323232" stroke-width="2.75" stroke-linecap="round" stroke-linejoin="round"/>
<path d="M40.3324 25.6667H32.999V18.3333H38.8657" stroke="#323232" stroke-width="2.75" stroke-linecap="round" stroke-linejoin="round"/>
<path d="M3.66602 7.33333H12.8327" stroke="#323232" stroke-width="2.75" stroke-linecap="round" stroke-linejoin="round"/>
<path d="M3.66602 12.8333H9.16602" stroke="#323232" stroke-width="2.75" stroke-linecap="round" stroke-linejoin="round"/>
<path d="M5.49935 18.3333H3.66602" stroke="#323232" stroke-width="2.75" stroke-linecap="round" stroke-linejoin="round"/>
</svg>
