<svg width="223" height="115" viewBox="0 0 223 115" fill="none" xmlns="http://www.w3.org/2000/svg">
<g clip-path="url(#clip0_564_1450)">
<path fill-rule="evenodd" clip-rule="evenodd" d="M131.334 16.5536C151.099 18.0773 171.504 22.0211 189.039 29.4505C203.529 35.5893 223 47.4583 223 65.3992C223 83.3388 203.528 95.2091 189.039 101.348C165.532 111.306 136.869 115.001 111.501 115.001C86.1323 115.001 57.4676 111.306 33.9627 101.348C19.4734 95.2091 0 83.3388 0 65.3992C0 47.4583 19.4734 35.5893 33.9627 29.4505C52.2984 21.6807 73.7761 17.7235 94.3778 16.3593C94.4771 15.9814 94.5777 15.6022 94.6783 15.2243C94.2883 14.3258 94.1306 13.3438 94.2197 12.3685C94.3087 11.3933 94.6418 10.456 95.1881 9.64286C95.4672 6.20557 97.7989 3.7787 101.294 2.59944C102.208 1.85575 103.314 1.38477 104.484 1.24061C104.811 1.06506 105.121 0.880129 105.477 0.71262C106.154 0.312128 106.913 0.071347 107.698 0.00864234C108.482 -0.0540623 109.27 0.062966 110.002 0.350801C111.24 0.14109 112.513 0.30195 113.659 0.813125C113.764 0.807765 113.869 0.805085 113.981 0.807765C115.366 0.874887 116.717 1.25179 117.936 1.91064C118.569 1.87486 119.202 1.97033 119.795 2.19106C120.389 2.41178 120.931 2.75296 121.386 3.19309C122.155 3.48113 122.87 3.89556 123.503 4.41926C124.188 5.08528 124.838 5.78759 125.448 6.52317C126.654 6.98246 127.691 7.7987 128.42 8.86272C129.149 9.92673 129.536 11.1878 129.528 12.4771C130.083 13.242 130.47 14.1157 130.663 15.0407C130.678 15.0608 130.692 15.0822 130.707 15.1037C131.013 15.5392 131.226 16.0326 131.334 16.5536Z" fill="white"/>
<path fill-rule="evenodd" clip-rule="evenodd" d="M111.501 19.8984C170.802 19.8984 218.892 40.2729 218.892 65.3992C218.892 90.5242 170.802 110.899 111.501 110.899C52.2004 110.899 4.10791 90.5242 4.10791 65.3992C4.10791 40.2729 52.2004 19.8984 111.501 19.8984Z" fill="#B89348"/>
<path fill-rule="evenodd" clip-rule="evenodd" d="M111.501 19.8984C170.802 19.8984 218.892 40.2729 218.892 65.3992C218.892 90.5242 170.802 110.899 111.501 110.899C52.2004 110.899 4.10791 90.5242 4.10791 65.3992C4.10791 40.2729 52.2004 19.8984 111.501 19.8984Z" fill="#FAC934"/>
<path fill-rule="evenodd" clip-rule="evenodd" d="M111.755 24.4043C165.159 24.4043 208.451 42.435 208.451 64.6775C208.451 86.9213 165.159 104.953 111.755 104.953C58.3523 104.953 15.0601 86.9213 15.0601 64.6775C15.0601 42.435 58.3523 24.4043 111.755 24.4043Z" fill="white"/>
<path fill-rule="evenodd" clip-rule="evenodd" d="M58.5689 44.4059C57.9849 43.7872 57.2497 43.3309 56.4357 43.0819C55.3557 42.7772 54.2356 42.6385 53.1139 42.6705C51.646 42.7043 50.2208 43.17 49.0166 44.0092C47.3871 45.0792 46.1431 46.642 45.4668 48.469L46.1818 48.7732C46.5373 48.2559 46.8929 47.7842 47.2484 47.3581C47.7055 46.7446 48.2978 46.2444 48.9794 45.896C49.6611 45.5477 50.4137 45.3607 51.1793 45.3493C51.7637 45.2788 52.3563 45.3642 52.8969 45.5968C53.4374 45.8294 53.9067 46.2008 54.2569 46.6733C54.8632 47.7914 55.1478 49.0553 55.0793 50.325C55.0793 50.9656 55.0606 51.5284 55.019 52.0148H48.6195L48.1178 54.3278H54.7305C54.4283 56.1173 53.9298 57.8682 53.244 59.5487C52.6943 60.9789 51.9149 62.3101 50.9365 63.4899C50.5436 63.9495 50.0809 64.3448 49.5654 64.6611C49.0695 64.9513 48.5032 65.0992 47.9286 65.0886C47.6678 65.1063 47.4064 65.0641 47.1645 64.9651C46.9227 64.8661 46.7067 64.7131 46.5333 64.5177C46.2115 64.1176 46.044 63.6155 46.0611 63.1026C46.0618 62.5326 46.1754 61.9683 46.3951 61.4422C46.5485 60.9983 46.8226 60.6057 47.1867 60.3085C46.972 60.0461 46.6995 59.8369 46.3904 59.6972C46.0813 59.5575 45.7441 59.4911 45.405 59.5032C43.9427 59.5032 43.2111 60.4568 43.2102 62.3642C43.1912 63.0272 43.3325 63.685 43.622 64.2819C44.4149 65.7935 46.0709 66.5493 48.59 66.5493C50.5138 66.5884 52.4003 66.0154 53.9765 64.913C55.5518 63.7784 56.8384 62.2903 57.733 60.5685C59.429 57.362 60.2982 53.7838 60.262 50.1575C60.4411 48.0959 59.8366 46.0426 58.5689 44.4059Z" fill="#80171A"/>
<path fill-rule="evenodd" clip-rule="evenodd" d="M175.402 62.151C175.401 61.7813 175.447 61.413 175.539 61.0548L177.779 50.4616H173.285L172.948 52.1219V51.8928C172.949 51.6699 172.895 51.4501 172.792 51.2525C172.689 51.0549 172.539 50.8856 172.355 50.7591C171.772 50.412 171.095 50.2555 170.419 50.3115C169.61 50.2971 168.807 50.4444 168.056 50.7447C167.305 51.0451 166.622 51.4923 166.047 52.0603C164.789 53.3039 163.835 54.8198 163.258 56.4905C162.969 57.284 162.75 58.1009 162.603 58.9322C162.465 59.7275 162.394 60.5331 162.392 61.3403C162.19 61.7697 161.947 62.1789 161.666 62.5624C161.494 62.78 161.272 62.9531 161.018 63.0671C160.765 63.1812 160.488 63.2328 160.211 63.2177C159.378 63.2177 158.961 62.8318 158.962 62.0599C158.983 61.5285 159.044 60.9995 159.144 60.4773L159.282 59.7322C159.322 59.4903 159.343 59.2456 159.343 59.0005C159.392 58.2341 159.165 57.4754 158.703 56.8617C158.391 56.5769 158.021 56.3622 157.619 56.2323C157.217 56.1024 156.791 56.0602 156.371 56.1086C155.932 56.1121 155.494 56.1529 155.062 56.2306C155.396 55.8969 155.712 55.5672 156.005 55.2416L157.164 53.9632C157.627 53.4579 158.161 53.0224 158.75 52.67V52.9742C158.798 53.2612 158.924 53.5296 159.115 53.7501C159.28 53.9376 159.488 54.0825 159.721 54.1725C159.955 54.2626 160.206 54.2951 160.455 54.2674C160.724 54.2858 160.993 54.2465 161.245 54.1522C161.498 54.0579 161.727 53.9107 161.917 53.7206C162.266 53.3187 162.446 52.7979 162.42 52.2666C162.441 51.7208 162.253 51.1875 161.894 50.7751C161.678 50.5656 161.42 50.4049 161.136 50.3039C160.852 50.2028 160.55 50.1638 160.25 50.1895C159.539 50.1784 158.843 50.3912 158.26 50.7979C157.414 51.4617 156.629 52.2004 155.915 53.005L154.422 54.6332L152.471 56.642L153.811 50.4616H149.317L147.177 60.4612H147.169C146.651 62.2984 145.808 63.2173 144.639 63.2177C143.787 63.2177 143.359 62.8626 143.359 62.151C143.358 61.7812 143.404 61.4129 143.497 61.0548L145.738 50.4616H141.243L139.125 60.4612C138.556 62.2984 137.723 63.2173 136.625 63.2177C136.006 63.2177 135.696 62.7911 135.696 61.9379C135.7 61.6414 135.731 61.3458 135.788 61.0548L138.027 50.4616H133.533L131.415 60.4612C131.155 61.2101 130.78 61.9137 130.302 62.5463C130.102 62.7735 129.853 62.952 129.573 63.0684C129.293 63.1847 128.991 63.2358 128.688 63.2177C127.925 63.2177 127.544 62.771 127.544 61.8776C127.563 61.3323 127.644 60.791 127.787 60.2642L128.518 57.2195C128.838 56.0278 129.013 54.8016 129.037 53.5679C129.067 53.118 128.994 52.6672 128.822 52.2502C128.65 51.8332 128.385 51.4611 128.047 51.1624C127.349 50.6023 126.473 50.3108 125.579 50.341C124.685 50.3606 123.813 50.6159 123.051 51.081C122.288 51.546 121.663 52.2043 121.237 52.9889C121.209 52.6008 121.104 52.2222 120.927 51.8757C120.749 51.5292 120.504 51.2218 120.205 50.972C119.907 50.7222 119.561 50.5349 119.188 50.4215C118.815 50.308 118.424 50.2706 118.036 50.3115C117.31 50.3039 116.591 50.4584 115.932 50.7638C115.273 51.0691 114.691 51.5175 114.227 52.0764L114.563 50.4616H110.067L107.946 60.4665C107.188 61.3595 106.316 62.1485 105.351 62.813C104.444 63.37 103.392 63.6478 102.327 63.6117C101.754 63.6482 101.188 63.4662 100.744 63.1025C100.286 62.5014 100.083 61.744 100.179 60.9945C100.179 60.7506 100.205 60.3348 100.256 59.7469C102.115 59.6492 103.887 58.9277 105.284 57.6993C105.959 57.1537 106.502 56.4637 106.874 55.6801C107.246 54.8966 107.437 54.0396 107.432 53.1725C107.471 52.3752 107.191 51.595 106.655 51.003C105.819 50.3588 104.764 50.0669 103.715 50.1895C102.829 50.1896 101.954 50.3869 101.155 50.7671C99.5262 51.5199 98.1964 52.7948 97.3768 54.3893C96.1982 56.4968 95.5745 58.8687 95.5643 61.2826C95.5643 61.3202 95.5696 61.351 95.571 61.3885C95.3824 61.8015 95.1445 62.1903 94.8626 62.5463C94.6626 62.7737 94.4132 62.9524 94.1335 63.0687C93.8538 63.1851 93.5511 63.2361 93.2487 63.2177C92.4866 63.2177 92.1052 62.771 92.1043 61.8776C92.1231 61.3322 92.205 60.7908 92.3484 60.2642L93.0796 57.2195C93.3993 56.0276 93.5736 54.8015 93.5988 53.5679C93.6286 53.118 93.5548 52.6673 93.3832 52.2504C93.2116 51.8334 92.9466 51.4613 92.6087 51.1624C91.9102 50.6025 91.034 50.3111 90.1388 50.341C89.2457 50.3609 88.3738 50.6164 87.6114 51.0814C86.849 51.5464 86.2232 52.2045 85.7974 52.9889C85.7697 52.6009 85.6641 52.2224 85.4869 51.8759C85.3098 51.5295 85.0646 51.2222 84.766 50.9724C84.4675 50.7226 84.1216 50.5353 83.7491 50.4217C83.3766 50.3082 82.985 50.2707 82.5977 50.3115C81.8713 50.3035 81.1523 50.4579 80.4932 50.7632C79.8342 51.0686 79.2519 51.5172 78.7889 52.0764L79.1243 50.4616H74.6286L72.5075 60.4639C71.7506 61.3583 70.8781 62.1482 69.9128 62.813C69.0048 63.3702 67.9526 63.648 66.8875 63.6117C65.456 63.6117 64.74 62.8608 64.7396 61.359C64.7317 58.5826 65.4568 55.8531 66.8419 53.4459C67.5033 52.3712 68.1307 51.8334 68.7242 51.8325C69.3185 51.8325 69.6154 52.259 69.615 53.1122C69.6003 53.7434 69.4716 54.3666 69.2353 54.9521C69.5819 55.1872 69.9903 55.3145 70.4092 55.318C70.6215 55.312 70.8299 55.2591 71.0192 55.1629C71.2085 55.0667 71.3741 54.9297 71.504 54.7619C71.8704 54.2583 72.0437 53.6401 71.9923 53.0198C71.9923 51.1329 70.7428 50.1895 68.2439 50.1895C67.3635 50.1908 66.4946 50.3881 65.7002 50.7671C64.0808 51.5206 62.7573 52.7894 61.937 54.3746C60.7571 56.4869 60.1335 58.8638 60.1245 61.2826C60.0566 61.9738 60.14 62.6715 60.3688 63.3272C60.5977 63.983 60.9666 64.5812 61.45 65.0804C62.4513 65.887 63.7152 66.2964 64.9999 66.2302C66.378 66.2001 67.7309 65.8549 68.9546 65.2212C70.1784 64.5875 71.2405 63.6821 72.0594 62.5745L71.3228 66.0466H75.8186L77.9343 56.0483C78.1327 55.311 78.4662 54.6168 78.9177 54.0007C79.0895 53.7406 79.3223 53.5264 79.5958 53.3767C79.8694 53.227 80.1754 53.1463 80.4873 53.1417C81.1018 53.1417 81.409 53.5982 81.409 54.5113C81.4102 54.7731 81.3796 55.0341 81.3178 55.2885L79.033 66.0466H83.5274L85.6445 56.0483C85.7501 55.6698 85.893 55.3026 86.0711 54.9521C86.6614 53.7662 87.3295 53.1725 88.0835 53.1725C88.8348 53.1725 89.2104 53.705 89.2104 54.7699C89.1089 56.0787 88.8738 57.3736 88.5088 58.6347C88.1277 59.9649 87.8928 61.3327 87.8085 62.7138C87.8085 65.0576 89.1393 66.2297 91.8011 66.2302C92.7363 66.2147 93.6385 65.882 94.3595 65.2868C94.9653 64.7869 95.4812 64.1873 95.8849 63.5139C96.0718 64.1169 96.4186 64.6582 96.8884 65.0804C97.89 65.8866 99.1537 66.2959 100.438 66.2302C101.816 66.2004 103.169 65.8555 104.393 65.222C105.617 64.5885 106.679 63.6832 107.498 62.5758L106.761 66.0466H111.257L113.374 56.0483C113.572 55.3108 113.905 54.6165 114.357 54.0007C114.529 53.7406 114.762 53.5264 115.036 53.3767C115.309 53.227 115.615 53.1463 115.927 53.1417C116.542 53.1417 116.849 53.5982 116.849 54.5113C116.85 54.7731 116.819 55.0341 116.758 55.2885L114.471 66.0466H118.966L121.084 56.0483C121.189 55.6694 121.332 55.3021 121.511 54.9521C122.101 53.7662 122.769 53.1725 123.522 53.1725C124.275 53.1725 124.649 53.7045 124.649 54.7699C124.548 56.0786 124.313 57.3736 123.949 58.6347C123.567 59.9649 123.332 61.3327 123.247 62.7138C123.247 65.0576 124.578 66.2297 127.24 66.2302C128.175 66.2149 129.078 65.8822 129.799 65.2868C130.38 64.8058 130.878 64.2321 131.271 63.5889C131.356 64.2536 131.658 64.8717 132.131 65.3471C132.78 65.9356 133.631 66.2519 134.507 66.2302C135.472 66.1998 136.411 65.9092 137.223 65.3892C138.036 64.8693 138.693 64.1393 139.125 63.2767C139.109 63.6805 139.179 64.0832 139.331 64.4578C139.483 64.8325 139.713 65.1707 140.005 65.45C140.298 65.7292 140.646 65.9432 141.028 66.0777C141.409 66.2122 141.815 66.2642 142.219 66.2302C143.005 66.2346 143.783 66.0662 144.496 65.7369C145.21 65.4076 145.843 64.9254 146.349 64.3246L145.982 66.0466H150.476L151.847 59.4722L152.745 58.7419C153.052 58.4805 153.439 58.3304 153.842 58.3157C154.634 58.3157 155.03 58.8129 155.031 59.8072C155.017 60.2666 154.956 60.7233 154.848 61.1701C154.729 61.697 154.668 62.2353 154.666 62.7755C154.643 63.236 154.713 63.6965 154.873 64.1292C155.032 64.5619 155.278 64.9579 155.594 65.2935C155.98 65.6311 156.43 65.8879 156.917 66.0488C157.404 66.2097 157.918 66.2714 158.429 66.2302C159.325 66.1919 160.195 65.9155 160.948 65.4295C161.702 64.9435 162.312 64.2656 162.716 63.4656C162.726 63.4964 162.729 63.5353 162.741 63.5661C162.971 64.3685 163.467 65.069 164.148 65.553C164.829 66.0369 165.654 66.2757 166.488 66.2302C167.456 66.1966 168.399 65.9126 169.224 65.4059C170.049 64.8992 170.729 64.1873 171.196 63.3397C171.263 64.1431 171.608 64.8981 172.171 65.4757C172.444 65.7289 172.764 65.9258 173.113 66.0552C173.462 66.1847 173.833 66.2441 174.205 66.2302C174.59 66.2404 174.973 66.1666 175.327 66.0141C175.681 65.8616 175.998 65.634 176.255 65.3471C176.74 64.6526 177.115 63.8879 177.367 63.0797C177.152 63.1781 176.918 63.2254 176.682 63.2177C175.828 63.2177 175.402 62.8621 175.402 62.151ZM102.038 53.8493C102.75 52.5239 103.487 51.8517 104.248 51.8325C104.765 51.8325 105.023 52.2081 105.024 52.9595C105.041 54.2947 104.555 55.5874 103.662 56.5817C103.276 57.06 102.797 57.455 102.253 57.7427C101.71 58.0304 101.113 58.2049 100.5 58.2554C100.787 56.7177 101.306 55.2322 102.038 53.8493ZM171.166 60.4612C171.021 61.2219 170.656 61.9233 170.114 62.478C169.896 62.7077 169.634 62.8915 169.344 63.0186C169.054 63.1456 168.741 63.2133 168.424 63.2177C168.269 63.2219 168.114 63.1943 167.97 63.1364C167.826 63.0786 167.695 62.9917 167.586 62.8814C167.365 62.6141 167.2 62.3055 167.1 61.9736C167.001 61.6418 166.969 61.2934 167.006 60.949C167.005 60.4962 167.03 60.0439 167.082 59.5942C167.238 57.2511 168.105 55.0111 169.567 53.1725C169.765 52.905 170.019 52.6834 170.31 52.5231C170.602 52.3628 170.925 52.2675 171.258 52.2439C171.47 52.2122 171.686 52.237 171.885 52.3159C172.085 52.3947 172.26 52.5247 172.393 52.6928C172.542 52.9119 172.634 53.1656 172.658 53.4298L171.166 60.4612Z" fill="#80171A"/>
<path fill-rule="evenodd" clip-rule="evenodd" d="M89.733 78.9952C89.4127 78.5285 88.9998 78.1323 88.5201 77.8313C88.0403 77.5302 87.5038 77.3307 86.9438 77.2451C87.9041 76.7302 88.7092 75.9682 89.2755 75.038C89.7845 74.2141 90.0587 73.267 90.0684 72.2989C90.0725 71.6219 89.9223 70.9529 89.6292 70.3425C89.3361 69.7321 88.9077 69.1964 88.3766 68.7759C86.95 67.723 85.1942 67.2127 83.4248 67.3366C80.5896 67.3049 77.8204 68.1917 75.5321 69.864C74.5426 70.5755 73.6953 71.466 73.034 72.4892C72.4294 73.4153 72.1065 74.4966 72.1043 75.6022C72.0919 76.059 72.1694 76.5139 72.3324 76.9409C72.759 77.9553 73.7952 78.4628 75.4409 78.4632C75.4366 78.3885 75.4155 78.3156 75.3792 78.2502C75.0943 77.6579 74.9637 77.0034 74.9995 76.3473C74.957 74.8936 75.3494 73.4604 76.1264 72.2306C76.8774 71.0908 77.9258 70.1775 79.1585 69.5893C79.7297 69.3158 80.3307 69.1094 80.9495 68.9742C81.5898 68.8347 82.2435 68.7655 82.8989 68.7678C83.5119 68.7578 84.1223 68.8507 84.7047 69.0425C85.3685 69.2317 85.9485 69.6402 86.3499 70.2012C86.7513 70.7623 86.9502 71.4428 86.9143 72.1314C86.894 73.4028 86.4152 74.6242 85.566 75.5714C85.2 76.0627 84.7261 76.4636 84.1807 76.7434C83.6353 77.0231 83.0329 77.1741 82.4199 77.1848H82.2361L83.6998 70.2741L79.082 70.8838L74.8465 90.7142H79.3409L81.902 78.7822C82.3756 78.7131 82.8536 78.6777 83.3322 78.6763C85.303 78.6763 86.2886 79.9998 86.2891 82.6469C86.3192 83.9091 86.0858 85.1637 85.6035 86.3308C85.4433 86.8702 85.1173 87.3457 84.6716 87.6898C84.226 88.034 83.6832 88.2294 83.1202 88.2484C82.7258 88.2082 82.3438 88.0875 81.9979 87.8939C81.6519 87.7002 81.3495 87.4378 81.1092 87.1228C80.873 87.6908 80.739 88.2959 80.7134 88.9104C80.6942 89.3302 80.8002 89.7462 81.0179 90.1058C81.3384 90.5173 81.7603 90.8386 82.2424 91.0385C82.7245 91.2384 83.2502 91.31 83.7682 91.2462C84.9503 91.2963 86.1156 90.9537 87.082 90.2719C88.7812 88.9503 89.9313 87.0478 90.3112 84.9304C90.5059 84.0556 90.6128 83.1637 90.6305 82.2677C90.6625 81.1122 90.3501 79.9732 89.733 78.9952Z" fill="#80171A"/>
<path fill-rule="evenodd" clip-rule="evenodd" d="M147.097 86.8183C147.097 86.4482 147.143 86.0796 147.234 85.7208L149.474 75.1288H144.98L144.643 76.7892V76.56C144.644 76.3371 144.591 76.1172 144.488 75.9196C144.384 75.722 144.234 75.5526 144.05 75.4263C143.467 75.0788 142.79 74.9218 142.114 74.9774C141.305 74.963 140.502 75.1104 139.751 75.411C139 75.7115 138.317 76.1592 137.742 76.7275C136.485 77.9706 135.531 79.486 134.954 81.1565C134.665 81.9497 134.446 82.7667 134.299 83.5981C134.19 84.2433 134.126 84.8952 134.107 85.5492C133.45 86.2774 132.709 86.9252 131.899 87.4789C130.992 88.0365 129.94 88.3144 128.875 88.2776C127.444 88.2776 126.728 87.5272 126.727 86.0263C126.717 83.2492 127.442 80.5187 128.83 78.1118C129.491 77.0371 130.118 76.4997 130.712 76.4997C131.305 76.4997 131.602 76.9259 131.603 77.7782C131.587 78.4092 131.459 79.0325 131.223 79.6181C131.569 79.8542 131.977 79.9821 132.396 79.9853C132.608 79.9792 132.817 79.9261 133.006 79.8297C133.196 79.7333 133.362 79.596 133.492 79.4278C133.858 78.9242 134.031 78.3059 133.979 77.6857C133.979 75.7989 132.73 74.8555 130.232 74.8555C129.351 74.8571 128.482 75.0544 127.688 75.433C126.068 76.1869 124.745 77.4555 123.923 79.0405C122.743 81.1532 122.12 83.5307 122.111 85.9499C122.111 86.033 122.124 86.1 122.127 86.1804C121.847 86.9029 121.441 87.5699 120.927 88.1503C120.279 88.8149 119.476 89.3085 118.59 89.5869L121.683 75.1288H117.19L115.01 85.3268C114.807 85.9896 114.481 86.6086 114.05 87.152C113.869 87.3807 113.639 87.5655 113.376 87.6922C113.113 87.819 112.825 87.8844 112.533 87.8836C111.939 87.8836 111.642 87.4271 111.642 86.5141C111.643 86.2471 111.673 85.981 111.733 85.7208L113.974 75.1288H109.477L107.361 85.1285L107.36 85.1325C107.066 85.8732 106.686 86.5767 106.228 87.2283C106.055 87.4458 105.833 87.6189 105.58 87.7329C105.326 87.8469 105.049 87.8986 104.772 87.8836C103.937 87.8836 103.523 87.4977 103.523 86.7272C103.543 86.1953 103.604 85.6658 103.705 85.1432L103.844 84.3981C103.883 84.1567 103.903 83.9124 103.903 83.6678C103.953 82.9017 103.726 82.143 103.263 81.5304C102.951 81.2446 102.582 81.0293 102.18 80.8991C101.778 80.7689 101.352 80.7269 100.932 80.7759C100.493 80.7787 100.054 80.8195 99.6215 80.8978C99.9569 80.5628 100.272 80.2332 100.566 79.9089L101.724 78.6304C102.187 78.1259 102.721 77.6904 103.308 77.3373V77.6401C103.359 77.9273 103.485 78.1957 103.674 78.4174C103.84 78.6045 104.049 78.7492 104.282 78.8392C104.516 78.9292 104.767 78.9619 105.016 78.9346C105.285 78.9528 105.554 78.9133 105.807 78.8188C106.059 78.7243 106.288 78.5769 106.478 78.3866C106.827 77.9844 107.006 77.4637 106.98 76.9326C107 76.3868 106.812 75.8537 106.454 75.4411C106.238 75.2313 105.979 75.0705 105.696 74.9694C105.412 74.8684 105.11 74.8295 104.809 74.8555C104.1 74.8447 103.404 75.0576 102.823 75.4639C101.976 76.1276 101.19 76.8663 100.476 77.671L98.9829 79.3005L97.0308 81.3079L98.3725 75.1288H93.8781L90.5415 90.7139H95.0359L96.407 84.1395L97.3045 83.4091C97.6115 83.1469 97.9983 82.9962 98.402 82.9817C99.1948 82.9817 99.5911 83.4793 99.5906 84.4745C99.5775 84.9335 99.5164 85.3898 99.4082 85.836C99.2892 86.3629 99.2281 86.9013 99.2257 87.4414C99.2025 87.9023 99.2729 88.3631 99.4327 88.796C99.5924 89.229 99.8383 89.6252 100.155 89.9607C100.541 90.2981 100.99 90.5548 101.477 90.7154C101.964 90.8761 102.478 90.9375 102.989 90.8961C103.865 90.8618 104.716 90.5977 105.457 90.1302C106.199 89.6628 106.803 89.0086 107.211 88.2334C107.294 88.9062 107.599 89.5325 108.076 90.0144C108.726 90.6018 109.577 90.9174 110.454 90.8961C111.166 90.8918 111.869 90.7347 112.516 90.4356C113.162 90.1364 113.737 89.7021 114.201 89.1621L113.821 90.8345C110.429 91.9615 108.733 93.4735 108.732 95.3706C108.693 95.8218 108.766 96.2757 108.944 96.6924C109.121 97.109 109.399 97.4756 109.752 97.76C110.554 98.2915 111.505 98.5526 112.466 98.505C113.547 98.5204 114.602 98.1778 115.467 97.5308C116.775 96.4398 117.623 94.8968 117.843 93.2091L118.315 90.9564C118.828 90.8223 119.328 90.6443 119.81 90.4244C120.875 89.9289 121.781 89.1482 122.429 88.1691C122.616 88.7763 122.964 89.3217 123.436 89.7477C124.438 90.554 125.702 90.9629 126.986 90.8961C128.396 90.8625 129.779 90.5016 131.025 89.842C132.271 89.1824 133.346 88.2421 134.165 87.0957C134.215 87.4829 134.306 87.8638 134.436 88.2321C134.666 89.0343 135.163 89.7347 135.843 90.2187C136.524 90.7026 137.349 90.9415 138.183 90.8961C139.152 90.8626 140.095 90.5784 140.92 90.0715C141.746 89.5646 142.425 88.8523 142.892 88.0042C142.958 88.8085 143.303 89.5647 143.866 90.143C144.139 90.396 144.46 90.5928 144.809 90.722C145.158 90.8513 145.529 90.9104 145.901 90.8961C146.286 90.9061 146.669 90.8324 147.023 90.6802C147.376 90.5279 147.693 90.3007 147.95 90.0144C148.434 89.3192 148.809 88.5541 149.062 87.7456C148.848 87.8441 148.613 87.8913 148.377 87.8836C147.523 87.8836 147.097 87.5285 147.097 86.8183ZM113.318 93.3002C113.194 94.0452 112.919 94.7573 112.512 95.3934C112.176 95.845 111.882 96.0706 111.627 96.0701C111.43 96.0797 111.233 96.0486 111.048 95.979C110.868 95.9007 110.715 95.7706 110.609 95.6052C110.503 95.4398 110.449 95.2466 110.454 95.0503C110.454 94.0158 111.469 93.1331 113.5 92.4024L113.318 93.3002ZM142.861 85.1285C142.716 85.8889 142.351 86.5901 141.811 87.1453C141.592 87.3745 141.33 87.5579 141.039 87.6847C140.749 87.8115 140.436 87.8791 140.119 87.8836C139.964 87.8882 139.809 87.8607 139.665 87.8028C139.52 87.7449 139.39 87.6579 139.281 87.5473C139.06 87.28 138.895 86.9714 138.796 86.6395C138.696 86.3077 138.664 85.9593 138.701 85.6149C138.716 82.8184 139.612 80.0976 141.262 77.8385C141.46 77.5712 141.714 77.3499 142.006 77.1896C142.298 77.0293 142.62 76.9339 142.953 76.9098C143.165 76.8783 143.381 76.9034 143.581 76.9825C143.78 77.0615 143.955 77.1918 144.088 77.3601C144.238 77.5787 144.33 77.8326 144.355 78.0971L142.861 85.1285Z" fill="#80171A"/>
<path fill-rule="evenodd" clip-rule="evenodd" d="M99.2556 13.9732C98.9417 15.1618 98.6278 16.3514 98.3138 17.5418C98.4534 18.1274 98.5915 18.7171 98.7311 19.3053C97.8993 22.4465 97.0997 24.738 96.6167 27.2681C96.9697 27.6985 97.4128 28.0466 97.9148 28.2878C98.4168 28.529 98.9656 28.6576 99.5226 28.6644L98.9551 29.1951C98.9655 29.5413 98.9991 29.8865 99.0557 30.2283L99.5642 30.4641L99.2328 30.9747C99.2479 31.5869 99.4637 32.1773 99.8473 32.6551L100.087 32.9057L99.5763 34.0756C99.7179 34.8445 100.104 35.5475 100.676 36.0804L105.226 37.8225C104.806 39.982 104.025 42.0555 102.916 43.956L125.244 46.1631C120.312 42.1643 122.094 37.8385 121.805 32.5412L123.675 29.774C124.388 28.7127 124.106 27.6768 123.564 26.1947C123.843 25.7283 124.293 25.278 124.57 24.813C125.009 24.5421 125.359 24.1492 125.578 23.6824C125.796 23.2156 125.874 22.6953 125.801 22.1852C125.932 21.7242 126.065 21.2645 126.195 20.8022C126.74 19.7074 127.605 19.103 127.319 17.4225C127.019 16.9857 126.902 17.2604 126.602 16.8249C126.851 14.9689 125.779 14.4744 125.315 13.6167C125.768 11.1698 124.647 10.5842 123.238 10.0414C121.842 8.98009 121.21 6.98071 119.043 6.8534C118.231 5.25469 117.736 6.47416 117.131 6.05472C116.136 5.46578 115.035 5.07701 113.89 4.9103C113.388 4.98936 112.884 5.06708 112.383 5.14615C111.83 4.05399 110.861 4.3019 109.747 4.56724C108.97 4.34211 108.215 3.80742 107.386 4.35819C106.685 4.6061 106.087 5.09523 105.388 5.34314C103.881 5.15285 103.342 6.62157 102.667 6.46746C99.8339 7.40283 99.092 9.0203 99.3012 10.95C97.9248 12.4817 97.9096 13.4894 99.2556 13.9732Z" fill="#80171A"/>
<path fill-rule="evenodd" clip-rule="evenodd" d="M128.997 24.7721C128.709 23.6382 128.119 22.6036 127.289 21.7788C126.458 20.9541 125.419 20.3703 124.282 20.0898C125.416 22.7646 127.012 24.4384 128.997 24.7721Z" fill="#FAC934"/>
<path d="M128.997 24.7721C128.709 23.6382 128.119 22.6036 127.289 21.7788C126.458 20.9541 125.419 20.3703 124.282 20.0898C125.416 22.7646 127.012 24.4384 128.997 24.7721Z" stroke="#FAC934" stroke-width="0.288" stroke-miterlimit="10"/>
<path fill-rule="evenodd" clip-rule="evenodd" d="M122.602 23.9115C123.431 24.5788 124.447 24.9718 125.51 25.0359C126.573 25.1 127.629 24.8321 128.533 24.2693C127.652 23.7216 126.648 23.4019 125.613 23.3395C124.577 23.277 123.542 23.4736 122.602 23.9115Z" fill="#FAC934"/>
<path fill-rule="evenodd" clip-rule="evenodd" d="M117.592 22.1442C120.609 24.2334 122.275 23.885 124.205 22.5623C121.572 21.1218 121.39 21.3549 117.592 22.1442Z" fill="#FAC934"/>
<path fill-rule="evenodd" clip-rule="evenodd" d="M112.919 20.2458C115.934 22.3376 117.6 21.9865 119.527 20.6639C116.896 19.2273 116.713 19.4578 112.919 20.2458Z" fill="#FAC934"/>
<path fill-rule="evenodd" clip-rule="evenodd" d="M109.324 17.5227C111.524 19.6185 112.934 19.5448 114.679 18.7059C112.709 17.193 112.533 17.3592 109.324 17.5227Z" fill="#FAC934"/>
<path fill-rule="evenodd" clip-rule="evenodd" d="M105.814 15.3331C108.358 17.37 109.855 17.1596 111.644 16.105C109.402 14.6711 109.226 14.8641 105.814 15.3331Z" fill="#FAC934"/>
<path fill-rule="evenodd" clip-rule="evenodd" d="M102.416 13.2332C104.809 15.1482 106.222 14.9512 107.904 13.9582C105.794 12.6101 105.626 12.791 102.416 13.2332Z" fill="#FAC934"/>
<path fill-rule="evenodd" clip-rule="evenodd" d="M99.5508 9.51562C101.295 12.4075 102.826 12.7425 104.944 12.3566C103.28 10.1575 103.039 10.2835 99.5508 9.51562Z" fill="#FAC934"/>
<path fill-rule="evenodd" clip-rule="evenodd" d="M124.292 22.0766C122.959 18.6635 122.289 18.3258 118.942 17.6973C119.831 18.0819 120.679 21.4093 124.292 22.0766Z" fill="#FAC934"/>
<path fill-rule="evenodd" clip-rule="evenodd" d="M119.265 20.515C118.432 16.945 117.816 16.5135 114.595 15.416C115.424 15.9226 115.78 19.3357 119.265 20.515Z" fill="#FAC934"/>
<path fill-rule="evenodd" clip-rule="evenodd" d="M115.105 18.338C114.276 14.7694 113.659 14.3379 110.436 13.2363C111.264 13.7442 111.621 17.1614 115.105 18.338Z" fill="#FAC934"/>
<path fill-rule="evenodd" clip-rule="evenodd" d="M110.582 15.0568C110.277 11.4038 109.731 10.8905 106.705 9.33203C107.448 9.9565 107.306 13.3884 110.582 15.0568Z" fill="#FAC934"/>
<path fill-rule="evenodd" clip-rule="evenodd" d="M106.904 12.9736C106.617 9.53501 106.102 9.05125 103.251 7.58789C103.953 8.17082 103.821 11.4031 106.904 12.9736Z" fill="#FAC934"/>
</g>
<defs>
<clipPath id="clip0_564_1450">
<rect width="223" height="115" fill="white"/>
</clipPath>
</defs>
</svg>
