<svg width="44" height="50" viewBox="0 0 44 50" fill="none" xmlns="http://www.w3.org/2000/svg">
<path fill-rule="evenodd" clip-rule="evenodd" d="M21.3845 0.00727824C20.2091 0.17581 19.2701 0.577145 18.4424 1.2647C18.0811 1.56473 5.9421 13.514 5.55869 13.947C4.16598 15.5195 3.17945 16.951 2.30784 18.6641C0.962087 21.3089 0.210838 24.0784 0.0212167 27.0937C-0.0182927 27.722 0.000501284 29.5716 0.0518095 30.1037C0.209187 31.7359 0.448705 33.0095 0.864874 34.4269C2.78826 40.9777 7.91361 46.359 14.4494 48.6896C16.3933 49.3827 18.3776 49.7956 20.4989 49.9481C23.1076 50.1358 25.9512 49.8107 28.519 49.0313C35.5451 46.8988 41.1042 41.3441 43.1351 34.4269C43.554 33.0001 43.7898 31.7467 43.9482 30.1037C43.9995 29.5716 44.0183 27.722 43.9788 27.0937C43.7895 24.0842 43.0359 21.3028 41.6976 18.6743C40.8183 16.9474 39.8374 15.5234 38.4413 13.947C38.0579 13.514 25.9189 1.56473 25.5576 1.2647C24.8368 0.665941 23.9833 0.263454 23.0358 0.0755053C22.7711 0.0229776 22.5833 0.00842912 22.0901 0.002173C21.7516 -0.00213545 21.4341 0.000166335 21.3845 0.00727824ZM22.7598 16.3783C22.9052 16.421 23.0944 16.4908 23.1801 16.5333C23.3089 16.597 26.1666 18.2127 28.0795 19.3031C28.3437 19.4538 29.2894 19.991 30.1811 20.4971C31.0728 21.0032 31.8746 21.4721 31.9629 21.539C32.5205 21.9617 32.9132 22.6701 32.9868 23.3859C33.0299 23.8059 33.0299 32.8918 32.9868 33.3052C32.9175 33.9687 32.6241 34.5599 32.1438 35.004C31.9372 35.1949 31.7441 35.3208 31.0968 35.6865C30.8078 35.8497 29.6527 36.5048 28.5299 37.1423C22.7895 40.4014 23.0823 40.2405 22.7055 40.3439C22.5939 40.3745 22.3598 40.3991 22.0901 40.4085C21.7144 40.4216 21.618 40.4151 21.3867 40.3609C21.0216 40.2752 20.869 40.204 20.0185 39.7221C19.614 39.4928 19.0601 39.1791 18.7876 39.0248C15.828 37.3493 12.2616 35.3168 12.1534 35.244C11.5221 34.8195 11.0956 34.0943 11.0132 33.3052C10.9701 32.8918 10.9701 23.8059 11.0132 23.3859C11.0711 22.8226 11.3218 22.2649 11.7045 21.8481C11.9973 21.5292 12.037 21.5037 13.7439 20.5372C14.7346 19.9762 15.3784 19.611 18.1571 18.0337C20.8046 16.5309 20.8761 16.4918 21.1177 16.4141C21.4627 16.3032 21.6474 16.2792 22.0751 16.29C22.421 16.2987 22.5421 16.3143 22.7598 16.3783Z" fill="#5077FC"/>
<path fill-rule="evenodd" clip-rule="evenodd" d="M20.8214 16.5393C21.0003 16.4516 21.209 16.3824 21.4703 16.3242C21.6042 16.2945 21.7889 16.2848 22.0824 16.2922C22.5386 16.3037 22.8643 16.3754 23.1874 16.5355C23.3162 16.5992 26.1739 18.2149 28.0868 19.3053C28.351 19.4559 29.2967 19.9932 30.1884 20.4993C31.0801 21.0054 31.8819 21.4743 31.9702 21.5412C32.5278 21.9639 32.9205 22.6723 32.9941 23.3881C33.0372 23.808 33.0372 32.894 32.9941 33.3074C32.9248 33.9708 32.6314 34.562 32.1511 35.0061C31.9445 35.1971 31.7514 35.323 31.1041 35.6886C30.8151 35.8519 29.66 36.507 28.5372 37.1445C27.4143 37.782 25.7931 38.7022 24.9345 39.1894C24.0758 39.6766 23.2652 40.1251 23.1331 40.186C22.7685 40.354 22.5858 40.3936 22.0974 40.4107C21.7217 40.4238 21.6253 40.4173 21.394 40.3631C21.0289 40.2774 20.8763 40.2061 20.0258 39.7242L18.7949 39.027C15.8353 37.3515 12.2689 35.3189 12.1607 35.2462C11.5294 34.8217 11.1029 34.0965 11.0205 33.3074C10.9774 32.894 10.9774 23.808 11.0205 23.3881C11.0784 22.8248 11.3291 22.2671 11.7118 21.8503C12.0046 21.5314 12.0443 21.5059 13.7512 20.5393C14.7419 19.9784 15.3857 19.6131 18.1644 18.0359C19.5432 17.2533 20.7389 16.5798 20.8214 16.5393ZM22.0063 33.7598C25.0406 33.7598 27.5004 31.342 27.5004 28.3594C27.5004 25.3769 25.0406 22.9591 22.0063 22.9591C18.972 22.9591 16.5123 25.3769 16.5123 28.3594C16.5123 31.342 18.972 33.7598 22.0063 33.7598Z" fill="#A6CEE9"/>
</svg>
