<svg width="72" height="72" viewBox="0 0 72 72" fill="none" xmlns="http://www.w3.org/2000/svg">
<path fill-rule="evenodd" clip-rule="evenodd" d="M17.1133 19.9092C17.9756 20.8174 17.9384 22.2528 17.0302 23.1152C14.2142 25.7889 11.9726 29.0084 10.4422 32.5773C8.91177 36.1461 8.1247 39.9894 8.12898 43.8725C8.13036 45.1249 7.11619 46.1413 5.86377 46.1427C4.61135 46.1441 3.59493 45.1299 3.59355 43.8775C3.58859 39.3781 4.50057 34.925 6.27383 30.7898C8.04709 26.6546 10.6444 22.9241 13.9073 19.8261C14.8156 18.9637 16.2509 19.0009 17.1133 19.9092Z" fill="#227EB7"/>
<path d="M5.86127 48.9375C8.34655 48.9375 10.3613 46.9228 10.3613 44.4375C10.3613 41.9522 8.34655 39.9375 5.86127 39.9375C3.37599 39.9375 1.36127 41.9522 1.36127 44.4375C1.36127 46.9228 3.37599 48.9375 5.86127 48.9375Z" fill="#227EB7"/>
<path d="M36.8504 18.7087C31.8047 18.7087 26.8722 20.2049 22.6768 23.0082C18.4814 25.8115 15.2115 29.7958 13.2806 34.4575C11.3497 39.1192 10.8444 44.2488 11.8288 49.1976C12.8132 54.1464 15.243 58.6921 18.8108 62.26C22.3787 65.8279 26.9245 68.2577 31.8733 69.2421C36.8221 70.2264 41.9517 69.7212 46.6134 67.7903C51.275 65.8594 55.2594 62.5895 58.0627 58.3941C60.866 54.1987 62.3622 49.2662 62.3622 44.2205C62.3622 40.8702 61.7023 37.5528 60.4202 34.4575C59.1382 31.3623 57.259 28.5499 54.89 26.1809C52.521 23.8119 49.7086 21.9327 46.6134 20.6506C43.5181 19.3685 40.2007 18.7087 36.8504 18.7087ZM36.8504 49.3228C35.8413 49.3228 34.8548 49.0236 34.0157 48.4629C33.1766 47.9023 32.5226 47.1054 32.1364 46.1731C31.7503 45.2407 31.6492 44.2148 31.8461 43.225C32.043 42.2353 32.5289 41.3261 33.2425 40.6126C33.9561 39.899 34.8652 39.413 35.855 39.2161C36.8448 39.0193 37.8707 39.1203 38.803 39.5065C39.7353 39.8927 40.5322 40.5467 41.0929 41.3857C41.6535 42.2248 41.9528 43.2113 41.9528 44.2205C41.9528 45.5737 41.4152 46.8715 40.4583 47.8284C39.5014 48.7853 38.2036 49.3228 36.8504 49.3228Z" fill="#227EB7"/>
<path d="M67.0556 5.57438C66.5175 4.40763 65.6547 3.42058 64.5704 2.73128C63.486 2.04198 62.2261 1.67961 60.9413 1.6875H11.8575C10.5715 1.68736 9.31224 2.05457 8.2279 2.74593C7.14355 3.43729 6.27926 4.42402 5.73676 5.58999C5.19426 6.75596 4.99612 8.05263 5.16566 9.3274C5.3352 10.6022 5.86537 11.802 6.69377 12.7856L16.2563 23.8725C18.9372 21.1401 22.1329 18.9658 25.6587 17.4751C29.1846 15.9845 32.9708 15.207 36.7988 15.1875C44.3947 15.2208 51.6856 18.1802 57.1556 23.4506L66.1275 12.7631C66.9567 11.7808 67.4853 10.5803 67.6499 9.30539C67.8145 8.03045 67.6082 6.7351 67.0556 5.57438Z" fill="#227EB7"/>
</svg>
