<svg width="72" height="72" viewBox="0 0 72 72" fill="none" xmlns="http://www.w3.org/2000/svg">
<path fill-rule="evenodd" clip-rule="evenodd" d="M17.1114 19.9092C17.9738 20.8174 17.9366 22.2528 17.0283 23.1151C14.2123 25.7889 11.9707 29.0084 10.4403 32.5772C8.90988 36.1461 8.1228 39.9894 8.12709 43.8725C8.12847 45.1249 7.1143 46.1413 5.86188 46.1427C4.60945 46.1441 3.59304 45.1299 3.59166 43.8775C3.58669 39.3781 4.49867 34.925 6.27194 30.7898C8.0452 26.6546 10.6425 22.9241 13.9054 19.8261C14.8137 18.9637 16.249 19.0009 17.1114 19.9092Z" fill="#CFCFCF"/>
<path d="M5.85937 48.9375C8.34466 48.9375 10.3594 46.9228 10.3594 44.4375C10.3594 41.9522 8.34466 39.9375 5.85937 39.9375C3.37409 39.9375 1.35938 41.9522 1.35938 44.4375C1.35938 46.9228 3.37409 48.9375 5.85937 48.9375Z" fill="#CFCFCF"/>
<path d="M36.8485 18.7087C31.8028 18.7087 26.8703 20.2049 22.6749 23.0082C18.4795 25.8114 15.2096 29.7958 13.2787 34.4575C11.3478 39.1192 10.8425 44.2488 11.8269 49.1976C12.8113 54.1464 15.2411 58.6921 18.809 62.26C22.3768 65.8279 26.9226 68.2577 31.8714 69.2421C36.8202 70.2264 41.9498 69.7212 46.6115 67.7903C51.2731 65.8594 55.2575 62.5895 58.0608 58.3941C60.8641 54.1987 62.3603 49.2662 62.3603 44.2205C62.3603 40.8702 61.7004 37.5527 60.4184 34.4575C59.1363 31.3623 57.2571 28.5499 54.8881 26.1809C52.5191 23.8119 49.7067 21.9327 46.6115 20.6506C43.5162 19.3685 40.1988 18.7087 36.8485 18.7087ZM36.8485 49.3228C35.8394 49.3228 34.8529 49.0236 34.0138 48.4629C33.1747 47.9023 32.5207 47.1054 32.1346 46.173C31.7484 45.2407 31.6473 44.2148 31.8442 43.225C32.0411 42.2353 32.527 41.3261 33.2406 40.6125C33.9542 39.899 34.8633 39.413 35.8531 39.2161C36.8429 39.0193 37.8688 39.1203 38.8011 39.5065C39.7334 39.8927 40.5303 40.5467 41.091 41.3857C41.6516 42.2248 41.9509 43.2113 41.9509 44.2205C41.9509 45.5737 41.4133 46.8715 40.4564 47.8284C39.4996 48.7852 38.2018 49.3228 36.8485 49.3228Z" fill="#CFCFCF"/>
<path d="M67.0537 5.57437C66.5156 4.40762 65.6528 3.42057 64.5685 2.73127C63.4841 2.04197 62.2242 1.6796 60.9394 1.6875H11.8556C10.5696 1.68735 9.31035 2.05457 8.226 2.74593C7.14166 3.43729 6.27737 4.42402 5.73487 5.58998C5.19237 6.75595 4.99423 8.05263 5.16377 9.3274C5.33331 10.6022 5.86348 11.802 6.69187 12.7856L16.2544 23.8725C18.9353 21.1401 22.131 18.9658 25.6569 17.4751C29.1827 15.9844 32.9689 15.2069 36.7969 15.1875C44.3928 15.2207 51.6837 18.1802 57.1537 23.4506L66.1256 12.7631C66.9548 11.7808 67.4834 10.5803 67.648 9.30538C67.8126 8.03045 67.6063 6.73509 67.0537 5.57437Z" fill="#CFCFCF"/>
</svg>
