<svg width="97" height="96" viewBox="0 0 97 96" fill="none" xmlns="http://www.w3.org/2000/svg">
<path d="M39.7422 68.864C39.7422 70.136 40.7793 71.1711 42.0521 71.1711C43.3249 71.1711 44.3637 70.136 44.3637 68.864C44.3637 67.592 43.3265 66.5583 42.0521 66.5583C40.7777 66.5583 39.7438 67.592 39.7438 68.864H39.7422Z" fill="#0F6296"/>
<path d="M80.8096 9.6001H67.3443V33.6001C69.6046 34.3041 71.2557 36.3681 71.2557 38.8481C71.2557 40.3078 70.6747 41.7078 69.6406 42.74C68.6064 43.7722 67.2038 44.3521 65.7413 44.3521C64.2788 44.3521 62.8763 43.7722 61.8421 42.74C60.808 41.7078 60.227 40.3078 60.227 38.8481C60.227 36.3681 61.8781 34.3041 64.1383 33.6001V9.6001H51.4746V27.0081C53.7348 27.7121 55.402 29.7761 55.402 32.2561C55.402 35.2961 52.9173 37.7601 49.8716 37.7601C46.8419 37.7601 44.3572 35.2961 44.3572 32.2561C44.3572 29.7761 46.0244 27.7121 48.2686 27.0081V9.6001H16.6894C13.1628 9.6001 10.2773 12.4641 10.2773 16.0001V27.7921H37.1117C37.9933 27.7921 38.7147 28.5121 38.7147 29.3921V39.3601C40.9749 40.0481 42.626 42.1281 42.626 44.6081C42.626 46.0678 42.045 47.4678 41.0109 48.5C39.9767 49.5322 38.5742 50.1121 37.1117 50.1121C35.6492 50.1121 34.2466 49.5322 33.2124 48.5C32.1783 47.4678 31.5973 46.0678 31.5973 44.6081C31.5973 42.1281 33.2484 40.0481 35.5087 39.3601V30.9921H10.2773V71.1681H22.893V55.3441C22.893 54.4641 23.6144 53.7441 24.496 53.7441H43.6519C44.3412 51.4881 46.4251 49.8401 48.8938 49.8401C51.9395 49.8401 54.4241 52.3041 54.4241 55.3441C54.4241 58.3841 51.9395 60.8481 48.8938 60.8481C46.4251 60.8481 44.3412 59.2001 43.6519 56.9441H26.099V72.7681C26.099 73.6481 25.3777 74.3681 24.496 74.3681H10.2773V80.0001C10.2773 83.5361 13.1628 86.4001 16.6894 86.4001H52.1959V70.4641H47.3068C46.9275 71.7295 46.104 72.8161 44.9872 73.5246C43.8704 74.2332 42.5352 74.5162 41.2263 74.3218C39.9174 74.1274 38.7225 73.4686 37.8608 72.4662C36.9991 71.4638 36.5282 70.1849 36.5346 68.8641C36.5282 67.5433 36.9991 66.2644 37.8608 65.262C38.7225 64.2596 39.9174 63.6008 41.2263 63.4064C42.5352 63.212 43.8704 63.495 44.9872 64.2036C46.104 64.9121 46.9275 65.9987 47.3068 67.2641H53.799C54.6806 67.2641 55.402 67.9841 55.402 68.8641V86.4001H80.8096C84.3522 86.4001 87.2216 83.5361 87.2216 80.0001V65.1201H61.83C60.9484 65.1201 60.227 64.4001 60.227 63.5201V58.2721C57.9668 57.5841 56.3157 55.5201 56.3157 53.0401C56.3157 51.5803 56.8966 50.1804 57.9308 49.1482C58.9649 48.116 60.3675 47.5361 61.83 47.5361C63.2925 47.5361 64.6951 48.116 65.7292 49.1482C66.7634 50.1804 67.3443 51.5803 67.3443 53.0401C67.3443 55.5201 65.6933 57.5841 63.433 58.2721V61.9201H87.2216V16.0001C87.2216 12.4641 84.3522 9.6001 80.8096 9.6001Z" fill="#0F6296"/>
<path d="M63.4314 38.848C63.4585 39.4415 63.7138 40.0017 64.1442 40.4122C64.5746 40.8226 65.1469 41.0516 65.7421 41.0516C66.3373 41.0516 66.9096 40.8226 67.34 40.4122C67.7704 40.0017 68.0257 39.4415 68.0528 38.848C68.0528 37.576 67.0157 36.5408 65.7413 36.5408C64.4669 36.5408 63.4314 37.576 63.4314 38.848ZM47.568 32.256C47.568 33.5296 48.6052 34.5648 49.8796 34.5648C51.1539 34.5648 52.1911 33.5296 52.1911 32.2576C52.1911 30.9856 51.1539 29.9504 49.8796 29.9504C48.6052 29.9504 47.568 30.9856 47.568 32.2576V32.256ZM51.2117 55.344C51.2117 54.0704 50.1761 53.0352 48.9017 53.0352C47.6273 53.0352 46.5902 54.0704 46.5902 55.3424C46.5902 56.6144 47.6273 57.6496 48.9017 57.6496C50.1761 57.6496 51.2117 56.6144 51.2117 55.3424V55.344ZM64.1383 53.0352C64.1383 51.7648 63.1028 50.7296 61.8284 50.7296C60.554 50.7296 59.5168 51.7648 59.5168 53.0352C59.5168 54.3056 60.554 55.3424 61.8284 55.3424C63.1028 55.3424 64.1383 54.3072 64.1383 53.0352ZM34.7969 44.6048C34.7969 45.8768 35.834 46.912 37.1068 46.912C38.3796 46.912 39.4183 45.8768 39.4183 44.6048C39.3912 44.0113 39.1359 43.4511 38.7055 43.0407C38.2752 42.6303 37.7028 42.4013 37.1076 42.4013C36.5124 42.4013 35.9401 42.6303 35.5097 43.0407C35.0793 43.4511 34.824 44.0113 34.7969 44.6048Z" fill="#0F6296"/>
</svg>
