<svg width="97" height="96" viewBox="0 0 97 96" fill="none" xmlns="http://www.w3.org/2000/svg">
<path d="M94.1363 90.322H61.2087C63.2802 89.3982 65.2482 88.2587 67.0799 86.9224V78.6735C67.0799 71.77 55.0461 67.9483 48.1451 67.9483C41.206 67.9483 29.1948 71.7799 29.1948 78.6735V86.9182C31.0317 88.2561 33.0049 89.397 35.0816 90.322H3.61364C3.23851 90.322 2.87875 90.4707 2.61349 90.7355C2.34824 91.0002 2.19922 91.3593 2.19922 91.7337C2.19922 92.1082 2.34824 92.4672 2.61349 92.732C2.87875 92.9968 3.23851 93.1455 3.61364 93.1455H94.1363C94.5114 93.1455 94.8712 92.9968 95.1364 92.732C95.4017 92.4672 95.5507 92.1082 95.5507 91.7337C95.5507 91.3593 95.4017 91.0002 95.1364 90.7355C94.8712 90.4707 94.5114 90.322 94.1363 90.322ZM69.36 23.9027L68.5113 28.745C68.4767 28.9482 68.487 29.1565 68.5414 29.3553C68.5959 29.5541 68.6932 29.7386 68.8266 29.896C68.96 30.0533 69.1262 30.1796 69.3136 30.2661C69.501 30.3527 69.7051 30.3972 69.9116 30.3968C70.1379 30.3968 70.3642 30.3544 70.5622 30.2415L74.9328 27.9544L79.3033 30.2415C79.7701 30.4956 80.35 30.4533 80.7885 30.1286C81.2269 29.818 81.4391 29.2815 81.3542 28.745L80.5197 23.9027L84.0416 20.4721C84.4376 20.0909 84.5649 19.5403 84.4094 19.018C84.2396 18.5097 83.8012 18.1427 83.2637 18.058L78.3839 17.3521L76.2057 12.9474C76.0899 12.7092 75.9089 12.5085 75.6836 12.3686C75.4584 12.2287 75.1981 12.1553 74.9328 12.1568C74.3953 12.1568 73.9002 12.4533 73.6598 12.9474L71.4816 17.3521L66.6019 18.058C66.3417 18.0989 66.098 18.211 65.8979 18.3819C65.6978 18.5528 65.5492 18.7758 65.4685 19.0261C65.3879 19.2763 65.3784 19.544 65.4412 19.7993C65.5039 20.0546 65.6364 20.2875 65.8239 20.4721L69.36 23.9027ZM40.9726 18.538L39.7421 25.6674C39.6572 26.1897 39.8694 26.7262 40.3078 27.0368C40.5483 27.2203 40.8453 27.3192 41.1424 27.3192C41.3687 27.3192 41.595 27.2627 41.793 27.1497L48.2003 23.7897L54.6076 27.1497C55.0885 27.4039 55.6684 27.3615 56.1069 27.0368C56.5312 26.7262 56.7575 26.1897 56.6585 25.6674L55.428 18.538L60.6189 13.498C61.0008 13.1309 61.1422 12.5662 60.9725 12.058C60.8939 11.8077 60.746 11.5846 60.5457 11.4148C60.3455 11.2449 60.1011 11.135 59.8409 11.098L52.6698 10.0533L49.4733 3.57327C48.9924 2.61327 47.4082 2.61327 46.9415 3.57327L43.7307 10.0533L36.5738 11.098C36.0363 11.1686 35.5978 11.5497 35.4281 12.058C35.2584 12.5662 35.3998 13.1309 35.7959 13.498L40.9726 18.538ZM17.168 23.9027L16.3335 28.745C16.2486 29.2815 16.4608 29.818 16.8993 30.1286C17.3377 30.4533 17.9176 30.4956 18.3844 30.2415L22.7549 27.9544L27.1255 30.2415C27.3235 30.3544 27.5498 30.3968 27.7761 30.3968C27.9826 30.3972 28.1867 30.3527 28.3741 30.2661C28.5615 30.1796 28.7277 30.0533 28.8611 29.896C28.9945 29.7386 29.0918 29.5541 29.1463 29.3553C29.2007 29.1565 29.211 28.9482 29.1764 28.745L28.3277 23.9027L31.8638 20.4721C32.0513 20.2875 32.1838 20.0546 32.2465 19.7993C32.3093 19.544 32.2998 19.2763 32.2192 19.0261C32.1385 18.7758 31.9899 18.5528 31.7898 18.3819C31.5897 18.211 31.346 18.0989 31.0859 18.058L26.2061 17.3521L24.0279 12.9474C23.547 11.9733 21.9629 11.9733 21.482 12.9474L19.3038 17.3521L14.424 18.058C13.9007 18.1427 13.4481 18.5097 13.2783 19.018C13.1228 19.5403 13.2501 20.0909 13.6461 20.4721L17.168 23.9027ZM48.1366 42.8669C43.4224 42.8669 39.5893 46.6942 39.5893 51.3996C39.5893 56.105 43.4224 59.9323 48.1366 59.9323C52.8509 59.9323 56.6854 56.1064 56.6854 51.3996C56.6854 46.6928 52.8523 42.8669 48.1366 42.8669Z" fill="#0F6296"/>
<path d="M70.4761 84.1002C76.8126 77.9731 80.2638 69.799 80.1789 61.0884C80.0234 45.3472 68.0008 29.0696 48.1424 29.0696C30.4339 29.0696 16.0352 43.4413 16.0352 61.1166C16.0352 69.8696 19.5005 78.0296 25.7946 84.1002C25.9785 84.2766 26.1779 84.4291 26.3646 84.5999V78.6733C26.3646 69.8922 39.3334 65.1246 48.1438 65.1246C56.9175 65.1246 69.9075 69.8823 69.9075 78.6733V84.6013C70.0942 84.4291 70.2936 84.2766 70.4761 84.1002ZM48.1353 62.7557C41.8624 62.7557 36.7592 57.6621 36.7592 51.3995C36.7592 45.1369 41.8624 40.0432 48.1353 40.0432C54.4097 40.0432 59.5129 45.1383 59.5129 51.3995C59.5129 57.6606 54.4097 62.7557 48.1353 62.7557Z" fill="#0F6296"/>
</svg>
