<svg width="72" height="72" viewBox="0 0 72 72" fill="none" xmlns="http://www.w3.org/2000/svg">
<path d="M9.92728 51.3818H62.0727V11.2364H9.92728V51.3818V51.3818ZM29.3455 21.4909C29.5636 21.1636 30 20.9455 30.3273 21.0545C30.6545 21.0545 30.9818 21.2727 31.0909 21.4909C31.8545 18.8727 33.9273 15.4909 39.4909 14.2909C39.9273 14.1818 40.4727 14.4 40.6909 14.9455C41.4545 16.5818 37.4182 17.1273 39.6 22.9091C40.0364 21.6 40.9091 20.4 42.4364 20.1818C42.7636 20.1818 43.0909 20.1818 43.3091 20.4C43.5273 20.6182 43.6364 20.9455 43.6364 21.1636C43.6364 21.1636 43.7455 26.2909 44.0727 28.3636C44.6182 31.5273 42.6545 35.5636 37.2 36.5455C28.5818 38.1818 25.2 27.8182 29.3455 21.4909V21.4909ZM21.2727 39.7091H50.8364C52.3636 39.7091 53.6727 40.9091 53.6727 42.5455C53.6727 44.1818 52.4727 45.3818 50.8364 45.3818H21.2727C19.7455 45.3818 18.4364 44.1818 18.4364 42.5455C18.4364 40.9091 19.6364 39.7091 21.2727 39.7091ZM56.4 1.09091H15.6C12.4364 1.09091 9.92728 3.6 9.92728 6.76364V8.94546H62.0727V6.76364C62.0727 3.6 59.5636 1.09091 56.4 1.09091V1.09091ZM9.92728 60.3273C9.92728 63.4909 12.4364 66 15.6 66H16.2545V69.8182C16.2545 70.3636 16.8 70.9091 17.3455 70.9091H24C24.5455 70.9091 25.0909 70.3636 25.0909 69.8182V66H46.9091V69.8182C46.9091 70.3636 47.3455 70.9091 48 70.9091H54.6545C55.3091 70.9091 55.7455 70.3636 55.7455 69.8182V66H56.4C59.5636 66 62.0727 63.4909 62.0727 60.3273V53.5636H9.92728V60.3273ZM36 55.8546C37.5273 55.8546 38.8364 57.1636 38.8364 58.6909C38.8364 60.2182 37.5273 61.5273 36 61.5273C34.4727 61.5273 33.1636 60.2182 33.1636 58.6909C33.1636 57.1636 34.4727 55.8546 36 55.8546Z" fill="#227EB7"/>
</svg>
