<svg width="72" height="72" viewBox="0 0 72 72" fill="none" xmlns="http://www.w3.org/2000/svg">
<path d="M9.92578 51.3818H62.0712V11.2364H9.92578V51.3818ZM29.344 21.4909C29.5621 21.1636 29.9985 20.9455 30.3258 21.0545C30.6531 21.0545 30.9803 21.2727 31.0894 21.4909C31.8531 18.8727 33.9258 15.4909 39.4894 14.2909C39.9258 14.1818 40.4712 14.4 40.6894 14.9455C41.4531 16.5818 37.4167 17.1273 39.5985 22.9091C40.0349 21.6 40.9076 20.4 42.4349 20.1818C42.7621 20.1818 43.0894 20.1818 43.3076 20.4C43.5258 20.6182 43.6349 20.9455 43.6349 21.1636C43.6349 21.1636 43.744 26.2909 44.0712 28.3636C44.6167 31.5273 42.653 35.5636 37.1985 36.5455C28.5803 38.1818 25.1985 27.8182 29.344 21.4909ZM21.2712 39.7091H50.8349C52.3621 39.7091 53.6712 40.9091 53.6712 42.5455C53.6712 44.1818 52.4712 45.3818 50.8349 45.3818H21.2712C19.744 45.3818 18.4349 44.1818 18.4349 42.5455C18.4349 40.9091 19.6349 39.7091 21.2712 39.7091ZM56.3985 1.09091H15.5985C12.4349 1.09091 9.92578 3.6 9.92578 6.76364V8.94546H62.0712V6.76364C62.0712 3.6 59.5621 1.09091 56.3985 1.09091ZM9.92578 60.3273C9.92578 63.4909 12.4349 66 15.5985 66H16.2531V69.8182C16.2531 70.3636 16.7985 70.9091 17.344 70.9091H23.9985C24.544 70.9091 25.0894 70.3636 25.0894 69.8182V66H46.9076V69.8182C46.9076 70.3636 47.344 70.9091 47.9985 70.9091H54.653C55.3076 70.9091 55.744 70.3636 55.744 69.8182V66H56.3985C59.5621 66 62.0712 63.4909 62.0712 60.3273V53.5636H9.92578V60.3273ZM35.9985 55.8545C37.5258 55.8545 38.8349 57.1636 38.8349 58.6909C38.8349 60.2182 37.5258 61.5273 35.9985 61.5273C34.4712 61.5273 33.1621 60.2182 33.1621 58.6909C33.1621 57.1636 34.4712 55.8545 35.9985 55.8545Z" fill="#CFCFCF"/>
</svg>
