<svg width="97" height="96" viewBox="0 0 97 96" fill="none" xmlns="http://www.w3.org/2000/svg">
<path d="M78.9329 51.6456C78.2115 56.7815 76.3897 61.7014 73.5919 66.0692C70.7941 70.437 67.0862 74.1497 62.7215 76.954L48.0377 86.459C47.1098 87.057 46.0292 87.375 44.9252 87.375C43.8212 87.375 42.7406 87.057 41.8128 86.459L27.129 76.954C22.0342 73.6758 17.846 69.1696 14.9497 63.8498C12.0535 58.5301 10.5421 52.5678 10.5548 46.5113V24.6957C10.553 23.3246 11.0434 21.9984 11.9369 20.9582C12.8305 19.9179 14.0678 19.2327 15.4239 19.027C20.0511 18.3773 24.6 17.2581 29.0002 15.6869C33.5182 14.0713 37.8568 11.9926 41.9465 9.48388C42.8386 8.92273 43.8712 8.625 44.9252 8.625C45.9793 8.625 47.0119 8.92273 47.904 9.48388C51.3477 11.5978 54.9705 13.4053 58.7307 14.8853C54.1315 17.7062 50.7948 22.1881 49.4125 27.4018C48.0302 32.6155 48.7084 38.161 51.3064 42.8884C53.9044 47.6157 58.2229 51.1623 63.3665 52.7928C68.5101 54.4232 74.0842 54.0124 78.9329 51.6456Z" fill="#0F6296"/>
<path d="M69.5409 15.375C66.0485 15.375 62.6345 16.4087 59.7306 18.3453C56.8267 20.282 54.5635 23.0347 53.227 26.2552C51.8905 29.4757 51.5408 33.0195 52.2221 36.4385C52.9035 39.8574 54.5852 42.9978 57.0548 45.4627C59.5243 47.9276 62.6707 49.6063 66.096 50.2863C69.5213 50.9664 73.0718 50.6174 76.2984 49.2834C79.525 47.9494 82.2828 45.6903 84.2231 42.7919C86.1634 39.8935 87.199 36.4859 87.199 33C87.1938 28.3271 85.3318 23.8472 82.0214 20.543C78.7109 17.2388 74.2225 15.3802 69.5409 15.375ZM75.2308 35.8337C75.1157 36.0639 74.9562 36.2693 74.7616 36.438C74.567 36.6067 74.3409 36.7355 74.0964 36.817C73.8519 36.8985 73.5937 36.931 73.3365 36.9129C73.0794 36.8947 72.8283 36.8261 72.5977 36.711L68.6737 34.7527C68.3457 34.5914 68.0694 34.3418 67.876 34.0321C67.6825 33.7224 67.5796 33.3649 67.5789 33V27.125C67.5789 26.6056 67.7856 26.1075 68.1536 25.7402C68.5215 25.373 69.0206 25.1667 69.5409 25.1667C70.0613 25.1667 70.5603 25.373 70.9283 25.7402C71.2962 26.1075 71.5029 26.6056 71.5029 27.125V31.7897L74.342 33.2056C74.5735 33.3196 74.7802 33.4781 74.9502 33.672C75.1203 33.8659 75.2503 34.0914 75.3329 34.3355C75.4154 34.5797 75.4489 34.8377 75.4314 35.0948C75.4139 35.3519 75.3457 35.603 75.2308 35.8337Z" fill="#0F6296"/>
</svg>
