<svg width="97" height="96" viewBox="0 0 97 96" fill="none" xmlns="http://www.w3.org/2000/svg">
<path d="M73.5047 64C74.5247 65.1636 74.8162 66.9091 74.0876 68.3636C73.7961 68.8 73.6504 69.0909 73.2132 69.2364C71.9016 69.9636 68.8414 68.9454 67.6755 67.3455L63.8866 61.8182C63.4494 61.2364 62.5751 60.9455 61.8464 61.3818C61.1178 61.8182 60.9721 62.6909 61.4092 63.4182L64.761 68.2182C65.6354 69.3818 65.9268 70.8364 65.3439 72.2909C65.0524 72.8727 64.761 73.3091 64.3238 73.4545C62.8665 74.0364 60.0977 72.2909 59.0776 71.4182H58.9319L54.56 65.0182C54.1229 64.2909 53.2485 64.1455 52.5199 64.5818C51.9369 65.0182 51.6455 65.8909 52.0827 66.6182L55.7259 71.8545C56.4545 72.8727 56.4545 74.3273 55.7259 75.2C54.56 76.8 50.7711 75.0545 49.751 73.7455L45.6706 67.7818C45.2335 67.0545 44.3591 66.9091 43.6305 67.3455C42.9018 67.7818 42.7561 68.6545 43.1933 69.3818L47.5651 75.6364C47.5651 76.5091 47.4194 77.5273 46.6907 77.9636C45.8164 78.4 44.2134 77.9636 43.4847 77.5273H43.339C40.7159 76.5091 30.0778 68.3636 23.52 63.1273C21.7713 61.2364 18.8567 60.2182 17.108 59.7818V31.5636L19.2939 32.2909C18.711 33.1636 18.4196 34.0364 18.4196 34.7636C18.2738 38.2545 22.2085 41.3091 22.6457 41.7455C33.5752 48.4364 45.8164 36.8 46.545 36.2182C47.4194 35.3455 48.148 35.3455 48.5852 35.3455L73.5047 64ZM93.3236 25.8909V67.4909C93.3236 68.5091 92.595 69.2364 91.5749 69.2364H83.2684V24H91.5749C92.595 24 93.3236 24.8727 93.3236 25.8909ZM6.17842 24H14.4849V69.2364H6.17842C5.15833 69.2364 4.42969 68.5091 4.42969 67.4909V25.8909C4.42969 24.8727 5.15833 24 6.17842 24Z" fill="#0F6296"/>
<path d="M59.803 21.5274C63.5919 24.5819 76.2702 27.9274 80.3506 28.8001V59.2001C78.7476 59.0546 76.5617 59.0546 75.1044 60.0728C74.9587 60.2183 74.6672 60.3637 74.5215 60.6546L50.9136 33.1637C50.7678 33.0183 50.6221 32.8728 50.3307 32.7274C49.3106 32.291 46.6875 31.8546 44.6473 34.1819C44.5016 34.3274 33.4262 44.8001 24.5368 39.2728C23.8082 38.691 21.4766 36.5092 21.4766 34.7637C21.4766 34.4728 21.4766 33.7456 22.9338 32.8728L23.0796 32.7274H23.2253L39.8383 19.2001C44.9387 15.5637 55.8683 19.491 59.803 21.5274Z" fill="#0F6296"/>
</svg>
