<svg width="97" height="96" viewBox="0 0 97 96" fill="none" xmlns="http://www.w3.org/2000/svg">
<path d="M88.853 37.665L49.0885 4.84495C48.8795 4.66457 48.6247 4.5452 48.3521 4.49995C48.1421 4.46808 47.9277 4.48101 47.723 4.5379C47.5184 4.59478 47.3282 4.69432 47.1649 4.82995L23.9313 24V21.705H13.8624V32.325L7.40032 37.665C6.54473 38.3709 5.91708 39.3134 5.59614 40.3741C5.27519 41.4348 5.27525 42.5665 5.59629 43.6271C5.91734 44.6878 6.54507 45.6302 7.40073 46.3361C8.25639 47.042 9.30186 47.4799 10.406 47.595C11.8914 47.734 13.3716 47.2811 14.5237 46.335L16.823 44.445L46.4585 20.025C46.925 19.6316 47.516 19.4158 48.1267 19.4158C48.7374 19.4158 49.3283 19.6316 49.7948 20.025L81.6696 46.335L81.8499 46.47C82.7166 47.1387 83.7627 47.5355 84.8555 47.61H85.2463H85.7873C86.5252 47.5441 87.2427 47.3325 87.898 46.9874C88.5533 46.6424 89.1334 46.1707 89.6044 45.6C90.5533 44.4487 91.0069 42.9693 90.8661 41.4852C90.7253 40.0011 90.0015 38.633 88.853 37.68V37.665Z" fill="#0F6296"/>
<path d="M25.7043 9H12.0888C11.2588 9 10.5859 9.67157 10.5859 10.5V17.205C10.5859 18.0334 11.2588 18.705 12.0888 18.705H25.7043C26.5343 18.705 27.2071 18.0334 27.2071 17.205V10.5C27.2071 9.67157 26.5343 9 25.7043 9Z" fill="#0F6296"/>
<path d="M55.9258 88.5V91.5H69.8719V88.5V66.345H55.9258V88.5Z" fill="#0F6296"/>
<path d="M80.0318 48.855L79.6861 48.645L48.1269 22.5L18.7919 46.755L16.4926 48.645C16.1345 48.9409 15.7525 49.2068 15.3505 49.44C14.8742 49.7162 14.3706 49.9424 13.8477 50.115V90C13.8477 90.3978 14.006 90.7794 14.2878 91.0607C14.5697 91.342 14.9519 91.5 15.3505 91.5H52.9209V64.845C52.9209 64.4472 53.0793 64.0656 53.3611 63.7843C53.6429 63.503 54.0252 63.345 54.4237 63.345H71.3755C71.7741 63.345 72.1563 63.503 72.4382 63.7843C72.72 64.0656 72.8783 64.4472 72.8783 64.845V91.5H83.3981C83.7966 91.5 84.1789 91.342 84.4607 91.0607C84.7426 90.7794 84.9009 90.3978 84.9009 90V50.61H84.6454C82.9685 50.4888 81.3642 49.8785 80.0318 48.855Z" fill="#0F6296"/>
</svg>
