<svg width="97" height="96" viewBox="0 0 97 96" fill="none" xmlns="http://www.w3.org/2000/svg">
<path d="M25.7098 37.4999C25.9873 37.499 26.2591 37.4215 26.4952 37.2759C26.7313 37.1303 26.9224 36.9223 27.0473 36.6749L33.0585 24.6749C33.2368 24.3206 33.2673 23.9103 33.1434 23.5337C33.0195 23.1571 32.7513 22.8447 32.3973 22.6649L28.3397 20.6099L25.5294 19.1999L20.2395 16.4999C19.9575 16.3557 19.6371 16.3042 19.324 16.3527C19.0109 16.4012 18.7212 16.5472 18.4962 16.7699C11.4838 23.7767 7.1777 33.0316 6.33844 42.8999C6.33844 43.4549 6.24827 43.9949 6.23324 44.4899C6.21821 44.9849 6.23324 45.8399 6.23324 46.4849C6.13735 54.7478 8.45381 62.8599 12.8998 69.8307C17.3458 76.8016 23.7291 82.3296 31.2702 85.7399L37.1161 88.3649C37.3097 88.4529 37.5197 88.4989 37.7323 88.4999C38.0214 88.4993 38.3042 88.4155 38.5467 88.2585C38.7893 88.1015 38.9813 87.8781 39.0999 87.6149L42.1055 80.9549L43.3528 78.1649L45.1562 74.1149C45.3138 73.7634 45.3299 73.3649 45.2012 73.0019C45.0725 72.6389 44.8089 72.3392 44.4649 72.1649L32.4424 66.1649C32.1815 66.0324 31.8874 65.9788 31.5964 66.0108C31.3054 66.0428 31.0301 66.1589 30.8043 66.3449L27.7987 68.8349C21.6188 62.4356 18.175 53.888 18.1957 44.9999C18.1891 42.4769 18.4663 39.9611 19.0222 37.4999H25.7098Z" fill="#0F6296"/>
<path d="M52.7584 7.5C43.5634 7.49658 34.6888 10.8711 27.8267 16.98L29.6902 17.925L30.7271 18.45L33.7328 19.95C34.7842 20.4921 35.5799 21.4251 35.9482 22.5476C36.3165 23.6701 36.2279 24.8921 35.7015 25.95L29.6902 37.95C29.3283 38.7016 28.7643 39.3381 28.061 39.7884C27.3578 40.2386 26.5431 40.485 25.7077 40.5H21.5149C21.303 41.9907 21.1976 43.4944 21.1993 45C21.1862 52.1435 23.6201 59.0768 28.0972 64.65L28.8336 64.035C29.5094 63.4746 30.3346 63.1235 31.2076 63.0249C32.0807 62.9263 32.9636 63.0845 33.7478 63.48L45.7703 69.48C46.8113 69.9979 47.6114 70.8974 48.0035 71.9904C48.3956 73.0834 48.3493 74.2853 47.8743 75.345L46.3715 78.87L45.1091 81.705C47.6254 82.2276 50.1883 82.4939 52.7584 82.5C62.7227 82.5 72.2789 78.5491 79.3248 71.5165C86.3706 64.4839 90.3289 54.9456 90.3289 45C90.3289 35.0544 86.3706 25.5161 79.3248 18.4835C72.2789 11.4509 62.7227 7.5 52.7584 7.5ZM52.7584 13.5C53.0557 13.5 53.3462 13.588 53.5934 13.7528C53.8405 13.9176 54.0331 14.1519 54.1469 14.426C54.2606 14.7001 54.2904 15.0017 54.2324 15.2926C54.1744 15.5836 54.0313 15.8509 53.8211 16.0607C53.6109 16.2704 53.3431 16.4133 53.0516 16.4712C52.7601 16.5291 52.4579 16.4994 52.1833 16.3858C51.9087 16.2723 51.674 16.08 51.5089 15.8334C51.3438 15.5867 51.2556 15.2967 51.2556 15C51.2556 14.6022 51.414 14.2206 51.6958 13.9393C51.9776 13.658 52.3599 13.5 52.7584 13.5ZM36.4228 19.77C36.2758 19.5127 36.2085 19.2176 36.2292 18.9221C36.25 18.6266 36.3579 18.3439 36.5395 18.1095C36.721 17.8752 36.968 17.6997 37.2493 17.6053C37.5306 17.5109 37.8337 17.5017 38.1202 17.579C38.4067 17.6562 38.6639 17.8164 38.8593 18.0393C39.0548 18.2622 39.1797 18.538 39.2184 18.8317C39.257 19.1254 39.2077 19.4239 39.0766 19.6897C38.9455 19.9554 38.7385 20.1765 38.4817 20.325C38.3102 20.4242 38.1207 20.4885 37.9241 20.5143C37.7276 20.5401 37.5279 20.5268 37.3365 20.4752C37.1452 20.4236 36.9659 20.3347 36.8091 20.2137C36.6523 20.0927 36.521 19.9419 36.4228 19.77ZM49.7528 43.5C49.7528 45.0913 49.1195 46.6174 47.9921 47.7426C46.8648 48.8679 45.3358 49.5 43.7415 49.5C42.9444 49.5 42.1799 49.8161 41.6162 50.3787C41.0526 50.9413 40.7359 51.7044 40.7359 52.5H48.25C48.6486 52.5 49.0308 52.658 49.3126 52.9393C49.5945 53.2206 49.7528 53.6022 49.7528 54C49.7528 54.3978 49.5945 54.7794 49.3126 55.0607C49.0308 55.342 48.6486 55.5 48.25 55.5H39.2331C38.8345 55.5 38.4523 55.342 38.1704 55.0607C37.8886 54.7794 37.7303 54.3978 37.7303 54V52.5C37.7303 50.9087 38.3636 49.3826 39.4909 48.2574C40.6183 47.1321 42.1472 46.5 43.7415 46.5C44.5387 46.5 45.3032 46.1839 45.8668 45.6213C46.4305 45.0587 46.7472 44.2957 46.7472 43.5V40.5C46.7472 39.7044 46.4305 38.9413 45.8668 38.3787C45.3032 37.8161 44.5387 37.5 43.7415 37.5C42.9444 37.5 42.1799 37.8161 41.6162 38.3787C41.0526 38.9413 40.7359 39.7044 40.7359 40.5V42C40.7359 42.3978 40.5776 42.7794 40.2957 43.0607C40.0139 43.342 39.6317 43.5 39.2331 43.5C38.8345 43.5 38.4523 43.342 38.1704 43.0607C37.8886 42.7794 37.7303 42.3978 37.7303 42V40.5C37.7303 38.9087 38.3636 37.3826 39.4909 36.2574C40.6183 35.1321 42.1472 34.5 43.7415 34.5C45.3358 34.5 46.8648 35.1321 47.9921 36.2574C49.1195 37.3826 49.7528 38.9087 49.7528 40.5V43.5ZM52.7584 76.5C52.4612 76.5 52.1707 76.412 51.9235 76.2472C51.6764 76.0824 51.4838 75.8481 51.37 75.574C51.2563 75.2999 51.2265 74.9983 51.2845 74.7074C51.3425 74.4164 51.4856 74.1491 51.6958 73.9393C51.906 73.7296 52.1737 73.5867 52.4653 73.5288C52.7568 73.4709 53.0589 73.5006 53.3335 73.6142C53.6082 73.7277 53.8429 73.92 54.008 74.1666C54.1731 74.4133 54.2613 74.7033 54.2613 75C54.2613 75.3978 54.1029 75.7794 53.8211 76.0607C53.5393 76.342 53.157 76.5 52.7584 76.5ZM66.2838 54C66.2838 54.3978 66.1255 54.7794 65.8436 55.0607C65.5618 55.342 65.1796 55.5 64.781 55.5C64.3824 55.5 64.0002 55.342 63.7183 55.0607C63.4365 54.7794 63.2782 54.3978 63.2782 54V49.5H54.2613C54.0051 49.4992 53.7534 49.4331 53.53 49.3079C53.3066 49.1827 53.119 49.0026 52.985 48.7847C52.851 48.5668 52.775 48.3183 52.7643 48.0628C52.7536 47.8073 52.8085 47.5533 52.9238 47.325L58.935 35.325C59.019 35.1425 59.1389 34.9786 59.2876 34.8432C59.4362 34.7078 59.6106 34.6035 59.8003 34.5367C59.9901 34.4698 60.1914 34.4416 60.3923 34.4539C60.5932 34.4661 60.7895 34.5185 60.9697 34.608C61.1499 34.6974 61.3103 34.822 61.4413 34.9745C61.5724 35.127 61.6714 35.3042 61.7325 35.4956C61.7936 35.6869 61.8156 35.8886 61.7971 36.0887C61.7787 36.2887 61.7202 36.483 61.6251 36.66L56.6958 46.5H63.2782V42C63.2782 41.6022 63.4365 41.2206 63.7183 40.9393C64.0002 40.658 64.3824 40.5 64.781 40.5C65.1796 40.5 65.5618 40.658 65.8436 40.9393C66.1255 41.2206 66.2838 41.6022 66.2838 42V46.5C66.6824 46.5 67.0646 46.658 67.3465 46.9393C67.6283 47.2206 67.7866 47.6022 67.7866 48C67.7866 48.3978 67.6283 48.7794 67.3465 49.0607C67.0646 49.342 66.6824 49.5 66.2838 49.5V54ZM68.538 72.285C68.2802 72.4317 67.9846 72.499 67.6886 72.4782C67.3925 72.4575 67.1092 72.3498 66.8744 72.1685C66.6396 71.9873 66.4639 71.7408 66.3693 71.46C66.2747 71.1792 66.2655 70.8768 66.3429 70.5908C66.4202 70.3048 66.5807 70.0481 66.8041 69.853C67.0274 69.658 67.3037 69.5333 67.5979 69.4947C67.8922 69.4561 68.1913 69.5053 68.4576 69.6362C68.7238 69.7671 68.9453 69.9737 69.0941 70.23C69.1934 70.4012 69.2579 70.5903 69.2837 70.7865C69.3095 70.9827 69.2962 71.182 69.2445 71.373C69.1929 71.564 69.1038 71.7429 68.9826 71.8995C68.8613 72.056 68.7102 72.187 68.538 72.285ZM69.0941 19.785C68.9453 20.0413 68.7238 20.2479 68.4576 20.3788C68.1913 20.5097 67.8922 20.5589 67.5979 20.5203C67.3037 20.4817 67.0274 20.357 66.8041 20.162C66.5807 19.9669 66.4202 19.7102 66.3429 19.4242C66.2655 19.1382 66.2747 18.8358 66.3693 18.555C66.4639 18.2742 66.6396 18.0277 66.8744 17.8465C67.1092 17.6653 67.3925 17.5575 67.6886 17.5368C67.9846 17.516 68.2802 17.5833 68.538 17.73C68.8818 17.9279 69.1332 18.2534 69.2373 18.6356C69.3415 19.0178 69.29 19.4256 69.0941 19.77V19.785ZM80.0947 60.75C79.9459 61.0063 79.7244 61.2129 79.4582 61.3438C79.1919 61.4747 78.8928 61.5239 78.5986 61.4853C78.3043 61.4467 78.0281 61.322 77.8047 61.127C77.5814 60.9319 77.4209 60.6752 77.3435 60.3892C77.2661 60.1032 77.2753 59.8008 77.3699 59.52C77.4645 59.2392 77.6403 58.9927 77.8751 58.8115C78.1098 58.6302 78.3931 58.5225 78.6892 58.5018C78.9852 58.481 79.2808 58.5483 79.5387 58.695C79.7109 58.793 79.8619 58.924 79.9832 59.0805C80.1044 59.2371 80.1935 59.416 80.2452 59.607C80.2968 59.798 80.3102 59.9973 80.2843 60.1935C80.2585 60.3897 80.1941 60.5788 80.0947 60.75ZM82.8148 43.5C83.112 43.5 83.4026 43.588 83.6497 43.7528C83.8969 43.9176 84.0895 44.1519 84.2032 44.426C84.317 44.7001 84.3467 45.0017 84.2887 45.2926C84.2308 45.5836 84.0876 45.8509 83.8775 46.0607C83.6673 46.2704 83.3995 46.4133 83.108 46.4712C82.8165 46.5291 82.5143 46.4994 82.2397 46.3858C81.9651 46.2723 81.7304 46.08 81.5653 45.8334C81.4001 45.5867 81.312 45.2967 81.312 45C81.312 44.6022 81.4703 44.2206 81.7521 43.9393C82.034 43.658 82.4162 43.5 82.8148 43.5ZM80.0947 29.25C80.2417 29.5073 80.3091 29.8024 80.2883 30.0979C80.2675 30.3934 80.1596 30.6761 79.978 30.9105C79.7965 31.1448 79.5495 31.3203 79.2682 31.4147C78.9869 31.5091 78.6838 31.5183 78.3973 31.4411C78.1108 31.3638 77.8536 31.2036 77.6582 30.9807C77.4627 30.7578 77.3378 30.4821 77.2991 30.1883C77.2605 29.8946 77.3098 29.5961 77.4409 29.3303C77.572 29.0646 77.779 28.8435 78.0358 28.695C78.2074 28.5958 78.3968 28.5315 78.5934 28.5057C78.7899 28.4799 78.9896 28.4932 79.181 28.5448C79.3724 28.5964 79.5516 28.6853 79.7084 28.8063C79.8652 28.9273 79.9965 29.0781 80.0947 29.25Z" fill="#0F6296"/>
</svg>
