<svg width="128" height="128" viewBox="0 0 128 128" fill="none" xmlns="http://www.w3.org/2000/svg">
<g clip-path="url(#clip0_188_157)">
<path d="M64 128C76.658 128 89.0318 124.246 99.5565 117.214C110.081 110.182 118.284 100.186 123.128 88.4918C127.972 76.7973 129.24 63.929 126.77 51.5143C124.301 39.0995 118.205 27.6958 109.255 18.7452C100.304 9.79463 88.9006 3.69922 76.4858 1.22977C64.071 -1.23968 51.2027 0.02773 39.5083 4.87174C27.8138 9.71575 17.8184 17.9188 10.7859 28.4435C3.75353 38.9683 0 51.342 0 64C0.0190965 80.968 6.76807 97.2356 18.7663 109.234C30.7645 121.232 47.032 127.981 64 128ZM64 11C74.4824 11 84.7294 14.1084 93.4452 19.9321C102.161 25.7559 108.954 34.0333 112.966 43.7178C116.977 53.4023 118.027 64.0588 115.982 74.3398C113.937 84.6208 108.889 94.0645 101.477 101.477C94.0645 108.889 84.6208 113.937 74.3398 115.982C64.0588 118.027 53.4023 116.977 43.7178 112.966C34.0333 108.954 25.7558 102.161 19.9321 93.4453C14.1084 84.7294 11 74.4824 11 64C11.0173 49.9489 16.6068 36.4782 26.5425 26.5425C36.4782 16.6069 49.9489 11.0174 64 11Z" fill="#0F6296"/>
<path d="M36.4181 93.58C36.8143 93.5799 37.2016 93.4624 37.5311 93.2424C37.8605 93.0224 38.1174 92.7097 38.2694 92.3438C38.4213 91.978 38.4614 91.5752 38.3847 91.1866C38.3079 90.7979 38.1177 90.4407 37.8381 90.16C30.9079 83.2178 27.0156 73.8093 27.0156 64C27.0156 54.1907 30.9079 44.7822 37.8381 37.84C38.2134 37.4647 38.4242 36.9557 38.4242 36.425C38.4242 35.8943 38.2134 35.3853 37.8381 35.01C37.4628 34.6347 36.9539 34.4239 36.4231 34.4239C35.8924 34.4239 35.3834 34.6347 35.0081 35.01C27.3287 42.7035 23.0156 53.1297 23.0156 64C23.0156 74.8703 27.3287 85.2965 35.0081 92.99C35.1928 93.1763 35.4124 93.3243 35.6543 93.4255C35.8963 93.5268 36.1558 93.5793 36.4181 93.58ZM90.1581 92.99C90.5349 93.3666 91.0454 93.5787 91.5781 93.58C91.8404 93.5793 92.1 93.5268 92.3419 93.4255C92.5839 93.3243 92.8035 93.1763 92.9881 92.99C100.668 85.2965 104.981 74.8703 104.981 64C104.981 53.1297 100.668 42.7035 92.9881 35.01C92.6128 34.6347 92.1039 34.4239 91.5731 34.4239C91.0424 34.4239 90.5334 34.6347 90.1581 35.01C89.7828 35.3853 89.572 35.8943 89.572 36.425C89.572 36.9557 89.7828 37.4647 90.1581 37.84C97.0883 44.7822 100.981 54.1907 100.981 64C100.981 73.8093 97.0883 83.2178 90.1581 90.16C89.7835 90.5356 89.5732 91.0445 89.5732 91.575C89.5732 92.1055 89.7835 92.6144 90.1581 92.99ZM63.9281 97H63.9981C66.1199 97 68.1547 96.1571 69.655 94.6569C71.1553 93.1566 71.9981 91.1217 71.9981 89C71.9981 86.8783 71.1553 84.8434 69.655 83.3431C68.1547 81.8429 66.1199 81 63.9981 81C61.8823 80.9998 59.8525 81.8378 58.3531 83.3306C56.8536 84.8233 56.0066 86.8493 55.9973 88.9651C55.9881 91.081 56.8174 93.1143 58.3037 94.6201C59.79 96.126 61.8124 96.9817 63.9281 97ZM61.1681 77H66.8281C67.869 77.0019 68.8694 76.5975 69.6165 75.8728C70.3636 75.1481 70.7983 74.1604 70.8281 73.12L71.9981 35.12C72.0124 34.5852 71.9196 34.0529 71.7251 33.5544C71.5307 33.056 71.2385 32.6015 70.8658 32.2176C70.4931 31.8337 70.0474 31.5282 69.555 31.3191C69.0625 31.11 68.5332 31.0015 67.9981 31H59.9981C59.4631 31.0015 58.9338 31.11 58.4413 31.3191C57.9488 31.5282 57.5031 31.8337 57.1304 32.2176C56.7578 32.6015 56.4656 33.056 56.2711 33.5544C56.0767 34.0529 55.9839 34.5852 55.9981 35.12L57.1681 73.12C57.1996 74.1599 57.6348 75.1466 58.3816 75.8709C59.1283 76.5952 60.1278 77.0002 61.1681 77Z" fill="#0F6296"/>
</g>
<defs>
<clipPath id="clip0_188_157">
<rect width="128" height="128" fill="white"/>
</clipPath>
</defs>
</svg>
