<svg width="97" height="96" viewBox="0 0 97 96" fill="none" xmlns="http://www.w3.org/2000/svg">
<path fill-rule="evenodd" clip-rule="evenodd" d="M72.7284 90.5625H91.37C92.0763 90.5625 92.7536 90.2822 93.2531 89.7834C93.7525 89.2845 94.0331 88.6079 94.0331 87.9023V66.6211C94.0331 65.9156 93.7525 65.239 93.2531 64.7401C92.7536 64.2412 92.0763 63.9609 91.37 63.9609H79.0705C79.0035 63.8913 78.9342 63.8239 78.8628 63.7588L65.1985 51.3518C64.7084 50.9069 64.0699 50.6604 63.4076 50.6604C62.7453 50.6604 62.1068 50.9069 61.6167 51.3518L47.9524 63.7588C47.8811 63.824 47.8118 63.8914 47.7447 63.9609H6.15136C5.44507 63.9609 4.7677 64.2412 4.26828 64.7401C3.76886 65.239 3.48828 65.9156 3.48828 66.6211V87.9023C3.48828 88.6079 3.76886 89.2845 4.26828 89.7834C4.7677 90.2822 5.44507 90.5625 6.15136 90.5625H54.0868V79.9152C54.0868 74.7785 58.2652 70.6113 63.4076 70.6113C68.5514 70.6113 72.7284 74.7851 72.7284 79.9152V90.5625ZM67.4022 90.5625H59.413V79.9152C59.4399 78.8748 59.8726 77.886 60.6188 77.1596C61.365 76.4332 62.3657 76.0267 63.4076 76.0267C64.4495 76.0267 65.4503 76.4332 66.1965 77.1596C66.9427 77.886 67.3753 78.8748 67.4022 79.9152V90.5625ZM74.5859 32.2652L66.0707 16.1047V8.09501C66.0714 7.7456 66.003 7.3995 65.8694 7.07658C65.7357 6.75367 65.5396 6.46031 65.2921 6.21337C65.0446 5.96642 64.7508 5.77075 64.4274 5.63761C64.104 5.50446 63.7574 5.43646 63.4076 5.43751C62.702 5.43751 62.0253 5.71723 61.5259 6.21524C61.0266 6.71326 60.7456 7.38885 60.7445 8.09368V15.9598L53.7806 28.9466C53.9803 29.4162 54.1494 29.8857 54.2892 30.3539C54.5941 31.3714 54.7526 32.3769 54.7526 33.3691C54.7526 34.2922 54.682 35.1781 54.5462 36.0293H72.5393C72.6938 35.5811 72.8855 35.1275 73.1119 34.6726C73.5047 33.8759 74 33.0739 74.5859 32.2652ZM91.37 59.9707H80.6284L78.0546 57.6338V48.4948C79.964 49.4658 82.2329 49.9951 84.7123 49.9951C87.1916 49.9951 89.4605 49.4658 91.37 48.4948V59.9707ZM74.0599 54.0066L67.8856 48.399C66.6601 47.2864 65.0636 46.67 63.4076 46.67C61.7516 46.67 60.1551 47.2864 58.9296 48.399L51.4237 55.2157V42.9018C52.1732 42.0259 52.8064 41.0572 53.3079 40.0195H72.1332C72.3462 41.9615 73.02 43.6812 74.0599 45.1244V54.0066ZM34.1137 19.0043C32.7345 20.0255 31.4008 21.1065 30.1164 22.2444C28.0099 24.1171 26.267 25.9832 25.0033 27.7815L25.468 28.1965C26.6986 29.299 27.8617 30.4742 28.9513 31.7159L40.7088 19.9713C40.2881 19.6427 39.8646 19.3195 39.4399 19.0043V14.7454C39.4406 14.396 39.3722 14.0499 39.2385 13.727C39.1049 13.4041 38.9088 13.1107 38.6613 12.8638C38.4138 12.6168 38.1199 12.4211 37.7965 12.288C37.4731 12.1549 37.1266 12.0869 36.7768 12.0879C35.3055 12.0879 34.1137 13.2823 34.1137 14.7454V19.0043ZM47.4291 58.8441L46.1868 59.972H31.4506V49.3314C31.4506 49.1412 31.424 48.959 31.3747 48.7834C31.5066 48.5813 31.6331 48.3751 31.7529 48.1636C31.8368 48.1915 31.9233 48.2141 32.0139 48.2314C33.5318 48.5214 35.1297 48.6664 36.7768 48.6664C40.8753 48.6664 44.5157 47.7885 47.4291 46.1485V58.8441ZM33.412 40.5582C33.3304 39.6916 33.1421 38.8384 32.8514 38.0178C32.4679 36.9439 31.9683 35.9149 31.3614 34.9493L43.7767 22.5476C45.2347 23.8684 46.501 25.1759 47.5383 26.4474L33.412 40.5596V40.5582ZM7.4829 59.9707H27.456V52.5954C24.6465 54.3698 20.9901 55.3154 16.8037 55.3154C13.2498 55.3154 10.0794 54.6344 7.4829 53.3429V59.9707ZM50.4624 31.4964C50.6594 32.1548 50.758 32.7799 50.758 33.3691C50.758 40.4452 45.2561 44.6748 36.7768 44.6748C36.1776 44.6748 35.5864 44.6522 35.0085 44.6083L49.7953 29.8378C50.0776 30.4044 50.3013 30.9577 50.4624 31.4964ZM63.4076 29.3789C64.1139 29.3789 64.7913 29.0986 65.2907 28.5998C65.7901 28.1009 66.0707 27.4243 66.0707 26.7188C66.0707 26.0132 65.7901 25.3366 65.2907 24.8377C64.7913 24.3389 64.1139 24.0586 63.4076 24.0586C62.7013 24.0586 62.024 24.3389 61.5245 24.8377C61.0251 25.3366 60.7445 26.0132 60.7445 26.7188C60.7445 27.4243 61.0251 28.1009 61.5245 28.5998C62.024 29.0986 62.7013 29.3789 63.4076 29.3789ZM63.4076 66.6211C64.1139 66.6211 64.7913 66.3408 65.2907 65.842C65.7901 65.3431 66.0707 64.6665 66.0707 63.9609C66.0707 63.2554 65.7901 62.5788 65.2907 62.0799C64.7913 61.5811 64.1139 61.3008 63.4076 61.3008C62.7013 61.3008 62.024 61.5811 61.5245 62.0799C61.0251 62.5788 60.7445 63.2554 60.7445 63.9609C60.7445 64.6665 61.0251 65.3431 61.5245 65.842C62.024 66.3408 62.7013 66.6211 63.4076 66.6211ZM16.8037 81.252C17.51 81.252 18.1873 80.9717 18.6868 80.4728C19.1862 79.9739 19.4668 79.2973 19.4668 78.5918C19.4668 77.8863 19.1862 77.2097 18.6868 76.7108C18.1873 76.2119 17.51 75.9316 16.8037 75.9316C16.0974 75.9316 15.42 76.2119 14.9206 76.7108C14.4212 77.2097 14.1406 77.8863 14.1406 78.5918C14.1406 79.2973 14.4212 79.9739 14.9206 80.4728C15.42 80.9717 16.0974 81.252 16.8037 81.252ZM28.7876 81.252C29.4938 81.252 30.1712 80.9717 30.6706 80.4728C31.1701 79.9739 31.4506 79.2973 31.4506 78.5918C31.4506 77.8863 31.1701 77.2097 30.6706 76.7108C30.1712 76.2119 29.4938 75.9316 28.7876 75.9316C28.0813 75.9316 27.4039 76.2119 26.9045 76.7108C26.4051 77.2097 26.1245 77.8863 26.1245 78.5918C26.1245 79.2973 26.4051 79.9739 26.9045 80.4728C27.4039 80.9717 28.0813 81.252 28.7876 81.252ZM40.7714 81.252C41.4777 81.252 42.1551 80.9717 42.6545 80.4728C43.1539 79.9739 43.4345 79.2973 43.4345 78.5918C43.4345 77.8863 43.1539 77.2097 42.6545 76.7108C42.1551 76.2119 41.4777 75.9316 40.7714 75.9316C40.0651 75.9316 39.3878 76.2119 38.8883 76.7108C38.3889 77.2097 38.1083 77.8863 38.1083 78.5918C38.1083 79.2973 38.3889 79.9739 38.8883 80.4728C39.3878 80.9717 40.0651 81.252 40.7714 81.252ZM19.4668 25.394C19.468 25.0441 19.4 24.6973 19.2667 24.3737C19.1333 24.0502 18.9373 23.7561 18.6898 23.5084C18.4424 23.2607 18.1483 23.0643 17.8247 22.9305C17.501 22.7966 17.154 22.728 16.8037 22.7285C15.3323 22.7285 14.1406 23.9296 14.1406 25.394V28.3907C12.9979 29.2672 11.8905 30.1888 10.8211 31.1532C7.62804 34.0422 5.38839 36.8593 4.52955 39.3279C4.27922 40.0501 4.15405 40.7245 4.15405 41.3496C4.15405 47.6741 9.03415 51.3252 16.8037 51.3252C24.5732 51.3252 29.4533 47.6741 29.4533 41.3496C29.4533 40.7245 29.3282 40.0501 29.0778 39.3279C28.219 36.8606 25.9793 34.0422 22.7863 31.1532C21.7169 30.1888 20.6095 29.2672 19.4668 28.3907V25.394ZM87.3754 28.0369C87.3755 27.688 87.3067 27.3426 87.1728 27.0205C87.0388 26.6983 86.8425 26.4058 86.595 26.1597C86.3475 25.9136 86.0538 25.7188 85.7307 25.5865C85.4076 25.4541 85.0615 25.3869 84.7123 25.3887C83.2409 25.3887 82.0492 26.5724 82.0492 28.0369V30.0825C81.6164 30.4683 81.193 30.8633 80.7802 31.265C78.8974 33.0952 77.4714 34.8668 76.6924 36.4403C76.2663 37.2995 76.0573 38.0577 76.0573 38.6895C76.0573 43.1186 79.5499 46.0049 84.7123 46.0049C89.8746 46.0049 93.3673 43.1186 93.3673 38.6895C93.3673 38.0577 93.1582 37.2995 92.7321 36.4416C91.9532 34.8668 90.5271 33.0952 88.6443 31.265C88.2297 30.8615 87.8066 30.4668 87.3754 30.0812V28.0369Z" fill="#0F6296"/>
</svg>
