<svg width="128" height="128" viewBox="0 0 128 128" fill="none" xmlns="http://www.w3.org/2000/svg">
<path d="M65.8105 127.885C65.1208 127.943 64.4885 128 63.9713 128C29.313 128 1.03457 100.239 0.0574668 65.8105C-9.64594e-06 65.1208 0 64.4885 0 63.9713C0 29.313 27.7036 1.09206 62.132 0.0574875C62.7642 7.62939e-06 63.3965 0 63.9713 0C98.6295 0 126.908 27.7036 127.885 62.132C127.942 62.7643 128 63.3965 128 63.9713C128 98.6295 100.239 126.908 65.8105 127.885ZM63.9713 116.505C64.3736 116.505 64.7759 116.447 65.1783 116.447C67.8796 116.16 72.4778 114.091 72.4778 100.814C72.4778 96.4454 71.1558 91.0427 68.6268 84.8927C67.1325 85.2375 65.5231 85.4675 63.9713 85.4675C57.9937 85.4675 52.4185 82.996 48.4526 78.8577C42.1877 81.4441 34.4859 83.9156 27.1863 83.9156C22.2434 83.9156 18.22 83.3408 14.8864 82.4212C22.3583 102.308 41.498 116.505 63.9713 116.505ZM45.5213 14.8864C25.6345 22.3583 11.4953 41.498 11.4953 63.9713C11.4953 64.4311 11.5528 64.8334 11.5528 65.2932C11.8401 68.0521 13.9093 72.4203 27.1863 72.4203C31.5546 72.4203 36.9573 71.0983 42.9924 68.6269C42.705 67.075 42.4751 65.5231 42.4751 63.9713C42.4751 57.9937 44.9466 52.361 49.1423 48.3952C45.7512 40.4634 43.9695 33.2789 43.9695 27.1289C43.9695 22.1859 44.5442 18.22 45.5213 14.8864ZM63.9713 11.4953C63.5114 11.4953 63.0516 11.5528 62.5918 11.5528C59.833 11.8976 55.4647 13.9668 55.4647 27.1289C55.4647 31.4396 56.8442 36.8999 59.3157 43.0498C60.8101 42.705 62.3619 42.4751 63.9713 42.4751C69.9488 42.4751 75.524 45.004 79.4899 49.1423C87.4791 45.8087 94.6637 43.9695 100.756 43.9695C105.757 43.9695 109.78 44.6017 113.056 45.5213C105.584 25.692 86.4445 11.4953 63.9713 11.4953ZM116.447 62.5918C116.102 59.833 114.033 55.4648 100.756 55.4648C96.4454 55.4648 91.0426 56.8442 84.8927 59.3157C85.687 62.9098 85.5438 66.6478 84.4769 70.1707C83.41 73.6936 81.4551 76.8829 78.8002 79.4324C82.1913 87.4791 83.973 94.6637 83.973 100.814C83.973 105.757 83.3983 109.78 82.4212 113.056C102.308 105.584 116.505 86.4445 116.505 63.9713C116.505 63.5115 116.447 63.0516 116.447 62.5918Z" fill="#0F6296"/>
</svg>
