<svg width="97" height="96" viewBox="0 0 97 96" fill="none" xmlns="http://www.w3.org/2000/svg">
<path d="M15.0621 30H81.186C81.9832 30 82.7477 29.6839 83.3113 29.1213C83.875 28.5587 84.1917 27.7956 84.1917 27C84.1917 26.2044 83.875 25.4413 83.3113 24.8787C82.7477 24.3161 81.9832 24 81.186 24H15.0621C14.2649 24 13.5004 24.3161 12.9367 24.8787C12.3731 25.4413 12.0564 26.2044 12.0564 27C12.0564 27.7956 12.3731 28.5587 12.9367 29.1213C13.5004 29.6839 14.2649 30 15.0621 30ZM21.0733 21H75.1748C75.9719 21 76.7364 20.6839 77.3001 20.1213C77.8637 19.5587 78.1804 18.7956 78.1804 18C78.1804 17.2044 77.8637 16.4413 77.3001 15.8787C76.7364 15.3161 75.9719 15 75.1748 15H21.0733C20.2762 15 19.5117 15.3161 18.948 15.8787C18.3844 16.4413 18.0677 17.2044 18.0677 18C18.0677 18.7956 18.3844 19.5587 18.948 20.1213C19.5117 20.6839 20.2762 21 21.0733 21ZM84.1917 33H12.0564C11.2593 33 10.4948 33.3161 9.93111 33.8787C9.36745 34.4413 9.05078 35.2044 9.05078 36V78C9.05078 78.7957 9.36745 79.5587 9.93111 80.1213C10.4948 80.6839 11.2593 81 12.0564 81H84.1917C84.9888 81 85.7533 80.6839 86.317 80.1213C86.8806 79.5587 87.1973 78.7957 87.1973 78V36C87.1973 35.2044 86.8806 34.4413 86.317 33.8787C85.7533 33.3161 84.9888 33 84.1917 33ZM23.2073 47.13C22.6313 47.6782 21.8691 47.9889 21.0733 48C20.6806 47.9953 20.2925 47.9137 19.9312 47.76C19.5669 47.6081 19.2315 47.395 18.9393 47.13C18.3901 46.5551 18.0788 45.7943 18.0677 45C18.0724 44.608 18.1541 44.2207 18.3081 43.86C18.4512 43.4917 18.6657 43.1553 18.9393 42.87C19.2315 42.605 19.5669 42.3919 19.9312 42.24C20.6649 41.9414 21.4871 41.9442 22.2188 42.2475C22.9505 42.5509 23.5327 43.1304 23.8385 43.86C23.9925 44.2207 24.0742 44.608 24.079 45C24.0679 45.7943 23.7566 46.5551 23.2073 47.13ZM48.124 69C45.7462 69 43.4218 68.2962 41.4447 66.9776C39.4676 65.6591 37.9266 63.7849 37.0167 61.5922C36.1067 59.3995 35.8686 56.9867 36.3325 54.6589C36.7964 52.3311 37.9414 50.193 39.6228 48.5147C41.3042 46.8365 43.4464 45.6936 45.7786 45.2306C48.1107 44.7676 50.528 45.0052 52.7249 45.9134C54.9217 46.8217 56.7994 48.3598 58.1204 50.3332C59.4415 52.3065 60.1466 54.6266 60.1466 57C60.1466 60.1826 58.8799 63.2348 56.6253 65.4853C54.3706 67.7357 51.3126 69 48.124 69ZM77.3088 71.13C76.8192 71.6226 76.1738 71.9306 75.4822 72.0016C74.7907 72.0726 74.096 71.9021 73.5162 71.5192C72.9365 71.1364 72.5077 70.5647 72.3027 69.9017C72.0978 69.2387 72.1295 68.5253 72.3923 67.883C72.6552 67.2406 73.133 66.7091 73.7444 66.3789C74.3557 66.0487 75.0629 65.9402 75.7454 66.0719C76.4279 66.2036 77.0436 66.5674 77.4875 67.1013C77.9315 67.6352 78.1764 68.3062 78.1804 69C78.1693 69.7943 77.858 70.5551 77.3088 71.13Z" fill="#0F6296"/>
</svg>
