<svg width="97" height="96" viewBox="0 0 97 96" fill="none" xmlns="http://www.w3.org/2000/svg">
<path d="M37.4035 3C34.625 3 33.0513 5.38994 32.3461 8.07434V10.5002H93.9599V8.07434C93.9599 5.29923 91.6928 3 88.9142 3H37.4035ZM32.3461 13.5002V18.0003H93.9599V13.5002H32.3461ZM32.3461 21.0004V38.4411C32.3461 41.2163 34.625 43.5008 37.4035 43.5008H88.9142C91.6928 43.5008 93.9599 41.2163 93.9599 38.4411V21.0004H32.3461ZM43.0832 27.0884H51.6718C53.4616 27.0884 54.8888 28.5758 54.8888 30.3668V34.3014C54.8888 36.1041 53.4616 37.5886 51.6718 37.5886H43.0832C41.2934 37.5886 39.8662 36.1045 39.8662 34.3014V30.3668C39.8662 28.5641 41.2934 27.0884 43.0832 27.0884ZM43.0832 30.0885C42.9702 30.0885 42.8747 30.2132 42.8747 30.3668V34.3015C42.8747 34.4846 42.9702 34.5883 43.0832 34.5883H51.6718C51.7848 34.5883 51.8802 34.4783 51.8802 34.3015V30.3668C51.8802 30.1956 51.7848 30.0885 51.6718 30.0885H43.0832ZM35.2579 57.004C32.3461 57.004 27.2701 59.215 23.8867 60.9445C24.4701 62.0109 24.8319 63.2148 24.8319 64.51V84.7311C26.7458 84.3983 28.6873 84.0927 30.8491 84.0104C32.707 84.0104 36.1798 86.6383 38.4368 88.2292C41.653 90.4952 45.1174 93.0018 48.8745 93.0018C50.0054 93.0018 51.1415 92.6304 52.6375 92.0731C60.8593 89.0051 78.2015 79.2127 88.3037 73.3139C90.86 71.9028 91.6998 68.6355 90.2557 66.139C88.8701 63.7436 86.0574 63.1602 83.3226 64.0911L64.4519 70.6127C64.587 71.8381 64.3672 73.1086 63.7063 74.2514C62.0541 77.1077 58.358 78.0949 55.4964 76.4458L46.3766 71.1957C44.4914 70.2352 46.1165 67.4456 47.8853 68.6058L56.9934 73.853C58.458 74.697 60.2543 74.2192 61.0998 72.7572C61.9454 71.2954 61.4639 69.5054 59.9991 68.6615C53.2924 64.7966 41.398 57.004 35.2579 57.004ZM8.30641 60.0041C5.77657 60.0041 3.78906 62.0459 3.78906 64.513V85.5046C3.78906 87.9618 5.77799 89.9943 8.2771 90.0105H17.3235C20.0677 90.0105 21.8262 87.6834 21.8262 85.5017V64.51C21.8262 61.9892 19.7832 60.0041 17.3264 60.0041H8.30641ZM11.3092 81.0074C12.1392 81.0074 12.8121 81.679 12.8121 82.5074C12.8121 83.3359 12.1392 84.0075 11.3092 84.0075C10.4792 84.0075 9.80634 83.3359 9.80634 82.5074C9.80634 81.679 10.4792 81.0074 11.3092 81.0074Z" fill="#0F6296"/>
</svg>
