<svg width="56" height="56" viewBox="0 0 56 56" fill="none" xmlns="http://www.w3.org/2000/svg">
<g clip-path="url(#clip0_341_238)">
<path d="M45.5 56H10.5C7.71523 56 5.04451 54.8938 3.07538 52.9246C1.10625 50.9555 0 48.2848 0 45.5L0 10.5C0 7.71523 1.10625 5.04451 3.07538 3.07538C5.04451 1.10625 7.71523 0 10.5 0L45.5 0C48.2848 0 50.9555 1.10625 52.9246 3.07538C54.8938 5.04451 56 7.71523 56 10.5V45.5C56 48.2848 54.8938 50.9555 52.9246 52.9246C50.9555 54.8938 48.2848 56 45.5 56Z" fill="#227EB7"/>
<path d="M19.1426 34.1896H18.2575V35.9589H19.1426C19.3777 35.9589 19.6032 35.8657 19.7694 35.6998C19.9356 35.5339 20.029 35.3089 20.029 35.0742C20.029 34.8396 19.9356 34.6146 19.7694 34.4487C19.6032 34.2828 19.3777 34.1896 19.1426 34.1896ZM28.4452 34.1896H27.1163V39.4946H28.4452C28.5629 39.4946 28.6758 39.448 28.7591 39.3649C28.8423 39.2818 28.8891 39.1692 28.8891 39.0517V34.6326C28.8877 34.5155 28.8405 34.4037 28.7575 34.3209C28.6746 34.2381 28.5625 34.191 28.4452 34.1896Z" fill="#D7EFFF"/>
<path d="M40.8469 6.78125H15.1531C13.8615 6.78265 12.6231 7.29536 11.7097 8.20686C10.7964 9.11837 10.2827 10.3542 10.2812 11.6433V44.3567C10.2812 47.0384 12.466 49.2188 15.1531 49.2188H40.8469C42.1385 49.2173 43.3769 48.7046 44.2902 47.7931C45.2036 46.8816 45.7173 45.6458 45.7188 44.3567V11.6433C45.718 10.354 45.2045 9.11775 44.291 8.20609C43.3775 7.29443 42.1387 6.78195 40.8469 6.78125ZM19.1426 38.6114H18.2575V40.8209C18.2575 41.1726 18.1175 41.51 17.8683 41.7587C17.6191 42.0074 17.2811 42.1472 16.9286 42.1472C16.5761 42.1472 16.2381 42.0074 15.9889 41.7587C15.7397 41.51 15.5997 41.1726 15.5997 40.8209V32.8634C15.5997 32.5116 15.7397 32.1743 15.9889 31.9256C16.2381 31.6768 16.5761 31.5371 16.9286 31.5371H19.1426C20.0535 31.5803 20.9129 31.9717 21.5422 32.6304C22.1716 33.289 22.5227 34.1641 22.5227 35.0742C22.5227 35.9843 22.1716 36.8595 21.5422 37.5181C20.9129 38.1767 20.0535 38.5682 19.1426 38.6114ZM31.5443 39.0543C31.5443 40.7599 30.1542 42.1498 28.4425 42.1498H25.7847C25.4322 42.1498 25.0942 42.0101 24.845 41.7614C24.5957 41.5126 24.4557 41.1753 24.4557 40.8236V32.866C24.4557 32.5143 24.5957 32.1769 24.845 31.9282C25.0942 31.6795 25.4322 31.5398 25.7847 31.5398H28.4425C30.1516 31.5398 31.5443 32.927 31.5443 34.6353V39.0543ZM39.0767 35.9589C39.4292 35.9589 39.7672 36.0986 40.0164 36.3473C40.2656 36.596 40.4056 36.9334 40.4056 37.2851C40.4056 37.6369 40.2656 37.9742 40.0164 38.2229C39.7672 38.4716 39.4292 38.6114 39.0767 38.6114H35.975V40.8209C35.975 41.1726 35.835 41.51 35.5857 41.7587C35.3365 42.0074 34.9985 42.1472 34.646 42.1472C34.2936 42.1472 33.9555 42.0074 33.7063 41.7587C33.4571 41.51 33.3171 41.1726 33.3171 40.8209V34.6326C33.3171 32.927 34.7072 31.5371 36.4188 31.5371H39.0767C39.4292 31.5371 39.7672 31.6768 40.0164 31.9256C40.2656 32.1743 40.4056 32.5116 40.4056 32.8634C40.4056 33.2151 40.2656 33.5525 40.0164 33.8012C39.7672 34.0499 39.4292 34.1896 39.0767 34.1896H36.4188C36.3605 34.1896 36.3028 34.2011 36.249 34.2234C36.1951 34.2456 36.1462 34.2782 36.105 34.3194C36.0638 34.3605 36.0311 34.4093 36.0088 34.4631C35.9864 34.5168 35.975 34.5744 35.975 34.6326V35.9589H39.0767Z" fill="#D7EFFF"/>
</g>
<defs>
<clipPath id="clip0_341_238">
<rect width="56" height="56" fill="white"/>
</clipPath>
</defs>
</svg>
