<svg width="128" height="128" viewBox="0 0 128 128" fill="none" xmlns="http://www.w3.org/2000/svg">
<path d="M121.365 94.8629C113.525 90.3943 105.688 85.9183 97.8562 81.4349C96.8451 80.828 95.6882 80.5075 94.509 80.5075C93.3298 80.5075 92.1729 80.828 91.1618 81.4349L70.2256 94.397C63.2704 89.2182 56.6908 83.5532 50.5363 77.4445C44.4323 71.3033 38.7717 64.7368 33.5969 57.7946L46.559 36.8386C47.1665 35.8266 47.4873 34.6685 47.4873 33.4882C47.4873 32.3079 47.1665 31.1497 46.559 30.1377C42.0961 22.3145 37.5807 14.4388 33.131 6.63529C32.2631 5.15836 30.8698 4.06342 29.2296 3.5694C27.5893 3.07538 25.8231 3.21869 24.2839 3.97067L3.38702 14.7801C2.24842 15.4676 1.33287 16.4696 0.750648 17.6655C0.16843 18.8614 -0.0556236 20.2001 0.105474 21.5204C5.08023 47.8804 17.9533 72.1044 37.0163 90.9776C55.885 110.053 80.1095 122.938 106.474 127.921C107.794 128.084 109.133 127.861 110.329 127.278C111.526 126.696 112.528 125.779 113.214 124.64L124.043 103.697C124.79 102.158 124.929 100.393 124.433 98.7559C123.936 97.1185 122.841 95.7284 121.365 94.8629ZM124.699 68.9125C123.829 68.9125 122.994 68.5667 122.379 67.9513C121.763 67.3359 121.418 66.5012 121.418 65.6309C121.399 49.971 115.169 34.958 104.096 23.8848C93.0228 12.8115 78.0097 6.5822 62.3498 6.56309C61.4795 6.56309 60.6448 6.21736 60.0294 5.60195C59.414 4.98654 59.0683 4.15187 59.0683 3.28155C59.0683 2.41123 59.414 1.57655 60.0294 0.961143C60.6448 0.345733 61.4795 0 62.3498 0C79.7504 0.0191091 96.4328 6.93991 108.737 19.244C121.041 31.548 127.962 48.2304 127.981 65.6309C127.981 66.5012 127.635 67.3359 127.02 67.9513C126.404 68.5667 125.57 68.9125 124.699 68.9125Z" fill="#0F6296"/>
<path d="M98.445 68.9125C97.5746 68.9125 96.74 68.5668 96.1246 67.9514C95.5091 67.336 95.1634 66.5013 95.1634 65.631C95.153 56.931 91.6923 48.5903 85.5405 42.4385C79.3886 36.2866 71.048 32.826 62.348 32.8155C61.4776 32.8155 60.643 32.4698 60.0275 31.8544C59.4121 31.239 59.0664 30.4043 59.0664 29.534C59.0664 28.6637 59.4121 27.829 60.0275 27.2136C60.643 26.5982 61.4776 26.2524 62.348 26.2524C72.7881 26.2646 82.7971 30.4173 90.1794 37.7996C97.5616 45.1819 101.714 55.1909 101.727 65.631C101.727 66.5013 101.381 67.336 100.765 67.9514C100.15 68.5668 99.3153 68.9125 98.445 68.9125Z" fill="#0F6296"/>
</svg>
