<svg width="24" height="24" viewBox="0 0 24 24" fill="none" xmlns="http://www.w3.org/2000/svg">
<path d="M17.3095 14.6839L15.579 15.6588C15.3713 15.7757 15.1311 15.8214 14.895 15.789C14.6589 15.7566 14.4399 15.6478 14.2714 15.4792L8.49571 9.70346C8.32726 9.53492 8.21854 9.31592 8.18612 9.07985C8.1537 8.84378 8.19935 8.60359 8.31612 8.39587L9.29102 6.66539C9.46651 6.35394 9.53521 5.9936 9.48664 5.63943C9.43808 5.28526 9.2749 4.95672 9.02205 4.70401L6.4284 2.11035C6.27638 1.95826 6.09589 1.83761 5.89723 1.7553C5.69857 1.67298 5.48564 1.63062 5.27061 1.63062C5.05557 1.63062 4.84264 1.67298 4.64398 1.7553C4.44532 1.83761 4.26483 1.95826 4.11281 2.11035L2.93516 3.28718C2.2465 3.97583 1.80784 4.87494 1.68893 5.84155C1.57001 6.80816 1.77767 7.78678 2.27888 8.6218L2.86978 9.60663C5.88735 14.6358 10.1466 18.8053 15.2389 21.715L15.3556 21.7821C17.0952 22.776 19.2444 22.4864 20.6372 21.0944L21.867 19.8646C22.0191 19.7125 22.1398 19.5321 22.2221 19.3334C22.3044 19.1347 22.3468 18.9218 22.3468 18.7068C22.3468 18.4917 22.3044 18.2788 22.2221 18.0801C22.1398 17.8815 22.0191 17.701 21.867 17.549L19.2717 14.9537C19.019 14.7005 18.6904 14.537 18.336 14.4883C17.9817 14.4396 17.6211 14.5083 17.3095 14.6839Z" fill="#CFCFCF"/>
</svg>
