<svg width="16" height="22" viewBox="0 0 16 22" fill="none" xmlns="http://www.w3.org/2000/svg">
<path d="M8.9745 6.05114C8.97449 6.05113 8.97452 6.05114 8.9745 6.05114V6.05114Z" fill="#227EB7"/>
<path d="M8.9745 6.05114C8.97303 6.05048 8.9715 6.04982 8.97002 6.04917C8.96294 6.04606 8.95586 6.04295 8.94879 6.03922C8.88816 6.00973 8.96584 6.03612 8.9745 6.05114Z" fill="#227EB7"/>
<path fill-rule="evenodd" clip-rule="evenodd" d="M8.00266 0L8.0007 4.74223e-06C5.84011 0.00553855 3.73393 0.942803 2.23612 2.58575C0.716629 4.25405 -0.106824 6.55637 0.0111488 8.86862C0.084292 10.2833 0.49012 11.6732 1.20268 12.8765C1.50056 13.3796 1.83803 13.8583 2.17371 14.3345C2.23952 14.4279 2.30526 14.5211 2.37061 14.6145C3.42294 16.1112 4.50593 17.5856 5.59128 19.0575C6.27081 19.9774 6.95034 20.8948 7.63458 21.8098C7.64048 21.8173 7.64579 21.8247 7.6511 21.8322C7.6564 21.8396 7.66171 21.8471 7.66761 21.8545C7.8139 22.0485 8.18906 22.0485 8.33534 21.8545C8.91105 21.0863 9.4844 20.313 10.0554 19.5423C11.1455 18.0654 12.2332 16.5861 13.2973 15.0893C13.7102 14.51 14.1208 13.9282 14.5124 13.3315C15.1849 12.3121 15.6686 11.166 15.8738 9.93773C16.0815 8.68464 16.0366 7.39176 15.711 6.16602C15.4208 5.0621 14.9088 4.04272 14.234 3.14765C12.9033 1.38238 10.9095 0.273493 8.79072 0.0397807C8.53118 0.0149177 8.26692 0 8.00266 0ZM8.00264 11.0242C8.0805 11.0218 8.15601 11.0193 8.23151 11.0143C8.26926 11.0093 8.30701 11.0044 8.34476 11.0019C8.34676 11.0017 8.34855 11.0015 8.35014 11.0014C8.49067 10.979 8.62887 10.9419 8.76475 10.8974C8.80486 10.885 8.84497 10.8701 8.88508 10.8552C8.91103 10.8477 9.01249 10.8179 8.94643 10.8328C8.90492 10.8409 8.92752 10.8332 8.95418 10.824C8.96844 10.8192 8.98386 10.8139 8.99126 10.8104C9.02427 10.7955 9.05728 10.7781 9.09029 10.7607C9.21534 10.6961 9.33574 10.619 9.44899 10.5344C9.45692 10.5289 9.47471 10.514 9.49131 10.5C9.5192 10.4766 9.54375 10.456 9.5127 10.4872C9.48598 10.5128 9.49239 10.5068 9.50683 10.4932C9.52045 10.4804 9.54122 10.4609 9.54809 10.4549C9.56461 10.4391 9.58139 10.4237 9.59816 10.4082C9.63172 10.3773 9.66528 10.3463 9.69674 10.3132C9.75336 10.256 9.80527 10.1963 9.85718 10.1366C9.87842 10.1118 9.89965 10.0869 9.91853 10.062L9.94684 10.0248C10.0035 9.95514 9.93504 10.0471 9.93032 10.0496C9.9641 10.0346 10.0032 9.96037 10.0316 9.90658C10.0409 9.88898 10.049 9.87357 10.0554 9.86314C10.0931 9.80347 10.1262 9.7438 10.1592 9.68164C10.1946 9.61451 10.2276 9.54738 10.2583 9.47777C10.263 9.46782 10.2671 9.45788 10.2713 9.44793C10.2754 9.43799 10.2795 9.42804 10.2842 9.4181C10.2934 9.3978 10.2926 9.39967 10.2883 9.40953C10.2816 9.42505 10.2663 9.46036 10.2677 9.46036C10.2771 9.45643 10.2893 9.41048 10.2964 9.38407C10.2983 9.3771 10.2998 9.37149 10.3008 9.36837C10.3503 9.22168 10.3928 9.07001 10.4211 8.91835C10.4276 8.89097 10.4318 8.86477 10.4362 8.83813C10.4381 8.82606 10.4401 8.8139 10.4423 8.80149C10.4427 8.79878 10.4431 8.79621 10.4435 8.79379C10.4438 8.79047 10.4442 8.78644 10.4447 8.7816C10.4518 8.70704 10.4588 8.6324 10.4612 8.55784C10.4659 8.4012 10.4588 8.24705 10.4447 8.09041C10.4446 8.08984 10.4446 8.08927 10.4445 8.08871C10.443 8.07812 10.4415 8.06687 10.44 8.05561C10.4364 8.03572 10.4329 8.01645 10.4294 7.99719C10.4258 7.97791 10.4223 7.95864 10.4187 7.93875C10.4046 7.86913 10.3881 7.79703 10.3692 7.72741C10.348 7.65284 10.3267 7.57822 10.3008 7.50613C10.2998 7.50302 10.2983 7.4974 10.2964 7.49043C10.294 7.48135 10.2909 7.46995 10.2876 7.45876C10.2856 7.4549 10.2829 7.44928 10.2795 7.44149C10.276 7.43403 10.273 7.42657 10.2701 7.41911C10.2695 7.41754 10.2688 7.41596 10.2682 7.41438C10.2659 7.4085 10.2634 7.40262 10.2606 7.39674C10.2017 7.26248 10.1332 7.13319 10.0577 7.00887C10.0365 6.97407 10.0129 6.93677 9.98931 6.90196C9.98524 6.89596 9.97361 6.8808 9.96213 6.86586C9.94032 6.83744 9.91909 6.80979 9.95156 6.84726C9.97584 6.87541 9.97014 6.86867 9.95727 6.85346C9.94513 6.83911 9.92661 6.81721 9.92089 6.80997C9.8973 6.78014 9.87369 6.75029 9.8501 6.72295C9.75808 6.61604 9.65662 6.5141 9.55045 6.41962C9.54134 6.41002 9.53125 6.40145 9.52081 6.39258C9.52015 6.39202 9.51949 6.39146 9.51883 6.3909C9.50275 6.37976 9.48746 6.36772 9.4718 6.35538C9.46432 6.34949 9.45677 6.34353 9.44899 6.33757C9.39472 6.29531 9.3381 6.25801 9.28147 6.22072C9.21777 6.18094 9.15406 6.14364 9.09035 6.10884C9.05735 6.09145 9.02426 6.07401 8.99126 6.05911C8.98567 6.05617 8.98009 6.05361 8.9745 6.05114C8.96227 6.02598 8.85972 5.99791 8.80203 5.98212C8.78589 5.97771 8.77326 5.97425 8.76711 5.97209C8.70104 5.94971 8.63498 5.92982 8.56891 5.91242C8.49577 5.89253 8.42263 5.87761 8.34948 5.86518C8.34651 5.86471 8.34375 5.86428 8.34118 5.86387C8.3382 5.86355 8.3347 5.86316 8.33061 5.86269C8.31616 5.86152 8.30118 5.8598 8.28593 5.85804C8.26881 5.85607 8.25134 5.85406 8.23387 5.85275C8.0805 5.84031 7.92714 5.84031 7.77377 5.85275C7.73759 5.85751 7.70141 5.86228 7.66523 5.86485C7.65911 5.86564 7.65297 5.86635 7.64697 5.86704L7.64164 5.86766C7.57322 5.8801 7.50715 5.89501 7.43873 5.91242C7.36796 5.9323 7.29715 5.9522 7.22638 5.97706C7.22016 5.97944 7.20652 5.98339 7.18922 5.98839C7.1534 5.99875 7.10192 6.01364 7.06843 6.02851C7.08671 6.02105 7.09669 6.02198 7.04706 6.04668C7.03998 6.05041 7.0329 6.05352 7.02582 6.05662C7.01874 6.05973 7.01166 6.06284 7.00459 6.06657C6.97628 6.079 6.94797 6.09391 6.91966 6.10883C6.85359 6.14364 6.78988 6.18094 6.72853 6.22072C6.66718 6.25801 6.60584 6.30028 6.54685 6.34503C6.54212 6.34859 6.53448 6.35318 6.52583 6.35837C6.52346 6.35979 6.52101 6.36126 6.51852 6.36277C6.516 6.36549 6.50889 6.37221 6.49494 6.38481L6.45955 6.41465C6.35337 6.50664 6.25192 6.60858 6.1599 6.71798C6.14691 6.73415 6.13333 6.75095 6.11975 6.76775C6.1062 6.78452 6.09264 6.80128 6.07968 6.81743L6.05136 6.85472C6.03268 6.87704 6.04161 6.8654 6.05386 6.84944C6.06482 6.83516 6.07843 6.81743 6.07732 6.81743C6.04513 6.8325 6.00482 6.90754 5.97589 6.9614C5.96664 6.97861 5.95855 6.99366 5.95227 7.0039C5.87676 7.12822 5.80834 7.2575 5.74935 7.39176C5.74463 7.40171 5.7405 7.41165 5.73638 7.4216C5.73225 7.43154 5.72812 7.44149 5.7234 7.45144C5.71423 7.47172 5.71504 7.46986 5.71931 7.46001C5.72604 7.4445 5.74136 7.40917 5.73991 7.40917C5.72694 7.41373 5.70802 7.48511 5.70132 7.5104C5.70071 7.5127 5.7002 7.51463 5.6998 7.51608C5.67621 7.58321 5.65497 7.65283 5.6361 7.72244C5.61722 7.79703 5.59835 7.8741 5.58419 7.95118C5.57769 7.97856 5.57343 8.00476 5.5691 8.0314C5.56725 8.04279 5.56538 8.05427 5.56332 8.06595C5.56321 8.06734 5.56309 8.06886 5.56295 8.07052C5.5488 8.23213 5.537 8.39374 5.54408 8.55535C5.5488 8.63738 5.55587 8.71692 5.56295 8.79646C5.56344 8.80245 5.56376 8.80671 5.56393 8.80941C5.56477 8.81333 5.56531 8.81592 5.56531 8.81641C5.56587 8.8202 5.56642 8.82401 5.56697 8.82786C5.57117 8.85685 5.57558 8.88733 5.58183 8.91586C5.61014 9.06504 5.64789 9.20925 5.69744 9.35097C5.70216 9.3634 5.70688 9.37645 5.7116 9.3895C5.71594 9.40151 5.72028 9.41351 5.72462 9.42503C5.71741 9.38945 5.72686 9.41853 5.73697 9.44964C5.7426 9.46697 5.74844 9.48492 5.75171 9.49268C5.78003 9.55733 5.8107 9.61949 5.84373 9.68164C5.87912 9.74877 5.91687 9.81342 5.95698 9.87806C5.96365 9.88891 5.97187 9.90452 5.98108 9.92201C6.00776 9.97266 6.04279 10.0392 6.0726 10.0521C6.05844 10.0446 6.01125 9.97254 6.05608 10.0272C6.06315 10.0359 6.06964 10.044 6.07612 10.0521C6.08262 10.0602 6.08911 10.0683 6.09619 10.077C6.10681 10.0894 6.11684 10.1018 6.12687 10.1143C6.13689 10.1267 6.14692 10.1391 6.15754 10.1516C6.20237 10.2038 6.24956 10.2535 6.29675 10.3032C6.35102 10.3579 6.41 10.4126 6.46899 10.4648L6.50438 10.4947C6.53459 10.5265 6.49228 10.4883 6.47538 10.473C6.47116 10.4692 6.46852 10.4668 6.46899 10.4673C6.47593 10.4838 6.51095 10.5056 6.53556 10.521C6.54442 10.5265 6.55192 10.5312 6.55629 10.5344C6.66954 10.619 6.78988 10.6936 6.91493 10.7607C6.95268 10.7806 6.99043 10.8005 7.02818 10.8179C7.03526 10.8216 7.04234 10.8247 7.04941 10.8278C7.05649 10.8309 7.06357 10.834 7.07065 10.8378C7.09242 10.8492 7.08557 10.8459 7.07187 10.8392C7.05587 10.8314 7.03054 10.819 7.03054 10.8204C7.03844 10.8453 7.14393 10.8738 7.19744 10.8883C7.20784 10.8911 7.21628 10.8933 7.22166 10.895C7.36323 10.9422 7.50951 10.9795 7.6558 11.0044C7.66013 11.005 7.66402 11.0057 7.66751 11.0062C7.66964 11.0064 7.67203 11.0066 7.67467 11.0068C7.69354 11.0081 7.71241 11.0099 7.73128 11.0118C7.75017 11.0137 7.76905 11.0155 7.78793 11.0168C7.85871 11.0218 7.93186 11.0242 8.00264 11.0242ZM5.56214 8.80109C5.56089 8.79129 5.55927 8.77745 5.55798 8.76653C5.55678 8.75627 5.55588 8.7486 5.55588 8.74928C5.55264 8.7544 5.55828 8.78288 5.56214 8.80109ZM6.47135 6.40222C6.47534 6.39099 6.49361 6.37818 6.51175 6.36692C6.4984 6.3775 6.47262 6.39955 6.47135 6.40222Z" fill="#227EB7"/>
</svg>
