<svg width="72" height="72" viewBox="0 0 72 72" fill="none" xmlns="http://www.w3.org/2000/svg">
<path d="M69.345 63.4607C70.1092 63.4607 70.7344 62.835 70.7344 62.07V52.7799C70.7344 52.015 70.1092 51.3891 69.345 51.3891H50.8108V63.4607H69.345ZM2.65501 63.4607H21.2032V51.3891H2.65501C1.89084 51.3891 1.26562 52.015 1.26562 52.7799V62.07C1.26562 62.835 1.89084 63.4607 2.65501 63.4607ZM48.0321 65.3522V49.5116C48.0321 47.2447 46.1841 45.3951 43.9195 45.3951H40.71V40.7056C49.1222 38.5948 55.3788 30.9844 55.3788 21.9187C55.3788 11.228 46.6904 2.53125 36.0102 2.53125C25.3301 2.53125 16.6411 11.228 16.6411 21.9187C16.6411 30.9821 22.8949 38.5908 31.3039 40.704V45.3951H28.0945C25.8297 45.3951 23.982 47.2447 23.982 49.5116V65.3522C23.982 67.6191 25.8297 69.4687 28.0945 69.4687H43.9195C46.1841 69.4687 48.0321 67.6191 48.0321 65.3522ZM19.4198 21.9187C19.4198 12.7621 26.8619 5.31264 36.0102 5.31264C45.1579 5.31264 52.6 12.7621 52.6 21.9187C52.6 31.076 45.1579 38.5254 36.0102 38.5254C26.8619 38.5254 19.4198 31.076 19.4198 21.9187Z" fill="#CFCFCF"/>
<path d="M40.6858 21.9187C40.6858 21.1355 40.4743 20.4078 40.133 19.7584L45.3519 14.5345C45.8946 13.9912 45.8946 13.1111 45.3519 12.5679C44.8092 12.0247 43.9299 12.0247 43.3872 12.5679L38.1684 17.7918C37.5196 17.4502 36.7926 17.2385 36.0102 17.2385C33.4316 17.2385 31.334 19.3382 31.334 21.9187C31.334 24.4999 33.4316 26.5995 36.0102 26.5995C38.5881 26.5995 40.6858 24.4999 40.6858 21.9187ZM34.1127 21.9187C34.1127 20.8715 34.9642 20.02 36.0102 20.02C37.0564 20.02 37.907 20.8715 37.907 21.9187C37.907 22.9659 37.0564 23.818 36.0102 23.818C34.9642 23.818 34.1127 22.9659 34.1127 21.9187Z" fill="#CFCFCF"/>
</svg>
