<svg width="97" height="96" viewBox="0 0 97 96" fill="none" xmlns="http://www.w3.org/2000/svg">
<path d="M48.0936 20.0032C32.6167 20.0032 20.043 32.5746 20.043 48.0013C20.043 63.428 32.638 75.9995 48.0936 75.9995C63.5492 75.9995 76.1443 63.428 76.1443 48.0013C76.1443 32.5746 63.5706 20.0032 48.0936 20.0032ZM62.1616 41.2894L45.2331 57.2275C45.078 57.3791 44.8944 57.4986 44.6929 57.579C44.4914 57.6595 44.276 57.6993 44.0589 57.6963C43.8319 57.6985 43.6068 57.6543 43.3975 57.5663C43.1882 57.4784 42.9992 57.3486 42.8421 57.1849L33.9829 48.1079C33.671 47.7847 33.4995 47.3518 33.5057 46.9031C33.5118 46.4545 33.6952 46.0264 34.0159 45.7119C34.3365 45.3974 34.7686 45.222 35.2182 45.2238C35.6677 45.2256 36.0984 45.4044 36.4165 45.7214L44.1016 53.6052L59.8134 38.8178C59.976 38.6639 60.1674 38.5434 60.3766 38.4634C60.5858 38.3833 60.8088 38.3451 61.0328 38.3511C61.2568 38.357 61.4775 38.4069 61.6821 38.498C61.8868 38.589 62.0715 38.7194 62.2257 38.8817C62.3799 39.044 62.5005 39.235 62.5808 39.4438C62.661 39.6527 62.6992 39.8752 62.6933 40.0988C62.6873 40.3224 62.6373 40.5426 62.5461 40.7469C62.4549 40.9512 62.3242 41.1355 62.1616 41.2894V41.2894Z" fill="#0F6296"/>
<path d="M88.3746 58.2077L91.5531 53.3988C93.7171 50.1246 93.7171 45.8781 91.5531 42.604L88.3746 37.795C88.1769 37.4916 88.0798 37.1338 88.0971 36.7723L88.4232 30.9351C88.6401 27.0506 86.5348 23.4057 83.058 21.6469L77.8717 19.0231C77.549 18.8608 77.2871 18.5994 77.1245 18.2773L74.5131 13.1149C72.7539 9.63697 69.0979 7.52929 65.2006 7.74616L59.3633 8.07097C59.0011 8.08825 58.6426 7.99134 58.3387 7.79397L53.4972 4.61261C50.2177 2.45766 45.9674 2.45969 42.69 4.61778L37.8664 7.79397C37.5624 7.99134 37.2039 8.08825 36.8417 8.07097L30.9935 7.74555C27.1018 7.52899 23.4501 9.63042 21.6879 13.1006L19.0592 18.2773C18.8966 18.5994 18.6347 18.8608 18.3121 19.0231L13.14 21.6295C9.65552 23.3855 7.54389 27.0346 7.76116 30.9246L8.08658 36.751C8.1039 37.1125 8.00681 37.4703 7.80907 37.7737L4.62174 42.6062C2.46275 45.8795 2.46478 50.1219 4.62692 53.3932L7.80907 58.2077C8.00681 58.5111 8.1039 58.8689 8.08658 59.2305L7.76116 65.0568C7.54389 68.9468 9.65552 72.5959 13.14 74.3519L18.3121 76.9584C18.6347 77.1206 18.8966 77.3821 19.0592 77.7041L21.6706 82.8666C23.4298 86.3445 27.0858 88.4521 30.9831 88.2353L36.8204 87.9105H36.9058C37.2385 87.9139 37.5638 88.0098 37.845 88.1875L42.663 91.3599C45.9432 93.5199 50.1978 93.5199 53.478 91.3599L58.296 88.1875C58.5999 87.9901 58.9584 87.8932 59.3207 87.9105L65.1579 88.2353C69.0552 88.4521 72.7112 86.3445 74.4704 82.8666L77.0818 77.7041C77.2444 77.3821 77.5063 77.1206 77.829 76.9584L83.0011 74.3519C86.4855 72.5959 88.5971 68.9468 88.3799 65.0568L88.0544 59.2305C88.0725 58.868 88.1827 58.516 88.3746 58.2077ZM48.0919 79.4087C30.7363 79.4087 16.6256 65.3244 16.6256 48.0014C16.6256 30.6783 30.7363 16.594 48.0919 16.594C65.4474 16.594 79.5581 30.6783 79.5581 48.0014C79.5581 65.3244 65.4474 79.4087 48.0919 79.4087Z" fill="#0F6296"/>
</svg>
