<svg width="97" height="96" viewBox="0 0 97 96" fill="none" xmlns="http://www.w3.org/2000/svg">
<path fill-rule="evenodd" clip-rule="evenodd" d="M70.895 82.4118V78.8727C72.612 76.4507 73.5591 73.5442 73.5591 70.5001C73.5591 62.4596 66.9988 55.9412 58.9066 55.9412C50.8144 55.9412 44.2541 62.4596 44.2541 70.5001C44.2541 73.5442 45.2012 76.4507 46.9182 78.8727V82.4118H21.6094C20.9028 82.4118 20.2252 82.133 19.7256 81.6365C19.226 81.1401 18.9453 80.4668 18.9453 79.7648V5.64706C18.9453 4.94502 19.226 4.27173 19.7256 3.77531C20.2252 3.27889 20.9028 3 21.6094 3H74.8911C75.5977 3 76.2753 3.27889 76.7749 3.77531C77.2745 4.27173 77.5552 4.94502 77.5552 5.64706V79.7648C77.5552 80.4668 77.2745 81.1401 76.7749 81.6365C76.2753 82.133 75.5977 82.4118 74.8911 82.4118H70.895ZM29.6017 20.1927C29.6017 20.9312 30.1878 21.5294 30.9297 21.5294H65.5708C66.3034 21.5294 66.8989 20.9431 66.8989 20.1927V17.5721C66.9008 17.3974 66.8679 17.2242 66.8021 17.0622C66.7362 16.9003 66.6387 16.7529 66.5153 16.6286C66.3918 16.5044 66.2447 16.4056 66.0826 16.3381C65.9205 16.2706 65.7466 16.2356 65.5708 16.2353H30.9297C30.7539 16.2355 30.5798 16.2703 30.4177 16.3377C30.2555 16.4052 30.1084 16.5039 29.9849 16.6283C29.8613 16.7526 29.7639 16.9 29.6981 17.062C29.6323 17.224 29.5995 17.3974 29.6017 17.5721V20.1927ZM29.6017 33.428C29.6017 34.1665 30.1878 34.7647 30.9297 34.7647H65.5708C66.3034 34.7647 66.8989 34.1784 66.8989 33.428V30.8074C66.9008 30.6327 66.8679 30.4595 66.8021 30.2975C66.7362 30.1356 66.6387 29.9882 66.5153 29.864C66.3918 29.7397 66.2447 29.6409 66.0826 29.5734C65.9205 29.5059 65.7466 29.471 65.5708 29.4706H30.9297C30.7539 29.4708 30.5798 29.5056 30.4177 29.573C30.2555 29.6405 30.1084 29.7392 29.9849 29.8636C29.8613 29.9879 29.7639 30.1353 29.6981 30.2973C29.6323 30.4593 29.5995 30.6327 29.6017 30.8074V33.428ZM29.6017 46.6633C29.6017 47.4018 30.1878 48 30.9297 48H65.5708C66.3034 48 66.8989 47.4137 66.8989 46.6633V44.0427C66.9008 43.8681 66.8679 43.6948 66.8021 43.5328C66.7362 43.3709 66.6387 43.2235 66.5153 43.0993C66.3918 42.975 66.2447 42.8762 66.0826 42.8087C65.9205 42.7412 65.7466 42.7063 65.5708 42.7059H30.9297C30.7539 42.7061 30.5798 42.7409 30.4177 42.8083C30.2555 42.8758 30.1084 42.9745 29.9849 43.0989C29.8613 43.2232 29.7639 43.3706 29.6981 43.5326C29.6323 43.6946 29.5995 43.868 29.6017 44.0427V46.6633ZM29.6017 59.8986V57.278C29.6017 56.5276 30.1957 55.9412 30.927 55.9412H41.5967C42.316 55.9412 42.9221 56.5395 42.9221 57.278V59.8986C42.9244 60.0731 42.8918 60.2463 42.8263 60.4082C42.7607 60.5701 42.6635 60.7175 42.5402 60.8419C42.417 60.9662 42.2701 61.065 42.1081 61.1325C41.9462 61.2001 41.7723 61.235 41.5967 61.2354H30.927C30.2077 61.2354 29.6017 60.6371 29.6017 59.8986ZM66.8989 77.5042V90.353C66.8988 90.8042 66.7828 91.2478 66.5617 91.6419C66.3406 92.0359 66.0218 92.3673 65.6356 92.6045C65.2494 92.8417 64.8086 92.977 64.355 92.9973C63.9014 93.0177 63.4501 92.9225 63.0439 92.7208L58.9066 90.6654L54.7693 92.7208C54.3631 92.9225 53.9118 93.0177 53.4582 92.9973C53.0046 92.977 52.5638 92.8417 52.1776 92.6045C51.7914 92.3673 51.4726 92.0359 51.2515 91.6419C51.0304 91.2478 50.9144 90.8042 50.9143 90.353V77.5042C49.5579 75.9759 48.674 74.0912 48.3689 72.0762C48.0637 70.0612 48.3502 68.0015 49.194 66.1443C50.0378 64.2871 51.403 62.7112 53.1258 61.6059C54.8486 60.5005 56.8558 59.9125 58.9066 59.9125C60.9574 59.9125 62.9646 60.5005 64.6874 61.6059C66.4102 62.7112 67.7754 64.2871 68.6192 66.1443C69.463 68.0015 69.7495 70.0612 69.4443 72.0762C69.1392 74.0912 68.2553 75.9759 66.8989 77.5042ZM56.2425 80.7548V86.0701L57.7158 85.3382C58.0855 85.1546 58.4932 85.059 58.9066 85.059C59.32 85.059 59.7277 85.1546 60.0975 85.3382L61.5707 86.0701V80.7548C60.7182 80.9718 59.8257 81.0883 58.9066 81.0883C57.9875 81.0883 57.095 80.9718 56.2425 80.7548ZM58.9066 75.7942C60.3197 75.7942 61.675 75.2364 62.6742 74.2436C63.6734 73.2507 64.2348 71.9042 64.2348 70.5001C64.2348 69.096 63.6734 67.7494 62.6742 66.7566C61.675 65.7637 60.3197 65.2059 58.9066 65.2059C57.4935 65.2059 56.1382 65.7637 55.139 66.7566C54.1398 67.7494 53.5784 69.096 53.5784 70.5001C53.5784 71.9042 54.1398 73.2507 55.139 74.2436C56.1382 75.2364 57.4935 75.7942 58.9066 75.7942Z" fill="#0F6296"/>
</svg>
