<svg width="97" height="96" viewBox="0 0 97 96" fill="none" xmlns="http://www.w3.org/2000/svg">
<path d="M68.8653 13.1718C68.236 12.9468 67.5691 12.9375 66.9117 12.9375H18.69C17.8447 12.9375 16.9993 12.9093 16.1634 12.9281C13.5898 12.975 11.561 15.0281 11.5328 17.5875C11.5328 17.9343 11.5234 18.2718 11.5234 18.6187V66.5906C11.5234 68.2687 13.5522 68.9906 14.7357 67.9125C16.3512 66.45 17.9668 64.9781 19.5823 63.5156C22.1559 61.1812 24.7294 58.8656 27.2936 56.5312C27.6787 56.1843 28.0638 55.7812 28.4583 55.5H62.4971C64.0939 55.5 65.7094 55.5281 67.3062 55.4812V55.4718H67.3813C67.4189 55.4718 67.4564 55.4718 67.494 55.4624H67.5034C70.0206 55.3406 71.9931 53.3156 72.0119 50.7843C72.0119 50.2875 72.0212 49.8 72.0212 49.3031V17.7187C72.0118 15.6562 70.819 13.8843 68.8653 13.1718ZM29.4821 35.5218C29.4633 35.8218 29.36 36.075 29.1909 36.2625C29.0125 36.45 28.7777 36.5812 28.4959 36.6281C28.4583 36.6375 28.4114 36.6468 28.355 36.6468H28.2799C26.7207 36.6468 25.1615 36.6656 23.6023 36.6468C23.5648 36.6468 23.5272 36.6468 23.4896 36.6375L23.4802 36.6468H23.3863C23.3769 36.6468 23.3581 36.6375 23.3487 36.6281C23.283 36.6187 23.2172 36.6 23.1609 36.5812C23.1327 36.5718 23.1045 36.5625 23.0763 36.5437C23.0763 36.5437 23.067 36.5437 23.067 36.5343H23.0482C23.0388 36.5343 23.0294 36.525 23.0294 36.525C23.02 36.525 23.0106 36.5156 22.9918 36.5062C22.9824 36.4968 22.9636 36.4968 22.9542 36.4875C22.9449 36.4875 22.9449 36.4875 22.9355 36.4781C22.9261 36.4781 22.9167 36.4687 22.9167 36.4687C22.9073 36.4687 22.9073 36.4593 22.8979 36.4593H22.8885C22.8697 36.45 22.8603 36.4218 22.8509 36.4125C22.8415 36.4125 22.8415 36.4218 22.8415 36.4218C22.8415 36.4218 22.8321 36.4218 22.8321 36.4125C22.8321 36.4031 22.8227 36.3937 22.8227 36.3656C22.804 36.3656 22.7946 36.3656 22.7758 36.3468V36.3656L22.7664 36.3562H22.757C22.7288 36.3375 22.71 36.3187 22.6913 36.2906C22.447 36.0468 22.3343 35.6906 22.3343 35.2593V32.6718C22.3343 32.4937 22.3249 32.3156 22.3437 32.1281C22.3437 32.1 22.3531 32.0812 22.3531 32.0531C22.3531 32.0343 22.3531 32.0156 22.3625 32.0062C22.3625 31.9875 22.3719 31.9781 22.3719 31.9593V31.9218C22.3813 31.8937 22.3813 31.875 22.3907 31.8468C22.5316 31.4156 22.8979 31.1718 23.3206 31.1062C23.3769 31.0968 23.4427 31.0875 23.499 31.0875C24.1753 31.0593 24.8609 31.1062 25.5372 31.1062H28.0544C28.834 31.1062 29.4633 31.4343 29.4821 32.2968C29.5103 33.1031 29.4821 33.9093 29.4821 34.7156C29.4821 34.9968 29.5009 35.2593 29.4821 35.5218ZM45.3368 35.5218C45.3274 35.6718 45.2993 35.8125 45.2523 35.9343C45.2429 35.9625 45.2335 35.9906 45.2147 36.0093C45.2147 36.0093 45.2147 36.0187 45.2053 36.0187C45.2053 36.0187 45.2053 36.0281 45.1959 36.0281C45.1866 36.0375 45.1866 36.0468 45.1772 36.0562C45.1678 36.075 45.1584 36.0843 45.149 36.1031L45.0926 36.1875C45.0738 36.2156 45.0551 36.2343 45.0269 36.2625C44.8484 36.45 44.6136 36.5812 44.3318 36.6281C44.2943 36.6375 44.2473 36.6468 44.1909 36.6468H44.1158C42.5566 36.6468 40.9975 36.6656 39.4383 36.6468C39.1377 36.6468 38.8935 36.5718 38.7057 36.4406C38.6869 36.4312 38.6775 36.4218 38.6587 36.4125C38.6399 36.4031 38.6305 36.3843 38.6117 36.375C38.5835 36.3468 38.5554 36.3281 38.5272 36.3C38.499 36.2718 38.4708 36.2343 38.4427 36.2062C38.4145 36.1687 38.3957 36.1406 38.3675 36.1031L38.3393 36.0468L38.3112 35.9906L38.283 35.9343C38.2736 35.9156 38.2642 35.8875 38.2548 35.8687C38.2454 35.85 38.236 35.8312 38.236 35.8031C38.2266 35.775 38.2266 35.7562 38.2172 35.7281C38.2078 35.7093 38.2078 35.6906 38.2078 35.6718C38.2078 35.6625 38.1985 35.6437 38.1985 35.6343C38.1985 35.6156 38.1891 35.5968 38.1891 35.5781C38.1797 35.4843 38.1703 35.3906 38.1703 35.2875V32.7C38.1703 32.5687 38.1609 32.4375 38.1703 32.3062V32.1843C38.1703 32.1656 38.1703 32.1375 38.1797 32.1187L38.1703 32.1093V32.0062H38.1797C38.1797 31.9968 38.1703 31.9875 38.1703 31.9875V31.9593C38.1703 31.9312 38.1985 31.9125 38.2078 31.8843C38.2078 31.875 38.2172 31.8656 38.2172 31.8656C38.2266 31.8562 38.2266 31.8375 38.236 31.8281C38.236 31.8187 38.2454 31.8187 38.2454 31.8093C38.2454 31.8 38.2548 31.7906 38.2642 31.7812C38.2736 31.7625 38.283 31.7531 38.2924 31.7343C38.2924 31.725 38.3018 31.7156 38.3112 31.7062C38.3206 31.6781 38.3393 31.6593 38.3487 31.6406C38.3581 31.6312 38.3581 31.6218 38.3675 31.6125C38.3769 31.6031 38.3769 31.5937 38.3863 31.5843C38.3957 31.5656 38.4145 31.5468 38.4239 31.5375C38.4333 31.5187 38.4521 31.5093 38.4614 31.4906C38.4896 31.4531 38.5272 31.425 38.5648 31.3968C38.5742 31.3875 38.5929 31.3781 38.6023 31.3687L38.6117 31.3593C38.6305 31.35 38.6399 31.3406 38.6587 31.3312C38.6869 31.3125 38.7057 31.3031 38.7338 31.2843C38.7526 31.275 38.7714 31.2656 38.7996 31.2562C38.809 31.2468 38.8278 31.2468 38.8371 31.2375C38.8465 31.2375 38.8465 31.2375 38.8559 31.2281C38.8653 31.2187 38.8841 31.2187 38.8935 31.2093C38.9123 31.2 38.9405 31.1906 38.9593 31.1906C39.0062 31.1812 39.0438 31.1625 39.0907 31.1625H39.1189C39.1471 31.1625 39.1659 31.1531 39.1941 31.1531C39.2316 31.1437 39.2786 31.1437 39.3162 31.1437C39.9924 31.1156 40.6781 31.1625 41.3544 31.1625H43.8716C44.6512 31.1625 45.2805 31.4906 45.2993 32.3531C45.3181 33.1593 45.2993 33.9656 45.2993 34.7718C45.3368 34.9968 45.3556 35.2593 45.3368 35.5218ZM61.201 35.5218C61.201 35.5593 61.1916 35.5968 61.1916 35.6343C61.1916 35.6531 61.1822 35.6718 61.1822 35.6906C61.1728 35.7656 61.154 35.8312 61.1258 35.8968C61.1164 35.9156 61.1164 35.925 61.107 35.9437C61.0976 35.9718 61.0882 36 61.0695 36.0187C61.0695 36.0187 61.0695 36.0281 61.0601 36.0281V36.0468C61.0601 36.0562 61.0507 36.0656 61.0413 36.075C61.0037 36.15 60.9474 36.2156 60.9004 36.2718C60.7313 36.4593 60.4871 36.5906 60.2053 36.6375C60.1678 36.6468 60.1208 36.6562 60.0644 36.6562H59.9893C58.4301 36.6562 56.8804 36.675 55.3212 36.6562H55.1709C55.1427 36.6562 55.1239 36.6562 55.0958 36.6468C55.077 36.6468 55.0676 36.6468 55.0582 36.6375H55.0488C55.03 36.6375 55.0112 36.6281 55.0018 36.6281C54.9924 36.6281 54.983 36.6281 54.9737 36.6187H54.9549C54.9455 36.6187 54.9455 36.6187 54.9361 36.6093C54.9267 36.6093 54.9173 36.6 54.8985 36.6C54.8891 36.6 54.8891 36.6 54.8797 36.5906C54.8703 36.5906 54.8609 36.5906 54.8516 36.5812C54.8422 36.5812 54.8328 36.5718 54.8234 36.5718H54.767C54.7576 36.5718 54.7388 36.5531 54.7294 36.5437L54.7201 36.5343C54.7201 36.5343 54.7107 36.5343 54.7107 36.525C54.7107 36.525 54.7013 36.525 54.7013 36.5156H54.6919C54.6825 36.5156 54.6731 36.5062 54.6637 36.5062C54.6449 36.4968 54.6355 36.4875 54.6167 36.4781C54.5886 36.4593 54.5604 36.4406 54.5416 36.4218C54.5228 36.4031 54.4946 36.3843 54.4758 36.3656C54.4571 36.3468 54.4383 36.3281 54.4101 36.3093C54.3819 36.2812 54.3537 36.2437 54.3256 36.2156C54.2974 36.1781 54.2786 36.15 54.2504 36.1125L54.2222 36.0562C54.2035 36.0281 54.1941 36 54.1847 35.9718C54.1753 35.9625 54.1753 35.9437 54.1659 35.9343C54.1189 35.8312 54.0908 35.7093 54.072 35.5875C54.072 35.5687 54.072 35.5593 54.0626 35.55V35.5031C54.0626 35.475 54.0532 35.4468 54.0532 35.4093V32.6906C54.0532 32.5312 54.0438 32.3625 54.0532 32.2031V32.0062C54.0532 31.9875 54.0626 31.9687 54.072 31.95C54.072 31.9406 54.072 31.9406 54.0814 31.9312C54.0814 31.9125 54.0907 31.8937 54.1001 31.875L54.1283 31.7906V31.7812L54.1565 31.725C54.1565 31.7156 54.1659 31.7062 54.1659 31.6968C54.1753 31.6687 54.1941 31.65 54.2035 31.6312C54.2129 31.6125 54.2316 31.5937 54.241 31.575C54.241 31.575 54.241 31.5656 54.2504 31.5656C54.2598 31.5562 54.2598 31.5468 54.2692 31.5375L54.2974 31.5093L54.3256 31.4812L54.3819 31.425C54.4007 31.4062 54.4289 31.3875 54.4477 31.3687C54.4665 31.35 54.4852 31.3406 54.504 31.3312C54.5228 31.3218 54.5416 31.3031 54.5604 31.2937C54.5604 31.2937 54.5698 31.2843 54.5792 31.2843C54.5886 31.275 54.598 31.275 54.6073 31.2656C54.6167 31.2562 54.6355 31.2468 54.6449 31.2468C54.6637 31.2375 54.6731 31.2375 54.6919 31.2281C54.7107 31.2187 54.7294 31.2187 54.7388 31.2093C54.7482 31.2093 54.7576 31.2 54.767 31.2C54.7858 31.1906 54.7952 31.1906 54.814 31.1812C54.8328 31.1812 54.8422 31.1718 54.8516 31.1718C54.8703 31.1625 54.8891 31.1625 54.8985 31.1625H54.9079C54.9643 31.1531 55.03 31.1343 55.0864 31.1343H55.1709C55.8472 31.1062 56.5328 31.1531 57.2091 31.1531H59.7263C60.5059 31.1531 61.1352 31.4812 61.154 32.3437C61.1728 33.15 61.154 33.9562 61.154 34.7625C61.201 34.9968 61.2104 35.2593 61.201 35.5218Z" fill="#0F6296"/>
<path d="M86.7308 29.6813C86.0357 27.6188 84.1854 26.4375 82.0439 26.4375H77.4978C76.4834 26.4375 75.5817 27.2719 75.5817 28.2844V38.625C75.5817 38.9963 75.5867 44.2695 75.5903 49.3925C75.594 54.8596 71.2003 59.25 65.7332 59.25H37.4008C35.4283 59.25 33.4465 59.2219 31.4646 59.2688C31.4553 59.2688 31.4459 59.2781 31.4365 59.2781C31.4083 59.2781 31.3707 59.2875 31.3425 59.2875C31.2862 59.2875 31.2298 59.2969 31.1735 59.3062C31.2298 59.2969 31.2862 59.2969 31.3425 59.2969C30.3281 59.3438 29.464 60.1219 29.464 61.1719C29.4546 61.0594 29.464 60.9469 29.4828 60.8344C29.464 60.9469 29.4546 61.05 29.4546 61.1719V63.6469C29.4546 63.9656 29.4452 64.2844 29.4734 64.6031C29.5579 65.7187 29.9994 66.7594 30.779 67.5656C31.6525 68.4844 32.9017 68.9719 34.1509 68.9812C34.367 68.9812 34.5736 69 34.7896 69H64.4985C66.3394 69 68.1898 69.0469 70.0307 69C71.4396 70.275 72.8391 71.5406 74.248 72.8156C76.8216 75.15 79.3951 77.475 81.9593 79.8094C82.5511 80.3438 83.1428 80.8781 83.7251 81.4125C84.9086 82.4813 86.9374 81.7688 86.9374 80.0813V32.4563C86.9468 31.5469 87.0219 30.5438 86.7308 29.6813Z" fill="#0F6296"/>
</svg>
