<svg width="32" height="32" viewBox="0 0 32 32" fill="none" xmlns="http://www.w3.org/2000/svg">
<path d="M15.9935 2.6665C13.3564 2.6665 10.7785 3.44849 8.58589 4.91358C6.39324 6.37866 4.68427 8.46104 3.6751 10.8974C2.66593 13.3337 2.40189 16.0146 2.91636 18.601C3.43083 21.1875 4.70071 23.5632 6.56541 25.4279C8.43011 27.2926 10.8059 28.5625 13.3923 29.077C15.9787 29.5914 18.6596 29.3274 21.0959 28.3182C23.5323 27.3091 25.6147 25.6001 27.0798 23.4074C28.5448 21.2148 29.3268 18.6369 29.3268 15.9998C29.327 14.2488 28.9822 12.515 28.3122 10.8972C27.6422 9.27948 26.6601 7.80957 25.4219 6.57142C24.1838 5.33328 22.7139 4.35116 21.0961 3.68115C19.4784 3.01114 17.7445 2.66636 15.9935 2.6665ZM20.2328 22.8698C20.1829 22.9942 20.107 23.1066 20.0101 23.1993C19.9133 23.292 19.7977 23.3629 19.6712 23.4073C19.5447 23.4516 19.4101 23.4685 19.2766 23.4566C19.143 23.4447 19.0136 23.4045 18.8968 23.3385L15.2773 20.526L12.9542 22.6692C12.9003 22.709 12.8372 22.7346 12.7708 22.7437C12.7044 22.7528 12.6368 22.745 12.5742 22.7211L13.0195 18.7365L13.0338 18.7478L13.0429 18.6691C13.0429 18.6691 19.5562 12.7391 19.8216 12.4864C20.0902 12.2344 20.0015 12.1798 20.0015 12.1798C20.0168 11.8724 19.5195 12.1798 19.5195 12.1798L10.8895 17.7318L7.29551 16.5078C7.29551 16.5078 6.74351 16.3098 6.69151 15.8745C6.63684 15.4425 7.3135 15.2078 7.3135 15.2078L21.6028 9.53116C21.6028 9.53116 22.7775 9.0078 22.7775 9.8745L20.2328 22.8698Z" fill="#227EB7"/>
</svg>
