<svg width="97" height="96" viewBox="0 0 97 96" fill="none" xmlns="http://www.w3.org/2000/svg">
<path d="M43.4822 76.032C44.9249 76.032 46.3516 75.936 47.7783 75.76C47.1371 73.696 46.7844 71.504 46.7844 69.232C46.7844 57.12 56.6589 47.28 68.7937 47.28C71.647 47.28 74.3722 47.824 76.8728 48.816C77.3377 46.592 77.5621 44.32 77.5621 42.016C77.5621 23.264 62.2855 8 43.4822 8C24.695 8 9.40234 23.264 9.40234 42.016C9.40234 60.784 24.695 76.032 43.4822 76.032ZM69.2105 40.416H70.0601C70.9578 40.416 71.6631 41.136 71.6631 42.016C71.6631 42.896 70.9578 43.616 70.0601 43.616H69.2105C68.3128 43.616 67.6075 42.896 67.6075 42.016C67.6075 41.136 68.3128 40.416 69.2105 40.416ZM60.5382 22.736L61.1474 22.128C61.2957 21.9797 61.4718 21.862 61.6657 21.7817C61.8597 21.7014 62.0675 21.6601 62.2775 21.6601C62.4874 21.6601 62.6953 21.7014 62.8892 21.7817C63.0831 21.862 63.2593 21.9797 63.4076 22.128C64.0488 22.752 64.0488 23.76 63.4236 24.384L62.7985 24.992C62.4939 25.312 62.0771 25.472 61.6764 25.472C61.2596 25.472 60.8588 25.312 60.5382 24.992C60.3896 24.844 60.2717 24.6682 60.1913 24.4746C60.1108 24.281 60.0694 24.0735 60.0694 23.864C60.0694 23.6544 60.1108 23.447 60.1913 23.2534C60.2717 23.0598 60.3896 22.884 60.5382 22.736ZM45.0852 68.544C45.0852 69.44 44.3639 70.144 43.4822 70.144C42.6006 70.144 41.8792 69.44 41.8792 68.544V67.68C41.8792 66.8 42.6006 66.08 43.4822 66.08C44.3639 66.08 45.0852 66.8 45.0852 67.68V68.544ZM41.8792 15.488C41.8792 14.608 42.6006 13.888 43.4822 13.888C44.3639 13.888 45.0852 14.608 45.0852 15.488V16.352C45.0852 17.232 44.3639 17.952 43.4822 17.952C42.6006 17.952 41.8792 17.232 41.8792 16.352V15.488ZM29.8567 53.36L41.8792 41.36V24.512C41.8792 23.632 42.6006 22.912 43.4822 22.912C44.3639 22.912 45.0852 23.632 45.0852 24.512V42.016C45.0852 42.448 44.9249 42.848 44.6204 43.152L32.1169 55.616C31.9709 55.7683 31.7955 55.8894 31.6012 55.9722C31.407 56.055 31.198 56.0977 30.9868 56.0977C30.7756 56.0977 30.5666 56.055 30.3724 55.9722C30.1782 55.8894 30.0027 55.7683 29.8567 55.616C29.7081 55.468 29.5902 55.2922 29.5098 55.0986C29.4293 54.905 29.3879 54.6975 29.3879 54.488C29.3879 54.2785 29.4293 54.071 29.5098 53.8774C29.5902 53.6838 29.7081 53.508 29.8567 53.36ZM23.5569 22.128C24.1821 21.504 25.208 21.504 25.8332 22.128L26.4423 22.736C27.0675 23.36 27.0675 24.368 26.4263 24.992C26.1217 25.312 25.7049 25.472 25.3042 25.472C24.8874 25.472 24.4866 25.312 24.166 24.992L23.5569 24.384C23.4083 24.236 23.2904 24.0602 23.2099 23.8666C23.1295 23.673 23.0881 23.4655 23.0881 23.256C23.0881 23.0464 23.1295 22.839 23.2099 22.6454C23.2904 22.4518 23.4083 22.276 23.5569 22.128ZM23.5569 59.648L24.166 59.04C24.3143 58.8917 24.4905 58.774 24.6844 58.6937C24.8783 58.6134 25.0862 58.5721 25.2961 58.5721C25.5061 58.5721 25.714 58.6134 25.9079 58.6937C26.1018 58.774 26.278 58.8917 26.4263 59.04C27.0675 59.664 27.0675 60.672 26.4423 61.296L25.8332 61.904C25.5125 62.224 25.0958 62.384 24.695 62.384C24.2782 62.384 23.8775 62.224 23.5569 61.904C23.4083 61.756 23.2904 61.5802 23.2099 61.3866C23.1295 61.193 23.0881 60.9855 23.0881 60.776C23.0881 60.5664 23.1295 60.359 23.2099 60.1654C23.2904 59.9718 23.4083 59.796 23.5569 59.648ZM16.9044 40.416H17.77C18.6517 40.416 19.373 41.136 19.373 42.016C19.373 42.896 18.6517 43.616 17.77 43.616H16.9044C16.0228 43.616 15.3014 42.896 15.3014 42.016C15.3014 41.136 16.0228 40.416 16.9044 40.416Z" fill="#0F6296"/>
<path fill-rule="evenodd" clip-rule="evenodd" d="M68.7954 88C58.44 88 49.9922 79.584 49.9922 69.232C49.9922 58.896 58.44 50.48 68.7954 50.48C79.1669 50.48 87.5987 58.896 87.5987 69.232C87.5987 79.584 79.1669 88 68.7954 88ZM72.6253 74.9155H67.1446C67.2845 74.7898 67.3622 74.7191 67.3778 74.7034C71.2804 71.215 73.2317 68.0017 73.2317 65.0633C73.2317 63.8691 72.8275 62.8556 72.019 62.0227C71.1949 61.1742 70.0599 60.75 68.6139 60.75C66.5926 60.75 65.0999 61.5671 64.1359 63.2013C63.996 63.4527 63.926 63.7041 63.926 63.9555C63.926 64.4269 64.1282 64.7804 64.5324 65.0161C64.6879 65.1261 64.89 65.1811 65.1388 65.1811C65.6208 65.1811 66.0251 64.9533 66.3516 64.4976C66.8647 63.8062 67.5177 63.4605 68.3107 63.4605C68.9793 63.4605 69.4923 63.6491 69.85 64.0262C70.2076 64.4033 70.3864 64.9297 70.3864 65.6054C70.3864 66.9724 69.6012 68.638 68.0308 70.6022C67.5022 71.2779 66.2117 72.6764 64.1593 74.7976C63.7395 75.2219 63.5296 75.6854 63.5296 76.1883C63.5296 76.534 63.6462 76.8325 63.8794 77.0839C64.1282 77.3196 64.4236 77.4375 64.7657 77.4375H72.6253C72.9674 77.4375 73.255 77.3118 73.4883 77.0604C73.737 76.8089 73.8614 76.5104 73.8614 76.1647C73.8614 75.819 73.737 75.5283 73.4883 75.2926C73.255 75.0412 72.9674 74.9155 72.6253 74.9155Z" fill="#0F6296"/>
</svg>
