<svg width="238" height="59" viewBox="0 0 238 59" fill="none" xmlns="http://www.w3.org/2000/svg">
<mask id="path-1-outside-1_25_233" maskUnits="userSpaceOnUse" x="-1" y="-1" width="240" height="61" fill="black">
<rect fill="white" x="-1" y="-1" width="240" height="61"/>
<path d="M9.405 41.911C9.14167 43.4383 8.98367 45.0183 8.931 46.651C8.87833 48.231 9.06267 49.6267 9.484 50.838C9.958 52.0493 10.7217 52.971 11.775 53.603C12.8283 54.235 14.3557 54.314 16.357 53.84V53.761C14.6717 54.0243 13.3813 53.8137 12.486 53.129C11.5907 52.3917 10.985 51.4173 10.669 50.206C10.353 48.9947 10.2213 47.6517 10.274 46.177C10.3793 44.7023 10.5637 43.3067 10.827 41.99L15.804 14.34C16.436 10.864 16.199 8.12533 15.093 6.124C13.987 4.07 12.091 3.14833 9.405 3.359V3.438C11.459 3.54333 12.96 4.43866 13.908 6.124C14.856 7.75666 15.014 10.39 14.382 14.024L9.405 41.911ZM77.503 1.937L69.919 44.597C69.287 48.073 69.524 50.8117 70.63 52.813C71.736 54.8143 73.632 55.7097 76.318 55.499V55.42C74.264 55.3147 72.763 54.4457 71.815 52.813C70.867 51.1803 70.709 48.547 71.341 44.913L78.925 1.937H83.586L75.607 47.362C75.291 49.1 75.449 50.6273 76.081 51.944C76.713 53.2607 77.9243 53.919 79.715 53.919C80.347 53.919 80.9527 53.7347 81.532 53.366C82.164 52.9973 82.6907 52.497 83.112 51.865C83.586 51.233 83.9283 50.4957 84.139 49.653C84.4023 48.7577 84.4813 47.7833 84.376 46.73L84.929 46.414C85.1397 48.2573 85.0343 49.9163 84.613 51.391C84.1917 52.813 83.5333 54.0243 82.638 55.025C81.7427 56.0257 80.663 56.7893 79.399 57.316C78.135 57.8427 76.792 58.106 75.37 58.106C73.158 58.106 71.3147 57.7373 69.84 57C68.418 56.2627 67.312 55.2357 66.522 53.919C65.732 52.6023 65.258 51.0487 65.1 49.258C64.942 47.4673 65.0473 45.4923 65.416 43.333L66.601 36.697C65.1263 39.699 63.4673 42.5167 61.624 45.15C59.8333 47.7307 57.911 49.9953 55.857 51.944C53.8557 53.84 51.7753 55.341 49.616 56.447C47.4567 57.553 45.3237 58.106 43.217 58.106C40.8997 58.106 39.109 57.5793 37.845 56.526C36.6337 55.42 35.7647 54.0243 35.238 52.339C34.7113 50.601 34.5007 48.6787 34.606 46.572C34.7113 44.4653 34.9483 42.3587 35.317 40.252L36.107 36.46C34.6323 39.462 32.9733 42.2797 31.13 44.913C29.3393 47.4937 27.417 49.7583 25.363 51.707C23.3617 53.603 21.2813 55.104 19.122 56.21C16.9627 57.316 14.8297 57.869 12.723 57.869C10.4057 57.869 8.615 57.3423 7.351 56.289C6.13967 55.183 5.27067 53.7873 4.744 52.102C4.21733 50.364 4.00667 48.4417 4.112 46.335C4.21733 44.2283 4.45433 42.1217 4.823 40.015L9.8 11.575C10.116 9.837 9.958 8.30966 9.326 6.993C8.694 5.67633 7.48267 5.018 5.692 5.018C5.06 5.018 4.428 5.20233 3.796 5.571C3.21667 5.93966 2.69 6.44 2.216 7.072C1.79467 7.704 1.45233 8.46767 1.189 9.363C0.978334 10.2583 0.925667 11.2063 1.031 12.207L0.478 12.523C0.214667 10.6797 0.293667 9.047 0.715 7.625C1.189 6.15033 1.87367 4.91266 2.769 3.912C3.717 2.91133 4.823 2.14766 6.087 1.621C7.351 1.09433 8.66767 0.830998 10.037 0.830998C12.249 0.830998 14.066 1.19966 15.488 1.937C16.9627 2.67433 18.095 3.70133 18.885 5.018C19.675 6.33466 20.149 7.91466 20.307 9.758C20.465 11.5487 20.3597 13.4973 19.991 15.604L15.725 40.015C15.5143 41.279 15.33 42.5693 15.172 43.886C15.014 45.2027 15.0403 46.3877 15.251 47.441C15.4617 48.4943 15.883 49.3633 16.515 50.048C17.1997 50.68 18.253 50.996 19.675 50.996C21.1497 50.996 22.677 50.443 24.257 49.337C25.837 48.231 27.3907 46.7563 28.918 44.913C30.4453 43.017 31.8937 40.8577 33.263 38.435C34.685 35.9597 35.949 33.4053 37.055 30.772L42.19 1.7H47.167L39.583 44.36C38.951 47.836 39.188 50.5747 40.294 52.576C41.4 54.5773 43.296 55.4727 45.982 55.262V55.183C43.928 55.0777 42.427 54.2087 41.479 52.576C40.531 50.9433 40.373 48.31 41.005 44.676L48.589 1.7H53.092L46.219 40.252C46.0083 41.516 45.824 42.8063 45.666 44.123C45.508 45.4397 45.5343 46.6247 45.745 47.678C45.9557 48.7313 46.377 49.6003 47.009 50.285C47.6937 50.917 48.747 51.233 50.169 51.233C51.6437 51.233 53.171 50.68 54.751 49.574C56.331 48.468 57.8847 46.9933 59.412 45.15C60.9393 43.254 62.3877 41.0947 63.757 38.672C65.179 36.1967 66.443 33.6423 67.549 31.009L72.684 1.937H77.503ZM140.287 47.125C139.971 48.863 140.129 50.3903 140.761 51.707C141.393 53.0237 142.604 53.682 144.395 53.682C145.027 53.682 145.633 53.4977 146.212 53.129C146.844 52.7603 147.371 52.26 147.792 51.628C148.266 50.996 148.608 50.2587 148.819 49.416C149.082 48.5207 149.161 47.5463 149.056 46.493L149.609 46.177C149.82 48.0203 149.714 49.6793 149.293 51.154C148.872 52.576 148.187 53.7873 147.239 54.788C146.344 55.7887 145.264 56.5523 144 57.079C142.789 57.6057 141.472 57.869 140.05 57.869C137.838 57.869 135.995 57.5003 134.52 56.763C133.098 56.0257 131.992 54.9987 131.202 53.682C130.412 52.3653 129.938 50.8117 129.78 49.021C129.622 47.2303 129.727 45.2553 130.096 43.096L132.387 29.745H113.427C111.742 35.6963 110.083 40.5153 108.45 44.202C106.817 47.836 105.237 50.6537 103.71 52.655C102.183 54.6037 100.708 55.9203 99.286 56.605C97.9167 57.237 96.679 57.553 95.573 57.553C94.5723 57.553 93.5717 57.3423 92.571 56.921C91.623 56.4997 90.754 55.9467 89.964 55.262C89.2267 54.5247 88.5947 53.682 88.068 52.734C87.5413 51.786 87.199 50.7853 87.041 49.732V49.653C87.041 48.9157 87.278 48.1783 87.752 47.441C88.2787 46.651 89.0687 46.256 90.122 46.256C91.1227 46.256 91.86 46.5983 92.334 47.283C92.8607 47.915 93.203 48.7313 93.361 49.732C93.519 50.68 93.5453 51.707 93.44 52.813C93.3347 53.919 93.203 54.8933 93.045 55.736C93.7297 56.052 94.5197 56.21 95.415 56.21C96.5737 56.21 97.706 55.736 98.812 54.788C99.918 53.84 100.971 52.576 101.972 50.996C103.025 49.3633 104.026 47.4937 104.974 45.387C105.922 43.2277 106.817 40.9367 107.66 38.514C108.503 36.0913 109.293 33.616 110.03 31.088C110.82 28.56 111.531 26.0847 112.163 23.662C113.374 19.238 115.244 15.367 117.772 12.049C120.3 8.731 123.565 6.30833 127.568 4.781C125.725 3.62233 123.644 2.885 121.327 2.569C119.01 2.20033 116.666 2.253 114.296 2.727C111.926 3.14833 109.609 3.991 107.344 5.255C105.079 6.46633 103.052 8.07266 101.261 10.074C99.523 12.0753 98.101 14.4453 96.995 17.184C95.9417 19.87 95.415 22.8983 95.415 26.269C95.415 28.955 95.9943 31.5093 97.153 33.932C98.3117 36.3547 100.181 38.4613 102.762 40.252V40.884C99.128 39.462 96.442 37.329 94.704 34.485C93.0187 31.5883 92.176 28.4547 92.176 25.084C92.176 20.976 92.9397 17.421 94.467 14.419C96.047 11.3643 98.101 8.83633 100.629 6.835C103.21 4.83366 106.106 3.359 109.319 2.411C112.584 1.41033 115.876 0.909997 119.194 0.909997C123.671 0.909997 127.91 1.80533 131.913 3.596C135.442 2.91133 139.497 2.964 144.079 3.754V4.386C139.918 3.80666 136.337 3.754 133.335 4.228C135.231 5.22866 136.916 6.44 138.391 7.862C139.918 9.284 141.156 10.9167 142.104 12.76C143.105 14.6033 143.763 16.6573 144.079 18.922C144.448 21.1867 144.395 23.662 143.921 26.348L140.287 47.125ZM133.651 22.793C134.388 18.5797 134.23 15.051 133.177 12.207C132.176 9.31033 130.623 7.072 128.516 5.492C126.515 6.282 124.777 7.309 123.302 8.573C121.827 9.837 120.563 11.2853 119.51 12.918C118.457 14.5507 117.561 16.3413 116.824 18.29C116.087 20.186 115.455 22.161 114.928 24.215L114.296 26.743H132.94L133.651 22.793ZM134.52 44.36C133.888 47.836 134.125 50.5747 135.231 52.576C136.337 54.5773 138.233 55.4727 140.919 55.262V55.183C138.865 55.0777 137.364 54.2087 136.416 52.576C135.468 50.8907 135.31 48.2573 135.942 44.676L139.813 22.793C140.34 19.8437 140.076 16.9733 139.023 14.182C138.022 11.338 136.337 9.047 133.967 7.309L133.888 7.388C135.995 9.23133 137.39 11.5487 138.075 14.34C138.812 17.0787 138.918 19.87 138.391 22.714L134.52 44.36ZM176.265 23.504C176.581 22.082 177.134 20.8443 177.924 19.791C178.714 18.7377 179.609 17.895 180.61 17.263C181.663 16.5783 182.769 16.078 183.928 15.762C185.139 15.3933 186.298 15.209 187.404 15.209C188.194 15.209 188.984 15.3143 189.774 15.525C190.564 15.7357 191.275 16.0517 191.907 16.473C192.591 16.8943 193.118 17.4473 193.487 18.132C193.908 18.8167 194.119 19.633 194.119 20.581L193.566 20.897C193.46 20.0017 193.092 19.396 192.46 19.08C191.88 18.7113 191.327 18.527 190.801 18.527C189.958 18.527 189.247 18.8693 188.668 19.554C188.088 20.2387 187.667 21.1077 187.404 22.161L181.716 48.31C181.242 50.522 180.188 52.3127 178.556 53.682C176.923 55.0513 175.001 56.0783 172.789 56.763C170.577 57.395 168.259 57.6847 165.837 57.632C163.467 57.5793 161.255 57.2633 159.201 56.684C157.147 56.052 155.461 55.1567 154.145 53.998C152.828 52.7867 152.17 51.3647 152.17 49.732V49.653C152.17 48.9157 152.407 48.1783 152.881 47.441C153.407 46.651 154.197 46.256 155.251 46.256C156.251 46.256 156.989 46.5457 157.463 47.125C157.989 47.7043 158.332 48.4417 158.49 49.337C158.7 50.1797 158.753 51.1013 158.648 52.102C158.595 53.1027 158.49 54.0243 158.332 54.867C159.543 55.341 160.781 55.6043 162.045 55.657C163.361 55.657 164.599 55.42 165.758 54.946C166.916 54.472 167.917 53.761 168.76 52.813C169.655 51.8123 170.287 50.5483 170.656 49.021L173.658 35.354L176.265 23.504ZM164.573 30.772C163.151 30.5613 161.834 30.1137 160.623 29.429C159.411 28.6917 158.358 27.7963 157.463 26.743C156.62 25.6897 155.962 24.4783 155.488 23.109C155.014 21.7397 154.777 20.265 154.777 18.685C154.777 16.631 155.172 14.577 155.962 12.523C156.804 10.4163 158.016 8.52033 159.596 6.835C161.176 5.14966 163.098 3.78033 165.363 2.727C167.68 1.621 170.313 1.068 173.263 1.068C175.633 1.068 177.924 1.19967 180.136 1.463C182.4 1.72633 184.507 2.04233 186.456 2.411C188.404 2.727 190.169 3.01666 191.749 3.28C193.329 3.54333 194.645 3.675 195.699 3.675C196.91 3.675 197.884 3.56967 198.622 3.359C199.412 3.09567 200.017 2.806 200.439 2.49C200.913 2.174 201.255 1.83166 201.466 1.463C201.729 1.04167 201.966 0.672998 202.177 0.356999L202.73 0.672995C202.73 1.35766 202.651 2.411 202.493 3.833C202.387 5.255 202.019 6.677 201.387 8.099C200.755 9.521 199.754 10.785 198.385 11.891C197.068 12.9443 195.198 13.471 192.776 13.471C192.038 13.471 190.932 13.3393 189.458 13.076C187.983 12.8127 186.298 12.5493 184.402 12.286C182.506 11.97 180.478 11.6803 178.319 11.417C176.159 11.1537 174.026 11.022 171.92 11.022C169.971 11.022 168.233 11.3643 166.706 12.049C165.178 12.7337 163.862 13.629 162.756 14.735C161.702 15.841 160.886 17.0787 160.307 18.448C159.78 19.8173 159.517 21.1867 159.517 22.556C159.517 24.2413 159.938 25.795 160.781 27.217C161.623 28.5863 162.887 29.5607 164.573 30.14V30.772ZM157.384 20.423C157.542 18.527 158.068 16.7363 158.964 15.051C159.859 13.3657 160.991 11.9173 162.361 10.706C163.783 9.442 165.363 8.44133 167.101 7.704C168.839 6.96667 170.629 6.598 172.473 6.598C174.158 6.598 175.843 6.72967 177.529 6.993C179.214 7.20367 180.899 7.467 182.585 7.783C184.323 8.04633 186.061 8.30966 187.799 8.573C189.589 8.83633 191.406 9.02066 193.25 9.126C194.619 9.23133 195.751 9.07333 196.647 8.652C197.595 8.178 198.411 7.546 199.096 6.756H199.017C198.49 7.23 197.805 7.57233 196.963 7.783C196.12 7.941 195.172 7.99367 194.119 7.941C192.328 7.88833 190.537 7.73033 188.747 7.467C187.009 7.151 185.244 6.835 183.454 6.519C181.716 6.15033 179.925 5.83433 178.082 5.571C176.291 5.30767 174.448 5.176 172.552 5.176C170.445 5.176 168.444 5.62366 166.548 6.519C164.652 7.36166 162.993 8.52033 161.571 9.995C160.201 11.417 159.122 13.0497 158.332 14.893C157.542 16.6837 157.199 18.527 157.305 20.423H157.384ZM175.949 46.888C175.475 49.258 174.843 51.0223 174.053 52.181C173.263 53.287 172.42 54.0507 171.525 54.472V54.551C172.736 54.077 173.895 53.208 175.001 51.944C176.159 50.68 176.976 48.863 177.45 46.493L181.795 25.795C182.269 23.425 182.848 21.687 183.533 20.581C184.27 19.4223 185.165 18.5797 186.219 18.053V17.974C184.586 18.5533 183.296 19.475 182.348 20.739C181.452 22.003 180.768 23.82 180.294 26.19L175.949 46.888ZM216.915 21.055L216.994 20.423L230.74 9.047L222.366 57H216.046L216.125 56.368C216.546 56.368 216.941 56.21 217.31 55.894C217.678 55.578 217.915 55.2093 218.021 54.788L224.262 19.238L216.915 21.055ZM237.613 4.86L228.923 54.788C228.817 55.2093 228.896 55.578 229.16 55.894C229.423 56.21 229.765 56.368 230.187 56.368L230.108 57H223.788L232.399 7.704L236.902 3.912L237.613 4.86Z"/>
</mask>
<path d="M9.405 41.911L8.42054 41.7353L8.41954 41.7411L9.405 41.911ZM8.931 46.651L9.93045 46.6843L9.93048 46.6832L8.931 46.651ZM9.484 50.838L8.5395 51.1665L8.54579 51.1846L8.55276 51.2024L9.484 50.838ZM11.775 53.603L11.2605 54.4605L11.775 53.603ZM16.357 53.84L16.5875 54.8131L17.357 54.6308V53.84H16.357ZM16.357 53.761H17.357V52.5926L16.2026 52.773L16.357 53.761ZM12.486 53.129L11.8503 53.9009L11.8642 53.9124L11.8786 53.9234L12.486 53.129ZM10.274 46.177L9.27654 46.1058L9.27527 46.1235L9.27464 46.1413L10.274 46.177ZM10.827 41.99L11.8076 42.1861L11.8095 42.1767L11.8112 42.1672L10.827 41.99ZM15.804 14.34L14.8201 14.1611L14.8198 14.1628L15.804 14.34ZM15.093 6.124L14.2125 6.59812L14.2178 6.60768L15.093 6.124ZM9.405 3.359L9.32681 2.36206L8.405 2.43436V3.359H9.405ZM9.405 3.438H8.405V4.38803L9.35379 4.43669L9.405 3.438ZM13.908 6.124L13.0363 6.6143L13.0432 6.62613L13.908 6.124ZM14.382 14.024L15.3665 14.1997L15.3672 14.1953L14.382 14.024ZM77.503 1.937L78.4876 2.11203L78.6965 0.936998H77.503V1.937ZM69.919 44.597L70.9029 44.7759L70.9036 44.772L69.919 44.597ZM70.63 52.813L69.7548 53.2967V53.2967L70.63 52.813ZM76.318 55.499L76.3962 56.4959L77.318 56.4236V55.499H76.318ZM76.318 55.42H77.318V54.47L76.3692 54.4213L76.318 55.42ZM71.815 52.813L72.6798 52.3109L71.815 52.813ZM71.341 44.913L70.3562 44.7392L70.3558 44.7417L71.341 44.913ZM78.925 1.937V0.936998H78.086L77.9402 1.76321L78.925 1.937ZM83.586 1.937L84.5709 2.11L84.777 0.936998H83.586V1.937ZM75.607 47.362L76.5909 47.5409L76.5919 47.535L75.607 47.362ZM76.081 51.944L76.9825 51.5113L76.081 51.944ZM81.532 53.366L81.0281 52.5022L81.0114 52.512L80.9951 52.5223L81.532 53.366ZM83.112 51.865L82.312 51.265L82.2953 51.2872L82.28 51.3103L83.112 51.865ZM84.139 49.653L83.1796 49.3708L83.1738 49.3905L83.1689 49.4105L84.139 49.653ZM84.376 46.73L83.8799 45.8618L83.3164 46.1837L83.381 46.8295L84.376 46.73ZM84.929 46.414L85.9225 46.3004L85.7502 44.793L84.4329 45.5458L84.929 46.414ZM84.613 51.391L85.5718 51.6751L85.5745 51.6657L84.613 51.391ZM82.638 55.025L83.3832 55.6918L82.638 55.025ZM79.399 57.316L79.7836 58.2391V58.2391L79.399 57.316ZM69.84 57L69.3797 57.8878L69.3862 57.8911L69.3928 57.8944L69.84 57ZM66.522 53.919L65.6645 54.4335L66.522 53.919ZM65.1 49.258L66.0961 49.1701L65.1 49.258ZM65.416 43.333L64.4315 43.1572L64.4303 43.1647L65.416 43.333ZM66.601 36.697L67.5854 36.8728L65.7034 36.2561L66.601 36.697ZM61.624 45.15L60.8048 44.5765L60.8024 44.5799L61.624 45.15ZM55.857 51.944L56.5448 52.67L56.5453 52.6695L55.857 51.944ZM37.845 56.526L37.1707 57.2645L37.1874 57.2797L37.2048 57.2942L37.845 56.526ZM35.238 52.339L34.2809 52.629L34.2835 52.6373L35.238 52.339ZM34.606 46.572L33.6072 46.5221V46.5221L34.606 46.572ZM35.317 40.252L34.338 40.048L34.3347 40.0638L34.332 40.0796L35.317 40.252ZM36.107 36.46L37.086 36.664L35.2094 36.0191L36.107 36.46ZM31.13 44.913L30.3108 44.3395L30.3084 44.3429L31.13 44.913ZM25.363 51.707L26.0507 52.433L26.0513 52.4325L25.363 51.707ZM19.122 56.21L18.6661 55.32L19.122 56.21ZM7.351 56.289L6.67673 57.0275L6.69344 57.0427L6.71082 57.0572L7.351 56.289ZM4.744 52.102L3.78694 52.392L3.78952 52.4003L4.744 52.102ZM4.112 46.335L5.11075 46.3849L4.112 46.335ZM4.823 40.015L5.80803 40.1874L4.823 40.015ZM9.8 11.575L8.81611 11.3961L8.81497 11.4026L9.8 11.575ZM9.326 6.993L8.42448 7.42573L8.42448 7.42573L9.326 6.993ZM3.796 5.571L3.29213 4.70722L3.27543 4.71696L3.25913 4.72734L3.796 5.571ZM2.216 7.072L1.416 6.472L1.39935 6.4942L1.38395 6.5173L2.216 7.072ZM1.189 9.363L0.229635 9.08083L0.221879 9.1072L0.215583 9.13396L1.189 9.363ZM1.031 12.207L1.52714 13.0752L2.09383 12.7514L2.02551 12.1023L1.031 12.207ZM0.478 12.523L-0.51195 12.6644L-0.303796 14.1215L0.97414 13.3912L0.478 12.523ZM0.715 7.625L-0.237029 7.31899L-0.240539 7.32991L-0.243798 7.34091L0.715 7.625ZM2.769 3.912L2.04305 3.22425L2.03325 3.23459L2.02376 3.2452L2.769 3.912ZM6.087 1.621L6.47162 2.54407V2.54407L6.087 1.621ZM15.488 1.937L15.0277 2.82475L15.0342 2.82814L15.0408 2.83143L15.488 1.937ZM18.885 5.018L19.7425 4.5035L19.7425 4.5035L18.885 5.018ZM20.307 9.758L19.3106 9.8434L19.3109 9.84589L20.307 9.758ZM19.991 15.604L19.006 15.4316L19.0059 15.4318L19.991 15.604ZM15.725 40.015L14.7399 39.8428L14.7386 39.8506L15.725 40.015ZM15.172 43.886L14.1791 43.7669L15.172 43.886ZM15.251 47.441L16.2316 47.2449L15.251 47.441ZM16.515 50.048L15.7802 50.7263L15.8073 50.7557L15.8367 50.7828L16.515 50.048ZM24.257 49.337L24.8305 50.1562L24.257 49.337ZM28.918 44.913L29.6881 45.5511L29.6968 45.5403L28.918 44.913ZM33.263 38.435L32.3959 37.9369L32.3924 37.9429L33.263 38.435ZM37.055 30.772L37.977 31.1592L38.0203 31.0561L38.0398 30.9459L37.055 30.772ZM42.19 1.7V0.699996H41.3512L41.2052 1.52606L42.19 1.7ZM47.167 1.7L48.1516 1.87503L48.3605 0.699996H47.167V1.7ZM39.583 44.36L40.5669 44.5389L40.5676 44.535L39.583 44.36ZM40.294 52.576L39.4188 53.0597L40.294 52.576ZM45.982 55.262L46.0602 56.2589L46.982 56.1866V55.262H45.982ZM45.982 55.183H46.982V54.233L46.0332 54.1843L45.982 55.183ZM41.479 52.576L40.6142 53.0781L41.479 52.576ZM41.005 44.676L40.0202 44.5022L40.0198 44.5047L41.005 44.676ZM48.589 1.7V0.699996H47.75L47.6042 1.52621L48.589 1.7ZM53.092 1.7L54.0765 1.87551L54.286 0.699996H53.092V1.7ZM46.219 40.252L45.2345 40.0765L45.2326 40.0876L46.219 40.252ZM45.666 44.123L46.6589 44.2421L46.6589 44.2421L45.666 44.123ZM47.009 50.285L46.2742 50.9633L46.3013 50.9927L46.3307 51.0198L47.009 50.285ZM54.751 49.574L55.3245 50.3932L54.751 49.574ZM59.412 45.15L60.1821 45.7881L60.1908 45.7773L59.412 45.15ZM63.757 38.672L62.8899 38.1739L62.8864 38.1799L63.757 38.672ZM67.549 31.009L68.471 31.3962L68.5143 31.2931L68.5338 31.1829L67.549 31.009ZM72.684 1.937V0.936998H71.8452L71.6992 1.76306L72.684 1.937ZM8.41954 41.7411C8.14795 43.3163 7.9856 44.9424 7.93152 46.6188L9.93048 46.6832C9.98174 45.0943 10.1354 43.5604 10.3905 42.0809L8.41954 41.7411ZM7.93156 46.6177C7.87571 48.293 8.06956 49.8154 8.5395 51.1665L10.4285 50.5095C10.0558 49.4379 9.88096 48.169 9.93045 46.6843L7.93156 46.6177ZM8.55276 51.2024C9.10225 52.6067 10.0059 53.7078 11.2605 54.4605L12.2895 52.7455C11.4374 52.2342 10.8137 51.492 10.4152 50.4736L8.55276 51.2024ZM11.2605 54.4605C12.6477 55.2928 14.4932 55.3091 16.5875 54.8131L16.1265 52.8669C14.2181 53.3189 13.0089 53.1772 12.2895 52.7455L11.2605 54.4605ZM17.357 53.84V53.761H15.357V53.84H17.357ZM16.2026 52.773C14.6497 53.0156 13.682 52.7847 13.0935 52.3346L11.8786 53.9234C13.0807 54.8427 14.6936 55.033 16.5114 54.749L16.2026 52.773ZM13.1217 52.3571C12.4021 51.7644 11.9039 50.9782 11.6366 49.9536L9.70138 50.4584C10.0661 51.8565 10.7793 53.0189 11.8503 53.9009L13.1217 52.3571ZM11.6366 49.9536C11.3491 48.8513 11.2236 47.6071 11.2734 46.2127L9.27464 46.1413C9.21911 47.6962 9.35695 49.1381 9.70138 50.4584L11.6366 49.9536ZM11.2715 46.2482C11.3741 44.8114 11.5533 43.4577 11.8076 42.1861L9.84642 41.7939C9.57407 43.1557 9.38457 44.5933 9.27654 46.1058L11.2715 46.2482ZM11.8112 42.1672L16.7882 14.5172L14.8198 14.1628L9.84282 41.8128L11.8112 42.1672ZM16.7879 14.5189C17.4398 10.9334 17.2323 7.92759 15.9682 5.64031L14.2178 6.60768C15.1657 8.32307 15.4322 10.7946 14.8201 14.1611L16.7879 14.5189ZM15.9735 5.6499C15.3321 4.45879 14.4355 3.5552 13.2787 2.99288C12.132 2.43544 10.7988 2.24661 9.32681 2.36206L9.48319 4.35594C10.6972 4.26072 11.655 4.42739 12.4043 4.79162C13.1435 5.15096 13.7479 5.7352 14.2125 6.5981L15.9735 5.6499ZM8.405 3.359V3.438H10.405V3.359H8.405ZM9.35379 4.43669C11.0915 4.52579 12.2691 5.25007 13.0364 6.61426L14.7796 5.63373C13.6509 3.62726 11.8265 2.56086 9.45621 2.43931L9.35379 4.43669ZM13.0432 6.62613C13.8033 7.93524 14.0214 10.2609 13.3968 13.8527L15.3672 14.1953C16.0066 10.5191 15.9087 7.57808 14.7728 5.62186L13.0432 6.62613ZM13.3976 13.8483L8.42056 41.7353L10.3894 42.0867L15.3664 14.1997L13.3976 13.8483ZM76.5184 1.76196L68.9344 44.422L70.9036 44.772L78.4876 2.11203L76.5184 1.76196ZM68.9351 44.4181C68.2832 48.0036 68.4907 51.0094 69.7548 53.2967L71.5052 52.3293C70.5573 50.6139 70.2908 48.1424 70.9029 44.7759L68.9351 44.4181ZM69.7548 53.2967C70.3996 54.4636 71.2993 55.3442 72.4545 55.8897C73.5987 56.4301 74.928 56.6111 76.3962 56.4959L76.2398 54.5021C75.022 54.5976 74.0603 54.4363 73.3085 54.0813C72.5677 53.7314 71.9664 53.1637 71.5052 52.3293L69.7548 53.2967ZM77.318 55.499V55.42H75.318V55.499H77.318ZM76.3692 54.4213C74.6171 54.3315 73.4407 53.6213 72.6798 52.3109L70.9502 53.3151C72.0853 55.27 73.911 56.2979 76.2668 56.4187L76.3692 54.4213ZM72.6798 52.3109C71.9197 51.0018 71.7016 48.6761 72.3262 45.0843L70.3558 44.7417C69.7165 48.4179 69.8143 51.3589 70.9502 53.3151L72.6798 52.3109ZM72.3258 45.0868L79.9098 2.11078L77.9402 1.76321L70.3562 44.7392L72.3258 45.0868ZM78.925 2.937H83.586V0.936998H78.925V2.937ZM82.6011 1.76399L74.6221 47.189L76.5919 47.535L84.5709 2.11L82.6011 1.76399ZM74.6231 47.1831C74.2775 49.0842 74.4385 50.833 75.1795 52.3767L76.9825 51.5113C76.4595 50.4217 76.3045 49.1158 76.5909 47.5409L74.6231 47.1831ZM75.1795 52.3767C75.5807 53.2126 76.1843 53.8682 76.986 54.3039C77.7755 54.733 78.7012 54.919 79.715 54.919V52.919C78.9381 52.919 78.3628 52.7759 77.941 52.5466C77.5313 52.324 77.2133 51.992 76.9825 51.5113L75.1795 52.3767ZM79.715 54.919C80.5536 54.919 81.3435 54.6712 82.0689 54.2097L80.9951 52.5223C80.5618 52.7981 80.1404 52.919 79.715 52.919V54.919ZM82.0359 54.2298C82.8044 53.7815 83.4416 53.1734 83.9441 52.4197L82.28 51.3103C81.9397 51.8206 81.5236 52.2132 81.0281 52.5022L82.0359 54.2298ZM83.912 52.465C84.4736 51.7162 84.8694 50.8546 85.1091 49.8955L83.1689 49.4105C82.9873 50.1368 82.6984 50.7498 82.312 51.265L83.912 52.465ZM85.0984 49.9352C85.4027 48.9006 85.4875 47.795 85.371 46.6305L83.381 46.8295C83.4752 47.7716 83.402 48.6147 83.1796 49.3708L85.0984 49.9352ZM84.8721 47.5982L85.4251 47.2822L84.4329 45.5458L83.8799 45.8618L84.8721 47.5982ZM83.9355 46.5275C84.1343 48.2673 84.0301 49.7911 83.6515 51.1163L85.5745 51.6657C86.0386 50.0415 86.145 48.2474 85.9225 46.3004L83.9355 46.5275ZM83.6542 51.1069C83.2704 52.4021 82.6796 53.4788 81.8928 54.3582L83.3832 55.6918C84.3871 54.5698 85.1129 53.2239 85.5718 51.6751L83.6542 51.1069ZM81.8928 54.3582C81.099 55.2453 80.1434 55.9225 79.0144 56.3929L79.7836 58.2391C81.1826 57.6562 82.3863 56.806 83.3832 55.6918L81.8928 54.3582ZM79.0144 56.3929C77.877 56.8669 76.6652 57.106 75.37 57.106V59.106C76.9189 59.106 78.3931 58.8185 79.7836 58.2391L79.0144 56.3929ZM75.37 57.106C73.2626 57.106 71.5839 56.7539 70.2872 56.1056L69.3928 57.8944C71.0454 58.7207 73.0534 59.106 75.37 59.106V57.106ZM70.3003 56.1122C69.0353 55.4563 68.07 54.5553 67.3795 53.4045L65.6645 54.4335C66.554 55.916 67.8007 57.069 69.3797 57.8878L70.3003 56.1122ZM67.3795 53.4045C66.6797 52.2381 66.2431 50.8355 66.0961 49.1701L64.1039 49.3459C64.2729 51.2618 64.7844 52.9666 65.6645 54.4335L67.3795 53.4045ZM66.0961 49.1701C65.9471 47.4811 66.0445 45.5937 66.4017 43.5013L64.4303 43.1647C64.0502 45.3909 63.9369 47.4535 64.1039 49.3459L66.0961 49.1701ZM66.4004 43.5088L67.5854 36.8728L65.6166 36.5212L64.4316 43.1572L66.4004 43.5088ZM65.7034 36.2561C64.2505 39.2138 62.6175 41.987 60.8048 44.5765L62.4432 45.7235C64.3172 43.0464 66.0021 40.1842 67.4986 37.1379L65.7034 36.2561ZM60.8024 44.5799C59.0466 47.1104 57.168 49.3218 55.1687 51.2185L56.5453 52.6695C58.654 50.6689 60.6201 48.3509 62.4456 45.7201L60.8024 44.5799ZM55.1693 51.218C53.2278 53.0573 51.2241 54.4998 49.1601 55.557L50.0719 57.337C52.3265 56.1822 54.4836 54.6227 56.5448 52.67L55.1693 51.218ZM49.1601 55.557C47.1204 56.6017 45.1427 57.106 43.217 57.106V59.106C45.5047 59.106 47.7929 58.5043 50.0719 57.337L49.1601 55.557ZM43.217 57.106C41.0394 57.106 39.5084 56.6104 38.4852 55.7578L37.2048 57.2942C38.7096 58.5482 40.76 59.106 43.217 59.106V57.106ZM38.5193 55.7875C37.4486 54.81 36.6705 53.5705 36.1925 52.0407L34.2835 52.6373C34.8588 54.4782 35.8187 56.03 37.1707 57.2645L38.5193 55.7875ZM36.195 52.049C35.7066 50.4373 35.5043 48.6319 35.6048 46.6219L33.6072 46.5221C33.4971 48.7254 33.716 50.7647 34.281 52.629L36.195 52.049ZM35.6048 46.6219C35.708 44.5569 35.9404 42.4911 36.302 40.4244L34.332 40.0796C33.9563 42.2262 33.7147 44.3738 33.6072 46.5221L35.6048 46.6219ZM36.296 40.456L37.086 36.664L35.128 36.256L34.338 40.048L36.296 40.456ZM35.2094 36.0191C33.7565 38.9768 32.1235 41.75 30.3108 44.3395L31.9492 45.4865C33.8232 42.8094 35.5081 39.9472 37.0046 36.9009L35.2094 36.0191ZM30.3084 44.3429C28.5526 46.8734 26.674 49.0848 24.6747 50.9815L26.0513 52.4325C28.16 50.4319 30.1261 48.1139 31.9516 45.4831L30.3084 44.3429ZM24.6753 50.981C22.7338 52.8203 20.7301 54.2628 18.6661 55.32L19.5779 57.1C21.8325 55.9452 23.9896 54.3857 26.0507 52.433L24.6753 50.981ZM18.6661 55.32C16.6264 56.3647 14.6487 56.869 12.723 56.869V58.869C15.0107 58.869 17.2989 58.2673 19.5779 57.1L18.6661 55.32ZM12.723 56.869C10.5453 56.869 9.01437 56.3734 7.99119 55.5208L6.71082 57.0572C8.21563 58.3112 10.266 58.869 12.723 58.869V56.869ZM8.02527 55.5505C6.95462 54.573 6.17653 53.3335 5.69848 51.8037L3.78952 52.4003C4.36481 54.2412 5.32472 55.793 6.67673 57.0275L8.02527 55.5505ZM5.70103 51.812C5.21262 50.2003 5.01025 48.3949 5.11075 46.3849L3.11325 46.2851C3.00308 48.4884 3.22205 50.5277 3.78698 52.392L5.70103 51.812ZM5.11075 46.3849C5.21401 44.3199 5.44635 42.2541 5.80803 40.1874L3.83797 39.8426C3.46232 41.9892 3.22066 44.1368 3.11325 46.2851L5.11075 46.3849ZM5.80803 40.1874L10.785 11.7474L8.81497 11.4026L3.83797 39.8426L5.80803 40.1874ZM10.7839 11.7539C11.1295 9.85284 10.9685 8.10404 10.2275 6.56027L8.42448 7.42573C8.94747 8.51529 9.10249 9.82115 8.81613 11.3961L10.7839 11.7539ZM10.2275 6.56027C9.8263 5.72437 9.22268 5.06881 8.42101 4.63312C7.63147 4.20402 6.70575 4.018 5.692 4.018V6.018C6.46892 6.018 7.0442 6.16114 7.46599 6.39037C7.87566 6.61302 8.19371 6.94495 8.42448 7.42573L10.2275 6.56027ZM5.692 4.018C4.85666 4.018 4.05263 4.26359 3.29213 4.70722L4.29987 6.43478C4.80337 6.14107 5.26335 6.018 5.692 6.018V4.018ZM3.25913 4.72734C2.56405 5.16966 1.95158 5.75789 1.416 6.472L3.016 7.672C3.42842 7.1221 3.86928 6.70967 4.33287 6.41466L3.25913 4.72734ZM1.38395 6.5173C0.895603 7.24982 0.515178 8.10998 0.229635 9.08083L2.14837 9.64516C2.38949 8.82535 2.69373 8.15818 3.04805 7.6267L1.38395 6.5173ZM0.215583 9.13396C-0.0230975 10.1484 -0.0794883 11.2098 0.0364947 12.3117L2.02551 12.1023C1.93082 11.2028 1.97976 10.3683 2.16242 9.59204L0.215583 9.13396ZM0.534861 11.3388L-0.0181394 11.6548L0.97414 13.3912L1.52714 13.0752L0.534861 11.3388ZM1.46795 12.3816C1.21992 10.6454 1.30238 9.16262 1.6738 7.90909L-0.243798 7.34091C-0.715047 8.93138 -0.790586 10.714 -0.51195 12.6644L1.46795 12.3816ZM1.66703 7.93101C2.10469 6.56939 2.72564 5.46016 3.51424 4.57879L2.02376 3.2452C1.02169 4.36516 0.273309 5.73127 -0.237029 7.31899L1.66703 7.93101ZM3.49495 4.59974C4.34752 3.69981 5.33747 3.01664 6.47162 2.54407L5.70239 0.69792C4.30854 1.27869 3.08648 2.12285 2.04305 3.22425L3.49495 4.59974ZM6.47162 2.54407C7.61375 2.06819 8.79969 1.831 10.037 1.831V-0.169002C8.53564 -0.169002 7.08825 0.120475 5.70239 0.69792L6.47162 2.54407ZM10.037 1.831C12.1466 1.831 13.7916 2.18383 15.0277 2.82475L15.9483 1.04924C14.3404 0.215501 12.3514 -0.169002 10.037 -0.169002V1.831ZM15.0408 2.83143C16.3584 3.49025 17.3426 4.39102 18.0275 5.53249L19.7425 4.5035C18.8474 3.01164 17.5669 1.85841 15.9352 1.04257L15.0408 2.83143ZM18.0275 5.53249C18.7247 6.6945 19.163 8.12112 19.3107 9.8434L21.3033 9.6726C21.135 7.70821 20.6253 5.97482 19.7425 4.5035L18.0275 5.53249ZM19.3109 9.84589C19.4599 11.5351 19.3624 13.3951 19.006 15.4316L20.976 15.7764C21.357 13.5995 21.4701 11.5622 21.3031 9.6701L19.3109 9.84589ZM19.0059 15.4318L14.7399 39.8428L16.7101 40.1871L20.9761 15.7761L19.0059 15.4318ZM14.7386 39.8506C14.5254 41.1301 14.3389 42.4356 14.1791 43.7669L16.1649 44.0051C16.3211 42.7031 16.5033 41.4279 16.7114 40.1794L14.7386 39.8506ZM14.1791 43.7669C14.0114 45.1649 14.0348 46.459 14.2704 47.6371L16.2316 47.2449C16.0459 46.3164 16.0166 45.2404 16.1649 44.0051L14.1791 43.7669ZM14.2704 47.6371C14.5115 48.8426 15.0054 49.887 15.7802 50.7263L17.2498 49.3697C16.7606 48.8397 16.4118 48.146 16.2316 47.2449L14.2704 47.6371ZM15.8367 50.7828C16.7826 51.6559 18.1299 51.996 19.675 51.996V49.996C18.3761 49.996 17.6167 49.7041 17.1933 49.3132L15.8367 50.7828ZM19.675 51.996C21.4097 51.996 23.1337 51.344 24.8305 50.1562L23.6835 48.5178C22.2203 49.542 20.8897 49.996 19.675 49.996V51.996ZM24.8305 50.1562C26.4989 48.9883 28.1167 47.4474 29.688 45.551L28.148 44.275C26.6646 46.0652 25.1751 47.4737 23.6835 48.5178L24.8305 50.1562ZM29.6968 45.5403C31.2628 43.5963 32.7411 41.3907 34.1336 38.9271L32.3924 37.9429C31.0462 40.3247 29.6279 42.4377 28.1392 44.2857L29.6968 45.5403ZM34.1301 38.9331C35.5727 36.422 36.855 33.8306 37.977 31.1592L36.133 30.3848C35.043 32.9801 33.7973 35.4974 32.3959 37.9369L34.1301 38.9331ZM38.0398 30.9459L43.1748 1.87393L41.2052 1.52606L36.0702 30.5981L38.0398 30.9459ZM42.19 2.7H47.167V0.699996H42.19V2.7ZM46.1824 1.52496L38.5984 44.185L40.5676 44.535L48.1516 1.87503L46.1824 1.52496ZM38.5991 44.1811C37.9472 47.7666 38.1547 50.7724 39.4188 53.0597L41.1692 52.0923C40.2213 50.3769 39.9548 47.9054 40.5669 44.5389L38.5991 44.1811ZM39.4188 53.0597C40.0636 54.2266 40.9633 55.1072 42.1185 55.6527C43.2627 56.1931 44.592 56.3741 46.0602 56.2589L45.9038 54.2651C44.686 54.3606 43.7243 54.1993 42.9725 53.8442C42.2317 53.4944 41.6304 52.9267 41.1692 52.0923L39.4188 53.0597ZM46.982 55.262V55.183H44.982V55.262H46.982ZM46.0332 54.1843C44.2811 54.0945 43.1047 53.3843 42.3438 52.0739L40.6142 53.0781C41.7493 55.033 43.575 56.0609 45.9308 56.1817L46.0332 54.1843ZM42.3438 52.0739C41.5837 50.7648 41.3656 48.4391 41.9902 44.8473L40.0198 44.5047C39.3804 48.1809 39.4783 51.1219 40.6142 53.0781L42.3438 52.0739ZM41.9898 44.8498L49.5738 1.87378L47.6042 1.52621L40.0202 44.5022L41.9898 44.8498ZM48.589 2.7H53.092V0.699996H48.589V2.7ZM52.1075 1.52448L45.2345 40.0765L47.2035 40.4275L54.0765 1.87551L52.1075 1.52448ZM45.2326 40.0876C45.0193 41.3671 44.8329 42.6726 44.6731 44.0039L46.6589 44.2421C46.8151 42.9401 46.9973 41.6649 47.2054 40.4164L45.2326 40.0876ZM44.6731 44.0039C44.5054 45.4019 44.5288 46.696 44.7644 47.8741L46.7256 47.4819C46.5399 46.5534 46.5107 45.4774 46.6589 44.2421L44.6731 44.0039ZM44.7644 47.8741C45.0055 49.0796 45.4994 50.124 46.2742 50.9633L47.7438 49.6067C47.2546 49.0767 46.9058 48.383 46.7256 47.4819L44.7644 47.8741ZM46.3307 51.0198C47.2766 51.8929 48.6239 52.233 50.169 52.233V50.233C48.8701 50.233 48.1107 49.9411 47.6873 49.5502L46.3307 51.0198ZM50.169 52.233C51.9037 52.233 53.6277 51.581 55.3245 50.3932L54.1775 48.7548C52.7143 49.779 51.3837 50.233 50.169 50.233V52.233ZM55.3245 50.3932C56.9929 49.2253 58.6107 47.6844 60.182 45.788L58.642 44.512C57.1586 46.3022 55.6691 47.7107 54.1775 48.7548L55.3245 50.3932ZM60.1908 45.7773C61.7568 43.8333 63.2351 41.6277 64.6276 39.1641L62.8864 38.1799C61.5402 40.5617 60.1219 42.6747 58.6333 44.5227L60.1908 45.7773ZM64.6241 39.1701C66.0667 36.659 67.349 34.0676 68.471 31.3962L66.627 30.6218C65.537 33.2171 64.2913 35.7344 62.8899 38.1739L64.6241 39.1701ZM68.5338 31.1829L73.6688 2.11094L71.6992 1.76306L66.5642 30.8351L68.5338 31.1829ZM72.684 2.937H77.503V0.936998H72.684V2.937ZM140.287 47.125L141.271 47.3039L141.272 47.2973L140.287 47.125ZM140.761 51.707L139.859 52.1397V52.1397L140.761 51.707ZM146.212 53.129L145.708 52.2652L145.691 52.275L145.675 52.2853L146.212 53.129ZM147.792 51.628L146.992 51.028L146.975 51.0502L146.96 51.0733L147.792 51.628ZM148.819 49.416L147.86 49.1338L147.854 49.1535L147.849 49.1735L148.819 49.416ZM149.056 46.493L148.56 45.6248L147.996 45.9467L148.061 46.5925L149.056 46.493ZM149.609 46.177L150.603 46.0635L150.43 44.556L149.113 45.3088L149.609 46.177ZM149.293 51.154L150.252 51.4381L150.255 51.4287L149.293 51.154ZM147.239 54.788L146.513 54.1003L146.503 54.1106L146.494 54.1212L147.239 54.788ZM144 57.079L143.615 56.1559L143.608 56.1589L143.601 56.1619L144 57.079ZM134.52 56.763L134.06 57.6508L134.066 57.6541L134.073 57.6574L134.52 56.763ZM131.202 53.682L132.06 53.1675L131.202 53.682ZM129.78 49.021L128.784 49.1089V49.1089L129.78 49.021ZM130.096 43.096L129.11 42.9269L129.11 42.9277L130.096 43.096ZM132.387 29.745L133.373 29.9141L133.573 28.745H132.387V29.745ZM113.427 29.745V28.745H112.671L112.465 29.4725L113.427 29.745ZM108.45 44.202L109.362 44.6118L109.364 44.6069L108.45 44.202ZM103.71 52.655L104.497 53.2719L104.505 53.2617L103.71 52.655ZM99.286 56.605L99.7051 57.513L99.7125 57.5095L99.7198 57.506L99.286 56.605ZM92.571 56.921L92.1649 57.8348L92.1739 57.8388L92.183 57.8426L92.571 56.921ZM89.964 55.262L89.2569 55.9691L89.2821 55.9943L89.3091 56.0177L89.964 55.262ZM88.068 52.734L87.1939 53.2196L88.068 52.734ZM87.041 49.732H86.041V49.8066L86.0521 49.8803L87.041 49.732ZM87.752 47.441L86.92 46.8863L86.9153 46.8932L86.9108 46.9002L87.752 47.441ZM92.334 47.283L91.5118 47.8522L91.5372 47.8889L91.5658 47.9232L92.334 47.283ZM93.361 49.732L92.3732 49.888L92.3746 49.8964L93.361 49.732ZM93.44 52.813L92.4445 52.7182L93.44 52.813ZM93.045 55.736L92.0621 55.5517L91.9186 56.3175L92.626 56.644L93.045 55.736ZM98.812 54.788L99.4628 55.5473L98.812 54.788ZM101.972 50.996L101.132 50.4539L101.127 50.4609L101.972 50.996ZM104.974 45.387L105.886 45.7974L105.89 45.789L104.974 45.387ZM107.66 38.514L106.716 38.1855L107.66 38.514ZM110.03 31.088L109.076 30.7897L109.073 30.7988L109.07 30.808L110.03 31.088ZM112.163 23.662L111.198 23.3979L111.195 23.4096L112.163 23.662ZM117.772 12.049L118.567 12.655L117.772 12.049ZM127.568 4.781L127.925 5.71529L129.797 5.00085L128.1 3.93436L127.568 4.781ZM121.327 2.569L121.17 3.55658L121.181 3.55833L121.192 3.55983L121.327 2.569ZM114.296 2.727L114.471 3.71156L114.482 3.70968L114.492 3.70758L114.296 2.727ZM107.344 5.255L107.816 6.13678L107.824 6.13256L107.831 6.1282L107.344 5.255ZM101.261 10.074L100.516 9.4072L100.511 9.41272L100.506 9.41831L101.261 10.074ZM96.995 17.184L96.0677 16.8095L96.064 16.8189L96.995 17.184ZM97.153 33.932L98.0552 33.5005L97.153 33.932ZM102.762 40.252H103.762V39.7287L103.332 39.4304L102.762 40.252ZM102.762 40.884L102.398 41.8152L103.762 42.3491V40.884H102.762ZM94.704 34.485L93.8397 34.9879L93.8451 34.9972L93.8507 35.0064L94.704 34.485ZM94.467 14.419L93.5788 13.9596L93.5757 13.9655L94.467 14.419ZM100.629 6.835L100.016 6.04474L100.008 6.05095L100.629 6.835ZM109.319 2.411L109.602 3.37016L109.612 3.36711L109.319 2.411ZM131.913 3.596L131.505 4.50881L131.793 4.6379L132.104 4.57769L131.913 3.596ZM144.079 3.754H145.079V2.91166L144.249 2.76854L144.079 3.754ZM144.079 4.386L143.941 5.37644L145.079 5.53489V4.386H144.079ZM133.335 4.228L133.179 3.24023L130.209 3.70912L132.868 5.11238L133.335 4.228ZM138.391 7.862L137.697 8.58184L137.703 8.58792L137.71 8.59389L138.391 7.862ZM142.104 12.76L141.215 13.2173L141.22 13.2273L141.225 13.2371L142.104 12.76ZM144.079 18.922L143.089 19.0602L143.09 19.0715L143.092 19.0827L144.079 18.922ZM143.921 26.348L142.936 26.1742L142.936 26.1757L143.921 26.348ZM133.651 22.793L134.635 22.9702L134.636 22.9654L133.651 22.793ZM133.177 12.207L132.232 12.5335L132.235 12.544L132.239 12.5543L133.177 12.207ZM128.516 5.492L129.116 4.692L128.669 4.3566L128.149 4.56184L128.516 5.492ZM119.51 12.918L118.67 12.3759L118.67 12.3759L119.51 12.918ZM116.824 18.29L117.756 18.6525L117.759 18.6439L116.824 18.29ZM114.928 24.215L113.959 23.9666L113.958 23.9725L114.928 24.215ZM114.296 26.743L113.326 26.5005L113.015 27.743H114.296V26.743ZM132.94 26.743V27.743H133.776L133.924 26.9202L132.94 26.743ZM134.52 44.36L135.504 44.5389L135.504 44.536L134.52 44.36ZM135.231 52.576L134.356 53.0597L135.231 52.576ZM140.919 55.262L140.997 56.2589L141.919 56.1866V55.262H140.919ZM140.919 55.183H141.919V54.233L140.97 54.1843L140.919 55.183ZM136.416 52.576L135.544 53.0663L135.551 53.0781L136.416 52.576ZM135.942 44.676L134.957 44.5018L134.957 44.5022L135.942 44.676ZM139.813 22.793L138.829 22.6172L138.828 22.6188L139.813 22.793ZM139.023 14.182L138.08 14.5139L138.083 14.5245L138.087 14.5351L139.023 14.182ZM133.967 7.309L134.558 6.50259L133.867 5.99525L133.26 6.60189L133.967 7.309ZM133.888 7.388L133.181 6.68089L132.425 7.43671L133.23 8.14058L133.888 7.388ZM138.075 14.34L137.104 14.5782L137.106 14.5891L137.109 14.6L138.075 14.34ZM138.391 22.714L137.408 22.5319L137.407 22.538L138.391 22.714ZM139.303 46.9461C138.958 48.8472 139.118 50.596 139.859 52.1397L141.663 51.2743C141.14 50.1847 140.985 48.8788 141.271 47.3039L139.303 46.9461ZM139.859 52.1397C140.261 52.9756 140.864 53.6312 141.666 54.0669C142.456 54.496 143.381 54.682 144.395 54.682V52.682C143.618 52.682 143.043 52.5389 142.621 52.3096C142.211 52.087 141.893 51.755 141.663 51.2743L139.859 52.1397ZM144.395 54.682C145.234 54.682 146.024 54.4342 146.749 53.9727L145.675 52.2853C145.242 52.5611 144.82 52.682 144.395 52.682V54.682ZM146.716 53.9928C147.484 53.5445 148.122 52.9364 148.624 52.1827L146.96 51.0733C146.62 51.5836 146.204 51.9762 145.708 52.2652L146.716 53.9928ZM148.592 52.228C149.154 51.4792 149.549 50.6176 149.789 49.6585L147.849 49.1735C147.667 49.8998 147.378 50.5128 146.992 51.028L148.592 52.228ZM149.778 49.6982C150.083 48.6636 150.168 47.558 150.051 46.3935L148.061 46.5925C148.155 47.5346 148.082 48.3777 147.86 49.1338L149.778 49.6982ZM149.552 47.3612L150.105 47.0452L149.113 45.3088L148.56 45.6248L149.552 47.3612ZM148.615 46.2905C148.814 48.0303 148.71 49.5541 148.331 50.8793L150.255 51.4287C150.719 49.8045 150.825 48.0104 150.603 46.0635L148.615 46.2905ZM148.334 50.8699C147.954 52.1526 147.345 53.2225 146.513 54.1003L147.965 55.4757C149.029 54.3522 149.789 52.9994 150.252 51.4381L148.334 50.8699ZM146.494 54.1212C145.7 55.0083 144.744 55.6855 143.615 56.1559L144.385 58.0021C145.784 57.4192 146.987 56.569 147.984 55.4548L146.494 54.1212ZM143.601 56.1619C142.525 56.6298 141.345 56.869 140.05 56.869V58.869C141.599 58.869 143.052 58.5815 144.399 57.9961L143.601 56.1619ZM140.05 56.869C137.943 56.869 136.264 56.5169 134.967 55.8686L134.073 57.6574C135.725 58.4837 137.733 58.869 140.05 58.869V56.869ZM134.98 55.8752C133.715 55.2193 132.75 54.3183 132.06 53.1675L130.345 54.1965C131.234 55.679 132.481 56.832 134.06 57.6508L134.98 55.8752ZM132.06 53.1675C131.36 52.0011 130.923 50.5985 130.776 48.9331L128.784 49.1089C128.953 51.0248 129.464 52.7296 130.345 54.1965L132.06 53.1675ZM130.776 48.9331C130.627 47.2441 130.725 45.3567 131.082 43.2643L129.11 42.9277C128.73 45.1539 128.617 47.2165 128.784 49.1089L130.776 48.9331ZM131.082 43.2651L133.373 29.9141L131.401 29.5759L129.11 42.9269L131.082 43.2651ZM132.387 28.745H113.427V30.745H132.387V28.745ZM112.465 29.4725C110.786 35.3998 109.142 40.1696 107.536 43.7971L109.364 44.6069C111.023 40.861 112.697 35.9929 114.389 30.0175L112.465 29.4725ZM107.538 43.7922C105.921 47.3917 104.377 50.1325 102.915 52.0483L104.505 53.2617C106.098 51.1748 107.714 48.2803 109.362 44.6118L107.538 43.7922ZM102.923 52.0381C101.442 53.9279 100.08 55.1129 98.8522 55.704L99.7198 57.506C101.336 56.7277 102.924 55.2795 104.497 53.2719L102.923 52.0381ZM98.867 55.697C97.5839 56.2892 96.4918 56.553 95.573 56.553V58.553C96.8663 58.553 98.2494 58.1848 99.7051 57.513L98.867 55.697ZM95.573 56.553C94.7166 56.553 93.8474 56.3734 92.9591 55.9994L92.183 57.8426C93.2959 58.3113 94.4281 58.553 95.573 58.553V56.553ZM92.9772 56.0072C92.1201 55.6263 91.3349 55.1268 90.6189 54.5063L89.3091 56.0177C90.1732 56.7666 91.1259 57.373 92.1649 57.8348L92.9772 56.0072ZM90.6711 54.5549C90.0021 53.8859 89.4255 53.1184 88.9422 52.2484L87.1939 53.2196C87.7638 54.2456 88.4513 55.1635 89.2569 55.9691L90.6711 54.5549ZM88.9422 52.2484C88.4726 51.4031 88.1699 50.5164 88.03 49.5837L86.0521 49.8803C86.2282 51.0542 86.6101 52.1689 87.1939 53.2196L88.9422 52.2484ZM88.041 49.732V49.653H86.041V49.732H88.041ZM88.041 49.653C88.041 49.1411 88.203 48.5887 88.5932 47.9818L86.9108 46.9002C86.353 47.768 86.041 48.6902 86.041 49.653H88.041ZM88.5841 47.9957C88.9026 47.5179 89.36 47.256 90.122 47.256V45.256C88.7774 45.256 87.6548 45.7841 86.92 46.8863L88.5841 47.9957ZM90.122 47.256C90.87 47.256 91.2638 47.494 91.5118 47.8522L93.1562 46.7138C92.4562 45.7027 91.3754 45.256 90.122 45.256V47.256ZM91.5658 47.9232C91.9529 48.3877 92.2369 49.0245 92.3733 49.888L94.3488 49.576C94.1691 48.4382 93.7684 47.4423 93.1022 46.6428L91.5658 47.9232ZM92.3746 49.8964C92.5163 50.7467 92.5429 51.6855 92.4445 52.7182L94.4355 52.9078C94.5478 51.7285 94.5217 50.6133 94.3474 49.5676L92.3746 49.8964ZM92.4445 52.7182C92.3413 53.8024 92.2132 54.7458 92.0621 55.5517L94.0279 55.9203C94.1928 55.0408 94.3281 54.0356 94.4355 52.9078L92.4445 52.7182ZM92.626 56.644C93.4643 57.0309 94.4018 57.21 95.415 57.21V55.21C94.6376 55.21 93.995 55.0731 93.4641 54.828L92.626 56.644ZM95.415 57.21C96.8689 57.21 98.2236 56.6094 99.4628 55.5473L98.1612 54.0287C97.1884 54.8626 96.2785 55.21 95.415 55.21V57.21ZM99.4628 55.5473C100.662 54.5192 101.777 53.1725 102.817 51.5311L101.127 50.4609C100.165 51.9795 99.1739 53.1608 98.1612 54.0287L99.4628 55.5473ZM102.812 51.5381C103.897 49.8564 104.921 47.9414 105.886 45.7974L104.062 44.9766C103.131 47.0459 102.153 48.8703 101.132 50.4539L102.812 51.5381ZM105.89 45.789C106.849 43.6036 107.754 41.2879 108.605 38.8425L106.716 38.1855C105.881 40.5854 104.995 42.8518 104.058 44.985L105.89 45.789ZM108.605 38.8425C109.453 36.4034 110.248 33.9119 110.99 31.368L109.07 30.808C108.337 33.3201 107.552 35.7793 106.716 38.1855L108.605 38.8425ZM110.984 31.3863C111.779 28.844 112.494 26.3533 113.131 23.9144L111.195 23.4096C110.568 25.816 109.861 28.276 109.076 30.7897L110.984 31.3863ZM113.128 23.9261C114.308 19.6135 116.125 15.8612 118.567 12.655L116.977 11.443C114.363 14.8728 112.44 18.8625 111.199 23.3979L113.128 23.9261ZM118.567 12.655C120.979 9.48937 124.091 7.17811 127.925 5.71529L127.212 3.84671C123.04 5.43855 119.621 7.97263 116.977 11.443L118.567 12.655ZM128.1 3.93436C126.128 2.69439 123.91 1.91196 121.462 1.57817L121.192 3.55983C123.379 3.85804 125.322 4.55027 127.036 5.62764L128.1 3.93436ZM121.484 1.58142C119.046 1.19354 116.583 1.24985 114.1 1.74642L114.492 3.70758C116.749 3.25615 118.973 3.20712 121.17 3.55658L121.484 1.58142ZM114.121 1.74243C111.633 2.18471 109.211 3.06776 106.857 4.3818L107.831 6.1282C110.006 4.91423 112.219 4.11196 114.471 3.71156L114.121 1.74243ZM106.872 4.37321C104.5 5.64216 102.381 7.32279 100.516 9.4072L102.006 10.7408C103.723 8.82254 105.659 7.2905 107.816 6.13678L106.872 4.37321ZM100.506 9.41831C98.6876 11.5122 97.2105 13.9799 96.0678 16.8095L97.9223 17.5585C98.9915 14.9108 100.358 12.6385 102.016 10.7297L100.506 9.41831ZM96.064 16.8189C94.9581 19.639 94.415 22.7941 94.415 26.269H96.415C96.415 23.0026 96.9253 20.101 97.926 17.5491L96.064 16.8189ZM94.415 26.269C94.415 29.1043 95.0278 31.8061 96.2509 34.3635L98.0552 33.5005C96.9609 31.2126 96.415 28.8057 96.415 26.269H94.415ZM96.2509 34.3635C97.4963 36.9676 99.493 39.2008 102.192 41.0736L103.332 39.4304C100.87 37.7218 99.127 35.7418 98.0552 33.5005L96.2509 34.3635ZM101.762 40.252V40.884H103.762V40.252H101.762ZM103.126 39.9528C99.6597 38.5962 97.1628 36.5907 95.5573 33.9635L93.8507 35.0064C95.7212 38.0673 98.5963 40.3278 102.398 41.8152L103.126 39.9528ZM95.5684 33.9821C93.9724 31.2391 93.176 28.2791 93.176 25.084H91.176C91.176 28.6303 92.0649 31.9376 93.8397 34.9879L95.5684 33.9821ZM93.176 25.084C93.176 21.0995 93.9165 17.7064 95.3583 14.8725L93.5757 13.9655C91.9629 17.1356 91.176 20.8525 91.176 25.084H93.176ZM95.3552 14.8784C96.8745 11.9412 98.8402 9.52658 101.25 7.61904L100.008 6.05095C97.3618 8.14608 95.2195 10.7875 93.5788 13.9596L95.3552 14.8784ZM101.242 7.62522C103.722 5.70221 106.506 4.28377 109.602 3.37011L109.036 1.45188C105.707 2.43422 102.698 3.96512 100.016 6.04478L101.242 7.62522ZM109.612 3.36711C112.785 2.39468 115.978 1.91 119.194 1.91V-0.090003C115.774 -0.090003 112.383 0.425982 109.026 1.45488L109.612 3.36711ZM119.194 1.91C123.533 1.91 127.633 2.77685 131.505 4.50881L132.321 2.68318C128.188 0.833814 123.808 -0.090003 119.194 -0.090003V1.91ZM132.104 4.57769C135.484 3.92176 139.413 3.96429 143.909 4.73946L144.249 2.76854C139.581 1.9637 135.399 1.9009 131.723 2.6143L132.104 4.57769ZM143.079 3.754V4.386H145.079V3.754H143.079ZM144.217 3.39555C139.993 2.80742 136.308 2.74626 133.179 3.24023L133.491 5.21576C136.367 4.76173 139.844 4.80591 143.941 5.37644L144.217 3.39555ZM132.868 5.11238C134.685 6.07121 136.293 7.22808 137.697 8.58184L139.085 7.14215C137.54 5.65191 135.777 4.38612 133.802 3.34361L132.868 5.11238ZM137.71 8.59389C139.153 9.93763 140.32 11.4776 141.215 13.2173L142.993 12.3027C141.992 10.3558 140.684 8.63037 139.072 7.1301L137.71 8.59389ZM141.225 13.2371C142.164 14.9659 142.788 16.9035 143.089 19.0602L145.069 18.7838C144.738 16.4111 144.046 14.2407 142.983 12.2829L141.225 13.2371ZM143.092 19.0827C143.44 21.2178 143.394 23.5785 142.936 26.1742L144.906 26.5218C145.396 23.7455 145.456 21.1555 145.066 18.7613L143.092 19.0827ZM142.936 26.1757L139.302 46.9527L141.272 47.2973L144.906 26.5203L142.936 26.1757ZM134.636 22.9654C135.392 18.6455 135.25 14.9242 134.115 11.8597L132.239 12.5543C133.211 15.1778 133.385 18.5138 132.666 22.6206L134.636 22.9654ZM134.122 11.8805C133.067 8.82678 131.407 6.41048 129.116 4.692L127.916 6.292C129.838 7.73351 131.285 9.79388 132.232 12.5335L134.122 11.8805ZM128.149 4.56184C126.055 5.38828 124.219 6.47005 122.651 7.81374L123.953 9.33225C125.335 8.14795 126.974 7.17572 128.883 6.42215L128.149 4.56184ZM122.651 7.81374C121.103 9.14061 119.775 10.6621 118.67 12.3759L120.35 13.4601C121.351 11.9086 122.551 10.5334 123.953 9.33225L122.651 7.81374ZM118.67 12.3759C117.576 14.0719 116.649 15.9262 115.889 17.9361L117.759 18.6439C118.473 16.7564 119.338 15.0295 120.35 13.4601L118.67 12.3759ZM115.892 17.9276C115.14 19.8623 114.496 21.8755 113.959 23.9666L115.897 24.4634C116.414 22.4465 117.034 20.5097 117.756 18.6524L115.892 17.9276ZM113.958 23.9725L113.326 26.5005L115.266 26.9855L115.898 24.4575L113.958 23.9725ZM114.296 27.743H132.94V25.743H114.296V27.743ZM133.924 26.9202L134.635 22.9701L132.667 22.6158L131.956 26.5658L133.924 26.9202ZM133.536 44.1811C132.884 47.7666 133.092 50.7724 134.356 53.0597L136.106 52.0923C135.158 50.3769 134.892 47.9054 135.504 44.5389L133.536 44.1811ZM134.356 53.0597C135.001 54.2266 135.9 55.1072 137.056 55.6527C138.2 56.1931 139.529 56.3741 140.997 56.2589L140.841 54.2651C139.623 54.3606 138.661 54.1993 137.91 53.8442C137.169 53.4944 136.567 52.9267 136.106 52.0923L134.356 53.0597ZM141.919 55.262V55.183H139.919V55.262H141.919ZM140.97 54.1843C139.218 54.0945 138.042 53.3843 137.281 52.0739L135.551 53.0781C136.686 55.033 138.512 56.0609 140.868 56.1817L140.97 54.1843ZM137.288 52.0857C136.517 50.7157 136.304 48.3781 136.927 44.8498L134.957 44.5022C134.316 48.1366 134.419 51.0656 135.544 53.0663L137.288 52.0857ZM136.927 44.8502L140.798 22.9672L138.828 22.6188L134.957 44.5018L136.927 44.8502ZM140.797 22.9688C141.356 19.8428 141.076 16.7897 139.959 13.8289L138.087 14.5351C139.077 17.157 139.324 19.8445 138.829 22.6172L140.797 22.9688ZM139.966 13.8501C138.901 10.8213 137.095 8.36294 134.558 6.50259L133.376 8.1154C135.579 9.73106 137.144 11.8547 138.08 14.5139L139.966 13.8501ZM133.26 6.60189L133.181 6.68089L134.595 8.09511L134.674 8.01611L133.26 6.60189ZM133.23 8.14058C135.177 9.84484 136.467 11.9807 137.104 14.5782L139.046 14.1018C138.314 11.1166 136.812 8.61782 134.547 6.63542L133.23 8.14058ZM137.109 14.6C137.807 17.1915 137.908 19.8317 137.408 22.5319L139.374 22.8961C139.928 19.9083 139.818 16.9658 139.041 14.08L137.109 14.6ZM137.407 22.538L133.536 44.184L135.504 44.536L139.375 22.89L137.407 22.538ZM176.265 23.504L175.289 23.2871L175.288 23.2891L176.265 23.504ZM177.924 19.791L177.124 19.191L177.924 19.791ZM180.61 17.263L181.144 18.1086L181.155 18.1014L180.61 17.263ZM183.928 15.762L184.191 16.7268L184.205 16.7229L184.219 16.7187L183.928 15.762ZM191.907 16.473L191.352 17.305L191.367 17.3151L191.383 17.3247L191.907 16.473ZM193.487 18.132L192.606 18.6061L192.62 18.6315L192.635 18.6561L193.487 18.132ZM194.119 20.581L194.615 21.4492L195.119 21.1613V20.581H194.119ZM193.566 20.897L192.573 21.0138L192.749 22.5153L194.062 21.7652L193.566 20.897ZM192.46 19.08L191.923 19.9237L191.966 19.9514L192.013 19.9744L192.46 19.08ZM188.668 19.554L187.904 18.9081V18.9081L188.668 19.554ZM187.404 22.161L186.434 21.9185L186.43 21.9334L186.427 21.9484L187.404 22.161ZM181.716 48.31L180.739 48.0974L180.738 48.1005L181.716 48.31ZM178.556 53.682L177.913 52.9158L178.556 53.682ZM172.789 56.763L173.063 57.7245L173.074 57.7215L173.084 57.7183L172.789 56.763ZM165.837 57.632L165.815 58.6318L165.815 58.6318L165.837 57.632ZM159.201 56.684L158.907 57.6398L158.918 57.6432L158.929 57.6465L159.201 56.684ZM154.145 53.998L153.468 54.7339L153.476 54.7414L153.484 54.7487L154.145 53.998ZM152.881 47.441L152.049 46.8863L152.044 46.8932L152.04 46.9002L152.881 47.441ZM157.463 47.125L156.689 47.7582L156.705 47.7784L156.723 47.7977L157.463 47.125ZM158.49 49.337L157.505 49.5108L157.511 49.5454L157.52 49.5795L158.49 49.337ZM158.648 52.102L157.653 51.9973L157.65 52.0233L157.649 52.0494L158.648 52.102ZM158.332 54.867L157.349 54.6827L157.196 55.4965L157.967 55.7982L158.332 54.867ZM162.045 55.657L162.003 56.6561L162.024 56.657H162.045V55.657ZM165.758 54.946L166.136 55.8715L165.758 54.946ZM168.76 52.813L168.014 52.1462L168.012 52.1486L168.76 52.813ZM170.656 49.021L171.628 49.2556L171.63 49.2456L171.632 49.2355L170.656 49.021ZM173.658 35.354L172.681 35.1391L172.681 35.1395L173.658 35.354ZM164.573 30.772L164.426 31.7612L165.573 31.9311V30.772H164.573ZM160.623 29.429L160.103 30.2832L160.117 30.2916L160.131 30.2996L160.623 29.429ZM157.463 26.743L156.682 27.3677L156.691 27.3793L156.701 27.3906L157.463 26.743ZM155.488 23.109L156.433 22.7819L155.488 23.109ZM155.962 12.523L155.033 12.1516L155.028 12.164L155.962 12.523ZM159.596 6.835L158.866 6.15106L159.596 6.835ZM165.363 2.727L165.784 3.63376L165.793 3.62948L165.363 2.727ZM180.136 1.463L180.018 2.45599L180.02 2.45631L180.136 1.463ZM186.456 2.411L186.27 3.39357L186.283 3.396L186.296 3.3981L186.456 2.411ZM191.749 3.28L191.584 4.26639H191.584L191.749 3.28ZM198.622 3.359L198.896 4.32052L198.917 4.31455L198.938 4.30768L198.622 3.359ZM200.439 2.49L199.884 1.65794L199.861 1.67334L199.839 1.69L200.439 2.49ZM201.466 1.463L200.618 0.933002L200.607 0.94973L200.597 0.966858L201.466 1.463ZM202.177 0.356999L202.673 -0.511247L201.862 -0.974338L201.345 -0.197703L202.177 0.356999ZM202.73 0.672995H203.73V0.0926678L203.226 -0.195251L202.73 0.672995ZM202.493 3.833L201.499 3.72256L201.497 3.74081L201.495 3.75913L202.493 3.833ZM198.385 11.891L199.009 12.6719L199.013 12.6689L198.385 11.891ZM189.458 13.076L189.634 12.0916V12.0916L189.458 13.076ZM184.402 12.286L184.237 13.2724L184.251 13.2746L184.264 13.2765L184.402 12.286ZM166.706 12.049L167.115 12.9615V12.9615L166.706 12.049ZM162.756 14.735L162.049 14.0279L162.04 14.0365L162.032 14.0453L162.756 14.735ZM160.307 18.448L159.386 18.0584L159.379 18.0736L159.373 18.089L160.307 18.448ZM160.781 27.217L159.92 27.7268L159.925 27.734L159.929 27.7411L160.781 27.217ZM164.573 30.14H165.573V29.4263L164.898 29.1943L164.573 30.14ZM157.384 20.423V21.423H158.304L158.38 20.506L157.384 20.423ZM158.964 15.051L158.081 14.5818L158.964 15.051ZM162.361 10.706L163.023 11.455L163.025 11.4534L162.361 10.706ZM167.101 7.704L166.71 6.78342L167.101 7.704ZM177.529 6.993L177.374 7.98101L177.389 7.98338L177.405 7.98528L177.529 6.993ZM182.585 7.783L182.4 8.76587L182.418 8.76909L182.435 8.77171L182.585 7.783ZM187.799 8.573L187.649 9.56172L187.653 9.56236L187.799 8.573ZM193.25 9.126L193.326 8.12895L193.317 8.12819L193.307 8.12763L193.25 9.126ZM196.647 8.652L197.073 9.55682L197.083 9.55175L197.094 9.54642L196.647 8.652ZM199.096 6.756L199.851 7.41093L201.286 5.756H199.096V6.756ZM199.017 6.756V5.756H198.633L198.348 6.0127L199.017 6.756ZM196.963 7.783L197.147 8.76587L197.176 8.76037L197.205 8.75314L196.963 7.783ZM194.119 7.941L194.169 6.94224L194.158 6.94173L194.148 6.94143L194.119 7.941ZM188.747 7.467L188.568 8.45087L188.584 8.45389L188.601 8.45636L188.747 7.467ZM183.454 6.519L183.246 7.49723L183.263 7.50079L183.28 7.50378L183.454 6.519ZM178.082 5.571L177.936 6.56037L177.94 6.56095L178.082 5.571ZM166.548 6.519L166.954 7.43281L166.964 7.42815L166.975 7.42324L166.548 6.519ZM161.571 9.995L160.851 9.30086L160.85 9.30136L161.571 9.995ZM158.332 14.893L159.247 15.2967L159.251 15.2869L158.332 14.893ZM157.305 20.423L156.306 20.4785L156.359 21.423H157.305V20.423ZM175.949 46.888L174.97 46.6825L174.968 46.6919L175.949 46.888ZM174.053 52.181L174.866 52.7622L174.873 52.7534L174.879 52.7443L174.053 52.181ZM171.525 54.472L171.099 53.5672L170.525 53.8374V54.472H171.525ZM171.525 54.551H170.525V56.0161L171.889 55.4822L171.525 54.551ZM175.001 51.944L174.264 51.2683L174.256 51.2768L174.248 51.2855L175.001 51.944ZM177.45 46.493L176.471 46.2875L176.469 46.2969L177.45 46.493ZM181.795 25.795L182.773 26.0005L182.775 25.9911L181.795 25.795ZM183.533 20.581L182.689 20.0441L182.682 20.0546L183.533 20.581ZM186.219 18.053L186.666 18.9474L187.219 18.671V18.053H186.219ZM186.219 17.974H187.219V16.5581L185.884 17.0316L186.219 17.974ZM182.348 20.739L181.548 20.139L181.54 20.1499L181.532 20.161L182.348 20.739ZM180.294 26.19L181.272 26.3955L181.274 26.3861L180.294 26.19ZM177.241 23.7209C177.529 22.4228 178.028 21.319 178.724 20.391L177.124 19.191C176.24 20.3696 175.632 21.7412 175.289 23.2871L177.241 23.7209ZM178.724 20.391C179.449 19.4241 180.257 18.6686 181.144 18.1085L180.076 16.4175C178.961 17.1214 177.979 18.0512 177.124 19.191L178.724 20.391ZM181.155 18.1014C182.125 17.4706 183.137 17.0143 184.191 16.7268L183.665 14.7972C182.401 15.1417 181.201 15.6861 180.065 16.4246L181.155 18.1014ZM184.219 16.7187C185.349 16.3747 186.409 16.209 187.404 16.209V14.209C186.186 14.209 184.929 14.412 183.637 14.8053L184.219 16.7187ZM187.404 16.209C188.104 16.209 188.807 16.3022 189.516 16.4912L190.031 14.5588C189.16 14.3265 188.284 14.209 187.404 14.209V16.209ZM189.516 16.4912C190.208 16.6759 190.818 16.9489 191.352 17.305L192.461 15.6409C191.732 15.1545 190.919 14.7955 190.031 14.5588L189.516 16.4912ZM191.383 17.3247C191.923 17.657 192.324 18.0819 192.606 18.6061L194.367 17.6579C193.912 16.8128 193.26 16.1317 192.431 15.6213L191.383 17.3247ZM192.635 18.6561C192.943 19.1568 193.119 19.7845 193.119 20.581H195.119C195.119 19.4815 194.873 18.4765 194.338 17.6079L192.635 18.6561ZM193.623 19.7128L193.07 20.0288L194.062 21.7652L194.615 21.4492L193.623 19.7128ZM194.559 20.7802C194.426 19.6544 193.923 18.6938 192.907 18.1856L192.013 19.9744C192.26 20.0982 192.494 20.3489 192.573 21.0138L194.559 20.7802ZM192.997 18.2363C192.305 17.7961 191.567 17.527 190.801 17.527V19.527C191.087 19.527 191.456 19.6266 191.923 19.9237L192.997 18.2363ZM190.801 17.527C189.643 17.527 188.66 18.0153 187.904 18.9081L189.431 20.1999C189.834 19.7234 190.273 19.527 190.801 19.527V17.527ZM187.904 18.9081C187.207 19.7317 186.726 20.7474 186.434 21.9185L188.374 22.4035C188.608 21.4679 188.969 20.7457 189.431 20.1999L187.904 18.9081ZM186.427 21.9484L180.739 48.0974L182.693 48.5226L188.381 22.3736L186.427 21.9484ZM180.738 48.1005C180.307 50.1091 179.364 51.6987 177.913 52.9158L179.198 54.4482C181.013 52.9266 182.176 50.9349 182.694 48.5195L180.738 48.1005ZM177.913 52.9158C176.391 54.1925 174.589 55.1589 172.493 55.8077L173.084 57.7183C175.412 56.9977 177.455 55.9102 179.198 54.4482L177.913 52.9158ZM172.514 55.8015C170.403 56.4045 168.186 56.6828 165.858 56.6322L165.815 58.6318C168.332 58.6865 170.75 58.3855 173.063 57.7245L172.514 55.8015ZM165.859 56.6322C163.564 56.5812 161.437 56.2756 159.472 55.7215L158.929 57.6465C161.073 58.251 163.369 58.5774 165.815 58.6318L165.859 56.6322ZM159.495 55.7282C157.546 55.1287 155.995 54.2938 154.805 53.2473L153.484 54.7487C154.928 56.0195 156.747 56.9753 158.907 57.6398L159.495 55.7282ZM154.822 53.2621C153.689 52.2199 153.17 51.0564 153.17 49.732H151.17C151.17 51.6729 151.967 53.3535 153.468 54.7339L154.822 53.2621ZM153.17 49.732V49.653H151.17V49.732H153.17ZM153.17 49.653C153.17 49.1411 153.332 48.5887 153.722 47.9818L152.04 46.9002C151.482 47.768 151.17 48.6902 151.17 49.653H153.17ZM153.713 47.9957C154.031 47.5179 154.489 47.256 155.251 47.256V45.256C153.906 45.256 152.783 45.7841 152.049 46.8863L153.713 47.9957ZM155.251 47.256C156.059 47.256 156.464 47.4833 156.689 47.7582L158.237 46.4918C157.514 45.6081 156.444 45.256 155.251 45.256V47.256ZM156.723 47.7977C157.103 48.2159 157.374 48.771 157.505 49.5108L159.475 49.1632C159.289 48.1124 158.876 47.1928 158.203 46.4523L156.723 47.7977ZM157.52 49.5795C157.698 50.2924 157.748 51.0948 157.653 51.9973L159.642 52.2067C159.758 51.1078 159.703 50.067 159.46 49.0945L157.52 49.5795ZM157.649 52.0494C157.598 53.0131 157.497 53.8901 157.349 54.6827L159.315 55.0513C159.482 54.1586 159.592 53.1923 159.646 52.1546L157.649 52.0494ZM157.967 55.7982C159.279 56.3114 160.625 56.5987 162.003 56.6561L162.086 54.6579C160.936 54.6099 159.807 54.3706 158.696 53.9358L157.967 55.7982ZM162.045 56.657C163.484 56.657 164.851 56.3972 166.136 55.8715L165.379 54.0205C164.347 54.4428 163.238 54.657 162.045 54.657V56.657ZM166.136 55.8715C167.438 55.339 168.564 54.5379 169.507 53.4774L168.012 52.1486C167.27 52.9841 166.395 53.605 165.379 54.0205L166.136 55.8715ZM169.505 53.4798C170.528 52.3366 171.227 50.9162 171.628 49.2556L169.684 48.7864C169.347 50.1805 168.782 51.2881 168.014 52.1462L169.505 53.4798ZM171.632 49.2355L174.634 35.5685L172.681 35.1395L169.679 48.8065L171.632 49.2355ZM174.634 35.5689L177.241 23.7189L175.288 23.2891L172.681 35.1391L174.634 35.5689ZM164.719 29.7828C163.415 29.5895 162.216 29.1807 161.115 28.5584L160.131 30.2996C161.452 31.0467 162.887 31.5331 164.426 31.7612L164.719 29.7828ZM161.143 28.5748C160.02 27.8915 159.049 27.0653 158.225 26.0954L156.701 27.3906C157.667 28.5274 158.803 29.4918 160.103 30.2832L161.143 28.5748ZM158.244 26.1183C157.477 25.1605 156.872 24.0514 156.433 22.7819L154.543 23.4361C155.051 24.9052 155.763 26.2189 156.682 27.3677L158.244 26.1183ZM156.433 22.7819C155.998 21.5269 155.777 20.1637 155.777 18.685H153.777C153.777 20.3663 154.029 21.9525 154.543 23.4361L156.433 22.7819ZM155.777 18.685C155.777 16.7623 156.146 14.8297 156.895 12.882L155.028 12.164C154.197 14.3243 153.777 16.4997 153.777 18.685H155.777ZM156.89 12.8944C157.686 10.9055 158.829 9.11507 160.325 7.51894L158.866 6.15106C157.203 7.92558 155.923 9.92715 155.033 12.1516L156.89 12.8944ZM160.325 7.51894C161.811 5.93418 163.626 4.63755 165.784 3.63372L164.941 1.82028C162.57 2.92311 160.54 4.36514 158.866 6.15106L160.325 7.51894ZM165.793 3.62948C167.958 2.59658 170.44 2.068 173.263 2.068V0.0679996C170.186 0.0679996 167.402 0.645416 164.932 1.82452L165.793 3.62948ZM173.263 2.068C175.596 2.068 177.847 2.19761 180.018 2.45599L180.254 0.470011C178 0.201722 175.67 0.0679996 173.263 0.0679996V2.068ZM180.02 2.45631C182.265 2.71729 184.348 3.02991 186.27 3.39357L186.642 1.42843C184.666 1.05475 182.536 0.735372 180.251 0.469692L180.02 2.45631ZM186.296 3.3981C188.243 3.71392 190.006 4.00334 191.584 4.26639L191.913 2.29361C190.331 2.02998 188.566 1.74007 186.616 1.42389L186.296 3.3981ZM191.584 4.26639C193.194 4.53463 194.57 4.675 195.699 4.675V2.675C194.721 2.675 193.464 2.55203 191.913 2.29361L191.584 4.26639ZM195.699 4.675C196.956 4.675 198.034 4.56704 198.896 4.32052L198.347 2.39747C197.735 2.57229 196.864 2.675 195.699 2.675V4.675ZM198.938 4.30768C199.778 4.02771 200.496 3.69675 201.039 3.28999L199.839 1.69C199.538 1.91525 199.046 2.16362 198.305 2.41031L198.938 4.30768ZM200.993 3.32205C201.555 2.948 202.025 2.50055 202.334 1.95914L200.597 0.966858C200.486 1.16278 200.271 1.39999 199.884 1.65794L200.993 3.32205ZM202.314 1.993C202.573 1.57761 202.805 1.21751 203.009 0.911701L201.345 -0.197703C201.127 0.128486 200.885 0.505724 200.618 0.933002L202.314 1.993ZM201.681 1.22525L202.234 1.54124L203.226 -0.195251L202.673 -0.511247L201.681 1.22525ZM201.73 0.672995C201.73 1.29929 201.656 2.30674 201.499 3.72256L203.487 3.94343C203.645 2.51525 203.73 1.41604 203.73 0.672995H201.73ZM201.495 3.75913C201.399 5.05637 201.062 6.36639 200.473 7.69286L202.301 8.50514C202.975 6.9876 203.375 5.45362 203.49 3.90687L201.495 3.75913ZM200.473 7.69286C199.913 8.95204 199.019 10.0934 197.756 11.1131L199.013 12.6689C200.489 11.4766 201.596 10.09 202.301 8.50514L200.473 7.69286ZM197.76 11.1101C196.684 11.9712 195.068 12.471 192.776 12.471V14.471C195.329 14.471 197.452 13.9175 199.009 12.6719L197.76 11.1101ZM192.776 12.471C192.131 12.471 191.097 12.3528 189.634 12.0916L189.282 14.0604C190.768 14.3258 191.946 14.471 192.776 14.471V12.471ZM189.634 12.0916C188.143 11.8254 186.445 11.5602 184.539 11.2955L184.264 13.2765C186.151 13.5385 187.823 13.7999 189.282 14.0604L189.634 12.0916ZM184.566 11.2996C182.654 10.9809 180.612 10.6892 178.44 10.4244L178.198 12.4096C180.344 12.6714 182.357 12.9591 184.237 13.2724L184.566 11.2996ZM178.44 10.4244C176.242 10.1563 174.068 10.022 171.92 10.022V12.022C173.985 12.022 176.077 12.1511 178.198 12.4096L178.44 10.4244ZM171.92 10.022C169.853 10.022 167.972 10.3854 166.297 11.1365L167.115 12.9615C168.494 12.3432 170.089 12.022 171.92 12.022V10.022ZM166.297 11.1365C164.666 11.8674 163.247 12.83 162.049 14.0279L163.463 15.4421C164.477 14.428 165.691 13.5999 167.115 12.9615L166.297 11.1365ZM162.032 14.0453C160.897 15.2362 160.013 16.5749 159.386 18.0584L161.228 18.8376C161.759 17.5824 162.507 16.4458 163.48 15.4247L162.032 14.0453ZM159.373 18.089C158.806 19.5647 158.517 21.0554 158.517 22.556H160.517C160.517 21.3179 160.754 20.07 161.24 18.807L159.373 18.089ZM158.517 22.556C158.517 24.417 158.984 26.1473 159.92 27.7268L161.641 26.7072C160.892 25.4427 160.517 24.0656 160.517 22.556H158.517ZM159.929 27.7411C160.906 29.3293 162.369 30.4398 164.248 31.0857L164.898 29.1943C163.406 28.6816 162.34 27.8433 161.632 26.6929L159.929 27.7411ZM163.573 30.14V30.772H165.573V30.14H163.573ZM158.38 20.506C158.527 18.7455 159.015 17.0862 159.847 15.5202L158.081 14.5818C157.122 16.3865 156.556 18.3085 156.387 20.34L158.38 20.506ZM159.847 15.5202C160.689 13.9359 161.748 12.5836 163.023 11.455L161.698 9.957C160.235 11.2511 159.03 12.7955 158.081 14.5818L159.847 15.5202ZM163.025 11.4534C164.366 10.2611 165.854 9.31912 167.491 8.62458L166.71 6.78342C164.871 7.56354 163.199 8.62294 161.696 9.95859L163.025 11.4534ZM167.491 8.62458C169.109 7.93836 170.767 7.598 172.473 7.598V5.598C170.492 5.598 168.569 5.99497 166.71 6.78342L167.491 8.62458ZM172.473 7.598C174.106 7.598 175.739 7.72556 177.374 7.98101L177.683 6.00499C175.947 5.73377 174.21 5.598 172.473 5.598V7.598ZM177.405 7.98528C179.07 8.1934 180.735 8.45358 182.4 8.76587L182.769 6.80013C181.064 6.48042 179.358 6.21393 177.653 6.00072L177.405 7.98528ZM182.435 8.77171C184.173 9.03505 185.911 9.29838 187.649 9.56171L187.949 7.58428C186.211 7.32095 184.473 7.05762 182.735 6.79428L182.435 8.77171ZM187.653 9.56236C189.474 9.83009 191.32 10.0174 193.193 10.1244L193.307 8.12763C191.492 8.02395 189.705 7.84257 187.944 7.58364L187.653 9.56236ZM193.173 10.1231C194.651 10.2368 195.971 10.075 197.073 9.55682L196.221 7.74718C195.531 8.07164 194.587 8.2259 193.326 8.12895L193.173 10.1231ZM197.094 9.54642C198.158 9.01448 199.079 8.30166 199.851 7.41093L198.34 6.10107C197.743 6.79033 197.032 7.34152 196.2 7.75757L197.094 9.54642ZM199.096 5.756H199.017V7.756H199.096V5.756ZM198.348 6.0127C197.967 6.35535 197.44 6.63298 196.72 6.81286L197.205 8.75314C198.171 8.51168 199.013 8.10464 199.686 7.49929L198.348 6.0127ZM196.778 6.80013C196.028 6.94079 195.161 6.99185 194.169 6.94224L194.069 8.93975C195.183 8.99548 196.212 8.94121 197.147 8.76587L196.778 6.80013ZM194.148 6.94143C192.397 6.88992 190.645 6.73537 188.892 6.47764L188.601 8.45636C190.43 8.72529 192.259 8.88674 194.089 8.94056L194.148 6.94143ZM188.926 6.48313C187.186 6.16681 185.42 5.85051 183.628 5.53421L183.28 7.50378C185.069 7.81949 186.832 8.13519 188.568 8.45087L188.926 6.48313ZM183.661 5.54076C181.9 5.16724 180.088 4.8474 178.223 4.58105L177.94 6.56095C179.763 6.82127 181.531 7.13342 183.246 7.49723L183.661 5.54076ZM178.227 4.58164C176.386 4.31089 174.494 4.176 172.552 4.176V6.176C174.401 6.176 176.196 6.30444 177.936 6.56036L178.227 4.58164ZM172.552 4.176C170.298 4.176 168.151 4.65606 166.121 5.61475L166.975 7.42324C168.737 6.59127 170.592 6.176 172.552 6.176V4.176ZM166.142 5.60518C164.129 6.4995 162.363 7.73223 160.851 9.30086L162.291 10.6891C163.622 9.30843 165.174 8.22383 166.954 7.43281L166.142 5.60518ZM160.85 9.30136C159.396 10.8118 158.249 12.5464 157.413 14.4991L159.251 15.2869C159.994 13.5529 161.007 12.0222 162.291 10.6886L160.85 9.30136ZM157.417 14.4894C156.565 16.4197 156.192 18.4201 156.306 20.4785L158.303 20.3675C158.207 18.6339 158.518 16.9476 159.247 15.2966L157.417 14.4894ZM157.305 21.423H157.384V19.423H157.305V21.423ZM174.968 46.6919C174.504 49.0118 173.905 50.6224 173.227 51.6177L174.879 52.7443C175.78 51.4223 176.445 49.5042 176.929 47.0841L174.968 46.6919ZM173.239 51.5998C172.513 52.6161 171.792 53.2409 171.099 53.5672L171.951 55.3768C173.048 54.8604 174.012 53.9579 174.866 52.7622L173.239 51.5998ZM170.525 54.472V54.551H172.525V54.472H170.525ZM171.889 55.4822C173.287 54.9353 174.571 53.9532 175.753 52.6025L174.248 51.2855C173.218 52.4628 172.185 53.2187 171.16 53.6198L171.889 55.4822ZM175.738 52.6197C177.061 51.1768 177.934 49.1684 178.43 46.6891L176.469 46.2969C176.017 48.5576 175.258 50.1832 174.264 51.2683L175.738 52.6197ZM178.428 46.6984L182.773 26.0004L180.816 25.5896L176.471 46.2876L178.428 46.6984ZM182.775 25.9911C183.242 23.6555 183.794 22.059 184.383 21.1074L182.682 20.0546C181.902 21.315 181.295 23.1945 180.814 25.5989L182.775 25.9911ZM184.376 21.1179C185.033 20.0864 185.8 19.3804 186.666 18.9474L185.772 17.1586C184.531 17.7789 183.507 18.7583 182.689 20.0441L184.376 21.1179ZM187.219 18.053V17.974H185.219V18.053H187.219ZM185.884 17.0316C184.085 17.6701 182.625 18.7024 181.548 20.139L183.148 21.339C183.966 20.2476 185.087 19.4365 186.553 18.9164L185.884 17.0316ZM181.532 20.161C180.523 21.5854 179.801 23.5554 179.313 25.9939L181.274 26.3861C181.735 24.0846 182.382 22.4206 183.164 21.317L181.532 20.161ZM179.315 25.9846L174.97 46.6826L176.927 47.0934L181.272 26.3954L179.315 25.9846ZM216.915 21.055L215.922 20.931L215.742 22.3752L217.155 22.0258L216.915 21.055ZM216.994 20.423L216.356 19.6526L216.05 19.9054L216.001 20.299L216.994 20.423ZM230.74 9.047L231.725 9.21902L232.191 6.54764L230.102 8.2766L230.74 9.047ZM222.366 57V58H223.206L223.351 57.172L222.366 57ZM216.046 57L215.053 56.876L214.913 58H216.046V57ZM216.125 56.368V55.368H215.242L215.132 56.244L216.125 56.368ZM217.31 55.894L217.96 56.6533L217.31 55.894ZM218.021 54.788L218.991 55.0305L218.999 54.996L219.005 54.9609L218.021 54.788ZM224.262 19.238L225.246 19.4109L225.512 17.8986L224.021 18.2672L224.262 19.238ZM237.613 4.86L238.598 5.03147L238.672 4.60572L238.413 4.26L237.613 4.86ZM228.923 54.788L229.893 55.0305L229.902 54.9953L229.908 54.9595L228.923 54.788ZM229.16 55.894L228.391 56.5342L229.16 55.894ZM230.187 56.368L231.179 56.492L231.319 55.368H230.187V56.368ZM230.108 57V58H230.99L231.1 57.124L230.108 57ZM223.788 57L222.802 56.8279L222.598 58H223.788V57ZM232.399 7.704L231.754 6.93909L231.476 7.17348L231.413 7.53193L232.399 7.704ZM236.902 3.912L237.702 3.312L237.067 2.46556L236.257 3.14709L236.902 3.912ZM217.907 21.179L217.986 20.547L216.001 20.299L215.922 20.931L217.907 21.179ZM217.631 21.1934L231.377 9.81739L230.102 8.2766L216.356 19.6526L217.631 21.1934ZM229.754 8.87497L221.38 56.828L223.351 57.172L231.725 9.21902L229.754 8.87497ZM222.366 56H216.046V58H222.366V56ZM217.038 57.124L217.117 56.492L215.132 56.244L215.053 56.876L217.038 57.124ZM216.125 57.368C216.821 57.368 217.44 57.0995 217.96 56.6533L216.659 55.1347C216.442 55.3205 216.271 55.368 216.125 55.368V57.368ZM217.96 56.6533C218.467 56.2189 218.829 55.6765 218.991 55.0305L217.05 54.5455C217.001 54.7422 216.889 54.9371 216.659 55.1347L217.96 56.6533ZM219.005 54.9609L225.246 19.4109L223.277 19.0651L217.036 54.6151L219.005 54.9609ZM224.021 18.2672L216.674 20.0842L217.155 22.0258L224.502 20.2088L224.021 18.2672ZM236.627 4.68853L227.937 54.6165L229.908 54.9595L238.598 5.03147L236.627 4.68853ZM227.952 54.5455C227.775 55.2561 227.911 55.9574 228.391 56.5342L229.928 55.2538C229.89 55.2087 229.883 55.1828 229.881 55.171C229.878 55.1571 229.871 55.1156 229.893 55.0305L227.952 54.5455ZM228.391 56.5342C228.85 57.0845 229.477 57.368 230.187 57.368V55.368C230.054 55.368 229.996 55.3355 229.928 55.2538L228.391 56.5342ZM229.194 56.244L229.115 56.876L231.1 57.124L231.179 56.492L229.194 56.244ZM230.108 56H223.788V58H230.108V56ZM224.773 57.1721L233.384 7.87607L231.413 7.53193L222.802 56.8279L224.773 57.1721ZM233.043 8.46891L237.546 4.67691L236.257 3.14709L231.754 6.93909L233.043 8.46891ZM236.102 4.512L236.813 5.46L238.413 4.26L237.702 3.312L236.102 4.512Z" fill="#D1B4A3" mask="url(#path-1-outside-1_25_233)"/>
</svg>
