<svg width="32" height="32" viewBox="0 0 32 32" fill="none" xmlns="http://www.w3.org/2000/svg">
<path d="M23.9998 29.3334C21.0532 29.3334 18.6665 26.9454 18.6665 24.0001C18.6665 21.0547 21.0532 18.6667 23.9998 18.6667C26.9452 18.6667 29.3332 21.0547 29.3332 24.0001C29.3332 26.9454 26.9452 29.3334 23.9998 29.3334" stroke="#323232" stroke-width="2" stroke-linecap="round" stroke-linejoin="round"/>
<path d="M14.6667 27.9999H6.66667C5.19333 27.9999 4 26.8066 4 25.3333V11.3333C4 10.2293 4.896 9.33325 6 9.33325H23.3333C24.4373 9.33325 25.3333 10.2293 25.3333 11.3333V14.6666" stroke="#323232" stroke-width="2" stroke-linecap="round" stroke-linejoin="round"/>
<path d="M9.3335 9V9C9.3335 6.23867 11.5722 4 14.3335 4H15.0002C17.7615 4 20.0002 6.23867 20.0002 9V9" stroke="#323232" stroke-width="2" stroke-linecap="round" stroke-linejoin="round"/>
<path d="M20.0002 9V9.33333" stroke="#323232" stroke-width="2" stroke-linecap="round" stroke-linejoin="round"/>
<path d="M26.0746 22.9626L23.4813 25.556L21.9253 24" stroke="#323232" stroke-width="2" stroke-linecap="round" stroke-linejoin="round"/>
</svg>
