<svg width="32" height="32" viewBox="0 0 32 32" fill="none" xmlns="http://www.w3.org/2000/svg">
<path d="M7.41029 13.0174L7.02762 11.5947C6.64229 10.1694 7.48896 8.70402 8.91562 8.32402L22.3063 4.75602C23.7196 4.38002 25.1863 5.22669 25.5676 6.63869L27.9063 15.3174C28.2903 16.7427 27.4423 18.208 26.0183 18.588L23.1996 19.3387" stroke="#323232" stroke-width="2" stroke-linecap="round" stroke-linejoin="round"/>
<path fill-rule="evenodd" clip-rule="evenodd" d="M6.66667 27.3333H20.5333C22.0067 27.3333 23.2 26.14 23.2 24.6667V15.684C23.2 14.2107 22.0067 13.0173 20.5333 13.0173H6.66667C5.19333 13.0173 4 14.2107 4 15.684V24.6667C4 26.14 5.19467 27.3333 6.66667 27.3333Z" stroke="#323232" stroke-width="2" stroke-linecap="round" stroke-linejoin="round"/>
<path d="M4 18.4533H23.2" stroke="#323232" stroke-width="2" stroke-linecap="round" stroke-linejoin="round"/>
</svg>
