<svg width="32" height="32" viewBox="0 0 32 32" fill="none" xmlns="http://www.w3.org/2000/svg">
<path fill-rule="evenodd" clip-rule="evenodd" d="M27.9013 21.3318V10.6678C27.9013 9.71443 27.3933 8.83443 26.568 8.35843L17.3333 3.02643C16.508 2.55043 15.492 2.55043 14.6666 3.02643L5.43197 8.35843C4.60663 8.83443 4.09863 9.71577 4.09863 10.6678V21.3304C4.09863 22.2838 4.60663 23.1638 5.43197 23.6398L14.6666 28.9731C15.492 29.4491 16.508 29.4491 17.3333 28.9731L26.568 23.6411C27.3933 23.1651 27.9013 22.2838 27.9013 21.3318Z" stroke="#323232" stroke-width="2" stroke-linecap="round" stroke-linejoin="round"/>
<path d="M8.22656 16.8398L12.2266 19.1598" stroke="#323232" stroke-width="2" stroke-linecap="round" stroke-linejoin="round"/>
<path d="M4.45605 9.33447L16.0001 15.9998L27.5441 9.33447" stroke="#323232" stroke-width="2" stroke-linecap="round" stroke-linejoin="round"/>
<path d="M16.0002 29.3333V16" stroke="#323232" stroke-width="2" stroke-linecap="round" stroke-linejoin="round"/>
<path d="M21.7732 12.6667L10.0532 5.69336" stroke="#323232" stroke-width="2" stroke-linecap="round" stroke-linejoin="round"/>
</svg>
