<svg width="32" height="32" viewBox="0 0 32 32" fill="none" xmlns="http://www.w3.org/2000/svg">
<path fill-rule="evenodd" clip-rule="evenodd" d="M12.1889 4.29278L28.2716 12.5936C28.7123 12.821 28.9904 13.274 28.9938 13.7699C28.9971 14.2657 28.7252 14.7225 28.2876 14.9559L22.2851 18.1572C21.512 18.5697 20.5856 18.5762 19.8068 18.1746L3.72807 9.87111C3.28742 9.64371 3.00928 9.19064 3.00589 8.69479C3.00256 8.19893 3.27454 7.74214 3.71206 7.50879L9.71456 4.30746C10.4871 3.89723 11.4116 3.89175 12.1889 4.29278Z" stroke="#323232" stroke-width="2" stroke-linecap="round" stroke-linejoin="round"/>
<path fill-rule="evenodd" clip-rule="evenodd" d="M19.8108 4.29278L3.72807 12.5936C3.28742 12.821 3.00928 13.274 3.00589 13.7699C3.00256 14.2657 3.27454 14.7225 3.71206 14.9559L9.71456 18.1572C10.4877 18.5697 11.4141 18.5762 12.1929 18.1746L28.2716 9.87111C28.7123 9.64371 28.9904 9.19064 28.9938 8.69479C28.9971 8.19893 28.7252 7.74214 28.2876 7.50879L22.2851 4.30746C21.5126 3.89723 20.5881 3.89175 19.8108 4.29278Z" stroke="#323232" stroke-width="2" stroke-linecap="round" stroke-linejoin="round"/>
<path d="M25.4778 16.4551V21.7053C25.4778 22.6907 24.9348 23.5959 24.0653 24.0596L17.2624 27.6918C16.4779 28.1101 15.5366 28.1101 14.752 27.6918L7.94921 24.0596C7.07966 23.5959 6.53662 22.6907 6.53662 21.7053V16.4551" stroke="#323232" stroke-width="2" stroke-linecap="round" stroke-linejoin="round"/>
<path d="M16.0004 28.0054V16.2058" stroke="#323232" stroke-width="2" stroke-linecap="round" stroke-linejoin="round"/>
</svg>
