<svg width="32" height="32" viewBox="0 0 32 32" fill="none" xmlns="http://www.w3.org/2000/svg">
<path d="M16 14.6667H21.7224C22.3434 14.6667 22.9558 14.8113 23.5112 15.089L24.2915 15.4792C24.9719 15.8194 25.5412 16.3466 25.9326 16.9989L29.3333 22.6667" stroke="#323232" stroke-width="2" stroke-linecap="round" stroke-linejoin="round"/>
<path d="M22.6667 29.3333L18.9981 27.9226C17.9177 27.5072 17.0017 26.7515 16.3886 25.7696L12.3236 19.2602C11.7981 18.4187 11.9227 17.3258 12.6243 16.6242V16.6242C13.038 16.2106 13.6035 15.9851 14.1883 16.0008C14.7731 16.0164 15.3258 16.2717 15.7168 16.7069L18.6757 20H21.3333" stroke="#323232" stroke-width="2" stroke-linecap="round" stroke-linejoin="round"/>
<path d="M22.6665 6.66667H27.9998" stroke="#323232" stroke-width="2" stroke-linecap="round" stroke-linejoin="round"/>
<path d="M24.0002 4L21.3335 6.66667" stroke="#323232" stroke-width="2" stroke-linecap="round" stroke-linejoin="round"/>
<path d="M24.0002 9.33341L21.3335 6.66675" stroke="#323232" stroke-width="2" stroke-linecap="round" stroke-linejoin="round"/>
<path d="M15.9998 17.022V8.66659C15.9998 7.78253 15.6486 6.93468 15.0235 6.30956C14.3984 5.68444 13.5506 5.33325 12.6665 5.33325H5.99984C4.15889 5.33325 2.6665 6.82564 2.6665 8.66659V20.6666C2.6665 22.5075 4.15889 23.9999 5.99984 23.9999H15.2833" stroke="#323232" stroke-width="2" stroke-linecap="round" stroke-linejoin="round"/>
<path d="M7.33317 23.9999V5.33325" stroke="#323232" stroke-width="2" stroke-linecap="round" stroke-linejoin="round"/>
</svg>
