<svg width="40" height="40" viewBox="0 0 40 40" fill="none" xmlns="http://www.w3.org/2000/svg">
<path opacity="0.4" fill-rule="evenodd" clip-rule="evenodd" d="M22.0833 8.3335C22.0833 7.64314 22.6429 7.0835 23.3333 7.0835H33.3333C34.0236 7.0835 34.5833 7.64314 34.5833 8.3335C34.5833 9.02385 34.0236 9.5835 33.3333 9.5835H23.3333C22.6429 9.5835 22.0833 9.02385 22.0833 8.3335Z" fill="#08BA44"/>
<path opacity="0.4" fill-rule="evenodd" clip-rule="evenodd" d="M22.0833 13.3335C22.0833 12.6431 22.6429 12.0835 23.3333 12.0835H28.3333C29.0236 12.0835 29.5833 12.6431 29.5833 13.3335C29.5833 14.0239 29.0236 14.5835 28.3333 14.5835H23.3333C22.6429 14.5835 22.0833 14.0239 22.0833 13.3335Z" fill="#08BA44"/>
<path fill-rule="evenodd" clip-rule="evenodd" d="M19.1666 4.5835C11.1069 4.5835 4.58325 11.1072 4.58325 19.1668C4.58325 27.2265 11.1069 33.7502 19.1666 33.7502C27.2262 33.7502 33.7499 27.2265 33.7499 19.1668C33.7499 18.4765 34.3096 17.9168 34.9999 17.9168C35.6903 17.9168 36.2499 18.4765 36.2499 19.1668C36.2499 28.6072 28.6069 36.2502 19.1666 36.2502C9.72623 36.2502 2.08325 28.6072 2.08325 19.1668C2.08325 9.72647 9.72623 2.0835 19.1666 2.0835C19.8569 2.0835 20.4166 2.64314 20.4166 3.3335C20.4166 4.02385 19.8569 4.5835 19.1666 4.5835Z" fill="#08BA44"/>
<path opacity="0.4" fill-rule="evenodd" clip-rule="evenodd" d="M32.4494 32.4496C32.9375 31.9615 33.729 31.9615 34.2171 32.4496L37.5505 35.7829C38.0386 36.2711 38.0386 37.0626 37.5505 37.5507C37.0623 38.0389 36.2709 38.0389 35.7827 37.5507L32.4494 34.2174C31.9612 33.7292 31.9612 32.9378 32.4494 32.4496Z" fill="#08BA44"/>
</svg>
