<svg width="40" height="40" viewBox="0 0 40 40" fill="none" xmlns="http://www.w3.org/2000/svg">
<path opacity="0.4" fill-rule="evenodd" clip-rule="evenodd" d="M12.2651 3.72857C13.3887 2.53005 15.0566 2.0835 17.0833 2.0835H22.9166C24.9433 2.0835 26.6111 2.53005 27.7348 3.72857C28.8423 4.90993 29.1666 6.55622 29.1666 8.3335V11.6668C29.1666 12.3572 28.6069 12.9168 27.9166 12.9168H12.0833C11.3929 12.9168 10.8333 12.3572 10.8333 11.6668V8.3335C10.8333 6.55622 11.1576 4.90993 12.2651 3.72857ZM14.0889 5.43842C13.6339 5.92373 13.3333 6.77744 13.3333 8.3335V10.4168H26.6666V8.3335C26.6666 6.77744 26.3659 5.92373 25.9109 5.43842C25.472 4.97028 24.6399 4.5835 22.9166 4.5835H17.0833C15.3599 4.5835 14.5278 4.97028 14.0889 5.43842Z" fill="#08BA44"/>
<path fill-rule="evenodd" clip-rule="evenodd" d="M12.0833 25C12.0833 24.3096 12.6429 23.75 13.3333 23.75H26.6666C27.3569 23.75 27.9166 24.3096 27.9166 25V31.6667C27.9166 33.526 27.4509 35.1501 26.3005 36.3006C25.15 37.451 23.5259 37.9167 21.6666 37.9167H18.3333C16.4739 37.9167 14.8498 37.451 13.6994 36.3006C12.5489 35.1501 12.0833 33.526 12.0833 31.6667V25ZM14.5833 26.25V31.6667C14.5833 33.1407 14.9509 34.0166 15.4671 34.5328C15.9834 35.049 16.8593 35.4167 18.3333 35.4167H21.6666C23.1406 35.4167 24.0165 35.049 24.5327 34.5328C25.0489 34.0166 25.4166 33.1407 25.4166 31.6667V26.25H14.5833Z" fill="#08BA44"/>
<path fill-rule="evenodd" clip-rule="evenodd" d="M7.13388 13.8009C6.61765 14.3171 6.25 15.193 6.25 16.667V25.0003C6.25 26.4743 6.61765 27.3502 7.13388 27.8664C7.65012 28.3827 8.52601 28.7503 10 28.7503H12.0833V25.0003C12.0833 24.31 12.643 23.7503 13.3333 23.7503H26.6667C27.357 23.7503 27.9167 24.31 27.9167 25.0003V28.7503H30C31.474 28.7503 32.3499 28.3827 32.8661 27.8664C33.3823 27.3502 33.75 26.4743 33.75 25.0003V16.667C33.75 15.193 33.3823 14.3171 32.8661 13.8009C32.3499 13.2846 31.474 12.917 30 12.917H10C8.52601 12.917 7.65012 13.2846 7.13388 13.8009ZM5.36612 12.0331C6.51655 10.8827 8.14065 10.417 10 10.417H30C31.8593 10.417 33.4835 10.8827 34.6339 12.0331C35.7843 13.1835 36.25 14.8076 36.25 16.667V25.0003C36.25 26.8597 35.7843 28.4838 34.6339 29.6342C33.4835 30.7846 31.8593 31.2503 30 31.2503H26.6667C25.9763 31.2503 25.4167 30.6907 25.4167 30.0003V26.2503H14.5833V30.0003C14.5833 30.6907 14.0237 31.2503 13.3333 31.2503H10C8.14065 31.2503 6.51655 30.7846 5.36612 29.6342C4.21568 28.4838 3.75 26.8597 3.75 25.0003V16.667C3.75 14.8076 4.21568 13.1835 5.36612 12.0331Z" fill="#08BA44"/>
<path fill-rule="evenodd" clip-rule="evenodd" d="M10.4167 25C10.4167 24.3096 10.9764 23.75 11.6667 23.75H28.3334C29.0238 23.75 29.5834 24.3096 29.5834 25C29.5834 25.6904 29.0238 26.25 28.3334 26.25H11.6667C10.9764 26.25 10.4167 25.6904 10.4167 25Z" fill="#08BA44"/>
<path opacity="0.4" fill-rule="evenodd" clip-rule="evenodd" d="M10.4167 18.3335C10.4167 17.6431 10.9764 17.0835 11.6667 17.0835H16.6667C17.3571 17.0835 17.9167 17.6431 17.9167 18.3335C17.9167 19.0239 17.3571 19.5835 16.6667 19.5835H11.6667C10.9764 19.5835 10.4167 19.0239 10.4167 18.3335Z" fill="#08BA44"/>
</svg>
