<svg width="40" height="40" viewBox="0 0 40 40" fill="none" xmlns="http://www.w3.org/2000/svg">
<path opacity="0.4" fill-rule="evenodd" clip-rule="evenodd" d="M17.5833 4.6626C16.7704 4.6626 16.0234 4.78103 15.5253 4.96933L15.5227 4.97032L7.22442 8.08632C7.22416 8.08642 7.22468 8.08622 7.22442 8.08632C6.56028 8.33707 5.88673 8.89034 5.37477 9.63267C4.8627 10.3752 4.58325 11.2032 4.58325 11.9168V24.2668C4.58325 24.9954 4.83202 25.9361 5.28924 26.8524C5.74666 27.7691 6.3474 28.5305 6.92985 28.9642L6.93176 28.9657L14.0598 34.295C14.0605 34.2956 14.0613 34.2961 14.062 34.2967C14.9938 34.9847 16.2696 35.3626 17.5978 35.3626C18.9267 35.3626 20.1967 34.9845 21.1185 34.2987C21.119 34.2983 21.1195 34.2979 21.12 34.2975L25.7424 30.8334H19.5666C17.6143 30.8334 15.9023 30.6177 14.7695 29.504C13.6307 28.3845 13.4082 26.6859 13.3999 24.7722L13.3999 24.7667V15.7168C13.3999 13.9545 13.5779 12.394 14.4542 11.284C15.3871 10.1021 16.8353 9.74886 18.4591 9.65232C18.4838 9.65085 18.5085 9.65011 18.5332 9.65011C18.67 9.65011 18.8127 9.64659 18.9808 9.64243L18.9919 9.64215C19.1599 9.638 19.3492 9.63343 19.5499 9.63343H29.7835C29.2854 8.92257 28.6143 8.34772 27.9248 8.08609C27.9244 8.08594 27.9252 8.08624 27.9248 8.08609L19.6412 4.96933C19.1432 4.78103 18.3961 4.6626 17.5833 4.6626ZM20.5244 2.63055C19.656 2.3024 18.5867 2.1626 17.5833 2.1626C16.58 2.1626 15.511 2.30234 14.6427 2.63032C14.6431 2.63014 14.6422 2.6305 14.6427 2.63032L6.34385 5.74654L6.34211 5.74719C5.1065 6.21325 4.05459 7.14347 3.31674 8.21334C2.57881 9.28334 2.08325 10.597 2.08325 11.9168V24.2668C2.08325 25.4881 2.47615 26.8141 3.05227 27.9686C3.62801 29.1224 4.45193 30.2357 5.43573 30.9686C5.43542 30.9684 5.43605 30.9689 5.43573 30.9686L12.5681 36.3012L12.5734 36.3052C14.0081 37.3661 15.8313 37.8626 17.5978 37.8626C19.3641 37.8626 21.185 37.3661 22.6132 36.3026L22.6162 36.3004L29.7329 30.9671C29.7607 30.9462 29.7877 30.9242 29.8137 30.901C29.8714 30.8497 29.9313 30.7997 30.0085 30.7354C30.0813 30.6747 30.1714 30.5997 30.2637 30.5177C30.6516 30.1729 30.7861 29.6243 30.6017 29.1392C30.4172 28.6541 29.9522 28.3334 29.4333 28.3334H19.5666C17.6022 28.3334 16.8642 28.0575 16.522 27.7212C16.1859 27.3908 15.9085 26.6816 15.8999 24.764V15.7168C15.8999 13.9623 16.1219 13.2062 16.4165 12.8329C16.6525 12.5339 17.1399 12.2395 18.5725 12.15C18.7281 12.1495 18.8844 12.1456 19.0301 12.142L19.0537 12.1414C19.2233 12.1372 19.384 12.1334 19.5499 12.1334H31.7166C32.1005 12.1334 32.4631 11.957 32.7001 11.655C32.937 11.3529 33.022 10.9587 32.9307 10.5859C32.4295 8.54099 30.8276 6.51259 28.8095 5.74787L20.5244 2.63055C20.5242 2.63044 20.5247 2.63065 20.5244 2.63055Z" fill="#08BA44"/>
<path fill-rule="evenodd" clip-rule="evenodd" d="M13.4165 18.7002C13.4165 18.0098 13.9761 17.4502 14.6665 17.4502H36.6665C37.3569 17.4502 37.9165 18.0098 37.9165 18.7002C37.9165 19.3906 37.3569 19.9502 36.6665 19.9502H14.6665C13.9761 19.9502 13.4165 19.3906 13.4165 18.7002Z" fill="#08BA44"/>
<path fill-rule="evenodd" clip-rule="evenodd" d="M18.5927 12.1166C17.1623 12.214 16.6714 12.5101 16.4331 12.812C16.138 13.1859 15.9165 13.939 15.9165 15.6834V24.7334C15.9165 26.6626 16.1925 27.3746 16.5266 27.7049C16.8659 28.0403 17.6011 28.3167 19.5665 28.3167H31.7665C33.7033 28.3167 34.4475 28.0569 34.7939 27.7329C35.1153 27.4324 35.3994 26.7803 35.4165 24.9444V15.7001C35.4165 13.7617 35.1402 13.0503 34.8064 12.7203C34.4661 12.3838 33.7306 12.1087 31.7638 12.1001H19.5665C19.4005 12.1001 19.2398 12.1039 19.0702 12.108L19.0467 12.1086C18.902 12.1122 18.747 12.116 18.5927 12.1166ZM19.0086 9.60879C19.1766 9.60466 19.3658 9.6001 19.5665 9.6001H31.7718C33.7197 9.6084 35.4337 9.82492 36.5641 10.9424C37.7011 12.0666 37.9165 13.7718 37.9165 15.7001V24.9613C37.8997 26.8212 37.659 28.4764 36.5016 29.5589C35.3688 30.6182 33.6797 30.8167 31.7665 30.8167H19.5665C17.6153 30.8167 15.9005 30.6015 14.7689 29.4827C13.6322 28.3589 13.4165 26.6543 13.4165 24.7334V15.6834C13.4165 13.9279 13.595 12.3726 14.4707 11.2631C15.4012 10.0844 16.8453 9.72466 18.4689 9.61935C18.4959 9.6176 18.5228 9.61673 18.5498 9.61673C18.6867 9.61673 18.8293 9.61321 18.9974 9.60907L19.0086 9.60879Z" fill="#08BA44"/>
<path fill-rule="evenodd" clip-rule="evenodd" d="M17.6167 25.4336C17.6167 24.7432 18.1763 24.1836 18.8667 24.1836H21.0833C21.7737 24.1836 22.3333 24.7432 22.3333 25.4336C22.3333 26.1239 21.7737 26.6836 21.0833 26.6836H18.8667C18.1763 26.6836 17.6167 26.1239 17.6167 25.4336Z" fill="#08BA44"/>
<path fill-rule="evenodd" clip-rule="evenodd" d="M23.3333 25.4336C23.3333 24.7432 23.8929 24.1836 24.5833 24.1836H30.0333C30.7236 24.1836 31.2833 24.7432 31.2833 25.4336C31.2833 26.1239 30.7236 26.6836 30.0333 26.6836H24.5833C23.8929 26.6836 23.3333 26.1239 23.3333 25.4336Z" fill="#08BA44"/>
</svg>
