<svg width="220" height="36" viewBox="0 0 220 36" fill="none" xmlns="http://www.w3.org/2000/svg">
<path d="M18.0356 3.66206C17.1793 3.66176 16.3048 4.19457 15.7868 5.25507L12.601 11.8141L5.33916 12.8448C3.00381 13.1697 2.24721 15.4608 3.93366 17.1078L9.18081 22.2153L7.96281 29.3838C7.56171 31.7043 9.48636 33.1068 11.5703 32.0073C12.3755 31.5813 16.5157 29.4363 18.0356 28.6338L24.5009 32.0073C26.5873 33.1068 28.5179 31.7058 28.1084 29.3838L26.8435 22.2153L32.0908 17.1078C33.7852 15.4668 33.0676 13.1763 30.7321 12.8448L23.4235 11.8141L20.2844 5.25507C19.7672 4.19412 18.892 3.66251 18.0356 3.66206ZM18.0356 7.55066L21.1277 13.8756C21.3458 14.323 21.7594 14.6022 22.2521 14.6721L29.2798 15.7023L24.173 20.6223C23.8156 20.9688 23.665 21.4443 23.7514 21.9333L24.9695 28.8678L18.7384 25.5888C18.3007 25.3578 17.7704 25.3578 17.3329 25.5888C16.5554 25.9983 12.7556 27.9948 11.1017 28.8678L12.2731 21.9813C12.3569 21.4938 12.2044 20.9673 11.8514 20.6223L6.79146 15.7023L13.7722 14.7189C14.2663 14.6502 14.7245 14.3238 14.9435 13.8756L18.0356 7.55066Z" fill="#FFB649"/>
<path d="M64.0356 3.66206C63.1792 3.66176 62.3047 4.19457 61.7868 5.25507L58.6009 11.8141L51.3391 12.8448C49.0038 13.1697 48.2472 15.4608 49.9336 17.1078L55.1808 22.2153L53.9628 29.3838C53.5617 31.7043 55.4863 33.1068 57.5703 32.0073C58.3755 31.5813 62.5156 29.4363 64.0356 28.6338L70.5009 32.0073C72.5872 33.1068 74.5179 31.7058 74.1084 29.3838L72.8434 22.2153L78.0907 17.1078C79.7851 15.4668 79.0675 13.1763 76.732 12.8448L69.4234 11.8141L66.2844 5.25507C65.7672 4.19412 64.8919 3.66251 64.0356 3.66206ZM64.0356 7.55066L67.1277 13.8756C67.3458 14.323 67.7593 14.6022 68.2521 14.6721L75.2797 15.7023L70.173 20.6223C69.8155 20.9688 69.6649 21.4443 69.7513 21.9333L70.9695 28.8678L64.7383 25.5888C64.3006 25.3578 63.7704 25.3578 63.3328 25.5888C62.5554 25.9983 58.7556 27.9948 57.1017 28.8678L58.273 21.9813C58.3569 21.4938 58.2043 20.9673 57.8514 20.6223L52.7914 15.7023L59.7721 14.7189C60.2662 14.6502 60.7245 14.3238 60.9435 13.8756L64.0356 7.55066Z" fill="#FFB649"/>
<path d="M110.036 3.66206C109.179 3.66176 108.305 4.19457 107.787 5.25507L104.601 11.8141L97.3391 12.8448C95.0038 13.1697 94.2472 15.4608 95.9336 17.1078L101.181 22.2153L99.9628 29.3838C99.5617 31.7043 101.486 33.1068 103.57 32.0073C104.375 31.5813 108.516 29.4363 110.036 28.6338L116.501 32.0073C118.587 33.1068 120.518 31.7058 120.108 29.3838L118.843 22.2153L124.091 17.1078C125.785 15.4668 125.068 13.1763 122.732 12.8448L115.423 11.8141L112.284 5.25507C111.767 4.19412 110.892 3.66251 110.036 3.66206ZM110.036 7.55066L113.128 13.8756C113.346 14.323 113.759 14.6022 114.252 14.6721L121.28 15.7023L116.173 20.6223C115.816 20.9688 115.665 21.4443 115.751 21.9333L116.969 28.8678L110.738 25.5888C110.301 25.3578 109.77 25.3578 109.333 25.5888C108.555 25.9983 104.756 27.9948 103.102 28.8678L104.273 21.9813C104.357 21.4938 104.204 20.9673 103.851 20.6223L98.7914 15.7023L105.772 14.7189C106.266 14.6502 106.724 14.3238 106.943 13.8756L110.036 7.55066Z" fill="#FFB649"/>
<path d="M156.036 3.66206C155.179 3.66176 154.305 4.19457 153.787 5.25507L150.601 11.8141L143.339 12.8448C141.004 13.1697 140.247 15.4608 141.934 17.1078L147.181 22.2153L145.963 29.3838C145.562 31.7043 147.486 33.1068 149.57 32.0073C150.375 31.5813 154.516 29.4363 156.036 28.6338L162.501 32.0073C164.587 33.1068 166.518 31.7058 166.108 29.3838L164.843 22.2153L170.091 17.1078C171.785 15.4668 171.068 13.1763 168.732 12.8448L161.423 11.8141L158.284 5.25507C157.767 4.19412 156.892 3.66251 156.036 3.66206ZM156.036 7.55066L159.128 13.8756C159.346 14.323 159.759 14.6022 160.252 14.6721L167.28 15.7023L162.173 20.6223C161.816 20.9688 161.665 21.4443 161.751 21.9333L162.969 28.8678L156.738 25.5888C156.301 25.3578 155.77 25.3578 155.333 25.5888C154.555 25.9983 150.756 27.9948 149.102 28.8678L150.273 21.9813C150.357 21.4938 150.204 20.9673 149.851 20.6223L144.791 15.7023L151.772 14.7189C152.266 14.6502 152.724 14.3238 152.943 13.8756L156.036 7.55066Z" fill="#FFB649"/>
<path d="M202.036 3.66206C201.179 3.66176 200.305 4.19457 199.787 5.25507L196.601 11.8141L189.339 12.8448C187.004 13.1697 186.247 15.4608 187.934 17.1078L193.181 22.2153L191.963 29.3838C191.562 31.7043 193.486 33.1068 195.57 32.0073C196.375 31.5813 200.516 29.4363 202.036 28.6338L208.501 32.0073C210.587 33.1068 212.518 31.7058 212.108 29.3838L210.843 22.2153L216.091 17.1078C217.785 15.4668 217.067 13.1763 214.732 12.8448L207.423 11.8141L204.284 5.25507C203.767 4.19412 202.892 3.66251 202.036 3.66206ZM202.036 7.55066L205.128 13.8756C205.346 14.323 205.759 14.6022 206.252 14.6721L213.28 15.7023L208.173 20.6223C207.815 20.9688 207.665 21.4443 207.751 21.9333L208.969 28.8678L202.738 25.5888C202.301 25.3578 201.77 25.3578 201.333 25.5888C200.555 25.9983 196.756 27.9948 195.102 28.8678L196.273 21.9813C196.357 21.4938 196.204 20.9673 195.851 20.6223L190.791 15.7023L197.772 14.7189C198.266 14.6502 198.724 14.3238 198.943 13.8756L202.036 7.55066Z" fill="#FFB649"/>
</svg>
