<svg width="220" height="36" viewBox="0 0 220 36" fill="none" xmlns="http://www.w3.org/2000/svg">
<path d="M18.0356 3.66206C17.1792 3.66176 16.3047 4.19457 15.7868 5.25507L12.601 11.8141L5.33915 12.8448C3.0038 13.1697 2.2472 15.4608 3.93365 17.1078L9.1808 22.2153L7.9628 29.3838C7.5617 31.7043 9.48635 33.1068 11.5703 32.0073C12.3755 31.5813 16.5156 29.4363 18.0356 28.6338L24.5009 32.0073C26.5872 33.1068 28.5179 31.7058 28.1084 29.3838L26.8434 22.2153L32.0907 17.1078C33.7851 15.4668 33.0675 13.1763 30.732 12.8448L23.4234 11.8141L20.2844 5.25507C19.7672 4.19412 18.8919 3.66251 18.0356 3.66206Z" fill="#FFB649"/>
<path d="M64.0356 3.66206C63.1792 3.66176 62.3047 4.19457 61.7868 5.25507L58.6009 11.8141L51.3391 12.8448C49.0038 13.1697 48.2472 15.4608 49.9336 17.1078L55.1808 22.2153L53.9628 29.3838C53.5617 31.7043 55.4863 33.1068 57.5703 32.0073C58.3755 31.5813 62.5156 29.4363 64.0356 28.6338L70.5009 32.0073C72.5872 33.1068 74.5179 31.7058 74.1084 29.3838L72.8434 22.2153L78.0907 17.1078C79.7851 15.4668 79.0675 13.1763 76.732 12.8448L69.4234 11.8141L66.2844 5.25507C65.7672 4.19412 64.8919 3.66251 64.0356 3.66206Z" fill="#FFB649"/>
<path d="M110.036 3.66206C109.179 3.66176 108.305 4.19457 107.787 5.25507L104.601 11.8141L97.3391 12.8448C95.0038 13.1697 94.2472 15.4608 95.9336 17.1078L101.181 22.2153L99.9628 29.3838C99.5617 31.7043 101.486 33.1068 103.57 32.0073C104.375 31.5813 108.516 29.4363 110.036 28.6338L116.501 32.0073C118.587 33.1068 120.518 31.7058 120.108 29.3838L118.843 22.2153L124.091 17.1078C125.785 15.4668 125.068 13.1763 122.732 12.8448L115.423 11.8141L112.284 5.25507C111.767 4.19412 110.892 3.66251 110.036 3.66206Z" fill="#FFB649"/>
<path d="M156.036 3.66206C155.179 3.66176 154.305 4.19457 153.787 5.25507L150.601 11.8141L143.339 12.8448C141.004 13.1697 140.247 15.4608 141.934 17.1078L147.181 22.2153L145.963 29.3838C145.562 31.7043 147.486 33.1068 149.57 32.0073C150.375 31.5813 154.516 29.4363 156.036 28.6338L162.501 32.0073C164.587 33.1068 166.518 31.7058 166.108 29.3838L164.843 22.2153L170.091 17.1078C171.785 15.4668 171.068 13.1763 168.732 12.8448L161.423 11.8141L158.284 5.25507C157.767 4.19412 156.892 3.66251 156.036 3.66206Z" fill="#FFB649"/>
<path d="M202.036 3.66206C201.179 3.66176 200.305 4.19457 199.787 5.25507L196.601 11.8141L189.339 12.8448C187.004 13.1697 186.247 15.4608 187.934 17.1078L193.181 22.2153L191.963 29.3838C191.562 31.7043 193.486 33.1068 195.57 32.0073C196.375 31.5813 200.516 29.4363 202.036 28.6338L208.501 32.0073C210.587 33.1068 212.518 31.7058 212.108 29.3838L210.843 22.2153L216.091 17.1078C217.785 15.4668 217.067 13.1763 214.732 12.8448L207.423 11.8141L204.284 5.25507C203.767 4.19412 202.892 3.66251 202.036 3.66206Z" fill="#FFB649"/>
</svg>
