<svg width="40" height="40" viewBox="0 0 40 40" fill="none" xmlns="http://www.w3.org/2000/svg">
<g opacity="0.4">
<path fill-rule="evenodd" clip-rule="evenodd" d="M14.186 25.7305C14.186 25.0401 14.7457 24.4805 15.436 24.4805H23.7694C24.4597 24.4805 25.0194 25.0401 25.0194 25.7305C25.0194 26.4208 24.4597 26.9805 23.7694 26.9805H15.436C14.7457 26.9805 14.186 26.4208 14.186 25.7305Z" fill="#08BA44"/>
<path fill-rule="evenodd" clip-rule="evenodd" d="M19.6028 20.4131C20.2931 20.4131 20.8528 20.9727 20.8528 21.6631V29.9964C20.8528 30.6868 20.2931 31.2464 19.6028 31.2464C18.9124 31.2464 18.3528 30.6868 18.3528 29.9964V21.6631C18.3528 20.9727 18.9124 20.4131 19.6028 20.4131Z" fill="#08BA44"/>
</g>
<path fill-rule="evenodd" clip-rule="evenodd" d="M15.7618 4.88C14.6938 5.36174 13.6916 6.53891 12.6307 8.99285C12.6149 9.02928 12.5974 9.06493 12.5783 9.09969C12.5768 9.10388 12.5749 9.1091 12.5727 9.11556L12.5525 9.17541C12.5405 9.21125 12.527 9.24654 12.5118 9.28115L12.4032 9.52955L12.3365 9.69625L10.3916 14.3413C10.7447 14.3009 11.1035 14.2801 11.4666 14.2801H15.3942L19.4173 4.94356C17.7396 4.45278 16.6146 4.49538 15.7618 4.88ZM14.734 2.60108C16.7078 1.71083 18.967 2.04246 21.5466 3.0293C21.8642 3.15082 22.1186 3.39651 22.2512 3.70971C22.3837 4.02292 22.3829 4.3766 22.2489 4.68919L22.1989 4.80586L17.3646 16.0248C17.1671 16.4832 16.7158 16.7801 16.2166 16.7801H11.4666C10.5059 16.7801 9.58808 16.9778 8.75432 17.3311C8.28632 17.5294 7.74484 17.4245 7.38466 17.0659C7.02448 16.7073 6.91732 16.1663 7.11361 15.6974L10.0264 8.73994L10.0894 8.58256C10.0943 8.57021 10.0994 8.55795 10.1048 8.54577L10.1981 8.33253C10.2265 8.24762 10.2794 8.09897 10.3598 7.94578C11.4771 5.37755 12.795 3.47562 14.734 2.60108Z" fill="#08BA44"/>
<path fill-rule="evenodd" clip-rule="evenodd" d="M19.951 3.70463C20.207 3.10708 20.8784 2.80559 21.4952 3.01117C21.7011 3.07982 21.9857 3.20268 22.1614 3.27855C22.2226 3.30495 22.2706 3.32567 22.2975 3.33643L22.3181 3.3447L25.9984 4.89362C28.1014 5.76589 29.7664 6.74478 30.8317 8.05267C31.0202 8.27921 31.1985 8.51906 31.3601 8.81103C31.5295 9.0797 31.6897 9.38871 31.7966 9.74396C31.8688 9.91755 31.926 10.09 31.9686 10.2522C32.5368 12.0651 32.1377 14.1104 31.2426 16.331C30.9992 16.9347 30.3334 17.2506 29.7119 17.0573C29.1038 16.8681 28.4322 16.7804 27.7332 16.7804H16.2166C15.7959 16.7804 15.4035 16.5688 15.1723 16.2174C14.9411 15.8661 14.9021 15.422 15.0686 15.0357L19.9019 3.81903L19.951 3.70463ZM21.7608 5.8227L18.1163 14.2804H27.7332C28.2471 14.2804 28.7699 14.3169 29.2897 14.3997C29.7888 12.8752 29.8372 11.7907 29.5765 10.9795C29.5681 10.9533 29.5606 10.9269 29.5539 10.9002C29.5375 10.8348 29.5107 10.7534 29.4743 10.6714C29.4476 10.6113 29.4257 10.5493 29.4088 10.4858C29.386 10.4005 29.3377 10.2878 29.2318 10.123C29.2143 10.0958 29.1979 10.068 29.1826 10.0396C29.1186 9.92065 29.0401 9.80787 28.9063 9.64725L28.8963 9.63532C28.2287 8.81358 27.03 8.02775 25.0378 7.2017L25.0317 7.19918L21.7608 5.8227Z" fill="#08BA44"/>
<path fill-rule="evenodd" clip-rule="evenodd" d="M8.77395 17.3312C6.31792 18.393 4.60278 20.8348 4.60278 23.6636V26.9136C4.60278 27.246 4.6306 27.5902 4.67562 27.9353C4.67905 27.9616 4.68165 27.9881 4.6834 28.0146C4.84505 30.4624 5.56684 32.1724 6.70542 33.311C7.84399 34.4495 9.55397 35.1713 12.0018 35.333C12.0283 35.3347 12.0548 35.3373 12.0811 35.3408C12.4262 35.3858 12.7704 35.4136 13.1028 35.4136H26.1028C29.003 35.4136 31.0125 34.7236 32.3271 33.5407C33.6302 32.368 34.441 30.5387 34.5878 27.8478C34.6047 27.5106 34.6194 27.2095 34.6194 26.9136V23.6636C34.6194 20.5508 32.5494 17.9239 29.7425 17.0606C29.1286 16.8799 28.4502 16.7803 27.7528 16.7803H11.4861C10.5317 16.7803 9.63028 16.9754 8.77395 17.3312ZM7.80535 15.0264C8.94691 14.5508 10.1765 14.2803 11.4861 14.2803H27.7528C28.6864 14.2803 29.6058 14.4134 30.457 14.6648L30.4691 14.6684L30.4691 14.6685C34.2924 15.8405 37.1194 19.4119 37.1194 23.6636V26.9136C37.1194 27.2784 37.1015 27.638 37.0852 27.9626L37.0846 27.976L37.0843 27.9816C36.9142 31.1062 35.9417 33.6512 33.9993 35.399C32.0681 37.1369 29.3692 37.9136 26.1028 37.9136H13.1028C12.6498 37.9136 12.208 37.8772 11.7976 37.8249C8.96315 37.6311 6.62043 36.7615 4.93765 35.0787C3.25488 33.396 2.38525 31.0532 2.19149 28.2188C2.13923 27.8084 2.10278 27.3666 2.10278 26.9136V23.6636C2.10278 19.7951 4.45107 16.4721 7.79133 15.0324L7.80531 15.0263L7.80535 15.0264Z" fill="#08BA44"/>
<path opacity="0.4" fill-rule="evenodd" clip-rule="evenodd" d="M12.1517 8.42313C12.4436 8.78083 12.5146 9.27028 12.3363 9.69614L9.41961 16.6628C9.2946 16.9614 9.05864 17.1999 8.76137 17.328C6.30163 18.3882 4.58325 20.8319 4.58325 23.6634C4.58325 24.3538 4.02361 24.9134 3.33325 24.9134C2.6429 24.9134 2.08325 24.3538 2.08325 23.6634V18.7801C2.08325 13.4398 5.88199 8.98387 10.9416 7.98699C11.3946 7.89775 11.8599 8.06544 12.1517 8.42313ZM4.74526 17.1185C5.48223 16.361 6.34548 15.7271 7.30039 15.2511L8.93016 11.3583C6.79676 12.554 5.23473 14.6436 4.74526 17.1185Z" fill="#08BA44"/>
<path opacity="0.4" fill-rule="evenodd" clip-rule="evenodd" d="M29.7695 9.2731C30.1544 8.89302 30.7402 8.80373 31.221 9.05185C34.7277 10.8618 37.1143 14.5683 37.1143 18.7793V23.6626C37.1143 24.353 36.5547 24.9126 35.8643 24.9126C35.174 24.9126 34.6143 24.353 34.6143 23.6626C34.6143 20.5589 32.5537 17.9211 29.7385 17.0766C29.4024 16.9758 29.1242 16.7384 28.9718 16.4223C28.8194 16.1063 28.8068 15.7408 28.9371 15.4151C29.7645 13.3465 29.8978 11.9666 29.5984 10.9487C29.5905 10.9217 29.5835 10.8945 29.5774 10.8671C29.5621 10.7983 29.5428 10.748 29.5296 10.7216C29.2877 10.2378 29.3845 9.65318 29.7695 9.2731ZM34.4494 17.1091C34.1217 15.4705 33.3221 13.9968 32.2007 12.8491C32.1237 13.5858 31.9478 14.3524 31.6907 15.151C32.727 15.6323 33.6606 16.2993 34.4494 17.1091Z" fill="#08BA44"/>
</svg>
