<svg width="64" height="64" viewBox="0 0 64 64" fill="none" xmlns="http://www.w3.org/2000/svg">
<path fill-rule="evenodd" clip-rule="evenodd" d="M0 18.6667C0 20.1387 1.19467 21.3333 2.66667 21.3333C4.13867 21.3333 5.33333 20.1387 5.33333 18.6667V8C5.33333 6.53067 6.53067 5.33333 8 5.33333H18.6667C20.1387 5.33333 21.3333 4.13867 21.3333 2.66667C21.3333 1.19467 20.1387 0 18.6667 0H8C3.58933 0 0 3.58933 0 8V18.6667ZM61.3334 21.3333C59.8614 21.3333 58.6667 20.1387 58.6667 18.6667V8C58.6667 6.53067 57.4694 5.33333 56 5.33333H45.3334C43.8614 5.33333 42.6667 4.13867 42.6667 2.66667C42.6667 1.19467 43.8614 0 45.3334 0H56C60.4107 0 64 3.58933 64 8V18.6667C64 20.1387 62.8054 21.3333 61.3334 21.3333ZM63.7413 31.016C56.5466 18.2746 44.68 10.6666 32 10.6666C19.32 10.6666 7.45331 18.2746 0.258641 31.016C-0.0853591 31.6266 -0.0853591 32.3706 0.258641 32.9813C7.45331 45.7253 19.32 53.3333 32 53.3333C44.68 53.3333 56.5466 45.7253 63.7413 32.984C64.0853 32.3733 64.0853 31.6266 63.7413 31.016ZM32 42.6666C26.1173 42.6666 21.3333 37.8826 21.3333 32C21.3333 26.1173 26.1173 21.3333 32 21.3333C37.8826 21.3333 42.6666 26.1173 42.6666 32C42.6666 37.8826 37.8826 42.6666 32 42.6666ZM56 63.9999H45.3334C43.8614 63.9999 42.6667 62.8053 42.6667 61.3333C42.6667 59.8613 43.8614 58.6666 45.3334 58.6666H56C57.4694 58.6666 58.6667 57.4693 58.6667 56V45.3333C58.6667 43.8613 59.8614 42.6666 61.3334 42.6666C62.8054 42.6666 64 43.8613 64 45.3333V56C64 60.4106 60.4107 63.9999 56 63.9999ZM8 63.9999H18.6667C20.1387 63.9999 21.3333 62.8053 21.3333 61.3333C21.3333 59.8613 20.1387 58.6666 18.6667 58.6666H8C6.53067 58.6666 5.33333 57.4693 5.33333 56V45.3333C5.33333 43.8613 4.13867 42.6666 2.66667 42.6666C1.19467 42.6666 0 43.8613 0 45.3333V56C0 60.4106 3.58933 63.9999 8 63.9999Z" fill="#37A1FF"/>
</svg>
