<svg width="64" height="64" viewBox="0 0 64 64" fill="none" xmlns="http://www.w3.org/2000/svg">
<path d="M10 64C8.76234 64 7.57539 63.5083 6.70022 62.6331C5.82505 61.758 5.33335 60.571 5.33335 59.3333V44.9813C5.3336 44.8574 5.2994 44.7358 5.2344 44.6303C5.16939 44.5248 5.07631 44.4395 4.96552 44.384L2.5788 43.192C1.80216 42.8065 1.1488 42.2113 0.693057 41.4737C0.23731 40.7361 -0.00271926 39.8857 2.32406e-05 39.0187V28.6667C0.00284678 26.0154 1.05724 23.4735 2.93199 21.5987C4.80674 19.724 7.34872 18.6695 10 18.6667H16.6667C19.318 18.6695 21.86 19.724 23.7347 21.5987C25.6095 23.4735 26.6639 26.0154 26.6667 28.6667V39.0173C26.6697 39.8844 26.4298 40.735 25.974 41.4726C25.5182 42.2103 24.8647 42.8054 24.0879 43.1907L21.7028 44.3826C21.592 44.4382 21.4986 44.5235 21.4336 44.629C21.3686 44.7345 21.3344 44.8561 21.3347 44.98V59.3333C21.3347 60.571 20.843 61.758 19.9678 62.6331C19.0926 63.5083 17.9057 64 16.668 64H10ZM43.1999 49.6L37.3333 41.7866L31.4668 49.6C31.0412 50.164 30.4095 50.5367 29.71 50.6366C29.0105 50.7365 28.3 50.5556 27.7334 50.1333C27.1697 49.7075 26.7972 49.076 26.6973 48.3766C26.5974 47.6772 26.778 46.9666 27.1999 46.4L32 40H31.9255C32.0508 39.2533 32.0052 35.4853 32.0052 34.6667H58.6719V5.33333H26.4053C26.0371 3.43329 25.2339 1.64434 24.0586 0.106667C24.0502 0.0660273 24.0298 0.028859 24 0L58.6667 0C60.0799 0.0042206 61.434 0.567479 62.4333 1.56676C63.4325 2.56604 63.9958 3.92014 64 5.33333V34.6667C63.9958 36.0798 63.4325 37.4339 62.4333 38.4332C61.434 39.4325 60.0799 39.9958 58.6667 40H42.6667L47.4668 46.4C47.8887 46.9666 48.0693 47.6772 47.9694 48.3766C47.8695 49.076 47.497 49.7075 46.9333 50.1333C46.4806 50.482 45.9245 50.6697 45.3532 50.6666C44.9364 50.6664 44.5255 50.57 44.152 50.385C43.7786 50.2 43.4526 49.9314 43.1999 49.6ZM37.4401 25.8947L32.6667 21.0947L30.8532 22.908C30.171 21.2011 29.1763 19.6365 27.9199 18.2947L30.7734 15.4427C31.2768 14.9427 31.9573 14.6622 32.6667 14.6622C33.3761 14.6622 34.0566 14.9427 34.5599 15.4427L39.3867 20.296L48.8268 11.3893C49.3443 10.9036 50.0325 10.6423 50.7419 10.6623C51.4512 10.6823 52.124 10.982 52.6133 11.496C53.099 12.0134 53.3605 12.7019 53.3405 13.4113C53.3205 14.1207 53.0206 14.7934 52.5065 15.2827L41.1732 25.9493C40.6721 26.4119 40.0153 26.669 39.3333 26.6693C38.6256 26.6656 37.9469 26.3874 37.4401 25.8933V25.8947ZM5.33335 8C5.33582 5.87902 6.17963 3.84563 7.67938 2.34587C9.17914 0.846118 11.2124 0.00247015 13.3334 0C15.4543 0.00247015 17.4876 0.846118 18.9873 2.34587C20.4871 3.84563 21.3309 5.87902 21.3333 8C21.3309 10.121 20.4871 12.1544 18.9873 13.6541C17.4876 15.1539 15.4543 15.9975 13.3334 16C11.2124 15.9975 9.17914 15.1539 7.67938 13.6541C6.17963 12.1544 5.33582 10.121 5.33335 8Z" fill="#37A1FF"/>
</svg>
