<svg width="56" height="64" viewBox="0 0 56 64" fill="none" xmlns="http://www.w3.org/2000/svg">
<path d="M55.0506 8.05597L28.384 0.0559688C28.1334 -0.0186563 27.8694 -0.0186563 27.6186 0.0559688L0.952 8.05597C0.386625 8.22659 0 8.74397 0 9.33334V38.6667C0 50.4587 17.9786 60.9441 27.6054 63.9413C27.7334 63.9813 27.8668 64 28 64C28.1332 64 28.2666 63.9813 28.3946 63.9413C38.0214 60.9466 56 50.4586 56 38.6666V9.33334C56 8.74397 55.6134 8.22659 55.0506 8.05597ZM50.6666 38.6666C50.6666 45.5172 38.96 54.5092 28.4506 58.296C28.304 58.3493 28.152 58.376 28 58.376C27.728 58.376 27.4614 58.2933 27.232 58.1333C26.8774 57.8827 26.6666 57.4773 26.6666 57.0427V34C26.6666 32.8954 25.7712 32 24.6666 32H6.66663C5.93062 32 5.33325 31.4026 5.33325 30.6666V13.3013C5.33325 12.712 5.71988 12.192 6.28263 12.024L27.616 5.62397C28.016 5.50397 28.456 5.58134 28.7946 5.83197C29.1332 6.08259 29.3332 6.47997 29.3332 6.90134V27.3333C29.3332 28.4379 30.2287 29.3333 31.3332 29.3333H49.3332C50.0692 29.3333 50.6666 29.9307 50.6666 30.6667V38.6666Z" fill="#37A1FF"/>
</svg>
