<svg width="64" height="59" viewBox="0 0 64 59" fill="none" xmlns="http://www.w3.org/2000/svg">
<path fill-rule="evenodd" clip-rule="evenodd" d="M46.0534 10.69L40.392 0.991382C40.1227 0.530049 39.68 0.194049 39.1627 0.0607159C38.648 -0.0672841 38.096 0.00738237 37.6374 0.282049L20.3307 10.666L46.0534 10.69ZM8 13.3327C6.53333 13.3327 5.33333 12.1327 5.33333 10.666C5.33333 9.19933 6.53333 7.99933 8 7.99933H16.9867L25.8933 2.666H8C4.05333 2.666 0.773333 5.546 0.133333 9.33267C0.12087 9.38252 0.10695 9.43237 0.0929358 9.48257C0.0469788 9.64716 0 9.81542 0 9.99933V50.666C0 55.066 3.6 58.666 8 58.666H53.3333C56.2667 58.666 58.6667 56.266 58.6667 53.3327V47.9993H52C45.3867 47.9993 40 42.6127 40 35.9993C40 29.386 45.3867 23.9993 52 23.9993H58.6667V18.666C58.6667 15.7327 56.2667 13.3327 53.3333 13.3327H8ZM50.6667 7.99933C50.6667 5.306 48.6667 3.066 46.0533 2.71933L50.6667 10.666V7.99933ZM52 27.9994H62C63.104 27.9994 64 28.8954 64 29.9994V41.9994C64 43.1034 63.104 43.9994 62 43.9994H52C47.5893 43.9994 44 40.4101 44 35.9994C44 31.5887 47.5893 27.9994 52 27.9994ZM49.3333 35.9994C49.3333 37.4714 50.528 38.6661 52 38.6661C53.472 38.6661 54.6667 37.4714 54.6667 35.9994C54.6667 34.5274 53.472 33.3327 52 33.3327C50.528 33.3327 49.3333 34.5274 49.3333 35.9994Z" fill="#37A1FF"/>
</svg>
