<svg width="15" height="15" viewBox="0 0 15 15" fill="none" xmlns="http://www.w3.org/2000/svg">
<g clip-path="url(#clip0_1_147)">
<path d="M14.9984 4.19114C14.992 4.40764 14.9015 4.61313 14.7461 4.76406L8.08923 11.4226C7.93295 11.5788 7.72102 11.6666 7.50004 11.6666C7.27907 11.6666 7.06714 11.5788 6.91085 11.4226L0.25395 4.76406C0.173985 4.68727 0.110144 4.5953 0.0661669 4.49353C0.0221898 4.39176 -0.00103966 4.28223 -0.00216229 4.17137C-0.00328491 4.06051 0.0177223 3.95054 0.0596295 3.8479C0.101537 3.74526 0.1635 3.65202 0.241894 3.57362C0.320288 3.49523 0.413536 3.43326 0.516176 3.39136C0.618815 3.34945 0.728784 3.32844 0.839644 3.32956C0.950505 3.33068 1.06003 3.35391 1.1618 3.39789C1.26357 3.44186 1.35554 3.5057 1.43233 3.58567L7.50004 9.65501L13.5678 3.58567C13.6848 3.46525 13.8355 3.383 14.0001 3.3497C14.1647 3.3164 14.3355 3.3336 14.4902 3.39906C14.6448 3.46451 14.7761 3.57515 14.8668 3.7165C14.9575 3.85784 15.0034 4.02328 14.9984 4.19114V4.19114Z" fill="#443F00"/>
</g>
<defs>
<clipPath id="clip0_1_147">
<rect width="15" height="15" fill="white" transform="matrix(1.19249e-08 -1 -1 -1.19249e-08 15 15)"/>
</clipPath>
</defs>
</svg>
