<svg width="20" height="20" viewBox="0 0 20 20" fill="none" xmlns="http://www.w3.org/2000/svg">
<g clip-path="url(#clip0_1_224)">
<path d="M14.4117 0.00219244C14.1231 0.0107953 13.8491 0.131441 13.6479 0.33857L4.76982 9.21444C4.56153 9.42282 4.44452 9.70539 4.44452 10C4.44452 10.2947 4.56153 10.5772 4.76982 10.7856L13.6479 19.6615C13.7502 19.7681 13.8729 19.8532 14.0086 19.9119C14.1443 19.9705 14.2903 20.0015 14.4381 20.003C14.5859 20.0045 14.7325 19.9765 14.8694 19.9206C15.0063 19.8647 15.1306 19.7821 15.2351 19.6776C15.3396 19.573 15.4223 19.4487 15.4781 19.3118C15.534 19.175 15.562 19.0284 15.5605 18.8806C15.559 18.7327 15.5281 18.5867 15.4694 18.451C15.4108 18.3153 15.3257 18.1927 15.219 18.0903L7.12659 10L15.219 1.90975C15.3796 1.75368 15.4893 1.55274 15.5337 1.33328C15.5781 1.11381 15.5551 0.886045 15.4679 0.679838C15.3806 0.47363 15.2331 0.298597 15.0446 0.177676C14.8562 0.056756 14.6356 -0.00441067 14.4117 0.00219244V0.00219244Z" fill="white"/>
</g>
<defs>
<clipPath id="clip0_1_224">
<rect width="20" height="20" fill="white"/>
</clipPath>
</defs>
</svg>
