<svg width="24" height="24" viewBox="0 0 24 24" fill="none" xmlns="http://www.w3.org/2000/svg">
<path d="M19.4386 12.9999C19.2186 12.9999 18.9886 12.9299 18.7686 12.8799C18.3231 12.7817 17.8853 12.6514 17.4586 12.4899C16.9947 12.3211 16.4848 12.3299 16.0269 12.5145C15.5691 12.6991 15.1957 13.0465 14.9786 13.4899L14.7586 13.9399C13.7846 13.398 12.8896 12.7251 12.0986 11.9399C11.3134 11.1489 10.6405 10.2539 10.0986 9.27987L10.5186 8.99987C10.962 8.78278 11.3094 8.4094 11.494 7.95156C11.6786 7.49372 11.6874 6.98378 11.5186 6.51987C11.3599 6.09229 11.2296 5.65467 11.1286 5.20987C11.0786 4.98987 11.0386 4.75987 11.0086 4.52987C10.8872 3.82549 10.5183 3.18761 9.96826 2.73111C9.41825 2.2746 8.72333 2.02948 8.00864 2.03987H5.00864C4.57767 2.03582 4.15089 2.12468 3.75735 2.3004C3.36381 2.47612 3.01275 2.73456 2.72807 3.05815C2.44339 3.38174 2.23177 3.76286 2.10762 4.17558C1.98348 4.5883 1.94972 5.02293 2.00864 5.44987C2.54137 9.63925 4.45466 13.5317 7.44629 16.5125C10.4379 19.4933 14.3373 21.3924 18.5286 21.9099H18.9086C19.6461 21.9109 20.358 21.6404 20.9086 21.1499C21.225 20.8669 21.4777 20.52 21.6501 20.1322C21.8225 19.7443 21.9106 19.3243 21.9086 18.8999V15.8999C21.8964 15.2053 21.6434 14.5364 21.193 14.0075C20.7425 13.4786 20.1225 13.1225 19.4386 12.9999ZM19.9386 18.9999C19.9385 19.1419 19.908 19.2822 19.8494 19.4115C19.7908 19.5408 19.7053 19.6562 19.5986 19.7499C19.4869 19.8463 19.3562 19.9184 19.215 19.9615C19.0738 20.0045 18.9252 20.0176 18.7786 19.9999C15.0335 19.5197 11.5549 17.8064 8.89135 15.1302C6.22783 12.454 4.53105 8.96721 4.06864 5.21987C4.05272 5.07339 4.06667 4.9252 4.10964 4.78426C4.15261 4.64332 4.22371 4.51256 4.31864 4.39987C4.41235 4.2932 4.5277 4.20771 4.65701 4.14909C4.78633 4.09046 4.92665 4.06005 5.06864 4.05987H8.06864C8.30118 4.05469 8.52826 4.13075 8.71078 4.27494C8.8933 4.41913 9.01985 4.62244 9.06864 4.84987C9.10864 5.1232 9.15864 5.3932 9.21864 5.65987C9.33416 6.18701 9.4879 6.70505 9.67864 7.20987L8.27864 7.85987C8.15893 7.91479 8.05126 7.99281 7.96179 8.08946C7.87233 8.18611 7.80284 8.29948 7.75731 8.42306C7.71178 8.54664 7.69111 8.678 7.69648 8.80959C7.70186 8.94118 7.73318 9.07041 7.78864 9.18987C9.22784 12.2726 11.7059 14.7507 14.7886 16.1899C15.0321 16.2899 15.3052 16.2899 15.5486 16.1899C15.6733 16.1453 15.788 16.0763 15.8858 15.9871C15.9837 15.8978 16.0628 15.79 16.1186 15.6699L16.7386 14.2699C17.2556 14.4547 17.7832 14.6084 18.3186 14.7299C18.5853 14.7899 18.8553 14.8399 19.1286 14.8799C19.3561 14.9287 19.5594 15.0552 19.7036 15.2377C19.8478 15.4202 19.9238 15.6473 19.9186 15.8799L19.9386 18.9999Z" fill="#B0CBD1"/>
</svg>
