<svg width="20" height="20" viewBox="0 0 20 20" fill="none" xmlns="http://www.w3.org/2000/svg">
<path d="M19 2.34009C18.85 2.22093 18.6744 2.13815 18.487 2.09824C18.2996 2.05834 18.1055 2.06239 17.92 2.11009L11 3.89009V18.1601L18.56 16.2201C18.8304 16.1509 19.0698 15.9932 19.2402 15.7721C19.4106 15.551 19.502 15.2792 19.5 15.0001V3.32009C19.4969 3.12943 19.4503 2.94199 19.3636 2.77213C19.2769 2.60227 19.1526 2.45448 19 2.34009ZM8.99999 3.89009L2.05999 2.11009C1.87728 2.06779 1.68748 2.06647 1.5042 2.10624C1.32093 2.14601 1.14873 2.22587 0.99999 2.34009C0.84842 2.4586 0.726249 2.61049 0.642994 2.78394C0.559738 2.95738 0.517644 3.14771 0.51999 3.34009V15.0001C0.520201 15.2775 0.612679 15.5469 0.782861 15.766C0.953042 15.9851 1.19126 16.1413 1.45999 16.2101L8.99999 18.1601V3.89009Z" fill="#FFD600"/>
</svg>
