<svg width="24" height="24" viewBox="0 0 24 24" fill="none" xmlns="http://www.w3.org/2000/svg">
<path fill-rule="evenodd" clip-rule="evenodd" d="M11.3302 0.229798C11.7241 -0.0765992 12.2757 -0.0765992 12.6697 0.229798L22.4878 7.86616C22.7536 8.07284 22.909 8.39063 22.909 8.72727V20.7273C22.909 21.5953 22.5642 22.4277 21.9504 23.0414C21.3367 23.6552 20.5043 24 19.6363 24H4.36355C3.49557 24 2.66314 23.6552 2.04938 23.0414C1.43562 22.4277 1.09082 21.5953 1.09082 20.7273V8.72727C1.09082 8.39063 1.24625 8.07284 1.51198 7.86616L11.3302 0.229798ZM3.27264 9.26082V20.7273C3.27264 21.0166 3.38757 21.2941 3.59216 21.4987C3.79674 21.7032 4.07422 21.8182 4.36355 21.8182H19.6363C19.9256 21.8182 20.2031 21.7032 20.4077 21.4987C20.6123 21.2941 20.7272 21.0166 20.7272 20.7273V9.26082L11.9999 2.47294L3.27264 9.26082Z" fill="#B0CBD1"/>
<path fill-rule="evenodd" clip-rule="evenodd" d="M7.63623 12.0001C7.63623 11.3976 8.12465 10.9092 8.72714 10.9092H15.2726C15.8751 10.9092 16.3635 11.3976 16.3635 12.0001V22.9092C16.3635 23.5117 15.8751 24.0001 15.2726 24.0001C14.6701 24.0001 14.1817 23.5117 14.1817 22.9092V13.091H9.81805V22.9092C9.81805 23.5117 9.32963 24.0001 8.72714 24.0001C8.12465 24.0001 7.63623 23.5117 7.63623 22.9092V12.0001Z" fill="#B0CBD1"/>
</svg>
