<svg width="23" height="23" viewBox="0 0 23 23" fill="none" xmlns="http://www.w3.org/2000/svg">
<path fill-rule="evenodd" clip-rule="evenodd" d="M10 3C4.47715 3 0 7.47715 0 13C0 18.5228 4.47715 23 10 23C15.5228 23 20 18.5228 20 13C20 7.47715 15.5228 3 10 3ZM7.80137 7.69889C8.37026 7.673 8.55204 7.66667 10.0005 7.66667H9.99883C11.4477 7.66667 11.6288 7.673 12.1977 7.69889C12.7655 7.72489 13.1533 7.81478 13.4933 7.94667C13.8444 8.08278 14.1411 8.26501 14.4378 8.56168C14.7344 8.85812 14.9167 9.15568 15.0533 9.50646C15.1844 9.84558 15.2744 10.2331 15.3011 10.8009C15.3267 11.3698 15.3333 11.5516 15.3333 13.0001C15.3333 14.4485 15.3267 14.6299 15.3011 15.1987C15.2744 15.7663 15.1844 16.154 15.0533 16.4932C14.9167 16.8439 14.7344 17.1414 14.4378 17.4379C14.1414 17.7345 13.8443 17.9172 13.4936 18.0534C13.1543 18.1853 12.7663 18.2752 12.1985 18.3012C11.6296 18.3271 11.4484 18.3334 9.99983 18.3334C8.55148 18.3334 8.36982 18.3271 7.80092 18.3012C7.23325 18.2752 6.84558 18.1853 6.50624 18.0534C6.15568 17.9172 5.85812 17.7345 5.56179 17.4379C5.26523 17.1414 5.083 16.8439 4.94667 16.4931C4.81489 16.154 4.725 15.7664 4.69889 15.1986C4.67311 14.6297 4.66667 14.4485 4.66667 13.0001C4.66667 11.5516 4.67333 11.3697 4.69878 10.8008C4.72433 10.2332 4.81433 9.84558 4.94656 9.50635C5.08323 9.15568 5.26545 8.85812 5.56212 8.56168C5.85857 8.26512 6.15613 8.08289 6.50691 7.94667C6.84602 7.81478 7.23358 7.72489 7.80137 7.69889Z" fill="white"/>
<path fill-rule="evenodd" clip-rule="evenodd" d="M9.52175 8.6278C9.61465 8.62765 9.71459 8.6277 9.82244 8.62775L10.0002 8.6278C11.4242 8.6278 11.593 8.63291 12.1553 8.65847C12.6753 8.68224 12.9576 8.76913 13.1456 8.84213C13.3945 8.9388 13.5719 9.05436 13.7585 9.24103C13.9451 9.4277 14.0607 9.60548 14.1576 9.85437C14.2306 10.0421 14.3176 10.3244 14.3412 10.8444C14.3668 11.4066 14.3724 11.5755 14.3724 12.9988C14.3724 14.4222 14.3668 14.5911 14.3412 15.1533C14.3175 15.6733 14.2306 15.9555 14.1576 16.1433C14.0609 16.3922 13.9451 16.5694 13.7585 16.756C13.5718 16.9427 13.3946 17.0582 13.1456 17.1549C12.9578 17.2282 12.6753 17.3149 12.1553 17.3387C11.5931 17.3642 11.4242 17.3698 10.0002 17.3698C8.57607 17.3698 8.40729 17.3642 7.84506 17.3387C7.32506 17.3147 7.04283 17.2278 6.85472 17.1548C6.60583 17.0581 6.42805 16.9426 6.24138 16.7559C6.05471 16.5692 5.93916 16.3919 5.84227 16.1429C5.76926 15.9551 5.68226 15.6729 5.6586 15.1529C5.63304 14.5906 5.62793 14.4217 5.62793 12.9975C5.62793 11.5733 5.63304 11.4053 5.6586 10.843C5.68237 10.323 5.76926 10.0408 5.84227 9.85281C5.93893 9.60392 6.05471 9.42614 6.24138 9.23947C6.42805 9.0528 6.60583 8.93725 6.85472 8.84036C7.04272 8.76702 7.32506 8.68035 7.84506 8.65647C8.33707 8.63424 8.52774 8.62758 9.52175 8.62646V8.6278ZM12.8471 9.51336C12.4938 9.51336 12.2071 9.7997 12.2071 10.1531C12.2071 10.5065 12.4938 10.7932 12.8471 10.7932C13.2005 10.7932 13.4871 10.5065 13.4871 10.1531C13.4871 9.79981 13.2005 9.51314 12.8471 9.51314V9.51336ZM7.26128 13.0001C7.26128 11.4875 8.48757 10.2612 10.0001 10.2611C11.5127 10.2611 12.7387 11.4875 12.7387 13.0001C12.7387 14.5126 11.5128 15.7384 10.0002 15.7384C8.48763 15.7384 7.26128 14.5126 7.26128 13.0001Z" fill="white"/>
<path d="M10.0005 11.2223C10.9822 11.2223 11.7782 12.0182 11.7782 13.0001C11.7782 13.9819 10.9822 14.7779 10.0005 14.7779C9.01855 14.7779 8.22266 13.9819 8.22266 13.0001C8.22266 12.0182 9.01855 11.2223 10.0005 11.2223Z" fill="white"/>
<path d="M23 3.82266L20.6226 4.59113L22.1321 6.6798L20.434 8L18.9623 5.81281L17.5094 8L15.8302 6.6798L17.3962 4.59113L15 3.82266L15.6604 1.73399L17.9811 2.6601L17.9245 0H20.0943L19.9811 2.6601L22.3019 1.73399L23 3.82266Z" fill="white"/>
</svg>
