<svg width="62" height="52" viewBox="0 0 62 52" fill="none" xmlns="http://www.w3.org/2000/svg">
<path d="M35.9807 18H35.9676H35.9545C34.7088 18 32.4971 18.223 30.0058 19.1281C26.9724 20.23 24.4898 22.8535 23.2048 24.0035C21.9197 25.1491 16.5392 30.2518 15.4378 33.61C14.3363 36.9637 13.0032 37.93 13.0032 37.93C13.0032 37.93 10.796 35.6782 9.83437 34.8518C8.86841 34.021 8.54499 32.871 8.54499 32.871C8.54499 32.871 7.90247 32.8273 7.44354 32.7792C6.9846 32.7355 5.46791 30.7591 5.46791 30.7591C5.46791 30.7591 4.91719 30.8509 3.85945 31.6336C2.80171 32.4119 0 35.8137 0 35.8137L1.19325 36.9637C1.19325 36.9637 1.93193 36.9637 2.61815 37.2873C3.30874 37.6065 9.18751 43.0765 11.303 45.1928C13.4185 47.3091 13.7375 49.2374 13.7375 49.2374C13.7375 49.2374 12.9115 48.411 12.4525 47.6283C11.9936 46.8456 11.1675 46.1591 11.1675 46.1591C12.3127 48.3192 13.5102 52.132 14.1091 51.9965C14.7035 51.8566 15.7612 50.3874 17.0462 48.2274C18.3356 46.0673 21.5963 39.3992 23.2528 37.0118C24.905 34.62 27.3876 30.3918 27.3876 30.3918C27.3876 30.3918 27.3396 29.9327 27.3396 29.4254C27.3396 28.9182 29.9577 26.0717 32.6239 23.3564C35.2901 20.6454 38 18.5772 38 18.5772C38 18.5772 37.5892 18.1181 36.6232 18.0262C36.4571 18.0087 36.2386 18 35.9807 18ZM34.0051 20.7809C34.4159 20.5098 34.346 21.0258 34.346 21.0258L33.2445 21.9222C33.2445 21.9222 33.5899 21.0608 34.0051 20.7809ZM22.7895 32.7792C24.1707 31.3537 24.4898 31.2182 24.4898 31.2182L24.2625 32.1845C24.2625 32.1845 22.7458 35.6301 20.862 37.2392C20.862 37.2392 21.4127 34.2046 22.7895 32.7792ZM4.36648 33.7455C4.36648 33.7455 4.55004 33.1508 5.00898 32.9191C5.46792 32.6874 5.28435 34.1128 5.28435 34.1128L4.36648 33.7455ZM2.20729 35.9974C1.6522 35.8137 2.15921 35.0354 2.66622 35.1272C3.16887 35.2191 3.95125 36.6882 3.95125 36.6882C3.95125 36.6882 2.75802 36.181 2.20729 35.9974ZM13.0819 45.7787C13.1868 45.2978 13.3616 45.2278 13.4622 45.4333C13.5671 45.6388 13.4622 46.9156 13.4622 46.9156C13.4622 46.9156 12.9814 46.2597 13.0819 45.7787Z" fill="#19A9C4"/>
<path fill-rule="evenodd" clip-rule="evenodd" d="M21.0078 35.7411C22.6246 36.2412 24.294 36.5973 25.9984 36.8008C27.1157 36.9322 28.2242 37 29.3284 37C40.9176 36.9958 51.5253 29.8278 55.3153 19.0229C56.3275 16.1574 58.2115 13.6141 60.7747 11.6812C61.5108 11.1216 61.9621 10.2823 61.9972 9.37522C62.0366 8.47234 61.6598 7.59913 60.9719 6.98449C56.7262 3.20765 51.4683 0.859318 45.7679 0.198053C38.4464 -0.66244 31.2256 1.30016 25.4332 5.71283C19.6714 10.1043 16.0303 16.3906 15.1847 23.4101C14.8254 26.3774 14.9963 29.5057 15.6448 32.3754C18.5366 34.9187 18.9134 35.0586 21.0078 35.7411ZM29.3765 10.5536C33.8282 7.16253 39.3753 5.65349 45.0012 6.31051C48.2172 6.68777 51.2493 7.76021 53.922 9.45576C51.8495 11.6642 50.2722 14.2372 49.2863 17.0434C46.1009 26.123 36.6368 31.8582 26.7783 30.6841C26.1211 30.6078 25.4682 30.4976 24.8285 30.3619C21.5467 30.1373 20.5258 28.8698 21.4722 24.4783C21.9717 19.0144 24.938 13.932 29.3765 10.5536Z" fill="#19A9C4"/>
</svg>
