<svg width="19" height="22" viewBox="0 0 19 22" fill="none" xmlns="http://www.w3.org/2000/svg">
<path d="M13.1851 11.71C14.0961 10.9387 14.7611 9.88092 15.0876 8.68394C15.414 7.48697 15.3856 6.21027 15.0063 5.03147C14.627 3.85267 13.9157 2.83039 12.9714 2.10686C12.0271 1.38332 10.8966 0.994507 9.73739 0.994507C8.57814 0.994507 7.44772 1.38332 6.50339 2.10686C5.55905 2.83039 4.84777 3.85267 4.4685 5.03147C4.08922 6.21027 4.06082 7.48697 4.38723 8.68394C4.71364 9.88092 5.37864 10.9387 6.28971 11.71C4.72857 12.383 3.36643 13.4994 2.34848 14.9399C1.33054 16.3805 0.694964 18.0913 0.509512 19.89C0.496088 20.0213 0.506832 20.1542 0.541131 20.2811C0.57543 20.4079 0.632613 20.5263 0.709413 20.6293C0.864519 20.8375 1.09012 20.9708 1.33658 21C1.58305 21.0292 1.83019 20.9518 2.02363 20.7849C2.21708 20.618 2.34099 20.3752 2.3681 20.11C2.57216 18.1552 3.43835 16.3498 4.80119 15.0388C6.16403 13.7278 7.92796 13.003 9.75598 13.003C11.584 13.003 13.3479 13.7278 14.7108 15.0388C16.0736 16.3498 16.9398 18.1552 17.1439 20.11C17.1691 20.3557 17.2781 20.5827 17.4497 20.747C17.6213 20.9114 17.8434 21.0015 18.0731 21H18.1754C18.419 20.9698 18.6416 20.8373 18.7948 20.6313C18.948 20.4252 19.0193 20.1624 18.9931 19.9C18.8068 18.0962 18.1678 16.381 17.1446 14.9382C16.1215 13.4954 14.7527 12.3795 13.1851 11.71ZM9.73739 11C9.0022 11 8.28353 10.7654 7.67224 10.3259C7.06096 9.88636 6.58452 9.26164 6.30317 8.53074C6.02183 7.79983 5.94822 6.99557 6.09164 6.21964C6.23507 5.44372 6.5891 4.73099 7.10895 4.17158C7.62881 3.61217 8.29115 3.2312 9.01221 3.07686C9.73327 2.92252 10.4807 3.00173 11.1599 3.30448C11.8391 3.60724 12.4197 4.11993 12.8281 4.77772C13.2366 5.43552 13.4546 6.20888 13.4546 7C13.4546 8.06087 13.0629 9.07828 12.3658 9.82843C11.6687 10.5786 10.7232 11 9.73739 11Z" fill="#B0CBD1"/>
</svg>
