<svg width="20" height="20" viewBox="0 0 20 20" fill="none" xmlns="http://www.w3.org/2000/svg">
<path fill-rule="evenodd" clip-rule="evenodd" d="M0 10C0 4.47715 4.47715 0 10 0C15.5228 0 20 4.47715 20 10C20 15.5228 15.5228 20 10 20C4.47715 20 0 15.5228 0 10ZM9.99321 10.1605C11.4678 10.1605 12.6665 9.00331 12.6665 7.58066C12.6665 6.15754 11.4678 5 9.99321 5C8.51892 5 7.31991 6.15754 7.31991 7.58066C7.31991 9.00331 8.51892 10.1605 9.99321 10.1605ZM12.634 11.6463C12.1506 11.9393 11.6258 12.1471 11.0817 12.2668L12.5761 13.7095C12.8822 14.0044 12.8822 14.4834 12.5761 14.7786C12.2703 15.0738 11.7746 15.0738 11.4691 14.7786L9.99973 13.3609L8.53167 14.7786C8.3786 14.926 8.17802 14.9998 7.97743 14.9998C7.77717 14.9998 7.57691 14.926 7.42384 14.7786C7.118 14.4834 7.118 14.0047 7.42352 13.7095L8.91812 12.2668C8.37396 12.1471 7.84915 11.939 7.36577 11.6463C6.99996 11.4236 6.89007 10.9572 7.12056 10.6037C7.35042 10.2499 7.8338 10.1433 8.20025 10.366C9.29465 11.0305 10.7045 11.0307 11.7995 10.366C12.166 10.1433 12.6492 10.2499 12.8795 10.6037C13.11 10.9569 12.9998 11.4236 12.634 11.6463Z" fill="#29B7D7"/>
<path d="M9.9936 6.51245C10.604 6.51245 11.1005 6.99156 11.1005 7.58075C11.1005 8.16948 10.604 8.6489 9.9936 8.6489C9.38369 8.6489 8.88672 8.16948 8.88672 7.58075C8.88672 6.99156 9.38369 6.51245 9.9936 6.51245Z" fill="#29B7D7"/>
</svg>
