<svg width="60" height="60" viewBox="0 0 60 60" fill="none" xmlns="http://www.w3.org/2000/svg">
<g clip-path="url(#clip0_1_84)">
<path d="M34.1197 10.8167C35.7665 10.8167 37.1063 12.1208 37.1063 13.7242C37.1063 14.5019 37.7542 15.1325 38.5532 15.1325C39.3522 15.1325 40.0001 14.5019 40.0001 13.7242C40 10.5678 37.362 8 34.1197 8H24.721C23.922 8 23.2742 8.63062 23.2742 9.40837C23.2742 10.1861 23.922 10.8167 24.721 10.8167H27.9295V16.3146H25.5783C24.7793 16.3146 24.1315 16.9452 24.1315 17.723C24.1315 18.2119 24.3879 18.642 24.7765 18.8948H23.5144C21.5765 18.8947 20 20.4293 20 22.3156V49.5792C20 51.4655 21.5765 53 23.5144 53H35.2384C37.1762 53 38.7527 51.4655 38.7527 49.5792V22.3156C38.7527 20.4293 37.1762 18.8948 35.2384 18.8948H33.9763C34.3648 18.642 34.6213 18.2119 34.6213 17.723C34.6213 16.9452 33.9734 16.3146 33.1744 16.3146H30.8232V10.8167H34.1197ZM35.859 22.3156V49.5792C35.859 49.912 35.5807 50.1833 35.2384 50.1833H23.5144C23.1721 50.1833 22.8937 49.912 22.8937 49.5792V22.3156C22.8937 21.9824 23.1721 21.7114 23.5144 21.7114H35.2384C35.5807 21.7114 35.859 21.9824 35.859 22.3156Z" fill="#DDDDDD"/>
<path d="M25.5788 40.1684H33.1749C33.9739 40.1684 34.6218 39.5378 34.6218 38.7601C34.6218 37.9823 33.9739 37.3517 33.1749 37.3517H25.5788C24.7798 37.3517 24.132 37.9823 24.132 38.7601C24.132 39.5378 24.7798 40.1684 25.5788 40.1684ZM25.5788 35.9434H33.1749C33.9739 35.9434 34.6218 35.3128 34.6218 34.535C34.6218 33.7573 33.9739 33.1266 33.1749 33.1266H25.5788C24.7798 33.1266 24.132 33.7573 24.132 34.535C24.132 35.3128 24.7798 35.9434 25.5788 35.9434Z" fill="#DDDDDD"/>
</g>
<rect x="1.5" y="1.5" width="57" height="57" rx="3.5" stroke="#DDDDDD" stroke-width="3"/>
<defs>
<clipPath id="clip0_1_84">
<rect width="20" height="45" fill="white" transform="translate(20 8)"/>
</clipPath>
</defs>
</svg>
