<svg width="23" height="24" viewBox="0 0 23 24" fill="none" xmlns="http://www.w3.org/2000/svg">
<path d="M14.5991 12.7099C15.5102 11.9385 16.1752 10.8808 16.5016 9.68382C16.828 8.48684 16.7996 7.21015 16.4203 6.03135C16.0411 4.85255 15.3298 3.83027 14.3855 3.10674C13.4411 2.3832 12.3107 1.99438 11.1515 1.99438C9.99221 1.99438 8.86178 2.3832 7.91745 3.10674C6.97312 3.83027 6.26183 4.85255 5.88256 6.03135C5.50329 7.21015 5.47488 8.48684 5.80129 9.68382C6.1277 10.8808 6.7927 11.9385 7.70378 12.7099C6.14264 13.3829 4.78049 14.4992 3.76255 15.9398C2.7446 17.3804 2.10903 19.0912 1.92357 20.8899C1.91015 21.0212 1.92089 21.1541 1.95519 21.2809C1.98949 21.4078 2.04668 21.5261 2.12348 21.6292C2.27858 21.8374 2.50418 21.9707 2.75064 21.9999C2.99711 22.0291 3.24425 21.9517 3.43769 21.7848C3.63114 21.6179 3.75505 21.3751 3.78216 21.1099C3.98622 19.1551 4.85241 17.3497 6.21525 16.0387C7.57809 14.7277 9.34203 14.0029 11.17 14.0029C12.9981 14.0029 14.762 14.7277 16.1248 16.0387C17.4877 17.3497 18.3539 19.1551 18.5579 21.1099C18.5832 21.3556 18.6921 21.5825 18.8638 21.7469C19.0354 21.9113 19.2575 22.0014 19.4872 21.9999H19.5894C19.833 21.9697 20.0557 21.8372 20.2089 21.6311C20.362 21.4251 20.4333 21.1622 20.4072 20.8999C20.2209 19.0961 19.5819 17.3809 18.5587 15.9381C17.5355 14.4953 16.1668 13.3794 14.5991 12.7099ZM11.1515 11.9999C10.4163 11.9999 9.69759 11.7653 9.0863 11.3258C8.47502 10.8862 7.99858 10.2615 7.71723 9.53061C7.43589 8.79971 7.36228 7.99544 7.50571 7.21952C7.64913 6.4436 8.00316 5.73086 8.52302 5.17145C9.04287 4.61204 9.70521 4.23108 10.4263 4.07674C11.1473 3.9224 11.8947 4.00161 12.574 4.30436C13.2532 4.60711 13.8337 5.1198 14.2422 5.7776C14.6506 6.4354 14.8686 7.20876 14.8686 7.99988C14.8686 9.06075 14.477 10.0782 13.7799 10.8283C13.0828 11.5785 12.1373 11.9999 11.1515 11.9999Z" fill="#B0CBD1"/>
</svg>
