<svg width="20" height="20" viewBox="0 0 20 20" fill="none" xmlns="http://www.w3.org/2000/svg">
<path d="M10.62 0.245605H9.37996C8.95996 0.245605 8.61996 0.585606 8.61996 1.00561V1.61703C8.17996 1.64846 7.83425 2.01418 7.83425 2.45989V3.22846C8.10853 3.15989 8.3971 3.12561 8.69139 3.12561H11.3085C11.6028 3.12561 11.8914 3.15989 12.1657 3.22846V2.45989C12.1657 2.01418 11.82 1.64846 11.38 1.61703V1.00561C11.38 0.585606 11.04 0.245605 10.62 0.245605ZM13.7114 14.1456C13.7114 13.477 13.1686 11.9999 12.5 11.9999H8.17139C7.50282 11.9999 6 13.477 6 14.1456V18.2295H13.7114V14.1456Z" fill="#19A9C4"/>
<path d="M4.67578 14.1458V18.103C4.67578 19.0144 5.41864 19.7544 6.33007 19.7544H13.6729C14.5844 19.7544 15.3272 19.0144 15.3272 18.103V14.1458C15.3272 12.763 14.5215 11.5687 13.3586 11.0001C13.9586 10.6858 14.3701 10.0573 14.3701 9.33155V6.75727C14.3701 5.07155 12.9958 3.69727 11.3101 3.69727H8.69292C7.00721 3.69727 5.63292 5.07155 5.63292 6.75727V9.33155C5.63292 10.0573 6.04435 10.6858 6.64435 11.0001C5.4815 11.5687 4.67578 12.763 4.67578 14.1458ZM6.39007 14.1458C6.39007 13.163 7.19007 12.363 8.17292 12.363H11.8301C12.8129 12.363 13.6129 13.163 13.6129 14.1458V17.7544C13.6129 17.9116 13.4844 18.0401 13.3272 18.0401H6.67578C6.51864 18.0401 6.39007 17.9116 6.39007 17.7544V14.1458Z" fill="#19A9C4"/>
</svg>
