<svg width="20" height="20" viewBox="0 0 20 20" fill="none" xmlns="http://www.w3.org/2000/svg">
<path d="M14.1666 14.9455C13.9325 15.3656 13.5912 15.7161 13.1775 15.9612C12.7637 16.2062 12.2924 16.3371 11.8115 16.3404H7.53613L3.21548 18.931C3.07567 19.014 2.9161 19.0578 2.75352 19.0578C2.59792 19.0574 2.44506 19.0168 2.30968 18.9401C2.16977 18.8614 2.05326 18.747 1.97209 18.6086C1.89092 18.4701 1.848 18.3125 1.84773 18.152V16.1865C1.31769 15.9991 0.85883 15.6519 0.534372 15.1928C0.209915 14.7337 0.0358385 14.1852 0.0361332 13.6231V8.18827C0.0361332 7.46757 0.322429 6.77639 0.832039 6.26679C1.34165 5.75718 2.03283 5.47088 2.75352 5.47088H3.65932V9.09407C3.65932 10.2952 4.13648 11.4472 4.98583 12.2965C5.83518 13.1459 6.98714 13.6231 8.18831 13.6231H11.9655L14.1666 14.9455ZM17.2463 0.941895H8.18831C7.46761 0.941895 6.77643 1.22819 6.26682 1.7378C5.75721 2.24741 5.47092 2.93859 5.47092 3.65929V9.09407C5.47092 9.81476 5.75721 10.5059 6.26682 11.0156C6.77643 11.5252 7.46761 11.8115 8.18831 11.8115H12.4637L16.7843 14.402C16.9241 14.485 17.0837 14.5288 17.2463 14.5288C17.4019 14.5284 17.5547 14.4878 17.6901 14.4111C17.83 14.3325 17.9465 14.218 18.0277 14.0796C18.1089 13.9411 18.1518 13.7836 18.1521 13.6231V11.6575C18.6821 11.4701 19.141 11.1229 19.4654 10.6638C19.7899 10.2047 19.964 9.65625 19.9637 9.09407V3.65929C19.9637 2.93859 19.6774 2.24741 19.1678 1.7378C18.6582 1.22819 17.967 0.941895 17.2463 0.941895Z" fill="#19A9C4"/>
</svg>
