<svg width="61" height="48" viewBox="0 0 61 48" fill="none" xmlns="http://www.w3.org/2000/svg">
<path d="M0 48L61 39.891V0L0 8.109V48ZM3.16008 10.8615L57.8444 3.6V37.1385L3.16008 44.4V10.8615Z" fill="#F43E36"/>
<path d="M8.30649 23.0956C8.83406 23.3584 9.38921 23.5621 9.96178 23.7031C10.3974 23.7988 10.8461 23.8206 11.289 23.7676C11.6746 23.7301 12.0408 23.581 12.3424 23.3386C12.4633 23.2458 12.5617 23.1268 12.6299 22.9907C12.6982 22.8546 12.7347 22.7048 12.7366 22.5526C12.7366 22.1236 12.2701 21.7021 11.3311 21.2941C11.1807 21.2296 11.0663 21.1726 10.979 21.1441L10.2687 20.8441C9.66475 20.6115 9.1328 20.2245 8.72633 19.7221C8.38399 19.2562 8.20714 18.6899 8.22372 18.1126C8.22298 17.6982 8.30799 17.2881 8.47344 16.9079C8.63889 16.5278 8.88122 16.1857 9.18529 15.9031C9.86134 15.2566 10.7347 14.8538 11.6667 14.7586C12.0708 14.7064 12.4791 14.6943 12.8856 14.7226C13.3751 14.7599 13.8617 14.829 14.3422 14.9296V17.3971C13.8799 17.1653 13.3942 16.9832 12.8931 16.8541C12.5159 16.7468 12.1219 16.7107 11.7314 16.7476C11.4238 16.7776 11.1318 16.897 10.8917 17.0911C10.7953 17.1713 10.7181 17.2722 10.666 17.3862C10.6139 17.5002 10.5882 17.6244 10.5908 17.7496C10.5878 17.9282 10.6516 18.1014 10.7698 18.2356C10.9198 18.3985 11.1065 18.5235 11.3146 18.6001L12.5485 19.1146C13.3346 19.3846 14.0484 19.8299 14.6357 20.4166C15.0055 20.8857 15.1964 21.4704 15.1744 22.0666C15.1833 22.5518 15.0946 23.0339 14.9137 23.4845C14.7328 23.935 14.4633 24.345 14.121 24.6901C13.3712 25.4375 12.386 25.9047 11.3311 26.0131C10.9052 26.0631 10.4761 26.0797 10.0475 26.0626C9.53703 26.0366 9.0288 25.977 8.5262 25.8841L8.30649 23.0956ZM20.2862 15.8806L19.9416 15.9301V18.7336L20.393 18.6691C20.9237 18.627 21.4302 18.4303 21.8497 18.1036C22.0126 17.9662 22.1424 17.794 22.2294 17.5998C22.3164 17.4055 22.3584 17.1942 22.3523 16.9816C22.3732 16.7871 22.3377 16.5907 22.2499 16.4157C22.1622 16.2408 22.0259 16.0946 21.8572 15.9946C21.3569 15.8001 20.8093 15.7609 20.2862 15.8821V15.8806ZM17.4271 24.8476V14.3296L20.1357 13.9651C20.792 13.8573 21.4589 13.8286 22.122 13.8796C22.5845 13.9267 23.0307 14.0758 23.4282 14.3161C23.8135 14.5404 24.1287 14.8671 24.3386 15.2596C24.5548 15.6643 24.6656 16.1166 24.6606 16.5751C24.6713 17.0771 24.5752 17.5756 24.3786 18.0379C24.182 18.5002 23.8893 18.9157 23.52 19.2571C22.6611 20.0259 21.577 20.4992 20.4276 20.6071C20.2907 20.6281 20.1914 20.6356 20.1267 20.6431C20.062 20.6506 19.9973 20.6431 19.9401 20.6581V24.5056L17.4271 24.8476ZM27.9607 20.1001L30.7295 19.7281L29.3601 16.6171L27.9607 20.1001ZM24.0076 23.9686L29.3947 12.4066L29.5452 12.3856L34.803 22.5241L32.1711 22.8751L31.5045 21.4381L27.2218 22.0096L26.5401 23.6326L24.0076 23.9686ZM43.8348 14.1301C43.4335 13.7573 42.9633 13.4659 42.4504 13.2721C41.9765 13.107 41.4702 13.0556 40.9727 13.1221C40.1115 13.2248 39.3255 13.6612 38.7847 14.3371C38.2128 15.0363 37.9102 15.9162 37.9314 16.8181C37.9049 17.2275 37.9669 17.6378 38.113 18.0212C38.2592 18.4047 38.4862 18.7525 38.7786 19.0411C39.0744 19.3035 39.427 19.4941 39.8089 19.5982C40.1908 19.7023 40.5916 19.717 40.9802 19.6411C41.5439 19.5616 42.0869 19.3747 42.5798 19.0906C43.1603 18.755 43.6953 18.3467 44.1718 17.8756L44.0063 20.6926C43.5573 21.0584 43.0601 21.3613 42.5286 21.5926C41.9961 21.8254 41.4332 21.9819 40.8568 22.0576C40.2628 22.1419 39.6589 22.1251 39.0706 22.0081C38.5089 21.8932 37.9735 21.675 37.4921 21.3646C36.8251 20.9346 36.2853 20.335 35.9286 19.6276C35.5606 18.8703 35.376 18.0375 35.3898 17.1961C35.3879 16.4282 35.524 15.6662 35.7916 14.9461C36.0614 14.2283 36.4545 13.5629 36.9533 12.9796C37.457 12.3972 38.0621 11.9104 38.7395 11.5426C39.4008 11.1811 40.123 10.9436 40.8703 10.8421C41.4324 10.7628 42.0033 10.7699 42.5632 10.8631C43.1046 10.9555 43.6262 11.1391 44.1056 11.4061L43.8348 14.1301ZM46.2425 20.9941V10.4761L52.7417 9.6106V11.7766L48.6892 12.3196V14.2216L52.1608 13.7566V15.9106L48.6892 16.3756V18.4606L52.7989 17.9101V20.1271L46.2425 20.9941Z" fill="white"/>
<path d="M20.1914 34.5225L22.9677 34.1505L21.5909 31.0395L20.1914 34.5225ZM16.2383 38.391L21.618 26.829L21.7684 26.808L27.0352 36.9465L24.4033 37.2975L23.7367 35.853L19.454 36.4245L18.7724 38.0475L16.2383 38.391ZM31.1358 27.816L30.7912 27.8655V30.675L31.2426 30.6105C31.7733 30.5684 32.2798 30.3717 32.6993 30.045C32.8621 29.9075 32.9919 29.7353 33.0789 29.5411C33.1659 29.3468 33.2079 29.1356 33.2019 28.923C33.2228 28.7285 33.1873 28.5321 33.0995 28.3571C33.0118 28.1821 32.8755 28.036 32.7068 27.936C32.2075 27.7377 31.6595 27.6959 31.1358 27.816ZM28.2767 36.783V26.265L30.9853 25.9005C31.6416 25.7925 32.3085 25.7638 32.9717 25.815C33.4341 25.862 33.8803 26.0111 34.2778 26.2515C34.6631 26.4758 34.9783 26.8025 35.1882 27.195C35.405 27.5995 35.5162 28.0519 35.5117 28.5105C35.5224 29.0124 35.4263 29.511 35.2297 29.9733C35.0331 30.4356 34.7405 30.8511 34.3711 31.1925C33.5122 31.9614 32.4281 32.4347 31.2788 32.5425C31.1418 32.556 31.0425 32.571 30.9778 32.5785C30.9131 32.586 30.8484 32.5785 30.7912 32.592V36.4395L28.2767 36.783ZM40.3783 26.583L40.0337 26.6325V29.442L40.4851 29.3775C41.0157 29.3352 41.5222 29.1386 41.9417 28.812C42.1047 28.6746 42.2345 28.5024 42.3215 28.3082C42.4085 28.1139 42.4505 27.9026 42.4444 27.69C42.4653 27.4955 42.4298 27.2991 42.342 27.1241C42.2542 26.9492 42.1179 26.803 41.9493 26.703C41.4499 26.5035 40.9015 26.4601 40.3767 26.5785L40.3783 26.583ZM37.5192 35.55V25.032L40.2278 24.6675C40.884 24.5595 41.551 24.5308 42.2141 24.582C42.6766 24.629 43.1228 24.7782 43.5203 25.0185C43.9056 25.2428 44.2208 25.5695 44.4307 25.962C44.6475 26.3665 44.7588 26.8189 44.7542 27.2775C44.7649 27.7795 44.6687 28.278 44.4721 28.7403C44.2755 29.2026 43.9829 29.6181 43.6136 29.9595C42.7546 30.7283 41.6705 31.2016 40.5212 31.3095C40.3843 31.3245 40.285 31.338 40.2203 31.3455C40.1556 31.353 40.0908 31.3455 40.0337 31.3605V35.1975L37.5192 35.55Z" fill="white"/>
</svg>
