<svg width="21" height="21" viewBox="0 0 21 21" fill="none" xmlns="http://www.w3.org/2000/svg">
<path fill-rule="evenodd" clip-rule="evenodd" d="M14.0279 0.958374H7.88814C2.28475 0.958374 0.958008 2.28512 0.958008 7.88851V14.0282C0.958008 19.6316 2.28475 20.9584 7.88814 20.9584H14.0279C19.6313 20.9584 20.958 19.6316 20.958 14.0282V7.88851C20.958 2.28512 19.6313 0.958374 14.0279 0.958374ZM16.8931 7.30982C17.3306 7.30982 17.4294 7.53565 17.3306 7.84616C17.1764 8.5578 15.896 10.4455 15.4994 11.0302C15.4241 11.1413 15.3806 11.2054 15.3829 11.2054C15.2276 11.4594 15.1711 11.5723 15.3829 11.8546C15.4594 11.959 15.6217 12.1182 15.8072 12.3003C15.9979 12.4874 16.2132 12.6987 16.385 12.8991C17.006 13.6048 17.4859 14.1976 17.6129 14.6069C17.7258 15.0162 17.5282 15.228 17.1048 15.228H15.651C15.2658 15.228 15.0672 15.0067 14.6439 14.5352C14.4625 14.333 14.2397 14.0848 13.9432 13.7883C13.0822 12.9556 12.7011 12.8426 12.4894 12.8426C12.193 12.8426 12.1083 12.9132 12.1083 13.3366V14.6493C12.1083 15.0021 11.9954 15.2138 11.0639 15.2138C9.52542 15.2138 7.81758 14.2823 6.61787 12.5462C4.81123 10.0057 4.31723 8.08611 4.31723 7.70502C4.31723 7.49331 4.3878 7.29571 4.81123 7.29571H6.27912C6.64609 7.29571 6.78724 7.45096 6.92838 7.86028C7.64821 9.93508 8.84793 11.7558 9.34193 11.7558C9.52542 11.7558 9.6101 11.6711 9.6101 11.2054V9.06C9.57526 8.45019 9.36298 8.18451 9.20557 7.98749C9.10794 7.8653 9.03142 7.76952 9.03142 7.63445C9.03142 7.46508 9.17256 7.29571 9.39839 7.29571H11.6849C11.9954 7.29571 12.1083 7.46508 12.1083 7.83205V10.7255C12.1083 11.036 12.2354 11.1489 12.3342 11.1489C12.5177 11.1489 12.6729 11.036 13.0117 10.6973C14.0561 9.52577 14.8042 7.71914 14.8042 7.71914C14.903 7.50742 15.0723 7.30982 15.4393 7.30982H16.8931Z" fill="white"/>
</svg>
