<svg width="21" height="21" viewBox="0 0 21 21" fill="none" xmlns="http://www.w3.org/2000/svg">
<path fill-rule="evenodd" clip-rule="evenodd" d="M14.0279 0.958252H7.88814C2.28475 0.958252 0.958008 2.285 0.958008 7.88839V14.0281C0.958008 19.6315 2.28475 20.9583 7.88814 20.9583H14.0279C19.6313 20.9583 20.958 19.6315 20.958 14.0281V7.88839C20.958 2.285 19.6313 0.958252 14.0279 0.958252ZM16.8931 7.3097C17.3306 7.3097 17.4294 7.53553 17.3306 7.84604C17.1764 8.55768 15.896 10.4454 15.4994 11.0301C15.4241 11.1412 15.3806 11.2053 15.3829 11.2053C15.2276 11.4593 15.1711 11.5722 15.3829 11.8545C15.4594 11.9589 15.6217 12.1181 15.8072 12.3001C15.9979 12.4873 16.2132 12.6986 16.385 12.899C17.006 13.6047 17.4859 14.1975 17.6129 14.6068C17.7258 15.0161 17.5282 15.2278 17.1048 15.2278H15.651C15.2658 15.2278 15.0672 15.0066 14.6439 14.535C14.4625 14.3329 14.2397 14.0847 13.9432 13.7882C13.0822 12.9554 12.7011 12.8425 12.4894 12.8425C12.193 12.8425 12.1083 12.9131 12.1083 13.3365V14.6491C12.1083 15.002 11.9954 15.2137 11.0639 15.2137C9.52542 15.2137 7.81758 14.2822 6.61787 12.5461C4.81123 10.0055 4.31723 8.08598 4.31723 7.7049C4.31723 7.49318 4.3878 7.29558 4.81123 7.29558H6.27912C6.64609 7.29558 6.78724 7.45084 6.92838 7.86016C7.64821 9.93496 8.84793 11.7557 9.34193 11.7557C9.52542 11.7557 9.6101 11.671 9.6101 11.2053V9.05987C9.57526 8.45007 9.36298 8.18438 9.20557 7.98737C9.10794 7.86517 9.03142 7.7694 9.03142 7.63433C9.03142 7.46495 9.17256 7.29558 9.39839 7.29558H11.6849C11.9954 7.29558 12.1083 7.46495 12.1083 7.83193V10.7254C12.1083 11.0359 12.2354 11.1488 12.3342 11.1488C12.5177 11.1488 12.6729 11.0359 13.0117 10.6971C14.0561 9.52565 14.8042 7.71901 14.8042 7.71901C14.903 7.5073 15.0723 7.3097 15.4393 7.3097H16.8931Z" fill="#29B7D7"/>
</svg>
