<svg width="513" height="530" viewBox="0 0 513 530" fill="none" xmlns="http://www.w3.org/2000/svg">
<path opacity="0.6" fill-rule="evenodd" clip-rule="evenodd" d="M226.74 473.321V530.005H228.157V473.321H284.841V530.005H286.259V473.321H342.943V530.005H344.36V473.321H401.047V530.005H402.464V473.321H459.148V530.005H460.565V473.321H513V471.904H460.565V415.218H513V413.801H460.565V357.117H513V355.7H460.565V299.013H513V297.596H460.565V240.911H513V239.494H460.565V182.81H513V181.392H460.565V124.708H513V123.291H460.565V66.6056H513V65.1885H460.565V0H459.148V65.1885H402.464V0H401.047V65.1885H344.36V0H342.943V65.1885H286.259V0H284.841V65.1885H228.157V0H226.74V65.1885H170.055V1.41711H168.638V65.1885H111.953V1.41711H110.536V65.1885H53.8507V1.41711H52.4336V65.1885H0V66.6056H52.4336V123.291H0V124.708H52.4336V181.392H0V182.81H52.4336V239.494H0V240.911H52.4336V297.596H0V299.013H52.4336V355.7H0V357.117H52.4336V413.801H0V415.218H52.4336V471.904H0V473.321H52.4336V530.005H53.8507V473.321H110.536V530.005H111.953V473.321H168.638V530.005H170.055V473.321H226.74ZM459.148 66.6056H402.464V123.291H459.148V66.6056ZM459.148 124.708H402.464V181.392H459.148V124.708ZM459.148 182.81H402.464V239.494H459.148V182.81ZM459.148 240.911H402.464V297.596H459.148V240.911ZM459.148 299.013H402.464V355.7H459.148V299.013ZM459.148 357.117H402.464V413.801H459.148V357.117ZM459.148 415.218H402.464V471.904H459.148V415.218ZM401.047 415.218V471.904H344.36V415.218H401.047ZM401.047 357.117V413.801H344.36V357.117H401.047ZM401.047 299.013V355.7H344.36V299.013H401.047ZM401.047 240.911V297.596H344.36V240.911H401.047ZM401.047 182.81V239.494H344.36V182.81H401.047ZM401.047 124.708V181.392H344.36V124.708H401.047ZM401.047 66.6056V123.291H344.36V66.6056H401.047ZM342.943 66.6056H286.259V123.291H342.943V66.6056ZM342.943 124.708H286.259V181.392H342.943V124.708ZM342.943 182.81H286.259V239.494H342.943V182.81ZM342.943 240.911H286.259V297.596H342.943V240.911ZM342.943 299.013H286.259V355.7H342.943V299.013ZM342.943 357.117H286.259V413.801H342.943V357.117ZM342.943 415.218H286.259V471.904H342.943V415.218ZM284.841 415.218V471.904H228.157V415.218H284.841ZM284.841 357.117V413.801H228.157V357.117H284.841ZM284.841 299.013V355.7H228.157V299.013H284.841ZM284.841 240.911V297.596H228.157V240.911H284.841ZM284.841 182.81V239.494H228.157V182.81H284.841ZM284.841 124.708V181.392H228.157V124.708H284.841ZM284.841 66.6056V123.291H228.157V66.6056H284.841ZM226.74 471.904V415.218H170.055V471.904H226.74ZM226.74 413.801V357.117H170.055V413.801H226.74ZM226.74 355.7V299.013H170.055V355.7H226.74ZM226.74 297.596V240.911H170.055V297.596H226.74ZM226.74 239.494V182.81H170.055V239.494H226.74ZM226.74 181.392V124.708H170.055V181.392H226.74ZM226.74 123.291V66.6056H170.055V123.291H226.74ZM111.953 66.6056H168.638V123.291H111.953V66.6056ZM111.953 124.708H168.638V181.392H111.953V124.708ZM111.953 182.81H168.638V239.494H111.953V182.81ZM111.953 240.911H168.638V297.596H111.953V240.911ZM111.953 299.013H168.638V355.7H111.953V299.013ZM111.953 357.117H168.638V413.801H111.953V357.117ZM111.953 415.218H168.638V471.904H111.953V415.218ZM110.536 471.904V415.218H53.8507V471.904H110.536ZM110.536 413.801V357.117H53.8507V413.801H110.536ZM110.536 355.7V299.013H53.8507V355.7H110.536ZM110.536 297.596V240.911H53.8507V297.596H110.536ZM110.536 239.494V182.81H53.8507V239.494H110.536ZM110.536 181.392V124.708H53.8507V181.392H110.536ZM110.536 123.291V66.6056H53.8507V123.291H110.536Z" fill="url(#paint0_radial_1124_1200)"/>
<defs>
<radialGradient id="paint0_radial_1124_1200" cx="0" cy="0" r="1" gradientUnits="userSpaceOnUse" gradientTransform="translate(256.5 265.003) rotate(90) scale(265.003 256.5)">
<stop stop-color="#8D8CFF"/>
<stop offset="1" stop-color="#60D2C3" stop-opacity="0"/>
</radialGradient>
</defs>
</svg>
