<svg width="683" height="330" viewBox="0 0 683 330" fill="none" xmlns="http://www.w3.org/2000/svg">
<path opacity="0.2" fill-rule="evenodd" clip-rule="evenodd" d="M301.873 294.526V329.798H303.756V294.526H379.084V329.798H380.968V294.526H456.298V329.798H458.181V294.526H533.513V329.798H535.397V294.526H610.728V329.798H612.611V294.526H682.292V293.645H612.611V258.371H682.292V257.489H612.611V222.219H682.292V221.337H612.611V186.061H682.292V185.179H612.611V149.907H682.292V149.025H612.611V113.753H682.292V112.871H612.611V77.6014H682.292V76.7196H612.611V41.4436H682.292V40.5618H612.611V0H610.728V40.5618H535.397V0H533.513V40.5618H458.181V0H456.298V40.5618H380.968V0H379.084V40.5618H303.756V0H301.873V40.5618H226.544V0.881805H224.66V40.5618H149.328V0.881805H147.445V40.5618H72.1159V0.881805H70.2327V40.5618H0.550781V41.4436H70.2327V76.7196H0.550781V77.6014H70.2327V112.871H0.550781V113.753H70.2327V149.025H0.550781V149.907H70.2327V185.179H0.550781V186.061H70.2327V221.337H0.550781V222.219H70.2327V257.489H0.550781V258.371H70.2327V293.645H0.550781V294.526H70.2327V329.798H72.1159V294.526H147.445V329.798H149.328V294.526H224.66V329.798H226.544V294.526H301.873ZM610.728 41.4436H535.397V76.7196H610.728V41.4436ZM610.728 77.6014H535.397V112.871H610.728V77.6014ZM610.728 113.753H535.397V149.025H610.728V113.753ZM610.728 149.907H535.397V185.179H610.728V149.907ZM610.728 186.061H535.397V221.337H610.728V186.061ZM610.728 222.219H535.397V257.489H610.728V222.219ZM610.728 258.371H535.397V293.645H610.728V258.371ZM533.513 258.371V293.645H458.181V258.371H533.513ZM533.513 222.219V257.489H458.181V222.219H533.513ZM533.513 186.061V221.337H458.181V186.061H533.513ZM533.513 149.907V185.179H458.181V149.907H533.513ZM533.513 113.753V149.025H458.181V113.753H533.513ZM533.513 77.6014V112.871H458.181V77.6014H533.513ZM533.513 41.4436V76.7196H458.181V41.4436H533.513ZM456.298 41.4436H380.968V76.7196H456.298V41.4436ZM456.298 77.6014H380.968V112.871H456.298V77.6014ZM456.298 113.753H380.968V149.025H456.298V113.753ZM456.298 149.907H380.968V185.179H456.298V149.907ZM456.298 186.061H380.968V221.337H456.298V186.061ZM456.298 222.219H380.968V257.489H456.298V222.219ZM456.298 258.371H380.968V293.645H456.298V258.371ZM379.084 258.371V293.645H303.756V258.371H379.084ZM379.084 222.219V257.489H303.756V222.219H379.084ZM379.084 186.061V221.337H303.756V186.061H379.084ZM379.084 149.907V185.179H303.756V149.907H379.084ZM379.084 113.753V149.025H303.756V113.753H379.084ZM379.084 77.6014V112.871H303.756V77.6014H379.084ZM379.084 41.4436V76.7196H303.756V41.4436H379.084ZM301.873 293.645V258.371H226.544V293.645H301.873ZM301.873 257.489V222.219H226.544V257.489H301.873ZM301.873 221.337V186.061H226.544V221.337H301.873ZM301.873 185.179V149.907H226.544V185.179H301.873ZM301.873 149.025V113.753H226.544V149.025H301.873ZM301.873 112.871V77.6014H226.544V112.871H301.873ZM301.873 76.7196V41.4436H226.544V76.7196H301.873ZM149.328 41.4436H224.66V76.7196H149.328V41.4436ZM149.328 77.6014H224.66V112.871H149.328V77.6014ZM149.328 113.753H224.66V149.025H149.328V113.753ZM149.328 149.907H224.66V185.179H149.328V149.907ZM149.328 186.061H224.66V221.337H149.328V186.061ZM149.328 222.219H224.66V257.489H149.328V222.219ZM149.328 258.371H224.66V293.645H149.328V258.371ZM147.445 293.645V258.371H72.1159V293.645H147.445ZM147.445 257.489V222.219H72.1159V257.489H147.445ZM147.445 221.337V186.061H72.1159V221.337H147.445ZM147.445 185.179V149.907H72.1159V185.179H147.445ZM147.445 149.025V113.753H72.1159V149.025H147.445ZM147.445 112.871V77.6014H72.1159V112.871H147.445ZM147.445 76.7196V41.4436H72.1159V76.7196H147.445Z" fill="url(#paint0_radial_1124_1486)"/>
<path d="M74.2863 181.19L74.4005 179.932L74.1078 179.905L73.8333 180.01L74.2863 181.19ZM176.674 190.483L176.56 191.742L176.787 191.762L177.007 191.702L176.674 190.483ZM308.135 154.581L308.222 153.32L308.008 153.305L307.802 153.361L308.135 154.581ZM477.938 166.407L477.85 167.668L478.023 167.68L478.192 167.645L477.938 166.407ZM597.18 141.909L597.434 143.147L597.606 143.112L597.762 143.031L597.18 141.909ZM666.281 106.007L651.699 105.359L658.429 118.311L666.281 106.007ZM1.00321 210.67L74.7392 182.371L73.8333 180.01L0.097373 208.31L1.00321 210.67ZM74.172 182.449L176.56 191.742L176.788 189.224L74.4005 179.932L74.172 182.449ZM177.007 191.702L308.468 155.8L307.802 153.361L176.341 189.263L177.007 191.702ZM308.047 155.842L477.85 167.668L478.026 165.146L308.222 153.32L308.047 155.842ZM478.192 167.645L597.434 143.147L596.925 140.671L477.684 165.169L478.192 167.645ZM597.762 143.031L656.768 112.374L655.603 110.13L596.597 140.788L597.762 143.031Z" fill="#60D2C3"/>
<path d="M0.550293 216.222L77.2137 201.622C108.01 206.489 170.232 216.222 172.748 216.222C175.264 216.222 288.857 198.98 345.339 190.36C401.428 190.36 514.313 190.36 517.144 190.36C519.974 190.36 603.855 169.461 634.258 161.536" stroke="#5F2EEA" stroke-width="2.52809"/>
<path d="M48.4065 50.8606H46.9318V41.3606H48.4065V45.8835H48.4657L52.4356 41.3606H54.1869L50.4211 45.5675L54.5029 50.8606H52.6726L49.3809 46.5813L48.4065 47.6939V50.8606ZM57.505 49.8534C58.4991 49.8534 59.276 49.1687 59.276 48.2667V47.7203L57.5708 47.8256C56.7215 47.8849 56.2409 48.2601 56.2409 48.8527C56.2409 49.4583 56.7413 49.8534 57.505 49.8534ZM57.11 50.9791C55.7537 50.9791 54.8057 50.1364 54.8057 48.8922C54.8057 47.6808 55.734 46.9368 57.3799 46.8447L59.276 46.7327V46.1995C59.276 45.4292 58.7559 44.9683 57.8868 44.9683C57.0639 44.9683 56.5504 45.3634 56.4253 45.9822H55.0822C55.1612 44.7313 56.2278 43.8096 57.9395 43.8096C59.6183 43.8096 60.6914 44.6984 60.6914 46.0876V50.8606H59.3286V49.7217H59.2957C58.8941 50.492 58.0185 50.9791 57.11 50.9791ZM62.074 50.8606V43.9347H63.4302V45.1H63.4631C63.7725 44.3297 64.4967 43.8162 65.4316 43.8162C66.3928 43.8162 67.0906 44.31 67.3672 45.1724H67.4001C67.7556 44.3297 68.572 43.8162 69.5595 43.8162C70.9289 43.8162 71.8242 44.7248 71.8242 46.1007V50.8606H70.3956V46.4431C70.3956 45.5477 69.915 45.0342 69.0723 45.0342C68.2296 45.0342 67.6437 45.6596 67.6437 46.5352V50.8606H66.248V46.3377C66.248 45.5411 65.741 45.0342 64.9378 45.0342C64.0951 45.0342 63.496 45.6925 63.496 46.5813V50.8606H62.074ZM76.097 44.9552C75.1029 44.9552 74.405 45.7123 74.3326 46.7591H77.7955C77.7626 45.6991 77.0911 44.9552 76.097 44.9552ZM77.7889 48.8263H79.1386C78.9411 50.0904 77.7429 50.9923 76.1562 50.9923C74.1219 50.9923 72.8908 49.6163 72.8908 47.4306C72.8908 45.258 74.1416 43.8096 76.097 43.8096C78.0194 43.8096 79.2176 45.1659 79.2176 47.266V47.7532H74.326V47.8388C74.326 49.0436 75.0502 49.8402 76.1891 49.8402C76.9989 49.8402 77.598 49.432 77.7889 48.8263ZM80.7384 42.2954H82.167V43.9347H83.4837V45.0605H82.167V48.879C82.167 49.4781 82.4304 49.748 83.0097 49.748C83.1546 49.748 83.385 49.7349 83.4771 49.7151V50.8409C83.3191 50.8804 83.0031 50.9067 82.6871 50.9067C81.2848 50.9067 80.7384 50.3735 80.7384 49.037V45.0605H79.7311V43.9347H80.7384V42.2954ZM84.6556 50.8606V43.9347H86.0118V45.1132H86.0447C86.2752 44.3034 86.894 43.8228 87.7104 43.8228C87.9145 43.8228 88.0922 43.8557 88.1976 43.8755V45.1988C88.0856 45.1527 87.8355 45.1198 87.559 45.1198C86.6438 45.1198 86.0777 45.732 86.0777 46.713V50.8606H84.6556ZM89.1258 50.8606V43.9347H90.5479V50.8606H89.1258ZM89.8369 42.9209C89.3826 42.9209 89.0139 42.5588 89.0139 42.1111C89.0139 41.6568 89.3826 41.2947 89.8369 41.2947C90.2977 41.2947 90.6664 41.6568 90.6664 42.1111C90.6664 42.5588 90.2977 42.9209 89.8369 42.9209ZM97.9478 46.318H96.5916C96.4468 45.5806 95.8938 44.9947 94.9655 44.9947C93.866 44.9947 93.1418 45.9098 93.1418 47.3977C93.1418 48.9185 93.8726 49.8007 94.9786 49.8007C95.8543 49.8007 96.427 49.3201 96.5916 48.5169H97.961C97.8096 49.9916 96.6311 50.9923 94.9655 50.9923C92.9838 50.9923 91.6934 49.6361 91.6934 47.3977C91.6934 45.1988 92.9838 43.8096 94.9523 43.8096C96.7365 43.8096 97.8227 44.9552 97.9478 46.318ZM98.8432 45.8966C98.8432 44.6589 99.9361 43.8096 101.556 43.8096C103.096 43.8096 104.176 44.6721 104.222 45.9032H102.886C102.82 45.2778 102.313 44.8893 101.516 44.8893C100.746 44.8893 100.232 45.2646 100.232 45.811C100.232 46.239 100.575 46.5287 101.292 46.7064L102.458 46.9763C103.853 47.3121 104.38 47.8388 104.38 48.8592C104.38 50.1233 103.202 50.9923 101.503 50.9923C99.8636 50.9923 98.7774 50.143 98.6654 48.8724H100.074C100.186 49.5373 100.7 49.906 101.569 49.906C102.425 49.906 102.951 49.5505 102.951 48.9909C102.951 48.5498 102.688 48.3062 101.964 48.1219L100.726 47.819C99.4752 47.5162 98.8432 46.8644 98.8432 45.8966Z" fill="white"/>
<path d="M152.907 51.0186C150.241 51.0186 148.556 49.1357 148.556 46.1073C148.556 43.0986 150.254 41.2025 152.907 41.2025C155.06 41.2025 156.686 42.5258 156.937 44.5075H155.475C155.212 43.2895 154.198 42.4929 152.907 42.4929C151.183 42.4929 150.063 43.9084 150.063 46.1073C150.063 48.326 151.169 49.7283 152.914 49.7283C154.237 49.7283 155.179 49.0502 155.475 47.9046H156.943C156.581 49.8665 155.093 51.0186 152.907 51.0186ZM161.078 50.9923C159.096 50.9923 157.792 49.6295 157.792 47.3977C157.792 45.1724 159.103 43.8096 161.078 43.8096C163.053 43.8096 164.363 45.1724 164.363 47.3977C164.363 49.6295 163.059 50.9923 161.078 50.9923ZM161.078 49.8204C162.197 49.8204 162.914 48.9382 162.914 47.3977C162.914 45.8637 162.19 44.9815 161.078 44.9815C159.965 44.9815 159.241 45.8637 159.241 47.3977C159.241 48.9382 159.965 49.8204 161.078 49.8204ZM165.462 50.8606V43.9347H166.819V45.0934H166.851C167.227 44.3034 167.964 43.8162 169.031 43.8162C170.558 43.8162 171.434 44.7906 171.434 46.3772V50.8606H170.005V46.6537C170.005 45.6135 169.518 45.0408 168.53 45.0408C167.53 45.0408 166.884 45.7518 166.884 46.8249V50.8606H165.462ZM173.224 42.2954H174.653V43.9347H175.97V45.0605H174.653V48.879C174.653 49.4781 174.916 49.748 175.496 49.748C175.641 49.748 175.871 49.7349 175.963 49.7151V50.8409C175.805 50.8804 175.489 50.9067 175.173 50.9067C173.771 50.9067 173.224 50.3735 173.224 49.037V45.0605H172.217V43.9347H173.224V42.2954ZM177.142 50.8606V43.9347H178.498V45.1132H178.531C178.761 44.3034 179.38 43.8228 180.196 43.8228C180.4 43.8228 180.578 43.8557 180.684 43.8755V45.1988C180.572 45.1527 180.321 45.1198 180.045 45.1198C179.13 45.1198 178.564 45.732 178.564 46.713V50.8606H177.142ZM184.239 50.9923C182.257 50.9923 180.953 49.6295 180.953 47.3977C180.953 45.1724 182.264 43.8096 184.239 43.8096C186.214 43.8096 187.524 45.1724 187.524 47.3977C187.524 49.6295 186.22 50.9923 184.239 50.9923ZM184.239 49.8204C185.358 49.8204 186.075 48.9382 186.075 47.3977C186.075 45.8637 185.351 44.9815 184.239 44.9815C183.126 44.9815 182.402 45.8637 182.402 47.3977C182.402 48.9382 183.126 49.8204 184.239 49.8204ZM188.676 50.8606V41.3606H190.098V50.8606H188.676ZM202.653 46.9105C202.653 49.4847 201.132 51.0186 198.558 51.0186C195.839 51.0186 194.127 49.116 194.127 46.0678C194.127 43.0723 195.832 41.2025 198.538 41.2025C200.651 41.2025 202.251 42.4534 202.58 44.3495H201.066C200.711 43.171 199.782 42.4929 198.545 42.4929C196.728 42.4929 195.635 43.8228 195.635 46.0546C195.635 48.326 196.761 49.7283 198.571 49.7283C200.112 49.7283 201.178 48.7407 201.198 47.2989V47.1343H198.742V45.9427H202.653V46.9105ZM203.924 50.8606V43.9347H205.28V45.1132H205.313C205.543 44.3034 206.162 43.8228 206.978 43.8228C207.182 43.8228 207.36 43.8557 207.465 43.8755V45.1988C207.354 45.1527 207.103 45.1198 206.827 45.1198C205.912 45.1198 205.346 45.732 205.346 46.713V50.8606H203.924ZM211.021 50.9923C209.039 50.9923 207.735 49.6295 207.735 47.3977C207.735 45.1724 209.046 43.8096 211.021 43.8096C212.996 43.8096 214.306 45.1724 214.306 47.3977C214.306 49.6295 213.002 50.9923 211.021 50.9923ZM211.021 49.8204C212.14 49.8204 212.857 48.9382 212.857 47.3977C212.857 45.8637 212.133 44.9815 211.021 44.9815C209.908 44.9815 209.184 45.8637 209.184 47.3977C209.184 48.9382 209.908 49.8204 211.021 49.8204ZM221.344 43.9347V50.8606H219.981V49.6888H219.948C219.566 50.5183 218.862 50.9857 217.802 50.9857C216.294 50.9857 215.372 50.0048 215.372 48.4181V43.9347H216.794V48.1416C216.794 49.195 217.295 49.7612 218.276 49.7612C219.303 49.7612 219.922 49.0502 219.922 47.9705V43.9347H221.344ZM226.36 43.8228C228.118 43.8228 229.277 45.2054 229.277 47.3977C229.277 49.59 228.125 50.9791 226.387 50.9791C225.393 50.9791 224.603 50.492 224.208 49.7217H224.175V53.1517H222.753V43.9347H224.129V45.1264H224.155C224.563 44.3297 225.36 43.8228 226.36 43.8228ZM225.985 49.7744C227.111 49.7744 227.815 48.8527 227.815 47.3977C227.815 45.9493 227.111 45.021 225.985 45.021C224.899 45.021 224.168 45.9691 224.168 47.3977C224.168 48.8395 224.892 49.7744 225.985 49.7744Z" fill="white"/>
<path d="M661.584 305.492H654.658V304.07H661.584V305.492ZM653.644 304.781C653.644 305.235 653.282 305.604 652.834 305.604C652.38 305.604 652.018 305.235 652.018 304.781C652.018 304.32 652.38 303.951 652.834 303.951C653.282 303.951 653.644 304.32 653.644 304.781ZM661.584 302.615H654.658V301.259H655.817V301.226C655.027 300.851 654.54 300.113 654.54 299.047C654.54 297.519 655.514 296.644 657.101 296.644H661.584V298.072H657.377C656.337 298.072 655.764 298.56 655.764 299.547C655.764 300.548 656.475 301.193 657.548 301.193H661.584V302.615ZM658.371 290.89V295.208H657.087V290.89H658.371ZM660.577 286.999C660.577 286.005 659.892 285.228 658.99 285.228H658.444L658.549 286.933C658.608 287.782 658.983 288.263 659.576 288.263C660.182 288.263 660.577 287.762 660.577 286.999ZM661.702 287.394C661.702 288.75 660.86 289.698 659.615 289.698C658.404 289.698 657.66 288.77 657.568 287.124L657.456 285.228H656.923C656.153 285.228 655.692 285.748 655.692 286.617C655.692 287.44 656.087 287.953 656.706 288.078V289.422C655.455 289.343 654.533 288.276 654.533 286.564C654.533 284.885 655.422 283.812 656.811 283.812H661.584V285.175H660.445V285.208C661.215 285.61 661.702 286.485 661.702 287.394ZM654.546 278.822C654.546 277.064 655.929 275.905 658.121 275.905C660.313 275.905 661.702 277.058 661.702 278.796C661.702 279.79 661.215 280.58 660.445 280.975V281.008H663.875V282.43H654.658V281.054H655.85V281.027C655.053 280.619 654.546 279.823 654.546 278.822ZM660.498 279.197C660.498 278.071 659.576 277.367 658.121 277.367C656.673 277.367 655.744 278.071 655.744 279.197C655.744 280.284 656.692 281.014 658.121 281.014C659.563 281.014 660.498 280.29 660.498 279.197ZM654.546 271.198C654.546 269.44 655.929 268.282 658.121 268.282C660.313 268.282 661.702 269.434 661.702 271.172C661.702 272.166 661.215 272.956 660.445 273.351V273.384H663.875V274.806H654.658V273.43H655.85V273.404C655.053 272.996 654.546 272.199 654.546 271.198ZM660.498 271.573C660.498 270.448 659.576 269.743 658.121 269.743C656.673 269.743 655.744 270.448 655.744 271.573C655.744 272.66 656.692 273.391 658.121 273.391C659.563 273.391 660.498 272.666 660.498 271.573ZM654.546 260.836C654.546 259.078 655.929 257.919 658.121 257.919C660.313 257.919 661.702 259.071 661.702 260.809C661.702 261.803 661.215 262.594 660.445 262.989V263.021H663.875V264.443H654.658V263.068H655.85V263.041C655.053 262.633 654.546 261.836 654.546 260.836ZM660.498 261.211C660.498 260.085 659.576 259.381 658.121 259.381C656.673 259.381 655.744 260.085 655.744 261.211C655.744 262.297 656.692 263.028 658.121 263.028C659.563 263.028 660.498 262.304 660.498 261.211ZM654.658 250.881H661.584V252.244H660.412V252.277C661.242 252.659 661.709 253.363 661.709 254.423C661.709 255.931 660.728 256.853 659.141 256.853H654.658V255.431H658.865C659.918 255.431 660.485 254.93 660.485 253.949C660.485 252.922 659.774 252.303 658.694 252.303H654.658V250.881ZM661.584 249.472H654.658V248.116H655.837V248.083C655.027 247.853 654.546 247.234 654.546 246.418C654.546 246.214 654.579 246.036 654.599 245.93H655.922C655.876 246.042 655.843 246.293 655.843 246.569C655.843 247.484 656.455 248.05 657.436 248.05H661.584V249.472ZM657.041 239.406V240.762C656.304 240.907 655.718 241.46 655.718 242.389C655.718 243.488 656.633 244.212 658.121 244.212C659.642 244.212 660.524 243.481 660.524 242.375C660.524 241.5 660.043 240.927 659.24 240.762V239.393C660.715 239.544 661.716 240.723 661.716 242.389C661.716 244.37 660.359 245.661 658.121 245.661C655.922 245.661 654.533 244.37 654.533 242.402C654.533 240.618 655.679 239.531 657.041 239.406ZM661.584 238.333H652.084V236.924H655.817V236.891C655.007 236.509 654.54 235.752 654.54 234.699C654.54 233.178 655.553 232.27 657.12 232.27H661.584V233.698H657.397C656.376 233.698 655.764 234.212 655.764 235.212C655.764 236.266 656.488 236.911 657.581 236.911H661.584V238.333ZM660.577 228.471C660.577 227.477 659.892 226.7 658.99 226.7H658.444L658.549 228.405C658.608 229.254 658.983 229.735 659.576 229.735C660.182 229.735 660.577 229.235 660.577 228.471ZM661.702 228.866C661.702 230.222 660.86 231.17 659.615 231.17C658.404 231.17 657.66 230.242 657.568 228.596L657.456 226.7H656.923C656.153 226.7 655.692 227.22 655.692 228.089C655.692 228.912 656.087 229.425 656.706 229.551V230.894C655.455 230.815 654.533 229.748 654.533 228.036C654.533 226.358 655.422 225.284 656.811 225.284H661.584V226.647H660.445V226.68C661.215 227.082 661.702 227.957 661.702 228.866ZM656.62 224.027C655.382 224.027 654.533 222.934 654.533 221.315C654.533 219.774 655.395 218.694 656.627 218.648V219.985C656.001 220.05 655.613 220.557 655.613 221.354C655.613 222.124 655.988 222.638 656.534 222.638C656.962 222.638 657.252 222.295 657.43 221.578L657.7 220.413C658.035 219.017 658.562 218.49 659.583 218.49C660.847 218.49 661.716 219.669 661.716 221.367C661.716 223.007 660.866 224.093 659.596 224.205V222.796C660.261 222.684 660.629 222.17 660.629 221.301C660.629 220.446 660.274 219.919 659.714 219.919C659.273 219.919 659.03 220.182 658.845 220.906L658.542 222.144C658.24 223.395 657.588 224.027 656.62 224.027ZM655.679 214.487C655.679 215.481 656.436 216.179 657.482 216.252V212.789C656.422 212.822 655.679 213.493 655.679 214.487ZM659.55 212.795V211.446C660.814 211.643 661.716 212.841 661.716 214.428C661.716 216.462 660.34 217.694 658.154 217.694C655.981 217.694 654.533 216.443 654.533 214.487C654.533 212.565 655.889 211.367 657.989 211.367H658.477V216.258H658.562C659.767 216.258 660.564 215.534 660.564 214.395C660.564 213.585 660.155 212.986 659.55 212.795ZM656.62 210.386C655.382 210.386 654.533 209.293 654.533 207.673C654.533 206.133 655.395 205.053 656.627 205.007V206.344C656.001 206.409 655.613 206.916 655.613 207.713C655.613 208.483 655.988 208.997 656.534 208.997C656.962 208.997 657.252 208.654 657.43 207.937L657.7 206.771C658.035 205.376 658.562 204.849 659.583 204.849C660.847 204.849 661.716 206.027 661.716 207.726C661.716 209.365 660.866 210.452 659.596 210.564V209.155C660.261 209.043 660.629 208.529 660.629 207.66C660.629 206.804 660.274 206.278 659.714 206.278C659.273 206.278 659.03 206.541 658.845 207.265L658.542 208.503C658.24 209.754 657.588 210.386 656.62 210.386ZM661.584 201.004H654.658V199.648H655.837V199.615C655.027 199.385 654.546 198.766 654.546 197.949C654.546 197.745 654.579 197.568 654.599 197.462H655.922C655.876 197.574 655.843 197.824 655.843 198.101C655.843 199.016 656.455 199.582 657.436 199.582H661.584V201.004ZM655.679 193.986C655.679 194.98 656.436 195.678 657.482 195.751V192.288C656.422 192.321 655.679 192.992 655.679 193.986ZM659.55 192.294V190.945C660.814 191.142 661.716 192.34 661.716 193.927C661.716 195.961 660.34 197.192 658.154 197.192C655.981 197.192 654.533 195.941 654.533 193.986C654.533 192.064 655.889 190.866 657.989 190.866H658.477V195.757H658.562C659.767 195.757 660.564 195.033 660.564 193.894C660.564 193.084 660.155 192.485 659.55 192.294ZM654.658 183.887L661.584 186.369V187.896L654.658 190.392V188.877L660.195 187.139V187.113L654.658 185.375V183.887ZM655.679 180.371C655.679 181.365 656.436 182.063 657.482 182.136V178.673C656.422 178.706 655.679 179.377 655.679 180.371ZM659.55 178.679V177.33C660.814 177.527 661.716 178.725 661.716 180.312C661.716 182.346 660.34 183.578 658.154 183.578C655.981 183.578 654.533 182.327 654.533 180.371C654.533 178.449 655.889 177.251 657.989 177.251H658.477V182.142H658.562C659.767 182.142 660.564 181.418 660.564 180.279C660.564 179.469 660.155 178.87 659.55 178.679ZM661.584 176.145H654.658V174.788H655.817V174.756C655.027 174.38 654.54 173.643 654.54 172.576C654.54 171.049 655.514 170.173 657.101 170.173H661.584V171.602H657.377C656.337 171.602 655.764 172.089 655.764 173.077C655.764 174.077 656.475 174.723 657.548 174.723H661.584V176.145ZM654.658 162.859H661.584V164.222H660.412V164.255C661.242 164.637 661.709 165.341 661.709 166.401C661.709 167.909 660.728 168.83 659.141 168.83H654.658V167.408H658.865C659.918 167.408 660.485 166.908 660.485 165.927C660.485 164.9 659.774 164.281 658.694 164.281H654.658V162.859ZM655.679 158.553C655.679 159.548 656.436 160.245 657.482 160.318V156.855C656.422 156.888 655.679 157.559 655.679 158.553ZM659.55 156.861V155.512C660.814 155.709 661.716 156.907 661.716 158.494C661.716 160.528 660.34 161.76 658.154 161.76C655.981 161.76 654.533 160.509 654.533 158.553C654.533 156.631 655.889 155.433 657.989 155.433H658.477V160.324H658.562C659.767 160.324 660.564 159.6 660.564 158.461C660.564 157.651 660.155 157.052 659.55 156.861Z" fill="white"/>
<ellipse cx="32.9941" cy="45.014" rx="5.47753" ry="5.4686" fill="#60D2C3"/>
<ellipse cx="134.118" cy="45.014" rx="5.47753" ry="5.4686" fill="#5F2EEA"/>
<defs>
<radialGradient id="paint0_radial_1124_1486" cx="0" cy="0" r="1" gradientUnits="userSpaceOnUse" gradientTransform="translate(341.422 164.899) rotate(90) scale(164.899 340.871)">
<stop stop-color="#391952"/>
<stop offset="1" stop-color="#D9D9D9" stop-opacity="0"/>
</radialGradient>
</defs>
</svg>
