<svg width="674" height="330" viewBox="0 0 674 330" fill="none" xmlns="http://www.w3.org/2000/svg">
<path opacity="0.2" fill-rule="evenodd" clip-rule="evenodd" d="M298.426 295.105V329.965H300.284V295.105H374.617V329.965H376.475V295.105H450.808V329.965H452.666V295.105H527.001V329.965H528.859V295.105H603.193V329.965H605.051V295.105H673.811V294.233H605.051V259.369H673.811V258.497H605.051V223.637H673.811V222.765H605.051V187.905H673.811V187.033H605.051V152.169H673.811V151.297H605.051V116.435H673.811V115.563H605.051V80.7006H673.811V79.8291H605.051V44.9686H673.811V44.097H605.051V4.00076H603.193V44.097H528.859V4.00076H527.001V44.097H452.666V4.00076H450.808V44.097H376.475V4.00076H374.617V44.097H300.284V4.00076H298.426V44.097H224.094V4.87231H222.236V44.097H147.901V4.87231H146.043V44.097H71.7109V4.87231H69.8526V44.097H1.09302V44.9686H69.8526V79.8291H1.09302V80.7006H69.8526V115.563H1.09302V116.435H69.8526V151.297H1.09302V152.169H69.8526V187.033H1.09302V187.905H69.8526V222.765H1.09302V223.637H69.8526V258.497H1.09302V259.369H69.8526V294.233H1.09302V295.105H69.8526V329.965H71.7109V295.105H146.043V329.965H147.901V295.105H222.236V329.965H224.094V295.105H298.426ZM603.193 44.9686H528.859V79.8291H603.193V44.9686ZM603.193 80.7006H528.859V115.563H603.193V80.7006ZM603.193 116.435H528.859V151.297H603.193V116.435ZM603.193 152.169H528.859V187.033H603.193V152.169ZM603.193 187.905H528.859V222.765H603.193V187.905ZM603.193 223.637H528.859V258.497H603.193V223.637ZM603.193 259.369H528.859V294.233H603.193V259.369ZM527.001 259.369V294.233H452.666V259.369H527.001ZM527.001 223.637V258.497H452.666V223.637H527.001ZM527.001 187.905V222.765H452.666V187.905H527.001ZM527.001 152.169V187.033H452.666V152.169H527.001ZM527.001 116.435V151.297H452.666V116.435H527.001ZM527.001 80.7006V115.563H452.666V80.7006H527.001ZM527.001 44.9686V79.8291H452.666V44.9686H527.001ZM450.808 44.9686H376.475V79.8291H450.808V44.9686ZM450.808 80.7006H376.475V115.563H450.808V80.7006ZM450.808 116.435H376.475V151.297H450.808V116.435ZM450.808 152.169H376.475V187.033H450.808V152.169ZM450.808 187.905H376.475V222.765H450.808V187.905ZM450.808 223.637H376.475V258.497H450.808V223.637ZM450.808 259.369H376.475V294.233H450.808V259.369ZM374.617 259.369V294.233H300.284V259.369H374.617ZM374.617 223.637V258.497H300.284V223.637H374.617ZM374.617 187.905V222.765H300.284V187.905H374.617ZM374.617 152.169V187.033H300.284V152.169H374.617ZM374.617 116.435V151.297H300.284V116.435H374.617ZM374.617 80.7006V115.563H300.284V80.7006H374.617ZM374.617 44.9686V79.8291H300.284V44.9686H374.617ZM298.426 294.233V259.369H224.094V294.233H298.426ZM298.426 258.497V223.637H224.094V258.497H298.426ZM298.426 222.765V187.905H224.094V222.765H298.426ZM298.426 187.033V152.169H224.094V187.033H298.426ZM298.426 151.297V116.435H224.094V151.297H298.426ZM298.426 115.563V80.7006H224.094V115.563H298.426ZM298.426 79.8291V44.9686H224.094V79.8291H298.426ZM147.901 44.9686H222.236V79.8291H147.901V44.9686ZM147.901 80.7006H222.236V115.563H147.901V80.7006ZM147.901 116.435H222.236V151.297H147.901V116.435ZM147.901 152.169H222.236V187.033H147.901V152.169ZM147.901 187.905H222.236V222.765H147.901V187.905ZM147.901 223.637H222.236V258.497H147.901V223.637ZM147.901 259.369H222.236V294.233H147.901V259.369ZM146.043 294.233V259.369H71.7109V294.233H146.043ZM146.043 258.497V223.637H71.7109V258.497H146.043ZM146.043 222.765V187.905H71.7109V222.765H146.043ZM146.043 187.033V152.169H71.7109V187.033H146.043ZM146.043 151.297V116.435H71.7109V151.297H146.043ZM146.043 115.563V80.7006H71.7109V115.563H146.043ZM146.043 79.8291V44.9686H71.7109V79.8291H146.043Z" fill="url(#paint0_radial_1124_1512)"/>
<path d="M48.1079 51.8093H49.5436C49.6476 52.7383 50.5506 53.349 51.7849 53.349C52.9672 53.349 53.8183 52.7383 53.8183 51.9003C53.8183 51.1727 53.3051 50.7374 52.0902 50.4386L50.8754 50.1462C49.1538 49.7305 48.3548 48.9249 48.3548 47.6191C48.3548 46.0015 49.7645 44.8906 51.7654 44.8906C53.7468 44.8906 55.1046 46.0015 55.15 47.6191H53.7338C53.6494 46.6836 52.8763 46.1185 51.7459 46.1185C50.6155 46.1185 49.8425 46.6901 49.8425 47.5217C49.8425 48.1843 50.3362 48.5741 51.5445 48.8729L52.5775 49.1263C54.5004 49.581 55.2995 50.3541 55.2995 51.7249C55.2995 53.4789 53.9027 54.5768 51.681 54.5768C49.6021 54.5768 48.1989 53.5049 48.1079 51.8093ZM56.4363 54.4209V47.5866H57.7746V48.7365H57.8071C58.1124 47.9764 58.827 47.4697 59.7495 47.4697C60.698 47.4697 61.3866 47.9569 61.6595 48.808H61.6919C62.0427 47.9764 62.8483 47.4697 63.8228 47.4697C65.174 47.4697 66.0575 48.3662 66.0575 49.724V54.4209H64.6478V50.0618C64.6478 49.1783 64.1736 48.6715 63.342 48.6715C62.5105 48.6715 61.9323 49.2887 61.9323 50.1527V54.4209H60.5551V49.9578C60.5551 49.1718 60.0548 48.6715 59.2623 48.6715C58.4307 48.6715 57.8396 49.3212 57.8396 50.1982V54.4209H56.4363ZM69.806 53.4269C70.7869 53.4269 71.5535 52.7513 71.5535 51.8613V51.3221L69.8709 51.426C69.0329 51.4845 68.5587 51.8548 68.5587 52.4395C68.5587 53.0371 69.0524 53.4269 69.806 53.4269ZM69.4162 54.5378C68.0779 54.5378 67.1424 53.7063 67.1424 52.4785C67.1424 51.2831 68.0584 50.549 69.6825 50.4581L71.5535 50.3476V49.8214C71.5535 49.0613 71.0403 48.6066 70.1828 48.6066C69.3707 48.6066 68.864 48.9964 68.7406 49.607H67.4153C67.4932 48.3727 68.5457 47.4632 70.2347 47.4632C71.8913 47.4632 72.9502 48.3402 72.9502 49.711V54.4209H71.6055V53.297H71.573C71.1767 54.0571 70.3127 54.5378 69.4162 54.5378ZM74.3145 54.4209V47.5866H75.6528V48.7495H75.6852C75.9126 47.9504 76.5233 47.4762 77.3288 47.4762C77.5302 47.4762 77.7056 47.5087 77.8096 47.5282V48.834C77.6991 48.7885 77.4523 48.756 77.1794 48.756C76.2764 48.756 75.7177 49.3602 75.7177 50.3281V54.4209H74.3145ZM79.0894 45.969H80.4991V47.5866H81.7984V48.6975H80.4991V52.4655C80.4991 53.0566 80.7589 53.323 81.3306 53.323C81.4735 53.323 81.7009 53.31 81.7919 53.2905V54.4014C81.636 54.4404 81.3241 54.4664 81.0123 54.4664C79.6286 54.4664 79.0894 53.9401 79.0894 52.6214V48.6975H78.0954V47.5866H79.0894V45.969ZM87.2814 54.4209H85.8262V45.0465H87.2814V49.5096H87.3398L91.2572 45.0465H92.9852L89.2693 49.1978L93.297 54.4209H91.491L88.2428 50.1982L87.2814 51.2961V54.4209ZM96.2594 53.4269C97.2404 53.4269 98.0069 52.7513 98.0069 51.8613V51.3221L96.3244 51.426C95.4863 51.4845 95.0121 51.8548 95.0121 52.4395C95.0121 53.0371 95.5058 53.4269 96.2594 53.4269ZM95.8696 54.5378C94.5314 54.5378 93.5959 53.7063 93.5959 52.4785C93.5959 51.2831 94.5119 50.549 96.136 50.4581L98.0069 50.3476V49.8214C98.0069 49.0613 97.4937 48.6066 96.6362 48.6066C95.8241 48.6066 95.3174 48.9964 95.194 49.607H93.8687C93.9467 48.3727 94.9991 47.4632 96.6882 47.4632C98.3448 47.4632 99.4037 48.3402 99.4037 49.711V54.4209H98.0589V53.297H98.0264C97.6302 54.0571 96.7661 54.5378 95.8696 54.5378ZM100.768 54.4209V47.5866H102.106V48.7365H102.139C102.444 47.9764 103.159 47.4697 104.081 47.4697C105.03 47.4697 105.718 47.9569 105.991 48.808H106.024C106.374 47.9764 107.18 47.4697 108.154 47.4697C109.506 47.4697 110.389 48.3662 110.389 49.724V54.4209H108.979V50.0618C108.979 49.1783 108.505 48.6715 107.674 48.6715C106.842 48.6715 106.264 49.2887 106.264 50.1527V54.4209H104.887V49.9578C104.887 49.1718 104.386 48.6715 103.594 48.6715C102.762 48.6715 102.171 49.3212 102.171 50.1982V54.4209H100.768ZM114.605 48.5936C113.624 48.5936 112.936 49.3407 112.864 50.3736H116.281C116.249 49.3277 115.586 48.5936 114.605 48.5936ZM116.275 52.4135H117.607C117.412 53.6608 116.229 54.5508 114.664 54.5508C112.656 54.5508 111.442 53.1931 111.442 51.0362C111.442 48.8924 112.676 47.4632 114.605 47.4632C116.502 47.4632 117.685 48.8015 117.685 50.8738V51.3546H112.858V51.439C112.858 52.6279 113.572 53.4139 114.696 53.4139C115.495 53.4139 116.086 53.0112 116.275 52.4135ZM119.185 45.969H120.595V47.5866H121.894V48.6975H120.595V52.4655C120.595 53.0566 120.855 53.323 121.427 53.323C121.569 53.323 121.797 53.31 121.888 53.2905V54.4014C121.732 54.4404 121.42 54.4664 121.108 54.4664C119.724 54.4664 119.185 53.9401 119.185 52.6214V48.6975H118.191V47.5866H119.185V45.969ZM123.051 54.4209V47.5866H124.389V48.7495H124.421C124.649 47.9504 125.259 47.4762 126.065 47.4762C126.266 47.4762 126.442 47.5087 126.546 47.5282V48.834C126.435 48.7885 126.188 48.756 125.916 48.756C125.013 48.756 124.454 49.3602 124.454 50.3281V54.4209H123.051ZM127.462 54.4209V47.5866H128.865V54.4209H127.462ZM128.163 46.5862C127.715 46.5862 127.351 46.2289 127.351 45.7871C127.351 45.3389 127.715 44.9816 128.163 44.9816C128.618 44.9816 128.982 45.3389 128.982 45.7871C128.982 46.2289 128.618 46.5862 128.163 46.5862ZM136.167 49.9384H134.829C134.686 49.2108 134.14 48.6326 133.224 48.6326C132.139 48.6326 131.425 49.5356 131.425 51.0038C131.425 52.5044 132.146 53.375 133.237 53.375C134.101 53.375 134.666 52.9007 134.829 52.1082H136.18C136.031 53.5634 134.868 54.5508 133.224 54.5508C131.269 54.5508 129.995 53.2125 129.995 51.0038C129.995 48.834 131.269 47.4632 133.211 47.4632C134.972 47.4632 136.044 48.5936 136.167 49.9384ZM137.05 49.5226C137.05 48.3013 138.129 47.4632 139.727 47.4632C141.247 47.4632 142.313 48.3142 142.358 49.5291H141.039C140.974 48.9119 140.474 48.5286 139.688 48.5286C138.928 48.5286 138.421 48.8989 138.421 49.4381C138.421 49.8604 138.759 50.1462 139.467 50.3216L140.617 50.588C141.994 50.9193 142.514 51.439 142.514 52.446C142.514 53.6933 141.351 54.5508 139.675 54.5508C138.057 54.5508 136.985 53.7128 136.875 52.459H138.265C138.376 53.1151 138.882 53.4789 139.74 53.4789C140.584 53.4789 141.104 53.1281 141.104 52.5759C141.104 52.1406 140.844 51.9003 140.13 51.7184L138.908 51.4195C137.674 51.1207 137.05 50.4776 137.05 49.5226ZM152.583 54.4209L151.726 51.8873H148.153L147.295 54.4209H145.782L149.166 45.0465H150.738L154.123 54.4209H152.583ZM149.92 46.6057L148.523 50.7179H151.356L149.959 46.6057H149.92ZM156.611 54.4209H155.156V45.0465H156.611V54.4209ZM164.433 47.4762C166.167 47.4762 167.311 48.8405 167.311 51.0038C167.311 53.1671 166.174 54.5378 164.459 54.5378C163.478 54.5378 162.698 54.0571 162.309 53.297H162.276V56.6816H160.873V47.5866H162.231V48.7625H162.257C162.659 47.9764 163.445 47.4762 164.433 47.4762ZM164.063 53.349C165.173 53.349 165.869 52.4395 165.869 51.0038C165.869 49.5746 165.173 48.6586 164.063 48.6586C162.991 48.6586 162.27 49.594 162.27 51.0038C162.27 52.4265 162.984 53.349 164.063 53.349ZM174.255 47.5866V54.4209H172.911V53.2645H172.878C172.501 54.0831 171.806 54.5443 170.76 54.5443C169.273 54.5443 168.363 53.5763 168.363 52.0107V47.5866H169.766V51.7379C169.766 52.7773 170.26 53.336 171.228 53.336C172.242 53.336 172.852 52.6344 172.852 51.569V47.5866H174.255ZM175.522 49.5226C175.522 48.3013 176.601 47.4632 178.199 47.4632C179.719 47.4632 180.784 48.3142 180.83 49.5291H179.511C179.446 48.9119 178.946 48.5286 178.16 48.5286C177.4 48.5286 176.893 48.8989 176.893 49.4381C176.893 49.8604 177.231 50.1462 177.939 50.3216L179.089 50.588C180.466 50.9193 180.986 51.439 180.986 52.446C180.986 53.6933 179.823 54.5508 178.147 54.5508C176.529 54.5508 175.457 53.7128 175.347 52.459H176.737C176.848 53.1151 177.354 53.4789 178.212 53.4789C179.056 53.4789 179.576 53.1281 179.576 52.5759C179.576 52.1406 179.316 51.9003 178.602 51.7184L177.38 51.4195C176.146 51.1207 175.522 50.4776 175.522 49.5226ZM182.129 54.4209V45.0465H183.519V48.73H183.552C183.929 47.931 184.676 47.4697 185.715 47.4697C187.216 47.4697 188.112 48.4702 188.112 50.0163V54.4209H186.703V50.2892C186.703 49.2822 186.196 48.678 185.208 48.678C184.169 48.678 183.532 49.3927 183.532 50.4711V54.4209H182.129Z" fill="white"/>
<rect x="160.749" y="113.766" width="101.448" height="154.667" rx="8.31542" fill="#5F2EEA"/>
<rect x="287.975" y="164.489" width="99.7851" height="103.943" rx="8.31542" fill="url(#paint1_linear_1124_1512)"/>
<rect x="413.538" y="216.877" width="101.448" height="51.5556" rx="8.31542" fill="#5F2EEA"/>
<rect x="287.975" y="198.583" width="99.7851" height="69.8495" rx="8.31542" fill="#5F2EEA"/>
<path d="M164.784 280.218C167.441 280.218 169.104 282.089 169.104 285.064C169.104 288.039 167.441 289.904 164.784 289.904C162.127 289.904 160.464 288.039 160.464 285.064C160.464 282.089 162.127 280.218 164.784 280.218ZM164.784 281.296C162.867 281.296 161.666 282.751 161.666 285.064C161.666 287.37 162.867 288.825 164.784 288.825C166.7 288.825 167.902 287.37 167.902 285.064C167.902 282.751 166.7 281.296 164.784 281.296ZM170.384 289.748V282.992H171.449V284.07H171.475C171.852 283.342 172.573 282.875 173.619 282.875C175.1 282.875 175.958 283.83 175.958 285.363V289.748H174.827V285.564C174.827 284.473 174.314 283.875 173.275 283.875C172.209 283.875 171.514 284.629 171.514 285.772V289.748H170.384ZM180.758 289.865C179.771 289.865 178.998 289.384 178.563 288.604H178.537V289.748H177.458V280.374H178.589V284.122H178.615C179.037 283.349 179.823 282.875 180.778 282.875C182.48 282.875 183.63 284.252 183.63 286.37C183.63 288.494 182.487 289.865 180.758 289.865ZM180.538 283.869C179.394 283.869 178.582 284.869 178.582 286.37C178.582 287.877 179.394 288.871 180.538 288.871C181.733 288.871 182.474 287.916 182.474 286.37C182.474 284.837 181.733 283.869 180.538 283.869ZM187.58 289.865C185.709 289.865 184.448 288.52 184.448 286.37C184.448 284.213 185.709 282.875 187.58 282.875C189.444 282.875 190.705 284.213 190.705 286.37C190.705 288.52 189.444 289.865 187.58 289.865ZM187.58 288.871C188.775 288.871 189.555 287.961 189.555 286.37C189.555 284.778 188.775 283.869 187.58 283.869C186.384 283.869 185.598 284.778 185.598 286.37C185.598 287.961 186.384 288.871 187.58 288.871ZM194.076 288.903C195.142 288.903 195.96 288.156 195.96 287.182V286.63L194.154 286.74C193.245 286.798 192.725 287.201 192.725 287.838C192.725 288.481 193.264 288.903 194.076 288.903ZM193.823 289.865C192.478 289.865 191.575 289.053 191.575 287.838C191.575 286.682 192.465 285.954 194.024 285.863L195.96 285.753V285.187C195.96 284.362 195.414 283.869 194.479 283.869C193.608 283.869 193.063 284.278 192.92 284.941H191.828C191.906 283.771 192.907 282.875 194.505 282.875C196.09 282.875 197.091 283.732 197.091 285.077V289.748H196.019V288.585H195.993C195.59 289.358 194.732 289.865 193.823 289.865ZM198.526 289.748V282.992H199.592V284.096H199.618C199.838 283.349 200.462 282.875 201.255 282.875C201.45 282.875 201.619 282.907 201.709 282.92V284.018C201.619 283.986 201.378 283.953 201.105 283.953C200.228 283.953 199.657 284.583 199.657 285.538V289.748H198.526ZM204.867 289.865C203.145 289.865 201.976 288.488 201.976 286.37C201.976 284.252 203.139 282.875 204.841 282.875C205.809 282.875 206.588 283.349 206.991 284.089H207.017V280.374H208.147V289.748H207.069V288.604H207.05C206.614 289.384 205.841 289.865 204.867 289.865ZM205.081 283.869C203.886 283.869 203.132 284.843 203.132 286.37C203.132 287.903 203.886 288.871 205.081 288.871C206.244 288.871 207.024 287.883 207.024 286.37C207.024 284.863 206.244 283.869 205.081 283.869ZM209.733 289.748V282.992H210.863V289.748H209.733ZM210.298 281.855C209.914 281.855 209.596 281.536 209.596 281.153C209.596 280.763 209.914 280.451 210.298 280.451C210.688 280.451 211.006 280.763 211.006 281.153C211.006 281.536 210.688 281.855 210.298 281.855ZM212.39 289.748V282.992H213.455V284.07H213.481C213.858 283.342 214.579 282.875 215.625 282.875C217.106 282.875 217.964 283.83 217.964 285.363V289.748H216.833V285.564C216.833 284.473 216.32 283.875 215.28 283.875C214.215 283.875 213.52 284.629 213.52 285.772V289.748H212.39ZM222.154 288.806C223.33 288.806 224.116 287.831 224.116 286.344C224.116 284.856 223.33 283.869 222.154 283.869C220.991 283.869 220.231 284.83 220.231 286.344C220.231 287.857 220.991 288.806 222.154 288.806ZM222.193 292.294C220.705 292.294 219.529 291.456 219.341 290.307H220.504C220.724 290.924 221.394 291.333 222.238 291.333C223.408 291.333 224.116 290.657 224.116 289.65V288.585H224.09C223.674 289.319 222.875 289.8 221.926 289.8C220.205 289.8 219.074 288.442 219.074 286.344C219.074 284.226 220.205 282.875 221.952 282.875C222.907 282.875 223.7 283.342 224.148 284.128H224.168V282.992H225.246V289.611C225.246 291.223 224.057 292.294 222.193 292.294Z" fill="white"/>
<path d="M294.894 289.748L294.179 287.474H290.886L290.171 289.748H288.157L291.412 280.374H293.718L296.979 289.748H294.894ZM292.51 282.167L291.308 286.006H293.757L292.555 282.167H292.51ZM303.846 285.376H302.086C301.975 284.642 301.488 284.122 300.708 284.122C299.773 284.122 299.188 284.915 299.188 286.259C299.188 287.63 299.773 288.41 300.715 288.41C301.475 288.41 301.969 287.955 302.086 287.195H303.853C303.755 288.838 302.527 289.897 300.695 289.897C298.597 289.897 297.265 288.533 297.265 286.259C297.265 284.025 298.597 282.634 300.682 282.634C302.566 282.634 303.762 283.797 303.846 285.376ZM305.275 281.179H307.172V282.784H308.459V284.213H307.172V287.546C307.172 288.078 307.432 288.332 307.991 288.332C308.16 288.332 308.335 288.319 308.452 288.299V289.696C308.257 289.741 307.932 289.774 307.549 289.774C305.912 289.774 305.275 289.228 305.275 287.87V284.213H304.294V282.784H305.275V281.179ZM309.53 289.748V282.784H311.427V289.748H309.53ZM310.479 282.017C309.907 282.017 309.466 281.582 309.466 281.036C309.466 280.484 309.907 280.055 310.479 280.055C311.051 280.055 311.492 280.484 311.492 281.036C311.492 281.582 311.051 282.017 310.479 282.017ZM319.061 282.784L316.67 289.748H314.526L312.116 282.784H314.149L315.598 288.072H315.637L317.079 282.784H319.061ZM322.244 288.488C323.069 288.488 323.751 287.948 323.751 287.195V286.688L322.283 286.779C321.575 286.831 321.172 287.149 321.172 287.643C321.172 288.163 321.601 288.488 322.244 288.488ZM321.62 289.858C320.295 289.858 319.288 289.001 319.288 287.747C319.288 286.48 320.263 285.746 321.997 285.642L323.751 285.538V285.077C323.751 284.427 323.296 284.051 322.582 284.051C321.874 284.051 321.425 284.401 321.334 284.915H319.6C319.671 283.563 320.821 282.634 322.666 282.634C324.453 282.634 325.616 283.557 325.616 284.96V289.748H323.784V288.682H323.745C323.355 289.423 322.491 289.858 321.62 289.858ZM327.35 281.179H329.247V282.784H330.533V284.213H329.247V287.546C329.247 288.078 329.507 288.332 330.066 288.332C330.235 288.332 330.41 288.319 330.527 288.299V289.696C330.332 289.741 330.007 289.774 329.624 289.774C327.987 289.774 327.35 289.228 327.35 287.87V284.213H326.369V282.784H327.35V281.179ZM331.605 289.748V282.784H333.502V289.748H331.605ZM332.554 282.017C331.982 282.017 331.54 281.582 331.54 281.036C331.54 280.484 331.982 280.055 332.554 280.055C333.125 280.055 333.567 280.484 333.567 281.036C333.567 281.582 333.125 282.017 332.554 282.017ZM337.965 289.897C335.86 289.897 334.516 288.546 334.516 286.259C334.516 284.005 335.88 282.634 337.965 282.634C340.051 282.634 341.415 283.999 341.415 286.259C341.415 288.553 340.07 289.897 337.965 289.897ZM337.965 288.449C338.894 288.449 339.485 287.663 339.485 286.266C339.485 284.882 338.888 284.083 337.965 284.083C337.043 284.083 336.439 284.882 336.439 286.266C336.439 287.663 337.03 288.449 337.965 288.449ZM342.396 289.748V282.784H344.228V284.025H344.267C344.637 283.16 345.371 282.654 346.443 282.654C347.989 282.654 348.86 283.628 348.86 285.259V289.748H346.963V285.655C346.963 284.746 346.534 284.226 345.683 284.226C344.832 284.226 344.293 284.85 344.293 285.753V289.748H342.396Z" fill="white"/>
<path d="M415.617 281.413V285.005H417.858C419.06 285.005 419.742 284.356 419.742 283.206C419.742 282.082 419.015 281.413 417.806 281.413H415.617ZM415.617 286.038V289.748H414.448V280.374H417.962C419.768 280.374 420.951 281.478 420.951 283.167C420.951 284.473 420.242 285.486 419.067 285.857L421.236 289.748H419.866L417.858 286.038H415.617ZM424.959 283.856C423.9 283.856 423.159 284.668 423.088 285.792H426.758C426.732 284.661 426.024 283.856 424.959 283.856ZM426.732 287.812H427.843C427.648 288.994 426.505 289.865 425.03 289.865C423.094 289.865 421.918 288.52 421.918 286.396C421.918 284.297 423.114 282.875 424.978 282.875C426.804 282.875 427.928 284.2 427.928 286.246V286.675H423.081V286.74C423.081 288.033 423.841 288.884 425.056 288.884C425.914 288.884 426.544 288.449 426.732 287.812ZM429.435 281.361H430.565V282.992H431.877V283.921H430.565V287.935C430.565 288.553 430.825 288.832 431.403 288.832C431.533 288.832 431.793 288.812 431.871 288.799V289.748C431.735 289.78 431.423 289.8 431.156 289.8C429.916 289.8 429.435 289.293 429.435 287.994V283.921H428.428V282.992H429.435V281.361ZM435.6 283.856C434.541 283.856 433.8 284.668 433.729 285.792H437.399C437.373 284.661 436.665 283.856 435.6 283.856ZM437.373 287.812H438.484C438.289 288.994 437.146 289.865 435.671 289.865C433.735 289.865 432.56 288.52 432.56 286.396C432.56 284.297 433.755 282.875 435.619 282.875C437.445 282.875 438.569 284.2 438.569 286.246V286.675H433.722V286.74C433.722 288.033 434.483 288.884 435.697 288.884C436.555 288.884 437.185 288.449 437.373 287.812ZM439.712 289.748V282.992H440.778V284.07H440.804C441.18 283.342 441.901 282.875 442.947 282.875C444.429 282.875 445.286 283.83 445.286 285.363V289.748H444.156V285.564C444.156 284.473 443.643 283.875 442.603 283.875C441.538 283.875 440.843 284.629 440.843 285.772V289.748H439.712ZM447.092 281.361H448.222V282.992H449.535V283.921H448.222V287.935C448.222 288.553 448.482 288.832 449.061 288.832C449.19 288.832 449.45 288.812 449.528 288.799V289.748C449.392 289.78 449.08 289.8 448.814 289.8C447.573 289.8 447.092 289.293 447.092 287.994V283.921H446.085V282.992H447.092V281.361ZM450.802 289.748V282.992H451.932V289.748H450.802ZM451.367 281.855C450.983 281.855 450.665 281.536 450.665 281.153C450.665 280.763 450.983 280.451 451.367 280.451C451.757 280.451 452.075 280.763 452.075 281.153C452.075 281.536 451.757 281.855 451.367 281.855ZM456.259 289.865C454.388 289.865 453.127 288.52 453.127 286.37C453.127 284.213 454.388 282.875 456.259 282.875C458.123 282.875 459.383 284.213 459.383 286.37C459.383 288.52 458.123 289.865 456.259 289.865ZM456.259 288.871C457.454 288.871 458.233 287.961 458.233 286.37C458.233 284.778 457.454 283.869 456.259 283.869C455.063 283.869 454.277 284.778 454.277 286.37C454.277 287.961 455.063 288.871 456.259 288.871ZM460.527 289.748V282.992H461.592V284.07H461.618C461.995 283.342 462.716 282.875 463.762 282.875C465.243 282.875 466.101 283.83 466.101 285.363V289.748H464.97V285.564C464.97 284.473 464.457 283.875 463.418 283.875C462.352 283.875 461.657 284.629 461.657 285.772V289.748H460.527Z" fill="white"/>
<defs>
<radialGradient id="paint0_radial_1124_1512" cx="0" cy="0" r="1" gradientUnits="userSpaceOnUse" gradientTransform="translate(337.452 166.983) rotate(90) scale(162.982 336.359)">
<stop stop-color="white"/>
<stop offset="1" stop-color="white" stop-opacity="0"/>
</radialGradient>
<linearGradient id="paint1_linear_1124_1512" x1="337.868" y1="164.489" x2="337.868" y2="268.432" gradientUnits="userSpaceOnUse">
<stop stop-color="#04C775"/>
<stop offset="1" stop-color="#5F2EEA"/>
</linearGradient>
</defs>
</svg>
