<svg width="544" height="317" viewBox="0 0 544 317" fill="none" xmlns="http://www.w3.org/2000/svg">
<rect width="544" height="317" rx="30" fill="url(#paint0_linear_3108_1214)"/>
<path d="M217.383 126.677V117.231H223.975V118.378H218.594V121.347H222.966V122.494H218.594V125.53H223.975V126.677H217.383Z" fill="white"/>
<path d="M224.787 119.93H225.93L227.477 125.665H228.62L230.167 119.93H231.311L229.427 126.677H226.67L224.787 119.93Z" fill="white"/>
<path d="M233.105 125.813C232.45 125.148 232.123 124.311 232.123 123.303C232.123 122.296 232.45 121.459 233.105 120.794C233.76 120.128 234.576 119.795 235.553 119.795C236.531 119.795 237.347 120.123 238.001 120.78C238.656 121.437 238.983 122.255 238.983 123.236V123.641H233.199C233.271 124.271 233.526 124.788 233.966 125.193C234.405 125.598 234.934 125.8 235.553 125.8C236.217 125.8 236.786 125.598 237.262 125.193C237.477 125.013 237.647 124.81 237.773 124.585H238.849C238.688 125.008 238.459 125.382 238.163 125.705C237.463 126.443 236.594 126.812 235.553 126.812C234.576 126.812 233.76 126.479 233.105 125.813ZM233.226 122.696H237.84C237.759 122.165 237.513 121.72 237.1 121.36C236.688 120.991 236.172 120.807 235.553 120.807C234.934 120.807 234.414 120.991 233.993 121.36C233.571 121.72 233.316 122.165 233.226 122.696Z" fill="white"/>
<path d="M240.461 126.677V119.93H241.537V120.942H241.551C241.685 120.726 241.86 120.537 242.075 120.375C242.569 119.988 243.151 119.795 243.824 119.795C244.64 119.795 245.29 120.056 245.775 120.578C246.268 121.09 246.514 121.797 246.514 122.696V126.677H245.438V122.764C245.438 122.116 245.277 121.63 244.954 121.306C244.631 120.973 244.187 120.807 243.622 120.807C243.003 120.807 242.501 121.014 242.116 121.428C241.73 121.833 241.537 122.368 241.537 123.034V126.677H240.461Z" fill="white"/>
<path d="M247.725 120.942V119.93H248.599V118.445H249.675V119.93H251.827V120.942H249.675V125.665H251.895V126.677H248.599V120.942H247.725Z" fill="white"/>
<path d="M257.013 126.677V119.93H258.089V120.942H258.103C258.237 120.726 258.412 120.537 258.627 120.375C259.121 119.988 259.704 119.795 260.376 119.795C261.192 119.795 261.842 120.056 262.327 120.578C262.82 121.09 263.066 121.797 263.066 122.696V126.677H261.99V122.764C261.99 122.116 261.829 121.63 261.506 121.306C261.183 120.973 260.739 120.807 260.174 120.807C259.556 120.807 259.053 121.014 258.668 121.428C258.282 121.833 258.089 122.368 258.089 123.034V126.677H257.013Z" fill="white"/>
<path d="M265.42 125.813C264.792 125.139 264.478 124.302 264.478 123.303C264.478 122.305 264.792 121.473 265.42 120.807C266.048 120.132 266.81 119.795 267.707 119.795C268.272 119.795 268.747 119.903 269.133 120.119C269.527 120.335 269.814 120.569 269.994 120.82L270.115 121.023H270.128V119.93H271.204V126.677H270.128V125.598H270.115L269.994 125.786C269.832 126.029 269.554 126.263 269.16 126.488C268.765 126.704 268.281 126.812 267.707 126.812C266.81 126.812 266.048 126.479 265.42 125.813ZM266.2 121.509C265.77 121.977 265.555 122.575 265.555 123.303C265.555 124.032 265.77 124.63 266.2 125.098C266.64 125.566 267.187 125.8 267.841 125.8C268.496 125.8 269.039 125.566 269.469 125.098C269.908 124.63 270.128 124.032 270.128 123.303C270.128 122.575 269.908 121.977 269.469 121.509C269.039 121.041 268.496 120.807 267.841 120.807C267.187 120.807 266.64 121.041 266.2 121.509Z" fill="white"/>
<path d="M273.092 126.677V119.93H274.168V120.942H274.182C274.298 120.735 274.464 120.546 274.68 120.375C275.173 119.988 275.742 119.795 276.388 119.795C277.061 119.795 277.621 120.02 278.069 120.47C278.267 120.668 278.424 120.892 278.54 121.144H278.608C278.742 120.91 278.93 120.686 279.173 120.47C279.693 120.02 280.334 119.795 281.096 119.795C281.823 119.795 282.419 120.056 282.885 120.578C283.352 121.099 283.585 121.806 283.585 122.696V126.677H282.509V122.764C282.509 122.134 282.361 121.653 282.065 121.32C281.778 120.978 281.388 120.807 280.894 120.807C280.356 120.807 279.885 121.014 279.482 121.428C279.078 121.842 278.877 122.332 278.877 122.899V126.677H277.8V122.764C277.8 122.134 277.652 121.653 277.357 121.32C277.07 120.978 276.679 120.807 276.186 120.807C275.648 120.807 275.177 121.014 274.774 121.428C274.37 121.842 274.168 122.332 274.168 122.899V126.677H273.092Z" fill="white"/>
<path d="M285.98 125.813C285.325 125.148 284.998 124.311 284.998 123.303C284.998 122.296 285.325 121.459 285.98 120.794C286.634 120.128 287.45 119.795 288.428 119.795C289.405 119.795 290.222 120.123 290.876 120.78C291.531 121.437 291.858 122.255 291.858 123.236V123.641H286.074C286.146 124.271 286.401 124.788 286.841 125.193C287.28 125.598 287.809 125.8 288.428 125.8C289.092 125.8 289.661 125.598 290.136 125.193C290.352 125.013 290.522 124.81 290.648 124.585H291.724C291.562 125.008 291.334 125.382 291.038 125.705C290.338 126.443 289.468 126.812 288.428 126.812C287.45 126.812 286.634 126.479 285.98 125.813ZM286.101 122.696H290.715C290.634 122.165 290.387 121.72 289.975 121.36C289.562 120.991 289.047 120.807 288.428 120.807C287.809 120.807 287.289 120.991 286.868 121.36C286.446 121.72 286.19 122.165 286.101 122.696Z" fill="white"/>
<path d="M313.329 123.894H315.767C315.845 124.096 315.969 124.282 316.137 124.45C316.495 124.81 316.989 124.99 317.616 124.99C318.569 124.99 319.046 124.709 319.046 124.147C319.046 124.057 319.023 123.978 318.978 123.911C318.934 123.832 318.855 123.765 318.743 123.708C318.631 123.641 318.524 123.585 318.423 123.54C318.323 123.495 318.171 123.45 317.969 123.405C317.779 123.348 317.622 123.309 317.499 123.287C317.387 123.264 317.202 123.225 316.944 123.169C316.697 123.112 316.518 123.073 316.406 123.05C314.635 122.668 313.749 121.797 313.749 120.436C313.749 119.716 314.068 119.103 314.707 118.597C315.358 118.08 316.243 117.821 317.364 117.821C318.866 117.821 319.993 118.288 320.744 119.221C321.069 119.626 321.288 120.087 321.4 120.605H319.046C318.967 120.436 318.866 120.295 318.743 120.183C318.395 119.902 317.936 119.761 317.364 119.761C316.961 119.761 316.664 119.829 316.473 119.964C316.282 120.087 316.187 120.245 316.187 120.436C316.187 120.503 316.198 120.571 316.221 120.638C316.254 120.695 316.305 120.751 316.372 120.807C316.439 120.852 316.507 120.897 316.574 120.942C316.641 120.976 316.736 121.015 316.86 121.06C316.983 121.094 317.09 121.127 317.179 121.161C317.28 121.195 317.409 121.229 317.566 121.262C317.723 121.296 317.857 121.324 317.969 121.347C318.082 121.369 318.227 121.403 318.407 121.448C318.586 121.482 318.732 121.51 318.844 121.532C320.604 121.926 321.484 122.797 321.484 124.147C321.484 124.9 321.136 125.553 320.441 126.104C319.746 126.655 318.805 126.93 317.616 126.93C316.025 126.93 314.848 126.424 314.085 125.412C313.738 124.951 313.486 124.445 313.329 123.894Z" fill="white"/>
<path d="M322.161 120.099V118.074H323.254V116.219H325.608V118.074H328.029V120.099H325.608V124.653H328.13V126.677H323.254V120.099H322.161Z" fill="white"/>
<path d="M330.174 125.682C329.423 124.838 329.047 123.736 329.047 122.376C329.047 121.015 329.423 119.919 330.174 119.086C330.936 118.243 331.878 117.821 332.999 117.821C333.75 117.821 334.428 118.046 335.033 118.496C335.291 118.71 335.51 118.935 335.689 119.171H335.773V118.074H338.127V126.677H335.773V125.581H335.689C335.51 125.817 335.291 126.042 335.033 126.255C334.428 126.705 333.75 126.93 332.999 126.93C331.878 126.93 330.936 126.514 330.174 125.682ZM332.074 120.52C331.681 120.97 331.485 121.589 331.485 122.376C331.485 123.163 331.681 123.781 332.074 124.231C332.466 124.681 332.971 124.906 333.587 124.906C334.237 124.906 334.764 124.687 335.168 124.248C335.571 123.798 335.773 123.174 335.773 122.376C335.773 121.577 335.571 120.959 335.168 120.52C334.764 120.07 334.237 119.846 333.587 119.846C332.971 119.846 332.466 120.07 332.074 120.52Z" fill="white"/>
<path d="M339.977 126.677V118.074H342.331V119.339H342.415C342.516 119.07 342.667 118.833 342.869 118.631C343.329 118.147 343.906 117.906 344.601 117.906H345.61V120.183H344.349C343.71 120.183 343.211 120.357 342.852 120.706C342.505 121.043 342.331 121.515 342.331 122.123V126.677H339.977Z" fill="white"/>
<path d="M346.119 120.099V118.074H347.212V116.219H349.566V118.074H351.987V120.099H349.566V124.653H352.088V126.677H347.212V120.099H346.119Z" fill="white"/>
<path d="M352.837 123.894H355.275C355.353 124.096 355.477 124.282 355.645 124.45C356.004 124.81 356.497 124.99 357.125 124.99C358.077 124.99 358.554 124.709 358.554 124.147C358.554 124.057 358.531 123.978 358.487 123.911C358.442 123.832 358.363 123.765 358.251 123.708C358.139 123.641 358.033 123.585 357.932 123.54C357.831 123.495 357.68 123.45 357.478 123.405C357.287 123.348 357.13 123.309 357.007 123.287C356.895 123.264 356.71 123.225 356.452 123.169C356.205 123.112 356.026 123.073 355.914 123.05C354.143 122.668 353.257 121.797 353.257 120.436C353.257 119.716 353.577 119.103 354.216 118.597C354.866 118.08 355.751 117.821 356.872 117.821C358.375 117.821 359.501 118.288 360.252 119.221C360.577 119.626 360.796 120.087 360.908 120.605H358.554C358.475 120.436 358.375 120.295 358.251 120.183C357.904 119.902 357.444 119.761 356.872 119.761C356.469 119.761 356.172 119.829 355.981 119.964C355.791 120.087 355.695 120.245 355.695 120.436C355.695 120.503 355.707 120.571 355.729 120.638C355.763 120.695 355.813 120.751 355.88 120.807C355.948 120.852 356.015 120.897 356.082 120.942C356.149 120.976 356.245 121.015 356.368 121.06C356.491 121.094 356.598 121.127 356.687 121.161C356.788 121.195 356.917 121.229 357.074 121.262C357.231 121.296 357.366 121.324 357.478 121.347C357.59 121.369 357.736 121.403 357.915 121.448C358.094 121.482 358.24 121.51 358.352 121.532C360.112 121.926 360.992 122.797 360.992 124.147C360.992 124.9 360.645 125.553 359.95 126.104C359.254 126.655 358.313 126.93 357.125 126.93C355.533 126.93 354.356 126.424 353.593 125.412C353.246 124.951 352.994 124.445 352.837 123.894Z" fill="white"/>
<path d="M361.081 130.051V128.111H367.638V130.051H361.081Z" fill="white"/>
<path d="M367.632 123.894H370.07C370.149 124.096 370.272 124.282 370.44 124.45C370.799 124.81 371.292 124.99 371.92 124.99C372.873 124.99 373.349 124.709 373.349 124.147C373.349 124.057 373.327 123.978 373.282 123.911C373.237 123.832 373.158 123.765 373.046 123.708C372.934 123.641 372.828 123.585 372.727 123.54C372.626 123.495 372.475 123.45 372.273 123.405C372.082 123.348 371.925 123.309 371.802 123.287C371.69 123.264 371.505 123.225 371.247 123.169C371 123.112 370.821 123.073 370.709 123.05C368.938 122.668 368.052 121.797 368.052 120.436C368.052 119.716 368.372 119.103 369.011 118.597C369.661 118.08 370.546 117.821 371.667 117.821C373.17 117.821 374.296 118.288 375.047 119.221C375.372 119.626 375.591 120.087 375.703 120.605H373.349C373.27 120.436 373.17 120.295 373.046 120.183C372.699 119.902 372.239 119.761 371.667 119.761C371.264 119.761 370.967 119.829 370.776 119.964C370.586 120.087 370.49 120.245 370.49 120.436C370.49 120.503 370.502 120.571 370.524 120.638C370.558 120.695 370.608 120.751 370.675 120.807C370.743 120.852 370.81 120.897 370.877 120.942C370.944 120.976 371.04 121.015 371.163 121.06C371.286 121.094 371.393 121.127 371.482 121.161C371.583 121.195 371.712 121.229 371.869 121.262C372.026 121.296 372.161 121.324 372.273 121.347C372.385 121.369 372.531 121.403 372.71 121.448C372.889 121.482 373.035 121.51 373.147 121.532C374.907 121.926 375.787 122.797 375.787 124.147C375.787 124.9 375.44 125.553 374.745 126.104C374.05 126.655 373.108 126.93 371.92 126.93C370.328 126.93 369.151 126.424 368.389 125.412C368.041 124.951 367.789 124.445 367.632 123.894Z" fill="white"/>
<path d="M377.961 125.614C377.075 124.726 376.632 123.646 376.632 122.376C376.632 121.105 377.075 120.031 377.961 119.154C378.858 118.266 379.956 117.821 381.257 117.821C382.579 117.821 383.667 118.26 384.519 119.137C385.371 120.014 385.797 121.094 385.797 122.376V122.882H379.071C379.16 123.444 379.412 123.922 379.827 124.316C380.242 124.709 380.718 124.906 381.257 124.906C381.851 124.906 382.361 124.737 382.787 124.4C382.955 124.254 383.089 124.085 383.19 123.894H385.712C385.522 124.467 385.242 124.973 384.872 125.412C383.975 126.424 382.77 126.93 381.257 126.93C379.956 126.93 378.858 126.492 377.961 125.614ZM379.155 121.448H383.274C383.185 120.998 382.955 120.621 382.585 120.318C382.226 120.003 381.783 119.846 381.257 119.846C380.73 119.846 380.281 119.997 379.911 120.301C379.541 120.605 379.289 120.987 379.155 121.448Z" fill="white"/>
<path d="M386.631 123.894H389.069C389.147 124.096 389.271 124.282 389.439 124.45C389.797 124.81 390.291 124.99 390.918 124.99C391.871 124.99 392.348 124.709 392.348 124.147C392.348 124.057 392.325 123.978 392.28 123.911C392.236 123.832 392.157 123.765 392.045 123.708C391.933 123.641 391.826 123.585 391.726 123.54C391.625 123.495 391.473 123.45 391.272 123.405C391.081 123.348 390.924 123.309 390.801 123.287C390.689 123.264 390.504 123.225 390.246 123.169C389.999 123.112 389.82 123.073 389.708 123.05C387.937 122.668 387.051 121.797 387.051 120.436C387.051 119.716 387.371 119.103 388.009 118.597C388.66 118.08 389.545 117.821 390.666 117.821C392.168 117.821 393.295 118.288 394.046 119.221C394.371 119.626 394.59 120.087 394.702 120.605H392.348C392.269 120.436 392.168 120.295 392.045 120.183C391.698 119.902 391.238 119.761 390.666 119.761C390.263 119.761 389.966 119.829 389.775 119.964C389.584 120.087 389.489 120.245 389.489 120.436C389.489 120.503 389.5 120.571 389.523 120.638C389.556 120.695 389.607 120.751 389.674 120.807C389.741 120.852 389.809 120.897 389.876 120.942C389.943 120.976 390.038 121.015 390.162 121.06C390.285 121.094 390.392 121.127 390.481 121.161C390.582 121.195 390.711 121.229 390.868 121.262C391.025 121.296 391.159 121.324 391.272 121.347C391.384 121.369 391.529 121.403 391.709 121.448C391.888 121.482 392.034 121.51 392.146 121.532C393.906 121.926 394.786 122.797 394.786 124.147C394.786 124.9 394.438 125.553 393.743 126.104C393.048 126.655 392.107 126.93 390.918 126.93C389.327 126.93 388.15 126.424 387.387 125.412C387.04 124.951 386.788 124.445 386.631 123.894Z" fill="white"/>
<path d="M395.547 123.894H397.985C398.064 124.096 398.187 124.282 398.355 124.45C398.714 124.81 399.207 124.99 399.835 124.99C400.788 124.99 401.264 124.709 401.264 124.147C401.264 124.057 401.242 123.978 401.197 123.911C401.152 123.832 401.074 123.765 400.962 123.708C400.849 123.641 400.743 123.585 400.642 123.54C400.541 123.495 400.39 123.45 400.188 123.405C399.997 123.348 399.84 123.309 399.717 123.287C399.605 123.264 399.42 123.225 399.162 123.169C398.916 123.112 398.736 123.073 398.624 123.05C396.853 122.668 395.968 121.797 395.968 120.436C395.968 119.716 396.287 119.103 396.926 118.597C397.576 118.08 398.462 117.821 399.583 117.821C401.085 117.821 402.211 118.288 402.962 119.221C403.288 119.626 403.506 120.087 403.618 120.605H401.264C401.186 120.436 401.085 120.295 400.962 120.183C400.614 119.902 400.154 119.761 399.583 119.761C399.179 119.761 398.882 119.829 398.692 119.964C398.501 120.087 398.406 120.245 398.406 120.436C398.406 120.503 398.417 120.571 398.439 120.638C398.473 120.695 398.523 120.751 398.591 120.807C398.658 120.852 398.725 120.897 398.792 120.942C398.86 120.976 398.955 121.015 399.078 121.06C399.202 121.094 399.308 121.127 399.398 121.161C399.499 121.195 399.628 121.229 399.784 121.262C399.941 121.296 400.076 121.324 400.188 121.347C400.3 121.369 400.446 121.403 400.625 121.448C400.805 121.482 400.95 121.51 401.062 121.532C402.822 121.926 403.702 122.797 403.702 124.147C403.702 124.9 403.355 125.553 402.66 126.104C401.965 126.655 401.023 126.93 399.835 126.93C398.243 126.93 397.066 126.424 396.304 125.412C395.956 124.951 395.704 124.445 395.547 123.894Z" fill="white"/>
<path d="M405.271 116.607C405.013 116.348 404.884 116.05 404.884 115.713C404.884 115.376 405.013 115.083 405.271 114.836C405.54 114.577 405.859 114.448 406.229 114.448C406.599 114.448 406.913 114.577 407.171 114.836C407.44 115.083 407.574 115.376 407.574 115.713C407.574 116.05 407.44 116.348 407.171 116.607C406.913 116.854 406.599 116.978 406.229 116.978C405.859 116.978 405.54 116.854 405.271 116.607ZM405.052 126.677V118.074H407.406V126.677H405.052Z" fill="white"/>
<path d="M410.097 125.614C409.2 124.726 408.751 123.646 408.751 122.376C408.751 121.105 409.2 120.031 410.097 119.154C410.993 118.266 412.114 117.821 413.459 117.821C414.793 117.821 415.909 118.266 416.806 119.154C417.714 120.031 418.168 121.105 418.168 122.376C418.168 123.646 417.714 124.726 416.806 125.614C415.909 126.492 414.793 126.93 413.459 126.93C412.114 126.93 410.993 126.492 410.097 125.614ZM411.845 120.554C411.408 121.026 411.19 121.634 411.19 122.376C411.19 123.118 411.408 123.725 411.845 124.197C412.282 124.67 412.821 124.906 413.459 124.906C414.098 124.906 414.637 124.67 415.074 124.197C415.511 123.725 415.73 123.118 415.73 122.376C415.73 121.634 415.511 121.026 415.074 120.554C414.637 120.082 414.098 119.846 413.459 119.846C412.821 119.846 412.282 120.082 411.845 120.554Z" fill="white"/>
<path d="M419.519 126.677V118.074H421.873V119.255H421.957C422.103 118.996 422.31 118.76 422.579 118.547C423.196 118.063 423.885 117.821 424.647 117.821C425.712 117.821 426.536 118.131 427.119 118.749C427.713 119.368 428.01 120.267 428.01 121.448V126.677H425.656V121.785C425.656 121.156 425.499 120.678 425.185 120.352C424.883 120.014 424.451 119.846 423.891 119.846C423.33 119.846 422.854 120.059 422.461 120.487C422.069 120.914 421.873 121.459 421.873 122.123V126.677H419.519Z" fill="white"/>
<path d="M50.009 290.297V288.273L54.885 286.029V285.877L50.009 283.634V281.61L56.987 284.815V287.092L50.009 290.297Z" fill="white"/>
<path d="M51.404 52.7111C50.194 51.5191 49.588 50.0291 49.588 48.2411C49.588 46.4531 50.194 44.9687 51.404 43.788C52.626 42.596 54.179 42 56.062 42C58.181 42 59.806 42.7478 60.938 44.2434C61.454 44.9069 61.818 45.6491 62.031 46.47H59.425C59.279 46.0876 59.055 45.739 58.752 45.4242C58.046 44.7157 57.149 44.3615 56.062 44.3615C54.963 44.3615 54.055 44.727 53.338 45.4579C52.632 46.1776 52.279 47.1053 52.279 48.2411C52.279 49.4219 52.62 50.3665 53.304 51.0749C53.999 51.7722 54.919 52.1208 56.062 52.1208C57.205 52.1208 58.125 51.7272 58.82 50.94C59.133 50.5689 59.363 50.1753 59.509 49.7592H62.115C61.857 50.6476 61.471 51.4348 60.955 52.1208C59.744 53.6951 58.113 54.4823 56.062 54.4823C54.179 54.4823 52.626 53.8919 51.404 52.7111Z" fill="white"/>
<path d="M63.537 54.1448V45.5421H65.891V46.8072H65.975C66.076 46.5374 66.228 46.3012 66.429 46.0988C66.889 45.6152 67.466 45.3735 68.161 45.3735H69.17V47.6506H67.909C67.27 47.6506 66.771 47.8249 66.413 48.1736C66.065 48.5109 65.891 48.9832 65.891 49.5905V54.1448H63.537Z" fill="white"/>
<path d="M71.1761 53.0823C70.2901 52.194 69.847 51.1144 69.847 49.8437C69.847 48.573 70.2901 47.499 71.1761 46.6219C72.0731 45.7335 73.171 45.2893 74.472 45.2893C75.794 45.2893 76.8821 45.7279 77.7341 46.605C78.5861 47.4822 79.0121 48.5617 79.0121 49.8437V50.3497H72.2861C72.3751 50.912 72.6271 51.3899 73.0421 51.7835C73.4571 52.1771 73.933 52.3739 74.472 52.3739C75.066 52.3739 75.576 52.2052 76.002 51.8678C76.17 51.7217 76.304 51.553 76.405 51.3618H78.927C78.737 51.9353 78.4571 52.4414 78.0871 52.8799C77.1901 53.892 75.985 54.398 74.472 54.398C73.171 54.398 72.0731 53.9595 71.1761 53.0823ZM72.3701 48.9159H76.489C76.4 48.4661 76.17 48.0894 75.8 47.7858C75.441 47.4709 74.998 47.3135 74.472 47.3135C73.945 47.3135 73.4961 47.4653 73.1261 47.7689C72.7561 48.0725 72.5041 48.4549 72.3701 48.9159Z" fill="white"/>
<path d="M81.14 53.1498C80.389 52.3064 80.014 51.2044 80.014 49.8437C80.014 48.483 80.389 47.3866 81.14 46.5544C81.903 45.711 82.844 45.2893 83.965 45.2893C84.716 45.2893 85.395 45.5142 86 45.964C86.258 46.1777 86.476 46.4026 86.656 46.6388H86.74V45.5423H89.094V54.145H86.74V53.0486H86.656C86.476 53.2848 86.258 53.5097 86 53.7233C85.395 54.1731 84.716 54.398 83.965 54.398C82.844 54.398 81.903 53.982 81.14 53.1498ZM83.041 47.9882C82.648 48.438 82.452 49.0565 82.452 49.8437C82.452 50.6309 82.648 51.2494 83.041 51.6992C83.433 52.149 83.937 52.3739 84.554 52.3739C85.204 52.3739 85.731 52.1546 86.134 51.716C86.538 51.2662 86.74 50.6421 86.74 49.8437C86.74 49.0453 86.538 48.4268 86.134 47.9882C85.731 47.5384 85.204 47.3135 84.554 47.3135C83.937 47.3135 83.433 47.5384 83.041 47.9882Z" fill="white"/>
<path d="M90.271 47.5666V45.5424H91.364V43.687H93.718V45.5424H96.139V47.5666H93.718V52.121H96.24V54.1451H91.364V47.5666H90.271Z" fill="white"/>
<path d="M98.401 53.0823C97.516 52.194 97.073 51.1144 97.073 49.8437C97.073 48.573 97.516 47.499 98.401 46.6219C99.298 45.7335 100.397 45.2893 101.697 45.2893C103.02 45.2893 104.107 45.7279 104.959 46.605C105.811 47.4822 106.237 48.5617 106.237 49.8437V50.3497H99.511C99.601 50.912 99.853 51.3899 100.268 51.7835C100.683 52.1771 101.159 52.3739 101.697 52.3739C102.291 52.3739 102.801 52.2052 103.227 51.8678C103.395 51.7217 103.53 51.553 103.631 51.3618H106.153C105.962 51.9353 105.682 52.4414 105.312 52.8799C104.415 53.892 103.21 54.398 101.697 54.398C100.397 54.398 99.298 53.9595 98.401 53.0823ZM99.595 48.9159H103.715C103.625 48.4661 103.395 48.0894 103.025 47.7858C102.667 47.4709 102.224 47.3135 101.697 47.3135C101.17 47.3135 100.722 47.4653 100.352 47.7689C99.982 48.0725 99.73 48.4549 99.595 48.9159Z" fill="white"/>
<path d="M111.784 51.3618H114.222C114.301 51.5642 114.424 51.7498 114.592 51.9184C114.951 52.2783 115.444 52.4582 116.072 52.4582C117.025 52.4582 117.501 52.1771 117.501 51.6148C117.501 51.5249 117.479 51.4461 117.434 51.3787C117.389 51.3 117.31 51.2325 117.198 51.1763C117.086 51.1088 116.98 51.0526 116.879 51.0076C116.778 50.9626 116.627 50.9176 116.425 50.8726C116.234 50.8164 116.077 50.777 115.954 50.7546C115.842 50.7321 115.657 50.6927 115.399 50.6365C115.153 50.5803 114.973 50.5409 114.861 50.5184C113.09 50.1361 112.204 49.2645 112.204 47.9039C112.204 47.1842 112.524 46.5713 113.163 46.0653C113.813 45.548 114.699 45.2893 115.82 45.2893C117.322 45.2893 118.448 45.756 119.199 46.6894C119.524 47.0942 119.743 47.5553 119.855 48.0725H117.501C117.423 47.9039 117.322 47.7633 117.198 47.6508C116.851 47.3697 116.391 47.2291 115.82 47.2291C115.416 47.2291 115.119 47.2966 114.928 47.4316C114.738 47.5553 114.643 47.7127 114.643 47.9039C114.643 47.9713 114.654 48.0388 114.676 48.1063C114.71 48.1625 114.76 48.2187 114.827 48.275C114.895 48.3199 114.962 48.3649 115.029 48.4099C115.097 48.4436 115.192 48.483 115.315 48.528C115.438 48.5617 115.545 48.5955 115.635 48.6292C115.735 48.6629 115.864 48.6967 116.021 48.7304C116.178 48.7641 116.313 48.7922 116.425 48.8147C116.537 48.8372 116.683 48.871 116.862 48.9159C117.041 48.9497 117.187 48.9778 117.299 49.0003C119.059 49.3939 119.939 50.2654 119.939 51.6148C119.939 52.3683 119.592 53.0205 118.897 53.5715C118.202 54.1225 117.26 54.398 116.072 54.398C114.48 54.398 113.303 53.892 112.541 52.8799C112.193 52.4189 111.941 51.9128 111.784 51.3618Z" fill="white"/>
<path d="M122.113 53.0823C121.227 52.194 120.785 51.1144 120.785 49.8437C120.785 48.573 121.227 47.499 122.113 46.6219C123.01 45.7335 124.108 45.2893 125.409 45.2893C126.731 45.2893 127.819 45.7279 128.671 46.605C129.523 47.4822 129.949 48.5617 129.949 49.8437V50.3497H123.223C123.312 50.912 123.565 51.3899 123.979 51.7835C124.394 52.1771 124.871 52.3739 125.409 52.3739C126.003 52.3739 126.513 52.2052 126.939 51.8678C127.107 51.7217 127.241 51.553 127.342 51.3618H129.865C129.674 51.9353 129.394 52.4414 129.024 52.8799C128.127 53.892 126.922 54.398 125.409 54.398C124.108 54.398 123.01 53.9595 122.113 53.0823ZM123.307 48.9159H127.426C127.337 48.4661 127.107 48.0894 126.737 47.7858C126.378 47.4709 125.935 47.3135 125.409 47.3135C124.882 47.3135 124.433 47.4653 124.063 47.7689C123.693 48.0725 123.441 48.4549 123.307 48.9159Z" fill="white"/>
<path d="M132.094 52.9811C131.332 52.149 130.951 51.0751 130.951 49.7593C130.951 48.4436 131.332 47.3697 132.094 46.5376C132.857 45.7054 133.793 45.2893 134.902 45.2893C135.642 45.2893 136.32 45.5199 136.937 45.9809C137.195 46.1946 137.413 46.4195 137.593 46.6556H137.677V45.5423H140.031V57.35H132.212V55.3258H137.677V52.8631H137.593C137.402 53.1329 137.184 53.3635 136.937 53.5546C136.332 54.0045 135.653 54.2294 134.902 54.2294C133.793 54.2294 132.857 53.8133 132.094 52.9811ZM133.994 47.9713C133.591 48.4099 133.389 49.0059 133.389 49.7593C133.389 50.5128 133.591 51.1088 133.994 51.5474C134.398 51.9859 134.925 52.2052 135.575 52.2052C136.192 52.2052 136.696 51.9859 137.088 51.5474C137.481 51.1088 137.677 50.5128 137.677 49.7593C137.677 49.0059 137.481 48.4099 137.088 47.9713C136.696 47.5328 136.192 47.3135 135.575 47.3135C134.925 47.3135 134.398 47.5328 133.994 47.9713Z" fill="white"/>
<path d="M141.881 54.145V45.5423H144.235V46.7231H144.319C144.476 46.442 144.666 46.2058 144.89 46.0146C145.44 45.5311 146.09 45.2893 146.841 45.2893C147.738 45.2893 148.489 45.5592 149.094 46.099C149.341 46.3351 149.542 46.5994 149.699 46.8918H149.784C149.94 46.5994 150.142 46.3351 150.389 46.099C150.994 45.5592 151.717 45.2893 152.558 45.2893C153.589 45.2893 154.391 45.6042 154.962 46.2339C155.545 46.8524 155.837 47.7464 155.837 48.9159V54.145H153.483V49.169C153.483 47.932 152.95 47.3135 151.885 47.3135C151.37 47.3135 150.933 47.5159 150.574 47.9207C150.215 48.3256 150.036 48.8541 150.036 49.5063V54.145H147.682V49.169C147.682 47.932 147.149 47.3135 146.084 47.3135C145.569 47.3135 145.131 47.5159 144.773 47.9207C144.414 48.3256 144.235 48.8541 144.235 49.5063V54.145H141.881Z" fill="white"/>
<path d="M158.419 53.0823C157.533 52.194 157.091 51.1144 157.091 49.8437C157.091 48.573 157.533 47.499 158.419 46.6219C159.316 45.7335 160.414 45.2893 161.715 45.2893C163.038 45.2893 164.125 45.7279 164.977 46.605C165.829 47.4822 166.255 48.5617 166.255 49.8437V50.3497H159.529C159.619 50.912 159.871 51.3899 160.286 51.7835C160.7 52.1771 161.177 52.3739 161.715 52.3739C162.309 52.3739 162.819 52.2052 163.245 51.8678C163.413 51.7217 163.548 51.553 163.648 51.3618H166.171C165.98 51.9353 165.7 52.4414 165.33 52.8799C164.433 53.892 163.228 54.398 161.715 54.398C160.414 54.398 159.316 53.9595 158.419 53.0823ZM159.613 48.9159H163.733C163.643 48.4661 163.413 48.0894 163.043 47.7858C162.684 47.4709 162.242 47.3135 161.715 47.3135C161.188 47.3135 160.74 47.4653 160.37 47.7689C160 48.0725 159.747 48.4549 159.613 48.9159Z" fill="white"/>
<path d="M167.677 54.145V45.5423H170.032V46.7231H170.116C170.261 46.4645 170.469 46.2283 170.738 46.0146C171.354 45.5311 172.044 45.2893 172.806 45.2893C173.871 45.2893 174.695 45.5986 175.278 46.2171C175.872 46.8356 176.169 47.7352 176.169 48.9159V54.145H173.815V49.2533C173.815 48.6236 173.658 48.1456 173.344 47.8195C173.041 47.4822 172.61 47.3135 172.049 47.3135C171.489 47.3135 171.012 47.5271 170.62 47.9545C170.228 48.3818 170.032 48.9272 170.032 49.5907V54.145H167.677Z" fill="white"/>
<path d="M177.268 47.5666V45.5424H178.361V43.687H180.715V45.5424H183.136V47.5666H180.715V52.121H183.237V54.1451H178.361V47.5666H177.268Z" fill="white"/>
<path d="M50.076 221.138V211.692H56.6671V212.839H51.287V215.808H55.6581V216.955H51.287V219.991H56.6671V221.138H50.076Z" fill="white"/>
<path d="M57.479 214.392H58.622L60.169 220.127H61.313L62.86 214.392H64.003L62.12 221.139H59.362L57.479 214.392Z" fill="white"/>
<path d="M65.798 220.274C65.143 219.609 64.816 218.772 64.816 217.764C64.816 216.757 65.143 215.92 65.798 215.254C66.452 214.589 67.268 214.256 68.246 214.256C69.223 214.256 70.039 214.584 70.694 215.241C71.349 215.898 71.676 216.716 71.676 217.697V218.102H65.892C65.964 218.731 66.219 219.249 66.659 219.654C67.098 220.058 67.627 220.261 68.246 220.261C68.909 220.261 69.479 220.058 69.954 219.654C70.169 219.474 70.34 219.271 70.465 219.046H71.542C71.38 219.469 71.151 219.842 70.855 220.166C70.156 220.904 69.286 221.273 68.246 221.273C67.268 221.273 66.452 220.94 65.798 220.274ZM65.919 217.157H70.533C70.452 216.626 70.205 216.181 69.793 215.821C69.38 215.452 68.865 215.268 68.246 215.268C67.627 215.268 67.107 215.452 66.685 215.821C66.264 216.181 66.008 216.626 65.919 217.157Z" fill="white"/>
<path d="M73.1541 221.138V214.391H74.2301V215.403H74.2431C74.3781 215.187 74.5531 214.998 74.7681 214.836C75.2611 214.449 75.844 214.256 76.517 214.256C77.333 214.256 77.9831 214.517 78.4671 215.038C78.9601 215.551 79.207 216.257 79.207 217.157V221.138H78.1311V217.225C78.1311 216.577 77.969 216.091 77.647 215.767C77.324 215.434 76.88 215.268 76.315 215.268C75.696 215.268 75.194 215.475 74.808 215.889C74.423 216.293 74.2301 216.829 74.2301 217.494V221.138H73.1541Z" fill="white"/>
<path d="M80.417 215.403V214.391H81.292V212.906H82.368V214.391H84.52V215.403H82.368V220.126H84.587V221.138H81.292V215.403H80.417Z" fill="white"/>
<path d="M89.7061 223.702V214.391H90.782V215.47H90.795L90.9301 215.268C91.0821 215.034 91.356 214.809 91.75 214.593C92.145 214.368 92.629 214.256 93.203 214.256C94.1 214.256 94.8621 214.593 95.4901 215.268C96.1181 215.934 96.4321 216.766 96.4321 217.764C96.4321 218.763 96.1181 219.6 95.4901 220.274C94.8621 220.94 94.1 221.273 93.203 221.273C92.629 221.273 92.141 221.165 91.737 220.949C91.342 220.724 91.0731 220.49 90.9301 220.247L90.795 220.058H90.782V223.702H89.7061ZM91.4281 215.97C90.9971 216.437 90.782 217.036 90.782 217.764C90.782 218.493 90.9971 219.091 91.4281 219.559C91.8671 220.027 92.414 220.261 93.069 220.261C93.723 220.261 94.266 220.027 94.696 219.559C95.136 219.091 95.356 218.493 95.356 217.764C95.356 217.036 95.136 216.437 94.696 215.97C94.266 215.502 93.723 215.268 93.069 215.268C92.414 215.268 91.8671 215.502 91.4281 215.97Z" fill="white"/>
<path d="M97.916 221.138V214.391H98.992V215.47H99.006C99.131 215.245 99.284 215.056 99.463 214.903C99.902 214.517 100.441 214.323 101.077 214.323H101.884V215.403H101.077C100.467 215.403 99.965 215.601 99.571 215.997C99.185 216.383 98.992 216.883 98.992 217.494V221.138H97.916Z" fill="white"/>
<path d="M103.618 220.274C102.954 219.609 102.623 218.772 102.623 217.764C102.623 216.757 102.954 215.92 103.618 215.254C104.282 214.589 105.116 214.256 106.12 214.256C107.125 214.256 107.959 214.589 108.622 215.254C109.286 215.92 109.618 216.757 109.618 217.764C109.618 218.772 109.286 219.609 108.622 220.274C107.959 220.94 107.125 221.273 106.12 221.273C105.116 221.273 104.282 220.94 103.618 220.274ZM104.385 215.97C103.928 216.437 103.699 217.036 103.699 217.764C103.699 218.493 103.928 219.091 104.385 219.559C104.842 220.027 105.421 220.261 106.12 220.261C106.82 220.261 107.398 220.027 107.855 219.559C108.313 219.091 108.541 218.493 108.541 217.764C108.541 217.036 108.313 216.437 107.855 215.97C107.398 215.502 106.82 215.268 106.12 215.268C105.421 215.268 104.842 215.502 104.385 215.97Z" fill="white"/>
<path d="M111.092 223.702V214.391H112.168V215.47H112.182L112.316 215.268C112.469 215.034 112.742 214.809 113.137 214.593C113.531 214.368 114.016 214.256 114.59 214.256C115.486 214.256 116.249 214.593 116.876 215.268C117.504 215.934 117.818 216.766 117.818 217.764C117.818 218.763 117.504 219.6 116.876 220.274C116.249 220.94 115.486 221.273 114.59 221.273C114.016 221.273 113.527 221.165 113.123 220.949C112.729 220.724 112.46 220.49 112.316 220.247L112.182 220.058H112.168V223.702H111.092ZM112.814 215.97C112.383 216.437 112.168 217.036 112.168 217.764C112.168 218.493 112.383 219.091 112.814 219.559C113.253 220.027 113.8 220.261 114.455 220.261C115.11 220.261 115.652 220.027 116.083 219.559C116.522 219.091 116.742 218.493 116.742 217.764C116.742 217.036 116.522 216.437 116.083 215.97C115.652 215.502 115.11 215.268 114.455 215.268C113.8 215.268 113.253 215.502 112.814 215.97Z" fill="white"/>
<path d="M119.881 220.274C119.226 219.609 118.899 218.772 118.899 217.764C118.899 216.757 119.226 215.92 119.881 215.254C120.536 214.589 121.352 214.256 122.329 214.256C123.307 214.256 124.123 214.584 124.777 215.241C125.432 215.898 125.759 216.716 125.759 217.697V218.102H119.975C120.047 218.731 120.302 219.249 120.742 219.654C121.181 220.058 121.71 220.261 122.329 220.261C122.993 220.261 123.562 220.058 124.038 219.654C124.253 219.474 124.423 219.271 124.549 219.046H125.625C125.463 219.469 125.235 219.842 124.939 220.166C124.239 220.904 123.369 221.273 122.329 221.273C121.352 221.273 120.536 220.94 119.881 220.274ZM120.002 217.157H124.616C124.535 216.626 124.289 216.181 123.876 215.821C123.464 215.452 122.948 215.268 122.329 215.268C121.71 215.268 121.19 215.452 120.769 215.821C120.347 216.181 120.092 216.626 120.002 217.157Z" fill="white"/>
<path d="M127.237 221.138V214.391H128.313V215.47H128.327C128.452 215.245 128.605 215.056 128.784 214.903C129.223 214.517 129.761 214.323 130.398 214.323H131.205V215.403H130.398C129.788 215.403 129.286 215.601 128.892 215.997C128.506 216.383 128.313 216.883 128.313 217.494V221.138H127.237Z" fill="white"/>
<path d="M131.742 215.403V214.391H132.616V212.906H133.692V214.391H135.845V215.403H133.692V220.126H135.912V221.138H132.616V215.403H131.742Z" fill="white"/>
<path d="M136.588 214.392H137.731L139.211 220.127H140.22L141.968 214.392H143.112L140.287 223.703H139.143L139.951 221.139H138.404L136.588 214.392Z" fill="white"/>
<path d="M165.947 224.343V212.535H168.301V213.632H168.385C168.564 213.395 168.783 213.171 169.041 212.957C169.646 212.507 170.324 212.282 171.075 212.282C172.196 212.282 173.132 212.704 173.883 213.547C174.646 214.379 175.027 215.476 175.027 216.837C175.027 218.197 174.646 219.299 173.883 220.143C173.132 220.975 172.196 221.391 171.075 221.391C170.324 221.391 169.646 221.166 169.041 220.716C168.783 220.503 168.564 220.278 168.385 220.041H168.301V224.343H165.947ZM168.906 214.981C168.503 215.42 168.301 216.038 168.301 216.837C168.301 217.635 168.503 218.259 168.906 218.709C169.31 219.147 169.837 219.367 170.487 219.367C171.103 219.367 171.608 219.142 172 218.692C172.392 218.242 172.589 217.624 172.589 216.837C172.589 216.049 172.392 215.431 172 214.981C171.608 214.531 171.103 214.306 170.487 214.306C169.837 214.306 169.31 214.531 168.906 214.981Z" fill="white"/>
<path d="M176.456 217.764V212.535H178.81V217.427C178.81 218.057 178.961 218.54 179.264 218.878C179.578 219.204 180.015 219.367 180.576 219.367C181.136 219.367 181.613 219.153 182.005 218.726C182.397 218.298 182.593 217.753 182.593 217.09V212.535H184.947V221.138H182.593V219.957H182.509C182.375 220.216 182.167 220.458 181.887 220.682C181.282 221.155 180.592 221.391 179.819 221.391C178.754 221.391 177.925 221.082 177.33 220.463C176.747 219.845 176.456 218.945 176.456 217.764Z" fill="white"/>
<path d="M186.801 221.138V212.535H189.155V213.8H189.239C189.34 213.53 189.491 213.294 189.693 213.092C190.153 212.608 190.73 212.367 191.425 212.367H192.434V214.644H191.173C190.534 214.644 190.035 214.818 189.676 215.167C189.329 215.504 189.155 215.976 189.155 216.584V221.138H186.801Z" fill="white"/>
<path d="M194.44 220.075C193.554 219.187 193.111 218.107 193.111 216.837C193.111 215.566 193.554 214.492 194.44 213.615C195.336 212.726 196.435 212.282 197.735 212.282C199.293 212.282 200.482 212.844 201.3 213.969C201.67 214.453 201.939 215.015 202.107 215.656H199.669C199.568 215.408 199.434 215.184 199.265 214.981C198.839 214.531 198.329 214.306 197.735 214.306C197.141 214.306 196.626 214.543 196.188 215.015C195.762 215.487 195.549 216.094 195.549 216.837C195.549 217.579 195.762 218.186 196.188 218.658C196.626 219.131 197.141 219.367 197.735 219.367C198.329 219.367 198.839 219.142 199.265 218.692C199.434 218.49 199.568 218.265 199.669 218.017H202.107C201.95 218.67 201.692 219.232 201.334 219.704C200.515 220.829 199.316 221.391 197.735 221.391C196.435 221.391 195.336 220.952 194.44 220.075Z" fill="white"/>
<path d="M203.452 221.139V209.331H205.806V213.717H205.89C206.036 213.458 206.243 213.222 206.512 213.009C207.128 212.525 207.818 212.283 208.58 212.283C209.645 212.283 210.469 212.592 211.052 213.211C211.646 213.829 211.943 214.729 211.943 215.91V221.139H209.589V216.247C209.589 215.617 209.432 215.14 209.118 214.813C208.816 214.476 208.384 214.307 207.823 214.307C207.263 214.307 206.787 214.521 206.394 214.948C206.002 215.376 205.806 215.921 205.806 216.585V221.139H203.452Z" fill="white"/>
<path d="M214.421 220.143C213.67 219.299 213.294 218.197 213.294 216.837C213.294 215.476 213.67 214.379 214.421 213.547C215.183 212.704 216.125 212.282 217.246 212.282C217.997 212.282 218.675 212.507 219.28 212.957C219.538 213.171 219.757 213.395 219.936 213.632H220.02V212.535H222.374V221.138H220.02V220.041H219.936C219.757 220.278 219.538 220.503 219.28 220.716C218.675 221.166 217.997 221.391 217.246 221.391C216.125 221.391 215.183 220.975 214.421 220.143ZM216.321 214.981C215.929 215.431 215.732 216.049 215.732 216.837C215.732 217.624 215.929 218.242 216.321 218.692C216.713 219.142 217.218 219.367 217.834 219.367C218.484 219.367 219.011 219.147 219.415 218.709C219.818 218.259 220.02 217.635 220.02 216.837C220.02 216.038 219.818 215.42 219.415 214.981C219.011 214.531 218.484 214.306 217.834 214.306C217.218 214.306 216.713 214.531 216.321 214.981Z" fill="white"/>
<path d="M223.635 218.355H226.073C226.152 218.557 226.275 218.743 226.443 218.911C226.802 219.271 227.295 219.451 227.923 219.451C228.876 219.451 229.352 219.17 229.352 218.608C229.352 218.518 229.33 218.439 229.285 218.372C229.24 218.293 229.162 218.225 229.05 218.169C228.938 218.102 228.831 218.045 228.73 218C228.629 217.955 228.478 217.91 228.276 217.866C228.086 217.809 227.929 217.77 227.805 217.747C227.693 217.725 227.508 217.686 227.251 217.629C227.004 217.573 226.825 217.534 226.712 217.511C224.941 217.129 224.056 216.257 224.056 214.897C224.056 214.177 224.375 213.564 225.014 213.058C225.664 212.541 226.55 212.282 227.671 212.282C229.173 212.282 230.3 212.749 231.051 213.682C231.376 214.087 231.594 214.548 231.706 215.065H229.352C229.274 214.897 229.173 214.756 229.05 214.644C228.702 214.363 228.243 214.222 227.671 214.222C227.267 214.222 226.97 214.289 226.78 214.424C226.589 214.548 226.494 214.706 226.494 214.897C226.494 214.964 226.505 215.032 226.528 215.099C226.561 215.155 226.612 215.212 226.679 215.268C226.746 215.313 226.813 215.358 226.881 215.403C226.948 215.437 227.043 215.476 227.166 215.521C227.29 215.555 227.396 215.588 227.486 215.622C227.587 215.656 227.716 215.69 227.873 215.723C228.03 215.757 228.164 215.785 228.276 215.808C228.388 215.83 228.534 215.864 228.713 215.909C228.893 215.943 229.039 215.971 229.151 215.993C230.911 216.387 231.791 217.258 231.791 218.608C231.791 219.361 231.443 220.013 230.748 220.564C230.053 221.115 229.111 221.391 227.923 221.391C226.331 221.391 225.154 220.885 224.392 219.873C224.045 219.412 223.792 218.906 223.635 218.355Z" fill="white"/>
<path d="M233.964 220.075C233.079 219.187 232.636 218.107 232.636 216.837C232.636 215.566 233.079 214.492 233.964 213.615C234.861 212.726 235.96 212.282 237.26 212.282C238.583 212.282 239.67 212.721 240.522 213.598C241.374 214.475 241.8 215.555 241.8 216.837V217.343H235.074C235.164 217.905 235.416 218.383 235.831 218.776C236.245 219.17 236.722 219.367 237.26 219.367C237.854 219.367 238.364 219.198 238.79 218.861C238.958 218.715 239.093 218.546 239.194 218.355H241.716C241.525 218.928 241.245 219.434 240.875 219.873C239.978 220.885 238.773 221.391 237.26 221.391C235.96 221.391 234.861 220.952 233.964 220.075ZM235.158 215.909H239.278C239.188 215.459 238.958 215.082 238.588 214.779C238.23 214.464 237.787 214.306 237.26 214.306C236.733 214.306 236.285 214.458 235.915 214.762C235.545 215.065 235.293 215.448 235.158 215.909Z" fill="white"/>
<path d="M242.634 218.355H245.072C245.151 218.557 245.274 218.743 245.442 218.911C245.801 219.271 246.294 219.451 246.922 219.451C247.875 219.451 248.351 219.17 248.351 218.608C248.351 218.518 248.329 218.439 248.284 218.372C248.239 218.293 248.161 218.225 248.048 218.169C247.936 218.102 247.83 218.045 247.729 218C247.628 217.955 247.477 217.91 247.275 217.866C247.084 217.809 246.927 217.77 246.804 217.747C246.692 217.725 246.507 217.686 246.249 217.629C246.003 217.573 245.823 217.534 245.711 217.511C243.94 217.129 243.054 216.257 243.054 214.897C243.054 214.177 243.374 213.564 244.013 213.058C244.663 212.541 245.549 212.282 246.67 212.282C248.172 212.282 249.298 212.749 250.049 213.682C250.375 214.087 250.593 214.548 250.705 215.065H248.351C248.273 214.897 248.172 214.756 248.048 214.644C247.701 214.363 247.241 214.222 246.67 214.222C246.266 214.222 245.969 214.289 245.779 214.424C245.588 214.548 245.493 214.706 245.493 214.897C245.493 214.964 245.504 215.032 245.526 215.099C245.56 215.155 245.61 215.212 245.678 215.268C245.745 215.313 245.812 215.358 245.879 215.403C245.947 215.437 246.042 215.476 246.165 215.521C246.289 215.555 246.395 215.588 246.485 215.622C246.586 215.656 246.715 215.69 246.871 215.723C247.028 215.757 247.163 215.785 247.275 215.808C247.387 215.83 247.533 215.864 247.712 215.909C247.892 215.943 248.037 215.971 248.149 215.993C249.909 216.387 250.789 217.258 250.789 218.608C250.789 219.361 250.442 220.013 249.747 220.564C249.052 221.115 248.11 221.391 246.922 221.391C245.33 221.391 244.153 220.885 243.391 219.873C243.043 219.412 242.791 218.906 242.634 218.355Z" fill="white"/>
<path d="M49.874 91.2546V81.8086H57.004V84.1026H52.363V85.9244H55.927V88.0835H52.363V91.2546H49.874Z" fill="white"/>
<path d="M57.947 82.3482C57.947 82.0244 58.068 81.7545 58.31 81.5386C58.552 81.3137 58.857 81.2012 59.225 81.2012C59.592 81.2012 59.897 81.3137 60.139 81.5386C60.382 81.7545 60.503 82.0244 60.503 82.3482C60.503 82.6631 60.382 82.933 60.139 83.1579C59.897 83.3828 59.592 83.4953 59.225 83.4953C58.857 83.4953 58.552 83.3828 58.31 83.1579C58.068 82.933 57.947 82.6631 57.947 82.3482ZM58.081 91.2545V84.2375H60.368V91.2545H58.081Z" fill="white"/>
<path d="M61.7841 91.2546V81.8086H64.071V89.4329H65.6181V91.2546H61.7841Z" fill="white"/>
<path d="M65.951 86.0593V84.2376H66.8251V82.7532H69.112V84.2376H70.9281V86.0593H69.112V89.4329H71.0621V91.2546H66.8251V86.0593H65.951Z" fill="white"/>
<path d="M72.85 90.3641C72.106 89.6354 71.734 88.7628 71.734 87.7462C71.734 86.7296 72.106 85.857 72.85 85.1283C73.595 84.3996 74.5 84.0352 75.568 84.0352C76.653 84.0352 77.563 84.3996 78.298 85.1283C79.034 85.857 79.401 86.7296 79.401 87.7462V88.151H74.088C74.16 88.6278 74.321 88.9967 74.572 89.2576C74.832 89.5095 75.164 89.6354 75.568 89.6354C76.043 89.6354 76.402 89.514 76.644 89.2711C76.751 89.1721 76.841 89.0462 76.913 88.8932H79.334C79.173 89.388 78.931 89.8153 78.608 90.1752C77.899 91.0298 76.886 91.4572 75.568 91.4572C74.5 91.4572 73.595 91.0928 72.85 90.3641ZM74.155 87.004H76.98C76.899 86.6801 76.733 86.4103 76.482 86.1943C76.231 85.9694 75.926 85.857 75.568 85.857C75.209 85.857 74.904 85.9694 74.653 86.1943C74.402 86.4103 74.236 86.6801 74.155 87.004Z" fill="white"/>
<path d="M80.478 91.2545V84.2375H82.697V85.2495H82.832C82.912 85.0336 83.033 84.8447 83.195 84.6828C83.563 84.2959 84.011 84.1025 84.54 84.1025H85.253V86.3291H84.11C83.706 86.3291 83.379 86.455 83.128 86.7069C82.885 86.9498 82.764 87.2737 82.764 87.6785V91.2545H80.478Z" fill="white"/>
<path d="M85.723 88.9607H88.01C88.045 89.0956 88.122 89.2216 88.238 89.3385C88.48 89.5814 88.83 89.7029 89.287 89.7029C89.915 89.7029 90.229 89.5454 90.229 89.2306C90.229 89.0866 90.139 88.9742 89.96 88.8932C89.781 88.8033 89.512 88.7133 89.153 88.6233C88.857 88.5514 88.664 88.5064 88.575 88.4884C88.485 88.4704 88.297 88.4209 88.01 88.34C87.723 88.25 87.516 88.1735 87.391 88.1106C87.274 88.0386 87.108 87.9396 86.893 87.8137C86.687 87.6787 86.534 87.5438 86.436 87.4088C86.346 87.2649 86.261 87.0895 86.18 86.8826C86.099 86.6666 86.059 86.4372 86.059 86.1943C86.059 85.6006 86.324 85.0923 86.853 84.6695C87.382 84.2467 88.126 84.0352 89.086 84.0352C90.287 84.0352 91.238 84.4311 91.937 85.2227C92.215 85.5646 92.408 85.9559 92.516 86.3968H90.296C90.243 86.2528 90.18 86.1404 90.108 86.0594C89.902 85.8345 89.606 85.722 89.22 85.722C88.682 85.722 88.413 85.8795 88.413 86.1943C88.413 86.3473 88.503 86.4642 88.682 86.5452C88.861 86.6262 89.135 86.7026 89.503 86.7746C90.426 86.9905 91.05 87.1794 91.373 87.3414C92.18 87.7372 92.583 88.3445 92.583 89.1631C92.583 89.8108 92.296 90.3551 91.722 90.7959C91.157 91.2368 90.346 91.4572 89.287 91.4572C87.987 91.4572 86.996 91.0433 86.315 90.2157C86.01 89.8468 85.812 89.4285 85.723 88.9607Z" fill="white"/>
<path d="M49 62.5791H494.592V63.4225H49V62.5791Z" fill="white"/>
<path d="M49 120.774C49 111.924 56.152 104.75 64.974 104.75H183.518C192.34 104.75 199.492 111.924 199.492 120.774C199.492 129.624 192.34 136.799 183.518 136.799H64.974C56.152 136.799 49 129.624 49 120.774Z" fill="white"/>
<path d="M170.066 136.377C170.066 136.144 170.255 135.955 170.487 135.955H494.172C494.404 135.955 494.592 136.144 494.592 136.377C494.592 136.61 494.404 136.799 494.172 136.799H170.487C170.255 136.799 170.066 136.61 170.066 136.377Z" fill="white"/>
<path d="M50.991 262.174C50.067 261.23 49.605 260.033 49.605 258.585C49.605 257.136 50.067 255.944 50.991 255.009C51.923 254.064 53.098 253.592 54.515 253.592C56.102 253.592 57.353 254.168 58.268 255.319C58.672 255.814 58.968 256.385 59.156 257.033H57.945C57.757 256.583 57.519 256.201 57.232 255.886C56.524 255.121 55.618 254.739 54.515 254.739C53.43 254.739 52.542 255.094 51.851 255.805C51.161 256.516 50.816 257.442 50.816 258.585C50.816 259.727 51.161 260.654 51.851 261.365C52.542 262.075 53.43 262.431 54.515 262.431C55.636 262.431 56.564 262.017 57.299 261.189C57.595 260.847 57.833 260.429 58.012 259.934H59.223C59.008 260.636 58.694 261.243 58.281 261.756C57.34 262.971 56.084 263.578 54.515 263.578C53.098 263.578 51.923 263.11 50.991 262.174Z" fill="white"/>
<path d="M61.292 262.444C60.628 261.779 60.297 260.942 60.297 259.934C60.297 258.927 60.628 258.09 61.292 257.424C61.956 256.759 62.79 256.426 63.794 256.426C64.799 256.426 65.633 256.759 66.296 257.424C66.96 258.09 67.292 258.927 67.292 259.934C67.292 260.942 66.96 261.779 66.296 262.444C65.633 263.11 64.799 263.443 63.794 263.443C62.79 263.443 61.956 263.11 61.292 262.444ZM62.059 258.14C61.601 258.607 61.373 259.206 61.373 259.934C61.373 260.663 61.601 261.261 62.059 261.729C62.516 262.197 63.095 262.431 63.794 262.431C64.494 262.431 65.072 262.197 65.529 261.729C65.987 261.261 66.215 260.663 66.215 259.934C66.215 259.206 65.987 258.607 65.529 258.14C65.072 257.672 64.494 257.438 63.794 257.438C63.095 257.438 62.516 257.672 62.059 258.14Z" fill="white"/>
<path d="M68.766 263.308V256.561H69.842V257.573H69.856C69.99 257.357 70.165 257.168 70.38 257.006C70.873 256.619 71.456 256.426 72.129 256.426C72.945 256.426 73.595 256.687 74.08 257.208C74.573 257.721 74.819 258.427 74.819 259.327V263.308H73.743V259.395C73.743 258.747 73.582 258.261 73.259 257.937C72.936 257.604 72.492 257.438 71.927 257.438C71.308 257.438 70.806 257.645 70.421 258.059C70.035 258.463 69.842 258.999 69.842 259.664V263.308H68.766Z" fill="white"/>
<path d="M77.173 262.444C76.545 261.77 76.231 260.933 76.231 259.934C76.231 258.936 76.545 258.104 77.173 257.438C77.801 256.763 78.563 256.426 79.46 256.426C80.025 256.426 80.505 256.534 80.899 256.75C81.294 256.966 81.576 257.195 81.747 257.438L81.868 257.64H81.881V253.862H82.957V263.308H81.881V262.228H81.868L81.747 262.417C81.585 262.66 81.307 262.894 80.913 263.119C80.518 263.335 80.034 263.443 79.46 263.443C78.563 263.443 77.801 263.11 77.173 262.444ZM77.953 258.14C77.523 258.607 77.307 259.206 77.307 259.934C77.307 260.663 77.523 261.261 77.953 261.729C78.393 262.197 78.94 262.431 79.594 262.431C80.249 262.431 80.791 262.197 81.222 261.729C81.661 261.261 81.881 260.663 81.881 259.934C81.881 259.206 81.661 258.607 81.222 258.14C80.791 257.672 80.249 257.438 79.594 257.438C78.94 257.438 78.393 257.672 77.953 258.14Z" fill="white"/>
<path d="M84.859 255.063C84.715 254.919 84.643 254.743 84.643 254.537C84.643 254.33 84.715 254.154 84.859 254.01C85.002 253.866 85.177 253.794 85.383 253.794C85.59 253.794 85.764 253.866 85.908 254.01C86.051 254.154 86.123 254.33 86.123 254.537C86.123 254.743 86.051 254.919 85.908 255.063C85.764 255.207 85.59 255.279 85.383 255.279C85.177 255.279 85.002 255.207 84.859 255.063ZM84.845 263.308V256.561H85.921V263.308H84.845Z" fill="white"/>
<path d="M87.196 257.573V256.561H88.0701V255.076H89.1461V256.561H91.298V257.573H89.1461V262.296H91.3661V263.308H88.0701V257.573H87.196Z" fill="white"/>
<path d="M92.727 255.063C92.584 254.919 92.512 254.743 92.512 254.537C92.512 254.33 92.584 254.154 92.727 254.01C92.871 253.866 93.046 253.794 93.252 253.794C93.458 253.794 93.633 253.866 93.777 254.01C93.92 254.154 93.992 254.33 93.992 254.537C93.992 254.743 93.92 254.919 93.777 255.063C93.633 255.207 93.458 255.279 93.252 255.279C93.046 255.279 92.871 255.207 92.727 255.063ZM92.714 263.308V256.561H93.79V263.308H92.714Z" fill="white"/>
<path d="M96.262 262.444C95.598 261.779 95.266 260.942 95.266 259.934C95.266 258.927 95.598 258.09 96.262 257.424C96.925 256.759 97.759 256.426 98.764 256.426C99.768 256.426 100.602 256.759 101.266 257.424C101.929 258.09 102.261 258.927 102.261 259.934C102.261 260.942 101.929 261.779 101.266 262.444C100.602 263.11 99.768 263.443 98.764 263.443C97.759 263.443 96.925 263.11 96.262 262.444ZM97.028 258.14C96.571 258.607 96.342 259.206 96.342 259.934C96.342 260.663 96.571 261.261 97.028 261.729C97.486 262.197 98.064 262.431 98.764 262.431C99.463 262.431 100.042 262.197 100.499 261.729C100.956 261.261 101.185 260.663 101.185 259.934C101.185 259.206 100.956 258.607 100.499 258.14C100.042 257.672 99.463 257.438 98.764 257.438C98.064 257.438 97.486 257.672 97.028 258.14Z" fill="white"/>
<path d="M103.736 263.308V256.561H104.812V257.573H104.825C104.96 257.357 105.135 257.168 105.35 257.006C105.843 256.619 106.426 256.426 107.099 256.426C107.915 256.426 108.565 256.687 109.049 257.208C109.542 257.721 109.789 258.427 109.789 259.327V263.308H108.713V259.395C108.713 258.747 108.551 258.261 108.229 257.937C107.906 257.604 107.462 257.438 106.897 257.438C106.278 257.438 105.776 257.645 105.39 258.059C105.005 258.463 104.812 258.999 104.812 259.664V263.308H103.736Z" fill="white"/>
<path d="M163.65 262.174C162.726 261.23 162.264 260.033 162.264 258.585C162.264 257.136 162.726 255.944 163.65 255.009C164.583 254.064 165.757 253.592 167.174 253.592C168.762 253.592 170.013 254.168 170.927 255.319C171.331 255.814 171.627 256.385 171.815 257.033H170.604C170.416 256.583 170.178 256.201 169.891 255.886C169.183 255.121 168.277 254.739 167.174 254.739C166.089 254.739 165.201 255.094 164.511 255.805C163.82 256.516 163.475 257.442 163.475 258.585C163.475 259.727 163.82 260.654 164.511 261.365C165.201 262.075 166.089 262.431 167.174 262.431C168.295 262.431 169.223 262.017 169.959 261.189C170.255 260.847 170.492 260.429 170.672 259.934H171.882C171.667 260.636 171.353 261.243 170.941 261.756C169.999 262.971 168.744 263.578 167.174 263.578C165.757 263.578 164.583 263.11 163.65 262.174Z" fill="white"/>
<path d="M173.951 262.444C173.288 261.779 172.956 260.942 172.956 259.934C172.956 258.927 173.288 258.09 173.951 257.424C174.615 256.759 175.449 256.426 176.453 256.426C177.458 256.426 178.292 256.759 178.955 257.424C179.619 258.09 179.951 258.927 179.951 259.934C179.951 260.942 179.619 261.779 178.955 262.444C178.292 263.11 177.458 263.443 176.453 263.443C175.449 263.443 174.615 263.11 173.951 262.444ZM174.718 258.14C174.261 258.607 174.032 259.206 174.032 259.934C174.032 260.663 174.261 261.261 174.718 261.729C175.175 262.197 175.754 262.431 176.453 262.431C177.153 262.431 177.731 262.197 178.189 261.729C178.646 261.261 178.875 260.663 178.875 259.934C178.875 259.206 178.646 258.607 178.189 258.14C177.731 257.672 177.153 257.438 176.453 257.438C175.754 257.438 175.175 257.672 174.718 258.14Z" fill="white"/>
<path d="M181.425 260.543V256.562H182.501V260.475C182.501 261.123 182.663 261.613 182.986 261.946C183.309 262.27 183.752 262.432 184.317 262.432C184.936 262.432 185.438 262.229 185.824 261.825C186.21 261.411 186.402 260.87 186.402 260.204V256.562H187.479V263.309H186.402V262.297H186.389C186.246 262.522 186.066 262.715 185.851 262.877C185.367 263.255 184.788 263.444 184.116 263.444C183.3 263.444 182.645 263.186 182.152 262.674C181.667 262.152 181.425 261.442 181.425 260.543Z" fill="white"/>
<path d="M189.36 263.308V256.561H190.436V257.573H190.449C190.584 257.357 190.759 257.168 190.974 257.006C191.467 256.619 192.05 256.426 192.723 256.426C193.539 256.426 194.189 256.687 194.673 257.208C195.167 257.721 195.413 258.427 195.413 259.327V263.308H194.337V259.395C194.337 258.747 194.176 258.261 193.853 257.937C193.53 257.604 193.086 257.438 192.521 257.438C191.902 257.438 191.4 257.645 191.014 258.059C190.629 258.463 190.436 258.999 190.436 259.664V263.308H189.36Z" fill="white"/>
<path d="M196.623 257.573V256.561H197.498V255.076H198.574V256.561H200.726V257.573H198.574V262.296H200.793V263.308H197.498V257.573H196.623Z" fill="white"/>
<path d="M161.995 280.007V277.646H170.571V280.007L165.947 289.453H163.172L167.712 280.176V280.007H161.995Z" fill="white"/>
<path d="M49 295.779C49 295.546 49.188 295.357 49.42 295.357H133.494C133.726 295.357 133.915 295.546 133.915 295.779C133.915 296.012 133.726 296.201 133.494 296.201H49.42C49.188 296.201 49 296.012 49 295.779Z" fill="white"/>
<path d="M161.659 295.779C161.659 295.546 161.847 295.357 162.079 295.357H494.172C494.404 295.357 494.592 295.546 494.592 295.779C494.592 296.012 494.404 296.201 494.172 296.201H162.079C161.847 296.201 161.659 296.012 161.659 295.779Z" fill="white"/>
<path d="M49 149.449C49 147.12 50.882 145.232 53.203 145.232H126.348C128.669 145.232 130.552 147.12 130.552 149.449V173.064C130.552 175.393 128.669 177.281 126.348 177.281H53.203C50.882 177.281 49 175.393 49 173.064V149.449Z" fill="#60D2C3"/>
<path d="M52.363 120.774C52.363 113.787 58.009 108.123 64.974 108.123H101.126C108.091 108.123 113.737 113.787 113.737 120.774C113.737 127.761 108.091 133.425 101.126 133.425H64.974C58.009 133.425 52.363 127.761 52.363 120.774Z" fill="#263837"/>
<path d="M110.374 120.774C110.374 126.83 105.48 131.738 99.444 131.738C93.408 131.738 88.515 126.83 88.515 120.774C88.515 114.719 93.408 109.81 99.444 109.81C105.48 109.81 110.374 114.719 110.374 120.774Z" fill="white"/>
<path d="M131.628 124.99V115.544H132.838V124.99H131.628Z" fill="#263837"/>
<path d="M134.856 124.99V118.243H135.932V119.255H135.946C136.08 119.039 136.255 118.85 136.47 118.688C136.964 118.302 137.547 118.108 138.219 118.108C139.035 118.108 139.685 118.369 140.17 118.891C140.663 119.404 140.909 120.11 140.909 121.009V124.99H139.833V121.077C139.833 120.429 139.672 119.943 139.349 119.619C139.026 119.287 138.582 119.12 138.017 119.12C137.399 119.12 136.896 119.327 136.511 119.741C136.125 120.146 135.932 120.681 135.932 121.347V124.99H134.856Z" fill="#263837"/>
<path d="M143.29 124.127C142.644 123.461 142.321 122.624 142.321 121.617C142.321 120.609 142.644 119.772 143.29 119.107C143.936 118.441 144.734 118.108 145.684 118.108C146.787 118.108 147.662 118.504 148.307 119.296C148.585 119.646 148.787 120.038 148.913 120.47H147.837C147.738 120.227 147.59 120.002 147.393 119.795C146.962 119.345 146.393 119.12 145.684 119.12C145.03 119.12 144.483 119.354 144.043 119.822C143.613 120.29 143.398 120.888 143.398 121.617C143.398 122.345 143.622 122.944 144.07 123.411C144.519 123.879 145.057 124.113 145.684 124.113C146.42 124.113 147.007 123.866 147.447 123.371C147.644 123.164 147.796 122.917 147.904 122.629H148.98C148.863 123.088 148.657 123.506 148.361 123.884C147.68 124.711 146.787 125.125 145.684 125.125C144.734 125.125 143.936 124.792 143.29 124.127Z" fill="#263837"/>
<path d="M150.331 124.99V115.544H151.407V123.978H152.954V124.99H150.331Z" fill="#263837"/>
<path d="M154.036 122.224V118.243H155.112V122.156C155.112 122.804 155.273 123.294 155.596 123.627C155.919 123.951 156.363 124.113 156.928 124.113C157.546 124.113 158.049 123.911 158.434 123.506C158.82 123.092 159.013 122.552 159.013 121.887V118.243H160.089V124.99H159.013V123.978H158.999C158.856 124.203 158.676 124.397 158.461 124.558C157.977 124.936 157.399 125.125 156.726 125.125C155.91 125.125 155.255 124.869 154.762 124.356C154.278 123.834 154.036 123.124 154.036 122.224Z" fill="#263837"/>
<path d="M162.508 124.127C161.88 123.452 161.566 122.615 161.566 121.617C161.566 120.618 161.88 119.786 162.508 119.12C163.136 118.445 163.898 118.108 164.795 118.108C165.36 118.108 165.84 118.216 166.234 118.432C166.629 118.648 166.911 118.877 167.082 119.12L167.203 119.323H167.216V115.544H168.292V124.99H167.216V123.911H167.203L167.082 124.1C166.92 124.343 166.642 124.576 166.248 124.801C165.853 125.017 165.369 125.125 164.795 125.125C163.898 125.125 163.136 124.792 162.508 124.127ZM163.288 119.822C162.858 120.29 162.643 120.888 162.643 121.617C162.643 122.345 162.858 122.944 163.288 123.411C163.728 123.879 164.275 124.113 164.929 124.113C165.584 124.113 166.127 123.879 166.557 123.411C166.997 122.944 167.216 122.345 167.216 121.617C167.216 120.888 166.997 120.29 166.557 119.822C166.127 119.354 165.584 119.12 164.929 119.12C164.275 119.12 163.728 119.354 163.288 119.822Z" fill="#263837"/>
<path d="M170.759 124.127C170.104 123.461 169.777 122.624 169.777 121.617C169.777 120.609 170.104 119.772 170.759 119.107C171.413 118.441 172.23 118.108 173.207 118.108C174.185 118.108 175.001 118.436 175.655 119.093C176.31 119.75 176.637 120.569 176.637 121.549V121.954H170.853C170.925 122.584 171.18 123.101 171.62 123.506C172.059 123.911 172.588 124.113 173.207 124.113C173.871 124.113 174.44 123.911 174.915 123.506C175.131 123.326 175.301 123.124 175.427 122.899H176.503C176.341 123.321 176.113 123.695 175.817 124.019C175.117 124.756 174.247 125.125 173.207 125.125C172.23 125.125 171.413 124.792 170.759 124.127ZM170.88 121.009H175.494C175.413 120.479 175.167 120.033 174.754 119.673C174.341 119.305 173.826 119.12 173.207 119.12C172.588 119.12 172.068 119.305 171.647 119.673C171.225 120.033 170.97 120.479 170.88 121.009Z" fill="#263837"/>
<path d="M67.395 161.695V160.953H69.615V158.591H70.422V160.953H72.641V161.695H70.422V164.057H69.615V161.695H67.395Z" fill="#263837"/>
<path d="M78.725 164.61C78.08 163.944 77.757 163.107 77.757 162.1C77.757 161.092 78.08 160.256 78.725 159.59C79.371 158.924 80.169 158.591 81.12 158.591C82.061 158.591 82.855 158.924 83.501 159.59C84.155 160.247 84.483 161.061 84.483 162.032V162.37H78.564C78.6 163.08 78.86 163.674 79.344 164.151C79.828 164.628 80.42 164.866 81.12 164.866C81.891 164.866 82.523 164.619 83.016 164.124C83.25 163.908 83.424 163.661 83.541 163.382H84.348C84.187 163.805 83.958 164.178 83.662 164.502C82.998 165.24 82.151 165.608 81.12 165.608C80.169 165.608 79.371 165.276 78.725 164.61ZM78.564 161.628H83.608C83.537 160.971 83.267 160.427 82.801 159.995C82.344 159.554 81.783 159.334 81.12 159.334C80.456 159.334 79.891 159.549 79.425 159.981C78.958 160.413 78.671 160.962 78.564 161.628Z" fill="#263837"/>
<path d="M85.422 158.727H86.297L87.911 164.732H89.323L90.937 158.727H91.812L89.929 165.474H87.305L85.422 158.727Z" fill="#263837"/>
<path d="M93.727 164.61C93.082 163.944 92.759 163.107 92.759 162.1C92.759 161.092 93.082 160.256 93.727 159.59C94.373 158.924 95.171 158.591 96.122 158.591C97.063 158.591 97.857 158.924 98.503 159.59C99.157 160.247 99.485 161.061 99.485 162.032V162.37H93.566C93.602 163.08 93.862 163.674 94.346 164.151C94.83 164.628 95.422 164.866 96.122 164.866C96.893 164.866 97.525 164.619 98.018 164.124C98.252 163.908 98.426 163.661 98.543 163.382H99.35C99.189 163.805 98.96 164.178 98.664 164.502C98 165.24 97.153 165.608 96.122 165.608C95.171 165.608 94.373 165.276 93.727 164.61ZM93.566 161.628H98.61C98.538 160.971 98.269 160.427 97.803 159.995C97.346 159.554 96.785 159.334 96.122 159.334C95.458 159.334 94.893 159.549 94.427 159.981C93.96 160.413 93.673 160.962 93.566 161.628Z" fill="#263837"/>
<path d="M101.164 165.473V158.726H101.971V159.873H101.985C102.146 159.54 102.428 159.244 102.832 158.983C103.245 158.722 103.765 158.591 104.392 158.591C105.146 158.591 105.76 158.852 106.235 159.374C106.711 159.896 106.948 160.602 106.948 161.493V165.473H106.141V161.493C106.141 160.8 105.971 160.269 105.63 159.9C105.298 159.522 104.841 159.334 104.258 159.334C103.612 159.334 103.07 159.563 102.63 160.022C102.191 160.481 101.971 161.061 101.971 161.763V165.473H101.164Z" fill="#263837"/>
<path d="M108.227 159.468V158.726H109.169V157.242H109.976V158.726H112.196V159.468H109.976V164.731H112.263V165.473H109.169V159.468H108.227Z" fill="#263837"/>
<defs>
<linearGradient id="paint0_linear_3108_1214" x1="272" y1="0" x2="272" y2="317" gradientUnits="userSpaceOnUse">
<stop stop-color="#8D8DFE"/>
<stop offset="1" stop-color="#191919" stop-opacity="0"/>
</linearGradient>
</defs>
</svg>
