<svg width="667" height="377" viewBox="0 0 667 377" fill="none" xmlns="http://www.w3.org/2000/svg">
<path opacity="0.2" fill-rule="evenodd" clip-rule="evenodd" d="M295.266 288.272V322.795H297.106V288.272H370.715V322.795H372.555V288.272H446.166V322.795H448.006V288.272H521.618V322.795H523.458V288.272H597.069V322.795H598.909V288.272H667V287.409H598.909V252.884H667V252.021H598.909V217.498H667V216.635H598.909V182.112H667V181.249H598.909V146.724H667V145.861H598.909V111.338H667V110.475H598.909V75.9521H667V75.089H598.909V40.5659H667V39.7028H598.909V0H597.069V39.7028H523.458V0H521.618V39.7028H448.006V0H446.166V39.7028H372.555V0H370.715V39.7028H297.106V0H295.266V39.7028H221.657V0.863098H219.816V39.7028H146.204V0.863098H144.364V39.7028H70.7549V0.863098H68.9147V39.7028H0.823486V40.5659H68.9147V75.089H0.823486V75.9521H68.9147V110.475H0.823486V111.338H68.9147V145.861H0.823486V146.724H68.9147V181.249H0.823486V182.112H68.9147V216.635H0.823486V217.498H68.9147V252.021H0.823486V252.884H68.9147V287.409H0.823486V288.272H68.9147V322.795H70.7549V288.272H144.364V322.795H146.204V288.272H219.816V322.795H221.657V288.272H295.266ZM597.069 40.5659H523.458V75.089H597.069V40.5659ZM597.069 75.9521H523.458V110.475H597.069V75.9521ZM597.069 111.338H523.458V145.861H597.069V111.338ZM597.069 146.724H523.458V181.249H597.069V146.724ZM597.069 182.112H523.458V216.635H597.069V182.112ZM597.069 217.498H523.458V252.021H597.069V217.498ZM597.069 252.884H523.458V287.409H597.069V252.884ZM521.618 252.884V287.409H448.006V252.884H521.618ZM521.618 217.498V252.021H448.006V217.498H521.618ZM521.618 182.112V216.635H448.006V182.112H521.618ZM521.618 146.724V181.249H448.006V146.724H521.618ZM521.618 111.338V145.861H448.006V111.338H521.618ZM521.618 75.9521V110.475H448.006V75.9521H521.618ZM521.618 40.5659V75.089H448.006V40.5659H521.618ZM446.166 40.5659H372.555V75.089H446.166V40.5659ZM446.166 75.9521H372.555V110.475H446.166V75.9521ZM446.166 111.338H372.555V145.861H446.166V111.338ZM446.166 146.724H372.555V181.249H446.166V146.724ZM446.166 182.112H372.555V216.635H446.166V182.112ZM446.166 217.498H372.555V252.021H446.166V217.498ZM446.166 252.884H372.555V287.409H446.166V252.884ZM370.715 252.884V287.409H297.106V252.884H370.715ZM370.715 217.498V252.021H297.106V217.498H370.715ZM370.715 182.112V216.635H297.106V182.112H370.715ZM370.715 146.724V181.249H297.106V146.724H370.715ZM370.715 111.338V145.861H297.106V111.338H370.715ZM370.715 75.9521V110.475H297.106V75.9521H370.715ZM370.715 40.5659V75.089H297.106V40.5659H370.715ZM295.266 287.409V252.884H221.657V287.409H295.266ZM295.266 252.021V217.498H221.657V252.021H295.266ZM295.266 216.635V182.112H221.657V216.635H295.266ZM295.266 181.249V146.724H221.657V181.249H295.266ZM295.266 145.861V111.338H221.657V145.861H295.266ZM295.266 110.475V75.9521H221.657V110.475H295.266ZM295.266 75.089V40.5659H221.657V75.089H295.266ZM146.204 40.5659H219.816V75.089H146.204V40.5659ZM146.204 75.9521H219.816V110.475H146.204V75.9521ZM146.204 111.338H219.816V145.861H146.204V111.338ZM146.204 146.724H219.816V181.249H146.204V146.724ZM146.204 182.112H219.816V216.635H146.204V182.112ZM146.204 217.498H219.816V252.021H146.204V217.498ZM146.204 252.884H219.816V287.409H146.204V252.884ZM144.364 287.409V252.884H70.7549V287.409H144.364ZM144.364 252.021V217.498H70.7549V252.021H144.364ZM144.364 216.635V182.112H70.7549V216.635H144.364ZM144.364 181.249V146.724H70.7549V181.249H144.364ZM144.364 145.861V111.338H70.7549V145.861H144.364ZM144.364 110.475V75.9521H70.7549V110.475H144.364ZM144.364 75.089V40.5659H70.7549V75.089H144.364Z" fill="url(#paint0_radial_1124_1545)"/>
<rect x="162.221" y="225.627" width="223.98" height="45.2901" rx="8.23457" fill="#383838" fill-opacity="0.6"/>
<path d="M124.442 31.5701V38.8316C124.442 40.3193 125.318 41.2923 126.878 41.2923C128.43 41.2923 129.307 40.3193 129.307 38.8316V31.5701H131.735V39.0729C131.735 41.6301 129.846 43.3751 126.878 43.3751C123.903 43.3751 122.013 41.6301 122.013 39.0729V31.5701H124.442ZM133.328 37.0866C133.328 35.4461 134.751 34.3686 136.962 34.3686C139.126 34.3686 140.533 35.4622 140.565 37.1349H138.402C138.354 36.4433 137.799 36.0171 136.93 36.0171C136.118 36.0171 135.587 36.387 135.587 36.9419C135.587 37.3681 135.957 37.6576 136.713 37.8345L138.362 38.1883C140.091 38.5743 140.79 39.2578 140.79 40.5445C140.79 42.2413 139.23 43.359 136.954 43.359C134.654 43.359 133.239 42.2493 133.11 40.5686H135.402C135.515 41.2923 136.086 41.7105 137.019 41.7105C137.911 41.7105 138.45 41.3567 138.45 40.7938C138.45 40.3595 138.161 40.1183 137.389 39.9333L135.796 39.5795C134.164 39.2096 133.328 38.3572 133.328 37.0866ZM145.832 36.1055C144.803 36.1055 144.063 36.8856 143.983 37.9631H147.642C147.593 36.8614 146.878 36.1055 145.832 36.1055ZM147.674 40.5364H149.829C149.572 42.2252 148.028 43.359 145.897 43.359C143.243 43.359 141.651 41.6623 141.651 38.904C141.651 36.1538 143.259 34.3686 145.808 34.3686C148.317 34.3686 149.901 36.0653 149.901 38.6869V39.4026H143.959V39.5473C143.959 40.7777 144.739 41.622 145.937 41.622C146.797 41.622 147.457 41.1958 147.674 40.5364ZM151.116 43.1741V34.5535H153.383V36.1055H153.432C153.737 35.0119 154.469 34.4168 155.482 34.4168C155.756 34.4168 155.989 34.457 156.15 34.5053V36.5719C155.957 36.4915 155.635 36.4352 155.297 36.4352C154.139 36.4352 153.464 37.1429 153.464 38.3572V43.1741H151.116ZM160.42 43.1741V34.5535H162.768V43.1741H160.42ZM161.594 33.6046C160.886 33.6046 160.339 33.0658 160.339 32.3903C160.339 31.7068 160.886 31.176 161.594 31.176C162.301 31.176 162.848 31.7068 162.848 32.3903C162.848 33.0658 162.301 33.6046 161.594 33.6046ZM164.336 43.1741V34.5535H166.604V36.0894H166.652C167.11 35.0199 168.019 34.3927 169.346 34.3927C171.26 34.3927 172.337 35.5989 172.337 37.6173V43.1741H169.989V38.1079C169.989 36.9821 169.458 36.3387 168.405 36.3387C167.351 36.3387 166.684 37.1107 166.684 38.2285V43.1741H164.336ZM173.68 37.0866C173.68 35.4461 175.104 34.3686 177.315 34.3686C179.478 34.3686 180.885 35.4622 180.918 37.1349H178.754C178.706 36.4433 178.151 36.0171 177.283 36.0171C176.471 36.0171 175.94 36.387 175.94 36.9419C175.94 37.3681 176.31 37.6576 177.066 37.8345L178.714 38.1883C180.443 38.5743 181.143 39.2578 181.143 40.5445C181.143 42.2413 179.583 43.359 177.307 43.359C175.007 43.359 173.592 42.2493 173.463 40.5686H175.755C175.867 41.2923 176.438 41.7105 177.371 41.7105C178.264 41.7105 178.803 41.3567 178.803 40.7938C178.803 40.3595 178.513 40.1183 177.741 39.9333L176.149 39.5795C174.516 39.2096 173.68 38.3572 173.68 37.0866ZM182.944 32.5672H185.292V34.5535H186.884V36.3227H185.292V40.448C185.292 41.1074 185.614 41.421 186.305 41.421C186.515 41.421 186.732 41.4049 186.876 41.3808V43.1097C186.635 43.166 186.233 43.2062 185.759 43.2062C183.732 43.2062 182.944 42.5307 182.944 40.8501V36.3227H181.73V34.5535H182.944V32.5672ZM191.42 41.614C192.441 41.614 193.286 40.9466 193.286 40.0137V39.3865L191.468 39.4991C190.592 39.5634 190.093 39.9574 190.093 40.5686C190.093 41.2119 190.624 41.614 191.42 41.614ZM190.648 43.3108C189.007 43.3108 187.761 42.2493 187.761 40.6973C187.761 39.1292 188.967 38.2205 191.114 38.0918L193.286 37.9631V37.3922C193.286 36.588 192.723 36.1216 191.838 36.1216C190.962 36.1216 190.407 36.5559 190.294 37.1911H188.147C188.235 35.5185 189.659 34.3686 191.943 34.3686C194.154 34.3686 195.593 35.5105 195.593 37.2474V43.1741H193.326V41.8553H193.277C192.795 42.772 191.725 43.3108 190.648 43.3108ZM197.17 43.1741V31.5701H199.518V43.1741H197.17ZM201.158 43.1741V31.5701H203.506V43.1741H201.158ZM204.946 37.0866C204.946 35.4461 206.369 34.3686 208.581 34.3686C210.744 34.3686 212.151 35.4622 212.183 37.1349H210.02C209.972 36.4433 209.417 36.0171 208.548 36.0171C207.736 36.0171 207.205 36.387 207.205 36.9419C207.205 37.3681 207.575 37.6576 208.331 37.8345L209.98 38.1883C211.709 38.5743 212.408 39.2578 212.408 40.5445C212.408 42.2413 210.848 43.359 208.573 43.359C206.273 43.359 204.857 42.2493 204.729 40.5686H207.021C207.133 41.2923 207.704 41.7105 208.637 41.7105C209.529 41.7105 210.068 41.3567 210.068 40.7938C210.068 40.3595 209.779 40.1183 209.007 39.9333L207.415 39.5795C205.782 39.2096 204.946 38.3572 204.946 37.0866ZM217.475 32.5672H219.823V34.5535H221.415V36.3227H219.823V40.448C219.823 41.1074 220.144 41.421 220.836 41.421C221.045 41.421 221.262 41.4049 221.407 41.3808V43.1097C221.166 43.166 220.764 43.2062 220.289 43.2062C218.263 43.2062 217.475 42.5307 217.475 40.8501V36.3227H216.26V34.5535H217.475V32.5672ZM222.758 43.1741V31.5701H225.066V36.0894H225.114C225.572 35.0038 226.513 34.3927 227.824 34.3927C229.738 34.3927 230.832 35.6311 230.832 37.6254V43.1741H228.483V38.124C228.483 37.0142 227.937 36.3387 226.867 36.3387C225.757 36.3387 225.106 37.1188 225.106 38.2526V43.1741H222.758ZM236.203 36.1055C235.174 36.1055 234.434 36.8856 234.354 37.9631H238.013C237.964 36.8614 237.249 36.1055 236.203 36.1055ZM238.045 40.5364H240.2C239.943 42.2252 238.399 43.359 236.268 43.359C233.614 43.359 232.022 41.6623 232.022 38.904C232.022 36.1538 233.63 34.3686 236.179 34.3686C238.688 34.3686 240.272 36.0653 240.272 38.6869V39.4026H234.33V39.5473C234.33 40.7777 235.11 41.622 236.308 41.622C237.168 41.622 237.828 41.1958 238.045 40.5364ZM248.081 41.614C249.102 41.614 249.946 40.9466 249.946 40.0137V39.3865L248.129 39.4991C247.253 39.5634 246.754 39.9574 246.754 40.5686C246.754 41.2119 247.285 41.614 248.081 41.614ZM247.309 43.3108C245.668 43.3108 244.422 42.2493 244.422 40.6973C244.422 39.1292 245.628 38.2205 247.775 38.0918L249.946 37.9631V37.3922C249.946 36.588 249.384 36.1216 248.499 36.1216C247.622 36.1216 247.068 36.5559 246.955 37.1911H244.808C244.896 35.5185 246.32 34.3686 248.603 34.3686C250.815 34.3686 252.254 35.5105 252.254 37.2474V43.1741H249.987V41.8553H249.938C249.456 42.772 248.386 43.3108 247.309 43.3108ZM258.808 34.4168C260.996 34.4168 262.338 36.0814 262.338 38.8638C262.338 41.6381 261.004 43.3108 258.848 43.3108C257.594 43.3108 256.629 42.6996 256.171 41.7266H256.122V45.9886H253.774V34.5535H256.09V36.0573H256.138C256.605 35.044 257.562 34.4168 258.808 34.4168ZM258.02 41.421C259.194 41.421 259.934 40.4319 259.934 38.8638C259.934 37.3037 259.194 36.2985 258.02 36.2985C256.87 36.2985 256.114 37.3198 256.114 38.8638C256.114 40.4239 256.87 41.421 258.02 41.421ZM268.587 34.4168C270.774 34.4168 272.117 36.0814 272.117 38.8638C272.117 41.6381 270.782 43.3108 268.627 43.3108C267.373 43.3108 266.408 42.6996 265.949 41.7266H265.901V45.9886H263.553V34.5535H265.869V36.0573H265.917C266.383 35.044 267.34 34.4168 268.587 34.4168ZM267.799 41.421C268.973 41.421 269.713 40.4319 269.713 38.8638C269.713 37.3037 268.973 36.2985 267.799 36.2985C266.649 36.2985 265.893 37.3198 265.893 38.8638C265.893 40.4239 266.649 41.421 267.799 41.421Z" fill="white"/>
<path d="M126.911 94.1458C129.214 94.1458 130.655 95.767 130.655 98.3451C130.655 100.923 129.214 102.539 126.911 102.539C124.609 102.539 123.168 100.923 123.168 98.3451C123.168 95.767 124.609 94.1458 126.911 94.1458ZM126.911 95.0802C125.251 95.0802 124.209 96.3411 124.209 98.3451C124.209 100.343 125.251 101.604 126.911 101.604C128.572 101.604 129.613 100.343 129.613 98.3451C129.613 96.3411 128.572 95.0802 126.911 95.0802ZM131.764 102.404V96.5494H132.687V97.4839H132.709C133.036 96.8534 133.661 96.4481 134.567 96.4481C135.85 96.4481 136.593 97.2756 136.593 98.604V102.404H135.614V98.7785C135.614 97.8329 135.169 97.315 134.268 97.315C133.345 97.315 132.743 97.968 132.743 98.9587V102.404H131.764ZM140.753 102.505C139.898 102.505 139.228 102.088 138.851 101.413H138.828V102.404H137.894V94.2809H138.873V97.5289H138.896C139.262 96.859 139.943 96.4481 140.77 96.4481C142.245 96.4481 143.241 97.6415 143.241 99.4766C143.241 101.317 142.251 102.505 140.753 102.505ZM140.562 97.3094C139.571 97.3094 138.867 98.1762 138.867 99.4766C138.867 100.783 139.571 101.644 140.562 101.644C141.598 101.644 142.239 100.816 142.239 99.4766C142.239 98.1481 141.598 97.3094 140.562 97.3094ZM146.664 102.505C145.043 102.505 143.951 101.34 143.951 99.4766C143.951 97.6077 145.043 96.4481 146.664 96.4481C148.279 96.4481 149.371 97.6077 149.371 99.4766C149.371 101.34 148.279 102.505 146.664 102.505ZM146.664 101.644C147.7 101.644 148.375 100.856 148.375 99.4766C148.375 98.0974 147.7 97.3094 146.664 97.3094C145.628 97.3094 144.947 98.0974 144.947 99.4766C144.947 100.856 145.628 101.644 146.664 101.644ZM150.362 102.404V96.5494H151.285V97.5064H151.308C151.499 96.859 152.04 96.4481 152.726 96.4481C152.895 96.4481 153.042 96.4762 153.12 96.4875V97.4388C153.042 97.4107 152.833 97.3825 152.597 97.3825C151.837 97.3825 151.342 97.9286 151.342 98.756V102.404H150.362ZM155.856 102.505C154.364 102.505 153.351 101.312 153.351 99.4766C153.351 97.6415 154.359 96.4481 155.834 96.4481C156.672 96.4481 157.348 96.859 157.697 97.5007H157.719V94.2809H158.699V102.404H157.764V101.413H157.747C157.37 102.088 156.7 102.505 155.856 102.505ZM156.042 97.3094C155.006 97.3094 154.353 98.1537 154.353 99.4766C154.353 100.805 155.006 101.644 156.042 101.644C157.049 101.644 157.725 100.788 157.725 99.4766C157.725 98.1706 157.049 97.3094 156.042 97.3094ZM160.072 102.404V96.5494H161.052V102.404H160.072ZM160.562 95.5643C160.23 95.5643 159.954 95.2885 159.954 94.9564C159.954 94.6186 160.23 94.3484 160.562 94.3484C160.9 94.3484 161.176 94.6186 161.176 94.9564C161.176 95.2885 160.9 95.5643 160.562 95.5643ZM162.375 102.404V96.5494H163.298V97.4839H163.32C163.647 96.8534 164.272 96.4481 165.178 96.4481C166.461 96.4481 167.204 97.2756 167.204 98.604V102.404H166.225V98.7785C166.225 97.8329 165.78 97.315 164.88 97.315C163.956 97.315 163.354 97.968 163.354 98.9587V102.404H162.375ZM170.835 101.587C171.854 101.587 172.535 100.743 172.535 99.454C172.535 98.165 171.854 97.3094 170.835 97.3094C169.828 97.3094 169.169 98.1425 169.169 99.454C169.169 100.766 169.828 101.587 170.835 101.587ZM170.869 104.61C169.58 104.61 168.561 103.884 168.398 102.888H169.405C169.597 103.423 170.177 103.777 170.908 103.777C171.922 103.777 172.535 103.192 172.535 102.319V101.396H172.513C172.152 102.032 171.46 102.449 170.638 102.449C169.146 102.449 168.167 101.272 168.167 99.454C168.167 97.619 169.146 96.4481 170.661 96.4481C171.488 96.4481 172.175 96.8534 172.563 97.5345H172.58V96.5494H173.515V102.285C173.515 103.681 172.484 104.61 170.869 104.61ZM176.92 100.169H177.939C178.035 101.047 178.868 101.627 180.027 101.627C181.125 101.627 181.924 101.047 181.924 100.248C181.924 99.561 181.446 99.1388 180.354 98.8574L179.313 98.5872C177.815 98.2044 177.151 97.5458 177.151 96.4425C177.151 95.0915 178.333 94.1458 180.022 94.1458C181.637 94.1458 182.808 95.1027 182.853 96.465H181.84C181.75 95.5925 181.046 95.0577 179.988 95.0577C178.935 95.0577 178.204 95.6037 178.204 96.3974C178.204 97.011 178.654 97.3769 179.757 97.664L180.607 97.8891C182.29 98.3113 182.971 98.9587 182.971 100.124C182.971 101.61 181.801 102.539 179.932 102.539C178.209 102.539 177.016 101.604 176.92 100.169ZM184.317 95.1365H185.296V96.5494H186.433V97.3544H185.296V100.833C185.296 101.368 185.521 101.61 186.022 101.61C186.135 101.61 186.36 101.593 186.428 101.582V102.404C186.31 102.432 186.039 102.449 185.809 102.449C184.733 102.449 184.317 102.01 184.317 100.884V97.3544H183.444V96.5494H184.317V95.1365ZM189.299 101.672C190.222 101.672 190.931 101.025 190.931 100.18V99.7017L189.366 99.7974C188.578 99.8481 188.128 100.197 188.128 100.749C188.128 101.306 188.595 101.672 189.299 101.672ZM189.079 102.505C187.914 102.505 187.131 101.801 187.131 100.749C187.131 99.7468 187.903 99.1163 189.254 99.0375L190.931 98.9418V98.4521C190.931 97.7372 190.458 97.3094 189.648 97.3094C188.893 97.3094 188.42 97.664 188.297 98.2382H187.351C187.418 97.2249 188.285 96.4481 189.67 96.4481C191.044 96.4481 191.91 97.1911 191.91 98.3564V102.404H190.982V101.396H190.959C190.61 102.066 189.867 102.505 189.079 102.505ZM193.155 102.404V96.5494H194.078V97.5064H194.1C194.292 96.859 194.832 96.4481 195.519 96.4481C195.688 96.4481 195.834 96.4762 195.913 96.4875V97.4388C195.834 97.4107 195.626 97.3825 195.389 97.3825C194.629 97.3825 194.134 97.9286 194.134 98.756V102.404H193.155ZM197.027 95.1365H198.007V96.5494H199.144V97.3544H198.007V100.833C198.007 101.368 198.232 101.61 198.733 101.61C198.846 101.61 199.071 101.593 199.138 101.582V102.404C199.02 102.432 198.75 102.449 198.519 102.449C197.444 102.449 197.027 102.01 197.027 100.884V97.3544H196.155V96.5494H197.027V95.1365ZM202.369 97.2981C201.452 97.2981 200.81 98.0017 200.748 98.9756H203.929C203.906 97.9961 203.293 97.2981 202.369 97.2981ZM203.906 100.726H204.869C204.7 101.751 203.709 102.505 202.431 102.505C200.754 102.505 199.735 101.34 199.735 99.4991C199.735 97.6809 200.771 96.4481 202.386 96.4481C203.968 96.4481 204.942 97.5964 204.942 99.3696V99.7411H200.743V99.7974C200.743 100.918 201.401 101.655 202.454 101.655C203.197 101.655 203.743 101.278 203.906 100.726ZM208.15 102.505C206.659 102.505 205.645 101.312 205.645 99.4766C205.645 97.6415 206.653 96.4481 208.128 96.4481C208.967 96.4481 209.642 96.859 209.991 97.5007H210.014V94.2809H210.993V102.404H210.059V101.413H210.042C209.665 102.088 208.995 102.505 208.15 102.505ZM208.336 97.3094C207.3 97.3094 206.647 98.1537 206.647 99.4766C206.647 100.805 207.3 101.644 208.336 101.644C209.344 101.644 210.019 100.788 210.019 99.4766C210.019 98.1706 209.344 97.3094 208.336 97.3094Z" fill="#60D2C3"/>
<path d="M126.911 142.73C129.214 142.73 130.655 144.351 130.655 146.929C130.655 149.507 129.214 151.123 126.911 151.123C124.609 151.123 123.168 149.507 123.168 146.929C123.168 144.351 124.609 142.73 126.911 142.73ZM126.911 143.664C125.251 143.664 124.209 144.925 124.209 146.929C124.209 148.927 125.251 150.188 126.911 150.188C128.572 150.188 129.613 148.927 129.613 146.929C129.613 144.925 128.572 143.664 126.911 143.664ZM131.764 150.988V145.133H132.687V146.068H132.709C133.036 145.437 133.661 145.032 134.567 145.032C135.85 145.032 136.593 145.86 136.593 147.188V150.988H135.614V147.363C135.614 146.417 135.169 145.899 134.268 145.899C133.345 145.899 132.743 146.552 132.743 147.543V150.988H131.764ZM140.753 151.089C139.898 151.089 139.228 150.672 138.851 149.997H138.828V150.988H137.894V142.865H138.873V146.113H138.896C139.262 145.443 139.943 145.032 140.77 145.032C142.245 145.032 143.241 146.225 143.241 148.061C143.241 149.901 142.251 151.089 140.753 151.089ZM140.562 145.893C139.571 145.893 138.867 146.76 138.867 148.061C138.867 149.366 139.571 150.228 140.562 150.228C141.598 150.228 142.239 149.4 142.239 148.061C142.239 146.732 141.598 145.893 140.562 145.893ZM146.664 151.089C145.043 151.089 143.951 149.924 143.951 148.061C143.951 146.192 145.043 145.032 146.664 145.032C148.279 145.032 149.371 146.192 149.371 148.061C149.371 149.924 148.279 151.089 146.664 151.089ZM146.664 150.228C147.7 150.228 148.375 149.44 148.375 148.061C148.375 146.681 147.7 145.893 146.664 145.893C145.628 145.893 144.947 146.681 144.947 148.061C144.947 149.44 145.628 150.228 146.664 150.228ZM150.362 150.988V145.133H151.285V146.09H151.308C151.499 145.443 152.04 145.032 152.726 145.032C152.895 145.032 153.042 145.06 153.12 145.071V146.023C153.042 145.995 152.833 145.967 152.597 145.967C151.837 145.967 151.342 146.513 151.342 147.34V150.988H150.362ZM155.856 151.089C154.364 151.089 153.351 149.896 153.351 148.061C153.351 146.225 154.359 145.032 155.834 145.032C156.672 145.032 157.348 145.443 157.697 146.085H157.719V142.865H158.699V150.988H157.764V149.997H157.747C157.37 150.672 156.7 151.089 155.856 151.089ZM156.042 145.893C155.006 145.893 154.353 146.738 154.353 148.061C154.353 149.389 155.006 150.228 156.042 150.228C157.049 150.228 157.725 149.372 157.725 148.061C157.725 146.755 157.049 145.893 156.042 145.893ZM160.072 150.988V145.133H161.052V150.988H160.072ZM160.562 144.148C160.23 144.148 159.954 143.872 159.954 143.54C159.954 143.203 160.23 142.932 160.562 142.932C160.9 142.932 161.176 143.203 161.176 143.54C161.176 143.872 160.9 144.148 160.562 144.148ZM162.375 150.988V145.133H163.298V146.068H163.32C163.647 145.437 164.272 145.032 165.178 145.032C166.461 145.032 167.204 145.86 167.204 147.188V150.988H166.225V147.363C166.225 146.417 165.78 145.899 164.88 145.899C163.956 145.899 163.354 146.552 163.354 147.543V150.988H162.375ZM170.835 150.171C171.854 150.171 172.535 149.327 172.535 148.038C172.535 146.749 171.854 145.893 170.835 145.893C169.828 145.893 169.169 146.726 169.169 148.038C169.169 149.35 169.828 150.171 170.835 150.171ZM170.869 153.194C169.58 153.194 168.561 152.468 168.398 151.472H169.405C169.597 152.007 170.177 152.361 170.908 152.361C171.922 152.361 172.535 151.776 172.535 150.903V149.98H172.513C172.152 150.616 171.46 151.033 170.638 151.033C169.146 151.033 168.167 149.856 168.167 148.038C168.167 146.203 169.146 145.032 170.661 145.032C171.488 145.032 172.175 145.437 172.563 146.118H172.58V145.133H173.515V150.869C173.515 152.265 172.484 153.194 170.869 153.194ZM178.322 150.988H177.309V142.865H182.24V143.777H178.322V146.569H181.919V147.469H178.322V150.988ZM184.784 150.256C185.707 150.256 186.416 149.609 186.416 148.764V148.286L184.852 148.381C184.064 148.432 183.613 148.781 183.613 149.333C183.613 149.89 184.08 150.256 184.784 150.256ZM184.565 151.089C183.399 151.089 182.617 150.385 182.617 149.333C182.617 148.331 183.388 147.7 184.739 147.621L186.416 147.526V147.036C186.416 146.321 185.944 145.893 185.133 145.893C184.379 145.893 183.906 146.248 183.782 146.822H182.836C182.904 145.809 183.771 145.032 185.156 145.032C186.529 145.032 187.396 145.775 187.396 146.94V150.988H186.467V149.98H186.445C186.096 150.65 185.353 151.089 184.565 151.089ZM188.691 150.988V145.133H189.67V150.988H188.691ZM189.18 144.148C188.848 144.148 188.572 143.872 188.572 143.54C188.572 143.203 188.848 142.932 189.18 142.932C189.518 142.932 189.794 143.203 189.794 143.54C189.794 143.872 189.518 144.148 189.18 144.148ZM191.044 150.988V142.865H192.023V150.988H191.044ZM195.693 145.882C194.776 145.882 194.134 146.586 194.072 147.56H197.252C197.23 146.58 196.616 145.882 195.693 145.882ZM197.23 149.31H198.193C198.024 150.335 197.033 151.089 195.755 151.089C194.078 151.089 193.059 149.924 193.059 148.083C193.059 146.265 194.095 145.032 195.71 145.032C197.292 145.032 198.266 146.18 198.266 147.954V148.325H194.066V148.381C194.066 149.502 194.725 150.239 195.778 150.239C196.521 150.239 197.067 149.862 197.23 149.31ZM201.474 151.089C199.983 151.089 198.969 149.896 198.969 148.061C198.969 146.225 199.977 145.032 201.452 145.032C202.291 145.032 202.966 145.443 203.315 146.085H203.338V142.865H204.317V150.988H203.383V149.997H203.366C202.989 150.672 202.319 151.089 201.474 151.089ZM201.66 145.893C200.624 145.893 199.971 146.738 199.971 148.061C199.971 149.389 200.624 150.228 201.66 150.228C202.668 150.228 203.343 149.372 203.343 148.061C203.343 146.755 202.668 145.893 201.66 145.893Z" fill="#60D2C3"/>
<path d="M338.54 282.717C340.842 282.717 342.283 284.339 342.283 286.917C342.283 289.495 340.842 291.11 338.54 291.11C336.237 291.11 334.796 289.495 334.796 286.917C334.796 284.339 336.237 282.717 338.54 282.717ZM338.54 283.652C336.879 283.652 335.838 284.913 335.838 286.917C335.838 288.915 336.879 290.176 338.54 290.176C340.2 290.176 341.242 288.915 341.242 286.917C341.242 284.913 340.2 283.652 338.54 283.652ZM343.392 290.975V285.121H344.315V286.056H344.338C344.664 285.425 345.289 285.02 346.195 285.02C347.479 285.02 348.222 285.847 348.222 287.176V290.975H347.242V287.35C347.242 286.405 346.798 285.887 345.897 285.887C344.974 285.887 344.371 286.54 344.371 287.53V290.975H343.392ZM352.382 291.077C351.526 291.077 350.856 290.66 350.479 289.985H350.456V290.975H349.522V282.853H350.502V286.101H350.524C350.89 285.431 351.571 285.02 352.399 285.02C353.873 285.02 354.87 286.213 354.87 288.048C354.87 289.889 353.879 291.077 352.382 291.077ZM352.19 285.881C351.2 285.881 350.496 286.748 350.496 288.048C350.496 289.354 351.2 290.215 352.19 290.215C353.226 290.215 353.868 289.388 353.868 288.048C353.868 286.72 353.226 285.881 352.19 285.881ZM358.292 291.077C356.671 291.077 355.579 289.911 355.579 288.048C355.579 286.179 356.671 285.02 358.292 285.02C359.908 285.02 361 286.179 361 288.048C361 289.911 359.908 291.077 358.292 291.077ZM358.292 290.215C359.328 290.215 360.003 289.427 360.003 288.048C360.003 286.669 359.328 285.881 358.292 285.881C357.256 285.881 356.575 286.669 356.575 288.048C356.575 289.427 357.256 290.215 358.292 290.215ZM361.991 290.975V285.121H362.914V286.078H362.936C363.128 285.431 363.668 285.02 364.355 285.02C364.524 285.02 364.67 285.048 364.749 285.059V286.01C364.67 285.982 364.462 285.954 364.225 285.954C363.465 285.954 362.97 286.5 362.97 287.328V290.975H361.991ZM367.485 291.077C365.993 291.077 364.98 289.883 364.98 288.048C364.98 286.213 365.987 285.02 367.462 285.02C368.301 285.02 368.976 285.431 369.325 286.072H369.348V282.853H370.327V290.975H369.393V289.985H369.376C368.999 290.66 368.329 291.077 367.485 291.077ZM367.67 285.881C366.635 285.881 365.982 286.725 365.982 288.048C365.982 289.377 366.635 290.215 367.67 290.215C368.678 290.215 369.353 289.36 369.353 288.048C369.353 286.742 368.678 285.881 367.67 285.881ZM371.701 290.975V285.121H372.68V290.975H371.701ZM372.19 284.136C371.858 284.136 371.582 283.86 371.582 283.528C371.582 283.19 371.858 282.92 372.19 282.92C372.528 282.92 372.804 283.19 372.804 283.528C372.804 283.86 372.528 284.136 372.19 284.136ZM374.003 290.975V285.121H374.926V286.056H374.949C375.275 285.425 375.9 285.02 376.806 285.02C378.09 285.02 378.833 285.847 378.833 287.176V290.975H377.853V287.35C377.853 286.405 377.409 285.887 376.508 285.887C375.585 285.887 374.982 286.54 374.982 287.53V290.975H374.003ZM382.464 290.159C383.482 290.159 384.164 289.315 384.164 288.026C384.164 286.737 383.482 285.881 382.464 285.881C381.456 285.881 380.797 286.714 380.797 288.026C380.797 289.337 381.456 290.159 382.464 290.159ZM382.497 293.182C381.208 293.182 380.189 292.456 380.026 291.459H381.034C381.225 291.994 381.805 292.349 382.537 292.349C383.55 292.349 384.164 291.763 384.164 290.891V289.968H384.141C383.781 290.604 383.088 291.02 382.267 291.02C380.775 291.02 379.795 289.844 379.795 288.026C379.795 286.191 380.775 285.02 382.289 285.02C383.117 285.02 383.803 285.425 384.192 286.106H384.209V285.121H385.143V290.857C385.143 292.253 384.113 293.182 382.497 293.182ZM389.95 290.975H388.937V282.853H393.868V283.764H389.95V286.556H393.547V287.457H389.95V290.975ZM396.412 290.244C397.336 290.244 398.045 289.596 398.045 288.752V288.273L396.48 288.369C395.692 288.42 395.242 288.769 395.242 289.32C395.242 289.878 395.709 290.244 396.412 290.244ZM396.193 291.077C395.028 291.077 394.245 290.373 394.245 289.32C394.245 288.318 395.016 287.688 396.367 287.609L398.045 287.513V287.024C398.045 286.309 397.572 285.881 396.761 285.881C396.007 285.881 395.534 286.236 395.41 286.81H394.465C394.532 285.797 395.399 285.02 396.784 285.02C398.157 285.02 399.024 285.763 399.024 286.928V290.975H398.096V289.968H398.073C397.724 290.638 396.981 291.077 396.193 291.077ZM400.319 290.975V285.121H401.299V290.975H400.319ZM400.809 284.136C400.477 284.136 400.201 283.86 400.201 283.528C400.201 283.19 400.477 282.92 400.809 282.92C401.147 282.92 401.422 283.19 401.422 283.528C401.422 283.86 401.147 284.136 400.809 284.136ZM402.672 290.975V282.853H403.651V290.975H402.672ZM407.322 285.87C406.404 285.87 405.762 286.573 405.7 287.547H408.881C408.858 286.568 408.245 285.87 407.322 285.87ZM408.858 289.298H409.821C409.652 290.322 408.661 291.077 407.384 291.077C405.706 291.077 404.687 289.911 404.687 288.071C404.687 286.253 405.723 285.02 407.339 285.02C408.92 285.02 409.894 286.168 409.894 287.941V288.313H405.695V288.369C405.695 289.489 406.353 290.227 407.406 290.227C408.149 290.227 408.695 289.85 408.858 289.298ZM413.103 291.077C411.611 291.077 410.598 289.883 410.598 288.048C410.598 286.213 411.605 285.02 413.08 285.02C413.919 285.02 414.594 285.431 414.943 286.072H414.966V282.853H415.945V290.975H415.011V289.985H414.994C414.617 290.66 413.947 291.077 413.103 291.077ZM413.288 285.881C412.253 285.881 411.6 286.725 411.6 288.048C411.6 289.377 412.253 290.215 413.288 290.215C414.296 290.215 414.972 289.36 414.972 288.048C414.972 286.742 414.296 285.881 413.288 285.881Z" fill="#5F2EEA"/>
<rect opacity="0.8" x="133.4" y="195.983" width="281.622" height="68.3469" rx="8.23457" fill="#383838"/>
<rect x="65.8765" y="308.796" width="377.967" height="44.4667" rx="22.2333" fill="#5F2EEA"/>
<rect x="350.792" y="316.207" width="83.9926" height="30.4679" rx="15.234" fill="white"/>
<path d="M127.248 70.0715C130.682 70.0715 132.845 72.3794 132.845 76.0786C132.845 79.7696 130.682 82.0776 127.248 82.0776C123.806 82.0776 121.651 79.7696 121.651 76.0786C121.651 72.3794 123.806 70.0715 127.248 70.0715ZM127.248 72.098C125.35 72.098 124.128 73.642 124.128 76.0786C124.128 78.5071 125.342 80.043 127.248 80.043C129.146 80.043 130.36 78.5071 130.36 76.0786C130.36 73.642 129.146 72.098 127.248 72.098ZM139.246 73.1193C141.433 73.1193 142.776 74.7839 142.776 77.5662C142.776 80.3406 141.442 82.0132 139.286 82.0132C138.032 82.0132 137.067 81.4021 136.609 80.429H136.56V84.6911H134.212V73.256H136.528V74.7597H136.576C137.043 73.7465 138 73.1193 139.246 73.1193ZM138.458 80.1235C139.632 80.1235 140.372 79.1344 140.372 77.5662C140.372 76.0062 139.632 75.001 138.458 75.001C137.308 75.001 136.552 76.0223 136.552 77.5662C136.552 79.1263 137.308 80.1235 138.458 80.1235ZM147.859 74.808C146.829 74.808 146.09 75.588 146.009 76.6656H149.668C149.62 75.5639 148.904 74.808 147.859 74.808ZM149.7 79.2389H151.855C151.598 80.9276 150.054 82.0615 147.923 82.0615C145.269 82.0615 143.677 80.3647 143.677 77.6065C143.677 74.8562 145.285 73.071 147.835 73.071C150.344 73.071 151.928 74.7678 151.928 77.3893V78.105H145.985V78.2498C145.985 79.4801 146.765 80.3245 147.963 80.3245C148.824 80.3245 149.483 79.8983 149.7 79.2389ZM153.142 81.8765V73.256H155.41V74.7919H155.458C155.916 73.7224 156.825 73.0951 158.152 73.0951C160.066 73.0951 161.143 74.3014 161.143 76.3198V81.8765H158.795V76.8103C158.795 75.6845 158.264 75.0412 157.211 75.0412C156.158 75.0412 155.49 75.8132 155.49 76.931V81.8765H153.142ZM162.486 75.7891C162.486 74.1486 163.91 73.071 166.121 73.071C168.284 73.071 169.692 74.1647 169.724 75.8373H167.561C167.512 75.1457 166.957 74.7195 166.089 74.7195C165.277 74.7195 164.746 75.0894 164.746 75.6443C164.746 76.0705 165.116 76.36 165.872 76.5369L167.52 76.8908C169.249 77.2767 169.949 77.9603 169.949 79.2469C169.949 80.9437 168.389 82.0615 166.113 82.0615C163.813 82.0615 162.398 80.9517 162.269 79.2711H164.561C164.674 79.9948 165.245 80.413 166.177 80.413C167.07 80.413 167.609 80.0591 167.609 79.4962C167.609 79.062 167.319 78.8207 166.547 78.6358L164.955 78.2819C163.323 77.912 162.486 77.0596 162.486 75.7891ZM175.015 71.2697H177.363V73.256H178.955V75.0251H177.363V79.1504C177.363 79.8098 177.685 80.1235 178.376 80.1235C178.586 80.1235 178.803 80.1074 178.947 80.0833V81.8122C178.706 81.8685 178.304 81.9087 177.83 81.9087C175.803 81.9087 175.015 81.2332 175.015 79.5525V75.0251H173.801V73.256H175.015V71.2697ZM180.298 81.8765V70.2725H182.606V74.7919H182.655C183.113 73.7063 184.054 73.0951 185.365 73.0951C187.278 73.0951 188.372 74.3335 188.372 76.3278V81.8765H186.024V76.8264C186.024 75.7167 185.477 75.0412 184.408 75.0412C183.298 75.0412 182.647 75.8212 182.647 76.9551V81.8765H180.298ZM193.744 74.808C192.715 74.808 191.975 75.588 191.894 76.6656H195.553C195.505 75.5639 194.789 74.808 193.744 74.808ZM195.585 79.2389H197.741C197.483 80.9276 195.939 82.0615 193.808 82.0615C191.155 82.0615 189.562 80.3647 189.562 77.6065C189.562 74.8562 191.171 73.071 193.72 73.071C196.229 73.071 197.813 74.7678 197.813 77.3893V78.105H191.87V78.2498C191.87 79.4801 192.65 80.3245 193.848 80.3245C194.709 80.3245 195.368 79.8983 195.585 79.2389ZM206.249 82.0615C203.643 82.0615 201.978 80.3888 201.978 77.5582C201.978 74.7678 203.667 73.071 206.249 73.071C208.83 73.071 210.519 74.7597 210.519 77.5582C210.519 80.3969 208.854 82.0615 206.249 82.0615ZM206.249 80.2682C207.398 80.2682 208.13 79.2952 208.13 77.5662C208.13 75.8534 207.39 74.8643 206.249 74.8643C205.107 74.8643 204.359 75.8534 204.359 77.5662C204.359 79.2952 205.091 80.2682 206.249 80.2682ZM211.733 81.8765V73.256H214.001V74.7919H214.049C214.507 73.7224 215.416 73.0951 216.743 73.0951C218.657 73.0951 219.734 74.3014 219.734 76.3198V81.8765H217.386V76.8103C217.386 75.6845 216.855 75.0412 215.802 75.0412C214.748 75.0412 214.081 75.8132 214.081 76.931V81.8765H211.733ZM226.344 82.0132C225.082 82.0132 224.117 81.4021 223.642 80.3969H223.594V81.8765H221.278V70.2725H223.626V74.7517H223.675C224.149 73.7304 225.106 73.1193 226.336 73.1193C228.508 73.1193 229.843 74.7839 229.843 77.5662C229.843 80.3406 228.516 82.0132 226.344 82.0132ZM225.532 75.001C224.398 75.001 223.618 76.0223 223.618 77.5662C223.618 79.1263 224.39 80.1235 225.532 80.1235C226.706 80.1235 227.438 79.1424 227.438 77.5662C227.438 75.9981 226.698 75.001 225.532 75.001ZM235.021 82.0615C232.416 82.0615 230.751 80.3888 230.751 77.5582C230.751 74.7678 232.44 73.071 235.021 73.071C237.603 73.071 239.291 74.7597 239.291 77.5582C239.291 80.3969 237.627 82.0615 235.021 82.0615ZM235.021 80.2682C236.171 80.2682 236.903 79.2952 236.903 77.5662C236.903 75.8534 236.163 74.8643 235.021 74.8643C233.879 74.8643 233.132 75.8534 233.132 77.5662C233.132 79.2952 233.863 80.2682 235.021 80.2682ZM243.835 80.3165C244.856 80.3165 245.7 79.649 245.7 78.7162V78.0889L243.883 78.2015C243.007 78.2659 242.508 78.6599 242.508 79.2711C242.508 79.9144 243.039 80.3165 243.835 80.3165ZM243.063 82.0132C241.422 82.0132 240.176 80.9517 240.176 79.3997C240.176 77.8316 241.382 76.9229 243.529 76.7943L245.7 76.6656V76.0946C245.7 75.2905 245.138 74.8241 244.253 74.8241C243.376 74.8241 242.822 75.2583 242.709 75.8936H240.562C240.65 74.221 242.074 73.071 244.358 73.071C246.569 73.071 248.008 74.2129 248.008 75.9499V81.8765H245.741V80.5577H245.692C245.21 81.4744 244.14 82.0132 243.063 82.0132ZM249.528 81.8765V73.256H251.796V74.808H251.844C252.15 73.7143 252.882 73.1193 253.895 73.1193C254.168 73.1193 254.401 73.1595 254.562 73.2077V75.2744C254.369 75.194 254.048 75.1377 253.71 75.1377C252.552 75.1377 251.876 75.8453 251.876 77.0596V81.8765H249.528ZM258.438 82.0132C256.283 82.0132 254.924 80.3084 254.924 77.5502C254.924 74.816 256.291 73.1193 258.454 73.1193C259.701 73.1193 260.666 73.7787 261.084 74.7356H261.132V70.2725H263.48V81.8765H261.164V80.3969H261.124C260.706 81.3458 259.709 82.0132 258.438 82.0132ZM259.234 75.001C258.052 75.001 257.329 75.9901 257.329 77.5662C257.329 79.1504 258.052 80.1235 259.234 80.1235C260.4 80.1235 261.148 79.1424 261.148 77.5662C261.148 75.9981 260.4 75.001 259.234 75.001ZM265.089 81.8765V73.256H267.437V81.8765H265.089ZM266.263 72.3071C265.555 72.3071 265.008 71.7683 265.008 71.0928C265.008 70.4092 265.555 69.8785 266.263 69.8785C266.97 69.8785 267.517 70.4092 267.517 71.0928C267.517 71.7683 266.97 72.3071 266.263 72.3071ZM269.005 81.8765V73.256H271.273V74.7919H271.321C271.779 73.7224 272.688 73.0951 274.015 73.0951C275.929 73.0951 277.006 74.3014 277.006 76.3198V81.8765H274.658V76.8103C274.658 75.6845 274.127 75.0412 273.074 75.0412C272.021 75.0412 271.353 75.8132 271.353 76.931V81.8765H269.005ZM282.475 80.043C283.649 80.043 284.397 79.1102 284.397 77.5502C284.397 75.9981 283.649 75.001 282.475 75.001C281.317 75.001 280.585 75.9821 280.585 77.5502C280.585 79.1263 281.309 80.043 282.475 80.043ZM282.434 85.1253C280.167 85.1253 278.631 84.0236 278.446 82.4877H280.746C280.931 83.0828 281.606 83.4929 282.499 83.4929C283.713 83.4929 284.388 82.8174 284.388 81.8202V80.3084H284.34C283.938 81.2252 282.925 81.8524 281.678 81.8524C279.572 81.8524 278.18 80.228 278.18 77.5341C278.18 74.7999 279.531 73.1193 281.719 73.1193C282.957 73.1193 283.93 73.7706 284.38 74.7597H284.421V73.256H286.737V81.7559C286.737 83.8145 285.016 85.1253 282.434 85.1253Z" fill="white"/>
<path d="M128.791 130.662C125.413 130.662 123.298 128.402 123.298 124.654C123.298 120.915 125.429 118.655 128.791 118.655C131.581 118.655 133.704 120.425 133.889 123.022H131.525C131.3 121.599 130.206 120.666 128.791 120.666C126.957 120.666 125.775 122.202 125.775 124.646C125.775 127.123 126.941 128.651 128.799 128.651C130.238 128.651 131.275 127.807 131.533 126.432H133.897C133.624 129.021 131.637 130.662 128.791 130.662ZM135.256 130.461V118.857H137.604V130.461H135.256ZM143.145 130.645C140.539 130.645 138.875 128.973 138.875 126.142C138.875 123.352 140.563 121.655 143.145 121.655C145.726 121.655 147.415 123.344 147.415 126.142C147.415 128.981 145.75 130.645 143.145 130.645ZM143.145 128.852C144.295 128.852 145.027 127.879 145.027 126.15C145.027 124.437 144.287 123.448 143.145 123.448C142.003 123.448 141.255 124.437 141.255 126.15C141.255 127.879 141.987 128.852 143.145 128.852ZM148.484 124.373C148.484 122.733 149.908 121.655 152.119 121.655C154.282 121.655 155.69 122.749 155.722 124.421H153.559C153.51 123.73 152.955 123.304 152.087 123.304C151.275 123.304 150.744 123.673 150.744 124.228C150.744 124.654 151.114 124.944 151.87 125.121L153.518 125.475C155.247 125.861 155.947 126.544 155.947 127.831C155.947 129.528 154.387 130.645 152.111 130.645C149.811 130.645 148.396 129.536 148.267 127.855H150.559C150.672 128.579 151.243 128.997 152.175 128.997C153.068 128.997 153.607 128.643 153.607 128.08C153.607 127.646 153.317 127.405 152.545 127.22L150.953 126.866C149.321 126.496 148.484 125.644 148.484 124.373ZM160.989 123.392C159.96 123.392 159.22 124.172 159.139 125.25H162.798C162.75 124.148 162.034 123.392 160.989 123.392ZM162.831 127.823H164.986C164.728 129.512 163.184 130.645 161.053 130.645C158.4 130.645 156.807 128.949 156.807 126.19C156.807 123.44 158.416 121.655 160.965 121.655C163.474 121.655 165.058 123.352 165.058 125.973V126.689H159.115V126.834C159.115 128.064 159.895 128.908 161.094 128.908C161.954 128.908 162.613 128.482 162.831 127.823ZM166.128 124.373C166.128 122.733 167.551 121.655 169.762 121.655C171.926 121.655 173.333 122.749 173.365 124.421H171.202C171.154 123.73 170.599 123.304 169.73 123.304C168.918 123.304 168.387 123.673 168.387 124.228C168.387 124.654 168.757 124.944 169.513 125.121L171.162 125.475C172.891 125.861 173.59 126.544 173.59 127.831C173.59 129.528 172.03 130.645 169.754 130.645C167.454 130.645 166.039 129.536 165.91 127.855H168.202C168.315 128.579 168.886 128.997 169.819 128.997C170.711 128.997 171.25 128.643 171.25 128.08C171.25 127.646 170.961 127.405 170.189 127.22L168.596 126.866C166.964 126.496 166.128 125.644 166.128 124.373ZM178.656 119.854H181.004V121.84H182.597V123.609H181.004V127.734C181.004 128.394 181.326 128.707 182.018 128.707C182.227 128.707 182.444 128.691 182.589 128.667V130.396C182.347 130.452 181.945 130.493 181.471 130.493C179.444 130.493 178.656 129.817 178.656 128.136V123.609H177.442V121.84H178.656V119.854ZM183.94 130.461V118.857H186.248V123.376H186.296C186.754 122.29 187.695 121.679 189.006 121.679C190.92 121.679 192.013 122.918 192.013 124.912V130.461H189.665V125.41C189.665 124.301 189.118 123.625 188.049 123.625C186.939 123.625 186.288 124.405 186.288 125.539V130.461H183.94ZM197.385 123.392C196.356 123.392 195.616 124.172 195.536 125.25H199.195C199.146 124.148 198.431 123.392 197.385 123.392ZM199.227 127.823H201.382C201.125 129.512 199.581 130.645 197.45 130.645C194.796 130.645 193.204 128.949 193.204 126.19C193.204 123.44 194.812 121.655 197.361 121.655C199.87 121.655 201.454 123.352 201.454 125.973V126.689H195.511V126.834C195.511 128.064 196.292 128.908 197.49 128.908C198.35 128.908 199.01 128.482 199.227 127.823ZM209.263 128.9C210.284 128.9 211.128 128.233 211.128 127.3V126.673L209.311 126.786C208.434 126.85 207.936 127.244 207.936 127.855C207.936 128.498 208.466 128.9 209.263 128.9ZM208.491 130.597C206.85 130.597 205.604 129.536 205.604 127.984C205.604 126.416 206.81 125.507 208.957 125.378L211.128 125.25V124.679C211.128 123.874 210.565 123.408 209.681 123.408C208.804 123.408 208.249 123.842 208.137 124.478H205.99C206.078 122.805 207.501 121.655 209.785 121.655C211.997 121.655 213.436 122.797 213.436 124.534V130.461H211.168V129.142H211.12C210.638 130.058 209.568 130.597 208.491 130.597ZM219.99 121.703C222.177 121.703 223.52 123.368 223.52 126.15C223.52 128.925 222.185 130.597 220.03 130.597C218.776 130.597 217.811 129.986 217.352 129.013H217.304V133.275H214.956V121.84H217.272V123.344H217.32C217.787 122.33 218.744 121.703 219.99 121.703ZM219.202 128.707C220.376 128.707 221.116 127.718 221.116 126.15C221.116 124.59 220.376 123.585 219.202 123.585C218.052 123.585 217.296 124.606 217.296 126.15C217.296 127.71 218.052 128.707 219.202 128.707ZM229.769 121.703C231.956 121.703 233.299 123.368 233.299 126.15C233.299 128.925 231.964 130.597 229.809 130.597C228.554 130.597 227.589 129.986 227.131 129.013H227.083V133.275H224.735V121.84H227.051V123.344H227.099C227.565 122.33 228.522 121.703 229.769 121.703ZM228.981 128.707C230.155 128.707 230.894 127.718 230.894 126.15C230.894 124.59 230.155 123.585 228.981 123.585C227.831 123.585 227.075 124.606 227.075 126.15C227.075 127.71 227.831 128.707 228.981 128.707Z" fill="white"/>
<rect x="104.579" y="175.396" width="339.264" height="82.3457" rx="8.23457" fill="#5F2EEA"/>
<path d="M196.859 208.367V210.395H187.492V195.31H189.833V208.367H196.859ZM202.922 201.018C201.343 201.018 200.235 202.22 200.12 203.882H205.619C205.567 202.199 204.5 201.018 202.922 201.018ZM205.609 207.165H207.752C207.438 209.172 205.535 210.604 203.016 210.604C199.786 210.604 197.831 208.419 197.831 204.949C197.831 201.499 199.817 199.199 202.922 199.199C205.974 199.199 207.877 201.352 207.877 204.687V205.461H200.11V205.597C200.11 207.51 201.26 208.775 203.068 208.775C204.354 208.775 205.305 208.127 205.609 207.165ZM209.633 210.395V199.397H211.787V201.269H211.839C212.205 199.983 213.188 199.22 214.484 199.22C214.808 199.22 215.09 199.272 215.258 199.303V201.405C215.08 201.331 214.683 201.279 214.244 201.279C212.79 201.279 211.891 202.251 211.891 203.809V210.395H209.633ZM220.903 210.604C217.756 210.604 215.686 208.44 215.686 204.896C215.686 201.363 217.767 199.199 220.903 199.199C224.039 199.199 226.119 201.363 226.119 204.896C226.119 208.44 224.049 210.604 220.903 210.604ZM220.903 208.743C222.68 208.743 223.82 207.343 223.82 204.896C223.82 202.46 222.67 201.06 220.903 201.06C219.136 201.06 217.986 202.46 217.986 204.896C217.986 207.343 219.136 208.743 220.903 208.743ZM228.66 214.493C228.482 214.493 227.907 214.472 227.74 214.441V212.611C227.907 212.653 228.283 212.653 228.472 212.653C229.527 212.653 230.081 212.214 230.426 211.085C230.426 211.064 230.625 210.416 230.625 210.406L226.653 199.397H229.099L231.89 208.346H231.921L234.713 199.397H237.096L232.967 210.97C232.026 213.636 230.949 214.493 228.66 214.493ZM258.307 210.395H256.164V199.293H256.091L251.544 210.28H249.808L245.25 199.293H245.177V210.395H243.044V195.31H245.752L250.634 207.217H250.718L255.589 195.31H258.307V210.395ZM265.416 201.018C263.838 201.018 262.729 202.22 262.614 203.882H268.113C268.061 202.199 266.995 201.018 265.416 201.018ZM268.103 207.165H270.246C269.932 209.172 268.03 210.604 265.51 210.604C262.28 210.604 260.325 208.419 260.325 204.949C260.325 201.499 262.311 199.199 265.416 199.199C268.469 199.199 270.371 201.352 270.371 204.687V205.461H262.604V205.597C262.604 207.51 263.754 208.775 265.562 208.775C266.848 208.775 267.8 208.127 268.103 207.165ZM272.128 210.395V199.397H274.281V201.269H274.333C274.699 199.983 275.682 199.22 276.978 199.22C277.302 199.22 277.585 199.272 277.752 199.303V201.405C277.574 201.331 277.177 201.279 276.738 201.279C275.285 201.279 274.386 202.251 274.386 203.809V210.395H272.128ZM279.236 210.395V195.31H281.494V210.395H279.236ZM288.415 201.018C286.836 201.018 285.728 202.22 285.613 203.882H291.112C291.06 202.199 289.994 201.018 288.415 201.018ZM291.102 207.165H293.245C292.931 209.172 291.029 210.604 288.509 210.604C285.279 210.604 283.324 208.419 283.324 204.949C283.324 201.499 285.31 199.199 288.415 199.199C291.468 199.199 293.37 201.352 293.37 204.687V205.461H285.603V205.597C285.603 207.51 286.753 208.775 288.561 208.775C289.847 208.775 290.799 208.127 291.102 207.165ZM295.127 210.395V199.397H297.28V201.237H297.332C297.928 199.983 299.099 199.209 300.793 199.209C303.218 199.209 304.608 200.756 304.608 203.276V210.395H302.34V203.715C302.34 202.063 301.566 201.154 299.998 201.154C298.409 201.154 297.385 202.283 297.385 203.987V210.395H295.127Z" fill="white"/>
<path d="M186.886 234.51V225.227H188.006V234.51H186.886ZM192.2 228.675C191.151 228.675 190.418 229.479 190.347 230.592H193.982C193.956 229.473 193.255 228.675 192.2 228.675ZM193.956 232.593H195.056C194.863 233.764 193.731 234.626 192.271 234.626C190.354 234.626 189.189 233.294 189.189 231.19C189.189 229.112 190.373 227.704 192.219 227.704C194.027 227.704 195.14 229.016 195.14 231.042V231.467H190.341V231.531C190.341 232.812 191.094 233.654 192.297 233.654C193.146 233.654 193.77 233.223 193.956 232.593ZM196.633 226.205H197.752V227.819H199.051V228.739H197.752V232.715C197.752 233.326 198.009 233.603 198.582 233.603C198.711 233.603 198.968 233.583 199.045 233.571V234.51C198.91 234.542 198.601 234.561 198.337 234.561C197.109 234.561 196.633 234.06 196.633 232.773V228.739H195.635V227.819H196.633V226.205ZM201.419 228.501H200.39V225.227H201.419V228.501ZM202.899 229.666C202.899 228.521 203.921 227.704 205.395 227.704C206.778 227.704 207.794 228.527 207.846 229.659H206.778C206.701 229.016 206.18 228.617 205.356 228.617C204.539 228.617 203.999 229.022 203.999 229.608C203.999 230.071 204.352 230.38 205.112 230.573L206.147 230.824C207.498 231.165 207.987 231.654 207.987 232.638C207.987 233.802 206.887 234.626 205.324 234.626C203.857 234.626 202.834 233.828 202.718 232.644H203.838C203.96 233.339 204.488 233.712 205.395 233.712C206.302 233.712 206.861 233.326 206.861 232.721C206.861 232.245 206.585 231.988 205.832 231.789L204.655 231.486C203.478 231.184 202.899 230.579 202.899 229.666ZM211.738 229.666C211.738 228.521 212.761 227.704 214.234 227.704C215.617 227.704 216.634 228.527 216.685 229.659H215.617C215.54 229.016 215.019 228.617 214.195 228.617C213.378 228.617 212.838 229.022 212.838 229.608C212.838 230.071 213.192 230.38 213.951 230.573L214.987 230.824C216.338 231.165 216.827 231.654 216.827 232.638C216.827 233.802 215.726 234.626 214.163 234.626C212.696 234.626 211.674 233.828 211.558 232.644H212.677C212.799 233.339 213.327 233.712 214.234 233.712C215.141 233.712 215.701 233.326 215.701 232.721C215.701 232.245 215.424 231.988 214.671 231.789L213.494 231.486C212.317 231.184 211.738 230.579 211.738 229.666ZM218.351 226.205H219.471V227.819H220.77V228.739H219.471V232.715C219.471 233.326 219.728 233.603 220.301 233.603C220.429 233.603 220.687 233.583 220.764 233.571V234.51C220.629 234.542 220.32 234.561 220.056 234.561C218.827 234.561 218.351 234.06 218.351 232.773V228.739H217.354V227.819H218.351V226.205ZM224.045 233.674C225.1 233.674 225.91 232.934 225.91 231.969V231.422L224.122 231.531C223.221 231.589 222.707 231.988 222.707 232.619C222.707 233.255 223.241 233.674 224.045 233.674ZM223.794 234.626C222.462 234.626 221.568 233.822 221.568 232.619C221.568 231.473 222.449 230.753 223.993 230.663L225.91 230.553V229.994C225.91 229.177 225.37 228.688 224.444 228.688C223.581 228.688 223.041 229.093 222.9 229.749H221.819C221.896 228.591 222.887 227.704 224.469 227.704C226.039 227.704 227.03 228.553 227.03 229.884V234.51H225.968V233.358H225.942C225.544 234.124 224.694 234.626 223.794 234.626ZM228.451 234.51V227.819H229.506V228.913H229.532C229.751 228.173 230.369 227.704 231.153 227.704C231.346 227.704 231.514 227.736 231.604 227.749V228.836C231.514 228.804 231.276 228.771 231.005 228.771C230.137 228.771 229.571 229.395 229.571 230.341V234.51H228.451ZM232.878 226.205H233.997V227.819H235.296V228.739H233.997V232.715C233.997 233.326 234.254 233.603 234.827 233.603C234.955 233.603 235.213 233.583 235.29 233.571V234.51C235.155 234.542 234.846 234.561 234.582 234.561C233.354 234.561 232.878 234.06 232.878 232.773V228.739H231.88V227.819H232.878V226.205ZM247.706 227.819L245.841 234.51H244.702L243.19 229.331H243.164L241.659 234.51H240.52L238.648 227.819H239.761L241.099 233.262H241.125L242.637 227.819H243.718L245.236 233.262H245.262L246.6 227.819H247.706ZM251.309 228.675C250.26 228.675 249.527 229.479 249.456 230.592H253.091C253.065 229.473 252.364 228.675 251.309 228.675ZM253.065 232.593H254.165C253.972 233.764 252.84 234.626 251.38 234.626C249.462 234.626 248.298 233.294 248.298 231.19C248.298 229.112 249.482 227.704 251.328 227.704C253.136 227.704 254.249 229.016 254.249 231.042V231.467H249.45V231.531C249.45 232.812 250.202 233.654 251.405 233.654C252.254 233.654 252.879 233.223 253.065 232.593ZM266.594 227.819L264.729 234.51H263.59L262.078 229.331H262.052L260.547 234.51H259.408L257.536 227.819H258.649L259.987 233.262H260.013L261.525 227.819H262.606L264.124 233.262H264.15L265.488 227.819H266.594ZM269.592 233.674C270.647 233.674 271.458 232.934 271.458 231.969V231.422L269.669 231.531C268.769 231.589 268.254 231.988 268.254 232.619C268.254 233.255 268.788 233.674 269.592 233.674ZM269.341 234.626C268.01 234.626 267.115 233.822 267.115 232.619C267.115 231.473 267.997 230.753 269.541 230.663L271.458 230.553V229.994C271.458 229.177 270.917 228.688 269.991 228.688C269.129 228.688 268.589 229.093 268.447 229.749H267.366C267.443 228.591 268.434 227.704 270.017 227.704C271.586 227.704 272.577 228.553 272.577 229.884V234.51H271.516V233.358H271.49C271.091 234.124 270.242 234.626 269.341 234.626ZM274.057 234.51V227.819H275.176V234.51H274.057ZM274.616 226.693C274.237 226.693 273.922 226.378 273.922 225.999C273.922 225.613 274.237 225.304 274.616 225.304C275.002 225.304 275.318 225.613 275.318 225.999C275.318 226.378 275.002 226.693 274.616 226.693ZM277.048 226.205H278.168V227.819H279.467V228.739H278.168V232.715C278.168 233.326 278.425 233.603 278.998 233.603C279.126 233.603 279.384 233.583 279.461 233.571V234.51C279.326 234.542 279.017 234.561 278.753 234.561C277.524 234.561 277.048 234.06 277.048 232.773V228.739H276.051V227.819H277.048V226.205ZM283.726 234.51V228.739H282.793V227.819H283.726V227.073C283.726 225.786 284.324 225.175 285.559 225.175C285.81 225.175 286.081 225.201 286.241 225.227V226.134C286.106 226.114 285.92 226.095 285.733 226.095C285.128 226.095 284.839 226.417 284.839 227.079V227.819H286.209V228.739H284.845V234.51H283.726ZM289.818 234.626C287.966 234.626 286.717 233.294 286.717 231.165C286.717 229.029 287.966 227.704 289.818 227.704C291.665 227.704 292.913 229.029 292.913 231.165C292.913 233.294 291.665 234.626 289.818 234.626ZM289.818 233.641C291.002 233.641 291.774 232.741 291.774 231.165C291.774 229.588 291.002 228.688 289.818 228.688C288.635 228.688 287.856 229.588 287.856 231.165C287.856 232.741 288.635 233.641 289.818 233.641ZM294.045 234.51V227.819H295.1V228.913H295.126C295.344 228.173 295.962 227.704 296.747 227.704C296.94 227.704 297.107 227.736 297.197 227.749V228.836C297.107 228.804 296.869 228.771 296.599 228.771C295.73 228.771 295.164 229.395 295.164 230.341V234.51H294.045ZM301.366 237.012C301.231 237.012 301.006 237 300.883 236.974V236.035C301.006 236.06 301.179 236.067 301.321 236.067C301.945 236.067 302.292 235.764 302.55 234.986L302.704 234.516L300.234 227.819H301.43L303.283 233.391H303.302L305.155 227.819H306.332L303.701 234.98C303.129 236.543 302.575 237.012 301.366 237.012ZM309.8 234.626C307.947 234.626 306.699 233.294 306.699 231.165C306.699 229.029 307.947 227.704 309.8 227.704C311.646 227.704 312.894 229.029 312.894 231.165C312.894 233.294 311.646 234.626 309.8 234.626ZM309.8 233.641C310.984 233.641 311.756 232.741 311.756 231.165C311.756 229.588 310.984 228.688 309.8 228.688C308.616 228.688 307.838 229.588 307.838 231.165C307.838 232.741 308.616 233.641 309.8 233.641ZM319.521 227.819V234.51H318.459V233.423H318.433C318.035 234.195 317.34 234.626 316.31 234.626C314.85 234.626 313.994 233.68 313.994 232.162V227.819H315.114V231.962C315.114 233.05 315.622 233.635 316.658 233.635C317.745 233.635 318.401 232.889 318.401 231.75V227.819H319.521Z" fill="white"/>
<rect x="121.048" y="193.514" width="43.6432" height="43.6432" rx="5.4554" fill="white"/>
<path d="M141.441 206.128L139.75 207.818L140.091 208.188C140.461 208.586 140.915 208.657 141.029 208.344C141.072 208.23 141.313 207.975 141.583 207.776L142.038 207.421L141.881 207.875C141.782 208.131 141.597 208.543 141.455 208.813C141.214 209.267 141.214 209.282 141.526 209.623L141.839 209.964L142.35 209.665C142.634 209.495 143.046 209.31 143.274 209.239L143.671 209.125L143.416 209.438C143.259 209.608 143.004 209.864 142.833 210.006C142.648 210.148 142.506 210.347 142.506 210.447C142.506 210.674 143.103 211.242 143.359 211.242C143.572 211.242 146.754 208.117 146.768 207.904C146.768 207.818 146.527 207.506 146.228 207.222C145.703 206.696 145.66 206.696 145.262 206.881C144.083 207.449 143.558 207.691 143.472 207.691C143.416 207.691 143.629 207.208 143.941 206.611L144.509 205.545L143.97 204.977C143.671 204.679 143.359 204.423 143.288 204.423C143.203 204.423 142.379 205.19 141.441 206.128Z" fill="black"/>
<path d="M139.11 208.314L138.641 208.797L138.854 209.721L139.068 210.658L138.727 210.53C138.542 210.459 138.187 210.289 137.945 210.161C137.505 209.948 137.491 209.948 137.022 210.417C136.482 210.956 136.411 211.241 136.823 211.241C136.979 211.241 137.505 211.397 137.988 211.596C138.471 211.795 138.968 211.951 139.11 211.951C139.252 211.951 139.678 212.263 140.062 212.661C140.446 213.045 140.857 213.371 140.971 213.371C141.227 213.371 141.795 212.789 141.795 212.533C141.795 212.42 141.483 212.022 141.085 211.638C140.588 211.141 140.374 210.829 140.374 210.559C140.374 210.161 139.835 208.129 139.664 207.931C139.622 207.874 139.366 208.044 139.11 208.314Z" fill="black"/>
<path d="M145.788 210.416L144.04 212.135L145.319 213.413L146.583 214.677L146.967 214.308C147.166 214.095 147.336 213.882 147.336 213.825C147.336 213.768 147.052 213.442 146.697 213.115C146.001 212.461 145.915 212.177 146.313 211.964C146.526 211.85 146.668 211.921 147.052 212.305C147.62 212.902 147.748 212.916 148.188 212.447C148.515 212.092 148.515 212.092 148.245 211.779C148.103 211.595 147.862 211.367 147.734 211.268C147.435 211.041 147.407 210.728 147.677 210.629C147.791 210.586 148.174 210.856 148.6 211.282C148.998 211.68 149.339 211.978 149.353 211.936C149.382 211.907 149.552 211.708 149.737 211.495L150.078 211.098L148.884 209.89C148.231 209.237 147.663 208.683 147.62 208.683C147.563 208.683 146.754 209.464 145.788 210.416Z" fill="black"/>
<path d="M135.73 211.908C135.29 211.965 134.721 212.42 134.309 213.045C134.181 213.244 134.082 213.741 134.082 214.252C134.054 215.289 134.295 215.787 135.091 216.383C135.517 216.724 135.716 216.781 136.554 216.781C137.506 216.781 137.52 216.767 138.244 216.099L138.983 215.432V214.494C138.983 213.088 138.401 212.193 137.293 211.937C136.739 211.809 136.54 211.809 135.73 211.908ZM136.781 213.272C137.264 213.542 137.719 214.224 137.719 214.664C137.719 215.233 137.435 215.503 136.838 215.503C136.426 215.503 136.213 215.403 135.872 215.034C135.261 214.409 135.162 213.954 135.545 213.471C135.872 213.059 136.284 212.988 136.781 213.272Z" fill="black"/>
<path d="M150.162 212.334C149.963 212.561 149.253 213.258 148.571 213.911C147.889 214.565 147.335 215.175 147.335 215.275C147.335 215.445 147.789 215.928 148.144 216.127C148.258 216.184 148.599 215.942 149.025 215.516C149.423 215.119 149.764 214.792 149.807 214.792C149.835 214.792 149.807 215.005 149.736 215.246C149.664 215.502 149.537 216.099 149.466 216.568C149.338 217.377 149.352 217.42 149.707 217.803C149.92 218.017 150.162 218.201 150.247 218.201C150.417 218.201 150.844 217.107 150.915 216.497C150.957 216.184 151.028 216.141 151.668 216.099C152.634 216.042 153.017 215.673 153.017 214.834C153.017 214.252 152.932 214.124 151.994 213.073C151.426 212.462 150.858 211.951 150.744 211.951C150.616 211.951 150.361 212.121 150.162 212.334ZM151.596 214.479C151.596 214.877 151.256 215.019 150.801 214.806C150.304 214.579 150.233 214.266 150.616 213.954C150.929 213.712 150.971 213.698 151.27 213.925C151.44 214.053 151.596 214.295 151.596 214.479Z" fill="black"/>
<path d="M131.922 215.488C131.695 215.63 131.127 216.127 130.686 216.596L129.863 217.42L131.61 219.167L133.357 220.9L133.826 220.417L134.309 219.92L133.584 219.11C133.173 218.655 132.874 218.272 132.903 218.243C132.931 218.215 133.414 218.357 133.996 218.556C135.318 218.996 135.403 218.996 135.872 218.513C136.383 217.988 136.355 217.846 135.73 217.661C135.431 217.576 134.948 217.434 134.664 217.348C134.139 217.192 134.124 217.164 134.124 216.496C134.124 215.899 134.067 215.772 133.712 215.516C133.201 215.147 132.476 215.132 131.922 215.488ZM132.803 217.448L132.42 217.831L132.135 217.547C131.795 217.221 131.866 216.88 132.32 216.667C132.562 216.553 132.69 216.581 132.917 216.794C133.187 217.064 133.187 217.064 132.803 217.448Z" fill="black"/>
<path d="M152.535 217.193L150.845 218.898L151.385 219.509C151.697 219.85 152.223 220.404 152.564 220.745L153.189 221.37L153.672 220.872L154.169 220.389L153.515 219.722C152.748 218.912 152.734 218.94 154.14 217.591C154.695 217.051 155.149 216.54 155.149 216.44C155.149 216.284 154.439 215.503 154.283 215.503C154.254 215.503 153.459 216.27 152.535 217.193Z" fill="black"/>
<path d="M128.271 218.912C127.66 219.509 127.163 220.091 127.163 220.191C127.163 220.39 130.288 223.6 130.473 223.6C130.671 223.6 132.845 221.441 132.845 221.256C132.845 221.171 132.689 220.944 132.504 220.773L132.163 220.447L131.424 221.171L130.7 221.881L130.387 221.612L130.089 221.327L130.686 220.717L131.282 220.106L130.885 219.722L130.473 219.324L129.862 219.921C129.308 220.461 129.237 220.489 129.038 220.276C128.825 220.063 128.867 219.992 129.478 219.367C129.848 218.998 130.146 218.628 130.146 218.543C130.146 218.401 129.549 217.762 129.421 217.79C129.393 217.79 128.867 218.302 128.271 218.912Z" fill="black"/>
<path d="M155.448 220.205L153.7 221.924L154.141 222.336C154.396 222.563 154.638 222.748 154.695 222.748C154.851 222.734 158.132 219.537 158.132 219.381C158.132 219.253 157.394 218.486 157.266 218.486C157.237 218.486 156.414 219.253 155.448 220.205Z" fill="black"/>
<path d="M157.095 221.725C156.186 222.634 155.433 223.43 155.433 223.486C155.433 223.543 155.617 223.785 155.845 224.04L156.257 224.495L157.265 223.444C157.819 222.861 158.274 222.464 158.274 222.549C158.274 222.634 158.189 223.018 158.075 223.401C157.961 223.785 157.833 224.367 157.791 224.694C157.748 225.021 157.663 225.376 157.62 225.489C157.549 225.688 158.43 226.725 158.672 226.725C158.87 226.725 162.109 223.472 162.095 223.287C162.095 223.188 161.896 222.947 161.669 222.762L161.229 222.421L160.248 223.401C159.709 223.941 159.268 224.282 159.268 224.182C159.268 224.083 159.424 223.543 159.623 223.003C160.135 221.597 160.106 221.157 159.453 220.546C159.155 220.276 158.885 220.049 158.842 220.049C158.799 220.049 158.018 220.801 157.095 221.725Z" fill="black"/>
<path d="M125.032 222.15C125.032 222.221 124.876 222.349 124.677 222.435C124.478 222.52 124.322 222.719 124.322 222.861C124.322 222.989 125.075 223.855 125.998 224.779L127.689 226.441L128.811 225.304C129.422 224.679 129.962 224.125 129.99 224.097C130.033 224.054 129.877 223.827 129.649 223.599L129.237 223.173L128.513 223.884L127.802 224.58L126.538 223.315C125.373 222.122 125.032 221.866 125.032 222.15Z" fill="black"/>
<path d="M143.396 212.567L128.449 227.336H158.085L143.396 212.567Z" fill="#349F9B"/>
<rect x="71.6406" y="33.7617" width="2.47037" height="186.101" fill="url(#paint1_linear_1124_1545)"/>
<circle cx="72.8758" cy="35.8204" r="6.99938" fill="#B4B4B4"/>
<circle cx="72.8758" cy="76.1698" r="6.99938" fill="#B4B4B4"/>
<circle cx="72.8758" cy="124.754" r="6.99938" fill="#B4B4B4"/>
<circle cx="72.8758" cy="219.451" r="6.99938" fill="#5F2EEA"/>
<path d="M99.2506 324.52C102.684 324.52 104.848 326.828 104.848 330.527C104.848 334.218 102.684 336.526 99.2506 336.526C95.8088 336.526 93.6537 334.218 93.6537 330.527C93.6537 326.828 95.8088 324.52 99.2506 324.52ZM99.2506 326.546C97.3528 326.546 96.1305 328.09 96.1305 330.527C96.1305 332.955 97.3447 334.491 99.2506 334.491C101.148 334.491 102.363 332.955 102.363 330.527C102.363 328.09 101.148 326.546 99.2506 326.546ZM106.215 336.325V327.704H108.482V329.24H108.531C108.989 328.171 109.898 327.543 111.224 327.543C113.138 327.543 114.216 328.75 114.216 330.768V336.325H111.868V331.259C111.868 330.133 111.337 329.489 110.284 329.489C109.23 329.489 108.563 330.261 108.563 331.379V336.325H106.215ZM120.826 336.461C119.564 336.461 118.599 335.85 118.124 334.845H118.076V336.325H115.76V324.721H118.108V329.2H118.156C118.631 328.179 119.588 327.567 120.818 327.567C122.989 327.567 124.324 329.232 124.324 332.014C124.324 334.789 122.997 336.461 120.826 336.461ZM120.014 329.449C118.88 329.449 118.1 330.47 118.1 332.014C118.1 333.574 118.872 334.572 120.014 334.572C121.188 334.572 121.92 333.591 121.92 332.014C121.92 330.446 121.18 329.449 120.014 329.449ZM129.503 336.51C126.898 336.51 125.233 334.837 125.233 332.006C125.233 329.216 126.922 327.519 129.503 327.519C132.084 327.519 133.773 329.208 133.773 332.006C133.773 334.845 132.108 336.51 129.503 336.51ZM129.503 334.716C130.653 334.716 131.385 333.743 131.385 332.014C131.385 330.302 130.645 329.312 129.503 329.312C128.361 329.312 127.613 330.302 127.613 332.014C127.613 333.743 128.345 334.716 129.503 334.716ZM134.987 336.325V327.704H137.255V329.256H137.303C137.609 328.163 138.341 327.567 139.354 327.567C139.627 327.567 139.861 327.608 140.021 327.656V329.723C139.828 329.642 139.507 329.586 139.169 329.586C138.011 329.586 137.335 330.294 137.335 331.508V336.325H134.987ZM143.897 336.461C141.742 336.461 140.383 334.757 140.383 331.998C140.383 329.264 141.75 327.567 143.913 327.567C145.16 327.567 146.125 328.227 146.543 329.184H146.591V324.721H148.939V336.325H146.623V334.845H146.583C146.165 335.794 145.168 336.461 143.897 336.461ZM144.694 329.449C143.511 329.449 142.788 330.438 142.788 332.014C142.788 333.599 143.511 334.572 144.694 334.572C145.86 334.572 146.607 333.591 146.607 332.014C146.607 330.446 145.86 329.449 144.694 329.449ZM150.548 336.325V327.704H152.896V336.325H150.548ZM151.722 326.755C151.014 326.755 150.467 326.216 150.467 325.541C150.467 324.857 151.014 324.327 151.722 324.327C152.429 324.327 152.976 324.857 152.976 325.541C152.976 326.216 152.429 326.755 151.722 326.755ZM154.464 336.325V327.704H156.732V329.24H156.78C157.238 328.171 158.147 327.543 159.474 327.543C161.388 327.543 162.465 328.75 162.465 330.768V336.325H160.117V331.259C160.117 330.133 159.586 329.489 158.533 329.489C157.48 329.489 156.812 330.261 156.812 331.379V336.325H154.464ZM167.934 334.491C169.108 334.491 169.856 333.558 169.856 331.998C169.856 330.446 169.108 329.449 167.934 329.449C166.776 329.449 166.044 330.43 166.044 331.998C166.044 333.574 166.768 334.491 167.934 334.491ZM167.893 339.574C165.626 339.574 164.09 338.472 163.905 336.936H166.205C166.39 337.531 167.065 337.941 167.958 337.941C169.172 337.941 169.848 337.266 169.848 336.268V334.757H169.799C169.397 335.673 168.384 336.301 167.138 336.301C165.031 336.301 163.639 334.676 163.639 331.982C163.639 329.248 164.99 327.567 167.178 327.567C168.416 327.567 169.389 328.219 169.839 329.208H169.88V327.704H172.196V336.204C172.196 338.263 170.475 339.574 167.893 339.574ZM176.763 333.02H179.103C179.216 333.977 180.213 334.604 181.5 334.604C182.794 334.604 183.679 333.985 183.679 333.132C183.679 332.376 183.124 331.958 181.725 331.645L180.213 331.315C178.074 330.856 177.021 329.771 177.021 328.074C177.021 325.935 178.87 324.52 181.46 324.52C184.162 324.52 185.858 325.911 185.899 328.01H183.623C183.542 327.029 182.682 326.434 181.468 326.434C180.269 326.434 179.465 327.005 179.465 327.865C179.465 328.581 180.028 328.983 181.363 329.288L182.77 329.586C185.094 330.084 186.108 331.082 186.108 332.851C186.108 335.102 184.282 336.526 181.403 336.526C178.613 336.526 176.836 335.199 176.763 333.02ZM188.03 325.718H190.378V327.704H191.97V329.473H190.378V333.599C190.378 334.258 190.699 334.572 191.391 334.572C191.6 334.572 191.817 334.556 191.962 334.531V336.26C191.721 336.317 191.319 336.357 190.844 336.357C188.818 336.357 188.03 335.681 188.03 334.001V329.473H186.815V327.704H188.03V325.718ZM196.996 329.256C195.967 329.256 195.227 330.036 195.146 331.114H198.805C198.757 330.012 198.041 329.256 196.996 329.256ZM198.837 333.687H200.993C200.735 335.376 199.191 336.51 197.06 336.51C194.406 336.51 192.814 334.813 192.814 332.055C192.814 329.304 194.423 327.519 196.972 327.519C199.481 327.519 201.065 329.216 201.065 331.838V332.553H195.122V332.698C195.122 333.928 195.902 334.773 197.1 334.773C197.961 334.773 198.62 334.346 198.837 333.687ZM207.313 327.567C209.501 327.567 210.843 329.232 210.843 332.014C210.843 334.789 209.509 336.461 207.353 336.461C206.099 336.461 205.134 335.85 204.676 334.877H204.627V339.139H202.279V327.704H204.595V329.208H204.643C205.11 328.195 206.067 327.567 207.313 327.567ZM206.525 334.572C207.699 334.572 208.439 333.583 208.439 332.014C208.439 330.454 207.699 329.449 206.525 329.449C205.375 329.449 204.619 330.47 204.619 332.014C204.619 333.574 205.375 334.572 206.525 334.572ZM220.654 336.526C217.277 336.526 215.162 334.266 215.162 330.519C215.162 326.779 217.293 324.52 220.654 324.52C223.445 324.52 225.568 326.289 225.753 328.886H223.388C223.163 327.463 222.07 326.53 220.654 326.53C218.821 326.53 217.639 328.066 217.639 330.511C217.639 332.987 218.805 334.515 220.662 334.515C222.102 334.515 223.139 333.671 223.396 332.296H225.761C225.487 334.885 223.501 336.526 220.654 336.526ZM231.02 336.51C228.414 336.51 226.75 334.837 226.75 332.006C226.75 329.216 228.438 327.519 231.02 327.519C233.601 327.519 235.29 329.208 235.29 332.006C235.29 334.845 233.625 336.51 231.02 336.51ZM231.02 334.716C232.17 334.716 232.901 333.743 232.901 332.014C232.901 330.302 232.162 329.312 231.02 329.312C229.878 329.312 229.13 330.302 229.13 332.014C229.13 333.743 229.862 334.716 231.02 334.716ZM236.504 336.325V327.704H238.772V329.264H238.82C239.182 328.227 240.107 327.543 241.281 327.543C242.527 327.543 243.396 328.187 243.685 329.312H243.733C244.119 328.227 245.149 327.543 246.411 327.543C248.1 327.543 249.234 328.701 249.234 330.438V336.325H246.886V331.025C246.886 330.028 246.387 329.481 245.479 329.481C244.586 329.481 243.999 330.133 243.999 331.09V336.325H241.739V330.953C241.739 330.028 241.216 329.481 240.348 329.481C239.455 329.481 238.852 330.157 238.852 331.122V336.325H236.504ZM255.756 327.567C257.943 327.567 259.286 329.232 259.286 332.014C259.286 334.789 257.951 336.461 255.796 336.461C254.541 336.461 253.576 335.85 253.118 334.877H253.07V339.139H250.722V327.704H253.038V329.208H253.086C253.552 328.195 254.509 327.567 255.756 327.567ZM254.968 334.572C256.142 334.572 256.881 333.583 256.881 332.014C256.881 330.454 256.142 329.449 254.968 329.449C253.818 329.449 253.062 330.47 253.062 332.014C253.062 333.574 253.818 334.572 254.968 334.572ZM260.556 336.325V324.721H262.905V336.325H260.556ZM268.357 329.256C267.327 329.256 266.588 330.036 266.507 331.114H270.166C270.118 330.012 269.402 329.256 268.357 329.256ZM270.198 333.687H272.353C272.096 335.376 270.552 336.51 268.421 336.51C265.767 336.51 264.175 334.813 264.175 332.055C264.175 329.304 265.783 327.519 268.333 327.519C270.842 327.519 272.426 329.216 272.426 331.838V332.553H266.483V332.698C266.483 333.928 267.263 334.773 268.461 334.773C269.322 334.773 269.981 334.346 270.198 333.687ZM274.267 325.718H276.615V327.704H278.208V329.473H276.615V333.599C276.615 334.258 276.937 334.572 277.629 334.572C277.838 334.572 278.055 334.556 278.2 334.531V336.26C277.958 336.317 277.556 336.357 277.082 336.357C275.055 336.357 274.267 335.681 274.267 334.001V329.473H273.053V327.704H274.267V325.718ZM283.234 329.256C282.204 329.256 281.465 330.036 281.384 331.114H285.043C284.995 330.012 284.279 329.256 283.234 329.256ZM285.075 333.687H287.23C286.973 335.376 285.429 336.51 283.298 336.51C280.644 336.51 279.052 334.813 279.052 332.055C279.052 329.304 280.66 327.519 283.21 327.519C285.719 327.519 287.303 329.216 287.303 331.838V332.553H281.36V332.698C281.36 333.928 282.14 334.773 283.338 334.773C284.199 334.773 284.858 334.346 285.075 333.687ZM291.718 336.461C289.562 336.461 288.203 334.757 288.203 331.998C288.203 329.264 289.57 327.567 291.734 327.567C292.98 327.567 293.945 328.227 294.363 329.184H294.411V324.721H296.76V336.325H294.444V334.845H294.403C293.985 335.794 292.988 336.461 291.718 336.461ZM292.514 329.449C291.332 329.449 290.608 330.438 290.608 332.014C290.608 333.599 291.332 334.572 292.514 334.572C293.68 334.572 294.428 333.591 294.428 332.014C294.428 330.446 293.68 329.449 292.514 329.449Z" fill="white"/>
<path d="M378.21 333.521V337.036H376.103V333.521H372.822V331.471H376.103V327.997H378.21V331.471H381.491V333.521H378.21ZM385.841 337.148V327.772H385.793L382.834 329.814V327.627L385.833 325.544H388.246V337.148H385.841ZM395.314 337.406C392.821 337.406 391.028 335.926 390.956 333.827H393.199C393.336 334.808 394.204 335.484 395.33 335.484C396.601 335.484 397.477 334.599 397.477 333.336C397.477 332.05 396.601 331.149 395.346 331.149C394.47 331.149 393.714 331.551 393.312 332.219H391.14L391.711 325.544H399.094V327.474H393.617L393.352 330.651H393.4C393.875 329.871 394.799 329.38 395.982 329.38C398.201 329.38 399.793 331.012 399.793 333.272C399.793 335.733 397.976 337.406 395.314 337.406ZM405.977 328.327C405.977 330.176 404.956 331.334 403.331 331.334C401.715 331.334 400.686 330.176 400.686 328.327C400.686 326.485 401.715 325.319 403.331 325.319C404.956 325.319 405.977 326.485 405.977 328.327ZM403.331 329.911C403.854 329.911 404.176 329.316 404.176 328.319C404.176 327.321 403.854 326.718 403.331 326.718C402.809 326.718 402.487 327.321 402.487 328.319C402.487 329.316 402.809 329.911 403.331 329.911ZM403.782 337.148H401.836L406.339 330.98L410.304 325.544H412.242L407.867 331.543L403.782 337.148ZM413.392 334.301C413.392 336.151 412.37 337.317 410.746 337.317C409.129 337.317 408.1 336.151 408.1 334.301C408.1 332.46 409.129 331.294 410.746 331.294C412.37 331.294 413.392 332.46 413.392 334.301ZM410.746 335.886C411.269 335.886 411.59 335.291 411.59 334.293C411.59 333.296 411.269 332.693 410.746 332.693C410.223 332.693 409.901 333.296 409.901 334.293C409.901 335.291 410.223 335.886 410.746 335.886Z" fill="#391952"/>
<path d="M106.38 290.975H105.367V282.853H106.38V286.815H106.437L110.022 282.853H111.3L107.962 286.45L111.599 290.975H110.304L107.259 287.17L106.38 288.138V290.975ZM114.07 290.244C114.993 290.244 115.702 289.596 115.702 288.752V288.273L114.137 288.369C113.349 288.42 112.899 288.769 112.899 289.32C112.899 289.878 113.366 290.244 114.07 290.244ZM113.85 291.077C112.685 291.077 111.903 290.373 111.903 289.32C111.903 288.318 112.674 287.688 114.025 287.609L115.702 287.513V287.024C115.702 286.309 115.229 285.881 114.419 285.881C113.664 285.881 113.192 286.236 113.068 286.81H112.122C112.19 285.797 113.057 285.02 114.441 285.02C115.815 285.02 116.682 285.763 116.682 286.928V290.975H115.753V289.968H115.73C115.381 290.638 114.638 291.077 113.85 291.077ZM117.926 290.975V285.121H118.849V286.056H118.871C119.147 285.436 119.744 285.02 120.532 285.02C121.331 285.02 121.922 285.425 122.176 286.134H122.198C122.525 285.436 123.211 285.02 124.033 285.02C125.193 285.02 125.942 285.774 125.942 286.934V290.975H124.962V287.159C124.962 286.359 124.517 285.887 123.746 285.887C122.969 285.887 122.423 286.461 122.423 287.255V290.975H121.444V287.052C121.444 286.348 120.971 285.887 120.245 285.887C119.468 285.887 118.905 286.495 118.905 287.305V290.975H117.926ZM129.539 285.87C128.621 285.87 127.979 286.573 127.917 287.547H131.098C131.075 286.568 130.462 285.87 129.539 285.87ZM131.075 289.298H132.038C131.869 290.322 130.878 291.077 129.6 291.077C127.923 291.077 126.904 289.911 126.904 288.071C126.904 286.253 127.94 285.02 129.555 285.02C131.137 285.02 132.111 286.168 132.111 287.941V288.313H127.912V288.369C127.912 289.489 128.57 290.227 129.623 290.227C130.366 290.227 130.912 289.85 131.075 289.298ZM133.417 283.708H134.396V285.121H135.534V285.926H134.396V289.405C134.396 289.94 134.622 290.182 135.123 290.182C135.235 290.182 135.46 290.165 135.528 290.153V290.975C135.41 291.003 135.139 291.02 134.909 291.02C133.834 291.02 133.417 290.581 133.417 289.455V285.926H132.544V285.121H133.417V283.708ZM136.581 290.975V285.121H137.504V286.078H137.526C137.718 285.431 138.258 285.02 138.945 285.02C139.114 285.02 139.26 285.048 139.339 285.059V286.01C139.26 285.982 139.052 285.954 138.815 285.954C138.055 285.954 137.56 286.5 137.56 287.328V290.975H136.581ZM140.189 290.975V285.121H141.168V290.975H140.189ZM140.679 284.136C140.346 284.136 140.071 283.86 140.071 283.528C140.071 283.19 140.346 282.92 140.679 282.92C141.016 282.92 141.292 283.19 141.292 283.528C141.292 283.86 141.016 284.136 140.679 284.136ZM147.355 287.041H146.398C146.257 286.405 145.762 285.881 144.9 285.881C143.887 285.881 143.2 286.72 143.2 288.048C143.2 289.41 143.898 290.215 144.912 290.215C145.711 290.215 146.234 289.793 146.403 289.09H147.366C147.214 290.255 146.234 291.077 144.906 291.077C143.285 291.077 142.204 289.934 142.204 288.048C142.204 286.202 143.279 285.02 144.895 285.02C146.358 285.02 147.231 285.988 147.355 287.041ZM148.165 286.737C148.165 285.735 149.06 285.02 150.349 285.02C151.56 285.02 152.449 285.74 152.494 286.731H151.56C151.492 286.168 151.036 285.819 150.316 285.819C149.601 285.819 149.128 286.174 149.128 286.686C149.128 287.091 149.437 287.361 150.102 287.53L151.008 287.75C152.19 288.048 152.618 288.476 152.618 289.337C152.618 290.356 151.655 291.077 150.287 291.077C149.004 291.077 148.109 290.379 148.008 289.343H148.987C149.094 289.951 149.556 290.277 150.349 290.277C151.143 290.277 151.633 289.94 151.633 289.41C151.633 288.994 151.391 288.769 150.732 288.594L149.702 288.33C148.672 288.065 148.165 287.536 148.165 286.737ZM155.9 286.737C155.9 285.735 156.795 285.02 158.084 285.02C159.294 285.02 160.183 285.74 160.228 286.731H159.294C159.226 286.168 158.77 285.819 158.05 285.819C157.335 285.819 156.862 286.174 156.862 286.686C156.862 287.091 157.172 287.361 157.836 287.53L158.742 287.75C159.924 288.048 160.352 288.476 160.352 289.337C160.352 290.356 159.39 291.077 158.022 291.077C156.738 291.077 155.843 290.379 155.742 289.343H156.721C156.828 289.951 157.29 290.277 158.084 290.277C158.877 290.277 159.367 289.94 159.367 289.41C159.367 288.994 159.125 288.769 158.466 288.594L157.436 288.33C156.406 288.065 155.9 287.536 155.9 286.737ZM163.718 285.87C162.801 285.87 162.159 286.573 162.097 287.547H165.278C165.255 286.568 164.642 285.87 163.718 285.87ZM165.255 289.298H166.218C166.049 290.322 165.058 291.077 163.78 291.077C162.103 291.077 161.084 289.911 161.084 288.071C161.084 286.253 162.12 285.02 163.735 285.02C165.317 285.02 166.291 286.168 166.291 287.941V288.313H162.092V288.369C162.092 289.489 162.75 290.227 163.803 290.227C164.546 290.227 165.092 289.85 165.255 289.298ZM167.282 290.975V285.121H168.205V286.056H168.227C168.554 285.425 169.179 285.02 170.085 285.02C171.368 285.02 172.111 285.847 172.111 287.176V290.975H171.132V287.35C171.132 286.405 170.687 285.887 169.787 285.887C168.863 285.887 168.261 286.54 168.261 287.53V290.975H167.282ZM175.579 291.077C174.087 291.077 173.074 289.883 173.074 288.048C173.074 286.213 174.082 285.02 175.556 285.02C176.395 285.02 177.071 285.431 177.42 286.072H177.442V282.853H178.422V290.975H177.487V289.985H177.47C177.093 290.66 176.423 291.077 175.579 291.077ZM175.765 285.881C174.729 285.881 174.076 286.725 174.076 288.048C174.076 289.377 174.729 290.215 175.765 290.215C176.772 290.215 177.448 289.36 177.448 288.048C177.448 286.742 176.772 285.881 175.765 285.881ZM179.643 286.737C179.643 285.735 180.538 285.02 181.827 285.02C183.037 285.02 183.927 285.74 183.972 286.731H183.037C182.97 286.168 182.514 285.819 181.793 285.819C181.079 285.819 180.606 286.174 180.606 286.686C180.606 287.091 180.915 287.361 181.58 287.53L182.486 287.75C183.668 288.048 184.096 288.476 184.096 289.337C184.096 290.356 183.133 291.077 181.765 291.077C180.482 291.077 179.587 290.379 179.486 289.343H180.465C180.572 289.951 181.034 290.277 181.827 290.277C182.621 290.277 183.111 289.94 183.111 289.41C183.111 288.994 182.869 288.769 182.21 288.594L181.18 288.33C180.15 288.065 179.643 287.536 179.643 286.737ZM190.322 285.02C191.813 285.02 192.826 286.213 192.826 288.048C192.826 289.883 191.819 291.077 190.344 291.077C189.505 291.077 188.83 290.666 188.481 290.024H188.458V292.929H187.479V285.121H188.408V286.112H188.43C188.79 285.453 189.472 285.02 190.322 285.02ZM190.13 290.215C191.172 290.215 191.825 289.377 191.825 288.048C191.825 286.725 191.172 285.881 190.13 285.881C189.128 285.881 188.453 286.748 188.453 288.048C188.453 289.354 189.128 290.215 190.13 290.215ZM198.624 285.121V290.975H197.696V290.024H197.673C197.324 290.7 196.716 291.077 195.816 291.077C194.538 291.077 193.789 290.249 193.789 288.921V285.121H194.769V288.746C194.769 289.698 195.213 290.21 196.12 290.21C197.071 290.21 197.645 289.557 197.645 288.56V285.121H198.624ZM199.795 286.737C199.795 285.735 200.69 285.02 201.979 285.02C203.19 285.02 204.079 285.74 204.124 286.731H203.19C203.122 286.168 202.666 285.819 201.946 285.819C201.231 285.819 200.758 286.174 200.758 286.686C200.758 287.091 201.067 287.361 201.732 287.53L202.638 287.75C203.82 288.048 204.248 288.476 204.248 289.337C204.248 290.356 203.285 291.077 201.917 291.077C200.634 291.077 199.739 290.379 199.638 289.343H200.617C200.724 289.951 201.186 290.277 201.979 290.277C202.773 290.277 203.263 289.94 203.263 289.41C203.263 288.994 203.021 288.769 202.362 288.594L201.332 288.33C200.302 288.065 199.795 287.536 199.795 286.737ZM205.317 290.975V282.853H206.297V286.056H206.319C206.646 285.403 207.288 285.02 208.177 285.02C209.46 285.02 210.237 285.887 210.237 287.193V290.975H209.258V287.373C209.258 286.444 208.791 285.887 207.873 285.887C206.899 285.887 206.297 286.551 206.297 287.564V290.975H205.317ZM213.829 285.87C212.911 285.87 212.269 286.573 212.207 287.547H215.388C215.365 286.568 214.752 285.87 213.829 285.87ZM215.365 289.298H216.328C216.159 290.322 215.168 291.077 213.891 291.077C212.213 291.077 211.194 289.911 211.194 288.071C211.194 286.253 212.23 285.02 213.846 285.02C215.427 285.02 216.401 286.168 216.401 287.941V288.313H212.202V288.369C212.202 289.489 212.86 290.227 213.913 290.227C214.656 290.227 215.202 289.85 215.365 289.298ZM217.291 286.737C217.291 285.735 218.186 285.02 219.475 285.02C220.685 285.02 221.574 285.74 221.619 286.731H220.685C220.617 286.168 220.161 285.819 219.441 285.819C218.726 285.819 218.253 286.174 218.253 286.686C218.253 287.091 218.563 287.361 219.227 287.53L220.133 287.75C221.315 288.048 221.743 288.476 221.743 289.337C221.743 290.356 220.781 291.077 219.413 291.077C218.129 291.077 217.234 290.379 217.133 289.343H218.112C218.219 289.951 218.681 290.277 219.475 290.277C220.268 290.277 220.758 289.94 220.758 289.41C220.758 288.994 220.516 288.769 219.857 288.594L218.827 288.33C217.797 288.065 217.291 287.536 217.291 286.737ZM225.441 283.708H226.421V285.121H227.558V285.926H226.421V289.405C226.421 289.94 226.646 290.182 227.147 290.182C227.26 290.182 227.485 290.165 227.552 290.153V290.975C227.434 291.003 227.164 291.02 226.933 291.02C225.858 291.02 225.441 290.581 225.441 289.455V285.926H224.569V285.121H225.441V283.708ZM230.862 291.077C229.241 291.077 228.149 289.911 228.149 288.048C228.149 286.179 229.241 285.02 230.862 285.02C232.478 285.02 233.57 286.179 233.57 288.048C233.57 289.911 232.478 291.077 230.862 291.077ZM230.862 290.215C231.898 290.215 232.574 289.427 232.574 288.048C232.574 286.669 231.898 285.881 230.862 285.881C229.827 285.881 229.145 286.669 229.145 288.048C229.145 289.427 229.827 290.215 230.862 290.215ZM237.24 283.708H238.22V285.121H239.357V285.926H238.22V289.405C238.22 289.94 238.445 290.182 238.946 290.182C239.058 290.182 239.283 290.165 239.351 290.153V290.975C239.233 291.003 238.963 291.02 238.732 291.02C237.657 291.02 237.24 290.581 237.24 289.455V285.926H236.368V285.121H237.24V283.708ZM240.454 290.975V282.853H241.434V286.056H241.456C241.783 285.403 242.424 285.02 243.314 285.02C244.597 285.02 245.374 285.887 245.374 287.193V290.975H244.395V287.373C244.395 286.444 243.927 285.887 243.01 285.887C242.036 285.887 241.434 286.551 241.434 287.564V290.975H240.454ZM248.966 285.87C248.048 285.87 247.406 286.573 247.344 287.547H250.525C250.502 286.568 249.889 285.87 248.966 285.87ZM250.502 289.298H251.465C251.296 290.322 250.305 291.077 249.027 291.077C247.35 291.077 246.331 289.911 246.331 288.071C246.331 286.253 247.367 285.02 248.982 285.02C250.564 285.02 251.538 286.168 251.538 287.941V288.313H247.339V288.369C247.339 289.489 247.997 290.227 249.05 290.227C249.793 290.227 250.339 289.85 250.502 289.298ZM254.792 286.737C254.792 285.735 255.687 285.02 256.976 285.02C258.186 285.02 259.075 285.74 259.12 286.731H258.186C258.118 286.168 257.662 285.819 256.942 285.819C256.227 285.819 255.754 286.174 255.754 286.686C255.754 287.091 256.064 287.361 256.728 287.53L257.634 287.75C258.816 288.048 259.244 288.476 259.244 289.337C259.244 290.356 258.282 291.077 256.914 291.077C255.63 291.077 254.735 290.379 254.634 289.343H255.613C255.72 289.951 256.182 290.277 256.976 290.277C257.769 290.277 258.259 289.94 258.259 289.41C258.259 288.994 258.017 288.769 257.358 288.594L256.328 288.33C255.298 288.065 254.792 287.536 254.792 286.737ZM262.61 285.87C261.693 285.87 261.051 286.573 260.989 287.547H264.17C264.147 286.568 263.534 285.87 262.61 285.87ZM264.147 289.298H265.11C264.941 290.322 263.95 291.077 262.672 291.077C260.995 291.077 259.976 289.911 259.976 288.071C259.976 286.253 261.012 285.02 262.627 285.02C264.209 285.02 265.183 286.168 265.183 287.941V288.313H260.984V288.369C260.984 289.489 261.642 290.227 262.695 290.227C263.438 290.227 263.984 289.85 264.147 289.298ZM268.555 290.159C269.574 290.159 270.255 289.315 270.255 288.026C270.255 286.737 269.574 285.881 268.555 285.881C267.547 285.881 266.889 286.714 266.889 288.026C266.889 289.337 267.547 290.159 268.555 290.159ZM268.589 293.182C267.299 293.182 266.281 292.456 266.117 291.459H267.125C267.316 291.994 267.896 292.349 268.628 292.349C269.641 292.349 270.255 291.763 270.255 290.891V289.968H270.232C269.872 290.604 269.18 291.02 268.358 291.02C266.866 291.02 265.887 289.844 265.887 288.026C265.887 286.191 266.866 285.02 268.38 285.02C269.208 285.02 269.894 285.425 270.283 286.106H270.3V285.121H271.234V290.857C271.234 292.253 270.204 293.182 268.589 293.182ZM272.512 290.975V285.121H273.435V286.056H273.458C273.734 285.436 274.33 285.02 275.118 285.02C275.918 285.02 276.509 285.425 276.762 286.134H276.785C277.111 285.436 277.798 285.02 278.62 285.02C279.779 285.02 280.528 285.774 280.528 286.934V290.975H279.548V287.159C279.548 286.359 279.104 285.887 278.333 285.887C277.556 285.887 277.01 286.461 277.01 287.255V290.975H276.03V287.052C276.03 286.348 275.557 285.887 274.831 285.887C274.054 285.887 273.491 286.495 273.491 287.305V290.975H272.512ZM284.125 285.87C283.207 285.87 282.566 286.573 282.504 287.547H285.684C285.662 286.568 285.048 285.87 284.125 285.87ZM285.662 289.298H286.624C286.455 290.322 285.465 291.077 284.187 291.077C282.509 291.077 281.49 289.911 281.49 288.071C281.49 286.253 282.526 285.02 284.142 285.02C285.724 285.02 286.697 286.168 286.697 287.941V288.313H282.498V288.369C282.498 289.489 283.157 290.227 284.209 290.227C284.952 290.227 285.498 289.85 285.662 289.298ZM287.688 290.975V285.121H288.611V286.056H288.634C288.96 285.425 289.585 285.02 290.491 285.02C291.775 285.02 292.518 285.847 292.518 287.176V290.975H291.538V287.35C291.538 286.405 291.094 285.887 290.193 285.887C289.27 285.887 288.668 286.54 288.668 287.53V290.975H287.688ZM294.083 283.708H295.062V285.121H296.199V285.926H295.062V289.405C295.062 289.94 295.287 290.182 295.788 290.182C295.901 290.182 296.126 290.165 296.194 290.153V290.975C296.075 291.003 295.805 291.02 295.574 291.02C294.499 291.02 294.083 290.581 294.083 289.455V285.926H293.21V285.121H294.083V283.708Z" fill="white"/>
<defs>
<radialGradient id="paint0_radial_1124_1545" cx="0" cy="0" r="1" gradientUnits="userSpaceOnUse" gradientTransform="translate(333.912 161.398) rotate(90) scale(161.398 333.088)">
<stop stop-color="#391952"/>
<stop offset="1" stop-color="#D9D9D9" stop-opacity="0"/>
</radialGradient>
<linearGradient id="paint1_linear_1124_1545" x1="72.8758" y1="33.7617" x2="72.8758" y2="219.863" gradientUnits="userSpaceOnUse">
<stop offset="0.55671" stop-color="#E4E4E4"/>
<stop offset="1" stop-color="#5F2EEA"/>
</linearGradient>
</defs>
</svg>
