<svg width="684" height="800" viewBox="0 0 684 800" fill="none" xmlns="http://www.w3.org/2000/svg">
<g clip-path="url(#clip0_463_47)">
<g clip-path="url(#clip1_463_47)">
<path d="M50.3865 -6.18066H133.953L804.941 667.265L764.387 707.819L50.3865 -6.18066Z" fill="white"/>
<path d="M1427.99 129H1344.43L673.438 802.446L713.992 843L1427.99 129Z" fill="#FF7707"/>
<path d="M218.745 -6.18066H302.311L973.299 667.265L932.745 707.819L218.745 -6.18066Z" fill="white"/>
<path d="M1259.64 129H1176.07L505.083 802.446L545.638 843L1259.64 129Z" fill="#FF7707"/>
<path d="M387.112 -6.18066H470.678L1141.67 667.265L1101.11 707.819L387.112 -6.18066Z" fill="white"/>
<path d="M1091.27 129H1007.71L336.721 802.446L377.275 843L1091.27 129Z" fill="#FF7707"/>
<path d="M555.467 -6.18066H639.033L1310.02 667.265L1269.47 707.819L555.467 -6.18066Z" fill="white"/>
<path d="M922.916 129H839.35L168.362 802.446L208.916 843L922.916 129Z" fill="#FF7707"/>
<path d="M754.557 129H670.991L0.00317383 802.446L40.5574 843L754.557 129Z" fill="#FF7707"/>
<path d="M671.206 129H754.772L1425.76 -544.446L1385.21 -585L671.206 129Z" fill="#FF7707"/>
</g>
</g>
<defs>
<clipPath id="clip0_463_47">
<rect width="684" height="800" fill="white"/>
</clipPath>
<clipPath id="clip1_463_47">
<rect width="1478.38" height="1428" fill="white" transform="matrix(-1 0 0 1 1478.38 -585)"/>
</clipPath>
</defs>
</svg>
