<svg width="130" height="130" viewBox="0 0 130 130" fill="none" xmlns="http://www.w3.org/2000/svg">
<path d="M114.318 82.6604H96.0038V19.5714C96.004 18.5771 95.8083 17.5924 95.4276 16.6737C95.047 15.755 94.489 14.9202 93.7855 14.2171C93.0819 13.5139 92.2467 12.9562 91.3274 12.5758C90.4082 12.1954 89.423 11.9998 88.428 12H22.5758C21.5808 11.9998 20.5956 12.1954 19.6763 12.5758C18.7571 12.9562 17.9219 13.5139 17.2183 14.2171C16.5148 14.9202 15.9568 15.755 15.5762 16.6737C15.1955 17.5924 14.9998 18.5771 15 19.5714V103.86C15.0035 107.609 16.4952 111.204 19.1477 113.855C21.8001 116.506 25.3966 117.996 29.1477 118H106.117C109.797 117.983 113.321 116.513 115.922 113.911C118.522 111.308 119.988 107.784 120 104.106V88.3389C119.996 86.8343 119.395 85.3925 118.331 84.3285C117.266 83.2646 115.824 82.6649 114.318 82.6604ZM80.2273 74.4643H30.7765C30.2742 74.4643 29.7925 74.2649 29.4373 73.9099C29.0821 73.5549 28.8826 73.0734 28.8826 72.5714C28.8826 72.0694 29.0821 71.588 29.4373 71.233C29.7925 70.878 30.2742 70.6786 30.7765 70.6786H80.2273C80.7296 70.6786 81.2113 70.878 81.5665 71.233C81.9217 71.588 82.1212 72.0694 82.1212 72.5714C82.1212 73.0734 81.9217 73.5549 81.5665 73.9099C81.2113 74.2649 80.7296 74.4643 80.2273 74.4643ZM82.1212 86.465C82.122 86.7138 82.0735 86.9603 81.9786 87.1903C81.8837 87.4202 81.7442 87.6292 81.5682 87.8051C81.3921 87.981 81.1831 88.1204 80.9529 88.2153C80.7228 88.3102 80.4762 88.3586 80.2273 88.3579H30.7765C30.2742 88.3579 29.7925 88.1584 29.4373 87.8035C29.0821 87.4485 28.8826 86.967 28.8826 86.465C28.8826 85.963 29.0821 85.4815 29.4373 85.1265C29.7925 84.7716 30.2742 84.5721 30.7765 84.5721H80.2273C80.7291 84.5736 81.21 84.7735 81.5648 85.1282C81.9197 85.4829 82.1197 85.9634 82.1212 86.465ZM38.125 43.3268V28.695C38.1268 28.3038 38.2498 27.9227 38.477 27.6041C38.7042 27.2856 39.0245 27.0451 39.3939 26.9157L54.8674 21.4643C55.28 21.3318 55.7238 21.3318 56.1364 21.4643L71.6099 26.9157C71.9793 27.0451 72.2996 27.2856 72.5268 27.6041C72.754 27.9227 72.877 28.3038 72.8788 28.695V43.3268C72.8163 51.6251 66.9602 63.3002 55.5114 66.06C44.0606 63.3362 38.1818 51.6137 38.125 43.3268ZM30.7765 98.4846H80.2273C80.7296 98.4846 81.2113 98.6841 81.5665 99.0391C81.9217 99.394 82.1212 99.8755 82.1212 100.378C82.1212 100.88 81.9217 101.361 81.5665 101.716C81.2113 102.071 80.7296 102.27 80.2273 102.27H30.7765C30.2742 102.27 29.7925 102.071 29.4373 101.716C29.0821 101.361 28.8826 100.88 28.8826 100.378C28.8826 99.8755 29.0821 99.394 29.4373 99.0391C29.7925 98.6841 30.2742 98.4846 30.7765 98.4846ZM116.212 104.106C115.814 117.459 96.4299 117.461 96.0038 104.106V86.4461H114.318C114.82 86.4476 115.301 86.6475 115.656 87.0021C116.011 87.3568 116.211 87.8374 116.212 88.3389V104.106Z" fill="#2B73FF"/>
<path d="M55.5108 63C63.2368 60.7012 67.1199 53.5648 68.7697 49.4469C70.7334 45.401 69.6953 33.5191 69.9367 29.0374L55.5108 24L41.0648 29.0374C41.3062 33.5851 40.264 45.3431 42.2317 49.4469C43.8815 53.5648 47.7445 60.7012 55.5108 63ZM47.3824 41.6509C47.7515 41.2675 48.2567 41.0425 48.7904 41.0238C49.3241 41.0052 49.844 41.1943 50.2394 41.551L53.7805 44.8293L60.7218 37.9329C60.908 37.7475 61.129 37.6005 61.3724 37.5002C61.6158 37.3999 61.8768 37.3483 62.1403 37.3483C62.4038 37.3483 62.6647 37.3999 62.9081 37.5002C63.1515 37.6005 63.3726 37.7475 63.5587 37.9329C63.9357 38.3103 64.1472 38.8204 64.1472 39.3521C64.1472 39.8838 63.9357 40.394 63.5587 40.7714L55.2492 49.0272C54.8666 49.397 54.3545 49.6048 53.8207 49.6069C53.3122 49.6061 52.8231 49.4132 52.4526 49.0671L47.483 44.4695C47.097 44.107 46.87 43.6081 46.8512 43.0807C46.8324 42.5533 47.0232 42.0397 47.3824 41.6509Z" fill="#2B73FF"/>
</svg>
