<svg width="130" height="130" viewBox="0 0 130 130" fill="none" xmlns="http://www.w3.org/2000/svg">
<path d="M110.642 39.0141L110.162 39.2877L108.823 39.9943L106.98 40.9517L64.9657 63.0738L46.7682 53.4887L88.9657 31.4805L90.8197 30.5231L92.6624 29.5544L110.642 39.0141ZM87.7525 26.9786L85.9099 27.9359L84.0558 28.8933L41.8584 50.9129L22.9971 40.9631L21.166 40.0057L19.804 39.2877L19.3348 39.0255L65 15L87.7525 26.9786ZM113 42.9234V90.9631L67.2546 115V67.0287L109.567 44.7584L111.283 43.8466L112.325 43.2995L113 42.9234ZM62.6767 67.0287V115L17 90.9631V42.9462L17.6066 43.2881H17.618L18.7167 43.8694L20.4335 44.7698L62.6767 67.0287Z" fill="#2B73FF"/>
</svg>
