<svg width="130" height="130" viewBox="0 0 130 130" fill="none" xmlns="http://www.w3.org/2000/svg">
<path d="M121 35.1613V44.7097H9V35.1613C9.00219 33.2627 9.77246 31.4424 11.1418 30.0999C12.5112 28.7573 14.3678 28.0021 16.3043 28H113.696C115.632 28.0021 117.489 28.7573 118.858 30.0999C120.228 31.4424 120.998 33.2627 121 35.1613ZM118.565 84.0968C118.565 87.1656 117.637 90.1655 115.898 92.7171C114.159 95.2687 111.687 97.2574 108.796 98.4318C105.904 99.6062 102.722 99.9135 99.6516 99.3148C96.5816 98.7161 93.7617 97.2383 91.5484 95.0683C89.3351 92.8984 87.8278 90.1337 87.2171 87.1238C86.6065 84.114 86.9199 80.9942 88.1177 78.159C89.3156 75.3238 91.344 72.9005 93.9466 71.1956C96.5492 69.4906 99.609 68.5806 102.739 68.5806C106.935 68.5853 110.958 70.2215 113.925 73.1304C116.892 76.0392 118.56 79.9831 118.565 84.0968ZM114.913 84.0968C114.91 81.8817 114.012 79.7581 112.414 78.1918C110.817 76.6255 108.651 75.7444 106.391 75.7419H98.3738L99.9478 74.1988C100.174 73.9746 100.301 73.6716 100.301 73.3559C100.3 73.0403 100.172 72.7378 99.944 72.5146C99.7164 72.2914 99.4078 72.1657 99.0858 72.165C98.7639 72.1643 98.4548 72.2887 98.2261 72.5109L94.574 76.0915C94.3457 76.3154 94.2174 76.6189 94.2174 76.9355C94.2174 77.252 94.3457 77.5556 94.574 77.7794L98.2261 81.3601C98.4548 81.5823 98.7639 81.7067 99.0858 81.706C99.4078 81.7053 99.7164 81.5796 99.944 81.3564C100.172 81.1332 100.3 80.8307 100.301 80.515C100.301 80.1994 100.174 79.8963 99.9478 79.6722L98.3738 78.129H106.391C108.006 78.129 109.554 78.7578 110.695 79.8769C111.837 80.9961 112.478 82.514 112.478 84.0968C112.478 85.6795 111.837 87.1974 110.695 88.3166C109.554 89.4358 108.006 90.0645 106.391 90.0645H94.2174C93.8945 90.0645 93.5849 90.1903 93.3566 90.4141C93.1283 90.6379 93 90.9415 93 91.2581C93 91.5746 93.1283 91.8782 93.3566 92.102C93.5849 92.3259 93.8945 92.4516 94.2174 92.4516H106.391C108.651 92.4491 110.817 91.5681 112.414 90.0018C114.012 88.4355 114.91 86.3118 114.913 84.0968ZM9 57.8387H121V84.0968C121 74.2249 112.808 66.1935 102.739 66.1935C92.6701 66.1935 84.4783 74.2249 84.4783 84.0968C84.4783 93.9686 92.6701 102 102.739 102H16.3043C14.3678 101.998 12.5112 101.243 11.1418 99.9001C9.77246 98.5576 9.00219 96.7373 9 94.8387V57.8387ZM41.8696 90.0645H69.8696V82.9032H41.8696V90.0645ZM16.3043 90.0645H37V82.9032H16.3043V90.0645Z" fill="#2B73FF"/>
</svg>
