<svg width="130" height="130" viewBox="0 0 130 130" fill="none" xmlns="http://www.w3.org/2000/svg">
<path d="M1.3 74.113V80.938C1.3 83.447 3.341 85.488 5.85001 85.488H10.608C10.478 84.747 10.4 83.993 10.4 83.213C10.4 75.673 16.51 69.563 24.05 69.563C31.59 69.563 37.7 75.673 37.7 83.213C37.7 83.993 37.622 84.747 37.492 85.488H97.058C96.928 84.747 96.85 83.993 96.85 83.213C96.85 75.673 102.96 69.563 110.5 69.563C118.04 69.563 124.15 75.673 124.15 83.213C124.15 83.993 124.072 84.747 123.942 85.488H124.15C126.659 85.488 128.7 83.447 128.7 80.938V74.113C128.7 73.697 128.622 73.307 128.518 72.917C127.556 66.703 125.788 60.762 124.826 59.124C124.423 58.435 124.15 58.11 124.15 58.11C124.007 57.382 115.96 43.823 114.985 42.653C111.917 37.024 99.242 37.7 99.242 37.7C99.242 37.7 63.479 37.752 57.317 37.752C52.286 38.142 51.87 39.195 49.855 40.755C49.023 41.379 31.109 58.162 30.16 58.175C15.197 58.305 11.674 60.385 11.674 60.385C0.740997 66.3 1.3 74.113 1.3 74.113ZM87.75 44.538C87.75 44.538 96.135 44.538 101.4 44.538C106.665 44.538 108.225 49.088 108.225 49.088L110.76 54.782L87.75 55.913V44.538ZM53.625 48.516C53.625 48.516 56.823 44.538 59.098 44.538C61.373 44.538 83.2 44.616 83.2 44.616V55.926L58.253 57.564V54.366C58.253 54.366 57.46 52.351 55.588 52.741C54.041 53.053 52.351 54.821 50.895 58.058L44.187 58.5L53.625 48.516ZM110.5 74.113C105.469 74.113 101.4 78.182 101.4 83.213C101.4 88.244 105.469 92.313 110.5 92.313C115.531 92.313 119.6 88.244 119.6 83.213C119.6 78.182 115.531 74.113 110.5 74.113ZM24.05 74.113C19.019 74.113 14.95 78.182 14.95 83.213C14.95 88.244 19.019 92.313 24.05 92.313C29.081 92.313 33.15 88.244 33.15 83.213C33.15 78.182 29.081 74.113 24.05 74.113Z" fill="#2B73FF"/>
</svg>
