<svg width="50" height="50" viewBox="0 0 50 50" fill="none" xmlns="http://www.w3.org/2000/svg">
<g clip-path="url(#clip0_1_227)">
<path d="M6.20591 26.268C5.55299 26.8935 5.2231 27.6632 5.2231 28.5636V40.8591C5.2231 40.9691 5.26433 41.0722 5.35368 41.1478C5.43615 41.2234 5.53237 41.2577 5.64921 41.244C5.90351 41.2234 6.1578 41.2096 6.41897 41.2096C8.93444 41.2096 11.2781 42.2955 12.9001 44.1237C12.9825 44.2199 13.0925 44.2612 13.2231 44.2543C13.3537 44.2474 13.4911 44.2405 13.6217 44.2405C15.2987 44.2405 16.8107 44.9759 17.8417 46.1375C17.9516 46.2612 18.1166 46.3024 18.2746 46.2405C18.4258 46.1856 18.5221 46.0412 18.5221 45.8763V34.9553C18.5221 33.8763 19.4087 32.9966 20.4877 32.9966H29.4636C30.5427 32.9966 31.4293 33.8763 31.4293 34.9553V45.9381C31.4293 46.1031 31.5255 46.2405 31.6836 46.3024C31.8348 46.3574 32.0066 46.3161 32.1166 46.1924C33.1475 44.9966 34.6733 44.2405 36.3777 44.2405C36.5152 44.2405 36.6458 44.2474 36.7832 44.2543C36.9069 44.2612 37.0169 44.2199 37.0994 44.1237C38.7214 42.2955 41.0719 41.2096 43.5805 41.2096C43.8279 41.2096 44.0685 41.2234 44.3021 41.244C44.419 41.2509 44.5152 41.2165 44.6045 41.1409C44.687 41.0653 44.7282 40.9691 44.7282 40.8522V28.5636C44.7282 27.6632 44.3983 26.8935 43.7454 26.268L26.0685 9.42268C25.4568 8.83849 24.4946 8.83849 23.8829 9.42268L6.20591 26.268ZM13.6217 46.4811C13.1887 46.4811 12.7764 46.5636 12.3915 46.7148C12.2128 46.7835 12.0135 46.7148 11.9173 46.5567C10.7901 44.6942 8.74887 43.457 6.41897 43.457C2.9688 43.457 0.157804 46.1787 0.00660084 49.5945C-0.000272012 49.7045 0.0409651 49.8007 0.116566 49.8832C0.192168 49.9588 0.288388 50 0.398353 50H16.6114C16.7283 50 16.8245 49.9588 16.9001 49.8763C16.9825 49.7938 17.0169 49.6907 17.0032 49.5739C16.852 47.8419 15.3949 46.4811 13.6217 46.4811ZM36.3777 46.4811C36.9344 46.4811 37.4568 46.6186 37.9173 46.8522C38.9963 44.8316 41.1269 43.457 43.5805 43.457C47.0307 43.457 49.8485 46.1787 49.9929 49.5945C49.9997 49.7045 49.9654 49.8007 49.8898 49.8832C49.8142 49.9588 49.7179 50 49.608 50H33.388C33.2712 50 33.175 49.9588 33.0994 49.8763C33.0238 49.7938 32.9894 49.6907 32.9963 49.5739C33.1475 47.8419 34.6045 46.4811 36.3777 46.4811ZM4.39148 25.3333C1.64234 27.4227 -1.33361 24.0687 1.16124 21.6701L22.8107 0.87285C23.4224 0.281785 24.2128 -0.00687506 25.0032 -2.20579e-06C25.7867 -0.00687506 26.577 0.281785 27.1887 0.87285L48.8451 21.6701C51.3399 24.0687 48.3571 27.4227 45.608 25.3333L26.0822 6.59794C25.4774 6.01374 24.5221 6.01374 23.9173 6.59794L4.39148 25.3333ZM25.0032 21.079C26.0891 21.079 27.1337 21.2921 28.0891 21.6701C28.309 21.7594 28.4671 21.9313 28.5427 22.1649C28.6114 22.3917 28.5839 22.6254 28.4465 22.8247L26.7008 25.457C26.5152 25.732 26.1922 25.8625 25.8691 25.7801C25.5942 25.7182 25.2987 25.6838 25.0032 25.6838C24.7008 25.6838 24.4121 25.7182 24.1303 25.7801C23.8073 25.8625 23.4843 25.732 23.2987 25.457L21.553 22.8247C21.4224 22.6254 21.388 22.3917 21.4636 22.1649C21.5324 21.9313 21.6904 21.7594 21.9173 21.6701C22.8726 21.2921 23.9104 21.079 25.0032 21.079ZM30.9482 23.5808C31.9929 24.646 32.7557 25.9862 33.1063 27.4845C33.2231 27.9656 33.12 28.4261 32.8107 28.8179C32.5083 29.2027 32.0822 29.4089 31.5874 29.4089H28.7282C28.7282 28.5911 28.4602 27.835 28.0135 27.2165C27.821 26.9484 27.8142 26.6048 27.9929 26.323L29.7454 23.6976C29.876 23.4914 30.0753 23.3746 30.3228 23.3471C30.5633 23.3265 30.7832 23.4089 30.9482 23.5808ZM27.1681 29.4089H22.8382C22.8382 28.811 23.0788 28.268 23.4705 27.8763C23.8623 27.4845 24.4052 27.244 25.0032 27.244C25.6011 27.244 26.1372 27.4845 26.5289 27.8763C26.9207 28.268 27.1681 28.811 27.1681 29.4089ZM21.2712 29.4089H18.419C17.9241 29.4089 17.498 29.2027 17.1887 28.8179C16.8863 28.4261 16.7832 27.9656 16.8932 27.4845C17.2506 25.9862 18.0066 24.646 19.0513 23.5808C19.2231 23.4089 19.443 23.3265 19.6836 23.3471C19.9241 23.3746 20.1234 23.4914 20.2609 23.6976L22.0066 26.323C22.1922 26.6048 22.1853 26.9484 21.986 27.2165C21.5392 27.835 21.2712 28.5911 21.2712 29.4089Z" fill="#7EC637"/>
</g>
<defs>
<clipPath id="clip0_1_227">
<rect width="50" height="50" fill="white"/>
</clipPath>
</defs>
</svg>
