<svg width="107" height="70" viewBox="0 0 107 70" fill="none" xmlns="http://www.w3.org/2000/svg">
<g clip-path="url(#clip0_85_885)">
<path d="M94.4289 42.3142V55.0678H91.4513V49.8389H85.6066V55.0678H82.6292V42.3142H85.6066V47.3428H91.4513V42.3142H94.4289ZM78.5109 49.6382H72.6315V47.8169C72.6315 46.761 72.8918 45.9629 73.4119 45.4225C73.9321 44.8823 74.6548 44.608 75.5713 44.608C76.4796 44.608 77.1938 44.8823 77.7224 45.4225C78.2508 45.9629 78.5109 46.761 78.5109 47.8169V49.6382ZM80.7529 44.8292C80.2657 43.9286 79.5804 43.2492 78.6967 42.7867C77.8131 42.3285 76.7769 42.0951 75.5919 42.0951C74.4029 42.0951 73.3665 42.3285 72.4828 42.7867C71.6035 43.2492 70.9139 43.9286 70.4269 44.8292C69.9355 45.7295 69.6919 46.8141 69.6919 48.0912V55.0693H72.6315V52.0078H78.5109V55.0693H81.4877V48.0912C81.4877 46.8141 81.2443 45.7295 80.7529 44.8292ZM65.794 55.0678L65.7755 47.4338L61.9894 53.7197H60.666L56.88 47.5796V55.0678H54.0863V42.3142H56.5491L61.3645 50.2396L66.1063 42.3142H68.5691L68.5876 55.0678H65.794ZM49.6301 50.8046C49.2791 51.4227 48.8003 51.9057 48.1851 52.2535C47.5739 52.5973 46.8887 52.7732 46.129 52.7732C45.3694 52.7732 44.6838 52.5973 44.0688 52.2535C43.4577 51.9057 42.9746 51.4227 42.6277 50.8046C42.2768 50.1865 42.1035 49.4826 42.1035 48.6927C42.1035 47.9027 42.2768 47.1988 42.6277 46.5766C42.9746 45.9588 43.4577 45.4759 44.0688 45.128C44.6838 44.784 45.3694 44.608 46.129 44.608C46.8887 44.608 47.5739 44.784 48.1851 45.128C48.8003 45.4759 49.2791 45.9588 49.6301 46.5766C49.9769 47.1988 50.1545 47.9027 50.1545 48.6927C50.1545 49.4826 49.9769 50.1865 49.6301 50.8046ZM52.2477 45.3121C51.6367 44.3094 50.7943 43.5235 49.7292 42.9504C48.664 42.3816 47.4625 42.0951 46.129 42.0951C44.7912 42.0951 43.5897 42.3816 42.5163 42.9504C41.4429 43.5235 40.6047 44.3094 39.9978 45.3121C39.3908 46.3149 39.0894 47.4404 39.0894 48.6927C39.0894 49.9411 39.3908 51.0707 39.9978 52.0693C40.6047 53.0721 41.4429 53.858 42.5163 54.4308C43.5897 54.9999 44.7912 55.2862 46.129 55.2862C47.4625 55.2862 48.664 54.9999 49.7292 54.4308C50.7943 53.858 51.6367 53.0721 52.2477 52.0693C52.8631 51.0707 53.1686 49.9411 53.1686 48.6927C53.1686 47.4404 52.8631 46.3149 52.2477 45.3121ZM34.3207 51.5782C33.5528 52.2903 32.5289 52.6463 31.2407 52.6463H28.5198V44.739H31.2407C32.5289 44.739 33.5528 45.091 34.3207 45.8033C35.0844 46.5154 35.4685 47.4772 35.4685 48.6927C35.4685 49.9043 35.0844 50.87 34.3207 51.5782ZM37.5906 45.3366C36.9961 44.3789 36.1621 43.6339 35.0926 43.1059C34.0192 42.578 32.7849 42.316 31.3893 42.316H25.543V55.0693H31.3893C32.7849 55.0693 34.0192 54.8032 35.0926 54.2753C36.1621 53.7474 36.9961 53.0024 37.5906 52.0448C38.1852 51.083 38.4825 49.9656 38.4825 48.6927C38.4825 47.4156 38.1852 46.2985 37.5906 45.3366ZM97.4789 53.4197H99.519C99.5435 54.3064 100.052 54.7496 101.044 54.7496C101.534 54.7496 101.908 54.6377 102.165 54.4127C102.423 54.1881 102.557 53.857 102.57 53.4197H104.61C104.598 54.3307 104.297 55.0232 103.709 55.4969C103.121 55.9706 102.233 56.2074 101.044 56.2074C98.692 56.2074 97.5033 55.278 97.4789 53.4197ZM95.1078 57.0273H98.0671V65.3352L104.206 57.0273H106.999V69.7807H104.059V61.491L97.92 69.7807H95.1078V57.0273ZM90.8724 65.5185C90.5215 66.1363 90.0424 66.6192 89.4273 66.9671C88.8163 67.3111 88.1308 67.4871 87.3712 67.4871C86.6115 67.4871 85.9263 67.3111 85.3108 66.9671C84.6998 66.6192 84.2169 66.1363 83.8701 65.5185C83.5191 64.8963 83.3456 64.1924 83.3456 63.4024C83.3456 62.6166 83.5191 61.9086 83.8701 61.2905C84.2169 60.6724 84.6998 60.1894 85.3108 59.8416C85.9263 59.4978 86.6115 59.3218 87.3712 59.3218C88.1308 59.3218 88.8163 59.4978 89.4273 59.8416C90.0424 60.1894 90.5215 60.6724 90.8724 61.2905C91.2193 61.9086 91.3967 62.6166 91.3967 63.4024C91.3967 64.1924 91.2193 64.8963 90.8724 65.5185ZM93.4901 60.0258C92.8791 59.023 92.0368 58.2371 90.9716 57.6643C89.9063 57.0952 88.7048 56.8089 87.3712 56.8089C86.0336 56.8089 84.8321 57.0952 83.7587 57.6643C82.685 58.2371 81.847 59.023 81.2399 60.0258C80.633 61.0244 80.3315 62.154 80.3315 63.4024C80.3315 64.6547 80.633 65.7802 81.2399 66.783C81.847 67.7857 82.685 68.5716 83.7587 69.1447C84.8321 69.7135 86.0336 70 87.3712 70C88.7048 70 89.9063 69.7135 90.9716 69.1447C92.0368 68.5716 92.8791 67.7857 93.4901 66.783C94.1052 65.7802 94.4107 64.6547 94.4107 63.4024C94.4107 62.154 94.1052 61.0244 93.4901 60.0258ZM75.9922 63.2837C75.5258 63.6683 74.8488 63.8606 73.9528 63.8606H71.5292V59.4324H73.9528C74.8488 59.4324 75.5258 59.6248 75.9922 60.0053C76.459 60.3899 76.6901 60.9385 76.6901 61.6547C76.6901 62.3586 76.459 62.9031 75.9922 63.2837ZM79.0268 59.1949C78.5727 58.5033 77.9247 57.9672 77.0864 57.5905C76.2482 57.214 75.2575 57.0258 74.1179 57.0258H68.5481V69.7789H71.5292V66.2632H74.1179C75.2575 66.2632 76.2482 66.0791 77.0864 65.7067C77.9247 65.3381 78.5727 64.802 79.0268 64.1063C79.481 63.4065 79.7082 62.5921 79.7082 61.6547C79.7082 60.7092 79.481 59.8865 79.0268 59.1949ZM67.7229 59.4322H63.6059V69.7807H60.6655V59.4322H56.5668V57.0273H67.7229V59.4322ZM46.7431 69.1522C45.6835 68.5872 44.8501 67.8041 44.2436 66.802C43.6371 65.7997 43.3339 64.6674 43.3339 63.4038C43.3339 62.1409 43.6371 61.0082 44.2436 60.006C44.8501 59.004 45.6835 58.2206 46.7431 57.6558C47.8031 57.0912 48.9945 56.8085 50.318 56.8085C51.4327 56.8085 52.4408 57.0028 53.3414 57.3916C54.2419 57.7805 54.9984 58.3389 55.6112 59.0678L53.6998 60.8168C52.8297 59.821 51.7517 59.323 50.465 59.323C49.6684 59.323 48.958 59.496 48.333 59.8421C47.7081 60.1883 47.2211 60.6711 46.8719 61.2905C46.5226 61.9102 46.3481 62.6145 46.3481 63.4038C46.3481 64.1937 46.5226 64.8979 46.8719 65.5173C47.2211 66.137 47.7081 66.6197 48.333 66.966C48.958 67.312 49.6684 67.4851 50.465 67.4851C51.7517 67.4851 52.8297 66.9812 53.6998 65.973L55.6112 67.7219C54.9984 68.463 54.2389 69.0277 53.3323 69.4162C52.4253 69.8047 51.4145 69.9994 50.2995 69.9994C48.9884 69.9994 47.8031 69.7169 46.7431 69.1522Z" fill="#453934"/>
<path d="M106.999 38.8996H62.9534L42.7827 18.9074L5.99448 62.3658C4.92179 61.4728 4.78205 59.8869 5.68238 58.8231L42.6142 15.1896L64.0014 36.3853H101.941L106.999 38.8996Z" fill="#453934"/>
<path d="M68.9953 20.2005V16.1631H69.4093C70.2402 16.1631 70.9138 15.4955 70.9138 14.6717C70.9138 14.0904 70.5729 13.5618 70.0404 13.318L65.0652 11.0393C64.4254 10.7465 63.6943 11.2083 63.6922 11.907L63.6906 12.4896L61.001 11.8725L63.6054 14.8602V25.9133C63.6054 26.622 62.7154 26.9473 62.2512 26.4083L57.0903 20.4144L56.4617 16.8293C56.3811 16.3686 56.1224 15.9572 55.7407 15.6822L54.9442 15.1086C54.4195 14.7307 53.6897 14.8173 53.2698 15.3071L50.5921 18.4299C50.1482 18.9949 50.1987 19.7988 50.7093 20.3052L64.8848 34.3572H97.4737L68.9953 20.2005Z" fill="#7E6359"/>
<path d="M42.8956 25.3034C39.4717 25.6454 36.7471 28.3459 36.4023 31.74H42.8956V25.3034Z" fill="#453934"/>
<path d="M43.7451 25.3034V31.74H50.2383C49.8935 28.3459 47.169 25.6454 43.7451 25.3034Z" fill="#453934"/>
<path d="M36.3623 38.8996H42.8951V32.4239H36.3623V38.8996Z" fill="#453934"/>
<path d="M43.7451 38.8996H50.2778V32.4239H43.7451V38.8996Z" fill="#453934"/>
<path d="M53.188 12.2254L50.6174 9.94611C50.2489 9.62049 49.6634 9.62622 49.3492 10.0056C49.0122 10.4132 48.4037 10.4586 48.0096 10.1103L46.4501 8.72588C46.2359 8.53607 46.3729 8.18502 46.6586 8.18502C47.1157 8.18502 47.4127 7.81421 47.4127 7.43182C47.4127 7.23654 47.3355 7.03559 47.1613 6.88253L42.7398 2.96116C41.5375 1.89663 40.1293 1.07829 38.5899 0.616922C35.7507 -0.232567 31.1322 -0.665807 25.7882 2.48544L26.2965 3.36601C26.2965 3.36601 35.4393 1.08672 36.8447 7.18543L35.7765 8.37187C35.2109 8.99769 35.2651 9.96021 35.8964 10.5181L36.5389 11.0871L32.9945 15.2747C32.3775 15.0285 31.6491 15.1784 31.2007 15.7108L1.36735 50.9523C-0.707996 53.4039 -0.384435 57.0596 2.09 59.1155L35.6793 19.4368C36.1277 18.9046 36.1535 18.1684 35.7994 17.6107L39.2696 13.5108L39.898 14.0685C40.5206 14.6207 41.4774 14.5669 42.0316 13.9497L43.4054 12.4293C43.7452 12.0499 44.3336 12.0188 44.7163 12.3584L45.4189 12.9786C45.8018 13.3183 45.8361 13.9016 45.4933 14.281L45.3903 14.3941C45.0472 14.7722 45.0791 15.3546 45.4613 15.6936L48.0153 17.9588C48.398 18.2987 48.9864 18.2646 49.3292 17.8852L53.2593 13.5278C53.6022 13.1484 53.5707 12.5651 53.188 12.2254Z" fill="#7E6359"/>
</g>
<defs>
<clipPath id="clip0_85_885">
<rect width="107" height="70" fill="white"/>
</clipPath>
</defs>
</svg>
