<svg width="170" height="28" viewBox="0 0 170 28" fill="none" xmlns="http://www.w3.org/2000/svg">
<path d="M10.6591 27H0.981534V0.818181H10.6463C13.3139 0.818181 15.6108 1.34233 17.5369 2.39062C19.4716 3.4304 20.9631 4.9304 22.0114 6.89062C23.0597 8.84233 23.5838 11.1776 23.5838 13.8963C23.5838 16.6236 23.0597 18.9673 22.0114 20.9276C20.9716 22.8878 19.4844 24.392 17.5497 25.4403C15.6151 26.4801 13.3182 27 10.6591 27ZM7.30966 21.6051H10.4162C11.8821 21.6051 13.1222 21.358 14.1364 20.8636C15.1591 20.3608 15.9304 19.5469 16.4503 18.4219C16.9787 17.2884 17.2429 15.7798 17.2429 13.8963C17.2429 12.0128 16.9787 10.5128 16.4503 9.39631C15.9219 8.27131 15.142 7.46165 14.1108 6.96733C13.0881 6.46449 11.8267 6.21307 10.3267 6.21307H7.30966V21.6051ZM27.2784 27V0.818181H38.0938C40.054 0.818181 41.7457 1.2017 43.169 1.96875C44.6009 2.72727 45.7045 3.78835 46.4801 5.15199C47.2557 6.5071 47.6435 8.08381 47.6435 9.8821C47.6435 11.6889 47.2472 13.2699 46.4545 14.625C45.6705 15.9716 44.5497 17.0156 43.0923 17.7571C41.6349 18.4986 39.9048 18.8693 37.902 18.8693H31.2287V13.8835H36.7259C37.6804 13.8835 38.4773 13.7173 39.1165 13.3849C39.7642 13.0526 40.2543 12.5881 40.5866 11.9915C40.919 11.3864 41.0852 10.6832 41.0852 9.8821C41.0852 9.07244 40.919 8.37358 40.5866 7.78551C40.2543 7.18892 39.7642 6.72869 39.1165 6.40483C38.4688 6.08097 37.6719 5.91903 36.7259 5.91903H33.6065V27H27.2784Z" fill="#D92227"/>
<path d="M55.9148 8.66761C55.8295 7.73011 55.4503 7.00142 54.777 6.48153C54.1122 5.95313 53.1619 5.68892 51.9261 5.68892C51.108 5.68892 50.4261 5.79545 49.8807 6.00852C49.3352 6.22159 48.9261 6.51563 48.6534 6.89062C48.3807 7.2571 48.2401 7.67898 48.2315 8.15625C48.2145 8.54829 48.2912 8.89346 48.4616 9.19176C48.6406 9.49006 48.8963 9.75426 49.2287 9.98438C49.5696 10.206 49.9787 10.402 50.456 10.5724C50.9332 10.7429 51.4702 10.892 52.0668 11.0199L54.3168 11.5312C55.6122 11.8125 56.7543 12.1875 57.7429 12.6562C58.7401 13.125 59.5753 13.6832 60.2486 14.331C60.9304 14.9787 61.446 15.7244 61.7955 16.5682C62.1449 17.4119 62.3239 18.358 62.3324 19.4062C62.3239 21.0597 61.9063 22.4787 61.0795 23.6634C60.2528 24.848 59.0639 25.7557 57.5128 26.3864C55.9702 27.017 54.108 27.3324 51.9261 27.3324C49.7358 27.3324 47.8267 27.0043 46.1989 26.348C44.571 25.6918 43.3054 24.6946 42.402 23.3565C41.4986 22.0185 41.0341 20.3267 41.0085 18.2812H47.0682C47.1193 19.125 47.3452 19.8281 47.7457 20.3906C48.1463 20.9531 48.696 21.3793 49.3949 21.669C50.1023 21.9588 50.9205 22.1037 51.8494 22.1037C52.7017 22.1037 53.4261 21.9886 54.0227 21.7585C54.6278 21.5284 55.0923 21.2088 55.4162 20.7997C55.7401 20.3906 55.9063 19.9219 55.9148 19.3935C55.9063 18.8991 55.7528 18.4773 55.4545 18.1278C55.1563 17.7699 54.696 17.4631 54.0739 17.2074C53.4602 16.9432 52.6761 16.7003 51.7216 16.4787L48.9858 15.8395C46.7188 15.3196 44.9332 14.4801 43.6293 13.321C42.3253 12.1534 41.6776 10.5767 41.6861 8.59091C41.6776 6.97159 42.1122 5.55256 42.9901 4.33381C43.8679 3.11506 45.0824 2.16477 46.6335 1.48295C48.1847 0.801136 49.9531 0.460226 51.9389 0.460226C53.9673 0.460226 55.7273 0.805397 57.2188 1.49574C58.7188 2.17756 59.8821 3.13636 60.7088 4.37216C61.5355 5.60795 61.9574 7.03977 61.9744 8.66761H55.9148ZM64.6719 5.95739V0.818181H86.8011V5.95739H78.8622V27H72.6236V5.95739H64.6719ZM113.408 13.9091C113.408 16.7898 112.854 19.2315 111.746 21.2344C110.638 23.2372 109.138 24.7585 107.246 25.7983C105.363 26.8381 103.249 27.358 100.905 27.358C98.5529 27.358 96.435 26.8338 94.5515 25.7855C92.668 24.7372 91.1722 23.2159 90.0643 21.2216C88.9648 19.2187 88.4151 16.7812 88.4151 13.9091C88.4151 11.0284 88.9648 8.58665 90.0643 6.58381C91.1722 4.58097 92.668 3.05966 94.5515 2.01989C96.435 0.980113 98.5529 0.460226 100.905 0.460226C103.249 0.460226 105.363 0.980113 107.246 2.01989C109.138 3.05966 110.638 4.58097 111.746 6.58381C112.854 8.58665 113.408 11.0284 113.408 13.9091ZM106.939 13.9091C106.939 12.2045 106.696 10.7642 106.211 9.58807C105.733 8.41193 105.043 7.52131 104.14 6.91619C103.245 6.31108 102.167 6.00852 100.905 6.00852C99.6523 6.00852 98.5742 6.31108 97.6708 6.91619C96.7674 7.52131 96.0728 8.41193 95.587 9.58807C95.1097 10.7642 94.8711 12.2045 94.8711 13.9091C94.8711 15.6136 95.1097 17.054 95.587 18.2301C96.0728 19.4062 96.7674 20.2969 97.6708 20.902C98.5742 21.5071 99.6523 21.8097 100.905 21.8097C102.167 21.8097 103.245 21.5071 104.14 20.902C105.043 20.2969 105.733 19.4062 106.211 18.2301C106.696 17.054 106.939 15.6136 106.939 13.9091ZM117.103 27V0.818181H127.918C129.878 0.818181 131.57 1.17187 132.993 1.87926C134.425 2.57812 135.529 3.58381 136.304 4.89631C137.08 6.20028 137.468 7.74716 137.468 9.53693C137.468 11.3523 137.071 12.8949 136.279 14.1648C135.486 15.4261 134.361 16.3892 132.904 17.054C131.446 17.7102 129.721 18.0384 127.726 18.0384H120.887V13.0526H126.55C127.505 13.0526 128.301 12.929 128.941 12.6818C129.588 12.4261 130.078 12.0426 130.411 11.5312C130.743 11.0114 130.909 10.3466 130.909 9.53693C130.909 8.72727 130.743 8.05824 130.411 7.52983C130.078 6.9929 129.588 6.59233 128.941 6.32812C128.293 6.0554 127.496 5.91903 126.55 5.91903H123.431V27H117.103ZM131.843 15.0341L138.363 27H131.459L125.067 15.0341H131.843ZM140.939 27V0.818181H159.194V5.95739H147.267V11.3267H158.261V16.4787H147.267V21.8608H159.194V27H140.939ZM166.673 27.3707C165.752 27.3707 164.964 27.0469 164.308 26.3991C163.66 25.7514 163.341 24.9673 163.349 24.0469C163.341 23.1435 163.66 22.3722 164.308 21.733C164.964 21.0852 165.752 20.7614 166.673 20.7614C167.542 20.7614 168.309 21.0852 168.974 21.733C169.647 22.3722 169.988 23.1435 169.997 24.0469C169.988 24.6605 169.826 25.2187 169.511 25.7216C169.204 26.2244 168.799 26.625 168.297 26.9233C167.802 27.2216 167.261 27.3707 166.673 27.3707Z" fill="#1F2533"/>
</svg>
