<svg width="2175" height="52" viewBox="0 0 2175 52" fill="none" xmlns="http://www.w3.org/2000/svg">
<rect width="2175" height="52" fill="url(#paint0_linear_2317_344)"/>
<path d="M670.045 31.8785C668.777 31.8785 667.709 31.598 666.844 31.0371C665.978 30.4639 665.368 29.6895 665.014 28.7139L667.173 27.4517C667.673 28.7566 668.655 29.409 670.118 29.409C670.825 29.409 671.344 29.281 671.673 29.0249C672.002 28.7688 672.167 28.4456 672.167 28.0554C672.167 27.6042 671.966 27.2566 671.563 27.0127C671.161 26.7566 670.441 26.4822 669.405 26.1895C668.831 26.0188 668.344 25.8481 667.941 25.6773C667.551 25.5066 667.155 25.281 666.752 25.0005C666.362 24.7078 666.063 24.342 665.856 23.9029C665.649 23.4639 665.545 22.9517 665.545 22.3664C665.545 21.2078 665.953 20.2871 666.77 19.6042C667.6 18.9091 668.594 18.5615 669.752 18.5615C670.789 18.5615 671.697 18.8176 672.478 19.3298C673.27 19.8298 673.886 20.531 674.325 21.4334L672.203 22.659C671.691 21.5615 670.874 21.0127 669.752 21.0127C669.228 21.0127 668.813 21.1347 668.508 21.3786C668.216 21.6103 668.069 21.9151 668.069 22.2932C668.069 22.6956 668.234 23.0249 668.563 23.281C668.905 23.5249 669.551 23.7932 670.502 24.0859C670.892 24.2078 671.185 24.3054 671.38 24.3786C671.588 24.4395 671.862 24.5432 672.203 24.6895C672.557 24.8237 672.825 24.9517 673.008 25.0737C673.203 25.1956 673.423 25.3603 673.667 25.5676C673.911 25.7749 674.094 25.9883 674.216 26.2078C674.35 26.4273 674.459 26.6956 674.545 27.0127C674.642 27.3176 674.691 27.6529 674.691 28.0188C674.691 29.2017 674.258 30.1407 673.392 30.8359C672.539 31.531 671.423 31.8785 670.045 31.8785ZM681.551 22.22C682.783 22.22 683.832 22.6895 684.697 23.6286C685.575 24.5554 686.014 25.6956 686.014 27.0493C686.014 28.4029 685.575 29.5493 684.697 30.4883C683.832 31.4151 682.783 31.8785 681.551 31.8785C680.271 31.8785 679.283 31.4334 678.588 30.5432V35.281H676.228V22.4761H678.588V23.5554C679.283 22.6651 680.271 22.22 681.551 22.22ZM679.301 28.9151C679.777 29.3907 680.38 29.6285 681.112 29.6285C681.844 29.6285 682.447 29.3907 682.923 28.9151C683.411 28.4273 683.655 27.8054 683.655 27.0493C683.655 26.2932 683.411 25.6773 682.923 25.2017C682.447 24.7139 681.844 24.47 681.112 24.47C680.38 24.47 679.777 24.7139 679.301 25.2017C678.825 25.6773 678.588 26.2932 678.588 27.0493C678.588 27.8054 678.825 28.4273 679.301 28.9151ZM688.849 21.3786C688.459 21.3786 688.118 21.2383 687.825 20.9578C687.545 20.6651 687.404 20.3237 687.404 19.9334C687.404 19.5432 687.545 19.2017 687.825 18.9091C688.118 18.6164 688.459 18.47 688.849 18.47C689.252 18.47 689.593 18.6164 689.874 18.9091C690.166 19.2017 690.313 19.5432 690.313 19.9334C690.313 20.3237 690.166 20.6651 689.874 20.9578C689.593 21.2383 689.252 21.3786 688.849 21.3786ZM687.679 31.6224V22.4761H690.038V31.6224H687.679ZM698.217 22.4761H700.814L697.338 31.6224H694.649L691.174 22.4761H693.771L695.985 28.8785L698.217 22.4761ZM708.546 22.4761H710.906V31.6224H708.546V30.5432C707.839 31.4334 706.845 31.8785 705.564 31.8785C704.345 31.8785 703.296 31.4151 702.418 30.4883C701.552 29.5493 701.119 28.4029 701.119 27.0493C701.119 25.6956 701.552 24.5554 702.418 23.6286C703.296 22.6895 704.345 22.22 705.564 22.22C706.845 22.22 707.839 22.6651 708.546 23.5554V22.4761ZM704.192 28.9151C704.668 29.3907 705.271 29.6285 706.003 29.6285C706.735 29.6285 707.339 29.3907 707.814 28.9151C708.302 28.4273 708.546 27.8054 708.546 27.0493C708.546 26.2932 708.302 25.6773 707.814 25.2017C707.339 24.7139 706.735 24.47 706.003 24.47C705.271 24.47 704.668 24.7139 704.192 25.2017C703.717 25.6773 703.479 26.2932 703.479 27.0493C703.479 27.8054 703.717 28.4273 704.192 28.9151ZM721.478 31.6224H718.734L715.405 27.47V31.6224H713.045V18.8176H715.405V26.5005L718.551 22.4761H721.369L717.692 26.9944L721.478 31.6224ZM729.788 30.4883C728.849 31.4151 727.703 31.8785 726.349 31.8785C724.995 31.8785 723.849 31.4151 722.91 30.4883C721.983 29.5493 721.52 28.4029 721.52 27.0493C721.52 25.6956 721.983 24.5554 722.91 23.6286C723.849 22.6895 724.995 22.22 726.349 22.22C727.703 22.22 728.849 22.6895 729.788 23.6286C730.727 24.5554 731.196 25.6956 731.196 27.0493C731.196 28.4029 730.727 29.5493 729.788 30.4883ZM724.574 28.8602C725.05 29.3359 725.642 29.5737 726.349 29.5737C727.056 29.5737 727.648 29.3359 728.123 28.8602C728.599 28.3846 728.837 27.781 728.837 27.0493C728.837 26.3176 728.599 25.7139 728.123 25.2383C727.648 24.7627 727.056 24.5249 726.349 24.5249C725.642 24.5249 725.05 24.7627 724.574 25.2383C724.111 25.7139 723.879 26.3176 723.879 27.0493C723.879 27.781 724.111 28.3846 724.574 28.8602ZM738.517 22.4761H741.115L737.639 31.6224H734.95L731.475 22.4761H734.072L736.286 28.8785L738.517 22.4761ZM759.466 18.8176V31.6224H756.96V23.3176L753.357 29.2627H753.064L749.46 23.3359V31.6224H746.936V18.8176H749.533L753.21 24.8725L756.869 18.8176H759.466ZM768.694 22.4761H771.053V31.6224H768.694V30.5432C767.986 31.4334 766.992 31.8785 765.712 31.8785C764.492 31.8785 763.444 31.4151 762.566 30.4883C761.7 29.5493 761.267 28.4029 761.267 27.0493C761.267 25.6956 761.7 24.5554 762.566 23.6286C763.444 22.6895 764.492 22.22 765.712 22.22C766.992 22.22 767.986 22.6651 768.694 23.5554V22.4761ZM764.34 28.9151C764.816 29.3907 765.419 29.6285 766.151 29.6285C766.883 29.6285 767.486 29.3907 767.962 28.9151C768.45 28.4273 768.694 27.8054 768.694 27.0493C768.694 26.2932 768.45 25.6773 767.962 25.2017C767.486 24.7139 766.883 24.47 766.151 24.47C765.419 24.47 764.816 24.7139 764.34 25.2017C763.864 25.6773 763.627 26.2932 763.627 27.0493C763.627 27.8054 763.864 28.4273 764.34 28.9151ZM775.553 24.0493C775.772 23.4639 776.132 23.0249 776.632 22.7322C777.144 22.4395 777.711 22.2932 778.333 22.2932V24.9273C777.614 24.842 776.968 24.9883 776.394 25.3664C775.833 25.7444 775.553 26.3725 775.553 27.2505V31.6224H773.193V22.4761H775.553V24.0493ZM788.146 31.6224H785.402L782.073 27.47V31.6224H779.713V18.8176H782.073V26.5005L785.22 22.4761H788.037L784.36 26.9944L788.146 31.6224ZM790.657 28.0188C790.974 29.1651 791.834 29.7383 793.236 29.7383C794.139 29.7383 794.822 29.4334 795.285 28.8237L797.188 29.9212C796.285 31.2261 794.956 31.8785 793.2 31.8785C791.688 31.8785 790.474 31.4212 789.56 30.5066C788.645 29.592 788.188 28.4395 788.188 27.0493C788.188 25.6712 788.639 24.5249 789.541 23.6103C790.444 22.6834 791.602 22.22 793.017 22.22C794.358 22.22 795.462 22.6834 796.328 23.6103C797.206 24.5371 797.645 25.6834 797.645 27.0493C797.645 27.3542 797.614 27.6773 797.554 28.0188H790.657ZM790.621 26.1895H795.285C795.151 25.5676 794.871 25.1042 794.444 24.7993C794.029 24.4944 793.554 24.342 793.017 24.342C792.383 24.342 791.858 24.5066 791.444 24.8359C791.029 25.1529 790.755 25.6042 790.621 26.1895ZM804.256 24.7444H802.189V28.5493C802.189 28.8663 802.268 29.0981 802.427 29.2444C802.585 29.3907 802.817 29.4761 803.122 29.5005C803.427 29.5127 803.805 29.5066 804.256 29.4822V31.6224C802.634 31.8054 801.488 31.6529 800.817 31.1651C800.159 30.6773 799.829 29.8054 799.829 28.5493V24.7444H798.238V22.4761H799.829V20.6286L802.189 19.9151V22.4761H804.256V24.7444ZM807.091 21.3786C806.7 21.3786 806.359 21.2383 806.066 20.9578C805.786 20.6651 805.645 20.3237 805.645 19.9334C805.645 19.5432 805.786 19.2017 806.066 18.9091C806.359 18.6164 806.7 18.47 807.091 18.47C807.493 18.47 807.834 18.6164 808.115 18.9091C808.408 19.2017 808.554 19.5432 808.554 19.9334C808.554 20.3237 808.408 20.6651 808.115 20.9578C807.834 21.2383 807.493 21.3786 807.091 21.3786ZM805.92 31.6224V22.4761H808.28V31.6224H805.92ZM815.525 22.22C816.525 22.22 817.348 22.5554 817.994 23.2261C818.653 23.8968 818.982 24.8237 818.982 26.0066V31.6224H816.622V26.2993C816.622 25.6895 816.458 25.2261 816.128 24.909C815.799 24.5798 815.36 24.4151 814.811 24.4151C814.202 24.4151 813.714 24.6042 813.348 24.9822C812.982 25.3603 812.799 25.9273 812.799 26.6834V31.6224H810.439V22.4761H812.799V23.5005C813.372 22.6469 814.281 22.22 815.525 22.22ZM828.003 22.4761H830.308V31.1834C830.308 32.598 829.838 33.6773 828.899 34.4212C827.973 35.1651 826.851 35.5371 825.534 35.5371C824.546 35.5371 823.674 35.348 822.918 34.97C822.174 34.5919 821.601 34.0371 821.198 33.3054L823.21 32.1529C823.674 33.0066 824.473 33.4334 825.607 33.4334C826.351 33.4334 826.936 33.2383 827.363 32.848C827.79 32.4578 828.003 31.9029 828.003 31.1834V30.1956C827.308 31.1224 826.332 31.5859 825.076 31.5859C823.784 31.5859 822.698 31.1346 821.82 30.2322C820.954 29.3176 820.521 28.2078 820.521 26.9029C820.521 25.6103 820.96 24.5066 821.838 23.592C822.716 22.6773 823.796 22.22 825.076 22.22C826.332 22.22 827.308 22.6834 828.003 23.6103V22.4761ZM823.595 28.7139C824.082 29.1773 824.698 29.409 825.442 29.409C826.186 29.409 826.796 29.1773 827.271 28.7139C827.759 28.2383 828.003 27.6346 828.003 26.9029C828.003 26.1834 827.759 25.592 827.271 25.1286C826.796 24.6529 826.186 24.4151 825.442 24.4151C824.698 24.4151 824.082 24.6529 823.595 25.1286C823.119 25.592 822.881 26.1834 822.881 26.9029C822.881 27.6346 823.119 28.2383 823.595 28.7139ZM849.698 24.7444V25.7322C849.698 27.5615 849.112 29.0432 847.942 30.1773C846.771 31.3115 845.259 31.8785 843.405 31.8785C841.429 31.8785 839.789 31.2383 838.484 29.9578C837.192 28.6651 836.545 27.092 836.545 25.2383C836.545 23.3725 837.186 21.7932 838.466 20.5005C839.759 19.2078 841.356 18.5615 843.259 18.5615C844.454 18.5615 845.545 18.8359 846.533 19.3847C847.521 19.9212 848.289 20.6408 848.838 21.5432L846.679 22.7871C846.375 22.2627 845.911 21.8359 845.289 21.5066C844.679 21.1773 843.996 21.0127 843.24 21.0127C842.021 21.0127 841.015 21.4151 840.222 22.22C839.442 23.0127 839.051 24.0188 839.051 25.2383C839.051 26.4456 839.448 27.4456 840.24 28.2383C841.045 29.0188 842.106 29.409 843.423 29.409C844.399 29.409 845.204 29.1956 845.838 28.7688C846.484 28.3298 846.923 27.7322 847.155 26.9761H843.277V24.7444H849.698ZM853.743 24.0493C853.963 23.4639 854.322 23.0249 854.822 22.7322C855.335 22.4395 855.902 22.2932 856.524 22.2932V24.9273C855.804 24.842 855.158 24.9883 854.585 25.3664C854.024 25.7444 853.743 26.3725 853.743 27.2505V31.6224H851.383V22.4761H853.743V24.0493ZM865.357 30.4883C864.418 31.4151 863.272 31.8785 861.918 31.8785C860.564 31.8785 859.418 31.4151 858.479 30.4883C857.552 29.5493 857.089 28.4029 857.089 27.0493C857.089 25.6956 857.552 24.5554 858.479 23.6286C859.418 22.6895 860.564 22.22 861.918 22.22C863.272 22.22 864.418 22.6895 865.357 23.6286C866.296 24.5554 866.766 25.6956 866.766 27.0493C866.766 28.4029 866.296 29.5493 865.357 30.4883ZM860.144 28.8602C860.619 29.3359 861.211 29.5737 861.918 29.5737C862.625 29.5737 863.217 29.3359 863.692 28.8602C864.168 28.3846 864.406 27.781 864.406 27.0493C864.406 26.3176 864.168 25.7139 863.692 25.2383C863.217 24.7627 862.625 24.5249 861.918 24.5249C861.211 24.5249 860.619 24.7627 860.144 25.2383C859.68 25.7139 859.448 26.3176 859.448 27.0493C859.448 27.781 859.68 28.3846 860.144 28.8602ZM874.462 22.4761H876.822V31.6224H874.462V30.598C873.889 31.4517 872.98 31.8785 871.737 31.8785C870.737 31.8785 869.907 31.5432 869.249 30.8724C868.602 30.2017 868.279 29.2749 868.279 28.092V22.4761H870.639V27.7993C870.639 28.409 870.804 28.8785 871.133 29.2078C871.462 29.5249 871.901 29.6834 872.45 29.6834C873.06 29.6834 873.548 29.4944 873.913 29.1163C874.279 28.7383 874.462 28.1712 874.462 27.4151V22.4761ZM884.306 22.22C885.538 22.22 886.587 22.6895 887.453 23.6286C888.331 24.5554 888.77 25.6956 888.77 27.0493C888.77 28.4029 888.331 29.5493 887.453 30.4883C886.587 31.4151 885.538 31.8785 884.306 31.8785C883.026 31.8785 882.038 31.4334 881.343 30.5432V35.281H878.983V22.4761H881.343V23.5554C882.038 22.6651 883.026 22.22 884.306 22.22ZM882.056 28.9151C882.532 29.3907 883.136 29.6285 883.867 29.6285C884.599 29.6285 885.203 29.3907 885.678 28.9151C886.166 28.4273 886.41 27.8054 886.41 27.0493C886.41 26.2932 886.166 25.6773 885.678 25.2017C885.203 24.7139 884.599 24.47 883.867 24.47C883.136 24.47 882.532 24.7139 882.056 25.2017C881.581 25.6773 881.343 26.2932 881.343 27.0493C881.343 27.8054 881.581 28.4273 882.056 28.9151Z" fill="white"/>
<path d="M356.171 31.8784C354.903 31.8784 353.835 31.5979 352.97 31.037C352.104 30.4638 351.494 29.6894 351.14 28.7138L353.299 27.4516C353.799 28.7565 354.781 29.4089 356.244 29.4089C356.951 29.4089 357.47 29.2809 357.799 29.0248C358.128 28.7687 358.293 28.4455 358.293 28.0553C358.293 27.604 358.092 27.2565 357.689 27.0126C357.287 26.7565 356.567 26.4821 355.531 26.1894C354.957 26.0187 354.47 25.8479 354.067 25.6772C353.677 25.5065 353.281 25.2809 352.878 25.0004C352.488 24.7077 352.189 24.3418 351.982 23.9028C351.774 23.4638 351.671 22.9516 351.671 22.3662C351.671 21.2077 352.079 20.287 352.896 19.6041C353.726 18.9089 354.72 18.5614 355.878 18.5614C356.915 18.5614 357.823 18.8175 358.604 19.3297C359.396 19.8297 360.012 20.5309 360.451 21.4333L358.329 22.6589C357.817 21.5614 357 21.0126 355.878 21.0126C355.354 21.0126 354.939 21.1345 354.634 21.3784C354.342 21.6101 354.195 21.915 354.195 22.2931C354.195 22.6955 354.36 23.0248 354.689 23.2809C355.031 23.5248 355.677 23.7931 356.628 24.0857C357.018 24.2077 357.311 24.3053 357.506 24.3784C357.714 24.4394 357.988 24.5431 358.329 24.6894C358.683 24.8236 358.951 24.9516 359.134 25.0736C359.329 25.1955 359.549 25.3601 359.793 25.5675C360.037 25.7748 360.22 25.9882 360.342 26.2077C360.476 26.4272 360.585 26.6955 360.671 27.0126C360.768 27.3174 360.817 27.6528 360.817 28.0187C360.817 29.2016 360.384 30.1406 359.518 30.8357C358.665 31.5309 357.549 31.8784 356.171 31.8784ZM367.677 22.2199C368.909 22.2199 369.958 22.6894 370.823 23.6284C371.701 24.5553 372.14 25.6955 372.14 27.0492C372.14 28.4028 371.701 29.5491 370.823 30.4882C369.958 31.415 368.909 31.8784 367.677 31.8784C366.397 31.8784 365.409 31.4333 364.714 30.543V35.2808H362.354V22.476H364.714V23.5553C365.409 22.665 366.397 22.2199 367.677 22.2199ZM365.427 28.915C365.903 29.3906 366.506 29.6284 367.238 29.6284C367.97 29.6284 368.573 29.3906 369.049 28.915C369.537 28.4272 369.781 27.8053 369.781 27.0492C369.781 26.2931 369.537 25.6772 369.049 25.2016C368.573 24.7138 367.97 24.4699 367.238 24.4699C366.506 24.4699 365.903 24.7138 365.427 25.2016C364.951 25.6772 364.714 26.2931 364.714 27.0492C364.714 27.8053 364.951 28.4272 365.427 28.915ZM374.975 21.3784C374.585 21.3784 374.244 21.2382 373.951 20.9577C373.67 20.665 373.53 20.3236 373.53 19.9333C373.53 19.5431 373.67 19.2016 373.951 18.9089C374.244 18.6163 374.585 18.4699 374.975 18.4699C375.378 18.4699 375.719 18.6163 376 18.9089C376.292 19.2016 376.439 19.5431 376.439 19.9333C376.439 20.3236 376.292 20.665 376 20.9577C375.719 21.2382 375.378 21.3784 374.975 21.3784ZM373.805 31.6223V22.476H376.164V31.6223H373.805ZM384.342 22.476H386.94L383.464 31.6223H380.775L377.3 22.476H379.897L382.111 28.8784L384.342 22.476ZM394.672 22.476H397.032V31.6223H394.672V30.543C393.965 31.4333 392.971 31.8784 391.69 31.8784C390.471 31.8784 389.422 31.415 388.544 30.4882C387.678 29.5491 387.245 28.4028 387.245 27.0492C387.245 25.6955 387.678 24.5553 388.544 23.6284C389.422 22.6894 390.471 22.2199 391.69 22.2199C392.971 22.2199 393.965 22.665 394.672 23.5553V22.476ZM390.318 28.915C390.794 29.3906 391.397 29.6284 392.129 29.6284C392.861 29.6284 393.465 29.3906 393.94 28.915C394.428 28.4272 394.672 27.8053 394.672 27.0492C394.672 26.2931 394.428 25.6772 393.94 25.2016C393.465 24.7138 392.861 24.4699 392.129 24.4699C391.397 24.4699 390.794 24.7138 390.318 25.2016C389.843 25.6772 389.605 26.2931 389.605 27.0492C389.605 27.8053 389.843 28.4272 390.318 28.915ZM407.604 31.6223H404.86L401.531 27.4699V31.6223H399.171V18.8175H401.531V26.5004L404.677 22.476H407.495L403.818 26.9943L407.604 31.6223ZM415.914 30.4882C414.975 31.415 413.828 31.8784 412.475 31.8784C411.121 31.8784 409.975 31.415 409.036 30.4882C408.109 29.5491 407.646 28.4028 407.646 27.0492C407.646 25.6955 408.109 24.5553 409.036 23.6284C409.975 22.6894 411.121 22.2199 412.475 22.2199C413.828 22.2199 414.975 22.6894 415.914 23.6284C416.853 24.5553 417.322 25.6955 417.322 27.0492C417.322 28.4028 416.853 29.5491 415.914 30.4882ZM410.7 28.8601C411.176 29.3357 411.768 29.5735 412.475 29.5735C413.182 29.5735 413.774 29.3357 414.249 28.8601C414.725 28.3845 414.963 27.7809 414.963 27.0492C414.963 26.3175 414.725 25.7138 414.249 25.2382C413.774 24.7626 413.182 24.5248 412.475 24.5248C411.768 24.5248 411.176 24.7626 410.7 25.2382C410.237 25.7138 410.005 26.3175 410.005 27.0492C410.005 27.7809 410.237 28.3845 410.7 28.8601ZM424.643 22.476H427.241L423.765 31.6223H421.076L417.601 22.476H420.198L422.412 28.8784L424.643 22.476ZM445.592 18.8175V31.6223H443.086V23.3175L439.482 29.2626H439.19L435.586 23.3358V31.6223H433.062V18.8175H435.659L439.336 24.8723L442.995 18.8175H445.592ZM454.82 22.476H457.179V31.6223H454.82V30.543C454.112 31.4333 453.118 31.8784 451.838 31.8784C450.618 31.8784 449.57 31.415 448.692 30.4882C447.826 29.5491 447.393 28.4028 447.393 27.0492C447.393 25.6955 447.826 24.5553 448.692 23.6284C449.57 22.6894 450.618 22.2199 451.838 22.2199C453.118 22.2199 454.112 22.665 454.82 23.5553V22.476ZM450.466 28.915C450.942 29.3906 451.545 29.6284 452.277 29.6284C453.009 29.6284 453.612 29.3906 454.088 28.915C454.576 28.4272 454.82 27.8053 454.82 27.0492C454.82 26.2931 454.576 25.6772 454.088 25.2016C453.612 24.7138 453.009 24.4699 452.277 24.4699C451.545 24.4699 450.942 24.7138 450.466 25.2016C449.99 25.6772 449.753 26.2931 449.753 27.0492C449.753 27.8053 449.99 28.4272 450.466 28.915ZM461.679 24.0492C461.898 23.4638 462.258 23.0248 462.758 22.7321C463.27 22.4394 463.837 22.2931 464.459 22.2931V24.9272C463.74 24.8418 463.094 24.9882 462.52 25.3662C461.959 25.7443 461.679 26.3723 461.679 27.2504V31.6223H459.319V22.476H461.679V24.0492ZM474.272 31.6223H471.528L468.199 27.4699V31.6223H465.839V18.8175H468.199V26.5004L471.346 22.476H474.163L470.486 26.9943L474.272 31.6223ZM476.783 28.0187C477.1 29.165 477.96 29.7382 479.362 29.7382C480.265 29.7382 480.948 29.4333 481.411 28.8235L483.314 29.9211C482.411 31.226 481.082 31.8784 479.326 31.8784C477.814 31.8784 476.6 31.4211 475.686 30.5065C474.771 29.5918 474.314 28.4394 474.314 27.0492C474.314 25.6711 474.765 24.5248 475.667 23.6101C476.57 22.6833 477.728 22.2199 479.143 22.2199C480.484 22.2199 481.588 22.6833 482.454 23.6101C483.332 24.537 483.771 25.6833 483.771 27.0492C483.771 27.354 483.74 27.6772 483.679 28.0187H476.783ZM476.747 26.1894H481.411C481.277 25.5675 480.997 25.104 480.57 24.7992C480.155 24.4943 479.68 24.3418 479.143 24.3418C478.509 24.3418 477.984 24.5065 477.57 24.8357C477.155 25.1528 476.881 25.604 476.747 26.1894ZM490.382 24.7443H488.315V28.5492C488.315 28.8662 488.394 29.0979 488.553 29.2443C488.711 29.3906 488.943 29.476 489.248 29.5004C489.553 29.5126 489.931 29.5065 490.382 29.4821V31.6223C488.76 31.8052 487.614 31.6528 486.943 31.165C486.284 30.6772 485.955 29.8052 485.955 28.5492V24.7443H484.364V22.476H485.955V20.6284L488.315 19.915V22.476H490.382V24.7443ZM493.217 21.3784C492.826 21.3784 492.485 21.2382 492.192 20.9577C491.912 20.665 491.771 20.3236 491.771 19.9333C491.771 19.5431 491.912 19.2016 492.192 18.9089C492.485 18.6163 492.826 18.4699 493.217 18.4699C493.619 18.4699 493.96 18.6163 494.241 18.9089C494.534 19.2016 494.68 19.5431 494.68 19.9333C494.68 20.3236 494.534 20.665 494.241 20.9577C493.96 21.2382 493.619 21.3784 493.217 21.3784ZM492.046 31.6223V22.476H494.406V31.6223H492.046ZM501.651 22.2199C502.651 22.2199 503.474 22.5553 504.12 23.226C504.779 23.8967 505.108 24.8236 505.108 26.0065V31.6223H502.748V26.2992C502.748 25.6894 502.584 25.226 502.254 24.9089C501.925 24.5796 501.486 24.415 500.937 24.415C500.328 24.415 499.84 24.604 499.474 24.9821C499.108 25.3601 498.925 25.9272 498.925 26.6833V31.6223H496.565V22.476H498.925V23.5004C499.498 22.6467 500.407 22.2199 501.651 22.2199ZM514.129 22.476H516.434V31.1833C516.434 32.5979 515.964 33.6772 515.025 34.4211C514.099 35.165 512.977 35.5369 511.66 35.5369C510.672 35.5369 509.8 35.3479 509.044 34.9699C508.3 34.5918 507.727 34.0369 507.324 33.3052L509.336 32.1528C509.8 33.0065 510.599 33.4333 511.733 33.4333C512.477 33.4333 513.062 33.2382 513.489 32.8479C513.916 32.4577 514.129 31.9028 514.129 31.1833V30.1955C513.434 31.1223 512.458 31.5857 511.202 31.5857C509.91 31.5857 508.824 31.1345 507.946 30.2321C507.08 29.3174 506.647 28.2077 506.647 26.9028C506.647 25.6101 507.086 24.5065 507.964 23.5918C508.842 22.6772 509.922 22.2199 511.202 22.2199C512.458 22.2199 513.434 22.6833 514.129 23.6101V22.476ZM509.72 28.7138C510.208 29.1772 510.824 29.4089 511.568 29.4089C512.312 29.4089 512.922 29.1772 513.397 28.7138C513.885 28.2382 514.129 27.6345 514.129 26.9028C514.129 26.1833 513.885 25.5918 513.397 25.1284C512.922 24.6528 512.312 24.415 511.568 24.415C510.824 24.415 510.208 24.6528 509.72 25.1284C509.245 25.5918 509.007 26.1833 509.007 26.9028C509.007 27.6345 509.245 28.2382 509.72 28.7138ZM535.824 24.7443V25.7321C535.824 27.5613 535.238 29.0431 534.068 30.1772C532.897 31.3113 531.385 31.8784 529.531 31.8784C527.555 31.8784 525.915 31.2382 524.61 29.9577C523.318 28.665 522.671 27.0918 522.671 25.2382C522.671 23.3723 523.311 21.7931 524.592 20.5004C525.885 19.2077 527.482 18.5614 529.385 18.5614C530.58 18.5614 531.671 18.8358 532.659 19.3845C533.647 19.9211 534.415 20.6406 534.964 21.5431L532.805 22.787C532.5 22.2626 532.037 21.8358 531.415 21.5065C530.805 21.1772 530.122 21.0126 529.366 21.0126C528.147 21.0126 527.141 21.415 526.348 22.2199C525.568 23.0126 525.177 24.0187 525.177 25.2382C525.177 26.4455 525.574 27.4455 526.366 28.2382C527.171 29.0187 528.232 29.4089 529.549 29.4089C530.525 29.4089 531.33 29.1955 531.964 28.7687C532.61 28.3296 533.049 27.7321 533.281 26.976H529.403V24.7443H535.824ZM539.869 24.0492C540.089 23.4638 540.448 23.0248 540.948 22.7321C541.461 22.4394 542.028 22.2931 542.65 22.2931V24.9272C541.93 24.8418 541.284 24.9882 540.711 25.3662C540.15 25.7443 539.869 26.3723 539.869 27.2504V31.6223H537.509V22.476H539.869V24.0492ZM551.483 30.4882C550.544 31.415 549.398 31.8784 548.044 31.8784C546.69 31.8784 545.544 31.415 544.605 30.4882C543.678 29.5491 543.215 28.4028 543.215 27.0492C543.215 25.6955 543.678 24.5553 544.605 23.6284C545.544 22.6894 546.69 22.2199 548.044 22.2199C549.398 22.2199 550.544 22.6894 551.483 23.6284C552.422 24.5553 552.892 25.6955 552.892 27.0492C552.892 28.4028 552.422 29.5491 551.483 30.4882ZM546.27 28.8601C546.745 29.3357 547.337 29.5735 548.044 29.5735C548.751 29.5735 549.343 29.3357 549.818 28.8601C550.294 28.3845 550.532 27.7809 550.532 27.0492C550.532 26.3175 550.294 25.7138 549.818 25.2382C549.343 24.7626 548.751 24.5248 548.044 24.5248C547.337 24.5248 546.745 24.7626 546.27 25.2382C545.806 25.7138 545.574 26.3175 545.574 27.0492C545.574 27.7809 545.806 28.3845 546.27 28.8601ZM560.588 22.476H562.948V31.6223H560.588V30.5979C560.015 31.4516 559.106 31.8784 557.863 31.8784C556.863 31.8784 556.033 31.543 555.375 30.8723C554.728 30.2016 554.405 29.2748 554.405 28.0918V22.476H556.765V27.7992C556.765 28.4089 556.93 28.8784 557.259 29.2077C557.588 29.5248 558.027 29.6833 558.576 29.6833C559.186 29.6833 559.674 29.4943 560.039 29.1162C560.405 28.7382 560.588 28.1711 560.588 27.415V22.476ZM570.432 22.2199C571.664 22.2199 572.713 22.6894 573.579 23.6284C574.457 24.5553 574.896 25.6955 574.896 27.0492C574.896 28.4028 574.457 29.5491 573.579 30.4882C572.713 31.415 571.664 31.8784 570.432 31.8784C569.152 31.8784 568.164 31.4333 567.469 30.543V35.2808H565.109V22.476H567.469V23.5553C568.164 22.665 569.152 22.2199 570.432 22.2199ZM568.182 28.915C568.658 29.3906 569.262 29.6284 569.993 29.6284C570.725 29.6284 571.329 29.3906 571.804 28.915C572.292 28.4272 572.536 27.8053 572.536 27.0492C572.536 26.2931 572.292 25.6772 571.804 25.2016C571.329 24.7138 570.725 24.4699 569.993 24.4699C569.262 24.4699 568.658 24.7138 568.182 25.2016C567.707 25.6772 567.469 26.2931 567.469 27.0492C567.469 27.8053 567.707 28.4272 568.182 28.915Z" fill="white"/>
<path d="M41.8886 31.913C40.6203 31.913 39.5532 31.6325 38.6874 31.0716C37.8215 30.4984 37.2118 29.724 36.8581 28.7484L39.0167 27.4862C39.5167 28.7911 40.4984 29.4435 41.9618 29.4435C42.6691 29.4435 43.1874 29.3155 43.5166 29.0594C43.8459 28.8033 44.0105 28.4801 44.0105 28.0899C44.0105 27.6386 43.8093 27.2911 43.4069 27.0472C43.0044 26.7911 42.2849 26.5167 41.2484 26.224C40.6752 26.0533 40.1874 25.8825 39.7849 25.7118C39.3947 25.5411 38.9984 25.3155 38.5959 25.035C38.2057 24.7423 37.9069 24.3765 37.6996 23.9374C37.4923 23.4984 37.3886 22.9862 37.3886 22.4008C37.3886 21.2423 37.7971 20.3216 38.6142 19.6387C39.4435 18.9435 40.4374 18.596 41.5959 18.596C42.6325 18.596 43.541 18.8521 44.3215 19.3643C45.1142 19.8643 45.7301 20.5655 46.1691 21.4679L44.0471 22.6935C43.5349 21.596 42.7179 21.0472 41.5959 21.0472C41.0715 21.0472 40.6569 21.1691 40.352 21.413C40.0593 21.6448 39.913 21.9496 39.913 22.3277C39.913 22.7301 40.0776 23.0594 40.4069 23.3155C40.7484 23.5594 41.3947 23.8277 42.3459 24.1204C42.7362 24.2423 43.0288 24.3399 43.224 24.413C43.4313 24.474 43.7057 24.5777 44.0471 24.724C44.4008 24.8582 44.6691 24.9862 44.852 25.1082C45.0471 25.2301 45.2666 25.3947 45.5105 25.6021C45.7544 25.8094 45.9374 26.0228 46.0593 26.2423C46.1935 26.4618 46.3032 26.7301 46.3886 27.0472C46.4861 27.3521 46.5349 27.6874 46.5349 28.0533C46.5349 29.2362 46.102 30.1752 45.2362 30.8703C44.3825 31.5655 43.2666 31.913 41.8886 31.913ZM53.3948 22.2545C54.6265 22.2545 55.6753 22.724 56.5411 23.663C57.4192 24.5899 57.8582 25.7301 57.8582 27.0838C57.8582 28.4374 57.4192 29.5838 56.5411 30.5228C55.6753 31.4496 54.6265 31.913 53.3948 31.913C52.1143 31.913 51.1265 31.4679 50.4314 30.5777V35.3154H48.0717V22.5106H50.4314V23.5899C51.1265 22.6996 52.1143 22.2545 53.3948 22.2545ZM51.1448 28.9496C51.6204 29.4252 52.2241 29.663 52.9558 29.663C53.6875 29.663 54.2911 29.4252 54.7668 28.9496C55.2546 28.4618 55.4985 27.8399 55.4985 27.0838C55.4985 26.3277 55.2546 25.7118 54.7668 25.2362C54.2911 24.7484 53.6875 24.5045 52.9558 24.5045C52.2241 24.5045 51.6204 24.7484 51.1448 25.2362C50.6692 25.7118 50.4314 26.3277 50.4314 27.0838C50.4314 27.8399 50.6692 28.4618 51.1448 28.9496ZM60.6931 21.413C60.3029 21.413 59.9614 21.2728 59.6688 20.9923C59.3883 20.6996 59.248 20.3582 59.248 19.9679C59.248 19.5777 59.3883 19.2362 59.6688 18.9435C59.9614 18.6509 60.3029 18.5045 60.6931 18.5045C61.0956 18.5045 61.437 18.6509 61.7175 18.9435C62.0102 19.2362 62.1566 19.5777 62.1566 19.9679C62.1566 20.3582 62.0102 20.6996 61.7175 20.9923C61.437 21.2728 61.0956 21.413 60.6931 21.413ZM59.5224 31.6569V22.5106H61.8822V31.6569H59.5224ZM70.0603 22.5106H72.6578L69.1822 31.6569H66.4932L63.0176 22.5106H65.6151L67.8286 28.913L70.0603 22.5106ZM80.3896 22.5106H82.7493V31.6569H80.3896V30.5777C79.6823 31.4679 78.6884 31.913 77.4079 31.913C76.1884 31.913 75.1396 31.4496 74.2616 30.5228C73.3957 29.5838 72.9628 28.4374 72.9628 27.0838C72.9628 25.7301 73.3957 24.5899 74.2616 23.663C75.1396 22.724 76.1884 22.2545 77.4079 22.2545C78.6884 22.2545 79.6823 22.6996 80.3896 23.5899V22.5106ZM76.0359 28.9496C76.5116 29.4252 77.1152 29.663 77.8469 29.663C78.5786 29.663 79.1823 29.4252 79.6579 28.9496C80.1457 28.4618 80.3896 27.8399 80.3896 27.0838C80.3896 26.3277 80.1457 25.7118 79.6579 25.2362C79.1823 24.7484 78.5786 24.5045 77.8469 24.5045C77.1152 24.5045 76.5116 24.7484 76.0359 25.2362C75.5603 25.7118 75.3225 26.3277 75.3225 27.0838C75.3225 27.8399 75.5603 28.4618 76.0359 28.9496ZM93.3221 31.6569H90.5782L87.2489 27.5045V31.6569H84.8892V18.8521H87.2489V26.535L90.3952 22.5106H93.2123L89.5355 27.0289L93.3221 31.6569ZM101.632 30.5228C100.693 31.4496 99.5463 31.913 98.1926 31.913C96.839 31.913 95.6926 31.4496 94.7536 30.5228C93.8268 29.5838 93.3634 28.4374 93.3634 27.0838C93.3634 25.7301 93.8268 24.5899 94.7536 23.663C95.6926 22.724 96.839 22.2545 98.1926 22.2545C99.5463 22.2545 100.693 22.724 101.632 23.663C102.571 24.5899 103.04 25.7301 103.04 27.0838C103.04 28.4374 102.571 29.5838 101.632 30.5228ZM96.4182 28.8947C96.8938 29.3703 97.4853 29.6081 98.1926 29.6081C98.8999 29.6081 99.4914 29.3703 99.967 28.8947C100.443 28.4191 100.68 27.8155 100.68 27.0838C100.68 26.3521 100.443 25.7484 99.967 25.2728C99.4914 24.7972 98.8999 24.5594 98.1926 24.5594C97.4853 24.5594 96.8938 24.7972 96.4182 25.2728C95.9548 25.7484 95.7231 26.3521 95.7231 27.0838C95.7231 27.8155 95.9548 28.4191 96.4182 28.8947ZM110.361 22.5106H112.959L109.483 31.6569H106.794L103.319 22.5106H105.916L108.13 28.913L110.361 22.5106ZM131.31 18.8521V31.6569H128.804V23.3521L125.2 29.2972H124.908L121.304 23.3704V31.6569H118.78V18.8521H121.377L125.054 24.9069L128.712 18.8521H131.31ZM140.537 22.5106H142.897V31.6569H140.537V30.5777C139.83 31.4679 138.836 31.913 137.556 31.913C136.336 31.913 135.287 31.4496 134.409 30.5228C133.543 29.5838 133.111 28.4374 133.111 27.0838C133.111 25.7301 133.543 24.5899 134.409 23.663C135.287 22.724 136.336 22.2545 137.556 22.2545C138.836 22.2545 139.83 22.6996 140.537 23.5899V22.5106ZM136.184 28.9496C136.659 29.4252 137.263 29.663 137.995 29.663C138.726 29.663 139.33 29.4252 139.806 28.9496C140.293 28.4618 140.537 27.8399 140.537 27.0838C140.537 26.3277 140.293 25.7118 139.806 25.2362C139.33 24.7484 138.726 24.5045 137.995 24.5045C137.263 24.5045 136.659 24.7484 136.184 25.2362C135.708 25.7118 135.47 26.3277 135.47 27.0838C135.47 27.8399 135.708 28.4618 136.184 28.9496ZM147.397 24.0838C147.616 23.4984 147.976 23.0594 148.476 22.7667C148.988 22.474 149.555 22.3277 150.177 22.3277V24.9618C149.458 24.8765 148.811 25.0228 148.238 25.4008C147.677 25.7789 147.397 26.4069 147.397 27.285V31.6569H145.037V22.5106H147.397V24.0838ZM159.99 31.6569H157.246L153.917 27.5045V31.6569H151.557V18.8521H153.917V26.535L157.063 22.5106H159.88L156.204 27.0289L159.99 31.6569ZM162.501 28.0533C162.818 29.1996 163.678 29.7728 165.08 29.7728C165.983 29.7728 166.666 29.4679 167.129 28.8581L169.031 29.9557C168.129 31.2606 166.8 31.913 165.044 31.913C163.531 31.913 162.318 31.4557 161.403 30.5411C160.489 29.6264 160.031 28.474 160.031 27.0838C160.031 25.7057 160.483 24.5594 161.385 23.6447C162.288 22.7179 163.446 22.2545 164.861 22.2545C166.202 22.2545 167.306 22.7179 168.172 23.6447C169.05 24.5716 169.489 25.7179 169.489 27.0838C169.489 27.3886 169.458 27.7118 169.397 28.0533H162.501ZM162.464 26.224H167.129C166.995 25.6021 166.714 25.1386 166.288 24.8338C165.873 24.5289 165.397 24.3765 164.861 24.3765C164.227 24.3765 163.702 24.5411 163.288 24.8704C162.873 25.1874 162.599 25.6386 162.464 26.224ZM176.1 24.7789H174.033V28.5838C174.033 28.9008 174.112 29.1325 174.271 29.2789C174.429 29.4252 174.661 29.5106 174.966 29.535C175.271 29.5472 175.649 29.5411 176.1 29.5167V31.6569C174.478 31.8398 173.332 31.6874 172.661 31.1996C172.002 30.7118 171.673 29.8399 171.673 28.5838V24.7789H170.082V22.5106H171.673V20.663L174.033 19.9496V22.5106H176.1V24.7789ZM178.934 21.413C178.544 21.413 178.203 21.2728 177.91 20.9923C177.629 20.6996 177.489 20.3582 177.489 19.9679C177.489 19.5777 177.629 19.2362 177.91 18.9435C178.203 18.6509 178.544 18.5045 178.934 18.5045C179.337 18.5045 179.678 18.6509 179.959 18.9435C180.251 19.2362 180.398 19.5777 180.398 19.9679C180.398 20.3582 180.251 20.6996 179.959 20.9923C179.678 21.2728 179.337 21.413 178.934 21.413ZM177.764 31.6569V22.5106H180.123V31.6569H177.764ZM187.368 22.2545C188.368 22.2545 189.192 22.5899 189.838 23.2606C190.497 23.9313 190.826 24.8582 190.826 26.0411V31.6569H188.466V26.3338C188.466 25.724 188.301 25.2606 187.972 24.9435C187.643 24.6143 187.204 24.4496 186.655 24.4496C186.045 24.4496 185.558 24.6386 185.192 25.0167C184.826 25.3947 184.643 25.9618 184.643 26.7179V31.6569H182.283V22.5106H184.643V23.535C185.216 22.6813 186.125 22.2545 187.368 22.2545ZM199.847 22.5106H202.152V31.2179C202.152 32.6325 201.682 33.7118 200.743 34.4557C199.816 35.1996 198.694 35.5715 197.377 35.5715C196.389 35.5715 195.518 35.3825 194.761 35.0045C194.018 34.6264 193.444 34.0715 193.042 33.3398L195.054 32.1874C195.518 33.0411 196.316 33.4679 197.45 33.4679C198.194 33.4679 198.78 33.2728 199.207 32.8825C199.633 32.4923 199.847 31.9374 199.847 31.2179V30.2301C199.152 31.1569 198.176 31.6203 196.92 31.6203C195.627 31.6203 194.542 31.1691 193.664 30.2667C192.798 29.352 192.365 28.2423 192.365 26.9374C192.365 25.6447 192.804 24.5411 193.682 23.6265C194.56 22.7118 195.639 22.2545 196.92 22.2545C198.176 22.2545 199.152 22.7179 199.847 23.6447V22.5106ZM195.438 28.7484C195.926 29.2118 196.542 29.4435 197.286 29.4435C198.03 29.4435 198.639 29.2118 199.115 28.7484C199.603 28.2728 199.847 27.6691 199.847 26.9374C199.847 26.2179 199.603 25.6264 199.115 25.163C198.639 24.6874 198.03 24.4496 197.286 24.4496C196.542 24.4496 195.926 24.6874 195.438 25.163C194.963 25.6264 194.725 26.2179 194.725 26.9374C194.725 27.6691 194.963 28.2728 195.438 28.7484ZM221.541 24.7789V25.7667C221.541 27.596 220.956 29.0777 219.785 30.2118C218.615 31.3459 217.102 31.913 215.249 31.913C213.273 31.913 211.633 31.2728 210.328 29.9923C209.035 28.6996 208.389 27.1264 208.389 25.2728C208.389 23.4069 209.029 21.8277 210.31 20.535C211.602 19.2423 213.2 18.596 215.102 18.596C216.298 18.596 217.389 18.8704 218.377 19.4191C219.365 19.9557 220.133 20.6752 220.682 21.5777L218.523 22.8216C218.218 22.2972 217.755 21.8704 217.133 21.5411C216.523 21.2118 215.84 21.0472 215.084 21.0472C213.865 21.0472 212.859 21.4496 212.066 22.2545C211.285 23.0472 210.895 24.0533 210.895 25.2728C210.895 26.4801 211.291 27.4801 212.084 28.2728C212.889 29.0533 213.95 29.4435 215.267 29.4435C216.243 29.4435 217.048 29.2301 217.682 28.8033C218.328 28.3642 218.767 27.7667 218.999 27.0106H215.121V24.7789H221.541ZM225.587 24.0838C225.806 23.4984 226.166 23.0594 226.666 22.7667C227.178 22.474 227.745 22.3277 228.367 22.3277V24.9618C227.648 24.8765 227.002 25.0228 226.428 25.4008C225.867 25.7789 225.587 26.4069 225.587 27.285V31.6569H223.227V22.5106H225.587V24.0838ZM237.201 30.5228C236.262 31.4496 235.115 31.913 233.762 31.913C232.408 31.913 231.262 31.4496 230.323 30.5228C229.396 29.5838 228.932 28.4374 228.932 27.0838C228.932 25.7301 229.396 24.5899 230.323 23.663C231.262 22.724 232.408 22.2545 233.762 22.2545C235.115 22.2545 236.262 22.724 237.201 23.663C238.14 24.5899 238.609 25.7301 238.609 27.0838C238.609 28.4374 238.14 29.5838 237.201 30.5228ZM231.987 28.8947C232.463 29.3703 233.054 29.6081 233.762 29.6081C234.469 29.6081 235.061 29.3703 235.536 28.8947C236.012 28.4191 236.25 27.8155 236.25 27.0838C236.25 26.3521 236.012 25.7484 235.536 25.2728C235.061 24.7972 234.469 24.5594 233.762 24.5594C233.054 24.5594 232.463 24.7972 231.987 25.2728C231.524 25.7484 231.292 26.3521 231.292 27.0838C231.292 27.8155 231.524 28.4191 231.987 28.8947ZM246.306 22.5106H248.666V31.6569H246.306V30.6325C245.733 31.4862 244.824 31.913 243.58 31.913C242.58 31.913 241.751 31.5777 241.093 30.9069C240.446 30.2362 240.123 29.3094 240.123 28.1264V22.5106H242.483V27.8338C242.483 28.4435 242.647 28.913 242.977 29.2423C243.306 29.5594 243.745 29.7179 244.294 29.7179C244.903 29.7179 245.391 29.5289 245.757 29.1508C246.123 28.7728 246.306 28.2057 246.306 27.4496V22.5106ZM256.15 22.2545C257.382 22.2545 258.431 22.724 259.296 23.663C260.174 24.5899 260.613 25.7301 260.613 27.0838C260.613 28.4374 260.174 29.5838 259.296 30.5228C258.431 31.4496 257.382 31.913 256.15 31.913C254.87 31.913 253.882 31.4679 253.187 30.5777V35.3154H250.827V22.5106H253.187V23.5899C253.882 22.6996 254.87 22.2545 256.15 22.2545ZM253.9 28.9496C254.376 29.4252 254.979 29.663 255.711 29.663C256.443 29.663 257.046 29.4252 257.522 28.9496C258.01 28.4618 258.254 27.8399 258.254 27.0838C258.254 26.3277 258.01 25.7118 257.522 25.2362C257.046 24.7484 256.443 24.5045 255.711 24.5045C254.979 24.5045 254.376 24.7484 253.9 25.2362C253.424 25.7118 253.187 26.3277 253.187 27.0838C253.187 27.8399 253.424 28.4618 253.9 28.9496Z" fill="white"/>
<path d="M983.919 31.8784C982.651 31.8784 981.584 31.5979 980.718 31.037C979.852 30.4638 979.243 29.6894 978.889 28.7138L981.047 27.4516C981.547 28.7565 982.529 29.4089 983.993 29.4089C984.7 29.4089 985.218 29.2809 985.547 29.0248C985.877 28.7687 986.041 28.4455 986.041 28.0553C986.041 27.604 985.84 27.2565 985.438 27.0126C985.035 26.7565 984.316 26.4821 983.279 26.1894C982.706 26.0187 982.218 25.8479 981.816 25.6772C981.425 25.5065 981.029 25.2809 980.627 25.0004C980.236 24.7077 979.938 24.3418 979.73 23.9028C979.523 23.4638 979.419 22.9516 979.419 22.3662C979.419 21.2077 979.828 20.287 980.645 19.6041C981.474 18.9089 982.468 18.5614 983.627 18.5614C984.663 18.5614 985.572 18.8175 986.352 19.3297C987.145 19.8297 987.761 20.5309 988.2 21.4333L986.078 22.6589C985.566 21.5614 984.749 21.0126 983.627 21.0126C983.102 21.0126 982.688 21.1345 982.383 21.3784C982.09 21.6101 981.944 21.915 981.944 22.2931C981.944 22.6955 982.108 23.0248 982.438 23.2809C982.779 23.5248 983.425 23.7931 984.377 24.0857C984.767 24.2077 985.06 24.3053 985.255 24.3784C985.462 24.4394 985.736 24.5431 986.078 24.6894C986.432 24.8236 986.7 24.9516 986.883 25.0736C987.078 25.1955 987.297 25.3601 987.541 25.5675C987.785 25.7748 987.968 25.9882 988.09 26.2077C988.224 26.4272 988.334 26.6955 988.419 27.0126C988.517 27.3174 988.566 27.6528 988.566 28.0187C988.566 29.2016 988.133 30.1406 987.267 30.8357C986.413 31.5309 985.297 31.8784 983.919 31.8784ZM995.426 22.2199C996.657 22.2199 997.706 22.6894 998.572 23.6284C999.45 24.5553 999.889 25.6955 999.889 27.0492C999.889 28.4028 999.45 29.5491 998.572 30.4882C997.706 31.415 996.657 31.8784 995.426 31.8784C994.145 31.8784 993.157 31.4333 992.462 30.543V35.2808H990.102V22.476H992.462V23.5553C993.157 22.665 994.145 22.2199 995.426 22.2199ZM993.176 28.915C993.651 29.3906 994.255 29.6284 994.987 29.6284C995.718 29.6284 996.322 29.3906 996.798 28.915C997.285 28.4272 997.529 27.8053 997.529 27.0492C997.529 26.2931 997.285 25.6772 996.798 25.2016C996.322 24.7138 995.718 24.4699 994.987 24.4699C994.255 24.4699 993.651 24.7138 993.176 25.2016C992.7 25.6772 992.462 26.2931 992.462 27.0492C992.462 27.8053 992.7 28.4272 993.176 28.915ZM1002.72 21.3784C1002.33 21.3784 1001.99 21.2382 1001.7 20.9577C1001.42 20.665 1001.28 20.3236 1001.28 19.9333C1001.28 19.5431 1001.42 19.2016 1001.7 18.9089C1001.99 18.6163 1002.33 18.4699 1002.72 18.4699C1003.13 18.4699 1003.47 18.6163 1003.75 18.9089C1004.04 19.2016 1004.19 19.5431 1004.19 19.9333C1004.19 20.3236 1004.04 20.665 1003.75 20.9577C1003.47 21.2382 1003.13 21.3784 1002.72 21.3784ZM1001.55 31.6223V22.476H1003.91V31.6223H1001.55ZM1012.09 22.476H1014.69L1011.21 31.6223H1008.52L1005.05 22.476H1007.65L1009.86 28.8784L1012.09 22.476ZM1022.42 22.476H1024.78V31.6223H1022.42V30.543C1021.71 31.4333 1020.72 31.8784 1019.44 31.8784C1018.22 31.8784 1017.17 31.415 1016.29 30.4882C1015.43 29.5491 1014.99 28.4028 1014.99 27.0492C1014.99 25.6955 1015.43 24.5553 1016.29 23.6284C1017.17 22.6894 1018.22 22.2199 1019.44 22.2199C1020.72 22.2199 1021.71 22.665 1022.42 23.5553V22.476ZM1018.07 28.915C1018.54 29.3906 1019.15 29.6284 1019.88 29.6284C1020.61 29.6284 1021.21 29.3906 1021.69 28.915C1022.18 28.4272 1022.42 27.8053 1022.42 27.0492C1022.42 26.2931 1022.18 25.6772 1021.69 25.2016C1021.21 24.7138 1020.61 24.4699 1019.88 24.4699C1019.15 24.4699 1018.54 24.7138 1018.07 25.2016C1017.59 25.6772 1017.35 26.2931 1017.35 27.0492C1017.35 27.8053 1017.59 28.4272 1018.07 28.915ZM1035.35 31.6223H1032.61L1029.28 27.4699V31.6223H1026.92V18.8175H1029.28V26.5004L1032.43 22.476H1035.24L1031.57 26.9943L1035.35 31.6223ZM1043.66 30.4882C1042.72 31.415 1041.58 31.8784 1040.22 31.8784C1038.87 31.8784 1037.72 31.415 1036.78 30.4882C1035.86 29.5491 1035.39 28.4028 1035.39 27.0492C1035.39 25.6955 1035.86 24.5553 1036.78 23.6284C1037.72 22.6894 1038.87 22.2199 1040.22 22.2199C1041.58 22.2199 1042.72 22.6894 1043.66 23.6284C1044.6 24.5553 1045.07 25.6955 1045.07 27.0492C1045.07 28.4028 1044.6 29.5491 1043.66 30.4882ZM1038.45 28.8601C1038.92 29.3357 1039.52 29.5735 1040.22 29.5735C1040.93 29.5735 1041.52 29.3357 1042 28.8601C1042.47 28.3845 1042.71 27.7809 1042.71 27.0492C1042.71 26.3175 1042.47 25.7138 1042 25.2382C1041.52 24.7626 1040.93 24.5248 1040.22 24.5248C1039.52 24.5248 1038.92 24.7626 1038.45 25.2382C1037.99 25.7138 1037.75 26.3175 1037.75 27.0492C1037.75 27.7809 1037.99 28.3845 1038.45 28.8601ZM1052.39 22.476H1054.99L1051.51 31.6223H1048.82L1045.35 22.476H1047.95L1050.16 28.8784L1052.39 22.476ZM1073.34 18.8175V31.6223H1070.83V23.3175L1067.23 29.2626H1066.94L1063.33 23.3358V31.6223H1060.81V18.8175H1063.41L1067.08 24.8723L1070.74 18.8175H1073.34ZM1082.57 22.476H1084.93V31.6223H1082.57V30.543C1081.86 31.4333 1080.87 31.8784 1079.59 31.8784C1078.37 31.8784 1077.32 31.415 1076.44 30.4882C1075.57 29.5491 1075.14 28.4028 1075.14 27.0492C1075.14 25.6955 1075.57 24.5553 1076.44 23.6284C1077.32 22.6894 1078.37 22.2199 1079.59 22.2199C1080.87 22.2199 1081.86 22.665 1082.57 23.5553V22.476ZM1078.21 28.915C1078.69 29.3906 1079.29 29.6284 1080.03 29.6284C1080.76 29.6284 1081.36 29.3906 1081.84 28.915C1082.32 28.4272 1082.57 27.8053 1082.57 27.0492C1082.57 26.2931 1082.32 25.6772 1081.84 25.2016C1081.36 24.7138 1080.76 24.4699 1080.03 24.4699C1079.29 24.4699 1078.69 24.7138 1078.21 25.2016C1077.74 25.6772 1077.5 26.2931 1077.5 27.0492C1077.5 27.8053 1077.74 28.4272 1078.21 28.915ZM1089.43 24.0492C1089.65 23.4638 1090.01 23.0248 1090.51 22.7321C1091.02 22.4394 1091.59 22.2931 1092.21 22.2931V24.9272C1091.49 24.8418 1090.84 24.9882 1090.27 25.3662C1089.71 25.7443 1089.43 26.3723 1089.43 27.2504V31.6223H1087.07V22.476H1089.43V24.0492ZM1102.02 31.6223H1099.28L1095.95 27.4699V31.6223H1093.59V18.8175H1095.95V26.5004L1099.09 22.476H1101.91L1098.23 26.9943L1102.02 31.6223ZM1104.53 28.0187C1104.85 29.165 1105.71 29.7382 1107.11 29.7382C1108.01 29.7382 1108.7 29.4333 1109.16 28.8235L1111.06 29.9211C1110.16 31.226 1108.83 31.8784 1107.07 31.8784C1105.56 31.8784 1104.35 31.4211 1103.43 30.5065C1102.52 29.5918 1102.06 28.4394 1102.06 27.0492C1102.06 25.6711 1102.51 24.5248 1103.42 23.6101C1104.32 22.6833 1105.48 22.2199 1106.89 22.2199C1108.23 22.2199 1109.34 22.6833 1110.2 23.6101C1111.08 24.537 1111.52 25.6833 1111.52 27.0492C1111.52 27.354 1111.49 27.6772 1111.43 28.0187H1104.53ZM1104.5 26.1894H1109.16C1109.03 25.5675 1108.75 25.104 1108.32 24.7992C1107.9 24.4943 1107.43 24.3418 1106.89 24.3418C1106.26 24.3418 1105.73 24.5065 1105.32 24.8357C1104.9 25.1528 1104.63 25.604 1104.5 26.1894ZM1118.13 24.7443H1116.06V28.5492C1116.06 28.8662 1116.14 29.0979 1116.3 29.2443C1116.46 29.3906 1116.69 29.476 1117 29.5004C1117.3 29.5126 1117.68 29.5065 1118.13 29.4821V31.6223C1116.51 31.8052 1115.36 31.6528 1114.69 31.165C1114.03 30.6772 1113.7 29.8052 1113.7 28.5492V24.7443H1112.11V22.476H1113.7V20.6284L1116.06 19.915V22.476H1118.13V24.7443ZM1120.97 21.3784C1120.57 21.3784 1120.23 21.2382 1119.94 20.9577C1119.66 20.665 1119.52 20.3236 1119.52 19.9333C1119.52 19.5431 1119.66 19.2016 1119.94 18.9089C1120.23 18.6163 1120.57 18.4699 1120.97 18.4699C1121.37 18.4699 1121.71 18.6163 1121.99 18.9089C1122.28 19.2016 1122.43 19.5431 1122.43 19.9333C1122.43 20.3236 1122.28 20.665 1121.99 20.9577C1121.71 21.2382 1121.37 21.3784 1120.97 21.3784ZM1119.79 31.6223V22.476H1122.15V31.6223H1119.79ZM1129.4 22.2199C1130.4 22.2199 1131.22 22.5553 1131.87 23.226C1132.53 23.8967 1132.86 24.8236 1132.86 26.0065V31.6223H1130.5V26.2992C1130.5 25.6894 1130.33 25.226 1130 24.9089C1129.67 24.5796 1129.23 24.415 1128.69 24.415C1128.08 24.415 1127.59 24.604 1127.22 24.9821C1126.86 25.3601 1126.67 25.9272 1126.67 26.6833V31.6223H1124.31V22.476H1126.67V23.5004C1127.25 22.6467 1128.16 22.2199 1129.4 22.2199ZM1141.88 22.476H1144.18V31.1833C1144.18 32.5979 1143.71 33.6772 1142.77 34.4211C1141.85 35.165 1140.73 35.5369 1139.41 35.5369C1138.42 35.5369 1137.55 35.3479 1136.79 34.9699C1136.05 34.5918 1135.48 34.0369 1135.07 33.3052L1137.08 32.1528C1137.55 33.0065 1138.35 33.4333 1139.48 33.4333C1140.23 33.4333 1140.81 33.2382 1141.24 32.8479C1141.66 32.4577 1141.88 31.9028 1141.88 31.1833V30.1955C1141.18 31.1223 1140.21 31.5857 1138.95 31.5857C1137.66 31.5857 1136.57 31.1345 1135.69 30.2321C1134.83 29.3174 1134.4 28.2077 1134.4 26.9028C1134.4 25.6101 1134.83 24.5065 1135.71 23.5918C1136.59 22.6772 1137.67 22.2199 1138.95 22.2199C1140.21 22.2199 1141.18 22.6833 1141.88 23.6101V22.476ZM1137.47 28.7138C1137.96 29.1772 1138.57 29.4089 1139.32 29.4089C1140.06 29.4089 1140.67 29.1772 1141.15 28.7138C1141.63 28.2382 1141.88 27.6345 1141.88 26.9028C1141.88 26.1833 1141.63 25.5918 1141.15 25.1284C1140.67 24.6528 1140.06 24.415 1139.32 24.415C1138.57 24.415 1137.96 24.6528 1137.47 25.1284C1136.99 25.5918 1136.76 26.1833 1136.76 26.9028C1136.76 27.6345 1136.99 28.2382 1137.47 28.7138ZM1163.57 24.7443V25.7321C1163.57 27.5613 1162.99 29.0431 1161.82 30.1772C1160.65 31.3113 1159.13 31.8784 1157.28 31.8784C1155.3 31.8784 1153.66 31.2382 1152.36 29.9577C1151.07 28.665 1150.42 27.0918 1150.42 25.2382C1150.42 23.3723 1151.06 21.7931 1152.34 20.5004C1153.63 19.2077 1155.23 18.5614 1157.13 18.5614C1158.33 18.5614 1159.42 18.8358 1160.41 19.3845C1161.4 19.9211 1162.16 20.6406 1162.71 21.5431L1160.55 22.787C1160.25 22.2626 1159.79 21.8358 1159.16 21.5065C1158.55 21.1772 1157.87 21.0126 1157.11 21.0126C1155.9 21.0126 1154.89 21.415 1154.1 22.2199C1153.32 23.0126 1152.93 24.0187 1152.93 25.2382C1152.93 26.4455 1153.32 27.4455 1154.11 28.2382C1154.92 29.0187 1155.98 29.4089 1157.3 29.4089C1158.27 29.4089 1159.08 29.1955 1159.71 28.7687C1160.36 28.3296 1160.8 27.7321 1161.03 26.976H1157.15V24.7443H1163.57ZM1167.62 24.0492C1167.84 23.4638 1168.2 23.0248 1168.7 22.7321C1169.21 22.4394 1169.78 22.2931 1170.4 22.2931V24.9272C1169.68 24.8418 1169.03 24.9882 1168.46 25.3662C1167.9 25.7443 1167.62 26.3723 1167.62 27.2504V31.6223H1165.26V22.476H1167.62V24.0492ZM1179.23 30.4882C1178.29 31.415 1177.15 31.8784 1175.79 31.8784C1174.44 31.8784 1173.29 31.415 1172.35 30.4882C1171.43 29.5491 1170.96 28.4028 1170.96 27.0492C1170.96 25.6955 1171.43 24.5553 1172.35 23.6284C1173.29 22.6894 1174.44 22.2199 1175.79 22.2199C1177.15 22.2199 1178.29 22.6894 1179.23 23.6284C1180.17 24.5553 1180.64 25.6955 1180.64 27.0492C1180.64 28.4028 1180.17 29.5491 1179.23 30.4882ZM1174.02 28.8601C1174.49 29.3357 1175.09 29.5735 1175.79 29.5735C1176.5 29.5735 1177.09 29.3357 1177.57 28.8601C1178.04 28.3845 1178.28 27.7809 1178.28 27.0492C1178.28 26.3175 1178.04 25.7138 1177.57 25.2382C1177.09 24.7626 1176.5 24.5248 1175.79 24.5248C1175.09 24.5248 1174.49 24.7626 1174.02 25.2382C1173.55 25.7138 1173.32 26.3175 1173.32 27.0492C1173.32 27.7809 1173.55 28.3845 1174.02 28.8601ZM1188.34 22.476H1190.7V31.6223H1188.34V30.5979C1187.76 31.4516 1186.85 31.8784 1185.61 31.8784C1184.61 31.8784 1183.78 31.543 1183.12 30.8723C1182.48 30.2016 1182.15 29.2748 1182.15 28.0918V22.476H1184.51V27.7992C1184.51 28.4089 1184.68 28.8784 1185.01 29.2077C1185.34 29.5248 1185.78 29.6833 1186.32 29.6833C1186.93 29.6833 1187.42 29.4943 1187.79 29.1162C1188.15 28.7382 1188.34 28.1711 1188.34 27.415V22.476ZM1198.18 22.2199C1199.41 22.2199 1200.46 22.6894 1201.33 23.6284C1202.21 24.5553 1202.64 25.6955 1202.64 27.0492C1202.64 28.4028 1202.21 29.5491 1201.33 30.4882C1200.46 31.415 1199.41 31.8784 1198.18 31.8784C1196.9 31.8784 1195.91 31.4333 1195.22 30.543V35.2808H1192.86V22.476H1195.22V23.5553C1195.91 22.665 1196.9 22.2199 1198.18 22.2199ZM1195.93 28.915C1196.41 29.3906 1197.01 29.6284 1197.74 29.6284C1198.47 29.6284 1199.08 29.3906 1199.55 28.915C1200.04 28.4272 1200.28 27.8053 1200.28 27.0492C1200.28 26.2931 1200.04 25.6772 1199.55 25.2016C1199.08 24.7138 1198.47 24.4699 1197.74 24.4699C1197.01 24.4699 1196.41 24.7138 1195.93 25.2016C1195.46 25.6772 1195.22 26.2931 1195.22 27.0492C1195.22 27.8053 1195.46 28.4272 1195.93 28.915Z" fill="white"/>
<path d="M1297.79 31.8786C1296.53 31.8786 1295.46 31.5981 1294.59 31.0371C1293.73 30.464 1293.12 29.6896 1292.76 28.714L1294.92 27.4518C1295.42 28.7567 1296.4 29.4091 1297.87 29.4091C1298.57 29.4091 1299.09 29.281 1299.42 29.0249C1299.75 28.7688 1299.92 28.4457 1299.92 28.0554C1299.92 27.6042 1299.72 27.2567 1299.31 27.0128C1298.91 26.7567 1298.19 26.4823 1297.15 26.1896C1296.58 26.0189 1296.09 25.8481 1295.69 25.6774C1295.3 25.5067 1294.9 25.2811 1294.5 25.0006C1294.11 24.7079 1293.81 24.342 1293.61 23.903C1293.4 23.464 1293.29 22.9518 1293.29 22.3664C1293.29 21.2079 1293.7 20.2872 1294.52 19.6042C1295.35 18.9091 1296.34 18.5616 1297.5 18.5616C1298.54 18.5616 1299.45 18.8177 1300.23 19.3298C1301.02 19.8298 1301.64 20.5311 1302.07 21.4335L1299.95 22.6591C1299.44 21.5615 1298.62 21.0128 1297.5 21.0128C1296.98 21.0128 1296.56 21.1347 1296.26 21.3786C1295.97 21.6103 1295.82 21.9152 1295.82 22.2933C1295.82 22.6957 1295.98 23.025 1296.31 23.2811C1296.65 23.525 1297.3 23.7932 1298.25 24.0859C1298.64 24.2079 1298.93 24.3054 1299.13 24.3786C1299.34 24.4396 1299.61 24.5432 1299.95 24.6896C1300.31 24.8237 1300.57 24.9518 1300.76 25.0737C1300.95 25.1957 1301.17 25.3603 1301.42 25.5676C1301.66 25.775 1301.84 25.9884 1301.97 26.2079C1302.1 26.4274 1302.21 26.6957 1302.29 27.0128C1302.39 27.3176 1302.44 27.653 1302.44 28.0188C1302.44 29.2018 1302.01 30.1408 1301.14 30.8359C1300.29 31.531 1299.17 31.8786 1297.79 31.8786ZM1309.3 22.2201C1310.53 22.2201 1311.58 22.6896 1312.45 23.6286C1313.32 24.5554 1313.76 25.6957 1313.76 27.0493C1313.76 28.403 1313.32 29.5493 1312.45 30.4884C1311.58 31.4152 1310.53 31.8786 1309.3 31.8786C1308.02 31.8786 1307.03 31.4335 1306.34 30.5432V35.281H1303.98V22.4762H1306.34V23.5554C1307.03 22.6652 1308.02 22.2201 1309.3 22.2201ZM1307.05 28.9152C1307.53 29.3908 1308.13 29.6286 1308.86 29.6286C1309.59 29.6286 1310.2 29.3908 1310.67 28.9152C1311.16 28.4274 1311.4 27.8054 1311.4 27.0493C1311.4 26.2932 1311.16 25.6774 1310.67 25.2018C1310.2 24.714 1309.59 24.4701 1308.86 24.4701C1308.13 24.4701 1307.53 24.714 1307.05 25.2018C1306.57 25.6774 1306.34 26.2932 1306.34 27.0493C1306.34 27.8054 1306.57 28.4274 1307.05 28.9152ZM1316.6 21.3786C1316.21 21.3786 1315.87 21.2384 1315.57 20.9579C1315.29 20.6652 1315.15 20.3237 1315.15 19.9335C1315.15 19.5433 1315.29 19.2018 1315.57 18.9091C1315.87 18.6164 1316.21 18.4701 1316.6 18.4701C1317 18.4701 1317.34 18.6164 1317.62 18.9091C1317.92 19.2018 1318.06 19.5433 1318.06 19.9335C1318.06 20.3237 1317.92 20.6652 1317.62 20.9579C1317.34 21.2384 1317 21.3786 1316.6 21.3786ZM1315.43 31.6225V22.4762H1317.79V31.6225H1315.43ZM1325.97 22.4762H1328.56L1325.09 31.6225H1322.4L1318.92 22.4762H1321.52L1323.73 28.8786L1325.97 22.4762ZM1336.3 22.4762H1338.66V31.6225H1336.3V30.5432C1335.59 31.4335 1334.59 31.8786 1333.31 31.8786C1332.09 31.8786 1331.05 31.4152 1330.17 30.4884C1329.3 29.5493 1328.87 28.403 1328.87 27.0493C1328.87 25.6957 1329.3 24.5554 1330.17 23.6286C1331.05 22.6896 1332.09 22.2201 1333.31 22.2201C1334.59 22.2201 1335.59 22.6652 1336.3 23.5554V22.4762ZM1331.94 28.9152C1332.42 29.3908 1333.02 29.6286 1333.75 29.6286C1334.48 29.6286 1335.09 29.3908 1335.56 28.9152C1336.05 28.4274 1336.3 27.8054 1336.3 27.0493C1336.3 26.2932 1336.05 25.6774 1335.56 25.2018C1335.09 24.714 1334.48 24.4701 1333.75 24.4701C1333.02 24.4701 1332.42 24.714 1331.94 25.2018C1331.47 25.6774 1331.23 26.2932 1331.23 27.0493C1331.23 27.8054 1331.47 28.4274 1331.94 28.9152ZM1349.23 31.6225H1346.48L1343.15 27.4701V31.6225H1340.79V18.8177H1343.15V26.5006L1346.3 22.4762H1349.12L1345.44 26.9945L1349.23 31.6225ZM1357.54 30.4884C1356.6 31.4152 1355.45 31.8786 1354.1 31.8786C1352.74 31.8786 1351.6 31.4152 1350.66 30.4884C1349.73 29.5493 1349.27 28.403 1349.27 27.0493C1349.27 25.6957 1349.73 24.5554 1350.66 23.6286C1351.6 22.6896 1352.74 22.2201 1354.1 22.2201C1355.45 22.2201 1356.6 22.6896 1357.54 23.6286C1358.48 24.5554 1358.95 25.6957 1358.95 27.0493C1358.95 28.403 1358.48 29.5493 1357.54 30.4884ZM1352.32 28.8603C1352.8 29.3359 1353.39 29.5737 1354.1 29.5737C1354.81 29.5737 1355.4 29.3359 1355.87 28.8603C1356.35 28.3847 1356.59 27.781 1356.59 27.0493C1356.59 26.3176 1356.35 25.714 1355.87 25.2384C1355.4 24.7628 1354.81 24.525 1354.1 24.525C1353.39 24.525 1352.8 24.7628 1352.32 25.2384C1351.86 25.714 1351.63 26.3176 1351.63 27.0493C1351.63 27.781 1351.86 28.3847 1352.32 28.8603ZM1366.27 22.4762H1368.86L1365.39 31.6225H1362.7L1359.22 22.4762H1361.82L1364.04 28.8786L1366.27 22.4762ZM1387.22 18.8177V31.6225H1384.71V23.3176L1381.11 29.2627H1380.81L1377.21 23.3359V31.6225H1374.69V18.8177H1377.28L1380.96 24.8725L1384.62 18.8177H1387.22ZM1396.44 22.4762H1398.8V31.6225H1396.44V30.5432C1395.74 31.4335 1394.74 31.8786 1393.46 31.8786C1392.24 31.8786 1391.19 31.4152 1390.32 30.4884C1389.45 29.5493 1389.02 28.403 1389.02 27.0493C1389.02 25.6957 1389.45 24.5554 1390.32 23.6286C1391.19 22.6896 1392.24 22.2201 1393.46 22.2201C1394.74 22.2201 1395.74 22.6652 1396.44 23.5554V22.4762ZM1392.09 28.9152C1392.57 29.3908 1393.17 29.6286 1393.9 29.6286C1394.63 29.6286 1395.24 29.3908 1395.71 28.9152C1396.2 28.4274 1396.44 27.8054 1396.44 27.0493C1396.44 26.2932 1396.2 25.6774 1395.71 25.2018C1395.24 24.714 1394.63 24.4701 1393.9 24.4701C1393.17 24.4701 1392.57 24.714 1392.09 25.2018C1391.61 25.6774 1391.38 26.2932 1391.38 27.0493C1391.38 27.8054 1391.61 28.4274 1392.09 28.9152ZM1403.3 24.0493C1403.52 23.464 1403.88 23.025 1404.38 22.7323C1404.89 22.4396 1405.46 22.2933 1406.08 22.2933V24.9274C1405.36 24.842 1404.72 24.9884 1404.14 25.3664C1403.58 25.7445 1403.3 26.3725 1403.3 27.2506V31.6225H1400.94V22.4762H1403.3V24.0493ZM1415.9 31.6225H1413.15L1409.82 27.4701V31.6225H1407.46V18.8177H1409.82V26.5006L1412.97 22.4762H1415.79L1412.11 26.9945L1415.9 31.6225ZM1418.41 28.0188C1418.72 29.1652 1419.58 29.7384 1420.99 29.7384C1421.89 29.7384 1422.57 29.4335 1423.03 28.8237L1424.94 29.9213C1424.03 31.2262 1422.71 31.8786 1420.95 31.8786C1419.44 31.8786 1418.22 31.4213 1417.31 30.5066C1416.39 29.592 1415.94 28.4396 1415.94 27.0493C1415.94 25.6713 1416.39 24.525 1417.29 23.6103C1418.19 22.6835 1419.35 22.2201 1420.77 22.2201C1422.11 22.2201 1423.21 22.6835 1424.08 23.6103C1424.96 24.5371 1425.39 25.6835 1425.39 27.0493C1425.39 27.3542 1425.36 27.6774 1425.3 28.0188H1418.41ZM1418.37 26.1896H1423.03C1422.9 25.5676 1422.62 25.1042 1422.19 24.7993C1421.78 24.4945 1421.3 24.342 1420.77 24.342C1420.13 24.342 1419.61 24.5067 1419.19 24.8359C1418.78 25.153 1418.5 25.6042 1418.37 26.1896ZM1432.01 24.7445H1429.94V28.5493C1429.94 28.8664 1430.02 29.0981 1430.18 29.2445C1430.33 29.3908 1430.57 29.4762 1430.87 29.5006C1431.18 29.5127 1431.55 29.5066 1432.01 29.4823V31.6225C1430.38 31.8054 1429.24 31.653 1428.57 31.1652C1427.91 30.6774 1427.58 29.8054 1427.58 28.5493V24.7445H1425.99V22.4762H1427.58V20.6286L1429.94 19.9152V22.4762H1432.01V24.7445ZM1434.84 21.3786C1434.45 21.3786 1434.11 21.2384 1433.82 20.9579C1433.54 20.6652 1433.39 20.3237 1433.39 19.9335C1433.39 19.5433 1433.54 19.2018 1433.82 18.9091C1434.11 18.6164 1434.45 18.4701 1434.84 18.4701C1435.24 18.4701 1435.58 18.6164 1435.86 18.9091C1436.16 19.2018 1436.3 19.5433 1436.3 19.9335C1436.3 20.3237 1436.16 20.6652 1435.86 20.9579C1435.58 21.2384 1435.24 21.3786 1434.84 21.3786ZM1433.67 31.6225V22.4762H1436.03V31.6225H1433.67ZM1443.27 22.2201C1444.27 22.2201 1445.1 22.5554 1445.74 23.2262C1446.4 23.8969 1446.73 24.8237 1446.73 26.0067V31.6225H1444.37V26.2993C1444.37 25.6896 1444.21 25.2262 1443.88 24.9091C1443.55 24.5798 1443.11 24.4152 1442.56 24.4152C1441.95 24.4152 1441.46 24.6042 1441.1 24.9823C1440.73 25.3603 1440.55 25.9274 1440.55 26.6835V31.6225H1438.19V22.4762H1440.55V23.5006C1441.12 22.6469 1442.03 22.2201 1443.27 22.2201ZM1455.75 22.4762H1458.06V31.1835C1458.06 32.5981 1457.59 33.6774 1456.65 34.4213C1455.72 35.1652 1454.6 35.5371 1453.28 35.5371C1452.3 35.5371 1451.42 35.3481 1450.67 34.97C1449.92 34.592 1449.35 34.0371 1448.95 33.3054L1450.96 32.153C1451.42 33.0066 1452.22 33.4335 1453.36 33.4335C1454.1 33.4335 1454.69 33.2383 1455.11 32.8481C1455.54 32.4579 1455.75 31.903 1455.75 31.1835V30.1957C1455.06 31.1225 1454.08 31.5859 1452.83 31.5859C1451.53 31.5859 1450.45 31.1347 1449.57 30.2323C1448.7 29.3176 1448.27 28.2079 1448.27 26.903C1448.27 25.6103 1448.71 24.5067 1449.59 23.592C1450.47 22.6774 1451.55 22.2201 1452.83 22.2201C1454.08 22.2201 1455.06 22.6835 1455.75 23.6103V22.4762ZM1451.34 28.714C1451.83 29.1774 1452.45 29.4091 1453.19 29.4091C1453.94 29.4091 1454.55 29.1774 1455.02 28.714C1455.51 28.2384 1455.75 27.6347 1455.75 26.903C1455.75 26.1835 1455.51 25.592 1455.02 25.1286C1454.55 24.653 1453.94 24.4152 1453.19 24.4152C1452.45 24.4152 1451.83 24.653 1451.34 25.1286C1450.87 25.592 1450.63 26.1835 1450.63 26.903C1450.63 27.6347 1450.87 28.2384 1451.34 28.714ZM1477.45 24.7445V25.7323C1477.45 27.5615 1476.86 29.0432 1475.69 30.1774C1474.52 31.3115 1473.01 31.8786 1471.15 31.8786C1469.18 31.8786 1467.54 31.2384 1466.23 29.9579C1464.94 28.6652 1464.29 27.092 1464.29 25.2384C1464.29 23.3725 1464.94 21.7933 1466.22 20.5006C1467.51 19.2079 1469.11 18.5616 1471.01 18.5616C1472.2 18.5616 1473.29 18.8359 1474.28 19.3847C1475.27 19.9213 1476.04 20.6408 1476.59 21.5433L1474.43 22.7872C1474.12 22.2628 1473.66 21.8359 1473.04 21.5067C1472.43 21.1774 1471.75 21.0128 1470.99 21.0128C1469.77 21.0128 1468.76 21.4152 1467.97 22.2201C1467.19 23.0128 1466.8 24.0189 1466.8 25.2384C1466.8 26.4457 1467.2 27.4457 1467.99 28.2384C1468.79 29.0188 1469.86 29.4091 1471.17 29.4091C1472.15 29.4091 1472.95 29.1957 1473.59 28.7688C1474.23 28.3298 1474.67 27.7323 1474.9 26.9762H1471.03V24.7445H1477.45ZM1481.49 24.0493C1481.71 23.464 1482.07 23.025 1482.57 22.7323C1483.08 22.4396 1483.65 22.2933 1484.27 22.2933V24.9274C1483.55 24.842 1482.91 24.9884 1482.33 25.3664C1481.77 25.7445 1481.49 26.3725 1481.49 27.2506V31.6225H1479.13V22.4762H1481.49V24.0493ZM1493.11 30.4884C1492.17 31.4152 1491.02 31.8786 1489.67 31.8786C1488.31 31.8786 1487.17 31.4152 1486.23 30.4884C1485.3 29.5493 1484.84 28.403 1484.84 27.0493C1484.84 25.6957 1485.3 24.5554 1486.23 23.6286C1487.17 22.6896 1488.31 22.2201 1489.67 22.2201C1491.02 22.2201 1492.17 22.6896 1493.11 23.6286C1494.05 24.5554 1494.52 25.6957 1494.52 27.0493C1494.52 28.403 1494.05 29.5493 1493.11 30.4884ZM1487.89 28.8603C1488.37 29.3359 1488.96 29.5737 1489.67 29.5737C1490.37 29.5737 1490.97 29.3359 1491.44 28.8603C1491.92 28.3847 1492.16 27.781 1492.16 27.0493C1492.16 26.3176 1491.92 25.714 1491.44 25.2384C1490.97 24.7628 1490.37 24.525 1489.67 24.525C1488.96 24.525 1488.37 24.7628 1487.89 25.2384C1487.43 25.714 1487.2 26.3176 1487.2 27.0493C1487.2 27.781 1487.43 28.3847 1487.89 28.8603ZM1502.21 22.4762H1504.57V31.6225H1502.21V30.5981C1501.64 31.4518 1500.73 31.8786 1499.49 31.8786C1498.49 31.8786 1497.66 31.5432 1497 30.8725C1496.35 30.2018 1496.03 29.2749 1496.03 28.092V22.4762H1498.39V27.7993C1498.39 28.4091 1498.55 28.8786 1498.88 29.2079C1499.21 29.5249 1499.65 29.6835 1500.2 29.6835C1500.81 29.6835 1501.3 29.4945 1501.66 29.1164C1502.03 28.7384 1502.21 28.1713 1502.21 27.4152V22.4762ZM1512.06 22.2201C1513.29 22.2201 1514.34 22.6896 1515.2 23.6286C1516.08 24.5554 1516.52 25.6957 1516.52 27.0493C1516.52 28.403 1516.08 29.5493 1515.2 30.4884C1514.34 31.4152 1513.29 31.8786 1512.06 31.8786C1510.78 31.8786 1509.79 31.4335 1509.09 30.5432V35.281H1506.73V22.4762H1509.09V23.5554C1509.79 22.6652 1510.78 22.2201 1512.06 22.2201ZM1509.81 28.9152C1510.28 29.3908 1510.89 29.6286 1511.62 29.6286C1512.35 29.6286 1512.95 29.3908 1513.43 28.9152C1513.92 28.4274 1514.16 27.8054 1514.16 27.0493C1514.16 26.2932 1513.92 25.6774 1513.43 25.2018C1512.95 24.714 1512.35 24.4701 1511.62 24.4701C1510.89 24.4701 1510.28 24.714 1509.81 25.2018C1509.33 25.6774 1509.09 26.2932 1509.09 27.0493C1509.09 27.8054 1509.33 28.4274 1509.81 28.9152Z" fill="white"/>
<path d="M1611.67 31.8784C1610.4 31.8784 1609.33 31.5979 1608.47 31.0369C1607.6 30.4637 1606.99 29.6893 1606.64 28.7137L1608.8 27.4515C1609.3 28.7564 1610.28 29.4088 1611.74 29.4088C1612.45 29.4088 1612.97 29.2808 1613.3 29.0247C1613.63 28.7686 1613.79 28.4454 1613.79 28.0552C1613.79 27.604 1613.59 27.2564 1613.19 27.0125C1612.78 26.7564 1612.06 26.482 1611.03 26.1893C1610.45 26.0186 1609.97 25.8479 1609.56 25.6771C1609.17 25.5064 1608.78 25.2808 1608.38 25.0003C1607.99 24.7076 1607.69 24.3418 1607.48 23.9028C1607.27 23.4637 1607.17 22.9515 1607.17 22.3662C1607.17 21.2076 1607.58 20.2869 1608.39 19.604C1609.22 18.9089 1610.22 18.5613 1611.38 18.5613C1612.41 18.5613 1613.32 18.8174 1614.1 19.3296C1614.89 19.8296 1615.51 20.5308 1615.95 21.4333L1613.83 22.6589C1613.31 21.5613 1612.5 21.0125 1611.38 21.0125C1610.85 21.0125 1610.44 21.1345 1610.13 21.3784C1609.84 21.6101 1609.69 21.915 1609.69 22.293C1609.69 22.6954 1609.86 23.0247 1610.19 23.2808C1610.53 23.5247 1611.17 23.793 1612.13 24.0857C1612.52 24.2076 1612.81 24.3052 1613 24.3784C1613.21 24.4393 1613.49 24.543 1613.83 24.6893C1614.18 24.8235 1614.45 24.9515 1614.63 25.0735C1614.83 25.1954 1615.05 25.3601 1615.29 25.5674C1615.53 25.7747 1615.72 25.9881 1615.84 26.2076C1615.97 26.4271 1616.08 26.6954 1616.17 27.0125C1616.27 27.3174 1616.31 27.6528 1616.31 28.0186C1616.31 29.2015 1615.88 30.1405 1615.02 30.8357C1614.16 31.5308 1613.05 31.8784 1611.67 31.8784ZM1623.17 22.2198C1624.41 22.2198 1625.46 22.6893 1626.32 23.6284C1627.2 24.5552 1627.64 25.6954 1627.64 27.0491C1627.64 28.4027 1627.2 29.5491 1626.32 30.4881C1625.46 31.4149 1624.41 31.8784 1623.17 31.8784C1621.89 31.8784 1620.91 31.4332 1620.21 30.543V35.2808H1617.85V22.4759H1620.21V23.5552C1620.91 22.665 1621.89 22.2198 1623.17 22.2198ZM1620.92 28.9149C1621.4 29.3906 1622 29.6284 1622.74 29.6284C1623.47 29.6284 1624.07 29.3906 1624.55 28.9149C1625.03 28.4271 1625.28 27.8052 1625.28 27.0491C1625.28 26.293 1625.03 25.6771 1624.55 25.2015C1624.07 24.7137 1623.47 24.4698 1622.74 24.4698C1622 24.4698 1621.4 24.7137 1620.92 25.2015C1620.45 25.6771 1620.21 26.293 1620.21 27.0491C1620.21 27.8052 1620.45 28.4271 1620.92 28.9149ZM1630.47 21.3784C1630.08 21.3784 1629.74 21.2381 1629.45 20.9576C1629.17 20.665 1629.03 20.3235 1629.03 19.9333C1629.03 19.543 1629.17 19.2016 1629.45 18.9089C1629.74 18.6162 1630.08 18.4698 1630.47 18.4698C1630.88 18.4698 1631.22 18.6162 1631.5 18.9089C1631.79 19.2016 1631.94 19.543 1631.94 19.9333C1631.94 20.3235 1631.79 20.665 1631.5 20.9576C1631.22 21.2381 1630.88 21.3784 1630.47 21.3784ZM1629.3 31.6223V22.4759H1631.66V31.6223H1629.3ZM1639.84 22.4759H1642.44L1638.96 31.6223H1636.27L1632.8 22.4759H1635.39L1637.61 28.8784L1639.84 22.4759ZM1650.17 22.4759H1652.53V31.6223H1650.17V30.543C1649.46 31.4332 1648.47 31.8784 1647.19 31.8784C1645.97 31.8784 1644.92 31.4149 1644.04 30.4881C1643.18 29.5491 1642.74 28.4027 1642.74 27.0491C1642.74 25.6954 1643.18 24.5552 1644.04 23.6284C1644.92 22.6893 1645.97 22.2198 1647.19 22.2198C1648.47 22.2198 1649.46 22.665 1650.17 23.5552V22.4759ZM1645.82 28.9149C1646.29 29.3906 1646.89 29.6284 1647.63 29.6284C1648.36 29.6284 1648.96 29.3906 1649.44 28.9149C1649.93 28.4271 1650.17 27.8052 1650.17 27.0491C1650.17 26.293 1649.93 25.6771 1649.44 25.2015C1648.96 24.7137 1648.36 24.4698 1647.63 24.4698C1646.89 24.4698 1646.29 24.7137 1645.82 25.2015C1645.34 25.6771 1645.1 26.293 1645.1 27.0491C1645.1 27.8052 1645.34 28.4271 1645.82 28.9149ZM1663.1 31.6223H1660.36L1657.03 27.4698V31.6223H1654.67V18.8174H1657.03V26.5003L1660.18 22.4759H1662.99L1659.32 26.9942L1663.1 31.6223ZM1671.41 30.4881C1670.47 31.4149 1669.33 31.8784 1667.97 31.8784C1666.62 31.8784 1665.47 31.4149 1664.53 30.4881C1663.61 29.5491 1663.14 28.4027 1663.14 27.0491C1663.14 25.6954 1663.61 24.5552 1664.53 23.6284C1665.47 22.6893 1666.62 22.2198 1667.97 22.2198C1669.33 22.2198 1670.47 22.6893 1671.41 23.6284C1672.35 24.5552 1672.82 25.6954 1672.82 27.0491C1672.82 28.4027 1672.35 29.5491 1671.41 30.4881ZM1666.2 28.8601C1666.67 29.3357 1667.27 29.5735 1667.97 29.5735C1668.68 29.5735 1669.27 29.3357 1669.75 28.8601C1670.22 28.3845 1670.46 27.7808 1670.46 27.0491C1670.46 26.3174 1670.22 25.7137 1669.75 25.2381C1669.27 24.7625 1668.68 24.5247 1667.97 24.5247C1667.27 24.5247 1666.67 24.7625 1666.2 25.2381C1665.73 25.7137 1665.5 26.3174 1665.5 27.0491C1665.5 27.7808 1665.73 28.3845 1666.2 28.8601ZM1680.14 22.4759H1682.74L1679.26 31.6223H1676.57L1673.1 22.4759H1675.7L1677.91 28.8784L1680.14 22.4759ZM1701.09 18.8174V31.6223H1698.58V23.3174L1694.98 29.2625H1694.69L1691.08 23.3357V31.6223H1688.56V18.8174H1691.16L1694.83 24.8723L1698.49 18.8174H1701.09ZM1710.32 22.4759H1712.68V31.6223H1710.32V30.543C1709.61 31.4332 1708.62 31.8784 1707.34 31.8784C1706.12 31.8784 1705.07 31.4149 1704.19 30.4881C1703.32 29.5491 1702.89 28.4027 1702.89 27.0491C1702.89 25.6954 1703.32 24.5552 1704.19 23.6284C1705.07 22.6893 1706.12 22.2198 1707.34 22.2198C1708.62 22.2198 1709.61 22.665 1710.32 23.5552V22.4759ZM1705.96 28.9149C1706.44 29.3906 1707.04 29.6284 1707.77 29.6284C1708.51 29.6284 1709.11 29.3906 1709.59 28.9149C1710.07 28.4271 1710.32 27.8052 1710.32 27.0491C1710.32 26.293 1710.07 25.6771 1709.59 25.2015C1709.11 24.7137 1708.51 24.4698 1707.77 24.4698C1707.04 24.4698 1706.44 24.7137 1705.96 25.2015C1705.49 25.6771 1705.25 26.293 1705.25 27.0491C1705.25 27.8052 1705.49 28.4271 1705.96 28.9149ZM1717.18 24.0491C1717.4 23.4637 1717.76 23.0247 1718.26 22.732C1718.77 22.4393 1719.33 22.293 1719.96 22.293V24.9271C1719.24 24.8418 1718.59 24.9881 1718.02 25.3662C1717.46 25.7442 1717.18 26.3723 1717.18 27.2503V31.6223H1714.82V22.4759H1717.18V24.0491ZM1729.77 31.6223H1727.03L1723.7 27.4698V31.6223H1721.34V18.8174H1723.7V26.5003L1726.84 22.4759H1729.66L1725.98 26.9942L1729.77 31.6223ZM1732.28 28.0186C1732.6 29.1649 1733.46 29.7381 1734.86 29.7381C1735.76 29.7381 1736.45 29.4332 1736.91 28.8235L1738.81 29.921C1737.91 31.2259 1736.58 31.8784 1734.82 31.8784C1733.31 31.8784 1732.1 31.421 1731.18 30.5064C1730.27 29.5918 1729.81 28.4393 1729.81 27.0491C1729.81 25.671 1730.26 24.5247 1731.16 23.6101C1732.07 22.6833 1733.23 22.2198 1734.64 22.2198C1735.98 22.2198 1737.09 22.6833 1737.95 23.6101C1738.83 24.5369 1739.27 25.6832 1739.27 27.0491C1739.27 27.354 1739.24 27.6771 1739.18 28.0186H1732.28ZM1732.24 26.1893H1736.91C1736.77 25.5674 1736.49 25.104 1736.07 24.7991C1735.65 24.4942 1735.18 24.3418 1734.64 24.3418C1734.01 24.3418 1733.48 24.5064 1733.07 24.8357C1732.65 25.1528 1732.38 25.604 1732.24 26.1893ZM1745.88 24.7442H1743.81V28.5491C1743.81 28.8662 1743.89 29.0979 1744.05 29.2442C1744.21 29.3906 1744.44 29.4759 1744.75 29.5003C1745.05 29.5125 1745.43 29.5064 1745.88 29.482V31.6223C1744.26 31.8052 1743.11 31.6527 1742.44 31.1649C1741.78 30.6771 1741.45 29.8052 1741.45 28.5491V24.7442H1739.86V22.4759H1741.45V20.6284L1743.81 19.915V22.4759H1745.88V24.7442ZM1748.71 21.3784C1748.32 21.3784 1747.98 21.2381 1747.69 20.9576C1747.41 20.665 1747.27 20.3235 1747.27 19.9333C1747.27 19.543 1747.41 19.2016 1747.69 18.9089C1747.98 18.6162 1748.32 18.4698 1748.71 18.4698C1749.12 18.4698 1749.46 18.6162 1749.74 18.9089C1750.03 19.2016 1750.18 19.543 1750.18 19.9333C1750.18 20.3235 1750.03 20.665 1749.74 20.9576C1749.46 21.2381 1749.12 21.3784 1748.71 21.3784ZM1747.54 31.6223V22.4759H1749.9V31.6223H1747.54ZM1757.15 22.2198C1758.15 22.2198 1758.97 22.5552 1759.62 23.2259C1760.28 23.8967 1760.61 24.8235 1760.61 26.0064V31.6223H1758.25V26.2991C1758.25 25.6893 1758.08 25.2259 1757.75 24.9089C1757.42 24.5796 1756.98 24.415 1756.43 24.415C1755.83 24.415 1755.34 24.604 1754.97 24.982C1754.61 25.3601 1754.42 25.9271 1754.42 26.6832V31.6223H1752.06V22.4759H1754.42V23.5003C1755 22.6467 1755.9 22.2198 1757.15 22.2198ZM1769.63 22.4759H1771.93V31.1832C1771.93 32.5979 1771.46 33.6771 1770.52 34.421C1769.6 35.1649 1768.47 35.5369 1767.16 35.5369C1766.17 35.5369 1765.3 35.3479 1764.54 34.9698C1763.8 34.5918 1763.22 34.0369 1762.82 33.3052L1764.83 32.1527C1765.3 33.0064 1766.1 33.4332 1767.23 33.4332C1767.97 33.4332 1768.56 33.2381 1768.99 32.8479C1769.41 32.4576 1769.63 31.9027 1769.63 31.1832V30.1954C1768.93 31.1223 1767.96 31.5857 1766.7 31.5857C1765.41 31.5857 1764.32 31.1344 1763.44 30.232C1762.58 29.3174 1762.14 28.2076 1762.14 26.9028C1762.14 25.6101 1762.58 24.5064 1763.46 23.5918C1764.34 22.6772 1765.42 22.2198 1766.7 22.2198C1767.96 22.2198 1768.93 22.6833 1769.63 23.6101V22.4759ZM1765.22 28.7137C1765.71 29.1771 1766.32 29.4088 1767.07 29.4088C1767.81 29.4088 1768.42 29.1771 1768.89 28.7137C1769.38 28.2381 1769.63 27.6345 1769.63 26.9028C1769.63 26.1832 1769.38 25.5918 1768.89 25.1284C1768.42 24.6528 1767.81 24.415 1767.07 24.415C1766.32 24.415 1765.71 24.6528 1765.22 25.1284C1764.74 25.5918 1764.5 26.1832 1764.5 26.9028C1764.5 27.6345 1764.74 28.2381 1765.22 28.7137ZM1791.32 24.7442V25.732C1791.32 27.5613 1790.74 29.043 1789.57 30.1771C1788.39 31.3113 1786.88 31.8784 1785.03 31.8784C1783.05 31.8784 1781.41 31.2381 1780.11 29.9576C1778.82 28.6649 1778.17 27.0918 1778.17 25.2381C1778.17 23.3723 1778.81 21.793 1780.09 20.5003C1781.38 19.2077 1782.98 18.5613 1784.88 18.5613C1786.08 18.5613 1787.17 18.8357 1788.16 19.3845C1789.14 19.9211 1789.91 20.6406 1790.46 21.543L1788.3 22.7869C1788 22.2625 1787.53 21.8357 1786.91 21.5064C1786.3 21.1772 1785.62 21.0125 1784.86 21.0125C1783.64 21.0125 1782.64 21.415 1781.85 22.2198C1781.07 23.0125 1780.67 24.0186 1780.67 25.2381C1780.67 26.4454 1781.07 27.4454 1781.86 28.2381C1782.67 29.0186 1783.73 29.4088 1785.05 29.4088C1786.02 29.4088 1786.83 29.1954 1787.46 28.7686C1788.11 28.3296 1788.55 27.732 1788.78 26.9759H1784.9V24.7442H1791.32ZM1795.37 24.0491C1795.59 23.4637 1795.95 23.0247 1796.45 22.732C1796.96 22.4393 1797.53 22.293 1798.15 22.293V24.9271C1797.43 24.8418 1796.78 24.9881 1796.21 25.3662C1795.65 25.7442 1795.37 26.3723 1795.37 27.2503V31.6223H1793.01V22.4759H1795.37V24.0491ZM1806.98 30.4881C1806.04 31.4149 1804.9 31.8784 1803.54 31.8784C1802.19 31.8784 1801.04 31.4149 1800.1 30.4881C1799.18 29.5491 1798.71 28.4027 1798.71 27.0491C1798.71 25.6954 1799.18 24.5552 1800.1 23.6284C1801.04 22.6893 1802.19 22.2198 1803.54 22.2198C1804.9 22.2198 1806.04 22.6893 1806.98 23.6284C1807.92 24.5552 1808.39 25.6954 1808.39 27.0491C1808.39 28.4027 1807.92 29.5491 1806.98 30.4881ZM1801.77 28.8601C1802.24 29.3357 1802.83 29.5735 1803.54 29.5735C1804.25 29.5735 1804.84 29.3357 1805.32 28.8601C1805.79 28.3845 1806.03 27.7808 1806.03 27.0491C1806.03 26.3174 1805.79 25.7137 1805.32 25.2381C1804.84 24.7625 1804.25 24.5247 1803.54 24.5247C1802.83 24.5247 1802.24 24.7625 1801.77 25.2381C1801.3 25.7137 1801.07 26.3174 1801.07 27.0491C1801.07 27.7808 1801.3 28.3845 1801.77 28.8601ZM1816.09 22.4759H1818.45V31.6223H1816.09V30.5979C1815.51 31.4515 1814.6 31.8784 1813.36 31.8784C1812.36 31.8784 1811.53 31.543 1810.87 30.8723C1810.23 30.2015 1809.9 29.2747 1809.9 28.0918V22.4759H1812.26V27.7991C1812.26 28.4088 1812.43 28.8784 1812.76 29.2076C1813.09 29.5247 1813.52 29.6832 1814.07 29.6832C1814.68 29.6832 1815.17 29.4942 1815.54 29.1162C1815.9 28.7381 1816.09 28.171 1816.09 27.4149V22.4759ZM1825.93 22.2198C1827.16 22.2198 1828.21 22.6893 1829.08 23.6284C1829.95 24.5552 1830.39 25.6954 1830.39 27.0491C1830.39 28.4027 1829.95 29.5491 1829.08 30.4881C1828.21 31.4149 1827.16 31.8784 1825.93 31.8784C1824.65 31.8784 1823.66 31.4332 1822.97 30.543V35.2808H1820.61V22.4759H1822.97V23.5552C1823.66 22.665 1824.65 22.2198 1825.93 22.2198ZM1823.68 28.9149C1824.16 29.3906 1824.76 29.6284 1825.49 29.6284C1826.22 29.6284 1826.83 29.3906 1827.3 28.9149C1827.79 28.4271 1828.03 27.8052 1828.03 27.0491C1828.03 26.293 1827.79 25.6771 1827.3 25.2015C1826.83 24.7137 1826.22 24.4698 1825.49 24.4698C1824.76 24.4698 1824.16 24.7137 1823.68 25.2015C1823.2 25.6771 1822.97 26.293 1822.97 27.0491C1822.97 27.8052 1823.2 28.4271 1823.68 28.9149Z" fill="white"/>
<path d="M1925.47 34.5484C1924.2 34.5484 1923.14 34.2679 1922.27 33.7069C1921.41 33.1338 1920.8 32.3594 1920.44 31.3838L1922.6 30.1216C1923.1 31.4265 1924.08 32.0789 1925.55 32.0789C1926.25 32.0789 1926.77 31.9508 1927.1 31.6947C1927.43 31.4386 1927.6 31.1155 1927.6 30.7252C1927.6 30.274 1927.39 29.9265 1926.99 29.6826C1926.59 29.4265 1925.87 29.1521 1924.83 28.8594C1924.26 28.6887 1923.77 28.5179 1923.37 28.3472C1922.98 28.1765 1922.58 27.9509 1922.18 27.6704C1921.79 27.3777 1921.49 27.0118 1921.28 26.5728C1921.08 26.1338 1920.97 25.6216 1920.97 25.0362C1920.97 23.8777 1921.38 22.957 1922.2 22.274C1923.03 21.5789 1924.02 21.2314 1925.18 21.2314C1926.22 21.2314 1927.13 21.4875 1927.91 21.9996C1928.7 22.4996 1929.31 23.2009 1929.75 24.1033L1927.63 25.3289C1927.12 24.2313 1926.3 23.6826 1925.18 23.6826C1924.66 23.6826 1924.24 23.8045 1923.94 24.0484C1923.64 24.2801 1923.5 24.585 1923.5 24.9631C1923.5 25.3655 1923.66 25.6948 1923.99 25.9509C1924.33 26.1948 1924.98 26.463 1925.93 26.7557C1926.32 26.8777 1926.61 26.9752 1926.81 27.0484C1927.02 27.1094 1927.29 27.213 1927.63 27.3594C1927.99 27.4935 1928.25 27.6216 1928.44 27.7435C1928.63 27.8655 1928.85 28.0301 1929.1 28.2374C1929.34 28.4448 1929.52 28.6582 1929.64 28.8777C1929.78 29.0972 1929.89 29.3655 1929.97 29.6826C1930.07 29.9874 1930.12 30.3228 1930.12 30.6886C1930.12 31.8716 1929.69 32.8106 1928.82 33.5057C1927.97 34.2008 1926.85 34.5484 1925.47 34.5484ZM1936.98 24.8899C1938.21 24.8899 1939.26 25.3594 1940.13 26.2984C1941 27.2252 1941.44 28.3655 1941.44 29.7191C1941.44 31.0728 1941 32.2191 1940.13 33.1582C1939.26 34.085 1938.21 34.5484 1936.98 34.5484C1935.7 34.5484 1934.71 34.1033 1934.02 33.213V37.9508H1931.66V25.146H1934.02V26.2252C1934.71 25.335 1935.7 24.8899 1936.98 24.8899ZM1934.73 31.585C1935.2 32.0606 1935.81 32.2984 1936.54 32.2984C1937.27 32.2984 1937.88 32.0606 1938.35 31.585C1938.84 31.0972 1939.08 30.4752 1939.08 29.7191C1939.08 28.963 1938.84 28.3472 1938.35 27.8716C1937.88 27.3838 1937.27 27.1399 1936.54 27.1399C1935.81 27.1399 1935.2 27.3838 1934.73 27.8716C1934.25 28.3472 1934.02 28.963 1934.02 29.7191C1934.02 30.4752 1934.25 31.0972 1934.73 31.585ZM1944.28 24.0484C1943.89 24.0484 1943.55 23.9082 1943.25 23.6277C1942.97 23.335 1942.83 22.9935 1942.83 22.6033C1942.83 22.2131 1942.97 21.8716 1943.25 21.5789C1943.55 21.2862 1943.89 21.1399 1944.28 21.1399C1944.68 21.1399 1945.02 21.2862 1945.3 21.5789C1945.59 21.8716 1945.74 22.2131 1945.74 22.6033C1945.74 22.9935 1945.59 23.335 1945.3 23.6277C1945.02 23.9082 1944.68 24.0484 1944.28 24.0484ZM1943.11 34.2923V25.146H1945.47V34.2923H1943.11ZM1953.64 25.146H1956.24L1952.77 34.2923H1950.08L1946.6 25.146H1949.2L1951.41 31.5484L1953.64 25.146ZM1963.97 25.146H1966.33V34.2923H1963.97V33.213C1963.27 34.1033 1962.27 34.5484 1960.99 34.5484C1959.77 34.5484 1958.72 34.085 1957.85 33.1582C1956.98 32.2191 1956.55 31.0728 1956.55 29.7191C1956.55 28.3655 1956.98 27.2252 1957.85 26.2984C1958.72 25.3594 1959.77 24.8899 1960.99 24.8899C1962.27 24.8899 1963.27 25.335 1963.97 26.2252V25.146ZM1959.62 31.585C1960.1 32.0606 1960.7 32.2984 1961.43 32.2984C1962.16 32.2984 1962.77 32.0606 1963.24 31.585C1963.73 31.0972 1963.97 30.4752 1963.97 29.7191C1963.97 28.963 1963.73 28.3472 1963.24 27.8716C1962.77 27.3838 1962.16 27.1399 1961.43 27.1399C1960.7 27.1399 1960.1 27.3838 1959.62 27.8716C1959.14 28.3472 1958.91 28.963 1958.91 29.7191C1958.91 30.4752 1959.14 31.0972 1959.62 31.585ZM1976.91 34.2923H1974.16L1970.83 30.1399V34.2923H1968.47V21.4875H1970.83V29.1704L1973.98 25.146H1976.8L1973.12 29.6643L1976.91 34.2923ZM1985.22 33.1582C1984.28 34.085 1983.13 34.5484 1981.78 34.5484C1980.42 34.5484 1979.28 34.085 1978.34 33.1582C1977.41 32.2191 1976.95 31.0728 1976.95 29.7191C1976.95 28.3655 1977.41 27.2252 1978.34 26.2984C1979.28 25.3594 1980.42 24.8899 1981.78 24.8899C1983.13 24.8899 1984.28 25.3594 1985.22 26.2984C1986.16 27.2252 1986.62 28.3655 1986.62 29.7191C1986.62 31.0728 1986.16 32.2191 1985.22 33.1582ZM1980 31.5301C1980.48 32.0057 1981.07 32.2435 1981.78 32.2435C1982.48 32.2435 1983.08 32.0057 1983.55 31.5301C1984.03 31.0545 1984.26 30.4508 1984.26 29.7191C1984.26 28.9874 1984.03 28.3838 1983.55 27.9082C1983.08 27.4326 1982.48 27.1948 1981.78 27.1948C1981.07 27.1948 1980.48 27.4326 1980 27.9082C1979.54 28.3838 1979.31 28.9874 1979.31 29.7191C1979.31 30.4508 1979.54 31.0545 1980 31.5301ZM1993.95 25.146H1996.54L1993.07 34.2923H1990.38L1986.9 25.146H1989.5L1991.71 31.5484L1993.95 25.146ZM2014.89 21.4875V34.2923H2012.39V25.9874L2008.78 31.9325H2008.49L2004.89 26.0057V34.2923H2002.36V21.4875H2004.96L2008.64 27.5423L2012.3 21.4875H2014.89ZM2024.12 25.146H2026.48V34.2923H2024.12V33.213C2023.41 34.1033 2022.42 34.5484 2021.14 34.5484C2019.92 34.5484 2018.87 34.085 2017.99 33.1582C2017.13 32.2191 2016.7 31.0728 2016.7 29.7191C2016.7 28.3655 2017.13 27.2252 2017.99 26.2984C2018.87 25.3594 2019.92 24.8899 2021.14 24.8899C2022.42 24.8899 2023.41 25.335 2024.12 26.2252V25.146ZM2019.77 31.585C2020.24 32.0606 2020.85 32.2984 2021.58 32.2984C2022.31 32.2984 2022.91 32.0606 2023.39 31.585C2023.88 31.0972 2024.12 30.4752 2024.12 29.7191C2024.12 28.963 2023.88 28.3472 2023.39 27.8716C2022.91 27.3838 2022.31 27.1399 2021.58 27.1399C2020.85 27.1399 2020.24 27.3838 2019.77 27.8716C2019.29 28.3472 2019.05 28.963 2019.05 29.7191C2019.05 30.4752 2019.29 31.0972 2019.77 31.585ZM2030.98 26.7191C2031.2 26.1338 2031.56 25.6948 2032.06 25.4021C2032.57 25.1094 2033.14 24.9631 2033.76 24.9631V27.5972C2033.04 27.5118 2032.4 27.6582 2031.82 28.0362C2031.26 28.4143 2030.98 29.0423 2030.98 29.9204V34.2923H2028.62V25.146H2030.98V26.7191ZM2043.57 34.2923H2040.83L2037.5 30.1399V34.2923H2035.14V21.4875H2037.5V29.1704L2040.65 25.146H2043.46L2039.79 29.6643L2043.57 34.2923ZM2046.09 30.6886C2046.4 31.835 2047.26 32.4082 2048.66 32.4082C2049.57 32.4082 2050.25 32.1033 2050.71 31.4935L2052.62 32.5911C2051.71 33.896 2050.38 34.5484 2048.63 34.5484C2047.12 34.5484 2045.9 34.0911 2044.99 33.1764C2044.07 32.2618 2043.62 31.1094 2043.62 29.7191C2043.62 28.3411 2044.07 27.1948 2044.97 26.2801C2045.87 25.3533 2047.03 24.8899 2048.45 24.8899C2049.79 24.8899 2050.89 25.3533 2051.76 26.2801C2052.63 27.2069 2053.07 28.3533 2053.07 29.7191C2053.07 30.024 2053.04 30.3472 2052.98 30.6886H2046.09ZM2046.05 28.8594H2050.71C2050.58 28.2374 2050.3 27.774 2049.87 27.4691C2049.46 27.1643 2048.98 27.0118 2048.45 27.0118C2047.81 27.0118 2047.29 27.1765 2046.87 27.5057C2046.46 27.8228 2046.18 28.274 2046.05 28.8594ZM2059.68 27.4143H2057.62V31.2191C2057.62 31.5362 2057.7 31.7679 2057.86 31.9143C2058.01 32.0606 2058.25 32.146 2058.55 32.1704C2058.86 32.1825 2059.23 32.1764 2059.68 32.1521V34.2923C2058.06 34.4752 2056.92 34.3228 2056.25 33.835C2055.59 33.3472 2055.26 32.4752 2055.26 31.2191V27.4143H2053.67V25.146H2055.26V23.2984L2057.62 22.585V25.146H2059.68V27.4143ZM2062.52 24.0484C2062.13 24.0484 2061.79 23.9082 2061.49 23.6277C2061.21 23.335 2061.07 22.9935 2061.07 22.6033C2061.07 22.2131 2061.21 21.8716 2061.49 21.5789C2061.79 21.2862 2062.13 21.1399 2062.52 21.1399C2062.92 21.1399 2063.26 21.2862 2063.54 21.5789C2063.84 21.8716 2063.98 22.2131 2063.98 22.6033C2063.98 22.9935 2063.84 23.335 2063.54 23.6277C2063.26 23.9082 2062.92 24.0484 2062.52 24.0484ZM2061.35 34.2923V25.146H2063.71V34.2923H2061.35ZM2070.95 24.8899C2071.95 24.8899 2072.78 25.2252 2073.42 25.896C2074.08 26.5667 2074.41 27.4935 2074.41 28.6765V34.2923H2072.05V28.9691C2072.05 28.3594 2071.89 27.896 2071.56 27.5789C2071.23 27.2496 2070.79 27.085 2070.24 27.085C2069.63 27.085 2069.14 27.274 2068.78 27.6521C2068.41 28.0301 2068.23 28.5972 2068.23 29.3533V34.2923H2065.87V25.146H2068.23V26.1704C2068.8 25.3167 2069.71 24.8899 2070.95 24.8899ZM2083.43 25.146H2085.74V33.8533C2085.74 35.2679 2085.27 36.3472 2084.33 37.0911C2083.4 37.835 2082.28 38.2069 2080.96 38.2069C2079.97 38.2069 2079.1 38.0179 2078.35 37.6398C2077.6 37.2618 2077.03 36.7069 2076.63 35.9752L2078.64 34.8228C2079.1 35.6764 2079.9 36.1033 2081.03 36.1033C2081.78 36.1033 2082.36 35.9081 2082.79 35.5179C2083.22 35.1277 2083.43 34.5728 2083.43 33.8533V32.8655C2082.74 33.7923 2081.76 34.2557 2080.5 34.2557C2079.21 34.2557 2078.13 33.8045 2077.25 32.9021C2076.38 31.9874 2075.95 30.8777 2075.95 29.5728C2075.95 28.2801 2076.39 27.1765 2077.27 26.2618C2078.14 25.3472 2079.22 24.8899 2080.5 24.8899C2081.76 24.8899 2082.74 25.3533 2083.43 26.2801V25.146ZM2079.02 31.3838C2079.51 31.8472 2080.13 32.0789 2080.87 32.0789C2081.61 32.0789 2082.22 31.8472 2082.7 31.3838C2083.19 30.9082 2083.43 30.3045 2083.43 29.5728C2083.43 28.8533 2083.19 28.2618 2082.7 27.7984C2082.22 27.3228 2081.61 27.085 2080.87 27.085C2080.13 27.085 2079.51 27.3228 2079.02 27.7984C2078.55 28.2618 2078.31 28.8533 2078.31 29.5728C2078.31 30.3045 2078.55 30.9082 2079.02 31.3838ZM2105.13 27.4143V28.4021C2105.13 30.2313 2104.54 31.713 2103.37 32.8472C2102.2 33.9813 2100.69 34.5484 2098.83 34.5484C2096.86 34.5484 2095.22 33.9082 2093.91 32.6277C2092.62 31.335 2091.97 29.7618 2091.97 27.9082C2091.97 26.0423 2092.61 24.4631 2093.89 23.1704C2095.19 21.8777 2096.78 21.2314 2098.69 21.2314C2099.88 21.2314 2100.97 21.5057 2101.96 22.0545C2102.95 22.5911 2103.72 23.3106 2104.27 24.2131L2102.11 25.457C2101.8 24.9326 2101.34 24.5057 2100.72 24.1765C2100.11 23.8472 2099.42 23.6826 2098.67 23.6826C2097.45 23.6826 2096.44 24.085 2095.65 24.8899C2094.87 25.6826 2094.48 26.6887 2094.48 27.9082C2094.48 29.1155 2094.88 30.1155 2095.67 30.9082C2096.47 31.6886 2097.53 32.0789 2098.85 32.0789C2099.83 32.0789 2100.63 31.8655 2101.27 31.4386C2101.91 30.9996 2102.35 30.4021 2102.58 29.646H2098.71V27.4143H2105.13ZM2109.17 26.7191C2109.39 26.1338 2109.75 25.6948 2110.25 25.4021C2110.76 25.1094 2111.33 24.9631 2111.95 24.9631V27.5972C2111.23 27.5118 2110.59 27.6582 2110.01 28.0362C2109.45 28.4143 2109.17 29.0423 2109.17 29.9204V34.2923H2106.81V25.146H2109.17V26.7191ZM2120.79 33.1582C2119.85 34.085 2118.7 34.5484 2117.35 34.5484C2115.99 34.5484 2114.85 34.085 2113.91 33.1582C2112.98 32.2191 2112.52 31.0728 2112.52 29.7191C2112.52 28.3655 2112.98 27.2252 2113.91 26.2984C2114.85 25.3594 2115.99 24.8899 2117.35 24.8899C2118.7 24.8899 2119.85 25.3594 2120.79 26.2984C2121.72 27.2252 2122.19 28.3655 2122.19 29.7191C2122.19 31.0728 2121.72 32.2191 2120.79 33.1582ZM2115.57 31.5301C2116.05 32.0057 2116.64 32.2435 2117.35 32.2435C2118.05 32.2435 2118.65 32.0057 2119.12 31.5301C2119.6 31.0545 2119.83 30.4508 2119.83 29.7191C2119.83 28.9874 2119.6 28.3838 2119.12 27.9082C2118.65 27.4326 2118.05 27.1948 2117.35 27.1948C2116.64 27.1948 2116.05 27.4326 2115.57 27.9082C2115.11 28.3838 2114.88 28.9874 2114.88 29.7191C2114.88 30.4508 2115.11 31.0545 2115.57 31.5301ZM2129.89 25.146H2132.25V34.2923H2129.89V33.2679C2129.32 34.1216 2128.41 34.5484 2127.16 34.5484C2126.16 34.5484 2125.34 34.213 2124.68 33.5423C2124.03 32.8716 2123.71 31.9447 2123.71 30.7618V25.146H2126.07V30.4691C2126.07 31.0789 2126.23 31.5484 2126.56 31.8777C2126.89 32.1947 2127.33 32.3533 2127.88 32.3533C2128.49 32.3533 2128.98 32.1643 2129.34 31.7862C2129.71 31.4082 2129.89 30.8411 2129.89 30.085V25.146ZM2139.73 24.8899C2140.97 24.8899 2142.02 25.3594 2142.88 26.2984C2143.76 27.2252 2144.2 28.3655 2144.2 29.7191C2144.2 31.0728 2143.76 32.2191 2142.88 33.1582C2142.02 34.085 2140.97 34.5484 2139.73 34.5484C2138.45 34.5484 2137.47 34.1033 2136.77 33.213V37.9508H2134.41V25.146H2136.77V26.2252C2137.47 25.335 2138.45 24.8899 2139.73 24.8899ZM2137.48 31.585C2137.96 32.0606 2138.56 32.2984 2139.3 32.2984C2140.03 32.2984 2140.63 32.0606 2141.11 31.585C2141.59 31.0972 2141.84 30.4752 2141.84 29.7191C2141.84 28.963 2141.59 28.3472 2141.11 27.8716C2140.63 27.3838 2140.03 27.1399 2139.3 27.1399C2138.56 27.1399 2137.96 27.3838 2137.48 27.8716C2137.01 28.3472 2136.77 28.963 2136.77 29.7191C2136.77 30.4752 2137.01 31.0972 2137.48 31.585Z" fill="white"/>
<defs>
<linearGradient id="paint0_linear_2317_344" x1="0" y1="26" x2="2175" y2="26" gradientUnits="userSpaceOnUse">
<stop stop-color="#8763C3"/>
<stop offset="0.51" stop-color="#9C42FF"/>
<stop offset="1" stop-color="#8661C2"/>
</linearGradient>
</defs>
</svg>
