<svg width="2318" height="70" viewBox="0 0 2318 70" fill="none" xmlns="http://www.w3.org/2000/svg">
<rect width="2318" height="70" fill="url(#paint0_linear_2198_409)"/>
<path d="M834.963 25.2379V42.1906H831.621V28.4347H825.639V42.1906H822.297V25.2379H834.963ZM848.291 40.6891C847.047 41.9161 845.53 42.5297 843.738 42.5297C841.946 42.5297 840.428 41.9161 839.185 40.6891C837.958 39.4459 837.344 37.9282 837.344 36.1361C837.344 34.3439 837.958 32.8343 839.185 31.6073C840.428 30.3641 841.946 29.7425 843.738 29.7425C845.53 29.7425 847.047 30.3641 848.291 31.6073C849.534 32.8343 850.155 34.3439 850.155 36.1361C850.155 37.9282 849.534 39.4459 848.291 40.6891ZM841.388 38.5337C842.018 39.1633 842.801 39.4782 843.738 39.4782C844.674 39.4782 845.457 39.1633 846.087 38.5337C846.716 37.904 847.031 37.1048 847.031 36.1361C847.031 35.1673 846.716 34.3681 846.087 33.7385C845.457 33.1088 844.674 32.794 843.738 32.794C842.801 32.794 842.018 33.1088 841.388 33.7385C840.775 34.3681 840.468 35.1673 840.468 36.1361C840.468 37.1048 840.775 37.904 841.388 38.5337ZM859.237 30.0815H862.362V42.1906H859.237V38.3399C858.333 38.6305 857.373 38.7759 856.356 38.7759C854.886 38.7759 853.708 38.4045 852.82 37.6618C851.948 36.9191 851.512 35.8374 851.512 34.4166V30.0815H854.636V34.0533C854.636 35.2642 855.387 35.8697 856.888 35.8697C857.76 35.8697 858.543 35.7163 859.237 35.4095V30.0815ZM867.835 37.4196C868.255 38.9373 869.393 39.6961 871.25 39.6961C872.445 39.6961 873.349 39.2925 873.962 38.4852L876.481 39.9383C875.286 41.6659 873.527 42.5297 871.202 42.5297C869.2 42.5297 867.593 41.9242 866.382 40.7133C865.171 39.5024 864.566 37.9767 864.566 36.1361C864.566 34.3116 865.163 32.794 866.358 31.5831C867.553 30.356 869.087 29.7425 870.959 29.7425C872.735 29.7425 874.197 30.356 875.343 31.5831C876.505 32.8101 877.087 34.3278 877.087 36.1361C877.087 36.5397 877.046 36.9676 876.966 37.4196H867.835ZM867.787 34.9978H873.962C873.785 34.1744 873.414 33.5609 872.848 33.1572C872.3 32.7536 871.67 32.5518 870.959 32.5518C870.12 32.5518 869.426 32.7698 868.877 33.2057C868.328 33.6255 867.964 34.2228 867.787 34.9978ZM891.861 30.0815V42.1906H888.834V35.1189L885.758 39.9625H885.371L882.271 35.0705V42.1906H879.268V30.0815H882.343L885.564 35.1673L888.785 30.0815H891.861ZM902.607 30.0815H905.949L901.541 42.1906C900.314 45.5973 898.183 47.2118 895.147 47.0342V44.1281C895.971 44.1442 896.617 43.9908 897.085 43.6679C897.569 43.345 897.957 42.8041 898.247 42.0453L893.355 30.0815H896.673L899.918 38.2188L902.607 30.0815ZM924.558 30.0815V42.1906H921.433V33.0119H916.614V42.1906H913.49V30.0815H924.558ZM937.737 40.6891C936.494 41.9161 934.976 42.5297 933.184 42.5297C931.392 42.5297 929.874 41.9161 928.631 40.6891C927.404 39.4459 926.79 37.9282 926.79 36.1361C926.79 34.3439 927.404 32.8343 928.631 31.6073C929.874 30.3641 931.392 29.7425 933.184 29.7425C934.976 29.7425 936.494 30.3641 937.737 31.6073C938.98 32.8343 939.602 34.3439 939.602 36.1361C939.602 37.9282 938.98 39.4459 937.737 40.6891ZM930.835 38.5337C931.465 39.1633 932.248 39.4782 933.184 39.4782C934.12 39.4782 934.903 39.1633 935.533 38.5337C936.163 37.904 936.478 37.1048 936.478 36.1361C936.478 35.1673 936.163 34.3681 935.533 33.7385C934.903 33.1088 934.12 32.794 933.184 32.794C932.248 32.794 931.465 33.1088 930.835 33.7385C930.221 34.3681 929.915 35.1673 929.915 36.1361C929.915 37.1048 930.221 37.904 930.835 38.5337ZM943.834 28.5316V25.8191H950.857V28.5316H943.834ZM950.542 30.0815H952.867V42.1906H949.816V35.3127L944.125 42.1906H941.8V30.0815H944.851V36.9595L950.542 30.0815ZM966.628 39.2602H968.226V45.4358H965.175V42.1906H957.667V45.4358H954.616V39.2602H956.093C956.787 38.2269 957.134 36.798 957.134 34.9736V30.0815H966.628V39.2602ZM959.435 39.2602H963.576V32.8908H960.186V34.9736C960.186 36.685 959.936 38.1139 959.435 39.2602ZM977.626 30.0815H980.968L976.56 42.1906C975.333 45.5973 973.202 47.2118 970.167 47.0342V44.1281C970.99 44.1442 971.636 43.9908 972.104 43.6679C972.589 43.345 972.976 42.8041 973.267 42.0453L968.375 30.0815H971.693L974.938 38.2188L977.626 30.0815ZM992.186 30.0815V33.0846H988.408V42.1906H985.284V33.0846H981.457V30.0815H992.186ZM1011.07 42.1906H1007.44L1003.03 36.6931V42.1906H999.909V30.0815H1003.03V35.4095L1007.2 30.0815H1010.93L1006.06 36.0634L1011.07 42.1906ZM1023.02 30.0815V42.1906H1019.9V33.0846H1016.56V37.129C1016.56 40.8748 1014.85 42.562 1011.45 42.1906V39.2602C1012.09 39.4217 1012.58 39.3167 1012.92 38.9454C1013.26 38.5579 1013.43 37.8959 1013.43 36.9595V30.0815H1023.02ZM1034.6 30.0815H1036.92V42.1906H1033.87V35.3127L1028.18 42.1906H1025.85V30.0815H1028.91V36.9595L1034.6 30.0815ZM1042.42 37.4196C1042.84 38.9373 1043.98 39.6961 1045.84 39.6961C1047.03 39.6961 1047.94 39.2925 1048.55 38.4852L1051.07 39.9383C1049.87 41.6659 1048.11 42.5297 1045.79 42.5297C1043.79 42.5297 1042.18 41.9242 1040.97 40.7133C1039.76 39.5024 1039.15 37.9767 1039.15 36.1361C1039.15 34.3116 1039.75 32.794 1040.95 31.5831C1042.14 30.356 1043.67 29.7425 1045.55 29.7425C1047.32 29.7425 1048.78 30.356 1049.93 31.5831C1051.09 32.8101 1051.67 34.3278 1051.67 36.1361C1051.67 36.5397 1051.63 36.9676 1051.55 37.4196H1042.42ZM1042.38 34.9978H1048.55C1048.37 34.1744 1048 33.5609 1047.44 33.1572C1046.89 32.7536 1046.26 32.5518 1045.55 32.5518C1044.71 32.5518 1044.01 32.7698 1043.46 33.2057C1042.92 33.6255 1042.55 34.2228 1042.38 34.9978ZM1061.8 30.0815H1064.92V42.1906H1061.8V37.5892H1056.98V42.1906H1053.86V30.0815H1056.98V34.6588H1061.8V30.0815ZM1077.33 30.0815V33.0846H1073.55V42.1906H1070.43V33.0846H1066.6V30.0815H1077.33ZM1084.47 33.9564C1085.84 33.9564 1086.95 34.3359 1087.79 35.0947C1088.63 35.8374 1089.05 36.8303 1089.05 38.0735C1089.05 39.3167 1088.63 40.3177 1087.79 41.0766C1086.95 41.8193 1085.84 42.1906 1084.47 42.1906H1079V30.0815H1082.12V33.9564H1084.47ZM1090.38 30.0815H1093.5V42.1906H1090.38V30.0815ZM1084.49 39.4297C1084.93 39.4297 1085.29 39.3087 1085.56 39.0665C1085.85 38.8081 1086 38.4772 1086 38.0735C1086 37.6699 1085.85 37.3389 1085.56 37.0806C1085.29 36.8223 1084.93 36.6931 1084.49 36.6931H1082.12V39.4297H1084.49ZM1099.46 36.4993C1099.46 35.7889 1099.67 35.1108 1100.09 34.465C1100.53 33.8192 1100.99 33.3026 1101.49 32.9151C1102 32.5114 1102.46 32.0432 1102.88 31.5104C1103.31 30.9776 1103.53 30.4448 1103.53 29.912C1103.53 29.3469 1103.34 28.911 1102.95 28.6042C1102.56 28.2975 1102.02 28.1441 1101.33 28.1441C1099.97 28.1441 1099.01 28.8626 1098.44 30.2995L1095.59 28.6527C1096.07 27.4579 1096.84 26.5376 1097.89 25.8918C1098.95 25.2298 1100.14 24.8989 1101.45 24.8989C1102.92 24.8989 1104.18 25.3267 1105.25 26.1824C1106.33 27.022 1106.87 28.1844 1106.87 29.6698C1106.87 30.3479 1106.73 30.9776 1106.44 31.5588C1106.16 32.1401 1105.82 32.6406 1105.42 33.0604C1105.03 33.464 1104.63 33.8515 1104.23 34.2228C1103.84 34.578 1103.5 34.9494 1103.21 35.3369C1102.94 35.7244 1102.8 36.1119 1102.8 36.4993H1099.46ZM1102.58 41.9C1102.18 42.3036 1101.7 42.5054 1101.13 42.5054C1100.57 42.5054 1100.08 42.3036 1099.68 41.9C1099.27 41.4964 1099.07 41.012 1099.07 40.4469C1099.07 39.8818 1099.27 39.3975 1099.68 38.9938C1100.08 38.5902 1100.57 38.3884 1101.13 38.3884C1101.7 38.3884 1102.18 38.5902 1102.58 38.9938C1102.99 39.3975 1103.19 39.8818 1103.19 40.4469C1103.19 41.012 1102.99 41.4964 1102.58 41.9Z" fill="white"/>
<path d="M452.738 25.2379V42.1906H449.396V28.4347H443.414V42.1906H440.072V25.2379H452.738ZM466.066 40.6891C464.822 41.9161 463.305 42.5297 461.513 42.5297C459.72 42.5297 458.203 41.9161 456.96 40.6891C455.732 39.4459 455.119 37.9282 455.119 36.1361C455.119 34.3439 455.732 32.8343 456.96 31.6073C458.203 30.3641 459.72 29.7425 461.513 29.7425C463.305 29.7425 464.822 30.3641 466.066 31.6073C467.309 32.8343 467.93 34.3439 467.93 36.1361C467.93 37.9282 467.309 39.4459 466.066 40.6891ZM459.163 38.5337C459.793 39.1633 460.576 39.4782 461.513 39.4782C462.449 39.4782 463.232 39.1633 463.862 38.5337C464.491 37.904 464.806 37.1048 464.806 36.1361C464.806 35.1673 464.491 34.3681 463.862 33.7385C463.232 33.1088 462.449 32.794 461.513 32.794C460.576 32.794 459.793 33.1088 459.163 33.7385C458.55 34.3681 458.243 35.1673 458.243 36.1361C458.243 37.1048 458.55 37.904 459.163 38.5337ZM477.012 30.0815H480.137V42.1906H477.012V38.3399C476.108 38.6305 475.148 38.7759 474.13 38.7759C472.661 38.7759 471.483 38.4045 470.595 37.6618C469.723 36.9191 469.287 35.8374 469.287 34.4166V30.0815H472.411V34.0533C472.411 35.2642 473.162 35.8697 474.663 35.8697C475.535 35.8697 476.318 35.7163 477.012 35.4095V30.0815ZM485.61 37.4196C486.03 38.9373 487.168 39.6961 489.025 39.6961C490.22 39.6961 491.124 39.2925 491.737 38.4852L494.256 39.9383C493.061 41.6659 491.301 42.5297 488.977 42.5297C486.974 42.5297 485.368 41.9242 484.157 40.7133C482.946 39.5024 482.341 37.9767 482.341 36.1361C482.341 34.3116 482.938 32.794 484.133 31.5831C485.328 30.356 486.861 29.7425 488.734 29.7425C490.51 29.7425 491.971 30.356 493.118 31.5831C494.28 32.8101 494.862 34.3278 494.862 36.1361C494.862 36.5397 494.821 36.9676 494.74 37.4196H485.61ZM485.562 34.9978H491.737C491.56 34.1744 491.188 33.5609 490.623 33.1572C490.074 32.7536 489.445 32.5518 488.734 32.5518C487.895 32.5518 487.201 32.7698 486.652 33.2057C486.103 33.6255 485.739 34.2228 485.562 34.9978ZM509.636 30.0815V42.1906H506.609V35.1189L503.533 39.9625H503.145L500.046 35.0705V42.1906H497.042V30.0815H500.118L503.339 35.1673L506.56 30.0815H509.636ZM520.381 30.0815H523.724L519.316 42.1906C518.089 45.5973 515.958 47.2118 512.922 47.0342V44.1281C513.746 44.1442 514.391 43.9908 514.86 43.6679C515.344 43.345 515.732 42.8041 516.022 42.0453L511.13 30.0815H514.448L517.693 38.2188L520.381 30.0815ZM542.333 30.0815V42.1906H539.208V33.0119H534.389V42.1906H531.265V30.0815H542.333ZM555.512 40.6891C554.269 41.9161 552.751 42.5297 550.959 42.5297C549.167 42.5297 547.649 41.9161 546.406 40.6891C545.179 39.4459 544.565 37.9282 544.565 36.1361C544.565 34.3439 545.179 32.8343 546.406 31.6073C547.649 30.3641 549.167 29.7425 550.959 29.7425C552.751 29.7425 554.269 30.3641 555.512 31.6073C556.755 32.8343 557.377 34.3439 557.377 36.1361C557.377 37.9282 556.755 39.4459 555.512 40.6891ZM548.61 38.5337C549.239 39.1633 550.022 39.4782 550.959 39.4782C551.895 39.4782 552.678 39.1633 553.308 38.5337C553.938 37.904 554.253 37.1048 554.253 36.1361C554.253 35.1673 553.938 34.3681 553.308 33.7385C552.678 33.1088 551.895 32.794 550.959 32.794C550.022 32.794 549.239 33.1088 548.61 33.7385C547.996 34.3681 547.689 35.1673 547.689 36.1361C547.689 37.1048 547.996 37.904 548.61 38.5337ZM561.609 28.5316V25.8191H568.632V28.5316H561.609ZM568.317 30.0815H570.642V42.1906H567.591V35.3127L561.899 42.1906H559.575V30.0815H562.626V36.9595L568.317 30.0815ZM584.403 39.2602H586.001V45.4358H582.95V42.1906H575.442V45.4358H572.391V39.2602H573.868C574.562 38.2269 574.909 36.798 574.909 34.9736V30.0815H584.403V39.2602ZM577.21 39.2602H581.351V32.8908H577.961V34.9736C577.961 36.685 577.711 38.1139 577.21 39.2602ZM595.401 30.0815H598.743L594.335 42.1906C593.108 45.5973 590.977 47.2118 587.942 47.0342V44.1281C588.765 44.1442 589.411 43.9908 589.879 43.6679C590.364 43.345 590.751 42.8041 591.042 42.0453L586.15 30.0815H589.467L592.713 38.2188L595.401 30.0815ZM609.961 30.0815V33.0846H606.183V42.1906H603.059V33.0846H599.232V30.0815H609.961ZM628.848 42.1906H625.216L620.808 36.6931V42.1906H617.684V30.0815H620.808V35.4095L624.974 30.0815H628.703L623.835 36.0634L628.848 42.1906ZM640.797 30.0815V42.1906H637.673V33.0846H634.331V37.129C634.331 40.8748 632.628 42.562 629.221 42.1906V39.2602C629.867 39.4217 630.359 39.3167 630.698 38.9454C631.038 38.5579 631.207 37.8959 631.207 36.9595V30.0815H640.797ZM652.371 30.0815H654.696V42.1906H651.645V35.3127L645.953 42.1906H643.629V30.0815H646.68V36.9595L652.371 30.0815ZM660.198 37.4196C660.618 38.9373 661.757 39.6961 663.613 39.6961C664.808 39.6961 665.712 39.2925 666.326 38.4852L668.844 39.9383C667.65 41.6659 665.89 42.5297 663.565 42.5297C661.563 42.5297 659.956 41.9242 658.745 40.7133C657.534 39.5024 656.929 37.9767 656.929 36.1361C656.929 34.3116 657.526 32.794 658.721 31.5831C659.916 30.356 661.45 29.7425 663.323 29.7425C665.099 29.7425 666.56 30.356 667.706 31.5831C668.869 32.8101 669.45 34.3278 669.45 36.1361C669.45 36.5397 669.409 36.9676 669.329 37.4196H660.198ZM660.15 34.9978H666.326C666.148 34.1744 665.777 33.5609 665.212 33.1572C664.663 32.7536 664.033 32.5518 663.323 32.5518C662.483 32.5518 661.789 32.7698 661.24 33.2057C660.691 33.6255 660.328 34.2228 660.15 34.9978ZM679.574 30.0815H682.698V42.1906H679.574V37.5892H674.755V42.1906H671.631V30.0815H674.755V34.6588H679.574V30.0815ZM695.103 30.0815V33.0846H691.325V42.1906H688.201V33.0846H684.374V30.0815H695.103ZM702.245 33.9564C703.617 33.9564 704.723 34.3359 705.562 35.0947C706.402 35.8374 706.822 36.8303 706.822 38.0735C706.822 39.3167 706.402 40.3177 705.562 41.0766C704.723 41.8193 703.617 42.1906 702.245 42.1906H696.771V30.0815H699.895V33.9564H702.245ZM708.154 30.0815H711.278V42.1906H708.154V30.0815ZM702.269 39.4297C702.705 39.4297 703.06 39.3087 703.334 39.0665C703.625 38.8081 703.77 38.4772 703.77 38.0735C703.77 37.6699 703.625 37.3389 703.334 37.0806C703.06 36.8223 702.705 36.6931 702.269 36.6931H699.895V39.4297H702.269ZM717.235 36.4993C717.235 35.7889 717.445 35.1108 717.865 34.465C718.301 33.8192 718.769 33.3026 719.27 32.9151C719.77 32.5114 720.23 32.0432 720.65 31.5104C721.086 30.9776 721.304 30.4448 721.304 29.912C721.304 29.3469 721.11 28.911 720.723 28.6042C720.335 28.2975 719.794 28.1441 719.1 28.1441C717.744 28.1441 716.783 28.8626 716.218 30.2995L713.36 28.6527C713.845 27.4579 714.612 26.5376 715.661 25.8918C716.727 25.2298 717.913 24.8989 719.221 24.8989C720.69 24.8989 721.958 25.3267 723.023 26.1824C724.105 27.022 724.646 28.1844 724.646 29.6698C724.646 30.3479 724.501 30.9776 724.21 31.5588C723.936 32.1401 723.597 32.6406 723.193 33.0604C722.805 33.464 722.41 33.8515 722.006 34.2228C721.619 34.578 721.28 34.9494 720.989 35.3369C720.715 35.7244 720.577 36.1119 720.577 36.4993H717.235ZM720.359 41.9C719.956 42.3036 719.471 42.5054 718.906 42.5054C718.341 42.5054 717.857 42.3036 717.453 41.9C717.05 41.4964 716.848 41.012 716.848 40.4469C716.848 39.8818 717.05 39.3975 717.453 38.9938C717.857 38.5902 718.341 38.3884 718.906 38.3884C719.471 38.3884 719.956 38.5902 720.359 38.9938C720.763 39.3975 720.965 39.8818 720.965 40.4469C720.965 41.012 720.763 41.4964 720.359 41.9Z" fill="white"/>
<path d="M70.7378 25.2379V42.1906H67.3957V28.4347H61.4138V42.1906H58.0717V25.2379H70.7378ZM84.0656 40.6891C82.8224 41.9161 81.3047 42.5297 79.5126 42.5297C77.7204 42.5297 76.2027 41.9161 74.9595 40.6891C73.7325 39.4459 73.119 37.9282 73.119 36.1361C73.119 34.3439 73.7325 32.8343 74.9595 31.6073C76.2027 30.3641 77.7204 29.7425 79.5126 29.7425C81.3047 29.7425 82.8224 30.3641 84.0656 31.6073C85.3088 32.8343 85.9304 34.3439 85.9304 36.1361C85.9304 37.9282 85.3088 39.4459 84.0656 40.6891ZM77.1634 38.5337C77.7931 39.1633 78.5761 39.4782 79.5126 39.4782C80.449 39.4782 81.2321 39.1633 81.8617 38.5337C82.4914 37.904 82.8062 37.1048 82.8062 36.1361C82.8062 35.1673 82.4914 34.3681 81.8617 33.7385C81.2321 33.1088 80.449 32.794 79.5126 32.794C78.5761 32.794 77.7931 33.1088 77.1634 33.7385C76.5499 34.3681 76.2431 35.1673 76.2431 36.1361C76.2431 37.1048 76.5499 37.904 77.1634 38.5337ZM95.0124 30.0815H98.1365V42.1906H95.0124V38.3399C94.1082 38.6305 93.1476 38.7759 92.1304 38.7759C90.6612 38.7759 89.4826 38.4045 88.5946 37.6618C87.7227 36.9191 87.2868 35.8374 87.2868 34.4166V30.0815H90.4109V34.0533C90.4109 35.2642 91.1617 35.8697 92.6632 35.8697C93.5351 35.8697 94.3181 35.7163 95.0124 35.4095V30.0815ZM103.61 37.4196C104.03 38.9373 105.168 39.6961 107.025 39.6961C108.22 39.6961 109.124 39.2925 109.737 38.4852L112.256 39.9383C111.061 41.6659 109.301 42.5297 106.977 42.5297C104.974 42.5297 103.368 41.9242 102.157 40.7133C100.946 39.5024 100.341 37.9767 100.341 36.1361C100.341 34.3116 100.938 32.794 102.133 31.5831C103.328 30.356 104.861 29.7425 106.734 29.7425C108.51 29.7425 109.971 30.356 111.118 31.5831C112.28 32.8101 112.862 34.3278 112.862 36.1361C112.862 36.5397 112.821 36.9676 112.74 37.4196H103.61ZM103.562 34.9978H109.737C109.56 34.1744 109.188 33.5609 108.623 33.1572C108.074 32.7536 107.445 32.5518 106.734 32.5518C105.895 32.5518 105.201 32.7698 104.652 33.2057C104.103 33.6255 103.739 34.2228 103.562 34.9978ZM127.636 30.0815V42.1906H124.609V35.1189L121.533 39.9625H121.145L118.046 35.0705V42.1906H115.042V30.0815H118.118L121.339 35.1673L124.56 30.0815H127.636ZM138.381 30.0815H141.724L137.316 42.1906C136.089 45.5973 133.958 47.2118 130.922 47.0342V44.1281C131.746 44.1442 132.391 43.9908 132.86 43.6679C133.344 43.345 133.732 42.8041 134.022 42.0453L129.13 30.0815H132.448L135.693 38.2188L138.381 30.0815ZM160.333 30.0815V42.1906H157.208V33.0119H152.389V42.1906H149.265V30.0815H160.333ZM173.512 40.6891C172.269 41.9161 170.751 42.5297 168.959 42.5297C167.167 42.5297 165.649 41.9161 164.406 40.6891C163.179 39.4459 162.565 37.9282 162.565 36.1361C162.565 34.3439 163.179 32.8343 164.406 31.6073C165.649 30.3641 167.167 29.7425 168.959 29.7425C170.751 29.7425 172.269 30.3641 173.512 31.6073C174.755 32.8343 175.377 34.3439 175.377 36.1361C175.377 37.9282 174.755 39.4459 173.512 40.6891ZM166.61 38.5337C167.239 39.1633 168.022 39.4782 168.959 39.4782C169.895 39.4782 170.678 39.1633 171.308 38.5337C171.938 37.904 172.253 37.1048 172.253 36.1361C172.253 35.1673 171.938 34.3681 171.308 33.7385C170.678 33.1088 169.895 32.794 168.959 32.794C168.022 32.794 167.239 33.1088 166.61 33.7385C165.996 34.3681 165.689 35.1673 165.689 36.1361C165.689 37.1048 165.996 37.904 166.61 38.5337ZM179.609 28.5316V25.8191H186.632V28.5316H179.609ZM186.317 30.0815H188.642V42.1906H185.591V35.3127L179.899 42.1906H177.575V30.0815H180.626V36.9595L186.317 30.0815ZM202.403 39.2602H204.001V45.4358H200.95V42.1906H193.442V45.4358H190.391V39.2602H191.868C192.562 38.2269 192.909 36.798 192.909 34.9736V30.0815H202.403V39.2602ZM195.21 39.2602H199.351V32.8908H195.961V34.9736C195.961 36.685 195.711 38.1139 195.21 39.2602ZM213.401 30.0815H216.743L212.335 42.1906C211.108 45.5973 208.977 47.2118 205.942 47.0342V44.1281C206.765 44.1442 207.411 43.9908 207.879 43.6679C208.364 43.345 208.751 42.8041 209.042 42.0453L204.15 30.0815H207.467L210.713 38.2188L213.401 30.0815ZM227.961 30.0815V33.0846H224.183V42.1906H221.059V33.0846H217.232V30.0815H227.961ZM246.848 42.1906H243.216L238.808 36.6931V42.1906H235.684V30.0815H238.808V35.4095L242.974 30.0815H246.703L241.835 36.0634L246.848 42.1906ZM258.797 30.0815V42.1906H255.673V33.0846H252.331V37.129C252.331 40.8748 250.628 42.562 247.221 42.1906V39.2602C247.867 39.4217 248.359 39.3167 248.698 38.9454C249.038 38.5579 249.207 37.8959 249.207 36.9595V30.0815H258.797ZM270.371 30.0815H272.696V42.1906H269.645V35.3127L263.953 42.1906H261.629V30.0815H264.68V36.9595L270.371 30.0815ZM278.198 37.4196C278.618 38.9373 279.757 39.6961 281.613 39.6961C282.808 39.6961 283.712 39.2925 284.326 38.4852L286.844 39.9383C285.65 41.6659 283.89 42.5297 281.565 42.5297C279.563 42.5297 277.956 41.9242 276.745 40.7133C275.534 39.5024 274.929 37.9767 274.929 36.1361C274.929 34.3116 275.526 32.794 276.721 31.5831C277.916 30.356 279.45 29.7425 281.323 29.7425C283.099 29.7425 284.56 30.356 285.706 31.5831C286.869 32.8101 287.45 34.3278 287.45 36.1361C287.45 36.5397 287.409 36.9676 287.329 37.4196H278.198ZM278.15 34.9978H284.326C284.148 34.1744 283.777 33.5609 283.212 33.1572C282.663 32.7536 282.033 32.5518 281.323 32.5518C280.483 32.5518 279.789 32.7698 279.24 33.2057C278.691 33.6255 278.328 34.2228 278.15 34.9978ZM297.574 30.0815H300.698V42.1906H297.574V37.5892H292.755V42.1906H289.631V30.0815H292.755V34.6588H297.574V30.0815ZM313.103 30.0815V33.0846H309.325V42.1906H306.201V33.0846H302.374V30.0815H313.103ZM320.245 33.9564C321.617 33.9564 322.723 34.3359 323.562 35.0947C324.402 35.8374 324.822 36.8303 324.822 38.0735C324.822 39.3167 324.402 40.3177 323.562 41.0766C322.723 41.8193 321.617 42.1906 320.245 42.1906H314.771V30.0815H317.895V33.9564H320.245ZM326.154 30.0815H329.278V42.1906H326.154V30.0815ZM320.269 39.4297C320.705 39.4297 321.06 39.3087 321.334 39.0665C321.625 38.8081 321.77 38.4772 321.77 38.0735C321.77 37.6699 321.625 37.3389 321.334 37.0806C321.06 36.8223 320.705 36.6931 320.269 36.6931H317.895V39.4297H320.269ZM335.235 36.4993C335.235 35.7889 335.445 35.1108 335.865 34.465C336.301 33.8192 336.769 33.3026 337.27 32.9151C337.77 32.5114 338.23 32.0432 338.65 31.5104C339.086 30.9776 339.304 30.4448 339.304 29.912C339.304 29.3469 339.11 28.911 338.723 28.6042C338.335 28.2975 337.794 28.1441 337.1 28.1441C335.744 28.1441 334.783 28.8626 334.218 30.2995L331.36 28.6527C331.845 27.4579 332.612 26.5376 333.661 25.8918C334.727 25.2298 335.913 24.8989 337.221 24.8989C338.69 24.8989 339.958 25.3267 341.023 26.1824C342.105 27.022 342.646 28.1844 342.646 29.6698C342.646 30.3479 342.501 30.9776 342.21 31.5588C341.936 32.1401 341.597 32.6406 341.193 33.0604C340.805 33.464 340.41 33.8515 340.006 34.2228C339.619 34.578 339.28 34.9494 338.989 35.3369C338.715 35.7244 338.577 36.1119 338.577 36.4993H335.235ZM338.359 41.9C337.956 42.3036 337.471 42.5054 336.906 42.5054C336.341 42.5054 335.857 42.3036 335.453 41.9C335.05 41.4964 334.848 41.012 334.848 40.4469C334.848 39.8818 335.05 39.3975 335.453 38.9938C335.857 38.5902 336.341 38.3884 336.906 38.3884C337.471 38.3884 337.956 38.5902 338.359 38.9938C338.763 39.3975 338.965 39.8818 338.965 40.4469C338.965 41.012 338.763 41.4964 338.359 41.9Z" fill="white"/>
<path d="M1217.45 25.2378V42.1906H1214.1V28.4346H1208.12V42.1906H1204.78V25.2378H1217.45ZM1230.77 40.689C1229.53 41.9161 1228.01 42.5296 1226.22 42.5296C1224.43 42.5296 1222.91 41.9161 1221.67 40.689C1220.44 39.4458 1219.83 37.9282 1219.83 36.136C1219.83 34.3439 1220.44 32.8343 1221.67 31.6072C1222.91 30.364 1224.43 29.7424 1226.22 29.7424C1228.01 29.7424 1229.53 30.364 1230.77 31.6072C1232.02 32.8343 1232.64 34.3439 1232.64 36.136C1232.64 37.9282 1232.02 39.4458 1230.77 40.689ZM1223.87 38.5336C1224.5 39.1633 1225.28 39.4781 1226.22 39.4781C1227.16 39.4781 1227.94 39.1633 1228.57 38.5336C1229.2 37.9039 1229.51 37.1047 1229.51 36.136C1229.51 35.1673 1229.2 34.3681 1228.57 33.7384C1227.94 33.1087 1227.16 32.7939 1226.22 32.7939C1225.28 32.7939 1224.5 33.1087 1223.87 33.7384C1223.26 34.3681 1222.95 35.1673 1222.95 36.136C1222.95 37.1047 1223.26 37.9039 1223.87 38.5336ZM1241.72 30.0815H1244.84V42.1906H1241.72V38.3399C1240.82 38.6305 1239.86 38.7758 1238.84 38.7758C1237.37 38.7758 1236.19 38.4044 1235.3 37.6618C1234.43 36.9191 1233.99 35.8373 1233.99 34.4165V30.0815H1237.12V34.0533C1237.12 35.2642 1237.87 35.8696 1239.37 35.8696C1240.24 35.8696 1241.03 35.7162 1241.72 35.4095V30.0815ZM1250.32 37.4196C1250.74 38.9372 1251.88 39.6961 1253.73 39.6961C1254.93 39.6961 1255.83 39.2924 1256.44 38.4852L1258.96 39.9383C1257.77 41.6658 1256.01 42.5296 1253.68 42.5296C1251.68 42.5296 1250.08 41.9242 1248.86 40.7132C1247.65 39.5023 1247.05 37.9766 1247.05 36.136C1247.05 34.3116 1247.65 32.7939 1248.84 31.583C1250.04 30.3559 1251.57 29.7424 1253.44 29.7424C1255.22 29.7424 1256.68 30.3559 1257.83 31.583C1258.99 32.8101 1259.57 34.3277 1259.57 36.136C1259.57 36.5396 1259.53 36.9675 1259.45 37.4196H1250.32ZM1250.27 34.9978H1256.44C1256.27 34.1743 1255.9 33.5608 1255.33 33.1572C1254.78 32.7535 1254.15 32.5517 1253.44 32.5517C1252.6 32.5517 1251.91 32.7697 1251.36 33.2056C1250.81 33.6254 1250.45 34.2228 1250.27 34.9978ZM1274.34 30.0815V42.1906H1271.32V35.1189L1268.24 39.9625H1267.85L1264.75 35.0704V42.1906H1261.75V30.0815H1264.83L1268.05 35.1673L1271.27 30.0815H1274.34ZM1285.09 30.0815H1288.43L1284.02 42.1906C1282.8 45.5972 1280.67 47.2118 1277.63 47.0342V44.128C1278.45 44.1441 1279.1 43.9908 1279.57 43.6679C1280.05 43.345 1280.44 42.8041 1280.73 42.0452L1275.84 30.0815H1279.16L1282.4 38.2188L1285.09 30.0815ZM1307.04 30.0815V42.1906H1303.92V33.0119H1299.1V42.1906H1295.97V30.0815H1307.04ZM1320.22 40.689C1318.98 41.9161 1317.46 42.5296 1315.67 42.5296C1313.87 42.5296 1312.36 41.9161 1311.11 40.689C1309.89 39.4458 1309.27 37.9282 1309.27 36.136C1309.27 34.3439 1309.89 32.8343 1311.11 31.6072C1312.36 30.364 1313.87 29.7424 1315.67 29.7424C1317.46 29.7424 1318.98 30.364 1320.22 31.6072C1321.46 32.8343 1322.08 34.3439 1322.08 36.136C1322.08 37.9282 1321.46 39.4458 1320.22 40.689ZM1313.32 38.5336C1313.95 39.1633 1314.73 39.4781 1315.67 39.4781C1316.6 39.4781 1317.39 39.1633 1318.02 38.5336C1318.65 37.9039 1318.96 37.1047 1318.96 36.136C1318.96 35.1673 1318.65 34.3681 1318.02 33.7384C1317.39 33.1087 1316.6 32.7939 1315.67 32.7939C1314.73 32.7939 1313.95 33.1087 1313.32 33.7384C1312.7 34.3681 1312.4 35.1673 1312.4 36.136C1312.4 37.1047 1312.7 37.9039 1313.32 38.5336ZM1326.32 28.5315V25.8191H1333.34V28.5315H1326.32ZM1333.02 30.0815H1335.35V42.1906H1332.3V35.3126L1326.61 42.1906H1324.28V30.0815H1327.33V36.9594L1333.02 30.0815ZM1349.11 39.2602H1350.71V45.4358H1347.66V42.1906H1340.15V45.4358H1337.1V39.2602H1338.58C1339.27 38.2268 1339.62 36.798 1339.62 34.9735V30.0815H1349.11V39.2602ZM1341.92 39.2602H1346.06V32.8908H1342.67V34.9735C1342.67 36.685 1342.42 38.1138 1341.92 39.2602ZM1360.11 30.0815H1363.45L1359.04 42.1906C1357.82 45.5972 1355.68 47.2118 1352.65 47.0342V44.128C1353.47 44.1441 1354.12 43.9908 1354.59 43.6679C1355.07 43.345 1355.46 42.8041 1355.75 42.0452L1350.86 30.0815H1354.17L1357.42 38.2188L1360.11 30.0815ZM1374.67 30.0815V33.0845H1370.89V42.1906H1367.77V33.0845H1363.94V30.0815H1374.67ZM1393.56 42.1906H1389.92L1385.52 36.693V42.1906H1382.39V30.0815H1385.52V35.4095L1389.68 30.0815H1393.41L1388.54 36.0634L1393.56 42.1906ZM1405.5 30.0815V42.1906H1402.38V33.0845H1399.04V37.129C1399.04 40.8747 1397.34 42.5619 1393.93 42.1906V39.2602C1394.57 39.4216 1395.07 39.3167 1395.41 38.9453C1395.75 38.5578 1395.91 37.8959 1395.91 36.9594V30.0815H1405.5ZM1417.08 30.0815H1419.4V42.1906H1416.35V35.3126L1410.66 42.1906H1408.34V30.0815H1411.39V36.9594L1417.08 30.0815ZM1424.91 37.4196C1425.33 38.9372 1426.46 39.6961 1428.32 39.6961C1429.52 39.6961 1430.42 39.2924 1431.03 38.4852L1433.55 39.9383C1432.36 41.6658 1430.6 42.5296 1428.27 42.5296C1426.27 42.5296 1424.66 41.9242 1423.45 40.7132C1422.24 39.5023 1421.64 37.9766 1421.64 36.136C1421.64 34.3116 1422.23 32.7939 1423.43 31.583C1424.62 30.3559 1426.16 29.7424 1428.03 29.7424C1429.81 29.7424 1431.27 30.3559 1432.41 31.583C1433.58 32.8101 1434.16 34.3277 1434.16 36.136C1434.16 36.5396 1434.12 36.9675 1434.04 37.4196H1424.91ZM1424.86 34.9978H1431.03C1430.86 34.1743 1430.48 33.5608 1429.92 33.1572C1429.37 32.7535 1428.74 32.5517 1428.03 32.5517C1427.19 32.5517 1426.5 32.7697 1425.95 33.2056C1425.4 33.6254 1425.04 34.2228 1424.86 34.9978ZM1444.28 30.0815H1447.41V42.1906H1444.28V37.5891H1439.46V42.1906H1436.34V30.0815H1439.46V34.6587H1444.28V30.0815ZM1459.81 30.0815V33.0845H1456.03V42.1906H1452.91V33.0845H1449.08V30.0815H1459.81ZM1466.95 33.9564C1468.32 33.9564 1469.43 34.3358 1470.27 35.0946C1471.11 35.8373 1471.53 36.8303 1471.53 38.0735C1471.53 39.3167 1471.11 40.3177 1470.27 41.0765C1469.43 41.8192 1468.32 42.1906 1466.95 42.1906H1461.48V30.0815H1464.6V33.9564H1466.95ZM1472.86 30.0815H1475.99V42.1906H1472.86V30.0815ZM1466.98 39.4297C1467.41 39.4297 1467.77 39.3086 1468.04 39.0664C1468.33 38.8081 1468.48 38.4771 1468.48 38.0735C1468.48 37.6698 1468.33 37.3388 1468.04 37.0805C1467.77 36.8222 1467.41 36.693 1466.98 36.693H1464.6V39.4297H1466.98ZM1481.94 36.4993C1481.94 35.7889 1482.15 35.1108 1482.57 34.465C1483.01 33.8191 1483.48 33.3025 1483.98 32.915C1484.48 32.5114 1484.94 32.0431 1485.36 31.5103C1485.79 30.9775 1486.01 30.4447 1486.01 29.9119C1486.01 29.3469 1485.82 28.9109 1485.43 28.6042C1485.04 28.2974 1484.5 28.144 1483.81 28.144C1482.45 28.144 1481.49 28.8625 1480.93 30.2994L1478.07 28.6526C1478.55 27.4578 1479.32 26.5376 1480.37 25.8917C1481.43 25.2298 1482.62 24.8988 1483.93 24.8988C1485.4 24.8988 1486.67 25.3266 1487.73 26.1824C1488.81 27.0219 1489.35 28.1844 1489.35 29.6698C1489.35 30.3479 1489.21 30.9775 1488.92 31.5588C1488.64 32.14 1488.3 32.6405 1487.9 33.0603C1487.51 33.4639 1487.12 33.8514 1486.71 34.2228C1486.33 34.578 1485.99 34.9493 1485.7 35.3368C1485.42 35.7243 1485.28 36.1118 1485.28 36.4993H1481.94ZM1485.07 41.8999C1484.66 42.3036 1484.18 42.5054 1483.61 42.5054C1483.05 42.5054 1482.56 42.3036 1482.16 41.8999C1481.76 41.4963 1481.56 41.0119 1481.56 40.4468C1481.56 39.8818 1481.76 39.3974 1482.16 38.9938C1482.56 38.5901 1483.05 38.3883 1483.61 38.3883C1484.18 38.3883 1484.66 38.5901 1485.07 38.9938C1485.47 39.3974 1485.67 39.8818 1485.67 40.4468C1485.67 41.0119 1485.47 41.4963 1485.07 41.8999Z" fill="white"/>
<path d="M1599.93 25.2379V42.1906H1596.59V28.4347H1590.6V42.1906H1587.26V25.2379H1599.93ZM1613.26 40.6891C1612.01 41.9161 1610.49 42.5297 1608.7 42.5297C1606.91 42.5297 1605.39 41.9161 1604.15 40.6891C1602.92 39.4459 1602.31 37.9282 1602.31 36.1361C1602.31 34.3439 1602.92 32.8343 1604.15 31.6073C1605.39 30.3641 1606.91 29.7425 1608.7 29.7425C1610.49 29.7425 1612.01 30.3641 1613.26 31.6073C1614.5 32.8343 1615.12 34.3439 1615.12 36.1361C1615.12 37.9282 1614.5 39.4459 1613.26 40.6891ZM1606.35 38.5337C1606.98 39.1633 1607.77 39.4782 1608.7 39.4782C1609.64 39.4782 1610.42 39.1633 1611.05 38.5337C1611.68 37.904 1612 37.1048 1612 36.1361C1612 35.1673 1611.68 34.3681 1611.05 33.7385C1610.42 33.1088 1609.64 32.794 1608.7 32.794C1607.77 32.794 1606.98 33.1088 1606.35 33.7385C1605.74 34.3681 1605.43 35.1673 1605.43 36.1361C1605.43 37.1048 1605.74 37.904 1606.35 38.5337ZM1624.2 30.0815H1627.33V42.1906H1624.2V38.3399C1623.3 38.6305 1622.34 38.7759 1621.32 38.7759C1619.85 38.7759 1618.67 38.4045 1617.78 37.6618C1616.91 36.9191 1616.48 35.8374 1616.48 34.4166V30.0815H1619.6V34.0533C1619.6 35.2642 1620.35 35.8697 1621.85 35.8697C1622.73 35.8697 1623.51 35.7163 1624.2 35.4095V30.0815ZM1632.8 37.4196C1633.22 38.9373 1634.36 39.6961 1636.21 39.6961C1637.41 39.6961 1638.31 39.2925 1638.93 38.4852L1641.45 39.9383C1640.25 41.6659 1638.49 42.5297 1636.17 42.5297C1634.16 42.5297 1632.56 41.9242 1631.35 40.7133C1630.14 39.5024 1629.53 37.9767 1629.53 36.1361C1629.53 34.3116 1630.13 32.794 1631.32 31.5831C1632.52 30.356 1634.05 29.7425 1635.92 29.7425C1637.7 29.7425 1639.16 30.356 1640.31 31.5831C1641.47 32.8101 1642.05 34.3278 1642.05 36.1361C1642.05 36.5397 1642.01 36.9676 1641.93 37.4196H1632.8ZM1632.75 34.9978H1638.93C1638.75 34.1744 1638.38 33.5609 1637.81 33.1572C1637.26 32.7536 1636.63 32.5518 1635.92 32.5518C1635.08 32.5518 1634.39 32.7698 1633.84 33.2057C1633.29 33.6255 1632.93 34.2228 1632.75 34.9978ZM1656.83 30.0815V42.1906H1653.8V35.1189L1650.72 39.9625H1650.34L1647.24 35.0705V42.1906H1644.23V30.0815H1647.31L1650.53 35.1673L1653.75 30.0815H1656.83ZM1667.57 30.0815H1670.91L1666.51 42.1906C1665.28 45.5973 1663.15 47.2118 1660.11 47.0342V44.1281C1660.94 44.1442 1661.58 43.9908 1662.05 43.6679C1662.53 43.345 1662.92 42.8041 1663.21 42.0453L1658.32 30.0815H1661.64L1664.88 38.2188L1667.57 30.0815ZM1689.52 30.0815V42.1906H1686.4V33.0119H1681.58V42.1906H1678.45V30.0815H1689.52ZM1702.7 40.6891C1701.46 41.9161 1699.94 42.5297 1698.15 42.5297C1696.36 42.5297 1694.84 41.9161 1693.6 40.6891C1692.37 39.4459 1691.76 37.9282 1691.76 36.1361C1691.76 34.3439 1692.37 32.8343 1693.6 31.6073C1694.84 30.3641 1696.36 29.7425 1698.15 29.7425C1699.94 29.7425 1701.46 30.3641 1702.7 31.6073C1703.95 32.8343 1704.57 34.3439 1704.57 36.1361C1704.57 37.9282 1703.95 39.4459 1702.7 40.6891ZM1695.8 38.5337C1696.43 39.1633 1697.21 39.4782 1698.15 39.4782C1699.09 39.4782 1699.87 39.1633 1700.5 38.5337C1701.13 37.904 1701.44 37.1048 1701.44 36.1361C1701.44 35.1673 1701.13 34.3681 1700.5 33.7385C1699.87 33.1088 1699.09 32.794 1698.15 32.794C1697.21 32.794 1696.43 33.1088 1695.8 33.7385C1695.19 34.3681 1694.88 35.1673 1694.88 36.1361C1694.88 37.1048 1695.19 37.904 1695.8 38.5337ZM1708.8 28.5316V25.8191H1715.82V28.5316H1708.8ZM1715.51 30.0815H1717.83V42.1906H1714.78V35.3127L1709.09 42.1906H1706.76V30.0815H1709.82V36.9595L1715.51 30.0815ZM1731.59 39.2602H1733.19V45.4358H1730.14V42.1906H1722.63V45.4358H1719.58V39.2602H1721.06C1721.75 38.2269 1722.1 36.798 1722.1 34.9736V30.0815H1731.59V39.2602ZM1724.4 39.2602H1728.54V32.8908H1725.15V34.9736C1725.15 36.685 1724.9 38.1139 1724.4 39.2602ZM1742.59 30.0815H1745.93L1741.53 42.1906C1740.3 45.5973 1738.17 47.2118 1735.13 47.0342V44.1281C1735.96 44.1442 1736.6 43.9908 1737.07 43.6679C1737.55 43.345 1737.94 42.8041 1738.23 42.0453L1733.34 30.0815H1736.66L1739.9 38.2188L1742.59 30.0815ZM1757.15 30.0815V33.0846H1753.37V42.1906H1750.25V33.0846H1746.42V30.0815H1757.15ZM1776.04 42.1906H1772.41L1768 36.6931V42.1906H1764.87V30.0815H1768V35.4095L1772.16 30.0815H1775.89L1771.03 36.0634L1776.04 42.1906ZM1787.99 30.0815V42.1906H1784.86V33.0846H1781.52V37.129C1781.52 40.8748 1779.82 42.562 1776.41 42.1906V39.2602C1777.06 39.4217 1777.55 39.3167 1777.89 38.9454C1778.23 38.5579 1778.4 37.8959 1778.4 36.9595V30.0815H1787.99ZM1799.56 30.0815H1801.89V42.1906H1798.83V35.3127L1793.14 42.1906H1790.82V30.0815H1793.87V36.9595L1799.56 30.0815ZM1807.39 37.4196C1807.81 38.9373 1808.95 39.6961 1810.8 39.6961C1812 39.6961 1812.9 39.2925 1813.52 38.4852L1816.03 39.9383C1814.84 41.6659 1813.08 42.5297 1810.75 42.5297C1808.75 42.5297 1807.15 41.9242 1805.94 40.7133C1804.72 39.5024 1804.12 37.9767 1804.12 36.1361C1804.12 34.3116 1804.72 32.794 1805.91 31.5831C1807.11 30.356 1808.64 29.7425 1810.51 29.7425C1812.29 29.7425 1813.75 30.356 1814.9 31.5831C1816.06 32.8101 1816.64 34.3278 1816.64 36.1361C1816.64 36.5397 1816.6 36.9676 1816.52 37.4196H1807.39ZM1807.34 34.9978H1813.52C1813.34 34.1744 1812.97 33.5609 1812.4 33.1572C1811.85 32.7536 1811.22 32.5518 1810.51 32.5518C1809.67 32.5518 1808.98 32.7698 1808.43 33.2057C1807.88 33.6255 1807.52 34.2228 1807.34 34.9978ZM1826.76 30.0815H1829.89V42.1906H1826.76V37.5892H1821.94V42.1906H1818.82V30.0815H1821.94V34.6588H1826.76V30.0815ZM1842.29 30.0815V33.0846H1838.51V42.1906H1835.39V33.0846H1831.56V30.0815H1842.29ZM1849.43 33.9564C1850.81 33.9564 1851.91 34.3359 1852.75 35.0947C1853.59 35.8374 1854.01 36.8303 1854.01 38.0735C1854.01 39.3167 1853.59 40.3177 1852.75 41.0766C1851.91 41.8193 1850.81 42.1906 1849.43 42.1906H1843.96V30.0815H1847.09V33.9564H1849.43ZM1855.34 30.0815H1858.47V42.1906H1855.34V30.0815ZM1849.46 39.4297C1849.89 39.4297 1850.25 39.3087 1850.52 39.0665C1850.81 38.8081 1850.96 38.4772 1850.96 38.0735C1850.96 37.6699 1850.81 37.3389 1850.52 37.0806C1850.25 36.8223 1849.89 36.6931 1849.46 36.6931H1847.09V39.4297H1849.46ZM1864.43 36.4993C1864.43 35.7889 1864.64 35.1108 1865.05 34.465C1865.49 33.8192 1865.96 33.3026 1866.46 32.9151C1866.96 32.5114 1867.42 32.0432 1867.84 31.5104C1868.28 30.9776 1868.49 30.4448 1868.49 29.912C1868.49 29.3469 1868.3 28.911 1867.91 28.6042C1867.53 28.2975 1866.98 28.1441 1866.29 28.1441C1864.93 28.1441 1863.97 28.8626 1863.41 30.2995L1860.55 28.6527C1861.03 27.4579 1861.8 26.5376 1862.85 25.8918C1863.92 25.2298 1865.1 24.8989 1866.41 24.8989C1867.88 24.8989 1869.15 25.3267 1870.21 26.1824C1871.3 27.022 1871.84 28.1844 1871.84 29.6698C1871.84 30.3479 1871.69 30.9776 1871.4 31.5588C1871.13 32.1401 1870.79 32.6406 1870.38 33.0604C1870 33.464 1869.6 33.8515 1869.2 34.2228C1868.81 34.578 1868.47 34.9494 1868.18 35.3369C1867.9 35.7244 1867.77 36.1119 1867.77 36.4993H1864.43ZM1867.55 41.9C1867.15 42.3036 1866.66 42.5054 1866.1 42.5054C1865.53 42.5054 1865.05 42.3036 1864.64 41.9C1864.24 41.4964 1864.04 41.012 1864.04 40.4469C1864.04 39.8818 1864.24 39.3975 1864.64 38.9938C1865.05 38.5902 1865.53 38.3884 1866.1 38.3884C1866.66 38.3884 1867.15 38.5902 1867.55 38.9938C1867.95 39.3975 1868.15 39.8818 1868.15 40.4469C1868.15 41.012 1867.95 41.4964 1867.55 41.9Z" fill="white"/>
<path d="M1982.74 25.2379V42.1906H1979.4V28.4347H1973.41V42.1906H1970.07V25.2379H1982.74ZM1996.07 40.6891C1994.82 41.9161 1993.31 42.5297 1991.51 42.5297C1989.72 42.5297 1988.2 41.9161 1986.96 40.6891C1985.73 39.4459 1985.12 37.9282 1985.12 36.1361C1985.12 34.3439 1985.73 32.8343 1986.96 31.6073C1988.2 30.3641 1989.72 29.7425 1991.51 29.7425C1993.31 29.7425 1994.82 30.3641 1996.07 31.6073C1997.31 32.8343 1997.93 34.3439 1997.93 36.1361C1997.93 37.9282 1997.31 39.4459 1996.07 40.6891ZM1989.16 38.5337C1989.79 39.1633 1990.58 39.4782 1991.51 39.4782C1992.45 39.4782 1993.23 39.1633 1993.86 38.5337C1994.49 37.904 1994.81 37.1048 1994.81 36.1361C1994.81 35.1673 1994.49 34.3681 1993.86 33.7385C1993.23 33.1088 1992.45 32.794 1991.51 32.794C1990.58 32.794 1989.79 33.1088 1989.16 33.7385C1988.55 34.3681 1988.24 35.1673 1988.24 36.1361C1988.24 37.1048 1988.55 37.904 1989.16 38.5337ZM2007.01 30.0815H2010.14V42.1906H2007.01V38.3399C2006.11 38.6305 2005.15 38.7759 2004.13 38.7759C2002.66 38.7759 2001.48 38.4045 2000.6 37.6618C1999.72 36.9191 1999.29 35.8374 1999.29 34.4166V30.0815H2002.41V34.0533C2002.41 35.2642 2003.16 35.8697 2004.66 35.8697C2005.54 35.8697 2006.32 35.7163 2007.01 35.4095V30.0815ZM2015.61 37.4196C2016.03 38.9373 2017.17 39.6961 2019.03 39.6961C2020.22 39.6961 2021.12 39.2925 2021.74 38.4852L2024.26 39.9383C2023.06 41.6659 2021.3 42.5297 2018.98 42.5297C2016.97 42.5297 2015.37 41.9242 2014.16 40.7133C2012.95 39.5024 2012.34 37.9767 2012.34 36.1361C2012.34 34.3116 2012.94 32.794 2014.13 31.5831C2015.33 30.356 2016.86 29.7425 2018.73 29.7425C2020.51 29.7425 2021.97 30.356 2023.12 31.5831C2024.28 32.8101 2024.86 34.3278 2024.86 36.1361C2024.86 36.5397 2024.82 36.9676 2024.74 37.4196H2015.61ZM2015.56 34.9978H2021.74C2021.56 34.1744 2021.19 33.5609 2020.62 33.1572C2020.07 32.7536 2019.45 32.5518 2018.73 32.5518C2017.9 32.5518 2017.2 32.7698 2016.65 33.2057C2016.1 33.6255 2015.74 34.2228 2015.56 34.9978ZM2039.64 30.0815V42.1906H2036.61V35.1189L2033.53 39.9625H2033.15L2030.05 35.0705V42.1906H2027.04V30.0815H2030.12L2033.34 35.1673L2036.56 30.0815H2039.64ZM2050.38 30.0815H2053.72L2049.32 42.1906C2048.09 45.5973 2045.96 47.2118 2042.92 47.0342V44.1281C2043.75 44.1442 2044.39 43.9908 2044.86 43.6679C2045.34 43.345 2045.73 42.8041 2046.02 42.0453L2041.13 30.0815H2044.45L2047.69 38.2188L2050.38 30.0815ZM2072.33 30.0815V42.1906H2069.21V33.0119H2064.39V42.1906H2061.27V30.0815H2072.33ZM2085.51 40.6891C2084.27 41.9161 2082.75 42.5297 2080.96 42.5297C2079.17 42.5297 2077.65 41.9161 2076.41 40.6891C2075.18 39.4459 2074.57 37.9282 2074.57 36.1361C2074.57 34.3439 2075.18 32.8343 2076.41 31.6073C2077.65 30.3641 2079.17 29.7425 2080.96 29.7425C2082.75 29.7425 2084.27 30.3641 2085.51 31.6073C2086.76 32.8343 2087.38 34.3439 2087.38 36.1361C2087.38 37.9282 2086.76 39.4459 2085.51 40.6891ZM2078.61 38.5337C2079.24 39.1633 2080.02 39.4782 2080.96 39.4782C2081.9 39.4782 2082.68 39.1633 2083.31 38.5337C2083.94 37.904 2084.25 37.1048 2084.25 36.1361C2084.25 35.1673 2083.94 34.3681 2083.31 33.7385C2082.68 33.1088 2081.9 32.794 2080.96 32.794C2080.02 32.794 2079.24 33.1088 2078.61 33.7385C2078 34.3681 2077.69 35.1673 2077.69 36.1361C2077.69 37.1048 2078 37.904 2078.61 38.5337ZM2091.61 28.5316V25.8191H2098.63V28.5316H2091.61ZM2098.32 30.0815H2100.64V42.1906H2097.59V35.3127L2091.9 42.1906H2089.57V30.0815H2092.63V36.9595L2098.32 30.0815ZM2114.4 39.2602H2116V45.4358H2112.95V42.1906H2105.44V45.4358H2102.39V39.2602H2103.87C2104.56 38.2269 2104.91 36.798 2104.91 34.9736V30.0815H2114.4V39.2602ZM2107.21 39.2602H2111.35V32.8908H2107.96V34.9736C2107.96 36.685 2107.71 38.1139 2107.21 39.2602ZM2125.4 30.0815H2128.74L2124.34 42.1906C2123.11 45.5973 2120.98 47.2118 2117.94 47.0342V44.1281C2118.77 44.1442 2119.41 43.9908 2119.88 43.6679C2120.36 43.345 2120.75 42.8041 2121.04 42.0453L2116.15 30.0815H2119.47L2122.71 38.2188L2125.4 30.0815ZM2139.96 30.0815V33.0846H2136.18V42.1906H2133.06V33.0846H2129.23V30.0815H2139.96ZM2158.85 42.1906H2155.22L2150.81 36.6931V42.1906H2147.68V30.0815H2150.81V35.4095L2154.97 30.0815H2158.7L2153.84 36.0634L2158.85 42.1906ZM2170.8 30.0815V42.1906H2167.67V33.0846H2164.33V37.129C2164.33 40.8748 2162.63 42.562 2159.22 42.1906V39.2602C2159.87 39.4217 2160.36 39.3167 2160.7 38.9454C2161.04 38.5579 2161.21 37.8959 2161.21 36.9595V30.0815H2170.8ZM2182.37 30.0815H2184.7V42.1906H2181.65V35.3127L2175.95 42.1906H2173.63V30.0815H2176.68V36.9595L2182.37 30.0815ZM2190.2 37.4196C2190.62 38.9373 2191.76 39.6961 2193.61 39.6961C2194.81 39.6961 2195.71 39.2925 2196.33 38.4852L2198.84 39.9383C2197.65 41.6659 2195.89 42.5297 2193.57 42.5297C2191.56 42.5297 2189.96 41.9242 2188.75 40.7133C2187.53 39.5024 2186.93 37.9767 2186.93 36.1361C2186.93 34.3116 2187.53 32.794 2188.72 31.5831C2189.92 30.356 2191.45 29.7425 2193.32 29.7425C2195.1 29.7425 2196.56 30.356 2197.71 31.5831C2198.87 32.8101 2199.45 34.3278 2199.45 36.1361C2199.45 36.5397 2199.41 36.9676 2199.33 37.4196H2190.2ZM2190.15 34.9978H2196.33C2196.15 34.1744 2195.78 33.5609 2195.21 33.1572C2194.66 32.7536 2194.03 32.5518 2193.32 32.5518C2192.48 32.5518 2191.79 32.7698 2191.24 33.2057C2190.69 33.6255 2190.33 34.2228 2190.15 34.9978ZM2209.57 30.0815H2212.7V42.1906H2209.57V37.5892H2204.76V42.1906H2201.63V30.0815H2204.76V34.6588H2209.57V30.0815ZM2225.1 30.0815V33.0846H2221.33V42.1906H2218.2V33.0846H2214.37V30.0815H2225.1ZM2232.25 33.9564C2233.62 33.9564 2234.72 34.3359 2235.56 35.0947C2236.4 35.8374 2236.82 36.8303 2236.82 38.0735C2236.82 39.3167 2236.4 40.3177 2235.56 41.0766C2234.72 41.8193 2233.62 42.1906 2232.25 42.1906H2226.77V30.0815H2229.9V33.9564H2232.25ZM2238.15 30.0815H2241.28V42.1906H2238.15V30.0815ZM2232.27 39.4297C2232.71 39.4297 2233.06 39.3087 2233.33 39.0665C2233.63 38.8081 2233.77 38.4772 2233.77 38.0735C2233.77 37.6699 2233.63 37.3389 2233.33 37.0806C2233.06 36.8223 2232.71 36.6931 2232.27 36.6931H2229.9V39.4297H2232.27ZM2247.24 36.4993C2247.24 35.7889 2247.45 35.1108 2247.87 34.465C2248.3 33.8192 2248.77 33.3026 2249.27 32.9151C2249.77 32.5114 2250.23 32.0432 2250.65 31.5104C2251.09 30.9776 2251.3 30.4448 2251.3 29.912C2251.3 29.3469 2251.11 28.911 2250.72 28.6042C2250.34 28.2975 2249.79 28.1441 2249.1 28.1441C2247.74 28.1441 2246.78 28.8626 2246.22 30.2995L2243.36 28.6527C2243.85 27.4579 2244.61 26.5376 2245.66 25.8918C2246.73 25.2298 2247.91 24.8989 2249.22 24.8989C2250.69 24.8989 2251.96 25.3267 2253.02 26.1824C2254.11 27.022 2254.65 28.1844 2254.65 29.6698C2254.65 30.3479 2254.5 30.9776 2254.21 31.5588C2253.94 32.1401 2253.6 32.6406 2253.19 33.0604C2252.81 33.464 2252.41 33.8515 2252.01 34.2228C2251.62 34.578 2251.28 34.9494 2250.99 35.3369C2250.72 35.7244 2250.58 36.1119 2250.58 36.4993H2247.24ZM2250.36 41.9C2249.96 42.3036 2249.47 42.5054 2248.91 42.5054C2248.34 42.5054 2247.86 42.3036 2247.45 41.9C2247.05 41.4964 2246.85 41.012 2246.85 40.4469C2246.85 39.8818 2247.05 39.3975 2247.45 38.9938C2247.86 38.5902 2248.34 38.3884 2248.91 38.3884C2249.47 38.3884 2249.96 38.5902 2250.36 38.9938C2250.76 39.3975 2250.97 39.8818 2250.97 40.4469C2250.97 41.012 2250.76 41.4964 2250.36 41.9Z" fill="white"/>
<defs>
<linearGradient id="paint0_linear_2198_409" x1="0" y1="35" x2="2318" y2="35" gradientUnits="userSpaceOnUse">
<stop stop-color="#8763C3"/>
<stop offset="0.51" stop-color="#9C42FF"/>
<stop offset="1" stop-color="#8661C2"/>
</linearGradient>
</defs>
</svg>
