<svg width="26" height="30" viewBox="0 0 26 30" fill="none" xmlns="http://www.w3.org/2000/svg">
<path d="M13.9682 22.2136C13.9011 22.1519 13.828 22.0971 13.75 22.05C13.6804 21.996 13.602 21.9545 13.5182 21.9273C13.437 21.8857 13.3494 21.8581 13.2591 21.8455C12.9979 21.7902 12.7258 21.8189 12.4818 21.9273C12.3126 21.9885 12.1589 22.0862 12.0317 22.2135C11.9044 22.3407 11.8067 22.4944 11.7455 22.6636C11.6691 22.8255 11.6318 23.0029 11.6364 23.1818C11.6342 23.3591 11.6666 23.5351 11.7318 23.7C11.8109 23.8629 11.9118 24.0143 12.0318 24.15C12.1592 24.2764 12.3104 24.3764 12.4765 24.4442C12.6426 24.5121 12.8205 24.5465 13 24.5455C13.1789 24.5501 13.3564 24.5127 13.5182 24.4364C13.6834 24.3673 13.8356 24.2705 13.9682 24.15C14.0946 24.0226 14.1946 23.8715 14.2624 23.7053C14.3303 23.5392 14.3647 23.3613 14.3636 23.1818C14.3615 23.0036 14.3244 22.8276 14.2546 22.6636C14.1897 22.4963 14.0923 22.3433 13.9682 22.2136ZM8.29546 16.5955C8.22585 16.5415 8.14742 16.5 8.06364 16.4727C7.98422 16.4217 7.89656 16.3848 7.80455 16.3636C7.62962 16.3229 7.44767 16.3229 7.27273 16.3636L7.02728 16.4455L6.78183 16.5682L6.57728 16.7318C6.32164 17 6.17989 17.3568 6.18183 17.7273C6.18079 17.9067 6.21519 18.0846 6.28305 18.2508C6.35091 18.4169 6.4509 18.568 6.57728 18.6955C6.70983 18.8159 6.86203 18.9128 7.02728 18.9818C7.23387 19.0667 7.45814 19.0995 7.68039 19.0774C7.90264 19.0553 8.11605 18.979 8.30189 18.8551C8.48772 18.7312 8.64028 18.5636 8.74616 18.3669C8.85203 18.1703 8.90799 17.9506 8.9091 17.7273C8.90407 17.3662 8.76283 17.0204 8.51364 16.7591L8.29546 16.5955ZM8.51364 22.2136C8.38396 22.0895 8.23103 21.9922 8.06364 21.9273C7.81679 21.8128 7.54135 21.7748 7.27273 21.8182L7.02728 21.9C6.94038 21.9298 6.85784 21.9711 6.78183 22.0227C6.71039 22.0731 6.64208 22.1277 6.57728 22.1864C6.45313 22.3161 6.35582 22.469 6.29092 22.6364C6.21877 22.7996 6.18151 22.9761 6.18151 23.1545C6.18151 23.333 6.21877 23.5095 6.29092 23.6727C6.35997 23.838 6.45683 23.9902 6.57728 24.1227C6.70243 24.254 6.85252 24.3591 7.01877 24.4317C7.18502 24.5042 7.36408 24.5429 7.54546 24.5455C7.72434 24.5501 7.90181 24.5127 8.06364 24.4364C8.2289 24.3673 8.3811 24.2705 8.51364 24.15C8.63409 24.0175 8.73095 23.8653 8.80001 23.7C8.87215 23.5368 8.90942 23.3603 8.90942 23.1818C8.90942 23.0034 8.87215 22.8269 8.80001 22.6636C8.73511 22.4963 8.63779 22.3433 8.51364 22.2136ZM12.4818 16.4727C12.3144 16.5376 12.1615 16.6349 12.0318 16.7591C11.7826 17.0204 11.6414 17.3662 11.6364 17.7273C11.6375 17.9506 11.6934 18.1703 11.7993 18.3669C11.9052 18.5636 12.0577 18.7312 12.2436 18.8551C12.4294 18.979 12.6428 19.0553 12.8651 19.0774C13.0873 19.0995 13.3116 19.0667 13.5182 18.9818C13.6834 18.9128 13.8356 18.8159 13.9682 18.6955C14.0946 18.568 14.1946 18.4169 14.2624 18.2508C14.3303 18.0846 14.3647 17.9067 14.3636 17.7273C14.3586 17.3662 14.2174 17.0204 13.9682 16.7591C13.7764 16.5699 13.5329 16.4417 13.2684 16.3907C13.0039 16.3398 12.7302 16.3683 12.4818 16.4727ZM19.4227 22.2136C19.2902 22.0932 19.138 21.9963 18.9727 21.9273C18.7244 21.8228 18.4507 21.7943 18.1862 21.8453C17.9216 21.8962 17.6781 22.0244 17.4864 22.2136C17.3622 22.3433 17.2649 22.4963 17.2 22.6636C17.1279 22.8269 17.0906 23.0034 17.0906 23.1818C17.0906 23.3603 17.1279 23.5368 17.2 23.7C17.2691 23.8653 17.3659 24.0175 17.4864 24.15C17.6138 24.2764 17.7649 24.3764 17.931 24.4442C18.0972 24.5121 18.2751 24.5465 18.4546 24.5455C18.6334 24.5501 18.8109 24.5127 18.9727 24.4364C19.138 24.3673 19.2902 24.2705 19.4227 24.15C19.6119 23.9582 19.7401 23.7147 19.7911 23.4502C19.8421 23.1857 19.8135 22.912 19.7091 22.6636C19.6442 22.4963 19.5469 22.3433 19.4227 22.2136ZM18.4546 5.45455H7.54546C7.1838 5.45455 6.83696 5.59821 6.58123 5.85395C6.32549 6.10968 6.18183 6.45652 6.18183 6.81818V12.2727C6.18183 12.6344 6.32549 12.9812 6.58123 13.237C6.83696 13.4927 7.1838 13.6364 7.54546 13.6364H18.4546C18.8162 13.6364 19.1631 13.4927 19.4188 13.237C19.6745 12.9812 19.8182 12.6344 19.8182 12.2727V6.81818C19.8182 6.45652 19.6745 6.10968 19.4188 5.85395C19.1631 5.59821 18.8162 5.45455 18.4546 5.45455ZM17.0909 10.9091H8.9091V8.18182H17.0909V10.9091ZM21.1818 0H4.81819C3.73321 0 2.69267 0.431005 1.92548 1.1982C1.15829 1.96539 0.72728 3.00593 0.72728 4.09091V25.9091C0.72728 26.9941 1.15829 28.0346 1.92548 28.8018C2.69267 29.569 3.73321 30 4.81819 30H21.1818C22.2668 30 23.3073 29.569 24.0745 28.8018C24.8417 28.0346 25.2727 26.9941 25.2727 25.9091V4.09091C25.2727 3.00593 24.8417 1.96539 24.0745 1.1982C23.3073 0.431005 22.2668 0 21.1818 0ZM22.5455 25.9091C22.5455 26.2708 22.4018 26.6176 22.1461 26.8733C21.8903 27.1291 21.5435 27.2727 21.1818 27.2727H4.81819C4.45653 27.2727 4.10968 27.1291 3.85395 26.8733C3.59822 26.6176 3.45455 26.2708 3.45455 25.9091V4.09091C3.45455 3.72925 3.59822 3.3824 3.85395 3.12667C4.10968 2.87094 4.45653 2.72727 4.81819 2.72727H21.1818C21.5435 2.72727 21.8903 2.87094 22.1461 3.12667C22.4018 3.3824 22.5455 3.72925 22.5455 4.09091V25.9091ZM19.2046 16.5955C19.1349 16.5415 19.0565 16.5 18.9727 16.4727C18.8915 16.4312 18.804 16.4036 18.7136 16.3909C18.5387 16.3502 18.3568 16.3502 18.1818 16.3909L17.9364 16.4727L17.6909 16.5955L17.4864 16.7591C17.2372 17.0204 17.0959 17.3662 17.0909 17.7273C17.092 17.9506 17.148 18.1703 17.2539 18.3669C17.3597 18.5636 17.5123 18.7312 17.6981 18.8551C17.884 18.979 18.0974 19.0553 18.3196 19.0774C18.5419 19.0995 18.7661 19.0667 18.9727 18.9818C19.138 18.9128 19.2902 18.8159 19.4227 18.6955C19.5491 18.568 19.6491 18.4169 19.717 18.2508C19.7848 18.0846 19.8192 17.9067 19.8182 17.7273C19.8132 17.3662 19.6719 17.0204 19.4227 16.7591L19.2046 16.5955Z" fill="white"/>
</svg>
