<svg width="161" height="160" viewBox="0 0 161 160" fill="none" xmlns="http://www.w3.org/2000/svg">
<rect x="1.49038" y="0.615385" width="158.769" height="158.769" rx="79.3846" fill="url(#paint0_linear_11_340)"/>
<rect x="1.49038" y="0.615385" width="158.769" height="158.769" rx="79.3846" stroke="url(#paint1_linear_11_340)" stroke-width="1.23077"/>
<rect x="13.798" y="12.923" width="134.154" height="134.154" rx="67.0769" fill="url(#paint2_radial_11_340)"/>
<rect x="13.798" y="12.923" width="134.154" height="134.154" rx="67.0769" stroke="url(#paint3_linear_11_340)" stroke-width="1.23077"/>
<g clip-path="url(#clip0_11_340)">
<path d="M57.7441 81.5608C56.9405 82.3305 56.5345 83.2779 56.5345 84.386V99.519C56.5345 99.6543 56.5852 99.7812 56.6952 99.8743C56.7967 99.9673 56.9151 100.01 57.0589 99.9927C57.3719 99.9673 57.6849 99.9504 58.0063 99.9504C61.1023 99.9504 63.9868 101.287 65.9831 103.537C66.0846 103.655 66.2199 103.706 66.3806 103.698C66.5414 103.689 66.7105 103.681 66.8713 103.681C68.9352 103.681 70.7962 104.586 72.065 106.015C72.2004 106.168 72.4034 106.218 72.5979 106.142C72.784 106.075 72.9025 105.897 72.9025 105.694V92.2528C72.9025 90.9248 73.9937 89.842 75.3217 89.842H86.369C87.6971 89.842 88.7883 90.9248 88.7883 92.2528V105.77C88.7883 105.973 88.9067 106.142 89.1012 106.218C89.2873 106.286 89.4988 106.235 89.6342 106.083C90.903 104.611 92.7809 103.681 94.8787 103.681C95.0478 103.681 95.2086 103.689 95.3777 103.698C95.53 103.706 95.6653 103.655 95.7669 103.537C97.7632 101.287 100.656 99.9504 103.744 99.9504C104.048 99.9504 104.344 99.9673 104.632 99.9927C104.776 100.001 104.894 99.9589 105.004 99.8658C105.105 99.7728 105.156 99.6543 105.156 99.5105V84.386C105.156 83.2779 104.75 82.3305 103.947 81.5608L82.1903 60.828C81.4375 60.109 80.2532 60.109 79.5004 60.828L57.7441 81.5608ZM66.8713 106.438C66.3384 106.438 65.8308 106.54 65.3571 106.726C65.1372 106.811 64.8919 106.726 64.7735 106.531C63.3862 104.239 60.8739 102.716 58.0063 102.716C53.76 102.716 50.3003 106.066 50.1142 110.27C50.1057 110.406 50.1565 110.524 50.2495 110.626C50.3426 110.719 50.461 110.769 50.5964 110.769H70.5509C70.6947 110.769 70.8131 110.719 70.9062 110.617C71.0077 110.516 71.05 110.389 71.033 110.245C70.8469 108.113 69.0537 106.438 66.8713 106.438ZM94.8787 106.438C95.5638 106.438 96.2067 106.608 96.7735 106.895C98.1015 104.408 100.724 102.716 103.744 102.716C107.99 102.716 111.458 106.066 111.636 110.27C111.644 110.406 111.602 110.524 111.509 110.626C111.416 110.719 111.297 110.769 111.162 110.769H91.199C91.0552 110.769 90.9368 110.719 90.8438 110.617C90.7507 110.516 90.7084 110.389 90.7169 110.245C90.903 108.113 92.6963 106.438 94.8787 106.438ZM55.511 80.4103C52.1274 82.9818 48.4647 78.8539 51.5353 75.9018L78.1808 50.3051C78.9336 49.5777 79.9064 49.2224 80.8792 49.2309C81.8435 49.2224 82.8163 49.5777 83.5691 50.3051L110.223 75.9018C113.294 78.8539 109.623 82.9818 106.239 80.4103L82.2072 57.3514C81.4629 56.6324 80.2871 56.6324 79.5427 57.3514L55.511 80.4103ZM80.8792 75.1743C82.2157 75.1743 83.5015 75.4365 84.6772 75.9018C84.9479 76.0117 85.1425 76.2232 85.2355 76.5108C85.3201 76.7899 85.2863 77.0775 85.1171 77.3228L82.9685 80.5626C82.7402 80.901 82.3426 81.0617 81.945 80.9602C81.6067 80.884 81.2429 80.8417 80.8792 80.8417C80.507 80.8417 80.1517 80.884 79.8049 80.9602C79.4073 81.0617 79.0098 80.901 78.7814 80.5626L76.6328 77.3228C76.4721 77.0775 76.4298 76.7899 76.5229 76.5108C76.6075 76.2232 76.802 76.0117 77.0812 75.9018C78.2569 75.4365 79.5342 75.1743 80.8792 75.1743ZM88.1961 78.2533C89.4819 79.5645 90.4208 81.2139 90.8522 83.058C90.996 83.6501 90.8691 84.2169 90.4885 84.699C90.1163 85.1727 89.5919 85.4265 88.9828 85.4265H85.4639C85.4639 84.4199 85.134 83.4894 84.5842 82.7281C84.3473 82.3982 84.3389 81.9752 84.5588 81.6284L86.7158 78.3971C86.8766 78.1434 87.1219 77.9996 87.4264 77.9657C87.7224 77.9403 87.9931 78.0419 88.1961 78.2533ZM83.5437 85.4265H78.2146C78.2146 84.6905 78.5107 84.0223 78.9929 83.5401C79.475 83.058 80.1433 82.7619 80.8792 82.7619C81.6151 82.7619 82.2749 83.058 82.7571 83.5401C83.2392 84.0223 83.5437 84.6905 83.5437 85.4265ZM76.286 85.4265H72.7756C72.1665 85.4265 71.6421 85.1727 71.2614 84.699C70.8892 84.2169 70.7624 83.6501 70.8977 83.058C71.3376 81.2139 72.268 79.5645 73.5538 78.2533C73.7653 78.0419 74.0359 77.9403 74.332 77.9657C74.6281 77.9996 74.8734 78.1434 75.0426 78.3971L77.1911 81.6284C77.4195 81.9752 77.411 82.3982 77.1657 82.7281C76.6159 83.4894 76.286 84.4199 76.286 85.4265Z" fill="url(#paint4_linear_11_340)"/>
</g>
<defs>
<linearGradient id="paint0_linear_11_340" x1="80.875" y1="0" x2="80.875" y2="160" gradientUnits="userSpaceOnUse">
<stop stop-color="white"/>
<stop offset="1" stop-color="#EDF0F4"/>
</linearGradient>
<linearGradient id="paint1_linear_11_340" x1="80.875" y1="0" x2="80.875" y2="160" gradientUnits="userSpaceOnUse">
<stop stop-color="#F7F8FB"/>
<stop offset="1" stop-color="#DCE1E7"/>
</linearGradient>
<radialGradient id="paint2_radial_11_340" cx="0" cy="0" r="1" gradientUnits="userSpaceOnUse" gradientTransform="translate(80.8749 132) rotate(-90) scale(120 198.588)">
<stop stop-color="white"/>
<stop offset="1" stop-color="#EDF0F4"/>
</radialGradient>
<linearGradient id="paint3_linear_11_340" x1="80.8749" y1="12.3076" x2="80.8749" y2="147.692" gradientUnits="userSpaceOnUse">
<stop stop-color="#E6ECF2"/>
<stop offset="1" stop-color="#F7F8FB"/>
</linearGradient>
<linearGradient id="paint4_linear_11_340" x1="80.875" y1="49" x2="80.875" y2="100" gradientUnits="userSpaceOnUse">
<stop stop-color="#64A821"/>
<stop offset="1" stop-color="#7EC637"/>
</linearGradient>
<clipPath id="clip0_11_340">
<rect width="61.5385" height="61.5385" fill="white" transform="translate(50.1055 49.2307)"/>
</clipPath>
</defs>
</svg>
