<svg width="161" height="160" viewBox="0 0 161 160" fill="none" xmlns="http://www.w3.org/2000/svg">
<rect x="1.24038" y="0.615385" width="158.769" height="158.769" rx="79.3846" fill="url(#paint0_linear_11_353)"/>
<rect x="1.24038" y="0.615385" width="158.769" height="158.769" rx="79.3846" stroke="url(#paint1_linear_11_353)" stroke-width="1.23077"/>
<rect x="13.548" y="12.923" width="134.154" height="134.154" rx="67.0769" fill="url(#paint2_radial_11_353)"/>
<rect x="13.548" y="12.923" width="134.154" height="134.154" rx="67.0769" stroke="url(#paint3_linear_11_353)" stroke-width="1.23077"/>
<path d="M71.6505 83.1281C71.6505 82.1085 72.4771 81.282 73.4967 81.282H87.7531C88.7727 81.282 89.5992 82.1085 89.5992 83.1281V87.1281C89.5992 88.1477 88.7727 88.9743 87.7531 88.9743H73.4967C72.4771 88.9743 71.6505 88.1477 71.6505 87.1281V83.1281ZM71.6505 62.6153C71.6505 61.5957 72.4771 60.7692 73.4967 60.7692H87.7531C88.7727 60.7692 89.5992 61.5957 89.5992 62.6153V66.6153C89.5992 67.6349 88.7727 68.4615 87.7531 68.4615H73.4967C72.4771 68.4615 71.6505 67.6349 71.6505 66.6153V62.6153ZM51.1377 83.1281C51.1377 82.1085 51.9642 81.282 52.9838 81.282H67.2403C68.2599 81.282 69.0864 82.1085 69.0864 83.1281V87.1281C69.0864 88.1477 68.2599 88.9743 67.2403 88.9743H52.9838C51.9642 88.9743 51.1377 88.1477 51.1377 87.1281V83.1281ZM51.1377 72.8717C51.1377 71.8521 51.9642 71.0256 52.9838 71.0256H56.9838C58.0035 71.0256 58.83 71.8521 58.83 72.8717V76.8717C58.83 77.8913 58.0035 78.7179 56.9838 78.7179H52.9838C51.9642 78.7179 51.1377 77.8913 51.1377 76.8717V72.8717ZM81.9069 72.8717C81.9069 71.8521 82.7335 71.0256 83.7531 71.0256H98.0095C99.0291 71.0256 99.8556 71.8521 99.8556 72.8717V76.8717C99.8556 77.8913 99.0291 78.7179 98.0095 78.7179H83.7531C82.7335 78.7179 81.9069 77.8913 81.9069 76.8717V72.8717ZM61.3941 72.8717C61.3941 71.8521 62.2207 71.0256 63.2403 71.0256H77.4967C78.5163 71.0256 79.3428 71.8521 79.3428 72.8717V76.8717C79.3428 77.8913 78.5163 78.7179 77.4967 78.7179H63.2403C62.2207 78.7179 61.3941 77.8913 61.3941 76.8717V72.8717ZM102.42 72.8717C102.42 71.8521 103.246 71.0256 104.266 71.0256H108.266C109.286 71.0256 110.112 71.8521 110.112 72.8717V76.8717C110.112 77.8913 109.286 78.7179 108.266 78.7179H104.266C103.246 78.7179 102.42 77.8913 102.42 76.8717V72.8717ZM92.1633 83.1281C92.1633 82.1085 92.9899 81.282 94.0095 81.282H108.266C109.286 81.282 110.112 82.1085 110.112 83.1281V87.1281C110.112 88.1477 109.286 88.9743 108.266 88.9743H94.0095C92.9899 88.9743 92.1633 88.1477 92.1633 87.1281V83.1281ZM58.83 93.3846C58.83 92.3649 58.0035 91.5384 56.9838 91.5384H52.9838C51.9642 91.5384 51.1377 92.3649 51.1377 93.3846V97.9487C51.1377 98.2887 51.2728 98.6148 51.5132 98.8552C51.7536 99.0956 52.0797 99.2307 52.4197 99.2307H56.9838C58.0035 99.2307 58.83 98.4042 58.83 97.3845V93.3846ZM67.2403 68.4615C68.2599 68.4615 69.0864 67.6349 69.0864 66.6153V62.6153C69.0864 61.5957 68.2599 60.7692 67.2403 60.7692H52.4197C52.0797 60.7692 51.7536 60.9042 51.5132 61.1447C51.2728 61.3851 51.1377 61.7112 51.1377 62.0512V66.6153C51.1377 67.6349 51.9642 68.4615 52.9838 68.4615H67.2403ZM104.266 91.5384C103.246 91.5384 102.42 92.3649 102.42 93.3846V97.3845C102.42 98.4042 103.246 99.2307 104.266 99.2307H108.83C109.17 99.2307 109.496 99.0956 109.737 98.8552C109.977 98.6148 110.112 98.2887 110.112 97.9487V93.3846C110.112 92.3649 109.286 91.5384 108.266 91.5384H104.266ZM92.1633 66.6153C92.1633 67.6349 92.9899 68.4615 94.0095 68.4615H108.266C109.286 68.4615 110.112 67.6349 110.112 66.6153V62.0512C110.112 61.7112 109.977 61.3851 109.737 61.1447C109.496 60.9042 109.17 60.7692 108.83 60.7692H94.0095C92.9899 60.7692 92.1633 61.5957 92.1633 62.6153V66.6153ZM61.3941 93.3846C61.3941 92.3649 62.2207 91.5384 63.2403 91.5384H77.4967C78.5163 91.5384 79.3428 92.3649 79.3428 93.3846V97.3845C79.3428 98.4042 78.5163 99.2307 77.4967 99.2307H63.2403C62.2207 99.2307 61.3941 98.4042 61.3941 97.3845V93.3846ZM81.9069 93.3846C81.9069 92.3649 82.7335 91.5384 83.7531 91.5384H98.0095C99.0291 91.5384 99.8556 92.3649 99.8556 93.3846V97.3845C99.8556 98.4042 99.0291 99.2307 98.0095 99.2307H83.7531C82.7335 99.2307 81.9069 98.4042 81.9069 97.3845V93.3846Z" fill="url(#paint4_linear_11_353)"/>
<defs>
<linearGradient id="paint0_linear_11_353" x1="80.625" y1="0" x2="80.625" y2="160" gradientUnits="userSpaceOnUse">
<stop stop-color="white"/>
<stop offset="1" stop-color="#EDF0F4"/>
</linearGradient>
<linearGradient id="paint1_linear_11_353" x1="80.625" y1="0" x2="80.625" y2="160" gradientUnits="userSpaceOnUse">
<stop stop-color="#F7F8FB"/>
<stop offset="1" stop-color="#DCE1E7"/>
</linearGradient>
<radialGradient id="paint2_radial_11_353" cx="0" cy="0" r="1" gradientUnits="userSpaceOnUse" gradientTransform="translate(80.6249 132) rotate(-90) scale(120 198.588)">
<stop stop-color="white"/>
<stop offset="1" stop-color="#EDF0F4"/>
</radialGradient>
<linearGradient id="paint3_linear_11_353" x1="80.6249" y1="12.3076" x2="80.6249" y2="147.692" gradientUnits="userSpaceOnUse">
<stop stop-color="#E6ECF2"/>
<stop offset="1" stop-color="#F7F8FB"/>
</linearGradient>
<linearGradient id="paint4_linear_11_353" x1="80.6249" y1="60.625" x2="80.6249" y2="92.4999" gradientUnits="userSpaceOnUse">
<stop stop-color="#64A821"/>
<stop offset="1" stop-color="#7EC637"/>
</linearGradient>
</defs>
</svg>
