<svg width="161" height="160" viewBox="0 0 161 160" fill="none" xmlns="http://www.w3.org/2000/svg">
<rect x="0.990385" y="0.615385" width="158.769" height="158.769" rx="79.3846" fill="url(#paint0_linear_11_360)"/>
<rect x="0.990385" y="0.615385" width="158.769" height="158.769" rx="79.3846" stroke="url(#paint1_linear_11_360)" stroke-width="1.23077"/>
<rect x="13.298" y="12.923" width="134.154" height="134.154" rx="67.0769" fill="url(#paint2_radial_11_360)"/>
<rect x="13.298" y="12.923" width="134.154" height="134.154" rx="67.0769" stroke="url(#paint3_linear_11_360)" stroke-width="1.23077"/>
<path fill-rule="evenodd" clip-rule="evenodd" d="M103.452 92.9076V61.1691C103.452 60.0306 102.948 58.9518 102.075 58.221C101.213 57.4998 100.081 57.1922 98.9729 57.3768C94.1652 58.046 88.5479 56.6883 83.7344 53.2864C81.7286 51.8345 79.0152 51.8402 77.0152 53.2999C72.2248 56.7095 66.6421 58.1268 61.844 57.446C60.7055 57.246 59.5729 57.5441 58.7094 58.2595C57.8344 58.9845 57.3267 60.0633 57.3267 61.1999C57.2979 67.7534 57.2979 86.2011 57.2979 92.9076C57.2979 95.171 58.6209 97.2229 60.6805 98.1595C64.0719 99.7012 70.5585 102.65 74.9767 104.658L77.9882 106.027C79.5036 106.717 81.2459 106.717 82.7613 106.027L86.0208 104.545C90.4306 102.541 96.7406 99.6726 100.069 98.1595C102.129 97.2229 103.452 95.171 103.452 92.9076ZM71.3229 79.4364L77.3748 85.4883C78.1248 86.2383 79.3421 86.2383 80.094 85.4883L91.4286 74.1537C92.1786 73.4037 92.1786 72.1844 91.4286 71.4345C90.6767 70.6825 89.4594 70.6825 88.7094 71.4345L78.7344 81.4075L74.0421 76.7172C73.2921 75.9672 72.0729 75.9672 71.3229 76.7172C70.5729 77.4672 70.5729 78.6864 71.3229 79.4364ZM83.7798 57.7062C81.7449 56.2466 78.9948 56.2525 76.9659 57.7196C76.4151 58.1179 76.2915 58.8873 76.6898 59.4381C77.0881 59.9889 77.8575 60.1126 78.4083 59.7143C79.5794 58.8674 81.1709 58.8641 82.3452 59.7064C82.8975 60.1026 83.6664 59.976 84.0626 59.4236C84.4588 58.8713 84.3322 58.1023 83.7798 57.7062ZM98.5205 61.6705C97.5552 60.8699 96.2888 60.5302 95.0527 60.7343C94.3821 60.8451 93.9282 61.4785 94.039 62.1492C94.1497 62.8198 94.7832 63.2737 95.4538 63.1629C95.99 63.0744 96.536 63.2225 96.9491 63.5652C97.3674 63.9121 97.6056 64.4209 97.6056 64.9547C97.6056 65.6345 98.1566 66.1855 98.8364 66.1855C99.5161 66.1855 100.067 65.6345 100.067 64.9547C100.067 63.6838 99.4992 62.4821 98.5205 61.6705ZM61.9133 88.8825C62.593 88.8825 63.144 89.4335 63.144 90.1132C63.144 91.4179 63.9137 92.6084 65.125 93.1542C65.7447 93.4334 66.0208 94.1622 65.7416 94.7819C65.4623 95.4016 64.7336 95.6777 64.1138 95.3985C62.0298 94.4595 60.6825 92.397 60.6825 90.1132C60.6825 89.4335 61.2335 88.8825 61.9133 88.8825ZM100.067 90.1132C100.067 89.4335 99.5161 88.8825 98.8364 88.8825C98.1566 88.8825 97.6056 89.4335 97.6056 90.1132C97.6056 91.4179 96.8359 92.6084 95.6246 93.1542C95.0049 93.4334 94.7288 94.1622 95.0081 94.7819C95.2873 95.4016 96.016 95.6777 96.6358 95.3985C98.7198 94.4595 100.067 92.397 100.067 90.1132ZM77.3438 100.006C77.6235 99.3867 78.3524 99.1112 78.972 99.3908C79.8623 99.7928 80.8873 99.7928 81.7777 99.3908C82.3972 99.1112 83.1261 99.3867 83.4058 100.006C83.6855 100.626 83.41 101.355 82.7904 101.634C81.2562 102.327 79.4935 102.327 77.9592 101.634C77.3397 101.355 77.0641 100.626 77.3438 100.006ZM62.2291 61.6706C63.1943 60.87 64.4607 60.5302 65.6969 60.7344C66.3675 60.8451 66.8214 61.4786 66.7106 62.1492C66.5999 62.8199 65.9664 63.2738 65.2958 63.163C64.7596 63.0745 64.2136 63.2226 63.8005 63.5653C63.3822 63.9122 63.144 64.4209 63.144 64.9548C63.144 65.6346 62.593 66.1856 61.9132 66.1856C61.2335 66.1856 60.6825 65.6346 60.6825 64.9548C60.6825 63.6838 61.2504 62.4822 62.2291 61.6706ZM60.6825 75.0769C60.6825 74.3972 61.2335 73.8461 61.9132 73.8461C62.593 73.8461 63.144 74.3972 63.144 75.0769V81.2307C63.144 81.9105 62.593 82.4615 61.9132 82.4615C61.2335 82.4615 60.6825 81.9105 60.6825 81.2307V75.0769ZM97.6055 75.0769C97.6055 74.3972 98.1566 73.8461 98.8363 73.8461C99.5161 73.8461 100.067 74.3972 100.067 75.0769V81.2307C100.067 81.9105 99.5161 82.4615 98.8363 82.4615C98.1566 82.4615 97.6055 81.9105 97.6055 81.2307V75.0769Z" fill="url(#paint4_linear_11_360)"/>
<defs>
<linearGradient id="paint0_linear_11_360" x1="80.375" y1="0" x2="80.375" y2="160" gradientUnits="userSpaceOnUse">
<stop stop-color="white"/>
<stop offset="1" stop-color="#EDF0F4"/>
</linearGradient>
<linearGradient id="paint1_linear_11_360" x1="80.375" y1="0" x2="80.375" y2="160" gradientUnits="userSpaceOnUse">
<stop stop-color="#F7F8FB"/>
<stop offset="1" stop-color="#DCE1E7"/>
</linearGradient>
<radialGradient id="paint2_radial_11_360" cx="0" cy="0" r="1" gradientUnits="userSpaceOnUse" gradientTransform="translate(80.3749 132) rotate(-90) scale(120 198.588)">
<stop stop-color="white"/>
<stop offset="1" stop-color="#EDF0F4"/>
</radialGradient>
<linearGradient id="paint3_linear_11_360" x1="80.3749" y1="12.3076" x2="80.3749" y2="147.692" gradientUnits="userSpaceOnUse">
<stop stop-color="#E6ECF2"/>
<stop offset="1" stop-color="#F7F8FB"/>
</linearGradient>
<linearGradient id="paint4_linear_11_360" x1="80.3748" y1="51.9976" x2="80.3748" y2="97.0344" gradientUnits="userSpaceOnUse">
<stop stop-color="#64A821"/>
<stop offset="1" stop-color="#7EC637"/>
</linearGradient>
</defs>
</svg>
