<svg width="161" height="160" viewBox="0 0 161 160" fill="none" xmlns="http://www.w3.org/2000/svg">
<rect x="0.740385" y="0.615385" width="158.769" height="158.769" rx="79.3846" fill="url(#paint0_linear_11_366)"/>
<rect x="0.740385" y="0.615385" width="158.769" height="158.769" rx="79.3846" stroke="url(#paint1_linear_11_366)" stroke-width="1.23077"/>
<rect x="13.048" y="12.923" width="134.154" height="134.154" rx="67.0769" fill="url(#paint2_radial_11_366)"/>
<rect x="13.048" y="12.923" width="134.154" height="134.154" rx="67.0769" stroke="url(#paint3_linear_11_366)" stroke-width="1.23077"/>
<path fill-rule="evenodd" clip-rule="evenodd" d="M51.9229 94.1033V60.7698C51.9229 57.2313 54.7947 54.3595 58.3331 54.3595C58.3383 54.3595 58.3447 54.3595 58.3498 54.3595H59.6152C60.6357 54.3595 61.6139 54.7646 62.3344 55.4864C63.0562 56.2069 63.4614 57.1852 63.4614 58.2057V59.4877H104.487C105.508 59.4877 106.486 59.8929 107.206 60.6147C107.928 61.3352 108.333 62.3134 108.333 63.3339V96.6674C108.333 97.6879 107.928 98.6661 107.206 99.3867C106.486 100.108 105.508 100.514 104.487 100.514H58.3331C54.7947 100.514 51.9229 97.6418 51.9229 94.1033ZM66.0255 91.5392C66.0255 92.5597 66.4307 93.5379 67.1525 94.2584C67.873 94.9802 68.8511 95.3853 69.8717 95.3853H99.359C100.38 95.3853 101.358 94.9802 102.078 94.2584C102.8 93.5379 103.205 92.5597 103.205 91.5392V68.4621C103.205 67.4416 102.8 66.4634 102.078 65.7429C101.358 65.0211 100.38 64.616 99.359 64.616H69.8717C68.8511 64.616 67.873 65.0211 67.1525 65.7429C66.4307 66.4634 66.0255 67.4416 66.0255 68.4621V91.5392ZM60.8973 86.4109V58.2057C60.8973 57.8659 60.7626 57.539 60.5216 57.2993C60.2818 57.0582 59.9549 56.9236 59.6152 56.9236H58.3331C56.2101 56.9236 54.487 58.6467 54.487 60.7698V88.9763C55.5588 88.1712 56.8908 87.7007 58.3331 87.693C58.3383 87.693 58.3447 87.693 58.3498 87.693H59.6152C59.9549 87.693 60.2818 87.5584 60.5216 87.3174C60.7626 87.0776 60.8973 86.7507 60.8973 86.4109Z" fill="url(#paint4_linear_11_366)"/>
<path fill-rule="evenodd" clip-rule="evenodd" d="M76.2819 67.1801V74.8724C76.2819 75.5801 76.8563 76.1545 77.564 76.1545C78.2717 76.1545 78.8461 75.5801 78.8461 74.8724V67.1801H99.359C99.6987 67.1801 100.026 67.3147 100.265 67.5557C100.506 67.7955 100.641 68.1224 100.641 68.4621V76.1545H89.1025V73.5904C89.1025 72.8827 88.5282 72.3083 87.8205 72.3083C87.1128 72.3083 86.5384 72.8827 86.5384 73.5904V85.1289C86.5384 85.8366 87.1128 86.4109 87.8205 86.4109C88.5282 86.4109 89.1025 85.8366 89.1025 85.1289V78.7186H100.641V91.5392C100.641 91.8789 100.506 92.2058 100.265 92.4456C100.026 92.6866 99.6987 92.8212 99.359 92.8212H95.5128V86.4109C95.5128 85.7032 94.9384 85.1289 94.2308 85.1289C93.5231 85.1289 92.9487 85.7032 92.9487 86.4109V92.8212H69.8717C69.5319 92.8212 69.205 92.6866 68.9653 92.4456C68.7243 92.2058 68.5896 91.8789 68.5896 91.5392V81.2827H74.9999C75.7076 81.2827 76.2819 81.8571 76.2819 82.5648V85.1289C76.2819 85.8366 76.8563 86.4109 77.564 86.4109C78.2717 86.4109 78.8461 85.8366 78.8461 85.1289V82.5648C78.8461 80.4404 77.1243 78.7186 74.9999 78.7186H68.5896V68.4621C68.5896 68.1224 68.7243 67.7955 68.9653 67.5557C69.205 67.3147 69.5319 67.1801 69.8717 67.1801H76.2819Z" fill="url(#paint5_linear_11_366)"/>
<defs>
<linearGradient id="paint0_linear_11_366" x1="80.125" y1="0" x2="80.125" y2="160" gradientUnits="userSpaceOnUse">
<stop stop-color="white"/>
<stop offset="1" stop-color="#EDF0F4"/>
</linearGradient>
<linearGradient id="paint1_linear_11_366" x1="80.125" y1="0" x2="80.125" y2="160" gradientUnits="userSpaceOnUse">
<stop stop-color="#F7F8FB"/>
<stop offset="1" stop-color="#DCE1E7"/>
</linearGradient>
<radialGradient id="paint2_radial_11_366" cx="0" cy="0" r="1" gradientUnits="userSpaceOnUse" gradientTransform="translate(80.1249 132) rotate(-90) scale(120 198.588)">
<stop stop-color="white"/>
<stop offset="1" stop-color="#EDF0F4"/>
</radialGradient>
<linearGradient id="paint3_linear_11_366" x1="80.1249" y1="12.3076" x2="80.1249" y2="147.692" gradientUnits="userSpaceOnUse">
<stop stop-color="#E6ECF2"/>
<stop offset="1" stop-color="#F7F8FB"/>
</linearGradient>
<linearGradient id="paint4_linear_11_366" x1="80.1281" y1="54.1865" x2="80.1281" y2="92.4366" gradientUnits="userSpaceOnUse">
<stop stop-color="#64A821"/>
<stop offset="1" stop-color="#7EC637"/>
</linearGradient>
<linearGradient id="paint5_linear_11_366" x1="80.1281" y1="54.1865" x2="80.1281" y2="92.4366" gradientUnits="userSpaceOnUse">
<stop stop-color="#64A821"/>
<stop offset="1" stop-color="#7EC637"/>
</linearGradient>
</defs>
</svg>
