<svg width="161" height="160" viewBox="0 0 161 160" fill="none" xmlns="http://www.w3.org/2000/svg">
<rect x="1.49038" y="0.615385" width="158.769" height="158.769" rx="79.3846" fill="url(#paint0_linear_11_373)"/>
<rect x="1.49038" y="0.615385" width="158.769" height="158.769" rx="79.3846" stroke="url(#paint1_linear_11_373)" stroke-width="1.23077"/>
<rect x="13.798" y="12.923" width="134.154" height="134.154" rx="67.0769" fill="url(#paint2_radial_11_373)"/>
<rect x="13.798" y="12.923" width="134.154" height="134.154" rx="67.0769" stroke="url(#paint3_linear_11_373)" stroke-width="1.23077"/>
<g clip-path="url(#clip0_11_373)">
<path fill-rule="evenodd" clip-rule="evenodd" d="M89.5305 53.6069C97.1467 55.8304 102.752 62.8936 102.752 71.2039V77.9342C102.752 78.7165 102.112 79.3565 101.33 79.3565H88.387C87.9682 79.3565 87.6118 79.1036 87.4753 78.7071C87.3388 78.3118 87.4623 77.8918 87.7929 77.6342C90.554 75.4696 92.3292 72.105 92.3292 68.3252C92.3292 65.0265 90.961 61.9231 88.6 59.7078C88.3988 59.5184 88.2953 59.2808 88.2953 59.0055V54.5328C88.2953 54.2186 88.4305 53.9492 88.6811 53.761C88.9317 53.5728 89.2293 53.5187 89.5305 53.6069ZM71.1406 68.3252C71.1406 73.4991 75.3346 77.6942 80.5097 77.6942C85.6836 77.6942 89.8787 73.4991 89.8787 68.3252C89.8787 65.1335 88.2811 62.3148 85.8436 60.6231V51.8376C85.8436 50.4953 84.746 49.3965 83.4037 49.3965H77.6157C76.2734 49.3965 75.1746 50.4953 75.1746 51.8376V60.6231C72.737 62.3148 71.1406 65.1335 71.1406 68.3252ZM102.006 89.0538C102.623 90.3808 103.601 91.5066 104.812 92.3042C105.269 92.603 105.463 93.1512 105.296 93.6701C104.85 95.0653 104.291 96.4099 103.628 97.6911C103.377 98.1758 102.855 98.424 102.321 98.3146C99.8277 97.8005 97.1314 98.5099 95.1962 100.446C93.2621 102.381 92.5516 105.077 93.0657 107.571C93.1751 108.105 92.9257 108.627 92.441 108.878C91.1599 109.54 89.8164 110.1 88.4211 110.545C87.9012 110.711 87.3553 110.518 87.0553 110.062C85.6554 107.934 83.2472 106.53 80.5097 106.53C77.7721 106.53 75.3628 107.934 73.9629 110.061C73.6641 110.518 73.117 110.711 72.5982 110.545C71.203 110.1 69.8583 109.54 68.5772 108.878C68.0925 108.627 67.8431 108.105 67.9525 107.571C68.4678 105.077 67.7572 102.381 65.822 100.446C63.8868 98.5099 61.1904 97.8005 58.6976 98.3146C58.1647 98.424 57.6412 98.1758 57.3918 97.6911C56.7271 96.4099 56.1671 95.0653 55.7224 93.6701C55.5565 93.1501 55.7495 92.603 56.2059 92.3042C57.4188 91.5066 58.3964 90.3808 59.0129 89.0538C59.3964 88.2291 60.174 87.7326 61.0846 87.7326H61.6387C62.4727 87.7326 63.4103 87.8691 64.3621 88.0585C65.2326 88.2314 65.8855 88.8408 66.1197 89.6973C67.8466 96.0229 73.6358 100.673 80.5097 100.673C87.3482 100.673 93.1115 96.07 94.8715 89.7937C95.1056 88.9596 95.735 88.3644 96.5808 88.1785C96.749 88.142 96.9185 88.1044 97.0879 88.0691C97.7972 87.9173 98.6537 87.7326 99.3795 87.7326H99.9348C100.844 87.7326 101.623 88.2291 102.006 89.0538ZM80.5097 62.0536C83.9731 62.0536 86.7812 64.8606 86.7812 68.3252C86.7812 71.7886 83.9731 74.5967 80.5097 74.5967C77.0451 74.5967 74.2382 71.7886 74.2382 68.3252C74.2382 64.8606 77.0451 62.0536 80.5097 62.0536ZM57.2882 80.9388H103.73C104.973 80.9388 105.99 81.8952 105.99 83.0634C105.99 84.2339 104.973 85.1892 103.73 85.1892H99.3795C96.2067 85.1892 90.9316 87.6985 80.5097 87.6985C70.0877 87.6985 65.7255 85.1892 61.6387 85.1892H57.2882C56.0448 85.1892 55.0283 84.2339 55.0283 83.0646C55.0283 81.8952 56.0448 80.9388 57.2882 80.9388ZM72.6312 79.3565H59.6881C58.9058 79.3565 58.2658 78.7165 58.2658 77.9342V71.2039C58.2658 62.8936 63.8727 55.8304 71.4889 53.6069C71.79 53.5187 72.0865 53.5728 72.3371 53.761C72.5888 53.9492 72.7241 54.2198 72.7241 54.5328V59.0055C72.7241 59.2808 72.6206 59.5184 72.4194 59.7078C70.0583 61.9231 68.689 65.0265 68.689 68.3252C68.689 72.105 70.4654 75.4696 73.2264 77.6342C73.5558 77.8918 73.6805 78.3118 73.5429 78.7071C73.4064 79.1036 73.05 79.3565 72.6312 79.3565Z" fill="url(#paint4_linear_11_373)"/>
</g>
<defs>
<linearGradient id="paint0_linear_11_373" x1="80.875" y1="0" x2="80.875" y2="160" gradientUnits="userSpaceOnUse">
<stop stop-color="white"/>
<stop offset="1" stop-color="#EDF0F4"/>
</linearGradient>
<linearGradient id="paint1_linear_11_373" x1="80.875" y1="0" x2="80.875" y2="160" gradientUnits="userSpaceOnUse">
<stop stop-color="#F7F8FB"/>
<stop offset="1" stop-color="#DCE1E7"/>
</linearGradient>
<radialGradient id="paint2_radial_11_373" cx="0" cy="0" r="1" gradientUnits="userSpaceOnUse" gradientTransform="translate(80.8749 132) rotate(-90) scale(120 198.588)">
<stop stop-color="white"/>
<stop offset="1" stop-color="#EDF0F4"/>
</radialGradient>
<linearGradient id="paint3_linear_11_373" x1="80.8749" y1="12.3076" x2="80.8749" y2="147.692" gradientUnits="userSpaceOnUse">
<stop stop-color="#E6ECF2"/>
<stop offset="1" stop-color="#F7F8FB"/>
</linearGradient>
<linearGradient id="paint4_linear_11_373" x1="80.5091" y1="49.167" x2="80.5091" y2="99.8922" gradientUnits="userSpaceOnUse">
<stop stop-color="#64A821"/>
<stop offset="1" stop-color="#7EC637"/>
</linearGradient>
<clipPath id="clip0_11_373">
<rect width="61.5385" height="61.5385" fill="white" transform="translate(50.1055 49.2307)"/>
</clipPath>
</defs>
</svg>
