<svg width="161" height="160" viewBox="0 0 161 160" fill="none" xmlns="http://www.w3.org/2000/svg">
<rect x="1.24038" y="0.615385" width="158.769" height="158.769" rx="79.3846" fill="url(#paint0_linear_11_376)"/>
<rect x="1.24038" y="0.615385" width="158.769" height="158.769" rx="79.3846" stroke="url(#paint1_linear_11_376)" stroke-width="1.23077"/>
<rect x="13.548" y="12.923" width="134.154" height="134.154" rx="67.0769" fill="url(#paint2_radial_11_376)"/>
<rect x="13.548" y="12.923" width="134.154" height="134.154" rx="67.0769" stroke="url(#paint3_linear_11_376)" stroke-width="1.23077"/>
<path d="M74.1427 78.0723C72.4862 73.1825 65.4683 72.92 63.4408 77.6492C60.102 75.9704 55.839 78.2949 55.335 81.9185C55.3735 81.9088 55.412 81.9088 55.4504 81.9088H62.1812C63.7485 81.9088 65.1524 82.6684 66.0273 83.8319C66.9024 82.6684 68.3062 81.9088 69.8735 81.9088C70.4396 81.9631 73.8393 81.7633 74.2966 82.0627L75.6427 78.1877C75.1619 78.0915 74.662 78.0434 74.1427 78.0723ZM105.126 57.7539C104.036 56.6647 102.136 56.6647 101.046 57.7539L96.2871 62.5128C95.4009 63.399 95.2239 64.7186 95.734 65.7906L93.5754 67.9569L88.6619 63.0435C86.7733 61.0357 83.1354 61.8773 82.3062 64.5051L74.9023 85.803C74.4119 87.2069 74.7581 88.7357 75.8157 89.7838C76.8616 90.8491 78.4148 91.1872 79.7965 90.6973L101.095 83.2934C103.719 82.4635 104.567 78.8268 102.556 76.9376L97.6523 72.0338L99.8118 69.8666C100.899 70.3935 102.206 70.1891 103.086 69.3121L107.845 64.5523C108.964 63.4793 108.964 61.5468 107.845 60.4733L105.126 57.7539ZM91.5273 75.4281C90.6299 76.298 89.2759 74.9583 90.1716 74.0722L96.9691 67.2747L98.3249 68.6305L91.5273 75.4281ZM106.486 63.1926L101.726 67.9525C101.351 68.328 100.74 68.3271 100.366 67.9525L97.6468 65.2331C97.2717 64.8575 97.2717 64.2481 97.6468 63.8725L102.407 59.1136C102.769 58.7493 103.402 58.7493 103.766 59.1136L106.485 61.833C106.858 62.1904 106.859 62.8355 106.486 63.1926Z" fill="url(#paint4_linear_11_376)"/>
<path d="M105.45 94.4085H84.2962C82.7031 94.4085 81.4116 95.7 81.4116 97.2931V100.178C81.4116 101.771 82.7031 103.062 84.2962 103.062H105.45C107.043 103.062 108.335 101.771 108.335 100.178V97.2931C108.335 95.7 107.043 94.4085 105.45 94.4085Z" fill="url(#paint5_linear_11_376)"/>
<path d="M76.6039 94.4085H55.45C53.8569 94.4085 52.5654 95.7 52.5654 97.2931V100.178C52.5654 101.771 53.8569 103.062 55.45 103.062H76.6039C78.197 103.062 79.4885 101.771 79.4885 100.178V97.2931C79.4885 95.7 78.197 94.4085 76.6039 94.4085Z" fill="url(#paint6_linear_11_376)"/>
<path d="M73.5465 83.8319H69.8735C68.2773 83.8319 66.9888 85.1203 66.9888 86.7165V89.6011C66.9888 91.1973 68.2773 92.4858 69.8735 92.4858H76.5562C73.6539 91.4755 71.9993 88.0814 73.0851 85.1685L73.5465 83.8319ZM92.9504 89.6011V88.1588L80.5177 92.4858H90.0658C91.662 92.4858 92.9504 91.1973 92.9504 89.6011ZM105.45 83.8319H103.816C103.239 84.3896 102.527 84.8319 101.729 85.1107L94.8735 87.4954V89.6011C94.8735 91.1973 96.162 92.4858 97.7581 92.4858H105.45C107.047 92.4858 108.335 91.1973 108.335 89.6011V86.7165C108.335 85.1203 107.047 83.8319 105.45 83.8319Z" fill="url(#paint7_linear_11_376)"/>
<path d="M62.1808 83.8316H55.45C53.8569 83.8316 52.5654 85.1231 52.5654 86.7162V89.6008C52.5654 91.1939 53.8569 92.4854 55.45 92.4854H62.1808C63.7739 92.4854 65.0654 91.1939 65.0654 89.6008V86.7162C65.0654 85.1231 63.7739 83.8316 62.1808 83.8316Z" fill="url(#paint8_linear_11_376)"/>
<defs>
<linearGradient id="paint0_linear_11_376" x1="80.625" y1="0" x2="80.625" y2="160" gradientUnits="userSpaceOnUse">
<stop stop-color="white"/>
<stop offset="1" stop-color="#EDF0F4"/>
</linearGradient>
<linearGradient id="paint1_linear_11_376" x1="80.625" y1="0" x2="80.625" y2="160" gradientUnits="userSpaceOnUse">
<stop stop-color="#F7F8FB"/>
<stop offset="1" stop-color="#DCE1E7"/>
</linearGradient>
<radialGradient id="paint2_radial_11_376" cx="0" cy="0" r="1" gradientUnits="userSpaceOnUse" gradientTransform="translate(80.6249 132) rotate(-90) scale(120 198.588)">
<stop stop-color="white"/>
<stop offset="1" stop-color="#EDF0F4"/>
</radialGradient>
<linearGradient id="paint3_linear_11_376" x1="80.6249" y1="12.3076" x2="80.6249" y2="147.692" gradientUnits="userSpaceOnUse">
<stop stop-color="#E6ECF2"/>
<stop offset="1" stop-color="#F7F8FB"/>
</linearGradient>
<linearGradient id="paint4_linear_11_376" x1="80.6249" y1="56.7641" x2="80.6249" y2="94.9904" gradientUnits="userSpaceOnUse">
<stop stop-color="#64A821"/>
<stop offset="1" stop-color="#7EC637"/>
</linearGradient>
<linearGradient id="paint5_linear_11_376" x1="80.6249" y1="56.7641" x2="80.6249" y2="94.9904" gradientUnits="userSpaceOnUse">
<stop stop-color="#64A821"/>
<stop offset="1" stop-color="#7EC637"/>
</linearGradient>
<linearGradient id="paint6_linear_11_376" x1="80.6249" y1="56.7641" x2="80.6249" y2="94.9904" gradientUnits="userSpaceOnUse">
<stop stop-color="#64A821"/>
<stop offset="1" stop-color="#7EC637"/>
</linearGradient>
<linearGradient id="paint7_linear_11_376" x1="80.6249" y1="56.7641" x2="80.6249" y2="94.9904" gradientUnits="userSpaceOnUse">
<stop stop-color="#64A821"/>
<stop offset="1" stop-color="#7EC637"/>
</linearGradient>
<linearGradient id="paint8_linear_11_376" x1="80.6249" y1="56.7641" x2="80.6249" y2="94.9904" gradientUnits="userSpaceOnUse">
<stop stop-color="#64A821"/>
<stop offset="1" stop-color="#7EC637"/>
</linearGradient>
</defs>
</svg>
