<svg width="161" height="160" viewBox="0 0 161 160" fill="none" xmlns="http://www.w3.org/2000/svg">
<rect x="0.990385" y="0.615385" width="158.769" height="158.769" rx="79.3846" fill="url(#paint0_linear_11_379)"/>
<rect x="0.990385" y="0.615385" width="158.769" height="158.769" rx="79.3846" stroke="url(#paint1_linear_11_379)" stroke-width="1.23077"/>
<rect x="13.298" y="12.923" width="134.154" height="134.154" rx="67.0769" fill="url(#paint2_radial_11_379)"/>
<rect x="13.298" y="12.923" width="134.154" height="134.154" rx="67.0769" stroke="url(#paint3_linear_11_379)" stroke-width="1.23077"/>
<path fill-rule="evenodd" clip-rule="evenodd" d="M63.0671 53.0769H89.9902C91.5203 53.0769 92.9877 53.6847 94.0696 54.7667C95.1516 55.8486 95.7594 57.316 95.7594 58.8461V60.7692H97.6825C99.2126 60.7692 100.68 61.377 101.762 62.459C102.844 63.5409 103.452 65.0083 103.452 66.5384V93.4615C103.453 93.7146 103.405 93.9655 103.309 94.1998C103.213 94.4341 103.072 94.6472 102.894 94.8269L91.3555 106.365C91.1759 106.544 90.9627 106.685 90.7284 106.78C90.4941 106.876 90.2432 106.925 89.9902 106.923H70.7594C69.2293 106.923 67.7619 106.315 66.6799 105.233C65.598 104.151 64.9902 102.684 64.9902 101.154V99.2308H63.0671C61.537 99.2308 60.0696 98.6229 58.9876 97.541C57.9057 96.459 57.2979 94.9916 57.2979 93.4615V58.8461C57.2979 57.316 57.9057 55.8486 58.9876 54.7667C60.0696 53.6847 61.537 53.0769 63.0671 53.0769ZM66.6799 62.459C67.7619 61.377 69.2293 60.7692 70.7594 60.7692H91.9132V58.8461C91.9132 58.3361 91.7106 57.847 91.35 57.4863C90.9893 57.1257 90.5002 56.9231 89.9902 56.9231H63.0671C62.5571 56.9231 62.0679 57.1257 61.7073 57.4863C61.3466 57.847 61.144 58.3361 61.144 58.8461V93.4615C61.144 93.9716 61.3466 94.4607 61.7073 94.8213C62.0679 95.182 62.5571 95.3846 63.0671 95.3846H64.9902V66.5384C64.9902 65.0083 65.598 63.5409 66.6799 62.459ZM91.9132 100.385L96.894 95.3846H93.8363C93.3263 95.3846 92.8371 95.5872 92.4765 95.9479C92.1158 96.3085 91.9132 96.7976 91.9132 97.3077V100.385ZM70.5286 72.6154C70.5286 71.9356 71.0797 71.3846 71.7594 71.3846H96.3748C97.0545 71.3846 97.6055 71.9356 97.6055 72.6154C97.6055 73.2951 97.0545 73.8461 96.3748 73.8461H71.7594C71.0797 73.8461 70.5286 73.2951 70.5286 72.6154ZM70.5286 78.7692C70.5286 78.0895 71.0797 77.5384 71.7594 77.5384H96.3748C97.0545 77.5384 97.6055 78.0895 97.6055 78.7692C97.6055 79.4489 97.0545 80 96.3748 80H71.7594C71.0797 80 70.5286 79.4489 70.5286 78.7692ZM70.5286 84.9231C70.5286 84.2433 71.0797 83.6923 71.7594 83.6923H96.3748C97.0545 83.6923 97.6055 84.2433 97.6055 84.9231C97.6055 85.6028 97.0545 86.1538 96.3748 86.1538H71.7594C71.0797 86.1538 70.5286 85.6028 70.5286 84.9231ZM70.5286 91.0769C70.5286 90.3972 71.0797 89.8461 71.7594 89.8461H82.8363C83.516 89.8461 84.0671 90.3972 84.0671 91.0769C84.0671 91.7566 83.516 92.3077 82.8363 92.3077H71.7594C71.0797 92.3077 70.5286 91.7566 70.5286 91.0769Z" fill="url(#paint4_linear_11_379)"/>
<defs>
<linearGradient id="paint0_linear_11_379" x1="80.375" y1="0" x2="80.375" y2="160" gradientUnits="userSpaceOnUse">
<stop stop-color="white"/>
<stop offset="1" stop-color="#EDF0F4"/>
</linearGradient>
<linearGradient id="paint1_linear_11_379" x1="80.375" y1="0" x2="80.375" y2="160" gradientUnits="userSpaceOnUse">
<stop stop-color="#F7F8FB"/>
<stop offset="1" stop-color="#DCE1E7"/>
</linearGradient>
<radialGradient id="paint2_radial_11_379" cx="0" cy="0" r="1" gradientUnits="userSpaceOnUse" gradientTransform="translate(80.3749 132) rotate(-90) scale(120 198.588)">
<stop stop-color="white"/>
<stop offset="1" stop-color="#EDF0F4"/>
</radialGradient>
<linearGradient id="paint3_linear_11_379" x1="80.3749" y1="12.3076" x2="80.3749" y2="147.692" gradientUnits="userSpaceOnUse">
<stop stop-color="#E6ECF2"/>
<stop offset="1" stop-color="#F7F8FB"/>
</linearGradient>
<linearGradient id="paint4_linear_11_379" x1="80.3748" y1="52.875" x2="80.3748" y2="97.5" gradientUnits="userSpaceOnUse">
<stop stop-color="#64A821"/>
<stop offset="1" stop-color="#7EC637"/>
</linearGradient>
</defs>
</svg>
