<svg width="161" height="160" viewBox="0 0 161 160" fill="none" xmlns="http://www.w3.org/2000/svg">
<rect x="0.740385" y="0.615385" width="158.769" height="158.769" rx="79.3846" fill="url(#paint0_linear_11_382)"/>
<rect x="0.740385" y="0.615385" width="158.769" height="158.769" rx="79.3846" stroke="url(#paint1_linear_11_382)" stroke-width="1.23077"/>
<rect x="13.048" y="12.923" width="134.154" height="134.154" rx="67.0769" fill="url(#paint2_radial_11_382)"/>
<rect x="13.048" y="12.923" width="134.154" height="134.154" rx="67.0769" stroke="url(#paint3_linear_11_382)" stroke-width="1.23077"/>
<path d="M107.817 83.846C108.394 83.0768 108.971 82.1152 108.971 81.1537C108.971 78.846 107.048 77.1152 104.932 77.1152H98.2014L96.6629 76.9229C96.4706 75.9614 96.4706 74.2306 96.6629 72.4998C97.6245 65.1921 97.0476 63.2691 93.7783 62.6921C90.5091 62.3075 88.2014 65.1921 85.3168 73.6537C84.3552 76.1537 83.586 78.2691 82.8168 79.6152H71.8552C71.086 79.6152 70.5091 80.1921 70.5091 80.9614V100.192C70.5091 100.961 71.086 101.538 71.8552 101.538H81.6629C81.8552 101.923 82.2399 102.115 82.6245 102.115L104.548 102.308C107.048 102.308 108.971 99.6152 108.971 97.4998C108.971 96.346 108.586 95.5768 107.817 94.8075C108.394 94.0383 108.971 93.0768 108.971 92.1152C108.971 91.1537 108.586 90.1921 107.817 89.4229C108.394 88.6537 108.971 87.6921 108.971 86.7306C108.971 85.3844 108.586 84.4229 107.817 83.846ZM76.2783 97.6921C75.1245 97.6921 74.3552 96.7306 74.3552 95.7691C74.3552 94.6152 75.3168 93.846 76.2783 93.846C77.2399 93.846 78.2014 94.8075 78.2014 95.7691C78.3937 96.9229 77.4322 97.6921 76.2783 97.6921ZM100.701 85.1921H104.74C105.509 85.1921 106.086 85.7691 106.086 86.5383C106.086 87.3075 105.509 87.8844 104.74 87.8844H100.701C99.9322 87.8844 99.3552 88.4614 99.3552 89.2306C99.3552 89.9998 99.9322 90.5768 100.701 90.5768H104.74C105.509 90.5768 106.086 91.1537 106.086 91.9229C106.086 92.6921 105.701 93.4614 104.932 93.4614H100.894C100.124 93.4614 99.5476 94.0383 99.5476 94.8075C99.5476 95.5768 100.124 96.1537 100.894 96.1537H104.932C105.701 96.1537 106.278 96.5383 106.278 97.3075C106.278 98.2691 105.317 99.2306 104.74 99.2306L84.3552 98.846V82.4998C85.8937 80.5768 87.6245 75.1921 88.0091 74.6152C91.2783 65.1921 92.8168 65.3844 93.586 65.3844C93.7783 65.3844 94.1629 65.3844 94.1629 65.5768C94.3552 65.7691 94.7399 66.7306 93.9706 72.1152C93.7783 74.0383 93.586 77.6921 94.7399 79.0383C94.9322 79.2306 95.3168 79.4229 95.7014 79.6152L98.2014 79.8075H105.124C105.894 79.8075 106.471 80.3844 106.471 81.1537C106.471 81.9229 105.894 82.4998 105.124 82.4998H101.086C100.317 82.4998 99.7399 83.0768 99.7399 83.846C99.3552 84.6152 99.9322 85.1921 100.701 85.1921Z" fill="url(#paint4_linear_11_382)"/>
<path fill-rule="evenodd" clip-rule="evenodd" d="M81.4706 59.0383V75.5768C81.4706 76.346 80.8937 76.9229 80.1245 76.9229H70.3168L65.5091 84.4229C65.3168 84.8075 64.7399 85.1921 64.3552 85.1921C63.9706 85.1921 63.3937 84.8075 63.2014 84.4229L58.586 76.9229H52.6245C51.8552 76.9229 51.2783 76.346 51.2783 75.5768V59.0383C51.2783 58.2691 51.8552 57.6921 52.6245 57.6921H80.1245C80.8937 57.6921 81.4706 58.2691 81.4706 59.0383ZM56.7399 63.9998C56.7399 63.3201 57.2909 62.7691 57.9706 62.7691H75.2014C75.8811 62.7691 76.4322 63.3201 76.4322 63.9998C76.4322 64.6796 75.8811 65.2306 75.2014 65.2306H57.9706C57.2909 65.2306 56.7399 64.6796 56.7399 63.9998ZM56.7399 70.1537C56.7399 69.4739 57.2909 68.9229 57.9706 68.9229H75.2014C75.8811 68.9229 76.4322 69.4739 76.4322 70.1537C76.4322 70.8334 75.8811 71.3844 75.2014 71.3844H57.9706C57.2909 71.3844 56.7399 70.8334 56.7399 70.1537Z" fill="url(#paint5_linear_11_382)"/>
<defs>
<linearGradient id="paint0_linear_11_382" x1="80.125" y1="0" x2="80.125" y2="160" gradientUnits="userSpaceOnUse">
<stop stop-color="white"/>
<stop offset="1" stop-color="#EDF0F4"/>
</linearGradient>
<linearGradient id="paint1_linear_11_382" x1="80.125" y1="0" x2="80.125" y2="160" gradientUnits="userSpaceOnUse">
<stop stop-color="#F7F8FB"/>
<stop offset="1" stop-color="#DCE1E7"/>
</linearGradient>
<radialGradient id="paint2_radial_11_382" cx="0" cy="0" r="1" gradientUnits="userSpaceOnUse" gradientTransform="translate(80.1249 132) rotate(-90) scale(120 198.588)">
<stop stop-color="white"/>
<stop offset="1" stop-color="#EDF0F4"/>
</radialGradient>
<linearGradient id="paint3_linear_11_382" x1="80.1249" y1="12.3076" x2="80.1249" y2="147.692" gradientUnits="userSpaceOnUse">
<stop stop-color="#E6ECF2"/>
<stop offset="1" stop-color="#F7F8FB"/>
</linearGradient>
<linearGradient id="paint4_linear_11_382" x1="80.1245" y1="57.5249" x2="80.1245" y2="94.4998" gradientUnits="userSpaceOnUse">
<stop stop-color="#64A821"/>
<stop offset="1" stop-color="#7EC637"/>
</linearGradient>
<linearGradient id="paint5_linear_11_382" x1="80.1245" y1="57.5249" x2="80.1245" y2="94.4998" gradientUnits="userSpaceOnUse">
<stop stop-color="#64A821"/>
<stop offset="1" stop-color="#7EC637"/>
</linearGradient>
</defs>
</svg>
