<svg width="33" height="30" viewBox="0 0 33 30" fill="none" xmlns="http://www.w3.org/2000/svg">
<path fill-rule="evenodd" clip-rule="evenodd" d="M4.59626 4.2272C10.0091 -0.647833 18.2628 -0.499535 23.4977 4.56685L32.4492 13.2301L27.8891 17.9604L18.9376 9.29719C16.1809 6.62926 11.8346 6.55116 8.98416 9.11834C5.72355 12.055 5.76298 17.1884 9.06831 20.0744L11.7362 22.4038C12.0194 22.6511 12.3614 22.8212 12.7292 22.8976C14.8574 23.3402 16.2584 20.7401 14.7215 19.2001L12.533 17.0074C11.2513 15.7232 11.2513 13.6411 12.533 12.357C13.8146 11.0728 15.8926 11.0728 17.1743 12.357L19.3628 14.5497C25.5092 20.7083 19.9063 31.107 11.3953 29.3371C9.92429 29.0312 8.55663 28.351 7.42397 27.362L4.75606 25.0326C-1.52073 19.5521 -1.5956 9.80382 4.59626 4.2272Z" fill="black"/>
</svg>
