<svg width="33" height="29" viewBox="0 0 33 29" fill="none" xmlns="http://www.w3.org/2000/svg">
<path fill-rule="evenodd" clip-rule="evenodd" d="M4.59626 3.56046C10.0091 -1.31458 18.2628 -1.16628 23.4977 3.9001L32.4492 12.5633L27.8891 17.2937L18.9376 8.63044C16.1809 5.96251 11.8346 5.88441 8.98416 8.45159C5.72355 11.3882 5.76298 16.5216 9.06831 19.4076L11.7362 21.737C12.0194 21.9843 12.3614 22.1544 12.7292 22.2309C14.8574 22.6735 16.2584 20.0733 14.7215 18.5334L12.533 16.3406C11.2513 15.0565 11.2513 12.9744 12.533 11.6902C13.8146 10.406 15.8926 10.406 17.1743 11.6902L19.3628 13.883C25.5092 20.0415 19.9063 30.4403 11.3953 28.6703C9.92429 28.3644 8.55663 27.6842 7.42397 26.6953L4.75606 24.3658C-1.52073 18.8854 -1.5956 9.13707 4.59626 3.56046Z" fill="white"/>
</svg>
