<svg width="131" height="33" viewBox="0 0 131 33" fill="none" xmlns="http://www.w3.org/2000/svg">
<path d="M46.841 7.21392C48.0244 7.21392 49.0647 7.45251 49.9618 7.92971C50.8589 8.38782 51.5652 8.98908 52.0806 9.7335V7.4716H56.1176V23.4481C56.1176 24.9178 55.8218 26.2253 55.23 27.3706C54.6383 28.5349 53.7507 29.4512 52.5673 30.1192C51.3839 30.8064 49.9523 31.15 48.2726 31.15C46.0202 31.15 44.1687 30.6251 42.718 29.5752C41.2864 28.5254 40.4752 27.0938 40.2843 25.2805H44.2641C44.4741 26.0058 44.9227 26.5784 45.6098 26.9984C46.3161 27.4374 47.1655 27.6569 48.158 27.6569C49.3224 27.6569 50.2672 27.3038 50.9926 26.5975C51.7179 25.9104 52.0806 24.8605 52.0806 23.4481V20.9857C51.5652 21.7302 50.8494 22.3505 49.9332 22.8468C49.0361 23.3431 48.0053 23.5912 46.841 23.5912C45.5048 23.5912 44.2832 23.2476 43.1761 22.5605C42.069 21.8733 41.191 20.9094 40.542 19.6687C39.9121 18.4089 39.5972 16.9678 39.5972 15.3453C39.5972 13.7419 39.9121 12.3199 40.542 11.0792C41.191 9.83849 42.0595 8.8841 43.1475 8.21603C44.2546 7.54795 45.4857 7.21392 46.841 7.21392ZM52.0806 15.4026C52.0806 14.4291 51.8897 13.5988 51.5079 12.9116C51.1262 12.2054 50.6108 11.6709 49.9618 11.3082C49.3128 10.9265 48.6161 10.7356 47.8717 10.7356C47.1273 10.7356 46.4401 10.9169 45.8102 11.2796C45.1803 11.6423 44.665 12.1767 44.2641 12.883C43.8824 13.5701 43.6915 14.3909 43.6915 15.3453C43.6915 16.2997 43.8824 17.1396 44.2641 17.8649C44.665 18.5711 45.1803 19.1151 45.8102 19.4969C46.4592 19.8786 47.1464 20.0695 47.8717 20.0695C48.6161 20.0695 49.3128 19.8882 49.9618 19.5255C50.6108 19.1438 51.1262 18.6093 51.5079 17.9222C51.8897 17.2159 52.0806 16.376 52.0806 15.4026Z" fill="black"/>
<path d="M57.5702 15.3453C57.5702 13.7419 57.8852 12.3199 58.5151 11.0792C59.1641 9.83849 60.0326 8.8841 61.1206 8.21603C62.2276 7.54795 63.4588 7.21392 64.814 7.21392C65.9975 7.21392 67.0282 7.45251 67.9063 7.92971C68.8034 8.4069 69.5192 9.00817 70.0536 9.7335V7.4716H74.0907V23.3335H70.0536V21.0144C69.5383 21.7588 68.8225 22.3791 67.9063 22.8754C67.0091 23.3526 65.9688 23.5912 64.7854 23.5912C63.4493 23.5912 62.2276 23.2476 61.1206 22.5605C60.0326 21.8733 59.1641 20.9094 58.5151 19.6687C57.8852 18.4089 57.5702 16.9678 57.5702 15.3453ZM70.0536 15.4026C70.0536 14.4291 69.8627 13.5988 69.481 12.9116C69.0992 12.2054 68.5839 11.6709 67.9349 11.3082C67.2859 10.9265 66.5892 10.7356 65.8448 10.7356C65.1004 10.7356 64.4132 10.9169 63.7833 11.2796C63.1534 11.6423 62.638 12.1767 62.2372 12.883C61.8554 13.5701 61.6646 14.3909 61.6646 15.3453C61.6646 16.2997 61.8554 17.1396 62.2372 17.8649C62.638 18.5711 63.1534 19.1151 63.7833 19.4969C64.4323 19.8786 65.1194 20.0695 65.8448 20.0695C66.5892 20.0695 67.2859 19.8882 67.9349 19.5255C68.5839 19.1438 69.0992 18.6093 69.481 17.9222C69.8627 17.2159 70.0536 16.376 70.0536 15.4026Z" fill="black"/>
<path d="M80.5825 2.14612V23.3335H76.574V2.14612H80.5825Z" fill="black"/>
<path d="M82.0805 15.3453C82.0805 13.7419 82.3954 12.3199 83.0253 11.0792C83.6743 9.83849 84.5428 8.8841 85.6308 8.21603C86.7379 7.54795 87.9691 7.21392 89.3243 7.21392C90.5077 7.21392 91.5385 7.45251 92.4165 7.92971C93.3136 8.4069 94.0294 9.00817 94.5639 9.7335V7.4716H98.6009V23.3335H94.5639V21.0144C94.0485 21.7588 93.3327 22.3791 92.4165 22.8754C91.5194 23.3526 90.4791 23.5912 89.2956 23.5912C87.9595 23.5912 86.7379 23.2476 85.6308 22.5605C84.5428 21.8733 83.6743 20.9094 83.0253 19.6687C82.3954 18.4089 82.0805 16.9678 82.0805 15.3453ZM94.5639 15.4026C94.5639 14.4291 94.373 13.5988 93.9912 12.9116C93.6095 12.2054 93.0941 11.6709 92.4451 11.3082C91.7961 10.9265 91.0994 10.7356 90.355 10.7356C89.6106 10.7356 88.9234 10.9169 88.2935 11.2796C87.6636 11.6423 87.1483 12.1767 86.7474 12.883C86.3657 13.5701 86.1748 14.3909 86.1748 15.3453C86.1748 16.2997 86.3657 17.1396 86.7474 17.8649C87.1483 18.5711 87.6636 19.1151 88.2935 19.4969C88.9425 19.8786 89.6297 20.0695 90.355 20.0695C91.0994 20.0695 91.7961 19.8882 92.4451 19.5255C93.0941 19.1438 93.6095 18.6093 93.9912 17.9222C94.373 17.2159 94.5639 16.376 94.5639 15.4026Z" fill="black"/>
<path d="M105.751 10.7642V18.4375C105.751 18.972 105.875 19.3633 106.123 19.6114C106.391 19.8405 106.83 19.955 107.441 19.955H109.302V23.3335H106.782C103.403 23.3335 101.714 21.692 101.714 18.4089V10.7642H99.8245V7.4716H101.714V3.54907H105.751V7.4716H109.302V10.7642H105.751Z" fill="black"/>
<path d="M109.722 15.3453C109.722 13.7419 110.037 12.3199 110.667 11.0792C111.316 9.83849 112.185 8.8841 113.273 8.21603C114.38 7.54795 115.611 7.21392 116.966 7.21392C118.15 7.21392 119.18 7.45251 120.058 7.92971C120.955 8.4069 121.671 9.00817 122.206 9.7335V7.4716H126.243V23.3335H122.206V21.0144C121.69 21.7588 120.975 22.3791 120.058 22.8754C119.161 23.3526 118.121 23.5912 116.937 23.5912C115.601 23.5912 114.38 23.2476 113.273 22.5605C112.185 21.8733 111.316 20.9094 110.667 19.6687C110.037 18.4089 109.722 16.9678 109.722 15.3453ZM122.206 15.4026C122.206 14.4291 122.015 13.5988 121.633 12.9116C121.251 12.2054 120.736 11.6709 120.087 11.3082C119.438 10.9265 118.741 10.7356 117.997 10.7356C117.252 10.7356 116.565 10.9169 115.935 11.2796C115.305 11.6423 114.79 12.1767 114.389 12.883C114.008 13.5701 113.817 14.3909 113.817 15.3453C113.817 16.2997 114.008 17.1396 114.389 17.8649C114.79 18.5711 115.305 19.1151 115.935 19.4969C116.584 19.8786 117.272 20.0695 117.997 20.0695C118.741 20.0695 119.438 19.8882 120.087 19.5255C120.736 19.1438 121.251 18.6093 121.633 17.9222C122.015 17.2159 122.206 16.376 122.206 15.4026Z" fill="black"/>
<path fill-rule="evenodd" clip-rule="evenodd" d="M4.59626 4.2272C10.0091 -0.647833 18.2628 -0.499535 23.4977 4.56685L32.4492 13.2301L27.8891 17.9604L18.9376 9.29719C16.1809 6.62926 11.8346 6.55116 8.98416 9.11834C5.72355 12.055 5.76298 17.1884 9.06831 20.0744L11.7362 22.4038C12.0194 22.6511 12.3614 22.8212 12.7292 22.8976C14.8574 23.3402 16.2584 20.7401 14.7215 19.2001L12.533 17.0074C11.2513 15.7232 11.2513 13.6411 12.533 12.357C13.8146 11.0728 15.8926 11.0728 17.1743 12.357L19.3628 14.5497C25.5092 20.7083 19.9063 31.107 11.3953 29.3371C9.92429 29.0312 8.55663 28.351 7.42397 27.362L4.75606 25.0326C-1.52073 19.5521 -1.5956 9.80382 4.59626 4.2272Z" fill="black"/>
<path d="M58.1016 32.2864V31.073H58.3252C58.4021 31.003 58.4744 30.9041 58.5422 30.7765C58.6111 30.6477 58.6692 30.476 58.7167 30.2613C58.7653 30.0456 58.7975 29.7716 58.8133 29.4395L58.8878 27.9753H60.9485V31.073H61.3484V32.2796H60.9485V31.4458H58.5015V32.2864H58.1016ZM58.8268 31.073H60.5485V28.3481H59.2674L59.2132 29.4395C59.1997 29.6925 59.1759 29.9219 59.142 30.1275C59.1081 30.3319 59.0646 30.5133 59.0116 30.6714C58.9585 30.8285 58.8969 30.9623 58.8268 31.073Z" fill="black"/>
<path d="M63.2252 31.5001C62.9902 31.5001 62.7841 31.4441 62.6067 31.3323C62.4305 31.2205 62.2926 31.064 62.1932 30.8629C62.0949 30.6618 62.0458 30.4268 62.0458 30.158C62.0458 29.8868 62.0949 29.6502 62.1932 29.4479C62.2926 29.2457 62.4305 29.0887 62.6067 28.9768C62.7841 28.865 62.9902 28.8091 63.2252 28.8091C63.4602 28.8091 63.6658 28.865 63.842 28.9768C64.0194 29.0887 64.1572 29.2457 64.2555 29.4479C64.3549 29.6502 64.4046 29.8868 64.4046 30.158C64.4046 30.4268 64.3549 30.6618 64.2555 30.8629C64.1572 31.064 64.0194 31.2205 63.842 31.3323C63.6658 31.4441 63.4602 31.5001 63.2252 31.5001ZM63.2252 31.1408C63.4037 31.1408 63.5506 31.0951 63.6658 31.0036C63.781 30.9121 63.8663 30.7917 63.9217 30.6426C63.977 30.4935 64.0047 30.3319 64.0047 30.158C64.0047 29.984 63.977 29.8219 63.9217 29.6716C63.8663 29.5214 63.781 29.3999 63.6658 29.3073C63.5506 29.2146 63.4037 29.1683 63.2252 29.1683C63.0467 29.1683 62.8999 29.2146 62.7846 29.3073C62.6694 29.3999 62.5841 29.5214 62.5287 29.6716C62.4734 29.8219 62.4457 29.984 62.4457 30.158C62.4457 30.3319 62.4734 30.4935 62.5287 30.6426C62.5841 30.7917 62.6694 30.9121 62.7846 31.0036C62.8999 31.0951 63.0467 31.1408 63.2252 31.1408Z" fill="black"/>
<path d="M66.3111 31.5001C66.0671 31.5001 65.857 31.4425 65.6807 31.3272C65.5045 31.212 65.3689 31.0533 65.274 30.851C65.1791 30.6488 65.1317 30.4178 65.1317 30.158C65.1317 29.8936 65.1803 29.6603 65.2774 29.4581C65.3757 29.2548 65.5124 29.096 65.6875 28.9819C65.8638 28.8667 66.0694 28.8091 66.3043 28.8091C66.4874 28.8091 66.6523 28.843 66.7992 28.9108C66.946 28.9785 67.0663 29.0734 67.1601 29.1954C67.2539 29.3174 67.3121 29.4598 67.3347 29.6225H66.9347C66.9042 29.5039 66.8364 29.3988 66.7314 29.3073C66.6274 29.2146 66.4874 29.1683 66.3111 29.1683C66.1552 29.1683 66.0185 29.209 65.901 29.2903C65.7847 29.3705 65.6937 29.4841 65.6282 29.6309C65.5638 29.7767 65.5316 29.9478 65.5316 30.1444C65.5316 30.3455 65.5633 30.5206 65.6265 30.6697C65.6909 30.8188 65.7813 30.9346 65.8977 31.0171C66.0151 31.0996 66.153 31.1408 66.3111 31.1408C66.4151 31.1408 66.5094 31.1227 66.5941 31.0866C66.6789 31.0504 66.7506 30.9985 66.8093 30.9307C66.8681 30.8629 66.9099 30.7816 66.9347 30.6867H67.3347C67.3121 30.8403 67.2561 30.9787 67.1669 31.1018C67.0788 31.2239 66.9618 31.321 66.8161 31.3933C66.6715 31.4645 66.5032 31.5001 66.3111 31.5001Z" fill="black"/>
<path d="M67.9528 29.2158V28.843H70.0677V29.2158H69.2136V31.4458H68.8137V29.2158H67.9528Z" fill="black"/>
<path d="M71.5204 31.5068C71.3555 31.5068 71.2058 31.4758 71.0714 31.4136C70.9369 31.3504 70.8302 31.2594 70.7511 31.1408C70.672 31.0211 70.6325 30.8765 70.6325 30.707C70.6325 30.5579 70.6619 30.437 70.7206 30.3444C70.7793 30.2506 70.8579 30.1772 70.9561 30.1241C71.0544 30.071 71.1629 30.0314 71.2815 30.0054C71.4013 29.9783 71.5216 29.9569 71.6424 29.9411C71.8006 29.9207 71.9288 29.9055 72.0271 29.8953C72.1265 29.884 72.1988 29.8654 72.244 29.8394C72.2903 29.8134 72.3135 29.7682 72.3135 29.7038V29.6903C72.3135 29.5231 72.2677 29.3931 72.1762 29.3005C72.0859 29.2079 71.9486 29.1615 71.7645 29.1615C71.5735 29.1615 71.4238 29.2033 71.3154 29.2869C71.2069 29.3705 71.1307 29.4598 71.0866 29.5547L70.707 29.4191C70.7748 29.261 70.8652 29.1378 70.9782 29.0497C71.0923 28.9605 71.2165 28.8983 71.351 28.8633C71.4865 28.8272 71.6199 28.8091 71.7509 28.8091C71.8345 28.8091 71.9305 28.8192 72.039 28.8396C72.1486 28.8588 72.2542 28.8989 72.3559 28.9599C72.4587 29.0209 72.544 29.113 72.6117 29.2361C72.6795 29.3592 72.7134 29.5242 72.7134 29.7309V31.4458H72.3135V31.0934H72.2932C72.2661 31.1499 72.2209 31.2103 72.1576 31.2747C72.0943 31.3391 72.0102 31.3939 71.9051 31.4391C71.8 31.4843 71.6718 31.5068 71.5204 31.5068ZM71.5814 31.1476C71.7396 31.1476 71.8729 31.1165 71.9814 31.0544C72.0909 30.9923 72.1734 30.9121 72.2288 30.8138C72.2853 30.7155 72.3135 30.6121 72.3135 30.5037V30.1376C72.2966 30.158 72.2593 30.1766 72.2017 30.1935C72.1452 30.2094 72.0797 30.2235 72.0051 30.2359C71.9317 30.2472 71.8599 30.2574 71.7899 30.2664C71.721 30.2743 71.665 30.2811 71.6221 30.2867C71.5182 30.3003 71.421 30.3223 71.3306 30.3528C71.2414 30.3822 71.1691 30.4268 71.1137 30.4867C71.0595 30.5455 71.0324 30.6257 71.0324 30.7273C71.0324 30.8663 71.0838 30.9714 71.1866 31.0425C71.2905 31.1126 71.4222 31.1476 71.5814 31.1476Z" fill="black"/>
<path d="M73.682 31.4458V28.843H74.7462C75.0263 28.843 75.2489 28.9062 75.4138 29.0328C75.5788 29.1593 75.6612 29.3265 75.6612 29.5344C75.6612 29.6925 75.6143 29.8151 75.5206 29.9021C75.4268 29.9879 75.3065 30.0461 75.1596 30.0766C75.2557 30.0902 75.3489 30.1241 75.4392 30.1783C75.5308 30.2325 75.6064 30.3071 75.6663 30.402C75.7262 30.4957 75.7561 30.611 75.7561 30.7477C75.7561 30.881 75.7222 31.0002 75.6545 31.1052C75.5867 31.2103 75.4895 31.2933 75.363 31.3543C75.2365 31.4153 75.0851 31.4458 74.9088 31.4458H73.682ZM74.0615 31.0798H74.9088C75.0467 31.0798 75.1546 31.0471 75.2325 30.9815C75.3105 30.916 75.3494 30.8268 75.3494 30.7138C75.3494 30.5793 75.3105 30.4737 75.2325 30.3969C75.1546 30.3189 75.0467 30.28 74.9088 30.28H74.0615V31.0798ZM74.0615 29.9343H74.7462C74.8535 29.9343 74.9456 29.9196 75.0224 29.8902C75.0992 29.8597 75.1579 29.8168 75.1986 29.7614C75.2404 29.7049 75.2613 29.6383 75.2613 29.5615C75.2613 29.4519 75.2156 29.366 75.1241 29.3039C75.0325 29.2406 74.9066 29.209 74.7462 29.209H74.0615V29.9343Z" fill="black"/>
<path d="M76.6001 31.4458V28.843H77V29.9749H77.2644L78.1998 28.843H78.715L77.6643 30.097L78.7285 31.4458H78.2134L77.3593 30.3478H77V31.4458H76.6001Z" fill="black"/>
<path d="M80.1677 31.5068C80.0028 31.5068 79.8531 31.4758 79.7187 31.4136C79.5842 31.3504 79.4775 31.2594 79.3984 31.1408C79.3193 31.0211 79.2798 30.8765 79.2798 30.707C79.2798 30.5579 79.3091 30.437 79.3679 30.3444C79.4266 30.2506 79.5051 30.1772 79.6034 30.1241C79.7017 30.071 79.8102 30.0314 79.9288 30.0054C80.0485 29.9783 80.1688 29.9569 80.2897 29.9411C80.4479 29.9207 80.5761 29.9055 80.6744 29.8953C80.7738 29.884 80.8461 29.8654 80.8913 29.8394C80.9376 29.8134 80.9608 29.7682 80.9608 29.7038V29.6903C80.9608 29.5231 80.915 29.3931 80.8235 29.3005C80.7331 29.2079 80.5959 29.1615 80.4117 29.1615C80.2208 29.1615 80.0711 29.2033 79.9627 29.2869C79.8542 29.3705 79.778 29.4598 79.7339 29.5547L79.3543 29.4191C79.4221 29.261 79.5125 29.1378 79.6255 29.0497C79.7396 28.9605 79.8638 28.8983 79.9983 28.8633C80.1338 28.8272 80.2671 28.8091 80.3982 28.8091C80.4818 28.8091 80.5778 28.8192 80.6863 28.8396C80.7958 28.8588 80.9015 28.8989 81.0031 28.9599C81.1059 29.0209 81.1912 29.113 81.259 29.2361C81.3268 29.3592 81.3607 29.5242 81.3607 29.7309V31.4458H80.9608V31.0934H80.9404C80.9133 31.1499 80.8681 31.2103 80.8049 31.2747C80.7416 31.3391 80.6575 31.3939 80.5524 31.4391C80.4473 31.4843 80.3191 31.5068 80.1677 31.5068ZM80.2287 31.1476C80.3869 31.1476 80.5202 31.1165 80.6286 31.0544C80.7382 30.9923 80.8207 30.9121 80.8761 30.8138C80.9325 30.7155 80.9608 30.6121 80.9608 30.5037V30.1376C80.9438 30.158 80.9066 30.1766 80.8489 30.1935C80.7925 30.2094 80.7269 30.2235 80.6524 30.2359C80.5789 30.2472 80.5072 30.2574 80.4372 30.2664C80.3682 30.2743 80.3123 30.2811 80.2694 30.2867C80.1655 30.3003 80.0683 30.3223 79.9779 30.3528C79.8887 30.3822 79.8164 30.4268 79.761 30.4867C79.7068 30.5455 79.6797 30.6257 79.6797 30.7273C79.6797 30.8663 79.7311 30.9714 79.8339 31.0425C79.9378 31.1126 80.0694 31.1476 80.2287 31.1476Z" fill="black"/>
<path d="M83.7608 29.2158V28.843H85.8757V29.2158H85.0216V31.4458H84.6217V29.2158H83.7608Z" fill="black"/>
<path d="M87.6199 31.5001C87.3849 31.5001 87.1787 31.4441 87.0014 31.3323C86.8251 31.2205 86.6873 31.064 86.5879 30.8629C86.4896 30.6618 86.4405 30.4268 86.4405 30.158C86.4405 29.8868 86.4896 29.6502 86.5879 29.4479C86.6873 29.2457 86.8251 29.0887 87.0014 28.9768C87.1787 28.865 87.3849 28.8091 87.6199 28.8091C87.8549 28.8091 88.0605 28.865 88.2367 28.9768C88.4141 29.0887 88.5519 29.2457 88.6502 29.4479C88.7496 29.6502 88.7993 29.8868 88.7993 30.158C88.7993 30.4268 88.7496 30.6618 88.6502 30.8629C88.5519 31.064 88.4141 31.2205 88.2367 31.3323C88.0605 31.4441 87.8549 31.5001 87.6199 31.5001ZM87.6199 31.1408C87.7984 31.1408 87.9452 31.0951 88.0605 31.0036C88.1757 30.9121 88.261 30.7917 88.3164 30.6426C88.3717 30.4935 88.3994 30.3319 88.3994 30.158C88.3994 29.984 88.3717 29.8219 88.3164 29.6716C88.261 29.5214 88.1757 29.3999 88.0605 29.3073C87.9452 29.2146 87.7984 29.1683 87.6199 29.1683C87.4414 29.1683 87.2945 29.2146 87.1793 29.3073C87.0641 29.3999 86.9788 29.5214 86.9234 29.6716C86.8681 29.8219 86.8404 29.984 86.8404 30.158C86.8404 30.3319 86.8681 30.4935 86.9234 30.6426C86.9788 30.7917 87.0641 30.9121 87.1793 31.0036C87.2945 31.0951 87.4414 31.1408 87.6199 31.1408Z" fill="black"/>
<path d="M89.6484 31.4458V28.843H90.7126C90.9928 28.843 91.2153 28.9062 91.3802 29.0328C91.5452 29.1593 91.6277 29.3265 91.6277 29.5344C91.6277 29.6925 91.5808 29.8151 91.487 29.9021C91.3932 29.9879 91.2729 30.0461 91.1261 30.0766C91.2221 30.0902 91.3153 30.1241 91.4057 30.1783C91.4972 30.2325 91.5729 30.3071 91.6327 30.402C91.6926 30.4957 91.7226 30.611 91.7226 30.7477C91.7226 30.881 91.6887 31.0002 91.6209 31.1052C91.5531 31.2103 91.4559 31.2933 91.3294 31.3543C91.2029 31.4153 91.0515 31.4458 90.8753 31.4458H89.6484ZM90.028 31.0798H90.8753C91.0131 31.0798 91.121 31.0471 91.1989 30.9815C91.2769 30.916 91.3159 30.8268 91.3159 30.7138C91.3159 30.5793 91.2769 30.4737 91.1989 30.3969C91.121 30.3189 91.0131 30.28 90.8753 30.28H90.028V31.0798ZM90.028 29.9343H90.7126C90.8199 29.9343 90.912 29.9196 90.9888 29.8902C91.0656 29.8597 91.1244 29.8168 91.165 29.7614C91.2068 29.7049 91.2277 29.6383 91.2277 29.5615C91.2277 29.4519 91.182 29.366 91.0905 29.3039C90.999 29.2406 90.873 29.209 90.7126 29.209H90.028V29.9343Z" fill="black"/>
<path d="M93.3325 31.5068C93.1676 31.5068 93.0179 31.4758 92.8834 31.4136C92.749 31.3504 92.6422 31.2594 92.5631 31.1408C92.4841 31.0211 92.4445 30.8765 92.4445 30.707C92.4445 30.5579 92.4739 30.437 92.5326 30.3444C92.5914 30.2506 92.6699 30.1772 92.7682 30.1241C92.8665 30.071 92.9749 30.0314 93.0936 30.0054C93.2133 29.9783 93.3336 29.9569 93.4545 29.9411C93.6127 29.9207 93.7409 29.9055 93.8392 29.8953C93.9386 29.884 94.0109 29.8654 94.0561 29.8394C94.1024 29.8134 94.1256 29.7682 94.1256 29.7038V29.6903C94.1256 29.5231 94.0798 29.3931 93.9883 29.3005C93.8979 29.2079 93.7607 29.1615 93.5765 29.1615C93.3856 29.1615 93.2359 29.2033 93.1274 29.2869C93.019 29.3705 92.9427 29.4598 92.8987 29.5547L92.5191 29.4191C92.5869 29.261 92.6772 29.1378 92.7902 29.0497C92.9043 28.9605 93.0286 28.8983 93.163 28.8633C93.2986 28.8272 93.4319 28.8091 93.563 28.8091C93.6465 28.8091 93.7426 28.8192 93.851 28.8396C93.9606 28.8588 94.0662 28.8989 94.1679 28.9599C94.2707 29.0209 94.356 29.113 94.4238 29.2361C94.4916 29.3592 94.5255 29.5242 94.5255 29.7309V31.4458H94.1256V31.0934H94.1052C94.0781 31.1499 94.0329 31.2103 93.9697 31.2747C93.9064 31.3391 93.8222 31.3939 93.7172 31.4391C93.6121 31.4843 93.4839 31.5068 93.3325 31.5068ZM93.3935 31.1476C93.5517 31.1476 93.685 31.1165 93.7934 31.0544C93.903 30.9923 93.9855 30.9121 94.0408 30.8138C94.0973 30.7155 94.1256 30.6121 94.1256 30.5037V30.1376C94.1086 30.158 94.0713 30.1766 94.0137 30.1935C93.9572 30.2094 93.8917 30.2235 93.8171 30.2359C93.7437 30.2472 93.672 30.2574 93.6019 30.2664C93.533 30.2743 93.4771 30.2811 93.4342 30.2867C93.3302 30.3003 93.2331 30.3223 93.1427 30.3528C93.0534 30.3822 92.9811 30.4268 92.9258 30.4867C92.8716 30.5455 92.8445 30.6257 92.8445 30.7273C92.8445 30.8663 92.8959 30.9714 92.9987 31.0425C93.1026 31.1126 93.2342 31.1476 93.3935 31.1476Z" fill="black"/>
<path d="M95.494 32.4219V28.843H95.8804V29.2564H95.9278C95.9572 29.2113 95.9979 29.1536 96.0498 29.0836C96.1029 29.0124 96.1786 28.9492 96.2769 28.8938C96.3763 28.8373 96.5108 28.8091 96.6802 28.8091C96.8994 28.8091 97.0926 28.8639 97.2598 28.9734C97.427 29.083 97.5574 29.2384 97.6512 29.4395C97.745 29.6405 97.7919 29.8778 97.7919 30.1512C97.7919 30.4268 97.745 30.6658 97.6512 30.868C97.5574 31.0691 97.4275 31.225 97.2615 31.3357C97.0954 31.4453 96.9039 31.5001 96.687 31.5001C96.5198 31.5001 96.3859 31.4724 96.2854 31.417C96.1848 31.3605 96.1074 31.2967 96.0532 31.2255C95.999 31.1532 95.9572 31.0934 95.9278 31.0459H95.8939V32.4219H95.494ZM95.8872 30.1444C95.8872 30.341 95.916 30.5144 95.9736 30.6646C96.0312 30.8138 96.1154 30.9307 96.2261 31.0154C96.3368 31.099 96.4724 31.1408 96.6328 31.1408C96.8 31.1408 96.9395 31.0968 97.0513 31.0086C97.1643 30.9194 97.249 30.7996 97.3055 30.6494C97.3631 30.498 97.3919 30.3297 97.3919 30.1444C97.3919 29.9614 97.3637 29.7965 97.3072 29.6496C97.2519 29.5016 97.1677 29.3847 97.0547 29.2988C96.9429 29.2118 96.8022 29.1683 96.6328 29.1683C96.4701 29.1683 96.3334 29.2096 96.2227 29.292C96.112 29.3734 96.0284 29.4875 95.9719 29.6343C95.9154 29.7801 95.8872 29.9501 95.8872 30.1444Z" fill="black"/>
<path d="M99.6979 31.5001C99.4629 31.5001 99.2568 31.4441 99.0794 31.3323C98.9032 31.2205 98.7653 31.064 98.6659 30.8629C98.5676 30.6618 98.5185 30.4268 98.5185 30.158C98.5185 29.8868 98.5676 29.6502 98.6659 29.4479C98.7653 29.2457 98.9032 29.0887 99.0794 28.9768C99.2568 28.865 99.4629 28.8091 99.6979 28.8091C99.9329 28.8091 100.139 28.865 100.315 28.9768C100.492 29.0887 100.63 29.2457 100.728 29.4479C100.828 29.6502 100.877 29.8868 100.877 30.158C100.877 30.4268 100.828 30.6618 100.728 30.8629C100.63 31.064 100.492 31.2205 100.315 31.3323C100.139 31.4441 99.9329 31.5001 99.6979 31.5001ZM99.6979 31.1408C99.8764 31.1408 100.023 31.0951 100.139 31.0036C100.254 30.9121 100.339 30.7917 100.394 30.6426C100.45 30.4935 100.477 30.3319 100.477 30.158C100.477 29.984 100.45 29.8219 100.394 29.6716C100.339 29.5214 100.254 29.3999 100.139 29.3073C100.023 29.2146 99.8764 29.1683 99.6979 29.1683C99.5194 29.1683 99.3726 29.2146 99.2573 29.3073C99.1421 29.3999 99.0568 29.5214 99.0015 29.6716C98.9461 29.8219 98.9184 29.984 98.9184 30.158C98.9184 30.3319 98.9461 30.4935 99.0015 30.6426C99.0568 30.7917 99.1421 30.9121 99.2573 31.0036C99.3726 31.0951 99.5194 31.1408 99.6979 31.1408Z" fill="black"/>
<path d="M101.726 31.4458V28.843H102.791C103.071 28.843 103.293 28.9062 103.458 29.0328C103.623 29.1593 103.706 29.3265 103.706 29.5344C103.706 29.6925 103.659 29.8151 103.565 29.9021C103.471 29.9879 103.351 30.0461 103.204 30.0766C103.3 30.0902 103.393 30.1241 103.484 30.1783C103.575 30.2325 103.651 30.3071 103.711 30.402C103.771 30.4957 103.801 30.611 103.801 30.7477C103.801 30.881 103.767 31.0002 103.699 31.1052C103.631 31.2103 103.534 31.2933 103.407 31.3543C103.281 31.4153 103.13 31.4458 102.953 31.4458H101.726ZM102.106 31.0798H102.953C103.091 31.0798 103.199 31.0471 103.277 30.9815C103.355 30.916 103.394 30.8268 103.394 30.7138C103.394 30.5793 103.355 30.4737 103.277 30.3969C103.199 30.3189 103.091 30.28 102.953 30.28H102.106V31.0798ZM102.106 29.9343H102.791C102.898 29.9343 102.99 29.9196 103.067 29.8902C103.144 29.8597 103.202 29.8168 103.243 29.7614C103.285 29.7049 103.306 29.6383 103.306 29.5615C103.306 29.4519 103.26 29.366 103.169 29.3039C103.077 29.2406 102.951 29.209 102.791 29.209H102.106V29.9343Z" fill="black"/>
<path d="M106.625 30.8561L107.879 28.843H108.34V31.4458H107.94V29.4327L106.693 31.4458H106.225V28.843H106.625V30.8561Z" fill="black"/>
<path d="M109.149 30.7816H109.576C109.585 30.8991 109.638 30.9883 109.735 31.0493C109.833 31.1103 109.961 31.1408 110.118 31.1408C110.278 31.1408 110.416 31.1081 110.53 31.0425C110.644 30.9759 110.701 30.8686 110.701 30.7206C110.701 30.6336 110.679 30.5579 110.636 30.4935C110.593 30.428 110.533 30.3771 110.455 30.341C110.377 30.3048 110.285 30.2867 110.179 30.2867H109.731V29.9275H110.179C110.338 29.9275 110.456 29.8913 110.531 29.819C110.608 29.7467 110.647 29.6564 110.647 29.5479C110.647 29.4316 110.605 29.3383 110.523 29.2683C110.44 29.1971 110.323 29.1615 110.172 29.1615C110.02 29.1615 109.892 29.196 109.791 29.2649C109.689 29.3327 109.635 29.4203 109.63 29.5276H109.21C109.214 29.3875 109.257 29.2638 109.338 29.1565C109.42 29.048 109.53 28.9633 109.67 28.9023C109.811 28.8401 109.971 28.8091 110.152 28.8091C110.335 28.8091 110.493 28.8413 110.628 28.9057C110.763 28.9689 110.868 29.0554 110.941 29.1649C111.016 29.2734 111.053 29.3965 111.053 29.5344C111.053 29.6812 111.012 29.7998 110.93 29.8902C110.847 29.9806 110.744 30.045 110.619 30.0834V30.1105C110.718 30.1173 110.803 30.1489 110.875 30.2054C110.949 30.2608 111.006 30.3336 111.046 30.424C111.087 30.5133 111.107 30.6121 111.107 30.7206C111.107 30.8787 111.065 31.0165 110.98 31.134C110.896 31.2504 110.779 31.3408 110.631 31.4052C110.483 31.4684 110.314 31.5001 110.125 31.5001C109.94 31.5001 109.776 31.4701 109.63 31.4103C109.484 31.3493 109.368 31.2651 109.282 31.1578C109.198 31.0493 109.153 30.9239 109.149 30.7816Z" fill="black"/>
<path d="M113.353 28.3481V27.9753H115.956V28.3481H114.865V31.4458H114.444V28.3481H113.353Z" fill="black"/>
<path d="M116.748 32.4219C116.68 32.4219 116.62 32.4163 116.567 32.405C116.514 32.3948 116.477 32.3846 116.457 32.3745L116.558 32.022C116.655 32.0469 116.741 32.0559 116.816 32.0491C116.89 32.0423 116.957 32.009 117.014 31.9491C117.073 31.8904 117.127 31.7949 117.175 31.6627L117.25 31.4594L116.287 28.843H116.721L117.44 30.9171H117.467L118.185 28.843H118.619L117.514 31.8254C117.464 31.9599 117.403 32.0711 117.329 32.1593C117.256 32.2485 117.171 32.3146 117.073 32.3575C116.977 32.4005 116.869 32.4219 116.748 32.4219Z" fill="black"/>
<path d="M119.385 32.4219V28.843H119.772V29.2564H119.819C119.849 29.2113 119.889 29.1536 119.941 29.0836C119.994 29.0124 120.07 28.9492 120.168 28.8938C120.268 28.8373 120.402 28.8091 120.572 28.8091C120.791 28.8091 120.984 28.8639 121.151 28.9734C121.318 29.083 121.449 29.2384 121.543 29.4395C121.636 29.6405 121.683 29.8778 121.683 30.1512C121.683 30.4268 121.636 30.6658 121.543 30.868C121.449 31.0691 121.319 31.225 121.153 31.3357C120.987 31.4453 120.795 31.5001 120.578 31.5001C120.411 31.5001 120.277 31.4724 120.177 31.417C120.076 31.3605 119.999 31.2967 119.945 31.2255C119.89 31.1532 119.849 31.0934 119.819 31.0459H119.785V32.4219H119.385ZM119.779 30.1444C119.779 30.341 119.807 30.5144 119.865 30.6646C119.923 30.8138 120.007 30.9307 120.117 31.0154C120.228 31.099 120.364 31.1408 120.524 31.1408C120.691 31.1408 120.831 31.0968 120.943 31.0086C121.056 30.9194 121.14 30.7996 121.197 30.6494C121.255 30.498 121.283 30.3297 121.283 30.1444C121.283 29.9614 121.255 29.7965 121.199 29.6496C121.143 29.5016 121.059 29.3847 120.946 29.2988C120.834 29.2118 120.694 29.1683 120.524 29.1683C120.361 29.1683 120.225 29.2096 120.114 29.292C120.003 29.3734 119.92 29.4875 119.863 29.6343C119.807 29.7801 119.779 29.9501 119.779 30.1444Z" fill="black"/>
<path d="M124.579 28.843V31.073H124.945V32.2864H124.545V31.4458H122.532V28.843H122.932V31.073H124.179V28.843H124.579Z" fill="black"/>
<path d="M126.199 30.8561L127.453 28.843H127.914V31.4458H127.514V29.4327L126.267 31.4458H125.8V28.843H126.199V30.8561Z" fill="black"/>
<path d="M129.285 30.8561L130.539 28.843H131V31.4458H130.6V29.4327L129.353 31.4458H128.885V28.843H129.285V30.8561Z" fill="black"/>
</svg>
