<svg width="131" height="32" viewBox="0 0 131 32" fill="none" xmlns="http://www.w3.org/2000/svg">
<path d="M46.841 6.54729C48.0244 6.54729 49.0647 6.78589 49.9618 7.26308C50.8589 7.72119 51.5652 8.32245 52.0806 9.06688V6.80498H56.1176V22.7814C56.1176 24.2512 55.8218 25.5587 55.23 26.704C54.6383 27.8683 53.7507 28.7845 52.5673 29.4526C51.3839 30.1398 49.9523 30.4833 48.2726 30.4833C46.0202 30.4833 44.1687 29.9584 42.718 28.9086C41.2864 27.8588 40.4752 26.4272 40.2843 24.6139H44.2641C44.4741 25.3392 44.9227 25.9118 45.6098 26.3318C46.3161 26.7708 47.1655 26.9903 48.158 26.9903C49.3224 26.9903 50.2672 26.6372 50.9926 25.9309C51.7179 25.2438 52.0806 24.1939 52.0806 22.7814V20.3191C51.5652 21.0635 50.8494 21.6839 49.9332 22.1802C49.0361 22.6765 48.0053 22.9246 46.841 22.9246C45.5048 22.9246 44.2832 22.581 43.1761 21.8938C42.069 21.2067 41.191 20.2428 40.542 19.0021C39.9121 17.7423 39.5972 16.3011 39.5972 14.6787C39.5972 13.0753 39.9121 11.6533 40.542 10.4126C41.191 9.17186 42.0595 8.21747 43.1475 7.5494C44.2546 6.88133 45.4857 6.54729 46.841 6.54729ZM52.0806 14.7359C52.0806 13.7625 51.8897 12.9321 51.5079 12.245C51.1262 11.5387 50.6108 11.0043 49.9618 10.6416C49.3128 10.2599 48.6161 10.069 47.8717 10.069C47.1273 10.069 46.4401 10.2503 45.8102 10.613C45.1803 10.9757 44.665 11.5101 44.2641 12.2164C43.8824 12.9035 43.6915 13.7243 43.6915 14.6787C43.6915 15.6331 43.8824 16.4729 44.2641 17.1983C44.665 17.9045 45.1803 18.4485 45.8102 18.8303C46.4592 19.212 47.1464 19.4029 47.8717 19.4029C48.6161 19.4029 49.3128 19.2216 49.9618 18.8589C50.6108 18.4771 51.1262 17.9427 51.5079 17.2555C51.8897 16.5493 52.0806 15.7094 52.0806 14.7359Z" fill="white"/>
<path d="M57.5702 14.6787C57.5702 13.0753 57.8852 11.6533 58.5151 10.4126C59.1641 9.17186 60.0326 8.21747 61.1206 7.5494C62.2276 6.88133 63.4588 6.54729 64.814 6.54729C65.9975 6.54729 67.0282 6.78589 67.9063 7.26308C68.8034 7.74028 69.5192 8.34154 70.0536 9.06688V6.80498H74.0907V22.6669H70.0536V20.3477C69.5383 21.0922 68.8225 21.7125 67.9063 22.2088C67.0091 22.686 65.9688 22.9246 64.7854 22.9246C63.4493 22.9246 62.2276 22.581 61.1206 21.8938C60.0326 21.2067 59.1641 20.2428 58.5151 19.0021C57.8852 17.7423 57.5702 16.3011 57.5702 14.6787ZM70.0536 14.7359C70.0536 13.7625 69.8627 12.9321 69.481 12.245C69.0992 11.5387 68.5839 11.0043 67.9349 10.6416C67.2859 10.2599 66.5892 10.069 65.8448 10.069C65.1004 10.069 64.4132 10.2503 63.7833 10.613C63.1534 10.9757 62.638 11.5101 62.2372 12.2164C61.8554 12.9035 61.6646 13.7243 61.6646 14.6787C61.6646 15.6331 61.8554 16.4729 62.2372 17.1983C62.638 17.9045 63.1534 18.4485 63.7833 18.8303C64.4323 19.212 65.1194 19.4029 65.8448 19.4029C66.5892 19.4029 67.2859 19.2216 67.9349 18.8589C68.5839 18.4771 69.0992 17.9427 69.481 17.2555C69.8627 16.5493 70.0536 15.7094 70.0536 14.7359Z" fill="white"/>
<path d="M80.5825 1.47949V22.6669H76.574V1.47949H80.5825Z" fill="white"/>
<path d="M82.0805 14.6787C82.0805 13.0753 82.3954 11.6533 83.0253 10.4126C83.6743 9.17186 84.5428 8.21747 85.6308 7.5494C86.7379 6.88133 87.9691 6.54729 89.3243 6.54729C90.5077 6.54729 91.5385 6.78589 92.4165 7.26308C93.3136 7.74028 94.0294 8.34154 94.5639 9.06688V6.80498H98.6009V22.6669H94.5639V20.3477C94.0485 21.0922 93.3327 21.7125 92.4165 22.2088C91.5194 22.686 90.4791 22.9246 89.2956 22.9246C87.9595 22.9246 86.7379 22.581 85.6308 21.8938C84.5428 21.2067 83.6743 20.2428 83.0253 19.0021C82.3954 17.7423 82.0805 16.3011 82.0805 14.6787ZM94.5639 14.7359C94.5639 13.7625 94.373 12.9321 93.9912 12.245C93.6095 11.5387 93.0941 11.0043 92.4451 10.6416C91.7961 10.2599 91.0994 10.069 90.355 10.069C89.6106 10.069 88.9234 10.2503 88.2935 10.613C87.6636 10.9757 87.1483 11.5101 86.7474 12.2164C86.3657 12.9035 86.1748 13.7243 86.1748 14.6787C86.1748 15.6331 86.3657 16.4729 86.7474 17.1983C87.1483 17.9045 87.6636 18.4485 88.2935 18.8303C88.9425 19.212 89.6297 19.4029 90.355 19.4029C91.0994 19.4029 91.7961 19.2216 92.4451 18.8589C93.0941 18.4771 93.6095 17.9427 93.9912 17.2555C94.373 16.5493 94.5639 15.7094 94.5639 14.7359Z" fill="white"/>
<path d="M105.751 10.0976V17.7709C105.751 18.3054 105.875 18.6967 106.123 18.9448C106.391 19.1738 106.83 19.2884 107.441 19.2884H109.302V22.6669H106.782C103.403 22.6669 101.714 21.0254 101.714 17.7423V10.0976H99.8245V6.80498H101.714V2.88244H105.751V6.80498H109.302V10.0976H105.751Z" fill="white"/>
<path d="M109.722 14.6787C109.722 13.0753 110.037 11.6533 110.667 10.4126C111.316 9.17186 112.185 8.21747 113.273 7.5494C114.38 6.88133 115.611 6.54729 116.966 6.54729C118.15 6.54729 119.18 6.78589 120.058 7.26308C120.955 7.74028 121.671 8.34154 122.206 9.06688V6.80498H126.243V22.6669H122.206V20.3477C121.69 21.0922 120.975 21.7125 120.058 22.2088C119.161 22.686 118.121 22.9246 116.937 22.9246C115.601 22.9246 114.38 22.581 113.273 21.8938C112.185 21.2067 111.316 20.2428 110.667 19.0021C110.037 17.7423 109.722 16.3011 109.722 14.6787ZM122.206 14.7359C122.206 13.7625 122.015 12.9321 121.633 12.245C121.251 11.5387 120.736 11.0043 120.087 10.6416C119.438 10.2599 118.741 10.069 117.997 10.069C117.252 10.069 116.565 10.2503 115.935 10.613C115.305 10.9757 114.79 11.5101 114.389 12.2164C114.008 12.9035 113.817 13.7243 113.817 14.6787C113.817 15.6331 114.008 16.4729 114.389 17.1983C114.79 17.9045 115.305 18.4485 115.935 18.8303C116.584 19.212 117.272 19.4029 117.997 19.4029C118.741 19.4029 119.438 19.2216 120.087 18.8589C120.736 18.4771 121.251 17.9427 121.633 17.2555C122.015 16.5493 122.206 15.7094 122.206 14.7359Z" fill="white"/>
<path fill-rule="evenodd" clip-rule="evenodd" d="M4.59626 3.56046C10.0091 -1.31458 18.2628 -1.16628 23.4977 3.9001L32.4492 12.5633L27.8891 17.2937L18.9376 8.63044C16.1809 5.96251 11.8346 5.88441 8.98416 8.45159C5.72355 11.3882 5.76298 16.5216 9.06831 19.4076L11.7362 21.737C12.0194 21.9843 12.3614 22.1544 12.7292 22.2309C14.8574 22.6735 16.2584 20.0733 14.7215 18.5334L12.533 16.3406C11.2513 15.0565 11.2513 12.9744 12.533 11.6902C13.8146 10.406 15.8926 10.406 17.1743 11.6902L19.3628 13.883C25.5092 20.0415 19.9063 30.4403 11.3953 28.6703C9.92429 28.3644 8.55663 27.6842 7.42397 26.6953L4.75606 24.3658C-1.52073 18.8854 -1.5956 9.13707 4.59626 3.56046Z" fill="white"/>
<path d="M58.1016 31.6196V30.4063H58.3252C58.4021 30.3362 58.4744 30.2374 58.5422 30.1097C58.6111 29.9809 58.6692 29.8092 58.7167 29.5946C58.7653 29.3788 58.7975 29.1048 58.8133 28.7727L58.8878 27.3086H60.9485V30.4063H61.3484V31.6128H60.9485V30.7791H58.5015V31.6196H58.1016ZM58.8268 30.4063H60.5485V27.6814H59.2674L59.2132 28.7727C59.1997 29.0258 59.1759 29.2551 59.142 29.4607C59.1081 29.6652 59.0646 29.8465 59.0116 30.0047C58.9585 30.1617 58.8969 30.2956 58.8268 30.4063Z" fill="white"/>
<path d="M63.2252 30.8333C62.9902 30.8333 62.7841 30.7774 62.6067 30.6656C62.4305 30.5537 62.2926 30.3972 62.1932 30.1962C62.0949 29.9951 62.0458 29.7601 62.0458 29.4912C62.0458 29.2201 62.0949 28.9834 62.1932 28.7812C62.2926 28.579 62.4305 28.4219 62.6067 28.3101C62.7841 28.1982 62.9902 28.1423 63.2252 28.1423C63.4602 28.1423 63.6658 28.1982 63.842 28.3101C64.0194 28.4219 64.1572 28.579 64.2555 28.7812C64.3549 28.9834 64.4046 29.2201 64.4046 29.4912C64.4046 29.7601 64.3549 29.9951 64.2555 30.1962C64.1572 30.3972 64.0194 30.5537 63.842 30.6656C63.6658 30.7774 63.4602 30.8333 63.2252 30.8333ZM63.2252 30.4741C63.4037 30.4741 63.5506 30.4283 63.6658 30.3368C63.781 30.2453 63.8663 30.125 63.9217 29.9759C63.977 29.8267 64.0047 29.6652 64.0047 29.4912C64.0047 29.3172 63.977 29.1551 63.9217 29.0049C63.8663 28.8546 63.781 28.7332 63.6658 28.6405C63.5506 28.5479 63.4037 28.5016 63.2252 28.5016C63.0467 28.5016 62.8999 28.5479 62.7846 28.6405C62.6694 28.7332 62.5841 28.8546 62.5287 29.0049C62.4734 29.1551 62.4457 29.3172 62.4457 29.4912C62.4457 29.6652 62.4734 29.8267 62.5287 29.9759C62.5841 30.125 62.6694 30.2453 62.7846 30.3368C62.8999 30.4283 63.0467 30.4741 63.2252 30.4741Z" fill="white"/>
<path d="M66.3111 30.8333C66.0671 30.8333 65.857 30.7757 65.6807 30.6605C65.5045 30.5452 65.3689 30.3865 65.274 30.1843C65.1791 29.9821 65.1317 29.751 65.1317 29.4912C65.1317 29.2269 65.1803 28.9936 65.2774 28.7914C65.3757 28.588 65.5124 28.4293 65.6875 28.3152C65.8638 28.1999 66.0694 28.1423 66.3043 28.1423C66.4874 28.1423 66.6523 28.1762 66.7992 28.244C66.946 28.3118 67.0663 28.4067 67.1601 28.5287C67.2539 28.6507 67.3121 28.793 67.3347 28.9557H66.9347C66.9042 28.8371 66.8364 28.732 66.7314 28.6405C66.6274 28.5479 66.4874 28.5016 66.3111 28.5016C66.1552 28.5016 66.0185 28.5422 65.901 28.6236C65.7847 28.7038 65.6937 28.8173 65.6282 28.9642C65.5638 29.1099 65.5316 29.2811 65.5316 29.4777C65.5316 29.6787 65.5633 29.8539 65.6265 30.003C65.6909 30.1521 65.7813 30.2679 65.8977 30.3504C66.0151 30.4328 66.153 30.4741 66.3111 30.4741C66.4151 30.4741 66.5094 30.456 66.5941 30.4198C66.6789 30.3837 66.7506 30.3317 66.8093 30.2639C66.8681 30.1962 66.9099 30.1148 66.9347 30.0199H67.3347C67.3121 30.1736 67.2561 30.312 67.1669 30.4351C67.0788 30.5571 66.9618 30.6543 66.8161 30.7266C66.6715 30.7977 66.5032 30.8333 66.3111 30.8333Z" fill="white"/>
<path d="M67.9528 28.549V28.1762H70.0677V28.549H69.2136V30.7791H68.8137V28.549H67.9528Z" fill="white"/>
<path d="M71.5204 30.8401C71.3555 30.8401 71.2058 30.809 71.0714 30.7469C70.9369 30.6836 70.8302 30.5927 70.7511 30.4741C70.672 30.3543 70.6325 30.2097 70.6325 30.0403C70.6325 29.8911 70.6619 29.7703 70.7206 29.6776C70.7793 29.5839 70.8579 29.5104 70.9561 29.4573C71.0544 29.4042 71.1629 29.3647 71.2815 29.3387C71.4013 29.3116 71.5216 29.2901 71.6424 29.2743C71.8006 29.254 71.9288 29.2387 72.0271 29.2286C72.1265 29.2173 72.1988 29.1986 72.244 29.1726C72.2903 29.1466 72.3135 29.1015 72.3135 29.0371V29.0235C72.3135 28.8563 72.2677 28.7264 72.1762 28.6338C72.0859 28.5411 71.9486 28.4948 71.7645 28.4948C71.5735 28.4948 71.4238 28.5366 71.3154 28.6202C71.2069 28.7038 71.1307 28.793 71.0866 28.8879L70.707 28.7524C70.7748 28.5942 70.8652 28.4711 70.9782 28.383C71.0923 28.2937 71.2165 28.2316 71.351 28.1966C71.4865 28.1604 71.6199 28.1423 71.7509 28.1423C71.8345 28.1423 71.9305 28.1525 72.039 28.1728C72.1486 28.192 72.2542 28.2321 72.3559 28.2931C72.4587 28.3542 72.544 28.4462 72.6117 28.5694C72.6795 28.6925 72.7134 28.8574 72.7134 29.0642V30.7791H72.3135V30.4266H72.2932C72.2661 30.4831 72.2209 30.5435 72.1576 30.6079C72.0943 30.6723 72.0102 30.7271 71.9051 30.7723C71.8 30.8175 71.6718 30.8401 71.5204 30.8401ZM71.5814 30.4808C71.7396 30.4808 71.8729 30.4498 71.9814 30.3876C72.0909 30.3255 72.1734 30.2453 72.2288 30.147C72.2853 30.0487 72.3135 29.9454 72.3135 29.8369V29.4709C72.2966 29.4912 72.2593 29.5099 72.2017 29.5268C72.1452 29.5426 72.0797 29.5567 72.0051 29.5692C71.9317 29.5805 71.8599 29.5906 71.7899 29.5997C71.721 29.6076 71.665 29.6144 71.6221 29.62C71.5182 29.6336 71.421 29.6556 71.3306 29.6861C71.2414 29.7155 71.1691 29.7601 71.1137 29.82C71.0595 29.8787 71.0324 29.9589 71.0324 30.0606C71.0324 30.1995 71.0838 30.3046 71.1866 30.3758C71.2905 30.4458 71.4222 30.4808 71.5814 30.4808Z" fill="white"/>
<path d="M73.682 30.7791V28.1762H74.7462C75.0263 28.1762 75.2489 28.2395 75.4138 28.366C75.5788 28.4925 75.6612 28.6597 75.6612 28.8676C75.6612 29.0258 75.6143 29.1483 75.5206 29.2353C75.4268 29.3212 75.3065 29.3794 75.1596 29.4099C75.2557 29.4234 75.3489 29.4573 75.4392 29.5115C75.5308 29.5658 75.6064 29.6403 75.6663 29.7352C75.7262 29.829 75.7561 29.9442 75.7561 30.0809C75.7561 30.2142 75.7222 30.3334 75.6545 30.4385C75.5867 30.5435 75.4895 30.6266 75.363 30.6876C75.2365 30.7486 75.0851 30.7791 74.9088 30.7791H73.682ZM74.0615 30.4131H74.9088C75.0467 30.4131 75.1546 30.3803 75.2325 30.3148C75.3105 30.2493 75.3494 30.16 75.3494 30.047C75.3494 29.9126 75.3105 29.807 75.2325 29.7301C75.1546 29.6522 75.0467 29.6132 74.9088 29.6132H74.0615V30.4131ZM74.0615 29.2675H74.7462C74.8535 29.2675 74.9456 29.2528 75.0224 29.2235C75.0992 29.193 75.1579 29.15 75.1986 29.0947C75.2404 29.0382 75.2613 28.9715 75.2613 28.8947C75.2613 28.7851 75.2156 28.6993 75.1241 28.6371C75.0325 28.5739 74.9066 28.5422 74.7462 28.5422H74.0615V29.2675Z" fill="white"/>
<path d="M76.6001 30.7791V28.1762H77V29.3082H77.2644L78.1998 28.1762H78.715L77.6643 29.4302L78.7285 30.7791H78.2134L77.3593 29.681H77V30.7791H76.6001Z" fill="white"/>
<path d="M80.1677 30.8401C80.0028 30.8401 79.8531 30.809 79.7187 30.7469C79.5842 30.6836 79.4775 30.5927 79.3984 30.4741C79.3193 30.3543 79.2798 30.2097 79.2798 30.0403C79.2798 29.8911 79.3091 29.7703 79.3679 29.6776C79.4266 29.5839 79.5051 29.5104 79.6034 29.4573C79.7017 29.4042 79.8102 29.3647 79.9288 29.3387C80.0485 29.3116 80.1688 29.2901 80.2897 29.2743C80.4479 29.254 80.5761 29.2387 80.6744 29.2286C80.7738 29.2173 80.8461 29.1986 80.8913 29.1726C80.9376 29.1466 80.9608 29.1015 80.9608 29.0371V29.0235C80.9608 28.8563 80.915 28.7264 80.8235 28.6338C80.7331 28.5411 80.5959 28.4948 80.4117 28.4948C80.2208 28.4948 80.0711 28.5366 79.9627 28.6202C79.8542 28.7038 79.778 28.793 79.7339 28.8879L79.3543 28.7524C79.4221 28.5942 79.5125 28.4711 79.6255 28.383C79.7396 28.2937 79.8638 28.2316 79.9983 28.1966C80.1338 28.1604 80.2671 28.1423 80.3982 28.1423C80.4818 28.1423 80.5778 28.1525 80.6863 28.1728C80.7958 28.192 80.9015 28.2321 81.0031 28.2931C81.1059 28.3542 81.1912 28.4462 81.259 28.5694C81.3268 28.6925 81.3607 28.8574 81.3607 29.0642V30.7791H80.9608V30.4266H80.9404C80.9133 30.4831 80.8681 30.5435 80.8049 30.6079C80.7416 30.6723 80.6575 30.7271 80.5524 30.7723C80.4473 30.8175 80.3191 30.8401 80.1677 30.8401ZM80.2287 30.4808C80.3869 30.4808 80.5202 30.4498 80.6286 30.3876C80.7382 30.3255 80.8207 30.2453 80.8761 30.147C80.9325 30.0487 80.9608 29.9454 80.9608 29.8369V29.4709C80.9438 29.4912 80.9066 29.5099 80.8489 29.5268C80.7925 29.5426 80.7269 29.5567 80.6524 29.5692C80.5789 29.5805 80.5072 29.5906 80.4372 29.5997C80.3682 29.6076 80.3123 29.6144 80.2694 29.62C80.1655 29.6336 80.0683 29.6556 79.9779 29.6861C79.8887 29.7155 79.8164 29.7601 79.761 29.82C79.7068 29.8787 79.6797 29.9589 79.6797 30.0606C79.6797 30.1995 79.7311 30.3046 79.8339 30.3758C79.9378 30.4458 80.0694 30.4808 80.2287 30.4808Z" fill="white"/>
<path d="M83.7608 28.549V28.1762H85.8757V28.549H85.0216V30.7791H84.6217V28.549H83.7608Z" fill="white"/>
<path d="M87.6199 30.8333C87.3849 30.8333 87.1787 30.7774 87.0014 30.6656C86.8251 30.5537 86.6873 30.3972 86.5879 30.1962C86.4896 29.9951 86.4405 29.7601 86.4405 29.4912C86.4405 29.2201 86.4896 28.9834 86.5879 28.7812C86.6873 28.579 86.8251 28.4219 87.0014 28.3101C87.1787 28.1982 87.3849 28.1423 87.6199 28.1423C87.8549 28.1423 88.0605 28.1982 88.2367 28.3101C88.4141 28.4219 88.5519 28.579 88.6502 28.7812C88.7496 28.9834 88.7993 29.2201 88.7993 29.4912C88.7993 29.7601 88.7496 29.9951 88.6502 30.1962C88.5519 30.3972 88.4141 30.5537 88.2367 30.6656C88.0605 30.7774 87.8549 30.8333 87.6199 30.8333ZM87.6199 30.4741C87.7984 30.4741 87.9452 30.4283 88.0605 30.3368C88.1757 30.2453 88.261 30.125 88.3164 29.9759C88.3717 29.8267 88.3994 29.6652 88.3994 29.4912C88.3994 29.3172 88.3717 29.1551 88.3164 29.0049C88.261 28.8546 88.1757 28.7332 88.0605 28.6405C87.9452 28.5479 87.7984 28.5016 87.6199 28.5016C87.4414 28.5016 87.2945 28.5479 87.1793 28.6405C87.0641 28.7332 86.9788 28.8546 86.9234 29.0049C86.8681 29.1551 86.8404 29.3172 86.8404 29.4912C86.8404 29.6652 86.8681 29.8267 86.9234 29.9759C86.9788 30.125 87.0641 30.2453 87.1793 30.3368C87.2945 30.4283 87.4414 30.4741 87.6199 30.4741Z" fill="white"/>
<path d="M89.6484 30.7791V28.1762H90.7126C90.9928 28.1762 91.2153 28.2395 91.3802 28.366C91.5452 28.4925 91.6277 28.6597 91.6277 28.8676C91.6277 29.0258 91.5808 29.1483 91.487 29.2353C91.3932 29.3212 91.2729 29.3794 91.1261 29.4099C91.2221 29.4234 91.3153 29.4573 91.4057 29.5115C91.4972 29.5658 91.5729 29.6403 91.6327 29.7352C91.6926 29.829 91.7226 29.9442 91.7226 30.0809C91.7226 30.2142 91.6887 30.3334 91.6209 30.4385C91.5531 30.5435 91.4559 30.6266 91.3294 30.6876C91.2029 30.7486 91.0515 30.7791 90.8753 30.7791H89.6484ZM90.028 30.4131H90.8753C91.0131 30.4131 91.121 30.3803 91.1989 30.3148C91.2769 30.2493 91.3159 30.16 91.3159 30.047C91.3159 29.9126 91.2769 29.807 91.1989 29.7301C91.121 29.6522 91.0131 29.6132 90.8753 29.6132H90.028V30.4131ZM90.028 29.2675H90.7126C90.8199 29.2675 90.912 29.2528 90.9888 29.2235C91.0656 29.193 91.1244 29.15 91.165 29.0947C91.2068 29.0382 91.2277 28.9715 91.2277 28.8947C91.2277 28.7851 91.182 28.6993 91.0905 28.6371C90.999 28.5739 90.873 28.5422 90.7126 28.5422H90.028V29.2675Z" fill="white"/>
<path d="M93.3325 30.8401C93.1676 30.8401 93.0179 30.809 92.8834 30.7469C92.749 30.6836 92.6422 30.5927 92.5631 30.4741C92.4841 30.3543 92.4445 30.2097 92.4445 30.0403C92.4445 29.8911 92.4739 29.7703 92.5326 29.6776C92.5914 29.5839 92.6699 29.5104 92.7682 29.4573C92.8665 29.4042 92.9749 29.3647 93.0936 29.3387C93.2133 29.3116 93.3336 29.2901 93.4545 29.2743C93.6127 29.254 93.7409 29.2387 93.8392 29.2286C93.9386 29.2173 94.0109 29.1986 94.0561 29.1726C94.1024 29.1466 94.1256 29.1015 94.1256 29.0371V29.0235C94.1256 28.8563 94.0798 28.7264 93.9883 28.6338C93.8979 28.5411 93.7607 28.4948 93.5765 28.4948C93.3856 28.4948 93.2359 28.5366 93.1274 28.6202C93.019 28.7038 92.9427 28.793 92.8987 28.8879L92.5191 28.7524C92.5869 28.5942 92.6772 28.4711 92.7902 28.383C92.9043 28.2937 93.0286 28.2316 93.163 28.1966C93.2986 28.1604 93.4319 28.1423 93.563 28.1423C93.6465 28.1423 93.7426 28.1525 93.851 28.1728C93.9606 28.192 94.0662 28.2321 94.1679 28.2931C94.2707 28.3542 94.356 28.4462 94.4238 28.5694C94.4916 28.6925 94.5255 28.8574 94.5255 29.0642V30.7791H94.1256V30.4266H94.1052C94.0781 30.4831 94.0329 30.5435 93.9697 30.6079C93.9064 30.6723 93.8222 30.7271 93.7172 30.7723C93.6121 30.8175 93.4839 30.8401 93.3325 30.8401ZM93.3935 30.4808C93.5517 30.4808 93.685 30.4498 93.7934 30.3876C93.903 30.3255 93.9855 30.2453 94.0408 30.147C94.0973 30.0487 94.1256 29.9454 94.1256 29.8369V29.4709C94.1086 29.4912 94.0713 29.5099 94.0137 29.5268C93.9572 29.5426 93.8917 29.5567 93.8171 29.5692C93.7437 29.5805 93.672 29.5906 93.6019 29.5997C93.533 29.6076 93.4771 29.6144 93.4342 29.62C93.3302 29.6336 93.2331 29.6556 93.1427 29.6861C93.0534 29.7155 92.9811 29.7601 92.9258 29.82C92.8716 29.8787 92.8445 29.9589 92.8445 30.0606C92.8445 30.1995 92.8959 30.3046 92.9987 30.3758C93.1026 30.4458 93.2342 30.4808 93.3935 30.4808Z" fill="white"/>
<path d="M95.494 31.7552V28.1762H95.8804V28.5897H95.9278C95.9572 28.5445 95.9979 28.4869 96.0498 28.4168C96.1029 28.3457 96.1786 28.2824 96.2769 28.2271C96.3763 28.1706 96.5108 28.1423 96.6802 28.1423C96.8994 28.1423 97.0926 28.1971 97.2598 28.3067C97.427 28.4163 97.5574 28.5716 97.6512 28.7727C97.745 28.9738 97.7919 29.211 97.7919 29.4844C97.7919 29.7601 97.745 29.999 97.6512 30.2012C97.5574 30.4023 97.4275 30.5582 97.2615 30.6689C97.0954 30.7785 96.9039 30.8333 96.687 30.8333C96.5198 30.8333 96.3859 30.8056 96.2854 30.7503C96.1848 30.6938 96.1074 30.63 96.0532 30.5588C95.999 30.4865 95.9572 30.4266 95.9278 30.3792H95.8939V31.7552H95.494ZM95.8872 29.4777C95.8872 29.6742 95.916 29.8476 95.9736 29.9979C96.0312 30.147 96.1154 30.2639 96.2261 30.3487C96.3368 30.4323 96.4724 30.4741 96.6328 30.4741C96.8 30.4741 96.9395 30.43 97.0513 30.3419C97.1643 30.2526 97.249 30.1329 97.3055 29.9826C97.3631 29.8313 97.3919 29.6629 97.3919 29.4777C97.3919 29.2946 97.3637 29.1297 97.3072 28.9828C97.2519 28.8348 97.1677 28.7179 97.0547 28.6321C96.9429 28.5451 96.8022 28.5016 96.6328 28.5016C96.4701 28.5016 96.3334 28.5428 96.2227 28.6253C96.112 28.7066 96.0284 28.8207 95.9719 28.9676C95.9154 29.1133 95.8872 29.2833 95.8872 29.4777Z" fill="white"/>
<path d="M99.6979 30.8333C99.4629 30.8333 99.2568 30.7774 99.0794 30.6656C98.9032 30.5537 98.7653 30.3972 98.6659 30.1962C98.5676 29.9951 98.5185 29.7601 98.5185 29.4912C98.5185 29.2201 98.5676 28.9834 98.6659 28.7812C98.7653 28.579 98.9032 28.4219 99.0794 28.3101C99.2568 28.1982 99.4629 28.1423 99.6979 28.1423C99.9329 28.1423 100.139 28.1982 100.315 28.3101C100.492 28.4219 100.63 28.579 100.728 28.7812C100.828 28.9834 100.877 29.2201 100.877 29.4912C100.877 29.7601 100.828 29.9951 100.728 30.1962C100.63 30.3972 100.492 30.5537 100.315 30.6656C100.139 30.7774 99.9329 30.8333 99.6979 30.8333ZM99.6979 30.4741C99.8764 30.4741 100.023 30.4283 100.139 30.3368C100.254 30.2453 100.339 30.125 100.394 29.9759C100.45 29.8267 100.477 29.6652 100.477 29.4912C100.477 29.3172 100.45 29.1551 100.394 29.0049C100.339 28.8546 100.254 28.7332 100.139 28.6405C100.023 28.5479 99.8764 28.5016 99.6979 28.5016C99.5194 28.5016 99.3726 28.5479 99.2573 28.6405C99.1421 28.7332 99.0568 28.8546 99.0015 29.0049C98.9461 29.1551 98.9184 29.3172 98.9184 29.4912C98.9184 29.6652 98.9461 29.8267 99.0015 29.9759C99.0568 30.125 99.1421 30.2453 99.2573 30.3368C99.3726 30.4283 99.5194 30.4741 99.6979 30.4741Z" fill="white"/>
<path d="M101.726 30.7791V28.1762H102.791C103.071 28.1762 103.293 28.2395 103.458 28.366C103.623 28.4925 103.706 28.6597 103.706 28.8676C103.706 29.0258 103.659 29.1483 103.565 29.2353C103.471 29.3212 103.351 29.3794 103.204 29.4099C103.3 29.4234 103.393 29.4573 103.484 29.5115C103.575 29.5658 103.651 29.6403 103.711 29.7352C103.771 29.829 103.801 29.9442 103.801 30.0809C103.801 30.2142 103.767 30.3334 103.699 30.4385C103.631 30.5435 103.534 30.6266 103.407 30.6876C103.281 30.7486 103.13 30.7791 102.953 30.7791H101.726ZM102.106 30.4131H102.953C103.091 30.4131 103.199 30.3803 103.277 30.3148C103.355 30.2493 103.394 30.16 103.394 30.047C103.394 29.9126 103.355 29.807 103.277 29.7301C103.199 29.6522 103.091 29.6132 102.953 29.6132H102.106V30.4131ZM102.106 29.2675H102.791C102.898 29.2675 102.99 29.2528 103.067 29.2235C103.144 29.193 103.202 29.15 103.243 29.0947C103.285 29.0382 103.306 28.9715 103.306 28.8947C103.306 28.7851 103.26 28.6993 103.169 28.6371C103.077 28.5739 102.951 28.5422 102.791 28.5422H102.106V29.2675Z" fill="white"/>
<path d="M106.625 30.1894L107.879 28.1762H108.34V30.7791H107.94V28.7659L106.693 30.7791H106.225V28.1762H106.625V30.1894Z" fill="white"/>
<path d="M109.149 30.1148H109.576C109.585 30.2323 109.638 30.3216 109.735 30.3826C109.833 30.4436 109.961 30.4741 110.118 30.4741C110.278 30.4741 110.416 30.4413 110.53 30.3758C110.644 30.3091 110.701 30.2018 110.701 30.0538C110.701 29.9668 110.679 29.8911 110.636 29.8267C110.593 29.7612 110.533 29.7104 110.455 29.6742C110.377 29.6381 110.285 29.62 110.179 29.62H109.731V29.2608H110.179C110.338 29.2608 110.456 29.2246 110.531 29.1523C110.608 29.08 110.647 28.9896 110.647 28.8812C110.647 28.7648 110.605 28.6716 110.523 28.6016C110.44 28.5304 110.323 28.4948 110.172 28.4948C110.02 28.4948 109.892 28.5293 109.791 28.5982C109.689 28.666 109.635 28.7535 109.63 28.8608H109.21C109.214 28.7207 109.257 28.597 109.338 28.4897C109.42 28.3813 109.53 28.2965 109.67 28.2355C109.811 28.1734 109.971 28.1423 110.152 28.1423C110.335 28.1423 110.493 28.1745 110.628 28.2389C110.763 28.3022 110.868 28.3886 110.941 28.4982C111.016 28.6066 111.053 28.7298 111.053 28.8676C111.053 29.0145 111.012 29.1331 110.93 29.2235C110.847 29.3138 110.744 29.3782 110.619 29.4167V29.4438C110.718 29.4505 110.803 29.4822 110.875 29.5387C110.949 29.594 111.006 29.6669 111.046 29.7573C111.087 29.8465 111.107 29.9454 111.107 30.0538C111.107 30.212 111.065 30.3498 110.98 30.4673C110.896 30.5837 110.779 30.674 110.631 30.7384C110.483 30.8017 110.314 30.8333 110.125 30.8333C109.94 30.8333 109.776 30.8034 109.63 30.7435C109.484 30.6825 109.368 30.5983 109.282 30.491C109.198 30.3826 109.153 30.2572 109.149 30.1148Z" fill="white"/>
<path d="M113.353 27.6814V27.3086H115.956V27.6814H114.865V30.7791H114.444V27.6814H113.353Z" fill="white"/>
<path d="M116.748 31.7552C116.68 31.7552 116.62 31.7495 116.567 31.7382C116.514 31.7281 116.477 31.7179 116.457 31.7077L116.558 31.3553C116.655 31.3801 116.741 31.3891 116.816 31.3824C116.89 31.3756 116.957 31.3423 117.014 31.2824C117.073 31.2236 117.127 31.1282 117.175 30.996L117.25 30.7927L116.287 28.1762H116.721L117.44 30.2504H117.467L118.185 28.1762H118.619L117.514 31.1587C117.464 31.2931 117.403 31.4044 117.329 31.4925C117.256 31.5818 117.171 31.6479 117.073 31.6908C116.977 31.7337 116.869 31.7552 116.748 31.7552Z" fill="white"/>
<path d="M119.385 31.7552V28.1762H119.772V28.5897H119.819C119.849 28.5445 119.889 28.4869 119.941 28.4168C119.994 28.3457 120.07 28.2824 120.168 28.2271C120.268 28.1706 120.402 28.1423 120.572 28.1423C120.791 28.1423 120.984 28.1971 121.151 28.3067C121.318 28.4163 121.449 28.5716 121.543 28.7727C121.636 28.9738 121.683 29.211 121.683 29.4844C121.683 29.7601 121.636 29.999 121.543 30.2012C121.449 30.4023 121.319 30.5582 121.153 30.6689C120.987 30.7785 120.795 30.8333 120.578 30.8333C120.411 30.8333 120.277 30.8056 120.177 30.7503C120.076 30.6938 119.999 30.63 119.945 30.5588C119.89 30.4865 119.849 30.4266 119.819 30.3792H119.785V31.7552H119.385ZM119.779 29.4777C119.779 29.6742 119.807 29.8476 119.865 29.9979C119.923 30.147 120.007 30.2639 120.117 30.3487C120.228 30.4323 120.364 30.4741 120.524 30.4741C120.691 30.4741 120.831 30.43 120.943 30.3419C121.056 30.2526 121.14 30.1329 121.197 29.9826C121.255 29.8313 121.283 29.6629 121.283 29.4777C121.283 29.2946 121.255 29.1297 121.199 28.9828C121.143 28.8348 121.059 28.7179 120.946 28.6321C120.834 28.5451 120.694 28.5016 120.524 28.5016C120.361 28.5016 120.225 28.5428 120.114 28.6253C120.003 28.7066 119.92 28.8207 119.863 28.9676C119.807 29.1133 119.779 29.2833 119.779 29.4777Z" fill="white"/>
<path d="M124.579 28.1762V30.4063H124.945V31.6196H124.545V30.7791H122.532V28.1762H122.932V30.4063H124.179V28.1762H124.579Z" fill="white"/>
<path d="M126.199 30.1894L127.453 28.1762H127.914V30.7791H127.514V28.7659L126.267 30.7791H125.8V28.1762H126.199V30.1894Z" fill="white"/>
<path d="M129.285 30.1894L130.539 28.1762H131V30.7791H130.6V28.7659L129.353 30.7791H128.885V28.1762H129.285V30.1894Z" fill="white"/>
</svg>
