<svg width="16" height="16" viewBox="0 0 16 16" fill="none" xmlns="http://www.w3.org/2000/svg">
<g opacity="0.5" clip-path="url(#clip0_770_2217)">
<path d="M7.99816 15.5295C12.1565 15.5295 15.5276 12.1585 15.5276 8.00012C15.5276 3.84174 12.1565 0.470703 7.99816 0.470703C3.83978 0.470703 0.46875 3.84174 0.46875 8.00012C0.46875 12.1585 3.83978 15.5295 7.99816 15.5295Z" stroke="#222222" stroke-linecap="round" stroke-linejoin="round"/>
<path d="M7.99916 12.8626C8.43232 12.8626 8.78347 12.5114 8.78347 12.0783C8.78347 11.6451 8.43232 11.2939 7.99916 11.2939C7.56599 11.2939 7.21484 11.6451 7.21484 12.0783C7.21484 12.5114 7.56599 12.8626 7.99916 12.8626Z" fill="#222222"/>
<path d="M8.00077 9.25545V8.628C8.43511 8.628 8.8597 8.4992 9.22084 8.25789C9.58198 8.01658 9.86346 7.6736 10.0297 7.27232C10.1959 6.87104 10.2394 6.42948 10.1546 6.00349C10.0699 5.57749 9.86075 5.18618 9.55363 4.87906C9.2465 4.57193 8.8552 4.36277 8.4292 4.27804C8.0032 4.1933 7.56164 4.23679 7.16036 4.40301C6.75908 4.56922 6.4161 4.8507 6.17479 5.21184C5.93349 5.57299 5.80469 5.99758 5.80469 6.43192" stroke="#222222" stroke-linecap="round" stroke-linejoin="round"/>
</g>
<defs>
<clipPath id="clip0_770_2217">
<rect width="16" height="16" fill="white"/>
</clipPath>
</defs>
</svg>
