<svg width="140" height="20" viewBox="0 0 140 20" fill="none" xmlns="http://www.w3.org/2000/svg">
<path d="M4.47642 20C4.2573 20 4.0397 19.9287 3.854 19.7885C3.50807 19.5269 3.34648 19.0773 3.44063 18.6434L4.72728 12.7292L0.36377 8.73605C0.0430226 8.44386 -0.0795085 7.98115 0.0521782 7.55776C0.183865 7.13517 0.54215 6.83598 0.966355 6.79506L6.73981 6.24811L9.02243 0.674012C9.19074 0.264478 9.57405 0 9.99993 0C10.4258 0 10.8091 0.264478 10.9774 0.673057L13.2601 6.24811L19.0326 6.79506C19.4577 6.83502 19.816 7.13517 19.9477 7.55776C20.0794 7.98035 19.9576 8.44386 19.6369 8.73605L15.2733 12.7284L16.56 18.6424C16.6543 19.0773 16.4926 19.5269 16.1468 19.7877C15.8018 20.0486 15.3417 20.0686 14.9784 19.8408L9.99993 16.7363L5.02148 19.8425C4.85317 19.9468 4.66563 20 4.47642 20V20ZM9.99993 15.3989C10.1891 15.3989 10.3765 15.452 10.545 15.5563L15.2434 18.4886L14.0291 12.9065C13.9424 12.5093 14.0717 12.0945 14.3659 11.8257L18.486 8.05519L13.035 7.53865C12.6425 7.50123 12.305 7.24376 12.1516 6.86639L9.99993 1.60613L7.84564 6.86719C7.69397 7.24201 7.35644 7.49948 6.96489 7.5369L1.51309 8.05344L5.63307 11.824C5.92818 12.0935 6.05727 12.5075 5.96984 12.9058L4.75643 18.4877L9.45488 15.5563C9.62319 15.452 9.81072 15.3989 9.99993 15.3989V15.3989ZM6.69571 6.35591C6.69571 6.35591 6.69571 6.35686 6.6948 6.35766L6.69571 6.35591ZM13.3025 6.35336L13.3034 6.35511C13.3034 6.35416 13.3034 6.35416 13.3025 6.35336Z" fill="#FF3D54"/>
<path d="M34.4764 20C34.2573 20 34.0397 19.9287 33.854 19.7885C33.5081 19.5269 33.3465 19.0773 33.4406 18.6434L34.7273 12.7292L30.3638 8.73605C30.043 8.44386 29.9205 7.98115 30.0522 7.55776C30.1839 7.13517 30.5422 6.83598 30.9664 6.79506L36.7398 6.24811L39.0224 0.674012C39.1907 0.264478 39.5741 0 39.9999 0C40.4258 0 40.8091 0.264478 40.9774 0.673057L43.2601 6.24811L49.0326 6.79506C49.4577 6.83502 49.816 7.13517 49.9477 7.55776C50.0794 7.98035 49.9576 8.44386 49.6369 8.73605L45.2733 12.7284L46.56 18.6424C46.6543 19.0773 46.4926 19.5269 46.1468 19.7877C45.8018 20.0486 45.3417 20.0686 44.9784 19.8408L39.9999 16.7363L35.0215 19.8425C34.8532 19.9468 34.6656 20 34.4764 20V20ZM39.9999 15.3989C40.1891 15.3989 40.3765 15.452 40.545 15.5563L45.2434 18.4886L44.0291 12.9065C43.9424 12.5093 44.0717 12.0945 44.3659 11.8257L48.486 8.05519L43.035 7.53865C42.6425 7.50123 42.305 7.24376 42.1516 6.86639L39.9999 1.60613L37.8456 6.86719C37.694 7.24201 37.3564 7.49948 36.9649 7.5369L31.5131 8.05344L35.6331 11.824C35.9282 12.0935 36.0573 12.5075 35.9698 12.9058L34.7564 18.4877L39.4549 15.5563C39.6232 15.452 39.8107 15.3989 39.9999 15.3989V15.3989ZM36.6957 6.35591C36.6957 6.35591 36.6957 6.35686 36.6948 6.35766L36.6957 6.35591ZM43.3025 6.35336L43.3034 6.35511C43.3034 6.35416 43.3034 6.35416 43.3025 6.35336Z" fill="#FF3D54"/>
<path d="M64.4764 20C64.2573 20 64.0397 19.9287 63.854 19.7885C63.5081 19.5269 63.3465 19.0773 63.4406 18.6434L64.7273 12.7292L60.3638 8.73605C60.043 8.44386 59.9205 7.98115 60.0522 7.55776C60.1839 7.13517 60.5422 6.83598 60.9664 6.79506L66.7398 6.24811L69.0224 0.674012C69.1907 0.264478 69.5741 0 69.9999 0C70.4258 0 70.8091 0.264478 70.9774 0.673057L73.2601 6.24811L79.0326 6.79506C79.4577 6.83502 79.816 7.13517 79.9477 7.55776C80.0794 7.98035 79.9576 8.44386 79.6369 8.73605L75.2733 12.7284L76.56 18.6424C76.6543 19.0773 76.4926 19.5269 76.1468 19.7877C75.8018 20.0486 75.3417 20.0686 74.9784 19.8408L69.9999 16.7363L65.0215 19.8425C64.8532 19.9468 64.6656 20 64.4764 20V20ZM69.9999 15.3989C70.1891 15.3989 70.3765 15.452 70.545 15.5563L75.2434 18.4886L74.0291 12.9065C73.9424 12.5093 74.0717 12.0945 74.3659 11.8257L78.486 8.05519L73.035 7.53865C72.6425 7.50123 72.305 7.24376 72.1516 6.86639L69.9999 1.60613L67.8456 6.86719C67.694 7.24201 67.3564 7.49948 66.9649 7.5369L61.5131 8.05344L65.6331 11.824C65.9282 12.0935 66.0573 12.5075 65.9698 12.9058L64.7564 18.4877L69.4549 15.5563C69.6232 15.452 69.8107 15.3989 69.9999 15.3989V15.3989ZM66.6957 6.35591C66.6957 6.35591 66.6957 6.35686 66.6948 6.35766L66.6957 6.35591ZM73.3025 6.35336L73.3034 6.35511C73.3034 6.35416 73.3034 6.35416 73.3025 6.35336Z" fill="#FF3D54"/>
<g clip-path="url(#clip0_4_25)">
<path d="M94.4764 19.5961C94.2573 19.5961 94.0397 19.5278 93.854 19.3935C93.5081 19.1428 93.3465 18.7119 93.4406 18.2961L94.7273 12.6283L90.3638 8.80164C90.043 8.52163 89.9205 8.0782 90.0522 7.67246C90.1839 7.26748 90.5422 6.98076 90.9664 6.94154L96.7398 6.41739L99.0224 1.07561C99.1908 0.683143 99.5741 0.429688 99.9999 0.429688C100.426 0.429688 100.809 0.683143 100.977 1.07469L103.26 6.41739L109.033 6.94154C109.458 6.97984 109.816 7.26748 109.948 7.67246C110.079 8.07744 109.958 8.52163 109.637 8.80164L105.273 12.6276L106.56 18.2951C106.654 18.7119 106.493 19.1428 106.147 19.3927C105.802 19.6427 105.342 19.6619 104.978 19.4435L99.9999 16.4685L95.0215 19.4452C94.8532 19.5452 94.6656 19.5961 94.4764 19.5961V19.5961ZM99.9999 15.1868C100.189 15.1868 100.377 15.2377 100.545 15.3376L105.243 18.1477L104.029 12.7983C103.942 12.4176 104.072 12.0201 104.366 11.7625L108.486 8.14915L103.035 7.65415C102.643 7.61829 102.305 7.37155 102.152 7.0099L99.9999 1.96888L97.8457 7.01067C97.694 7.36987 97.3564 7.61661 96.9649 7.65247L91.5131 8.14748L95.6331 11.7609C95.9282 12.0192 96.0573 12.4159 95.9698 12.7976L94.7564 18.1468L99.4549 15.3376C99.6232 15.2377 99.8107 15.1868 99.9999 15.1868V15.1868ZM96.6957 6.5207C96.6957 6.5207 96.6957 6.52161 96.6948 6.52237L96.6957 6.5207ZM103.302 6.51825L103.303 6.51993C103.303 6.51902 103.303 6.51902 103.302 6.51825Z" fill="#FF3D54"/>
<path d="M94.4764 20C94.2573 20 94.0397 19.9287 93.854 19.7885C93.5081 19.5269 93.3465 19.0773 93.4406 18.6434L94.7273 12.7292L90.3638 8.73605C90.043 8.44386 89.9205 7.98115 90.0522 7.55776C90.1839 7.13517 90.5422 6.83598 90.9664 6.79506L96.7398 6.24811L99.0224 0.674012C99.1907 0.264478 99.5741 0 99.9999 0C100.426 0 100.809 0.264478 100.977 0.673057L103.26 6.24811L109.033 6.79506C109.458 6.83502 109.816 7.13517 109.948 7.55776C110.079 7.98035 109.958 8.44386 109.637 8.73605L105.273 12.7284L106.56 18.6424C106.654 19.0773 106.493 19.5269 106.147 19.7877C105.802 20.0486 105.342 20.0686 104.978 19.8408L99.9999 16.7363L95.0215 19.8425C94.8532 19.9468 94.6656 20 94.4764 20V20ZM99.9999 15.3989C100.189 15.3989 100.377 15.452 100.545 15.5563L105.243 18.4886L104.029 12.9065C103.942 12.5093 104.072 12.0945 104.366 11.8257L108.486 8.05519L103.035 7.53865C102.643 7.50123 102.305 7.24376 102.152 6.86639L99.9999 1.60613L97.8456 6.86719C97.694 7.24201 97.3564 7.49948 96.9649 7.5369L91.5131 8.05344L95.6331 11.824C95.9282 12.0935 96.0573 12.5075 95.9698 12.9058L94.7564 18.4877L99.4549 15.5563C99.6232 15.452 99.8107 15.3989 99.9999 15.3989V15.3989ZM96.6957 6.35591C96.6957 6.35591 96.6957 6.35686 96.6948 6.35766L96.6957 6.35591ZM103.302 6.35336L103.303 6.35511C103.303 6.35416 103.303 6.35416 103.302 6.35336Z" fill="#FF3D54"/>
</g>
<g clip-path="url(#clip1_4_25)">
<path d="M124.476 19.5961C124.257 19.5961 124.04 19.5278 123.854 19.3935C123.508 19.1428 123.346 18.7119 123.441 18.2961L124.727 12.6283L120.364 8.80164C120.043 8.52163 119.92 8.0782 120.052 7.67246C120.184 7.26748 120.542 6.98076 120.966 6.94154L126.74 6.41739L129.022 1.07561C129.191 0.683143 129.574 0.429688 130 0.429688C130.426 0.429688 130.809 0.683143 130.977 1.07469L133.26 6.41739L139.033 6.94154C139.458 6.97984 139.816 7.26748 139.948 7.67246C140.079 8.07744 139.958 8.52163 139.637 8.80164L135.273 12.6276L136.56 18.2951C136.654 18.7119 136.493 19.1428 136.147 19.3927C135.802 19.6427 135.342 19.6619 134.978 19.4435L130 16.4685L125.021 19.4452C124.853 19.5452 124.666 19.5961 124.476 19.5961V19.5961ZM130 15.1868C130.189 15.1868 130.377 15.2377 130.545 15.3376L135.243 18.1477L134.029 12.7983C133.942 12.4176 134.072 12.0201 134.366 11.7625L138.486 8.14915L133.035 7.65415C132.643 7.61829 132.305 7.37155 132.152 7.0099L130 1.96888L127.846 7.01067C127.694 7.36987 127.356 7.61661 126.965 7.65247L121.513 8.14748L125.633 11.7609C125.928 12.0192 126.057 12.4159 125.97 12.7976L124.756 18.1468L129.455 15.3376C129.623 15.2377 129.811 15.1868 130 15.1868V15.1868ZM126.696 6.5207C126.696 6.5207 126.696 6.52161 126.695 6.52237L126.696 6.5207ZM133.302 6.51825L133.303 6.51993C133.303 6.51902 133.303 6.51902 133.302 6.51825Z" fill="#FF3D54"/>
<path d="M124.476 20C124.257 20 124.04 19.9287 123.854 19.7885C123.508 19.5269 123.346 19.0773 123.441 18.6434L124.727 12.7292L120.364 8.73605C120.043 8.44386 119.92 7.98115 120.052 7.55776C120.184 7.13517 120.542 6.83598 120.966 6.79506L126.74 6.24811L129.022 0.674012C129.191 0.264478 129.574 0 130 0C130.426 0 130.809 0.264478 130.977 0.673057L133.26 6.24811L139.033 6.79506C139.458 6.83502 139.816 7.13517 139.948 7.55776C140.079 7.98035 139.958 8.44386 139.637 8.73605L135.273 12.7284L136.56 18.6424C136.654 19.0773 136.493 19.5269 136.147 19.7877C135.802 20.0486 135.342 20.0686 134.978 19.8408L130 16.7363L125.021 19.8425C124.853 19.9468 124.666 20 124.476 20V20ZM130 15.3989C130.189 15.3989 130.377 15.452 130.545 15.5563L135.243 18.4886L134.029 12.9065C133.942 12.5093 134.072 12.0945 134.366 11.8257L138.486 8.05519L133.035 7.53865C132.643 7.50123 132.305 7.24376 132.152 6.86639L130 1.60613L127.846 6.86719C127.694 7.24201 127.356 7.49948 126.965 7.5369L121.513 8.05344L125.633 11.824C125.928 12.0935 126.057 12.5075 125.97 12.9058L124.756 18.4877L129.455 15.5563C129.623 15.452 129.811 15.3989 130 15.3989V15.3989ZM126.696 6.35591C126.696 6.35591 126.696 6.35686 126.695 6.35766L126.696 6.35591ZM133.302 6.35336L133.303 6.35511C133.303 6.35416 133.303 6.35416 133.302 6.35336Z" fill="#FF3D54"/>
</g>
<defs>
<clipPath id="clip0_4_25">
<rect width="20" height="20" fill="white" transform="translate(90)"/>
</clipPath>
<clipPath id="clip1_4_25">
<rect width="20" height="20" fill="white" transform="translate(120)"/>
</clipPath>
</defs>
</svg>
