<svg width="140" height="20" viewBox="0 0 140 20" fill="none" xmlns="http://www.w3.org/2000/svg">
<g clip-path="url(#clip0_4_9)">
<path d="M19.9477 7.67148C19.816 7.2665 19.4568 6.97978 19.0335 6.94148L13.2601 6.41734L10.9784 1.07545C10.81 0.682988 10.4267 0.429688 10 0.429688C9.57339 0.429688 9.18993 0.682988 9.02253 1.07545L6.74085 6.41734L0.96652 6.94148C0.543234 6.98055 0.184799 7.26726 0.0523506 7.67148C-0.0793349 8.07645 0.0422796 8.52064 0.362414 8.80141L4.72665 12.6282L3.43986 18.2957C3.34571 18.7125 3.50746 19.1434 3.85323 19.3933C4.03908 19.5284 4.25744 19.5958 4.47656 19.5958C4.66486 19.5958 4.8533 19.5458 5.02161 19.445L10 16.4683L14.9775 19.445C15.3427 19.6633 15.8018 19.6433 16.1468 19.3933C16.4926 19.1434 16.6543 18.7125 16.5602 18.2957L15.2734 12.6282L19.6376 8.80141C19.9576 8.52064 20.0794 8.07737 19.9477 7.67148V7.67148Z" fill="#FF3D54"/>
</g>
<g clip-path="url(#clip1_4_9)">
<path d="M49.9477 7.67148C49.816 7.2665 49.4568 6.97978 49.0335 6.94148L43.2601 6.41734L40.9784 1.07545C40.81 0.682988 40.4267 0.429688 40 0.429688C39.5734 0.429688 39.1899 0.682988 39.0225 1.07545L36.7408 6.41734L30.9665 6.94148C30.5432 6.98055 30.1848 7.26726 30.0524 7.67148C29.9207 8.07645 30.0423 8.52064 30.3624 8.80141L34.7267 12.6282L33.4399 18.2957C33.3457 18.7125 33.5075 19.1434 33.8532 19.3933C34.0391 19.5284 34.2574 19.5958 34.4766 19.5958C34.6649 19.5958 34.8533 19.5458 35.0216 19.445L40 16.4683L44.9775 19.445C45.3427 19.6633 45.8018 19.6433 46.1468 19.3933C46.4926 19.1434 46.6543 18.7125 46.5602 18.2957L45.2734 12.6282L49.6376 8.80141C49.9576 8.52064 50.0794 8.07737 49.9477 7.67148V7.67148Z" fill="#FF3D54"/>
</g>
<g clip-path="url(#clip2_4_9)">
<path d="M79.9477 7.67148C79.816 7.2665 79.4568 6.97978 79.0335 6.94148L73.2601 6.41734L70.9784 1.07545C70.81 0.682988 70.4267 0.429688 70 0.429688C69.5734 0.429688 69.1899 0.682988 69.0225 1.07545L66.7408 6.41734L60.9665 6.94148C60.5432 6.98055 60.1848 7.26726 60.0524 7.67148C59.9207 8.07645 60.0423 8.52064 60.3624 8.80141L64.7267 12.6282L63.4399 18.2957C63.3457 18.7125 63.5075 19.1434 63.8532 19.3933C64.0391 19.5284 64.2574 19.5958 64.4766 19.5958C64.6649 19.5958 64.8533 19.5458 65.0216 19.445L70 16.4683L74.9775 19.445C75.3427 19.6633 75.8018 19.6433 76.1468 19.3933C76.4926 19.1434 76.6543 18.7125 76.5602 18.2957L75.2734 12.6282L79.6376 8.80141C79.9576 8.52064 80.0794 8.07737 79.9477 7.67148V7.67148Z" fill="#FF3D54"/>
</g>
<g clip-path="url(#clip3_4_9)">
<path d="M94.4764 19.5961C94.2573 19.5961 94.0397 19.5278 93.854 19.3935C93.5081 19.1428 93.3465 18.7119 93.4406 18.2961L94.7273 12.6283L90.3638 8.80164C90.043 8.52163 89.9205 8.0782 90.0522 7.67246C90.1839 7.26748 90.5422 6.98076 90.9664 6.94154L96.7398 6.41739L99.0224 1.07561C99.1908 0.683143 99.5741 0.429688 99.9999 0.429688C100.426 0.429688 100.809 0.683143 100.977 1.07469L103.26 6.41739L109.033 6.94154C109.458 6.97984 109.816 7.26748 109.948 7.67246C110.079 8.07744 109.958 8.52163 109.637 8.80164L105.273 12.6276L106.56 18.2951C106.654 18.7119 106.493 19.1428 106.147 19.3927C105.802 19.6427 105.342 19.6619 104.978 19.4435L99.9999 16.4685L95.0215 19.4452C94.8532 19.5452 94.6656 19.5961 94.4764 19.5961V19.5961ZM99.9999 15.1868C100.189 15.1868 100.377 15.2377 100.545 15.3376L105.243 18.1477L104.029 12.7983C103.942 12.4176 104.072 12.0201 104.366 11.7625L108.486 8.14915L103.035 7.65415C102.643 7.61829 102.305 7.37155 102.152 7.0099L99.9999 1.96888L97.8457 7.01067C97.694 7.36987 97.3564 7.61661 96.9649 7.65247L91.5131 8.14748L95.6331 11.7609C95.9282 12.0192 96.0573 12.4159 95.9698 12.7976L94.7564 18.1468L99.4549 15.3376C99.6232 15.2377 99.8107 15.1868 99.9999 15.1868V15.1868ZM96.6957 6.5207C96.6957 6.5207 96.6957 6.52161 96.6948 6.52237L96.6957 6.5207ZM103.302 6.51825L103.303 6.51993C103.303 6.51902 103.303 6.51902 103.302 6.51825Z" fill="#FF3D54"/>
<g clip-path="url(#clip4_4_9)">
<path d="M109.948 7.67148C109.816 7.2665 109.457 6.97978 109.034 6.94148L103.26 6.41734L100.978 1.07545C100.81 0.682988 100.427 0.429688 100 0.429688C99.5734 0.429688 99.1899 0.682988 99.0225 1.07545L96.7408 6.41734L90.9665 6.94148C90.5432 6.98055 90.1848 7.26726 90.0524 7.67148C89.9207 8.07645 90.0423 8.52064 90.3624 8.80141L94.7267 12.6282L93.4399 18.2957C93.3457 18.7125 93.5075 19.1434 93.8532 19.3933C94.0391 19.5284 94.2574 19.5958 94.4766 19.5958C94.6649 19.5958 94.8533 19.5458 95.0216 19.445L100 16.4683L104.978 19.445C105.343 19.6633 105.802 19.6433 106.147 19.3933C106.493 19.1434 106.654 18.7125 106.56 18.2957L105.273 12.6282L109.638 8.80141C109.958 8.52064 110.079 8.07737 109.948 7.67148V7.67148Z" fill="#FF3D54"/>
</g>
</g>
<g clip-path="url(#clip5_4_9)">
<path d="M124.476 19.5961C124.257 19.5961 124.04 19.5278 123.854 19.3935C123.508 19.1428 123.346 18.7119 123.441 18.2961L124.727 12.6283L120.364 8.80164C120.043 8.52163 119.92 8.0782 120.052 7.67246C120.184 7.26748 120.542 6.98076 120.966 6.94154L126.74 6.41739L129.022 1.07561C129.191 0.683143 129.574 0.429688 130 0.429688C130.426 0.429688 130.809 0.683143 130.977 1.07469L133.26 6.41739L139.033 6.94154C139.458 6.97984 139.816 7.26748 139.948 7.67246C140.079 8.07744 139.958 8.52163 139.637 8.80164L135.273 12.6276L136.56 18.2951C136.654 18.7119 136.493 19.1428 136.147 19.3927C135.802 19.6427 135.342 19.6619 134.978 19.4435L130 16.4685L125.021 19.4452C124.853 19.5452 124.666 19.5961 124.476 19.5961V19.5961ZM130 15.1868C130.189 15.1868 130.377 15.2377 130.545 15.3376L135.243 18.1477L134.029 12.7983C133.942 12.4176 134.072 12.0201 134.366 11.7625L138.486 8.14915L133.035 7.65415C132.643 7.61829 132.305 7.37155 132.152 7.0099L130 1.96888L127.846 7.01067C127.694 7.36987 127.356 7.61661 126.965 7.65247L121.513 8.14748L125.633 11.7609C125.928 12.0192 126.057 12.4159 125.97 12.7976L124.756 18.1468L129.455 15.3376C129.623 15.2377 129.811 15.1868 130 15.1868V15.1868ZM126.696 6.5207C126.696 6.5207 126.696 6.52161 126.695 6.52237L126.696 6.5207ZM133.302 6.51825L133.303 6.51993C133.303 6.51902 133.303 6.51902 133.302 6.51825Z" fill="#FF3D54"/>
<path d="M139.948 7.67148C139.816 7.2665 139.457 6.97978 139.034 6.94148L133.26 6.41734L130.978 1.07545C130.81 0.682988 130.427 0.429688 130 0.429688C129.573 0.429688 129.19 0.682988 129.023 1.07545L126.741 6.41734L120.967 6.94148C120.543 6.98055 120.185 7.26726 120.052 7.67148C119.921 8.07645 120.042 8.52064 120.362 8.80141L124.727 12.6282L123.44 18.2957C123.346 18.7125 123.507 19.1434 123.853 19.3933C124.039 19.5284 124.257 19.5958 124.477 19.5958C124.665 19.5958 124.853 19.5458 125.022 19.445L130 16.4683L134.978 19.445C135.343 19.6633 135.802 19.6433 136.147 19.3933C136.493 19.1434 136.654 18.7125 136.56 18.2957L135.273 12.6282L139.638 8.80141C139.958 8.52064 140.079 8.07737 139.948 7.67148V7.67148Z" fill="#FF3D54"/>
</g>
<defs>
<clipPath id="clip0_4_9">
<rect width="20" height="20" fill="white"/>
</clipPath>
<clipPath id="clip1_4_9">
<rect width="20" height="20" fill="white" transform="translate(30)"/>
</clipPath>
<clipPath id="clip2_4_9">
<rect width="20" height="20" fill="white" transform="translate(60)"/>
</clipPath>
<clipPath id="clip3_4_9">
<rect width="20" height="20" fill="white" transform="translate(90)"/>
</clipPath>
<clipPath id="clip4_4_9">
<rect width="20" height="20" fill="white" transform="translate(90)"/>
</clipPath>
<clipPath id="clip5_4_9">
<rect width="20" height="20" fill="white" transform="translate(120)"/>
</clipPath>
</defs>
</svg>
