<svg width="237" height="85" viewBox="0 0 237 85" fill="none" xmlns="http://www.w3.org/2000/svg">
<path d="M161.566 0L162.845 23.8256L167.371 0.232819L165.389 24.0302L173.114 0.928726L167.891 24.4372L178.729 2.0801L170.324 25.042L184.157 3.67432L172.661 25.8382L189.337 5.69392L174.876 26.8169L194.213 8.11678L176.946 27.9674L198.731 10.9163L178.847 29.2771L202.842 14.0619L180.558 30.7317L206.501 17.5191L182.062 32.3153L209.667 21.25L183.341 34.0104L212.307 25.2137L184.381 35.7985L214.39 29.3668L185.172 37.6601L215.895 33.6638L185.704 39.5747L216.805 38.0575L185.971 41.5213L217.109 42.5L185.971 43.4787L216.805 46.9425L185.704 45.4253L215.895 51.3362L185.172 47.3399L214.39 55.6332L184.381 49.2015L212.307 59.7863L183.341 50.9896L209.667 63.75L182.062 52.6847L206.501 67.4809L180.558 54.2683L202.842 70.938L178.847 55.7229L198.731 74.0837L176.946 57.0326L194.213 76.8832L174.876 58.1831L189.337 79.3061L172.661 59.1618L184.157 81.3257L170.324 59.958L178.729 82.9199L167.891 60.5628L173.114 84.0713L165.389 60.9698L167.371 84.7672L162.845 61.1744L161.566 85L160.287 61.1744L155.76 84.7672L157.743 60.9698L150.018 84.0713L155.24 60.5628L144.402 82.9199L152.807 59.958L138.974 81.3257L150.471 59.1618L133.794 79.3061L148.255 58.1831L128.918 76.8832L146.186 57.0326L124.4 74.0837L144.285 55.7229L120.289 70.938L142.573 54.2683L116.63 67.4809L141.069 52.6847L113.464 63.75L139.79 50.9896L110.824 59.7863L138.75 49.2015L108.741 55.6332L137.959 47.3399L107.236 51.3362L137.428 45.4253L106.327 46.9425L137.16 43.4787L106.022 42.5L137.16 41.5213L106.327 38.0575L137.428 39.5747L107.236 33.6638L137.959 37.6601L108.741 29.3668L138.75 35.7985L110.824 25.2137L139.79 34.0104L113.464 21.25L141.069 32.3153L116.63 17.5191L142.573 30.7317L120.289 14.0619L144.285 29.2771L124.4 10.9163L146.186 27.9674L128.918 8.11678L148.255 26.8169L133.794 5.69392L150.471 25.8382L138.974 3.67432L152.807 25.042L144.402 2.0801L155.24 24.4372L150.018 0.928726L157.743 24.0302L155.76 0.232819L160.287 23.8256L161.566 0Z" fill="white" fill-opacity="0.35"/>
<path d="M154.692 66.9999V62.6529C151.93 62.4689 149.283 61.8479 146.751 60.7899C144.219 59.6859 141.964 58.1909 139.984 56.3049C138.004 54.4189 136.439 52.1879 135.288 49.6119C134.137 47.0359 133.562 44.1609 133.562 40.9869C133.562 37.6749 134.16 34.7079 135.357 32.0859C136.554 29.4639 138.143 27.2329 140.122 25.3929C142.148 23.5529 144.403 22.1269 146.889 21.1149C149.421 20.0569 152.022 19.4359 154.692 19.2519V15.3879H167.398V19.2519C170.068 19.4359 172.646 20.0569 175.132 21.1149C177.664 22.1269 179.92 23.5529 181.9 25.3929C183.925 27.2329 185.536 29.4639 186.733 32.0859C187.93 34.7079 188.529 37.6749 188.529 40.9869C188.529 44.1609 187.953 47.0359 186.802 49.6119C185.651 52.1879 184.086 54.4189 182.107 56.3049C180.127 58.1909 177.871 59.6859 175.339 60.7899C172.808 61.8479 170.16 62.4689 167.398 62.6529V66.9999H154.692ZM155.038 51.9579V29.9469C153.611 30.1309 152.276 30.6599 151.033 31.5339C149.836 32.4079 148.869 33.6269 148.132 35.1909C147.396 36.7549 147.027 38.6869 147.027 40.9869C147.027 42.6889 147.235 44.2069 147.649 45.5409C148.109 46.8289 148.708 47.9329 149.444 48.8529C150.227 49.7269 151.102 50.4399 152.068 50.9919C153.035 51.4979 154.025 51.8199 155.038 51.9579ZM167.053 51.9579C168.434 51.7279 169.723 51.1989 170.92 50.3709C172.163 49.4969 173.153 48.3009 173.889 46.7829C174.672 45.2189 175.063 43.2869 175.063 40.9869C175.063 39.2849 174.856 37.7899 174.442 36.5019C174.027 35.2139 173.452 34.1099 172.715 33.1899C171.979 32.2699 171.127 31.5339 170.16 30.9819C169.194 30.4299 168.158 30.0849 167.053 29.9469V51.9579Z" fill="white"/>
<path d="M29.2065 27.1601H19.8152V52.0001H10.8382V27.1601H1.40088V19.3401H29.2065V27.1601Z" fill="white"/>
<path d="M39.9346 52.4601C37.817 52.4601 35.9295 52.1381 34.2722 51.4941C32.6149 50.8194 31.2185 49.9148 30.083 48.7801C28.9781 47.6454 28.1341 46.3421 27.551 44.8701C26.9679 43.3981 26.6763 41.8494 26.6763 40.2241C26.6763 37.8934 27.1827 35.7621 28.1955 33.8301C29.2083 31.8674 30.6968 30.3034 32.661 29.1381C34.6252 27.9421 37.0497 27.3441 39.9346 27.3441C42.8195 27.3441 45.2441 27.9268 47.2083 29.0921C49.1725 30.2574 50.661 31.7908 51.6737 33.6921C52.6865 35.5934 53.1929 37.6634 53.1929 39.9021C53.1929 40.3621 53.1622 40.8374 53.1008 41.3281C53.0702 41.7881 53.0241 42.2021 52.9627 42.5701H35.9755C36.0369 43.4288 36.2671 44.1341 36.6661 44.6861C37.0957 45.2074 37.6175 45.5908 38.2313 45.8361C38.8758 46.0814 39.5356 46.2041 40.2108 46.2041C41.1622 46.2041 42.0523 45.9894 42.8809 45.5601C43.7402 45.1308 44.308 44.5328 44.5842 43.7661L51.996 45.8821C51.3515 47.1701 50.4461 48.3048 49.2799 49.2861C48.1443 50.2674 46.7939 51.0494 45.2287 51.6321C43.6635 52.1841 41.8988 52.4601 39.9346 52.4601ZM35.7914 37.3261H43.8016C43.7095 36.5288 43.4794 35.8541 43.1111 35.3021C42.7735 34.7501 42.3131 34.3208 41.73 34.0141C41.1776 33.7074 40.5331 33.5541 39.7965 33.5541C39.0599 33.5541 38.4001 33.7074 37.817 34.0141C37.2645 34.3208 36.8042 34.7501 36.4359 35.3021C36.0983 35.8541 35.8835 36.5288 35.7914 37.3261Z" fill="white"/>
<path d="M56.1565 52.0001V27.8041H79.8649V52.0001H71.1181V35.3941H64.9033V52.0001H56.1565Z" fill="white"/>
<path d="M83.0982 52.4601V44.7321C83.8041 44.7014 84.4179 44.5634 84.9396 44.3181C85.4614 44.0728 85.9064 43.6588 86.2747 43.0761C86.6736 42.4628 86.9805 41.6041 87.1954 40.5001C87.4102 39.3654 87.5637 37.9088 87.6557 36.1301L88.024 27.8041H108.234V52.0001H99.4869V35.3941H95.758L95.6659 37.0501C95.5125 40.0248 95.1596 42.5088 94.6071 44.5021C94.0547 46.4954 93.2721 48.0748 92.2593 49.2401C91.2465 50.3748 89.9882 51.1874 88.4844 51.6781C86.9805 52.1688 85.1851 52.4294 83.0982 52.4601Z" fill="white"/>
<path d="M124.678 52.4601C122.53 52.4601 120.627 52.1228 118.97 51.4481C117.312 50.7734 115.916 49.8534 114.781 48.6881C113.676 47.4921 112.832 46.1428 112.249 44.6401C111.696 43.1374 111.42 41.5581 111.42 39.9021C111.42 38.2461 111.696 36.6668 112.249 35.1641C112.832 33.6308 113.676 32.2814 114.781 31.1161C115.916 29.9508 117.312 29.0308 118.97 28.3561C120.627 27.6814 122.53 27.3441 124.678 27.3441C126.857 27.3441 128.76 27.6814 130.387 28.3561C132.044 29.0308 133.425 29.9508 134.53 31.1161C135.665 32.2814 136.509 33.6308 137.062 35.1641C137.645 36.6668 137.937 38.2461 137.937 39.9021C137.937 41.5581 137.645 43.1374 137.062 44.6401C136.509 46.1428 135.665 47.4921 134.53 48.6881C133.425 49.8534 132.044 50.7734 130.387 51.4481C128.76 52.1228 126.857 52.4601 124.678 52.4601ZM120.397 39.9021C120.397 40.9754 120.581 41.9108 120.949 42.7081C121.318 43.4748 121.824 44.0728 122.468 44.5021C123.113 44.9008 123.85 45.1001 124.678 45.1001C125.507 45.1001 126.243 44.9008 126.888 44.5021C127.532 44.0728 128.039 43.4748 128.407 42.7081C128.775 41.9108 128.96 40.9754 128.96 39.9021C128.96 38.8288 128.775 37.9088 128.407 37.1421C128.039 36.3448 127.532 35.7468 126.888 35.3481C126.243 34.9188 125.507 34.7041 124.678 34.7041C123.85 34.7041 123.113 34.9188 122.468 35.3481C121.824 35.7468 121.318 36.3448 120.949 37.1421C120.581 37.9088 120.397 38.8288 120.397 39.9021Z" fill="white"/>
<path d="M195.213 52.4601C193.065 52.4601 191.162 52.1228 189.505 51.4481C187.848 50.7734 186.451 49.8534 185.316 48.6881C184.211 47.4921 183.367 46.1428 182.784 44.6401C182.231 43.1374 181.955 41.5581 181.955 39.9021C181.955 38.2461 182.231 36.6668 182.784 35.1641C183.367 33.6308 184.211 32.2814 185.316 31.1161C186.451 29.9508 187.848 29.0308 189.505 28.3561C191.162 27.6814 193.065 27.3441 195.213 27.3441C197.393 27.3441 199.295 27.6814 200.922 28.3561C202.579 29.0308 203.96 29.9508 205.065 31.1161C206.201 32.2814 207.045 33.6308 207.597 35.1641C208.18 36.6668 208.472 38.2461 208.472 39.9021C208.472 41.5581 208.18 43.1374 207.597 44.6401C207.045 46.1428 206.201 47.4921 205.065 48.6881C203.96 49.8534 202.579 50.7734 200.922 51.4481C199.295 52.1228 197.393 52.4601 195.213 52.4601ZM190.932 39.9021C190.932 40.9754 191.116 41.9108 191.485 42.7081C191.853 43.4748 192.359 44.0728 193.004 44.5021C193.648 44.9008 194.385 45.1001 195.213 45.1001C196.042 45.1001 196.779 44.9008 197.423 44.5021C198.068 44.0728 198.574 43.4748 198.942 42.7081C199.311 41.9108 199.495 40.9754 199.495 39.9021C199.495 38.8288 199.311 37.9088 198.942 37.1421C198.574 36.3448 198.068 35.7468 197.423 35.3481C196.779 34.9188 196.042 34.7041 195.213 34.7041C194.385 34.7041 193.648 34.9188 193.004 35.3481C192.359 35.7468 191.853 36.3448 191.485 37.1421C191.116 37.9088 190.932 38.8288 190.932 39.9021Z" fill="white"/>
<path d="M211.66 52.0001V27.8041H220.407V36.0381H226.852V27.8041H235.599V52.0001H226.852V43.1681H220.407V52.0001H211.66Z" fill="white"/>
<path fill-rule="evenodd" clip-rule="evenodd" d="M21.2165 28.5599H30.6078V17.9399H0V28.5599H9.43733V53.3999H21.2165V28.5599ZM10.8384 51.9999V27.1599H1.40109V19.3399H29.2067V27.1599H19.8154V51.9999H10.8384ZM33.7438 52.7905L33.7542 52.7947L33.7646 52.7988C35.6115 53.5164 37.6759 53.8599 39.9348 53.8599C42.0295 53.8599 43.9556 53.5656 45.6953 52.9521L45.7067 52.9481L45.7181 52.9439C47.4191 52.3106 48.916 51.45 50.1897 50.3509C51.4899 49.2552 52.516 47.9737 53.2494 46.508L54.0044 44.9992L50.399 43.9699H54.1499L54.345 42.8001C54.4135 42.389 54.4632 41.9417 54.4963 41.4612C54.5611 40.9312 54.5942 40.4112 54.5942 39.9019C54.5942 37.4432 54.0357 35.1461 52.9108 33.0342C51.7701 30.8929 50.0948 29.1762 47.9238 27.8881C45.6931 26.5647 43.0061 25.9439 39.9348 25.9439C36.8607 25.9439 34.1709 26.5813 31.939 27.9382C29.7616 29.2317 28.0887 30.9844 26.9525 33.1843C25.8289 35.3293 25.2754 37.6845 25.2754 40.2239C25.2754 42.0209 25.5986 43.7448 26.2485 45.3852C26.8997 47.0291 27.8451 48.4891 29.079 49.7562L29.0857 49.7631L29.0925 49.7699C30.3744 51.0508 31.9334 52.0535 33.7438 52.7905ZM51.2588 47.1274C50.7143 47.9146 50.0548 48.6341 49.2801 49.2859C48.1445 50.2673 46.7942 51.0493 45.2289 51.6319C43.6637 52.1839 41.899 52.4599 39.9348 52.4599C37.8172 52.4599 35.9297 52.1379 34.2724 51.4939C32.6151 50.8193 31.2187 49.9146 30.0832 48.7799C28.9783 47.6453 28.1343 46.3419 27.5512 44.8699C26.9681 43.3979 26.6765 41.8493 26.6765 40.2239C26.6765 37.8933 27.1829 35.7619 28.1957 33.8299C29.2085 31.8673 30.697 30.3033 32.6612 29.1379C34.6254 27.9419 37.0499 27.3439 39.9348 27.3439C42.8197 27.3439 45.2443 27.9266 47.2085 29.0919C49.1727 30.2573 50.6612 31.7906 51.674 33.6919C52.6867 35.5933 53.1931 37.6633 53.1931 39.9019C53.1931 40.3619 53.1624 40.8373 53.1011 41.3279C53.0704 41.7879 53.0243 42.2019 52.963 42.5699H35.9758C36.0132 43.0936 36.1134 43.5603 36.2764 43.9699C36.3807 44.2319 36.5107 44.4706 36.6663 44.6859C37.096 45.2073 37.6177 45.5906 38.2315 45.8359C38.876 46.0813 39.5359 46.2039 40.211 46.2039C41.1624 46.2039 42.0525 45.9893 42.8811 45.5599C43.6627 45.1695 44.2031 44.6395 44.5023 43.9699C44.5321 43.9033 44.5594 43.8353 44.5844 43.7659L51.9962 45.8819C51.7798 46.3144 51.534 46.7296 51.2588 47.1274ZM37.9038 43.9699H42.7817C42.6414 44.0879 42.4683 44.201 42.2545 44.3077L42.2453 44.3123L42.2362 44.3171C41.6108 44.6411 40.9425 44.8039 40.211 44.8039C39.7138 44.8039 39.2265 44.7151 38.7415 44.5319C38.4251 44.4039 38.1482 44.2201 37.9038 43.9699ZM43.8018 37.3259C43.742 36.8074 43.6237 36.3407 43.447 35.9259C43.352 35.7029 43.2401 35.4949 43.1113 35.3019C42.7737 34.7499 42.3133 34.3206 41.7302 34.0139C41.1778 33.7073 40.5333 33.5539 39.7967 33.5539C39.0602 33.5539 38.4003 33.7073 37.8172 34.0139C37.2648 34.3206 36.8044 34.7499 36.4361 35.3019C36.3181 35.4949 36.215 35.7029 36.127 35.9259C35.9633 36.3407 35.8515 36.8074 35.7916 37.3259H43.8018ZM39.7967 34.9539C39.2673 34.9539 38.8401 35.0611 38.4837 35.2455C38.191 35.4105 37.9339 35.6322 37.7105 35.9259H41.8468C41.6522 35.6445 41.4017 35.4233 41.0777 35.2528L41.0636 35.2455L41.0498 35.2378C40.7376 35.0645 40.3349 34.9539 39.7967 34.9539ZM54.7556 26.4039V53.3999H66.3046V36.7939H69.7172V53.3999H81.2662V26.4039H54.7556ZM71.1183 35.3939H64.9035V51.9999H56.1567V27.8039H79.8651V51.9999H71.1183V35.3939ZM81.6973 43.3915V53.8807L83.119 53.8598C85.3046 53.8277 87.2469 53.5545 88.9195 53.0088C90.6488 52.4445 92.1209 51.4985 93.3051 50.1718L93.3113 50.1649L93.3174 50.1579C94.5053 48.7911 95.3675 47.0048 95.9576 44.8756C96.5461 42.752 96.9085 40.1601 97.0652 37.1253L97.0654 37.122L97.0836 36.7939H98.086V53.3999H109.635V26.4039H86.6837L86.2567 36.0576L86.2565 36.0628C86.1662 37.8038 86.0177 39.1885 85.8196 40.2359C85.6227 41.2465 85.3625 41.9096 85.1001 42.313L85.0951 42.3206L85.0903 42.3284C84.8362 42.7302 84.5797 42.94 84.3433 43.0512C84.0228 43.2019 83.5985 43.3089 83.0375 43.3333L81.6973 43.3915ZM95.7582 35.3939L95.6662 37.0499C95.5127 40.0246 95.1598 42.5086 94.6073 44.5019C94.0549 46.4953 93.2723 48.0746 92.2595 49.2399C91.2467 50.3746 89.9884 51.1873 88.4846 51.6779C87.3285 52.0551 86.0002 52.2964 84.4995 52.4018C84.048 52.4335 83.581 52.4529 83.0984 52.4599V44.7319C83.8043 44.7013 84.4181 44.5633 84.9398 44.3179C85.4616 44.0726 85.9066 43.6586 86.2749 43.0759C86.6738 42.4626 86.9807 41.6039 87.1956 40.4999C87.4104 39.3653 87.5639 37.9086 87.6559 36.1299L88.0242 27.8039H108.234V51.9999H99.4871V35.3939H95.7582ZM113.751 49.6375L113.764 49.6512L113.777 49.6646C115.06 50.9813 116.623 52.0043 118.441 52.7445C120.297 53.4997 122.384 53.8599 124.678 53.8599C126.998 53.8599 129.089 53.5014 130.92 52.7425C132.739 52.0016 134.291 50.9758 135.546 49.6515C136.806 48.3247 137.752 46.8171 138.373 45.1351C139.017 43.4699 139.338 41.7222 139.338 39.9019C139.338 38.0834 139.018 36.3373 138.374 34.6735C137.755 32.962 136.808 31.4488 135.54 30.1456C134.285 28.8245 132.735 27.8009 130.92 27.0612C129.089 26.3025 126.998 25.9439 124.678 25.9439C122.384 25.9439 120.297 26.3042 118.441 27.0594C116.623 27.7996 115.06 28.8226 113.777 30.1393L113.77 30.1461L113.764 30.1531C112.529 31.4557 111.586 32.9642 110.939 34.6666L110.936 34.6739L110.934 34.6812C110.322 36.3438 110.019 38.087 110.019 39.9019C110.019 41.7169 110.322 43.4601 110.934 45.1227L110.938 45.1344L110.942 45.1461C111.59 46.8143 112.528 48.3137 113.751 49.6375ZM112.249 44.6399C112.832 46.1426 113.676 47.4919 114.781 48.6879C120.534 54.4364 133.043 53.9999 137.062 44.6399C137.645 43.1373 137.937 41.5579 137.937 39.9019C137.937 38.2459 137.645 36.6666 137.062 35.1639C136.51 33.6306 135.666 32.2813 134.53 31.1159C133.425 29.9506 132.044 29.0306 130.387 28.3559C128.76 27.6813 126.857 27.3439 124.678 27.3439C122.53 27.3439 120.627 27.6813 118.97 28.3559C117.313 29.0306 115.916 29.9506 114.781 31.1159C113.676 32.2813 112.832 33.6306 112.249 35.1639C111.696 36.6666 111.42 38.2459 111.42 39.9019C111.42 41.5579 111.696 43.1373 112.249 44.6399ZM127.135 37.7286L127.14 37.7382L127.144 37.7478C127.401 38.2825 127.559 38.9849 127.559 39.9019C127.559 40.8117 127.404 41.536 127.14 42.1117C126.874 42.6609 126.535 43.0497 126.131 43.3239C125.732 43.5651 125.262 43.6999 124.678 43.6999C124.095 43.6999 123.624 43.5651 123.226 43.3239C122.822 43.0497 122.483 42.6609 122.217 42.1117C121.953 41.536 121.798 40.8117 121.798 39.9019C121.798 38.9849 121.956 38.2825 122.213 37.7478L122.217 37.7382L122.222 37.7286C122.494 37.1398 122.831 36.7706 123.206 36.5383L123.226 36.5259L123.246 36.5128C123.644 36.2477 124.106 36.1039 124.678 36.1039C125.251 36.1039 125.713 36.2477 126.111 36.5128L126.131 36.5259L126.151 36.5383C126.526 36.7706 126.863 37.1398 127.135 37.7286ZM124.678 45.0999C125.507 45.0999 126.244 44.9006 126.888 44.5019C127.533 44.0726 128.039 43.4746 128.407 42.7079C128.776 41.9106 128.96 40.9753 128.96 39.9019C128.96 38.8286 128.776 37.9086 128.407 37.1419C128.039 36.3446 127.533 35.7466 126.888 35.3479C126.244 34.9186 125.507 34.7039 124.678 34.7039C123.85 34.7039 123.113 34.9186 122.469 35.3479C121.824 35.7466 121.318 36.3446 120.95 37.1419C120.581 37.9086 120.397 38.8286 120.397 39.9019C120.397 40.9753 120.581 41.9106 120.95 42.7079C121.318 43.4746 121.824 44.0726 122.469 44.5019C123.113 44.9006 123.85 45.0999 124.678 45.0999ZM184.286 49.6375L184.299 49.6512L184.312 49.6646C185.595 50.9813 187.158 52.0043 188.977 52.7445C190.832 53.4997 192.92 53.8599 195.214 53.8599C197.533 53.8599 199.624 53.5014 201.455 52.7425C203.274 52.0016 204.826 50.9758 206.082 49.6515C207.341 48.3247 208.288 46.8171 208.908 45.1351C209.553 43.4699 209.873 41.7222 209.873 39.9019C209.873 38.0834 209.553 36.3373 208.91 34.6735C208.291 32.962 207.344 31.4488 206.075 30.1456C204.821 28.8245 203.271 27.8009 201.455 27.0612C199.624 26.3025 197.533 25.9439 195.214 25.9439C192.92 25.9439 190.832 26.3042 188.977 27.0594C187.158 27.7996 185.595 28.8226 184.312 30.1393L184.305 30.1461L184.299 30.1531C183.064 31.4557 182.122 32.9642 181.474 34.6666L181.472 34.6739L181.469 34.6812C180.858 36.3438 180.554 38.087 180.554 39.9019C180.554 41.7169 180.858 43.4601 181.469 45.1227L181.473 45.1344L181.478 45.1461C182.125 46.8143 183.064 48.3137 184.286 49.6375ZM208.472 39.9019C208.472 41.5579 208.18 43.1373 207.597 44.6399C204.599 52.9999 192.089 54.9999 185.316 48.6879C184.211 47.4919 183.367 46.1426 182.784 44.6399C182.232 43.1373 181.955 41.5579 181.955 39.9019C181.955 38.2459 182.232 36.6666 182.784 35.1639C183.367 33.6306 184.211 32.2813 185.316 31.1159C186.452 29.9506 187.848 29.0306 189.505 28.3559C191.163 27.6813 193.065 27.3439 195.214 27.3439C197.393 27.3439 199.296 27.6813 200.922 28.3559C202.579 29.0306 203.96 29.9506 205.065 31.1159C206.201 32.2813 207.045 33.6306 207.597 35.1639C208.18 36.6666 208.472 38.2459 208.472 39.9019ZM197.67 37.7286L197.675 37.7382L197.679 37.7478C197.936 38.2825 198.094 38.9849 198.094 39.9019C198.094 40.8119 197.939 41.5363 197.675 42.112C197.409 42.661 197.07 43.0497 196.666 43.3239C196.268 43.5651 195.797 43.6999 195.214 43.6999C194.63 43.6999 194.16 43.5651 193.761 43.3238C193.358 43.0497 193.018 42.661 192.753 42.112C192.489 41.5363 192.333 40.8119 192.333 39.9019C192.333 38.9849 192.491 38.2825 192.748 37.7478L192.752 37.7382L192.757 37.7286C193.029 37.1398 193.366 36.7706 193.741 36.5383L193.762 36.5259L193.781 36.5128C194.179 36.2477 194.641 36.1039 195.214 36.1039C195.786 36.1039 196.248 36.2477 196.646 36.5128L196.666 36.5259L196.686 36.5383C197.061 36.7706 197.398 37.1398 197.67 37.7286ZM197.423 44.5019C198.068 44.0726 198.574 43.4746 198.943 42.7079C199.311 41.9106 199.495 40.9753 199.495 39.9019C199.495 38.8286 199.311 37.9086 198.943 37.1419C198.574 36.3446 198.068 35.7466 197.423 35.3479C196.779 34.9186 196.042 34.7039 195.214 34.7039C194.385 34.7039 193.648 34.9186 193.004 35.3479C192.359 35.7466 191.853 36.3446 191.485 37.1419C191.117 37.9086 190.932 38.8286 190.932 39.9019C190.932 40.9753 191.117 41.9106 191.485 42.7079C191.853 43.4746 192.359 44.0726 193.004 44.5019C193.648 44.9006 194.385 45.0999 195.214 45.0999C196.042 45.0999 196.779 44.9006 197.423 44.5019ZM210.259 26.4039V53.3999H221.808V44.5679H225.451V53.3999H237V26.4039H225.451V34.6379H221.808V26.4039H210.259ZM226.852 43.1679H220.407V51.9999H211.66V27.8039H220.407V36.0379H226.852V27.8039H235.599V51.9999H226.852V43.1679Z" fill="#4B4444"/>
</svg>
