<svg width="237" height="85" viewBox="0 0 237 85" fill="none" xmlns="http://www.w3.org/2000/svg">
<path d="M161.566 0L162.845 23.8256L167.371 0.232819L165.389 24.0302L173.114 0.928726L167.891 24.4372L178.729 2.0801L170.324 25.042L184.157 3.67432L172.661 25.8382L189.337 5.69392L174.876 26.8169L194.213 8.11678L176.946 27.9674L198.731 10.9163L178.847 29.2771L202.842 14.0619L180.558 30.7317L206.501 17.5191L182.062 32.3153L209.667 21.25L183.341 34.0104L212.307 25.2137L184.381 35.7985L214.39 29.3668L185.172 37.6601L215.895 33.6638L185.704 39.5747L216.805 38.0575L185.971 41.5213L217.109 42.5L185.971 43.4787L216.805 46.9425L185.704 45.4253L215.895 51.3362L185.172 47.3399L214.39 55.6332L184.381 49.2015L212.307 59.7863L183.341 50.9896L209.667 63.75L182.062 52.6847L206.501 67.4809L180.558 54.2683L202.842 70.938L178.847 55.7229L198.731 74.0837L176.946 57.0326L194.213 76.8832L174.876 58.1831L189.337 79.3061L172.661 59.1618L184.157 81.3257L170.324 59.958L178.729 82.9199L167.891 60.5628L173.114 84.0713L165.389 60.9698L167.371 84.7672L162.845 61.1744L161.566 85L160.287 61.1744L155.76 84.7672L157.743 60.9698L150.018 84.0713L155.24 60.5628L144.402 82.9199L152.807 59.958L138.974 81.3257L150.471 59.1618L133.794 79.3061L148.255 58.1831L128.918 76.8832L146.186 57.0326L124.4 74.0837L144.285 55.7229L120.289 70.938L142.573 54.2683L116.63 67.4809L141.069 52.6847L113.464 63.75L139.79 50.9896L110.824 59.7863L138.75 49.2015L108.741 55.6332L137.959 47.3399L107.236 51.3362L137.428 45.4253L106.327 46.9425L137.16 43.4787L106.022 42.5L137.16 41.5213L106.327 38.0575L137.428 39.5747L107.236 33.6638L137.959 37.6601L108.741 29.3668L138.75 35.7985L110.824 25.2137L139.79 34.0104L113.464 21.25L141.069 32.3153L116.63 17.5191L142.573 30.7317L120.289 14.0619L144.285 29.2771L124.4 10.9163L146.186 27.9674L128.918 8.11678L148.255 26.8169L133.794 5.69392L150.471 25.8382L138.974 3.67432L152.807 25.042L144.402 2.0801L155.24 24.4372L150.018 0.928726L157.743 24.0302L155.76 0.232819L160.287 23.8256L161.566 0Z" fill="#FFCE33"/>
<path d="M154.692 67V62.653C151.93 62.469 149.283 61.848 146.751 60.79C144.219 59.686 141.964 58.191 139.984 56.305C138.004 54.419 136.439 52.188 135.288 49.612C134.137 47.036 133.562 44.161 133.562 40.987C133.562 37.675 134.16 34.708 135.357 32.086C136.554 29.464 138.143 27.233 140.122 25.393C142.148 23.553 144.403 22.127 146.889 21.115C149.421 20.057 152.022 19.436 154.692 19.252V15.388H167.398V19.252C170.068 19.436 172.646 20.057 175.132 21.115C177.664 22.127 179.92 23.553 181.9 25.393C183.925 27.233 185.536 29.464 186.733 32.086C187.93 34.708 188.529 37.675 188.529 40.987C188.529 44.161 187.953 47.036 186.802 49.612C185.651 52.188 184.086 54.419 182.107 56.305C180.127 58.191 177.871 59.686 175.339 60.79C172.808 61.848 170.16 62.469 167.398 62.653V67H154.692ZM155.038 51.958V29.947C153.611 30.131 152.276 30.66 151.033 31.534C149.836 32.408 148.869 33.627 148.132 35.191C147.396 36.755 147.027 38.687 147.027 40.987C147.027 42.689 147.235 44.207 147.649 45.541C148.109 46.829 148.708 47.933 149.444 48.853C150.227 49.727 151.102 50.44 152.068 50.992C153.035 51.498 154.025 51.82 155.038 51.958ZM167.053 51.958C168.434 51.728 169.723 51.199 170.92 50.371C172.163 49.497 173.153 48.301 173.889 46.783C174.672 45.219 175.063 43.287 175.063 40.987C175.063 39.285 174.856 37.79 174.442 36.502C174.027 35.214 173.452 34.11 172.715 33.19C171.979 32.27 171.127 31.534 170.16 30.982C169.194 30.43 168.158 30.085 167.053 29.947V51.958Z" fill="url(#paint0_linear_3_20)"/>
<path d="M29.2065 27.16H19.8152V52H10.8382V27.16H1.40088V19.34H29.2065V27.16Z" fill="url(#paint1_linear_3_20)"/>
<path d="M39.9346 52.46C37.817 52.46 35.9295 52.138 34.2722 51.494C32.6149 50.8193 31.2185 49.9147 30.083 48.78C28.9781 47.6453 28.1341 46.342 27.551 44.87C26.9679 43.398 26.6763 41.8493 26.6763 40.224C26.6763 37.8933 27.1827 35.762 28.1955 33.83C29.2083 31.8673 30.6968 30.3033 32.661 29.138C34.6252 27.942 37.0497 27.344 39.9346 27.344C42.8195 27.344 45.2441 27.9267 47.2083 29.092C49.1725 30.2573 50.661 31.7907 51.6737 33.692C52.6865 35.5933 53.1929 37.6633 53.1929 39.902C53.1929 40.362 53.1622 40.8373 53.1008 41.328C53.0702 41.788 53.0241 42.202 52.9627 42.57H35.9755C36.0369 43.4287 36.2671 44.134 36.6661 44.686C37.0957 45.2073 37.6175 45.5907 38.2313 45.836C38.8758 46.0813 39.5356 46.204 40.2108 46.204C41.1622 46.204 42.0523 45.9893 42.8809 45.56C43.7402 45.1307 44.308 44.5327 44.5842 43.766L51.996 45.882C51.3515 47.17 50.4461 48.3047 49.2799 49.286C48.1443 50.2673 46.7939 51.0493 45.2287 51.632C43.6635 52.184 41.8988 52.46 39.9346 52.46ZM35.7914 37.326H43.8016C43.7095 36.5287 43.4794 35.854 43.1111 35.302C42.7735 34.75 42.3131 34.3207 41.73 34.014C41.1776 33.7073 40.5331 33.554 39.7965 33.554C39.0599 33.554 38.4001 33.7073 37.817 34.014C37.2645 34.3207 36.8042 34.75 36.4359 35.302C36.0983 35.854 35.8835 36.5287 35.7914 37.326Z" fill="url(#paint2_linear_3_20)"/>
<path d="M56.1565 52V27.804H79.8649V52H71.1181V35.394H64.9033V52H56.1565Z" fill="url(#paint3_linear_3_20)"/>
<path d="M83.0982 52.46V44.732C83.8041 44.7013 84.4179 44.5633 84.9396 44.318C85.4614 44.0727 85.9064 43.6587 86.2747 43.076C86.6736 42.4627 86.9805 41.604 87.1954 40.5C87.4102 39.3653 87.5637 37.9087 87.6557 36.13L88.024 27.804H108.234V52H99.4869V35.394H95.758L95.6659 37.05C95.5125 40.0247 95.1596 42.5087 94.6071 44.502C94.0547 46.4953 93.2721 48.0747 92.2593 49.24C91.2465 50.3747 89.9882 51.1873 88.4844 51.678C86.9805 52.1687 85.1851 52.4293 83.0982 52.46Z" fill="url(#paint4_linear_3_20)"/>
<path d="M124.678 52.46C122.53 52.46 120.627 52.1227 118.97 51.448C117.312 50.7733 115.916 49.8533 114.781 48.688C113.676 47.492 112.832 46.1427 112.249 44.64C111.696 43.1373 111.42 41.558 111.42 39.902C111.42 38.246 111.696 36.6667 112.249 35.164C112.832 33.6307 113.676 32.2813 114.781 31.116C115.916 29.9507 117.312 29.0307 118.97 28.356C120.627 27.6813 122.53 27.344 124.678 27.344C126.857 27.344 128.76 27.6813 130.387 28.356C132.044 29.0307 133.425 29.9507 134.53 31.116C135.665 32.2813 136.509 33.6307 137.062 35.164C137.645 36.6667 137.937 38.246 137.937 39.902C137.937 41.558 137.645 43.1373 137.062 44.64C136.509 46.1427 135.665 47.492 134.53 48.688C133.425 49.8533 132.044 50.7733 130.387 51.448C128.76 52.1227 126.857 52.46 124.678 52.46ZM120.397 39.902C120.397 40.9753 120.581 41.9107 120.949 42.708C121.318 43.4747 121.824 44.0727 122.468 44.502C123.113 44.9007 123.85 45.1 124.678 45.1C125.507 45.1 126.243 44.9007 126.888 44.502C127.532 44.0727 128.039 43.4747 128.407 42.708C128.775 41.9107 128.96 40.9753 128.96 39.902C128.96 38.8287 128.775 37.9087 128.407 37.142C128.039 36.3447 127.532 35.7467 126.888 35.348C126.243 34.9187 125.507 34.704 124.678 34.704C123.85 34.704 123.113 34.9187 122.468 35.348C121.824 35.7467 121.318 36.3447 120.949 37.142C120.581 37.9087 120.397 38.8287 120.397 39.902Z" fill="url(#paint5_linear_3_20)"/>
<path d="M195.213 52.46C193.065 52.46 191.162 52.1227 189.505 51.448C187.848 50.7733 186.451 49.8533 185.316 48.688C184.211 47.492 183.367 46.1427 182.784 44.64C182.231 43.1373 181.955 41.558 181.955 39.902C181.955 38.246 182.231 36.6667 182.784 35.164C183.367 33.6307 184.211 32.2813 185.316 31.116C186.451 29.9507 187.848 29.0307 189.505 28.356C191.162 27.6813 193.065 27.344 195.213 27.344C197.393 27.344 199.295 27.6813 200.922 28.356C202.579 29.0307 203.96 29.9507 205.065 31.116C206.201 32.2813 207.045 33.6307 207.597 35.164C208.18 36.6667 208.472 38.246 208.472 39.902C208.472 41.558 208.18 43.1373 207.597 44.64C207.045 46.1427 206.201 47.492 205.065 48.688C203.96 49.8533 202.579 50.7733 200.922 51.448C199.295 52.1227 197.393 52.46 195.213 52.46ZM190.932 39.902C190.932 40.9753 191.116 41.9107 191.485 42.708C191.853 43.4747 192.359 44.0727 193.004 44.502C193.648 44.9007 194.385 45.1 195.213 45.1C196.042 45.1 196.779 44.9007 197.423 44.502C198.068 44.0727 198.574 43.4747 198.942 42.708C199.311 41.9107 199.495 40.9753 199.495 39.902C199.495 38.8287 199.311 37.9087 198.942 37.142C198.574 36.3447 198.068 35.7467 197.423 35.348C196.779 34.9187 196.042 34.704 195.213 34.704C194.385 34.704 193.648 34.9187 193.004 35.348C192.359 35.7467 191.853 36.3447 191.485 37.142C191.116 37.9087 190.932 38.8287 190.932 39.902Z" fill="url(#paint6_linear_3_20)"/>
<path d="M211.66 52V27.804H220.407V36.038H226.852V27.804H235.599V52H226.852V43.168H220.407V52H211.66Z" fill="url(#paint7_linear_3_20)"/>
<path fill-rule="evenodd" clip-rule="evenodd" d="M21.2165 28.56H30.6078V17.94H0V28.56H9.43733V53.4H21.2165V28.56ZM10.8384 52V27.16H1.40109V19.34H29.2067V27.16H19.8154V52H10.8384ZM33.7438 52.7905L33.7542 52.7948L33.7646 52.7988C35.6115 53.5165 37.6759 53.86 39.9348 53.86C42.0295 53.86 43.9556 53.5657 45.6953 52.9522L45.7067 52.9482L45.7181 52.9439C47.4191 52.3107 48.916 51.4501 50.1897 50.3509C51.4899 49.2553 52.516 47.9738 53.2494 46.5081L54.0044 44.9993L50.399 43.97H54.1499L54.345 42.8002C54.4135 42.3891 54.4632 41.9417 54.4963 41.4612C54.5611 40.9312 54.5942 40.4113 54.5942 39.902C54.5942 37.4433 54.0357 35.1462 52.9108 33.0342C51.7701 30.8929 50.0948 29.1763 47.9238 27.8882C45.6931 26.5648 43.0061 25.944 39.9348 25.944C36.8607 25.944 34.1709 26.5813 31.939 27.9383C29.7616 29.2317 28.0887 30.9844 26.9525 33.1843C25.8289 35.3294 25.2754 37.6846 25.2754 40.224C25.2754 42.021 25.5986 43.7448 26.2485 45.3853C26.8997 47.0291 27.8451 48.4892 29.079 49.7563L29.0857 49.7632L29.0925 49.77C30.3744 51.0509 31.9334 52.0535 33.7438 52.7905ZM51.2588 47.1275C50.7143 47.9147 50.0548 48.6342 49.2801 49.286C48.1445 50.2673 46.7942 51.0493 45.2289 51.632C43.6637 52.184 41.899 52.46 39.9348 52.46C37.8172 52.46 35.9297 52.138 34.2724 51.494C32.6151 50.8193 31.2187 49.9147 30.0832 48.78C28.9783 47.6453 28.1343 46.342 27.5512 44.87C26.9681 43.398 26.6765 41.8493 26.6765 40.224C26.6765 37.8933 27.1829 35.762 28.1957 33.83C29.2085 31.8673 30.697 30.3033 32.6612 29.138C34.6254 27.942 37.0499 27.344 39.9348 27.344C42.8197 27.344 45.2443 27.9267 47.2085 29.092C49.1727 30.2573 50.6612 31.7907 51.674 33.692C52.6867 35.5933 53.1931 37.6633 53.1931 39.902C53.1931 40.362 53.1624 40.8373 53.1011 41.328C53.0704 41.788 53.0243 42.202 52.963 42.57H35.9758C36.0132 43.0937 36.1134 43.5604 36.2764 43.97C36.3807 44.232 36.5107 44.4707 36.6663 44.686C37.096 45.2073 37.6177 45.5907 38.2315 45.836C38.876 46.0813 39.5359 46.204 40.211 46.204C41.1624 46.204 42.0525 45.9893 42.8811 45.56C43.6627 45.1695 44.2031 44.6395 44.5023 43.97C44.5321 43.9034 44.5594 43.8354 44.5844 43.766L51.9962 45.882C51.7798 46.3145 51.534 46.7296 51.2588 47.1275ZM37.9038 43.97H42.7817C42.6414 44.088 42.4683 44.201 42.2545 44.3078L42.2453 44.3124L42.2362 44.3171C41.6108 44.6412 40.9425 44.804 40.211 44.804C39.7138 44.804 39.2265 44.7151 38.7415 44.532C38.4251 44.404 38.1482 44.2202 37.9038 43.97ZM43.8018 37.326C43.742 36.8075 43.6237 36.3408 43.447 35.926C43.352 35.703 43.2401 35.495 43.1113 35.302C42.7737 34.75 42.3133 34.3207 41.7302 34.014C41.1778 33.7073 40.5333 33.554 39.7967 33.554C39.0602 33.554 38.4003 33.7073 37.8172 34.014C37.2648 34.3207 36.8044 34.75 36.4361 35.302C36.3181 35.495 36.215 35.703 36.127 35.926C35.9633 36.3408 35.8515 36.8075 35.7916 37.326H43.8018ZM39.7967 34.954C39.2673 34.954 38.8401 35.0612 38.4837 35.2456C38.191 35.4105 37.9339 35.6322 37.7105 35.926H41.8468C41.6522 35.6446 41.4017 35.4233 41.0777 35.2529L41.0636 35.2455L41.0498 35.2378C40.7376 35.0645 40.3349 34.954 39.7967 34.954ZM54.7556 26.404V53.4H66.3046V36.794H69.7172V53.4H81.2662V26.404H54.7556ZM71.1183 35.394H64.9035V52H56.1567V27.804H79.8651V52H71.1183V35.394ZM81.6973 43.3916V53.8807L83.119 53.8599C85.3046 53.8277 87.2469 53.5546 88.9195 53.0089C90.6488 52.4446 92.1209 51.4986 93.3051 50.1719L93.3113 50.165L93.3174 50.158C94.5053 48.7912 95.3675 47.0049 95.9576 44.8756C96.5461 42.752 96.9085 40.1601 97.0652 37.1253L97.0654 37.1221L97.0836 36.794H98.086V53.4H109.635V26.404H86.6837L86.2567 36.0577L86.2565 36.0629C86.1662 37.8038 86.0177 39.1886 85.8196 40.236C85.6227 41.2466 85.3625 41.9097 85.1001 42.313L85.0951 42.3207L85.0903 42.3284C84.8362 42.7303 84.5797 42.9401 84.3433 43.0513C84.0228 43.2019 83.5985 43.309 83.0375 43.3333L81.6973 43.3916ZM95.7582 35.394L95.6662 37.05C95.5127 40.0247 95.1598 42.5087 94.6073 44.502C94.0549 46.4953 93.2723 48.0747 92.2595 49.24C91.2467 50.3747 89.9884 51.1873 88.4846 51.678C87.3285 52.0552 86.0002 52.2965 84.4995 52.4018C84.048 52.4335 83.581 52.4529 83.0984 52.46V44.732C83.8043 44.7013 84.4181 44.5633 84.9398 44.318C85.4616 44.0727 85.9066 43.6587 86.2749 43.076C86.6738 42.4627 86.9807 41.604 87.1956 40.5C87.4104 39.3653 87.5639 37.9087 87.6559 36.13L88.0242 27.804H108.234V52H99.4871V35.394H95.7582ZM113.751 49.6376L113.764 49.6513L113.777 49.6647C115.06 50.9814 116.623 52.0044 118.441 52.7445C120.297 53.4998 122.384 53.86 124.678 53.86C126.998 53.86 129.089 53.5014 130.92 52.7426C132.739 52.0016 134.291 50.9758 135.546 49.6516C136.806 48.3248 137.752 46.8172 138.373 45.1352C139.017 43.4699 139.338 41.7223 139.338 39.902C139.338 38.0835 139.018 36.3374 138.374 34.6736C137.755 32.962 136.808 31.4489 135.54 30.1456C134.285 28.8246 132.735 27.801 130.92 27.0612C129.089 26.3025 126.998 25.944 124.678 25.944C122.384 25.944 120.297 26.3043 118.441 27.0595C116.623 27.7996 115.06 28.8226 113.777 30.1393L113.77 30.1462L113.764 30.1532C112.529 31.4558 111.586 32.9643 110.939 34.6667L110.936 34.674L110.934 34.6813C110.322 36.3439 110.019 38.0871 110.019 39.902C110.019 41.717 110.322 43.4602 110.934 45.1227L110.938 45.1345L110.942 45.1461C111.59 46.8143 112.528 48.3138 113.751 49.6376ZM112.249 44.64C112.832 46.1427 113.676 47.492 114.781 48.688C120.534 54.4365 133.043 54 137.062 44.64C137.645 43.1373 137.937 41.558 137.937 39.902C137.937 38.246 137.645 36.6667 137.062 35.164C136.51 33.6307 135.666 32.2813 134.53 31.116C133.425 29.9507 132.044 29.0307 130.387 28.356C128.76 27.6813 126.857 27.344 124.678 27.344C122.53 27.344 120.627 27.6813 118.97 28.356C117.313 29.0307 115.916 29.9507 114.781 31.116C113.676 32.2813 112.832 33.6307 112.249 35.164C111.696 36.6667 111.42 38.246 111.42 39.902C111.42 41.558 111.696 43.1373 112.249 44.64ZM127.135 37.7287L127.14 37.7383L127.144 37.7478C127.401 38.2826 127.559 38.985 127.559 39.902C127.559 40.8118 127.404 41.5361 127.14 42.1117C126.874 42.6609 126.535 43.0497 126.131 43.3239C125.732 43.5652 125.262 43.7 124.678 43.7C124.095 43.7 123.624 43.5652 123.226 43.3239C122.822 43.0497 122.483 42.6609 122.217 42.1117C121.953 41.5361 121.798 40.8118 121.798 39.902C121.798 38.985 121.956 38.2826 122.213 37.7478L122.217 37.7383L122.222 37.7287C122.494 37.1399 122.831 36.7706 123.206 36.5384L123.226 36.526L123.246 36.5129C123.644 36.2477 124.106 36.104 124.678 36.104C125.251 36.104 125.713 36.2477 126.111 36.5129L126.131 36.526L126.151 36.5384C126.526 36.7706 126.863 37.1399 127.135 37.7287ZM124.678 45.1C125.507 45.1 126.244 44.9007 126.888 44.502C127.533 44.0727 128.039 43.4747 128.407 42.708C128.776 41.9107 128.96 40.9753 128.96 39.902C128.96 38.8287 128.776 37.9087 128.407 37.142C128.039 36.3447 127.533 35.7467 126.888 35.348C126.244 34.9187 125.507 34.704 124.678 34.704C123.85 34.704 123.113 34.9187 122.469 35.348C121.824 35.7467 121.318 36.3447 120.95 37.142C120.581 37.9087 120.397 38.8287 120.397 39.902C120.397 40.9753 120.581 41.9107 120.95 42.708C121.318 43.4747 121.824 44.0727 122.469 44.502C123.113 44.9007 123.85 45.1 124.678 45.1ZM184.286 49.6376L184.299 49.6513L184.312 49.6647C185.595 50.9814 187.158 52.0044 188.977 52.7445C190.832 53.4998 192.92 53.86 195.214 53.86C197.533 53.86 199.624 53.5014 201.455 52.7426C203.274 52.0016 204.826 50.9758 206.082 49.6516C207.341 48.3248 208.288 46.8172 208.908 45.1352C209.553 43.4699 209.873 41.7223 209.873 39.902C209.873 38.0835 209.553 36.3374 208.91 34.6736C208.291 32.962 207.344 31.4489 206.075 30.1456C204.821 28.8246 203.271 27.801 201.455 27.0612C199.624 26.3025 197.533 25.944 195.214 25.944C192.92 25.944 190.832 26.3043 188.977 27.0595C187.158 27.7996 185.595 28.8226 184.312 30.1393L184.305 30.1462L184.299 30.1532C183.064 31.4558 182.122 32.9643 181.474 34.6667L181.472 34.674L181.469 34.6813C180.858 36.3438 180.554 38.087 180.554 39.902C180.554 41.717 180.858 43.4602 181.469 45.1227L181.473 45.1345L181.478 45.1461C182.125 46.8143 183.064 48.3138 184.286 49.6376ZM208.472 39.902C208.472 41.558 208.18 43.1373 207.597 44.64C204.599 53 192.089 55 185.316 48.688C184.211 47.492 183.367 46.1427 182.784 44.64C182.232 43.1373 181.955 41.558 181.955 39.902C181.955 38.246 182.232 36.6667 182.784 35.164C183.367 33.6307 184.211 32.2813 185.316 31.116C186.452 29.9507 187.848 29.0307 189.505 28.356C191.163 27.6813 193.065 27.344 195.214 27.344C197.393 27.344 199.296 27.6813 200.922 28.356C202.579 29.0307 203.96 29.9507 205.065 31.116C206.201 32.2813 207.045 33.6307 207.597 35.164C208.18 36.6667 208.472 38.246 208.472 39.902ZM197.67 37.7287L197.675 37.7383L197.679 37.7478C197.936 38.2826 198.094 38.985 198.094 39.902C198.094 40.8119 197.939 41.5363 197.675 42.1121C197.409 42.6611 197.07 43.0498 196.666 43.3239C196.268 43.5652 195.797 43.7 195.214 43.7C194.63 43.7 194.16 43.5652 193.761 43.3239C193.358 43.0498 193.018 42.6611 192.753 42.112C192.489 41.5363 192.333 40.8119 192.333 39.902C192.333 38.985 192.491 38.2826 192.748 37.7478L192.752 37.7383L192.757 37.7287C193.029 37.1399 193.366 36.7706 193.741 36.5384L193.762 36.526L193.781 36.5129C194.179 36.2477 194.641 36.104 195.214 36.104C195.786 36.104 196.248 36.2477 196.646 36.5129L196.666 36.526L196.686 36.5384C197.061 36.7706 197.398 37.1399 197.67 37.7287ZM197.423 44.502C198.068 44.0727 198.574 43.4747 198.943 42.708C199.311 41.9107 199.495 40.9753 199.495 39.902C199.495 38.8287 199.311 37.9087 198.943 37.142C198.574 36.3447 198.068 35.7467 197.423 35.348C196.779 34.9187 196.042 34.704 195.214 34.704C194.385 34.704 193.648 34.9187 193.004 35.348C192.359 35.7467 191.853 36.3447 191.485 37.142C191.117 37.9087 190.932 38.8287 190.932 39.902C190.932 40.9753 191.117 41.9107 191.485 42.708C191.853 43.4747 192.359 44.0727 193.004 44.502C193.648 44.9007 194.385 45.1 195.214 45.1C196.042 45.1 196.779 44.9007 197.423 44.502ZM210.259 26.404V53.4H221.808V44.568H225.451V53.4H237V26.404H225.451V34.638H221.808V26.404H210.259ZM226.852 43.168H220.407V52H211.66V27.804H220.407V36.038H226.852V27.804H235.599V52H226.852V43.168Z" fill="white"/>
<defs>
<linearGradient id="paint0_linear_3_20" x1="161.045" y1="15.388" x2="161.045" y2="67" gradientUnits="userSpaceOnUse">
<stop offset="0.379691" stop-color="#EB3218"/>
<stop offset="0.439246" stop-color="#D9281D"/>
</linearGradient>
<linearGradient id="paint1_linear_3_20" x1="118.5" y1="19.34" x2="118.5" y2="52.46" gradientUnits="userSpaceOnUse">
<stop offset="0.623614" stop-color="#EF9B17"/>
<stop offset="0.684371" stop-color="#EB8516"/>
</linearGradient>
<linearGradient id="paint2_linear_3_20" x1="118.5" y1="19.34" x2="118.5" y2="52.46" gradientUnits="userSpaceOnUse">
<stop offset="0.623614" stop-color="#EF9B17"/>
<stop offset="0.684371" stop-color="#EB8516"/>
</linearGradient>
<linearGradient id="paint3_linear_3_20" x1="118.5" y1="19.34" x2="118.5" y2="52.46" gradientUnits="userSpaceOnUse">
<stop offset="0.623614" stop-color="#EF9B17"/>
<stop offset="0.684371" stop-color="#EB8516"/>
</linearGradient>
<linearGradient id="paint4_linear_3_20" x1="118.5" y1="19.34" x2="118.5" y2="52.46" gradientUnits="userSpaceOnUse">
<stop offset="0.623614" stop-color="#EF9B17"/>
<stop offset="0.684371" stop-color="#EB8516"/>
</linearGradient>
<linearGradient id="paint5_linear_3_20" x1="118.5" y1="19.34" x2="118.5" y2="52.46" gradientUnits="userSpaceOnUse">
<stop offset="0.623614" stop-color="#EF9B17"/>
<stop offset="0.684371" stop-color="#EB8516"/>
</linearGradient>
<linearGradient id="paint6_linear_3_20" x1="118.5" y1="19.34" x2="118.5" y2="52.46" gradientUnits="userSpaceOnUse">
<stop offset="0.623614" stop-color="#EF9B17"/>
<stop offset="0.684371" stop-color="#EB8516"/>
</linearGradient>
<linearGradient id="paint7_linear_3_20" x1="118.5" y1="19.34" x2="118.5" y2="52.46" gradientUnits="userSpaceOnUse">
<stop offset="0.623614" stop-color="#EF9B17"/>
<stop offset="0.684371" stop-color="#EB8516"/>
</linearGradient>
</defs>
</svg>
