<svg width="80" height="80" viewBox="0 0 80 80" fill="none" xmlns="http://www.w3.org/2000/svg">
<path d="M40 0L40.9211 22.4241L44.1811 0.219124L42.7532 22.6167L48.3165 0.874096L44.5552 22.9997L52.3607 1.95774L46.3073 23.569L56.2695 3.45818L47.9902 24.3183L60 5.35898L49.5856 25.2394L63.5114 7.63932L51.076 26.3222L66.7652 10.2742L52.4451 27.5549L69.7258 13.2348L53.6778 28.924L72.3607 16.4886L54.7606 30.4144L74.641 20L55.6817 32.0098L76.5418 23.7305L56.431 33.6927L78.0423 27.6393L57.0003 35.4448L79.1259 31.6835L57.3833 37.2468L79.7809 35.8189L57.5759 39.0789L80 40L57.5759 40.9211L79.7809 44.1811L57.3833 42.7532L79.1259 48.3165L57.0003 44.5552L78.0423 52.3607L56.431 46.3073L76.5418 56.2695L55.6817 47.9902L74.641 60L54.7606 49.5856L72.3607 63.5114L53.6778 51.076L69.7258 66.7652L52.4451 52.4451L66.7652 69.7258L51.076 53.6778L63.5114 72.3607L49.5856 54.7606L60 74.641L47.9902 55.6817L56.2695 76.5418L46.3073 56.431L52.3607 78.0423L44.5552 57.0003L48.3165 79.1259L42.7532 57.3833L44.1811 79.7809L40.9211 57.5759L40 80L39.0789 57.5759L35.8189 79.7809L37.2468 57.3833L31.6835 79.1259L35.4448 57.0003L27.6393 78.0423L33.6927 56.431L23.7305 76.5418L32.0098 55.6817L20 74.641L30.4144 54.7606L16.4886 72.3607L28.924 53.6778L13.2348 69.7258L27.5549 52.4451L10.2742 66.7652L26.3222 51.076L7.63932 63.5114L25.2394 49.5856L5.35898 60L24.3183 47.9902L3.45818 56.2695L23.569 46.3073L1.95774 52.3607L22.9997 44.5552L0.874096 48.3165L22.6167 42.7532L0.219124 44.1811L22.4241 40.9211L0 40L22.4241 39.0789L0.219124 35.8189L22.6167 37.2468L0.874096 31.6835L22.9997 35.4448L1.95774 27.6393L23.569 33.6927L3.45818 23.7305L24.3183 32.0098L5.35898 20L25.2394 30.4144L7.63932 16.4886L26.3222 28.924L10.2742 13.2348L27.5549 27.5549L13.2348 10.2742L28.924 26.3222L16.4886 7.63932L30.4144 25.2394L20 5.35898L32.0098 24.3183L23.7305 3.45818L33.6927 23.569L27.6393 1.95774L35.4448 22.9997L31.6835 0.874096L37.2468 22.6167L35.8189 0.219124L39.0789 22.4241L40 0Z" fill="#FFCE33"/>
</svg>
