<svg width="150" height="23" viewBox="0 0 150 23" fill="none" xmlns="http://www.w3.org/2000/svg">
<path d="M0.55249 22.2117V2.20669H5.96294V9.63712H8.3026L13.2744 2.20669H19.416L12.9819 11.6376L19.8546 22.2117H13.713L8.59505 14.4955H5.96294V22.2117H0.55249Z" fill="url(#paint0_linear_1124_1230)"/>
<path d="M21.7947 20.497C20.4884 19.049 19.8352 17.1438 19.8352 14.7813C19.8352 12.4188 20.4884 10.5231 21.7947 9.09413C23.101 7.64615 24.69 6.92216 26.5617 6.92216C27.7705 6.92216 28.9111 7.33178 29.9835 8.15104C30.4319 8.51303 30.8023 8.91313 31.0948 9.35134H31.3873V7.35084H36.359V22.2117H31.3873V20.2112H31.0948C30.8218 20.6685 30.4514 21.0781 29.9835 21.4401C28.9306 22.2403 27.79 22.6404 26.5617 22.6404C24.69 22.6404 23.101 21.9259 21.7947 20.497ZM25.8306 12.0377C25.2457 12.6855 24.9532 13.6 24.9532 14.7813C24.9532 15.9625 25.2457 16.877 25.8306 17.5248C26.4155 18.1726 27.1954 18.4965 28.1702 18.4965C29.1451 18.4965 29.925 18.1726 30.5099 17.5248C31.0948 16.877 31.3873 15.9625 31.3873 14.7813C31.3873 13.6 31.0948 12.6855 30.5099 12.0377C29.925 11.3899 29.1451 11.0661 28.1702 11.0661C27.1954 11.0661 26.4155 11.3899 25.8306 12.0377Z" fill="url(#paint1_linear_1124_1230)"/>
<path d="M39.2699 22.2117V7.35084H44.2417V9.35134H44.5341C44.8071 8.87503 45.1385 8.47493 45.5285 8.15104C46.4838 7.33178 47.6147 6.92216 48.921 6.92216C50.5002 6.92216 51.7773 7.37942 52.7521 8.29393C53.1616 8.67498 53.493 9.12271 53.7465 9.63712H54.039C54.2729 9.14176 54.5946 8.69403 55.0041 8.29393C55.9399 7.37942 57.178 6.92216 58.7183 6.92216C60.512 6.92216 61.906 7.45562 62.9004 8.52256C63.9142 9.57044 64.4212 11.0851 64.4212 13.0666V22.2117H59.4494V13.781C59.4494 11.971 58.6695 11.0661 57.1098 11.0661C56.2714 11.0661 55.5987 11.3423 55.0918 11.8948C54.5849 12.4474 54.3314 13.219 54.3314 14.2097V22.2117H49.3596V13.781C49.3596 11.971 48.5798 11.0661 47.02 11.0661C46.1816 11.0661 45.509 11.3423 45.002 11.8948C44.4951 12.4474 44.2417 13.219 44.2417 14.2097V22.2117H39.2699Z" fill="url(#paint2_linear_1124_1230)"/>
<path d="M68.898 20.3255C67.2798 18.7823 66.4707 16.9342 66.4707 14.7813C66.4707 12.6283 67.2798 10.7803 68.898 9.23702C70.5163 7.69378 72.4855 6.92216 74.8057 6.92216C77.1648 6.92216 79.1438 7.69378 80.7425 9.23702C82.3413 10.7803 83.1407 12.6283 83.1407 14.7813V15.6386H71.5886C71.7446 16.6484 72.0956 17.4296 72.6415 17.9821C73.2069 18.5155 73.9283 18.7823 74.8057 18.7823C75.839 18.7823 76.6189 18.5251 77.1453 18.0107C77.3793 17.8011 77.5743 17.5343 77.7302 17.2104H82.9945C82.6435 18.2583 82.1171 19.1633 81.4152 19.9254C79.8749 21.7354 77.6718 22.6404 74.8057 22.6404C72.4855 22.6404 70.5163 21.8688 68.898 20.3255ZM71.7349 13.2094H77.8765C77.701 12.5236 77.3403 11.952 76.7944 11.4947C76.2485 11.0184 75.5856 10.7803 74.8057 10.7803C74.0258 10.7803 73.3629 11.0184 72.817 11.4947C72.271 11.952 71.9104 12.5236 71.7349 13.2094Z" fill="url(#paint3_linear_1124_1230)"/>
<path d="M84.4567 11.2089V7.35084H86.3577V4.20719H91.3295V7.35084H95.2776V11.2089H91.3295V18.3536H95.5701V22.2117H86.3577V11.2089H84.4567Z" fill="url(#paint4_linear_1124_1230)"/>
<path d="M97.7612 22.2117V7.35084H102.587V9.49423H102.879C103.055 9.03697 103.318 8.63687 103.669 8.29393C104.468 7.47468 105.443 7.06505 106.593 7.06505H108.143V11.7805H105.658C104.78 11.7805 104.069 12.0473 103.523 12.5807C102.996 13.0951 102.733 13.781 102.733 14.6384V22.2117H97.7612Z" fill="url(#paint5_linear_1124_1230)"/>
<path d="M109.896 3.34984C109.896 2.66395 110.159 2.09238 110.686 1.63512C111.212 1.15881 111.875 0.920654 112.674 0.920654C113.474 0.920654 114.137 1.15881 114.663 1.63512C115.189 2.09238 115.453 2.66395 115.453 3.34984C115.453 4.01667 115.189 4.58824 114.663 5.06455C114.137 5.54086 113.474 5.77901 112.674 5.77901C111.875 5.77901 111.212 5.54086 110.686 5.06455C110.159 4.58824 109.896 4.01667 109.896 3.34984ZM110.188 22.2117V7.35084H115.16V22.2117H110.188Z" fill="url(#paint6_linear_1124_1230)"/>
<path d="M119.906 20.3255C118.307 18.7632 117.508 16.9151 117.508 14.7813C117.508 12.6474 118.307 10.8088 119.906 9.2656C121.505 7.70331 123.435 6.92216 125.697 6.92216C128.524 6.92216 130.737 7.95099 132.335 10.0086C132.998 10.9232 133.466 11.9425 133.739 13.0666H128.621C128.504 12.7808 128.29 12.4474 127.978 12.0663C127.334 11.3995 126.574 11.0661 125.697 11.0661C124.839 11.0661 124.108 11.409 123.503 12.0949C122.918 12.7808 122.626 13.6762 122.626 14.7813C122.626 15.8863 122.918 16.7818 123.503 17.4677C124.108 18.1535 124.839 18.4965 125.697 18.4965C126.71 18.4965 127.49 18.1631 128.036 17.4962C128.251 17.2486 128.446 16.9151 128.621 16.496H133.739C133.466 17.6391 132.998 18.668 132.335 19.5825C130.795 21.6211 128.582 22.6404 125.697 22.6404C123.435 22.6404 121.505 21.8688 119.906 20.3255Z" fill="url(#paint7_linear_1124_1230)"/>
<path d="M135.069 17.3533H140.041C140.119 17.6391 140.284 17.9059 140.538 18.1535C141.064 18.668 141.825 18.9252 142.819 18.9252C144.184 18.9252 144.866 18.5917 144.866 17.9249C144.866 17.6201 144.671 17.3819 144.281 17.2104C143.891 17.0199 143.306 16.8294 142.527 16.6389C141.883 16.4865 141.464 16.3912 141.269 16.3531C141.074 16.315 140.665 16.2102 140.041 16.0387C139.417 15.8482 138.968 15.6863 138.695 15.5529C138.442 15.4005 138.081 15.1909 137.613 14.9242C137.165 14.6384 136.833 14.3526 136.619 14.0668C136.424 13.762 136.239 13.3904 136.063 12.9522C135.888 12.495 135.8 12.0091 135.8 11.4947C135.8 10.2373 136.375 9.16081 137.526 8.26535C138.676 7.36989 140.294 6.92216 142.38 6.92216C144.993 6.92216 147.06 7.76046 148.58 9.43707C149.185 10.1611 149.604 10.9898 149.838 11.9234H145.012C144.895 11.6186 144.759 11.3804 144.603 11.2089C144.155 10.7326 143.511 10.4945 142.673 10.4945C141.503 10.4945 140.918 10.8279 140.918 11.4947C140.918 11.8186 141.113 12.0663 141.503 12.2378C141.893 12.4092 142.488 12.5712 143.287 12.7236C145.295 13.1809 146.65 13.581 147.352 13.9239C149.107 14.7622 149.984 16.0483 149.984 17.782C149.984 19.1538 149.36 20.3065 148.112 21.24C146.884 22.1736 145.12 22.6404 142.819 22.6404C139.992 22.6404 137.837 21.764 136.356 20.0112C135.693 19.23 135.264 18.3441 135.069 17.3533Z" fill="url(#paint8_linear_1124_1230)"/>
<defs>
<linearGradient id="paint0_linear_1124_1230" x1="4.5" y1="8.50024" x2="138.5" y2="18.5002" gradientUnits="userSpaceOnUse">
<stop stop-color="#63CEC6"/>
<stop offset="1" stop-color="#8A91FB"/>
</linearGradient>
<linearGradient id="paint1_linear_1124_1230" x1="4.5" y1="8.50024" x2="138.5" y2="18.5002" gradientUnits="userSpaceOnUse">
<stop stop-color="#63CEC6"/>
<stop offset="1" stop-color="#8A91FB"/>
</linearGradient>
<linearGradient id="paint2_linear_1124_1230" x1="4.5" y1="8.50024" x2="138.5" y2="18.5002" gradientUnits="userSpaceOnUse">
<stop stop-color="#63CEC6"/>
<stop offset="1" stop-color="#8A91FB"/>
</linearGradient>
<linearGradient id="paint3_linear_1124_1230" x1="4.5" y1="8.50024" x2="138.5" y2="18.5002" gradientUnits="userSpaceOnUse">
<stop stop-color="#63CEC6"/>
<stop offset="1" stop-color="#8A91FB"/>
</linearGradient>
<linearGradient id="paint4_linear_1124_1230" x1="4.5" y1="8.50024" x2="138.5" y2="18.5002" gradientUnits="userSpaceOnUse">
<stop stop-color="#63CEC6"/>
<stop offset="1" stop-color="#8A91FB"/>
</linearGradient>
<linearGradient id="paint5_linear_1124_1230" x1="4.5" y1="8.50024" x2="138.5" y2="18.5002" gradientUnits="userSpaceOnUse">
<stop stop-color="#63CEC6"/>
<stop offset="1" stop-color="#8A91FB"/>
</linearGradient>
<linearGradient id="paint6_linear_1124_1230" x1="4.5" y1="8.50024" x2="138.5" y2="18.5002" gradientUnits="userSpaceOnUse">
<stop stop-color="#63CEC6"/>
<stop offset="1" stop-color="#8A91FB"/>
</linearGradient>
<linearGradient id="paint7_linear_1124_1230" x1="4.5" y1="8.50024" x2="138.5" y2="18.5002" gradientUnits="userSpaceOnUse">
<stop stop-color="#63CEC6"/>
<stop offset="1" stop-color="#8A91FB"/>
</linearGradient>
<linearGradient id="paint8_linear_1124_1230" x1="4.5" y1="8.50024" x2="138.5" y2="18.5002" gradientUnits="userSpaceOnUse">
<stop stop-color="#63CEC6"/>
<stop offset="1" stop-color="#8A91FB"/>
</linearGradient>
</defs>
</svg>
