<svg width="96" height="95" viewBox="0 0 96 95" fill="none" xmlns="http://www.w3.org/2000/svg">
<rect x="0.5" y="12.0908" width="82.9091" height="82.9091" rx="17.2727" fill="url(#paint0_linear_1124_1250)"/>
<path d="M43.8556 73.9092L41.0724 65.0535H28.2444L25.4612 73.9092H17.6176L30.2939 37.3986H39.276L51.9775 73.9092H43.8556ZM34.5699 44.3819L29.889 59.3353H39.4278L34.747 44.3819H34.5699ZM63.3634 73.9092H55.7222V37.3986H63.3634V73.9092Z" fill="white"/>
<rect x="67.8635" width="27.6364" height="27.6364" rx="13.8182" fill="#FF3421"/>
<path d="M79.9338 14.4999V13.1505H81.1213C81.6161 13.1505 82.0186 13.0156 82.329 12.7457C82.6394 12.4713 82.7946 12.1159 82.7946 11.6796C82.7946 11.2478 82.6416 10.9037 82.3358 10.6473C82.0344 10.3864 81.6296 10.256 81.1213 10.256C80.6175 10.256 80.2082 10.3887 79.8933 10.6541C79.5829 10.9194 79.412 11.2815 79.3805 11.7403H77.7544C77.7994 10.8452 78.1278 10.139 78.7395 9.62174C79.3513 9.09996 80.1632 8.83907 81.1752 8.83907C82.1199 8.83907 82.9048 9.08646 83.53 9.58125C84.1597 10.0715 84.4746 10.69 84.4746 11.4367C84.4746 12.008 84.3149 12.496 83.9956 12.9009C83.6807 13.3057 83.2534 13.5643 82.7136 13.6768V13.7915C83.3793 13.8679 83.9033 14.1176 84.2857 14.5404C84.6725 14.9632 84.8659 15.4985 84.8659 16.1462C84.8659 16.9829 84.5151 17.6778 83.8134 18.2311C83.1162 18.7844 82.2391 19.061 81.182 19.061C80.1339 19.061 79.2793 18.7934 78.6181 18.2581C77.9614 17.7228 77.6105 17.0099 77.5655 16.1193H79.2321C79.2681 16.5691 79.4637 16.9289 79.8191 17.1988C80.1744 17.4642 80.6332 17.5969 81.1955 17.5969C81.7533 17.5969 82.2076 17.4529 82.5584 17.1651C82.9138 16.8727 83.0914 16.4971 83.0914 16.0383C83.0914 15.5615 82.9183 15.1859 82.5719 14.9115C82.2256 14.6371 81.7533 14.4999 81.155 14.4999H79.9338Z" fill="white"/>
<defs>
<linearGradient id="paint0_linear_1124_1250" x1="41.9545" y1="12.0908" x2="41.9545" y2="94.9999" gradientUnits="userSpaceOnUse">
<stop stop-color="#63CEC6"/>
<stop offset="1" stop-color="#8C8EFD"/>
</linearGradient>
</defs>
</svg>
