<svg width="184" height="74" viewBox="0 0 184 74" fill="none" xmlns="http://www.w3.org/2000/svg">
<g clip-path="url(#clip0_371_326)">
<path fill-rule="evenodd" clip-rule="evenodd" d="M36.94 0.831909C56.8799 0.831909 73.0442 16.9233 73.0442 36.7735C73.0442 56.6236 56.8799 72.7156 36.94 72.7156C17 72.7156 0.835205 56.6236 0.835205 36.7735C0.835205 16.9233 17 0.831909 36.94 0.831909Z" fill="url(#paint0_linear_371_326)"/>
<path fill-rule="evenodd" clip-rule="evenodd" d="M36.94 3.93677C55.1574 3.93677 69.9253 18.6382 69.9253 36.7735C69.9253 54.9088 55.1574 69.6106 36.94 69.6106C18.7226 69.6106 3.95422 54.9088 3.95422 36.7735C3.95422 18.6382 18.7226 3.93677 36.94 3.93677Z" fill="url(#paint1_linear_371_326)"/>
<path fill-rule="evenodd" clip-rule="evenodd" d="M61.7407 34.9318C61.5613 33.9292 61.3749 32.9369 61.2463 31.9884C61.2307 31.8703 61.2151 31.7527 61.2008 31.6359C61.0727 30.5822 60.4808 30.7429 60.1878 31.0778C60.0383 31.2485 59.9138 31.4397 59.8004 31.6388C58.994 33.0559 58.9657 35.0563 59.1527 37.0566C59.2053 37.6243 59.365 38.6643 59.5708 39.7923C60.146 39.5063 60.7566 39.2909 61.3591 39.2293C61.4582 37.985 61.5544 36.7405 61.6814 35.4977C61.7005 35.3111 61.7202 35.1225 61.7407 34.9318ZM12.1386 34.9318C12.3181 33.9292 12.5044 32.9369 12.633 31.9884C12.6486 31.8703 12.6642 31.7527 12.6785 31.6359C12.8067 30.5822 13.3985 30.7429 13.6915 31.0778C13.8412 31.2485 13.9655 31.4397 14.0789 31.6388C14.8854 33.0559 14.9137 35.0563 14.7266 37.0566C14.674 37.6243 14.5144 38.6643 14.3086 39.7923C13.7333 39.5063 13.1227 39.2909 12.5202 39.2293C12.4211 37.985 12.325 36.7405 12.1979 35.4977C12.1789 35.3111 12.1591 35.1225 12.1386 34.9318ZM17.9348 36.9912C18.1628 36.7736 18.6108 37.2442 18.7595 37.6908C19.3651 39.5013 18.7323 41.7095 18.3967 43.2768C18.2662 43.0952 18.1311 42.9124 17.9903 42.7288C17.7853 42.4613 17.5575 42.1775 17.3139 41.8947C17.3491 41.8479 17.3741 41.7887 17.3884 41.7185C17.5987 40.6677 18.1306 38.0899 17.9348 36.9912ZM11.6509 39.3149C10.7156 39.5942 9.66838 40.0816 10.4056 41.6472C10.668 42.2343 11.7656 43.4085 12.2243 44.0119C12.7564 44.7224 13.2051 45.5923 13.6545 46.3675C14.382 47.621 15.3565 50.281 17.4941 49.425C16.6395 49.0842 16.017 48.4952 15.4981 47.8331C14.193 46.1694 13.6472 44.1195 11.8314 42.4389C11.4187 42.0567 11.1262 41.6259 10.9829 41.258C10.7248 40.5942 11.0202 40.3312 11.6716 40.1537C12.9607 39.8012 14.5926 40.8973 15.4353 41.5331C16.7297 42.5279 17.5815 43.539 18.63 44.8763C22.0376 49.2146 22.6273 46.8662 27.8535 48.7416C31.9001 50.1931 36.1107 55.7871 35.996 60.1417C35.9632 61.104 35.7175 62.0172 35.6847 63.0284C35.6556 64.0069 35.7545 65.0238 35.6654 65.9997C35.5729 67.0144 35.531 67.747 35.5179 68.2791C32.0503 68.1671 28.7233 67.5016 25.6242 66.366C25.3991 59.6096 26.1516 60.9812 18.6627 56.4069C12.8796 52.8842 13.0761 53.3898 10.3892 47.6163C9.52542 45.7516 8.9014 44.4344 8.46487 43.3443C8.42174 43.2365 8.38032 43.1308 8.34063 43.0268C7.67875 41.2905 7.563 40.675 7.86129 38.8529C8.5917 34.3961 7.55482 31.0583 8.48886 30.1329C9.43904 28.7957 10.5369 30.8995 10.7336 31.6823C11.2249 33.5906 11.4871 37.26 11.6509 39.3149ZM15.4934 33.0113C15.7211 32.5382 16.1423 32.6945 16.3743 32.9598C18.2015 35.0444 16.9677 38.8903 16.5043 41.2753C16.3318 41.129 16.1531 40.9844 15.9666 40.8424C15.6953 40.6356 15.394 40.4225 15.0719 40.2216C15.1178 40.1387 15.1506 40.0466 15.1689 39.9478C15.3359 39.0313 15.51 38.0638 15.5961 37.1372C15.7171 35.8432 15.7744 34.3642 15.4934 33.0113ZM55.9445 36.9912C55.7165 36.7736 55.2686 37.2442 55.1199 37.6908C54.5143 39.5013 55.1471 41.7095 55.4826 43.2768C55.6132 43.0952 55.7482 42.9124 55.889 42.7288C56.0941 42.4613 56.3218 42.1775 56.5654 41.8947C56.5303 41.8479 56.5052 41.7887 56.4909 41.7185C56.2806 40.6677 55.7488 38.0899 55.9445 36.9912ZM62.2284 39.3149C63.1637 39.5942 64.2109 40.0816 63.4738 41.6472C63.2114 42.2343 62.1137 43.4085 61.6551 44.0119C61.1229 44.7224 60.6742 45.5923 60.2248 46.3675C59.4973 47.621 58.5229 50.281 56.3853 49.425C57.2398 49.0842 57.8623 48.4952 58.3812 47.8331C59.6863 46.1694 60.2321 44.1195 62.0479 42.4389C62.4607 42.0567 62.7531 41.6259 62.8964 41.258C63.1545 40.5942 62.8591 40.3312 62.2078 40.1537C60.9186 39.8012 59.2868 40.8973 58.4442 41.5331C57.1497 42.5279 56.2978 43.539 55.2493 44.8763C51.8418 49.2146 51.2521 46.8662 46.0258 48.7416C41.9792 50.1931 37.7687 55.7871 37.8833 60.1417C37.9161 61.104 38.1618 62.0172 38.1946 63.0284C38.2237 64.0069 38.1248 65.0238 38.2139 65.9997C38.3064 67.0144 38.3484 67.747 38.3614 68.2791C41.8291 68.1671 45.156 67.5016 48.2551 66.366C48.4803 59.6096 47.7277 60.9812 55.2166 56.4069C60.9997 52.8842 60.8032 53.3898 63.4901 47.6163C64.3539 45.7516 64.9779 44.4344 65.4145 43.3443C65.4576 43.2365 65.499 43.1308 65.5387 43.0268C66.2006 41.2905 66.3163 40.675 66.018 38.8529C65.2876 34.3961 66.3245 31.0583 65.3905 30.1329C64.4403 28.7957 63.3424 30.8995 63.1458 31.6823C62.6544 33.5906 62.3923 37.26 62.2284 39.3149ZM58.386 33.0113C58.1582 32.5382 57.737 32.6945 57.5051 32.9598C55.6779 35.0444 56.9116 38.8903 57.375 41.2753C57.5476 41.129 57.7262 40.9844 57.9128 40.8424C58.1842 40.6356 58.4854 40.4225 58.8074 40.2216C58.7615 40.1387 58.7287 40.0466 58.7105 39.9478C58.5435 39.0313 58.3693 38.0638 58.2832 37.1372C58.1622 35.8432 58.1049 34.3642 58.386 33.0113Z" fill="#674237"/>
<path fill-rule="evenodd" clip-rule="evenodd" d="M40.7291 23.2962C39.7702 23.5954 38.4271 23.7814 36.94 23.7814C34.0263 23.7814 31.6642 23.0677 31.6642 22.1873C31.6642 21.3984 33.5577 20.7439 36.0459 20.6154C35.8868 20.8615 35.7545 21.1277 35.7227 21.4144C35.6857 21.7502 35.8451 22.1404 36.2115 22.3616C36.1413 22.1669 36.1154 21.9583 36.1328 21.7646C36.182 21.2189 36.4719 20.7347 36.7279 20.3078C36.8718 20.0669 37.0082 19.8396 37.0949 19.6205C37.2032 19.3444 37.237 19.1097 37.1982 18.9031C37.1546 18.6706 37.3129 18.4477 37.5525 18.4054C37.7917 18.3627 38.021 18.517 38.0651 18.7494C38.1338 19.1145 38.0849 19.499 37.9179 19.9255C37.8249 20.1607 37.6986 20.3858 37.5694 20.6039C38.8616 20.6503 40.0101 20.8378 40.842 21.1141C41.2406 20.991 41.706 21.1393 42.0119 21.4343C42.6244 22.026 42.9243 22.8986 42.8786 23.7391C42.8245 24.7507 42.2582 25.7919 42.4891 26.8096C42.5745 27.1858 44.2751 30.3502 42.2283 31.0763C42.2146 31.2056 42.2091 31.3347 42.216 31.4635H42.2162V31.465C42.2241 31.6118 42.2479 31.758 42.2942 31.9037C42.3964 32.2272 44.245 34.9543 42.2162 35.5728V44.0208H42.2154C42.2154 44.7874 41.0842 45.4535 39.4222 45.7911C40.027 45.7737 40.6538 45.7057 41.1814 45.5443C41.5113 45.4317 41.7969 45.3067 42.0371 45.1733C42.6418 44.8369 42.9573 44.4444 42.9576 44.0454H42.9586V41.6468C47.054 42.1692 50.8346 43.1323 50.8346 44.2348C50.8346 45.3003 48.2694 46.236 44.4016 46.7692C43.4018 48.102 41.2647 49.0087 36.94 49.0105C32.6154 49.0087 30.4783 48.102 29.4785 46.7692C25.6106 46.236 23.0456 45.3003 23.0456 44.2348C23.0456 43.5877 24.3482 42.9882 26.2522 42.4981C28.2646 41.9804 29.8914 41.8769 31.6644 41.7341V22.9922C32.4852 23.6949 34.336 24.1842 36.4877 24.1845C38.24 24.1845 39.7924 23.8592 40.7521 23.3596L40.7291 23.2962ZM36.5635 5.68872C37.8448 10.8782 34.5173 11.591 34.4851 15.7045C34.4734 17.2033 35.171 18.2447 36.1009 18.7427C35.6609 17.8332 36.2734 16.8973 36.7979 16.1145C37.2835 15.3928 37.5525 14.6003 37.6944 13.7805C37.6944 13.7805 39.1109 15.3055 38.9572 17.6654C38.9282 18.1152 38.7707 18.4756 38.5603 18.7487C39.5186 18.2309 40.5066 17.102 40.6189 15.3686C40.9526 10.2559 36.5635 5.68872 36.5635 5.68872Z" fill="#674237"/>
<path fill-rule="evenodd" clip-rule="evenodd" d="M36.9399 0C57.3413 0 73.8799 16.464 73.8799 36.7735C73.8799 57.0831 57.3413 73.5471 36.9399 73.5471C16.5385 73.5471 0 57.0831 0 36.7735C0 16.464 16.5385 0 36.9399 0ZM36.9399 2.67502C55.8576 2.67502 71.1927 17.9411 71.1927 36.7735C71.1927 55.606 55.8576 70.8728 36.9399 70.8728C18.0223 70.8728 2.68637 55.606 2.68637 36.7735C2.68637 17.9411 18.0223 2.67502 36.9399 2.67502Z" fill="#674237"/>
</g>
<path d="M106.43 40.2145C106.159 43.2082 105.099 45.5876 103.25 47.3525C101.4 49.1175 98.8631 50 95.6379 50C92.142 50 89.3227 48.8606 87.1801 46.5818C85.06 44.2806 84 41.2422 84 37.4665C84 33.8919 85.0713 30.9205 87.2139 28.5523C89.3791 26.1841 92.2548 25 95.8409 25C98.7052 25 101.107 25.8043 103.047 27.4129C104.987 29.0214 106.058 31.0657 106.261 33.5456H101.085C100.814 32.2274 100.205 31.2109 99.2578 30.496C98.3331 29.7587 97.1603 29.3901 95.7394 29.3901C94.2734 29.3901 93.0329 29.8034 92.018 30.63C91.0256 31.4343 90.3264 32.4285 89.9204 33.6126C89.5145 34.7967 89.3115 36.0925 89.3115 37.5C89.3115 39.9576 89.8866 41.9236 91.0369 43.3981C92.1871 44.8503 93.7321 45.5764 95.6717 45.5764C98.8969 45.5764 100.735 43.7891 101.186 40.2145H106.43Z" fill="#FFC35A"/>
<path d="M109.414 32.1381H119.462C121.108 32.1381 122.45 32.5067 123.488 33.244C124.525 33.9589 125.044 35.0424 125.044 36.4946C125.044 38.1479 124.255 39.332 122.676 40.0469C124.796 40.6501 125.856 42.0576 125.856 44.2694C125.856 45.9004 125.292 47.1738 124.165 48.0898C123.059 48.9835 121.65 49.4303 119.936 49.4303H109.414V32.1381ZM114.151 39.0751H117.331C119.225 39.0751 120.172 38.416 120.172 37.0979C120.172 36.3382 119.913 35.8244 119.394 35.5563C118.898 35.2882 118.21 35.1542 117.331 35.1542H114.151V39.0751ZM114.151 46.3472H117.703C118.695 46.3472 119.473 46.1908 120.037 45.878C120.601 45.5652 120.883 44.962 120.883 44.0684C120.883 43.1524 120.578 42.538 119.97 42.2252C119.361 41.9124 118.537 41.756 117.5 41.756H114.151V46.3472Z" fill="#FFC35A"/>
<path d="M145.316 44.0684C144.775 45.9227 143.771 47.3637 142.305 48.3914C140.862 49.4191 139.137 49.933 137.129 49.933C134.445 49.933 132.28 49.1063 130.634 47.4531C129.01 45.7998 128.198 43.6104 128.198 40.8847C128.198 38.2038 129.021 35.992 130.668 34.2493C132.314 32.5067 134.411 31.6354 136.96 31.6354C139.599 31.6354 141.696 32.529 143.253 34.3164C144.809 36.0813 145.587 38.483 145.587 41.5214V41.9906H133.07C133.092 43.4875 133.453 44.6269 134.152 45.4088C134.874 46.1908 135.877 46.5818 137.163 46.5818C138.855 46.5818 140.039 45.744 140.715 44.0684H145.316ZM140.715 38.9745C140.603 37.8351 140.23 36.908 139.599 36.193C138.967 35.4558 138.088 35.0871 136.96 35.0871C135.9 35.0871 135.02 35.4334 134.321 36.126C133.622 36.8186 133.205 37.7681 133.07 38.9745H140.715Z" fill="#FFC35A"/>
<path d="M159.296 39.3097V32.1381H164.066V49.4303H159.296V42.6273C157.221 43.1412 155.36 43.3981 153.714 43.3981C151.819 43.3981 150.365 42.8731 149.35 41.8231C148.357 40.7507 147.861 39.2761 147.861 37.3995V32.1381H152.631V36.4276C152.631 37.7011 152.812 38.5836 153.173 39.0751C153.556 39.5666 154.266 39.8123 155.304 39.8123C156.725 39.8123 158.055 39.6448 159.296 39.3097Z" fill="#FFC35A"/>
<path d="M184 49.4303H179.128C178.97 48.9835 178.858 48.4249 178.79 47.7547C177.324 49.2069 175.441 49.933 173.14 49.933C171.201 49.933 169.678 49.475 168.573 48.559C167.468 47.6206 166.915 46.336 166.915 44.7051C166.915 43.9678 167.006 43.3199 167.186 42.7614C167.389 42.2029 167.705 41.7337 168.133 41.3539C168.584 40.9741 169.002 40.6613 169.385 40.4155C169.791 40.1698 170.344 39.9687 171.043 39.8123C171.742 39.6559 172.306 39.5442 172.734 39.4772C173.163 39.3878 173.76 39.2985 174.527 39.2091C176.219 38.9857 177.347 38.7511 177.91 38.5054C178.497 38.2596 178.79 37.8016 178.79 37.1314C178.79 35.5898 177.741 34.819 175.644 34.819C174.539 34.819 173.727 35.0201 173.208 35.4223C172.689 35.8021 172.351 36.4835 172.193 37.4665H167.693C167.964 33.5791 170.659 31.6354 175.779 31.6354C180.854 31.6354 183.391 33.5121 183.391 37.2654V44.7386C183.391 46.9281 183.594 48.492 184 49.4303ZM178.756 41.0188C178.192 41.3539 177.065 41.6555 175.373 41.9236C173.952 42.147 173.027 42.4263 172.599 42.7614C172.103 43.1859 171.855 43.7668 171.855 44.504C171.855 45.2189 172.08 45.7887 172.531 46.2131C173.005 46.6153 173.659 46.8164 174.493 46.8164C175.779 46.8164 176.805 46.4812 177.572 45.811C178.361 45.1184 178.756 44.1689 178.756 42.9625V41.0188Z" fill="#FFC35A"/>
<defs>
<linearGradient id="paint0_linear_371_326" x1="23.6721" y1="74.1709" x2="45.882" y2="5.15102" gradientUnits="userSpaceOnUse">
<stop stop-color="#FECC00"/>
<stop offset="1" stop-color="#FFED00"/>
</linearGradient>
<linearGradient id="paint1_linear_371_326" x1="35.5123" y1="48.9086" x2="37.2222" y2="13.163" gradientUnits="userSpaceOnUse">
<stop stop-color="#FEFEFE"/>
<stop offset="1" stop-color="#FEFEFE"/>
</linearGradient>
<clipPath id="clip0_371_326">
<rect width="74" height="74" fill="white"/>
</clipPath>
</defs>
</svg>
