<svg width="28" height="25" viewBox="0 0 28 25" fill="none" xmlns="http://www.w3.org/2000/svg">
<path d="M24.1958 5.50452H22.9958C22.9798 5.44759 22.9583 5.39234 22.9318 5.33952L19.7958 0.460516C19.6527 0.237203 19.4267 0.0798776 19.1677 0.0231478C18.9086 -0.033582 18.6376 0.0149316 18.4143 0.158016C18.191 0.3011 18.0336 0.527034 17.9769 0.786116C17.9202 1.0452 17.9687 1.3162 18.1118 1.53952L20.6528 5.50452H6.53676L9.07776 1.53952C9.20819 1.31672 9.24741 1.05212 9.18719 0.801072C9.12698 0.550026 8.97202 0.331994 8.75472 0.192598C8.53742 0.0532024 8.27464 0.00324568 8.02135 0.0531816C7.76806 0.103118 7.54389 0.249076 7.39576 0.460516L4.26776 5.33952C4.24119 5.39234 4.21976 5.44759 4.20376 5.50452H2.99576C2.55796 5.50513 2.1256 5.60157 1.72902 5.78705C1.33245 5.97253 0.981279 6.24256 0.700161 6.57819C0.419042 6.91381 0.21479 7.3069 0.10174 7.72986C-0.0113089 8.15281 -0.0304147 8.59539 0.0457637 9.02652L2.33876 22.0175C2.46154 22.7124 2.8253 23.3417 3.36611 23.7949C3.90692 24.2481 4.59017 24.4962 5.29576 24.4955H21.8958C22.6012 24.4957 23.2841 24.2472 23.8245 23.7939C24.3649 23.3405 24.7283 22.7112 24.8508 22.0165L27.1438 9.02652C27.2199 8.59556 27.2009 8.15315 27.0879 7.73034C26.975 7.30753 26.7709 6.91454 26.49 6.57895C26.2091 6.24336 25.8582 5.97329 25.4619 5.78768C25.0655 5.60207 24.6334 5.50543 24.1958 5.50452ZM25.1808 8.67952L22.8828 21.6685C22.8421 21.9002 22.721 22.1101 22.5409 22.2614C22.3607 22.4126 22.133 22.4955 21.8978 22.4955H5.29576C5.06053 22.4955 4.83283 22.4126 4.65268 22.2614C4.47252 22.1101 4.35146 21.9002 4.31076 21.6685L2.01476 8.67952C1.98924 8.53593 1.99543 8.38849 2.03291 8.24755C2.07038 8.10661 2.13823 7.97557 2.2317 7.86362C2.32517 7.75167 2.44199 7.66152 2.57398 7.59948C2.70597 7.53745 2.84993 7.50504 2.99576 7.50452H24.1958C24.3419 7.50445 24.4864 7.53644 24.6188 7.59822C24.7513 7.66 24.8686 7.75007 24.9625 7.86209C25.0565 7.97411 25.1247 8.10536 25.1624 8.24659C25.2001 8.38782 25.2063 8.5356 25.1808 8.67952Z" fill="#111111"/>
<path d="M7.20714 11.2938C6.94686 11.3423 6.71648 11.4922 6.5665 11.7104C6.41653 11.9286 6.35922 12.1974 6.40714 12.4578L7.40714 17.9038C7.44942 18.1335 7.57076 18.3411 7.75013 18.4907C7.9295 18.6403 8.15558 18.7224 8.38914 18.7228C8.45022 18.723 8.51117 18.7173 8.57114 18.7058C8.83142 18.6572 9.06181 18.5074 9.21178 18.2891C9.36175 18.0709 9.41906 17.8022 9.37114 17.5418L8.37114 12.0968C8.32325 11.8359 8.17372 11.6048 7.95543 11.4542C7.73714 11.3036 7.46798 11.2459 7.20714 11.2938Z" fill="#111111"/>
<path d="M13.5938 11.2773C13.3285 11.2773 13.0742 11.3827 12.8866 11.5702C12.6991 11.7578 12.5938 12.0121 12.5938 12.2773V17.7223C12.5938 17.9876 12.6991 18.2419 12.8866 18.4295C13.0742 18.617 13.3285 18.7223 13.5938 18.7223C13.859 18.7223 14.1133 18.617 14.3009 18.4295C14.4884 18.2419 14.5938 17.9876 14.5938 17.7223V12.2773C14.5938 12.0121 14.4884 11.7578 14.3009 11.5702C14.1133 11.3827 13.859 11.2773 13.5938 11.2773Z" fill="#111111"/>
<path d="M19.9852 11.2939C19.7248 11.2459 19.456 11.3033 19.2378 11.4532C19.0196 11.6032 18.8698 11.8336 18.8212 12.0939L17.8212 17.5389C17.7733 17.7993 17.8306 18.068 17.9806 18.2862C18.1305 18.5045 18.3609 18.6543 18.6212 18.7029C18.6812 18.7144 18.7421 18.7201 18.8032 18.7199C19.0368 18.7195 19.2628 18.6374 19.4422 18.4878C19.6216 18.3382 19.7429 18.1306 19.7852 17.9009L20.7852 12.4549C20.8322 12.1949 20.7745 11.9269 20.6246 11.7094C20.4747 11.4919 20.2449 11.3425 19.9852 11.2939Z" fill="#111111"/>
</svg>
