<svg width="36" height="36" viewBox="0 0 36 36" fill="none" xmlns="http://www.w3.org/2000/svg">
<path d="M32.788 5.25621C30.7134 3.18154 27.955 2.03906 25.021 2.03906C22.4262 2.03906 19.9686 2.93285 17.9999 4.57455C16.0314 2.93285 13.5738 2.03906 10.979 2.03906C8.04501 2.03906 5.28663 3.18161 3.21196 5.25621C-1.07065 9.5389 -1.07065 16.5075 3.21196 20.7903L15.2563 32.8347C15.987 33.5652 16.9613 33.9675 18 33.9675C19.0387 33.9675 20.013 33.5652 20.7437 32.8346L32.788 20.7903C37.0706 16.5075 37.0706 9.53883 32.788 5.25621ZM31.296 19.2983L19.2517 31.3426C18.9196 31.6747 18.4751 31.8575 18 31.8575C17.5249 31.8575 17.0804 31.6747 16.7483 31.3426L4.704 19.2984C1.24406 15.8382 1.24406 10.2082 4.70393 6.74818C6.3801 5.07201 8.60865 4.14897 10.979 4.14897C13.3493 4.14897 15.5779 5.07201 17.254 6.74811C17.6659 7.16012 18.3339 7.16012 18.746 6.74811C20.4221 5.07194 22.6507 4.1489 25.0211 4.1489C27.3915 4.1489 29.62 5.07194 31.2961 6.74804C34.756 10.2082 34.756 15.8382 31.296 19.2983Z" fill="#E2007A"/>
</svg>
