<svg width="209" height="55" viewBox="0 0 209 55" fill="none" xmlns="http://www.w3.org/2000/svg">
<path d="M111.799 4.03613e-07C106.474 -0.000922804 101.269 1.58195 96.842 4.54844C92.4146 7.51494 88.9636 11.7318 86.9254 16.6658C84.8873 21.5997 84.3535 27.0291 85.3917 32.2674C86.4298 37.5056 88.9933 42.3174 92.7578 46.0942C96.5223 49.871 101.319 52.4432 106.541 53.4855C111.763 54.5277 117.175 53.9933 122.095 51.9497C127.014 49.9061 131.218 46.4451 134.176 42.0045C137.134 37.5639 138.713 32.3431 138.713 27.0023C138.713 19.8417 135.878 12.9742 130.83 7.91045C125.783 2.84667 118.937 0.0012382 111.799 4.03613e-07ZM111.799 43.8759C108.47 43.8768 105.215 42.8873 102.446 41.0325C99.6778 39.1778 97.5198 36.5411 96.2453 33.4559C94.9709 30.3708 94.6372 26.9758 95.2864 23.7005C95.9357 20.4251 97.5388 17.4164 99.8929 15.055C102.247 12.6936 105.246 11.0856 108.512 10.4343C111.777 9.78301 115.162 10.1177 118.237 11.3961C121.313 12.6746 123.941 14.8392 125.79 17.6163C127.639 20.3934 128.626 23.6581 128.625 26.9977C128.625 31.474 126.852 35.7671 123.697 38.9324C120.541 42.0976 116.261 43.8759 111.799 43.8759Z" fill="#111111"/>
<path d="M14.6624 45.911L11.4796 52.9124H0L23.9689 0H25.0578L49.5711 52.9124H37.2261L34.2014 45.911H14.6624ZM19.0039 35.7962H29.8646L24.5134 23.1095L19.0039 35.7962Z" fill="#111111"/>
<path d="M58.1649 52.9108V11.2007H46.918V1.08594H80.4214V11.2007H69.1838V52.9061L58.1649 52.9108Z" fill="#111111"/>
<path d="M175.173 33.9291L192.646 0H194.274L208.001 52.9124H196.508L189.528 26.6896L175.568 52.9124H174.033L160.282 26.6056L153.302 52.9078H142.367L156.09 0H157.718L175.173 33.9291Z" fill="#111111"/>
<path d="M111.798 33.7147C115.496 33.7147 118.494 30.7075 118.494 26.998C118.494 23.2884 115.496 20.2812 111.798 20.2812C108.1 20.2812 105.102 23.2884 105.102 26.998C105.102 30.7075 108.1 33.7147 111.798 33.7147Z" fill="#E2007A"/>
</svg>
