<svg width="42" height="41" viewBox="0 0 42 41" fill="none" xmlns="http://www.w3.org/2000/svg">
<g clip-path="url(#clip0_5_5076)">
<path d="M21.0229 16.3943C23.3674 16.3869 25.2346 14.5493 25.2261 12.2555C25.2167 9.96168 23.3464 8.13456 21.0011 8.13281C18.6361 8.13063 16.7474 9.99046 16.7658 12.3052C16.7832 14.5903 18.6714 16.4039 21.0229 16.3943Z" fill="#F9F9F9"/>
<path d="M39.766 -0.00140432H2.23409C1.00045 -0.00140432 1.23534 -0.00151399 4.58342e-05 -0.0390625V38.8177C4.58342e-05 40.0224 0 40.3776 0 40.9986H39.766C41.0001 40.9986 40.7648 40.9986 42 40.9986V-0.00140432C40.7648 -0.0014654 41.0001 -0.00140432 39.766 -0.00140432ZM21.0358 3.82206C25.8162 3.83384 29.6543 7.65208 29.6306 12.3719C29.6051 16.9822 25.7045 20.7193 20.9317 20.7036C16.2062 20.6879 12.3315 16.864 12.3583 12.2436C12.3865 7.57269 16.2639 3.80811 21.0358 3.82206ZM30.7195 24.0194C29.6623 25.0797 28.3898 25.8456 26.9761 26.3817C25.6397 26.8859 24.1755 27.1415 22.7261 27.3107C22.945 27.5436 23.0482 27.6566 23.184 27.7914C25.1518 29.7214 27.1276 31.6436 29.0886 33.5793C29.7561 34.2384 29.8973 35.0562 29.5287 35.8234C29.1261 36.6631 28.2258 37.214 27.342 37.1546C26.7826 37.1162 26.3466 36.8445 25.9596 36.4646C24.4744 35.0056 22.9611 33.5741 21.5072 32.0894C21.084 31.6567 20.8803 31.7374 20.5059 32.1138C19.0122 33.6151 17.4953 35.0933 15.9685 36.5628C15.2827 37.2231 14.4673 37.3413 13.6706 36.9649C12.8252 36.5649 12.2882 35.7227 12.3297 34.8752C12.3583 34.303 12.647 33.8659 13.0495 33.4734C14.9958 31.5756 16.9377 29.673 18.8804 27.7717C19.0095 27.6461 19.1293 27.5113 19.3165 27.3159C16.6673 27.046 14.2787 26.41 12.2346 24.8485C11.9812 24.6544 11.7189 24.4669 11.4866 24.2497C10.5921 23.4105 10.5023 22.4505 11.2105 21.4599C11.8155 20.6129 12.8333 20.3852 13.89 20.8715C14.0951 20.9653 14.2899 21.0835 14.4766 21.2096C18.287 23.7655 23.5223 23.8366 27.3474 21.3256C27.7258 21.0434 28.1311 20.8096 28.6011 20.6936C29.5149 20.4646 30.3647 20.7913 30.8553 21.5711C31.4169 22.4596 31.4093 23.3285 30.7195 24.0194Z" fill="#F9F9F9"/>
</g>
<defs>
<clipPath id="clip0_5_5076">
<rect width="42" height="41" rx="5" fill="white"/>
</clipPath>
</defs>
</svg>
