<svg width="20" height="20" viewBox="0 0 20 20" fill="none" xmlns="http://www.w3.org/2000/svg">
<path fill-rule="evenodd" clip-rule="evenodd" d="M16.1768 12.3809L16.1756 12.3809C15.5343 12.3815 14.9034 12.5437 14.3412 12.8524C13.9359 13.0749 13.5757 13.3685 13.2769 13.7176L7.53603 10.8506C7.65919 10.3019 7.65919 9.73246 7.53602 9.18374L13.274 6.31823C15.4631 8.92911 19.9833 7.46566 19.9999 3.82943L19.9999 3.82703C20.0002 3.26654 19.8774 2.71281 19.6402 2.20505C19.403 1.69728 19.0571 1.24786 18.6271 0.888617C18.1971 0.529376 17.6934 0.269101 17.1517 0.126249C16.6099 -0.0166035 16.0435 -0.0385316 15.4923 0.0620203C14.9412 0.162572 14.4189 0.383139 13.9624 0.708078C13.506 1.03302 13.1265 1.45437 12.8508 1.9423C12.5751 2.43023 12.4099 2.97282 12.3669 3.53166C12.3377 3.91164 12.3655 4.29285 12.4484 4.66278L6.70814 7.5294C6.40939 7.17971 6.04902 6.88568 5.64348 6.66275C5.08089 6.35348 4.44949 6.19102 3.80757 6.19038L3.79521 6.19037L3.78286 6.19088C-1.25372 6.39767 -1.26807 13.633 3.78252 13.8435L3.79505 13.844L3.80759 13.844C4.44951 13.8434 5.0809 13.6809 5.64349 13.3716C6.04903 13.1487 6.40939 12.8547 6.70814 12.505L12.4613 15.3781C12.2158 16.5262 12.428 17.5306 12.9558 18.3156C13.5471 19.195 14.4954 19.7419 15.4857 19.9279C16.4761 20.1139 17.5582 19.9482 18.4271 19.3365C19.3109 18.7142 19.9117 17.6742 19.9989 16.2432L20 16.225L20 16.2068C19.9988 15.1926 19.5957 14.2202 18.879 13.5029C18.1623 12.7856 17.1906 12.3821 16.1768 12.3809ZM15.2243 2.10574C15.5158 1.94139 15.844 1.85344 16.1785 1.84997C16.7009 1.85133 17.2017 2.05964 17.5713 2.42962C17.9409 2.79956 18.1492 3.301 18.1506 3.82434C18.128 5.91297 15.3378 6.54257 14.4129 4.70909C14.2665 4.40796 14.1984 4.07466 14.215 3.7401C14.2316 3.40443 14.333 3.07849 14.5095 2.79269C14.686 2.50689 14.932 2.27058 15.2243 2.10574ZM3.80696 11.994C3.28373 11.9933 2.78203 11.7849 2.41187 11.4144C2.04402 11.0462 1.83593 10.5477 1.83258 10.0271C1.93593 7.40358 5.67826 7.40389 5.78122 10.0271C5.77788 10.5477 5.5698 11.0462 5.20197 11.4144C4.83184 11.7849 4.33017 11.9932 3.80696 11.994ZM17.5713 17.6048C17.2016 17.9747 16.7008 18.1831 16.1784 18.1844C15.8435 18.1811 15.5148 18.093 15.223 17.9282C14.9304 17.7629 14.6845 17.526 14.5082 17.2396C14.332 16.9531 14.2313 16.6265 14.2155 16.2904C14.1998 15.9551 14.2692 15.6213 14.4172 15.3201C15.3393 13.4927 18.131 14.1244 18.1506 16.2097C18.1493 16.7332 17.941 17.2348 17.5713 17.6048Z" fill="#E2007A"/>
</svg>
