<svg width="31" height="32" viewBox="0 0 31 32" fill="none" xmlns="http://www.w3.org/2000/svg">
<mask id="path-1-inside-1_5_4222" fill="white">
<path fill-rule="evenodd" clip-rule="evenodd" d="M31 31.0283H0C0.353168 22.7729 7.15765 16.1885 15.5 16.1885C23.8424 16.1885 30.6468 22.7729 31 31.0283Z"/>
</mask>
<path d="M0 31.0283L-1.99817 30.9428L-2.08739 33.0283H0V31.0283ZM31 31.0283V33.0283H33.0874L32.9982 30.9428L31 31.0283ZM0 33.0283H31V29.0283H0V33.0283ZM1.99817 31.1138C2.30575 23.9241 8.23358 18.1885 15.5 18.1885V14.1885C6.08171 14.1885 -1.59941 21.6217 -1.99817 30.9428L1.99817 31.1138ZM15.5 18.1885C22.7664 18.1885 28.6943 23.9241 29.0018 31.1138L32.9982 30.9428C32.5994 21.6217 24.9183 14.1885 15.5 14.1885V18.1885Z" fill="#111111" mask="url(#path-1-inside-1_5_4222)"/>
<circle cx="15.5005" cy="6.74539" r="5.74539" stroke="#111111" stroke-width="2"/>
</svg>
