<svg width="41" height="41" viewBox="0 0 41 41" fill="none" xmlns="http://www.w3.org/2000/svg">
<path d="M5 0C2.23858 0 0 2.23858 0 5V36C0 38.7614 2.23858 41 5 41H36C38.7614 41 41 38.7614 41 36V5C41 2.23858 38.7614 0 36 0H5ZM29.9062 22.8469L33.4669 26.9383C33.9221 27.4614 33.5506 28.2773 32.8572 28.2773H28.8389C28.204 28.2773 27.5923 28.0369 27.1274 27.6045L25.9374 26.498C24.5946 25.3231 24.0238 24.9201 23.4867 24.9201C22.9496 24.9201 22.8153 25.3229 22.8153 26.3637C22.8153 27.4043 22.6139 28.2773 19.5254 28.2773C16.4369 28.2773 14.0198 25.9609 11.3006 22.3689C8.62355 18.8325 7.41069 15.0358 7.37376 14.919C7.3726 14.9153 7.3723 14.9144 7.37118 14.9107C7.22566 14.4293 7.58604 13.9427 8.09011 13.9427H11.3057C11.9173 13.9427 12.4743 14.2962 12.7308 14.8514C12.9941 15.4213 13.4469 16.3007 14.2213 17.6018C15.3204 19.4482 16.3762 20.2799 16.9743 20.6341C17.197 20.766 17.4778 20.603 17.4778 20.3441V15.9155C17.4778 15.3359 17.2685 14.776 16.8881 14.3388L16.4348 13.8175C16.3176 13.6827 16.4134 13.4727 16.592 13.4727H21.674C22.4527 13.4727 23.0839 14.1039 23.0839 14.8826V20.0329C23.0839 20.3647 23.5146 20.4945 23.6979 20.2181L27.3556 14.7056C27.644 14.271 28.131 14.0096 28.6524 14.0096H32.946C33.5328 14.0096 33.8897 14.6559 33.5773 15.1526L29.778 21.1913C29.451 21.7112 29.5031 22.3836 29.9062 22.8469Z" fill="#F9F9F9"/>
</svg>
