<svg width="48" height="48" viewBox="0 0 48 48" fill="none" xmlns="http://www.w3.org/2000/svg">
<g clip-path="url(#clip0_4_84)">
<path fill-rule="evenodd" clip-rule="evenodd" d="M16.428 3.83998C16.3441 3.8467 16.262 3.86752 16.185 3.9015L0.452996 10.7339C0.331622 10.7864 0.226285 10.8702 0.147664 10.9765C0.069043 11.0828 0.0199331 11.208 0.00531297 11.3394C-0.00930713 11.4709 0.0110824 11.6039 0.0644147 11.7249C0.117747 11.8459 0.202126 11.9506 0.308996 12.0285L7.059 16.9364L0.308996 21.8429C0.201753 21.9207 0.117035 22.0257 0.0634624 22.1469C0.00989013 22.268 -0.0106239 22.4012 0.00400766 22.5329C0.0186392 22.6645 0.0678942 22.79 0.14676 22.8965C0.225627 23.003 0.331289 23.0866 0.452996 23.1389L7.5015 26.199V37.1925C7.50081 37.2505 7.50685 37.3083 7.5195 37.3649C7.47995 37.5381 7.50318 37.7198 7.58504 37.8775C7.66691 38.0351 7.80208 38.1586 7.9665 38.2259L23.691 44.9386C23.7213 44.9501 23.7524 44.9595 23.784 44.9669C23.791 44.967 23.798 44.967 23.805 44.9669C23.8149 44.9722 23.8249 44.9772 23.835 44.9819C23.8543 44.9877 23.8738 44.9927 23.8935 44.997C23.8985 44.997 23.9035 44.997 23.9085 44.997C23.91 44.997 23.9115 44.997 23.913 44.997C23.9619 45.0018 24.0111 45.0018 24.06 44.997C24.0817 44.9929 24.1032 44.9879 24.1245 44.9819C24.1285 44.982 24.1325 44.982 24.1365 44.9819C24.142 44.982 24.1475 44.982 24.153 44.9819C24.1722 44.9777 24.1912 44.9727 24.21 44.9669C24.2334 44.9601 24.2564 44.9521 24.279 44.9429C24.2891 44.9382 24.2991 44.9332 24.309 44.9279L40.035 38.2155C40.2006 38.1486 40.3369 38.0248 40.4194 37.8665C40.5019 37.7081 40.5251 37.5254 40.485 37.3514C40.4964 37.2956 40.5014 37.2389 40.5 37.182V26.1256L47.55 23.064C47.671 23.0114 47.7761 22.9278 47.8544 22.8216C47.9328 22.7154 47.9818 22.5904 47.9964 22.4592C48.011 22.3281 47.9907 22.1954 47.9376 22.0745C47.8845 21.9537 47.8005 21.8489 47.694 21.7709L40.683 16.674C40.681 16.669 40.6791 16.664 40.677 16.659C40.675 16.654 40.673 16.649 40.671 16.644L46.9995 12.0435C47.1064 11.9656 47.1907 11.8609 47.2441 11.7399C47.2974 11.6189 47.3178 11.4859 47.3032 11.3544C47.2886 11.223 47.2394 11.0979 47.1608 10.9915C47.0822 10.8852 46.9769 10.8014 46.8555 10.7489L31.1265 3.91798C31.0343 3.87703 30.9348 3.85514 30.834 3.85353C30.6724 3.85179 30.5146 3.90222 30.384 3.99745L23.673 8.87703L16.923 3.97044C16.7802 3.86546 16.6048 3.81453 16.428 3.82652V3.83998ZM16.3905 5.4525L22.5165 9.90755L8.298 15.987L2.253 11.5919L16.3905 5.4525ZM30.921 5.47639L45.057 11.6159L39.288 15.8085L25.071 9.72902L30.921 5.47639ZM24.0015 10.9049L38.07 16.9214L24 22.9395L19.4715 21.0045L13.656 18.519L9.924 16.9214L24.0015 10.9049ZM39.7275 17.8485L45.7485 22.2254L31.6125 28.3649L25.5075 23.9265L39.7275 17.8485ZM8.331 17.8724L13.068 19.8974L18.8835 22.3831L22.545 23.9505L16.3905 28.4279L2.2545 22.2869L8.3295 17.8724H8.331ZM24.7515 25.2315L31.08 29.8305C31.1853 29.9071 31.3087 29.955 31.4381 29.9695C31.5675 29.984 31.6984 29.9644 31.818 29.9129L39.0015 26.793V37.041L24.7515 43.1234V25.2315ZM23.2515 25.2901V43.1234L9.0015 37.041V26.8545L16.185 29.9744C16.3046 30.0259 16.4355 30.0455 16.5649 30.031C16.6943 30.0166 16.8177 29.9687 16.923 29.892L23.2515 25.2901ZM30.7125 33.5985C30.71 33.5984 30.7075 33.5984 30.705 33.5985C30.6128 33.6033 30.5223 33.6252 30.438 33.6629L26.448 35.3685C26.3574 35.4073 26.2753 35.4635 26.2064 35.5341C26.1376 35.6046 26.0833 35.6881 26.0466 35.7796C26.01 35.8711 25.9918 35.9689 25.9929 36.0675C25.9941 36.166 26.0147 36.2634 26.0535 36.354C26.0923 36.4446 26.1486 36.5267 26.2191 36.5955C26.2896 36.6644 26.373 36.7188 26.4645 36.7554C26.5561 36.792 26.6539 36.8102 26.7525 36.809C26.851 36.8079 26.9484 36.7872 27.039 36.7484L31.026 35.043C31.1921 34.9781 31.3296 34.8562 31.414 34.6991C31.4983 34.542 31.5239 34.36 31.4861 34.1857C31.4484 34.0114 31.3498 33.8562 31.208 33.7481C31.0662 33.6399 30.8906 33.5859 30.7125 33.5955V33.5985ZM34.701 34.6215C34.698 34.6215 34.695 34.6215 34.692 34.6215C34.5998 34.6264 34.5093 34.6482 34.425 34.6859L30.438 36.3899L26.448 38.0955C26.3532 38.1313 26.2665 38.1858 26.1934 38.2559C26.1202 38.3261 26.062 38.4103 26.0223 38.5035C25.9826 38.5967 25.9622 38.6971 25.9624 38.7985C25.9625 38.8998 25.9832 39 26.0232 39.0931C26.0631 39.1862 26.1216 39.2704 26.1949 39.3403C26.2683 39.4102 26.3551 39.4645 26.45 39.5C26.5449 39.5354 26.6461 39.5512 26.7473 39.5465C26.8485 39.5417 26.9478 39.5166 27.039 39.4725L31.026 37.77L35.0145 36.0645C35.1796 35.9989 35.3161 35.8766 35.3996 35.7197C35.483 35.5629 35.5081 35.3816 35.4703 35.208C35.4325 35.0343 35.3342 34.8797 35.193 34.7718C35.0519 34.6639 34.877 34.6095 34.6995 34.6185L34.701 34.6215Z" fill="white"/>
</g>
<defs>
<clipPath id="clip0_4_84">
<rect width="48" height="48" fill="white"/>
</clipPath>
</defs>
</svg>
