<svg width="48" height="48" viewBox="0 0 48 48" fill="none" xmlns="http://www.w3.org/2000/svg">
<path fill-rule="evenodd" clip-rule="evenodd" d="M20.1367 3.00003C20.1323 2.99999 20.1278 2.99999 20.1234 3.00003C20.0956 3.00413 20.068 3.00966 20.0407 3.01658C19.9712 3.02722 19.9034 3.04662 19.8388 3.0744L0.708459 11.2508C0.580914 11.2721 0.46014 11.323 0.355833 11.3994C0.251526 11.4757 0.166587 11.5755 0.107837 11.6906C0.105572 11.6961 0.103369 11.7016 0.101223 11.7072C0.00748175 11.8787 -0.022419 12.0778 0.0168342 12.2693V36.8829C0.0169797 36.9167 0.0191926 36.9502 0.0234552 36.9837C0.0234001 36.9892 0.0234001 36.9947 0.0234552 37.0002C0.0262236 37.0174 0.0295353 37.0345 0.0333837 37.0515C0.0572022 37.1891 0.115519 37.3185 0.202899 37.4275C0.290278 37.5365 0.403868 37.6215 0.533067 37.6747L19.8388 45.9257C19.9311 45.9652 20.0298 45.9875 20.1301 45.9917C20.1422 45.992 20.1543 45.992 20.1665 45.9917C20.1676 45.9917 20.1687 45.9917 20.1698 45.9917C20.178 45.9918 20.1863 45.9918 20.1946 45.9917C20.2056 45.9919 20.2166 45.9919 20.2277 45.9917C20.2448 45.9923 20.2619 45.9923 20.279 45.9917C20.3632 45.984 20.4458 45.9634 20.5238 45.9306L31.0239 41.4415C31.8207 42.8253 32.968 43.9752 34.3506 44.7754C35.7331 45.5757 37.3021 45.9979 38.8997 46C43.9165 46 48 41.9193 48 36.9059C48 32.387 44.6776 28.6386 40.3475 27.9425V12.3272C40.3801 12.2057 40.3846 12.0783 40.3605 11.9548C40.3364 11.8313 40.2844 11.7149 40.2085 11.6145C40.1448 11.5189 40.0619 11.4377 39.9651 11.3759C39.8682 11.3142 39.7595 11.2733 39.646 11.2558L20.5238 3.08106C20.4552 3.05104 20.3829 3.03048 20.3087 3.01991C20.301 3.0198 20.2933 3.0198 20.2856 3.01991C20.2652 3.01915 20.2448 3.01915 20.2244 3.01991C20.1952 3.01836 20.1659 3.01836 20.1367 3.01991V3.00003ZM20.1813 4.72464L24.2384 6.45581L7.0472 13.802C7.03152 13.8093 7.01606 13.8171 7.00087 13.8253L2.9405 12.0909L20.1813 4.72464ZM26.3447 7.35692L31.2638 9.45847L13.7516 16.9421C13.5842 17.013 13.4448 17.1372 13.355 17.2953C13.2653 17.4534 13.2302 17.6368 13.2552 17.8168C13.2538 17.8383 13.2533 17.8597 13.2536 17.8812V26.724L11.46 24.0355C11.3482 23.8676 11.1788 23.7463 10.9838 23.6946C10.7887 23.6428 10.5815 23.6641 10.4011 23.7543L8.28979 24.8075V15.072L26.3447 7.35692ZM33.3635 10.3562L37.4222 12.0909L20.1813 19.4602L16.1276 17.7258L33.3155 10.3795C33.3323 10.3723 33.3489 10.3645 33.3651 10.3562H33.3635ZM1.67143 13.3491L6.6352 15.4688V26.1485C6.63535 26.2893 6.67145 26.4277 6.7401 26.5506C6.80874 26.6735 6.90765 26.7769 7.02745 26.8509C7.14726 26.925 7.28399 26.9672 7.42469 26.9737C7.56539 26.9801 7.70541 26.9504 7.83148 26.8877L10.4871 25.56L13.3462 29.8456C13.4229 29.9942 13.5428 30.1163 13.6902 30.1954C13.8376 30.2745 14.0055 30.3071 14.1719 30.2889C14.2008 30.2849 14.2295 30.2793 14.2579 30.2723C14.2667 30.2724 14.2756 30.2724 14.2844 30.2723C14.3028 30.2674 14.321 30.2619 14.339 30.2558C14.4174 30.2305 14.4915 30.1937 14.559 30.1466C14.6834 30.06 14.7815 29.9411 14.8428 29.8026C14.9041 29.6641 14.9261 29.5114 14.9065 29.3612V19.0073L19.354 20.907V43.9166L1.67143 36.3569V13.354V13.3491ZM38.6929 13.3491V27.8119C36.6739 27.861 34.7284 28.5793 33.1623 29.8537C31.5962 31.1281 30.4982 32.8865 30.0411 34.8524L28.0026 35.7205L23.1778 37.7839C22.976 37.8699 22.8165 38.0324 22.7346 38.2359C22.6527 38.4393 22.655 38.6669 22.741 38.8686C22.827 39.0703 22.9897 39.2296 23.1932 39.3115C23.3968 39.3933 23.6246 39.3912 23.8264 39.3052L28.6512 37.2416L29.8061 36.7505C29.8061 36.7985 29.7995 36.8465 29.7995 36.8961C29.7995 37.9609 29.9947 38.9794 30.3323 39.9285L21.0086 43.9134V20.9037L38.6929 13.3507V13.3491ZM38.8997 29.4538C43.0213 29.4538 46.3454 32.7773 46.3454 36.8944C46.3454 41.0149 43.0213 44.335 38.8997 44.335C37.9215 44.3368 36.9525 44.1454 36.0484 43.7721C35.1442 43.3988 34.3227 42.8509 33.631 42.1596C32.9392 41.4683 32.3909 40.6473 32.0173 39.7438C31.6437 38.8403 31.4523 37.872 31.4541 36.8944C31.4541 32.7773 34.7782 29.4538 38.8997 29.4538ZM28.3004 32.3523C28.1976 32.3572 28.0966 32.3815 28.0026 32.4235L23.1778 34.4869C23.0716 34.5249 22.9742 34.5841 22.8918 34.6611C22.8093 34.738 22.7435 34.8311 22.6983 34.9344C22.6531 35.0377 22.6296 35.1492 22.6291 35.262C22.6286 35.3747 22.6512 35.4865 22.6956 35.5902C22.7399 35.6939 22.8049 35.7872 22.8868 35.8649C22.9686 35.9425 23.0654 36.0026 23.1713 36.0415C23.2773 36.0803 23.39 36.0972 23.5027 36.0909C23.6153 36.0846 23.7255 36.0554 23.8264 36.0049L28.6512 33.9446C28.8325 33.8714 28.982 33.7364 29.0732 33.5635C29.1644 33.3906 29.1914 33.1912 29.1493 33.0004C29.1073 32.8095 28.999 32.6396 28.8436 32.521C28.6882 32.4024 28.4957 32.3426 28.3004 32.3523ZM43.8205 33.2038C43.6332 33.2032 43.4511 33.2662 43.3043 33.3824L36.8861 38.2766L34.7236 35.6311C34.5849 35.4612 34.3843 35.3534 34.166 35.3312C33.9478 35.309 33.7296 35.3743 33.5595 35.5129C33.3895 35.6514 33.2815 35.852 33.2593 36.0701C33.2371 36.2883 33.3026 36.5063 33.4412 36.6763L36.6181 40.5619L44.3086 34.697C44.449 34.594 44.5533 34.4492 44.6066 34.2834C44.6599 34.1177 44.6594 33.9393 44.6053 33.7738C44.5512 33.6083 44.4462 33.4642 44.3053 33.3619C44.1644 33.2595 43.9947 33.2041 43.8205 33.2038Z" fill="#222222"/>
</svg>
