<svg width="48" height="48" viewBox="0 0 48 48" fill="none" xmlns="http://www.w3.org/2000/svg">
<path d="M6.75 42H41.25C43.317 42 45 40.317 45 38.25V15.75C45 13.683 43.317 12 41.25 12H33.585L32.796 8.841C32.5939 8.02903 32.1258 7.30809 31.4663 6.79318C30.8067 6.27827 29.9937 5.99903 29.157 6H18.8415C18.0049 5.9991 17.1922 6.2784 16.5329 6.79332C15.8736 7.30825 15.4058 8.02915 15.204 8.841L14.415 12H6.75C5.7558 12.0012 4.80267 12.3967 4.09966 13.0997C3.39666 13.8027 3.00119 14.7558 3 15.75V38.25C3 40.317 4.683 42 6.75 42ZM41.25 40.5H6.75C5.5095 40.5 4.5 39.4905 4.5 38.25V22.755L20.25 27.4215V32.25C20.25 32.4489 20.329 32.6397 20.4697 32.7803C20.6103 32.921 20.8011 33 21 33H27C27.1989 33 27.3897 32.921 27.5303 32.7803C27.671 32.6397 27.75 32.4489 27.75 32.25V27.4215L43.5 22.755V38.25C43.5 39.4905 42.4905 40.5 41.25 40.5ZM24 30C23.8011 30 23.6103 30.079 23.4697 30.2197C23.329 30.3603 23.25 30.5511 23.25 30.75V31.5H21.75V28.5H26.25V31.5H24.75V30.75C24.75 30.5511 24.671 30.3603 24.5303 30.2197C24.3897 30.079 24.1989 30 24 30ZM26.25 26.8605V27H21.75V25.5H26.25V26.8605ZM16.659 9.204C16.7803 8.7168 17.0613 8.28427 17.4572 7.97542C17.853 7.66657 18.3409 7.4992 18.843 7.5H29.1585C29.6604 7.49972 30.1481 7.66729 30.5438 7.97606C30.9396 8.28483 31.2207 8.71706 31.3425 9.204L32.04 12H15.96L16.659 9.204ZM4.5 15.75C4.5 14.5095 5.5095 13.5 6.75 13.5H41.25C42.4905 13.5 43.5 14.5095 43.5 15.75V21.189L27.75 25.8555V24.75C27.75 24.5511 27.671 24.3603 27.5303 24.2197C27.3897 24.079 27.1989 24 27 24H21C20.8011 24 20.6103 24.079 20.4697 24.2197C20.329 24.3603 20.25 24.5511 20.25 24.75V25.857L4.5 21.189V15.75Z" fill="white"/>
</svg>
