<svg width="16" height="16" viewBox="0 0 16 16" fill="none" xmlns="http://www.w3.org/2000/svg">
<path d="M15.8031 0.196912C15.5405 -0.0656362 15.1149 -0.0656366 14.8523 0.196912L8 7.04923L1.14768 0.196911C0.885135 -0.0656371 0.45946 -0.0656371 0.196911 0.196911C-0.0656372 0.45946 -0.0656371 0.885135 0.196911 1.14768L7.04923 8L0.196911 14.8523C-0.0656378 15.1149 -0.0656376 15.5405 0.196911 15.8031C0.45946 16.0656 0.885134 16.0656 1.14768 15.8031L8 8.95077L14.8523 15.8031C15.1149 16.0656 15.5405 16.0656 15.8031 15.8031C16.0656 15.5405 16.0656 15.1149 15.8031 14.8523L8.95077 8L15.8031 1.14768C16.0656 0.885136 16.0656 0.459461 15.8031 0.196912Z" fill="white"/>
</svg>
