<svg width="48" height="48" viewBox="0 0 48 48" fill="none" xmlns="http://www.w3.org/2000/svg">
<path d="M4.17087 34.8763V45.5679C4.17087 45.9469 4.4779 46.2536 4.85659 46.2536C5.23527 46.2536 5.5423 45.9469 5.5423 45.5679V34.8763C7.09801 34.7954 8.34174 33.5158 8.34174 31.9406V27.2283C8.34174 25.6525 7.09801 24.3729 5.5423 24.292V2.43214C5.5423 2.05313 5.23527 1.74643 4.85659 1.74643C4.4779 1.74643 4.17087 2.05313 4.17087 2.43214V24.292C2.61517 24.3729 1.37143 25.6525 1.37143 27.2283V31.9406C1.37143 33.5158 2.61517 34.7954 4.17087 34.8763ZM2.74286 27.2283C2.74286 26.3571 3.45167 25.648 4.32288 25.648H5.39029C6.2615 25.648 6.97031 26.3571 6.97031 27.2283V31.9406C6.97031 32.8118 6.2615 33.5203 5.39029 33.5203H4.32288C3.45167 33.5203 2.74286 32.8118 2.74286 31.9406V27.2283Z" fill="white"/>
<path d="M4.85658 28.9996C5.23527 28.9996 5.5423 28.6929 5.5423 28.3138V28.1263C5.5423 27.7473 5.23527 27.4406 4.85658 27.4406C4.4779 27.4406 4.17087 27.7473 4.17087 28.1263V28.3138C4.17087 28.6929 4.4779 28.9996 4.85658 28.9996ZM4.85658 31.7283C5.23527 31.7283 5.5423 31.4217 5.5423 31.0426V30.8545C5.5423 30.4754 5.23527 30.1687 4.85658 30.1687C4.4779 30.1687 4.17087 30.4754 4.17087 30.8545V31.0426C4.17087 31.4217 4.4779 31.7283 4.85658 31.7283ZM14.4281 46.2536C14.8068 46.2536 15.1138 45.9469 15.1138 45.5679V21.4654C16.6695 21.3845 17.9133 20.1049 17.9133 18.529V13.8174C17.9133 12.2416 16.6695 10.962 15.1138 10.881V2.43214C15.1138 2.05313 14.8068 1.74643 14.4281 1.74643C14.0494 1.74643 13.7424 2.05313 13.7424 2.43214V10.881C12.1869 10.9621 10.9433 12.2417 10.9433 13.8174V18.529C10.9433 20.1047 12.1869 21.3843 13.7424 21.4654V45.5679C13.7424 45.9469 14.0494 46.2536 14.4281 46.2536ZM12.3147 18.529V13.8174C12.3147 12.9462 13.0235 12.2371 13.8948 12.2371H14.9618C15.833 12.2371 16.5419 12.9462 16.5419 13.8174V18.529C16.5419 19.4002 15.833 20.1094 14.9618 20.1094H13.8948C13.0235 20.1094 12.3147 19.4002 12.3147 18.529Z" fill="white"/>
<path d="M14.4281 15.5886C14.8068 15.5886 15.1138 15.2819 15.1138 14.9029V14.7154C15.1138 14.3364 14.8068 14.0297 14.4281 14.0297C14.0494 14.0297 13.7424 14.3364 13.7424 14.7154V14.9029C13.7424 15.2819 14.0494 15.5886 14.4281 15.5886ZM14.4281 18.3174C14.8068 18.3174 15.1138 18.0107 15.1138 17.6317V17.4435C15.1138 17.0645 14.8068 16.7578 14.4281 16.7578C14.0494 16.7578 13.7424 17.0645 13.7424 17.4435V17.6317C13.7424 18.0107 14.0494 18.3174 14.4281 18.3174ZM24 46.2536C24.3787 46.2536 24.6857 45.9469 24.6857 45.5679V33.4185C26.2414 33.3376 27.4851 32.058 27.4851 30.4821V25.7705C27.4851 24.1947 26.2414 22.9151 24.6857 22.8342V2.43214C24.6857 2.05313 24.3787 1.74643 24 1.74643C23.6213 1.74643 23.3143 2.05313 23.3143 2.43214V22.8342C21.7586 22.9151 20.5148 24.1947 20.5148 25.7705V30.4821C20.5148 32.058 21.7586 33.3376 23.3143 33.4185V45.5679C23.3143 45.9469 23.6213 46.2536 24 46.2536ZM21.8863 30.4821V25.7705C21.8863 24.8993 22.5951 24.1902 23.4663 24.1902H24.5337C25.4049 24.1902 26.1137 24.8993 26.1137 25.7705V30.4821C26.1137 31.3533 25.4049 32.0625 24.5337 32.0625H23.4663C22.5951 32.0625 21.8863 31.3533 21.8863 30.4821Z" fill="white"/>
<path d="M24 27.5417C24.3787 27.5417 24.6857 27.235 24.6857 26.856V26.6685C24.6857 26.2895 24.3787 25.9828 24 25.9828C23.6213 25.9828 23.3143 26.2895 23.3143 26.6685V26.856C23.3143 27.235 23.6213 27.5417 24 27.5417ZM24 30.2699C24.3787 30.2699 24.6857 29.9632 24.6857 29.5842V29.3967C24.6857 29.0176 24.3787 28.7109 24 28.7109C23.6213 28.7109 23.3143 29.0176 23.3143 29.3967V29.5842C23.3143 29.9632 23.6213 30.2699 24 30.2699ZM33.5719 46.2536C33.9505 46.2536 34.2576 45.9469 34.2576 45.5679V20.1951C35.8131 20.114 37.0567 18.8344 37.0567 17.2587V12.5471C37.0567 10.9714 35.8131 9.69183 34.2576 9.61071V2.43214C34.2576 2.05313 33.9505 1.74643 33.5719 1.74643C33.1932 1.74643 32.8861 2.05313 32.8861 2.43214V9.61071C31.3304 9.69166 30.0867 10.9713 30.0867 12.5471V17.2587C30.0867 18.8345 31.3304 20.1141 32.8861 20.1951V45.5679C32.8861 45.9469 33.1932 46.2536 33.5719 46.2536ZM31.4581 17.2587V12.5471C31.4581 11.6759 32.1669 10.9667 33.0382 10.9667H34.1052C34.9764 10.9667 35.6853 11.6759 35.6853 12.5471V17.2587C35.6853 18.1299 34.9764 18.8391 34.1052 18.8391H33.0382C32.1669 18.8391 31.4581 18.1299 31.4581 17.2587Z" fill="white"/>
<path d="M33.5719 14.3183C33.9506 14.3183 34.2576 14.0116 34.2576 13.6326V13.4451C34.2576 13.0661 33.9506 12.7594 33.5719 12.7594C33.1932 12.7594 32.8862 13.0661 32.8862 13.4451V13.6326C32.8862 14.0116 33.1932 14.3183 33.5719 14.3183ZM33.5719 17.0464C33.9506 17.0464 34.2576 16.7397 34.2576 16.3607V16.1732C34.2576 15.7942 33.9506 15.4875 33.5719 15.4875C33.1932 15.4875 32.8862 15.7942 32.8862 16.1732V16.3607C32.8862 16.7397 33.1932 17.0464 33.5719 17.0464ZM43.8291 28.5268V2.43214C43.8291 2.05313 43.5221 1.74643 43.1434 1.74643C42.7647 1.74643 42.4577 2.05313 42.4577 2.43214V28.5268C40.902 28.6077 39.6583 29.8873 39.6583 31.4625V36.1748C39.6583 37.7499 40.902 39.0295 42.4577 39.1105V45.5679C42.4577 45.9469 42.7647 46.2536 43.1434 46.2536C43.5221 46.2536 43.8291 45.9469 43.8291 45.5679V39.1105C45.3848 39.0295 46.6286 37.7499 46.6286 36.1748V31.4625C46.6286 29.8873 45.3848 28.6077 43.8291 28.5268ZM45.2572 36.1748C45.2572 37.046 44.5483 37.7545 43.6771 37.7545H42.6097C41.7385 37.7545 41.0297 37.046 41.0297 36.1748V31.4625C41.0297 30.5913 41.7385 29.8828 42.6097 29.8828H43.6771C44.5483 29.8828 45.2572 30.5913 45.2572 31.4625V36.1748Z" fill="white"/>
<path d="M43.1434 31.6748C42.7647 31.6748 42.4577 31.9815 42.4577 32.3605V32.548C42.4577 32.927 42.7647 33.2337 43.1434 33.2337C43.5221 33.2337 43.8291 32.927 43.8291 32.548V32.3605C43.8291 31.9815 43.5221 31.6748 43.1434 31.6748ZM43.1434 34.4036C42.7647 34.4036 42.4577 34.7103 42.4577 35.0893V35.2768C42.4577 35.6558 42.7647 35.9625 43.1434 35.9625C43.5221 35.9625 43.8291 35.6558 43.8291 35.2768V35.0893C43.8291 34.7103 43.5221 34.4036 43.1434 34.4036Z" fill="white"/>
</svg>
