<svg width="48" height="48" viewBox="0 0 48 48" fill="none" xmlns="http://www.w3.org/2000/svg">
<path fill-rule="evenodd" clip-rule="evenodd" d="M43.5 33.4C44.1075 33.4 44.6 33.8925 44.6 34.5L44.6 43.5C44.6 44.1075 44.1075 44.6 43.5 44.6L34.5 44.6C33.8925 44.6 33.4 44.1075 33.4 43.5C33.4 42.8925 33.8925 42.4 34.5 42.4L42.4 42.4L42.4 34.5C42.4 33.8925 42.8925 33.4 43.5 33.4Z" fill="#222222"/>
<path fill-rule="evenodd" clip-rule="evenodd" d="M44.259 44.2962C43.8192 44.7154 43.123 44.6987 42.7038 44.259C41.5436 43.0419 40.4005 41.764 39.2432 40.4702C32.6035 33.0473 25.4946 25.1 12 25.1L4.5 25.1C3.89249 25.1 3.40001 24.6075 3.40001 24C3.40001 23.3925 3.89249 22.9 4.5 22.9L12 22.9C26.5557 22.9 34.3707 31.6756 40.9967 39.116C42.1218 40.3793 43.2125 41.6042 44.2962 42.7411C44.7154 43.1808 44.6987 43.8771 44.259 44.2962Z" fill="#222222"/>
<path fill-rule="evenodd" clip-rule="evenodd" d="M43.5 3.40002C44.1075 3.40002 44.6 3.89251 44.6 4.50002L44.6 13.5C44.6 14.1075 44.1075 14.6 43.5 14.6C42.8925 14.6 42.4 14.1075 42.4 13.5L42.4 5.60002L34.5 5.60002C33.8925 5.60002 33.4 5.10754 33.4 4.50002C33.4 3.89251 33.8925 3.40002 34.5 3.40002L43.5 3.40002Z" fill="#222222"/>
<path fill-rule="evenodd" clip-rule="evenodd" d="M44.259 3.70381C44.6987 4.12298 44.7154 4.81926 44.2962 5.259C43.2125 6.39586 42.1218 7.62072 40.9967 8.88407C34.3707 16.3245 26.5557 25.1 12 25.1C11.3925 25.1 10.9 24.6075 10.9 24C10.9 23.3925 11.3925 22.9 12 22.9C25.4946 22.9 32.6035 14.9527 39.2432 7.5299C40.4005 6.23606 41.5436 4.95816 42.7038 3.74106C43.123 3.30132 43.8192 3.28464 44.259 3.70381Z" fill="#222222"/>
</svg>
