<svg width="48" height="48" viewBox="0 0 48 48" fill="none" xmlns="http://www.w3.org/2000/svg">
<path d="M46.5 4.5H21C20.8011 4.5 20.6103 4.57902 20.4697 4.71967C20.329 4.86032 20.25 5.05109 20.25 5.25V8.25C20.25 8.44891 20.329 8.63968 20.4697 8.78033C20.6103 8.92098 20.8011 9 21 9H22.5V22.5H1.5C1.30109 22.5 1.11032 22.579 0.96967 22.7197C0.829018 22.8603 0.75 23.0511 0.75 23.25V27C0.75 27.1989 0.829018 27.3897 0.96967 27.5303C1.11032 27.671 1.30109 27.75 1.5 27.75H22.5V39C21.9033 39 21.331 39.2371 20.909 39.659C20.4871 40.081 20.25 40.6533 20.25 41.25V42.75C20.25 42.9489 20.329 43.1397 20.4697 43.2803C20.6103 43.421 20.8011 43.5 21 43.5H46.5C46.6989 43.5 46.8897 43.421 47.0303 43.2803C47.171 43.1397 47.25 42.9489 47.25 42.75V41.25C47.25 40.6533 47.0129 40.081 46.591 39.659C46.169 39.2371 45.5967 39 45 39V9H46.5C46.6989 9 46.8897 8.92098 47.0303 8.78033C47.171 8.63968 47.25 8.44891 47.25 8.25V5.25C47.25 5.05109 47.171 4.86032 47.0303 4.71967C46.8897 4.57902 46.6989 4.5 46.5 4.5ZM12.3105 24H14.6895L12.4395 26.25H10.0605L12.3105 24ZM7.9395 26.25H5.5605L7.8105 24H10.1895L7.9395 26.25ZM16.8105 24H19.1895L16.9395 26.25H14.5605L16.8105 24ZM2.25 24H5.6895L3.4395 26.25H2.25V24ZM19.0605 26.25L21.3105 24H22.5V26.25H19.0605ZM45.75 41.25V42H21.75V41.25C21.75 41.0511 21.829 40.8603 21.9697 40.7197C22.1103 40.579 22.3011 40.5 22.5 40.5H45C45.1989 40.5 45.3897 40.579 45.5303 40.7197C45.671 40.8603 45.75 41.0511 45.75 41.25ZM43.5 39H24V9H43.5V39ZM45.75 7.5H21.75V6H45.75V7.5Z" fill="white"/>
<path d="M26.25 27H41.25C41.4489 27 41.6397 26.921 41.7803 26.7803C41.921 26.6397 42 26.4489 42 26.25V23.25C42 23.0511 41.921 22.8603 41.7803 22.7197C41.6397 22.579 41.4489 22.5 41.25 22.5V11.25C41.25 11.0511 41.171 10.8603 41.0303 10.7197C40.8897 10.579 40.6989 10.5 40.5 10.5H27C26.8011 10.5 26.6103 10.579 26.4697 10.7197C26.329 10.8603 26.25 11.0511 26.25 11.25V22.5C26.0511 22.5 25.8603 22.579 25.7197 22.7197C25.579 22.8603 25.5 23.0511 25.5 23.25V26.25C25.5 26.4489 25.579 26.6397 25.7197 26.7803C25.8603 26.921 26.0511 27 26.25 27ZM40.5 25.5H27V24H40.5V25.5ZM39.75 12V18H27.75V12H39.75ZM27.75 19.5H39.75V22.5H27.75V19.5ZM26.25 36H41.25C41.4489 36 41.6397 35.921 41.7803 35.7803C41.921 35.6397 42 35.4489 42 35.25V29.25C42 29.0511 41.921 28.8603 41.7803 28.7197C41.6397 28.579 41.4489 28.5 41.25 28.5H26.25C26.0511 28.5 25.8603 28.579 25.7197 28.7197C25.579 28.8603 25.5 29.0511 25.5 29.25V35.25C25.5 35.4489 25.579 35.6397 25.7197 35.7803C25.8603 35.921 26.0511 36 26.25 36ZM27 30H40.5V34.5H27V30Z" fill="white"/>
<path d="M39 31.5H28.5V33H39V31.5Z" fill="white"/>
</svg>
