<svg width="48" height="48" viewBox="0 0 48 48" fill="none" xmlns="http://www.w3.org/2000/svg">
<g clip-path="url(#clip0_8_234)">
<path d="M39.5297 5.85641H43.8121C44.3218 5.85641 44.7351 5.4431 44.7351 4.93333C44.7351 4.42356 44.3218 4.01026 43.8121 4.01026H28.1214C27.6973 2.1228 26.0109 0.705566 23.9934 0.705566C21.9801 0.705566 20.2974 2.1228 19.8741 4.01026H4.17474C3.66497 4.01026 3.25166 4.42356 3.25166 4.93333C3.25166 5.4431 3.66497 5.85641 4.17474 5.85641H8.44965L0.971014 26.7176C0.937904 26.8099 0.916931 26.9603 0.916931 27.029C0.916931 31.9103 4.88418 35.8816 9.76008 35.8816H9.76954C14.6043 35.8816 18.5402 31.9758 18.6065 27.1511C18.6122 27.1094 18.6312 27.0724 18.6312 27.029C18.6312 26.8555 18.5834 26.6932 18.5 26.5544L11.0712 5.85641H19.876C20.0983 6.8547 20.6661 7.74324 21.4909 8.34602L20.2704 40.8585H11.2064C9.04659 40.8585 6.73213 43.8112 6.35263 46.2279C6.31071 46.4948 6.38733 46.7661 6.56312 46.9712C6.73844 47.1763 6.99446 47.2944 7.26444 47.2944H40.7061C40.9761 47.2944 41.2321 47.1763 41.4079 46.9712C41.5832 46.7661 41.6599 46.4943 41.6179 46.2279C41.238 43.8107 38.9235 40.8585 36.7637 40.8585H27.7253L26.4959 8.35143C27.327 7.74059 27.8961 6.85172 28.1191 5.85641H36.9082L29.4295 26.7176C29.3964 26.8099 29.3755 26.9603 29.3755 27.029C29.3755 31.9103 33.3427 35.8816 38.2186 35.8816H38.2281C43.0628 35.8816 46.9984 31.9758 47.0646 27.1511C47.0855 26.9992 47.1211 26.8253 46.9581 26.5549L39.5297 5.85641ZM39.1417 10.2412L44.8356 26.106H39.1417V10.2412ZM23.9934 2.55172C25.3118 2.55172 26.384 3.61993 26.384 4.93333C26.384 6.42881 24.9922 7.63486 23.4132 7.2501C22.3762 6.9927 21.6118 6.04646 21.6118 4.93333C21.6118 3.61993 22.68 2.55172 23.9934 2.55172ZM8.83699 10.2467V26.106H3.1516L8.83699 10.2467ZM9.76954 34.0355H9.76007C6.21425 34.0355 3.27644 31.3808 2.82347 27.9521H16.7061C16.2536 31.3808 13.3154 34.0355 9.76954 34.0355ZM10.6831 26.106V10.241L16.3776 26.106H10.6831ZM39.4743 45.4482H8.49625C9.1205 44.0023 10.4163 42.7047 11.2064 42.7047C15.3371 42.7059 32.6058 42.7049 36.7637 42.7047C37.5533 42.7047 38.8496 44.0023 39.4743 45.4482ZM22.118 40.8585L23.3096 9.11513C23.4383 9.136 23.7693 9.17012 23.9934 9.17012C24.2013 9.17012 24.4071 9.15046 24.6109 9.12082C24.6328 9.11766 24.6553 9.11907 24.6771 9.11557L25.8778 40.8585H22.118V40.8585ZM37.2955 10.2467V26.106H31.6101L37.2955 10.2467ZM38.2281 34.0355H38.2186C34.6728 34.0355 31.735 31.3808 31.282 27.9521H45.1642C44.7117 31.3808 41.7734 34.0355 38.2281 34.0355Z" fill="white"/>
</g>
<defs>
<clipPath id="clip0_8_234">
<rect width="48" height="48" fill="white"/>
</clipPath>
</defs>
</svg>
