<svg width="48" height="48" viewBox="0 0 48 48" fill="none" xmlns="http://www.w3.org/2000/svg">
<path d="M40.3027 9.86256L38.0874 7.66982C37.2327 6.82341 36.2179 6.15198 35.101 5.69388C33.984 5.23578 32.7869 5 31.5778 5C30.3688 5 29.1716 5.23578 28.0547 5.69388C26.9378 6.15198 25.923 6.82341 25.0683 7.66982L20.6349 12.0567C20.3854 12.3124 20.2473 12.6549 20.2504 13.0105C20.2535 13.3661 20.3976 13.7062 20.6516 13.9576C20.9056 14.209 21.2492 14.3516 21.6084 14.3547C21.9677 14.3578 22.3137 14.2211 22.5721 13.9741L27.0054 9.58728C27.6058 8.99279 28.3186 8.5212 29.1032 8.19945C29.8877 7.8777 30.7286 7.71209 31.5778 7.71209C32.4271 7.71209 33.268 7.8777 34.0525 8.19945C34.837 8.5212 35.5499 8.99279 36.1502 9.58728L38.3655 11.78C38.9661 12.3743 39.4426 13.0798 39.7676 13.8564C40.0927 14.6329 40.26 15.4653 40.26 16.3058C40.26 17.1464 40.0927 17.9788 39.7676 18.7553C39.4426 19.5319 38.9661 20.2374 38.3655 20.8317L31.7183 27.4126C31.1178 28.0071 30.4048 28.4788 29.6202 28.8005C28.8355 29.1223 27.9945 29.2879 27.1452 29.2879C26.2958 29.2879 25.4548 29.1223 24.6702 28.8005C23.8855 28.4788 23.1726 28.0071 22.5721 27.4126L20.3554 25.2199C20.2291 25.0903 20.0779 24.987 19.9107 24.916C19.7436 24.8449 19.5638 24.8075 19.3819 24.8059C19.2 24.8044 19.0196 24.8387 18.8512 24.9069C18.6829 24.975 18.5299 25.0757 18.4013 25.2031C18.2726 25.3304 18.1709 25.4818 18.102 25.6484C18.0331 25.8151 17.9985 25.9937 18.0001 26.1737C18.0016 26.3538 18.0394 26.5317 18.1112 26.6972C18.183 26.8626 18.2874 27.0122 18.4182 27.1373L20.6349 29.3301C21.4897 30.1765 22.5047 30.848 23.6217 31.3061C24.7388 31.7642 25.936 32 27.1452 32C28.3543 32 29.5516 31.7642 30.6687 31.3061C31.7857 30.848 32.8006 30.1765 33.6554 29.3301L40.3027 22.7491C41.1578 21.9031 41.8362 20.8987 42.299 19.7931C42.7618 18.6875 43 17.5026 43 16.3058C43 15.1091 42.7618 13.9241 42.299 12.8186C41.8362 11.713 41.1578 10.7086 40.3027 9.86256Z" fill="white"/>
<path d="M25.4566 34.0269L21.0171 38.4142C19.8027 39.6146 18.1557 40.289 16.4383 40.289C14.721 40.289 13.0739 39.6146 11.8596 38.4142L9.6398 36.2213C8.42545 35.0208 7.74325 33.3927 7.74325 31.695C7.74325 29.9973 8.42545 28.3692 9.6398 27.1687L16.2991 20.5872C17.5135 19.3867 19.1605 18.7124 20.8778 18.7124C22.5952 18.7124 24.2422 19.3867 25.4566 20.5872L27.675 22.7801C27.9337 23.0271 28.2803 23.1638 28.64 23.1608C28.9997 23.1577 29.3438 23.015 29.5982 22.7636C29.8525 22.5121 29.9968 22.172 29.9999 21.8164C30.0031 21.4608 29.8648 21.1182 29.6149 20.8625L27.3965 18.6695C26.5405 17.8232 25.5243 17.1518 24.4058 16.6938C23.2873 16.2358 22.0885 16 20.8778 16C19.6672 16 18.4684 16.2358 17.3499 16.6938C16.2314 17.1518 15.2152 17.8232 14.3592 18.6695L7.69991 25.2497C5.97118 26.9588 5 29.2767 5 31.6936C5 34.1105 5.97118 36.4284 7.69991 38.1375L9.91967 40.3305C10.7757 41.1768 11.7919 41.8482 12.9104 42.3062C14.0289 42.7643 15.2277 43 16.4383 43C17.649 43 18.8478 42.7643 19.9663 42.3062C21.0847 41.8482 22.101 41.1768 22.957 40.3305L27.3965 35.9432C27.6464 35.6875 27.7847 35.3449 27.7816 34.9893C27.7784 34.6337 27.6342 34.2936 27.3798 34.0421C27.1254 33.7907 26.7813 33.648 26.4216 33.6449C26.0619 33.6419 25.7154 33.7785 25.4566 34.0256V34.0269Z" fill="white"/>
</svg>
