<svg width="32" height="32" viewBox="0 0 32 32" fill="none" xmlns="http://www.w3.org/2000/svg">
<path fill-rule="evenodd" clip-rule="evenodd" d="M22.5977 2.76708C22.9106 2.87629 23.0757 3.21844 22.9665 3.5313L18.0331 17.6646C18.0196 17.7033 18.0022 17.7405 17.9812 17.7756C17.4773 18.6153 16.6195 19.1336 15.6 19.1336C15.5734 19.1336 15.5467 19.1318 15.5203 19.1283L0.587013 17.1283C0.258575 17.0843 0.0279816 16.7824 0.0719689 16.4539C0.115956 16.1255 0.417867 15.8949 0.746305 15.9389L15.6371 17.9332C16.1815 17.9218 16.6307 17.66 16.9219 17.2069L21.8335 3.13583C21.9427 2.82297 22.2849 2.65787 22.5977 2.76708Z" fill="white"/>
<path fill-rule="evenodd" clip-rule="evenodd" d="M24.2543 3.96875C24.2544 3.96892 24.2542 3.96857 24.2543 3.96875L31.5873 16.7682C32.2679 17.9592 31.9476 19.5382 30.6999 20.2528C30.6992 20.2532 30.6984 20.2536 30.6977 20.254L17.2884 28.0664H28.6667C28.998 28.0664 29.2667 28.3351 29.2667 28.6664C29.2667 28.9978 28.998 29.2664 28.6667 29.2664H15.0781C15.0709 29.2666 15.0636 29.2666 15.0563 29.2664H7.2118C7.20429 29.2666 7.19679 29.2666 7.1893 29.2664H3.33333C3.00196 29.2664 2.73333 28.9978 2.73333 28.6664C2.73333 28.3351 3.00196 28.0664 3.33333 28.0664H6.17072L0.412385 17.8974C0.412171 17.8971 0.411958 17.8967 0.411745 17.8963C-0.268007 16.7054 0.0528277 15.1278 1.3001 14.4134C1.30084 14.413 1.30158 14.4126 1.30231 14.4122L20.769 3.0788C21.9605 2.3979 23.5401 2.71968 24.2543 3.96875ZM7.54976 28.0664H14.9046L30.1023 19.2121C30.7195 18.8595 30.9314 18.039 30.5457 17.3641L23.2127 4.5647C22.8604 3.9481 22.0408 3.73543 21.3662 4.11964C21.3656 4.12 21.365 4.12035 21.3643 4.12071L1.89769 15.4541C1.28052 15.8067 1.0686 16.6272 1.45428 17.3021L1.45544 17.3041L7.54976 28.0664Z" fill="white"/>
</svg>
