<svg width="1162" height="1510" viewBox="0 0 1162 1510" fill="none" xmlns="http://www.w3.org/2000/svg">
<path d="M569.88 709.082L569.67 708.873L569.48 708.93L569.156 709.006L568.852 709.501L568.794 709.615L568.909 709.768L569.023 709.73L569.518 709.844L569.899 709.692L569.937 709.577L569.861 709.425L569.88 709.082Z" fill="#2C2C2C" stroke="#222222" stroke-width="2" stroke-linejoin="round"/>
<path d="M565.237 443.82L572.525 444.639L573.267 442.088L575.436 439.117L574.827 431.977L567.787 436.699L564.628 436.756L565.161 443.63L565.237 443.82Z" fill="#2C2C2C" stroke="#222222" stroke-width="2" stroke-linejoin="round"/>
<path d="M273.881 563.437L277.839 566.769L276.659 569.93L278.41 573.414L280.731 590.799L278.067 597.178L276.202 608.564L283.394 620.979L284.802 626.234L285.678 640.839L284.555 648.246L287.257 659.842L286.743 680.692L286.229 683.32L272.835 702.951L273.006 707.921L271.389 712.814L272.283 720.317L271.103 723.078L272.473 727.286L272.302 734.198L271.769 736.768L269.01 738.691L270.609 741.547L268.82 744.175L267.298 746.784L262.751 745.26V746.803L260.125 748.25L260.772 752.249L263.759 748.326L268.611 750.078L266.232 754.286L259.44 757.999L260.505 759.713L258.964 762.017L260.848 762.702L260.505 764.816L258.736 765.787L259.897 766.587L254.493 769.405L254.893 772.68L253.846 773.727L254.436 774.412L258.641 771.271L258.07 773.156L254.303 779.287L250.288 779.592L248.062 775.955L241.859 775.726L244.333 769.443L239.557 769.233L236.589 767.634L235.181 767.044L231.109 765.406L228.902 762.988L224.944 763.426L222.071 759.903L220.644 758.856L217.391 759.694L218.456 755.904L215.336 756.285L211.968 754.743L211.493 753.372L210.713 750.04L212.235 749.43L212.311 745.26L213.7 743.585L215.127 745.165L218.266 742.728L220.302 742.918L221.215 739.777L224.469 738.482L224.26 737.149L217.334 736.387L214.385 734.16L211.417 736.045L210.751 730.656L204.129 733.207L203.901 730.922L199.43 730.77L199.601 729.513L201.941 729.951L206.432 726.086L206.945 723.42L208.239 721.478L210.446 721.497L211.607 718.774L212.063 716.432L211.093 712.205L213.49 710.568L211.474 706.988L209.685 707.311L207.706 707.578L205.29 708.911L197.755 708.625L194.426 710.777L195.929 705.388L192.961 701.447L198.402 700.99L200.419 699.124L199.011 696.972L199.563 695.258L208.068 690.384L207.136 688.308L205.328 688.575L203.463 682.158L199.487 683.701L198.231 680.959L194.882 679.207L191.819 680.083L193.075 678.064L192.238 676.998L189.555 677.779L189.859 674.389L192.2 673.399L191.819 669.896L190.373 669.991L188.946 667.097L187.842 665.726L202.95 661.879L199.582 657.195L197.603 657.614L196.195 655.881L194.121 656.776L193.474 655.006L196.423 653.292L195.282 651.064L192.885 650.55L189.65 653.311L189.574 649.617L188.147 648.589L188.565 647.084L190.696 648.436L191.419 646.589L194.597 646.151L194.273 642.21L199.125 642.343L200.4 638.459L201.542 635.279L198.497 634.003L200.248 629.11L204.529 626.444L205.728 623.702L205.29 621.912L204.129 622.007L206.032 620.008L206.203 623.093L208.905 621.76L209.324 623.397L212.197 624.121L214.328 619.38L213.49 617.685L219.826 616.904L220.987 614.162L224.145 614.2L225.268 612.772L234.287 612.582L238.701 609.935L239.671 605.879L241.193 602.852L244.98 600.624L249.127 599.958L252.134 601.538L254.455 600.129L255.463 602.109L257.956 602.452L259.059 604.623L260.581 608.05L261.932 607.879L266.423 600.034L266.194 592.227L262.96 587.162L265.966 582.821L264.178 578.289L268.021 575.109L266.822 574.385L267.793 572.329L265.985 565.817L267.659 564.065L273.881 563.437Z" fill="#2C2C2C" stroke="#222222" stroke-width="2" stroke-linejoin="round"/>
<path d="M756.417 1448.62L756.988 1449.65L754.457 1451.63L758.986 1452.05L757.806 1454.73L762.182 1452.91L761.783 1454.39L763 1453.55L768.708 1456.83L768.157 1457.74L770.573 1459.19L769.032 1459.15L768.861 1460.88L771.125 1459.7L769.184 1462.54L771.791 1460.37L775.977 1463.3L775.158 1469.66L773.789 1467.3L771.867 1469.05L773.979 1469.83L772.095 1471.24L761.497 1468.96L753.088 1462.6L752.288 1459.57L753.525 1459.44L752.764 1457.67L753.906 1456.2L752.326 1455.11L753.601 1453.67L753.107 1451.84L751.394 1451.59L752.441 1449.76L756.417 1448.62ZM753.354 1445.59L754.61 1446.95L752.022 1447.55L751.87 1445.84L753.354 1445.59ZM743.194 1438.24L750.614 1440.93L753.145 1444.15L745.857 1446.64L738.76 1443.92L738.418 1439.08L743.194 1438.24Z" fill="#2C2C2C" stroke="#222222" stroke-width="2" stroke-linejoin="round"/>
<path d="M712.523 579.393L715.11 591.465L719.372 601.957L731.302 623.245L744.64 637.926L760.318 649.636L761.973 654.072L768.956 660.794L769.584 663.365L780.163 670.41L789.98 673.894L790.38 683.129L796.906 687.756L794.68 691.279L796.411 692.878L791.008 696.61L786.632 702.018L785.072 707.921L780.581 711.082L777.309 718.184L768.252 727.952L764.371 727.248L765.874 726.029L763.838 717.86L761.745 715.823L757.102 712.738L755.105 715.252L754.02 714.833L752.155 710.663L749.796 710.91L748.008 708.511L742.471 713.043L739.75 717.27L735.526 717.556L734.727 719.269L737.105 726.029L739.997 727.724L739.198 729.685L737.581 729.437L737.105 727.514L735.831 729.875L732.044 729.97L730.846 734.997L729.342 731.056L727.135 731.227L725.48 735.797L722.949 735.892L722.417 738.672L718.859 736.806L714.863 737.796L710.125 731.57L706.396 731.932L701.83 729.247L699.87 730.484L697.34 729.723L694.01 723.42L691.498 724.81L689.462 722.563L686.076 721.63L684.059 725.61L676.353 728.181L673.537 726.41L672.148 722.963L668.647 722.145L665.831 719.422L662.54 718.089L659.876 720.678L657.973 713.766L660.409 709.406L658.506 706.721L656.584 707.064L652.817 702.723L651.105 703.427L636.549 694.878L632.687 693.507L632.649 695.868L628.12 694.649L625.438 690.365L625.723 680.997L627.207 681.682L631.165 678.293L631.26 673.742L634.551 673.494L647.033 680.216L649.392 678.75L652.608 679.93L654.644 675.684L657.498 675.132L656.489 673.78L659.971 673.152L656.299 670.829L655.728 667.725L651.105 666.125L646.196 661.289L644.959 655.044L637.843 650.321L641.801 645.885L634.209 638.763L640.259 634.155L640.069 629.624L638.167 626.082L640.126 624.978L641.572 619.722L646.805 621.703L647.965 620.313H650.534L651.637 622.179L654.491 620.712L658.791 621.303L661.36 619.075L662.806 612.544L659.02 611.344L656.832 608.736L657.859 605.537L661.018 606.451L664.595 603.918L665.679 604.794L666.821 600.281L671.33 599.539L671.901 594.797L674.45 591.96L674.907 589.218L678.865 591.37L683.374 589.256L684.649 591.046L687.217 590.723L691.042 588.933L691.917 584.725L693.211 584.001L698.5 583.658L702.515 580.974L712.009 578.936L712.523 579.393Z" fill="#2C2C2C" stroke="#222222" stroke-width="2" stroke-linejoin="round"/>
<path d="M870.749 819.521L870.121 817.179L872.67 814.837L876.381 814.113L885.228 815.598L890.004 813.885L892.763 815.884L895.978 814.151L895.674 812.342L898.851 811.524L898.509 810.077L900.069 810.629L902.771 809.01L907.147 812.152L910.457 812.723L910.914 814.684L913.311 815.256L914.472 819.73L915.652 818.931L919.153 821.787L917.935 823.767L918.506 826.718L915.1 830.622L912.227 830.108L913.388 832.259L924.023 836.791L927.049 839.666L931.12 835.934L934.926 837.172L940.52 849.473L953.001 860.993L954.485 864.306L957.396 865.105L964.018 857.413L967.899 862.116L967.785 858.517L969.63 858.022L971.248 860.555L971.457 857.241L974.673 858.631L976.594 857.413L976.918 859.298L979.144 860.631L980.171 859.222L985.727 863.449L983.767 864.42L986.089 867.105L984.376 873.998L986.127 877.901L984.928 878.777L984.11 884.28L985.936 886.203L985.099 887.745L987.306 889.421L985.48 893.381L987.116 895.171L990.35 894.353L993.718 896.39L994.422 899.475L997.733 902.274L999.217 905.815L991.72 916.554L982.569 936.281L978.211 939.461L973.036 937.652L967.1 939.499L961.24 937.557L957.606 938.261L956.35 936.148L955.151 938.947L955.57 944.355L953.61 948.582L954.105 952.39L948.302 962.748L950.413 964.919L949.576 967.432L945.505 962.882L941.699 962.539L936.124 963.796L936.086 967.128L930.797 964.71L928.818 966.766L919.685 967.261L916.736 963.948L917.44 962.767L915.823 959.721L918.182 955.475L915.975 954.865L913.14 956.484L911.827 954.656L908.307 954.085L905.587 956.427L904.407 954.77L902.638 955.703L900.925 953.913L897.729 954.256L893.257 959.073L891.45 964.024L888.044 957.264L884.048 953.609L883.782 950.79L880.586 948.924L883.801 947.001L881.385 944.374L883.687 943.726L886.655 939.69L886.046 934.149L889.129 931.007L888.862 929.103L895.464 926.285L894.475 923.942L896.245 922.362L896.168 919.658L895.008 917.468L889.433 915.85L889.167 913.337L886.046 910.461L885.951 905.587L881.956 904.14L878.911 900.065L874.992 898.104L874.078 894.81L869.95 891.554L871.32 889.497L868.751 883.385L870.083 881.824L861.806 876.816L863.195 872.969L866.335 871.046L866.449 869.504L855.166 862.173L855.489 852.938L853.929 852.805L854.348 850.558L850.428 848.14L854.424 847.854L854.652 843.779L852.712 842.789L853.53 841.532L862.643 843.589L863.861 842.922L863.423 840.714L869.055 838.257L873.355 827.08L870.749 819.521Z" fill="#2C2C2C" stroke="#222222" stroke-width="2" stroke-linejoin="round"/>
<path d="M891.448 964.024L893.256 959.073L897.727 954.275L900.924 953.932L902.636 955.703L904.406 954.77L905.585 956.427L908.306 954.085L911.845 954.656L913.158 956.484L915.993 954.865L918.2 955.456L915.841 959.702L917.458 962.748L916.754 963.929L919.703 967.242L928.836 966.747L930.815 964.691L936.104 967.09L936.142 963.758L941.717 962.52L945.522 962.863L949.594 967.394L950.431 964.881L948.338 962.71L954.141 952.352L953.628 948.525L955.587 944.317L955.188 938.909L956.387 936.129L957.642 938.223L961.276 937.519L967.156 939.461L973.092 937.614L978.267 939.423L974.633 944.069L973.986 949.077L976.574 960.102L967.822 971.203L963.065 980.019L963.141 985.579L966.965 989.996L965.919 996.584L975.584 1002.32L990.882 1002.54L999.862 1012.69L1008.79 1018.16L1015.39 1019.85L1016.87 1023.78L1020.94 1027.7L1028.4 1030.27L1023.91 1041.46L1023.44 1048.49L1027.57 1054.55L1023.84 1067.02L1026.58 1070.6L1025.99 1072.41L1027.36 1074.58L1033.18 1077.34L1029.07 1081.07L1029.54 1086.4L1022.28 1094.02L1021.76 1091.92L1019.08 1090.95L1015.06 1092.4L1010.99 1088.27L1002.07 1089.68L991.186 1093.73L974.538 1104.05L967.593 1116.52L969.781 1120.41L972.274 1146.42L971.399 1151.79L960.649 1162.98L946.873 1168.81L931.652 1188.08L929.73 1200.99L924.897 1210.19L921.682 1214.19L915.327 1215.21L907.659 1213.42L892.076 1214.89L884.009 1210.3L879.88 1202.55L881.916 1199.66L879.5 1193.2L881.897 1187.68L879.766 1181.28L879.861 1176.1L887.662 1172.91L891.258 1172.79L896.167 1170.01L898.545 1165.88L899.421 1159.82L901.609 1157.84L903.131 1152.63L905.928 1150.07L907.317 1146.38L908.744 1137.11L898.621 1128.04L899.535 1124.58L902.979 1121.3L911.008 1118.64L914.319 1115.15L918.999 1114.58L925.506 1116.52L928.798 1115.57L933.402 1111.95L937.17 1099.62L936.618 1089.87L930.739 1087.01L924.993 1076.39L921.91 1062.54L920.426 1042.63L915.194 1025.36L908.249 1014.5L903.226 1010.9L899.192 996.908L897.461 995.48L894.797 978.743L892.971 975.525L895.159 971.831L891.448 964.024Z" fill="#2C2C2C" stroke="#222222" stroke-width="2" stroke-linejoin="round"/>
<path d="M742.337 883.176L746.161 883.633L744.848 885.384L739.274 886.165L739.521 883.061L742.337 883.176ZM707.499 857.527L715.89 859.812L716.898 861.278L715.585 865.22L710.22 865.277L709.63 866.419L705.863 864.439L705.787 860.879L707.499 857.527ZM718.154 766.758L721.046 768.224L720.513 771.119L724.433 775.784L728.524 774.87L730.997 776.507L730.483 771.899L727.877 768.719L732.063 761.046L736.42 764.683L737.162 762.055L743.726 762.169L744.125 763.788L747.493 763.807L748.007 765.749L751.869 767.825L767.11 772.28L767.833 775.308L770.097 777.04L776.452 776.05L778.773 779.402L782.94 775.689L784.938 775.574L784.862 773.784L788.61 773.327L790.398 774.736L793.975 773.632L797.248 768.129L804.878 771.366L807.865 768.339L812.907 767.92L818.577 763.921L822.021 769.329L827.462 770.852L827.824 772.375L826.264 773.861L827.291 776.145L825.274 776.488L823.676 778.716L824.856 783.705L830.507 785.723L830.906 789.855L837.413 789.589L839.392 792.407L842.474 791.797L844.872 794.52L841.808 796.462L843.426 800.994L839.582 803.279L838.041 807.068L841.028 808.534L842.417 812.133L846.242 814.875L848.335 813.161L853.719 815.427L856.954 812.971L860.949 816.398L863.936 816.132L870.786 819.559L873.393 827.119L869.093 838.296L863.461 840.752L863.898 842.961L862.681 843.627L853.567 841.552L852.73 842.828L854.67 843.799L854.442 847.892L850.447 848.178L854.366 850.596L853.947 852.824L855.527 852.957L855.203 862.192L866.486 869.523L866.372 871.066L863.213 872.97L861.824 876.816L870.101 881.824L868.788 883.385L871.357 889.497L869.987 891.554L874.097 894.81L875.029 898.104L878.948 900.065L881.993 904.14L885.988 905.587L886.083 910.462L889.223 913.337L889.489 915.85L895.064 917.469L896.225 919.658L896.301 922.381L894.531 923.962L895.521 926.304L888.919 929.103L889.185 931.007L886.122 934.149L886.73 939.69L883.762 943.726L881.479 944.374L883.895 946.982L880.661 948.906L879.025 945.174L873.735 944.45L866.924 946.24L858.856 955.513L852.406 954.428L848.544 950.657L844.339 951.705L843.977 950.505L845.614 949.267L844.301 945.021L838.003 938.966L835.187 938.547L830.411 932.778L821.507 932.892L816.465 926.608L809.463 924.438L808.283 922.419L812.051 919.563L812.241 911.928L817.207 909.072L817.226 903.474L805.715 879.558L795.574 868.895L790.379 869.695L787.792 873.75L781.437 871.903L776.281 876.473L771.809 877.254L767.186 874.721L751.85 882.09L753.334 874.283L759.347 873.084L760.165 870.285L766.976 865.601L764.922 859.565L759.023 857.699L752.288 850.292L747.037 846.788L741.994 848.902L738.493 853.433L735.697 853.015L737.181 852.291L735.83 850.349L729.456 848.521L727.363 850.006L728.98 855.128L724.699 853.681L724.68 845.074L722.549 837.591L717.507 829.537L717.393 829.251L712.807 824.301L710.144 815.104L703.37 804.022L697.301 797.909L698.347 795.396L704.055 794.292L705.007 792.826L703.77 792.369L703.96 790.407L709.877 788.294L707.918 779.782L709.478 776.926L706.966 772.699L711.057 771.995L716.86 766.72L718.154 766.758Z" fill="#2C2C2C" stroke="#222222" stroke-width="2" stroke-linejoin="round"/>
<path d="M598.437 434.967L596.211 440.85L596.649 448.714L591.854 450.599L590.826 454.598L585.271 453.912L585.632 451.932L584.11 451.342L582.797 446.563L577.622 448.714V444.639L573.303 442.126L575.453 439.156L574.844 432.015L567.804 436.737L564.646 436.814L565.178 443.668L567.481 447.895L564.398 447.876L563.751 446.315L559.965 447.819L558.043 454.427L553.097 458.406L552.716 462.538L552.64 462.481L549.519 464.176L545.657 463.471L544.078 467.222L541.129 462.824L538.389 464.347L535.706 464.042L532.433 465.756L530.322 463.338L528.571 463.814L525.793 462.1L523.776 462.9L520.675 460.901L520.275 459.054L517.707 458.711L516.717 456.254L507.851 455.855L504.046 451.266L497.234 447.457L497.748 441.631L494.285 439.308L494.913 436.204L490.784 432.244L491.26 430.054L492.535 430.225L492.154 428.15L495.351 426.931L496.169 423.142L500.031 418.972L500.678 413.85L490.27 415.944L485.228 415.259L487.987 411.26L487.626 409.28L482.679 408.271L480.719 410.175L478.436 409.68L475.144 405.929L472.499 405.205L471.853 401.13L469.322 398.845L464.641 403.396L459.904 403.891L459.523 405.929L455.185 409.87L447.594 410.137L447.384 411.927L452.959 415.164L453.435 417.22L448.602 417.525L442.723 415.83L436.368 418.591L431.116 417.982L428.167 415.792L429.347 413.812L428.586 412.079L419.339 422.476L418.083 421.904L418.692 420.095L417.398 418.363L413.06 417.411L403.604 409.737L393.006 409.489L391.103 411.832L391.236 414.402L388.059 415.202L381.552 409.394L381.095 406.443L377.785 403.396L377.88 400.769L375.558 399.493L372.381 400.045L366.768 394.257L363.724 394.199L359.557 391.857L355.029 394.123L344.317 382.794L339.674 383.765L331.531 378.167L329.381 375.768L330.408 370.779L328.41 370.379L327.459 368.018L322.836 366.361L312.656 367.485L306.168 377.71L299.319 381.689L296.617 375.368L291.48 371.579L289.482 372.816L286.799 371.16L286.133 372.988L280.844 373.502L279.055 375.653L278.56 373.426L275.421 374.168L278.351 365.581L280.863 365.181L281.776 358.669L280.14 354.689L273.994 352.576L272.491 349.281L267.848 352.69L261.855 347.834L261.018 349.834L257.022 349.167L257.669 347.568L256.547 346.368L252.247 347.206L252.189 337.533L253.122 337.895L256.451 337.685L255.843 333.839L258.335 338.618L264.481 337L263.13 334.353L264.823 332.373L264.538 330.05L261.227 328.279L260.656 326.185L267.982 318.797L265.946 312.608L264.1 311.047L262.711 311.808L259.382 308.743L261.76 305.62L260.618 303.678L263.777 302.878L266.383 295.167L269.504 291.834L269.275 287.683L273.176 284.18L272.967 282.904L275.307 283.247L275.916 281.704L281.319 280.334L284.306 283.875L286.456 281.914L285.258 276.716L286.647 276.487L289.691 280.562L292.126 279.534L293.363 275.897L295.114 278.277L294.828 283.037L302.781 286.446L305.864 283.742L306.815 281.819L305.388 279.743L307.043 279.229L308.623 282.161L312.143 283.97L312.846 287.512L314.616 281.4L316.519 281.457L318.44 284.275L320.115 283.532L320.495 281.324L318.345 278.296L321.77 275.516L323.159 276.678L322.436 280.848L327.916 276.64L329.609 276.811L333.186 281.476L332.349 284.313L335.241 286.655L335.374 288.978L338.209 288.312L339.731 291.625L346.067 288.655L347.076 290.425L351.299 290.311L357.007 294.824L360.052 294.9L365.436 299.222L370.098 296.671L372.895 302.231L381.59 306.477L389.086 306.153L391.845 304.554L397.287 296.709L398.143 299.794L401.568 295.852L403.414 301.793L411.804 303.164L413.231 304.668L414.906 304.363L415.058 305.792L417.607 305.468L417.227 306.572L420.005 304.858L422.573 305.277L423.011 303.088L427.425 300.822L433.362 301.317L435.131 299.813L440.173 301.031L442.494 303.983L443.541 302.745L450.942 302.155L451.627 300.898L454.443 302.897L457.621 299.87L469.474 301.622L469.779 304.459L480.624 303.754L484.619 306.439L485.438 309.524L486.788 310L489.148 309.771L492.991 306.153L499.061 304.459L500.469 300.231L506.024 297.642L517.954 297.794L522.159 296.309L534.907 298.346L539.264 304.211L542.08 302.364L543.621 304.363L547.712 304.687L550.49 302.231L552.545 302.212L554.124 304.268L552.925 306.629L553.553 312.132L554.771 313.941L558.557 314.912L559.699 319.063L558.462 319.387L556.198 315.883L553.934 315.198L550.642 319.539L553.039 318.587L549.881 326.908L548.758 336.391L549.672 342.693L553.401 349.986L553.192 366.818L556.559 375.882L556.959 382.337L560.859 395.951L564.208 402.673L576.975 417.563L581.77 420.781L593.129 433.024L598.437 434.967ZM542.461 456.502L541.947 458.654L544.553 461.681L548.701 459.549L548.131 457.454L547.731 456.559L542.461 456.502Z" fill="#2C2C2C" stroke="#222222" stroke-width="2" stroke-linejoin="round"/>
<path d="M602.871 65.7589L606.543 66.9775V69.7004L607.875 70.4049L615.695 69.8337L627.397 72.0996L631.088 71.0714L639.022 73.0136L645.986 78.2689L649.22 76.917L654.072 78.2689L656.317 75.8317L658.848 76.1173L659.057 74.3845L662.558 75.3747L662.368 76.898L664.194 77.4882L671.615 76.1554L673.08 78.8973L677.285 78.2689L678.426 80.2111L682.993 79.6589L692.468 82.6484L689.614 94.2635L685.999 93.0258L680.443 94.4348L677.836 99.8616L668.551 105.117L665.564 105.25L665.602 110.334L659.209 114.295L663.909 122.997L662.805 126.253L666.287 125.91L666.154 124.158L669.598 124.272L671.481 125.624L674.202 125.167L677.227 127.167L678.445 129.985L684.534 129.033L687.236 130.575L685.276 136.706L678.483 143.275L671.31 147.826L671.881 152.148L668.894 155.214L674.697 160.641L677.817 160.203L680.348 157.366L685.257 158.013L684.724 164.639L678.75 176.178L680.728 182.386L683.259 184.08L687.787 183.357L695.36 189.774L700.155 191.05L707.004 203.026L712.313 206.892L704.474 213.899L700.364 214.165L695.664 211.69L692.81 212.395L692.639 210.624L694.123 209.824L699.279 211.443L701.582 209.615L698.861 209.71L697.986 206.739L696.064 207.158L694.941 205.902L697.282 204.112L695.912 200.189L684.21 187.641L679.454 186.251L677.304 186.956L676.238 185.432L673.631 188.25L673.27 191.411L676.619 194.115L670.226 197.2L668.703 196.686L664.67 200.608L660.065 201.046L650.305 195.791L646.804 195.22H646.214L646.043 195.086L637.994 197.219L632.515 205.635L630.479 204.493L630.707 203.331L628.843 203.56L629.166 201.046L627.244 199.523L627.948 198L626.445 197.619L625.361 192.535L623.515 193.887L624.181 191.659L622.944 189.184L623.877 188.688L620.014 185.013L622.088 183.795L620.528 183.147L620.87 181.586L620.128 180.882L620.204 180.291L619.101 177.283L617.978 177.74L618.835 180.444L615.885 181.396L614.953 179.32L612.061 181.11L609.683 178.939L610.444 176.845L609.226 176.712L605.097 178.787L604.051 180.767L602.852 179.377L603.67 177.473L601.52 175.874L597.753 179.872L596.478 178.597L589.096 185.432L589.001 182.348L586.87 181.358L586.641 179.663L584.282 178.406L582.988 181.472L579.183 179.473L579.602 177.188L576.957 174.788L574.559 166.163L571.744 166.144L569.765 163.269L567.044 163.192L567.006 156.585L565.655 151.634L563.905 150.111L567.272 144.761L572.79 141.028L573.646 134.212L569.042 130.499L568.471 126.443L564.989 126.633L564.494 123.625L560.537 123.663L556.503 118.236L559.928 114.657L559.852 110.867L561.831 109.268L565.465 109.782L566.093 105.936L569.574 104.165L569.232 103.022L570.374 103.537L569.765 100.909L573.57 97.5576L574.103 94.2254L576.919 90.341L577.699 91.1598L580.686 88.7796L584.206 90.2839L586.185 88.7796L589.648 90.2648L588.906 86.9517L586.565 85.4284L586.794 83.6385L593.377 79.4876L598.229 79.3733L596.554 77.1645L597.886 72.8422L596.041 69.6814L596.402 66.254L599.541 64.5212L602.871 65.7589Z" fill="#2C2C2C" stroke="#222222" stroke-width="2" stroke-linejoin="round"/>
<path d="M619.481 837.591L619.005 840.104L620.09 840.466L618.187 842.656L617.845 837.286L622.107 835.363L619.481 837.591ZM717.678 762.683L719.6 764.302L718.154 766.777L716.727 766.72L710.942 771.994L706.852 772.699L709.363 776.926L707.822 779.782L709.782 788.293L703.864 790.426L703.674 792.387L704.911 792.844L703.96 794.31L698.252 795.415L697.205 797.928L691.859 794.082L689.537 795.224L684.191 793.035L678.578 796.195L678.787 798.975L680.5 800.118L676.618 800.251L659.608 790.331L651.351 788.351L648.23 790.255L643.816 790.026L638.26 791.797L631.963 797.795L627.377 797.433L621.802 784.619L614.839 777.211L607.989 773.422L601.577 772.775L600.036 773.975L590.865 767.824L587.63 768.357L587.364 769.709L585.709 769.005L579.392 757.847L565.921 741.757L558.919 735.816L547.104 730.427L545.334 719.193L539.379 708.245L530.189 702.856L527.715 699.162L522.845 697.296L521.76 694.992L517.308 692.174L509.183 693.373L506.006 685.966L500.222 678.331L499.879 674.751L495.846 666.621L491.565 660.604L481.214 652.168L471.453 647.503L474.992 639.601L487.931 639.449L487.759 632.918L482.451 629.281L485.058 625.587L484.201 622.236L485.381 621.607L487.55 623.607L488.825 621.912L490.366 622.35L493.677 620.674L494.076 618.618L496.93 616.504L499.385 616.98L501.116 612.906L503.723 613.267L506.386 611.516L506.234 609.459L504.236 608.545L503.456 603.556L505.797 603.575L507.775 599.082L500.583 593.446L502.79 588.8L505.093 589.695L506.425 592.208L507.395 588.381L510.496 586.343L515.215 586.61L518.297 594.017L523.587 597.444L521.665 601.214L518.145 603.195L520.599 607.212L528.476 612.087L535.478 609.592L537.4 611.63L537.628 610.202L538.903 610.621L541.529 608.355L544.63 609.65L547.808 613.572L548.854 622.083L552.031 623.569L551.632 627.301L553.611 628.919L552.184 630.195L555.076 631.718L553.763 632.594L557.321 632.194L559.661 634.593L563.467 631.509L566.263 631.813L565.788 635.355L567.196 636.65L565.902 637.088L565.883 641.01L570.24 642.534L568.394 645.237L575.32 644.247L575.225 647.446L576.88 649.35L585.119 642.953L585.537 635.565L587.802 635.412L589.495 638.954L591.797 638.859L597.486 635.108L594.88 631.223L600.702 629.548L601.025 627.015L604.926 627.206L608.446 624.102L612.422 622.826L611.243 617.971L612.346 615.743L616.189 617.628L617.712 615.781L623.895 615.857L625.246 612.944L629.166 615L634.493 611.725L634.588 610.24L637.671 611.459L640.201 609.021L641.628 600.548L647.869 602.052L648.896 599.824L650.97 599.634L657.972 605.651L656.945 608.869L659.133 611.459L662.919 612.658L661.473 619.208L658.904 621.436L654.604 620.827L651.75 622.293L650.647 620.446L648.078 620.427L646.918 621.817L641.685 619.856L640.239 625.111L638.279 626.196L640.182 629.738L640.372 634.27L634.322 638.878L641.914 645.999L637.937 650.455L645.053 655.158L646.29 661.422L651.199 666.259L655.803 667.839L656.374 670.943L660.065 673.266L656.583 673.894L657.573 675.227L654.738 675.779L652.702 680.026L649.486 678.845L647.127 680.311L634.645 673.59L631.354 673.837L631.259 678.407L627.301 681.796L625.836 681.111L625.551 690.479L628.214 694.763L632.762 695.982L632.8 693.621L636.662 694.992L651.218 703.541L652.911 702.837L656.678 707.178L658.619 706.816L660.522 709.501L658.086 713.862L659.989 720.774L662.653 718.184L665.944 719.517L668.76 722.24L672.261 723.059L673.669 726.505L676.485 728.276L684.191 725.686L686.227 721.707L689.594 722.64L691.63 724.887L694.161 723.496L697.491 729.799L700.021 730.561L701.962 729.304L706.528 732.008L710.257 731.646L715.014 737.873L718.8 741.148L721.464 747.983L721.654 750.592L720.361 751.811L722.967 754.686L722.549 756.495L720.931 756.838L723.253 758.856L717.678 762.683ZM569.936 709.577L569.86 709.425L569.879 709.082L569.669 708.873L569.498 708.93L569.175 709.006L568.87 709.501L568.813 709.615L568.946 709.768L569.06 709.73L569.555 709.844L569.936 709.692V709.577Z" fill="#2C2C2C" stroke="#222222" stroke-width="2" stroke-linejoin="round"/>
<path d="M315.891 424.341L315.13 426.227L313.951 424.341H315.891ZM106.921 422.114L108.424 422.628L111.374 419.448L108.881 419.486L107.15 416.744L108.044 413.812L111.735 411.774L128.859 417.258L131.979 415.602L135.709 416.915L136.546 415.525L135.48 413.869L132.988 412.707L136.489 409.813L139.4 411.755L142.102 410.822L144.347 407.89L144.252 404.196L141.474 401.759L142.863 398.522L141.226 396.427L143.605 394.085L141.188 391.591V389.687L142.007 388.658L144.784 389.896L145.355 385.764L147.81 386.069L149.674 383.003L149.218 379.214L155.287 375.863L156.714 372.188L154.108 365.942L156.733 365.085L156.657 361.468L159.606 359.107L161.471 362.02L164.991 362.382L170.851 367.351L173.344 365.999L174.409 361.81L175.95 361.087L178.747 363.086L180.916 359.83L181.582 361.468L187.671 361.239L189.573 362.667L194.787 356.898L193.283 355.165L195.624 351.49L202.397 351.871L205.48 352.328L208.885 357.926L208.315 359.64L209.951 359.564L210.674 363.753L213.09 362.877L212.405 360.059L215.716 357.279L215.678 354.48L220.016 353.927L221.69 356.174L224.43 354.708L223.859 347.625L221.12 344.654L224.088 342.255L225.305 339.094L228.369 338.637L229.739 340.58L234.077 340.103L237.121 346.635L239.861 346.082L242.639 347.701L242.544 350.519L245.645 352.823L252.342 350.043L252.228 347.263L256.528 346.425L257.67 347.625L257.023 349.224L261.018 349.891L261.856 347.891L267.849 352.747L272.492 349.338L273.995 352.633L280.14 354.746L281.777 358.726L280.863 365.238L278.352 365.638L275.422 374.225L278.561 373.483L279.056 375.71L280.844 373.559L286.134 373.045L286.8 371.217L289.501 372.873L291.499 371.636L296.636 375.425L299.338 381.746L301.85 381.385L303.771 386.297L311.439 392.257L316.367 394.275L316.538 399.169L318.079 400.502L317.261 405.7L321.219 402.368L324.016 404.31L322.589 404.424L320.23 408.195L327.707 407.947L328.088 412.441L329.876 415.087L328.944 417.429L332.33 414.573L336.84 417.372L336.326 420L332.102 424.856L329.096 424.341L326.832 425.998L321.219 421.809L321.314 420.057L318.745 420.038L314.959 416.23L312.505 417.734L314.978 420.819L314.522 421.942L315.949 421.695L313.951 424.36L304.894 418.439L301.279 413.755L296.636 411.317L294.505 412.879L291.937 408.004L288.055 406.29L286.324 403.072L282.29 401.549L280.521 398.845L276.031 398.693L273.367 395.932L272.111 396.827L269.029 391.515L255.653 383.974L253.579 385.955L253.807 390.543L246.882 387.325L247.871 383.936L246.558 382.108L226.257 376.967L225.02 374.949L223.897 375.787L224.678 377.062L216.039 374.72L218.266 374.32L216.515 373.616L211.987 373.406L212.5 374.397L208.581 373.483L204.642 375.006L201.731 377.805L198.249 378.471L195.453 381.404L184.151 387.154L182.686 389.077L184.017 388.811L178.309 394.047L179.756 395.97L176.102 400.826L176.825 404.71L161.604 412.326L157.818 418.915L157.304 425.274L151.33 431.996L150.911 434.681L152.319 437.27L144.157 442.773L142.425 445.953L138.03 446.905L130.039 452.141L121.591 453.855L118.851 456.159L115.921 455.283L109.585 459.015L106.141 458.444L103.23 461.472L94.3067 459.434L91.9473 461.357L90.0066 460.938L85.9159 451.094L86.0871 448.162L87.5141 446.372L92.1757 444.944L92.8987 438.908L101.213 434.547L102.716 431.215L102.241 427.179L106.37 425.408L106.921 422.114Z" fill="#2C2C2C" stroke="#222222" stroke-width="2" stroke-linejoin="round"/>
<path d="M354.497 68.3675L355.487 69.4718L353.755 72.2138L354.25 74.3464L358.188 75.0699L359.102 78.0213L363.364 79.1447L364.619 77.2216L368.862 78.8972L370.955 77.9832L374.589 80.8013L376.778 85.9424L383.951 86.5137L388.974 89.8839L390.933 92.4735L390.496 96.6435L392.094 99.2902L389.259 102.261L385.511 102.47L380.602 107.326L385.625 109.744L386.767 113.59L385.073 116.008L386.614 116.903L387.604 120.978L383.266 128.899L385.301 131.927L383.513 140.362L377.177 148.112L377.862 151.73L375.598 153.519L374.513 157.004L374.609 158.908L377.919 159.517L377.615 163.383L380.088 167.172L378.357 171.171L379.346 179.377L383.627 181.186L382.276 183.795L383.075 185.451L385.587 185.699L389.659 183.166L393.426 183.033L394.32 178.939L401.95 177.397L404.366 179.263L405.108 177.625L412.662 179.092L391.561 210.509L393.711 232.883L392.95 236.653L394.548 236.996L395.88 235.453L400.561 237.605L398.734 242.499L400.561 243.927L398.087 245.793L399.99 248.63L398.696 252.267L401.531 253.009L402.502 254.894L407.087 251.086L410.816 254.761L412.947 259.236L417.97 260.359L418.18 261.654L421.661 262.568L421.471 265.043L426.932 267.519L428.454 269.842L427.731 273.098L430.794 272.488L432.45 273.536L430.623 277.115L435.037 280.828L437.32 281.247L437.777 278.829L440.365 280.219L442.134 277.02L447.842 279.153L445.426 281.095L446.206 283.018L445.083 286.103L451.039 288.312L453.76 286.693L453.779 291.377L468.962 299.527L469.399 301.488L457.546 299.736L454.368 302.764L451.552 300.764L450.867 302.021L443.466 302.611L442.42 303.849L440.098 300.917L435.056 299.698L433.287 301.202L427.35 300.707L422.936 302.973L422.499 305.182L419.93 304.763L417.152 306.477L417.533 305.372L414.983 305.696L414.831 304.268L413.157 304.573L411.73 303.068L403.339 301.716L401.493 295.776L398.068 299.717L397.212 296.632L391.79 304.477L389.031 306.077L381.534 306.401L372.839 302.154L370.042 296.594L365.381 299.146L359.996 294.824L356.952 294.747L351.244 290.235L347.02 290.368L346.011 288.616L339.676 291.587L338.172 288.292L335.337 288.959L335.204 286.636L332.312 284.294L333.149 281.457L329.572 276.792L327.879 276.62L322.399 280.847L323.122 276.677L321.733 275.516L318.309 278.296L320.459 281.323L320.097 283.532L318.423 284.275L316.501 281.457L314.598 281.4L312.829 287.512L312.125 283.97L308.605 282.161L307.045 279.229L305.389 279.743L306.816 281.818L305.865 283.742L302.783 286.445L294.83 283.037L295.115 278.277L293.365 275.897L292.128 279.534L289.692 280.562L286.648 276.487L285.259 276.715L286.458 281.914L284.308 283.875L281.321 280.333L275.936 281.704L275.327 283.247L272.987 282.904L273.196 284.18L269.315 287.683L269.543 291.834L266.442 295.166L263.835 302.878L260.677 303.678L261.818 305.62L259.44 308.743L262.77 311.808L264.159 311.047L266.004 312.608L268.04 318.796L260.715 326.184L261.286 328.279L264.596 330.05L264.882 332.373L263.188 334.353L264.539 337.019L258.393 338.656L255.901 333.877L256.51 337.723L253.18 337.933L252.476 332.506L253.675 328.698L249.356 325.499L248.462 319.92L243.286 321.348L242.43 319.863L239.652 319.634L239.881 317.844L237.673 315.616L239.462 313.693L238.073 309.923L236.132 310.152L232.936 307.315L229.987 302.459L230.443 299.165L229.054 296.709L228.16 295.871L225.649 297.051L223.194 293.719L222.642 287.626L217.106 288.064L214.023 291.13L210.903 291.472L210.427 293.434L207.992 293.11L207.668 291.206L205.537 291.51L204.795 289.302L203.92 292.653L197.603 288.997L197.051 282.294L194.35 279.819L195.016 277.344L192.885 276.754L191.762 273.916L189.041 273.098L187.995 271.232L191.401 266.338L187.272 268.166L186.32 267.423L188.585 266.605L186.206 264.377L187.995 262.758L186.91 261.978L189.308 261.673L186.244 260.664L186.206 259.731L188.052 259.978L187.462 256.608L183.638 254.628L185.027 251.791L187.595 250.915L186.454 247.506L189.308 244.879L191.553 246.783L196.842 246.573V248.306L198.992 249.715L199.924 254.571L202.721 254.361L204.814 253.238L205.88 249.239L209.457 246.954L205.328 242.537L208.201 243.07L210.427 241.547L213.414 242.384L217.467 240.328L215.698 235.015L214.004 235.13L211.816 227.704L205.138 224.257L202.683 214.889L203.521 211.633L199.848 208.51L199.24 206.111L202.132 206.701L200.59 203.198L201.294 201.294L197.432 200.532L198.478 195.467L192.675 193.734L188.832 186.461L188.946 183.623L192.904 179.149L190.468 169.723L205.785 153.043L203.863 144.38L205.062 141.314L207.364 138.782L208.981 141.447L211.379 142.685L213.7 141.695L218.19 145.37L218.247 147.483L216.249 148.683L211.531 157.137L216.002 157.194L219.693 161.079L222.395 161.707L222.471 164.906L227.171 174.198L223.841 179.206L228.255 177.549L232.251 179.034L231.604 180.939L236.037 181.091L237.445 174.122L241.327 169.99L239.919 169.8L238.358 166.753L234.439 165.725L233.944 161.421L231.623 160.089L235.219 156.794L233.069 150.568L234.096 148.588L239.862 146.512L241.003 143.409L239.5 138.801L244.104 136.535L248.176 131.889L250.193 131.755L254.055 122.825L256.833 122.539L257.157 117.989L261.609 109.668L261.4 105.764L259.345 103.46L259.859 97.31L256.7 93.3494L259.25 91.1787L259.592 85.6758L267.964 83.7908L269.144 87.1991L272.721 89.6935L275.118 85.1237L277.877 83.7717L277.42 86.5517L276.107 87.0468L277.972 88.1702L277.744 102.737L281.34 103.936L283.242 109.668L286.134 113.133L287.01 112.41L294.373 115.38L298.445 113.076L301.869 114.523L304.552 106.374L308.567 108.468L321.163 102.032L322.989 104.127L325.634 102.223L329.934 106.126L328.469 110.22L330.448 111.496L330.219 115.666L335.775 118.503L334.767 123.377L337.088 124.996L339.181 123.53L342.282 124.082L347.534 119.588L345.46 114.599L340.589 108.906L340.836 106.05L342.891 104.736L343.88 101.366L346.145 100.909L346.544 98.0145L344.832 97.6337L344.147 95.2726L338.21 96.3198L334.215 93.0257L335.547 90.1505L334.462 88.1512L335.623 82.4198L334.652 79.5827L340.132 73.6609L340.322 69.529L343.005 70.2525L348.77 67.3012L351.263 68.5198L353.603 66.1587L354.497 68.3675Z" fill="#2C2C2C" stroke="#222222" stroke-width="2" stroke-linejoin="round"/>
<path d="M683.887 491.557L678.616 488.491L676.371 484.073L672.413 480.779L670.815 483.674L666.896 483.197L652.512 475.181L613.526 440.964L603.08 435.442L598.457 434.985L596.231 440.869L596.668 448.733L591.873 450.618L590.846 454.617L585.29 453.931L585.652 451.951L584.13 451.361L582.817 446.581L577.642 448.733V444.658L573.322 442.145L572.561 444.715L565.293 443.897L565.217 443.706L567.519 447.933L564.437 447.914L563.79 446.353L560.004 447.857L558.082 454.464L553.135 458.444L552.755 462.576L553.002 462.766L557.093 464.404L561.45 470.269L557.454 470.307L558.025 474.458L556.275 474.343L555.114 467.26L554.277 473.201L551.936 474.458L549.159 473.924L549.539 475.467L547.751 477.466L543.355 479.047L546.114 483.293L547.465 485.521L553.344 485.444L554.01 486.511L557.968 483.312L561.545 483.083L560.575 484.568L561.488 487.31L555.932 492.451L558.52 495.155L561.241 493.765L563.657 497.059L566.359 493.08L568.242 493.327L569.822 496.031L571.572 496.126L572.124 494.489L573.855 495.289L585.956 509.17L590.009 506.713L594.252 508.275L596.763 503.153L600.721 504.219L600.017 508.046L601.729 509.646L598.304 512.864L598.4 514.463L602.719 520.099L603.442 525.64L602.262 526.973L605.839 529.525L607.114 536.037L609.759 537.35L609.492 542.872L606.41 545.824L607.685 548.756L611.623 549.556L612.708 552.812L612.251 558.086L613.678 562.104L612.023 563.361L613.811 567.074L612.746 569.911L617.864 572.976L618.244 574.633L620.356 574.881L620.585 582.573L622.887 579.984L622.925 576.727L625.399 578.194L628.062 575.547L633.789 579.926L638.546 587.429L643.626 586.267L646.004 582.802L648.687 589.695L648.212 593.16L646.461 596.778L645.738 595.312L642.085 596.797L641.609 600.605L647.85 602.109L648.877 599.881L650.951 599.691L657.953 605.708L661.131 606.641L664.708 604.109L665.773 604.985L666.915 600.453L671.424 599.71L671.995 594.969L674.525 592.151L675.001 589.39L678.959 591.561L683.449 589.447L684.724 591.256L687.292 590.932L691.117 589.142L691.992 584.934L693.286 584.211L698.575 583.849L702.609 581.164L712.103 579.127L707.917 566.369L704.987 550.889L683.563 497.745L683.887 491.557ZM567.481 485.387L566.073 484.892L565.712 484.778L566.321 483.445L567.405 484.073L567.595 485.083L567.481 485.387Z" fill="#2C2C2C" stroke="#222222" stroke-width="2" stroke-linejoin="round"/>
<path d="M797.762 688.499L808.113 694.002L817.607 695.773L825.161 704.036L831.173 706.379L831.573 712.605L827.52 718.451L829.08 724.03L827.254 727.057L829.156 729.38L827.729 730.37L829.632 733.208L833.171 734.826L829.271 736.768L827.977 739.624L826.512 738.158L826.455 739.72L822.478 741.452L819.967 746.06L813.802 743.204L811.424 746.098L813.155 747.622L811.804 758.247L814.772 759.522L818.559 763.902L812.889 767.9L807.847 768.3L804.84 771.347L797.211 768.091L793.938 773.613L790.361 774.717L788.573 773.308L784.824 773.746L784.9 775.536L782.903 775.669L778.736 779.382L776.415 776.031L770.06 777.021L767.795 775.288L767.072 772.261L751.832 767.805L747.97 765.73L747.475 763.807L744.088 763.788L743.708 762.188L737.143 762.055L736.401 764.682L732.044 761.046L727.858 768.719L730.484 771.899L730.998 776.507L728.524 774.869L724.434 775.783L720.514 771.118L721.047 768.224L718.155 766.758L719.601 764.302L717.679 762.683L723.121 758.761L720.799 756.742L722.417 756.4L722.816 754.591L720.21 751.715L721.503 750.516L721.313 747.907L718.649 741.071L714.863 737.796L718.859 736.806L722.417 738.672L722.95 735.892L725.48 735.797L727.135 731.227L729.342 731.056L730.846 734.997L732.044 729.97L735.831 729.875L737.105 727.514L737.581 729.437L739.198 729.685L739.997 727.724L737.105 726.029L734.727 719.269L735.526 717.556L739.75 717.27L742.471 713.043L748.008 708.511L749.796 710.91L752.155 710.663L754.02 714.833L755.105 715.252L757.102 712.738L761.745 715.823L763.838 717.86L765.874 726.029L764.371 727.248L768.252 727.952L777.309 718.184L780.581 711.082L785.072 707.921L786.632 702.018L791.008 696.61L796.412 692.878L794.68 691.279L796.906 687.756L797.762 688.499Z" fill="#2C2C2C" stroke="#222222" stroke-width="2" stroke-linejoin="round"/>
<path d="M177.834 90.2458L180.783 93.2353L179.604 96.1296L181.011 99.8807L180.327 108.906L176.616 113.762L179.47 118.503L178.215 120.75L180.916 123.168L186.719 125.072L190.905 132.669L193.721 133.869L193.132 135.887L194.578 138.515L198.021 138.401L201.865 141.352L204.985 141.105L203.786 144.17L205.708 152.834L190.392 169.514L192.827 178.958L188.87 183.433L188.755 186.289L192.599 193.563L198.402 195.296L197.355 200.342L201.218 201.103L200.514 203.007L202.055 206.53L199.144 205.921L199.753 208.339L203.425 211.443L202.588 214.699L205.042 224.067L211.721 227.513L213.909 234.939L215.602 234.825L217.371 240.138L213.319 242.194L210.313 241.375L208.086 242.899L205.213 242.346L209.342 246.764L205.765 249.049L204.7 253.048L202.607 254.171L199.81 254.38L198.878 249.525L196.728 248.116L196.747 246.383L191.457 246.593L189.193 244.688L186.358 247.316L187.5 250.724L184.912 251.6L183.542 254.438L187.366 256.418L187.956 259.788L186.092 259.541L186.13 260.454L189.212 261.464L186.815 261.768L187.899 262.568L186.092 264.187L188.47 266.414L186.206 267.233L187.157 267.976L191.286 266.148L187.88 271.041L188.927 272.907L191.647 273.745L192.77 276.582L194.901 277.173L194.216 279.648L196.937 282.104L197.489 288.826L203.786 292.463L204.662 289.13L205.423 291.32L207.554 291.016L207.896 292.939L210.332 293.243L210.807 291.301L213.928 290.958L217.01 287.893L222.547 287.436L223.099 293.548L225.553 296.88L228.064 295.7L228.94 296.537L230.329 298.994L229.872 302.288L232.821 307.143L236.018 309.98L237.958 309.752L239.328 313.541L237.54 315.464L239.747 317.692L239.519 319.482L242.277 319.73L243.134 321.215L248.309 319.787L249.203 325.366L253.522 328.565L252.343 332.373L253.047 337.8L252.095 337.438L252.152 347.111L252.266 349.872L245.569 352.671L242.487 350.367L242.582 347.549L239.804 345.93L237.064 346.482L234.02 339.951L229.682 340.427L228.312 338.485L225.249 338.942L224.05 342.103L221.063 344.502L223.803 347.472L224.373 354.556L221.633 356.041L219.978 353.775L215.64 354.346L215.697 357.145L212.386 359.925L213.071 362.743L210.655 363.638L209.913 359.449L208.277 359.506L208.848 357.793L205.442 352.195L202.359 351.757L195.605 351.357L193.265 355.032L194.768 356.765L189.554 362.553L187.652 361.125L181.544 361.353L180.897 359.716L178.728 362.972L175.931 360.992L174.409 361.715L173.344 365.904L170.851 367.256L164.991 362.286L161.471 361.925L159.606 359.03L156.657 361.392L156.733 364.99L154.108 365.866L156.714 372.093L155.287 375.768L149.237 379.119L149.675 382.927L147.81 385.993L145.355 385.688L144.785 389.839L142.007 388.601L141.208 389.63V391.534L143.624 394.028L141.246 396.37L142.882 398.465L141.474 401.721L144.252 404.139L144.347 407.833L142.102 410.784L139.4 411.717L136.489 409.775L132.988 412.65L135.481 413.831L136.546 415.487L135.728 416.877L131.98 415.564L128.878 417.239L111.754 411.755L108.063 413.812L107.169 416.744L108.9 419.486L111.393 419.448L108.444 422.628L106.922 422.114L107.036 419.277L102.393 413.012L104.106 407.09L99.387 406.9L97.7127 410.537L92.1949 409.623L82.3391 413.793L79.39 413.126L78.7811 415.602L75.6607 413.831L72.1788 415.145L70.8089 410.994L64.6062 411.717L61.1434 407.509L58.6128 407.928L55.6637 403.51L53.1521 402.673L51.3446 403.663L45.5605 399.74L40.4613 400.483L38.064 398.845L36.8843 392.809L33.1741 390.658L33.5166 388.716L30.3201 385.764L29.8825 383.213L26.4197 381.632L26.9524 373.578L32.394 372.512L25.5254 365.6L23.3944 358.688L25.5444 355.451L28.5887 355.127L30.8338 352.918L32.5082 346.863L34.2777 346.711L32.4131 342.141L33.764 338.847L36.2184 336.981L44.9326 337.533L44.0193 333.953L40.4994 331.878L39.4529 325.747L37.4361 323.538L39.6432 318.835L38.0069 316.664L31.1954 313.522L28.7219 315.997L24.1555 315.122L18.2953 311.142L17.9908 309.447L13.1771 307.562L13.5576 303.602L12.4541 302.935L14.5089 300.003L11.8452 295.852L13.1581 294.805L12.5111 292.596L5.60446 291.815L4.4248 284.675L2.67435 284.18L1 280.01L5.52835 277.192L6.28942 275.135L12.3209 275.478L14.8134 272.508L22.5763 275.764L22.7475 276.982L27.0475 275.668L27.0666 271.289L32.1847 271.099L32.9839 268.223L37.5693 264.187L40.0237 264.586L42.364 263.177L44.2096 265.329L48.2813 260.34L49.6703 260.531L50.6787 255.523L48.2623 249.277L50.1269 248.935L50.907 246.002L53.4185 244.688L53.4375 241.889L55.7969 238.462L48.6809 234.635L47.5012 229.97L50.8689 223.191L51.5539 228.618L53.2663 227.323L59.1075 229.36L63.6549 223.629L68.9824 223.496L72.5594 221.801L74.3859 223.077L81.1214 217.669L82.8909 214.68L85.2311 213.937L88.7511 214.832L92.7086 212.68L96.533 215.06L96.7803 216.717L99.4631 215.46L103.211 217.936L107.626 217.212L108.919 218.374L118.223 211.766L123.246 211.386L125.168 212.623L126.557 206.835L128.84 206.378L125.377 199.275L128.536 193.887L127.851 191.602L124.769 190.459L121.515 184.557L122.847 174.941L121.515 167.21L122.885 165.915L123.075 159.003L125.872 155.995L133.768 156.223L135.88 153.996L136.109 151.101L138.316 149.521L137.041 145.503L138.068 141.714L145.146 140.057L146.212 137.335L149.846 135.43L149.617 132.593L151.121 130.423L148.514 124.177L145.717 120.731L142.463 119.207L148.533 113.171L151.292 114.009L155.459 112.353L156.867 108.678L160.52 107.059L160.577 104.489L165.105 102.604L165.999 99.7474L163.241 98.4145L164.725 96.0534L166.627 95.9011L170.414 92.2452L177.834 90.2458Z" fill="#2C2C2C" stroke="#222222" stroke-width="2" stroke-linejoin="round"/>
<path d="M917.002 703.446L924.327 704.874L933.669 711.996L932.394 714.928L934.792 719.479L934.64 722.526L933.898 726.277L931.31 728.866L922.31 734.883L921.759 736.94L905.795 746.936L906.081 757.771L910.837 766.777L917.42 771.557L935.248 779.82L940.918 784.276L956.33 790.084L972.37 799.775L991.263 805.792L994.421 808.515L997.846 808.611L998.702 810.039L1000.49 809.258L1000.97 810.648L1008.94 814.113L1021.97 818.379L1040.31 830.394L1047.22 838.829L1051.03 840.562L1059.7 848.73L1082.17 857.756L1093.97 865.943L1104.64 867.219L1106.77 870.742L1105.84 872.36L1112.67 872.589L1112.04 874.664L1115.01 878.339L1113.99 882.224L1118.27 887.517L1122.79 891.649L1133.98 897.894L1151.83 917.05L1155.63 925.542L1155.2 928.893L1158.15 935.786L1160.85 937.443L1159.88 938.357L1161 941.499L1157.73 944.507L1156.8 949.039L1153.01 951.667L1150.27 957.703L1148.59 966.385L1148.65 977.81L1146.54 980.78L1144.24 981.39L1136.95 975.754L1127.25 973.716L1115.01 963.758L1109.84 954.732L1112.14 953.78L1111.8 950.067L1107.84 947.934L1110.71 945.821L1111.49 941.061L1102.72 930.15L1103.35 926.513L1101.41 922.343L1096.61 918.364L1079.36 915.831L1062.65 917.126L1056.66 912.785L1051.52 912.232L1035.01 902.674L1032.87 902.731L1033.45 900.998L1037.1 899.399L1037.52 896.581L1034.95 893.458L1030.59 893.667L1029.49 890.583L1024.07 888.545L1016.8 889.631L1010.14 893.248L1003.34 899.265L999.292 905.949L997.808 902.407L994.479 899.608L993.794 896.523L990.426 894.486L987.191 895.324L985.555 893.515L987.382 889.554L985.175 887.879L986.012 886.336L984.185 884.413L985.003 878.91L986.202 878.035L984.452 874.112L986.164 867.238L983.843 864.553L985.783 863.582L980.228 859.355L979.219 860.783L976.993 859.45L976.67 857.565L974.767 858.784L971.551 857.394L971.342 860.707L969.725 858.175L967.879 858.67L968.012 862.268L964.131 857.565L957.491 865.258L954.58 864.458L953.115 861.145L940.614 849.644L935.02 837.344L931.215 836.106L927.162 839.838L924.137 836.963L913.501 832.431L912.359 830.279L915.232 830.793L918.657 826.89L918.067 823.939L919.285 821.958L915.784 819.102L914.624 819.902L913.463 815.427L911.066 814.856L910.609 812.914L907.298 812.343L902.922 809.201L900.22 810.819L898.679 810.267L899.022 811.714L895.844 812.533L896.13 814.342L892.933 816.094L890.155 814.075L885.38 815.789L876.532 814.304L872.841 815.027L870.272 817.369L870.9 819.712L864.051 816.284L861.063 816.551L857.068 813.123L853.833 815.58L848.449 813.314L846.356 815.027L842.531 812.285L841.142 808.687L838.155 807.221L839.715 803.431L843.559 801.146L841.942 796.615L845.005 794.672L842.608 791.95L839.525 792.559L837.546 789.741L831.039 790.007L830.64 785.875L824.989 783.857L823.809 778.868L825.407 776.641L827.424 776.298L826.397 774.013L827.957 772.528L827.615 771.004L822.192 769.481L818.748 764.073L814.962 759.694L811.994 758.418L813.364 747.793L811.613 746.251L813.991 743.357L820.156 746.213L822.668 741.624L826.644 739.891L826.701 738.311L828.166 739.777L829.46 736.921L833.38 734.979L829.841 733.379L827.938 730.523L829.346 729.533L827.462 727.21L829.289 724.182L827.729 718.603L831.781 712.777L831.382 706.55L851.227 707.769L853.605 709.711L859.674 709.939L878.568 706.417L884.98 708.226L892.838 707.826L917.002 703.446Z" fill="#2C2C2C" stroke="#222222" stroke-width="2" stroke-linejoin="round"/>
<path d="M171.213 1066.29L172.26 1068.12L176.56 1066.88L180.593 1073.68L178.424 1084.38L175.456 1086.08L170.129 1075.89L169.063 1070.46L171.213 1066.29ZM165.144 1057.67L164.896 1068.06L161.814 1068.79L159.245 1066.98L159.34 1063.76L156.41 1062.03L161.053 1057.76L165.144 1057.67ZM304.038 837.115L305.085 838.086L300.347 841.113L299.339 840.333L304.59 836.01L304.038 837.115ZM157.305 829.708L156.239 830.793L156.125 828.889L157.305 829.708ZM166.456 811.333L166.97 813.485L169.329 815.065L167.94 816.474L167.617 820.206L162.423 817.788L158.275 823.557L159.531 823.196L161.091 826.28L160.197 828.889L155.82 828.337L157.704 823.634L156.505 823.462L156.81 821.33L159.626 820.149L161.281 817.103L163.108 816.893L162.08 813.18L166.456 811.333ZM278.79 795.472L280.426 798.385L278.067 802.346L279.703 802.784L275.327 803.45L277.401 795.224L278.79 795.472ZM265.985 794.234L267.831 795.396L265.814 797.186L265.985 794.234ZM255.197 793.358L259.992 797.3L258.565 800.879L260.581 802.993L265.243 802.669L265.757 800.232L268.135 799.966L269.162 803.431L270.247 803.717L274.014 803.755L272.15 806.173L274.547 806.592L276.259 809.22L275.936 814.78L278.771 810.476L278.238 808.287L282.976 808.553L283.566 806.363L285.316 808.724L284.251 809.353L286.115 809.467L285.602 811.809L288.132 811.695L288.627 813.827L286.724 816.722L285.678 815.446L284.936 816.151L285.487 818.892L283.908 819.883L282.443 825.557L283.908 825.481L284.232 822.91L287.58 821.901L286.572 826.185L289.083 826.299L289.007 824.738L289.883 825.309L290.815 823.805L297.569 827.29L296.237 828.699L292.109 826.585L289.483 828.851L290.586 830.831L288.132 834.125L288.76 835.896L283.585 835.135L281.853 835.915L283.566 836.81L287.599 836.905L289.236 837.572L288.513 838.352L290.358 840.523L293.174 836.62L295.571 837.077L292.756 840.656L297.018 842.77L296.009 845.36L299.187 844.655L303.182 847.416L301.793 848.482L299.891 847.797L299.11 849.644L300.195 851.11L298.521 851.986L298.254 854.385L302.745 858.841L302.44 864.02L306.245 868.799L305.085 873.674L306.303 878.529L309.803 881.804L310.336 885.251L313.495 887.231L307.52 904.692L300.024 911.09L293.859 921.638V928.169L296.466 935.881L300.309 941.041L304.229 943.326L304.191 946.487L299.681 957.569L299.986 961.606L302.326 962.196L302.726 963.624L299.244 967.147L300.652 973.183L298.045 982.075L298.901 990.948L295.781 998.622L296.789 1009.11L294.411 1017.57L295.781 1022.67L291.081 1036.95L291.671 1040.97L294.487 1043.27L291.519 1044.26L289.483 1047.39L287.58 1056.2L289.198 1058.64L287.143 1064.31H285.202L283.451 1066.47L283.699 1068.94L281.796 1067.34V1064.58L279.989 1063.89L275.384 1065.46L261.609 1054.09L253.161 1052.32L249.108 1054.77L248.195 1058.03L243.324 1054.11L239.272 1055.9L234.439 1061.91L234.344 1069.82L237.141 1073.72L234.762 1082.73L233.716 1081.68L232.327 1082.38L218.837 1095.98L216.439 1095.88L214.537 1093.39L213.3 1095.01L210.865 1091.12L205.575 1088.1L205.252 1090.08L200 1091.37L200.552 1093.35L198.478 1094.4L199.43 1096.93L197.793 1097.48L198.345 1093.66L194.445 1093.87L195.834 1087.58L191.001 1083.18L190.183 1075.07L187.024 1073.24L181.468 1073.13L182.344 1069.61L180.993 1066.66L179.775 1065.51L177.682 1066.64L177.606 1061.1L170.985 1053.99L170.794 1052.13L176.483 1046.8L177.492 1044.17L176.027 1039.01L173.401 1038.07L173.021 1034.82L171.46 1033.52L175.228 1027.56L175.133 1025.32L172.298 1023.45L172.697 1021.55L179.185 1011.95L180.917 1004.94L178.824 1000.85L179.661 997.003L178.481 994.851L179.452 991.805L178.5 985.464L179.794 983.865L183.181 989.71L184.665 989.596L185.312 985.655L188.394 980.399L189.155 972.25L186.263 966.975L181.678 966.69L178.044 970.422L173.877 966.48L173.401 957.931L175.361 952.314L171.898 950.295L174.371 948.239L175.323 949.572L179.395 948.315L182.895 944.583L183.048 941.708L179.68 932.339L182.21 918.363L179.965 914.06L176.198 911.87L172.488 911.661L172.145 908.919L174.314 902.521L171.594 892.277L168.15 891.058L164.459 879.557L159.302 880.586L159.036 882.337L155.155 882.433L155.116 879.081L156.543 878.091L154.47 875.921L151.026 881.347L149.96 881.005L149.408 875.311L153.309 873.521L155.364 867.466L152.396 866.191L148.286 861.506L151.616 857.032L151.083 853.338L153.67 851.091L157.171 841.456L152.605 835.096L155.269 830.527L158.541 832.888L158.066 838.333L165.924 846.769L171.727 847.93L176.065 847.207L179.756 849.91L190.107 848.387L203.102 837.876L212.634 836.467L220.511 827.499L220.302 825.005L226.162 821.482L233.982 810.857L237.121 809.162L238.358 810.552L243.286 809.6L244.447 806.954L247.643 806.82L249.203 805.069L247.757 801.432L249.032 797.281L246.578 796.862L246.863 795.072L248.861 796.424L251.601 794.958L251.715 796.71L255.197 793.358ZM273.615 792.102L276.393 796.595L275.574 798.785L269.943 799.661L269.086 797.262L271.902 795.129L271.655 793.035L272.968 794.444L273.615 792.102Z" fill="#2C2C2C" stroke="#222222" stroke-width="2" stroke-linejoin="round"/>
<path d="M576.899 1504.85L586.241 1505.82L586.85 1509L575.472 1505.93L576.899 1504.85ZM520.923 1346.85L525.375 1349.13L526.517 1348.43L530.341 1351.66L530.569 1356.16L527.887 1359.32L524.31 1359.07L517.993 1351.32L518.164 1348.35L520.923 1346.85ZM568.87 1224.07L567.082 1217.82L569.593 1216.47L568.87 1224.07ZM555.361 1210.44L556.864 1213.27L559.014 1212.49L561.088 1213.98L561.069 1216.17L559.68 1216.51L557.892 1214.57L553.211 1215.1L551.632 1212.43L555.361 1210.44ZM531.559 1205.79L534.089 1211.24L529.352 1209.81L528.02 1205.69L531.559 1205.79ZM872.327 1167.71L876.931 1170.79L882.144 1172.05L876.893 1173.5L874.02 1175.88L872.555 1181.38L874.153 1181.06L866.314 1195.51L847.744 1219.75L847.687 1222.89L844.529 1225.04L844.909 1226.79L838.63 1234.9L837.907 1237.04L839.296 1240.31L837.356 1247.13L835.034 1250.1L835.168 1256.8L829.231 1262.42L826.301 1267.88L827.424 1288.07L833.779 1292.01L836.652 1292.73L837.946 1291.46L842.969 1297.61L841.922 1299.05L840.115 1297.8L839.753 1300.98L838.878 1297.42L836.69 1298.18L836.062 1304.29L837.965 1308.75L840.571 1307.89L841.656 1309.47L840.153 1308.84L839.43 1309.91L840.704 1313.01L843.425 1314.55L846.736 1314.4L846.926 1320.23L844.871 1319.45L844.7 1322.47L846.032 1323.31L847.877 1322.23L850.617 1326.97L847.212 1325.44L844.757 1326.43L843.368 1330.55L838.269 1331.77L832.77 1337.84L827.138 1351.74L831.534 1365.62L830.658 1367.81L829.117 1366.86L825.73 1370.08L819.642 1363.62L813.763 1364.69L809.482 1361.03L805.943 1360.12L796.524 1363.37L792.852 1361.36L787.658 1361.34L782.54 1356.48L777.745 1354.58L768.479 1353.38L765.111 1349.74L763.551 1343.11L757.444 1332.15L745.99 1320.53L736.495 1316.06L727.153 1313.98L717.145 1314.21L711.057 1315.83L708.183 1315.01L703.046 1309.77L696.025 1309.14L687.235 1303.7L685.428 1299.66L676.923 1292.67L674.031 1293.42L672.585 1291.82L666.686 1291.65L662.101 1286.85L654.338 1283L651.826 1280.01L649.391 1279.84L647.374 1275.29L638.945 1267.1L630.269 1265.64L624.732 1266.95L619.101 1258.48L614.724 1256.97L601.292 1256.5L591.074 1259.03L584.567 1249.13L580.438 1246.5L576.024 1246.79L571.8 1241.89L571.439 1236.39L566.796 1229.4L570.506 1227.27L572.675 1220.39L569.974 1216.3L573.912 1210.78L573.532 1206.95L575.891 1205.9L573.075 1202.86L575.948 1202.13L581.009 1196.38L584.225 1196.97L587.63 1195.62L589.933 1193.32L589.704 1191.19L594.613 1191.38L597.182 1187.66L595.07 1183.49L596.611 1181.47L597.258 1183.09L600.264 1182.75L600.359 1186.2L602.414 1188.21L602.338 1191.26L604.488 1195.09L613.164 1201.81L621.726 1199.45L630.44 1194.02L628.005 1187.74L629.87 1187.3L631.125 1184.92L630.364 1183.63L633.447 1181.02L641.552 1183.89L645.567 1182.25L646.404 1179.67L649.734 1180.16L653.881 1177.11L655.137 1180.31L658.695 1182.45L659.665 1186.54L658.257 1188.71L660.255 1191.51L666.515 1193.26L670.796 1192.21L672.489 1190.08L675.324 1190.88L675.382 1196.59L678.331 1199.98L692.486 1207.64L697.776 1208.46L707.156 1205.9L715.376 1201.05L722.72 1199.6L726.982 1202.42L731.111 1202.86L734.707 1201.03L748.425 1203.77L756.759 1202.69L762.01 1199.73L767.185 1200.52L782.825 1195.51L793.48 1184.12L797.59 1185.85L807.332 1183.26L809.672 1180.86L815.19 1185.72L822.382 1185.74L823.98 1188.75L827.709 1189.51L835.111 1185.43L839.392 1180.58L841.561 1174.52L839.905 1171.04L841.504 1170.93L842.835 1173.84L841.808 1177.86L846.089 1179.06L857.01 1176.07L868.997 1167.97L872.327 1167.71ZM813.953 1152.95L817.549 1155.71L818.12 1158.97L816.141 1159.31L812.906 1157.23L811.822 1153.75L813.82 1151.18L814.79 1152.13L813.953 1152.95ZM814.162 1140.15L814.2 1143.85L815.932 1145.09L813.496 1145.89L813.306 1150.34L807.807 1144.55L809.386 1140.4L814.162 1140.15ZM755.598 1136.08L755.484 1138.78L753.829 1138.88L753.6 1136.69L755.598 1136.08ZM800.406 1132.52L805.296 1132.75L805.239 1138.21L803.736 1138.56L797.894 1135.2L798.941 1132.5L800.406 1132.52ZM773.788 1132.25L776.489 1132.79L778.164 1135.95L774.301 1135.57L772.912 1133.32L773.788 1132.25ZM825.274 1124.85L825.103 1126.81L823.333 1127.4L823.599 1125.11L825.274 1124.85ZM641.704 1116.33L642.522 1116.89L641.114 1118.52L637.861 1118.81L638.527 1116.49L640.487 1115.46L641.704 1116.33ZM839.867 1104.24L841.561 1105.5L838.65 1109.14L836.157 1106.66L839.867 1104.24Z" fill="#2C2C2C" stroke="#222222" stroke-width="2" stroke-linejoin="round"/>
<path d="M360.852 650.74L362.488 654.168L361.042 655.558L359.121 655.234L358.816 651.14L360.852 650.74ZM416.657 645.504L420.406 649.369L419.987 655.12L416.239 650.474L414.679 650.226L416.657 645.504ZM338.058 615.267L340.113 619.284L338.876 622.102L334.652 620.236L337.373 618.961L338.058 615.267ZM371.031 582.383L373.562 585.048L372.097 589.104L372.706 594.188L367.911 596.778L372.573 600.015L371.526 603.594L366.827 602.071L365.076 596.873L363.611 596.168L361.29 596.625L361.423 599.805L359.711 596.759L358.131 599.92L353.888 598.034L353.47 601.176L348.295 599.767L345.155 600.262L345.517 601.271L342.073 599.158L340.113 595.826L340.303 592.817L343.804 590.132L349.227 589.999L354.06 592.95L354.383 591.446L356.419 590.913L355.734 589.828L356.971 588.933L355.81 587.333L362.717 588.99L361.271 590.837L364.886 591.484L369.966 581.945L371.031 582.383ZM313.799 556.201L315.112 559.971L311.63 564.579L309.88 562.047L310.85 557.667L313.19 555.192L313.799 556.201ZM547.999 457.13L548.151 457.435L548.722 459.529L544.574 461.681L541.967 458.653L542.481 456.521L547.751 456.559L547.999 457.13ZM299.225 381.632L306.074 377.652L312.562 367.446L322.742 366.323L327.384 367.98L328.336 370.341L330.333 370.76L329.306 375.767L331.456 378.167L339.599 383.765L344.242 382.794L354.954 394.142L359.482 391.876L363.649 394.218L366.693 394.275L372.306 400.064L375.484 399.512L377.805 400.787L377.71 403.415L381.02 406.462L381.477 409.413L387.984 415.221L391.162 414.421L391.029 411.869L392.931 409.527L403.529 409.775L412.985 417.448L417.323 418.42L418.617 420.152L418.008 421.961L419.264 422.532L428.511 412.136L429.272 413.869L428.112 415.849L431.061 418.039L436.312 418.648L442.667 415.887L448.546 417.582L453.379 417.277L452.903 415.221L447.328 411.984L447.538 410.194L455.129 409.927L459.468 405.986L459.848 403.948L464.586 403.453L469.266 398.902L471.797 401.206L472.444 405.3L475.107 406.024L478.399 409.775L480.701 410.27L482.661 408.366L487.608 409.375L487.989 411.355L485.23 415.354L490.291 416.039L500.698 413.945L500.051 419.067L496.189 423.237L495.371 427.026L492.174 428.245L492.555 430.32L491.28 430.149L490.804 432.339L494.933 436.299L494.305 439.403L497.768 441.726L497.255 447.552L504.066 451.361L507.871 455.95L516.757 456.349L517.746 458.825L520.315 459.168L520.714 461.015L523.835 463.014L525.852 462.214L528.63 463.928L530.38 463.452L532.492 465.87L535.765 464.156L538.466 464.461L541.206 462.938L544.155 467.336L545.734 463.585L549.616 464.309L552.736 462.614L553.06 462.862L557.151 464.499L561.508 470.364L557.512 470.402L558.083 474.553L556.332 474.439L555.172 467.355L554.335 473.296L551.994 474.553L549.216 474.02L549.597 475.562L547.808 477.561L543.413 479.142L546.172 483.388L541.453 489.348L539.988 494.279L535.822 493.937L534.775 495.003L534.452 498.354L539.418 501.172L539.227 502.239L535.175 503.952L533.253 507.189L531.179 506.542L527.926 509.855L528.553 511.759L532.625 511.34L532.834 516.405L535.555 515.377L536.792 516.519L538.714 520.88L537.591 524.136L538.352 525.85L542.595 527.449L544.307 523.203L547.238 525.602L534.547 533.561L530.361 531.219L528.801 531.924L529.752 534.456L527.868 539.654L518.013 545.462L517.08 547.975L518.755 552.621L518.127 554.944L519.63 557.934L521.228 555.935L523.645 558.524L519.04 577.28L521.114 578.708L521.399 582.154L518.964 582.307L515.254 586.762L510.535 586.496L507.453 588.533L506.482 592.36L505.151 589.847L502.867 588.952L500.66 593.598L507.852 599.234L505.874 603.728L503.533 603.709L504.313 608.697L506.311 609.611L506.463 611.668L503.8 613.42L501.193 613.058L499.462 617.133L497.007 616.657L494.153 618.77L493.773 620.827L490.462 622.502L488.921 622.064L487.646 623.759L485.477 621.76L484.297 622.388L485.154 625.739L482.547 629.433L487.855 633.07L488.027 639.601L475.088 639.754L471.568 647.656L455.643 643.943L453.417 642.134L448.223 643.505L448.47 646.323L446.586 647.237L446.149 649.56L442.686 649.845L440.098 646.608L437.016 645.637L436.179 640.725L438.043 638.383L439.661 640.039L443.923 639.677L445.844 635.755L446.434 629.814L443.143 623.016L439.794 623.702L437.929 618.218L435.836 616.181L436.236 614.315L428.359 610.944L426.589 603.861L422.384 599.501L413.956 596.111L407.506 595.35L401.645 591.503L405.146 589.352L405.413 582.402L407.106 579.945L405.85 577.146L402.445 574.595L396.356 571.758L390.914 571.167L383.817 572.272L383.075 575.642L378.68 574.157L377.558 566.655L380.773 565.131L382.904 553.307L381.648 532.133L379.422 526.611L375.312 522.308L371.831 511.93L369.776 511.74L367.588 505.723L362.603 501.953L359.52 493.708L360.129 489.214L356.59 474.515L357.732 472.839L357.256 465.204L353.755 448.581L344.166 433.938L336.327 426.988L332.217 425.008L336.46 420.171L336.974 417.544L332.464 414.745L329.078 417.601L330.01 415.259L328.221 412.612L327.86 408.118L320.382 408.385L322.742 404.615L324.169 404.5L321.372 402.558L317.414 405.89L318.232 400.692L316.691 399.359L316.52 394.466L311.592 392.447L303.924 386.488L302.003 381.575L299.225 381.632Z" fill="#2C2C2C" stroke="#222222" stroke-width="2" stroke-linejoin="round"/>
<path d="M545.011 1.83781L548.303 4.4274L546.096 5.98877L545.068 10.1207L539.417 10.711L536.906 13.1292L538.523 20.3648L541.567 23.2591L539.094 26.915L543.413 27.7337L546.153 32.1513L548.759 30.1139L552.108 30.8946L555.114 37.0258L552.964 40.5484L552.85 44.966L559.738 46.2036L562.344 54.3151L571.934 59.8561L567.253 61.6079L564.076 65.1686L562.401 64.7878L563.124 67.3202L562.154 68.1961L559.757 68.3104L558.349 66.6157L552.66 68.4056L550.358 66.9585L544.003 72.0044L543.793 67.7011L540.844 65.835L539.265 66.3872L531.788 60.5416L532.358 64.9782L529.485 70.0812L529.809 72.9183L525.128 80.3824L524.025 78.9163L521.818 79.0305L519.572 81.2774L516.585 80.6681L507.319 85.3522L507.091 88.4749L512.932 89.2747L514.074 91.9214L509.698 97.1006L509.184 104.07L507.643 102.661L503.152 105.383L508.689 110.029L509.793 112.695L508.518 116.313L510.021 117.646L514.131 116.694L514.968 120.388L516.186 119.607L518.488 120.731L516.985 124.482L521.608 128.709L520.448 131.755L518.355 130.918L515.101 138.439L507.129 141.219L502.886 140.762L501.459 142.247L500.203 140.781L494.99 142.437L494.971 146.284L496.74 149.197L492.821 150.359L494.229 151.653L492.84 153.196L495.009 157.042L493.278 160.603L485.267 160.031L484.24 154.681L480.644 153.538L476.553 154.091L471.34 158.413L464.452 157.975L465.175 163.402L462.721 163.706L461.427 166.639L462.093 168.524L457.374 165.972L457.241 164.487L457.279 167.077L452.675 166.734L451.038 176.083L446.567 181.472L447.709 185.965L444.759 185.68L445.007 192.535L440.25 198.952L437.206 198.552L433.534 195.048L430.413 196.724L429.576 194.496L426.075 199.542L425.143 197.562L422.289 200.779L419.454 199.009L420.691 196.838L416.79 194.915L412.623 194.896L416.79 187.222L415.306 184.347L417.742 182.252L412.642 179.092L405.108 177.625L404.366 179.282L401.949 177.397L394.32 178.939L393.406 183.033L389.658 183.147L385.567 185.699L383.056 185.451L382.276 183.795L383.589 181.148L379.308 179.32L378.318 171.113L380.05 167.115L377.576 163.326L377.881 159.46L374.57 158.851L374.475 156.947L375.559 153.462L377.843 151.653L377.158 148.036L383.494 140.286L385.263 131.87L383.246 128.842L387.565 120.921L386.595 116.865L385.054 115.97L386.728 113.552L385.586 109.706L380.563 107.288L385.491 102.451L389.24 102.223L392.075 99.2522L390.476 96.6245L390.914 92.4355L388.954 89.8459L383.931 86.4756L376.758 85.9044L374.589 80.7823L376.492 79.0876L378.185 69.4338L373.847 65.4733L369.49 66.0635L367.892 59.1135L370.822 55.4767L369.395 52.1445L373.562 48.8313L371.24 43.9377L373.98 42.4144L376.758 34.5314L378.889 36.2451L384.217 35.8643L383.513 37.5399L395.1 32.1322L397.687 33.5984L397.668 35.5216L403.7 37.9779L404.556 39.5202L401.226 44.5471L403.776 44.985L406.877 43.4236L409.541 46.3179L411.786 45.3849L416.505 48.1458L419.663 46.4892L429.652 47.5555L431.441 42.1098L435.798 39.8249L434.618 35.1788L437.339 30.19L437.073 26.7626L438.785 24.2873L441.278 24.63L443.523 22.9544L443.789 19.2414L446.167 18.5369L447.918 19.6984L458.896 15.4522L460.514 16.5566L462.549 15.6617L467.097 19.3747L470.655 17.8704L474.46 12.6912L480.035 16.728L488.026 12.4628L492.364 15.357L496.931 15.4713L498.586 18.1751L500.546 18.7273L503.932 15.5855L509.241 15.338L516.89 9.43522L519.953 9.28289L522.674 7.09316L526.917 7.45494L528.819 5.36042L532.301 5.7222L534.47 2.98028L536.506 3.72288L542.937 1L545.011 1.83781Z" fill="#2C2C2C" stroke="#222222" stroke-width="2" stroke-linejoin="round"/>
<path d="M567.064 485.997L566.074 484.892L565.713 484.778L566.169 483.483L567.425 484.073L567.615 485.083L567.064 485.997ZM546.077 483.178L547.428 485.406L553.307 485.33L553.973 486.396L557.931 483.198L561.508 482.969L560.537 484.454L561.451 487.196L555.895 492.337L558.482 495.041L561.203 493.651L563.62 496.945L566.321 492.966L568.205 493.213L569.784 495.917L571.535 496.012L572.087 494.375L573.818 495.174L585.919 509.055L589.972 506.599L594.215 508.16L596.726 503.038L600.684 504.105L599.98 507.932L601.692 509.531L598.267 512.749L598.362 514.349L602.681 519.985L603.404 525.526L602.225 526.859L605.802 529.41L607.077 535.922L609.721 537.236L609.455 542.758L606.373 545.71L607.647 548.642L611.586 549.442L612.671 552.698L612.214 557.972L613.641 561.99L611.986 563.246L613.774 566.959L612.709 569.797L617.827 572.862L618.207 574.519L620.319 574.766L620.548 582.459L622.85 579.869L622.888 576.613L625.361 578.079L628.025 575.433L633.752 579.812L638.509 587.314L643.589 586.153L645.967 582.687L648.65 589.58L648.174 593.046L646.424 596.664L645.701 595.197L642.048 596.683L641.572 600.491L640.145 608.983L637.614 611.42L634.532 610.202L634.437 611.687L629.11 614.962L625.19 612.906L623.839 615.819L617.655 615.743L616.152 617.59L612.328 615.705L611.224 617.933L612.404 622.788L608.428 624.064L604.908 627.167L601.007 626.977L600.684 629.509L594.861 631.185L597.468 635.07L591.779 638.821L589.496 638.916L587.803 635.393L585.538 635.546L585.12 642.934L576.881 649.331L575.226 647.427L575.321 644.228L568.395 645.237L570.241 642.534L565.884 641.029L565.922 637.107L567.216 636.669L565.808 635.374L566.283 631.833L563.487 631.528L559.681 634.613L557.341 632.213L553.783 632.632L555.096 631.756L552.204 630.233L553.631 628.957L551.652 627.339L552.051 623.626L548.874 622.141L547.828 613.629L544.65 609.707L541.568 608.412L538.942 610.678L537.667 610.278L537.439 611.706L535.517 609.669L528.515 612.163L520.638 607.289L518.184 603.271L521.704 601.291L523.626 597.52L518.336 594.112L515.254 586.724L518.964 582.268L521.399 582.116L521.114 578.67L519.04 577.242L523.645 558.486L521.228 555.897L519.63 557.896L518.146 554.906L518.774 552.583L517.099 547.956L518.032 545.443L527.888 539.635L529.79 534.437L528.839 531.924L530.418 531.238L534.604 533.58L547.295 525.621L544.365 523.222L542.652 527.468L538.409 525.869L537.667 524.155L538.79 520.899L536.868 516.539L535.631 515.396L532.93 516.424L532.72 511.359L528.649 511.778L528.021 509.874L531.274 506.561L533.348 507.208L535.27 503.971L539.323 502.258L539.513 501.191L534.547 498.373L534.87 495.022L535.917 493.956L540.084 494.298L541.549 489.367L546.077 483.178Z" fill="#2C2C2C" stroke="#222222" stroke-width="2" stroke-linejoin="round"/>
<path d="M93.7736 157.48L94.8771 159.708L102.145 158.68L103.877 161.498L106.388 162.526L107.606 166.201L110.65 164.011L115.35 167.077L117.576 165.82L121.515 167.21L122.846 174.941L121.515 184.557L124.768 190.459L127.85 191.602L128.535 193.887L125.377 199.275L128.84 206.378L126.557 206.835L125.168 212.623L123.246 211.386L118.223 211.766L108.919 218.374L107.625 217.212L103.211 217.936L99.4626 215.46L96.7798 216.717L96.5325 215.061L92.7081 212.68L88.7505 214.832L85.2306 213.937L82.8903 214.68L81.1208 217.669L74.3854 223.077L72.5588 221.801L68.9818 223.496L63.6543 223.629L59.107 229.36L53.2658 227.323L51.5534 228.618L50.8684 223.191L47.5007 229.97L42.3254 229.227L42.8392 226.123L37.5307 224.676L37.0931 215.042L35.2856 213.137L37.5117 205.921L34.201 203.922L29.2541 204.264L28.2647 201.503L23.6032 199.752L18.8084 194.211L19.5124 191.926L18.0664 186.308L19.9881 178.425L22.2523 177.778L24.1359 178.997L25.5249 176.731L28.9306 177.911L31.7656 177.016L32.774 175.055L37.1692 173.513L37.7781 169.59L41.6975 166.277L47.71 175.417L52.5998 172.466L56.1388 175.322L58.4981 171.304L62.5508 171.19L66.0327 166.582L75.0133 170.085L83.4801 164.754L83.4041 162.869L85.9726 160.87L90.1966 161.669L90.7674 157.614L93.7736 157.48Z" fill="#2C2C2C" stroke="#222222" stroke-width="2" stroke-linejoin="round"/>
<path d="M578.631 300.288L576.063 301.755L577.851 299.755L576.139 299.051L579.183 298.708L578.631 300.288ZM575.511 296.29L577.775 298.004L573.266 299.013L574.445 295.681L575.511 296.29ZM574.807 60.0276L580.211 63.7406L590.751 62.6743L594.69 64.0833L596.383 66.1588L596.022 69.5862L597.867 72.7471L596.535 77.0694L598.21 79.2782L593.358 79.3924L586.775 83.5434L586.546 85.3332L588.887 86.8565L589.648 90.1697L586.185 88.6845L584.206 90.1887L580.686 88.6845L577.699 91.0646L576.919 90.2459L574.103 94.1302L573.57 97.4624L569.765 100.814L570.374 103.46L569.232 102.946L569.575 104.089L566.093 105.86L565.465 109.706L561.831 109.192L559.852 110.791L559.928 114.58L556.503 118.179L560.537 123.606L564.494 123.587L564.989 126.595L568.49 126.405L569.061 130.461L573.665 134.174L572.809 140.99L567.291 144.723L563.924 150.073L565.674 151.596L567.025 156.547L567.063 163.154L569.784 163.23L571.782 166.106L574.598 166.125L576.995 174.75L579.64 177.15L579.24 179.434L583.045 181.434L584.339 178.387L586.699 179.644L586.927 181.358L589.058 182.348L589.153 185.432L596.535 178.597L597.81 179.891L601.577 175.893L603.727 177.492L602.909 179.396L604.108 180.786L605.154 178.806L609.283 176.75L610.501 176.883L609.74 178.978L612.118 181.148L615.01 179.358L615.943 181.434L618.892 180.482L618.036 177.797L619.158 177.34L620.262 180.348L620.186 180.939L620.947 181.643L620.623 183.205L622.183 183.871L620.109 185.09L623.972 188.765L623.04 189.26L624.276 191.735L623.61 193.963L625.456 192.611L626.54 197.695L628.044 198.076L627.34 199.599L629.261 201.141L628.938 203.655L630.802 203.426L630.574 204.588L632.61 205.73L631.544 207.196L622.183 207.844L622.355 206.416L620.623 205.749L619.71 208.339L614.002 209.082L612.194 211.538L600.284 218.983L569.993 233.092L567.082 236.843L563.905 235.244L560.251 240.157L557.512 245.507L557.321 247.564L558.901 248.306L556.846 249.068L553.878 261.426L556.465 262.225L554.41 264.263L555.495 269.061L557.93 271.822L557.378 281.914L560.118 284.237L563.125 290.14L562.154 289.492L560.632 291.301L562.363 292.367L564 291.168L563.543 293.281L564.513 293.548L565.56 292.958L564.723 289.606L565.655 289.664L573.837 299.889L572.581 308.4L570.545 310.266L570.621 315.693L567.577 314.646L568.224 309.2L566.283 308.362L564.532 309.086L563.105 312.361L564.761 314.436L564.038 318.378L565.522 319.634L566.759 318.777L566.873 320.148L564.361 319.901L564.152 322.643L559.567 318.987L558.425 314.836L554.639 313.865L553.421 312.056L552.793 306.553L553.992 304.192L552.412 302.135L550.358 302.155L547.58 304.611L543.489 304.287L541.948 302.288L539.132 304.135L534.775 298.27L522.027 296.233L517.841 297.718L505.911 297.566L500.355 300.155L498.947 304.382L492.878 306.096L489.054 309.714L486.694 309.942L485.343 309.485L484.525 306.401L480.53 303.716L469.684 304.439L469.38 301.602L468.942 299.641L453.759 291.492V286.807L451.057 288.426L445.102 286.217L446.225 283.132L445.444 281.209L447.861 279.267L442.153 277.135L440.383 280.333L437.796 278.943L437.339 281.362L435.056 280.943L430.642 277.23L432.468 273.65L430.813 272.603L427.75 273.212L428.473 269.956L426.97 267.633L421.509 265.158L421.699 262.682L418.236 261.768L418.027 260.474L413.004 259.35L410.873 254.875L407.144 251.22L402.558 255.047L401.588 253.162L398.753 252.438L400.047 248.801L398.163 245.964L400.637 244.117L398.81 242.689L400.637 237.796L395.956 235.644L394.624 237.186L393.045 236.843L393.825 233.073L391.675 210.7L412.776 179.282L417.875 182.443L415.439 184.538L416.904 187.432L412.757 195.105L416.904 195.124L420.805 197.067L419.568 199.218L422.403 200.989L425.238 197.771L426.17 199.77L429.69 194.705L430.528 196.933L433.648 195.258L437.32 198.761L440.364 199.161L445.121 192.744L444.874 185.889L447.823 186.175L446.681 181.662L451.152 176.274L452.808 166.944L457.412 167.286L457.374 164.697L457.507 166.182L462.226 168.733L461.56 166.867L462.854 163.935L465.308 163.63L464.604 158.223L471.492 158.661L476.705 154.357L480.796 153.805L484.392 154.948L485.42 160.298L493.43 160.869L495.161 157.309L492.992 153.462L494.381 151.939L492.992 150.644L496.912 149.502L495.142 146.569L495.161 142.723L500.374 141.067L501.649 142.533L503.057 141.067L507.319 141.524L515.272 138.744L518.526 131.222L520.619 132.06L521.761 129.014L517.156 124.786L518.659 121.035L516.357 119.931L515.139 120.712L514.302 117.018L510.192 117.97L508.689 116.637L509.983 113.038L508.879 110.353L503.324 105.726L507.814 102.984L509.355 104.393L509.869 97.4244L514.245 92.2642L513.122 89.6175L507.262 88.8178L507.49 85.676L516.756 80.9919L519.744 81.6202L521.97 79.3734L524.177 79.2401L525.28 80.7063L529.98 73.2421L529.657 70.424L532.549 65.302L531.959 60.8654L539.455 66.7301L541.035 66.1779L543.984 68.0439L544.193 72.3472L550.548 67.3013L552.85 68.7484L558.52 66.9586L559.947 68.6532L562.344 68.539L563.315 67.6631L562.592 65.1496L564.247 65.5305L567.425 61.9507L572.124 60.199L574.807 60.0276Z" fill="#2C2C2C" stroke="#222222" stroke-width="2" stroke-linejoin="round"/>
</svg>
