<svg width="48" height="48" viewBox="0 0 48 48" fill="none" xmlns="http://www.w3.org/2000/svg">
<path d="M37.2 28.2C37.05 28.2 36.75 28.2 36.6 28.05L27 18.45V18C27 17.85 27.15 17.55 27.15 17.4L36.15 8.39999C36.45 8.09999 36.9 8.09999 37.2 8.39999C37.5 8.69999 37.5 9.14999 37.2 9.44999L28.8 18L37.35 26.55L45.9 18C46.2 17.7 46.65 17.7 46.95 18C47.25 18.3 47.25 18.75 46.95 19.05L37.95 28.05C37.65 28.2 37.5 28.2 37.2 28.2Z" fill="white"/>
<path d="M26.7 21.9C26.55 21.9 26.25 21.9 26.1 21.75C25.8 21.45 25.8 21 26.1 20.7L27.75 19.05C28.05 18.75 28.5 18.75 28.8 19.05C29.1 19.35 29.1 19.8 28.8 20.1L27.15 21.75C27 21.75 26.85 21.9 26.7 21.9ZM17.1 35.1C16.5 35.1 15.9 34.95 15.45 34.5C14.55 33.6 14.55 32.25 15.45 31.35L23.4 23.4C23.7 23.1 24.15 23.1 24.45 23.4C24.75 23.7 24.75 24.15 24.45 24.45L16.5 32.25C16.2 32.55 16.2 33 16.5 33.3C16.8 33.6 17.25 33.6 17.55 33.3L19.65 31.2C19.95 30.9 20.4 30.9 20.7 31.2C21 31.5 21 31.95 20.7 32.25L18.6 34.35C18.3 34.8 17.7 35.1 17.1 35.1Z" fill="white"/>
<path d="M19.2 37.2C18.6 37.2 18 36.9 17.55 36.6C16.65 35.7 16.65 34.35 17.55 33.45L19.65 31.35C19.95 31.05 20.4 31.05 20.7 31.35C21 31.65 21 32.1 20.7 32.4L18.6 34.5C18.3 34.8 18.3 35.25 18.6 35.55C18.75 35.7 18.9 35.7 19.2 35.7C19.35 35.7 19.65 35.55 19.8 35.55L21.9 33.45C22.2 33.15 22.65 33.15 22.95 33.45C23.25 33.75 23.25 34.2 22.95 34.5L20.85 36.6C20.4 36.9 19.8 37.2 19.2 37.2Z" fill="white"/>
<path d="M21.3 39.3C20.7 39.3 20.1 39.15 19.65 38.7C18.75 37.8 18.75 36.45 19.65 35.55L21.75 33.45C22.05 33.15 22.5 33.15 22.8 33.45C23.1 33.75 23.1 34.2 22.8 34.5L20.7 36.6C20.4 36.9 20.4 37.35 20.7 37.65C21 37.95 21.45 37.95 21.75 37.65L23.85 35.55C24.15 35.25 24.6 35.25 24.9 35.55C25.2 35.85 25.2 36.3 24.9 36.6L22.8 38.7C22.5 39 21.9 39.3 21.3 39.3ZM27.15 42C26.55 42 25.95 41.85 25.5 41.4L24.45 40.35C24.15 40.05 24.15 39.6 24.45 39.3C24.75 39 25.2 39 25.5 39.3L26.55 40.35C26.85 40.65 27.3 40.65 27.6 40.35C27.75 40.2 27.75 40.05 27.75 39.75C27.75 39.45 27.6 39.3 27.6 39.15L26.55 38.1C26.25 37.8 26.25 37.35 26.55 37.05C26.85 36.75 27.3 36.75 27.6 37.05L28.65 38.1C29.55 39 29.55 40.35 28.65 41.25C28.35 41.7 27.75 42 27.15 42Z" fill="white"/>
<path d="M29.25 39.75C28.65 39.75 28.05 39.45 27.6 39.15L26.55 38.1C26.25 37.8 26.25 37.35 26.55 37.05C26.85 36.75 27.3 36.75 27.6 37.05L28.65 38.1C28.8 38.25 28.95 38.25 29.25 38.25C29.4 38.25 29.7 38.1 29.85 38.1C30 38.1 30 37.8 30 37.5C30 37.2 29.85 37.05 29.85 36.9L28.8 36C28.5 35.7 28.5 35.25 28.8 34.95C29.1 34.65 29.55 34.65 29.85 34.95L30.9 36C31.8 36.9 31.8 38.25 30.9 39.15C30.45 39.6 29.85 39.75 29.25 39.75Z" fill="white"/>
<path d="M31.5 37.65C30.9 37.65 30.3 37.5 29.85 37.05L28.8 36C28.5 35.7 28.5 35.25 28.8 34.95C29.1 34.65 29.55 34.65 29.85 34.95L30.9 36C31.2 36.3 31.65 36.3 31.95 36C32.25 35.7 32.25 35.25 31.95 34.95L30.9 33.9C30.6 33.6 30.6 33.15 30.9 32.85C31.2 32.55 31.65 32.55 31.95 32.85L33 33.9C33.9 34.8 33.9 36.15 33 37.05C32.55 37.5 31.95 37.65 31.5 37.65Z" fill="white"/>
<path d="M33.6 35.55C33 35.55 32.4 35.4 31.95 34.95L30.9 33.9C30.6 33.6 30.6 33.15 30.9 32.85C31.2 32.55 31.65 32.55 31.95 32.85L33 33.9C33.3 34.2 33.75 34.2 34.05 33.9C34.2 33.75 34.2 33.6 34.2 33.3C34.2 33 34.05 32.85 34.05 32.7L33 31.8C32.7 31.5 32.7 31.05 33 30.75C33.3 30.45 33.75 30.45 34.05 30.75L35.1 31.8C36 32.7 36 34.05 35.1 34.95C34.65 35.4 34.05 35.55 33.6 35.55Z" fill="white"/>
<path d="M23.4 41.4C22.8 41.4 22.2 41.25 21.75 40.8C20.85 39.9 20.85 38.55 21.75 37.65L23.85 35.55C24.15 35.25 24.6 35.25 24.9 35.55C25.2 35.85 25.2 36.3 24.9 36.6L22.8 38.7C22.5 39 22.5 39.45 22.8 39.75C23.1 40.05 23.55 40.05 23.85 39.75L33.45 30.15C33.75 29.85 33.75 29.4 33.45 29.1C33.15 28.8 33.15 28.35 33.45 28.05L35.1 26.4L28.8 20.1L27.15 21.75C26.85 22.05 26.4 22.05 26.1 21.75C25.8 21.45 25.8 21 26.1 20.7L28.2 18.6C28.5 18.3 28.95 18.3 29.25 18.6L36.75 25.95C36.9 26.1 36.9 26.25 36.9 26.55C36.9 26.85 36.75 27 36.75 27.15L35.1 28.8C35.55 29.7 35.4 30.6 34.65 31.35L25.05 40.95C24.6 41.25 24 41.4 23.4 41.4ZM12.3 27.75C12.15 27.75 11.85 27.75 11.7 27.6L2.69998 18.6C2.39998 18.3 2.39998 17.85 2.69998 17.55C2.99998 17.25 3.44998 17.25 3.74998 17.55L12.3 26.1L20.85 17.55L12.3 9.00001C12 8.70001 12 8.10001 12.3 7.80001C12.6 7.50001 13.05 7.50001 13.35 7.80001L22.35 16.8C22.5 16.95 22.5 17.1 22.5 17.4C22.5 17.7 22.5 17.85 22.35 18L12.75 27.6C12.75 27.6 12.45 27.75 12.3 27.75Z" fill="white"/>
<path d="M8.09998 23.4C7.94998 23.4 7.64998 23.4 7.49998 23.25L1.19998 16.95C0.899976 16.65 0.899976 16.2 1.19998 15.9C1.49998 15.6 1.94998 15.6 2.24998 15.9L8.09998 21.75L16.65 13.2L10.8 7.35001C10.5 7.05001 10.5 6.60001 10.8 6.30001C11.1 6.00001 11.55 6.00001 11.85 6.30001L18.15 12.6C18.3 12.75 18.3 12.9 18.3 13.2C18.3 13.5 18.3 13.5 18.15 13.65L8.54998 23.25C8.39998 23.4 8.24998 23.4 8.09998 23.4Z" fill="white"/>
<path d="M12.7966 23.2068C13.0895 22.9139 13.0894 22.439 12.7965 22.1461C12.5036 21.8532 12.0288 21.8532 11.7359 22.1461C11.443 22.439 11.443 22.9139 11.7359 23.2068C12.0288 23.4997 12.5037 23.4997 12.7966 23.2068Z" fill="white"/>
<path d="M16.5 31.95C16.35 31.95 16.05 31.95 15.9 31.8L15 30.75C14.25 30 14.1 28.95 14.55 28.2L12.9 26.55C12.75 26.4 12.75 26.25 12.75 25.95C12.75 25.65 12.9 25.5 12.9 25.35L20.4 18C20.7 17.7 21.15 17.7 21.45 18C21.75 18.3 21.75 18.75 21.45 19.05L14.55 25.95L16.2 27.6C16.5 27.9 16.5 28.35 16.2 28.65C15.9 28.95 15.9 29.4 16.2 29.7L17.25 30.75C17.55 31.05 17.55 31.5 17.25 31.8C16.95 31.95 16.8 31.95 16.5 31.95Z" fill="white"/>
<path d="M28.2 27.75C27.3 27.75 26.4 27.45 25.8 26.7L22.95 23.85C22.65 23.55 22.65 23.1 22.95 22.8C23.25 22.5 23.7 22.5 24 22.8L26.85 25.65C27.45 26.25 28.5 26.4 29.25 25.8L24.45 21L22.05 21.3C21.75 21.3 21.6 21.3 21.45 21.15L20.4 20.1L13.35 27C13.05 27.3 12.6 27.3 12.3 27C12 26.7 12 26.25 12.3 25.95L19.8 18.6C20.1 18.3 20.55 18.3 20.85 18.6L22.2 19.95L24.6 19.65C24.9 19.65 25.05 19.65 25.2 19.8L30.9 25.5C31.2 25.8 31.2 26.25 30.9 26.55L30.6 26.85C30 27.3 29.1 27.75 28.2 27.75Z" fill="white"/>
</svg>
