<svg width="32" height="32" viewBox="0 0 32 32" fill="none" xmlns="http://www.w3.org/2000/svg">
<path d="M28.7216 22.3159C27.5604 21.1227 24.2597 18.8875 22.0963 18.8875C21.5953 18.8875 21.1578 18.9989 20.7999 19.2295C19.7421 19.9057 18.899 20.4307 18.4934 20.4307C18.2707 20.4307 18.0321 20.2318 17.5072 19.7784L17.4197 19.6989C15.9642 18.4341 15.654 18.108 15.0893 17.5193L14.9461 17.3682C14.8427 17.2648 14.7552 17.1693 14.6678 17.0818C14.1746 16.5727 13.8167 16.2068 12.5521 14.775L12.4964 14.7114C11.892 14.0273 11.4943 13.5818 11.4704 13.2557C11.4466 12.9375 11.725 12.4205 12.4328 11.458C13.2918 10.2966 13.3236 8.86477 12.5362 7.20227C11.9079 5.88977 10.8819 4.63295 9.97519 3.52727L9.89566 3.43182C9.11621 2.47727 8.20951 2 7.19942 2C6.07798 2 5.14742 2.60455 4.6543 2.92273C4.61453 2.94659 4.57477 2.97841 4.535 3.00227C3.42946 3.70227 2.62616 4.66477 2.32393 5.64318C1.87058 7.11477 1.56834 9.02386 3.73965 12.9932C5.61667 16.4295 7.31872 18.7364 10.0229 21.5125C12.568 24.1216 13.6974 24.9648 16.2266 26.7943C19.0422 28.8307 21.7464 30 23.6393 30C25.397 30 26.7809 30 28.7534 27.6216C30.8213 25.1239 29.9623 23.5966 28.7216 22.3159ZM27.8069 26.7625C26.2162 28.6875 25.3016 28.6875 23.6473 28.6875C22.0327 28.6875 19.5273 27.5739 16.9504 25.7205C14.4848 23.9386 13.3872 23.1193 10.9137 20.5818C8.297 17.9011 6.65063 15.6659 4.83723 12.3489C2.92044 8.84091 3.13518 7.30568 3.5249 6.04091C3.73169 5.36477 4.35207 4.64091 5.19514 4.11591C5.23491 4.09205 5.27467 4.06023 5.32239 4.03636C5.74393 3.76591 6.44384 3.3125 7.20737 3.3125C7.84365 3.3125 8.40835 3.63068 8.94919 4.29091L9.02872 4.38636C11.0569 6.86818 12.6396 9.06364 11.4466 10.6864C10.6035 11.8239 10.1581 12.5955 10.2297 13.3909C10.2933 14.1625 10.8103 14.7432 11.5898 15.6182L11.6454 15.6818C12.9259 17.1295 13.2918 17.5114 13.8008 18.0284C13.8883 18.1159 13.9758 18.2114 14.0792 18.3148L14.2224 18.4659C14.8109 19.0784 15.137 19.4125 16.6323 20.725L16.7198 20.8045C17.356 21.3614 17.8253 21.767 18.5093 21.767C19.2172 21.767 19.9966 21.3216 21.4759 20.375C21.6271 20.2795 21.8418 20.2239 22.1122 20.2239C23.8381 20.2239 26.8127 22.1966 27.8547 23.2705C28.8091 24.2409 29.2863 24.9727 27.8069 26.7625Z" fill="white"/>
</svg>
