<svg width="48" height="48" viewBox="0 0 48 48" fill="none" xmlns="http://www.w3.org/2000/svg">
<path d="M29.0156 19.8188L22.2563 26.2032L19.0125 22.8657C18.927 22.7777 18.8249 22.7073 18.7122 22.6588C18.5994 22.6102 18.4782 22.5843 18.3555 22.5825C18.2327 22.5808 18.1108 22.6033 17.9968 22.6486C17.8827 22.694 17.7787 22.7614 17.6906 22.8469C17.6026 22.9325 17.5323 23.0346 17.4837 23.1473C17.4351 23.26 17.4092 23.3812 17.4075 23.504C17.4058 23.6267 17.4282 23.7486 17.4736 23.8627C17.5189 23.9768 17.5863 24.0808 17.6719 24.1688L21.5625 28.1626C21.7363 28.3376 21.9712 28.4383 22.2178 28.4436C22.4644 28.4488 22.7034 28.3582 22.8844 28.1907L30.3188 21.1782C30.4082 21.0939 30.48 20.9929 30.5303 20.8808C30.5806 20.7687 30.6082 20.6478 30.6117 20.525C30.6152 20.4022 30.5944 20.28 30.5506 20.1652C30.5068 20.0505 30.4407 19.9455 30.3563 19.8563C30.1823 19.6756 29.9444 19.5704 29.6936 19.5634C29.4429 19.5563 29.1994 19.6481 29.0156 19.8188Z" fill="#222222"/>
<path d="M24 9.99365C16.275 9.99365 9.99377 16.2749 9.99377 23.9999C9.99377 31.7249 16.275 38.0062 24 38.0062C31.725 38.0062 38.0063 31.7249 38.0063 23.9999C38.0063 16.2749 31.725 9.99365 24 9.99365ZM24 36.1312C17.3063 36.1312 11.8688 30.6843 11.8688 23.9999C11.8688 17.3155 17.3063 11.8687 24 11.8687C27.2174 11.8687 30.3031 13.1468 32.5781 15.4218C34.8532 17.6969 36.1313 20.7825 36.1313 23.9999C36.1313 27.2173 34.8532 30.3029 32.5781 32.578C30.3031 34.853 27.2174 36.1312 24 36.1312Z" fill="#222222"/>
<path d="M43.275 18.8437L43.5844 13.2843C43.595 13.1017 43.5518 12.92 43.4602 12.7617C43.3685 12.6034 43.2324 12.4754 43.0688 12.3937L38.1188 9.89057L35.6157 4.94057C35.5324 4.7782 35.4041 4.64323 35.2462 4.5518C35.0882 4.46037 34.9073 4.41633 34.725 4.42495L29.1563 4.72495L24.5157 1.65932C24.3626 1.55842 24.1833 1.50464 24 1.50464C23.8167 1.50464 23.6374 1.55842 23.4844 1.65932L18.8438 4.72495L13.2844 4.41557C13.1018 4.40494 12.9201 4.44813 12.7617 4.53979C12.6034 4.63144 12.4755 4.76753 12.3938 4.9312L9.89066 9.8812L4.94066 12.3843C4.77828 12.4676 4.64332 12.5959 4.55189 12.7538C4.46045 12.9117 4.41641 13.0927 4.42503 13.2749L4.73441 18.8343L1.66878 23.4749C1.56788 23.628 1.5141 23.8073 1.5141 23.9906C1.5141 24.1739 1.56788 24.3532 1.66878 24.5062L4.72503 29.1562L4.41566 34.7156C4.40503 34.8982 4.44822 35.0799 4.53987 35.2382C4.63153 35.3965 4.76762 35.5245 4.93128 35.6062L9.88128 38.1093L12.3844 43.0593C12.4677 43.2217 12.596 43.3567 12.7539 43.4481C12.9118 43.5395 13.0927 43.5836 13.275 43.5749L18.8344 43.2656L23.475 46.3312C23.6269 46.435 23.8067 46.4906 23.9907 46.4906C24.1747 46.4906 24.3544 46.435 24.5063 46.3312L29.1469 43.2656L34.7063 43.5749C34.8889 43.5856 35.0706 43.5424 35.2289 43.4507C35.3872 43.3591 35.5152 43.223 35.5969 43.0593L38.1 38.1093L43.05 35.6062C43.2124 35.5229 43.3474 35.3946 43.4388 35.2367C43.5302 35.0788 43.5743 34.8979 43.5657 34.7156L43.2563 29.1562L46.3219 24.5156C46.4228 24.3625 46.4766 24.1833 46.4766 23.9999C46.4766 23.8166 46.4228 23.6374 46.3219 23.4843L43.275 18.8437ZM41.5313 28.3874C41.4168 28.555 41.3638 28.7571 41.3813 28.9593L41.6719 34.2187L36.9938 36.5812C36.8154 36.6706 36.6706 36.8153 36.5813 36.9937L34.2188 41.6718L28.9594 41.3812C28.7582 41.374 28.5593 41.4262 28.3875 41.5312L24 44.4281L19.6125 41.5312C19.4602 41.4282 19.2808 41.3727 19.0969 41.3718H19.05L13.7907 41.6624L11.4282 36.9843C11.3388 36.8059 11.1941 36.6612 11.0157 36.5718L6.32816 34.2187L6.61878 28.9593C6.62594 28.7581 6.57378 28.5592 6.46878 28.3874L3.57191 23.9999L6.46878 19.6124C6.58328 19.4448 6.63628 19.2428 6.61878 19.0406L6.32816 13.7812L11.0063 11.4187C11.1847 11.3293 11.3294 11.1846 11.4188 11.0062L13.7813 6.32807L19.0407 6.6187C19.2419 6.62586 19.4407 6.57369 19.6125 6.4687L24 3.57182L28.3875 6.4687C28.5551 6.5832 28.7572 6.63619 28.9594 6.6187L34.2188 6.32807L36.5813 11.0062C36.6706 11.1846 36.8154 11.3293 36.9938 11.4187L41.6719 13.7812L41.3813 19.0406C41.3741 19.2418 41.4263 19.4407 41.5313 19.6124L44.4282 23.9999L41.5313 28.3874Z" fill="#222222"/>
</svg>
