<svg width="48" height="48" viewBox="0 0 48 48" fill="none" xmlns="http://www.w3.org/2000/svg">
<path d="M14.0079 17.6541C14.0079 17.6541 14.0079 17.6541 14.0079 17.5699L14.0718 17.412C14.0941 17.3785 14.119 17.3468 14.1464 17.3173C14.175 17.2727 14.207 17.2305 14.2424 17.191L14.3383 17.1173L14.5089 17.0331L22.5043 12.16C22.6737 12.0554 22.8695 12 23.0693 12C23.2691 12 23.4649 12.0554 23.6343 12.16L31.5657 17.0331L31.6617 17.1173L31.7576 17.191C31.7929 17.2305 31.825 17.2727 31.8536 17.3173C31.881 17.3468 31.9059 17.3785 31.9282 17.412L31.9921 17.5699C31.9921 17.5699 31.9921 17.5699 31.9921 17.6541C32.0026 17.745 32.0026 17.8368 31.9921 17.9278V27.1267C31.9925 27.3056 31.9467 27.4816 31.859 27.6381C31.7714 27.7947 31.6447 27.9266 31.4911 28.0214L23.4957 32.8945C23.4465 32.9245 23.3924 32.9459 23.3358 32.9576C23.3358 32.9576 23.2825 32.9576 23.2505 32.9576C23.0702 33.0141 22.8765 33.0141 22.6962 32.9576C22.6962 32.9576 22.6429 32.9576 22.6109 32.9576C22.5543 32.9459 22.5002 32.9245 22.451 32.8945L14.5089 28.0214C14.3553 27.9266 14.2286 27.7947 14.141 27.6381C14.0533 27.4816 14.0075 27.3056 14.0079 27.1267V17.9278C13.9974 17.8368 13.9974 17.745 14.0079 17.6541ZM24.1034 30.1159L29.9666 26.5373V19.8223L24.1034 23.3903V30.1159ZM23.0373 21.5695L29.0072 17.9278L23.0373 14.2966L17.0674 17.9278L23.0373 21.5695ZM16.108 26.5373L21.9713 30.1159V23.3903L16.108 19.8223V26.5373Z" fill="#222222"/>
<path fill-rule="evenodd" clip-rule="evenodd" d="M23.0261 0C10.8614 0 1 10.0608 1 22.4713C1 34.8819 10.8614 44.9427 23.0261 44.9427C28.4638 44.9427 33.4413 42.9323 37.2835 39.6004L45.2095 47.6866C45.6191 48.1045 46.2832 48.1045 46.6928 47.6866C47.1024 47.2687 47.1024 46.5912 46.6928 46.1733L38.8166 38.1378C42.6755 34.0901 45.0521 28.5639 45.0521 22.4713C45.0521 10.0608 35.1907 0 23.0261 0ZM3.09772 22.4713C3.09772 11.2427 12.0199 2.14013 23.0261 2.14013C34.0322 2.14013 42.9544 11.2427 42.9544 22.4713C42.9544 33.7 34.0322 42.8025 23.0261 42.8025C12.0199 42.8025 3.09772 33.7 3.09772 22.4713Z" fill="#222222"/>
</svg>
