<svg width="48" height="48" viewBox="0 0 48 48" fill="none" xmlns="http://www.w3.org/2000/svg">
<path fill-rule="evenodd" clip-rule="evenodd" d="M24.0833 25.2H29.5C29.7873 25.2 30.0629 25.0841 30.266 24.8778C30.4692 24.6715 30.5833 24.3917 30.5833 24.1C30.5833 23.8083 30.4692 23.5285 30.266 23.3222C30.0629 23.1159 29.7873 23 29.5 23H24.0833C23.796 23 23.5205 23.1159 23.3173 23.3222C23.1141 23.5285 23 23.8083 23 24.1C23 24.3917 23.1141 24.6715 23.3173 24.8778C23.5205 25.0841 23.796 25.2 24.0833 25.2ZM34.9167 31.8H29.5C29.2127 31.8 28.9371 31.9159 28.734 32.1222C28.5308 32.3285 28.4167 32.6083 28.4167 32.9C28.4167 33.1917 28.5308 33.4715 28.734 33.6778C28.9371 33.8841 29.2127 34 29.5 34H34.9167C35.204 34 35.4795 33.8841 35.6827 33.6778C35.8859 33.4715 36 33.1917 36 32.9C36 32.6083 35.8859 32.3285 35.6827 32.1222C35.4795 31.9159 35.204 31.8 34.9167 31.8ZM34.9167 27.4H24.0833C23.796 27.4 23.5205 27.5159 23.3173 27.7222C23.1141 27.9285 23 28.2083 23 28.5C23 28.7917 23.1141 29.0715 23.3173 29.2778C23.5205 29.4841 23.796 29.6 24.0833 29.6H34.9167C35.204 29.6 35.4795 29.4841 35.6827 29.2778C35.8859 29.0715 36 28.7917 36 28.5C36 28.2083 35.8859 27.9285 35.6827 27.7222C35.4795 27.5159 35.204 27.4 34.9167 27.4ZM33.8333 25.2H34.9167C35.204 25.2 35.4795 25.0841 35.6827 24.8778C35.8859 24.6715 36 24.3917 36 24.1C36 23.8083 35.8859 23.5285 35.6827 23.3222C35.4795 23.1159 35.204 23 34.9167 23H33.8333C33.546 23 33.2705 23.1159 33.0673 23.3222C32.8641 23.5285 32.75 23.8083 32.75 24.1C32.75 24.3917 32.8641 24.6715 33.0673 24.8778C33.2705 25.0841 33.546 25.2 33.8333 25.2ZM25.1667 31.8H24.0833C23.796 31.8 23.5205 31.9159 23.3173 32.1222C23.1141 32.3285 23 32.6083 23 32.9C23 33.1917 23.1141 33.4715 23.3173 33.6778C23.5205 33.8841 23.796 34 24.0833 34H25.1667C25.454 34 25.7295 33.8841 25.9327 33.6778C26.1359 33.4715 26.25 33.1917 26.25 32.9C26.25 32.6083 26.1359 32.3285 25.9327 32.1222C25.7295 31.9159 25.454 31.8 25.1667 31.8Z" fill="white"/>
<path fill-rule="evenodd" clip-rule="evenodd" d="M11.0833 13.2H16.5C16.7873 13.2 17.0629 13.0841 17.266 12.8778C17.4692 12.6715 17.5833 12.3917 17.5833 12.1C17.5833 11.8083 17.4692 11.5285 17.266 11.3222C17.0629 11.1159 16.7873 11 16.5 11H11.0833C10.796 11 10.5205 11.1159 10.3173 11.3222C10.1141 11.5285 10 11.8083 10 12.1C10 12.3917 10.1141 12.6715 10.3173 12.8778C10.5205 13.0841 10.796 13.2 11.0833 13.2ZM21.9167 19.8H16.5C16.2127 19.8 15.9371 19.9159 15.734 20.1222C15.5308 20.3285 15.4167 20.6083 15.4167 20.9C15.4167 21.1917 15.5308 21.4715 15.734 21.6778C15.9371 21.8841 16.2127 22 16.5 22H21.9167C22.204 22 22.4795 21.8841 22.6827 21.6778C22.8859 21.4715 23 21.1917 23 20.9C23 20.6083 22.8859 20.3285 22.6827 20.1222C22.4795 19.9159 22.204 19.8 21.9167 19.8ZM21.9167 15.4H11.0833C10.796 15.4 10.5205 15.5159 10.3173 15.7222C10.1141 15.9285 10 16.2083 10 16.5C10 16.7917 10.1141 17.0715 10.3173 17.2778C10.5205 17.4841 10.796 17.6 11.0833 17.6H21.9167C22.204 17.6 22.4795 17.4841 22.6827 17.2778C22.8859 17.0715 23 16.7917 23 16.5C23 16.2083 22.8859 15.9285 22.6827 15.7222C22.4795 15.5159 22.204 15.4 21.9167 15.4ZM20.8333 13.2H21.9167C22.204 13.2 22.4795 13.0841 22.6827 12.8778C22.8859 12.6715 23 12.3917 23 12.1C23 11.8083 22.8859 11.5285 22.6827 11.3222C22.4795 11.1159 22.204 11 21.9167 11H20.8333C20.546 11 20.2705 11.1159 20.0673 11.3222C19.8641 11.5285 19.75 11.8083 19.75 12.1C19.75 12.3917 19.8641 12.6715 20.0673 12.8778C20.2705 13.0841 20.546 13.2 20.8333 13.2ZM12.1667 19.8H11.0833C10.796 19.8 10.5205 19.9159 10.3173 20.1222C10.1141 20.3285 10 20.6083 10 20.9C10 21.1917 10.1141 21.4715 10.3173 21.6778C10.5205 21.8841 10.796 22 11.0833 22H12.1667C12.454 22 12.7295 21.8841 12.9327 21.6778C13.1359 21.4715 13.25 21.1917 13.25 20.9C13.25 20.6083 13.1359 20.3285 12.9327 20.1222C12.7295 19.9159 12.454 19.8 12.1667 19.8Z" fill="white"/>
<path fill-rule="evenodd" clip-rule="evenodd" d="M23.0261 0C10.8614 0 1 10.0608 1 22.4713C1 34.8819 10.8614 44.9427 23.0261 44.9427C28.4638 44.9427 33.4413 42.9323 37.2835 39.6004L45.2095 47.6866C45.6191 48.1045 46.2832 48.1045 46.6928 47.6866C47.1024 47.2687 47.1024 46.5912 46.6928 46.1733L38.8166 38.1378C42.6755 34.0901 45.0521 28.5639 45.0521 22.4713C45.0521 10.0608 35.1907 0 23.0261 0ZM3.09772 22.4713C3.09772 11.2427 12.0199 2.14013 23.0261 2.14013C34.0322 2.14013 42.9544 11.2427 42.9544 22.4713C42.9544 33.7 34.0322 42.8025 23.0261 42.8025C12.0199 42.8025 3.09772 33.7 3.09772 22.4713Z" fill="white"/>
</svg>
