<svg width="48" height="48" viewBox="0 0 48 48" fill="none" xmlns="http://www.w3.org/2000/svg">
<path d="M4.4 15.6C4.0287 15.6 3.6726 15.7475 3.41005 16.0101C3.1475 16.2726 3 16.6287 3 17V31C3 31.3713 3.1475 31.7274 3.41005 31.99C3.6726 32.2525 4.0287 32.4 4.4 32.4C4.7713 32.4 5.1274 32.2525 5.38995 31.99C5.6525 31.7274 5.8 31.3713 5.8 31V17C5.8 16.6287 5.6525 16.2726 5.38995 16.0101C5.1274 15.7475 4.7713 15.6 4.4 15.6ZM10 8.6C9.6287 8.6 9.2726 8.7475 9.01005 9.01005C8.7475 9.2726 8.6 9.6287 8.6 10V38C8.6 38.3713 8.7475 38.7274 9.01005 38.9899C9.2726 39.2525 9.6287 39.4 10 39.4C10.3713 39.4 10.7274 39.2525 10.9899 38.9899C11.2525 38.7274 11.4 38.3713 11.4 38V10C11.4 9.6287 11.2525 9.2726 10.9899 9.01005C10.7274 8.7475 10.3713 8.6 10 8.6ZM26.8 15.6C26.4287 15.6 26.0726 15.7475 25.81 16.0101C25.5475 16.2726 25.4 16.6287 25.4 17V31C25.4 31.3713 25.5475 31.7274 25.81 31.99C26.0726 32.2525 26.4287 32.4 26.8 32.4C27.1713 32.4 27.5274 32.2525 27.7899 31.99C28.0525 31.7274 28.2 31.3713 28.2 31V17C28.2 16.6287 28.0525 16.2726 27.7899 16.0101C27.5274 15.7475 27.1713 15.6 26.8 15.6ZM21.2 8.6C20.8287 8.6 20.4726 8.7475 20.2101 9.01005C19.9475 9.2726 19.8 9.6287 19.8 10V38C19.8 38.3713 19.9475 38.7274 20.2101 38.9899C20.4726 39.2525 20.8287 39.4 21.2 39.4C21.5713 39.4 21.9274 39.2525 22.1899 38.9899C22.4525 38.7274 22.6 38.3713 22.6 38V10C22.6 9.6287 22.4525 9.2726 22.1899 9.01005C21.9274 8.7475 21.5713 8.6 21.2 8.6ZM15.6 3C15.2287 3 14.8726 3.1475 14.6101 3.41005C14.3475 3.6726 14.2 4.0287 14.2 4.4V43.6C14.2 43.9713 14.3475 44.3274 14.6101 44.59C14.8726 44.8525 15.2287 45 15.6 45C15.9713 45 16.3274 44.8525 16.5899 44.59C16.8525 44.3274 17 43.9713 17 43.6V4.4C17 4.0287 16.8525 3.6726 16.5899 3.41005C16.3274 3.1475 15.9713 3 15.6 3ZM43.6 15.6C43.2287 15.6 42.8726 15.7475 42.6101 16.0101C42.3475 16.2726 42.2 16.6287 42.2 17V31C42.2 31.3713 42.3475 31.7274 42.6101 31.99C42.8726 32.2525 43.2287 32.4 43.6 32.4C43.9713 32.4 44.3274 32.2525 44.59 31.99C44.8525 31.7274 45 31.3713 45 31V17C45 16.6287 44.8525 16.2726 44.59 16.0101C44.3274 15.7475 43.9713 15.6 43.6 15.6ZM38 8.6C37.6287 8.6 37.2726 8.7475 37.01 9.01005C36.7475 9.2726 36.6 9.6287 36.6 10V38C36.6 38.3713 36.7475 38.7274 37.01 38.9899C37.2726 39.2525 37.6287 39.4 38 39.4C38.3713 39.4 38.7274 39.2525 38.9899 38.9899C39.2525 38.7274 39.4 38.3713 39.4 38V10C39.4 9.6287 39.2525 9.2726 38.9899 9.01005C38.7274 8.7475 38.3713 8.6 38 8.6ZM32.4 3C32.0287 3 31.6726 3.1475 31.41 3.41005C31.1475 3.6726 31 4.0287 31 4.4V43.6C31 43.9713 31.1475 44.3274 31.41 44.59C31.6726 44.8525 32.0287 45 32.4 45C32.7713 45 33.1274 44.8525 33.3899 44.59C33.6525 44.3274 33.8 43.9713 33.8 43.6V4.4C33.8 4.0287 33.6525 3.6726 33.3899 3.41005C33.1274 3.1475 32.7713 3 32.4 3Z" fill="white"/>
</svg>
