<svg width="48" height="48" viewBox="0 0 48 48" fill="none" xmlns="http://www.w3.org/2000/svg">
<g clip-path="url(#clip0_8_227)">
<path d="M42.9748 15.1703C43.3441 14.8008 43.5515 14.3002 43.5515 13.7782C43.5515 13.2563 43.3441 12.7557 42.9748 12.3861L41.4766 10.8908C41.1064 10.5222 40.6048 10.3152 40.0819 10.3152C39.559 10.3152 39.0574 10.5222 38.6871 10.8908L36.8538 12.7305C34.0311 10.3623 30.6051 8.82281 26.9575 8.28366V6.09961H28.0023C28.5334 6.09238 29.0406 5.87861 29.4162 5.50379C29.7917 5.12896 30.0059 4.62267 30.0131 4.09264V1.97745C30.0131 0.895265 29.0866 0 28.0023 0H19.9986C18.9144 0 17.9878 0.895265 17.9878 1.97745V4.09264C17.9967 4.62215 18.2114 5.12749 18.5866 5.50196C18.9618 5.87643 19.4681 6.09073 19.9986 6.09961H21.0434V8.28366C11.3838 9.70035 3.98129 18.0234 3.98129 28.0385C3.98129 39.0473 12.9608 48 23.9906 48C35.0204 48 44 39.0473 44 28.0385C44.0079 24.2289 42.9125 20.4982 40.8458 17.2953L42.9748 15.1703ZM40.0769 12.2878L41.5752 13.7832L39.6925 15.6622C39.249 15.1113 38.7857 14.58 38.283 14.0685L40.0769 12.2878ZM19.9592 4.13199V1.96762H28.0418V4.13199H19.9592ZM23.0148 6.09961H24.9862V8.09674C24.5919 8.07707 24.3159 8.07707 24.0005 8.07707C23.6851 8.07707 23.4091 8.0869 23.0148 8.09674V6.09961ZM24.0005 46.0324C14.055 46.0324 5.97237 37.9553 5.97237 28.0385C5.97237 18.1217 14.055 10.0348 24.0005 10.0348C33.946 10.0348 42.0286 18.1119 42.0286 28.0385C42.0286 37.9652 33.946 46.0324 24.0005 46.0324Z" fill="#222222"/>
<path d="M24.0005 12.0024H23.8132C15.1589 12.1008 8.13101 19.0662 7.94373 27.6843C7.87326 27.8214 7.83612 27.973 7.83531 28.1271C7.83349 28.2889 7.87428 28.4483 7.95359 28.5894C8.24929 37.0896 15.2082 43.9369 23.7639 44.0549C23.8094 44.0631 23.8557 44.0664 23.9019 44.0648C23.9416 44.0664 23.9813 44.0631 24.0202 44.0549C32.8716 44.0549 40.0671 36.8731 40.0671 28.0385C40.0671 19.1941 32.8618 12.0024 24.0005 12.0024ZM24.8876 42.0676V40.2377C24.8876 39.9768 24.7837 39.7266 24.5989 39.5421C24.414 39.3576 24.1633 39.2539 23.9019 39.2539C23.6405 39.2539 23.3898 39.3576 23.2049 39.5421C23.0201 39.7266 22.9162 39.9768 22.9162 40.2377V42.0578C16.0066 41.5265 10.4769 36.0172 9.95452 29.1207H11.6795C11.9409 29.1207 12.1916 29.0171 12.3764 28.8326C12.5613 28.6481 12.6651 28.3978 12.6651 28.1369C12.6651 27.876 12.5613 27.6257 12.3764 27.4412C12.1916 27.2567 11.9409 27.1531 11.6795 27.1531H9.93481C10.1518 23.7698 11.584 20.5781 13.9685 18.1638C16.353 15.7494 19.53 14.2744 22.9162 14.0094V15.8393C22.9162 16.1002 23.0201 16.3505 23.2049 16.535C23.3898 16.7195 23.6405 16.8231 23.9019 16.8231C24.1633 16.8231 24.414 16.7195 24.5989 16.535C24.7837 16.3505 24.8876 16.1002 24.8876 15.8393V13.9996C28.3103 14.2199 31.5355 15.6765 33.9608 18.0971C36.386 20.5178 37.8454 23.7369 38.0662 27.1531H36.1244C35.8629 27.1531 35.6122 27.2567 35.4274 27.4412C35.2425 27.6257 35.1387 27.876 35.1387 28.1369C35.1387 28.3978 35.2425 28.6481 35.4274 28.8326C35.6122 29.0171 35.8629 29.1207 36.1244 29.1207H38.0464C37.5142 36.0762 31.8859 41.6347 24.8876 42.0676Z" fill="#222222"/>
<path d="M29.609 27.2516H24.9862V20.7486C24.9862 20.4877 24.8823 20.2374 24.6975 20.0529C24.5126 19.8684 24.2619 19.7648 24.0005 19.7648C23.7391 19.7648 23.4883 19.8684 23.3035 20.0529C23.1186 20.2374 23.0148 20.4877 23.0148 20.7486V28.2452C23.012 28.3722 23.0348 28.4985 23.0816 28.6166C23.1284 28.7347 23.1984 28.8423 23.2875 28.933C23.3766 29.0237 23.4829 29.0958 23.6003 29.1449C23.7176 29.1941 23.8436 29.2193 23.9709 29.2192H29.5991C29.8606 29.2205 30.1118 29.1181 30.2976 28.9345C30.4833 28.7509 30.5884 28.5012 30.5898 28.2403C30.5911 27.9794 30.4885 27.7286 30.3045 27.5432C30.1206 27.3578 29.8704 27.2529 29.609 27.2516Z" fill="#222222"/>
</g>
<defs>
<clipPath id="clip0_8_227">
<rect width="48" height="48" fill="white"/>
</clipPath>
</defs>
</svg>
