<svg width="48" height="48" viewBox="0 0 48 48" fill="none" xmlns="http://www.w3.org/2000/svg">
<g clip-path="url(#clip0_4_65)">
<path fill-rule="evenodd" clip-rule="evenodd" d="M0.75 9.00009C0.551088 9.00009 0.360322 9.07898 0.21967 9.21964C0.0790176 9.36029 0 9.55118 0 9.75009L0 33.7501C0 33.949 0.0790176 34.1397 0.21967 34.2804C0.360322 34.421 0.551088 34.5001 0.75 34.5001H7.62C7.5855 34.7401 7.545 34.983 7.545 35.232C7.545 38.124 9.903 40.482 12.795 40.482C15.684 40.482 18.045 38.124 18.045 35.232C18.045 34.983 18.0015 34.7416 17.9685 34.5001H30.75C30.8005 34.4992 30.8507 34.493 30.9 34.482H32.37C32.334 34.7295 32.295 34.977 32.295 35.232C32.295 38.1225 34.653 40.482 37.545 40.482C40.434 40.482 42.795 38.1225 42.795 35.232C42.795 34.977 42.753 34.7295 42.7185 34.482H47.25C47.4489 34.482 47.6397 34.4031 47.7803 34.2624C47.921 34.1218 48 33.9309 48 33.732V29.2874C48.0016 29.27 48.0026 29.2526 48.003 29.2351V26.2259C48.0033 26.2009 48.0023 26.176 48 26.151V21.7305C48.0006 21.5486 47.935 21.3727 47.8155 21.2356C47.788 21.1935 47.7563 21.1543 47.721 21.1186L39.9495 12.2385C39.8789 12.1581 39.7919 12.0937 39.6944 12.0497C39.5968 12.0057 39.491 11.9831 39.384 11.9834H31.5V9.75009C31.5 9.55118 31.421 9.36029 31.2803 9.21964C31.1397 9.07898 30.9489 9.00009 30.75 9.00009H0.75ZM1.5 10.5001H30V26.982H1.5V10.5001ZM4.5315 11.982C4.33311 11.9851 4.14405 12.0668 4.00573 12.209C3.86741 12.3513 3.79109 12.5425 3.7935 12.7409V24.732C3.7935 24.9309 3.87252 25.1218 4.01317 25.2624C4.15382 25.4031 4.34459 25.482 4.5435 25.482C4.74241 25.482 4.93318 25.4031 5.07383 25.2624C5.21448 25.1218 5.2935 24.9309 5.2935 24.732V12.7409C5.29472 12.6407 5.27582 12.5412 5.23791 12.4483C5.20001 12.3555 5.14388 12.2714 5.07284 12.2006C5.0018 12.1298 4.91728 12.0739 4.8243 12.0363C4.73132 11.9988 4.63176 11.9804 4.5315 11.982ZM9.0315 11.982C8.83311 11.9851 8.64405 12.0668 8.50573 12.209C8.36741 12.3513 8.29109 12.5425 8.2935 12.7409V24.732C8.2935 24.9309 8.37252 25.1218 8.51317 25.2624C8.65382 25.4031 8.84459 25.482 9.0435 25.482C9.24241 25.482 9.43318 25.4031 9.57383 25.2624C9.71448 25.1218 9.7935 24.9309 9.7935 24.732V12.7409C9.79472 12.6407 9.77582 12.5412 9.73791 12.4483C9.70001 12.3555 9.64388 12.2714 9.57284 12.2006C9.5018 12.1298 9.41728 12.0739 9.3243 12.0363C9.23132 11.9988 9.13176 11.9804 9.0315 11.982ZM13.5315 11.982C13.3331 11.9851 13.144 12.0668 13.0057 12.209C12.8674 12.3513 12.7911 12.5425 12.7935 12.7409V24.732C12.7935 24.9309 12.8725 25.1218 13.0132 25.2624C13.1538 25.4031 13.3446 25.482 13.5435 25.482C13.7424 25.482 13.9332 25.4031 14.0738 25.2624C14.2145 25.1218 14.2935 24.9309 14.2935 24.732V12.7409C14.2947 12.6407 14.2758 12.5412 14.2379 12.4483C14.2 12.3555 14.1439 12.2714 14.0728 12.2006C14.0018 12.1298 13.9173 12.0739 13.8243 12.0363C13.7313 11.9988 13.6318 11.9804 13.5315 11.982ZM18.0315 11.982C17.8331 11.9851 17.644 12.0668 17.5057 12.209C17.3674 12.3513 17.2911 12.5425 17.2935 12.7409V24.732C17.2935 24.9309 17.3725 25.1218 17.5132 25.2624C17.6538 25.4031 17.8446 25.482 18.0435 25.482C18.2424 25.482 18.4332 25.4031 18.5738 25.2624C18.7145 25.1218 18.7935 24.9309 18.7935 24.732V12.7409C18.7947 12.6407 18.7758 12.5412 18.7379 12.4483C18.7 12.3555 18.6439 12.2714 18.5728 12.2006C18.5018 12.1298 18.4173 12.0739 18.3243 12.0363C18.2313 11.9988 18.1318 11.9804 18.0315 11.982ZM22.5315 11.982C22.3331 11.9851 22.144 12.0668 22.0057 12.209C21.8674 12.3513 21.7911 12.5425 21.7935 12.7409V24.732C21.7935 24.9309 21.8725 25.1218 22.0132 25.2624C22.1538 25.4031 22.3446 25.482 22.5435 25.482C22.7424 25.482 22.9332 25.4031 23.0738 25.2624C23.2145 25.1218 23.2935 24.9309 23.2935 24.732V12.7409C23.2947 12.6407 23.2758 12.5412 23.2379 12.4483C23.2 12.3555 23.1439 12.2714 23.0728 12.2006C23.0018 12.1298 22.9173 12.0739 22.8243 12.0363C22.7313 11.9988 22.6318 11.9804 22.5315 11.982ZM27.0315 11.982C26.8331 11.9851 26.644 12.0668 26.5057 12.209C26.3674 12.3513 26.2911 12.5425 26.2935 12.7409V24.732C26.2935 24.9309 26.3725 25.1218 26.5132 25.2624C26.6538 25.4031 26.8446 25.482 27.0435 25.482C27.2424 25.482 27.4332 25.4031 27.5738 25.2624C27.7145 25.1218 27.7935 24.9309 27.7935 24.732V12.7409C27.7947 12.6407 27.7758 12.5412 27.7379 12.4483C27.7 12.3555 27.6439 12.2714 27.5728 12.2006C27.5018 12.1298 27.4173 12.0739 27.3243 12.0363C27.2313 11.9988 27.1318 11.9804 27.0315 11.982ZM31.5 13.482H39.045L45.609 20.9805H31.5V13.4834V13.482ZM31.545 22.4805H46.5V25.4776H44.2905C44.0916 25.4776 43.9008 25.5565 43.7602 25.6971C43.6195 25.8378 43.5405 26.0287 43.5405 26.2276V29.2351C43.5405 29.434 43.6195 29.6247 43.7602 29.7654C43.9008 29.906 44.0916 29.9851 44.2905 29.9851H46.5V32.982H42.267C41.843 32.0872 41.1744 31.3306 40.3385 30.7997C39.5027 30.2688 38.5337 29.9854 37.5435 29.982C36.5536 29.9856 35.5849 30.2694 34.7493 30.8003C33.9138 31.3311 33.2454 32.0874 32.8215 32.982H31.5435V22.4805H31.545ZM33.705 24.7334C33.5061 24.7436 33.3194 24.8324 33.1859 24.9803C33.0524 25.1281 32.9831 25.3228 32.9933 25.5217C33.0034 25.7206 33.0921 25.9073 33.24 26.0408C33.3878 26.1743 33.5826 26.2436 33.7815 26.2334H35.3055C35.5044 26.2334 35.6952 26.1545 35.8358 26.0139C35.9765 25.8732 36.0555 25.6823 36.0555 25.4834C36.0555 25.2845 35.9765 25.0938 35.8358 24.9532C35.6952 24.8125 35.5044 24.7334 35.3055 24.7334H33.7815C33.7565 24.7322 33.7315 24.7322 33.7065 24.7334H33.705ZM45.0405 26.9776H46.5V28.4851H45.0405V26.9776ZM1.5 28.482H30V32.9984H17.529C17.1064 32.0987 16.437 31.3375 15.5987 30.8032C14.7604 30.2689 13.7876 29.9836 12.7935 29.9805C11.7997 29.9839 10.8272 30.2693 9.9892 30.8036C9.15118 31.3378 8.48202 32.0989 8.0595 32.9984H1.5V31.4805H3.7815C3.98041 31.4805 4.17118 31.4014 4.31183 31.2608C4.45248 31.1201 4.5315 30.9294 4.5315 30.7305C4.5315 30.5316 4.45248 30.3409 4.31183 30.2002C4.17118 30.0596 3.98041 29.9805 3.7815 29.9805H1.5V28.4805V28.482ZM12.795 31.482C14.874 31.482 16.545 33.1515 16.545 35.232C16.545 37.311 14.874 38.982 12.795 38.982C12.3021 38.9835 11.8138 38.8877 11.3581 38.6998C10.9024 38.5119 10.4884 38.2357 10.1398 37.8872C9.79128 37.5386 9.51512 37.1247 9.32722 36.669C9.13933 36.2133 9.04342 35.7249 9.045 35.232C9.045 33.1515 10.7145 31.482 12.795 31.482ZM37.545 31.482C39.624 31.482 41.295 33.1515 41.295 35.232C41.295 37.311 39.624 38.982 37.545 38.982C37.0521 38.9835 36.5638 38.8877 36.1081 38.6998C35.6524 38.5119 35.2383 38.2357 34.8898 37.8872C34.5413 37.5386 34.2651 37.1247 34.0772 36.669C33.8893 36.2133 33.7934 35.7249 33.795 35.232C33.795 33.1515 35.4645 31.482 37.545 31.482ZM12.795 32.982C11.5605 32.982 10.545 33.9975 10.545 35.232C10.545 36.465 11.5605 37.482 12.795 37.482C14.028 37.482 15.045 36.465 15.045 35.232C15.045 33.9975 14.028 32.982 12.795 32.982ZM37.545 32.982C36.3105 32.982 35.295 33.9975 35.295 35.232C35.295 36.465 36.3105 37.482 37.545 37.482C38.778 37.482 39.795 36.465 39.795 35.232C39.795 33.9975 38.778 32.982 37.545 32.982ZM12.795 34.482C13.2165 34.482 13.545 34.8075 13.545 35.232C13.545 35.655 13.2165 35.982 12.795 35.982C12.6961 35.9834 12.598 35.965 12.5063 35.9278C12.4147 35.8906 12.3314 35.8355 12.2615 35.7655C12.1916 35.6956 12.1364 35.6124 12.0992 35.5207C12.062 35.4291 12.0436 35.3308 12.045 35.232C12.045 34.8075 12.3705 34.482 12.795 34.482ZM37.545 34.482C37.9665 34.482 38.295 34.8075 38.295 35.232C38.295 35.655 37.9665 35.982 37.545 35.982C37.4461 35.9834 37.348 35.965 37.2563 35.9278C37.1647 35.8906 37.0814 35.8355 37.0115 35.7655C36.9416 35.6956 36.8864 35.6124 36.8492 35.5207C36.812 35.4291 36.7936 35.3308 36.795 35.232C36.795 34.8075 37.1205 34.482 37.545 34.482Z" fill="white"/>
</g>
<defs>
<clipPath id="clip0_4_65">
<rect width="48" height="48" fill="white"/>
</clipPath>
</defs>
</svg>
